<svg id="Слой_1" data-name="Слой 1" xmlns="http://www.w3.org/2000/svg" viewBox="0 0 40 29.18">
    <defs>
        <style>.cls-1{fill:#fff;}</style>
    </defs>
    <title>bookwhite</title>
    <path class="cls-1"
          d="M39.26,3.7H37.55V2a.74.74,0,0,0-.65-.73L26.7.09A12.07,12.07,0,0,0,20,1.21,12.07,12.07,0,0,0,13.35.1L3.15,1.3A.74.74,0,0,0,2.5,2V3.7H.74A.74.74,0,0,0,0,4.44H0v24a.74.74,0,0,0,.74.74H39.26a.74.74,0,0,0,.74-.74h0v-24a.74.74,0,0,0-.74-.74ZM26.52,1.5l9.55,1.12V24.5l-9.38-1.1a12.06,12.06,0,0,0-5.91.78V2.43a10.6,10.6,0,0,1,5.75-.93Zm-13,0a10.6,10.6,0,0,1,5.74.93V24.19a12,12,0,0,0-4.49-.87,12.22,12.22,0,0,0-1.42.08L4,24.5V2.62Zm25,26.22H1.47V5.17H2.55v20.2a.75.75,0,0,0,.06.31.74.74,0,0,0,.76.44l10.2-1.2A10.61,10.61,0,0,1,19.71,26a.74.74,0,0,0,.68,0,10.61,10.61,0,0,1,6.14-1.12l10.2,1.2h.09a.74.74,0,0,0,.7-.5.71.71,0,0,0,0-.24V5.17h1Z"
          transform="translate(0 0)"/>
    <path class="cls-1"
          d="M22.45,5.65a10.6,10.6,0,0,1,4-.3l7.66.9h.09a.74.74,0,0,0,.08-1.47l-7.66-.9A12,12,0,0,0,22,4.22a.74.74,0,0,0,.25,1.46h.14Z"
          transform="translate(0 0)"/>
    <path class="cls-1"
          d="M5.79,6.25h.09l7.65-.9a10.66,10.66,0,0,1,4,.3A.75.75,0,0,0,18,4.23a12.13,12.13,0,0,0-4.59-.34l-7.66.9a.74.74,0,0,0,.08,1.47Z"
          transform="translate(0 0)"/>
    <path class="cls-1"
          d="M22.45,9a10.59,10.59,0,0,1,4-.3l7.66.9h.09a.74.74,0,0,0,.08-1.47l-7.66-.9A12.06,12.06,0,0,0,22,7.59.75.75,0,0,0,22.45,9Z"
          transform="translate(0 0)"/>
    <path class="cls-1"
          d="M5.79,9.63h.09l7.65-.9a10.67,10.67,0,0,1,4,.3A.75.75,0,0,0,18,7.6a12.13,12.13,0,0,0-4.59-.34l-7.66.9a.74.74,0,0,0,.08,1.47Z"
          transform="translate(0 0)"/>
    <path class="cls-1"
          d="M22.45,12.39a10.59,10.59,0,0,1,4-.3l7.66.9h.09a.74.74,0,0,0,.08-1.47l-7.66-.9A12.06,12.06,0,0,0,22,11a.74.74,0,0,0,.25,1.46h.14Z"
          transform="translate(0 0)"/>
    <path class="cls-1"
          d="M5.79,13h.09l7.65-.9a10.67,10.67,0,0,1,4,.3A.74.74,0,0,0,18,11a12.14,12.14,0,0,0-4.59-.34l-7.66.9a.74.74,0,0,0,0,1.44Z"
          transform="translate(0 0)"/>
    <path class="cls-1"
          d="M22.45,15.77a10.59,10.59,0,0,1,4-.3l7.66.9h.09a.74.74,0,0,0,.08-1.47L26.65,14a12.06,12.06,0,0,0-4.59.34.74.74,0,0,0,.25,1.46h.14Z"
          transform="translate(0 0)"/>
    <path class="cls-1"
          d="M5.79,16.37h.09l7.65-.9a10.66,10.66,0,0,1,4,.3A.75.75,0,0,0,18,14.35,12.13,12.13,0,0,0,13.36,14l-7.66.9a.74.74,0,0,0,.08,1.47Z"
          transform="translate(0 0)"/>
    <path class="cls-1"
          d="M34.31,18.28l-7.66-.9a12.06,12.06,0,0,0-4.59.34.74.74,0,0,0,.39,1.42,10.6,10.6,0,0,1,4-.3l7.66.9h.09a.74.74,0,0,0,.08-1.47Z"
          transform="translate(0 0)"/>
    <path class="cls-1"
          d="M5.79,19.74h.09l7.65-.9a10.67,10.67,0,0,1,4,.3A.75.75,0,0,0,18,17.72h0a12.13,12.13,0,0,0-4.59-.34l-7.66.9a.74.74,0,0,0,.08,1.47Z"
          transform="translate(0 0)"/>
</svg>