<svg id="Слой_1" data-name="Слой 1" xmlns="http://www.w3.org/2000/svg" viewBox="0 0 14.01 12.66">
    <defs>
        <style>.cls-1{opacity:0.7;}.cls-2{fill:#ff698b;}</style>
    </defs>
    <title>calendar</title>
    <g class="cls-1">
        <path class="cls-2"
              d="M12.92.88H11.59V.22a.2.2,0,0,0-.41,0h0V.88H9.4V.22A.2.2,0,0,0,9,.2H9V.88H7.21V.22A.2.2,0,0,0,6.8.2h0V.88H5V.22a.2.2,0,0,0-.41,0h0V.88H2.81V.22A.2.2,0,0,0,2.4.2h0V.88H1.07A1.08,1.08,0,0,0,0,2H0v9.63a1.08,1.08,0,0,0,1.08,1.08H12.91A1.08,1.08,0,0,0,14,11.6h0V1.95A1.08,1.08,0,0,0,12.92.88Zm.67,10.73a.67.67,0,0,1-.67.67H1.08a.67.67,0,0,1-.67-.67h0V2a.67.67,0,0,1,.67-.67H2.41V2a.2.2,0,0,0,.41,0h0V1.3H4.6V2A.2.2,0,0,0,5,2H5V1.3H6.79V2A.2.2,0,0,0,7.2,2h0V1.3H9V2a.2.2,0,0,0,.41,0h0V1.3h1.78V2a.2.2,0,0,0,.41,0h0V1.3h1.33A.67.67,0,0,1,13.6,2h0Z"
              transform="translate(0.01 -0.01)"/>
        <path class="cls-2" d="M12.92,3.07H1.09a.2.2,0,0,0,0,.41H12.91a.2.2,0,0,0,0-.41Z"
              transform="translate(0.01 -0.01)"/>
        <path class="cls-2"
              d="M10.58,5.59,6.29,9.88a.23.23,0,0,1-.33,0H6l-2.1-2.1a.21.21,0,0,0-.29.29l2.1,2.1a.64.64,0,0,0,.91,0h0l4.29-4.29a.21.21,0,1,0-.23-.35l-.06.06Z"
              transform="translate(0.01 -0.01)"/>
    </g>
</svg>