<svg id="Слой_1" data-name="Слой 1" xmlns="http://www.w3.org/2000/svg" viewBox="0 0 40 38">
    <defs>
        <style>.cls-1{fill:#fff;}</style>
    </defs>
    <title>cart</title>
    <path class="cls-1"
          d="M12.14,22.48H35.83L40,7.58H33.92L31.71.76l-9.21,3L23.76,7.6h-.43L21.06.78l-9.21,3,1.26,3.84H8.19l-1-4.09A4.54,4.54,0,0,0,2.81,0H0V1.7H2.81A2.82,2.82,0,0,1,5.54,3.83L10,21.53a3.71,3.71,0,0,0-1.53,3.32,3.87,3.87,0,0,0,3.79,3.45h23V26.6H12.14a2.06,2.06,0,1,1,0-4.12ZM30.55,2.92l1.54,4.6H25.45l-.94-2.64Zm-10.64,0,1.54,4.6H14.81l-.94-2.64Zm17.88,6.3L34.55,20.78h-23l-3-11.63,29.21.07Z"/>
    <path class="cls-1"
          d="M27.74,30.84A3.59,3.59,0,0,0,27.36,38h.38a3.54,3.54,0,0,0,3.58-3.5h0v-.08A3.6,3.6,0,0,0,27.74,30.84Zm0,5.54a2,2,0,0,1,0-3.92,1.92,1.92,0,0,1,2,1.84h0v.16a2,2,0,0,1-2,1.91Z"/>
    <path class="cls-1"
          d="M14.63,30.84a3.58,3.58,0,1,0,3.58,3.58h0A3.6,3.6,0,0,0,14.63,30.84Zm0,5.54a2,2,0,1,1,2-2A2,2,0,0,1,14.63,36.38Z"/>
</svg>