<svg id="Слой_1" data-name="Слой 1" xmlns="http://www.w3.org/2000/svg" viewBox="0 0 40 32.02">
    <defs>
        <style>.cls-1{fill:#fff;}</style>
    </defs>
    <title>chat</title>
    <path class="cls-1"
          d="M30.36,0H2.25A2.25,2.25,0,0,0,0,2.25V18.37a2.25,2.25,0,0,0,2.25,2.25H4v5.84a1,1,0,0,0,.46.84.94.94,0,0,0,1.14-.14l6.62-6.62H13.5a1,1,0,0,0,1-.92.94.94,0,0,0-.88-1H11.75a.93.93,0,0,0-.6.27L5.86,24.18V19.47a.94.94,0,0,0-.93-.85H2.24a.37.37,0,0,1-.37-.37h0v-16a.37.37,0,0,1,.37-.37H29.3a.16.16,0,0,1,.16.16V8.65a.41.41,0,0,0,.13.3,1,1,0,0,0,1.75-.58V1A1,1,0,0,0,30.36,0Z"/>
    <path class="cls-1"
          d="M37.76,11.56H19a2.25,2.25,0,0,0-2.25,2.25v11A2.25,2.25,0,0,0,19,27H30.73l4.77,4.76a.94.94,0,0,0,1.61-.69V27h.64A2.25,2.25,0,0,0,40,24.78v-11A2.25,2.25,0,0,0,37.76,11.56Zm.37,13.15a.37.37,0,0,1-.37.37h-1.6s-.9.42-.94.91v2.84L31.79,25.4h0a.76.76,0,0,0-.62-.2H19c-.2,0-.37-.4-.37-.4v-11a.37.37,0,0,1,.37-.37H37.8a.37.37,0,0,1,.37.37h0Z"/>
    <path class="cls-1" d="M28.36,18.32a.94.94,0,1,0,.94.94h0a.94.94,0,0,0-.94-.94Z"/>
    <path class="cls-1"
          d="M24.2,6.25H7.2a1,1,0,0,0-1,.92.94.94,0,0,0,.88,1H24.14a1,1,0,0,0,1-.92.94.94,0,0,0-.88-1H24.2Z"/>
    <path class="cls-1"
          d="M13.58,12.42H7.14a1,1,0,0,0-1,.92.94.94,0,0,0,.88,1h6.5a1,1,0,0,0,1-.92.94.94,0,0,0-.88-1h-.06Z"/>
    <path class="cls-1" d="M24,18.32a.94.94,0,1,0,.94.94h0a.94.94,0,0,0-.94-.94Z"/>
    <path class="cls-1" d="M32.74,18.32a.94.94,0,1,0,.94.94h0A.94.94,0,0,0,32.74,18.32Z"/>
</svg>