<svg id="Слой_1" data-name="Слой 1" xmlns="http://www.w3.org/2000/svg" viewBox="0 0 13 13">
    <defs>
        <style>.cls-1{opacity:0.7;}.cls-2{fill:#ff698b;}</style>
    </defs>
    <title>clock</title>
    <g class="cls-1">
        <path class="cls-2"
              d="M6.5,0A6.5,6.5,0,1,0,13,6.5h0A6.51,6.51,0,0,0,6.5,0Zm0,12.57A6.07,6.07,0,1,1,12.57,6.5,6.07,6.07,0,0,1,6.5,12.57h0Z"
              transform="translate(0)"/>
        <path class="cls-2"
              d="M6.5,1.32a.22.22,0,0,0-.22.22h0v5H3A.22.22,0,0,0,3,7H6.48a.22.22,0,0,0,.22-.22h0V1.55A.22.22,0,0,0,6.5,1.32Z"
              transform="translate(0)"/>
    </g>
</svg>