<svg id="Слой_1" data-name="Слой 1" xmlns="http://www.w3.org/2000/svg" viewBox="0 0 41 41">
    <defs>
        <style>.cls-1{opacity:0.8;}.cls-2{fill:none;stroke:#7db5ba;stroke-miterlimit:10;}.cls-3{fill:#7db5ba;}</style>
    </defs>
    <title>flask</title>
    <g class="cls-1">
        <circle class="cls-2" cx="20.5" cy="20.5" r="20"/>
        <line class="cls-2" x1="33.71" y1="5.03" x2="6.54" y2="35.22"/>
    </g>
    <path class="cls-3"
          d="M32.67,27.27,32.5,27c-.65-1.15-2.16-3.85-3.73-6.15-.53-.77-1-1.49-1.53-2.14A11.67,11.67,0,0,1,25.5,16c.06-1.69,0-5.69,0-6.93h1.22V6.5H14.16V9H15.5c0,1.24,0,5.24,0,6.93a11.52,11.52,0,0,1-1.73,2.73c-.48.65-1,1.37-1.53,2.15-1.56,2.3-3.08,5-3.73,6.15l-.17.3a4.1,4.1,0,0,0,0,3.9A2.52,2.52,0,0,0,10.5,32.5h20a2.52,2.52,0,0,0,2.24-1.32A4.1,4.1,0,0,0,32.67,27.27Zm-1.17,3a1.1,1.1,0,0,1-1,.6H10.19a1.1,1.1,0,0,1-1-.6,2.67,2.67,0,0,1,0-2.47l.17-.31C10,26.3,11.51,23.62,13,21.36c.52-.76,1-1.47,1.51-2.12,1.35-1.84,2-2.83,2-3.66,0-1.51,0-5,0-6.56H24v6.56c0,.82.67,1.82,2,3.66.47.65,1,1.35,1.51,2.12,1.54,2.27,3,4.94,3.69,6.08l.17.31A2.67,2.67,0,0,1,31.5,30.22Z"/>
    <path class="cls-3"
          d="M30.08,26.86c-.37-.65-1.22-2.18-2.11-3.48l-.67-.94H13.39l-.67.94c-.88,1.3-1.74,2.83-2.11,3.48l-.1.17a2.32,2.32,0,0,0,0,2.21,1.43,1.43,0,0,0,1.27.75H28.92a1.43,1.43,0,0,0,1.27-.75,2.32,2.32,0,0,0,0-2.21Z"/>
</svg>