<svg id="Слой_1" data-name="Слой 1" xmlns="http://www.w3.org/2000/svg" viewBox="0 0 50 50">
    <defs>
        <style>.cls-1{fill:#fff;}</style>
    </defs>
    <title>globe</title>
    <path class="cls-1"
          d="M275.19,272.57a24.93,24.93,0,0,0-.48-33.67h0A24.93,24.93,0,0,0,257.36,231h-1.73a24.93,24.93,0,0,0-17.34,7.87h0a24.93,24.93,0,0,0-.48,33.67v0l.05.05A24.94,24.94,0,0,0,255.63,281h1.73a24.94,24.94,0,0,0,17.78-8.35l0,0Zm-41.95-15.69h10.35a31.86,31.86,0,0,0,2.08,10.53,31.79,31.79,0,0,0-7,3.56A23.17,23.17,0,0,1,233.24,256.88Zm5.91-16.39a31.71,31.71,0,0,0,6.81,3.35,31.83,31.83,0,0,0-2.37,11.29H233.24A23.17,23.17,0,0,1,239.15,240.49Zm40.6,14.64H269.4A31.83,31.83,0,0,0,267,243.83a31.71,31.71,0,0,0,6.81-3.35A23.17,23.17,0,0,1,279.75,255.12ZM255.66,243.9a30.14,30.14,0,0,1-7.3-1.11,30.16,30.16,0,0,1,7.3-9.51Zm0,1.71v9.51H245.34a30.11,30.11,0,0,1,2.3-10.75A31.85,31.85,0,0,0,255.66,245.61Zm1.66,0a31.83,31.83,0,0,0,8-1.24,30.11,30.11,0,0,1,2.3,10.75H257.32Zm0-1.71V233.28a30.16,30.16,0,0,1,7.3,9.51A30.14,30.14,0,0,1,257.32,243.9Zm9-1.63a31.84,31.84,0,0,0-6.8-9.34,23.21,23.21,0,0,1,13.09,6.31A30,30,0,0,1,266.33,242.27Zm-19.67,0a30,30,0,0,1-6.29-3,23.21,23.21,0,0,1,13.09-6.31A31.82,31.82,0,0,0,246.66,242.27Zm-1.32,14.61h10.32v8.65a31.8,31.8,0,0,0-8.33,1.33A30.11,30.11,0,0,1,245.34,256.88Zm10.32,10.36v11.48A30.15,30.15,0,0,1,248,268.45,30.06,30.06,0,0,1,255.66,267.24Zm1.66,11.48V267.24a30.06,30.06,0,0,1,7.66,1.21A30.14,30.14,0,0,1,257.32,278.72Zm0-13.19v-8.65h10.32a30.1,30.1,0,0,1-2,10A31.75,31.75,0,0,0,257.32,265.53Zm12.08-8.65h10.35A23.16,23.16,0,0,1,274.31,271a31.79,31.79,0,0,0-7-3.56A31.84,31.84,0,0,0,269.4,256.88Zm-29.55,15.37a30,30,0,0,1,6.48-3.26,31.81,31.81,0,0,0,7.13,10.08A23.23,23.23,0,0,1,239.85,272.25Zm19.68,6.82A31.79,31.79,0,0,0,266.66,269a30.06,30.06,0,0,1,6.48,3.26A23.23,23.23,0,0,1,259.53,279.07Z"
          transform="translate(-231.49 -231)"/>
</svg>