<svg id="Capa_1" data-name="Capa 1" xmlns="http://www.w3.org/2000/svg" viewBox="0 0 32.77 20.83">
    <defs>
        <style>.cls-1{fill:none;stroke:#fff;stroke-miterlimit:10;}</style>
    </defs>
    <title>graduate-cap</title>
    <path class="cls-1"
          d="M31.77,20.32a1.19,1.19,0,0,0-.68-1.07V11.9a.23.23,0,0,0,0-.42L15.92,6.13a.9.9,0,0,0-.6,0L.15,11.48a.23.23,0,0,0,0,.42l15.15,5.9a.91.91,0,0,0,.65,0L30,12.31v6.95a1.19,1.19,0,0,0,.05,2.17,9.88,9.88,0,0,0-.73,3.08,1.2,1.2,0,0,0,2.4,0A9.91,9.91,0,0,0,31,21.42,1.2,1.2,0,0,0,31.77,20.32Z"
          transform="translate(0.5 -5.57)"/>
    <path class="cls-1"
          d="M4.89,16c0,1.7,0,3.69,0,4,0,3.16,4.75,5.73,10.73,5.89,6-.16,10.73-2.73,10.73-5.89,0-.32,0-2.31,0-4L15.94,20.05a.9.9,0,0,1-.65,0Z"
          transform="translate(0.5 -5.57)"/>
</svg>