<svg id="Слой_1" data-name="Слой 1" xmlns="http://www.w3.org/2000/svg" viewBox="0 0 14.99 13.9">
    <defs>
        <style>.cls-1{opacity:0.7;}.cls-2{opacity:0.8;}.cls-3{fill:#ff698b;}</style>
    </defs>
    <title>group</title>
    <g class="cls-1">
        <g class="cls-2">
            <path class="cls-3"
                  d="M11.34,7.32A4.07,4.07,0,1,0,6.28,1a2,2,0,0,1,.86.24,3.36,3.36,0,0,1,3.64,5.65,2.1,2.1,0,0,1-.4,1.06A5,5,0,0,1,14.3,12.2H15A6.23,6.23,0,0,0,11.34,7.32Z"
                  transform="translate(-0.01 0.07)"/>
        </g>
        <g class="cls-2">
            <path class="cls-3"
                  d="M8.55,9A4.07,4.07,0,1,0,3.67,9,6.23,6.23,0,0,0,0,13.83h.7a5.5,5.5,0,0,1,10.8,0h.7A6.23,6.23,0,0,0,8.55,9Zm-2.44.11A3.36,3.36,0,1,1,9.47,5.7h0A3.37,3.37,0,0,1,6.11,9.06Z"
                  transform="translate(-0.01 0.07)"/>
        </g>
    </g>
</svg>