<svg id="Слой_1" data-name="Слой 1" xmlns="http://www.w3.org/2000/svg" viewBox="0 0 40.01 38.29">
    <defs>
        <style>.cls-1{fill:#fff;}</style>
    </defs>
    <title>home</title>
    <path class="cls-1"
          d="M34.17,38.3h-10a.83.83,0,0,1-.83-.83h0V26.65H16.7V37.46a.83.83,0,0,1-.83.83h-10S5,38,5,37.51V20.84A.77.77,0,0,1,5.71,20h.08a.85.85,0,0,1,.84.83V36.67H15V25.85a.83.83,0,0,1,.83-.83h8.35a.83.83,0,0,1,.83.83h0V36.67h8.31v-15a.86.86,0,0,1,.85-.83.76.76,0,0,1,.78.83V37.51C35,38,34.17,38.3,34.17,38.3Zm5-17.45a.83.83,0,0,1-.59-.24L20,2,1.42,20.6A.83.83,0,1,1,.24,19.42L19.41.25a.83.83,0,0,1,1.17,0h0L39.76,19.42a.83.83,0,0,1-.59,1.42ZM31.68,8.22V3.35H26.82a.84.84,0,0,1-.85-.8.82.82,0,0,1,.81-.83H32.5a.82.82,0,0,1,.82.82V8.25a.82.82,0,0,1-.82.82h0A.84.84,0,0,1,31.68,8.22Z"
          transform="translate(0 -0.01)"/>
</svg>