<svg id="Слой_1" data-name="Слой 1" xmlns="http://www.w3.org/2000/svg" viewBox="0 0 21 21">
    <defs>
        <style>
            .cls-1{fill:none;}.cls-1,.cls-2,.cls-4{stroke:#7db5ba;stroke-miterlimit:10;}.cls-2,.cls-4{fill:#7db5ba;}.cls-2{stroke-width:0.75px;}.cls-3{fill:#fff;}.cls-4{stroke-width:0.5px;}
        </style>
    </defs>
    <title>inst</title>
    <circle class="cls-1" cx="10.5" cy="10.5" r="10"/>
    <path class="cls-2"
          d="M13,5.1H8A2.92,2.92,0,0,0,5.08,8v5A2.92,2.92,0,0,0,8,15.9h5A2.92,2.92,0,0,0,15.92,13V8A2.92,2.92,0,0,0,13,5.1ZM13,15H8a2,2,0,0,1-2-2V8A2,2,0,0,1,8,6h5a2,2,0,0,1,2,2v5a2,2,0,0,1-2,2Z"/>
    <path class="cls-3"
          d="M12.77,5.57H8.23A2.66,2.66,0,0,0,5.57,8.23v4.53a2.66,2.66,0,0,0,2.66,2.66h4.53a2.66,2.66,0,0,0,2.66-2.66V8.23A2.66,2.66,0,0,0,12.77,5.57Zm0,9.07H8.25a1.87,1.87,0,0,1-1.87-1.87V8.25A1.87,1.87,0,0,1,8.25,6.38h4.53a1.87,1.87,0,0,1,1.87,1.87v4.53a1.87,1.87,0,0,1-1.88,1.86Z"/>
    <path class="cls-2"
          d="M12.92,10.13a2.42,2.42,0,1,0-2.4,2.78h.36a2.42,2.42,0,0,0,2-2.75ZM10.75,12a1.55,1.55,0,0,1-.66-3l.21,0h.46a1.55,1.55,0,0,1,0,3.06Z"/>
    <path class="cls-3"
          d="M12.36,10.21a1.86,1.86,0,1,0-1.84,2.13h.28a1.86,1.86,0,0,0,1.56-2.11ZM10.7,11.66a1.19,1.19,0,0,1-.49-2.33l.14,0h.35a1.19,1.19,0,0,1,0,2.35Z"/>
    <path class="cls-4" d="M13.54,7.5a.44.44,0,1,0,.13.31A.44.44,0,0,0,13.54,7.5Z"/>
    <rect class="cls-3" x="7.69" y="6.19" width="5.54" height="0.66"/>
    <rect class="cls-3" x="14.41" y="7.81" width="0.28" height="5.59"/>
    <ellipse class="cls-3" cx="10.44" cy="10.52" rx="1.44" ry="1.33"/>
</svg>