<svg id="Слой_1" data-name="Слой 1" xmlns="http://www.w3.org/2000/svg" viewBox="0 0 39.98 38.22">
    <defs>
        <style>.cls-1{fill:#fff;}</style>
    </defs>
    <title>logout</title>
    <path class="cls-1"
          d="M23.64,29.54a.86.86,0,0,0-1,.86v6H1.71V1.63h21V7.69a.89.89,0,0,0,.73.89.86.86,0,0,0,1-.86V.87A.87.87,0,0,0,23.57,0H.87A.87.87,0,0,0,0,.87H0V37.35a.87.87,0,0,0,.87.87H23.5a.87.87,0,0,0,.87-.87h0V30.42A.89.89,0,0,0,23.64,29.54Z"
          transform="translate(0 0)"/>
    <path class="cls-1"
          d="M39.75,18.46,31.06,9.77A.87.87,0,0,0,29.83,11L37,18.17H10.47a.93.93,0,0,0-.88.75.8.8,0,0,0,.86,1H37l-7.22,7.26A.87.87,0,1,0,31,28.39h0l8.69-8.69a.86.86,0,0,0,.08-1.21Z"
          transform="translate(0 0)"/>
</svg>