<svg xmlns:xlink="http://www.w3.org/1999/xlink" id="Слой_1" data-name="Слой 1" xmlns="http://www.w3.org/2000/svg"
     viewBox="0 0 484 173">
    <defs>
        <style>
            .cls-1{opacity:0.75;}.cls-2{fill:#107a43;}.cls-3,.cls-6,.cls-7{stroke:#000;stroke-linecap:round;stroke-linejoin:round;stroke-width:3px;}.cls-4{fill:#d9d9d9;}.cls-5{fill:#fff;}.cls-6{fill:#129f58;}.cls-7,.cls-8{fill:none;}
        </style>
    </defs>
    <title>logowhite1</title>
    <g id="DiaVita_Club_копия" data-name="DiaVita Club копия" class="cls-1">
        <image width="361" height="114" transform="translate(123 37)" xlink:href="logowhite11.png"/>
    </g>
    <path id="DiaVita_Club_копия-2" data-name="DiaVita Club копия-2" class="cls-2"
          d="M128.62,71.48A2,2,0,0,0,130,72h11.66q9.06,0,13.15-3.6t4.12-11.31q0-7.72-4.12-11.36t-13.15-3.62H130a1.9,1.9,0,0,0-1.39.58,2,2,0,0,0-.58,1.44v26A1.81,1.81,0,0,0,128.62,71.48Zm7.76-23.78H142q5.59,0,7.64,2t2,7q0,5-2,7t-7.64,2h-5.59Zm27.08-1.34a2.45,2.45,0,0,0,1.81.64h2.68a2.48,2.48,0,0,0,1.83-.64,2.4,2.4,0,0,0,.66-1.78v-.71a2.26,2.26,0,0,0-2.08-2.43h0a2.35,2.35,0,0,0-.39,0h-2.67a2.47,2.47,0,0,0-1.82.64,2.4,2.4,0,0,0-.66,1.78v.71a2.34,2.34,0,0,0,.66,1.78Zm.37,25.31a1.16,1.16,0,0,0,.87.36h4.51a1.16,1.16,0,0,0,.87-.36,1.23,1.23,0,0,0,.36-.91V51a1.24,1.24,0,0,0-1.14-1.26h-4.59A1.24,1.24,0,0,0,163.49,51V70.79a1.28,1.28,0,0,0,.35.91Zm19.82.53c3,0,7.65-2.34,7.65-2.34v.89a1.3,1.3,0,0,0,.34.9,1.13,1.13,0,0,0,.88.36h3.83a1.18,1.18,0,0,0,1.21-1.15h0v-13c0-3.12-1-5.4-2.87-6.9a12,12,0,0,0-7.61-2.23q-10.83,0-10.85,6A1.27,1.27,0,0,0,177.48,56h2.71a6.7,6.7,0,0,0,2.5-1.41,4.41,4.41,0,0,1,3.6-1.22,5.23,5.23,0,0,1,3.57,1c.68.64,1,1.77,1,3.8H184a9.65,9.65,0,0,0-7.1,1.48A6.09,6.09,0,0,0,174.15,65a6.19,6.19,0,0,0,2.78,5.41,11.8,11.8,0,0,0,6.75,1.89Zm.64-9.92h6.35v3.24a11.37,11.37,0,0,1-6.17,1.89,3.77,3.77,0,0,1-2.47-.7A2.39,2.39,0,0,1,182,63a3.48,3.48,0,0,1,2.29-.7Zm24.64,7.64a3.16,3.16,0,0,0,3,2.1h2.73a3.24,3.24,0,0,0,3.06-2.15L230,43.18a1.58,1.58,0,0,0,.11-.57,1.36,1.36,0,0,0-.4-.72,1.43,1.43,0,0,0-1.14-.47h-4.73A8.36,8.36,0,0,0,221.4,44l-8,17.89L205.4,44a4.18,4.18,0,0,0-2.47-1.84h-4.55a1.4,1.4,0,0,0-1.1.45,1.3,1.3,0,0,0-.38.75,1.17,1.17,0,0,0,.13.56Zm24.78-23.57a2.45,2.45,0,0,0,1.81.64h2.68a2.48,2.48,0,0,0,1.83-.64,2.4,2.4,0,0,0,.66-1.78v-.71a2.26,2.26,0,0,0-2.08-2.43h0a2.35,2.35,0,0,0-.39,0h-2.68a2.47,2.47,0,0,0-1.82.64,2.4,2.4,0,0,0-.66,1.78v.71a2.34,2.34,0,0,0,.66,1.78Zm-.33,25.29a1.2,1.2,0,0,0,.89.38h4.5a1.16,1.16,0,0,0,.87-.36,1.23,1.23,0,0,0,.36-.91V51.06a1.28,1.28,0,0,0-.34-.9,1.16,1.16,0,0,0-.89-.37h-4.5A1.24,1.24,0,0,0,233.05,51V70.8a1.28,1.28,0,0,0,.34.91Zm20.12-5.45a4.92,4.92,0,0,1-1-3.27V55.34h5.71a1.22,1.22,0,0,0,1.24-1.2s0,0,0-.07V51.76a1.24,1.24,0,0,0-.36-.93,1.22,1.22,0,0,0-.88-.36H252.5v-7a1.26,1.26,0,0,0-1.2-1.31h-4.49a1.26,1.26,0,0,0-1.26,1.26h0V63q0,9.32,9,9.32a30.54,30.54,0,0,0,5.64-.42,1.65,1.65,0,0,0,.94-.44,1.14,1.14,0,0,0,.37-.82V68.43a1.23,1.23,0,0,0-1.2-1.26H259l-2.81.24a3.29,3.29,0,0,1-2.64-1.22Zm19.29,6c2.69,0,7.53-2.34,7.53-2.34v.91a1.29,1.29,0,0,0,.35.9,1.11,1.11,0,0,0,.87.36h3.75a1.18,1.18,0,0,0,1.2-1.14V57.73c.28-3.09-.72-5.37-2.71-6.85a12.94,12.94,0,0,0-7.94-2.21q-11.32,0-11.32,6a1.55,1.55,0,0,0,1.2,1.42h3.18a3.87,3.87,0,0,0,2.54-1.41A4.41,4.41,0,0,1,275,53.42a5.18,5.18,0,0,1,3.56,1c.67.64,1,1.77,1,3.8h-6.81a9.66,9.66,0,0,0-7.1,1.48,6.1,6.1,0,0,0-2.78,5.36,6.2,6.2,0,0,0,2.78,5.41,12.12,12.12,0,0,0,7,1.89Zm.44-9.9h6.39v3.24a11.39,11.39,0,0,1-6.17,1.89,3.77,3.77,0,0,1-2.48-.7,2.3,2.3,0,0,1-.87-1.85,2.26,2.26,0,0,1,.84-1.82,3.43,3.43,0,0,1,2.31-.7ZM321.33,72h4.92a14.21,14.21,0,0,0,8.2-2.36A7.47,7.47,0,0,0,338,63.12a2.46,2.46,0,0,0-.55-1.54,1.85,1.85,0,0,0-1.52-.68h-2.4s-2.28.44-3,2c-.83,2.06-5.09,2.89-5.09,2.89h-4.23c-3,0-5-.62-6.08-1.93s-1.55-3.66-1.55-7.1.53-5.84,1.6-7.12,3.1-1.92,6.08-1.92H325A5.25,5.25,0,0,1,330.11,51q1.06,2.28,3,2.28h3.12a2.44,2.44,0,0,0,1.43-.55,2.08,2.08,0,0,0,.71-1.8A7.91,7.91,0,0,0,334.65,44a15,15,0,0,0-8.58-2.56h-4.78q-7.93,0-11.87,3.82t-4,11.73q0,7.91,4,11.7t11.87,3.72Zm20.52-.36a1.13,1.13,0,0,0,.87.36h4.5a1.13,1.13,0,0,0,.87-.36,1.25,1.25,0,0,0,.36-.9V43.44a1.29,1.29,0,0,0-.36-.93,1.14,1.14,0,0,0-.87-.37h-4.5a1.14,1.14,0,0,0-.87.37,1.29,1.29,0,0,0-.36.93V70.79a1.25,1.25,0,0,0,.35.9Zm14.69-1.9a9,9,0,0,0,6.54,2.47,11.53,11.53,0,0,0,7.6-3v1.49a1.31,1.31,0,0,0,.36.93,1.13,1.13,0,0,0,.87.38h4.49a1.27,1.27,0,0,0,1.23-1.24V49.73a1.27,1.27,0,0,0-1.21-1.32H372a3,3,0,0,1-.9,1,1.47,1.47,0,0,0-.41.92V64.28c-2,2-3.8,3-5.52,3-2.63,0-3.94-1.66-4.21-5V50.35a.64.64,0,0,0-.08-.9l0,0a2,2,0,0,0-.9-.33h-4.66a1.18,1.18,0,0,0-.94.33,1.26,1.26,0,0,0-.37.92V62.28q0,5.07,2.5,7.55Zm26,.22a16,16,0,0,0,4.71,1.65,28.7,28.7,0,0,0,6.06.7q12.79,0,12.79-11.78,0-5.74-2.92-8.81a10.28,10.28,0,0,0-7.86-3,19.13,19.13,0,0,0-5.81,1.06V43.47a1.24,1.24,0,0,0-1.18-1.29h-4.54a1.15,1.15,0,0,0-.87.37,1.28,1.28,0,0,0-.36.92V70ZM394,53.62a4.75,4.75,0,0,1,4,1.61c.81,1.07,1.2,2.78,1.2,5.19s-.41,4.1-1.22,5.17a4.67,4.67,0,0,1-4,1.6,18,18,0,0,1-4.55-.47V54.5a15.68,15.68,0,0,1,4.51-.83h0Z"
          transform="translate(36 36.75)"/>
    <g class="cls-1">
        <image width="116" height="90" transform="translate(0 65)" xlink:href="logowhite12.png"/>
    </g>
    <g class="cls-1">
        <image width="123" height="104" transform="translate(0 65)" xlink:href="logowhite13.png"/>
    </g>
    <g class="cls-1">
        <image width="173" height="173" transform="translate(4)" xlink:href="logowhite14.png"/>
    </g>
    <path class="cls-3"
          d="M10.92,66.15A47.18,47.18,0,0,0,16.29,58a65.74,65.74,0,0,0,6.34-17.29,4,4,0,0,0-.91-3.42l-.15-.16c-6.82-6.78-8.28-8.76-7.28-16.23.78-5.67,6.4-10.33,8.41-11.87a6.28,6.28,0,0,0,1,.87c.84-.18,1-2.84,1.78-3,.77.81.58,2.54,1.87,2.49.32,0,.38-.87.42-1.37.24,0,.6.21,1.25,1a12,12,0,0,1,2,1.35c1.19,1.08,1.64,3.14,4.52,5.63a4.54,4.54,0,0,0,3.72,1c5-.83,6.28-2.92,14.6-3.44,7.84-.49,12.61,2.65,18,2.91a4.8,4.8,0,0,0,2.72-.64,7.62,7.62,0,0,0,1.87-1.81c1-1.19,2.4-4.4,4.76-5.76.5-.29.92-1.13,1.41-1.26.45.71.39,1.33.81,1.38S84.69,6.83,85.07,6c.7.39,1.27,2,1.86,2.62.45,0,.71-.34,1-.74a3.33,3.33,0,0,1,1.48,1.18c5.06,4.41,7.3,6.93,7.71,12.88a13.38,13.38,0,0,1-1.87,8.2c-2.32,3.57-4,4.33-6.4,6.88-.71.75-.3,2.89.61,7.34C92,57,91,62.46,98.32,68.92a3,3,0,0,1-2,1.36c.8,1.75-.28,5.34-1,5.53,0,.06-.14-1.08-.7-1A7,7,0,0,1,93,77.59c-3,3.53-7.34,5-14.23,8.56C73.2,89,72.57,90,67.45,92.35c-1.79.81-14.09,4.09-23.07-.32a29.83,29.83,0,0,1-6.94-4.46,42.32,42.32,0,0,0-4.63-3.35C26.87,80.35,16.94,73.85,16.7,71.7c-1.13.11-2.18,2.08-2.18,2.08-.75-.22-2.63-3.9-1.23-6.6A4.66,4.66,0,0,1,10.92,66.15Z"
          transform="translate(36 36.75)"/>
    <path class="cls-4"
          d="M15.29,65.68a3.94,3.94,0,0,1,.7-1.1c2.7-3.07,6-11.42,6.57-13.26,1.83-5.69,1.73-7.13,3.18-12.39a28.17,28.17,0,0,1,6-11.35A30.36,30.36,0,0,1,42,20a31.71,31.71,0,0,1,12.87-2.84,33.42,33.42,0,0,1,10.1,1.25,31.55,31.55,0,0,1,9.82,4.91A27.93,27.93,0,0,1,84,34.08a34.12,34.12,0,0,1,2.56,9.69c.32,2.12.34,3.35,1,8.72.34,2.66.52,4,.69,4.77a33.2,33.2,0,0,0,3.46,8.65,9.69,9.69,0,0,0,2.08,2.77c.13.11.62.53.55.55-.81.22-1.52-.4-2.08-.76.83,1,1.14,2.8.78,3.08-.24-.24-1-.94-1.54-.73a4.68,4.68,0,0,1-.55,2.77,9.7,9.7,0,0,1-3,3.74c-.8.67-.54.31-4.64,2.91a23.21,23.21,0,0,1-2.35,1.38c-1,.49-1.29.53-2.42,1.11-.59.3-1.09.59-2.08,1.18-.66.39-1.52.89-2.49,1.52-1.58,1-1.83,1.3-2.91,2a23.55,23.55,0,0,1-3.94,2.14,22.87,22.87,0,0,1-5.6,1.38,33.21,33.21,0,0,1-4.91.48,27.4,27.4,0,0,1-4.91-.28,25.77,25.77,0,0,1-5.33-1.38,18.82,18.82,0,0,1-4.08-2c-1.77-1.19-1.85-1.74-4.43-3.6-.26-.18-1.2-.86-2.49-1.66-1.72-1.07-3.06-1.74-3.32-1.87,0,0-10.24-5.25-13.29-9.55a4.35,4.35,0,0,1-1-1.94,6.72,6.72,0,0,1,0-1.45c-.38-.21-1.07.35-1.52,1-.35-.21-.35-2.46.9-3.74-.37-.27-1.11.38-2,1A2.54,2.54,0,0,1,15.29,65.68Z"
          transform="translate(36 36.75)"/>
    <path class="cls-5"
          d="M48.85,27.28c.49-1-2.3-3.24-1.91-3.75s4.64.8,8.44,2.77c4.15-2.39,7.75-3.53,8.16-3s-2.35,2.57-1.93,3.42c3.56-1.32,9.87-1.93,10.3-.86.25.62-2.2,1.56-2.67,2.7,5.35.47,9.68,2.18,9.66,2.77,0,.29-1.95.57-3,1.23,2.21,1.79,9,5.6,8.1,7.77,0,0-1.45-.35-1.87.14a6.13,6.13,0,0,1,1.8,4c.55,5-.24,6.43,1.38,12.39,1.17,4.3,3.16,5.19,3.8,10.38.42,3.32-.42,3.94-.6,4-.6-.93-3.9-2.92-3.9-2.92,1,1.94,1.71,4.85,1.25,5.12s-1.7-.64-2.61-1.94a7.16,7.16,0,0,1-.16,3.8c-1.21,4.43-10.41,6-10.86,5-.13-.27.52-.65.42-1.31-.15-.93-1.62-1.42-2.14-1.59-2.75-.88-4,.33-7.4.07-1.74-.13-3.41-.26-4.77-1.45-1.66-1.45-1.74-3.54-2.63-3.53-.65,0-.7,1.14-1.94,2.35a7,7,0,0,1-3.88,1.8A7.89,7.89,0,0,1,45,75.58a13.36,13.36,0,0,1-4.68-4.3c-1.18-1.72-1.33-2.68-2.84-4a5.32,5.32,0,0,0-2.7-1.45c-1.53-.25-3.11.33-3.11.76,1.41.12,2.31.75,2.28,1.18s-2.25,0-3.32,1c.94.11,1.48.22,1.66.83s-.79.86-1.38,1.94c-.87,1.58,0,2.83-.62,3.32-.82.61-3.3-.46-4.29-2.35A7.2,7.2,0,0,1,25.22,69c-.54-.14-1.33,1.78-1.66,1.66-.53-.19-.13-3.39.42-5.4-1.53-.43-1.92,3.79-3,3.6s-2-3.34-.9-5.88c.54-1.26,1.32-2,2.7-4.57,2.21-4.08,4-13.3,6-17-.66-.61-1.4-.22-2.08-.35-.56-1.14,5.16-5.47,8-7.82-.37-1-3.36-.64-3.39-1-.06-.75,4.28-2.59,10.66-3.39.06-1-3.16-1.9-3-2.28C39,25.91,44.29,25.43,48.85,27.28Z"
          transform="translate(36 36.75)"/>
    <path class="cls-4"
          d="M50.89,45.64c.48-.21.57-1.45.17-2.35A3.7,3.7,0,0,0,49,41.18,2.25,2.25,0,0,1,50.74,41c1.14.34,1.44,1.31,2,1.18.34-.08.35-.5.83-1.45a4.38,4.38,0,0,1,1.56-2A4,4,0,0,1,57,40.91c.28.81.26,1.48.52,1.52s.33-.49.83-.93A2.64,2.64,0,0,1,61.08,41c-.42.5-.73.54-1.14,1.45A3.4,3.4,0,0,0,59.66,44c0,.15.07,1.1.42,1.18s.58-.49.76-.69c1-1.14,2-1.39,3.88-1.87a15.68,15.68,0,0,1,9.76.87c1.9.81,5.69,2.42,7.47,6.54A10.86,10.86,0,0,1,82.23,58c-1.18,3-3.89,5.12-4.19,4.91-.07,0,0-.21-.07-.52a1.46,1.46,0,0,0-.73-.93,11.73,11.73,0,0,1-4,3.63c-.14,0-.14-.09-.59-.52A17.18,17.18,0,0,0,70.71,63c-2-1.53-4.1-4.22-4.5-3.94-.21.15.26,1,0,1.14-1.56,0-5.05-3.91-6-7-.6-.06-1.19,1.3-1.31,1.59a6.33,6.33,0,0,0,0,4.5,11.17,11.17,0,0,0,2.53,3.53c.83.87,1.08,1,1,1.18-.27,1.57-13.44.78-13.49-.24,0-.21.51-.24,1.31-1A6.27,6.27,0,0,0,51.5,61a8,8,0,0,0,.72-2.63,8.58,8.58,0,0,0-.17-2.77c-.23-1-.76-2.54-1.18-2.49-.21,0-.3.43-.38.69-.32,1.06-1,1.75-2.35,3.11a12.45,12.45,0,0,1-4.84,3,4.11,4.11,0,0,0,1.31-.93c.35-.37.66-.83.59-.9s-.71.61-1.9,1.21a8.88,8.88,0,0,1-1.94.69,21,21,0,0,0-2.18.45,3.41,3.41,0,0,0-1.21.55,1.9,1.9,0,0,0-.87,1.21c-.24.08-.55,0-1.14-.52a20.27,20.27,0,0,1-2.28-2.53c-.35.06-.42.52-.52,1.28-.84.39-5.19-3.43-4.91-8.1.23-3.93,3.65-6.3,4.32-6.75a13.88,13.88,0,0,1,3.72-1.88c2.63-.83,3.55-.66,6.61-.83A13.35,13.35,0,0,1,47,43C49.29,43.83,50.19,46,50.89,45.64Z"
          transform="translate(36 36.75)"/>
    <path class="cls-3"
          d="M51.06,51.28a3.58,3.58,0,0,0,.24-1,2.57,2.57,0,0,0-.24-1.35,5.7,5.7,0,0,0-.73-.87c-.53-.58-.62-.66-.9-1s-.45-.59-.8-1a18.59,18.59,0,0,0-1.25-1.42,8.54,8.54,0,0,0-3-2.42c-1.1-.39-2-.17-3.53.21A15.22,15.22,0,0,0,35.59,45,13.18,13.18,0,0,0,32.44,48a8.87,8.87,0,0,0-1.49,2.91,6.47,6.47,0,0,0-.14,3.56,4.78,4.78,0,0,0,1.14,2.18,5.55,5.55,0,0,0,2.63,1.38,13.79,13.79,0,0,0,3.22.59,13.58,13.58,0,0,0,4.71-.31A12.16,12.16,0,0,0,45.8,57,18.2,18.2,0,0,0,48.22,55a12.15,12.15,0,0,0,2-2A6.57,6.57,0,0,0,51.06,51.28Z"
          transform="translate(36 36.75)"/>
    <path class="cls-3"
          d="M61.06,45.85a15.15,15.15,0,0,0-.69,1.94A7,7,0,0,0,60,49.52a5.74,5.74,0,0,0,.21,1.66,6.49,6.49,0,0,0,.69,2,5.65,5.65,0,0,0,.86,1.07c1.15,1.21,1.75,1.59,2.84,2.63.92.89.7.82,1.52,1.59a17,17,0,0,0,2.63,2,7.4,7.4,0,0,0,3.18,1.38,6,6,0,0,0,2.32-.21,7,7,0,0,0,2.32-1.14A8.69,8.69,0,0,0,78.88,58a10.27,10.27,0,0,0,1.38-3.56,8.08,8.08,0,0,0,.14-2.59,7.52,7.52,0,0,0-.66-2.32,8.53,8.53,0,0,0-1.56-2.18,16.46,16.46,0,0,0-2.11-1.94,20.33,20.33,0,0,0-3.32-2.21,17.06,17.06,0,0,0-6-1.8,4.47,4.47,0,0,0-3.56,1.21A8.29,8.29,0,0,0,61.06,45.85Z"
          transform="translate(36 36.75)"/>
    <path class="cls-5"
          d="M65.63,52.49a1,1,0,0,0,.25.62,3.08,3.08,0,0,0,1,.88,3.63,3.63,0,0,0,1.4.62,3.09,3.09,0,0,0,1.26,0A3,3,0,0,0,71,53.72a3.78,3.78,0,0,0,.72-1.21A2.13,2.13,0,0,0,72,51.25a.73.73,0,0,0-.26-.51.62.62,0,0,0-.34-.1,4.44,4.44,0,0,0-1.17,0,19.79,19.79,0,0,0-3.28.83C65.81,51.9,65.65,52.28,65.63,52.49Z"
          transform="translate(36 36.75)"/>
    <path class="cls-5"
          d="M40,50.55a1.62,1.62,0,0,0-.47,0,.67.67,0,0,0-.47.16.57.57,0,0,0-.13.39,1,1,0,0,0,.16.57,2.12,2.12,0,0,0,.78.75,8.93,8.93,0,0,0,4,1,1.5,1.5,0,0,0,1-.32s.31-.28.25-.51a.42.42,0,0,0-.23-.23A24.21,24.21,0,0,0,40,50.55Z"
          transform="translate(36 36.75)"/>
    <path class="cls-3"
          d="M36.73,68.79c.1.11,0,.33,0,.38-.11.45-.68.53-.69.83,0,.14.12.24.31.42.35.31.64.68,1,1,.58.46.4.42,1.49,1.38.68.61,1.35,1.16,1.8,1.52a17.68,17.68,0,0,0,4.15,2.59,14.56,14.56,0,0,0,4,1.07A6.42,6.42,0,0,0,52,77.81a4.36,4.36,0,0,0,2.13-1.53,4.76,4.76,0,0,0,.76-1.87,5.19,5.19,0,0,0,.14-2.08,5,5,0,0,0-.66-1.8,5.87,5.87,0,0,0-1.07-1.35A7,7,0,0,0,51.54,68c-.78-.4-.87-.33-2.11-.9a6.13,6.13,0,0,1-1.52-.87,2.6,2.6,0,0,1-1-1.28,2.08,2.08,0,0,1,0-1.28,2.37,2.37,0,0,1,1-1.11A4,4,0,0,1,49,62a20.07,20.07,0,0,1,3.53-.83A21.9,21.9,0,0,1,55.8,61a24.54,24.54,0,0,1,3.36.31,17.2,17.2,0,0,1,2.42.59,3.51,3.51,0,0,1,1.83,1,2.87,2.87,0,0,1,.52,1,2,2,0,0,1,.1.93,1.9,1.9,0,0,1-.48,1,3.31,3.31,0,0,1-1.18.76c-.61.3-1,.46-1.56.73s-1,.46-1.59.76a9.32,9.32,0,0,0-1.38.8,4.44,4.44,0,0,0-1,.93,4.12,4.12,0,0,0-.62,1.21,5.34,5.34,0,0,0-.28,2,6.31,6.31,0,0,0,.42,2,5.4,5.4,0,0,0,1.25,2.18,5.14,5.14,0,0,0,2,1.18,7.39,7.39,0,0,0,2.39.45c.91,0,1-.09,2.46-.14a11.4,11.4,0,0,1,2.42.07,8.86,8.86,0,0,1,2.21.69c.19.09,1.72.79,1.63,1.18,0,.13-.25.19-.45.24a1.7,1.7,0,0,1-.9,0c-.47-.14-.62-.35-.87-.28a.6.6,0,0,0-.31.28c-.05.08-.47.43-1.31,1.14a9.58,9.58,0,0,1-3.22,1.35,33.42,33.42,0,0,1-3.91.83,31.52,31.52,0,0,1-3.22.42A27,27,0,0,1,51,84.41a30.13,30.13,0,0,1-3.6-.76,21.74,21.74,0,0,1-3.67-1.37,20,20,0,0,1-2.59-1.45,24,24,0,0,1-4.46-4c-2-2.13-2.33-2.88-2.32-3.49,0-.08,0-.5-.14-.55-.32-.11-.91,1.45-1.42,1.35-.31-.06-.42-.68-.45-.83a2.36,2.36,0,0,1,.24-1.45,5.11,5.11,0,0,1,1.73-2C35.12,69.28,36.45,68.49,36.73,68.79Z"
          transform="translate(36 36.75)"/>
    <path class="cls-5" d="M62.89,80.21a12.5,12.5,0,0,0,2-.14c.17.61-.33,1.78-1,1.83S62.91,80.86,62.89,80.21Z"
          transform="translate(36 36.75)"/>
    <path class="cls-5" d="M46.14,79.28a9,9,0,0,0,2.37.24c-.6,1.44-.22,2.59-1.09,2.59S45.82,80.13,46.14,79.28Z"
          transform="translate(36 36.75)"/>
    <path class="cls-5"
          d="M50.78,63c.22-.59,2.56-1,4.46-1,2.68-.09,5.1.71,5,1s-1.4,0-4.81,0C53.47,62.89,50.75,63.35,50.78,63Z"
          transform="translate(36 36.75)"/>
    <path class="cls-5"
          d="M48.84,86.12c.06-.1.23-.12.59-.1a4.57,4.57,0,0,1,1.56.24,18.28,18.28,0,0,0,4.15.73,9,9,0,0,0,3.74-.24A10,10,0,0,1,61,86.23c.44-.06,1.51-.19,1.66.17a.86.86,0,0,1-.1.42A2.94,2.94,0,0,1,61.2,88a14.69,14.69,0,0,1-5.36,1.11,16.66,16.66,0,0,1-4.08-.73,4.87,4.87,0,0,1-2.21-1.11S48.67,86.42,48.84,86.12Z"
          transform="translate(36 36.75)"/>
    <path class="cls-3"
          d="M36.49,73c-1.7-.35-3-.62-3.84-.73-16.12-2.14-24.91-1-26.12-.42-.17.08-.39.34-.48.93a4.84,4.84,0,0,0,.52,2.73c7.2-.73,25-1.49,31.07-1.28C37.64,73.78,37.13,73.36,36.49,73Z"
          transform="translate(36 36.75)"/>
    <path class="cls-3"
          d="M6.49,71.89A2.55,2.55,0,0,1,8.4,73a4.27,4.27,0,0,1,.48,3.22c-.12,1-.31,1-.55,2.18a14.14,14.14,0,0,0-.24,3A12.56,12.56,0,0,0,8.64,85a7.58,7.58,0,0,0,1.45,2.91,4.54,4.54,0,0,0,1.66,1.31A4,4,0,0,0,14,89.5a5.46,5.46,0,0,0,1.07-.35c1.58-.58,2.22-.87,2.22-.87,1.54-.69,3.11-1.33,4.64-2a70.58,70.58,0,0,1,10.21-3.91c1.41-.42,2.81-.7,5.6-1.28,3.16-.66,5.08-1,6.09-.45.08,0,.32.17.48.07.37-.23.18-1.58-.48-2.53a5.41,5.41,0,0,0-2.25-1.59A28.34,28.34,0,0,1,39,75.19c-.86-.56-1.82-2-2.49-2.16C30.8,71.46,10.78,70.17,6.49,71.89Z"
          transform="translate(36 36.75)"/>
    <path class="cls-6"
          d="M10,72.84c1.71-.37,6-1.2,27.28.67,2.81,3.43,6.82,3,6.36,5.87-11.44,0-27,7.45-29.86,8.2a1.82,1.82,0,0,1-1,0,2.08,2.08,0,0,1-1-.88,10.76,10.76,0,0,1-1.4-2.91,12.93,12.93,0,0,1-.42-4.46,21.41,21.41,0,0,1,.42-2.75,5.69,5.69,0,0,0,.31-2A3.82,3.82,0,0,0,10,72.84Z"
          transform="translate(36 36.75)"/>
    <path class="cls-6" d="M7.21,73a1,1,0,0,0,.12,1.42,2.58,2.58,0,0,1,1.3,0C8.71,73.28,7.62,72.8,7.21,73Z"
          transform="translate(36 36.75)"/>
    <path class="cls-2"
          d="M10.29,76.28c7.89,1,22.85-1.27,28.14-1.57a20.59,20.59,0,0,0,3.2,1.92c-7.19,0-21.56,3.06-31.86,4.14A22.54,22.54,0,0,1,10.29,76.28Z"
          transform="translate(36 36.75)"/>
    <path class="cls-7"
          d="M10,72.84c1.71-.37,6-1.2,27.28.67,2.81,3.43,6.82,3,6.36,5.87-11.44,0-27,7.45-29.86,8.2a1.82,1.82,0,0,1-1,0,2.08,2.08,0,0,1-1-.88,10.76,10.76,0,0,1-1.4-2.91,12.93,12.93,0,0,1-.42-4.46,21.41,21.41,0,0,1,.42-2.75,5.69,5.69,0,0,0,.31-2A3.82,3.82,0,0,0,10,72.84Z"
          transform="translate(36 36.75)"/>
    <path class="cls-3"
          d="M11,88.41c.08-.15.65.29,1.45.17a3.2,3.2,0,0,0,2-1.76,4.33,4.33,0,0,0,.35-2.35,6.25,6.25,0,0,0-.52-2,8,8,0,0,0-.9-1.59c-.66-.92-1-1-1-1.21,2.18-1.18,13.13-2.08,28.38-3.44,1.9,1.1,4.25,1.22,3.55,4.51-8.3-1.45-25.5,7.47-30,8.77a2.44,2.44,0,0,1-1.61,0C11.58,89.18,10.86,88.59,11,88.41Z"
          transform="translate(36 36.75)"/>
    <path class="cls-6"
          d="M15.35,80.45C23.62,79,31.89,78.79,42,77.34a2.18,2.18,0,0,1,1.45,2.32c-5.29-.14-17,2.25-27.3,7.37A7.16,7.16,0,0,0,15.35,80.45Z"
          transform="translate(36 36.75)"/>
    <path class="cls-3"
          d="M21.82,78.28c.1-.34-.07-.53-.1-1A3.18,3.18,0,0,1,22,76a4,4,0,0,1,2.11-1.9,8.1,8.1,0,0,1,6.09-.07,7.77,7.77,0,0,1,2.63,1.7c.8.73,1,1.18.9,1.52a.74.74,0,0,1-.24.38,1,1,0,0,1-1.14,0c-.35-.24-.27-.54-.62-1a2.75,2.75,0,0,0-.93-.69,7.92,7.92,0,0,0-2.49-.83,8.31,8.31,0,0,0-2.66.07,3,3,0,0,0-1.38.45,2.46,2.46,0,0,0-.83,1,2.18,2.18,0,0,0-.14,1.59c.1.27.21.32.17.45-.12.58-2.16.71-2.25.42S21.67,78.76,21.82,78.28Z"
          transform="translate(36 36.75)"/>
    <path class="cls-2"
          d="M16.44,83C28,80.13,27.91,80,43.27,78.45a1.92,1.92,0,0,1,.21,1.21c-7.4-.42-17.58,2.91-27.3,7.37C16.58,85.17,16.84,83.91,16.44,83Z"
          transform="translate(36 36.75)"/>
    <path class="cls-8" d="M43.48,79.65C36,79.89,25.9,82.56,16.18,87c.4-1.85.66-3.11.26-4.06"
          transform="translate(36 36.75)"/>
    <path class="cls-7"
          d="M15.35,80.45C23.62,79,31.89,78.79,42,77.34a2.18,2.18,0,0,1,1.45,2.32c-5.29-.14-17,2.25-27.3,7.37A7.16,7.16,0,0,0,15.35,80.45Z"
          transform="translate(36 36.75)"/>
</svg>