<svg id="Слой_1" data-name="Слой 1" xmlns="http://www.w3.org/2000/svg" viewBox="0 0 21 21">
    <defs>
        <style>.cls-1{fill:#ff698b;}.cls-2{fill:none;stroke:#ff698b;stroke-miterlimit:10;isolation:isolate;}</style>
    </defs>
    <title>mail</title>
    <path class="cls-1"
          d="M56.21,48.76a.28.28,0,0,0-.28-.28H44.08a.28.28,0,0,0-.28.28h0V57.2a.28.28,0,0,0,.28.28H55.92a.28.28,0,0,0,.28-.28h0Zm-.62,7.43-3.46-3.43-.4.39,3.74,3.71H44.53l3.74-3.71-.4-.39-3.46,3.43V49.1H55.59Z"
          transform="translate(-39.5 -42.5)"/>
    <path class="cls-1" d="M55,49.1l-5,5.07L45,49.1h-.57v.23l5.39,5.44a.28.28,0,0,0,.4,0h0l5.39-5.44V49.1Z"
          transform="translate(-39.5 -42.5)"/>
    <circle class="cls-2" cx="10.5" cy="10.5" r="10"/>
</svg>