<svg id="Слой_1" data-name="Слой 1" xmlns="http://www.w3.org/2000/svg" viewBox="0 0 21 21">
    <defs>
        <style>
            .cls-1{fill:#ff698b;}.cls-2,.cls-3{fill:none;stroke:#ff698b;stroke-miterlimit:10;}.cls-2{stroke-width:0.25px;}.cls-3{isolation:isolate;}
        </style>
    </defs>
    <title>phone</title>
    <path class="cls-1"
          d="M54.76,55.62a1.62,1.62,0,0,1,.73,1.08c0,.49-.45.93-.86,1.32l-.23.22c-.36.37-1.33.33-2.45-.09a14.13,14.13,0,0,1-7.2-7.2c-.43-1.12-.47-2.08-.1-2.45l.23-.24c.38-.41.81-.86,1.29-.86l0,0a1.62,1.62,0,0,1,1.08.73c1.13,1.45.73,1.8.07,2.45l-.13.13a.66.66,0,0,0-.2.48c0,.6.62,1.5,1.9,2.78a11.81,11.81,0,0,0,1.75,1.48c.69.44,1.2.51,1.51.2l.13-.13C53,54.89,53.35,54.49,54.76,55.62Z"
          transform="translate(-39.5 -42.5)"/>
    <path class="cls-1"
          d="M54.63,58c.41-.39.88-.83.86-1.32a1.62,1.62,0,0,0-.73-1.08c-1.41-1.13-1.8-.73-2.45-.07l-.13.13c-.31.31-.82.24-1.51-.2A11.81,11.81,0,0,1,48.92,54c-1.28-1.28-1.9-2.18-1.9-2.78a.66.66,0,0,1,.2-.48l.13-.13c.66-.65,1.06-1-.07-2.45a1.62,1.62,0,0,0-1.08-.73l0,0c-.48,0-.91.45-1.29.86l-.23.24c-.37.37-.33,1.33.1,2.45a14.13,14.13,0,0,0,7.2,7.2c1.12.42,2.09.46,2.45.09ZM55,55.27a2,2,0,0,1,.88,1.37,2.31,2.31,0,0,1-1,1.63l-.22.22a1.55,1.55,0,0,1-1.12.4,5.29,5.29,0,0,1-1.75-.39,14.56,14.56,0,0,1-7.44-7.42c-.49-1.31-.5-2.39,0-2.88l.22-.23a2.36,2.36,0,0,1,1.63-1,2,2,0,0,1,1.37.88c1.36,1.69.75,2.29,0,3L47.5,51c-.12.12-.34.65,1.7,2.69a11.15,11.15,0,0,0,1.69,1.45c.29.19.8.47,1,.26l.13-.13C52.72,54.56,53.32,54,55,55.27Z"
          transform="translate(-39.5 -42.5)"/>
    <path class="cls-2"
          d="M53.56,58.89a5.29,5.29,0,0,1-1.75-.39,14.56,14.56,0,0,1-7.44-7.42c-.49-1.31-.5-2.39,0-2.88l.22-.23a2.36,2.36,0,0,1,1.63-1,2,2,0,0,1,1.37.88c1.36,1.69.75,2.29,0,3L47.5,51c-.12.12-.34.65,1.7,2.69a11.15,11.15,0,0,0,1.69,1.45c.29.19.8.47,1,.26l.13-.13c.7-.71,1.3-1.32,3,0a2,2,0,0,1,.88,1.37,2.31,2.31,0,0,1-1,1.63l-.22.22A1.55,1.55,0,0,1,53.56,58.89Z"
          transform="translate(-39.5 -42.5)"/>
    <path class="cls-2"
          d="M46.17,47.4c-.48,0-.91.45-1.29.86l-.23.24c-.37.37-.33,1.33.1,2.45a14.13,14.13,0,0,0,7.2,7.2c1.12.42,2.09.46,2.45.09l.23-.22c.41-.39.88-.83.86-1.32a1.62,1.62,0,0,0-.73-1.08c-1.41-1.13-1.8-.73-2.45-.07l-.13.13c-.31.31-.82.24-1.51-.2A11.81,11.81,0,0,1,48.92,54c-1.28-1.28-1.9-2.18-1.9-2.78a.66.66,0,0,1,.2-.48l.13-.13c.66-.65,1.06-1-.07-2.45a1.62,1.62,0,0,0-1.08-.73Z"
          transform="translate(-39.5 -42.5)"/>
    <circle class="cls-3" cx="10.5" cy="10.5" r="10"/>
</svg>