<svg id="Слой_1" data-name="Слой 1" xmlns="http://www.w3.org/2000/svg" viewBox="0 0 21 21">
    <defs>
        <style>.cls-1{fill:#ff698b;}.cls-2{fill:none;stroke:#ff698b;stroke-miterlimit:10;isolation:isolate;}</style>
    </defs>
    <title>sky</title>
    <path class="cls-1"
          d="M50.53,56c-3.1,0-4.66-1.16-5.13-2.63s.57-1.88.9-1.91a1.14,1.14,0,0,1,1.22.66,2.9,2.9,0,0,0,2.39,2,2.59,2.59,0,0,0,2.78-1.25c.3-.72-.24-1.7-2.54-2s-4.69-1.34-4.69-3.64S48.08,44,50.59,44a4.54,4.54,0,0,1,4.06,2c.35.69.23,1.83-.6,2s-1.31-.27-1.94-1.43-3-.9-3.73-.21S47.81,48,51,48.64s4.42,1.79,4.42,3.61S53.63,56,50.53,56Z"
          transform="translate(-39.5 -39.5)"/>
    <circle class="cls-2" cx="10.5" cy="10.5" r="10"/>
</svg>