<svg id="Слой_1" data-name="Слой 1" xmlns="http://www.w3.org/2000/svg" viewBox="0 0 21 21">
    <defs>
        <style>.cls-1{opacity:0.7;}.cls-2{fill:none;stroke:#7db5ba;stroke-miterlimit:10;}</style>
    </defs>
    <title>skype</title>
    <g class="cls-1">
        <path class="cls-2"
              d="M15.16,15.35a4.13,4.13,0,0,1-1.85,1.41,7.42,7.42,0,0,1-2.89.51,7,7,0,0,1-3.3-.7,4.27,4.27,0,0,1-1.5-1.34A2.87,2.87,0,0,1,5,13.61a1,1,0,0,1,.35-.78,1.22,1.22,0,0,1,.88-.33,1.09,1.09,0,0,1,.73.25,2,2,0,0,1,.51.75,4.84,4.84,0,0,0,.56,1,2.22,2.22,0,0,0,.84.66,3.38,3.38,0,0,0,1.43.26,3.43,3.43,0,0,0,2-.52,1.54,1.54,0,0,0,.76-1.3,1.31,1.31,0,0,0-.41-1A2.69,2.69,0,0,0,11.59,12a16.53,16.53,0,0,0-1.74-.43,13.52,13.52,0,0,1-2.44-.73A3.92,3.92,0,0,1,5.85,9.7a2.81,2.81,0,0,1-.58-1.8,2.92,2.92,0,0,1,.61-1.82A3.81,3.81,0,0,1,7.64,4.85a7.77,7.77,0,0,1,2.71-.43,7.3,7.3,0,0,1,2.15.28A4.68,4.68,0,0,1,14,5.46a3.21,3.21,0,0,1,.88,1,2.13,2.13,0,0,1,.28,1A1.21,1.21,0,0,1,14,8.61a1,1,0,0,1-.72-.22,2.9,2.9,0,0,1-.53-.71,3.25,3.25,0,0,0-.89-1.1,2.76,2.76,0,0,0-1.66-.39,3,3,0,0,0-1.71.43,1.23,1.23,0,0,0-.65,1,1,1,0,0,0,.22.64,1.79,1.79,0,0,0,.61.47A4.38,4.38,0,0,0,9.45,9l1.31.32q1.14.25,2.07.54a6.61,6.61,0,0,1,1.58.72,3.06,3.06,0,0,1,1,1.08,3.21,3.21,0,0,1,.36,1.59A3.45,3.45,0,0,1,15.16,15.35Z"/>
        <circle class="cls-2" cx="10.5" cy="10.5" r="10"/>
    </g>
</svg>