<svg id="Layer_1" data-name="Layer 1" xmlns="http://www.w3.org/2000/svg" viewBox="0 0 511.99 512">
    <defs>
        <style>.cls-1{fill:#7db5ba;}</style>
    </defs>
    <title>structure</title>
    <path class="cls-1"
          d="M276,250.9,212,133.56a10.64,10.64,0,0,0-9.35-5.56h-128a10.64,10.64,0,0,0-9.35,5.56L1.32,250.9a10.58,10.58,0,0,0,0,10.21l64,117.33A10.64,10.64,0,0,0,74.67,384h128a10.64,10.64,0,0,0,9.35-5.56L276,261.1A10.58,10.58,0,0,0,276,250.9ZM196.34,362.67H81L22.82,256,81,149.33H196.34L254.52,256Z"
          transform="translate(0)"/>
    <path class="cls-1"
          d="M300.07,240a10.7,10.7,0,0,0,9.27,5.38h128a10.7,10.7,0,0,0,9.27-5.37l64-112a10.76,10.76,0,0,0,0-10.58l-64-112A10.7,10.7,0,0,0,437.34,0h-128a10.7,10.7,0,0,0-9.27,5.38l-64,112a10.76,10.76,0,0,0,0,10.58ZM315.52,21.33H431.15L489,122.67,431.15,224H315.52l-57.9-101.33Z"
          transform="translate(0)"/>
    <path class="cls-1"
          d="M446.61,272a10.7,10.7,0,0,0-9.27-5.37h-128a10.7,10.7,0,0,0-9.27,5.38l-64,112a10.76,10.76,0,0,0,0,10.58l64,112a10.7,10.7,0,0,0,9.27,5.38h128a10.7,10.7,0,0,0,9.27-5.37l64-112a10.76,10.76,0,0,0,0-10.58ZM431.15,490.67H315.52l-57.9-101.33L315.52,288H431.15L489,389.33Z"
          transform="translate(0)"/>
</svg>