<svg id="Слой_1" data-name="Слой 1" xmlns="http://www.w3.org/2000/svg" viewBox="0 0 21 21">
    <defs>
        <style>.cls-1{fill:none;stroke:#ff698b;stroke-miterlimit:10;isolation:isolate;}.cls-2{fill:#ff698b;}</style>
    </defs>
    <title>tw</title>
    <circle class="cls-1" cx="10.5" cy="10.5" r="10"/>
    <path class="cls-2"
          d="M55,48.5v.16a6.59,6.59,0,0,1-3.1,5.7,6.52,6.52,0,0,1-6.9-.1,4.6,4.6,0,0,0,3.37-.94,2.28,2.28,0,0,1-2.13-1.63,2.29,2.29,0,0,0,1,0,2.28,2.28,0,0,1-1.83-2.19h0a2.27,2.27,0,0,0,1,.28,2.28,2.28,0,0,1-.7-3A6.47,6.47,0,0,0,50.51,49,2.28,2.28,0,0,1,54.39,47a4.55,4.55,0,0,0,1.45-.59,2.29,2.29,0,0,1-1,1.26,4.53,4.53,0,0,0,1.31-.36A4.58,4.58,0,0,1,55,48.5Z"
          transform="translate(-39.83 -39.5)"/>
</svg>