<svg id="Слой_1" data-name="Слой 1" xmlns="http://www.w3.org/2000/svg" viewBox="0 0 41 41">
    <defs>
        <style>.cls-1{opacity:0.8;}.cls-2{fill:none;stroke:#7db5ba;stroke-miterlimit:10;}.cls-3{fill:#7db5ba;}</style>
    </defs>
    <title>wheat</title>
    <g class="cls-1">
        <circle class="cls-2" cx="20.5" cy="20.5" r="20"/>
        <line class="cls-2" x1="33.71" y1="5.03" x2="6.54" y2="35.22"/>
    </g>
    <path class="cls-3"
          d="M19.65,11.74a.83.83,0,0,0,1.17.1l.1-.1a6.81,6.81,0,0,0,1.77-4.15,6.81,6.81,0,0,0-1.77-4.15.83.83,0,0,0-1.17-.1l-.1.1a6.81,6.81,0,0,0-1.77,4.15A6.81,6.81,0,0,0,19.65,11.74Z"/>
    <path class="cls-3"
          d="M20.3,17.5c.13,0,3.26.13,5.1-1.71a6.81,6.81,0,0,0,1.69-4.18.83.83,0,0,0-.75-.9h-.15A6.82,6.82,0,0,0,22,12.4a7,7,0,0,0-1.71,4.5,7,7,0,0,0-1.71-4.5,6.8,6.8,0,0,0-4.19-1.69.83.83,0,0,0-.9.9,6.81,6.81,0,0,0,1.69,4.18C17,17.66,20.16,17.5,20.3,17.5Z"/>
    <path class="cls-3"
          d="M22,19a7,7,0,0,0-1.7,4.46A7,7,0,0,0,18.59,19a6.8,6.8,0,0,0-4.19-1.69.83.83,0,0,0-.9.9,6.8,6.8,0,0,0,1.69,4.18c1.85,1.85,5,1.72,5.1,1.71s3.26.13,5.1-1.71a6.81,6.81,0,0,0,1.69-4.18.83.83,0,0,0-.75-.9h-.15A6.8,6.8,0,0,0,22,19Z"/>
    <path class="cls-3"
          d="M22,25.66a7,7,0,0,0-1.71,4.5,7,7,0,0,0-1.71-4.5A6.8,6.8,0,0,0,14.4,24a.83.83,0,0,0-.9.9,6.8,6.8,0,0,0,1.69,4.18,6.88,6.88,0,0,0,4.36,1.69V35.5a.76.76,0,0,0,.77,1,.84.84,0,0,0,.85-1V30.74a6.8,6.8,0,0,0,4.22-1.68,6.81,6.81,0,0,0,1.69-4.18.83.83,0,0,0-.75-.9h-.15A6.79,6.79,0,0,0,22,25.66Z"/>
</svg>