<svg id="Слой_1" data-name="Слой 1" xmlns="http://www.w3.org/2000/svg" viewBox="0 0 40.01 40.31">
    <defs>
        <style>.cls-1{fill:#fff;}</style>
    </defs>
    <title>wrench</title>
    <path class="cls-1"
          d="M38.75,3.69,36.33,1.27A4.42,4.42,0,0,0,30.4,1L26.15,4.71a.69.69,0,0,0-.14.16l-4.14,6.9-2.66.89a.68.68,0,0,0-.27,1.13L26.19,21a.68.68,0,0,0,.48.2h.16a.68.68,0,0,0,.49-.45l.89-2.66,7-4.23a.68.68,0,0,0,.16-.14L39,9.61A4.43,4.43,0,0,0,38.75,3.69Zm-.82,5L34.4,12.78l-7.12,4.3a.68.68,0,0,0-.29.37l-.62,1.85-1.63-1.63h0l-2.42-2.42h0l-1.63-1.63,1.85-.6a.68.68,0,0,0,.37-.3l4.21-7L31.29,2.1a3,3,0,0,1,4.07.14l2.42,2.42a3,3,0,0,1,.15,4.06Z"
          transform="translate(0 0)"/>
    <path class="cls-1"
          d="M36.81,27.47a7.52,7.52,0,0,0-7.63-1.84L14.66,11.11A7.52,7.52,0,0,0,4.77,1.79a.68.68,0,0,0-.23,1.12L8.89,7.26,6,10.16,1.64,5.82A.68.68,0,0,0,.52,6a7.52,7.52,0,0,0,9.31,9.89l5.43,5.43L8.5,28.13l-4.3,2.4a.68.68,0,0,0-.28.29L2,34.69a.68.68,0,0,0,.13.79L4.55,37.9a.68.68,0,0,0,.79.13L9.2,36.1a.68.68,0,0,0,.29-.28l2.4-4.3,6.76-6.76,5.71,5.71a7.52,7.52,0,0,0,9.89,9.32.68.68,0,0,0,.23-1.12l-4.35-4.35L33,31.42l4.35,4.35a.68.68,0,0,0,1.12-.23A7.52,7.52,0,0,0,36.81,27.47Zm-26,3.15a.68.68,0,0,0-.11.15L8.35,35,5.11,36.59,3.39,34.87,5,31.63l4.2-2.35a.68.68,0,0,0,.15-.11l6.83-6.83,1.45,1.45ZM37.53,34l-4-4a.68.68,0,0,0-1,0l0,0h0l-3.86,3.86a.68.68,0,0,0,0,1l0,0h0l4,4a6.15,6.15,0,0,1-6.93-8.28.68.68,0,0,0-.15-.73l-15.1-15.2a.68.68,0,0,0-.73-.15A6.15,6.15,0,0,1,1.48,7.59l4,4a.68.68,0,0,0,1,0l0,0h0l3.86-3.86a.68.68,0,0,0,0-1l0,0h0l-4-4A6.15,6.15,0,0,1,13.24,11a.68.68,0,0,0,.15.73L28.52,26.9a.68.68,0,0,0,.73.15,6.15,6.15,0,0,1,8.28,7Z"
          transform="translate(0 0)"/>
</svg>