<svg id="Layer_1" data-name="Layer 1" xmlns="http://www.w3.org/2000/svg" viewBox="0 0 1608.19 1214.88">
    <defs>
        <style>
            .cls-1{fill:#2d2b29;}.cls-1,.cls-12,.cls-13,.cls-14,.cls-15,.cls-16,.cls-17,.cls-18,.cls-2,.cls-24,.cls-25,.cls-3,.cls-4,.cls-5,.cls-6{stroke:#000;stroke-width:10px;}.cls-1,.cls-12,.cls-13,.cls-14,.cls-15,.cls-16,.cls-17,.cls-18,.cls-2,.cls-24,.cls-25,.cls-28,.cls-3,.cls-4,.cls-5,.cls-6{stroke-linecap:round;stroke-linejoin:round;}.cls-2,.cls-28{fill:none;}.cls-3{fill:#f6e5f9;}.cls-5{fill:#4b634e;}.cls-6,.cls-8{fill:#d9d9d9;}.cls-10,.cls-11,.cls-26,.cls-7,.cls-9{fill:#fff;}.cls-9{opacity:0.6;}.cls-10,.cls-11,.cls-26,.cls-28,.cls-9{isolation:isolate;}.cls-10{opacity:0.1;}.cls-11{opacity:0.05;}.cls-12{fill:#d8c19f;}.cls-13{fill:#9b6d5b;}.cls-14,.cls-19{fill:#002371;}.cls-15,.cls-23{fill:#211f2d;}.cls-16,.cls-22{fill:#014d38;}.cls-17,.cls-21{fill:#f7663e;}.cls-18,.cls-20{fill:#faf3ed;}.cls-24{fill:#feddc8;}.cls-25{fill:#7a7e7f;}.cls-26{opacity:0.2;}.cls-27{fill:#282828;}.cls-28{stroke:#fff;stroke-width:5px;opacity:0.3;}
        </style>
    </defs>
    <title>clientBeforeFace</title>
    <g id="Layer_2" data-name="Layer 2">
        <g id="Layer_2-2" data-name="Layer 2-2">
            <path class="cls-1"
                  d="M648.45,978.58a151.12,151.12,0,0,1,9,29c3.42,16.41,3.5,29.81,3,44a609.91,609.91,0,0,1-8,78c-1.44,8.72-5.35,31.72-14,69-10.71,46.15-16.07,45.72-20,53.5h-392c0-3.94,2.66-8.13,8-28.5,1.6-6.11,5-20.1,8-38,4.89-29.47,4-42.76,10-51,1.11-1.53,4.06-5.13,4-10,0-3.54-1.65-5-2-9a20.46,20.46,0,0,1,2-10c2.81-7,2.49-14.88,3-29,.71-19.7,2.76-39.33,4-59,2.52-40,3.87-60.11,8-65,16.43-19.46,56.65-8.37,89-2C508.85,979.81,629.14,936.91,648.45,978.58Z"
                  transform="translate(-153.46 -42.42)"/>
            <path class="cls-2"
                  d="M305.45,999.58c-.26,6.25-.8,14.84-2,25-3.11,26.22-4.66,39.34-10,50-4.69,9.36-11.74,18.65-11,30a32.57,32.57,0,0,1,0,8c-1.24,8.82-5.75,10.49-6,17-.21,5.42,2.85,6,4,13s-.87,12.6-2,16c-3.71,11.11-13.49,47.38-27,93.5"
                  transform="translate(-153.46 -42.42)"/>
            <path class="cls-2"
                  d="M431.45,1048.58c2-3.81,4.87-9.66,8-17,4.89-11.45,6.8-18.23,8-18,.79.15,1.36,3.34,0,18"
                  transform="translate(-153.46 -42.42)"/>
            <path class="cls-2"
                  d="M574.45,1047.58a77.53,77.53,0,0,0,2-28c-1.22-10.54-4.32-17.42-3-18,1.55-.68,7.8,8,11,18a50.6,50.6,0,0,1,2,9"
                  transform="translate(-153.46 -42.42)"/>
            <path class="cls-2"
                  d="M262.45,1113.58c7.94-2.79,19.28-6.66,33-11,27.07-8.56,63.36-18.89,64-17,.51,1.51-22.18,9.57-63,29-19.34,9.21-38.9,18.57-38,21,1,2.7,26.89-4.42,29-5a215.36,215.36,0,0,0,21-7"
                  transform="translate(-153.46 -42.42)"/>
            <path class="cls-2"
                  d="M501.45,1000.58c2.33,16,3.44,29.65,4,40,1,19.37,1.83,33.71-1,52-3.14,20.26-12.8,35.46-10,37,1.09.6,3.4-1.27,8-5a54.52,54.52,0,0,0,8-8"
                  transform="translate(-153.46 -42.42)"/>
            <path class="cls-2" d="M544.45,1018.58a318.59,318.59,0,0,1-3,34c-1.61,11.28-3.7,21.65-6,31"
                  transform="translate(-153.46 -42.42)"/>
            <path class="cls-2"
                  d="M512.45,1162.58c-12.17,4.2-21.47,5.07-28,5-3.19,0-8.48-.33-13,3-3.81,2.8-5.26,6.84-6,9-6.6,19.16-9.91,28.74-12,38-1.65,7.31-4.2,22.1-8,34.5"
                  transform="translate(-153.46 -42.42)"/>
            <path class="cls-2"
                  d="M475.45,1175.58c5.35,1.36,13.32,3.41,23,6,22,5.87,26.12,7.38,26,8-.2,1-11.91-1.7-28-1a121.56,121.56,0,0,0-26,4"
                  transform="translate(-153.46 -42.42)"/>
            <path class="cls-2" d="M498.45,1173.58a106.71,106.71,0,0,1,22,4,107.84,107.84,0,0,1,34,17"
                  transform="translate(-153.46 -42.42)"/>
            <path class="cls-2"
                  d="M496.45,1192.58c1,2.73,1.81,6.68,0,10-1.6,2.93-4.08,3.19-6,6-2.77,4.06-1.46,9.2-1,12,.91,5.57.5,18.67-6,31.5"
                  transform="translate(-153.46 -42.42)"/>
            <path class="cls-3"
                  d="M518.45,427.58c6.94-3.27,17.9.51,28,4,8.8,3,19,8.28,34,22,12.63,11.57,21.88,23,38,46,22.83,32.61,18.78,30.45,32,48,18.75,24.88,31.7,42.06,49,55a171.18,171.18,0,0,1,29,29,48.49,48.49,0,0,1,4,6c3.63,6.44,6,14.11,6,19,0,11.42-12.79,20.19-20,25-5.07,3.38-33.87,22.59-70,18-41-5.21-66.57-38-84-61C501.56,555.42,493,439.55,518.45,427.58Z"
                  transform="translate(-153.46 -42.42)"/>
            <path class="cls-3"
                  d="M723.45,646.58c5.06.06,15-.46,21,6,4.41,4.72,4.81,11.08,5,14,.78,12.16-5.8,21.55-9,26-12.7,17.64-38.39,32.11-64,27-9.66-1.93-15.76-5.93-25-12-11.7-7.68-48.11-31.58-52-71-.67-6.8-2.82-28.6,8-35,9.73-5.75,19.85,6.89,67,27"
                  transform="translate(-153.46 -42.42)"/>
            <path class="cls-3"
                  d="M740.45,667.58c2.38.94,8.33,3.29,11,9,.48,1,1.91,4.4,1,10-2,12.33-13.12,21.48-20,27-8.9,7.15-20.27,16.27-38,19-11.16,1.72-19.93.14-26-1-6.9-1.3-20.61-4-34-14-1.65-1.23-31.87-24.16-27-42,4.43-16.23,35.51-19.47,66.7-18"
                  transform="translate(-153.46 -42.42)"/>
            <path class="cls-3"
                  d="M743.45,691.58c1.58-1.12,7.82-6.07,12-4,.55.27,3.06,1.22,4,9,2.12,17.53,0,30,0,30-4.73,27.76-6.9,30-8,45-.23,3.12-.49,8.08-1,18,0,0-.4,9.49-1,21-.51,9.64-.76,14.45-1,16-1.21,7.81-2.54,16.31-9,24a34.6,34.6,0,0,1-14,10c-3.81,1.41-7.48,1.94-13,2a89,89,0,0,1-29-4c-21.59-6.89-36.8-21.6-42-27-6.15-6.4-41.42-44.65-32-95,2.2-11.73,8.58-45.86,32-55,19.84-7.75,48,4,70.8,10"
                  transform="translate(-153.46 -42.42)"/>
            <path class="cls-4"
                  d="M719.45,880.58c2,3.61.33,5.51-4,29-3.31,18-2.68,18.82-5,27-3.93,13.9-6,21.3-13,28-9.94,9.55-22.56,10.73-26,11-2.65.21-11.8.93-20-3-19-9.11-28.16-41-18-65,9-21.25,29.84-28.78,36-31C687.15,870.19,713.2,869.32,719.45,880.58Z"
                  transform="translate(-153.46 -42.42)"/>
            <path class="cls-3"
                  d="M678.45,849.58c5-3.41,11.38-2.91,23-2,4.91.38,8.61,1.26,16,3,14.2,3.35,15.73,5.52,16,7,.23,1.27-.47,1.92-2,5s-2.32,5.65-4,11c-3.07,9.76-4.61,14.64-4,19,.23,1.64.93,5.17-1,7a4.15,4.15,0,0,1-2,1c-6.61,1.48-23.27-5.08-38-7-3-.39-3.69-.3-5-1C667.18,887,665.84,858.1,678.45,849.58Z"
                  transform="translate(-153.46 -42.42)"/>
            <path class="cls-5"
                  d="M456.45,413.58a206.75,206.75,0,0,1,50,7c11.66,3.15,21.88,6,33,13,12,7.52,21.37,17.6,34,38a335.35,335.35,0,0,1,31,65,1012.3,1012.3,0,0,1,37,130c3.82,18.28,9.07,43.68,13,78,.85,7.4,4.21,37.66,5,78,.71,35.86,0,110.39-1,122a38.31,38.31,0,0,0,0,8c.39,3.6,1,4.68,2,10,.74,4.11,1.1,6.17,1,8a21.69,21.69,0,0,1-4,11,26.2,26.2,0,0,1-9,8c-23.36,13.11-91,21-91,21-23.09,2.69-17.18,2.8-37,5a799.34,799.34,0,0,1-124,4s-28.59-1.27-87-11c0,0-9-1.49-33-11a34.2,34.2,0,0,1-11-7c-2.11-2-4.83-4.67-6-9-.34-1.25-1.85-6.84,1-10,2.27-2.51,6-2,6-3,.06-1.26-5.81-1-10-5-.38-.36-4.09-4-4-9,.1-5.17,4.24-6.52,4-11-.18-3.37-2.65-5-5-8-3.88-4.91-4.62-9.87-6-19-7.34-48.73-5-73-5-73,6.59-68.17-22.82-234.5-43-291-6.82-19.08-6.88-30.39-7-53-.08-13.94,1.31-25,9-32,3-2.72,8-4.51,18-8,12.55-4.39,16.37-4.64,27-8,11.57-3.66,19.86-7.41,30-12,13.89-6.29,23.61-11.71,26-13C330.23,410.52,381,411.54,456.45,413.58Z"
                  transform="translate(-153.46 -42.42)"/>
            <path class="cls-3"
                  d="M289.45,413.58c-.55,3.91,5.3,10.27,17,23,11.12,12.1,18.26,19.86,30,28,17.44,12.09,33.75,17.18,46,21,13.57,4.23,13.17,2.53,31,8,18,5.53,21.92,8.34,26,6,9.54-5.46,6.59-31.3,0-49-12.44-33.43-42-49-44-50C350.74,377.9,291.8,396.92,289.45,413.58Z"
                  transform="translate(-153.46 -42.42)"/>
            <path class="cls-2"
                  d="M313.45,899.58a264.87,264.87,0,0,0,65,33,259.76,259.76,0,0,0,97,14,249.86,249.86,0,0,0,47-7"
                  transform="translate(-153.46 -42.42)"/>
            <path class="cls-2"
                  d="M273.45,966.58c16,2.9,38.62,6.48,66,9a720.59,720.59,0,0,0,123,1c34.56-2.72,52.3-4.23,75-12a220.29,220.29,0,0,0,63-34"
                  transform="translate(-153.46 -42.42)"/>
            <path class="cls-2"
                  d="M271.45,974.58a325.17,325.17,0,0,0,51,21c45.26,14.27,80.34,14.35,134,14,92.41-.6,133.6-16.39,145-21,10.13-4.09,18.33-8.08,24-11"
                  transform="translate(-153.46 -42.42)"/>
            <path class="cls-4"
                  d="M648.45,880.58c-5.55.82-11.82,1.56-19-1-2.9-1-11.42-4.07-15-12-3.91-8.64.47-17.73,3-23,7.48-15.55,21.88-22.17,26-24,6.48-2.87,23.19-10.27,39-2,2.68,1.4,13,7.26,17,20,.43,1.36,4.64,15.52-3,27C690.63,874.32,676.57,876.41,648.45,880.58Z"
                  transform="translate(-153.46 -42.42)"/>
            <path class="cls-4"
                  d="M627.45,897.58a22,22,0,0,1,1-11c2.9-7.91,9.82-11.72,16-15,7.94-4.22,21.32-11.33,37-7,3.84,1.06,14.57,4,20,14a26,26,0,0,1,3,14,27.33,27.33,0,0,1-7,16c-5.61,6-12.41,7.16-24,9-14.42,2.29-22.39,3.56-31-1C640.35,915.47,629.36,909.32,627.45,897.58Z"
                  transform="translate(-153.46 -42.42)"/>
            <path class="cls-4"
                  d="M632.45,932.58c.57-11.92,11.74-18.77,17-22,3.51-2.15,16.77-10.29,32-5,1.5.52,14.85,5.4,20,19,1.24,3.28,3.88,10.25,1,17-3.88,9.09-15.14,11.59-26,14-11.68,2.59-21.6,4.79-31-1C639.16,950.7,632,942.54,632.45,932.58Z"
                  transform="translate(-153.46 -42.42)"/>
            <path class="cls-3"
                  d="M327.45,608.58a77.8,77.8,0,0,0,2-26c-1.51-15.78-7.72-27.08-15-40a178.39,178.39,0,0,0-31-40c-10.69-10.4-18.56-18.06-32-24-7.93-3.5-21.5-9.28-38-6a50.5,50.5,0,0,0-19,8c-10.71,7.6-15.24,17.65-18,24-3.73,8.57-4.64,15.34-6,26-1.05,8.28-1.92,19.62-1,38,.76,15.08,1.76,15.75,4,39,1.32,13.63,2.71,28.4,3,46s-.8,20.88-1,36a311.61,311.61,0,0,0,6,68c6.37,30.88,16,50.31,22,61,10.73,19,17.56,23.23,21,25,16.48,8.48,37.5,2.39,49-4C331.46,807.36,311.68,676.39,327.45,608.58Z"
                  transform="translate(-153.46 -42.42)"/>
            <path class="cls-3"
                  d="M241.45,704.58c3-5.92,9.29-18.11,22-29,9.84-8.43,14.75-8.55,23-18,3.09-3.55,7.1-10.75,15-25,10.32-18.63,10.32-19.73,14-24,7.09-8.22,15.59-14,20-17,6.51-4.43,10.52-6.22,17-12,6.76-6,5.91-7.23,9-9,11.47-6.58,33.79,3.75,45,19,7.28,9.92,9.31,21.14,10,25a72.6,72.6,0,0,1,1,16,73.44,73.44,0,0,1-2,14c-4.35,18.18-7,36.73-11,55-8.89,40.68-13.32,61.17-13,68a51.2,51.2,0,0,1-2,18,52.94,52.94,0,0,1-9,17c-23.52,31.2-55,47-55,47-9,4.54-17.59,8.75-30,11-16.34,3-29.52.76-40-1-9.93-1.67-15.62-3.78-27-8-6.47-2.4-9.49-3.9-12-7-4.54-5.62-4.26-12.67-4-19,.22-5.51,1.22-10.08,6-25"
                  transform="translate(-153.46 -42.42)"/>
            <path class="cls-4"
                  d="M385.45,96.58c.08-2.88,11.2-3,27-11,6.92-3.51,9.53-5.89,17-11,16.07-11,29-19.79,45-24,7.94-2.08,22.58-5.92,39,0,17,6.14,26,19.15,30,25,10,14.5,11.93,28.61,13,37,.92,7.24,2.54,21.23-3,38a79.11,79.11,0,0,1-19,31c-5.53,5.48-8.1,8.41-11,9-13.12,2.67-21.17-22.06-49-48-10.79-10.05-29.06-27.08-57-36C401.36,101.44,385.35,100,385.45,96.58Z"
                  transform="translate(-153.46 -42.42)"/>
            <path class="cls-6"
                  d="M159.45,321.58c1.42-.86,3.28,2.84,9,4,9.76,2,18.71-5.84,20-7,5.82-5.23,8-11.66,10-19,6.22-23.35,6-39,6-39-.05-3.9-.35-47.4,14-82,12-29,32.15-46.48,41-54,22.74-19.34,44.85-27,57-31,6.41-2.14,35.66-11.5,75-9,17.12,1.09,40.47,2.81,67,16a161.79,161.79,0,0,1,45,34,160,160,0,0,1,25,35c12.38,24,15.53,46.06,17,57,3.1,23.11,4,37,4,37,.51,7.81.77,15.24,4,25a82.25,82.25,0,0,0,8,17c3.59,5.82,7.23,11.74,14,17,7.1,5.52,11,6,14,7,1,9-2.25,19.7-6,27-3.12,6.08-9.92,12.49-18,18-13.75,9.37-28,10-32,11a57.72,57.72,0,0,0,8,9c5.81,4.74,10,5,13,5a31.41,31.41,0,0,1-11,7c-6.79,2.65-15.26,5.85-28,6-13.29.15-14.09-3.21-19-1-9.11,4.1-6.37,15.7-16,29-8.82,12.18-21.53,16.85-25,18-13.9,4.62-34.22,4.36-46-7-9.46-9.12-9.71-21.84-16-22-3.48-.09-5,3.78-9,8-14.17,15.13-38.66,13.1-64,11-3.35-.28-11.86-2.07-10-3a40.66,40.66,0,0,0,7-4c7-5,12.27-13.79,11-16s-11,1.18-17,3c-26.32,8-51.58,4.94-64,2-28.82-6.82-49.3-27.54-48-30,.44-.83,3.18.67,11,1,4.63.2,10.59.4,17-2,1.42-.53,10.33-3.86,10-7-.36-3.42-11.32-3.32-24-7-2.74-.8-20.46-6.13-34-19C161.36,349.38,156,323.68,159.45,321.58Z"
                  transform="translate(-153.46 -42.42)"/>
            <path class="cls-7"
                  d="M248.45,153.58a126,126,0,0,0-14,31c-1.29,4.69-2.59,10.67-4,33-1.79,28.29-.71,34.69-3,56a130.78,130.78,0,0,1-7,32c-4.92,13.57-9.55,18.75-14,22a31.32,31.32,0,0,1-14,6c-10.71,1.58-17.76-3.72-20-1-2,2.49,2.1,9,4,12s9.95,14.91,30,27c9.49,5.72,16.53,8.4,26,12s12.95,4,16,4c5,0,8.25-1.32,9,0,1,1.77-3.41,6.68-8,10-10.39,7.5-20.49,6-21,9-.59,3.5,12.25,8.35,14,9,7.2,2.67,18.65,5.9,43,6,16.9.07,25.35.1,32-3,10.79-5,16.43-13.31,21-11,3.06,1.54,3.53,6.75,4,12a26.11,26.11,0,0,1-2,14c-2.5,5.25-5.62,6.34-5,8,1.22,3.26,14.24,1.42,21,0,5.7-1.2,11.46-2.4,18-6,15-8.27,16.38-19.35,24-19,6.17.29,6.22,7.58,16,13,9.59,5.31,19.76,4,27,3a64,64,0,0,0,31-13c10.3-8.21,10.86-14.35,20-17,3.74-1.09,4.49-.3,18,0,12.39.28,23.46.47,24-2,.36-1.64-4.37-2.52-9-8-3.54-4.19-7.37-11.47-5-15,1.82-2.72,6.12-1.41,14-2a71.67,71.67,0,0,0,22-6c4.24-2,15.42-7.27,22-19,1.7-3,5.91-10.53,3-15-2-3.08-5.94-2.5-11-4-9.84-2.92-15.41-11.18-20-18-2.28-3.39-6.41-10.36-10-32-3-18.24-1.65-22.69-4-44-1.89-17.21-2.84-25.81-6-36-6.43-20.75-17.29-34.6-24-43a162.75,162.75,0,0,0-46-39c-49.25-27.92-100.11-21.31-118-18C336.73,102.63,273.42,115,248.45,153.58Z"
                  transform="translate(-153.46 -42.42)"/>
            <path class="cls-4"
                  d="M359.45,107.58c1.54-6.65-26.71-18.33-38-23-38-15.73-59.65-24.67-85-17a76.62,76.62,0,0,0-36,24c-12.38,15.19-15,31.13-16,38-2.88,19.22,1.78,34.11,5,44,6.22,19.13,15.67,30.63,25,42,6.55,8,12.45,13.57,21,16,3,.87,8.87,2.44,15,0,7.8-3.1,11.19-10.74,13-15,4.43-10.42,2.48-17.11,3-29,.2-4.49,1.29-22,9-37,9.85-19.14,27.49-28.25,33-31C334.89,106.36,358.07,113.53,359.45,107.58Z"
                  transform="translate(-153.46 -42.42)"/>
            <path class="cls-8"
                  d="M463.45,323.58c-1.6-3.17.25-5-2-10-.48-1-1.41-2.84-9-10-7.13-6.72-8.64-7.35-10-7-2.25.58-3.1,3.61-4,6-3.47,9.2-10,14.88-17,21a55.86,55.86,0,0,1-20,11,61.38,61.38,0,0,1-37,0c-5.13-1.65-13.34-4.39-21-12a47,47,0,0,1-13-25c-2.53-15.48,4.33-27.69,9-36,0,0,19.3-34.36,73-48a35.29,35.29,0,0,1,9-1,34.5,34.5,0,0,1,12,3c14.37,6.94,15.69,35.27,21,35,1-.05,1.59-1.16,5-9,7-15.95,8.16-19.34,12-22a18.22,18.22,0,0,1,11-3c6.62.33,10.92,4.45,18,11,19.44,18,14.78,12.65,22,20,11.3,11.49,17,17.39,21,25,3.31,6.35,7,13.54,6,23-.27,2.67-1.14,11.35-8,18-9.87,9.57-24.24,7.3-26,7-10.13-1.76-17.91-8.47-19-7-.51.7,1.25,2.18,2,6a13.42,13.42,0,0,1,0,6C495.87,332.59,468.51,333.58,463.45,323.58Z"
                  transform="translate(-153.46 -42.42)"/>
            <path class="cls-4"
                  d="M352.45,279.58a30.58,30.58,0,0,0-2,15c1.56,11.76,10.3,18.82,13,21,13.88,11.21,30.59,8.44,33,8a45,45,0,0,0,18-8,54.09,54.09,0,0,0,16-17c5-8.55,6.17-16.19,7-22,1.22-8.58,2.18-15.3-1-23-.93-2.26-4.48-10.86-13-15-11.91-5.8-25.4,1.09-35,6-8.35,4.27-13.33,8.92-22,17C356.25,271,353.75,276,352.45,279.58Z"
                  transform="translate(-153.46 -42.42)"/>
            <path class="cls-7"
                  d="M397.45,280.58c1-2.3,3.31-3.2,8-5,3.57-1.37,6.79-2.6,11-2,2.32.33,5.3.76,7,3,3.21,4.22-.42,11.92-4,16-1.63,1.86-4.15,4.73-8,5-5.67.4-9.67-5.15-11-7S395.91,284.26,397.45,280.58Z"
                  transform="translate(-153.46 -42.42)"/>
            <path class="cls-4"
                  d="M466.45,252.58c1-5.56,2-10.22,6-14,4.82-4.52,11-4.9,13-5,9.43-.45,16.36,5.09,25,12,4.63,3.71,11.48,9.29,17,19,3.85,6.78,7.09,12.47,6,20-1.36,9.41-8.51,14.91-10,16-6.22,4.57-12.69,4.83-17,5a36.08,36.08,0,0,1-16-3,36.59,36.59,0,0,1-8-5,45.06,45.06,0,0,1-13-15C463.15,270.34,465.34,258.54,466.45,252.58Z"
                  transform="translate(-153.46 -42.42)"/>
            <path class="cls-7"
                  d="M486.45,276.58c.69-3.25,3.66-5.15,5-6a11.84,11.84,0,0,1,8-2c1.09.15,5.1.68,7,4,1.65,2.88.64,6,0,8a11.23,11.23,0,0,1-4,6,9.87,9.87,0,0,1-6,2C490.77,288.35,485.32,281.87,486.45,276.58Z"
                  transform="translate(-153.46 -42.42)"/>
            <path class="cls-2" d="M474.45,371.58a16,16,0,0,0,6,4,17.17,17.17,0,0,0,6,1,19.25,19.25,0,0,0,10-3"
                  transform="translate(-153.46 -42.42)"/>
            <path class="cls-2"
                  d="M479.45,343.58a64.93,64.93,0,0,1-3,20,35.91,35.91,0,0,1-4,9,29.82,29.82,0,0,1-11,10,31.35,31.35,0,0,1-10,3,42.28,42.28,0,0,1-14,0c-3.77-.65-9.46-1.71-15-6a28.21,28.21,0,0,1-5-5"
                  transform="translate(-153.46 -42.42)"/>
            <path class="cls-4"
                  d="M456.45,326.58a14.16,14.16,0,0,0,0,8,16.55,16.55,0,0,0,7,9c7.57,5.18,16.62,3.43,24,2,5-1,6.84-2.11,8-3,4.81-3.68,5.75-9.48,6-11s1.06-6.49-1-10C494.11,310.78,460.54,314.81,456.45,326.58Z"
                  transform="translate(-153.46 -42.42)"/>
            <path class="cls-7"
                  d="M460.45,326.58c-.49,3.19,3,6.13,4,7,4.63,3.93,10.52,3.4,15,3,4.24-.38,7-.63,9-3a8.66,8.66,0,0,0,1-9c-2.48-4.94-9.83-5-13-5C470.38,319.54,461.19,321.78,460.45,326.58Z"
                  transform="translate(-153.46 -42.42)"/>
            <path class="cls-2" d="M479.45,383.58a13.12,13.12,0,0,1,4,5c1.26,2.82,1.13,5.4,1,8a26.75,26.75,0,0,1-1,6"
                  transform="translate(-153.46 -42.42)"/>
            <path class="cls-4"
                  d="M429.45,448.58c3.33-2.83,9.1-5.18,16-8,4.42-1.8,8.66-4,13-6,2.7-1.24,3.83-1.75,5-3,3.18-3.4,2.81-8,3-12a42.61,42.61,0,0,1,5-18,27.28,27.28,0,0,1,21-13c2-.16,11.62-.69,19,6,7.56,6.86,7.79,16.81,8,26a64.06,64.06,0,0,1-6,28,73.56,73.56,0,0,1-17,24c-20.18,18.4-57.62,27.49-70,13C418.37,476.12,420.56,456.13,429.45,448.58Z"
                  transform="translate(-153.46 -42.42)"/>
            <path class="cls-4"
                  d="M501.45,439.58c8.61,3.07,12,16,13,20a41.62,41.62,0,0,1,0,20,52.55,52.55,0,0,1-15,26c-6.22,5.92-18.35,17.48-33,14-8.14-1.93-16.34-8.33-19-17-3.84-12.5,5.55-24.1,16-37C471.05,456.19,488.3,434.89,501.45,439.58Z"
                  transform="translate(-153.46 -42.42)"/>
            <path class="cls-4"
                  d="M498.45,481.58c6.35,1.26,11.53,6.71,14,12,3.15,6.73,1.86,13.06,1,17-.64,3-2.93,11.72-15,24-11.53,11.73-13.34,7.69-37,25-7.13,5.22-12.6,9.71-21,10-2.63.09-10.67.37-14-4-10.86-14.25,39.34-63.49,47-71S489.4,479.79,498.45,481.58Z"
                  transform="translate(-153.46 -42.42)"/>
            <path class="cls-4"
                  d="M379.45,538.58c-3.67-11-5.52-16.61-6-22-.54-6,.31-10.69,2-20,2.14-11.75,3.2-17.63,6-23,1.74-3.35,4.07-6.83,4-12a19.1,19.1,0,0,0-2-8c-3.27-7.15-10.08-22-13-35-1.36-6-2.29-10.41-1-16,.45-2,2.74-11.86,11-16,10.8-5.41,23.69,3.14,28,6,5.66,3.76,9,8,13,13,6,7.58,9,11.37,10,17,1.2,7-1.64,9.82,0,20a36.26,36.26,0,0,0,2,8c5.85,13.15,31.39,4.41,44,16,17.59,16.16,4.7,67-14,83a156.07,156.07,0,0,0-16,15,115.23,115.23,0,0,0-13,16c-6.6,10.08-7,14.78-10,15-4.38.31-4.92-9.29-14-20-10.53-12.42-19.16-10.53-26-23C383.62,551,382.23,546.9,379.45,538.58Z"
                  transform="translate(-153.46 -42.42)"/>
            <path class="cls-3"
                  d="M383.45,594.58a99,99,0,0,0-11-5c-9.2-3.54-13.8-5.32-19-5-4.71.29-8.73,1.87-10,0a3,3,0,0,1,0-3c3-5,8-12,8-12,4-5,6.78-12.39,13-25,5.71-11.58,4-12.35,7-15,11-9.82,34.41.43,38,2a70.9,70.9,0,0,1,29,27c3.58,6,4.75,10.61,4,15a17.79,17.79,0,0,1-3,7c-5.23,8.13-7.94,16.08-12,28-4.93,14.46-5.2,23.74-8,24-2.09.19-2-5.37-6-12C404.57,605.94,391,598.61,383.45,594.58Z"
                  transform="translate(-153.46 -42.42)"/>
            <path class="cls-2" d="M317.45,599.58a93,93,0,0,0-6-43" transform="translate(-153.46 -42.42)"/>
            <path class="cls-2"
                  d="M263.45,582.58a70.59,70.59,0,0,1,33,9c10.16,5.85,16.54,13.22,18,12,1.76-1.46-5.8-13.52-11-21-7.31-10.52-16.33-23.51-33-36a131.92,131.92,0,0,0-33-18"
                  transform="translate(-153.46 -42.42)"/>
            <path class="cls-2" d="M207.45,723.58a64.63,64.63,0,0,1,12-21,66.06,66.06,0,0,1,31-20"
                  transform="translate(-153.46 -42.42)"/>
            <path class="cls-2" d="M277.45,659.58a93.08,93.08,0,0,0-29-5,94.73,94.73,0,0,0-45,11"
                  transform="translate(-153.46 -42.42)"/>
            <path class="cls-2" d="M280.45,654.58a68.35,68.35,0,0,0-52-23" transform="translate(-153.46 -42.42)"/>
            <path class="cls-2" d="M665,644a153.07,153.07,0,0,1,24,8c6.57,2.83,10.89,5.26,19,8a119,119,0,0,0,15,4"
                  transform="translate(-153.46 -42.42)"/>
            <path class="cls-9"
                  d="M361,570c-.22-2.5,4.64-3.22,9-9,2.19-2.91,3.13-5.61,5-11,2.93-8.45,1.89-10.07,4-12,4.33-4,13-1,19,1,8.88,3,14.21,7.74,19,12,5.87,5.22,6.7,7.71,7,9,.39,1.66.44,3.61-3,13-3.85,10.52-4.91,10.78-6,16-1.24,5.94-.39,8-2,9-2.78,1.64-7-3.71-17-10a146.8,146.8,0,0,0-26-13C365.27,573.42,361.15,572.34,361,570Z"
                  transform="translate(-153.46 -42.42)"/>
            <path class="cls-9"
                  d="M250,714c3.61-12.54,12.09-21.08,15-24,5.59-5.63,6.25-4.09,16-13,6.59-6,9.86-10,12-9s.71,5.55,3,14c1.1,4.06,1.61,6.06,3,8,2.14,3,5.81,5.81,7,5,1.49-1-2.34-6.74-5-18-1.64-6.93-3.12-13.55-1-21,.38-1.34.69-2,5-10,5.5-10.16,8.25-15.23,11-20,6.24-10.79,9.36-16.19,11-18,3.42-3.76,10.25-11.28,21-13,8.32-1.33,14.82,1.47,23,5a56.43,56.43,0,0,1,19,13c3,3.21,5.45,5.9,7,10,3.22,8.49,0,16.66-3,25-4.34,11.88-7.9,24-12,36-9.41,27.42-4.62,26.53-11,39-5.53,10.82-7.68,8.65-32,36-13.85,15.58-17.88,21.59-29,29-7.16,4.77-20.37,13.56-28,9-8.75-5.23-4-24.34-8-25-3.15-.52-10,10.82-10,23,0,8.17,3.14,11.77,1,14-3.55,3.69-17.33-.78-25-10-6.88-8.27-7.64-18.88-8-24-.8-11.29,2.31-16.69,0-18-3.44-1.94-15,7.41-20,20-4.05,10.11-2.08,17.68-4,18-2.69.44-10.65-13.75-9-29,.3-2.8,4.54-11.57,13-29,0,0,2-4.17,12-22,4.16-7.44,6.5-11.42,8-11,1.9.53,0,7.35,2,16,2.65,11.42,11,21.09,14,20S245.76,728.65,250,714Z"
                  transform="translate(-153.46 -42.42)"/>
            <path class="cls-9"
                  d="M195,708c2.55,1.23,6.2-9.53,21-20,6.31-4.47,16.8-11.88,31-13,4.19-.33,7.81,0,8-1,.32-1.66-9.67-6.45-20-7-1.84-.1-20.18-.79-32,13C193.59,691,192,706.67,195,708Z"
                  transform="translate(-153.46 -42.42)"/>
            <path class="cls-9"
                  d="M192,661c2.77,2.33,10.31-7.12,24-12,21.45-7.65,40.38,2.19,41,0s-16.73-11.71-37-11c-6.51.23-16.37.72-23,8C192.24,651.25,189.74,659.21,192,661Z"
                  transform="translate(-153.46 -42.42)"/>
            <path class="cls-9"
                  d="M199,627c5.08,2.84,10.12-6.87,25-9,13.12-1.88,24.51,3.48,32,7,16,7.53,24,17.72,26,16,1.79-1.56-3.78-10.71-7-16-5.22-8.58-9.83-16.15-18-23-13.78-11.54-26.18-11.38-26-16,.2-5.24,16.32-8.66,18-9,16.28-3.34,27.2,1.64,29-2,.37-.74,1.07-3.29-9-13a128,128,0,0,0-27-20c-25-13.47-37.34-15-37-19,.37-4.36,15.3-7.32,27-7,4.08.11,19.29.93,36,12,18.45,12.22,25.3,28,27,27s-4.15-17.62-16-33a98.22,98.22,0,0,0-36-29c-11.34-5.29-20.93-9.77-31-6s-14.91,13.69-17,18c-5.14,10.6-4.57,20.74-4,31,.39,6.9,1.14,7.71,3,21,.39,2.76,2.26,16.11,3,28C198.7,613.11,193.61,624.1,199,627Z"
                  transform="translate(-153.46 -42.42)"/>
            <path class="cls-9"
                  d="M594,486c-1.4,1.07,18.1,19,28,51,4,12.78,4,20.14,11,35,3.38,7.18,7.61,16,16,25,1.94,2.09,10.32,8.09,27,20,8.83,6.3,14.79,10.5,24,14,2.2.84,13.74,5.22,15,3,1-1.8-5.28-7-22-21-16.27-13.61-24.4-20.41-25-21-10-9.86-16.31-20.91-29-43-10.88-18.94-10.48-20.78-18-32C608.61,498.68,595.15,485.17,594,486Z"
                  transform="translate(-153.46 -42.42)"/>
            <path class="cls-9"
                  d="M675,670c-.08,1.23,9.73.6,23,6,11.25,4.58,13,8.63,22,10s17.89-1,18-3c.09-1.57-5.38-2.24-20-7-13.92-4.54-15.11-5.93-22-7C685.11,667.4,675,668.83,675,670Z"
                  transform="translate(-153.46 -42.42)"/>
            <path class="cls-9"
                  d="M675,696c1.71-1.35,3.55.43,18,5,12.53,4,18.79,5.94,24,6,15.29.17,22.49-9.59,27-6,3.19,2.54,1.17,8.69-1,23-1,6.57-1.67,14.38-3,30-2,23.25-2,46-2,46,0,9.43.25,17.09-4,26-1.06,2.21-6.32,13.24-13,13-3.33-.12-4.93-3-10-9-13.32-15.85-18.76-15.76-20-23-1.21-7.06,3.59-9.24,6-19,2.49-10.1,0-18.38-5-33C678,713.84,670.68,699.43,675,696Z"
                  transform="translate(-153.46 -42.42)"/>
            <path class="cls-10"
                  d="M252,465c-.73,3.2,17.83,4.93,37,20,19.94,15.68,30.24,37.69,33,44,8.37,19.14,8.4,33.21,15,34,4.78.57,9.42-6.26,14-13,6.14-9,8.22-17.49,10-25,2.8-11.83,4.2-17.74,2-24-2.07-5.9-7.41-10-18-18-10.32-7.78-17.3-13-28-16-5.18-1.43-10.19-1.64-20-2C256.78,463.61,252.3,463.52,252,465Z"
                  transform="translate(-153.46 -42.42)"/>
            <path class="cls-10"
                  d="M529,443c6-3.09,22.86,18.66,27,24,20.55,26.53,30.77,54.16,38,75,8.28,23.88,12.6,39.76,21,70,0,0,24.7,88.9,32,176a21.1,21.1,0,0,1-5,16c-6.17,7.46-14.52,12.7-21,18-6.32,5.18-11.22,9.18-15,16-4.29,7.74-2.12,10.06-7,25a87.45,87.45,0,0,1-8,19c-6.23,10.56-13,15.76-12,17s9.45-5.21,24-8c5.16-1,8.88-1.66,10,0,2.83,4.22-13.53,19.8-19,25-11.16,10.62-22.48,21.4-41,30-19.28,9-39.18,12.22-40,10-.59-1.59,9-5.18,24-16,3.44-2.47,26.15-18.84,24-23-1.78-3.44-19.17,4.14-40,9-35.9,8.38-65.3,4.79-80,3-51.33-6.26-94.59-30.27-93-36,.68-2.46,9.2-.11,29-3a180.8,180.8,0,0,0,35-9c25.48-9.53,46.32-25.4,45-28-.87-1.72-10.73,3.7-30,7-13.62,2.33-40.47,5.07-43-2-1.77-4.93,10-9.88,19-23,10.47-15.27,4-25,10-48,5-19.3,14.06-32.46,22-44,16.51-24,24-21.92,36-42,4.77-8,8.91-22.09,17-50,12.35-42.61,10-41.79,17-60,6.08-15.75,10.17-22.32,17-43,6.35-19.22,7.61-28,8-31,1.6-12.22,1-21.93,0-38C528.32,453.59,525.47,444.87,529,443Z"
                  transform="translate(-153.46 -42.42)"/>
            <path class="cls-10"
                  d="M293,938c-.61,1.7,21.09,13.87,50,21,4.77,1.18,21.92,5.22,58,6,37.32.81,70-2.4,70-4s-38.6-.11-94-9c-23-3.69-36.09-7.14-50-15-21-11.86-35.8-29.21-36-29s29.88,25.58,26,32C314,944.89,293.53,936.46,293,938Z"
                  transform="translate(-153.46 -42.42)"/>
            <path class="cls-10"
                  d="M358,991c.14-1.1,34.22,6.33,92,4,40.56-1.63,61.41-2.47,87-13,39.2-16.13,60.37-43,66-38,3.61,3.2-1.9,17.1-10,27-18.11,22.12-49.13,24.21-64,25C447,1000.44,357.72,992.85,358,991Z"
                  transform="translate(-153.46 -42.42)"/>
            <path class="cls-11"
                  d="M306,1085c4,3.67,11.25-1.23,47-9,15.4-3.35,22.89-4.36,25-1,2.5,4-3.79,12.14-6,15-11.78,15.26-28.5,19.52-28,21,.71,2.11,34-8.48,35-6,.63,1.63-12.73,8.94-27,15-25,10.59-48.32,15.49-48,17,.26,1.22,15.34-2.87,18,2,1.84,3.36-3.28,9-7,14-7.42,9.93-5.94,12.66-18,45-14.32,38.39-21.5,42.77-16,43,24,1,109,4,138,3,5.45-.19,6.59-12.25,9-19,7.28-20.38,3.86-30.67,13-49,1-2,3.33-5.66,8-13,13.13-20.63,17.59-24.65,23-34,5.57-9.61,8-19.41,13-39,7.06-27.9,10.43-42,3-49-5.17-4.87-13.27-4.22-16-4-11.46.92-19,9.28-24,15-14.76,16.87-15,33.31-20,33-4-.25-7.41-11.13-8-20-1-15.51,6.64-23.25,3-28-3.77-4.93-14.91-.36-28,2-37.67,6.78-63.12-24.5-74-6C311,1050,298.62,1078.45,306,1085Z"
                  transform="translate(-153.46 -42.42)"/>
            <path class="cls-11"
                  d="M512,1099c-1.62-.69,5.52-11.47,6-30,.5-19.18-6.59-29.52,0-37,2.8-3.18,7.8-5.53,11-4,8.42,4,1.36,33.54,1,35C524.92,1083.54,514,1099.93,512,1099Z"
                  transform="translate(-153.46 -42.42)"/>
            <path class="cls-11"
                  d="M518,1140c-1.77-2.17,13.43-12.33,23-32,5.61-11.53,7.07-22,10-43,3.29-23.6,2.28-34.64,5-35,3.36-.45,10.14,15.65,12,32,1.39,12.22-.46,20.25,2,21s7.11-7.37,13-18c8.55-15.42,12.82-23.14,13-32s-2.89-12.21,0-16c3.15-4.13,8.25-2.13,22-5,12.37-2.58,14.48-5.51,18-4,8.68,3.71,6.93,26.18,6,37-4.77,55.47-7.16,83.21-16,118-12.67,49.83-15.7,35.2-22,61-.77,3.16-2.09,8.95-7,13-5.72,4.72-11.24,2.9-30,4-18.07,1.06-18.74,3.08-24,1-7.24-2.87-7.14-7.16-20-19-9.65-8.88-14.73-11.09-14-13,1.27-3.31,18-.39,30,3,17,4.8,28.62,11.69,29,11,.66-1.19-34.86-19.4-33-24,1.17-2.89,17.29-1,31,5,8.2,3.58,12,7.06,13,6,1.92-2-6.83-18.11-22-29-14.84-10.65-27.1-10-28-17-.6-4.67,4.68-6.47,12-20,3.35-6.19,7-12.9,5-15C542.1,1126,520.14,1142.75,518,1140Z"
                  transform="translate(-153.46 -42.42)"/>
        </g>
        <g id="Layer_3" data-name="Layer 3">
            <path class="cls-12"
                  d="M1213.45,1104.58c-1.34,5.33-4.33,24-6,44a386.81,386.81,0,0,0-1,53c1.19,20.78,4.27,44.47,6,50.5h425c.19-2.86-2.54-9.4-8-25.5-6.18-18.23-9.27-27.35-13-34-3.36-6-4.25-13.24-8-19-.37-.57-1.65-2.47-1-4s2.63-1.31,4-3,1.11-3.86,1-5c-.36-3.7-2.61-5.13-6-10a46.11,46.11,0,0,1-5-9,31.35,31.35,0,0,1-2-12c-.07-19.42-5.93-47.93-8-58-.68-3.29-1.51-7.35-2-9C1574.48,1013.12,1232.34,1029.35,1213.45,1104.58Z"
                  transform="translate(-153.46 -42.42)"/>
            <path class="cls-2"
                  d="M1607.45,1169c-4.71,2-11.31,4.95-19,9-10,5.29-17.25,10-28,17-5.75,3.76-13.28,8.8-22,15"
                  transform="translate(-153.46 -42.42)"/>
            <path class="cls-2"
                  d="M1234.45,1100.58c.35,3,.83,7.93,1,14,.38,13.42-1.15,18.07-4,46-3.33,32.7-1.1,25-2,30a26.22,26.22,0,0,0,0,10,25.81,25.81,0,0,0,2,6c2.75,6.09,3.34,13.05,4,21,1.14,13.68.13,22.5,1,24.5"
                  transform="translate(-153.46 -42.42)"/>
            <path class="cls-2" d="M1288.45,1093.58c.38,7.29,1,15,2,23q.88,7.24,2,14"
                  transform="translate(-153.46 -42.42)"/>
            <path class="cls-2"
                  d="M1302.45,1102.58c-.69-3.29-1.1-7.43,1-9,3.84-2.87,13.32,4.94,24,12,11.85,7.83,25.23,13.56,52,25,8.47,3.62,21.1,8.72,37,14"
                  transform="translate(-153.46 -42.42)"/>
            <path class="cls-2" d="M1373.45,1110.58a130,130,0,0,0,56,20" transform="translate(-153.46 -42.42)"/>
            <path class="cls-2" d="M1381.45,1147.58a165.56,165.56,0,0,0,66,29" transform="translate(-153.46 -42.42)"/>
            <path class="cls-2" d="M1522.45,1079.58c.89,6.51,1.59,13.53,2,21a258.75,258.75,0,0,1,0,28"
                  transform="translate(-153.46 -42.42)"/>
            <path class="cls-2" d="M1555.45,1085.58a125,125,0,0,1,17,37" transform="translate(-153.46 -42.42)"/>
            <path class="cls-2" d="M1433.45,1246.58a40.45,40.45,0,0,1,24-11" transform="translate(-153.46 -42.42)"/>
            <path class="cls-2" d="M1460.45,1244.58a184.68,184.68,0,0,1,49-5" transform="translate(-153.46 -42.42)"/>
            <path class="cls-2"
                  d="M1191.45,708.58c4-13.27,6.91-24.81,9-34,2.93-12.89,4.57-22.47,5-25,1.38-8.19,2.33-15.31,3-21"
                  transform="translate(-153.46 -42.42)"/>
            <path class="cls-13"
                  d="M1660.45,1189.58c-2.3.81-5.2,9.21-7,26-1.36,12.68-2.5,34-2.5,36.5,0,.5,40.5,0,40.5,0C1703.35,1234.93,1669.27,1186.46,1660.45,1189.58Z"
                  transform="translate(-153.46 -42.42)"/>
            <path class="cls-4"
                  d="M1644.45,1083.58c-4.29,10.87-8,20.39-11,34-2.1,9.52-4.11,18.64-4,31,.08,9.84,1.4,9.27,2,25,.42,11-.14,13.59,2,18,3.22,6.65,9,10,16,14a54.55,54.55,0,0,0,20,7c4.71.58,7.5-1.63,12,0,2.68,1,4.32,2.43,8,6,10.53,10.21,9.58,10.33,12,12,9.1,6.28,21,3.48,23,3,7.9-1.87,12.88-6.21,16-9,13.89-12.41,15.76-29.48,16-32,1.09-11.58-2.4-20.12-7-31-5.44-12.86-9.15-16.17-33-50-15.73-22.31-16.39-24.1-23-32-8.62-10.31-11.92-12.55-18-22-5.33-8.28-6.11-11.7-9-12C1659.73,1044.89,1652.84,1062.32,1644.45,1083.58Z"
                  transform="translate(-153.46 -42.42)"/>
            <path class="cls-14"
                  d="M1612.45,1017.58c-.22,10.59,4,21,13,39,6,12,7,17,11,30,1.17,3.8,6.27,3.11,10,4,12.08,2.88,22-.93,30-4,7.2-2.76,11.54-4.5,14-9,2.62-4.8,1.58-9.95,1-13-2.86-15.12-6-56-8-62-2.63-7.88-2.21-12.3-4-14C1665.38,975.2,1613,993.45,1612.45,1017.58Z"
                  transform="translate(-153.46 -42.42)"/>
            <path class="cls-15"
                  d="M1630.45,591.58a6.41,6.41,0,0,0,.1.75,110.07,110.07,0,0,0-28.1,4.25c-7.55,2.19-20.46,6.86-31,11-12.38,4.86-15.3,6.57-21,7a36,36,0,0,1-15.41-2.35c-6.14-91.13-9.22-165.23,6.41-167.65.56-.09,10,5.27,29,16,12.9,7.3,17.72,10.11,23,16,2.32,2.59,5.54,6.67,11,18a210.43,210.43,0,0,1,13,34A539.41,539.41,0,0,1,1630.45,591.58Z"
                  transform="translate(-153.46 -42.42)"/>
            <path class="cls-14"
                  d="M1693.45,1003.58c.52,1.18,2.16,4.56,1,8-.81,2.4-2.74,4.16-6,6a42.75,42.75,0,0,1-16,5,230.37,230.37,0,0,0-23,4c-10.72,2.63-11.47,4.64-23,7-9.56,2-13.55,1.49-16,1a31.69,31.69,0,0,1-14-7c-22.33-18.24-30-52-30-52-3.56-15.68-6.63-29.22-9.21-41.08,11,2,20.5,3.26,28.21,4.08a265.07,265.07,0,0,0,35,2,254.62,254.62,0,0,0,34-3c9.31-1.31,21-3.33,34.53-6.58,1,12.07,2,27.47,2.47,44.58C1692,991.69,1690.6,997.18,1693.45,1003.58Z"
                  transform="translate(-153.46 -42.42)"/>
            <path class="cls-16"
                  d="M1665.45,808.58c3.42,12,6.34,23.22,8.8,33.44a155.1,155.1,0,0,1-15.8,2.56c-8.25.91-19.8,2.17-34,0-17.62-2.69-19.14-7.59-38-10-7.63-1-9.29-.42-23-1-5.74-.24-11.06-.58-15.9-1-.39-26.93-1.73-56.54-3.51-87,9.63-.1,17.88-.54,24.41-1,15.77-1.16,25-1.83,37-5,9-2.37,10.93-3.85,28-10,4-1.45,7.83-2.78,11.36-4,3.08,11.33,3.64,13,3.64,13a83.56,83.56,0,0,1,4,14,86.42,86.42,0,0,1,1,9c.73,7.87,2.53,12.87,5,21C1661.06,791.17,1663,799.95,1665.45,808.58Z"
                  transform="translate(-153.46 -42.42)"/>
            <path class="cls-17"
                  d="M1686.45,904.58s1.25,10.17,2.53,26.42c-13.51,3.25-25.22,5.27-34.53,6.58a254.62,254.62,0,0,1-34,3,265.07,265.07,0,0,1-35-2c-7.71-.82-17.25-2.08-28.21-4.08-6.84-31.52-10.18-51.22-9.79-67.92.25-10.69.26-22.07.1-34,4.84.38,10.16.72,15.9,1,13.71.58,15.37,0,23,1,18.86,2.41,20.38,7.31,38,10,14.2,2.17,25.75.91,34,0a155.1,155.1,0,0,0,15.8-2.56C1683.47,880.22,1686.45,904.58,1686.45,904.58Z"
                  transform="translate(-153.46 -42.42)"/>
            <path class="cls-18"
                  d="M1643.45,720.58q.75,2.79,1.36,5c-3.53,1.2-7.33,2.53-11.36,4-17.07,6.15-19,7.63-28,10-12,3.17-21.23,3.84-37,5-6.53.48-14.78.92-24.41,1-2.6-44.46-6.13-90.77-9-133.37a36,36,0,0,0,15.41,2.35c5.7-.43,8.62-2.14,21-7,10.54-4.14,23.45-8.81,31-11a110.07,110.07,0,0,1,28.1-4.25c3.68,26.8,7.38,54,7.9,84.25C1638.52,680.49,1638.86,703.53,1643.45,720.58Z"
                  transform="translate(-153.46 -42.42)"/>
            <path class="cls-4"
                  d="M1293.45,389.58c-6.32,4.36-12.76,8.53-19,13-5.69,4.08-9,6.65-15,10-5.76,3.24-6.53,3-7,4-3.78,8,36.57,43.83,89,61,24.22,7.93,54.54,17.86,87,5,7.57-3,30.62-12.52,44-37,4.93-9,12.9-23.6,9-37C1467.5,360.63,1315.26,374.52,1293.45,389.58Z"
                  transform="translate(-153.46 -42.42)"/>
            <path class="cls-19"
                  d="M1609.45,1029.58c0,3.94-1.65,6.91-4,11-5.14,9-9,13-11,14,2,9,1,15,2,21-2,3.41-6.77,3.94-24,4-19.8.06-29.71.1-38-1-15.52-2-23-5-32-7-18.34-4.14-30.19-1.67-64,3-60,8.28-90,12.42-108,12-10.44-.24-26.09-1.13-47,3-5.31,1-14.87,4-34,10-27.77,8.66-34.16,11.85-38,18-1.17,1.88-3.53,6.32-6,6-2.12-.28-3.74-4-4-7-.17-2,.31-2.81,1-6a37.52,37.52,0,0,0,1-10c-5-2-9.69-2.59-12-7-1.55-3,.46-6.59,2-10,0,0,2.51-5.56,6-25,3.9-21.75-6.39-42.14-2-52,.74-1.66,1.38-3.36,2.1-5,12.36-.94,23.1-2,31.9-3,30-3.32,45.16-5.08,52-10,8.23-5.92,13.15-7.61,23-11a17.47,17.47,0,0,1,9-1c5.7,1,9.23,5.12,11,7,9.7,10.29,23.84,14.47,29,16,12.55,3.72,13.07-1.16,30,3,4.15,1,8,2.27,13,1,6-1.55,7.73-5.32,13-8,7.07-3.59,14.13-1.94,20-1,14.69,2.36,27.17,1.17,50-1,16.75-1.59,29.8-5,41-8,16.84-4.45,25.26-6.67,33-10,6-2.56,10.62-5,18-6A46.89,46.89,0,0,1,1588,970c1.43,7.26,3,14.27,5.41,22.58,3.34,11.67,5,17.5,8,22C1605.33,1020.42,1609.37,1023.61,1609.45,1029.58Z"
                  transform="translate(-153.46 -42.42)"/>
            <path class="cls-20"
                  d="M1586.45,647.58a502.38,502.38,0,0,1-2.36,72.39,392.09,392.09,0,0,1-49.64,14.61c-16.08,3.6-40.55,8-82.5,9.5-62.23,2.24-64.81-5.41-122-4-55.69,1.37-94.38,9.63-105,12a488.51,488.51,0,0,0-61.31,18c-3.58-36.91-7.28-82.46-19.19-153.46-.23-1.38-.47-2.76-.7-4.14a519.64,519.64,0,0,0,64.7,6.14c40.28,1.28,71.75-2.43,101-6,35.47-4.33,32.91-6.15,93-15,47.2-7,69.83-8.93,88-10,24.52-1.45,45.79-1.55,70,1,7.35.78,13.91,1.68,19.48,2.56C1583,606.59,1585.57,619.94,1586.45,647.58Z"
                  transform="translate(-153.46 -42.42)"/>
            <path class="cls-21"
                  d="M1584.45,950.58c1.32,7.22,2.4,13.41,3.59,19.42a46.89,46.89,0,0,0-14.59-.42c-7.38,1-12,3.44-18,6-7.74,3.33-16.16,5.55-33,10-11.2,3-24.25,6.41-41,8-22.83,2.17-35.31,3.36-50,1-5.87-.94-12.93-2.59-20,1-5.27,2.68-7,6.45-13,8-5,1.27-8.85,0-13-1-16.93-4.16-17.45.72-30-3-5.16-1.53-19.3-5.71-29-16-1.77-1.88-5.3-6-11-7a17.47,17.47,0,0,0-9,1c-9.85,3.39-14.77,5.08-23,11-6.84,4.92-22,6.68-52,10-8.8,1-19.54,2-31.9,3,.29-.66.58-1.32.9-2,2-4.17,3.28-5.68,3-8s-1.72-3.39-3-5c-2.49-3.12-3.17-6.51-4-14-2.14-19.47-3.22-29.2-3-35,.37-9.81-1.29-21.82-3.74-33.91,21-2.17,49.43-5.12,83.24-8.59,89.61-9.2,95.71-9.65,109-9,27,1.33,40.81,5.1,66,0,9.94-2,31-7.3,32.5-3.5.85,2.13-5.06,5.52-4,8s7.12.78,19,1c9.81.18,10.59,1.37,18,1,1.6-.08,6.38-.38,17-3a230.71,230.71,0,0,0,28-9c4.11-1.58,8.9-3.54,14.24-5.93,2.42,26,4.76,39.93,4.76,39.93C1580,929.7,1579.81,925.18,1584.45,950.58Z"
                  transform="translate(-153.46 -42.42)"/>
            <path class="cls-22"
                  d="M1584.09,720q-.3,2.78-.64,5.61c-2.92,24.3-7.06,58.72-11,74a96.66,96.66,0,0,0-3,30c.94,17.64,2.1,32.72,3.24,45.07-5.34,2.39-10.13,4.35-14.24,5.93a230.71,230.71,0,0,1-28,9c-10.62,2.62-15.4,2.92-17,3-7.41.37-8.19-.82-18-1-11.88-.22-18,1.38-19-1s4.85-5.87,4-8c-1.51-3.8-22.56,1.49-32.5,3.5-25.19,5.1-39,1.33-66,0-13.29-.65-19.39-.2-109,9-33.81,3.47-62.28,6.42-83.24,8.59-3.72-18.36-9.25-36.89-12.26-48.09-7.82-29.14-10.78-54.24-13.81-85.54A488.51,488.51,0,0,1,1225,752c10.62-2.37,49.31-10.63,105-12,57.19-1.41,59.77,6.24,122,4,42-1.51,66.42-5.9,82.5-9.5A392.09,392.09,0,0,0,1584.09,720Z"
                  transform="translate(-153.46 -42.42)"/>
            <path class="cls-23"
                  d="M1580,591.14c-5.57-.88-12.13-1.78-19.48-2.56-24.21-2.55-45.48-2.45-70-1-18.17,1.07-40.8,3-88,10-60.09,8.85-57.53,10.67-93,15-29.25,3.57-60.72,7.28-101,6a519.64,519.64,0,0,1-64.7-6.14c-14.21-83.67-32.1-160-7.3-172.86,4.66-2.41,7.1-.65,33-7,11.66-2.86,12.38-3.51,39-11,29.9-8.41,29.18-8.49,34-10,16-5,37-13,33-10s-1.33,16.85,15,35c18,20,50.17,29.1,59,31,29.14,6.26,51.84.56,66-3,17.23-4.33,28.49-7.34,37-18,11.82-14.82-.08-33,9-39,8-5.23,23.34,3.45,42,14,12.58,7.12,13.73,8.56,25,15,14,8,17,9,24,14,8.6,6.14,8.51,14,10,26,2.22,17.78,7.57,35.14,9,53A473.82,473.82,0,0,0,1580,591.14Z"
                  transform="translate(-153.46 -42.42)"/>
            <path class="cls-2"
                  d="M1199.55,1001.55c12.36-.94,23.1-2,31.9-3,30-3.32,45.16-5.08,52-10,8.23-5.92,13.15-7.61,23-11a17.47,17.47,0,0,1,9-1c5.7,1,9.23,5.12,11,7,9.7,10.29,23.84,14.47,29,16,12.55,3.72,13.07-1.16,30,3,4.15,1,8,2.27,13,1,6-1.55,7.73-5.32,13-8,7.07-3.59,14.13-1.94,20-1,14.69,2.36,27.17,1.17,50-1,16.75-1.59,29.8-5,41-8,16.84-4.45,25.26-6.67,33-10,6-2.56,10.62-5,18-6A46.89,46.89,0,0,1,1588,970"
                  transform="translate(-153.46 -42.42)"/>
            <path class="cls-2"
                  d="M1117.45,607.58c8,1.68,16.76,3.35,26.3,4.86a519.64,519.64,0,0,0,64.7,6.14c40.28,1.28,71.75-2.43,101-6,35.47-4.33,32.91-6.15,93-15,47.2-7,69.83-8.93,88-10,24.52-1.45,45.79-1.55,70,1,7.35.78,13.91,1.68,19.48,2.56,3.18.5,6,1,8.52,1.44"
                  transform="translate(-153.46 -42.42)"/>
            <path class="cls-2"
                  d="M1143.75,612.44c-14.21-83.67-32.1-160-7.3-172.86,4.66-2.41,7.1-.65,33-7,11.66-2.86,12.38-3.51,39-11,29.9-8.41,29.18-8.49,34-10,16-5,37-13,33-10s-1.33,16.85,15,35c18,20,50.17,29.1,59,31,29.14,6.26,51.84.56,66-3,17.23-4.33,28.49-7.34,37-18,11.82-14.82-.08-33,9-39,8-5.23,23.34,3.45,42,14,12.58,7.12,13.73,8.56,25,15,14,8,17,9,24,14,8.6,6.14,8.51,14,10,26,2.22,17.78,7.57,35.14,9,53a473.81,473.81,0,0,0,8.53,61.56c3,15.45,5.64,28.8,6.52,56.44a502.38,502.38,0,0,1-2.36,72.39q-.3,2.78-.64,5.61c-2.92,24.3-7.06,58.72-11,74a96.66,96.66,0,0,0-3,30c.94,17.64,2.1,32.72,3.24,45.07,2.42,26,4.76,39.93,4.76,39.93,2.55,15.12,2.36,10.6,7,36,1.32,7.22,2.4,13.41,3.59,19.42,1.43,7.26,3,14.27,5.41,22.58,3.34,11.67,5,17.5,8,22,3.88,5.84,7.92,9,8,15,0,3.94-1.65,6.91-4,11-5.14,9-9,13-11,14,2,9,1,15,2,21-2,3.41-6.77,3.94-24,4-19.8.06-29.71.1-38-1-15.52-2-23-5-32-7-18.34-4.14-30.19-1.67-64,3-60,8.28-90,12.42-108,12-10.44-.24-26.09-1.13-47,3-5.31,1-14.87,4-34,10-27.77,8.66-34.16,11.85-38,18-1.17,1.88-3.53,6.32-6,6-2.12-.28-3.74-4-4-7-.17-2,.31-2.81,1-6a37.52,37.52,0,0,0,1-10c-5-2-9.69-2.59-12-7-1.55-3,.46-6.59,2-10,0,0,2.51-5.56,6-25,3.9-21.75-6.39-42.14-2-52,.74-1.66,1.38-3.36,2.1-5,.29-.66.58-1.32.9-2,2-4.17,3.28-5.68,3-8s-1.72-3.39-3-5c-2.49-3.12-3.17-6.51-4-14-2.14-19.47-3.22-29.2-3-35,.37-9.81-1.29-21.82-3.74-33.91-3.72-18.36-9.25-36.89-12.26-48.09-7.82-29.14-10.78-54.24-13.81-85.54-3.58-36.91-7.28-82.46-19.19-153.46C1144.22,615.2,1144,613.82,1143.75,612.44Z"
                  transform="translate(-153.46 -42.42)"/>
            <path class="cls-2"
                  d="M1163.64,770A488.51,488.51,0,0,1,1225,752c10.62-2.37,49.31-10.63,105-12,57.19-1.41,59.77,6.24,122,4,42-1.51,66.42-5.9,82.5-9.5a392.08,392.08,0,0,0,49.64-14.61"
                  transform="translate(-153.46 -42.42)"/>
            <path class="cls-2"
                  d="M1189.71,903.67c21-2.17,49.43-5.12,83.24-8.59,89.61-9.2,95.71-9.65,109-9,27,1.33,40.81,5.1,66,0,9.94-2,31-7.3,32.5-3.5.85,2.13-5.06,5.52-4,8s7.12.78,19,1c9.81.18,10.59,1.37,18,1,1.6-.08,6.38-.38,17-3a230.71,230.71,0,0,0,28-9c4.11-1.58,8.9-3.54,14.24-5.93"
                  transform="translate(-153.46 -42.42)"/>
            <path class="cls-18"
                  d="M1191.91,622.75c.3,15.18.1,25.74-1.46,38.83-2,16.78-4,19.48-5,36-.48,8.09-.44,15-2,26,0,0-1.13,7.94-3.17,16.64-3-1.55-6.32-3.11-9.83-4.64-10.14-4.41-30.07-12.86-57-14-16-.68-34.74-1.47-55,9a85,85,0,0,0-16.93,11.55c1.33-6.32,3.25-13.54,5.93-23.55,17.19-64.21,18.26-67.13,21-80,.85-4,4.81-22.78,8.56-48a64.45,64.45,0,0,0,6.44,6c10.71,8.67,21.17,11.63,41,17a245.65,245.65,0,0,0,33,7A235,235,0,0,0,1191.91,622.75Z"
                  transform="translate(-153.46 -42.42)"/>
            <path class="cls-16"
                  d="M1180.28,740.22c-.27,1.11-.54,2.24-.83,3.36-5.14,19.86-39.63,99.25-90,100-3,0-23.62.06-36-14-5.3-6-6.86-12.34-10-25a151,151,0,0,1-4-49,112.67,112.67,0,0,1,2.07-13.45,85,85,0,0,1,16.93-11.55c20.26-10.47,39-9.68,55-9,26.93,1.14,46.86,9.59,57,14C1174,737.11,1177.24,738.67,1180.28,740.22Z"
                  transform="translate(-153.46 -42.42)"/>
            <path class="cls-15"
                  d="M1191.91,622.75a235,235,0,0,1-34.46-2.17,245.65,245.65,0,0,1-33-7c-19.83-5.37-30.29-8.33-41-17a64.44,64.44,0,0,1-6.44-6c.14-1,.29-2,.44-3,2.88-19.91,2.44-22,5-37,2.66-15.59,5.64-32.62,13-53,6.9-19.1,11.07-30.25,22-41,3-3,21.9-21.54,37-16,7.62,2.79,11.35,10.64,15,20,13,33.31,17.08,66.2,20,107,1.53,21.42,1.9,33.33,2,37C1191.65,611.43,1191.81,617.38,1191.91,622.75Z"
                  transform="translate(-153.46 -42.42)"/>
            <path class="cls-24"
                  d="M1668.45,1174.58c-.49-3.7.91-6.72,2-9,1.38-2.89,4.37-9.13,9-10,1.57-.29,6.1-.48,14,10,8.58,11.39,11.81,23,17,50,5.55,28.89,4,31.5,4,36.5H1683c0-3-.16-2.22-.5-11.5-.07-1.89-.71-7-2-17-2.9-22.66-3.49-26.3-5-31-1.82-5.64-2.72-8.46-4-11C1669.84,1178.37,1668.79,1177.19,1668.45,1174.58Z"
                  transform="translate(-153.46 -42.42)"/>
            <path class="cls-19"
                  d="M1278.45,815.58c0,11.93-3.76,18.13-5,20-1.86,2.82-3.62,4.35-11,10-12.22,9.36-20.26,15-26,19-12.8,8.94-14.51,10-18,11-6.69,1.89-12,1.23-21,0-14.29-2-16.86-5.1-32-7-5.88-.74-10.52-.89-14-1h-2.15c-9.28-7-14.49-15.4-17.85-21s-8.29-13.86-10-26a61.22,61.22,0,0,1,0-17,65.48,65.48,0,0,1,12-29c3.77-5.4,15.84-22.14,39-29a70.67,70.67,0,0,1,30.45-2.07,9.86,9.86,0,0,1,.55,1.07,9.37,9.37,0,0,0,3,4c2.7,2,5.94,1.76,12,1,12-1.51,12.81-2.32,17-2a26.12,26.12,0,0,1,11,3c6.63,3.74,9.4,10.31,11,14C1271.4,796.79,1278.44,799.29,1278.45,815.58Z"
                  transform="translate(-153.46 -42.42)"/>
            <path class="cls-21"
                  d="M1202.9,743.51a70.67,70.67,0,0,0-30.45,2.07c-23.16,6.86-35.23,23.6-39,29a65.48,65.48,0,0,0-12,29,61.22,61.22,0,0,0,0,17c1.71,12.14,6.67,20.5,10,26s8.57,13.93,17.85,21c-10.64-.2-17.37.7-22.85,1a110.8,110.8,0,0,1-12,.06c-4.27-1.48-8-2.87-11-4.06-13.49-5.22-17-7.54-19-9a55.73,55.73,0,0,1-14-15,60.47,60.47,0,0,1-10-26c-2.07-16.3,3.69-28.81,7-36a88.31,88.31,0,0,1,26-32C1114.57,730.3,1137,728,1148,727a117.5,117.5,0,0,1,30.6,1.33C1186.08,731.28,1199,736.95,1202.9,743.51Z"
                  transform="translate(-153.46 -42.42)"/>
            <path class="cls-22"
                  d="M1173.45,726.58c.84.28,2.7.91,5.1,1.83A117.5,117.5,0,0,0,1148,727c-11,1-33.38,3.22-54.5,19.5a88.31,88.31,0,0,0-26,32c-3.31,7.19-9.07,19.7-7,36a60.47,60.47,0,0,0,10,26,55.73,55.73,0,0,0,14,15c2,1.46,5.51,3.78,19,9,3.07,1.19,6.77,2.58,11,4.06a95.1,95.1,0,0,1-27-5.06c-5.29-1.9-20.32-7.52-32-22-18.32-22.72-17.86-54.18-9-75a76.72,76.72,0,0,1,11-18,82.74,82.74,0,0,1,27-21c15.77-7.77,29.7-8.54,40-9C1146.59,717.58,1162.64,723,1173.45,726.58Z"
                  transform="translate(-153.46 -42.42)"/>
            <path class="cls-2"
                  d="M1114.49,868.64a95.1,95.1,0,0,1-27-5.06c-5.29-1.9-20.32-7.52-32-22-18.32-22.72-17.86-54.18-9-75a76.72,76.72,0,0,1,11-18,82.74,82.74,0,0,1,27-21c15.77-7.77,29.7-8.54,40-9,22.14-1,38.19,4.38,49,8,.84.28,2.7.91,5.1,1.83,7.53,2.87,20.45,8.54,24.35,15.1a9.86,9.86,0,0,1,.55,1.07,9.37,9.37,0,0,0,3,4c2.7,2,5.94,1.76,12,1,12-1.51,12.81-2.32,17-2a26.12,26.12,0,0,1,11,3c6.63,3.74,9.4,10.31,11,14,14,32.21,21,34.71,21,51,0,11.93-3.76,18.13-5,20-1.86,2.82-3.62,4.35-11,10-12.22,9.36-20.26,15-26,19-12.8,8.94-14.51,10-18,11-6.69,1.89-12,1.23-21,0-14.29-2-16.86-5.1-32-7-5.88-.74-10.52-.89-14-1h-2.15c-10.64-.2-17.37.7-22.85,1A110.8,110.8,0,0,1,1114.49,868.64Z"
                  transform="translate(-153.46 -42.42)"/>
            <path class="cls-2"
                  d="M1202.9,743.51a70.67,70.67,0,0,0-30.45,2.07c-23.16,6.86-35.23,23.6-39,29a65.48,65.48,0,0,0-12,29,61.22,61.22,0,0,0,0,17c1.71,12.14,6.67,20.5,10,26s8.57,13.93,17.85,21"
                  transform="translate(-153.46 -42.42)"/>
            <path class="cls-2"
                  d="M1178.55,728.41A117.5,117.5,0,0,0,1148,727c-11,1-33.38,3.22-54.5,19.5a88.31,88.31,0,0,0-26,32c-3.31,7.19-9.07,19.7-7,36a60.47,60.47,0,0,0,10,26,55.73,55.73,0,0,0,14,15c2,1.46,5.51,3.78,19,9,3.07,1.19,6.77,2.58,11,4.06"
                  transform="translate(-153.46 -42.42)"/>
            <path class="cls-2" d="M1147.45,770.58a64.86,64.86,0,0,1,21-15,65.72,65.72,0,0,1,35-5"
                  transform="translate(-153.46 -42.42)"/>
            <path class="cls-4"
                  d="M1252.45,785.58c-2.94-3,.48-10.92,7-26a93.49,93.49,0,0,1,11-20c6.4-8.68,8.92-8.57,14-17,4.27-7.09,4-9.69,8-13,4.65-3.86,10-4.43,16-5,10.3-1,18.57,1,27,3,10.91,2.64,12,4.39,20,5,6.2.48,8.17-.37,13,1,2.55.73,11.54,3.29,14,10,2.36,6.44-2.13,14.5-7,19-10.77,10-32,10.49-44,8-2.5-.52-8.92-2.06-15,1a18,18,0,0,0-6,5C1301.29,767.83,1259.61,792.89,1252.45,785.58Z"
                  transform="translate(-153.46 -42.42)"/>
            <path class="cls-25"
                  d="M1308.45,765.58l42.72-49.7a20.76,20.76,0,0,1,15.9-7.23l105,.82a6.23,6.23,0,0,1,4.68,10.28l-39.28,45.83-90,32Z"
                  transform="translate(-153.46 -42.42)"/>
            <path class="cls-4"
                  d="M1322.45,738.58c2.16,2.11-2.8,7.47,0,16a20,20,0,0,0,5,8c2.17,2.1,4.72,3.56,9,5,7.09,2.39,9.06,1.41,17,3,10.56,2.11,12.81,5,20,4a30,30,0,0,0,7-2c9.61-3.57,14-7.54,20-11,3.54-2.06,14-8,27-8,6.09,0,14.2,0,20,6,7.25,7.52,5.27,18.63,5,20-.39,2-1.73,7.5-8,14-8.64,9-19.53,12.49-31,15-19.55,4.28-34.93,7.65-56,4-8.76-1.52-45.9-8-61-35-4.73-8.47-4.52-14-4-17C1295.26,744.23,1318.61,734.83,1322.45,738.58Z"
                  transform="translate(-153.46 -42.42)"/>
            <path class="cls-4"
                  d="M1257.45,777.58a24.22,24.22,0,0,0-4,14c.19,7.93,4.29,13.45,7,17,8.92,11.68,21.57,16,31,19,5.89,1.91,12.59,2.94,26,5,23.39,3.6,23.41,2,38,5,12.31,2.55,15,4.26,23,4s13.72-2.2,22-5c7.21-2.44,16.39-5.62,26-13,5.82-4.46,9.2-7.13,11-12,2.58-7,.95-15.83-3-21-9.76-12.81-30.88.65-75-4-25.42-2.68-38.13-4-52-11-8.41-4.23-16.33-9.81-28-9C1276.74,766.77,1264.21,767.64,1257.45,777.58Z"
                  transform="translate(-153.46 -42.42)"/>
            <path class="cls-14"
                  d="M1260.45,756.58c.76-1.14-5.52-.64-10,1a45.5,45.5,0,0,0-25,23c-1.74,3.78-6.36,14.22-3,27a37.55,37.55,0,0,0,12,19,39,39,0,0,0,17,8,48.39,48.39,0,0,0,14,1,55.56,55.56,0,0,0,12-2c6.94-2,13.83-6,12-7-7-4-14.66-4.48-23-15C1251.45,792.65,1256.45,762.58,1260.45,756.58Z"
                  transform="translate(-153.46 -42.42)"/>
            <path class="cls-2"
                  d="M1358.45,1039.58c19.41,2.25,35.18,3.38,46,4,13.91.79,21.87.87,38,2,14.11,1,25.58,2.17,33,3"
                  transform="translate(-153.46 -42.42)"/>
            <path class="cls-2"
                  d="M1590.45,1054.58c-5.46.93-13.79,2.18-24,3s-21.18,1.13-61-1c-25-1.34-28.29-1.88-41-2-15.22-.15-27.71.45-36,1"
                  transform="translate(-153.46 -42.42)"/>
            <path class="cls-2"
                  d="M1205.45,1098.58a146.41,146.41,0,0,0,19,0c7.4-.48,17.17-1.18,29-5a100.45,100.45,0,0,0,20-9"
                  transform="translate(-153.46 -42.42)"/>
            <path class="cls-2"
                  d="M1508.45,934.58a236.14,236.14,0,0,1-21,25,232.52,232.52,0,0,1-27,24c-18.85,14.2-32.58,19.77-32,21,.65,1.39,18.46-5,35-13,7.15-3.45,12.95-6.65,17-9"
                  transform="translate(-153.46 -42.42)"/>
            <path class="cls-2"
                  d="M1295.45,1029.58a302,302,0,0,0,63-11,323.72,323.72,0,0,0,75-33,335.37,335.37,0,0,0,35-24"
                  transform="translate(-153.46 -42.42)"/>
            <path class="cls-2"
                  d="M1569.45,795.58a190.29,190.29,0,0,1-9,24,203.71,203.71,0,0,1-17,30,266.49,266.49,0,0,1-24,31"
                  transform="translate(-153.46 -42.42)"/>
            <path class="cls-2"
                  d="M1209.45,1014.58a198.65,198.65,0,0,0,47-13c12.8-5.34,36.75-17,58-29a101.11,101.11,0,0,1,23-10c9.67-2.79,15.14-2.71,23-4,13.13-2.16,22-6.36,36-13,23.06-10.93,38.62-23.36,53-35a444.19,444.19,0,0,0,35-32c9.21-9.13,16.66-17.11,22-23"
                  transform="translate(-153.46 -42.42)"/>
            <path class="cls-2"
                  d="M1587.45,844.58a72.94,72.94,0,0,0,17,11,78.49,78.49,0,0,0,20,6,80.91,80.91,0,0,0,10,1"
                  transform="translate(-153.46 -42.42)"/>
            <path class="cls-2" d="M1565.45,805.58a91.16,91.16,0,0,0,21,14,77.08,77.08,0,0,0,27,8,72.7,72.7,0,0,0,14,0"
                  transform="translate(-153.46 -42.42)"/>
            <path class="cls-2" d="M1635.45,751.58a113.44,113.44,0,0,1-18,29" transform="translate(-153.46 -42.42)"/>
            <path class="cls-2"
                  d="M1094.45,694.58a57.83,57.83,0,0,1,24-5,56.56,56.56,0,0,1,25,6c8.46,4.37,13.29,9.75,18,15,2.55,2.84,7,7.76,6,9-1.12,1.44-8.14-3.81-20-8a91.15,91.15,0,0,0-24-5,83.48,83.48,0,0,0-28,3"
                  transform="translate(-153.46 -42.42)"/>
            <path class="cls-2" d="M1140.45,679.58a32.66,32.66,0,0,1,19,7c10.61,8.5,11.82,20.78,12,23"
                  transform="translate(-153.46 -42.42)"/>
            <path class="cls-6"
                  d="M1184.45,218.58c.18,0-1.92,5.81,1,11,3.28,5.82,10.67,7,11,7,8.87,1.23,16-6,19-9a45.21,45.21,0,0,0,11-19c6.57-22.35,22-44.44,33-60,16.5-23.39,39.38-33.48,61-43,7-3.08,42.22-18.1,90-16a201.8,201.8,0,0,1,58,11c12.24,4.35,32.5,11.76,53,29,31,26,42.64,57.83,48,73,1.07,3,14.32,41.4,10,72-3.59,25.4-5,30-5,30a84.52,84.52,0,0,0-4,21c-.27,4.78,0,8.83,2,13a18.21,18.21,0,0,0,7,8,18.42,18.42,0,0,0,13,2c4.54-1.11,6.12-3.63,7-3,2,1.4-4.08,15-13,27-6,8.08-11.73,15.53-22,20a55.14,55.14,0,0,1-16,4c-9.19.82-14.63-1.17-15,0-.48,1.52,7.92,7.47,18,8,7.37.39,12.33-2.28,13-1,.8,1.53-5.43,6.87-12,11-7,4.38-19,10.34-47,13-23.55,2.24-29.13-.64-46,4-9.58,2.63-18,6-18,6-11.61,4.64-14.09,7.19-22,10a73.69,73.69,0,0,1-26,4c-16.85-.12-29.28-5.54-37-9-12.33-5.53-20.85-12.16-27-17-10.27-8.09-9.15-9.33-18-16-9.6-7.24-17.95-11.08-31-17-15.28-6.93-16-5.75-29-12-11.48-5.53-18.69-9-27-16a91.58,91.58,0,0,1-20-24c-7.09-12.26-10.26-24.39-9-25,.91-.44,3,5.61,10,10a26.69,26.69,0,0,0,14,4c5.92,0,13-2,13-4,0-2.17-8.19-3.29-14-5-25.45-7.46-38.45-35.75-39-37C1165.69,252.56,1184,218.5,1184.45,218.58Z"
                  transform="translate(-153.46 -42.42)"/>
            <path class="cls-7"
                  d="M1189.45,242.58c2.34-1.46,3.87.12,9,0,13-.3,22.82-10.65,30-19,8.88-10.33,11.75-18.45,17-29,0,0,12.75-25.63,32-47,20.12-22.32,43.19-32.41,54-37,41.38-17.58,78.21-13.12,94-11,14.8,2,41.45,5.85,70,24,10,6.36,32,20.68,48,48,2.08,3.55,23.53,41.21,19,87-1.81,18.29-1.22,36.83-4,55a47.61,47.61,0,0,0,2,24c1.64,4.44,4.33,11.7,11,15,7.36,3.64,14.27-.17,16,3,1.39,2.55-2,7-6,12-3.56,4.51-7.23,9.16-14,14-3.35,2.4-20.17,14.42-41,13-5.17-.35-10.41-1.53-11,0s3.61,4.32,9,8c7,4.81,10.67,7.23,16,8s8.84-.6,9,0c.27,1-9.81,5.75-22,8-10,1.85-14.2.71-29,1a197.31,197.31,0,0,0-28,2c-17.49,2.73-32.18,8.35-39,11-10.4,4-12.22,5.68-19,7-11.92,2.32-21.65.2-27-1-25.08-5.62-42.87-22.13-48-27-5.74-5.45-8.92-9.65-17-15-6.13-4.06-11.84-6.62-21-10-20.9-7.7-23.49-6.24-39-12-20.67-7.67-31.43-16-34-18-10.69-8.45-19.53-19-18-21,.85-1.12,4.06,1.44,11,2a36.66,36.66,0,0,0,17-3c3.55-1.41,14.38-5.71,14-10-.34-3.91-9.66-4.39-21-9-1.7-.69-19.57-8.17-31-23C1184.6,274.6,1181.52,247.51,1189.45,242.58Z"
                  transform="translate(-153.46 -42.42)"/>
            <path class="cls-8"
                  d="M1394.45,330.58c-2.17-1.68-6.41,3.23-15,7-12.66,5.55-24.75,4.23-36,3-9.9-1.08-17.79-2-27-7a56.74,56.74,0,0,1-23-24c-2.84-5.48-5.89-11.37-5-19,.32-2.7,1.47-8.52,8-16,12.53-14.35,30.47-18.33,47-22,8.25-1.83,18.84-2.22,40-3,7.08-.26,12.55-.32,18,3,2,1.2,7.37,4.93,12,18,7.29,20.59,3,37,7,38,1.23.3,2.55-1,7-7,12-16.22,12.9-20.82,19-26,2.1-1.78,9.33-7.46,19-8,11.33-.63,19.73,6.14,27,12,11.37,9.17,17.58,23.11,30,51,1.2,2.7,3.26,7.48,2,13-1.46,6.41-6.58,10.24-9,12-9,6.53-19.16,6.25-28,6a72.5,72.5,0,0,1-27-6c-6.67-2.92-13.68-6-20-13-3.34-3.7-5.62-7.55-7-7-1.13.46-.38,3.39,0,12,.57,13.09-1.12,7.63-1,19,0,1.46.06,3-1,4-2.27,2.07-7.53-.57-11-2-16.93-7-29.59-1.13-32-7-.63-1.53.08-2.31,2-8C1393.25,345.28,1397.44,332.9,1394.45,330.58Z"
                  transform="translate(-153.46 -42.42)"/>
            <path class="cls-4"
                  d="M1305.45,290.58a36.06,36.06,0,0,0,3,12c4.92,10.68,15.29,15.71,20,18,7.86,3.82,14.58,4.54,28,6,11.46,1.24,17,.52,20,0,6.11-1.07,11.31-2,16-6,5.24-4.49,6.71-10.17,9-19,2.21-8.53,3.61-13.92,1-19-2-4-5.76-6.26-13-9-8.5-3.22-25-8.26-50-7a59.32,59.32,0,0,0-22,5c-7.84,3.54-10,6.82-11,9C1305,283.86,1305.21,287,1305.45,290.58Z"
                  transform="translate(-153.46 -42.42)"/>
            <path class="cls-7"
                  d="M1341.45,298.58c-1.15,2.32,1.12,6,3,9a19.64,19.64,0,0,0,22,9,22.27,22.27,0,0,0,10-6c2.7-2.53,4-3.8,4-5C1380.17,298.73,1345,291.41,1341.45,298.58Z"
                  transform="translate(-153.46 -42.42)"/>
            <path class="cls-4"
                  d="M1442.45,289.58c-4,3.52-3.62,9.81-3,20s1,16,5,22c5.63,8.39,14.52,11.26,23,14,8.2,2.65,14.53,2.81,22,3,11.66.3,15.75-1.63,18-3,1.76-1.08,5.14-3.14,7-7,5-10.45-5.74-24.14-8-27-5.41-6.86-11.37-10.32-16-13-9.91-5.74-18.46-7.41-27-9C1451.89,287.43,1446.11,286.35,1442.45,289.58Z"
                  transform="translate(-153.46 -42.42)"/>
            <path class="cls-7"
                  d="M1451.45,318.58c-1,1.84.92,4.76,3,8,1.68,2.62,4.16,6.47,9,8s9.15-.23,11-1c2.54-1,9.3-4.5,9-8C1482.86,318.6,1454.35,313,1451.45,318.58Z"
                  transform="translate(-153.46 -42.42)"/>
            <path class="cls-4"
                  d="M1385.45,357.58a11.55,11.55,0,0,0-2,6c-.32,5.46,3.26,9.22,4,10,2.68,2.82,5.65,3.63,11,5,3.59.92,5.23,1,17,2,9.26.8,10.68,1,13,0,3.19-1.34,7.44-4.58,8-9,1-7.51-9.38-13.48-12-15-7.81-4.52-15.23-4.27-23-4C1395,352.8,1388.68,353.1,1385.45,357.58Z"
                  transform="translate(-153.46 -42.42)"/>
            <path class="cls-7"
                  d="M1404.45,359.58c-2,2.8.73,7.54,1,8,3,5,8.8,6.29,12,7,3.79.84,9.45,2.08,12-1,2-2.44,1.22-6.53,0-9-4.15-8.42-17.73-7.2-20-7C1406.88,357.81,1405.33,358.35,1404.45,359.58Z"
                  transform="translate(-153.46 -42.42)"/>
            <path class="cls-2" d="M1397.45,402.58a30.83,30.83,0,0,0,7,7,37,37,0,0,0,25,6,30.36,30.36,0,0,0,7-2"
                  transform="translate(-153.46 -42.42)"/>
            <path class="cls-2"
                  d="M1338.45,380.58a41,41,0,0,0,7,12,43.16,43.16,0,0,0,17,12,44.77,44.77,0,0,0,17,3c4.52,0,8,0,12-2a22.8,22.8,0,0,0,8-7c2.47-3.22,3.54-6.09,5-10a63.4,63.4,0,0,0,3-11"
                  transform="translate(-153.46 -42.42)"/>
            <path class="cls-10"
                  d="M1177,441c1.93-3.29,6.6-1.56,21-4a159,159,0,0,0,31-9c17.35-7.14,24.55-14.56,31-11,3.05,1.69,4.15,4.85,5,7,3.88,9.81,11.25,17.54,26,33s31.91,22.15,47,28,27.82,8.22,43,11c4.71.86,15.21,2.25,36,5,39.43,5.21,31,3.8,39,5,23.8,3.58,36.95,6.82,38,4,.75-2-5.53-4.45-13-14-.79-1-11.07-14.3-8-18,1.21-1.46,4.24-1.13,11,1,14.57,4.6,18.08,8.63,27,12,16.23,6.12,22-.68,33,7,6,4.22,9.09,9.61,11,13,4.81,8.53,4.88,15,7,32,1.83,14.65,1.43,6.69,4,27,.49,3.86,3.52,28,5,49,3,43,5.48,77.71-3,121a334.55,334.55,0,0,1-23,72c-11.12,25.52-24.79,49-27,48-1.08-.47,1.11-6.48,4-23,2.59-14.77,3.88-22.16,2-23-3.13-1.39-12.34,16.15-23,31-22.13,30.82-48.57,47.28-69,60-5.46,3.4-9,5.37-74,33-57.35,24.39-75.69,31.85-79,27-2.45-3.59,12.67-15.15,10-19-1.7-2.45-8.59.92-23,3-10.35,1.49-23.5,2.16-24,0s14.1-4.13,28-17c7.49-6.94,6.14-9.08,12-14,11.72-9.83,24.46-7.4,41-10,11.74-1.85,22.49-7.23,44-18s34.49-20.31,60-39a169.82,169.82,0,0,0,24-21c6.57-7,11.3-12.06,15-20a59.67,59.67,0,0,0,5-29c-.77-10.44-3.88-14.16-3-26,.33-4.44.67-8.46,3-13,3.26-6.34,6.66-6.4,11-13,1.87-2.85,6.67-10.13,5-17-.67-2.75-3-8.1-15-13-15.45-6.32-28.18-4.21-52-2-32.21,3-48.32,4.49-60,2s-17.73-5.91-33-7c-11-.79-20.53-1.47-31,3-10.18,4.35-17.34,11.88-26,21-7.59,8-9.64,12-17,16-1.74.94-14.56,7.7-20,3-3.63-3.13-1.92-9.58-1-18,0-.11-.66-12.41-2-37-1.84-33.82-5.72-69.27-7-81-3.18-29.07-6-48.19-7-55-5.1-34.09-7.78-51.37-14-63C1190,458.77,1173,447.76,1177,441Z"
                  transform="translate(-153.46 -42.42)"/>
            <path class="cls-10"
                  d="M1113,485a45.38,45.38,0,0,1,8-16c3.15-4,9.2-11.65,17-12,10.85-.49,19.12,13.46,23,20,5.66,9.55,8.82,19.77,11,38,2.48,20.69,4.75,39.65,0,64-4.05,20.81-9.72,27.51-9,47a168.67,168.67,0,0,0,3,25c3.48,16.62,8.92,28,7,29-1.67.88-5.22-7.92-15-13-8.18-4.24-16.23-3.57-23-3-18.13,1.52-32.52,10.43-32,12,.3.91,5.45-1.26,14,0,6.89,1,13.23,3.85,13,5-.3,1.5-11.4-1.33-28,1-13.51,1.89-18.4,5.48-21,8-4.41,4.27-7.79,10.85-6,13,2.42,2.9,13.36-3.27,14-2,.36.7-2.72,3.16-13,10-12.21,8.13-13.89,8.67-17,12-7,7.45-8.34,15.23-9,15-.93-.33,3.47-15.11,9-30,7.51-20.22,11.15-24.63,16-27,6.45-3.15,14-2.18,14-3,0-1.06-12.54,0-14-4-1.77-4.91,13.86-14.68,16-16,18.78-11.59,35.21-12.63,35-14s-15.51-3-31,4c-12.43,5.62-17.76,13.58-20,12-2.79-2,4.87-14.69,11-34,3-9.38,4.65-19.58,8-40,3.39-20.66,3.06-22.9,8-56C1102,530,1104.09,515.74,1113,485Z"
                  transform="translate(-153.46 -42.42)"/>
            <path class="cls-10"
                  d="M1055,778c-2.27-8,7.3-17.48,13-23a82.29,82.29,0,0,1,26-18c15.33-6.65,28.38-6.88,43-7,12.61-.1,32.62,1.15,33,5,.26,2.62-8.87,3.45-23,12a102.54,102.54,0,0,0-22,18c-1.69,1.77-19.46,20.41-16,25,.79,1,2.74,1.42,25-6,16.76-5.59,25.26-8.46,31-12,9.16-5.65,9.51-8.41,17-11,5.09-1.76,6.83-1.15,22-2,17.24-1,23.13-2.21,24,0s-4.59,4.4-11,13c-2.79,3.74-7.72,10.36-9,19-1.61,10.84,4,14.73,1,19-3.67,5.2-14.91,3.53-32,1-8.91-1.32-9-2-17-3a168.22,168.22,0,0,0-26-1c-19.66.65-22.67,3.71-33,1-4.78-1.25-13.23-3.47-16-10-2.94-6.93,2.27-14.61,0-16-2.52-1.54-7.82,8.57-16,8-4.77-.33-9.47-4.22-12-8A14.64,14.64,0,0,1,1055,778Z"
                  transform="translate(-153.46 -42.42)"/>
            <path class="cls-10"
                  d="M1232,800c-2-2.63-.61-7,1-12a35.29,35.29,0,0,1,6-11c2.09-2.75,7.32-9,9-8,1.21.69-.9,4.25-1,10-.18,10,6,13.53,4,18C1248.47,802.68,1235.48,804.65,1232,800Z"
                  transform="translate(-153.46 -42.42)"/>
            <path class="cls-10"
                  d="M1286,1009c14.2-6.86,22.67-11,34-18,11.14-6.9,13-9.14,21-13,13.51-6.52,22.33-7,35-10,16.77-4,28.27-9.71,43-17,12.57-6.22,37.66-18.88,62-43,15.42-15.28,21.33-26,23-25,2.69,1.66-7.62,32.74-31,58-18.64,20.15-39.4,29.91-63,41-16.64,7.82-30.94,12.62-47,18-14.23,4.77-26.13,8.19-48,14-37.2,9.88-84.27,22.39-85,20C1229.47,1032.5,1249.79,1026.55,1286,1009Z"
                  transform="translate(-153.46 -42.42)"/>
            <path class="cls-10"
                  d="M1532,923c-5.28,11.51-11.65,25.07-25,38-6.69,6.48-14.54,12.23-14,13,.82,1.17,19.31-12,21-10,1.51,1.81-10.45,15.59-24,27a170.75,170.75,0,0,1-61,33c-29.88,8.52-53,5.67-53,7,0,.43,2.45,1.64,68,4,39.1,1.41,38.84,1,53,2,24.62,1.73,30.3,3.31,47,3,28.15-.52,46.12-5.62,46-7-.1-1.1-11.74,1.17-16-5-1.21-1.75-1.59-3.85-1-12,.68-9.33,1.88-16.32,2-17,1.63-9.63-1.47-16.62-6-30,0,0-5.7-16.85-12-42-8-32.12-5.77-52.81-9-53S1545,894.57,1532,923Z"
                  transform="translate(-153.46 -42.42)"/>
            <path class="cls-10"
                  d="M1247,1069c12-5.37,22.24-6.88,31-8,27.83-3.56,45-4,45-4,33.72-.87,65.6-1.69,66,2,.38,3.49-27.31,10.91-55,13-18.59,1.4-19.76-.91-40,0-38.24,1.72-62.9,11.27-64,8C1229.17,1077.77,1241,1071.74,1247,1069Z"
                  transform="translate(-153.46 -42.42)"/>
            <path class="cls-10"
                  d="M1584,515c-4.66,3.41,4.28,19.79,12,44,6.9,21.64,8.94,37.76,13,70,4.81,38.15,7.21,57.22,4,79-5.55,37.62-21.85,62.15-17,65,3.54,2.08,14.26-9.83,19-16,3.21-4.18,13.48-18.47,16-43,1-9.39,0-12.72-3-39-4-34.94-2.59-31.24-6-58-5-39.53-5.64-27.87-8-51-2-19.12-1.92-30.73-11-41C1597,518.34,1587.43,512.53,1584,515Z"
                  transform="translate(-153.46 -42.42)"/>
            <path class="cls-10"
                  d="M1593,804c-.35,1.84,8.73,6.4,19,8,13.88,2.17,20.2-2.57,25,2,3.89,3.7,3.66,10.53,2,15-3.44,9.25-15.23,10.76-17,11-13.44,1.82-23.71-7.83-25-6-1,1.41,4.41,8.17,12,13,2.1,1.34,9.78,6,27,8,15.94,1.87,23.16-.48,24,2,1.1,3.27-9.72,12.5-23,15-15.93,3-28.35-5-30-2-1.45,2.65,8.75,7.81,16,20,3.94,6.62,4.34,10.83,8,33,4.16,25.17,6.24,37.76,7,41,5,21.18,9.47,28.52,5,38-3.77,8-11.25,11.88-10,14,1.07,1.82,6.71-.87,18-3,16.56-3.13,23-.86,27-6,2.08-2.68,2-5.49,2-12,0-7.06,1.82-4.76,0-31-2.67-38.4.59-36.72-3-47-2.08-6-5.11-12-9-25-3.07-10.21-3.34-13.59-3-17,.81-8,4.42-10.42,3-16-1.73-6.78-8.92-10.45-10-11-7.54-3.84-14.14-1.45-15-4-.69-2,3.48-4,7-9,5.23-7.43,5-15.93,5-18-.23-10.62-6.47-11.7-10-26-2.41-9.75-1.37-16.8-3-17-2.05-.26-1.73,11.11-10,19-6.45,6.15-15.52,7.71-23,9C1599.08,803.78,1593.22,802.64,1593,804Z"
                  transform="translate(-153.46 -42.42)"/>
            <path class="cls-10"
                  d="M1658,1050c-1.92,4.1,1.75,6.05,3,19,.51,5.28.14,7.52,2,9,3,2.42,9.58.82,13-3,1.17-1.31,2.27-3.2,3-12,.88-10.59,1.32-15.89-1-18C1673.2,1040.75,1660.91,1043.76,1658,1050Z"
                  transform="translate(-153.46 -42.42)"/>
            <path class="cls-26"
                  d="M1475,1227c2.08,2.68,21-8.62,30-14,15.35-9.17,17.8-12,34-22,14.63-9.05,21.94-13.58,32-18,17-7.48,28.3-9.17,28-12-.28-2.59-10.1-4.35-18-4-8.37.37-13.52,3.05-14,2s5.5-6.23,13-9c5.47-2,8.84-1.77,9-3,.27-2.12-9.77-3-19-10-4.71-3.59-7.18-7.24-11-13-10.8-16.29-12.87-29.39-15-29s1.68,12.93-3,29c-3.79,13-10.42,19-8,22,3.62,4.48,21.58-5,22-4,.35.8-12.53,5.44-28,15-9.41,5.82-13.52,9.59-16,8-2.81-1.79.25-8,1-21,.4-6.88-.74-14.92-3-31s-3.49-18.77-6-20c-4.34-2.12-9.31,1.9-16,5-4.84,2.24-10.27,3.87-39,4-32.34.15-50.74-1.79-51,0-.24,1.63,15.05,2.43,34,13,8.33,4.65,13.8,9.19,22,16,8.36,6.95,14.07,11.75,13,14-1.35,2.83-12.74.17-22-2-12.81-3-19.22-7.23-20-6-1,1.58,9.79,8.07,23,22,12,12.68,12,16.67,20,21,12.74,6.86,24.38,3,25,6,.68,3.28-12.62,11.23-28,13-11.35,1.31-23.16-.83-48-13-18.29-9-33-18.18-49-29-37.43-25.39-51.33-39.19-55-36-3.4,3,4.1,18.63,13,30,15.72,20.08,35,25.65,34,28-1.1,2.67-28.29.83-50-17-23.07-19-27.25-45.54-34-44-4.2,1-5,11.82-6,25-1.9,25.35,2.51,30.23,2,54-.47,21.86-4.48,31,2,37,4.68,4.32,11.1,3.53,20,3,7.82-.46,30.55.69,76,3,15.37.78,23.19,1.62,36,0a127.81,127.81,0,0,0,26-6c4.13-1.44,7.83-3,20-9,24.61-12.16,33.59-17.77,35-16C1487.89,1211.51,1473,1224.53,1475,1227Z"
                  transform="translate(-153.46 -42.42)"/>
            <path class="cls-26"
                  d="M1514,1223c.33-1.67,11.24,1.79,25-2,6.4-1.76,11.69-5.2,22-12,19.66-13,25.12-20.15,32-18,3.43,1.07,5.28,4,9,10,5.32,8.53,3.67,11.84,9,26,3.37,9,5.59,11.78,4,14-2,2.76-7,.73-17,0-9.06-.67-8.25.76-33,2-14.53.73-19.67.47-20-1-.5-2.24,10.52-5.51,10-8-.44-2.11-8.61-1-20-3S1513.63,1224.7,1514,1223Z"
                  transform="translate(-153.46 -42.42)"/>
            <path class="cls-27"
                  d="M1658,1105c-2.41,2.78-3.3,7.23-5,16-3.35,17.34-1.2,19-4,30-3,11.66-6.19,12.76-7,23-.41,5.12-.81,11.34,3,17,3.92,5.82,11.7,10.16,15,8s-.9-8.39,1-20c1-6.14,3.67-11.09,9-21,5.79-10.76,8.68-16.13,13-18,9.16-4,20.05,3.09,23,5,11.47,7.43,19.43,21.45,21,35,.89,7.72-.48,13.58,3,24,3.08,9.22,3.81,10.7,5,11,4.51,1.15,12.37-8.72,15-19,2.29-9,.14-16.52-3-27a116.58,116.58,0,0,0-12-27c-10.7-17.61-14.45-13.85-26-32-6.08-9.55-9-16.77-16-18-1.7-.3-2.84-.1-12,3C1661.74,1101.58,1659.64,1103.12,1658,1105Z"
                  transform="translate(-153.46 -42.42)"/>
            <path class="cls-27"
                  d="M1269,753c4.48-7.62,7.1-6.21,12-15,6.28-11.26,3.23-15.84,9-22,6-6.36,14.59-7.24,22-8s20.71-.59,22,4c.82,2.91-3.42,7-7,9-6.76,3.76-10.78-.19-18,3s-10.43,10.57-11,12c-.37.94-3.39,8.89,0,17,5.48,13.09,22.65,14.63,22,20-.59,4.84-14.71,5.22-15,10-.19,3.15,5.79,6,10,8,10.67,5.07,19,4.84,19,6s-10.29,3.14-22,3c-11.52-.14-19.95-2.14-32-5-10.1-2.4-11.3-3.36-12-4C1259.73,783.51,1261.85,765.15,1269,753Z"
                  transform="translate(-153.46 -42.42)"/>
            <polyline class="cls-28" points="1180.49 710.66 1210.49 677.66 1308.49 677.66"/>
            <path class="cls-27"
                  d="M380,510c3.76-5.7,2.21-9.49,4-19,2-10.51,4.52-9.37,5-17,.52-8.36-2.3-13.5,0-15,1.76-1.14,4.31,1.26,9,3,5.15,1.91,8.68,1.47,18,1,21.61-1.08,19.86.45,30-1,7.91-1.13,13.25-1.89,20-5a61.15,61.15,0,0,0,16-11c5.77-5.22,8.88-8,11-13,2.53-5.92,2.29-11.71,2-19-.39-9.64-2.2-12.67,0-15,2.89-3,10.32-2.36,15,1,11.63,8.37,5.57,32.81,5,35-4.65,17.92-17.56,29-20,31-10,8.3-19.72,10.77-19,14,.58,2.58,7.3,3.5,12,3,8.74-.93,14.54-7.24,17-10,6.76-7.57,7.23-14.29,9-14,2.36.39,4.38,12.81,0,24-3.58,9.13-10.4,14.87-13,17-8.22,6.76-15.42,8-15,10s7,2.93,13,1c10.17-3.3,13-13.8,15-13,2.59,1,1.52,20.56-10,28-3.08,2-4.31,1.44-13,4-7.16,2.11-8.58,3.15-21,8-24,9.4-27.9,9.11-31,8-3.94-1.41-3.44-3-11-10-8.57-8-17.73-16.47-30-19-10.75-2.22-20,1-21-2C376.54,513.81,378.13,512.84,380,510Z"
                  transform="translate(-153.46 -42.42)"/>
            <path class="cls-27"
                  d="M391,468c-3.76-3-3.26-6.32-6-17-4.23-16.46-7.68-17.27-11-33-3.07-14.55-1.18-18.92,0-21,2.48-4.37,7.38-8.4,13-9,13.75-1.47,24.2,18.42,25,20,6.89,13.5,7,31.25,7,34,0,6-.67,10.12,2,15,4.48,8.19,13.57,9.77,13,12-.48,1.88-7,1.06-22,1C397.38,470,394.36,470.75,391,468Z"
                  transform="translate(-153.46 -42.42)"/>
            <path class="cls-27"
                  d="M618,852c-.21-.77-1.15-4.44,1-10,3.66-9.47,12.38-14.39,17-17,10.1-5.7,19.26-6.54,25-7,9.16-.74,17.16-1.39,23,4,1.11,1,6,5.55,5,10-1.74,7.55-18,3.46-38,14-14,7.36-20.51,16.94-27,14C621,858.74,618.79,855.13,618,852Z"
                  transform="translate(-153.46 -42.42)"/>
            <path class="cls-27"
                  d="M630,894c-2.78-5.51,4.07-13.69,6-16,8.55-10.21,22.83-15.91,37-15,9.62.62,21.84,4.46,22,9,.14,4.15-9.82,7.76-16,10-15.49,5.61-19,1.34-28,7-6.84,4.31-9.55,9.77-15,9A8.09,8.09,0,0,1,630,894Z"
                  transform="translate(-153.46 -42.42)"/>
            <path class="cls-27"
                  d="M638,936c-2.48-1.66-1.06-10.1,3-16,5-7.27,13-9.26,24-12,11.18-2.78,19.73-4.91,26,0,3,2.32,6.31,6.92,5,10-2,4.79-12.5-.55-28,5a148.24,148.24,0,0,0-22,10C642.16,935.28,639.49,937.11,638,936Z"
                  transform="translate(-153.46 -42.42)"/>
            <path class="cls-8"
                  d="M1250.13,212.59c.13,2,.74,11.73,7,15.33,7.9,4.55,20.11-3.26,27-7.67,13-8.35,14-13.63,31.33-30.33,10.24-9.86,17.3-16.65,28.67-23.33a268,268,0,0,1,24-12c6.27-2.76,13.45-5.65,14.33-6,16.38-6.56,19.74-7,19.67-8-.23-3.29-36.28-10.7-73.33,0C1287.79,152.42,1248.42,185.6,1250.13,212.59Z"
                  transform="translate(-153.46 -42.42)"/>
            <path class="cls-8"
                  d="M1515.13,169.92c-1.16,1.33,8.45,7.85,17.33,24.67,3.18,6,11.06,20.93,12,40.67.5,10.45-1.23,16.37.33,33.33.56,6.09,1.41,12.07,5.67,17.67,2.71,3.56,9.2,10.12,14.33,8.67,8.09-2.29,8.49-23.23,8.67-32.33.28-14.48.59-30.47-8.33-48.67C1549.4,181.85,1517.11,167.65,1515.13,169.92Z"
                  transform="translate(-153.46 -42.42)"/>
            <path class="cls-4"
                  d="M1484.45,149.58c.94-3.25,10.57-2.82,17-3,19.5-.55,21.89-7.12,41-10,9.7-1.46,26.5-4,44,4,18.57,8.49,27.6,24.12,31,30,3.16,5.48,9.13,16.08,10,31,1,16.64-5,28.8-10,39-9,18.38-20.2,27.49-25,31-4,2.92-14,10.24-19,7-2.92-1.88-2.85-6.5-3-11,0,0-.26-7.75-5-33-3.66-19.5-14.39-33.14-19-39-5.88-7.48-11.31-14.37-21-20-10.81-6.27-26.38-10.66-38-21C1486.19,153.46,1484,151.34,1484.45,149.58Z"
                  transform="translate(-153.46 -42.42)"/>
            <path class="cls-4"
                  d="M1248.45,214.58c-7-8.61-5.68-25.25-5-33,2.45-27.92,3.68-41.9,4-43,3.1-10.52,8.13-27.59,24-42,20-18.19,43.65-19.69,50-20a83.38,83.38,0,0,1,35,6c12.24,5,19.83,12,35,26,11.84,10.94,22.51,20.94,20,26-1.59,3.22-7.83,3-12,3,0,0-21.27-.18-53,6-7.59,1.48-33.16,6.46-49,26-16.05,19.81-21,30-21,30a48.35,48.35,0,0,1-11,14c-5.77,5.07-9,5.34-11,5C1253.88,218.48,1251.18,218,1248.45,214.58Z"
                  transform="translate(-153.46 -42.42)"/>
        </g>
    </g>
    <path class="cls-8"
          d="M404,203c.62,1.14,6.79-3.35,17.5-3,3.48.11,11.11.36,16,5.5,3.61,3.8,3.72,8.15,4.5,8,1.12-.22,2.69-9.53-2.5-16-5-6.27-13.35-6.05-15.5-6C412.14,191.84,403.19,201.57,404,203Z"
          transform="translate(-153.46 -42.42)"/>
    <path class="cls-8"
          d="M1329.31,361.71c.59,1.18-2.26,2.52-4,6.33-2.79,6.11.41,11.75-1,12.33s-5.49-3.76-6-9c-.07-.73-.57-5.82,3-8.67C1324.17,360.43,1328.64,360.37,1329.31,361.71Z"
          transform="translate(-153.46 -42.42)"/>
    <path class="cls-8"
          d="M1374.65,420.37c.93-.85,3.79,2.72,10.33,5a36.85,36.85,0,0,0,14.33,1.67c7.7-.35,11.65-2.46,12-1.67.48,1.08-6.14,6.59-14.67,8-2.13.35-10.42,1.72-16.67-3.33C1375.82,426.67,1373.63,421.3,1374.65,420.37Z"
          transform="translate(-153.46 -42.42)"/>
</svg>