<svg id="Слой_1" data-name="Слой 1" xmlns="http://www.w3.org/2000/svg" viewBox="0 0 2097.48 1156.5">
    <defs>
        <style>.cls-1{fill:#fff;stroke:#00c5db;stroke-miterlimit:10;stroke-width:10px;}.cls-2{fill:#00c5db;}</style>
    </defs>
    <title>cloud2r-en</title>
    <path class="cls-1"
          d="M1669.62,477.41a121,121,0,0,0-74.22,25.33c-20.29-107-114.21-187.86-227.07-187.86-1.56,0-3.1.08-4.66.12-28-175.7-180.16-310-363.74-310-181.37,0-332,131.11-362.62,303.7a230.59,230.59,0,0,0-174.63-79.78c-127.68,0-231.19,103.51-231.19,231.19,0,1.64.09,3.26.12,4.9A184.45,184.45,0,1,0,294,796.47C318.8,904,415.09,984.23,530.18,984.23a241.91,241.91,0,0,0,186.43-87.47,242.15,242.15,0,0,0,200.2,105.72c100.25,0,186.29-60.86,223.19-147.64a182.83,182.83,0,0,0,254.35-59.73A142.77,142.77,0,0,0,1668,720.5h1.58a121.55,121.55,0,1,0,0-243.09Z"/>
    <circle class="cls-1" cx="1884.15" cy="905.07" r="92.96"/>
    <circle class="cls-1" cx="2048.53" cy="1107.55" r="43.95"/>
    <path class="cls-2" d="M547.66,492.5v7.4h-19.9V563h-9.1V499.9h-19.9v-7.4Z"/>
    <path class="cls-2"
          d="M592.71,511.4a20.86,20.86,0,0,1,7.75,10.7v-14h9.1V563h-9.1V549a20.85,20.85,0,0,1-7.75,10.7,22.56,22.56,0,0,1-13.55,4,24.88,24.88,0,0,1-13-3.4,23.5,23.5,0,0,1-8.95-9.75,36.12,36.12,0,0,1,0-29.95,23.46,23.46,0,0,1,8.95-9.8,24.89,24.89,0,0,1,13-3.4A22.57,22.57,0,0,1,592.71,511.4Zm-24.4,9.45q-5.05,5.35-5.05,14.75t5.05,14.75q5,5.35,13.45,5.35a18.67,18.67,0,0,0,9.65-2.5,17.4,17.4,0,0,0,6.65-7.05,22.29,22.29,0,0,0,2.4-10.55,22.59,22.59,0,0,0-2.4-10.6,17,17,0,0,0-6.65-7,19,19,0,0,0-9.65-2.45Q573.36,515.5,568.31,520.85Z"/>
    <path class="cls-2" d="M654.16,563l-21-24.7V563h-9.1V489h9.1v43l20.7-23.9H665l-24.6,27.3,25.2,27.6Z"/>
    <path class="cls-2"
          d="M723.66,537.5h-43.9q.3,9.4,5.35,14.1a17.45,17.45,0,0,0,12.35,4.7,17.84,17.84,0,0,0,11-3.35,13.85,13.85,0,0,0,5.45-9h9.7a22.92,22.92,0,0,1-13.4,17.2,29.64,29.64,0,0,1-12.4,2.5,28.26,28.26,0,0,1-14-3.4,24,24,0,0,1-9.55-9.75,34.23,34.23,0,0,1,0-29.95,24,24,0,0,1,9.55-9.8,28.28,28.28,0,0,1,14-3.4,27.65,27.65,0,0,1,13.95,3.4,23.42,23.42,0,0,1,9.1,9.1,25.61,25.61,0,0,1,3.15,12.6A27.18,27.18,0,0,1,723.66,537.5Zm-10.8-14.6a14.64,14.64,0,0,0-6.3-6.1,19.19,19.19,0,0,0-8.7-2,18,18,0,0,0-12.6,4.65q-5.1,4.65-5.5,13.65h35.1A18.69,18.69,0,0,0,712.86,522.9Z"/>
    <path class="cls-2"
          d="M802.35,513a23.73,23.73,0,0,1,8.5,15h-9.6a14,14,0,0,0-5.45-9.25A19.27,19.27,0,0,0,776,517.6a16,16,0,0,0-6.35,6.75,27.57,27.57,0,0,0,0,22.5A16,16,0,0,0,776,553.6a19.14,19.14,0,0,0,19.8-1.2,14.23,14.23,0,0,0,5.45-9.3h9.6a23.59,23.59,0,0,1-8.5,15.05q-6.9,5.55-17.4,5.55a28.26,28.26,0,0,1-14-3.4,24,24,0,0,1-9.55-9.75,34.23,34.23,0,0,1,0-29.95,24,24,0,0,1,9.55-9.8,28.28,28.28,0,0,1,14-3.4Q795.45,507.4,802.35,513Z"/>
    <path class="cls-2"
          d="M858.8,511.4a20.86,20.86,0,0,1,7.75,10.7v-14h9.1V563h-9.1V549a20.85,20.85,0,0,1-7.75,10.7,22.56,22.56,0,0,1-13.55,4,24.88,24.88,0,0,1-13-3.4,23.5,23.5,0,0,1-8.95-9.75,36.12,36.12,0,0,1,0-29.95,23.46,23.46,0,0,1,8.95-9.8,24.89,24.89,0,0,1,13-3.4A22.57,22.57,0,0,1,858.8,511.4Zm-24.4,9.45q-5.05,5.35-5.05,14.75t5.05,14.75q5,5.35,13.45,5.35a18.67,18.67,0,0,0,9.65-2.5,17.4,17.4,0,0,0,6.65-7.05,22.29,22.29,0,0,0,2.4-10.55,22.59,22.59,0,0,0-2.4-10.6,17,17,0,0,0-6.65-7,19,19,0,0,0-9.65-2.45Q839.45,515.5,834.4,520.85Z"/>
    <path class="cls-2"
          d="M907.15,510.35a23.48,23.48,0,0,1,12.4-3.15v9.9h-2.8q-7.7,0-12.6,3.95t-4.9,13.05V563h-9.1V508.1h9.1v11.1A20.19,20.19,0,0,1,907.15,510.35Z"/>
    <path class="cls-2"
          d="M978.65,537.5h-43.9q.3,9.4,5.35,14.1a17.45,17.45,0,0,0,12.35,4.7,17.84,17.84,0,0,0,11-3.35,13.85,13.85,0,0,0,5.45-9h9.7a22.92,22.92,0,0,1-13.4,17.2,29.64,29.64,0,0,1-12.4,2.5,28.26,28.26,0,0,1-14-3.4,24,24,0,0,1-9.55-9.75,34.23,34.23,0,0,1,0-29.95,24,24,0,0,1,9.55-9.8,28.28,28.28,0,0,1,14-3.4,27.65,27.65,0,0,1,13.95,3.4,23.42,23.42,0,0,1,9.1,9.1,25.61,25.61,0,0,1,3.15,12.6A27.18,27.18,0,0,1,978.65,537.5Zm-10.8-14.6a14.64,14.64,0,0,0-6.3-6.1,19.19,19.19,0,0,0-8.7-2,18,18,0,0,0-12.6,4.65q-5.1,4.65-5.5,13.65h35.1A18.69,18.69,0,0,0,967.85,522.9Z"/>
    <path class="cls-2"
          d="M1054.7,510.8a24.36,24.36,0,0,1,9.8,9.8,33.35,33.35,0,0,1,0,29.95,24.41,24.41,0,0,1-9.8,9.75,31.14,31.14,0,0,1-28.3,0,24.73,24.73,0,0,1-9.85-9.75,32.94,32.94,0,0,1,0-29.95,24.67,24.67,0,0,1,9.85-9.8,31.15,31.15,0,0,1,28.3,0Zm-23.2,6.8a16.54,16.54,0,0,0-6.7,6.75,22.74,22.74,0,0,0-2.55,11.25,22.51,22.51,0,0,0,2.55,11.15,16.53,16.53,0,0,0,6.7,6.75,19.71,19.71,0,0,0,18.1,0,16.55,16.55,0,0,0,6.7-6.75,22.52,22.52,0,0,0,2.55-11.15,22.75,22.75,0,0,0-2.55-11.25,16.57,16.57,0,0,0-6.7-6.75,19.71,19.71,0,0,0-18.1,0Z"/>
    <path class="cls-2"
          d="M1094.1,497.6q-2.85,2.6-2.85,9v1.5h13v8h-13V563h-9.1V516.1h-7.9v-8h7.9v-2.2q0-19.7,22.1-18.8v8Q1096.95,495,1094.1,497.6Z"/>
    <path class="cls-2" d="M1142.65,508.1l17.8,43.2,16.5-43.2H1187l-32.6,80.9h-10.3l11.4-26.9-23.1-54Z"/>
    <path class="cls-2"
          d="M1234.4,510.8a24.35,24.35,0,0,1,9.8,9.8,33.36,33.36,0,0,1,0,29.95,24.41,24.41,0,0,1-9.8,9.75,31.14,31.14,0,0,1-28.3,0,24.72,24.72,0,0,1-9.85-9.75,32.94,32.94,0,0,1,0-29.95,24.66,24.66,0,0,1,9.85-9.8,31.14,31.14,0,0,1,28.3,0Zm-23.2,6.8a16.54,16.54,0,0,0-6.7,6.75,22.74,22.74,0,0,0-2.55,11.25,22.51,22.51,0,0,0,2.55,11.15,16.53,16.53,0,0,0,6.7,6.75,19.71,19.71,0,0,0,18.1,0,16.54,16.54,0,0,0,6.7-6.75,22.51,22.51,0,0,0,2.55-11.15,22.74,22.74,0,0,0-2.55-11.25,16.56,16.56,0,0,0-6.7-6.75,19.71,19.71,0,0,0-18.1,0Z"/>
    <path class="cls-2"
          d="M1308.45,508.1V563h-9.1V550.1a18.47,18.47,0,0,1-7.45,10.25,22,22,0,0,1-12.45,3.55q-9.5,0-15.4-6.15t-5.9-17.65v-32h9.1v31.1q0,8.2,4.2,12.65t11.4,4.45q7.5,0,12-4.85t4.5-14.15V508.1Z"/>
    <path class="cls-2"
          d="M1340,510.35a23.48,23.48,0,0,1,12.4-3.15v9.9h-2.8q-7.7,0-12.6,3.95t-4.9,13.05V563H1323V508.1h9.1v11.1A20.19,20.19,0,0,1,1340,510.35Z"/>
    <path class="cls-2"
          d="M670.3,608a7.31,7.31,0,0,1,9,0,5.67,5.67,0,0,1,0,8.1,7.31,7.31,0,0,1-9,0,5.67,5.67,0,0,1,0-8.1Zm9,20.15V683h-9.1V628.1Z"/>
    <path class="cls-2"
          d="M738.3,633.35q5.9,6.15,5.9,17.75V683h-9.1V651.9q0-8.2-4.2-12.6t-11.4-4.4q-7.5,0-12,4.85T703,653.9V683h-9.1V628.1H703v13a18.71,18.71,0,0,1,7.45-10.3,21.6,21.6,0,0,1,12.35-3.6Q732.4,627.2,738.3,633.35Z"/>
    <path class="cls-2"
          d="M802.6,633.35q5.9,6.15,5.9,17.75V683h-9.1V651.9q0-8.2-4.2-12.6t-11.4-4.4q-7.5,0-12,4.85t-4.5,14.15V683h-9.1V628.1h9.1v13a18.71,18.71,0,0,1,7.45-10.3,21.6,21.6,0,0,1,12.35-3.6Q796.7,627.2,802.6,633.35Z"/>
    <path class="cls-2"
          d="M872.6,657.5H828.7q.3,9.4,5.35,14.1a17.45,17.45,0,0,0,12.35,4.7,17.84,17.84,0,0,0,11-3.35,13.85,13.85,0,0,0,5.45-9h9.7a22.92,22.92,0,0,1-13.4,17.2,29.64,29.64,0,0,1-12.4,2.5,28.26,28.26,0,0,1-14-3.4,24,24,0,0,1-9.55-9.75,34.23,34.23,0,0,1,0-30,24,24,0,0,1,9.55-9.8,28.28,28.28,0,0,1,14-3.4,27.65,27.65,0,0,1,13.95,3.4,23.42,23.42,0,0,1,9.1,9.1A25.61,25.61,0,0,1,873,652.5,27.18,27.18,0,0,1,872.6,657.5Zm-10.8-14.6a14.64,14.64,0,0,0-6.3-6.1,19.19,19.19,0,0,0-8.7-2,18,18,0,0,0-12.6,4.65q-5.1,4.65-5.5,13.65h35.1A18.69,18.69,0,0,0,861.8,642.9Z"/>
    <path class="cls-2"
          d="M901.9,630.35a23.48,23.48,0,0,1,12.4-3.15v9.9h-2.8q-7.7,0-12.6,4t-4.9,13V683h-9.1V628.1H894v11.1A20.2,20.2,0,0,1,901.9,630.35Z"/>
    <path class="cls-2"
          d="M989.7,633a23.73,23.73,0,0,1,8.5,15h-9.6a14,14,0,0,0-5.45-9.25,19.27,19.27,0,0,0-19.8-1.15,16,16,0,0,0-6.35,6.75,27.57,27.57,0,0,0,0,22.5,16,16,0,0,0,6.35,6.75,19.14,19.14,0,0,0,19.8-1.2,14.23,14.23,0,0,0,5.45-9.3h9.6a23.59,23.59,0,0,1-8.5,15.05q-6.9,5.55-17.4,5.55a28.26,28.26,0,0,1-14-3.4,24,24,0,0,1-9.55-9.75,34.23,34.23,0,0,1,0-30,24,24,0,0,1,9.55-9.8,28.28,28.28,0,0,1,14-3.4Q982.8,627.4,989.7,633Z"/>
    <path class="cls-2"
          d="M1010.2,608a7.31,7.31,0,0,1,9,0,5.67,5.67,0,0,1,0,8.1,7.31,7.31,0,0,1-9,0,5.67,5.67,0,0,1,0-8.1Zm9,20.15V683h-9.1V628.1Z"/>
    <path class="cls-2"
          d="M1050.8,630.35a23.48,23.48,0,0,1,12.4-3.15v9.9h-2.8q-7.7,0-12.6,4t-4.9,13V683h-9.1V628.1h9.1v11.1A20.2,20.2,0,0,1,1050.8,630.35Z"/>
    <path class="cls-2"
          d="M1113.9,633a23.73,23.73,0,0,1,8.5,15h-9.6a14,14,0,0,0-5.45-9.25,19.27,19.27,0,0,0-19.8-1.15,16,16,0,0,0-6.35,6.75,27.56,27.56,0,0,0,0,22.5,16,16,0,0,0,6.35,6.75,19.14,19.14,0,0,0,19.8-1.2,14.23,14.23,0,0,0,5.45-9.3h9.6a23.59,23.59,0,0,1-8.5,15.05q-6.9,5.55-17.4,5.55a28.25,28.25,0,0,1-14-3.4,24,24,0,0,1-9.55-9.75,34.23,34.23,0,0,1,0-30,24,24,0,0,1,9.55-9.8,28.27,28.27,0,0,1,14-3.4Q1107,627.4,1113.9,633Z"/>
    <path class="cls-2" d="M1143.4,609v74h-9.1V609Z"/>
    <path class="cls-2"
          d="M1208.1,657.5h-43.9q.3,9.4,5.35,14.1a17.45,17.45,0,0,0,12.35,4.7,17.84,17.84,0,0,0,11-3.35,13.85,13.85,0,0,0,5.45-9h9.7a22.92,22.92,0,0,1-13.4,17.2,29.64,29.64,0,0,1-12.4,2.5,28.26,28.26,0,0,1-14-3.4,24,24,0,0,1-9.55-9.75,34.22,34.22,0,0,1,0-30,24,24,0,0,1,9.55-9.8,28.28,28.28,0,0,1,14-3.4,27.65,27.65,0,0,1,14,3.4,23.42,23.42,0,0,1,9.1,9.1,25.61,25.61,0,0,1,3.15,12.6A27.19,27.19,0,0,1,1208.1,657.5Zm-10.8-14.6a14.64,14.64,0,0,0-6.3-6.1,19.19,19.19,0,0,0-8.7-2,18,18,0,0,0-12.6,4.65q-5.1,4.65-5.5,13.65h35.1A18.68,18.68,0,0,0,1197.3,642.9Z"/>
</svg>