<svg id="Слой_1" data-name="Слой 1" xmlns="http://www.w3.org/2000/svg" viewBox="0 0 2097.48 1156.5">
    <defs>
        <style>
            .cls-1{fill:#fff;stroke:#00c5db;stroke-miterlimit:10;stroke-width:10px;}.cls-2{font-size:100px;fill:#00c5db;font-family:Tahoma,
            Tahoma;}
        </style>
    </defs>
    <title>cloud1l-th</title>
    <path class="cls-1"
          d="M427.86,477.41a121,121,0,0,1,74.23,25.33c20.29-107,114.21-187.86,227.07-187.86,1.56,0,3.1.08,4.66.12C761.82,139.3,914,5,1097.56,5c181.37,0,332,131.11,362.62,303.7a230.59,230.59,0,0,1,174.62-79.78c127.69,0,231.2,103.5,231.2,231.19,0,1.64-.09,3.26-.12,4.9a184.87,184.87,0,0,1,42.12-4.9c101.9,0,184.48,82.58,184.48,184.45S2009.9,829,1908,829a183.56,183.56,0,0,1-104.56-32.54C1778.63,904,1682.35,984.23,1567.26,984.23a241.91,241.91,0,0,1-186.43-87.47,242.15,242.15,0,0,1-200.2,105.72c-100.25,0-186.29-60.86-223.19-147.64a182.79,182.79,0,0,1-254.31-59.73,142.83,142.83,0,0,1-273.7-74.63h-1.58a121.53,121.53,0,1,1,0-243.07Z"/>
    <circle class="cls-1" cx="213.33" cy="905.07" r="92.96"/>
    <circle class="cls-1" cx="48.95" cy="1107.55" r="43.95"/>
    <text class="cls-2" transform="translate(952 591)">ปัดฝุ่นตัวเอง!</text>
</svg>