<svg id="Слой_1" data-name="Слой 1" xmlns="http://www.w3.org/2000/svg" viewBox="0 0 2097.48 1156.5">
    <defs>
        <style>.cls-1{fill:#fff;stroke:#00c5db;stroke-miterlimit:10;stroke-width:10px;}.cls-2{fill:#00c5db;}</style>
    </defs>
    <title>cloud2l-th</title>
    <path class="cls-1"
          d="M427.86,477.41a121,121,0,0,1,74.23,25.33c20.29-107,114.21-187.86,227.07-187.86,1.56,0,3.1.08,4.66.12C761.82,139.3,914,5,1097.56,5c181.37,0,332,131.11,362.62,303.7a230.59,230.59,0,0,1,174.62-79.78c127.69,0,231.2,103.5,231.2,231.19,0,1.64-.09,3.26-.12,4.9a184.87,184.87,0,0,1,42.12-4.9c101.9,0,184.48,82.58,184.48,184.45S2009.9,829,1908,829a183.56,183.56,0,0,1-104.56-32.54C1778.63,904,1682.35,984.23,1567.26,984.23a241.91,241.91,0,0,1-186.43-87.47,242.15,242.15,0,0,1-200.2,105.72c-100.25,0-186.29-60.86-223.19-147.64a182.79,182.79,0,0,1-254.31-59.73,142.83,142.83,0,0,1-273.7-74.63h-1.58a121.53,121.53,0,1,1,0-243.07Z"/>
    <circle class="cls-1" cx="213.33" cy="905.07" r="92.96"/>
    <circle class="cls-1" cx="48.95" cy="1107.55" r="43.95"/>
    <path class="cls-2"
          d="M744.46,574.44h-9.23V542.95q0-15.92-14.4-15.92-6.88,0-10.64,4.08t-3.76,10.82a49.67,49.67,0,0,0,2.2,13.72,40.93,40.93,0,0,1,4.49-12.35q2.88-4.83,8-4.83a9,9,0,0,1,6.57,2.73,9.14,9.14,0,0,1,0,13.06,9,9,0,0,1-6.59,2.71,8.3,8.3,0,0,1-4.49-1.22q-6.1,6.15-6.1,18.7h-9.18v-4.2a70.9,70.9,0,0,0-1.86-12.89A79.88,79.88,0,0,1,697.34,542q0-10.6,6.08-17.14t17.41-6.54q23.63,0,23.63,24.61Zm-23.24-23.1a3.61,3.61,0,0,0,2.61-1.07,3.43,3.43,0,0,0,1.1-2.54,3.73,3.73,0,0,0-1.07-2.71,3.54,3.54,0,0,0-2.64-1.1,3.49,3.49,0,0,0-2.59,1.1,3.73,3.73,0,0,0-1.07,2.71,3.43,3.43,0,0,0,1.1,2.54A3.55,3.55,0,0,0,721.22,551.35Z"/>
    <path class="cls-2"
          d="M744.12,499.1q-6.4,13.18-25.93,16.06l2.39-5.27a5.37,5.37,0,0,1-3.52-1.93,5.91,5.91,0,0,1,.22-7.81,5.34,5.34,0,0,1,7.79,0,5.62,5.62,0,0,1,1.61,4,8.38,8.38,0,0,1-2,5.71q8.11-2.1,13.23-10.79Zm-22.9,6.79a1.59,1.59,0,0,0,1.15-.51,1.65,1.65,0,0,0,0-2.39,1.59,1.59,0,0,0-1.15-.51,1.71,1.71,0,0,0,0,3.42Z"/>
    <path class="cls-2"
          d="M804.37,557.35q5.27,2.88,5.27,8.5a9.09,9.09,0,0,1-2.73,6.59,8.85,8.85,0,0,1-6.54,2.78,9.09,9.09,0,0,1-6.62-2.78,9,9,0,0,1-2.81-6.59,5.49,5.49,0,0,1,.1-1.22,55.49,55.49,0,0,0-14,9.81h-8.59V536.26a9.7,9.7,0,0,1-3.52.59,9,9,0,0,1-6.57-2.71,8.75,8.75,0,0,1-2.76-6.47,9.38,9.38,0,0,1,9.33-9.33,12.33,12.33,0,0,1,9.23,3.54q3.47,3.54,3.47,9.55v34.13a44.31,44.31,0,0,1,17.48-8.94V519.85h9.23ZM765,531.23a3.65,3.65,0,0,0,2.61-1,3.36,3.36,0,0,0,1.1-2.51,3.66,3.66,0,0,0-1.1-2.73,3.61,3.61,0,0,0-2.61-1.07,3.57,3.57,0,0,0-2.61,1.1,3.68,3.68,0,0,0-1.1,2.71,3.36,3.36,0,0,0,1.1,2.51A3.65,3.65,0,0,0,765,531.23Zm35.3,38.43a3.57,3.57,0,0,0,2.61-1.1,3.68,3.68,0,0,0,1.1-2.71,3.41,3.41,0,0,0-1.1-2.56,3.65,3.65,0,0,0-2.61-1,3.61,3.61,0,0,0-2.61,1.07,3.43,3.43,0,0,0-1.1,2.54,3.68,3.68,0,0,0,1.1,2.71A3.57,3.57,0,0,0,800.27,569.66Z"/>
    <path class="cls-2"
          d="M872.63,574.44h-9.18v-26.9q0-5.71-1.71-7.37-10.25,9.81-22.9,34.28h-9.18V536.26a9.7,9.7,0,0,1-3.52.59,9,9,0,0,1-6.57-2.71,8.75,8.75,0,0,1-2.76-6.47,9.38,9.38,0,0,1,9.33-9.33,12.33,12.33,0,0,1,9.23,3.54q3.47,3.54,3.47,9.55v30.52q9.67-17.63,18.9-26a8.79,8.79,0,0,1-3.32-3.44,9.61,9.61,0,0,1-1.27-4.76,9.4,9.4,0,0,1,18.8,0,8.79,8.79,0,0,1-4.88,8.3q5.57,2.93,5.57,11.77Zm-46.48-43.21a3.65,3.65,0,0,0,2.61-1,3.36,3.36,0,0,0,1.1-2.51,3.66,3.66,0,0,0-1.1-2.73,3.61,3.61,0,0,0-2.61-1.07,3.57,3.57,0,0,0-2.61,1.1,3.68,3.68,0,0,0-1.1,2.71,3.36,3.36,0,0,0,1.1,2.51A3.65,3.65,0,0,0,826.15,531.23Zm36.38.1a3.65,3.65,0,0,0,2.61-1,3.36,3.36,0,0,0,1.1-2.51,3.73,3.73,0,0,0-1.07-2.71,3.54,3.54,0,0,0-2.64-1.1,3.49,3.49,0,0,0-2.59,1.1,3.73,3.73,0,0,0-1.07,2.71,3.39,3.39,0,0,0,1.07,2.51A3.57,3.57,0,0,0,862.52,531.33Z"/>
    <path class="cls-2"
          d="M921.12,574.44h-9.18v-35q0-6.3-3-9.64a10.56,10.56,0,0,0-8.28-3.34q-8.06,0-16.5,5h-.63v-9.67a47.53,47.53,0,0,1,17.14-3.32q20.46,0,20.46,20.41Z"/>
    <path class="cls-2"
          d="M986.74,512.82q-1.56,6.74-8.4,13.23,4.39,5.71,4.39,14.5v33.89h-9.23q-8.69-16.5-11.33-20.78a26.27,26.27,0,0,0-5.47-6.59,8.76,8.76,0,0,0-5.47-2.32,5.37,5.37,0,0,0-4.13,1.71,6.2,6.2,0,0,0-1.59,4.39v6.49a9.55,9.55,0,0,1,3.47-.59,9.07,9.07,0,0,1,6.59,2.69,8.77,8.77,0,0,1,2.73,6.49,8.89,8.89,0,0,1-2.76,6.54,9,9,0,0,1-6.57,2.73,12.38,12.38,0,0,1-9.23-3.52q-3.47-3.52-3.47-9.57V551.05q0-7.13,3.78-10.91t10.52-3.78a13.79,13.79,0,0,1,8.54,3,25.68,25.68,0,0,1,6.23,6.64q2.32,3.66,8.13,15V540.56a15,15,0,0,0-2.29-8.59,52,52,0,0,1-8.2,4.59l-2.29-3.22a29.32,29.32,0,0,0,6.69-5,15.56,15.56,0,0,0-8-2q-10.06,0-19.78,6.49h-.49v-10.3a54.49,54.49,0,0,1,20.17-4.2q8.59,0,14,3.42,4-5.42,4-8.94ZM949,569.75a3.54,3.54,0,0,0,2.64-1.1,3.73,3.73,0,0,0,1.07-2.71,3.43,3.43,0,0,0-1.1-2.54,3.61,3.61,0,0,0-2.61-1.07,3.55,3.55,0,0,0-2.56,1.07,3.43,3.43,0,0,0-1.1,2.54,3.73,3.73,0,0,0,1.07,2.71A3.49,3.49,0,0,0,949,569.75Z"/>
    <path class="cls-2"
          d="M978.44,515.26H938.55a35.65,35.65,0,0,1,3.52-8.2,18.46,18.46,0,0,1,4.37-4.52,20.31,20.31,0,0,1,12.13-4.08,19.7,19.7,0,0,1,11.6,3.74,19,19,0,0,1,7.3,9.94Zm-7.86-5.42a8.92,8.92,0,0,0-4.59-4.27,17.77,17.77,0,0,0-14.89,0,8.69,8.69,0,0,0-4.54,4.27Z"/>
    <path class="cls-2" d="M980.1,515h-5.47V498.56h5.47Z"/>
    <path class="cls-2"
          d="M1031.13,558.52q0,8.55-3.83,13a12.93,12.93,0,0,1-10.38,4.49,13.08,13.08,0,0,1-7.74-2.51q-3.54-2.51-6.32-8.42l-11.33-23.68h9.57q8.84,18.51,9.77,20.36a18.42,18.42,0,0,0,2.51,3.71,4.61,4.61,0,0,0,3.54,1.86q5,0,5-8.84V536.36a9.56,9.56,0,0,1-3.47.59,9,9,0,0,1-6.59-2.71,8.79,8.79,0,0,1-2.73-6.47,9.42,9.42,0,0,1,9.33-9.33,12.33,12.33,0,0,1,9.23,3.54q3.47,3.54,3.47,9.55Zm-12.79-27.2a3.59,3.59,0,0,0,2.56-1,3.36,3.36,0,0,0,1.1-2.51,3.73,3.73,0,0,0-1.07-2.71,3.49,3.49,0,0,0-2.59-1.1,3.54,3.54,0,0,0-2.64,1.1,3.73,3.73,0,0,0-1.07,2.71,3.36,3.36,0,0,0,1.1,2.51A3.65,3.65,0,0,0,1018.33,531.33Z"/>
    <path class="cls-2"
          d="M1102.71,574.44h-9.18V533q0-6.3-3.61-6.3-3.08,0-7.59,10.55t-13.4,37.16h-12.79V536.26a9.71,9.71,0,0,1-3.52.59,9,9,0,0,1-6.54-2.71,8.79,8.79,0,0,1-2.73-6.47,9.34,9.34,0,0,1,9.28-9.33,12.31,12.31,0,0,1,9.25,3.54q3.44,3.54,3.44,9.55v34.42q7.08-20.75,9.42-27.12a84,84,0,0,1,5.1-11.4q2.76-5,5.49-7a10.47,10.47,0,0,1,6.3-2,9.65,9.65,0,0,1,8.13,3.88q3,3.88,3,10.62Zm-50.1-43.21a3.65,3.65,0,0,0,2.61-1,3.36,3.36,0,0,0,1.1-2.51,3.73,3.73,0,0,0-1.07-2.71,3.55,3.55,0,0,0-2.64-1.1A3.49,3.49,0,0,0,1050,525a3.72,3.72,0,0,0-1.07,2.71,3.39,3.39,0,0,0,1.07,2.51A3.57,3.57,0,0,0,1052.61,531.23Z"/>
    <path class="cls-2"
          d="M1099.24,515.26h-39.89a35.65,35.65,0,0,1,3.52-8.2,18.45,18.45,0,0,1,4.37-4.52,20.31,20.31,0,0,1,12.13-4.08,19.21,19.21,0,0,1,14.4,6.15v-10.5h5.47Zm-7.86-5.42a8.93,8.93,0,0,0-4.59-4.27,17.77,17.77,0,0,0-14.89,0,8.69,8.69,0,0,0-4.54,4.27Z"/>
    <path class="cls-2" d="M1100.9,515h-5.47V498.56h5.47Z"/>
    <path class="cls-2"
          d="M1168.33,512.82q-1.56,6.74-8.4,13.23,4.39,5.71,4.39,14.5v33.89h-9.23q-8.69-16.5-11.33-20.78a26.27,26.27,0,0,0-5.47-6.59,8.76,8.76,0,0,0-5.47-2.32,5.37,5.37,0,0,0-4.13,1.71,6.2,6.2,0,0,0-1.59,4.39v6.49a9.55,9.55,0,0,1,3.47-.59,9.07,9.07,0,0,1,6.59,2.69,8.77,8.77,0,0,1,2.73,6.49,8.89,8.89,0,0,1-2.76,6.54,9,9,0,0,1-6.57,2.73,12.37,12.37,0,0,1-9.23-3.52q-3.47-3.52-3.47-9.57V551.05q0-7.13,3.78-10.91t10.52-3.78a13.79,13.79,0,0,1,8.54,3A25.69,25.69,0,0,1,1147,546q2.32,3.66,8.13,15V540.56a15,15,0,0,0-2.29-8.59,52,52,0,0,1-8.2,4.59l-2.29-3.22a29.32,29.32,0,0,0,6.69-5,15.56,15.56,0,0,0-8-2q-10.06,0-19.78,6.49h-.49v-10.3a54.49,54.49,0,0,1,20.17-4.2q8.59,0,14,3.42,4-5.42,4-8.94Zm-37.74,56.93a3.55,3.55,0,0,0,2.64-1.1,3.73,3.73,0,0,0,1.07-2.71,3.43,3.43,0,0,0-1.1-2.54,3.61,3.61,0,0,0-2.61-1.07,3.55,3.55,0,0,0-2.56,1.07,3.43,3.43,0,0,0-1.1,2.54,3.72,3.72,0,0,0,1.07,2.71A3.49,3.49,0,0,0,1130.59,569.75Z"/>
    <path class="cls-2"
          d="M1158.91,500.52a6.94,6.94,0,0,1,5.15,2.17,7.24,7.24,0,0,1,2.12,5.25,7.27,7.27,0,0,1-12.43,5.13,7,7,0,0,1-2.17-5.13,7.19,7.19,0,0,1,2.15-5.25A7,7,0,0,1,1158.91,500.52Zm0,10.5a3.08,3.08,0,0,0,3.08-3.08,3,3,0,0,0-.9-2.2,2.93,2.93,0,0,0-2.17-.93,3.17,3.17,0,0,0-3.12,3.13,2.92,2.92,0,0,0,.93,2.17A3,3,0,0,0,1158.91,511ZM1212,574.44h-9.18v-35q0-6.3-3-9.64a10.56,10.56,0,0,0-8.28-3.34q-8.06,0-16.5,5h-.63v-9.67a47.53,47.53,0,0,1,17.14-3.32q20.46,0,20.46,20.41Z"/>
    <path class="cls-2"
          d="M1273.51,574.44h-9.23V542.95q0-15.92-14.4-15.92-6.88,0-10.64,4.08t-3.76,10.82a49.67,49.67,0,0,0,2.2,13.72,40.93,40.93,0,0,1,4.49-12.35q2.88-4.83,8-4.83a9,9,0,0,1,6.57,2.73,9.14,9.14,0,0,1,0,13.06,9,9,0,0,1-6.59,2.71,8.29,8.29,0,0,1-4.49-1.22q-6.1,6.15-6.1,18.7h-9.18v-4.2a71,71,0,0,0-1.86-12.89,79.88,79.88,0,0,1-2.15-15.33q0-10.6,6.08-17.14t17.41-6.54q23.63,0,23.63,24.61Zm-23.24-23.1a3.61,3.61,0,0,0,2.61-1.07,3.43,3.43,0,0,0,1.1-2.54,3.73,3.73,0,0,0-1.07-2.71,3.55,3.55,0,0,0-2.64-1.1,3.49,3.49,0,0,0-2.59,1.1,3.72,3.72,0,0,0-1.07,2.71,3.43,3.43,0,0,0,1.1,2.54A3.55,3.55,0,0,0,1250.27,551.35Z"/>
    <path class="cls-2"
          d="M1288.89,498.51a22.51,22.51,0,0,1-9.69,12.79,30.38,30.38,0,0,1-16.92,4.74q-7,0-11.11-3.05a9.7,9.7,0,0,1-4.08-8.18,8.89,8.89,0,0,1,2.76-6.54,9,9,0,0,1,6.57-2.73,8.79,8.79,0,0,1,6.47,2.73,9,9,0,0,1,2.71,6.54,9.45,9.45,0,0,1-1.9,6.3,21,21,0,0,0,12.23-4.05q5.79-4.05,6.67-8.54Zm-32.47,10a3.36,3.36,0,0,0,2.51-1.1,3.78,3.78,0,0,0,0-5.22,3.36,3.36,0,0,0-2.51-1.1,3.68,3.68,0,0,0-2.71,1.1,3.66,3.66,0,0,0,0,5.22A3.68,3.68,0,0,0,1256.42,508.52Z"/>
    <path class="cls-2"
          d="M1287.72,542q0-10.69,5.71-17.19t16.26-6.49q11.57,0,16.85,5.83t5.27,18.77v22.8h15.72v-45.9h9.18v54.59h-34.08V542.95q0-8.84-3.17-12.38t-9.77-3.54q-10.25,0-12.4,8.4h9.33v6.49q-8.69,3.27-8.69,14.4v1a9.55,9.55,0,0,1,3.47-.59,9.07,9.07,0,0,1,6.59,2.69,8.77,8.77,0,0,1,2.73,6.49,8.89,8.89,0,0,1-2.76,6.54,9,9,0,0,1-6.57,2.73,12.37,12.37,0,0,1-9.23-3.52q-3.47-3.52-3.47-9.57v-4.2q0-12.74,8.59-15.58h-9.57Zm13.67,27.73a3.55,3.55,0,0,0,2.64-1.1,3.73,3.73,0,0,0,1.07-2.71,3.43,3.43,0,0,0-1.1-2.54,3.61,3.61,0,0,0-2.61-1.07,3.55,3.55,0,0,0-2.56,1.07,3.43,3.43,0,0,0-1.1,2.54,3.72,3.72,0,0,0,1.07,2.71A3.49,3.49,0,0,0,1301.39,569.75Zm55.42,8q-1,8.64-6.84,13T1335,595.14q-5.86,0-9.3-2.88a9,9,0,0,1-3.44-7.23,7.67,7.67,0,0,1,2.17-5.59,7.9,7.9,0,0,1,11,0,7.56,7.56,0,0,1,2.25,5.57,9.3,9.3,0,0,1-1.51,5.32q12.74-.78,14.31-12.6ZM1330,588.06a3,3,0,0,0,2.15-.83,2.88,2.88,0,0,0,.88-2.2,2.75,2.75,0,0,0-.93-2.15,3.06,3.06,0,0,0-2.1-.83,3,3,0,0,0-2.15.81A2.89,2.89,0,0,0,1327,585a2.88,2.88,0,0,0,3,3Z"/>
    <path class="cls-2"
          d="M1382.3,557.35a9.7,9.7,0,0,1,3.52-.59,9,9,0,0,1,6.54,2.69,8.77,8.77,0,0,1,2.73,6.49,9.34,9.34,0,0,1-9.28,9.28,12.37,12.37,0,0,1-9.23-3.52q-3.47-3.52-3.47-9.57V519.85h9.18Zm3.52,12.4a3.57,3.57,0,0,0,2.61-1.1,3.68,3.68,0,0,0,1.1-2.71,3.43,3.43,0,0,0-1.1-2.54,3.71,3.71,0,0,0-5.22,0,3.43,3.43,0,0,0-1.1,2.54,3.68,3.68,0,0,0,1.1,2.71A3.57,3.57,0,0,0,1385.82,569.75Zm22.46-12.4a9.7,9.7,0,0,1,3.52-.59,9,9,0,0,1,6.54,2.69,8.77,8.77,0,0,1,2.73,6.49,9.34,9.34,0,0,1-9.28,9.28,12.37,12.37,0,0,1-9.23-3.52q-3.47-3.52-3.47-9.57V519.85h9.18Zm3.52,12.4a3.57,3.57,0,0,0,2.61-1.1,3.68,3.68,0,0,0,1.1-2.71,3.43,3.43,0,0,0-1.1-2.54,3.71,3.71,0,0,0-5.22,0,3.43,3.43,0,0,0-1.1,2.54,3.68,3.68,0,0,0,1.1,2.71A3.57,3.57,0,0,0,1411.79,569.75Z"/>
    <path class="cls-2"
          d="M1477.51,574.44h-9.23q-8.69-16.5-11.33-20.78a26.27,26.27,0,0,0-5.47-6.59,8.76,8.76,0,0,0-5.47-2.32,5.37,5.37,0,0,0-4.13,1.71,6.2,6.2,0,0,0-1.59,4.39v6.49a9.55,9.55,0,0,1,3.47-.59,9.07,9.07,0,0,1,6.59,2.69,8.77,8.77,0,0,1,2.73,6.49,8.89,8.89,0,0,1-2.76,6.54,9,9,0,0,1-6.57,2.73,12.37,12.37,0,0,1-9.23-3.52q-3.47-3.52-3.47-9.57V551.05q0-7.13,3.78-10.91t10.52-3.78a13.79,13.79,0,0,1,8.54,3,25.69,25.69,0,0,1,6.23,6.64q2.32,3.66,8.13,15V540.56q0-6.69-3.81-10.45t-10.3-3.76q-10.06,0-19.78,6.49h-.49v-10.3a54.49,54.49,0,0,1,20.17-4.2q11.28,0,17.36,5.91t6.08,16.31Zm-33.74-4.69a3.55,3.55,0,0,0,2.64-1.1,3.73,3.73,0,0,0,1.07-2.71,3.43,3.43,0,0,0-1.1-2.54,3.61,3.61,0,0,0-2.61-1.07,3.55,3.55,0,0,0-2.56,1.07,3.43,3.43,0,0,0-1.1,2.54,3.72,3.72,0,0,0,1.07,2.71A3.49,3.49,0,0,0,1443.77,569.75Z"/>
    <path class="cls-2"
          d="M1527.12,519.12q-1.61,11.38-7.52,17a20.13,20.13,0,0,1-14.4,5.62,14.59,14.59,0,0,1-10.52-4.35,13.28,13.28,0,0,1-4.47-9.72v-.44a8.64,8.64,0,0,1,8.89-8.89,8.9,8.9,0,0,1,6.54,2.47,8.64,8.64,0,0,1,2.49,6.42q0,6.15-6.69,8.2a8.26,8.26,0,0,0,3.56.83,13.59,13.59,0,0,0,10.72-4.57q4-4.57,4.71-12.57Zm0,31.2q-1.61,11.38-7.52,17a20.13,20.13,0,0,1-14.4,5.62,14.59,14.59,0,0,1-10.52-4.35,13.28,13.28,0,0,1-4.47-9.72v-.44a8.64,8.64,0,0,1,8.89-8.89,8.9,8.9,0,0,1,6.54,2.47,8.64,8.64,0,0,1,2.49,6.42q0,6.15-6.69,8.2a8.26,8.26,0,0,0,3.56.83,13.59,13.59,0,0,0,10.72-4.57q4-4.57,4.71-12.57Zm-28-19.38a3.41,3.41,0,0,0,2.56-1.1,3.65,3.65,0,0,0,1-2.61,3.57,3.57,0,0,0-1-2.59,3.45,3.45,0,0,0-2.56-1.07,3.67,3.67,0,0,0-2.66,1.07,3.49,3.49,0,0,0-1.1,2.59,3.54,3.54,0,0,0,1.1,2.64A3.67,3.67,0,0,0,1499.1,530.94Zm0,31.2a3.41,3.41,0,0,0,2.56-1.1,3.65,3.65,0,0,0,1-2.61,3.57,3.57,0,0,0-1-2.59,3.45,3.45,0,0,0-2.56-1.07,3.67,3.67,0,0,0-2.66,1.07,3.49,3.49,0,0,0-1.1,2.59,3.58,3.58,0,0,0,1.07,2.64A3.64,3.64,0,0,0,1499.1,562.14Z"/>
    <path class="cls-2"
          d="M1578,574.44h-9.72a85.06,85.06,0,0,0-4-10.38,67.77,67.77,0,0,0-5-8.91q-3.17,4.49-7.91,4.49a9,9,0,0,1-6.54-2.71,8.85,8.85,0,0,1-2.73-6.52,9.38,9.38,0,0,1,9.28-9.28,12.9,12.9,0,0,1,9.64,4.27q4.08,4.27,7.84,13.55V540.56q0-6.84-3.42-10.52t-9.67-3.69q-10.06,0-19.68,6.49h-.63v-10.3a54.38,54.38,0,0,1,20.12-4.2q11,0,16.72,5.74t5.69,16.48ZM1551.34,554a3.65,3.65,0,0,0,2.61-1,3.41,3.41,0,0,0,1.1-2.56,3.62,3.62,0,0,0-1.1-2.66,3.66,3.66,0,0,0-5.22,0,3.62,3.62,0,0,0-1.1,2.66,3.41,3.41,0,0,0,1.1,2.56A3.65,3.65,0,0,0,1551.34,554Z"/>
    <path class="cls-2"
          d="M1573.36,500.52a6.94,6.94,0,0,1,5.15,2.17,7.24,7.24,0,0,1,2.12,5.25,7.27,7.27,0,0,1-12.43,5.13,7,7,0,0,1-2.17-5.13,7.2,7.2,0,0,1,2.15-5.25A7,7,0,0,1,1573.36,500.52Zm0,10.5a3.08,3.08,0,0,0,3.08-3.08,3,3,0,0,0-.9-2.2,2.92,2.92,0,0,0-2.17-.93,3.17,3.17,0,0,0-3.12,3.13,2.92,2.92,0,0,0,.93,2.17A3,3,0,0,0,1573.36,511Zm53.08,63.43h-9.18v-35q0-6.3-3-9.64a10.56,10.56,0,0,0-8.28-3.34q-8.06,0-16.5,5h-.63v-9.67a47.53,47.53,0,0,1,17.14-3.32q20.46,0,20.46,20.41Z"/>
    <path class="cls-2"
          d="M1652,557.35a9.7,9.7,0,0,1,3.52-.59,9,9,0,0,1,6.54,2.69,8.77,8.77,0,0,1,2.73,6.49,9.34,9.34,0,0,1-9.28,9.28,12.37,12.37,0,0,1-9.23-3.52q-3.47-3.52-3.47-9.57V519.85H1652Zm3.52,12.4a3.57,3.57,0,0,0,2.61-1.1,3.68,3.68,0,0,0,1.1-2.71,3.43,3.43,0,0,0-1.1-2.54,3.71,3.71,0,0,0-5.22,0,3.43,3.43,0,0,0-1.1,2.54,3.68,3.68,0,0,0,1.1,2.71A3.57,3.57,0,0,0,1655.54,569.75Z"/>
    <path class="cls-2"
          d="M1722.63,574.44h-46v-8.69h8V536.26a9.71,9.71,0,0,1-3.52.59,9,9,0,0,1-6.54-2.71,8.79,8.79,0,0,1-2.73-6.47,9.34,9.34,0,0,1,9.28-9.33,12.31,12.31,0,0,1,9.25,3.54q3.44,3.54,3.44,9.55v34.33h19.63V493.92h9.18Zm-41.5-43.21a3.65,3.65,0,0,0,2.61-1,3.36,3.36,0,0,0,1.1-2.51,3.73,3.73,0,0,0-1.07-2.71,3.55,3.55,0,0,0-2.64-1.1,3.49,3.49,0,0,0-2.59,1.1,3.72,3.72,0,0,0-1.07,2.71,3.39,3.39,0,0,0,1.07,2.51A3.57,3.57,0,0,0,1681.13,531.23Z"/>
    <path class="cls-2"
          d="M1725.12,487.58a20.21,20.21,0,0,1-5.74,8.89q-3.78,3.27-13.65,3.27h-5a7.18,7.18,0,0,0-4.54,1.37,4.31,4.31,0,0,0-1.76,3.56,5,5,0,0,0,1.15,3.17,4.82,4.82,0,0,0,3.05,1.81q0-5.61,4.69-5.62,1.56,0,8,3.81a6.49,6.49,0,0,1,2.2-3.61,6.19,6.19,0,0,1,8.25,9.2,5.88,5.88,0,0,1-4.25,1.83q-2.69,0-9.57-3.81-3.71-2-4.44-2t-.68,2.59v3.22h-1.22q-5.76,0-9.18-3.05a9.71,9.71,0,0,1-3.42-7.54,9.29,9.29,0,0,1,3.17-7.3,12.43,12.43,0,0,1,8.54-2.81h4.88q6.54,0,8.86-1.68a10.94,10.94,0,0,0,3.64-5.3Zm-7.67,23.68a2,2,0,0,0,1.49-.66,2.19,2.19,0,0,0,.61-1.54,2.17,2.17,0,0,0-.61-1.56,2.06,2.06,0,0,0-3,0,2.17,2.17,0,0,0-.61,1.56,2.24,2.24,0,0,0,.59,1.54A1.93,1.93,0,0,0,1717.46,511.26Z"/>
    <path class="cls-2"
          d="M1782.54,557.35q5.27,2.88,5.27,8.5a9.09,9.09,0,0,1-2.73,6.59,8.85,8.85,0,0,1-6.54,2.78,9.09,9.09,0,0,1-6.62-2.78,9,9,0,0,1-2.81-6.59,5.49,5.49,0,0,1,.1-1.22,55.49,55.49,0,0,0-14,9.81h-8.59V536.26a9.71,9.71,0,0,1-3.52.59,9,9,0,0,1-6.57-2.71,8.75,8.75,0,0,1-2.76-6.47,9.38,9.38,0,0,1,9.33-9.33,12.33,12.33,0,0,1,9.23,3.54q3.47,3.54,3.47,9.55v34.13a44.31,44.31,0,0,1,17.48-8.94V519.85h9.23Zm-39.4-26.12a3.65,3.65,0,0,0,2.61-1,3.36,3.36,0,0,0,1.1-2.51,3.66,3.66,0,0,0-1.1-2.73,3.61,3.61,0,0,0-2.61-1.07,3.57,3.57,0,0,0-2.61,1.1,3.68,3.68,0,0,0-1.1,2.71,3.36,3.36,0,0,0,1.1,2.51A3.65,3.65,0,0,0,1743.14,531.23Zm35.3,38.43a3.57,3.57,0,0,0,2.61-1.1,3.68,3.68,0,0,0,1.1-2.71,3.41,3.41,0,0,0-1.1-2.56,3.65,3.65,0,0,0-2.61-1,3.61,3.61,0,0,0-2.61,1.07,3.43,3.43,0,0,0-1.1,2.54,3.68,3.68,0,0,0,1.1,2.71A3.57,3.57,0,0,0,1778.44,569.66Z"/>
    <path class="cls-2"
          d="M864.38,694.44h-9.23V662.95q0-8.89-3.12-12.4T842.26,647q-10.3,0-12.4,8.4h9.33v6.49q-8.74,3.27-8.74,14.4v18.12h-9.18v-16.5q0-12.74,8.59-15.58h-9.62V662q0-10.69,5.71-17.19t16.31-6.49q11.52,0,16.82,5.83t5.3,18.77Z"/>
    <path class="cls-2"
          d="M879.76,618.51a22.51,22.51,0,0,1-9.69,12.79A30.38,30.38,0,0,1,853.15,636q-7,0-11.11-3.05a9.7,9.7,0,0,1-4.08-8.18,8.89,8.89,0,0,1,2.76-6.54,9,9,0,0,1,6.57-2.73,8.79,8.79,0,0,1,6.47,2.73,9,9,0,0,1,2.71,6.54,9.45,9.45,0,0,1-1.9,6.3,21,21,0,0,0,12.23-4.05q5.79-4.05,6.67-8.54Zm-32.47,10a3.36,3.36,0,0,0,2.51-1.1,3.78,3.78,0,0,0,0-5.22,3.36,3.36,0,0,0-2.51-1.1,3.68,3.68,0,0,0-2.71,1.1,3.66,3.66,0,0,0,0,5.22A3.68,3.68,0,0,0,847.29,628.52Z"/>
    <path class="cls-2"
          d="M927.37,694.44h-46v-8.69h8V656.26a9.7,9.7,0,0,1-3.52.59,9,9,0,0,1-6.54-2.71,8.79,8.79,0,0,1-2.73-6.47,9.34,9.34,0,0,1,9.28-9.33,12.31,12.31,0,0,1,9.25,3.54q3.44,3.54,3.44,9.55v34.33h19.63v-45.9h9.18Zm-41.5-43.21a3.65,3.65,0,0,0,2.61-1,3.36,3.36,0,0,0,1.1-2.51A3.73,3.73,0,0,0,888.5,645a3.54,3.54,0,0,0-2.64-1.1,3.49,3.49,0,0,0-2.59,1.1,3.73,3.73,0,0,0-1.07,2.71,3.39,3.39,0,0,0,1.07,2.51A3.57,3.57,0,0,0,885.86,651.23Z"/>
    <path class="cls-2"
          d="M996.07,632.24a15.89,15.89,0,0,1-3.22,9.74,15.48,15.48,0,0,1-8.59,5.79,10.86,10.86,0,0,1,5.25,3.81,9.73,9.73,0,0,1,1.88,5.86v37h-42v-8.69h6.2v-12.5a16.52,16.52,0,0,1,1-6.18,32.54,32.54,0,0,1,2.91-5.4,21.28,21.28,0,0,0,2.73-5.18,12.81,12.81,0,0,0,.54-3.56q0-8-6.69-8a3.43,3.43,0,0,0-2,.49,9.11,9.11,0,0,1,4,7.52,8.77,8.77,0,0,1-2.73,6.49,9.07,9.07,0,0,1-6.59,2.69,8.81,8.81,0,0,1-6.49-2.71,9,9,0,0,1-2.69-6.57,13.33,13.33,0,0,1,4.54-10.5q4.54-4,12-4,7,0,11.28,4a13.66,13.66,0,0,1,4.3,10.52,18.29,18.29,0,0,1-.63,4.59,29.83,29.83,0,0,1-3.12,6.74q-3.13,5.37-3.12,8.69v12.89h17.38V659q0-7-4.88-8.4v-4.3a12.82,12.82,0,0,0,7-5.25,16,16,0,0,0,2.42-8.86Zm-47.31,24.41a3.54,3.54,0,0,0,2.64-1.1,3.73,3.73,0,0,0,1.07-2.71,3.44,3.44,0,0,0-1.1-2.54,3.61,3.61,0,0,0-2.61-1.07,3.53,3.53,0,0,0-2.59,1.07,3.47,3.47,0,0,0-1.07,2.54,3.73,3.73,0,0,0,1.07,2.71A3.49,3.49,0,0,0,948.75,656.65Z"/>
    <path class="cls-2"
          d="M986.6,635.26H946.7a35.65,35.65,0,0,1,3.52-8.2,18.47,18.47,0,0,1,4.37-4.52,20.31,20.31,0,0,1,12.13-4.08,19.21,19.21,0,0,1,14.4,6.15v-10.5h5.47Zm-7.86-5.42a8.92,8.92,0,0,0-4.59-4.27,17.77,17.77,0,0,0-14.89,0,8.69,8.69,0,0,0-4.54,4.27Z"/>
    <path class="cls-2"
          d="M1038.55,682.14q0,6.06-3.44,9.57a12.36,12.36,0,0,1-9.25,3.52,9.34,9.34,0,0,1-9.28-9.28,8.77,8.77,0,0,1,2.73-6.49,9,9,0,0,1,6.54-2.69,9.7,9.7,0,0,1,3.52.59V659.43q0-6.3-3-9.64a10.56,10.56,0,0,0-8.28-3.34q-8.06,0-16.5,5H1001v-9.67a47.54,47.54,0,0,1,17.14-3.32q20.46,0,20.46,20.41Zm-12.7,7.62a3.54,3.54,0,0,0,2.64-1.1,3.73,3.73,0,0,0,1.07-2.71,3.44,3.44,0,0,0-1.1-2.54,3.71,3.71,0,0,0-5.22,0,3.44,3.44,0,0,0-1.1,2.54,3.68,3.68,0,0,0,1.1,2.71A3.57,3.57,0,0,0,1025.85,689.75Z"/>
    <path class="cls-2"
          d="M1035.08,635.26H995.19a35.65,35.65,0,0,1,3.52-8.2,18.47,18.47,0,0,1,4.37-4.52,20.31,20.31,0,0,1,12.13-4.08,19.7,19.7,0,0,1,11.6,3.74,19,19,0,0,1,7.3,9.94Zm-7.86-5.42a8.92,8.92,0,0,0-4.59-4.27,17.77,17.77,0,0,0-14.89,0,8.69,8.69,0,0,0-4.54,4.27Z"/>
    <path class="cls-2"
          d="M1100.07,694.44h-9.23V662.95q0-11.13-7.81-16.7l-6.59,5-6.69-5a18.44,18.44,0,0,0-7.71,15.67,51.57,51.57,0,0,0,2.2,13.72,94.42,94.42,0,0,1,1.71,10l5.18-5a14.83,14.83,0,0,0,3.42-4.54,9.56,9.56,0,0,1-5.35-3.34,9,9,0,0,1-1.93-5.74,8.93,8.93,0,0,1,2.69-6.52,8.81,8.81,0,0,1,6.49-2.71,8.67,8.67,0,0,1,6.59,2.81,9.84,9.84,0,0,1,2.64,7,19.49,19.49,0,0,1-3.05,9.79q-3.05,5.2-12,12.92-2.64,2.25-4.44,4.1H1057v-4.2a71,71,0,0,0-1.86-12.89A79.88,79.88,0,0,1,1053,662q0-10.64,4.32-15.87t12.57-8l6.59,5.08,6.59-5.08q8.89,2.39,13,8.45t4.08,16.36Zm-23.44-23.68a3.61,3.61,0,0,0,2.61-1.07,3.43,3.43,0,0,0,1.1-2.54,3.73,3.73,0,0,0-1.07-2.71,3.55,3.55,0,0,0-2.64-1.1,3.49,3.49,0,0,0-2.59,1.1,3.72,3.72,0,0,0-1.07,2.71,3.47,3.47,0,0,0,1.07,2.54A3.52,3.52,0,0,0,1076.64,670.76Z"/>
    <path class="cls-2"
          d="M1161.25,694.44h-40.19v-8.69h6.2v-12.5a16.51,16.51,0,0,1,1-6.18,30.77,30.77,0,0,1,3-5.4,21.28,21.28,0,0,0,2.73-5.18,12.83,12.83,0,0,0,.54-3.56q0-8-6.74-8a3.57,3.57,0,0,0-2,.49,9.11,9.11,0,0,1,4,7.52,8.77,8.77,0,0,1-2.73,6.49,9,9,0,0,1-6.54,2.69,9.25,9.25,0,0,1-9.23-9.28,13.29,13.29,0,0,1,4.57-10.5q4.56-4,11.94-4,7,0,11.33,4a13.66,13.66,0,0,1,4.3,10.52,17.64,17.64,0,0,1-.66,4.59,31.87,31.87,0,0,1-3.1,6.74q-3.13,5.37-3.12,8.69v12.89h15.58v-45.9h9.18Zm-40.77-37.79a3.57,3.57,0,0,0,2.61-1.1,3.68,3.68,0,0,0,1.1-2.71,3.44,3.44,0,0,0-1.1-2.54,3.71,3.71,0,0,0-5.22,0,3.44,3.44,0,0,0-1.1,2.54,3.68,3.68,0,0,0,1.1,2.71A3.57,3.57,0,0,0,1120.48,656.65Z"/>
    <path class="cls-2"
          d="M1220.87,694.44h-43.12V673.15q0-6.1,3.47-9.62a12.38,12.38,0,0,1,9.23-3.52,8.89,8.89,0,0,1,6.54,2.76,9,9,0,0,1,2.73,6.57,8.77,8.77,0,0,1-2.73,6.49,9,9,0,0,1-6.54,2.69,9.7,9.7,0,0,1-3.52-.59v7.81h24.71v-25.2q0-6.69-3.78-10.45t-10.23-3.76q-10,0-19.68,6.49h-.59v-10.3a54.28,54.28,0,0,1,20.07-4.2q11.33,0,17.38,5.88t6.05,16.33ZM1190.45,673a3.61,3.61,0,0,0,2.61-1.07,3.43,3.43,0,0,0,1.1-2.54,3.68,3.68,0,0,0-1.1-2.71,3.66,3.66,0,0,0-5.22,0,3.68,3.68,0,0,0-1.1,2.71,3.43,3.43,0,0,0,1.1,2.54A3.6,3.6,0,0,0,1190.45,673Z"/>
    <path class="cls-2"
          d="M1270.09,678.52q0,8.55-3.83,13a12.94,12.94,0,0,1-10.38,4.49,13.08,13.08,0,0,1-7.74-2.51q-3.54-2.51-6.32-8.42l-11.33-23.68h9.57q8.84,18.51,9.77,20.36a18.38,18.38,0,0,0,2.51,3.71,4.61,4.61,0,0,0,3.54,1.86q5,0,5-8.84V656.36a9.56,9.56,0,0,1-3.47.59,9,9,0,0,1-6.59-2.71,8.79,8.79,0,0,1-2.73-6.47,9.42,9.42,0,0,1,9.33-9.33,12.33,12.33,0,0,1,9.23,3.54q3.47,3.54,3.47,9.55Zm-12.79-27.2a3.59,3.59,0,0,0,2.56-1,3.36,3.36,0,0,0,1.1-2.51,3.73,3.73,0,0,0-1.07-2.71,3.49,3.49,0,0,0-2.59-1.1,3.54,3.54,0,0,0-2.64,1.1,3.72,3.72,0,0,0-1.07,2.71,3.36,3.36,0,0,0,1.1,2.51A3.65,3.65,0,0,0,1257.3,651.33Z"/>
    <path class="cls-2"
          d="M1331.62,694.44h-9.23V662.95q0-15.92-14.4-15.92-6.88,0-10.64,4.08t-3.76,10.82a49.66,49.66,0,0,0,2.2,13.72,40.93,40.93,0,0,1,4.49-12.35q2.88-4.83,8-4.83a9,9,0,0,1,6.57,2.73,9.14,9.14,0,0,1,0,13.06,9,9,0,0,1-6.59,2.71,8.29,8.29,0,0,1-4.49-1.22q-6.1,6.15-6.1,18.7h-9.18v-4.2a71,71,0,0,0-1.86-12.89A79.88,79.88,0,0,1,1284.5,662q0-10.6,6.08-17.14t17.41-6.54q23.63,0,23.63,24.61Zm-23.24-23.1a3.61,3.61,0,0,0,2.61-1.07,3.43,3.43,0,0,0,1.1-2.54A3.73,3.73,0,0,0,1311,665a3.55,3.55,0,0,0-2.64-1.1,3.49,3.49,0,0,0-2.59,1.1,3.72,3.72,0,0,0-1.07,2.71,3.43,3.43,0,0,0,1.1,2.54A3.55,3.55,0,0,0,1308.37,671.35Z"/>
    <path class="cls-2"
          d="M1330.64,714.66h-5.32v-5.81a6,6,0,0,1-4.32-1.71,5.38,5.38,0,0,1-1.78-4,5.53,5.53,0,0,1,1.64-4.08,5.42,5.42,0,0,1,4-1.64,5.67,5.67,0,0,1,4.1,1.66,5.43,5.43,0,0,1,1.71,4.05Zm-5.91-9.81a1.67,1.67,0,0,0,1.17-.51,1.6,1.6,0,0,0,.54-1.2,1.69,1.69,0,1,0-1.71,1.71Z"/>
    <path class="cls-2"
          d="M1410.82,676.62a12,12,0,0,1,7.64,3.3,9.31,9.31,0,0,1,2.66,6.71,8.16,8.16,0,0,1-2.49,6.27,9.43,9.43,0,0,1-6.69,2.32,10.11,10.11,0,0,1-7.52-2.81q-2.78-2.81-2.78-8v-1.37q-7,2-12.11,11.38h-8.59V662.95q0-8.84-3.17-12.38T1368,647q-10.3,0-12.4,8.4h9.28v6.49q-8.69,3.27-8.69,14.4v1a9.7,9.7,0,0,1,3.52-.59,9,9,0,0,1,6.54,2.69,8.77,8.77,0,0,1,2.73,6.49,9.38,9.38,0,0,1-9.28,9.28,12.44,12.44,0,0,1-9.28-3.52q-3.47-3.52-3.47-9.57v-4.2q0-12.74,8.64-15.58H1346V662q0-10.69,5.71-17.19t16.31-6.49q11.52,0,16.8,5.83t5.27,18.77v22.61q4.93-6.83,11.52-8.5V639.85h9.18Zm-51.07,13.13a3.49,3.49,0,0,0,2.59-1.1,3.73,3.73,0,0,0,1.07-2.71,3.44,3.44,0,0,0-1.1-2.54,3.55,3.55,0,0,0-2.56-1.07,3.61,3.61,0,0,0-2.61,1.07,3.44,3.44,0,0,0-1.1,2.54,3.72,3.72,0,0,0,1.07,2.71A3.54,3.54,0,0,0,1359.74,689.75Zm55.66-3.12q0-3.86-4.59-4.49v3.81q0,3.81,2.39,3.81Q1415.41,689.75,1415.41,686.63Z"/>
    <path class="cls-2"
          d="M1453.34,677.35a9.31,9.31,0,0,1,3.47-.59,9.09,9.09,0,0,1,6.57,2.69,8.73,8.73,0,0,1,2.76,6.49,9.34,9.34,0,0,1-9.33,9.28,12.38,12.38,0,0,1-9.23-3.52q-3.47-3.52-3.47-9.57v-33.3a16.51,16.51,0,0,1,1-6.18,30.77,30.77,0,0,1,3-5.4,21.28,21.28,0,0,0,2.73-5.18,12.83,12.83,0,0,0,.54-3.56q0-8-6.74-8a3.57,3.57,0,0,0-2,.49,9,9,0,0,1,4,7.47,8.85,8.85,0,0,1-2.73,6.52,9.24,9.24,0,0,1-15.77-6.62,13.29,13.29,0,0,1,4.57-10.5q4.56-4,11.94-4,7,0,11.33,4a13.68,13.68,0,0,1,4.3,10.5,17.54,17.54,0,0,1-.66,4.61,32.18,32.18,0,0,1-3.1,6.71q-3.13,5.42-3.12,8.69Zm-16-45.12a3.57,3.57,0,0,0,2.61-1.1,3.68,3.68,0,0,0,1.1-2.71,3.36,3.36,0,0,0-1.1-2.51,3.78,3.78,0,0,0-5.22,0,3.36,3.36,0,0,0-1.1,2.51,3.68,3.68,0,0,0,1.1,2.71A3.57,3.57,0,0,0,1437.33,632.24Zm19.48,57.52a3.57,3.57,0,0,0,2.61-1.1,3.68,3.68,0,0,0,1.1-2.71,3.44,3.44,0,0,0-1.1-2.54,3.71,3.71,0,0,0-5.22,0,3.44,3.44,0,0,0-1.1,2.54,3.68,3.68,0,0,0,1.1,2.71A3.57,3.57,0,0,0,1456.81,689.75Z"/>
    <path class="cls-2"
          d="M1528.1,694.44h-9.18v-26.9q0-5.71-1.71-7.37-10.25,9.81-22.9,34.28h-9.18V656.26a9.71,9.71,0,0,1-3.52.59,9,9,0,0,1-6.57-2.71,8.75,8.75,0,0,1-2.76-6.47,9.38,9.38,0,0,1,9.33-9.33,12.33,12.33,0,0,1,9.23,3.54q3.47,3.54,3.47,9.55v30.52q9.67-17.63,18.9-26a8.79,8.79,0,0,1-3.32-3.44,9.61,9.61,0,0,1-1.27-4.76,9.4,9.4,0,0,1,18.8,0,8.79,8.79,0,0,1-4.88,8.3q5.57,2.93,5.57,11.77Zm-46.48-43.21a3.65,3.65,0,0,0,2.61-1,3.36,3.36,0,0,0,1.1-2.51,3.66,3.66,0,0,0-1.1-2.73,3.61,3.61,0,0,0-2.61-1.07A3.57,3.57,0,0,0,1479,645a3.68,3.68,0,0,0-1.1,2.71,3.36,3.36,0,0,0,1.1,2.51A3.65,3.65,0,0,0,1481.62,651.23Zm36.38.1a3.65,3.65,0,0,0,2.61-1,3.36,3.36,0,0,0,1.1-2.51,3.73,3.73,0,0,0-1.07-2.71A3.55,3.55,0,0,0,1518,644a3.49,3.49,0,0,0-2.59,1.1,3.72,3.72,0,0,0-1.07,2.71,3.39,3.39,0,0,0,1.07,2.51A3.57,3.57,0,0,0,1518,651.33Z"/>
    <path class="cls-2"
          d="M1527.76,619.1q-6.4,13.18-25.93,16.06l2.39-5.27a5.37,5.37,0,0,1-3.52-1.93,5.91,5.91,0,0,1,.22-7.81,5.34,5.34,0,0,1,7.79,0,5.62,5.62,0,0,1,1.61,4,8.38,8.38,0,0,1-2,5.71q8.11-2.1,13.23-10.79Zm-22.9,6.79a1.59,1.59,0,0,0,1.15-.51,1.65,1.65,0,0,0,0-2.39,1.59,1.59,0,0,0-1.15-.51,1.71,1.71,0,0,0,0,3.42Z"/>
    <path class="cls-2"
          d="M1598.9,694.44H1588q0-4.69-7.71-26.37-4-11.13-4.79-14.21-.83,3.08-4.79,14.21-7.72,21.68-7.71,26.37h-10.89V656.26a9.71,9.71,0,0,1-3.52.59,9,9,0,0,1-6.57-2.71,8.75,8.75,0,0,1-2.76-6.47,9.38,9.38,0,0,1,9.33-9.33,12.33,12.33,0,0,1,9.23,3.54q3.47,3.54,3.47,9.55v27.44q0-2,4.88-15.53,7.23-19.87,7.23-24.07h4.2q0,4.15,7,23.54,5.08,13.92,5.08,16.06v-39h9.18Zm-50.29-43.21a3.65,3.65,0,0,0,2.61-1,3.36,3.36,0,0,0,1.1-2.51,3.66,3.66,0,0,0-1.1-2.73,3.61,3.61,0,0,0-2.61-1.07A3.57,3.57,0,0,0,1546,645a3.68,3.68,0,0,0-1.1,2.71,3.36,3.36,0,0,0,1.1,2.51A3.65,3.65,0,0,0,1548.61,651.23Z"/>
    <path class="cls-2"
          d="M1661.89,694.44h-46v-8.69h8V656.26a9.71,9.71,0,0,1-3.52.59,9,9,0,0,1-6.54-2.71,8.79,8.79,0,0,1-2.73-6.47,9.34,9.34,0,0,1,9.28-9.33,12.32,12.32,0,0,1,9.25,3.54q3.44,3.54,3.44,9.55v34.33h19.63v-45.9h9.18Zm-41.5-43.21a3.65,3.65,0,0,0,2.61-1,3.36,3.36,0,0,0,1.1-2.51A3.73,3.73,0,0,0,1623,645a3.55,3.55,0,0,0-2.64-1.1,3.49,3.49,0,0,0-2.59,1.1,3.72,3.72,0,0,0-1.07,2.71,3.39,3.39,0,0,0,1.07,2.51A3.57,3.57,0,0,0,1620.39,651.23Z"/>
</svg>