<svg id="Слой_1" data-name="Слой 1" xmlns="http://www.w3.org/2000/svg" viewBox="0 0 2097.48 1156.5">
    <defs>
        <style>.cls-1{fill:#fff;stroke:#00c5db;stroke-miterlimit:10;stroke-width:10px;}.cls-2{fill:#00c5db;}</style>
    </defs>
    <title>cloud1r-en</title>
    <path class="cls-1"
          d="M1669.62,477.41a121,121,0,0,0-74.22,25.33c-20.29-107-114.21-187.86-227.07-187.86-1.56,0-3.1.08-4.66.12-28-175.7-180.16-310-363.74-310-181.37,0-332,131.11-362.62,303.7a230.59,230.59,0,0,0-174.63-79.78c-127.68,0-231.19,103.51-231.19,231.19,0,1.64.09,3.26.12,4.9A184.45,184.45,0,1,0,294,796.47C318.8,904,415.09,984.23,530.18,984.23a241.91,241.91,0,0,0,186.43-87.47,242.15,242.15,0,0,0,200.2,105.72c100.25,0,186.29-60.86,223.19-147.64a182.83,182.83,0,0,0,254.35-59.73A142.77,142.77,0,0,0,1668,720.5h1.58a121.55,121.55,0,1,0,0-243.09Z"/>
    <circle class="cls-1" cx="1884.15" cy="905.07" r="92.96"/>
    <circle class="cls-1" cx="2048.53" cy="1107.55" r="43.95"/>
    <path class="cls-2"
          d="M451.86,532.3v28.4h-9.1V490.2h22.4q12.1,0,18.1,5.65t6,15.45q0,9.9-6.2,15.45t-17.9,5.55Zm24.45-11.1q3.65-3.5,3.65-9.9,0-6.6-3.65-10t-12-3.45h-12.5v26.9h12.5Q472.66,524.7,476.31,521.2Z"/>
    <path class="cls-2"
          d="M516.86,508a23.48,23.48,0,0,1,12.4-3.15v9.9h-2.8q-7.7,0-12.6,4t-4.9,13v28.9h-9.1V505.8H509v11.1A20.2,20.2,0,0,1,516.86,508Z"/>
    <path class="cls-2"
          d="M588.36,535.2h-43.9q.3,9.4,5.35,14.1a17.45,17.45,0,0,0,12.35,4.7,17.84,17.84,0,0,0,11-3.35,13.85,13.85,0,0,0,5.45-9h9.7A22.92,22.92,0,0,1,575,558.9a29.64,29.64,0,0,1-12.4,2.5,28.26,28.26,0,0,1-14-3.4,24,24,0,0,1-9.55-9.75,34.23,34.23,0,0,1,0-30,24,24,0,0,1,9.55-9.8,28.28,28.28,0,0,1,14-3.4,27.65,27.65,0,0,1,13.95,3.4,23.42,23.42,0,0,1,9.1,9.1,25.61,25.61,0,0,1,3.15,12.6A27.18,27.18,0,0,1,588.36,535.2Zm-10.8-14.6a14.64,14.64,0,0,0-6.3-6.1,19.19,19.19,0,0,0-8.7-2,18,18,0,0,0-12.6,4.65q-5.1,4.65-5.5,13.65h35.1A18.69,18.69,0,0,0,577.56,520.6Z"/>
    <path class="cls-2"
          d="M632.81,509.95a20.44,20.44,0,0,1,6.85,13H631a12.6,12.6,0,0,0-4.05-8q-3.45-3.15-9.25-3.15-4.9,0-7.65,2.35a7.92,7.92,0,0,0-2.75,6.35,6.56,6.56,0,0,0,1.85,4.85,11.84,11.84,0,0,0,4.6,2.8,76.32,76.32,0,0,0,7.55,2,74.68,74.68,0,0,1,9.85,2.85,15.45,15.45,0,0,1,6.4,4.65q2.65,3.2,2.65,8.6a13.51,13.51,0,0,1-5,10.9q-5.05,4.2-13.45,4.2-9.8,0-16-4.7a18.74,18.74,0,0,1-7.3-13.1h8.8a11.45,11.45,0,0,0,4.35,8.1q3.85,3.1,10.15,3.1a10.55,10.55,0,0,0,7.35-2.4,8.1,8.1,0,0,0,2.65-6.3,6.9,6.9,0,0,0-1.9-5.1,12.49,12.49,0,0,0-4.7-2.9,69.19,69.19,0,0,0-7.7-2.1,74.77,74.77,0,0,1-9.75-2.8,14.92,14.92,0,0,1-6.2-4.45,12.46,12.46,0,0,1-2.55-8.25,13.81,13.81,0,0,1,5.1-11.15q5.1-4.25,13.9-4.25Q627.16,505.1,632.81,509.95Z"/>
    <path class="cls-2"
          d="M702.46,535.2h-43.9q.3,9.4,5.35,14.1a17.45,17.45,0,0,0,12.35,4.7,17.84,17.84,0,0,0,11-3.35,13.85,13.85,0,0,0,5.45-9h9.7a22.92,22.92,0,0,1-13.4,17.2,29.64,29.64,0,0,1-12.4,2.5,28.26,28.26,0,0,1-14-3.4,24,24,0,0,1-9.55-9.75,34.23,34.23,0,0,1,0-30,24,24,0,0,1,9.55-9.8,28.28,28.28,0,0,1,14-3.4,27.65,27.65,0,0,1,13.95,3.4,23.42,23.42,0,0,1,9.1,9.1,25.61,25.61,0,0,1,3.15,12.6A27.18,27.18,0,0,1,702.46,535.2Zm-10.8-14.6a14.64,14.64,0,0,0-6.3-6.1,19.19,19.19,0,0,0-8.7-2,18,18,0,0,0-12.6,4.65q-5.1,4.65-5.5,13.65h35.1A18.69,18.69,0,0,0,691.66,520.6Z"/>
    <path class="cls-2"
          d="M759.16,511q5.9,6.15,5.9,17.75v31.9H756V529.6q0-8.2-4.2-12.6t-11.4-4.4q-7.5,0-12,4.85t-4.5,14.15v29.1h-9.1V505.8h9.1v13a18.71,18.71,0,0,1,7.45-10.3,21.6,21.6,0,0,1,12.35-3.6Q753.26,504.9,759.16,511Z"/>
    <path class="cls-2"
          d="M805.26,552.7v8h-6.8q-8.4,0-12.55-4t-4.15-13.4V513.7h-8.2v-7.9h8.2V492.1H791v13.7h14.2v7.9H791v29.8q0,5.3,1.95,7.25t6.75,2Z"/>
    <path class="cls-2" d="M844.86,505.8l17.8,43.2,16.5-43.2h10.1l-32.6,80.9h-10.3l11.4-26.9-23.1-54Z"/>
    <path class="cls-2"
          d="M936.61,508.5a24.35,24.35,0,0,1,9.8,9.8,33.36,33.36,0,0,1,0,30,24.41,24.41,0,0,1-9.8,9.75,31.14,31.14,0,0,1-28.3,0,24.73,24.73,0,0,1-9.85-9.75,32.95,32.95,0,0,1,0-30,24.66,24.66,0,0,1,9.85-9.8,31.15,31.15,0,0,1,28.3,0Zm-23.2,6.8a16.55,16.55,0,0,0-6.7,6.75,22.74,22.74,0,0,0-2.55,11.25,22.51,22.51,0,0,0,2.55,11.15,16.53,16.53,0,0,0,6.7,6.75,19.71,19.71,0,0,0,18.1,0,16.54,16.54,0,0,0,6.7-6.75,22.51,22.51,0,0,0,2.55-11.15A22.75,22.75,0,0,0,938.21,522a16.56,16.56,0,0,0-6.7-6.75,19.72,19.72,0,0,0-18.1,0Z"/>
    <path class="cls-2"
          d="M1010.66,505.8v54.9h-9.1V547.8A18.47,18.47,0,0,1,994.11,558a22,22,0,0,1-12.45,3.55q-9.5,0-15.4-6.15t-5.9-17.65v-32h9.1v31.1q0,8.2,4.2,12.65t11.4,4.45q7.5,0,12-4.85t4.5-14.15V505.8Z"/>
    <path class="cls-2"
          d="M1042.25,508a23.48,23.48,0,0,1,12.4-3.15v9.9h-2.8q-7.7,0-12.6,4t-4.9,13v28.9h-9.1V505.8h9.1v11.1A20.19,20.19,0,0,1,1042.25,508Z"/>
    <path class="cls-2"
          d="M1095.8,509.95a20.44,20.44,0,0,1,6.85,13H1094a12.6,12.6,0,0,0-4-8q-3.45-3.15-9.25-3.15-4.9,0-7.65,2.35a7.92,7.92,0,0,0-2.75,6.35,6.56,6.56,0,0,0,1.85,4.85,11.84,11.84,0,0,0,4.6,2.8,76.35,76.35,0,0,0,7.55,2,74.69,74.69,0,0,1,9.85,2.85,15.45,15.45,0,0,1,6.4,4.65q2.65,3.2,2.65,8.6a13.52,13.52,0,0,1-5,10.9q-5.05,4.2-13.45,4.2-9.8,0-16-4.7a18.74,18.74,0,0,1-7.3-13.1h8.8a11.45,11.45,0,0,0,4.35,8.1q3.85,3.1,10.15,3.1a10.56,10.56,0,0,0,7.35-2.4,8.1,8.1,0,0,0,2.65-6.3,6.9,6.9,0,0,0-1.9-5.1,12.49,12.49,0,0,0-4.7-2.9,69.19,69.19,0,0,0-7.7-2.1,74.77,74.77,0,0,1-9.75-2.8,14.92,14.92,0,0,1-6.2-4.45,12.45,12.45,0,0,1-2.55-8.25,13.81,13.81,0,0,1,5.1-11.15q5.1-4.25,13.9-4.25Q1090.15,505.1,1095.8,509.95Z"/>
    <path class="cls-2"
          d="M1165.45,535.2h-43.9q.3,9.4,5.35,14.1a17.45,17.45,0,0,0,12.35,4.7,17.84,17.84,0,0,0,11-3.35,13.85,13.85,0,0,0,5.45-9h9.7a22.92,22.92,0,0,1-13.4,17.2,29.64,29.64,0,0,1-12.4,2.5,28.26,28.26,0,0,1-14-3.4,24,24,0,0,1-9.55-9.75,34.22,34.22,0,0,1,0-30,24,24,0,0,1,9.55-9.8,28.28,28.28,0,0,1,14-3.4,27.65,27.65,0,0,1,14,3.4,23.42,23.42,0,0,1,9.1,9.1,25.61,25.61,0,0,1,3.15,12.6A27.19,27.19,0,0,1,1165.45,535.2Zm-10.8-14.6a14.64,14.64,0,0,0-6.3-6.1,19.19,19.19,0,0,0-8.7-2,18,18,0,0,0-12.6,4.65q-5.1,4.65-5.5,13.65h35.1A18.68,18.68,0,0,0,1154.65,520.6Z"/>
    <path class="cls-2" d="M1186.85,486.7v74h-9.1v-74Z"/>
    <path class="cls-2"
          d="M1215.6,495.3q-2.85,2.6-2.85,9v1.5h13v8h-13v46.9h-9.1V513.8h-7.9v-8h7.9v-2.2q0-19.7,22.1-18.8v8Q1218.45,492.7,1215.6,495.3Z"/>
    <path class="cls-2"
          d="M1299.4,508.5a24.35,24.35,0,0,1,9.8,9.8,33.36,33.36,0,0,1,0,30,24.41,24.41,0,0,1-9.8,9.75,31.14,31.14,0,0,1-28.3,0,24.72,24.72,0,0,1-9.85-9.75,32.94,32.94,0,0,1,0-30,24.66,24.66,0,0,1,9.85-9.8,31.15,31.15,0,0,1,28.3,0Zm-23.2,6.8a16.55,16.55,0,0,0-6.7,6.75A22.74,22.74,0,0,0,1267,533.3a22.51,22.51,0,0,0,2.55,11.15,16.53,16.53,0,0,0,6.7,6.75,19.71,19.71,0,0,0,18.1,0,16.54,16.54,0,0,0,6.7-6.75,22.51,22.51,0,0,0,2.55-11.15A22.74,22.74,0,0,0,1301,522a16.56,16.56,0,0,0-6.7-6.75,19.72,19.72,0,0,0-18.1,0Z"/>
    <path class="cls-2"
          d="M1369.05,511q5.9,6.15,5.9,17.75v31.9h-9.1V529.6q0-8.2-4.2-12.6t-11.4-4.4q-7.5,0-12,4.85t-4.5,14.15v29.1h-9.1V505.8h9.1v13a18.71,18.71,0,0,1,7.45-10.3,21.6,21.6,0,0,1,12.35-3.6Q1363.15,504.9,1369.05,511Z"/>
    <path class="cls-2"
          d="M665,672.7v8h-6.8q-8.4,0-12.55-4t-4.15-13.4V633.7h-8.2v-7.9h8.2V612.1h9.2v13.7h14.2v7.9h-14.2v29.8q0,5.3,1.95,7.25t6.75,2Z"/>
    <path class="cls-2"
          d="M720.51,631q5.9,6.15,5.9,17.75v31.9h-9.1V649.6q0-8.2-4.2-12.6t-11.4-4.4q-7.5,0-12,4.85t-4.5,14.15v29.1h-9.1v-74h9.1v32.1a18.71,18.71,0,0,1,7.45-10.3A21.6,21.6,0,0,1,705,624.9Q714.61,624.9,720.51,631Z"/>
    <path class="cls-2"
          d="M790.51,655.2h-43.9q.3,9.4,5.35,14.1a17.45,17.45,0,0,0,12.35,4.7,17.84,17.84,0,0,0,11-3.35,13.85,13.85,0,0,0,5.45-9h9.7a22.92,22.92,0,0,1-13.4,17.2,29.64,29.64,0,0,1-12.4,2.5,28.26,28.26,0,0,1-14-3.4,24,24,0,0,1-9.55-9.75,34.23,34.23,0,0,1,0-30,24,24,0,0,1,9.55-9.8,28.28,28.28,0,0,1,14-3.4,27.65,27.65,0,0,1,13.95,3.4,23.42,23.42,0,0,1,9.1,9.1,25.61,25.61,0,0,1,3.15,12.6A27.18,27.18,0,0,1,790.51,655.2Zm-10.8-14.6a14.64,14.64,0,0,0-6.3-6.1,19.19,19.19,0,0,0-8.7-2,18,18,0,0,0-12.6,4.65q-5.1,4.65-5.5,13.65h35.1A18.69,18.69,0,0,0,779.71,640.6Z"/>
    <path class="cls-2" d="M836.61,610.2v70.5h-9.1V610.2Z"/>
    <path class="cls-2"
          d="M895.61,631q5.9,6.15,5.9,17.75v31.9h-9.1V649.6q0-8.2-4.2-12.6t-11.4-4.4q-7.5,0-12,4.85t-4.5,14.15v29.1h-9.1V625.8h9.1v13a18.71,18.71,0,0,1,7.45-10.3,21.6,21.6,0,0,1,12.35-3.6Q889.71,624.9,895.61,631Z"/>
    <path class="cls-2"
          d="M941.71,672.7v8h-6.8q-8.4,0-12.55-4t-4.15-13.4V633.7H910v-7.9h8.2V612.1h9.2v13.7h14.2v7.9h-14.2v29.8q0,5.3,1.95,7.25t6.75,2Z"/>
    <path class="cls-2"
          d="M1002.91,655.2H959q.3,9.4,5.35,14.1a17.45,17.45,0,0,0,12.35,4.7,17.84,17.84,0,0,0,11.05-3.35,13.85,13.85,0,0,0,5.45-9h9.7a22.93,22.93,0,0,1-13.4,17.2,29.64,29.64,0,0,1-12.4,2.5,28.26,28.26,0,0,1-14-3.4,24,24,0,0,1-9.55-9.75,34.23,34.23,0,0,1,0-30,24,24,0,0,1,9.55-9.8,28.28,28.28,0,0,1,14-3.4,27.65,27.65,0,0,1,13.95,3.4,23.43,23.43,0,0,1,9.1,9.1,25.61,25.61,0,0,1,3.15,12.6A27.2,27.2,0,0,1,1002.91,655.2Zm-10.8-14.6a14.65,14.65,0,0,0-6.3-6.1,19.18,19.18,0,0,0-8.7-2,18,18,0,0,0-12.6,4.65q-5.1,4.65-5.5,13.65h35.1A18.69,18.69,0,0,0,992.11,640.6Z"/>
    <path class="cls-2"
          d="M1032.21,628a23.48,23.48,0,0,1,12.4-3.15v9.9h-2.8q-7.7,0-12.6,4t-4.9,13v28.9h-9.1V625.8h9.1v11.1A20.19,20.19,0,0,1,1032.21,628Z"/>
    <path class="cls-2"
          d="M1098,631q5.9,6.15,5.9,17.75v31.9h-9.1V649.6q0-8.2-4.2-12.6t-11.4-4.4q-7.5,0-12,4.85t-4.5,14.15v29.1h-9.1V625.8h9.1v13a18.71,18.71,0,0,1,7.45-10.3,21.6,21.6,0,0,1,12.35-3.6Q1092.1,624.9,1098,631Z"/>
    <path class="cls-2"
          d="M1168,655.2h-43.9q.3,9.4,5.35,14.1a17.45,17.45,0,0,0,12.35,4.7,17.84,17.84,0,0,0,11-3.35,13.85,13.85,0,0,0,5.45-9h9.7a22.92,22.92,0,0,1-13.4,17.2,29.64,29.64,0,0,1-12.4,2.5,28.26,28.26,0,0,1-14-3.4,24,24,0,0,1-9.55-9.75,34.22,34.22,0,0,1,0-30,24,24,0,0,1,9.55-9.8,28.28,28.28,0,0,1,14-3.4,27.65,27.65,0,0,1,14,3.4,23.42,23.42,0,0,1,9.1,9.1,25.61,25.61,0,0,1,3.15,12.6A27.19,27.19,0,0,1,1168,655.2Zm-10.8-14.6a14.64,14.64,0,0,0-6.3-6.1,19.19,19.19,0,0,0-8.7-2,18,18,0,0,0-12.6,4.65q-5.1,4.65-5.5,13.65h35.1A18.68,18.68,0,0,0,1157.2,640.6Z"/>
    <path class="cls-2"
          d="M1206.5,672.7v8h-6.8q-8.4,0-12.55-4T1183,663.3V633.7h-8.2v-7.9h8.2V612.1h9.2v13.7h14.2v7.9h-14.2v29.8q0,5.3,2,7.25t6.75,2Z"/>
</svg>