<svg id="Слой_1" data-name="Слой 1" xmlns="http://www.w3.org/2000/svg" viewBox="0 0 2097.48 1156.5">
    <defs>
        <style>.cls-1{fill:#fff;stroke:#00c5db;stroke-miterlimit:10;stroke-width:10px;}.cls-2{fill:#00c5db;}</style>
    </defs>
    <title>cloud2l-en</title>
    <path class="cls-1"
          d="M427.86,477.41a121,121,0,0,1,74.23,25.33c20.29-107,114.21-187.86,227.07-187.86,1.56,0,3.1.08,4.66.12C761.82,139.3,914,5,1097.56,5c181.37,0,332,131.11,362.62,303.7a230.59,230.59,0,0,1,174.62-79.78c127.69,0,231.2,103.5,231.2,231.19,0,1.64-.09,3.26-.12,4.9a184.87,184.87,0,0,1,42.12-4.9c101.9,0,184.48,82.58,184.48,184.45S2009.9,829,1908,829a183.56,183.56,0,0,1-104.56-32.54C1778.63,904,1682.35,984.23,1567.26,984.23a241.91,241.91,0,0,1-186.43-87.47,242.15,242.15,0,0,1-200.2,105.72c-100.25,0-186.29-60.86-223.19-147.64a182.79,182.79,0,0,1-254.31-59.73,142.83,142.83,0,0,1-273.7-74.63h-1.58a121.53,121.53,0,1,1,0-243.07Z"/>
    <circle class="cls-1" cx="213.33" cy="905.07" r="92.96"/>
    <circle class="cls-1" cx="48.95" cy="1107.55" r="43.95"/>
    <path class="cls-2" d="M850,550.12v7.4H819.2v24.4h26.1V589H819.2v31.6h-9.1v-70.5Z"/>
    <path class="cls-2"
          d="M860.9,545.57a7.31,7.31,0,0,1,9,0,5.68,5.68,0,0,1,0,8.1,7.31,7.31,0,0,1-9,0,5.67,5.67,0,0,1,0-8.1Zm9,20.15v54.9h-9.1v-54.9Z"/>
    <path class="cls-2"
          d="M928.9,571q5.9,6.15,5.9,17.75v31.9h-9.1v-31.1q0-8.2-4.2-12.6t-11.4-4.4q-7.5,0-12,4.85t-4.5,14.15v29.1h-9.1v-54.9h9.1v13a18.7,18.7,0,0,1,7.45-10.3,21.6,21.6,0,0,1,12.35-3.6Q923,564.82,928.9,571Z"/>
    <path class="cls-2"
          d="M984.85,569a20.85,20.85,0,0,1,7.75,10.7v-33.1h9.1v74h-9.1v-14a20.84,20.84,0,0,1-7.75,10.7,22.55,22.55,0,0,1-13.55,4,24.87,24.87,0,0,1-13-3.4,23.5,23.5,0,0,1-9-9.75,36.12,36.12,0,0,1,0-29.95,23.46,23.46,0,0,1,9-9.8,24.89,24.89,0,0,1,13-3.4A22.56,22.56,0,0,1,984.85,569Zm-24.4,9.45q-5.05,5.35-5,14.75t5,14.75q5,5.35,13.45,5.35a18.67,18.67,0,0,0,9.65-2.5,17.4,17.4,0,0,0,6.65-7,22.29,22.29,0,0,0,2.4-10.55,22.59,22.59,0,0,0-2.4-10.6,17,17,0,0,0-6.65-7,19,19,0,0,0-9.65-2.45Q965.5,573.12,960.45,578.47Z"/>
    <path class="cls-2" d="M1044.7,565.72l17.8,43.2,16.5-43.2h10.1l-32.6,80.9h-10.3l11.4-26.9-23.1-54Z"/>
    <path class="cls-2"
          d="M1136.45,568.42a24.35,24.35,0,0,1,9.8,9.8,33.37,33.37,0,0,1,0,29.95,24.41,24.41,0,0,1-9.8,9.75,31.14,31.14,0,0,1-28.3,0,24.73,24.73,0,0,1-9.85-9.75,32.95,32.95,0,0,1,0-29.95,24.67,24.67,0,0,1,9.85-9.8,31.15,31.15,0,0,1,28.3,0Zm-23.2,6.8a16.55,16.55,0,0,0-6.7,6.75,22.75,22.75,0,0,0-2.55,11.25,22.52,22.52,0,0,0,2.55,11.15,16.53,16.53,0,0,0,6.7,6.75,19.71,19.71,0,0,0,18.1,0,16.53,16.53,0,0,0,6.7-6.75,22.5,22.5,0,0,0,2.55-11.15A22.73,22.73,0,0,0,1138,582a16.55,16.55,0,0,0-6.7-6.75,19.71,19.71,0,0,0-18.1,0Z"/>
    <path class="cls-2"
          d="M1210.49,565.72v54.9h-9.1v-12.9a18.47,18.47,0,0,1-7.45,10.25,22,22,0,0,1-12.45,3.55q-9.5,0-15.4-6.15t-5.9-17.65v-32h9.1v31.1q0,8.2,4.2,12.65t11.4,4.45q7.5,0,12-4.85t4.5-14.15v-29.2Z"/>
    <path class="cls-2"
          d="M1242.09,568a23.48,23.48,0,0,1,12.4-3.15v9.9h-2.8q-7.7,0-12.6,3.95t-4.9,13.05v28.9h-9.1v-54.9h9.1v11.1A20.18,20.18,0,0,1,1242.09,568Z"/>
    <path class="cls-2" d="M1297.29,546.62v74h-9.1v-74Z"/>
    <path class="cls-2"
          d="M1312,545.57a7.31,7.31,0,0,1,9,0,5.68,5.68,0,0,1,0,8.1,7.31,7.31,0,0,1-9,0,5.68,5.68,0,0,1,0-8.1Zm9,20.15v54.9h-9.1v-54.9Z"/>
    <path class="cls-2"
          d="M1349.74,555.22q-2.85,2.6-2.85,9v1.5h13v8h-13v46.9h-9.1v-46.9h-7.9v-8h7.9v-2.2q0-19.7,22.1-18.8v8Q1352.59,552.62,1349.74,555.22Z"/>
    <path class="cls-2"
          d="M1419.89,595.12H1376q.3,9.4,5.35,14.1a17.45,17.45,0,0,0,12.35,4.7,17.84,17.84,0,0,0,11.05-3.35,13.85,13.85,0,0,0,5.45-9h9.7a22.93,22.93,0,0,1-13.4,17.2,29.64,29.64,0,0,1-12.4,2.5,28.26,28.26,0,0,1-14-3.4,24,24,0,0,1-9.55-9.75,34.23,34.23,0,0,1,0-29.95,24,24,0,0,1,9.55-9.8,28.28,28.28,0,0,1,14-3.4,27.65,27.65,0,0,1,13.95,3.4,23.43,23.43,0,0,1,9.1,9.1,25.62,25.62,0,0,1,3.15,12.6A27.19,27.19,0,0,1,1419.89,595.12Zm-10.8-14.6a14.65,14.65,0,0,0-6.3-6.1,19.19,19.19,0,0,0-8.7-2,18,18,0,0,0-12.6,4.65q-5.1,4.65-5.5,13.65h35.1A18.69,18.69,0,0,0,1409.09,580.52Z"/>
    <path class="cls-2"
          d="M1475.49,568.42a23.47,23.47,0,0,1,9,9.8,36.12,36.12,0,0,1,0,29.95,23.51,23.51,0,0,1-9,9.75,24.87,24.87,0,0,1-13,3.4,22.35,22.35,0,0,1-13.55-4,20.57,20.57,0,0,1-7.65-10.65v14h-9.1v-74h9.1v33.1a20.57,20.57,0,0,1,7.65-10.65,22.35,22.35,0,0,1,13.55-4.05A24.89,24.89,0,0,1,1475.49,568.42Zm-25.2,7.15a16.91,16.91,0,0,0-6.7,7,22.57,22.57,0,0,0-2.4,10.6,22.27,22.27,0,0,0,2.4,10.55,17.29,17.29,0,0,0,6.7,7,18.74,18.74,0,0,0,9.6,2.5q8.5,0,13.55-5.35t5-14.75q0-9.4-5-14.75t-13.55-5.35A19,19,0,0,0,1450.29,575.57Z"/>
    <path class="cls-2" d="M1508.69,546.62v74h-9.1v-74Z"/>
    <path class="cls-2"
          d="M1562.34,568.42a24.35,24.35,0,0,1,9.8,9.8,33.35,33.35,0,0,1,0,29.95,24.41,24.41,0,0,1-9.8,9.75,31.14,31.14,0,0,1-28.3,0,24.71,24.71,0,0,1-9.85-9.75,32.93,32.93,0,0,1,0-29.95,24.65,24.65,0,0,1,9.85-9.8,31.14,31.14,0,0,1,28.3,0Zm-23.2,6.8a16.54,16.54,0,0,0-6.7,6.75,22.73,22.73,0,0,0-2.55,11.25,22.5,22.5,0,0,0,2.55,11.15,16.52,16.52,0,0,0,6.7,6.75,19.71,19.71,0,0,0,18.1,0,16.55,16.55,0,0,0,6.7-6.75,22.52,22.52,0,0,0,2.55-11.15,22.75,22.75,0,0,0-2.55-11.25,16.56,16.56,0,0,0-6.7-6.75,19.71,19.71,0,0,0-18.1,0Z"/>
    <path class="cls-2"
          d="M1626.64,568.42a24.35,24.35,0,0,1,9.8,9.8,33.35,33.35,0,0,1,0,29.95,24.41,24.41,0,0,1-9.8,9.75,31.14,31.14,0,0,1-28.3,0,24.71,24.71,0,0,1-9.85-9.75,32.93,32.93,0,0,1,0-29.95,24.65,24.65,0,0,1,9.85-9.8,31.14,31.14,0,0,1,28.3,0Zm-23.2,6.8a16.54,16.54,0,0,0-6.7,6.75,22.73,22.73,0,0,0-2.55,11.25,22.5,22.5,0,0,0,2.55,11.15,16.52,16.52,0,0,0,6.7,6.75,19.71,19.71,0,0,0,18.1,0,16.55,16.55,0,0,0,6.7-6.75,22.52,22.52,0,0,0,2.55-11.15,22.75,22.75,0,0,0-2.55-11.25,16.56,16.56,0,0,0-6.7-6.75,19.71,19.71,0,0,0-18.1,0Z"/>
    <path class="cls-2"
          d="M1687.94,569a20.86,20.86,0,0,1,7.75,10.7v-33.1h9.1v74h-9.1v-14a20.85,20.85,0,0,1-7.75,10.7,22.56,22.56,0,0,1-13.55,4,24.88,24.88,0,0,1-13-3.4,23.51,23.51,0,0,1-8.95-9.75,36.12,36.12,0,0,1,0-29.95,23.47,23.47,0,0,1,8.95-9.8,24.9,24.9,0,0,1,13-3.4A22.57,22.57,0,0,1,1687.94,569Zm-24.4,9.45q-5.05,5.35-5,14.75t5,14.75q5,5.35,13.45,5.35a18.67,18.67,0,0,0,9.65-2.5,17.39,17.39,0,0,0,6.65-7,22.29,22.29,0,0,0,2.4-10.55,22.59,22.59,0,0,0-2.4-10.6,17,17,0,0,0-6.65-7,19,19,0,0,0-9.65-2.45Q1668.59,573.12,1663.54,578.47Z"/>
    <path class="cls-2" d="M1726,609.92v10.7h-11v-10.7Z"/>
</svg>