<svg id="Слой_1" data-name="Слой 1" xmlns="http://www.w3.org/2000/svg" viewBox="0 0 2097.48 1156.5">
    <defs>
        <style>.cls-1{fill:#fff;stroke:#00c5db;stroke-miterlimit:10;stroke-width:10px;}.cls-2{fill:#00c5db;}</style>
    </defs>
    <title>cloud1l-en</title>
    <path class="cls-1"
          d="M427.86,477.41a121,121,0,0,1,74.23,25.33c20.29-107,114.21-187.86,227.07-187.86,1.56,0,3.1.08,4.66.12C761.82,139.3,914,5,1097.56,5c181.37,0,332,131.11,362.62,303.7a230.59,230.59,0,0,1,174.62-79.78c127.69,0,231.2,103.5,231.2,231.19,0,1.64-.09,3.26-.12,4.9a184.87,184.87,0,0,1,42.12-4.9c101.9,0,184.48,82.58,184.48,184.45S2009.9,829,1908,829a183.56,183.56,0,0,1-104.56-32.54C1778.63,904,1682.35,984.23,1567.26,984.23a241.91,241.91,0,0,1-186.43-87.47,242.15,242.15,0,0,1-200.2,105.72c-100.25,0-186.29-60.86-223.19-147.64a182.79,182.79,0,0,1-254.31-59.73,142.83,142.83,0,0,1-273.7-74.63h-1.58a121.53,121.53,0,1,1,0-243.07Z"/>
    <circle class="cls-1" cx="213.33" cy="905.07" r="92.96"/>
    <circle class="cls-1" cx="48.95" cy="1107.55" r="43.95"/>
    <path class="cls-2"
          d="M1040.25,560.7a17,17,0,0,1,4,11.3q0,8.6-5.85,13.8t-17,5.2H995.3V520.5h25.8q10.6,0,16.1,4.7t5.5,12.9q0,6.8-3.65,11a16.54,16.54,0,0,1-9.35,5.4A18.47,18.47,0,0,1,1040.25,560.7Zm-35.85-9.3h15.2q6.7,0,10.25-3.1t3.55-8.7a10.78,10.78,0,0,0-3.5-8.5q-3.5-3.1-10.7-3.1h-14.8ZM1031,580.1q3.95-3.3,4-9.3a11.35,11.35,0,0,0-4.05-9.25q-4-3.35-11.25-3.35h-15.2v25.2h15.4Q1027,583.4,1031,580.1Z"/>
    <path class="cls-2"
          d="M1072.7,538.35a23.48,23.48,0,0,1,12.4-3.15v9.9h-2.8q-7.7,0-12.6,3.95t-4.9,13V591h-9.1V536.1h9.1v11.1A20.19,20.19,0,0,1,1072.7,538.35Z"/>
    <path class="cls-2"
          d="M1142.9,536.1V591h-9.1V578.1a18.47,18.47,0,0,1-7.45,10.25,22,22,0,0,1-12.45,3.55q-9.5,0-15.4-6.15t-5.9-17.65v-32h9.1v31.1q0,8.2,4.2,12.65t11.4,4.45q7.5,0,12-4.85t4.5-14.15V536.1Z"/>
    <path class="cls-2"
          d="M1189.65,540.25a20.44,20.44,0,0,1,6.85,13h-8.7a12.6,12.6,0,0,0-4-8q-3.45-3.15-9.25-3.15-4.9,0-7.65,2.35a7.92,7.92,0,0,0-2.75,6.35,6.56,6.56,0,0,0,1.85,4.85,11.84,11.84,0,0,0,4.6,2.8,76.35,76.35,0,0,0,7.55,2,74.69,74.69,0,0,1,9.85,2.85,15.45,15.45,0,0,1,6.4,4.65q2.65,3.2,2.65,8.6a13.52,13.52,0,0,1-5,10.9q-5.05,4.2-13.45,4.2-9.8,0-16-4.7a18.74,18.74,0,0,1-7.3-13.1h8.8a11.45,11.45,0,0,0,4.35,8.1q3.85,3.1,10.15,3.1a10.56,10.56,0,0,0,7.35-2.4,8.1,8.1,0,0,0,2.65-6.3,6.9,6.9,0,0,0-1.9-5.1,12.49,12.49,0,0,0-4.7-2.9,69.19,69.19,0,0,0-7.7-2.1,74.77,74.77,0,0,1-9.75-2.8,14.92,14.92,0,0,1-6.2-4.45,12.45,12.45,0,0,1-2.55-8.25,13.81,13.81,0,0,1,5.1-11.15q5.1-4.25,13.9-4.25Q1184,535.4,1189.65,540.25Z"/>
    <path class="cls-2"
          d="M1253.6,541.35q5.9,6.15,5.9,17.75V591h-9.1V559.9q0-8.2-4.2-12.6t-11.4-4.4q-7.5,0-12,4.85t-4.5,14.15V591h-9.1V517h9.1v32.1a18.7,18.7,0,0,1,7.45-10.3,21.6,21.6,0,0,1,12.35-3.6Q1247.7,535.2,1253.6,541.35Z"/>
    <path class="cls-2"
          d="M1347,536.1V591h-9.1V578.1a18.47,18.47,0,0,1-7.45,10.25A22,22,0,0,1,1318,591.9q-9.5,0-15.4-6.15t-5.9-17.65v-32h9.1v31.1q0,8.2,4.2,12.65t11.4,4.45q7.5,0,12-4.85t4.5-14.15V536.1Z"/>
    <path class="cls-2"
          d="M1404.89,538.8a23.46,23.46,0,0,1,9,9.8,36.12,36.12,0,0,1,0,29.95,23.5,23.5,0,0,1-9,9.75,24.88,24.88,0,0,1-13,3.4,22.36,22.36,0,0,1-13.55-4,20.57,20.57,0,0,1-7.65-10.65v40h-9.1V536.1h9.1v14a20.57,20.57,0,0,1,7.65-10.65,22.36,22.36,0,0,1,13.55-4.05A24.9,24.9,0,0,1,1404.89,538.8Zm-25.2,7.15a16.91,16.91,0,0,0-6.7,7,22.58,22.58,0,0,0-2.4,10.6,22.28,22.28,0,0,0,2.4,10.55,17.29,17.29,0,0,0,6.7,7,18.74,18.74,0,0,0,9.6,2.5q8.5,0,13.55-5.35t5-14.75q0-9.4-5-14.75t-13.55-5.35A19,19,0,0,0,1379.69,546Z"/>
    <path class="cls-2" d="M1442.59,580.3V591h-11.1V580.3Zm-.6-61.5-1.3,51.5h-7.5l-1.3-51.5Z"/>
</svg>