<svg id="Слой_1" data-name="Слой 1" xmlns="http://www.w3.org/2000/svg" viewBox="0 0 2097.48 1156.5">
    <defs>
        <style>
            .cls-1{fill:#fff;stroke:#00c5db;stroke-miterlimit:10;stroke-width:10px;}.cls-2{font-size:100px;fill:#00c5db;font-family:Tahoma,
            Tahoma;}
        </style>
    </defs>
    <title>cloud2r-th</title>
    <path class="cls-1"
          d="M1669.62,477.41a121,121,0,0,0-74.22,25.33c-20.29-107-114.21-187.86-227.07-187.86-1.56,0-3.1.08-4.66.12-28-175.7-180.16-310-363.74-310-181.37,0-332,131.11-362.62,303.7a230.59,230.59,0,0,0-174.63-79.78c-127.68,0-231.19,103.51-231.19,231.19,0,1.64.09,3.26.12,4.9A184.45,184.45,0,1,0,294,796.47C318.8,904,415.09,984.23,530.18,984.23a241.91,241.91,0,0,0,186.43-87.47,242.15,242.15,0,0,0,200.2,105.72c100.25,0,186.29-60.86,223.19-147.64a182.83,182.83,0,0,0,254.35-59.73A142.77,142.77,0,0,0,1668,720.5h1.58a121.55,121.55,0,1,0,0-243.09Z"/>
    <circle class="cls-1" cx="1884.15" cy="905.07" r="92.96"/>
    <circle class="cls-1" cx="2048.53" cy="1107.55" r="43.95"/>
    <text class="cls-2" transform="translate(448.3 603)">ดูแลโลกภายในของคุณ</text>
</svg>