<svg id="Layer_1" data-name="Layer 1" xmlns="http://www.w3.org/2000/svg" viewBox="0 0 1781.1 1235.91">
    <defs>
        <style>
            .cls-1,.cls-11,.cls-12,.cls-13,.cls-14,.cls-2,.cls-3,.cls-4,.cls-5{stroke:#000;stroke-linecap:round;stroke-linejoin:round;stroke-width:8px;}.cls-2{fill:#e3e5e4;}.cls-3{fill:none;}.cls-4{fill:#372e49;}.cls-5,.cls-7{fill:#d9d9d9;}.cls-6,.cls-8,.cls-9{fill:#fff;}.cls-8{opacity:0.6;}.cls-8,.cls-9{isolation:isolate;}.cls-9{opacity:0.1;}.cls-10{fill:#282828;}.cls-11{fill:#96957d;}.cls-12{fill:#717f7f;}.cls-13{fill:#39a033;}.cls-14{fill:#474f4f;}
        </style>
    </defs>
    <title>conflict</title>
    <g id="Layer_3" data-name="Layer 3">
        <path class="cls-1"
              d="M618,666.41c3.91.61,6.61,4.08,12,11,3.24,4.16,12.24,16.07,12,33a50,50,0,0,1-2,13,59.3,59.3,0,0,1-13,24c-6.1,6.8-9.29,10.36-14,11-11.74,1.59-26.62-15.8-30-33C577.35,696.43,603.55,664.13,618,666.41Z"
              transform="translate(0 0)"/>
        <path class="cls-1"
              d="M196.05,427.41c-8.41,15.21,11.79,41.85,21,54,18.9,24.92,28,18.89,68,53,24.41,20.81,34.27,34.34,55,36,4.42.35,17.9,1.44,27-7,13.56-12.57,7.87-37.43,5-50-8.29-36.25-32.31-58.65-36-62C289.26,408.91,209,404,196.05,427.41Z"
              transform="translate(0 0)"/>
        <path class="cls-2"
              d="M210.05,429.41c7.44-.65,7.45,24.69,32,46a122.54,122.54,0,0,0,38,22c10.4,3.36,17.24,3.63,28,10a70.75,70.75,0,0,1,19,16c7.51,9.11,13.91,21.84,17,28,3.58,7.13,7,14,7,14s4.31-8.08,5-12a62.57,62.57,0,0,0,0-20c-1.27-9.33-2.46-11.09-4-20a161.1,161.1,0,0,1-2-20c-2.12-34.31-8.31-45.26-4-48,7.38-4.69,34.77,21.58,53,49,9.58,14.41,19.29,29,23,51,1.52,9,8.41,49.83-17,74-12.82,12.2-28.35,14.92-35,16-50.72,8.22-95.74-35.44-119-58-22.37-21.7-46.81-46-53-84C192.91,461.91,201.83,430.13,210.05,429.41Z"
              transform="translate(0 0)"/>
        <path class="cls-3" d="M351,565.41a123,123,0,0,1,18,43" transform="translate(0 0)"/>
        <path class="cls-4"
              d="M432,487.41c2-1,3.37.69,27,16,18.77,12.16,20.76,12.93,27,18a122.52,122.52,0,0,1,22,22c5.27,7,7.82,12.2,21,42,6.54,14.8,9.74,22.16,11,25,6.9,15.59,15.69,30.94,33,61,28,48.66,23.25,36.8,40,65a109.2,109.2,0,0,0,14,19,127.15,127.15,0,0,0,13,12c4.77,4.13,19.61,17,27,37a80,80,0,0,1,3,42,83.26,83.26,0,0,1-9,24c-4.81,8.89-8.51,15.73-15,20-12.64,8.3-32.16,4.43-44-3-20.49-12.86-16.78-35.61-30-78-15.12-48.46-40.2-83.52-50-97-24.88-34.21-38.06-37.92-54-71-5.2-10.8-9.54-26-18-56C424.41,494.53,429.69,488.59,432,487.41Z"
              transform="translate(0 0)"/>
        <path class="cls-4"
              d="M477,573.41c3,11.38,4.64,14.91,8,26a384,384,0,0,1,10,42c9.77,49.06,40.61,114.52,57,203,8.76,47.31,11.08,88.74,13,123,2,35.53,2,63.34,2,82,0,27.89-.78,96.5-4,112a42.16,42.16,0,0,0-1,13c.43,5.15,1.6,6.83,2,11,.67,6.89-1.56,12-3,16-5.2,14.24-6,30.5-6,30.5H145s-15.68-2.67-15-7.5c.5-3.55,8.7-2.84,11-8,3.42-7.68-10.49-18.82-7-24,1.82-2.69,6.24-.68,9-4,.57-.69,2.88-3.78,0-13-3.56-11.41-9-12.81-14-23a52.51,52.51,0,0,1-5-23c-.15-10.7,2.88-13.57,4-25,1.09-11.12-.72-19.22-2-26-5.6-29.66-6.22-60-10-90-3.57-28.3-6.61-56.67-10-85-.75-6.27-14.55-122-26-236-3.07-30.54,2.22-61.94-4-92-2.18-10.51-7.61-33.07,3-53,3-5.63,7.49-11.46,11-16,4.74-6.14,10.45-12.83,25-27,5.53-5.38,13-12.25,28-26,33.2-30.46,26.07-23,28-25,7-7.23,9.45-10.71,12-10,5.81,1.61.8,21.86,4,42,6.31,39.66,42.5,66.22,64,82,7.46,5.48,21,13,48,28,3,1.64,1.52.83,50,25,18.31,9.13,20.07,10,23,9,15.08-5.25,15.87-45.21,17-103v-5c-.7-24.62-11.22-37.39-8-40,2.31-1.87,8.32,4.19,28,16,11.18,6.71,11.59,6.16,19,11,10.56,6.89,20.5,11.5,29.5,19.5"
              transform="translate(0 0)"/>
        <path class="cls-3"
              d="M266,560.41c9.42,7,21.15,15.25,35,24s24.35,14.54,38,22c24.62,13.46,37,20.17,41,19,22-6.45,27.34-65.27,21-107-.71-4.67-1.47-8.49-2-11"
              transform="translate(0 0)"/>
        <path class="cls-2"
              d="M409,554.41c-.42.11-1.63-7.41-8-20-4.11-8.13-9.1-17.76-19-26-2.74-2.28-15.41-12.83-22-9-4.29,2.49-7,8-8,15-2-5-6.11-15.86-9-22-14-29.71-36.75-36.55-34-44,3-8,33.72-12,57,2C409.25,476.31,410.38,554.07,409,554.41Z"
              transform="translate(0 0)"/>
        <path class="cls-2"
              d="M286,580.41c1.24-1.34-3.7-6.19-6-16-1.42-6.06-1-10.71,0-20,1.28-12.51,3.77-19.36,8-31,1.54-4.23,2.87-7.37,6-9,5.56-2.9,17,5,20,7a68,68,0,0,0-19-16c-10.13-5.44-17.31-7.26-22-9-11-4.1-17.3-11.25-27-22-6.57-7.28-17.56-19.45-23-38-3.61-12.3-1.52-16.3-6-20-9.44-7.79-31.25-.32-44,12-2.73,2.64-13.7,13.12-15,29a40.86,40.86,0,0,0,2,16c9.71,30.44,52.36,65,95,98C258.55,564.1,283.41,583.25,286,580.41Z"
              transform="translate(0 0)"/>
        <path class="cls-1"
              d="M465,750.41c-5.4-7.15-.87-12.2,0-46,.5-19.55-.86-23.73,2-35a87.77,87.77,0,0,1,12-27,86.5,86.5,0,0,1,24-24c6.38-4.22,14.36-9.39,26-11,5.55-.77,12.88-1.78,21,2a32,32,0,0,1,15,15,33.36,33.36,0,0,1,3,15c-.33,38.28-18,70-18,70-13.31,23.89-24.2,43.44-46,49C491.79,761.54,473.06,761,465,750.41Z"
              transform="translate(0 0)"/>
        <path class="cls-1"
              d="M492,773.41c-17-9.27,32.86-111.65,35-116,3.28-6.67,10.6-21,26-29a40.65,40.65,0,0,1,22-5c3.24.23,15.26,1.09,24,11a33.33,33.33,0,0,1,8,20c.61,9.33-2.77,16.54-5,21-12.33,24.63-22.42,44.79-46,64-8.69,7.08-20.46,13.39-44,26C495.65,774.2,493.67,774.29,492,773.41Z"
              transform="translate(0 0)"/>
        <path class="cls-1"
              d="M542,769.41c14.87,5.21,27.8,3.09,34,2,7-1.24,12.62-2.3,17-7,5.82-6.24,5.92-15,6-22,.06-4.79.13-11.25-3-18-6-12.88-19.43-17.72-23-19-26.64-9.58-66.52,7.94-68,28C503.88,749.34,527.12,764.18,542,769.41Z"
              transform="translate(0 0)"/>
        <path class="cls-1"
              d="M582,665.41c3.55-2.68,16.18-12.24,31-8s20.38,18.81,22,23c1.23,3.18,6.11,16.37,0,30-3.55,7.92-9.13,12.23-14,16-7.27,5.62-18.2,14.07-30,12-15.79-2.77-26.75-23.25-26-41C565.87,678,580.44,666.63,582,665.41Z"
              transform="translate(0 0)"/>
        <path class="cls-2"
              d="M391,826.41c4.48-6.82,13.75-8,30-10,10.54-1.31,25.59-3.19,42,4,3.35,1.47,32.45,14.64,33,36,.27,10.45-6.4,19-15,30-2.22,2.84-7.81,8.23-19,19-14,13.44-16,14.9-19,15-7.82.27-13.9-9.24-23-25C396.86,855.27,385.38,835,391,826.41Z"
              transform="translate(0 0)"/>
        <path class="cls-1"
              d="M254.05,788.41c1.67-10.24,11.8-17.85,32-33,9.72-7.3,17.82-13.37,30-18,12.77-4.85,23.16-5.51,41-6,33.51-.91,50.26-1.37,69,0,17.43,1.27,35.62,4.52,72,11,24,4.28,32.62,6.37,41,14,15.13,13.78,16.62,33.89,17,39,1.76,23.72-9.4,51.27-34,66-16.73,10-31.83,7.14-67,3-108.06-12.71-125.65-5.9-160-27C286.63,832.24,250.55,810.06,254.05,788.41Z"
              transform="translate(0 0)"/>
        <path class="cls-4"
              d="M653,855.41c.47,10.37,1,24.86-7,40-2.77,5.28-6.69,12.74-15,18-3,1.93-6.09,3.19-27,8-8.88,2-13.33,3.07-18,4-20.82,4.16-31.22,6.24-37,6-8.66-.37-20.1-5.58-43-16-17.21-7.84-20.56-10.92-23-14-3-3.82-5.44-8.63-12-14-.52-.43-1-.82-1.54-1.2,7.44.93,16.65,1.76,21.54,2.2,6.37.58,24.6,2,44-8,17.89-9.23,26.79-23,32-31s12.93-20,14-37c.7-11.18-1.77-20-4-28-2.89-10.33-11.09-25.87-15.83-34.24,1.74-1.85,11.83,1.24,11.83,1.24,18.34,5.62,30,14,30,14A116.85,116.85,0,0,1,653,855.41Z"
              transform="translate(0 0)"/>
        <path class="cls-2"
              d="M577,784.41c2.23,8,4.7,16.82,4,28-1.07,17-8.86,29.07-14,37s-14.11,21.77-32,31c-19.4,10-37.63,8.58-44,8-4.89-.44-14.1-1.27-21.54-2.2a81,81,0,0,0-7.46-4.8,190.76,190.76,0,0,0-17-9c-16.2-7.86-27.9-30.06-25-33,2.38-2.41,12.81,9.93,36,16,7.76,2,16.74,4.28,28,2a50.28,50.28,0,0,0,27-15c9.13-10,11.14-20.89,13-31,1.78-9.68,4.26-23.13-2-38-6-14.15-16.55-21.85-21-25-17.41-12.32-32-11-35-12s24.62-7.7,48-4c0,0,27.35,4.32,41,16l7,6a10.52,10.52,0,0,1-1-3.41,1.34,1.34,0,0,1,.1-.56.81.81,0,0,1,.17-.24C566,758.54,574.16,774.08,577,784.41Z"
              transform="translate(0 0)"/>
        <path class="cls-3"
              d="M571,757.41c12.46,9.14,18.28,19.17,21,25,12,25.76,2,52-3,65-3.09,8.09-7.45,19.14-18,30a76,76,0,0,1-33,20c-23.6,6.57-43.23-1.89-44,1-.57,2.16,10.22,7.75,21,10,11.82,2.47,21.37.47,28-1s15.13-3.44,24-10a53.06,53.06,0,0,0,11-11"
              transform="translate(0 0)"/>
        <path class="cls-3"
              d="M593,769.41a89.86,89.86,0,0,1,17,24c6.19,12.8,7.63,23.65,9,34,1.16,8.78,2.65,20.74,0,36a103.19,103.19,0,0,1-6,21"
              transform="translate(0 0)"/>
        <path class="cls-3" d="M525,913.41a56,56,0,0,0,46,4" transform="translate(0 0)"/>
        <path class="cls-3" d="M607,823.41a148,148,0,0,1-1,30c-2.15,15.72-4.25,29.74-15,41a46.53,46.53,0,0,1-12,9"
              transform="translate(0 0)"/>
        <path class="cls-3" d="M603,760.41a63,63,0,0,1,25,13,61.77,61.77,0,0,1,15,19,60.37,60.37,0,0,1,6,20"
              transform="translate(0 0)"/>
        <path class="cls-4"
              d="M116.55,477.91c-4,3-15.45,11.68-34.5,27.5-11.84,9.84-20.79,17.27-30,30a131.52,131.52,0,0,0-23,55c-4.07,25.06.59,44.47,5,62,6.08,24.18,13.5,37.13,27,65,8,16.46,19.32,42.64,42,95,29.9,69,29.21,73.69,41,91,0,0,27.29,45.78,70,65a20.91,20.91,0,0,0,9,2c11.47-.18,20.16-10.87,26-19,16.24-22.62,25.43-46.39,31-62,0,0,15.71-44,11-69-1.3-6.91-5.06-12.69-8-14a11.68,11.68,0,0,0-5.23-1.22c-1.45.12-2.48.62-2.77.22-.41-.59,1.51-1.92,2-4,.58-2.5-1.2-4.89-2-6-7.59-10.43-28.09-42.84-33-51-4.78-7.94-2.72-6.06-8-15-12.64-21.43-21.61-27.44-26-44-1.25-4.73-1.18-6.71-2-13-4.65-35.58-19-63.5-24-73"
              transform="translate(0 0)"/>
        <path class="cls-3" d="M149.05,604.41a167,167,0,0,1,53,71" transform="translate(0 0)"/>
        <path class="cls-3" d="M218.05,642.41a115.58,115.58,0,0,1,7,30c.93,10,0,15.4-3,20a21.73,21.73,0,0,1-6,6"
              transform="translate(0 0)"/>
        <path class="cls-4"
              d="M227.05,908.41c-4.43,24.7,2,27.94-2,48-.67,3.37-2.63,12.24,2,19a15.6,15.6,0,0,0,7,6c4.8,1.9,8-.25,12,2,3.08,1.71,4.28,4.65,5,6,5.62,10.56,29.4,13,39,14,17,1.76,29.51,0,44-2,20.62-2.87,30.93-4.31,37-11,1.32-1.45,4.5-5.4,10-7,4.13-1.2,6.65-.23,11,0a39.78,39.78,0,0,0,21-5c10-5.68,14.34-15.46,15-17,4.2-9.81,2.23-18.08,7-20,2.86-1.15,4.85,1.3,8,0,4.12-1.7,5.41-7.8,6-12,2.32-16.42-2-32.43-3-36-3.13-11.24-7.07-25-17-41a127.62,127.62,0,0,0-21-26c-8.72-8.06-15.44-11.75-25-17-8.6-4.72-16.46-8-20-5-2,1.65-2,4.68-4,5s-2.73-2.82-6-4c-3.83-1.38-6.14,1.78-12,2-3.11.12-3.26-.74-9-2s-11.53-2.53-18-1c-2.81.66-7.78,1.84-11,6-3.47,4.49-3,10-4,10-1.29,0-.26-10.17-4-12-4.63-2.27-14.58,9.18-17,12"
              transform="translate(0 0)"/>
        <path class="cls-3"
              d="M159.05,807.41a321.84,321.84,0,0,0,53,3c5.16-.15,15.26-.57,24-1,26-1.26,37.77-2.41,38-1,.16,1-5.17,2-16,6-10.34,3.85-19.88,7.4-29,14a73.11,73.11,0,0,0-16,16"
              transform="translate(0 0)"/>
        <path class="cls-3"
              d="M276,811.41a108.85,108.85,0,0,0-20,15,119.13,119.13,0,0,0-16,19,151.88,151.88,0,0,0-24,53"
              transform="translate(0 0)"/>
        <path class="cls-3"
              d="M252.05,873.41a175.72,175.72,0,0,1,13-19c14.52-18.48,16.6-13.44,31-30,.85-1,1.82-2.12,3-2,6,.58,8.64,32.17,7,57a183.38,183.38,0,0,1-7,40,176.35,176.35,0,0,1-12,30"
              transform="translate(0 0)"/>
        <path class="cls-3" d="M344,811.41a119.23,119.23,0,0,1,20,19,124.51,124.51,0,0,1,21,37,127.67,127.67,0,0,1,7,31"
              transform="translate(0 0)"/>
        <path class="cls-3"
              d="M374,982.41a52.25,52.25,0,0,0,9-11c1.56-2.56,4.09-7.2,7-18,3.89-14.43,3.94-23,5-23s2.29,9.9,2,20a107.14,107.14,0,0,1-4,26"
              transform="translate(0 0)"/>
        <path class="cls-3"
              d="M368,810.41a89.22,89.22,0,0,1,28,24c9.9,13,13.52,25.25,16,34a124.52,124.52,0,0,1,4,45,141.28,141.28,0,0,1-9,40"
              transform="translate(0 0)"/>
        <path class="cls-3" d="M149.05,1172.41a72.63,72.63,0,0,0,12,4,84,84,0,0,0,18,2,135.09,135.09,0,0,0,26-2"
              transform="translate(0 0)"/>
        <path class="cls-3"
              d="M148.05,1193.41a311.43,311.43,0,0,0,36,4c6.94.36,34.84,1.6,75-5,23.25-3.82,41.5-9.21,78-20,32.38-9.57,48.58-14.36,62-21,27.73-13.73,47.49-30.35,60-41a355.32,355.32,0,0,0,33-32"
              transform="translate(0 0)"/>
        <path class="cls-3"
              d="M229.05,1204.41c16.19,2.46,37.64,5.2,63,7a778.71,778.71,0,0,0,92,1c42.69-1.71,57.53-5.25,67-8,23.58-6.84,38.65-15.94,42-18a156,156,0,0,0,42-38"
              transform="translate(0 0)"/>
        <path class="cls-1"
              d="M261,65.41c.56-5.32,7.69-3.85,27-20,15.21-12.72,14.84-17,27-25a92.73,92.73,0,0,1,33-13c8.37-1.58,22.3-4,39,1a78.6,78.6,0,0,1,47,41c6.74,14.81,6.37,27.72,6,41a132.1,132.1,0,0,1-7,38c-3.11,9.14-6.21,14.92-10,22-5.47,10.21-8.29,15.33-12,16-8.63,1.55-18.43-17-22-23C356.2,87.81,259,84.91,261,65.41Z"
              transform="translate(0 0)"/>
        <path class="cls-5"
              d="M4.05,335.41c.56-.94,4.6,1.88,11,2,7.4.14,13-3.42,17-6s11.41-8.29,18-21,7.87-23.78,9-33c3.54-29,6.65-51.51,7-54,2.55-18.26,5.78-41.36,18-67a169.76,169.76,0,0,1,36-50c18.84-17.69,37-26.13,50-32,6-2.73,31.29-13.84,67-18,13.27-1.55,37.8-4.2,69,2a204.08,204.08,0,0,1,70,28c10.39,6.67,24.22,15.71,38,32,18.36,21.72,25.89,43.64,31,59a250.1,250.1,0,0,1,10,44c2.54,17,4.39,39.52,5,47,1.58,19.23,2.58,17.11,5,34,.69,4.83,1.92,13.47,8,21,3.9,4.83,7.58,6.45,9,7a21.34,21.34,0,0,0,11,1c7.34-1.12,10.58-5.17,12-4,1.76,1.45-1.66,8.9-5,14-2.88,4.4-8.79,13.42-19,16-4.51,1.14-8.83.76-9,2-.13,1,2.42,1.42,6,4a30.29,30.29,0,0,1,8,9c1.9,2.93,4.16,6.4,3,8-.61.84-1.72.56-4,1s-3.83,1.29-7,3c-6.12,3.3-6,4.43-11,7-3.12,1.6-5.58,2.83-9,3a19.66,19.66,0,0,1-7-1,27.13,27.13,0,0,1,12,4,19.89,19.89,0,0,1,6,6c1.39,2,2.61,3.8,2,5-.83,1.63-4.37.82-9,1-3.85.15-6.9,1.1-13,3-1.9.59-10.42,3.32-17,9-.78.67-2.36,2.1-2,3s2.24.49,6,1a19.21,19.21,0,0,1,7,2c1.7.93,4.38,2.88,4,4s-3,.67-7,1a75.76,75.76,0,0,0-10,2c-7,1.72-13.39,5.44-19,9-10.77,6.85-17.19,12.19-21,15-16.9,12.47-36,14.63-48,16a133.51,133.51,0,0,1-45-3c-3.94-1-13.62-3.64-33-9-7.41-2-13.45-3.74-22-4-5.12-.15-11.49-.34-19,2-12.31,3.84-19,11.81-21,10-.72-.66-.14-2.77,1-7a33.92,33.92,0,0,1,3-8c3.26-5.92,7.5-8.19,7-9s-4.51,1.64-10,3c-6,1.47-10.67.92-18,0-9.4-1.19-9.29-2.48-19-4-8.65-1.35-13.68-2.14-20-1-10.7,1.94-16.26,7.82-18,6-1.25-1.31.84-5.16,4-11,3.05-5.63,5-9.17,9-12,4.65-3.26,9.1-3.47,9-4-.14-.78-9.41,1.29-21,1a101.89,101.89,0,0,1-25-4,182.94,182.94,0,0,1-20-7c-5.34-2.32-8.76-4.21-14-4-5.73.23-9.53,2.81-10,2-.62-1.07,5.81-5.87,10-9,5.6-4.18,8.4-6.27,12-8,8.05-3.87,14-3.8,14-5s-6-1.58-14-3c-7.37-1.3-15.26-2.7-23-6-8.26-3.52-13.75-8.11-22-15-5.76-4.81-5.22-5.06-13-12C11.55,342.27,3.26,336.75,4.05,335.41Z"
              transform="translate(0 0)"/>
        <path class="cls-6"
              d="M157.05,108.41c-10.34,9.25-20.47,18.48-29,34-9,16.36-11.25,30.72-15,56-3.52,23.74-1.51,26-6,58-3.28,23.38-6.07,34.4-13,46a82.3,82.3,0,0,1-19,22c-4.92,3.93-12.6,10-24,13-13.51,3.5-23.16.19-24,3-.57,1.9,3.63,4.18,15,12,17.67,12.14,17.51,13.5,25,17,5.35,2.5,10.9,4,22,7,11.55,3.12,17.33,4.68,24,5,5.59.27,9.71-.18,10,1s-3.27,3.08-12,7c-19,8.52-27.26,10.68-27,13,.15,1.36,3.09,1.72,13,4,13.3,3.06,10.72,3,20,5,13.47,2.85,20.21,4.28,26,4,13.65-.65,21.51-6.33,23-4,1.59,2.49-6.33,10.61-10,14-6.84,6.31-12.5,8.74-12,10s7-1.53,17-1c4.77.25,5,1,15,3,9.42,1.88,14.34,2.87,21,3a63.4,63.4,0,0,0,19-2c8.7-2.38,14.21-6.14,15-5,.43.62-.9,2.13-5,7-8.48,10.09-9.37,11.46-9,12,.82,1.19,7-3,14-5,11.5-3.37,21.47,0,31,3,23.88,7.45,39.09,12.19,55,14,13.85,1.58,29.48,3.36,46-4,14.29-6.36,14.09-12.81,31-20s33.16-7.67,33-10c-.13-1.91-11.14-1.32-12-5-.78-3.35,7.41-8,11-10,15.45-8.72,26.65-8.2,27-12,.28-3.07-6.75-6.69-12-8-6.81-1.7-11.6.23-12-1-.49-1.51,6.23-6,14-8,5.43-1.38,6.47-.28,12-2s5.54-3.22,11-5c7.84-2.56,12.15-.88,13-3,1.17-2.91-5.94-8.56-9-11-7.27-5.78-12.32-7.06-12-9,.19-1.15,2.09-1.54,13-4,6.76-1.52,10.2-2.32,13-4,3.44-2.07,7.81-5.91,7-8s-6-.45-12-2c-8.33-2.14-13.22-9.06-16-13-7.86-11.13-7.74-23.62-8-34,0,0-.12-4.87-5-53-2.31-22.78-4.67-46-16-71a165.88,165.88,0,0,0-31-45c-31.28-32.54-67.2-43.51-86-49-23.28-6.8-51.19-15-86-7C194.72,74.71,171,95.91,157.05,108.41Z"
              transform="translate(0 0)"/>
        <path class="cls-1"
              d="M183.05,106.41c-10.33,6.58-17.64,11.31-25,20-4,4.76-9.12,10.76-12,20-2.81,9-.36,11-3,22-1.6,6.68-3.53,14.76-10,22-2.85,3.19-12.22,12.53-25,12-5.08-.21-10.2-2-16-6-22.61-15.76-30-48.59-33-63-4.41-20.84-7.77-36.76-2-57,2.37-8.31,8.72-29.43,29-44,21.4-15.38,44.85-13.81,57-13,9.64.65,23.76,6.1,52,17,16.27,6.28,27.86,11.6,33,23,1.06,2.35,3,6.77,2,12-1.12,6-5.52,10.36-21,20C195.08,100.11,193.55,99.74,183.05,106.41Z"
              transform="translate(0 0)"/>
        <path class="cls-7"
              d="M210.05,260.41a47,47,0,0,1,6.92-19c10.57-17.73,27.84-24.9,42.51-31,13-5.39,24.13-6.93,46.47-10,7.84-1.08,14.7-1.71,22.74,1a39.12,39.12,0,0,1,17.8,12c11.7,14.4,7.59,33.52,11.86,34,2.61.29,5.63-6.7,7.91-12,3-7,2.27-8.76,4.94-15,2.34-5.45,5.1-11.88,10.88-15,1.25-.68,6-3,17.8,0,4.52,1.15,17.06,4.89,30.65,17,6,5.38,16,14.52,21.75,30,2.74,7.45,6.21,16.86,3,28-1.16,4-4.61,13.13-13.84,19-8.8,5.6-20.17,6.52-28.67,3-4.57-1.89-5.61-4-11.86-6-2.64-.86-6.76-1.91-14.83-2-18.17-.2-25.68,4.79-30.65,0-1.68-1.62-.65-2-4-7a45.36,45.36,0,0,0-8.9-10c-4.32-3.52-8.86-7.22-12.85-6-3.36,1-4.66,5-5.93,8-4,9.38-10.67,14.7-19.77,22-13.09,10.5-29.25,10.84-36.58,11-10.33.22-32.15.68-46.47-16C207.81,281.13,209.87,261.82,210.05,260.41Z"
              transform="translate(0 0)"/>
        <path class="cls-1"
              d="M219.05,263.41a38.78,38.78,0,0,0,2,14c4.26,11.53,14.72,17.16,20,20,14.31,7.7,28.43,6.9,35,6,15.66-2.15,25.94-10,31-14a75.83,75.83,0,0,0,18-21c4.5-7.71,8.93-15.28,9-26,0-3.69.1-14.83-8-24a33.57,33.57,0,0,0-17-10c-5-1.35-10.36-1.62-20,0a128.9,128.9,0,0,0-47,18c-14.9,9.32-18.09,15.18-19,17C219,251.41,219,260.17,219.05,263.41Z"
              transform="translate(0 0)"/>
        <path class="cls-1"
              d="M378,225.41c-3.41,4.85-4.31,9.45-5,13a39.67,39.67,0,0,0,2,23,33.48,33.48,0,0,0,7,11c3.83,3.93,5.35,3.35,10,8,4.06,4.07,4.06,5.67,8,9a36.67,36.67,0,0,0,8,5c7,3.51,12.18,6.1,19,6,2,0,11.2-.16,18-7,6-6.07,6.61-13.79,7-19,.84-11.09-3-19.56-5-24-9.84-21.3-29.16-29.62-37-33s-12.23-3.68-16-3C384.55,216.11,379.11,223.91,378,225.41Z"
              transform="translate(0 0)"/>
        <path class="cls-6" d="M277,255.41l39,1s-6,18-19,18C280,274.41,277,255.41,277,255.41Z"
              transform="translate(0 0)"/>
        <path class="cls-6" d="M387,254.41l31,1s2,17-15,17C391,272.41,387,254.41,387,254.41Z"
              transform="translate(0 0)"/>
        <path class="cls-1"
              d="M348.55,301.11v10.6a11,11,0,0,0,10.79,11.2h39.75a11,11,0,0,0,10.79-11.2v-10.6a11,11,0,0,0-10.8-11.2H359.34A11,11,0,0,0,348.55,301.11Z"
              transform="translate(0 0)"/>
        <path class="cls-6"
              d="M356.21,299v4.82a5.38,5.38,0,0,0,5.63,5.09h20.71a5.38,5.38,0,0,0,5.63-5.09V299a5.38,5.38,0,0,0-5.63-5.09H361.84A5.38,5.38,0,0,0,356.21,299Z"
              transform="translate(0 0)"/>
        <path class="cls-3"
              d="M381,320.41a234.87,234.87,0,0,1-2,34,29.55,29.55,0,0,1-4,12,30.79,30.79,0,0,1-9,9c-3.22,2.32-8.41,6-16,7a33.52,33.52,0,0,1-13-1,40.11,40.11,0,0,1-18-9,41.43,41.43,0,0,1-10-14,52.76,52.76,0,0,1-5-18"
              transform="translate(0 0)"/>
        <path class="cls-3"
              d="M377,362.41c.72,1.5,4.46,8.6,8,11a17.8,17.8,0,0,0,9,3c8.61.54,15-5.3,18-8a33.13,33.13,0,0,0,8-11,32.41,32.41,0,0,0,2-19"
              transform="translate(0 0)"/>
        <path class="cls-3"
              d="M390,396.41a28.12,28.12,0,0,1,2,7c.8,5.41,0,10.92-1,11-.71.06-.68-2.79-3-6-2.45-3.39-6.62-6-8-5-1.12.79.22,3.49,1,8,1.6,9.29-.61,17.92-2,18-1.07.06-.83-5-5-10-2.92-3.51-7-5.83-8-5-.71.6.7,2.46,1,6a16.41,16.41,0,0,1-1,7"
              transform="translate(0 0)"/>
        <path class="cls-8"
              d="M189.55,485.91a166,166,0,0,0,16,20c11.14,11.91,20.54,20.28,27,26,16.68,14.78,14.25,10.59,24,20,5.8,5.6,11,11.22,13,10,1.27-.75.28-3.46,0-10a81,81,0,0,1,1-16c.76-5.34,1.49-10.4,4-16,4.93-11,12.56-14.68,11-18-.92-2-3.82-1.19-11-3-4.78-1.21-6-2.17-15-6-9.87-4.18-14.81-6.27-18-7-8.4-1.92-9,.52-24,0-10.92-.38-16.65-.65-23-4-7.43-3.92-11.17-9.67-12-9C181.37,473.85,189.11,485.27,189.55,485.91Z"
              transform="translate(0 0)"/>
        <path class="cls-8"
              d="M357.55,492.91c.54.6,3.23-2.13,7-3,5.82-1.34,11.34,2.43,15,5,11.18,7.85,14.67,17.62,16,17,1.5-.7-3.37-12.9-7-22-3.92-9.82-6.07-13.86-9-14-1.66-.08-1.9,1.19-6,4-5.85,4-8,3.27-12,7C359,489.33,357,492.34,357.55,492.91Z"
              transform="translate(0 0)"/>
        <path class="cls-8"
              d="M296.55,553.91c-1-4.52,2.23-5.2,3-14,1.08-12.29-4.57-18.91-2-21,3-2.47,13.28,5,19,10,5.52,4.88,9.53,9.94,16,20,10.9,17,18.82,29.29,16,32-1.66,1.6-5.65-1.51-19-8C306.92,561.91,298.18,561.07,296.55,553.91Z"
              transform="translate(0 0)"/>
        <path class="cls-8"
              d="M361.55,565.91c-.6-2.55,0-3.24,5-18,3.42-10.2,5.13-15.3,6-18,3-9.26,3.31-11,4-11,2.25.12,3.52,18.92,3,34-.3,8.74-.79,4.16-3,28-.39,4.21-.89,9.94-2,10s-1.2-4.8-4-11C366.67,571.32,362.86,571.46,361.55,565.91Z"
              transform="translate(0 0)"/>
        <path class="cls-8"
              d="M498.55,738.91c-.75,2.54,10,4.68,20,15,7.78,8,10.91,16.7,15,28,4.7,13,5,21.1,5,24,0,6.41.06,9.93-2,14-1.66,3.28-3.61,4.83-3,7,.71,2.56,3.86,2,8,6,2.49,2.39,2,3.24,5,6,1.92,1.79,3.51,3.26,6,4a12.57,12.57,0,0,0,9-1c4-2.14,5.6-6.27,7-11,2.52-8.52,4.65-15.7,4-27-.37-6.4-1.45-21.71-12-37a68.34,68.34,0,0,0-20-19c-5.87-3.78-12.47-6.81-13-6s6.93,5.23,14,14c8.53,10.57,11.64,21.67,11,22s-5.62-11.45-18-25c-8.76-9.59-14.36-12.51-19-14C508,736.49,499.21,736.68,498.55,738.91Z"
              transform="translate(0 0)"/>
        <path class="cls-9"
              d="M141.55,471.91c-10.88,11.09-9.77,6.56-38,29-18.08,14.37-27.12,21.56-32,28a87.46,87.46,0,0,0-16,33c-1.16,4.91-4.28,20.19,2,46,4.26,17.48,8.82,23.32,30,64,4.67,9,1.83,3.66,29,56,11.11,21.4,18.1,34.62,32,49,6.51,6.74,12.73,13,23,18,9.24,4.45,20.16,5.3,42,7,29.72,2.32,24.45-2.19,42,0,2.24.28,8.06,1.07,9-1,1-2.26-4.38-6.67-7-9-3.14-2.79-4.46-4.51-21-31-15.94-25.53-23.91-38.29-26-42-13.47-23.87-13.14-27.53-25-47-9-14.73-13.92-22.86-22-32-26.76-30.27-57.06-36.74-55-44,1.5-5.29,18.62-5.35,28-4a55.12,55.12,0,0,1,20,7c18.12,10.66,23.77,28.06,26,27,2-1-1.68-16-9-31-6.77-13.83-13.29-20.8-12-22,1.54-1.44,12.81,6.74,22,17,2.31,2.58,11,12.51,19,31,11,25.3,10.57,45.14,12,45s2.52-20.31-2-44c-3.61-18.93-8.54-28.25-7-29,2.51-1.22,19.38,21.65,28,50,6.12,20.12,9.18,30.18,6,42-1.43,5.32-4.46,12.41-2,21,1.49,5.23,3.55,5.89,8,13,9.67,15.46,7.66,24.67,14,27,4.52,1.66,8.7-1.87,16-6,10.24-5.79,19.49-8.19,38-13,13.91-3.61,25.94-4.08,50-5,4.2-.16,18-.63,36,0,24.28.86,36.42,1.28,40,3,1.24.6,5.21,2.64,8,1,2.55-1.5,2.88-5.34,3-7,1.09-14.92,1.64-22.39,1-30-.32-3.79-2.31-27.53,10-44,8.44-11.29,18.12-11.83,19-21,.58-6.09-3.56-7-7-19-2.76-9.62-.57-10.7-3-24-2.68-14.67-6.51-19.67-4-22,3.31-3.07,14.36,1.52,22,8,11.34,9.62,11.3,20.12,23,25,2.36,1,6.93,2.89,9,1,4.51-4.13-5.81-23.73-16-37-6.88-9-13.2-14.38-21-21-13.31-11.29-14.69-9.73-56-35-7.14-4.36-12.28-7.58-14-6-2.34,2.15,7.57,11,12,26,5.33,18,0,35.26-4,48-2.88,9.25-3,5.56-10,24-7.46,19.5-8.39,26.26-16,34-3.06,3.11-9.16,9.15-18,10-5,.48-8.41-1-19-6-23.36-11.11-35-16.66-41-21-6.73-4.91-12.66-10.19-14-9-1.64,1.45,6.13,10.36,4,13-3.14,3.9-25.32-9.06-32-13-13.48-8-27-16-46-32-20.15-17-32.19-27.09-44-44-21.24-30.41-25-58.74-36-58C146.83,466.09,145.46,467.91,141.55,471.91Z"
              transform="translate(0 0)"/>
        <path class="cls-9"
              d="M148.55,819.91c.8-1.65,8.2,2.42,24,4a127.6,127.6,0,0,0,24,0c16.07-1.32,27.72-5,28-4s-14.62,2.76-24,14c-7.9,9.47-10.34,23.87-6,27s14.76-4.53,21-9c11.38-8.15,17.27-16.55,18-16,.89.68-8.55,13-18,32-8.9,17.86-9.45,24.83-9,30,.91,10.48,6.27,17.22,5,18-1.45.89-11-6.47-13-17-2.58-13.5,8.64-24.62,5-28-2.46-2.28-7.56,2.81-17,1-2.51-.48-7.12-1.37-10-5-4.6-5.81-2.15-15.35,1-21,4.74-8.5,12.78-11.24,12-13s-9,2.35-19,1C157.55,832.16,147.55,822,148.55,819.91Z"
              transform="translate(0 0)"/>
        <path class="cls-9"
              d="M233.55,883.91c1.55-7.45,4.55-14,10-26a62.7,62.7,0,0,1,7.83-13.22,59.45,59.45,0,0,1,6.17-6.78c9.49-8.8,22.9-13.75,24-12,1.29,2-16.75,9.31-28,30-6,11-7.6,21.25-9,30-.64,4-2.27,14.21,0,15,1.58.55,4.1-3.76,10-12,0,0,1.16-1.62,13-17,12.36-16.06,19.53-25.36,24-24,8.14,2.48,3.84,39.22,0,58a154.58,154.58,0,0,1-12,34c-.73,1.51-7.18,14.68-9,14-1.39-.52.94-8.78,3-25,2.42-19,.86-20.56,0-21-4.54-2.33-17.09,11.84-19,14-6.34,7.16-6.69,10-9,10C238.68,931.84,228.86,906.51,233.55,883.91Z"
              transform="translate(0 0)"/>
        <path class="cls-9"
              d="M310.55,819.91c-5.45,5.84,3.25,15.53,6,40,.92,8.22,2.44,21.7-1,38-3.25,15.39-8.78,23.22-5,27,4.71,4.7,19.4-1.34,21-2,7.47-3.07,8.08-5.76,13-6,5.39-.26,9.67,2.74,17,8,9.38,6.74,10.8,10.53,14,10,6.68-1.1,8.78-19,9-21,1.68-15.25-2.61-27.18-7-39-3.23-8.7-8.33-22.07-20-36-6.43-7.68-12.87-15.17-24-19C330.26,818.78,316.14,813.91,310.55,819.91Z"
              transform="translate(0 0)"/>
        <path class="cls-9"
              d="M374.55,827.91c-.93.86,9.11,9,17,26,8.89,19.15,9.78,38.18,10,44,.49,12.88-1.26,20.75,0,21,1.65.32,7.27-12.57,8-27a71.1,71.1,0,0,0-9-37C390.85,837.35,375.66,826.91,374.55,827.91Z"
              transform="translate(0 0)"/>
        <path class="cls-9"
              d="M415.55,846.91c-1.11.57,5.29,9.43,8,26,3.64,22.21-2.25,40.45,0,41,2,.48,5.63-13.45,9-13,4.12.55,3.9,22,5,22,.87,0,3.36-13.39,1-29C434.39,866.36,417.26,846,415.55,846.91Z"
              transform="translate(0 0)"/>
        <path class="cls-9"
              d="M611.55,781.91c-1.51,1.06,11.85,15.35,17,40,1.93,9.22,4,19.22,2,32-1.21,7.69-3.58,14.26-2,15s5.65-4,8-9c3.19-6.85,2.3-13,3-13,1.27-.08,3,20,4,20,.73,0,1.83-11.54,0-25a102,102,0,0,0-13-38C622.87,791,612.83,781,611.55,781.91Z"
              transform="translate(0 0)"/>
        <path class="cls-9"
              d="M651.55,792.91c-1.18.5,2.42,7.4,4,21,.86,7.38.53,11.69,2,25,.93,8.43,1.42,10,2,10,1.4.09,3.35-8.64,4-16a56.15,56.15,0,0,0-2-23C658.55,800.48,652.87,792.35,651.55,792.91Z"
              transform="translate(0 0)"/>
        <path class="cls-9"
              d="M583.55,785.91c-1.24.44,4.27,11.22,4,26-.37,20.33-11.44,34.2-10,35,1.12.62,8.18-7.54,12-18a48,48,0,0,0,2-26C589.55,793.43,584.63,785.52,583.55,785.91Z"
              transform="translate(0 0)"/>
        <path class="cls-9"
              d="M219.55,1106.91c35-7.26,56.54.43,81,2,34.66,2.23,60.89-8.74,95-23,15.08-6.3,49.52-20.71,76-46,5.25-5,9-9.34,26-26,16.34-16,19.66-18.7,25-26,12.2-16.68,13.77-28.52,17-28,4.94.8,5.14,29.12,3,52-2,22-4,43.2-15,67-17.24,37.43-44,53.65-40,59,3,4.06,20.75-2.2,34-12,18.23-13.48,24.23-30.86,26-30s-2.75,22.11-17,42c-4.72,6.59-16.63,21.61-45,37-18.59,10.09-41.39,18.78-80,25-53.72,8.66-109.34,7.91-110,2-.44-3.92,23.75-6.61,75-26,20.61-7.8,30.91-11.7,45-19,20.78-10.77,52.37-27.56,76-60a197.27,197.27,0,0,0,19-33c1.59-3.38,12.86-27.31,10-29-2.61-1.54-13.87,17.27-35,39a304.89,304.89,0,0,1-40,34c-38.31,26.95-75.35,36.58-97,42-29.32,7.34-52.11,8.85-71,10-48.62,3-92-2-92-5,0-1.31,8.54-1.34,26-6,9.6-2.56,32.39-8.64,32-14-.13-1.74-2.67-2.88-20-8-21.71-6.41-27.84-7.6-28-10C195.33,1113.6,206.62,1109.59,219.55,1106.91Z"
              transform="translate(0 0)"/>
        <path class="cls-9"
              d="M446.55,1217.91c-.07-2.19,12.94-1.71,34-10,6.35-2.5,18.24-7.26,30-16,23.79-17.69,28.48-37.88,35-36,5.91,1.71,6.24,19.47,4,31-1,5.15-4.28,22.06-18,30-6.91,4-13.56,4-21,4C467.94,1220.65,446.63,1220.53,446.55,1217.91Z"
              transform="translate(0 0)"/>
        <path class="cls-10"
              d="M283.55,766.91a85.37,85.37,0,0,1,28-21,128.86,128.86,0,0,1,34-10c16-2.6,36.57-2.1,77-1,0,0,14.17.39,48,5a55.71,55.71,0,0,1,18,5c11,5.34,17.42,13.4,21,18,3.33,4.28,8.42,11,11,21,1.22,4.75,4.28,16.66-1,21-4.24,3.48-11.91.51-16-1-16.76-6.18-34.92-7.75-52-13-9.35-2.87-28.9-6.25-68-13-15.79-2.73-27.66-4.58-43-4-13.73.52-20.6.78-29,4-5.12,2-9,4.25-16,5-1,.11-15.71,1.56-18-4C277,777.53,276.76,774.7,283.55,766.91Z"
              transform="translate(0 0)"/>
        <path class="cls-10"
              d="M478.55,657.91c3.32-6.85,5.16-10.64,10-17,4.39-5.76,9-11.87,17-18,5.36-4.13,15.26-11.56,29-13,2.76-.29,10-.79,17,3,2,1.1,4.94,2.73,5,5,.07,2.74-4.08,4.18-9,8-5.38,4.17-10.75,9.89-10,11s6.72-2.64,19-7c7.77-2.76,11.75-4.13,16-4,10.11.32,16.7,6.71,18,8,2,2,4.37,4.35,5,8,.88,5.11-2.15,9.44-4,12-6.19,8.56-15.25,11.46-15,12s8.63-4,20-6c6.32-1.11,12-2.11,18,0,8,2.8,12.09,9.48,16,16,9.81,16.36,10.8,34.47,9,35-.89.26-2.06-3.93-8-12-4.36-5.93-6.61-8.91-10-10-4.56-1.47-8.57.91-15,4-12.25,5.89-18.65,8.25-25,10-6.6,1.82-12.48,3.37-20,2-4.21-.77-10.59-1.92-15-7-3.19-3.67-2.86-6.53-6-8-3.49-1.64-6,.91-12,2-6.43,1.17-16.5.59-22-5-4.32-4.39-2.53-8.53-7-11-3.27-1.81-5,0-12-1-4.52-.64-10.17-1.44-12-5C474.64,668.14,474.73,665.78,478.55,657.91Z"
              transform="translate(0 0)"/>
        <path class="cls-10"
              d="M619.55,733.91c.87-2.84,4.64-3.69,6-4s5.17-1.17,7,1,.47,6.7-2,9a6.72,6.72,0,0,1-5,2C621.8,741.57,618.55,737.17,619.55,733.91Z"
              transform="translate(0 0)"/>
        <path class="cls-10"
              d="M628.55,723.91c.7-1.18,3,.16,6-1,3.33-1.28,4.28-4.34,5-4s.51,4.43-2,7c-1.58,1.61-4.68,3.3-7,2C629,727,627.94,724.91,628.55,723.91Z"
              transform="translate(0 0)"/>
        <path class="cls-7"
              d="M295,329c.44.38-1.93,2.69-3.75,7.5A32.42,32.42,0,0,0,289.5,351c1.22,15.24,11.85,25.14,10.5,26.25-1,.85-8.53-3.85-12.5-12-4.06-8.34-2.49-16.32-4.25-16.5-1.22-.13-2.81,3.66-3.25,6.75-.52,3.67.52,6.78.75,6.75s-2.76-8.51,0-17.25C284,334.62,294.19,328.29,295,329Z"
              transform="translate(0 0)"/>
        <path class="cls-7"
              d="M429.25,332.5c-.29.16,3.1,4.58,4,12a33.08,33.08,0,0,1-.25,9.25c-1.36,9.1-5.24,13.79-4.25,14.5s5.85-2.75,8-8c1.77-4.34,1-8.31.25-12C435,338.77,429.6,332.31,429.25,332.5Z"
              transform="translate(0 0)"/>
        <path class="cls-7"
              d="M355.5,402c.61-1.35,4.93,1,10.5,0,9.47-1.62,14.1-11.17,15-10.5s-2.28,8-9,12.75c-2.25,1.59-6,4.23-10.25,3.25C358,406.64,354.93,403.25,355.5,402Z"
              transform="translate(0 0)"/>
    </g>
    <g id="Layer_7" data-name="Layer 7">
        <path class="cls-11"
              d="M1110.05,260.41c10.67,5.81,25.5,13.24,41,29,18,18.26,15.67,26.21,34,45,18.51,19,39,29.46,48,34,24.36,12.24,40.34,13.86,40,18-.55,6.6,41.73,37.93,7.5,59.5-28.53,18-33.93,78.15-39,92-18,49.3-92.21,18.54-104.5,22.5-7.9,2.55-19.17-11.73-38-36-17.38-22.41-28.37-40.57-40-60-26.79-44.76-40.19-67.14-49-84-15.64-29.93-23.46-44.9-31-66-20-56-19.74-83.81-19-93,1.92-24,3.23-40.32,14-46C997.06,163.27,1030.48,217.09,1110.05,260.41Z"
              transform="translate(0 0)"/>
        <path class="cls-11"
              d="M1098.05,287.41c15.3-1.14,26.67-5.39,39-10,0,0,29-10.86,54-29,42.59-31,129.63-131.55,106-164-17.91-24.59-79.82,16.76-197,26-.88.07-36.51,2.88-78,20-23.25,9.6-33,17.35-40,26-4,5-20.5,27.5-20.5,53.5"
              transform="translate(0 0)"/>
        <path class="cls-3" d="M1029.05,226.41a55.7,55.7,0,0,0,14,20c7.64,7,15.22,9.84,21,12a80.51,80.51,0,0,0,29,5"
              transform="translate(0 0)"/>
        <path class="cls-3"
              d="M1035.05,258.41a251.5,251.5,0,0,0,37,19c10.71,4.39,16.54,5.81,23,6,9.1.26,15.68-2,16-1,.4,1.27-9.07,6.14-19,9-7.78,2.24-20.23,4.51-37,2"
              transform="translate(0 0)"/>
        <path class="cls-3"
              d="M1109.05,449.41a115.24,115.24,0,0,1,21-26c6.33-5.84,13.52-12.34,25-17a70.58,70.58,0,0,1,23-5c4.46-.3,12.75-.48,13,1,.22,1.29-5.9,2.49-13,6-3.23,1.6-15,7.61-23,20a52.37,52.37,0,0,0-8,25"
              transform="translate(0 0)"/>
        <path class="cls-3" d="M1114.05,397.41a86,86,0,0,1,50-6" transform="translate(0 0)"/>
        <path class="cls-11"
              d="M1132.05,546.41c-.9,11.52-1,21.15-1,28,.78,120.81,9,233,9,233s19.07,260.2,16,313c-.27,4.66-1.94,11.41,0,21,.77,3.78,1.82,6.68,1,11-.71,3.74-2.51,6.78-5,11-3.52,6-5.48,10.8-6,13-1.18,5,9.73,21.07,16,28,4.53,5,8.76,24.43,13,27.5h474l14-17.5c9-3,23-21,17-32a67.74,67.74,0,0,1-7-20c-.91-5.12-.94-10.74-1-22-.1-18.24-.15-27.37,5-55,15.83-85-3.1-434.75-5-543-.18-10.41-.45-32.69-14-54-8.72-13.72-19.76-22-41-38-11.06-8.32-24.9-18.73-44-29-12.79-6.88-40.42-20.41-83-29-111.68-22.53-155.76,23.32-245,12"
              transform="translate(0 0)"/>
        <path class="cls-3"
              d="M1238.05,1178.41a572.45,572.45,0,0,0,66,0c30.9-1.78,60.12-3.47,94-14,21.4-6.65,53.95-19.73,89-47"
              transform="translate(0 0)"/>
        <path class="cls-11"
              d="M1603.55,440.91c17,7,54.41,40.75,65.5,53.5,22.08,25.38,32.53,50,40,68,5.93,14.3,14.93,38.88,25,101,8.59,53,4.26,48.72,12,99,11.1,72.06,16.64,108.1,25,138a207.71,207.71,0,0,1,6,54c-.2,10.82-.32,17.44-4,25-2,4.06-4.51,7.46-6,14-1.43,6.31-.11,7.7-1,13-1.94,11.56-10.64,19.1-13,21-7.87,6.35-16.47,7.52-20,8-9.09,1.24-39.37,2.2-112-48-30.15-20.84-41.66-32.57-48-49a100.69,100.69,0,0,1-6-30c-.54-19.34,5.34-38,6-40,4.1-12.7,8-17.47,6-26-1.14-5-3.45-7.76-5-16a65.46,65.46,0,0,1-1-14c.06-13.13-3.25-24.15-8-40-4.89-16.29-7.43-17.69-11-29-5.76-18.27-5.26-34-4-51"
              transform="translate(0 0)"/>
        <path class="cls-11"
              d="M1737.05,1012.41c.67,7.55,1.61,19.94-6,30-6.47,8.56-16,11.25-27,14-45.62,11.38-60,12-60,12-54,2.33-76.24-1.7-127-2-60.87-.36-72,5.18-88-7-28.21-21.5-35.5-70.81-20-85,5.65-5.18,10.78-2.42,30-8,11.75-3.41,20.66-8,38-17,35.77-18.59,37.56-23.57,60-33,12.87-5.41,23.32-9.8,38-12,30.62-4.59,55.23,4,69,9"
              transform="translate(0 0)"/>
        <path class="cls-3"
              d="M1707.05,893.41a228.27,228.27,0,0,0-62,1c-4.12.65-17.07,2.75-17,5,.08,2.53,16.57,2.49,35,7a141.24,141.24,0,0,1,42,18"
              transform="translate(0 0)"/>
        <path class="cls-3" d="M1583.05,898.41a215.24,215.24,0,0,1,108-12" transform="translate(0 0)"/>
        <path class="cls-3"
              d="M1573.05,888.41a66.87,66.87,0,0,1,12-20c11.2-12.8,24.63-17.91,38-23a152.36,152.36,0,0,1,30-8"
              transform="translate(0 0)"/>
        <path class="cls-3" d="M1631.05,912.41a116.76,116.76,0,0,1,64,52" transform="translate(0 0)"/>
        <path class="cls-12"
              d="M1312.05,990.41c-8.49-11.62-23.21-3.08-58-12a237.88,237.88,0,0,1-46-17c-6.69-3.49-15.45-8.6-29-12a105,105,0,0,0-20-3c-16.25-.83-24.86,2.73-38,5-32.17,5.57-52.18-3.33-54,2-1.12,3.28,6.14,7.61,20,18,31.54,23.64,30.78,28.81,56,46,13,8.87,23.05,15.72,38,22,13.56,5.7,43.81,18,80,11,14.83-2.85,41.36-8,51-29C1312.55,1020.26,1320.6,1002.12,1312.05,990.41Z"
              transform="translate(0 0)"/>
        <path class="cls-13"
              d="M1309.05,997.41c-2.83-3.3-8.87,1.92-28,2-11.61,0-20.41-2-38-6-14.44-3.31-25.55-6.75-36-10-19.61-6.11-22-7.87-35-11-8.42-2-17.07-4.12-29-5a146,146,0,0,0-44,4c-6.8,1.65-10.22,2.51-11,4-5.9,11.24,36.77,49.26,83,72,31.36,15.42,54.39,26.75,81,19C1292.7,1054.56,1316.11,1005.63,1309.05,997.41Z"
              transform="translate(0 0)"/>
        <path class="cls-13"
              d="M1324.05,999.41c-3-3.53-11.65,3.61-35,7-17.69,2.57-31.62,1.21-44,0-11.12-1.08-26.41-2.58-45-9-16.71-5.78-20.94-10.31-43-17-13.31-4-19.57-4.76-24-5-8-.44-7.21.81-28,2-8.83.51-11.16.41-12,2-2.84,5.39,16.35,20.73,23,26,22.43,17.75,41.49,32.83,73,43,28.13,9.07,63.13,20.37,95,4C1312.76,1037.67,1329.18,1005.49,1324.05,999.41Z"
              transform="translate(0 0)"/>
        <path class="cls-14"
              d="M1067.05,953.41c5,0,15,3,24,7,7.19,3.2,16.51,7.9,41,24,18.22,12,17.11,13.09,28,19,7.68,4.17,20.57,11,37,14,5,.9,10.87,1.53,45-2,30.28-3.13,37.43-4.85,54-5,8.54-.08,17,1,34,3,7.43.9,8.25,1.16,9,2,9.28,10.38-22.89,74.09-77,92-10.25,3.39-32.45,10.74-54,2-9.19-3.72-9.49-6.82-30-17-17-8.45-25.54-12.68-32-14-6-1.22-12.58-1.8-19-7a32.46,32.46,0,0,1-8-10c-5-9-4.84-16.35-6-23-1.42-8.11-6-15.19-15-29C1076,975.62,1063.77,958.44,1067.05,953.41Z"
              transform="translate(0 0)"/>
        <path class="cls-1"
              d="M1416.05,990.41a12,12,0,0,0-3-6c-3.1-2.93-6.78-2-14-4a83.38,83.38,0,0,1-8-3c-10.18-4.1-14-6.4-20-9-12.57-5.42-12.38-2.45-22-7-10.63-5-10.21-8.34-21-13a73,73,0,0,0-18-5c-6-1-8.45-.73-22-1s-20.47-.4-26-1c-11.53-1.24-17.3-1.87-24-4-5.12-1.63-8.46-3.26-14-3-2.57.12-8.7.41-13,5a16.08,16.08,0,0,0-4,9c-1.59,12.15,10.2,22.53,13,25,10.85,9.56,23.81,11.54,28,12,7.55.83,9.67-.72,19,1,6.59,1.21,6.69,2.2,16,4,4.25.82,7.07,1.16,11,3,3.21,1.5,7.18,3.42,8,7,.33,1.43.21,3.39-2,7a34.47,34.47,0,0,1-13,12c-5,2.63-10,4.48-33,9-14.43,2.84-17.75,3.16-22,3a82.07,82.07,0,0,1-18-3c-12.24-3.09-15.13-5.9-24-6-3.48,0-7.46,0-12,2-.69.31-9.46,4.38-12,12-4.24,12.72,11.69,27,15,30,2.79,2.51,11.46,9.8,36,16,10.49,2.65,26.38,6.54,48,6,13.11-.33,39.73-1,67-16,21.64-11.91,12.84-15.87,49-44C1395.33,1017.3,1418.23,1001.17,1416.05,990.41Z"
              transform="translate(0 0)"/>
        <path class="cls-1"
              d="M1196.05,1063.41c-6.41,9.26-6,18-6,18,.09,2,.41,8.66,5,14,3.85,4.48,7.48,4.26,12,10,2.24,2.84,2.88,4.84,4,7,4,7.6,11,11.58,19,16a111.05,111.05,0,0,0,35,12c23.43,3.5,42.07-1.13,57-5,0,0,38.49-10,77-40a109.45,109.45,0,0,0,22-23c6.87-9.7,8.42-15.43,9-18,.81-3.62,1-6.93-1-22-3.51-26.38-6.18-31.83-8-35-3-5.18-6-10.51-12-13-10.33-4.3-22.26,2.88-26,5C1343.72,1011.63,1216.16,1034.36,1196.05,1063.41Z"
              transform="translate(0 0)"/>
        <path class="cls-1"
              d="M1194.05,177.41c-9.55,2.7-19.15.67-27-1-15-3.18-25.18-9.61-32-14-11.43-7.35-24.52-15.77-32-32-3-6.49-7.95-17.25-4-28,1.41-3.85,4.78-9.9,24-20,13.43-7.06,21.37-9.14,48-18,28.74-9.56,30.91-10.93,40-12,22.53-2.64,36.45,2.58,40,4,10.65,4.26,17.2,6.88,20,13,6.23,13.58-14.7,25.37-45,73C1214.26,160.91,1208.41,173.35,1194.05,177.41Z"
              transform="translate(0 0)"/>
        <path class="cls-5"
              d="M1121.05,342.41c1.66-2,5.35.26,12-1,9.1-1.72,14.91-8.43,18-12,7.58-8.76,10.07-19.22,12-38,1.89-18.4,2.83-27.6,2-43-.15-2.77-2.55-52.84,10-97,3.67-12.89,14.38-49,46-82,22-23,44.31-34.24,58-41,8.8-4.35,44.21-21.15,94-24,44-2.52,77,7.15,93,12,17.8,5.39,33.17,10,51,22,28.85,19.33,43.39,43.84,51,57a219,219,0,0,1,25,71c7.4,44.21,8,59,8,59,.34,8.49.48,21.06,8,34,2.91,5,7.9,13.31,18,17,1.39.51,10.93,3.84,21,0,8.38-3.19,11-9,13-8,3.14,1.66-1,18-8,32-3.49,7-9.77,19.43-23,30-18.77,15-39.6,16.59-39,20,.36,2,7.61.66,18,4,15.22,4.9,26.36,16.44,25,19-.92,1.74-6.9-2-19-2a58.6,58.6,0,0,0-22,4c-8.92,3.57-9.28,6.59-18,9-7.56,2.09-12.67,1.31-13,3-.4,2,7,3.57,14,9,11.67,9,16.35,24.2,14,26-1.6,1.23-5.46-4.5-15-8-6.45-2.37-10.9-2-21-2-26,.09-34-2-35,1-1,2.83,6,5.34,14,15,9.27,11.14,15.32,26.12,12,29-2,1.77-6-2.43-17-7-12-5-23-5.32-45-6-4.38-.13-9.17-.16-12,3s-1.43,7.15-2,13c-.64,6.58-4.43,12-12,23-7.33,10.6-14.11,20.4-18,19-2.93-1-.46-7.11-5-14-1.29-2-3.06-3.86-17-11-15.32-7.85-17.39-7.7-19-7-4.16,1.82-3.45,6.61-8,16-2.78,5.74-3.85,5.59-14,19-12.39,16.36-14.62,21.63-18,21s-4.87-6.48-7-15c-4.56-18.28-1.48-26.51-6-29-3.5-1.93-9.67,2-22,10-8.63,5.57-12.94,8.35-16,13-6.28,9.55-3.81,18.3-7,19-3.51.77-10.3-9-13-20-3.83-15.63,2.74-25-3-30-3.28-2.84-8.12-2.08-15-1a43.71,43.71,0,0,0-23,11c-7.33,6.82-8,12.33-11,12-5.52-.6-7.42-19.32-8-25-1.07-10.51-1.71-16.84,2-23,4.43-7.35,11.64-8.75,11-12-.79-4-12.38-4.82-15-5a59.93,59.93,0,0,0-28,5c-13.92,6.37-18.93,14.87-22,13s-.88-11.86,2-19c7.36-18.27,22.2-24.84,20-31-1.13-3.16-5.83-3.64-12-5,0,0-26.55-5.86-46-22C1126.19,361.73,1117.84,346.37,1121.05,342.41Z"
              transform="translate(0 0)"/>
        <path class="cls-6"
              d="M1144.05,344.41c8.8-2.57,13.89-9.66,17-14,9.09-12.67,10.46-26.68,11-33,2.27-26.37,3.41-39.55,3-62-.17-9.47-.36-45.67,10-83,5.29-19.06,14.61-51.24,42-81,21.14-23,43.27-33.9,58-41a226.37,226.37,0,0,1,120-21c22.11,2.3,51.27,5.34,81,25,49.31,32.61,65.12,87.76,69,104,13.09,54.8,13,84,13,84a99.79,99.79,0,0,0,4,28c3,10.34,6.5,21.8,17,30,9.33,7.28,19.76,8.54,24,9,16.73,1.81,26.93-5.34,29-2,2.19,3.52-7.68,13.88-15,20a91.21,91.21,0,0,1-26,15c-28.28,11.12-45.82,8.55-47,15-1,5.53,11,12.3,14,14,5,2.83,10.42,4.26,21,7,11.61,3,17,3.76,17,5-.05,1.52-8.25.86-19,5-8.69,3.35-8.49,5.78-16,9-14.67,6.29-27.38,2.14-28,5-.36,1.65,3.82,3.31,13,9,8.42,5.21,18.87,11.68,18,14-.56,1.48-5.46.49-19-1-11.8-1.29-18.56-2-26-2-5.94,0-25.59.12-27,6-.57,2.39,2.23,4.19,10,12,9.14,9.19,17.47,17.56,16,20-1.35,2.25-9.4-3.24-26-5-12.91-1.37-12.06,1.53-27,0-5.8-.6-9.83-1.43-12,1-2.41,2.71.3,6.33,0,14-.31,8.13-3.74,14.08-6,18-3.34,5.79-7.37,12.8-13,13-4.07.15-5-3.42-12-8-7.45-4.87-9.25-2.7-22-8-11.95-5-15.36-9-19-7-3.08,1.65-1.74,5.09-5,13-3.33,8.07-6.08,7.76-13,19-6,9.72-6.42,14-9,14-4.85,0-9-15.16-10-19-3.11-11.47-1.66-16.11-5-18-3.83-2.16-7.77,2.79-21,9-16.1,7.56-23.32,6.35-28,14-3.42,5.59-2.44,10.92-4,11-2.2.12-6.62-10.34-5-21,1.82-12,10-16,8-20-2.2-4.28-13.14-2.18-35,2-9.81,1.88-15,3.46-19,8-4.59,5.27-4.46,11.11-6,11-2.24-.16-4.79-12.68-2-25,1.07-4.74,3-13.2,10-19,8-6.63,16.91-5,17-7,.14-2.87-18.3-9.93-39-7-19.17,2.71-30,12.53-33,9-2.44-2.84,2.09-12,8-18,8.56-8.61,17.67-8,18-12,.19-2.28-2.56-5.56-24-14-21.89-8.62-23.69-7-33-12-17.67-9.43-30.66-25.55-28-30C1134.25,344.4,1137.76,346.25,1144.05,344.41Z"
              transform="translate(0 0)"/>
        <path class="cls-1"
              d="M1449.05,55.41c-1.39,3.48-6.27,15.76-1,30,.76,2,6.32,16.42,20,22,10.76,4.39,16.34-.83,26,5,7.15,4.32,10.53,11.06,12,14,5.5,11,1.43,16,5,26,4.16,11.64,15.41,20.92,27,24,12.33,3.27,22.6-1.12,34-6a94.13,94.13,0,0,0,32-23,109.73,109.73,0,0,0,24-40c5.17-15.22,11-32.36,3-49-4.66-9.71-12-15.16-16-18-16.1-11.58-34-11.26-42-11-10.24.33-8.05,2.17-39,8-15.8,3-23.82,4.45-30,4-10-.74-15.28-3.32-29-3-9.31.22-13.53,1.57-17,4C1452.74,46.14,1450.66,51.37,1449.05,55.41Z"
              transform="translate(0 0)"/>
        <path class="cls-7"
              d="M1202.05,270.41c1.81-5.06,4.24-3.45,17-16a349.58,349.58,0,0,0,24-27c6.94-8.58,9.64-12.69,16-15,2.28-.83,9.23-3,16,0,5.37,2.35,8.37,6.92,13,17,10,21.8,11.93,35.16,15,35,2.1-.11,3.36-6.45,5-15,3.55-18.47,1.35-23.6,6-33,2-4.09,5.3-10.71,12-13,8.06-2.75,16.35,2.39,22,6,13.48,8.62,11.91,15.29,27,29a152.1,152.1,0,0,0,23,17c11.28,6.54,17.06,7.55,19,13,3.22,9-7.54,20.48-9,22-17.86,18.6-54.34,21-67,17-1.35-.42-6-2-8,0-1.82,1.82-.63,5.59,0,8,2.94,11.31,1,21.56-3,42-1,5.32-1.5,6.24-2,7-7.43,11.33-36.77,11.53-48-3-3.5-4.52-4.35-9.33-5-13-3.2-18,7.11-32,4-34-1.68-1.06-4.63,3-11,6-9,4.18-17.94,2.79-23,2C1220.9,318.63,1195.8,287.91,1202.05,270.41Z"
              transform="translate(0 0)"/>
        <path class="cls-1"
              d="M1328.05,240.41c-1.6,2.84-5.19,10.42-2,30,1.88,11.5,3,18.5,8,27a58.63,58.63,0,0,0,18,19c15.27,10.18,30.81,10.06,39,10,7.94-.06,20.45-.31,33-8,4.78-2.93,11.12-6.93,15-15,.73-1.52,6-12.83,1-25-3.62-8.9-10.71-13.37-15-16-12.08-7.39-17.13-3.35-41-9-17.52-4.14-26.28-6.22-33-11-5.63-4-11.37-9.78-17-8C1333.23,234.67,1330.76,235.61,1328.05,240.41Z"
              transform="translate(0 0)"/>
        <path class="cls-1"
              d="M1186.05,284.41c-2.7,9.11-.11,16.85,1,20,5.36,15.29,19.55,22.12,24,24,16.69,7,32,1.53,36,0,17.5-6.62,25.55-20.88,29-27a77.26,77.26,0,0,0,8-39c-.29-5-1.16-9.6-4-14-1.11-1.73-4.8-7.44-11-9-5.11-1.28-9.49.87-20,7-19.67,11.48-17.25,11.5-23,14-15.23,6.63-21.78,2-31,10A30.49,30.49,0,0,0,1186.05,284.41Z"
              transform="translate(0 0)"/>
        <path class="cls-6"
              d="M1232.05,292.41c.71-2.62,3.63-3.81,9-6a40,40,0,0,1,14-3c5.67-.14,12.48-.31,14,3,2.1,4.57-7.4,12.51-8,13a24,24,0,0,1-10,5,16.91,16.91,0,0,1-9,0C1236.4,302.63,1230.87,296.76,1232.05,292.41Z"
              transform="translate(0 0)"/>
        <path class="cls-6"
              d="M1351.05,285.41c.55-.82,1.55-1.44,13-1,5.18.2,11.86,1.47,25,4,1.61.31,3.53.7,4,2,.95,2.64-4.84,7.06-8,9a28.06,28.06,0,0,1-12,4c-3,.27-8.1.72-13-2C1353.33,297.67,1348.68,288.91,1351.05,285.41Z"
              transform="translate(0 0)"/>
        <path class="cls-1"
              d="M1270.05,356.41c-.82,3.32.68,6.35,2,9a21.66,21.66,0,0,0,7,8c3,2,6.07,3.13,11,4,13.11,2.32,22.94.34,34-2,4-.86,6.76-1.62,9-4,4.63-4.92,3.12-12.42,3-13-1.58-7.29-7.94-10.85-10-12-4.61-2.58-8.79-2.77-14-3-4.29-.19-4.71.31-19,2-7.93.94-9.23,1-12,2C1277.78,348.65,1271.37,351.07,1270.05,356.41Z"
              transform="translate(0 0)"/>
        <path class="cls-6"
              d="M1297.05,352.41c1.19-2.8,4.1-3.9,7-5,1.45-.55,10.32-3.91,18,1,1.28.82,6.36,4.07,6,8-.39,4.26-6.9,6.55-11,8-5,1.75-9.59,3.38-14,1C1298.48,362.91,1295.2,356.76,1297.05,352.41Z"
              transform="translate(0 0)"/>
        <path class="cls-3"
              d="M1277.05,410.41a4.24,4.24,0,0,1,7-2c1.84,1.14,8.41,5.22,13,6,7.24,1.23,13.92-5,15-6a22.21,22.21,0,0,0,4-5"
              transform="translate(0 0)"/>
        <path class="cls-3"
              d="M1304.05,375.41a94.13,94.13,0,0,0,6,16c2.88,6,4.47,9.15,8,12,3,2.43,6,3.32,12,5,5.3,1.5,11.54,3.25,20,3,4.45-.13,9.81-.3,16-3a46.93,46.93,0,0,0,11-7c4.07-3.45,4.34-4.88,8-7a19.1,19.1,0,0,1,10-3,17.42,17.42,0,0,1,8,2,16.76,16.76,0,0,1,4,3"
              transform="translate(0 0)"/>
        <path class="cls-3" d="M1420.05,388.41a14.69,14.69,0,0,1,2,8,11.57,11.57,0,0,1-3,8c-3.45,3.49-8.27,3.07-9,3"
              transform="translate(0 0)"/>
        <path class="cls-3"
              d="M1309.05,429.41a23.11,23.11,0,0,0-4,5c-3.93,6.65-3.6,13.88-3,14s.59-4.08,4-7c2.45-2.1,6.06-3.08,7-2,.7.81-.64,2.14-1,5-.59,4.65,1.95,9.14,3,9,.78-.11.22-2.7,2-5a9,9,0,0,1,6-3"
              transform="translate(0 0)"/>
        <path class="cls-11" d="M1531.55,685.91a105.76,105.76,0,0,0,9,47" transform="translate(0 0)"/>
        <path class="cls-3" d="M1380.55,1190.91a776.59,776.59,0,0,0,98,8c29.73.53,59,.92,97-5a454.22,454.22,0,0,0,77-19"
              transform="translate(0 0)"/>
        <path class="cls-9"
              d="M978.55,193.91c.52-8.09,5.68-14.73,16-28,4.75-6.1,9-11.52,16-17,8.63-6.72,16.41-9.57,26-13,25.3-9,30.65-3.31,44-12,2.36-1.54,6.36-4.43,9-3,3.35,1.81,1.75,9.08,2,14,1.12,22,41.1,33.46,39,41-1.52,5.44-22.57.35-52,11-12,4.35-16.65,8.15-19,13-4.69,9.71,1.67,19.68-3,23s-15.58-4-17-5c-10.84-7.43-12.21-16.48-17-16-4.15.42-7.73,7.67-8,14-.5,11.49,9.94,18.4,8,21s-14.73-1.65-25-10C992.92,223.14,977.48,210.59,978.55,193.91Z"
              transform="translate(0 0)"/>
        <path class="cls-9"
              d="M989.55,243.91c4.14-1.66,9.62,11.51,22,22,20.45,17.33,46.4,16.07,46,19-.27,2-12.08,2.16-18,2-14.53-.4-22.31-3.62-23-2-.83,2,9.4,9.2,21,14a99.22,99.22,0,0,0,31,7c17,1.22,27.06-1.82,28,1,.88,2.64-7,8-13,11-12.17,6-20.71,4-22,8-1,3,3.39,6.28,11,14,14.64,14.86,12.1,16.83,20,23,15,11.75,32.28,10.92,32,14-.18,2-7.27.92-16,6a36.75,36.75,0,0,0-14,15c-3.84,7.43-6.5,18.82-3,21,2.67,1.67,6.82-3.36,17-9,14.24-7.89,29.16-10.82,30-9,.67,1.44-7.83,5.06-20,16-11.33,10.19-15.64,17.55-17,20-3.19,5.74-7.44,13.65-5,22,.33,1.12,2.14,7.31,6,8,3,.54,5.91-2.58,13-12,11-14.55,13.2-19.2,20-26,5.64-5.64,12.75-11.1,14-10s-4.43,6.68-8,17c-4.22,12.19-2.84,23-2,29,1.26,9.07,4.85,22.2,8,22,2.64-.16,2.77-9.57,9-28,2.57-7.6,5.86-17.33,8-17s2.7,12,2,21c-1.65,21.31-11.12,47.43-20,47-6.14-.3-10.83-13.25-14-22-5.21-14.4-4.5-24.42-8-25-4.43-.74-6.62,15.15-16,17-7.13,1.41-16.36-5.69-20-14-6.1-13.91,4.19-29.6,0-32-3.38-1.94-10.66,8-14,6-4.08-2.41,2-20.07,3-23,5.93-17.23,13.27-25.66,11-28-2.68-2.76-12.56,9.3-23,7-11-2.41-10.65-18-25-43-13.67-23.83-27.54-33.38-24-39,4-6.42,25.72.36,26-1,.24-1.17-16.46-3-32-13-16.15-10.39-26.63-26.74-24-30s20.38,6.28,21,5-17-7.13-20-20C986.55,250.57,987.08,244.91,989.55,243.91Z"
              transform="translate(0 0)"/>
        <path class="cls-9"
              d="M1193.55,460.91c-6.82,2.56-20.79,10.23-33,45a195.63,195.63,0,0,0-11,58c-2.48,91.32.94,113.36,0,173-.44,27.76-1.49,42.53,3,66,3.85,20.14,9.29,46.9,30,71,15.14,17.62,31.53,25.79,46,33,23.34,11.63,47.21,15.58,94,23,40.13,6.37,57.29,6.46,69,6,19.5-.77,34.64-1.52,52-10,20.21-9.87,31.53-24.41,39-34a150.33,150.33,0,0,0,27-58c1-4.48,3-14.13,3-59,0-45.7-2.11-46.62-1-69,1.89-38.29,10-76.25,15-76,2.39.12,4.26,10.74,8,32,3.45,19.62,4.33,31,6,31s1.56-10.15,5-24c4.56-18.35,13.86-37.92,18-37,2.26.5,1.74,6.84,3,36,.11,2.45.85,19,3,38,2.71,24,4.93,27.86,8,29,7.89,2.93,19.34-13.07,22-11,2.22,1.74-7.14,11.92-10,28-1.49,8.38,1,19.59,6,42,3.41,15.3,5.21,19.51,9,21,5.26,2.07,11.23-2.34,18-7,22.72-15.62,44.25-27,45-26s-15.89,16.29-38,34c-18.75,15-31,23.35-30,25s15-7.28,37-13c21.57-5.61,47.49-7.15,49-2,1.24,4.21-14,12.25-42,27-26.42,13.93-43.66,21.16-43,23,.8,2.24,26-9.43,63-10,12.57-.19,27.91-.3,46,6,22.56,7.85,33.91,20.28,36,18s-7.22-20-24-28c-13.82-6.57-25.82-3.37-27-8-1.14-4.45,8.9-11.46,17-15,13.54-5.92,23-2.73,24-6,1.45-4.62-15.25-17.51-36-22-19.35-4.18-32.56,1-34-3-1.51-4.23,11.45-14.33,25-20,17-7.13,29.94-5.12,31-10,1.3-6-17.31-12.27-16-19,1.17-6,16.26-3.06,22-12,4.7-7.31-1.29-15.66-6-37-2.26-10.26-1.91-13-4-30-4.84-39.36-8.27-67.25-16-91-10.14-31.15-26.18-50.58-48-77-31.32-37.93-71.09-70.68-80-64-2.4,1.8-.53,4.92-4,18-2.81,10.59-5.11,19.28-11,22-5.51,2.54-10.83-1.67-22-7-15-7.13-35.48-16.92-49-11-6.49,2.84-6.07,7-18,27-2.61,4.38-24.6,40.93-32,38-2.77-1.1-.76-6.64-6-15-1.66-2.65-5.74-9.14-11-10-7.57-1.24-12.63,10-25,23-14.73,15.49-36.8,30.32-45,25-1.94-1.26-1.32-2.49-7-16-5.4-12.85-6.81-13.75-8-14-5.39-1.12-13.12,9.79-17,19-5,12-2.68,19-7,21-5.31,2.46-15.14-5.26-21-13-12.16-16-6.07-30.56-15-35-7.68-3.82-20.75,2.66-27,11-6.11,8.16-4.16,16-8,17-6.35,1.58-16.46-18.85-19-24-5.89-11.91-10.93-22.12-11-36-.07-14.79,5.56-22.49,1-27C1206.55,456,1195.07,460.34,1193.55,460.91Z"
              transform="translate(0 0)"/>
        <path class="cls-9"
              d="M1427.55,977.91c1.7-4.33,11.8-2,24-4,13.72-2.3,19.36-8.37,36-19a341.59,341.59,0,0,1,54-27c19.56-7.56,31.74-12.27,49-12,20.46.32,35.42,7.44,45,12,19.29,9.18,29.19,19.8,48,40,5.14,5.52,9.58,10.79,8,14-2.24,4.55-15.11,2-24,1-20.41-2.26-28.87,2.82-63,10-58.52,12.31-53.45,1.56-101,13-23.31,5.61-52.2,14.85-60,4-1.55-2.16-.92-3.24-4-10C1433,985.42,1426.07,981.68,1427.55,977.91Z"
              transform="translate(0 0)"/>
        <path class="cls-9"
              d="M1666.55,918.91c-.43.8,15.88,5.86,28,21,8.59,10.73,11.14,21.62,15,21,4.24-.68,3-14.13,9-16,6.22-2,12.75,10.94,18,9,4.14-1.53,5.95-11.73,3-20-5-14-22-18.22-21-21,1.19-3.34,25.62,3.34,26,2,.31-1.1-15.49-8-36-11-14.17-2.06-27.73-1.82-28,0s11.28,2.67,25,11c9.74,5.91,20.71,15.6,19,19-2.1,4.19-22.94-2.16-29-4C1678.83,924.82,1666.93,918.19,1666.55,918.91Z"
              transform="translate(0 0)"/>
        <path class="cls-9"
              d="M1421.55,1177.91c.09-1.24,19.92,2,52-2,18.91-2.35,21.31-4.62,59-12,27.24-5.33,42.86-7.45,47-8,23-3,56.48-7.49,58-2,1.2,4.35-18,13.51-29,18-27.48,11.26-52.43,13.52-80,14C1471.25,1186.91,1421.41,1179.91,1421.55,1177.91Z"
              transform="translate(0 0)"/>
        <path class="cls-9"
              d="M1165.55,1181.91c-1.18,2.32,18.48,18.52,46,28,19.57,6.74,36,7.62,50,8,53.73,1.47,114.13-3.11,114-7-.12-3.6-52.3-5.94-76-7-14.82-.66-37.66-1.38-66-8-14.43-3.37-24.63-6.94-34-15-11.65-10-18.05-23.55-19-23-1.19.69,12.15,20.17,7,26C1182.94,1189.13,1166.55,1179.91,1165.55,1181.91Z"
              transform="translate(0 0)"/>
        <path class="cls-10"
              d="M1221.55,943.91c1.13,5.32,5.58,9,11,12,10.41,5.77,20.42,6.88,33,8,25,2.23,25.61,1.45,35,3,17.81,2.94,29.45,4.87,33,13,4.71,10.79-7.92,25.43-11,29-8.37,9.7-18,13.21-31,18-17.61,6.49-46.95,17.31-71,9-8.49-2.94-13-3.62-22-5-14.13-2.16-16.9-.58-18,1-2.31,3.3.56,9.52,3,13,5.46,7.78,15.42,11.28,39,13a293.43,293.43,0,0,0,63-2c15.57-2.28,27.59-4,43-10a268.8,268.8,0,0,0,33-16c12.8-7.33,13.25-9,21-12,15.82-6.09,25.76-3.61,28-9,2.34-5.64-6.12-14.11-9-17-10.95-11-19.53-10-43-21-13.82-6.47-13.75-8.17-26-13a121.89,121.89,0,0,0-28-8c-14.32-2.14-14.14.89-29-1a171.51,171.51,0,0,1-34-8c-8.83-3.27-15.95-6.94-19-4C1220.49,938.91,1221.33,942.91,1221.55,943.91Z"
              transform="translate(0 0)"/>
        <path class="cls-7"
              d="M1432,388.33a20.15,20.15,0,0,1,1.33,7.67c0,.69-.32,7.42-4.33,12-7.16,8.17-21.22,3.86-22,7.33-.51,2.25,5,6.06,10.33,7,7.54,1.32,15.85-2.81,19-9C1441.51,403.15,1432.25,388.26,1432,388.33Z"
              transform="translate(0 0)"/>
        <path class="cls-7"
              d="M1267.33,411.33c.7.17-1.29,5.09,1.33,8,2.25,2.49,6.7,2.17,9,2,4.64-.34,7.43-2.12,7.67-1.67s-3,3.43-7.33,5c-1.58.57-10.4,3.75-13.67-.67S1266.39,411.11,1267.33,411.33Z"
              transform="translate(0 0)"/>
        <path class="cls-7"
              d="M1319,425.67c-.32-2.21,2.49-4.94,5.33-5.67s4.88,1,10,3c8.41,3.35,13.25,2.63,13.33,4,.1,1.63-6.69,3.93-13.33,4C1328.19,431.06,1319.52,429.23,1319,425.67Z"
              transform="translate(0 0)"/>
        <path class="cls-7"
              d="M1317,186.33c.4,1,6.7-3.07,15-1.33,1.88.39,4.79,1.28,20.67,13.33,5.68,4.31,7.84,6.12,8.33,5.67.8-.74-3.29-7-8-12-5.09-5.42-11.84-12.6-21-12.67C1323.61,179.27,1316.57,185.2,1317,186.33Z"
              transform="translate(0 0)"/>
        <path class="cls-7"
              d="M1239,215c.45.43,7.16-5.07,13.33-11,6.6-6.34,8.58-9.32,12.33-9.33,4.76,0,8.31,4.71,8.67,4.33.67-.7-1.85-7.08-7.33-8.67-4.83-1.4-9.36,2.09-11,3.33-3.16,2.4-3.45,4.22-7.67,10.33C1242.38,211.18,1238.66,214.67,1239,215Z"
              transform="translate(0 0)"/>
    </g>
</svg>