<svg id="Layer_1" data-name="Layer 1" xmlns="http://www.w3.org/2000/svg" viewBox="0 0 1782.46 1197.04">
    <defs>
        <style>
            .cls-1,.cls-12,.cls-13,.cls-15,.cls-16,.cls-17,.cls-2,.cls-3,.cls-4,.cls-5{stroke:#000;stroke-linecap:round;stroke-linejoin:round;stroke-width:8px;}.cls-2{fill:#efeed0;}.cls-3{fill:#7f7a73;}.cls-4{fill:#b5aa9a;}.cls-5{fill:none;}.cls-17,.cls-6{fill:#d9d9d9;}.cls-10,.cls-11,.cls-7,.cls-8{fill:#fff;}.cls-8{opacity:0.6;}.cls-10,.cls-11,.cls-8{isolation:isolate;}.cls-9{fill:#282828;}.cls-10{opacity:0.1;}.cls-11{opacity:0.2;}.cls-12{fill:#a35c3d;}.cls-13{fill:#32a04e;}.cls-14{fill:#efe8ce;}.cls-15{fill:#676f8c;}.cls-16{fill:#424a60;}
        </style>
    </defs>
    <title>cooperation</title>
    <g id="Layer_4" data-name="Layer 4">
        <path class="cls-1"
              d="M38.36,829.54c-5.73,6.09.52,11.75-6,42-1.1,5.1-2.86,12.28-2,22a64.9,64.9,0,0,0,4,17c6.53,18.32,9.79,27.49,16,40a345.64,345.64,0,0,0,31,52c16.82,23.25,25.23,34.88,34,35,20.17.29,35.27-40.71,42-59,9.19-25,18.78-51,8-79-7-18.3-19.38-28.53-32-39C101.27,833.91,52.15,814.89,38.36,829.54Z"
              transform="translate(0.01 0)"/>
        <path class="cls-2"
              d="M34.36,815.54c-6-7.3-9.89-20.28-11-26-.72-3.74-.75-6.83,1-9,2.17-2.7,5.75-2.36,6-4,.32-2.08-5.43-2.9-8-7-2.77-4.43-.21-10.09,2-17,2.59-8.1,3-16.73,5-25,4-16.63,2.31-31,2-51-.39-25.38,2.4-49.59,8-98,2.39-20.71,2-13.35,5-38,3.29-27.17,3.22-31.79,7-41,3.86-9.4,8.91-16.26,19-30,6.94-9.45,11.67-14.51,17-19,5.1-4.3,10.89-9.17,15-10,11.68-2.37,33,23.21,56,86,26.31,71.69,57.39,156.4,22,240-17.59,41.56-39.64,54.56-46,58C96.47,845,48.5,832.63,34.36,815.54Z"
              transform="translate(0.01 0)"/>
        <path class="cls-2"
              d="M9.36,794.54c.73-2.11,1.92-5.52,5-7,5.12-2.47,11.94,2.1,15,4,2.24,1.39,14.16,4.93,38,12,18.52,5.49,33.79,5.25,50,5,36.25-.57,43-9.82,54-3,17.38,10.77,25.75,49.51,6,67-5.19,4.6-10.47,6-38,7-88.34,3.26-96.06-6.7-118-8a21.62,21.62,0,0,1-10-3c-1.43-.87-5.56-3.38-7-8-.5-1.6-.74-3.66,1-10,2.53-9.22,4.77-11.08,6-17,.77-3.69.51-6.79,0-13C10.19,806.3,6.73,802.09,9.36,794.54Z"
              transform="translate(0.01 0)"/>
        <path class="cls-3"
              d="M132.36,979.54c-2.52,4.9-8.77,20.61-12,29-3.92,10.19-3.65,10.28-18,58a62.2,62.2,0,0,0-1,35c6.43,27.17,2.84,23.18,13,64,.86,3.47,4.81,19.84,6,23.5h375c-6-14-16-48.5-28-64.5-1.51-2-7-8-10-12,5-6,9.2-9,10-15s-8.51-8.7-9-11c-4-19-10.55-59.81-13-74C434,946.4,163.9,918.14,132.36,979.54Z"
              transform="translate(0.01 0)"/>
        <path class="cls-2"
              d="M403.36,477.54a90.23,90.23,0,0,0-20-18c-17.35-10.83-34.38-11.7-42-12-32-1.25-56.08,14.4-65,21-29.37,21.74-38.44,52.29-44,71-17.21,57.92,1.72,107.29,8,123s17.3,42.34,44,64c11.33,9.19,28.89,23.44,54,24,29,.65,49.72-17.3,54-21,30.51-26.39,31.69-65.89,34-143C427,565.2,427.57,507.69,403.36,477.54Z"
              transform="translate(0.01 0)"/>
        <path class="cls-4"
              d="M97.36,432.54c3.38-1.56,4.53,0,11-1,9.21-1.41,13.53-5.58,22-10,5.1-2.66,11.06-4.44,23-8,46.31-13.82,88-12,88-12,19.79.86,34.19,4.24,63,11,31.5,7.39,40.91,12.56,48,18,5,3.87,8.86,7.85,19,15,13.77,9.72,22.56,13.55,22,15-.84,2.2-20.45-8.37-45-8-31.87.48-54.59,19.12-58,22-20.79,17.55-27.29,39.27-32,55-8.51,28.42-5.85,51.37-3,76,3.57,30.87,6,51.6,22,71,12.49,15.12,28.44,23.59,35,27,9.9,5.15,18.14,9.43,30,10,4.71.23,25,.58,39-13,14.37-13.92,9.29-30,19-34,11.12-4.56,30.5,11.38,42,28,16,23.14,16,50.76,16,106,0,0,0,35.59-4,79-1.55,16.83-2,20-2,20-.31,2.14-.74,5-1,9a94.58,94.58,0,0,0,0,12c1.2,19.51,6,52,6,52,1.52,10.27,1.33,20.75,3,31a23.45,23.45,0,0,1,0,8,27.08,27.08,0,0,1-3,8c-8.91,15.21-38,20-38,20-58.67,9.65-95,9-95,9-29-.52-53.07-1-86-6-53.72-8.23-74.13-20-79-23-9.54-5.85-12.53-10.49-26-17-8.27-4-16.71-6.87-17-12-.14-2.45,1.68-3.89,4-7s4-6.31,8-20c4.74-16,8.27-31.1,11-42,1.73-6.88,6.28-14.33,7-26a75.37,75.37,0,0,0,0-8c-2.12-36-36-117-36-117-14-33.46-18-43.31-23-58-6.33-18.42-10.08-29.33-13-43-1.44-6.74-7.4-17.21-5-81,.91-24.1.21-46.1,4-84,1-10,2-11,9-44C84.78,449.17,89.52,436.16,97.36,432.54Z"
              transform="translate(0.01 0)"/>
        <path class="cls-2"
              d="M126.36,410.54c.31-2.18,2.24-2.6,5-6,5.82-7.19,5.5-15.6,6-19,2-13.53,28.67-28.39,53-30,27.41-1.81,31,14.57,79,27,26.38,6.83,42.28,6.28,43,12,.87,7-21.76,15.09-41,22-30.22,10.86-54.25,14.51-71,16-27.22,2.43-39.4-.45-47-3C141.12,425.44,125.43,417.09,126.36,410.54Z"
              transform="translate(0.01 0)"/>
        <path class="cls-2"
              d="M345.36,460.54c14.17-3.8,32-8.58,51-1,15.28,6.08,24.26,17.31,32,27,2.35,2.94,7,9,18,31,17.22,34.35,30.41,60.68,33,79a63.46,63.46,0,0,0,6,19c2.36,4.72,3.81,7.53,7,10,6.3,4.86,12.74,3.26,14,7,.61,1.81-.59,3.88-3,8-3.45,5.92-7.29,9.7-7,10,.45.46,9-8.79,12-7,1.48.9.12,3.71,2,7,1.77,3.1,4.92,4,7,5,0,0,6.08,2.85,12,15,1.74,3.57,4.52,15.44-16,47-23.66,36.38-48.93,53.16-63,55a36.11,36.11,0,0,1-14-1c-5.94-1.87-9.82-5.19-14-9-13.55-12.36-20-20-20-20-7.63-9-15.41-17.94-23-27-14.86-17.74-14-15.21-39-44-11.43-13.13-14.73-17.23-23-26-12.66-13.43-17.62-17.28-22-22"
              transform="translate(0.01 0)"/>
        <path class="cls-1"
              d="M544.36,705.54c11.85-1.45,16.77-2.33,27-3a291.44,291.44,0,0,1,37,0c28.78,1.67,37.53,4.67,68,8,28.74,3.14,50,3.64,67,4,29.5.63,44.25.94,53-2,5.84-2,10.5-4.26,15-2,12.44,6.24,6.87,38.92,6,44-1.67,9.8-3,17-9,23-6.44,6.41-14.42,7.53-24,9-15.71,2.41-31.24,5.94-47,8-19.32,2.53-19.21,5-55,14-24.29,6.08-43.19,9.39-81,16-18.73,3.27-42.17,7.1-64,5a144.46,144.46,0,0,1-29-6c-6.57-2.15-11.48-3.75-17-7-8.08-4.75-13.35-10.61-26-29s-5.36-23.9-5.5-27.5c-.78-19.57,25-25.29,47-32C518.24,724.57,502.69,710.64,544.36,705.54Z"
              transform="translate(0.01 0)"/>
        <path class="cls-2"
              d="M409.36,757.54c.53-.93,1.8-2.69,8-5,4.56-1.7,6.84-2.54,12-3,9.6-.85,20.83-8.74,34-18,16.68-11.73,27.28-22.83,35-31,21.52-22.78,21.29-30.34,21-33-.63-5.73-4-10.93-1-15a9.24,9.24,0,0,1,10-3c2.92,1.08,4.28,4.39,7,11a53.81,53.81,0,0,1,3,10,43,43,0,0,1,.86,6.34c.16,2.92,0,5.65.14,5.66s-.37-5.9,2-7c2-.94,6.21,1.63,8,5,1,1.94.75,3.17,2,4,1.94,1.29,4.13-.67,6,0s3.7,4.46,3,13c-1.36,16.5-10.08,31.22-13,36a177.42,177.42,0,0,1-29,37c-7.76,7.53-14.51,12.35-28,22-6.55,4.68-13.67,9.46-24,12a16.31,16.31,0,0,1-5,1c-3,0-5.78-1.06-10-4a61.83,61.83,0,0,1-10-9c-7.53-8-6.84-8.65-11-12a67.49,67.49,0,0,0-11-7c-5.25-2.58-7.16-2.54-9-5C408.17,765.6,407.43,760.92,409.36,757.54Z"
              transform="translate(0.01 0)"/>
        <path class="cls-5"
              d="M81.36,839.54a98.72,98.72,0,0,1-25,2c-17.07-.83-28.66-6-29-5s13.14,8.49,31,13a152.84,152.84,0,0,0,41,4c21.12-.62,34.81-4.84,35-4s-17.09,6.85-38,10a167.38,167.38,0,0,1-38,2c-19.36-1.31-31.76-5.84-32-5s16.26,7.44,36,12a269.79,269.79,0,0,0,41,6c12.9,1,23.85,1.14,32,1"
              transform="translate(0.01 0)"/>
        <path class="cls-5" d="M33.36,775.54a102.89,102.89,0,0,0,15,8c8.4,3.62,15.15,5.2,23,7a204.69,204.69,0,0,0,24,4"
              transform="translate(0.01 0)"/>
        <path class="cls-5"
              d="M101.36,780.54c-8.13-2.59-14.91-5-20-7-13.07-5-18.48-7.91-22-10-5-3-12.52-8-12-9,.67-1.29,14.38,4.59,20,7s11.48,4.92,19,9c15.44,8.37,22.92,15.17,24,14s-7.24-11-9-13a176.77,176.77,0,0,0-27-25"
              transform="translate(0.01 0)"/>
        <path class="cls-5"
              d="M66.36,615.54c-.83-2.83-2.13-7-4-12-1.34-3.58-5-13.29-6-13s.69,9.33,2,15a167,167,0,0,0,5,17c3.15,9,5.06,12.2,4,13-1.34,1-6.16-2.84-9-6a27.72,27.72,0,0,1-5-8"
              transform="translate(0.01 0)"/>
        <path class="cls-5" d="M155.36,444.54c-5.47,26.19-9.31,48.63-12,66-2.64,17-9,60.23-9,86v43"
              transform="translate(0.01 0)"/>
        <path class="cls-5"
              d="M161.36,677.54a206.54,206.54,0,0,0-17-15c-10.56-8.34-20.57-14.57-21-14s7.08,5.18,14,14a66.77,66.77,0,0,1,11,21"
              transform="translate(0.01 0)"/>
        <path class="cls-5"
              d="M153.36,705.54c9.12,23.33,16.46,43.4,22,59,19.6,55.2,26,80.83,29,109,.19,1.79,1.4,5.77,1,11a36.32,36.32,0,0,1-6,17"
              transform="translate(0.01 0)"/>
        <path class="cls-5"
              d="M199.36,829.54c5.71,19.79,10,34.58,12,42a57.17,57.17,0,0,0,4,10c3.07,6,5.08,7.45,6,8,1.67,1,2.82,1.09,3,2,.41,2.1-5.06,5-7,6-3.95,2.08-6,2.27-6,3,0,1,3.91,1.86,14,3,9.25,1,19,1.8,19,2s-10.36-2-21,2a67.18,67.18,0,0,0-10,5,63.22,63.22,0,0,0-7,5"
              transform="translate(0.01 0)"/>
        <path class="cls-5"
              d="M174.36,893.54a37.52,37.52,0,0,0,12,10c10.46,5.41,21,4.07,21,5,0,.77-7.29,1.67-16,2-15,.56-22.69.75-30-4a28.08,28.08,0,0,1-8-8"
              transform="translate(0.01 0)"/>
        <path class="cls-5"
              d="M198.36,913.54a46.79,46.79,0,0,0-5,6,48.59,48.59,0,0,0-7,15c-3.33,11.67-8.78,22.62-13,34a276.83,276.83,0,0,1-17,37"
              transform="translate(0.01 0)"/>
        <path class="cls-5"
              d="M392.36,910.54c-7.28-.13-19.23-.12-34,1-21.81,1.65-31.44,4.33-53,6-8.37.65-21.12,1.35-37,1"
              transform="translate(0.01 0)"/>
        <path class="cls-5" d="M375.36,748.54c.12,27.76,1.12,50,2,65,1.52,25.92,3.66,47.34,0,78-.71,6-1.47,10.84-2,14"
              transform="translate(0.01 0)"/>
        <path class="cls-5"
              d="M377.36,912.54a5.27,5.27,0,0,1,2,4c-.13,1.64-1.63,2.55-3,4-2.72,2.87-3.27,6.39-4,11a32.67,32.67,0,0,0,0,10c2.62,17.92,7.1,29.27,9,46,.62,5.47.67,9,2,16a159.26,159.26,0,0,0,4,16c1.36,4.66,3.3,10.82,6,18"
              transform="translate(0.01 0)"/>
        <path class="cls-5" d="M307.36,639.54a28.84,28.84,0,0,0-12-2,21.34,21.34,0,0,0-11,3,19.44,19.44,0,0,0-6,6"
              transform="translate(0.01 0)"/>
        <path class="cls-5" d="M309.36,647.54a40.31,40.31,0,0,0-21,21" transform="translate(0.01 0)"/>
        <path class="cls-5" d="M487.36,635.54a126.14,126.14,0,0,1-33,35" transform="translate(0.01 0)"/>
        <path class="cls-5"
              d="M492.36,651.54a46.76,46.76,0,0,1-10,11c-5,4-9.2,5.54-9,6s7.84-1.09,15-6c5.11-3.5,7.83-7.15,8-7s-6.66,9.47-16,19a191.09,191.09,0,0,1-29,24,263.35,263.35,0,0,1-40,23"
              transform="translate(0.01 0)"/>
        <path class="cls-5" d="M494.36,669.54a174.74,174.74,0,0,1-39,42,178,178,0,0,1-21,14"
              transform="translate(0.01 0)"/>
        <path class="cls-5"
              d="M538.36,685.54a124.65,124.65,0,0,1-5,16,126.28,126.28,0,0,1-7,15c-9.48,17.14-20.69,26.27-20,27s10-6.06,19-16c7.49-8.25,15.22-16.76,18-30a49.67,49.67,0,0,0,0-20"
              transform="translate(0.01 0)"/>
        <path class="cls-5"
              d="M533.36,669.54a116.36,116.36,0,0,1-6,31c-3.72,10.93-11.93,34-35,51-21.57,15.89-44.36,17.78-54,18"
              transform="translate(0.01 0)"/>
        <path class="cls-5" d="M224.36,1168.54a74,74,0,0,0-30-18" transform="translate(0.01 0)"/>
        <path class="cls-5"
              d="M219.36,1175.54a187.27,187.27,0,0,0-19-13c-16.12-9.63-32.43-16.08-33-15-.33.63,4.85,3.31,18,13,9.09,6.7,14.11,10.94,19,17,2.27,2.82,5.94,9.81,7,11.5"
              transform="translate(0.01 0)"/>
        <path class="cls-5"
              d="M404.36,1044.54a18.87,18.87,0,0,1,2,5,20.18,20.18,0,0,1,0,9c-1.28,6.3-1.79,24.21,3,38,3.94,11.33,9.88,15.37,8,24-.39,1.77-1.26,3.51-3,7-6.59,13.19-12.46,17.88-11,20,1.29,1.88,7.24.12,11-1,7.52-2.23,9.89-5.12,13-4,1.87.67,2.31,2.17,5,8,0,0,5,10.92,11,21,2,3.3,3.26,5.23,4.18,6.52,3.68,5.19,6,7.24,5.82,7.48-.41.44-9.45-5.86-17-16a69.08,69.08,0,0,1-4-6"
              transform="translate(0.01 0)"/>
        <path class="cls-5"
              d="M457.36,1112.54c-5.2,4.83-11.25,10-14,13-11.83,12.76-13.17,17.16-22,24-7.34,5.69-13.39,8.06-13,9,.47,1.13,9.5-1.57,17-4"
              transform="translate(0.01 0)"/>
        <path class="cls-1"
              d="M151.86,100c-5.19-4-6.27-10.2-8-21-1.78-11.11-3.45-21.48.5-34.5,1.73-5.7,5.29-16.91,16-26a51.1,51.1,0,0,1,24-11c4.78-1,20-3.8,36,4,3.44,1.67,25.59,12.44,27,31,1.2,15.78-13.34,27.44-29,40a97.86,97.86,0,0,1-45,20C159.54,104.68,154.47,102.07,151.86,100Z"
              transform="translate(0.01 0)"/>
        <path class="cls-6"
              d="M178.36,388.54c-.92,9,3.55,17.26,5,17,1.1-.19-.52-5.13,2-10,3.41-6.61,12-8.42,20-10,10.58-2.09,26.49-2.79,28,2,.69,2.2-2.38,3.24-4,9-.41,1.46-2,7.83,1,14,2.83,5.79,9.27,10.47,12,9,2.39-1.28-.22-6.12,3-11,3-4.53,9.53-6.89,12-5,1.92,1.47,0,4.45,1,10,1.52,8.11,7.8,13.06,9,14,6.78,5.34,15.46,6.21,16,5,.37-.83-3.44-2-5-6-1.69-4.37.51-8.92,1-10,1-2.17,2.78-4.73,10-9,8.29-4.9,17.12-10.12,21-7,2.54,2,.19,5.44,3,11,2.54,5,7.08,7.44,10,9,1.85,1,3.37,1.55,20,4,6.15.91,9.33,1.33,10,0,.89-1.77-3.93-4.16-4-9,0-3,1.82-3.38,3-8,1.39-5.43-.36-8.12,1-9,2.2-1.43,6.82,5.55,16,10,6.93,3.36,13.16,3.69,19,4a58.72,58.72,0,0,0,23-3,55.19,55.19,0,0,0,8.7-3.88c-.27.86-.54,1.5-.7,1.88-2.63,6.2-7.4,9.34-10,11-7.09,4.53-14.17,4.79-20,5-7,.26-11.83.59-17-2-7.4-3.71-10.7-10.77-12-10-.92.55,1.43,3.66,1,9-.38,4.81-2.59,6-2,10,.53,3.62,2.72,4.94,2,6-1,1.44-5.16-.69-13-2-1.85-.31-4.9-.54-11-1-11.49-.87-10.91-.4-15-1-7.81-1.14-13.25-1.94-16-6-2.64-3.89-.4-7.2-3-9-3.52-2.44-10.52,1.63-14,5-2.54,2.47-2.9,4.27-3,5a7.43,7.43,0,0,0,2,6c3.25,3.32,8.74,1.76,9,3,.21,1-3.08,2.92-7,4-7.15,2-13.4.29-18-1-6.38-1.79-11.7-3.29-16-8-4.87-5.34-5.13-11.21-7-11-1.58.18-3.24,4.56-2,8,1.83,5.07,9.25,6,9,7s-7.33.72-15-2a44.69,44.69,0,0,1-15-9c-4.2-3.81-8.06-7.32-8-12,0-1.94.71-2.88,0-4-1.81-2.85-9.14-1.35-13,0-2.72,1-6.44,2.25-9,6-.52.76-3.54,5.2-2,9s7,4.89,7,5-9.23-1.1-18-8c-2.52-2-12.72-10.51-14-23a21.16,21.16,0,0,1,1-10c1.85-4.93,5.31-7.66,5-8s-6.49,5.55-12,9c-18.48,11.58-47.13,4.55-60-8-2.31-2.25-6.68-7.19-6-8,.45-.53,2.62,1.25,6,2,5.77,1.27,10.88-1.41,12-2,6.86-3.6,12-11.94,10-15-1.46-2.2-5.7-.24-13,0-16.1.54-28.76-7.84-33-11-7.44-5.53-11.29-11.6-16-19-5.76-9.06-10.54-20-9-21,.76-.49,2.14,2,6,4,8.62,4.54,18.31,1,21,0,3.86-1.42,8.33-3.92,8-5s-5.43.09-11,0c-9-.15-15.47-3.57-22-7-8.69-4.57-19.07-10-25-22-4.52-9.14-4.23-17.57-4-24,.43-12.3,4.48-24.18,7-24,1.69.12.85,5.57,5,10s10.64,4.78,16,5c3.6.15,14.92.62,25-7,3.73-2.82,7-6.54,11-14a102.42,102.42,0,0,0,11-35c3.16-26.23,13.28-57.07,27-79a138.67,138.67,0,0,1,33-36c4.35-3.43,26.46-20.45,61-29a182,182,0,0,1,67-3,191.27,191.27,0,0,1,56,17c12.69,6.08,29.49,14.12,46,31,20.31,20.77,28.35,42.81,33,56,0,0,12.29,34.85,9,73-1,11.91-1.54,17.86-4,25-2,5.77-3.38,7.33-3,11,.67,6.41,5.67,8.78,14,19,5.61,6.88,8.41,10.32,9,13,1.06,4.81-.41,8.73-2.38,12.78-1.45-1.9-3-3.88-4.62-5.78-7.78-9.26-12.07-11.91-14-13-4.07-2.3-8.13-4.59-13-4-6.09.74-7.44,5.26-15,11a51.19,51.19,0,0,1-25,10,47.11,47.11,0,0,1-21-3c-5-1.8-13.9-5.09-21-14a42.08,42.08,0,0,1-8-17,44.06,44.06,0,0,1,2-25c3.55-9.62,9.32-15.41,14-20,9.64-9.45,12.1-6.93,34-21,10.32-6.63,15.84-11.09,26-13,9.67-1.82,14,.46,15,1,8,4.44,9.65,15.43,11,15,.58-.18.37-2.22-.25-9.75-.68-8.16-.64-8.21-.75-9.25-4.32-40-22-67-22-67a131.4,131.4,0,0,0-25-28c-14.92-13-28.59-19.54-38-24-9.72-4.6-31.83-14.87-60-18-9.49-1-81.73-8-127,40-18.34,19.44-27.39,42.75-29,47-5.39,14.25-9,30.86-14,54-4.3,19.87-5.06,26.94-11,38-4.89,9.11-12.77,23.78-27,27-12.72,2.88-25-1-25-1-4.79-1.51-6.61-3-8-2-4.27,3,.83,25.52,16,38a56.52,56.52,0,0,0,38,12c7.6-.5,13.22-2.67,15,0,2.19,3.29-3.07,11.54-9,16-6.55,4.93-14.72,5.87-16,6-5.77.6-9.25-.57-10,1-1,2,3.61,6,7,9,4.65,4.07,8.93,7.81,16,11,13.42,6,26.48,5.4,33,5,12.11-.74,18.39-3.7,20-1,1.48,2.48-2.32,7.5-8,15a57.24,57.24,0,0,1-9,10c-6.46,5.51-11.35,6.83-11,8,.48,1.6,10,.25,16-1a126.19,126.19,0,0,0,14-4c12.07-3.87,18.13-5.81,19-6,11.69-2.6,23.62-2,24,0,.23,1.23-4.11,1.7-9,6C186.31,372.46,179.36,378.75,178.36,388.54Z"
              transform="translate(0.01 0)"/>
        <path class="cls-7"
              d="M187.36,371.54c4.89-4.3,9.23-4.77,9-6-.38-2-12.31-2.6-24,0-.87.19-6.93,2.13-19,6a126.19,126.19,0,0,1-14,4c-6,1.25-15.52,2.6-16,1-.35-1.17,4.54-2.49,11-8a57.24,57.24,0,0,0,9-10c5.68-7.5,9.48-12.52,8-15-1.61-2.7-7.89.26-20,1-6.52.4-19.58,1-33-5-7.07-3.19-11.35-6.93-16-11-3.39-3-8-7-7-9,.75-1.57,4.23-.4,10-1,1.28-.13,9.45-1.07,16-6,5.93-4.46,11.19-12.71,9-16-1.78-2.67-7.4-.5-15,0a56.52,56.52,0,0,1-38-12c-15.17-12.48-20.27-35-16-38,1.39-1,3.21.49,8,2,0,0,12.28,3.88,25,1,14.23-3.22,22.11-17.89,27-27,5.94-11.06,6.7-18.13,11-38,5-23.14,8.61-39.75,14-54,1.61-4.25,10.66-27.56,29-47,45.27-48,117.51-41,127-40,28.17,3.13,50.28,13.4,60,18,9.41,4.46,23.08,11,38,24a131.4,131.4,0,0,1,25,28s17.68,27,22,67c.11,1,.07,1.09.75,9.25.62,7.53.83,9.57.25,9.75-1.35.43-3-10.56-11-15-1-.54-5.33-2.82-15-1-10.16,1.91-15.68,6.37-26,13-21.9,14.07-24.36,11.55-34,21-4.68,4.59-10.45,10.38-14,20a44.06,44.06,0,0,0-2,25,42.08,42.08,0,0,0,8,17c7.1,8.91,16,12.2,21,14a47.11,47.11,0,0,0,21,3,51.19,51.19,0,0,0,25-10c7.56-5.74,8.91-10.26,15-11,4.87-.59,8.93,1.7,13,4,1.93,1.09,6.22,3.74,14,13,1.6,1.9,3.17,3.88,4.62,5.78-2.71,5.59-6.36,11.43-5.62,20.22a28.68,28.68,0,0,1,0,8,29,29,0,0,1-6,13c-3.14,4.24-8.56,11.56-17,13a30,30,0,0,1-10,0,28.4,28.4,0,0,1,3,7c2,8-3.65,12.36-9,19-4.23,5.25-4.76,6.62-5,8-.11.66-.85,4.94,2,8,3.58,3.84,9.47,2.16,10,2,2.53-.76,7.09-3.18,7-7a6,6,0,0,0-1.13-3.14,19.54,19.54,0,0,1,4.13,7.14,20,20,0,0,1-.3,12.12,55.19,55.19,0,0,1-8.7,3.88,58.72,58.72,0,0,1-23,3c-5.84-.31-12.07-.64-19-4-9.18-4.45-13.8-11.43-16-10-1.36.88.39,3.57-1,9-1.18,4.62-3,5-3,8,.07,4.84,4.89,7.23,4,9-.67,1.33-3.85.91-10,0-16.63-2.45-18.15-3-20-4-2.92-1.56-7.46-4-10-9-2.81-5.56-.46-9-3-11-3.88-3.12-12.71,2.1-21,7-7.22,4.27-9,6.83-10,9-.49,1.08-2.69,5.63-1,10,1.56,4,5.37,5.17,5,6-.54,1.21-9.22.34-16-5-1.2-.94-7.48-5.89-9-14-1-5.55.92-8.53-1-10-2.47-1.89-9,.47-12,5-3.22,4.88-.61,9.72-3,11-2.73,1.47-9.17-3.21-12-9-3-6.17-1.41-12.54-1-14,1.62-5.76,4.69-6.8,4-9-1.51-4.79-17.42-4.09-28-2-8,1.58-16.59,3.39-20,10-2.52,4.87-.9,9.81-2,10-1.45.26-5.92-8-5-17C179.36,378.75,186.31,372.46,187.36,371.54Z"
              transform="translate(0.01 0)"/>
        <path class="cls-5"
              d="M416.23,386.4a19.54,19.54,0,0,1,4.13,7.14,20,20,0,0,1-.3,12.12c-.27.86-.54,1.5-.7,1.88-2.63,6.2-7.4,9.34-10,11-7.09,4.53-14.17,4.79-20,5-7,.26-11.83.59-17-2-7.4-3.71-10.7-10.77-12-10-.92.55,1.43,3.66,1,9-.38,4.81-2.59,6-2,10,.53,3.62,2.72,4.94,2,6-1,1.44-5.16-.69-13-2-1.85-.31-4.9-.54-11-1-11.49-.87-10.91-.4-15-1-7.81-1.14-13.25-1.94-16-6-2.64-3.89-.4-7.2-3-9-3.52-2.44-10.52,1.63-14,5-2.54,2.47-2.9,4.27-3,5a7.43,7.43,0,0,0,2,6c3.25,3.32,8.74,1.76,9,3,.21,1-3.08,2.92-7,4-7.15,2-13.4.29-18-1-6.38-1.79-11.7-3.29-16-8-4.87-5.34-5.13-11.21-7-11-1.58.18-3.24,4.56-2,8,1.83,5.07,9.25,6,9,7s-7.33.72-15-2a44.69,44.69,0,0,1-15-9c-4.2-3.81-8.06-7.32-8-12,0-1.94.71-2.88,0-4-1.81-2.85-9.14-1.35-13,0-2.72,1-6.44,2.25-9,6-.52.76-3.54,5.2-2,9s7,4.89,7,5-9.23-1.1-18-8c-2.52-2-12.72-10.51-14-23a21.16,21.16,0,0,1,1-10c1.85-4.93,5.31-7.66,5-8s-6.49,5.55-12,9c-18.48,11.58-47.13,4.55-60-8-2.31-2.25-6.68-7.19-6-8,.45-.53,2.62,1.25,6,2,5.77,1.27,10.88-1.41,12-2,6.86-3.6,12-11.94,10-15-1.46-2.2-5.7-.24-13,0-16.1.54-28.76-7.84-33-11-7.44-5.53-11.29-11.6-16-19-5.76-9.06-10.54-20-9-21,.76-.49,2.14,2,6,4,8.62,4.54,18.31,1,21,0,3.86-1.42,8.33-3.92,8-5s-5.43.09-11,0c-9-.15-15.47-3.57-22-7-8.69-4.57-19.07-10-25-22-4.52-9.14-4.23-17.57-4-24,.43-12.3,4.48-24.18,7-24,1.69.12.85,5.57,5,10s10.64,4.78,16,5c3.6.15,14.92.62,25-7,3.73-2.82,7-6.54,11-14a102.42,102.42,0,0,0,11-35c3.16-26.23,13.28-57.07,27-79a138.67,138.67,0,0,1,33-36c4.35-3.43,26.46-20.45,61-29a182,182,0,0,1,67-3,191.27,191.27,0,0,1,56,17c12.69,6.08,29.49,14.12,46,31,20.31,20.77,28.35,42.81,33,56,0,0,12.29,34.85,9,73-1,11.91-1.54,17.86-4,25-2,5.77-3.38,7.33-3,11,.67,6.41,5.67,8.78,14,19,5.61,6.88,8.41,10.32,9,13,1.06,4.81-.41,8.73-2.38,12.78-2.71,5.59-6.36,11.43-5.62,20.22a28.68,28.68,0,0,1,0,8,29,29,0,0,1-6,13c-3.14,4.24-8.56,11.56-17,13a30,30,0,0,1-10,0,28.4,28.4,0,0,1,3,7c2,8-3.65,12.36-9,19-4.23,5.25-4.76,6.62-5,8-.11.66-.85,4.94,2,8,3.58,3.84,9.47,2.16,10,2,2.53-.76,7.09-3.18,7-7a6,6,0,0,0-1.13-3.14"
              transform="translate(0.01 0)"/>
        <path class="cls-5" d="M416.21,386.37a5,5,0,0,0-1.85-1.83A25.11,25.11,0,0,1,416.21,386.37Z"
              transform="translate(0.01 0)"/>
        <path class="cls-5" d="M416.21,386.37h0" transform="translate(0.01 0)"/>
        <path class="cls-1"
              d="M194.36,73.54a117.46,117.46,0,0,0-5,36c.29,9.88,1.27,33.11,17,55,7.88,11,16.59,17,34,29,9.94,6.86,15.35,9.35,22,10,2.33.23,14.37,1.16,25-7,7.2-5.53,10.14-12.46,12-17,4.08-10,3.07-16.53,4-31,.84-13.08,1.91-11.29,4-30,2-17.42,3.77-33.72,2-54-1.42-16.26-2.27-24.86-8-35-2.83-5-10.87-19.22-27-24-14.35-4.25-27,1.36-33,4C209,23.85,198,61.31,194.36,73.54Z"
              transform="translate(0.01 0)"/>
        <path class="cls-1"
              d="M445.36,281.54c3.67-.73,7.29,3.23,8,4,4.58,5,3.71,12.14,3,18-.84,6.93-3.21,10.79-4,12-1.5,2.29-3.52,5.28-7,6a8.7,8.7,0,0,1-6-1C430.79,315.19,436,283.41,445.36,281.54Z"
              transform="translate(0.01 0)"/>
        <path class="cls-1"
              d="M343.36,240.54c-1.08,3.37-3.38,10.54-1,19,3.3,11.73,13.2,17.4,16,19,11.49,6.58,22.92,4.73,27,4a41.7,41.7,0,0,0,22-11c9-8.8,10.79-19.26,13-32,2.38-13.72.54-21.82,0-24-1.39-5.61-3.32-13.43-10-17-4.81-2.57-9.78-1.72-14-1-3.84.66-8.24,2-22,11-9.49,6.18-14.24,9.27-18,13C351.72,226.15,346.25,231.56,343.36,240.54Z"
              transform="translate(0.01 0)"/>
        <path class="cls-7"
              d="M386.36,242.54c1.18-3,3.79-4.31,9-7a23.43,23.43,0,0,1,9-3c3.16-.31,6-.58,8,1,4.37,3.51,2.31,14.52-3,21-1.37,1.67-3.46,4.15-7,5-6.28,1.5-11.45-3.46-12-4C387.39,252.6,384.53,247.15,386.36,242.54Z"
              transform="translate(0.01 0)"/>
        <path class="cls-5" d="M382.36,335.54a31.07,31.07,0,0,0,6,8,30,30,0,0,0,9,6c3.18,1.32,11,2.81,13,3"
              transform="translate(0.01 0)"/>
        <path class="cls-8"
              d="M271.86,539c2.76-13.41,5.47-25.88,15-39,9.74-13.42,21.27-20.16,28-24,7.68-4.38,25.12-14,49-13,6.51.28,21.29,1.1,36,10s21.22,21.07,33,44c21.21,41.29,15.21,52.31,30,72,8.43,11.22,10.29,17.48,14,30a23.51,23.51,0,0,1,1,10c-.82,6.33-4.29,10.62-9,16-9.92,11.34-14.89,17-21,22-12.73,10.4-21.79,14-21,16,1,2.51,15.25-.82,16-1,12.18-2.89,19.47-7.82,20-7s-6.47,7-17,14c-21.06,14-41.34,21.31-42,20s18.25-11.17,17-14c-.85-1.93-10,1.91-24,0-1.57-.21-11.94-1.69-12-4-.07-2.62,13.24-2.25,28-10,8.53-4.48,13.67-9.64,20-16,13-13.06,24.2-30,22-32-1.4-1.31-6.94,4.64-20,12-17.25,9.72-36.7,15.74-39,12-1.17-1.9,3.26-4.49,4-10,1.26-9.45-9.59-18-17-24-19.25-15.58-38.06-30.79-52-45-14.21-14.48-17.91-22.36-28-23-9.38-.59-18.73,5.42-24,12-8.16,10.19-6.76,22.07-8,22C269.14,588.94,266.32,566,271.86,539Z"
              transform="translate(0.01 0)"/>
        <path class="cls-8"
              d="M502.86,661c-3.24.9-2.23,9.45-4,17-1.66,7.08-5.62,12.69-18,24-22.1,20.19-41.35,31.43-41,32s15.36-6.73,32-19c14.66-10.81,9.62-10.11,30-29a23.65,23.65,0,0,0,7-11c.55-2,2-7.14-1-11C507.65,663.75,505.06,660.43,502.86,661Z"
              transform="translate(0.01 0)"/>
        <path class="cls-8"
              d="M525.86,661c-.85-.17-1.56,12-9,27-9.11,18.39-22.82,30-30,36-17,14.12-31.09,19.11-30,22,.92,2.44,11.68.71,18-1a60.15,60.15,0,0,0,25-14c10.82-10.07,15-21.23,19-32C526,679.42,526.9,661.25,525.86,661Z"
              transform="translate(0.01 0)"/>
        <path class="cls-8"
              d="M551.86,697c.11,0-1.76,9.56-8,21a100.2,100.2,0,0,1-33,35c-13.7,9-27.55,13.46-27,15,.46,1.28,9.88-2.2,11,0,1.33,2.6-9.47,12.19-22,18-7.65,3.54-13.13,4.38-13,5,.19.92,12.64,1.19,25-4,10.41-4.37,16.64-10.88,28-23A157.23,157.23,0,0,0,551.86,697Z"
              transform="translate(0.01 0)"/>
        <path class="cls-8"
              d="M66.86,488c-2-.79-7.16,6.08-10,13-1.6,3.9-2.07,7.6-3,15a178.37,178.37,0,0,0-1.16,27.13c0,1.63.11,2.86.16,3.87.3,6.2,1.18,20,2,20,1.13,0-2.9-25.91,6-47a92.2,92.2,0,0,0,5-16C66.71,500.15,69.15,489,66.86,488Z"
              transform="translate(0.01 0)"/>
        <path class="cls-8"
              d="M44.86,641c-.37,0-.21,4.8,0,20,.26,18.79.16,21.46,0,24-.61,9.38-1.62,8.84-4,25-3.54,24-.94,22.61-4,31-2.57,7-5.75,11.71-4,18,1.22,4.37,4.2,7.28,6,9,4.71,4.5,9.39,5.75,16,8,16.6,5.65,23.39,10.09,24,9s-6.63-7.61-15-12c-11.42-6-18-9-18-9-2.22-1-5.74-2.58-7-6-.45-1.23-.49-2.35,0-6,1-7.49,1.51-11.23,3-12,2.48-1.28,5.71,2.24,13,7,9.77,6.38,18.63,9.61,19,9s-9.52-5.72-19-17c-1.74-2.07-8.55-10.16-7-12,1.94-2.3,15.94,6.46,20,9,15.67,9.81,24.16,18.81,25,18s-9.18-13-15-20c-11.26-13.48-13.57-15.07-17-21-2.87-5-4.8-10-8-25C47.08,660.93,45.62,641,44.86,641Z"
              transform="translate(0.01 0)"/>
        <path class="cls-8"
              d="M19.86,796c3.29-2.4,9.46,4,22,10a104.06,104.06,0,0,0,33,9c18.78,2.37,30.48-1.19,31,1,.57,2.41-13.31,8-24,11a106.1,106.1,0,0,1-30,4c-12.16-.12-18.56-.19-24-5-5.25-4.65-6.86-11.3-8-16S17,798.14,19.86,796Z"
              transform="translate(0.01 0)"/>
        <path class="cls-9"
              d="M36.86,893c2.49-2.28,7,1.55,20,3,10.47,1.17,13.4-.66,16,2,4,4.08.09,11.41-1,23-1,10.18.85,17.41,4,30,4.37,17.48,11.51,30.41,18,42,6.93,12.36,11.75,18.4,11,19-1.22,1-16.08-13.55-29-31-4.08-5.51-6-8.69-33-65C38.36,906.64,33.45,896.17,36.86,893Z"
              transform="translate(0.01 0)"/>
        <path class="cls-10"
              d="M131.86,1021c-8.36,5.54-2.13,16.76-17,51-1.85,4.27-4.34,9.6-3,16,2,9.74,11.48,14.76,22,21,32.17,19.09,47,33.36,49,31s-12.61-16.32-11-18c1-1.07,7.47,3.94,23,15,25.7,18.3,22.2,14.67,33,23a133,133,0,0,0,16,11c3.53,2,16.72,9.67,19,7,2.45-2.86-10-14.82-7-19,2-2.7,9.16-.52,11,0,23.61,6.66,58.35-7.42,82-17,25.89-10.49,51.51-26.33,50-30-.66-1.6-6.15-.1-22,2-23.51,3.11-42.87,4-43,3s19.39-7.77,43-12c6.26-1.12,14.54-2.37,17-8,1.5-3.42-.41-5.58-1-13-.94-11.8,3.09-16,1-19-4.68-6.67-31.36,5-42,9-43.88,16.67-86.44,7.45-107,3C178.92,1062.76,150.07,1009,131.86,1021Z"
              transform="translate(0.01 0)"/>
        <path class="cls-10"
              d="M419.86,1058c-4.74,5.52-4.22,12.84-4,16,.17,2.42.68,5,5,15,6.35,14.67,7.41,14,8,18,1.81,12.26-7.91,21.53-6,23,1.39,1.07,6.31-4,17-13,12.31-10.36,19-14.79,18-17-1.26-2.7-12.66,1.1-14-2-.85-2,3.6-3.88,5-9s-2-7.86-4-16c-2.85-11.39,1.52-15.43-2-19C438.31,1049.42,425.91,1051,419.86,1058Z"
              transform="translate(0.01 0)"/>
        <path class="cls-10"
              d="M399.86,1129c-1.33-1.43-15.21,16.14-41,27-30.53,12.85-56.77,7.47-57,11-.21,3.13,20.36,8.24,40,8a89.56,89.56,0,0,0,37-8c7.11-3.29,14.47-7.92,14-9s-6.49,1.18-21,5c-8.54,2.25-22.68,6-23,5s12.43-4,26-13C390.93,1144.42,401,1130.3,399.86,1129Z"
              transform="translate(0.01 0)"/>
        <path class="cls-10"
              d="M120.86,1123c2.83-1.49,8.79,6.43,19,17,23.36,24.18,41.76,34,40,37-1.24,2.1-11.2-1.52-18-4-16-5.83-26.2-13.09-27-12-1.05,1.44,17.11,13.57,15,18-1.37,2.87-11.52,3-18-2-4.79-3.73-5-8.3-9-32C120,1128.27,119,1124,120.86,1123Z"
              transform="translate(0.01 0)"/>
        <path class="cls-10"
              d="M442.36,1147.54c.16-1.1,1.77-3.73,5-9,4.62-7.55,5.46-7.89,6-8,2.08-.44,5,1.36,14,16,9.28,15.17,13.86,22.84,11,27-2.66,3.87-9.67,3-10,3-3.14-.41-5.48-1.92-13-10C442.16,1152.34,442.12,1149.2,442.36,1147.54Z"
              transform="translate(0.01 0)"/>
        <path class="cls-11"
              d="M96.86,447c3.16-1.26,5.9-.27,13-3s8-5,15-7a29.84,29.84,0,0,1,12-1c3.26.42,6.42.83,8,3,2.74,3.77-.86,10.7-2,13-6.06,12.25-5.77,26.72-9,40-4.37,17.94-.8,16.39-5,49-5.38,41.78-11.22,44.23-8,63,1.92,11.17,6.07,22.46,2,25-3,1.86-8.92-1.84-14-5-9-5.63-13.2-11.6-14-11-1,.77,5,11.44,12,22,8.63,13,13.48,18.06,12,20-.95,1.24-3.8.33-16-4-21.33-7.57-24-8.83-26-12-3.67-5.73-1.67-12.06,0-21,2-10.89-1.12-.55,2-46,3.28-47.82,5.56-41.74,7-72C87.1,474.11,86.3,451.25,96.86,447Z"
              transform="translate(0.01 0)"/>
        <path class="cls-11"
              d="M173.86,444c3.61-1.65,4.8-.14,19,0,8.22.08,7.81-.43,24-1,14.44-.51,21.66-.77,26,0,8.84,1.56,10.78,3.78,22,6,10.21,2,14.53,2.12,17,2,5.24-.26,9.22-1.29,15.25-2.89,8.39-2.23,10.25-3.51,15.75-5.11,12.86-3.73,25.75-3.4,26-2s-12.34,2.83-29,10c-8.11,3.49-23.11,9.94-36,23-11.92,12.08-16.61,24.32-23,41-8.61,22.48-10.73,41.1-12,53a223.7,223.7,0,0,0,0,50c2.63,21.3,4.17,33.8,13,47,9.12,13.63,21,20.46,19,24-.64,1.16-2.86,2.15-18-1a252.74,252.74,0,0,1-38-11c-21.36-8.33-31.21-14.27-32-13-.91,1.47,11.22,11,23,19,31,20.93,53.69,26.7,53,29-.77,2.54-30.39,2.08-56-15-13.1-8.74-11-12.41-34-30-12.1-9.27-21.31-14.86-20-19,1.4-4.42,13.84-4,15-4,13.6.51,23.82,8.31,24,8s-17.35-9.09-31-25c-3.2-3.73-6.33-8-8-14a35.78,35.78,0,0,1,0-18c3.31-14.87-1.38-10.82,4-64,.23-2.28,2.82-19.52,8-54C163.42,460,165.4,447.89,173.86,444Z"
              transform="translate(0.01 0)"/>
        <path class="cls-11"
              d="M150.86,915c2.74-.39,3.39,5.68,10,8,7.38,2.59,12.94-2.73,16,0,1.15,1,2.47,3.66-2,17-3.68,11-6.1,13.78-11,25-6.69,15.33-8,23.39-13,24-3,.36-3.95-2.27-10-3s-8.66,1.35-10,0c-2.42-2.44,4.14-11.62,8-19C152.08,941.8,145.15,915.85,150.86,915Z"
              transform="translate(0.01 0)"/>
        <path class="cls-11"
              d="M198.86,927c3.65-2.86,8.77-4.58,19-8,6.09-2,11.81-3.39,23-6,9.47-2.21,14.21-3.32,18-4,16.41-3,32.82-3.34,33-2,.13,1-8.37,2.68-34,10-13.77,3.93-18.09,5.38-18,7,.17,3.2,17.33,4.68,21,5,10.83.93,18.24.43,36-1,16.67-1.34,33.43-1.73,50-4,8.49-1.16,14.6-2.26,15-1,.61,1.91-12.1,8.13-23,12-30.15,10.7-53.86,6-54,8s24.12,12.41,46,4c5.49-2.11,10.06-5.11,14-3,4.75,2.54,4,10.08,5,24,1.41,19.91,2.33,32.8,9,45,6.55,12,14.83,16.31,13,20-2,4-13.26,1.73-25,0-27.17-4-15.93,1-72-4-7.6-.68-26.11-2.42-50-6-37.56-5.63-47.55-9.68-50-17-1.63-4.86,1.36-7.3,6-19C193.66,954.77,185,937.91,198.86,927Z"
              transform="translate(0.01 0)"/>
    </g>
    <path class="cls-1"
          d="M1001.86,767c-6.83,6.56-20.6,19.42-43,24-6.28,1.28-22.68,4.63-40-2-32-12.26-53.34-53.37-43-70s42,6.59,121,1c9.8-.69,23.84-2.08,28,5C1031.09,735.64,1011,758.22,1001.86,767Z"
          transform="translate(0.01 0)"/>
    <path class="cls-1"
          d="M981.86,716c.3-1.62-16.37-2.35-36-13-15-8.12-18.93-15.1-34-19a70,70,0,0,0-21-2c-16.34.69-17,5.94-34,8-15.52,1.88-23.34-1.46-30,5a18.93,18.93,0,0,0-5,9c-3.06,11.92,6.22,22.16,7,23,7.91,8.47,19.26,8.72,32,9,18.51.41,33.31-5,44-9,9.39-3.52,9.26-4.47,16-7C951.84,708.39,981.45,718.26,981.86,716Z"
          transform="translate(0.01 0)"/>
    <path class="cls-12"
          d="M1311.36,948.83c-11.66,18.71-6.17,29.15-13,122.89-6.62,91-6,121.32-6,121.32h315s-8.78-231.08-107-275.72C1434.81,887.55,1342.46,898.9,1311.36,948.83Z"
          transform="translate(0.01 0)"/>
    <path class="cls-12"
          d="M1307.36,955.54c10.49,8.3,41.51,10.83,86,13,36.71,1.79,32.49-2.4,83-3,16.69-.2,22.49.08,23-2,1.37-5.65-36.93-26.38-81-31-39-4.09-56.27,7.2-80-1-.47-.16-13.8-4.78-27-1-2.5.72-8.7,2.57-10,7-.55,1.89-.27,4.46,0,7a17.77,17.77,0,0,0,1,5A18.16,18.16,0,0,0,1307.36,955.54Z"
          transform="translate(0.01 0)"/>
    <path class="cls-1"
          d="M1411.36,482.54c-1.06.62-23.56,14.35-23,38,0,1.64.62,16.59,12,27,18.86,17.25,51.72,7.72,68,3,27.54-8,26.82-15.81,53-26,47.77-18.61,92-8.84,93-17,.29-2.26-3.07-3.29-15-13,0,0-8.64-7-20-18-17.54-16.94-19.4-32.09-26-39C1542.57,426.22,1509.66,427.09,1411.36,482.54Z"
          transform="translate(0.01 0)"/>
    <path class="cls-13"
          d="M1365.36,502.54c-7.09-2-15.06,2-27,8-16.91,8.46-26.81,19.28-35,28-10.92,11.64-31.75,33.83-53,53-31.16,28.12-35.59,24.81-49,39-2.52,2.66-9.48,10.32-21,14a43.22,43.22,0,0,1-11,2c-15.67.89-43,10.11-73,20-59.4,19.6-89.18,28.84-95,30-15,3-34,9-43,10a24.09,24.09,0,0,1,11,7c17.5,22.3,19,59,8,73-3.89,5,10.23,6.48,17,6,142-10,210-18,210-18,26-11.53,48.69-27.69,94-60,44.67-31.86,67.25-48.23,79-70C1408,587.83,1389.79,509.29,1365.36,502.54Z"
          transform="translate(0.01 0)"/>
    <path class="cls-5"
          d="M1184.36,707.54a59.72,59.72,0,0,0-4-22c-2.89-7.38-6.68-12.5-6-13s4.94,4.82,14,14a139.27,139.27,0,0,0,23,18c1.79,1.11,4.36,2.65,5,2,1-1-3.46-6.28-7-12a74.25,74.25,0,0,1-9-22"
          transform="translate(0.01 0)"/>
    <path class="cls-5" d="M1206.36,655.54q4.5,7.5,9,16,2.66,5.09,5,10" transform="translate(0.01 0)"/>
    <path class="cls-5" d="M1159.36,684.54a37.9,37.9,0,0,0,13,21" transform="translate(0.01 0)"/>
    <path class="cls-14"
          d="M1616.36,504.54c1.25,8.18-30,11.63-57,38-6,5.86-15.87,16.85-27,41-45.47,98.64-60.6,305.45-49,341,.55,1.7,2.72,7.76,0,13-3.67,7.08-14.14,8.61-32,10-29.63,2.3-48,2-48,2-4.44-.07-8.8-.15-13.18-.27a49.25,49.25,0,0,0-.82-7.73c-1.69-11.25-.75-22.85-3-34-4.5-22.33-1.3-35.39-8-116-2.32-27.93-4.45-47.43,0-70,2.67-13.51,7-28,7-28,3.61-12.07,6.18-18,11-31,3.09-8.32,1.92-5.55,17-50,14.2-41.83,13.65-39.61,14-41,3.68-14.65,4.65-24.16,8.34-31.85a56.9,56.9,0,0,0,15.66-.15c15.48-2,25.9-7,41-14,24.47-11.35,36.94-17.1,48-21,24-8.46,35.79-8.92,39-9C1593.26,495.19,1615.33,497.79,1616.36,504.54Z"
          transform="translate(0.01 0)"/>
    <path class="cls-14"
          d="M1435.7,539.69c-3.69,7.69-4.66,17.2-8.34,31.85-.35,1.39.2-.83-14,41-15.08,44.45-13.91,41.68-17,50-4.82,13-7.39,18.93-11,31,0,0-4.33,14.49-7,28-4.45,22.57-2.32,42.07,0,70,6.7,80.61,3.5,93.67,8,116,2.25,11.15,1.31,22.75,3,34a49.25,49.25,0,0,1,.82,7.73c-7.61-.21-15.3-.56-23.59-1.3-.06-.86-.11-2-.23-3.43-.52-6.44-1.27-8.89-2-14-2.37-16.68-5-65-5-65-1.28-23.54-1.92-35.31-2-37-1.92-40.69-2-61.67-2-71,0-29.65,1.25-38.18,3-46,1.93-8.66,3.68-12.74,12-34,13.14-33.58,19.71-50.37,24-63,9.31-27.4,14-41.11,15-48,0,0,1.28-8.49,11-31.8a54.31,54.31,0,0,0,10,3.8A40.49,40.49,0,0,0,1435.7,539.69Z"
          transform="translate(0.01 0)"/>
    <path class="cls-14"
          d="M1407.36,521.54c2.56,6.51,7.9,10.62,13,13.2-9.67,23.31-11,31.8-11,31.8-1,6.89-5.69,20.6-15,48-4.29,12.63-10.86,29.42-24,63-8.32,21.26-10.07,25.34-12,34-1.75,7.82-3,16.35-3,46,0,9.33.08,30.31,2,71,.08,1.69.72,13.46,2,37,0,0,2.63,48.32,5,65,.73,5.11,1.48,7.56,2,14,.12,1.47.17,2.57.23,3.43-4.23-.36-8.61-.83-13.23-1.43-12.24-1.59-4.9-1.33-36-7-3.74-.68-5.16-.93-7-2-11.73-6.86-9.81-29.73-9-44,0,0,1-18.27-1-74-1.27-34.67-5.45-39.62-8-91-1.23-24.7-.66-31.66,0-37,3-24.43,10.56-34.06,23-64,21.67-52.15,14.47-60.54,34-88a182.21,182.21,0,0,1,32-34c17.35-14.71,35.34-25,37-23,1.09,1.32-6.15,6.32-10,18C1406.83,505.18,1404.14,513.34,1407.36,521.54Z"
          transform="translate(0.01 0)"/>
    <path class="cls-5"
          d="M1366.59,948c-4.23-.36-8.61-.83-13.23-1.43-12.24-1.59-4.9-1.33-36-7-3.74-.68-5.16-.93-7-2-11.73-6.86-9.81-29.73-9-44,0,0,1-18.27-1-74-1.27-34.67-5.45-39.62-8-91-1.23-24.7-.66-31.66,0-37,3-24.43,10.56-34.06,23-64,21.67-52.15,14.47-60.54,34-88a182.21,182.21,0,0,1,32-34c17.35-14.71,35.34-25,37-23,1.09,1.32-6.15,6.32-10,18-1.53,4.64-4.22,12.8-1,21,2.56,6.51,7.9,10.62,13,13.2a54.31,54.31,0,0,0,10,3.8,40.49,40.49,0,0,0,5.34,1.15,56.9,56.9,0,0,0,15.66-.15c15.48-2,25.9-7,41-14,24.47-11.35,36.94-17.1,48-21,24-8.46,35.79-8.92,39-9,13.9-.35,36,2.25,37,9,1.25,8.18-30,11.63-57,38-6,5.86-15.87,16.85-27,41-45.47,98.64-60.6,305.45-49,341,.55,1.7,2.72,7.76,0,13-3.67,7.08-14.14,8.61-32,10-29.63,2.3-48,2-48,2-4.44-.07-8.8-.15-13.18-.27C1382.57,949.06,1374.88,948.71,1366.59,948Z"
          transform="translate(0.01 0)"/>
    <path class="cls-5"
          d="M1390.18,949.27a49.25,49.25,0,0,0-.82-7.73c-1.69-11.25-.75-22.85-3-34-4.5-22.33-1.3-35.39-8-116-2.32-27.93-4.45-47.43,0-70,2.67-13.51,7-28,7-28,3.61-12.07,6.18-18,11-31,3.09-8.32,1.92-5.55,17-50,14.2-41.83,13.65-39.61,14-41,3.68-14.65,4.65-24.16,8.34-31.85"
          transform="translate(0.01 0)"/>
    <path class="cls-5"
          d="M1420.31,534.74c-9.67,23.31-11,31.8-11,31.8-1,6.89-5.69,20.6-15,48-4.29,12.63-10.86,29.42-24,63-8.32,21.26-10.07,25.34-12,34-1.75,7.82-3,16.35-3,46,0,9.33.08,30.31,2,71,.08,1.69.72,13.46,2,37,0,0,2.63,48.32,5,65,.73,5.11,1.48,7.56,2,14,.12,1.47.17,2.57.23,3.43"
          transform="translate(0.01 0)"/>
    <path class="cls-13"
          d="M1365.36,500c7-2,13-3.06,21-5.1,24.33-6.2,38.22-17.71,39-16.32.61,1.08-8.94,6.86-23,18.36-12.76,10.43-21.5,17.68-29,28.56-5.07,7.34-7,12.64-13,28.56-6.28,16.68-12.9,33.23-19,50-18.16,49.9-19.27,44.88-26,68.34-8.61,30-10.47,51.1-11,58.14a276.4,276.4,0,0,0,0,38.76c2.48,43.43,6.8,75.9,9,94.86,2.68,23.12,4.12,51.79,7,109.14,4.15,82.71,1,70.83,4,102,7.12,75,5,117.81,5,117.81h-62s-6.08-45,0-114.75c4-45.47,7-49,11-62.22,2-6.48,7.79-21.22,12-41.82a177.88,177.88,0,0,0,3-19.38,169.08,169.08,0,0,0,0-31.62c-2.66-30.84-7.81-62.09-8-63.24-5.43-33-8.19-49.73-11-69.36-4.82-33.66-7.23-50.52-7-62.22a238.1,238.1,0,0,1,15-77.52c4.55-12,6.26-13.26,18-41.82,7.12-17.34,7.34-18.91,15-37.74,15.74-38.71,22.7-46.47,29-56.1C1352.36,503,1359.91,501.55,1365.36,500Z"
          transform="translate(0.01 0)"/>
    <path class="cls-13"
          d="M1592.36,486.55c2.75.77,5,2,17,9.18,8.41,5,15.72,8.68,23,12.24,13.63,6.67,16.51,4.18,26,9.18,12.19,6.42,18.77,16.49,22,21.42,5.44,8.31,12.69,24.56,4,78.56a489.78,489.78,0,0,1-22,85.7c-9.22,25.87-14.43,33.85-25,66.31-3.64,11.17-3.28,11-13,44.89-13,45.28-21.07,71.41-25,105.08-1,8.51-1.94,19.38,1,32.65,2,8.81,4.58,13.93,15,33.67,17.53,33.23,20.45,38.41,25,47.95,7.1,14.89,11.43,26.31,15,35.71,24.41,64.27,23,86.72,28,124h-224s-.85-6.68-1-8.67c-6.85-91,0-166.29,0-166.29,4.42-48.59,4.21-85.76,4-111.2-.7-84.52-1.17-140.79-5-188.74a164,164,0,0,1,2-45.91c2.6-13.66,7.07-24.75,16-46.93,9.67-24,14.51-36,24-52a287.86,287.86,0,0,1,28-38.77,236.43,236.43,0,0,1,31-30.61C1584.16,482.88,1589.58,485.78,1592.36,486.55Z"
          transform="translate(0.01 0)"/>
    <path class="cls-13"
          d="M1660.86,518c12.26,5.83,21,15,27.5,25.5a130.29,130.29,0,0,1,16,39c12.33,49.88,14.35,66.71,22,96a600.84,600.84,0,0,0,18,58c5.11,13.9,10.65,27.28,21,56,4.05,11.24,8.17,23,11,39,2.51,14.21,2.66,24.17,1,34-1.87,11.08-11,26-14,29,0,0-32.83-2.46-35.5-11.5-6.37-21.53-45.34-23.25-47-24-30.24-13.61,1.32-2.45-27.5-11.5-25.59-8-36.27-42.33-48-80-12.43-39.9-5.8-53.14-23-107-3.61-11.31-6.27-18.14-9-31"
          transform="translate(0.01 0)"/>
    <polygon class="cls-15" points="1355.37 709.54 1585.37 631.54 1717.37 957.54 1499.37 1055.54 1355.37 709.54"/>
    <polygon class="cls-16" points="1335.37 715.54 1355.37 709.54 1499.37 1055.54 1479.37 1055.54 1335.37 715.54"/>
    <path class="cls-1"
          d="M1551.36,920.54a207.94,207.94,0,0,0-28-12c-15.36-5.42-23-8.13-32-8a71.24,71.24,0,0,0-24,5c-8.36,3.13-11.94,6.11-24,10-5.47,1.76-8.29,2.65-12,3-6.58.62-9.32-.78-18,0-7,.63-8.85,1.86-10,3-3,3-3,7.53-3,9,.07,9.84,9,18.62,17,23,6.14,3.36,13.46,5.08,29,4a171.48,171.48,0,0,0,41-8c47.8-15.2,85-6.27,86-14C1573.78,932.38,1566.3,928.44,1551.36,920.54Z"
          transform="translate(0.01 0)"/>
    <path class="cls-1"
          d="M1472.36,933.54c-17.95,4.48-28.06,10.28-45,20-3.92,2.25-10.52,6.22-15,14-1.57,2.73-5,8.73-4,16,1.55,10.92,12.14,16.94,14,18,3.79,2.15,15.46,7.66,45-3s30.94-20.83,62-35c24.8-11.31,40-12.19,40-18,0-8.5-32.66-14.41-36-15C1505.22,925.59,1482.58,931,1472.36,933.54Z"
          transform="translate(0.01 0)"/>
    <path class="cls-1"
          d="M1489.36,963.54s-31,11.11-57,27c-3.42,2.08-10.21,6.39-12,14s2.38,14.06,3,15c1.45,2.21,6.29,8.59,22,11,13,2,29.11.62,50-9,20-9.22,18.61-14.13,50-35,24.38-16.21,35.82-20.28,35-27-1-7.93-18.18-12.81-30-14C1534.09,943.9,1528.94,949.33,1489.36,963.54Z"
          transform="translate(0.01 0)"/>
    <path class="cls-1"
          d="M1438.36,1018.54a21.22,21.22,0,0,0,3,17c1.83,2.59,6.1,7.11,18,9,20.56,3.26,38.93-5.29,55-13,24.55-11.78,38.77-25,42-28,10.76-10.18,17.87-20,23-30,5.25-10.22,8-15.64,6-18-5.46-6.37-33.94,23.51-85,39C1468.69,1004.15,1442.55,1003.9,1438.36,1018.54Z"
          transform="translate(0.01 0)"/>
    <path class="cls-5" d="M1535.36,903.54" transform="translate(0.01 0)"/>
    <path class="cls-13"
          d="M1769.36,884.54a38,38,0,0,1-10,14c-31.08,28.23-84,48-84,48-74.39,27.79-82,39-108,49,2-7,17-47-32-85,4.28-2.5,10.55-6.24,18-11s33.68-21.77,68-50c13.25-10.9,18.65-16,30-22a103.23,103.23,0,0,1,30-11"
          transform="translate(0.01 0)"/>
    <path class="cls-1"
          d="M1331.36,221.54c-3.09-1.25-6.39-8.84-13-24-5.4-12.4-9.73-22.34-12-36-2.44-14.71-4.94-29.79,3-45,7.05-13.51,18.62-20,24-23,19.65-11,39-8.78,45-8,9.34,1.21,18.89,5.47,38,14,21.13,9.43,21.25,11.46,34,16,22.59,8,36.75,6.84,37,10,.34,4.44-27.74,5-55,16C1371.24,166.19,1349.71,229,1331.36,221.54Z"
          transform="translate(0.01 0)"/>
    <path class="cls-17"
          d="M1487.36,101c-31.43-.49-47,4.73-70,12.5-37.58,12.7-59.3,36.64-64,42a150.72,150.72,0,0,0-24,38c-7.51,16.34-10.26,29.17-15,52-11.45,55.13-13,65-13,65a63.18,63.18,0,0,1-11,27c-4.47,6.12-8.68,9.22-13,11-2.49,1-9.29,3.83-15,1-7.12-3.53-7.39-13.26-9-13-2.08.33-4.08,17,3,33a53.74,53.74,0,0,0,13,18c3.07,2.78,10.65,9.48,22,12,8,1.78,13.71.52,14,2s-6,5.15-13,6c-10.32,1.26-16.23-4.07-18-2-2.36,2.76,5.75,15.16,16,24a66.7,66.7,0,0,0,25,14c9.35,2.75,12.3,1.19,22,5a73.27,73.27,0,0,1,16,9c10.17,7.45,11.39,12.14,18,18,11.17,9.92,24.75,11.67,35,13,14,1.81,24.34-.42,41-4,18.9-4.06,20.29-6.89,37-10,10.36-1.93,13.64-1.56,36-3,26.26-1.7,39.39-2.54,55-5,19.43-3.06,31.57-5,47-12,10.82-4.93,18.88-11,35-23,2.61-2,9.85-7.42,9-9s-7.36,1.91-19,3c-6.73.63-12.46,1.1-18-2-5-2.82-9.12-8.14-8-10s7,.47,14,2c2.53.55,21.2,4.43,38-1,15.19-4.91,24.06-15.89,29-22a77.36,77.36,0,0,0,15-31c3.12-13.69,2.23-27.61,0-28-1.22-.21-1.68,3.82-6,8-.85.82-7.58,7.15-15,6-6.28-1-9.9-6.83-13-12-6.09-10.17-7.3-19.9-8-26-2.32-20.27-3.47-30.41-4-39-2-33.41-14.36-59.43-19-69a179,179,0,0,0-31-45c-7.92-8.31-27-27.88-58-40C1539.81,107.33,1519.16,101.54,1487.36,101Z"
          transform="translate(0.01 0)"/>
    <path class="cls-7"
          d="M1261.36,355.54c1.8-2.22,5.89.87,14,0,10.74-1.16,18.07-8.16,20-10,7-6.64,9.16-14.46,12-27,4.53-20,6.8-30,8-42,1.27-12.7,5.85-49.66,19-79a151.56,151.56,0,0,1,41-54c41-33.8,89-33.94,107-34,21.14-.06,63.61-.2,101,29,35.5,27.72,48.17,67.65,52,83,13.35,53.58,13,80,13,80a70.85,70.85,0,0,0,7,32c5.17,10.44,11.11,15,14,17s8.53,5.76,16,6c13.36.42,21.79-11,24-9,2,1.76-2.87,12.27-11,21-9.61,10.33-20.46,14.53-32,19-14.26,5.52-22.56,8.73-34,8-14.18-.91-21.53-7.13-26-3s-1.35,14.6,0,19c1.26,4.11,3.79,12.41,11,17,10.71,6.82,24.27.71,25,3,.59,1.86-7.9,7.4-21,12-16.08,5.65-29.14,6.4-51,7-44.63,1.22-44.74-.41-58,2-9.16,1.67-19.44,4.78-40,11-17.34,5.25-25.15,8.23-40,11-19.66,3.67-27.89,2.52-31,2a62.4,62.4,0,0,1-27-11c-10.3-7.57-8.11-11.37-18-18-7.4-5-14.53-6.8-27-10s-13.83-2-21-5c-11.94-5-21.19-13.53-20-16,.82-1.7,5.73,1.25,13-1,6.47-2,10.34-6.74,13-10,1.13-1.38,9.87-12.08,7-16-2.22-3-8.74,1.63-20,1-13.71-.76-23.29-8.74-26-11C1266,371.74,1258.42,359.18,1261.36,355.54Z"
          transform="translate(0.01 0)"/>
    <path class="cls-1"
          d="M1509.36,108.54c.27-2.07,19.19,2.32,44-3,13-2.78,12.67-5,36-12,17.24-5.15,25.86-7.72,36-8,8-.22,22.72-.62,38,8,17.54,9.89,25,25.55,28,32a80.2,80.2,0,0,1,7,36c-.16,12-4.44,24.65-13,50-4.52,13.39-7.19,19.51-11,26-5.67,9.66-11.72,19.63-23,23-2.17.65-10.51,3.14-17-1-6.79-4.33-7.5-13.32-9-22,0,0-2.2-12.7-14-42-9.66-24-24.66-39.52-33-48-8.81-9-19.55-19.88-37-28S1509.12,110.36,1509.36,108.54Z"
          transform="translate(0.01 0)"/>
    <path class="cls-6"
          d="M1398.36,289.54c1.93.19,2.62-9.8,9-22,3.61-6.9,9.46-18.08,22-24a41.52,41.52,0,0,1,25-3c2.83.54,8,1.83,26,15,11.72,8.57,20.53,15.09,31,26,9.41,9.81,14.12,14.72,17,22,1.88,4.76,6.74,19.37,0,35-5.31,12.31-14.88,18.44-19,21-9.83,6.11-18.9,7.11-27,8-8.83,1-22,2.43-37-4-5.09-2.18-18.95-8.13-27-22-4.12-7.09-4-11.54-7-12-6.42-1-19.72,17.22-17,32,.52,2.84,1.74,6.11,0,8-2,2.2-6.07.45-14-1-14.56-2.66-19.08-.08-22-4s-.94-10.14,0-13c3.26-9.92,12.26-16.66,13-16,.94.84-7.8,16.83-23,24-3.44,1.62-11.41,5.24-21,3a29.9,29.9,0,0,1-15-9c-10.82-11.61-9.57-28.35-9-36,2.12-28.41,20.47-47.25,29-56,8.84-9.07,27.59-28.32,43-23,5.73,2,9,6.65,12,11C1400,267.68,1395.51,289.26,1398.36,289.54Z"
          transform="translate(0.01 0)"/>
    <path class="cls-1"
          d="M1314.36,326.54c-2.46-11.49.6-20.75,3-28,4.63-14,12.33-22.63,18-29,10-11.19,17.16-14.25,19-15,4.78-1.93,11.3-4.57,17-2,7.21,3.26,9,13,11,25,2.92,17.38,4.68,27.83,0,41-1.36,3.83-9.93,26.64-31,33-3.61,1.09-11.7,3.53-20,0C1318.55,346.09,1315.25,330.68,1314.36,326.54Z"
          transform="translate(0.01 0)"/>
    <path class="cls-7"
          d="M1342.36,306.54c-.15,2.1-.6,8.41,4,13a13.94,13.94,0,0,0,9,4c6.17.23,10.36-4.21,13-7,2.38-2.52,5.49-5.8,6-11,.05-.53.75-9.1-6-14-7-5-15.17-1.39-16-1C1343.39,294.72,1342.46,305.21,1342.36,306.54Z"
          transform="translate(0.01 0)"/>
    <path class="cls-1"
          d="M1421.36,277.54c-7.33,17.62-2.26,34,0,40,8.54,22.49,28.65,31.53,35,34,17.66,6.86,33.1,3.41,39,2s11.72-2.87,17-8c8.21-8,8.82-18.79,9-22,.58-10.31-3.32-17.87-7-25-4.84-9.38-10.23-14.94-19-24s-14.07-14.43-23-19c-6.94-3.55-12.72-6.5-20-6C1432.84,250.89,1422.12,275.73,1421.36,277.54Z"
          transform="translate(0.01 0)"/>
    <path class="cls-7"
          d="M1441.36,301.54c.63-3,1.51-7.14,5-10,5.34-4.39,13.69-3.11,19,0,.91.53,7.76,4.71,9,13a16.83,16.83,0,0,1-2,11c-3.9,6.65-11.1,7.86-12,8a17.72,17.72,0,0,1-18-9C1439.7,309.39,1440.81,304.17,1441.36,301.54Z"
          transform="translate(0.01 0)"/>
    <path class="cls-1"
          d="M1354.36,363.54c0,3.51,0,5.49,1,8a15.57,15.57,0,0,0,4,6c2.79,2.52,5.76,3.08,11,4,4.91.86,4,.08,15,1a43.25,43.25,0,0,0,9,0c2.7-.3,4-.45,5-1,4.7-2.72,5.29-11.65,3-18a16.55,16.55,0,0,0-2-4c-7.66-11-27.84-7.79-39-6-1.7.27-4.47.81-6,3C1354.32,358,1354.33,359.87,1354.36,363.54Z"
          transform="translate(0.01 0)"/>
    <path class="cls-7"
          d="M1371.36,360.54c.88-2.38,3.5-3.41,5-4,1-.4,3.32-1.15,11,0,5.69.85,8.56,1.31,10,3a8.31,8.31,0,0,1,1,9c-1.95,3.41-6.46,3.71-11,4-3.61.23-7.44.48-11-2C1373.38,368.46,1370.05,364.08,1371.36,360.54Z"
          transform="translate(0.01 0)"/>
    <path class="cls-5"
          d="M1349.36,380.54a28.33,28.33,0,0,0,0,26,25.26,25.26,0,0,0,10,11,20.82,20.82,0,0,0,13,3,20.25,20.25,0,0,0,11-5"
          transform="translate(0.01 0)"/>
    <path class="cls-5"
          d="M1376.36,378.54a65.4,65.4,0,0,0-1,13c.14,6,.26,11.18,3,17a32.43,32.43,0,0,0,10,12,37.79,37.79,0,0,0,16,7,45.53,45.53,0,0,0,25-2,39.62,39.62,0,0,0,16-10c2.56-2.72,4.81-5.11,6-9,1.4-4.58.5-8.48,2-9,.61-.21,1.74.09,4,3"
          transform="translate(0.01 0)"/>
    <path class="cls-5" d="M1379.36,429.54a13.86,13.86,0,0,0-3,7,15.59,15.59,0,0,0,1,7,22.38,22.38,0,0,0,3,6"
          transform="translate(0.01 0)"/>
    <path class="cls-5"
          d="M1405.36,1128.54a158,158,0,0,1,14,17.88c4.7,7,8.05,12,7,14-1.87,3.64-16.33-4.71-17-5.11-11-6.39-17.67-14.55-18-14s10.4,11.42,21,28.1c4.55,7.17,8.87,19.27,11,23.63"
          transform="translate(0.01 0)"/>
    <path class="cls-5" d="M1413.36,1001.54a230.29,230.29,0,0,1-5,82" transform="translate(0.01 0)"/>
    <path class="cls-5" d="M1374.36,977.54c.24,19.11,1.13,35.12,2,47,1.45,19.84,2.23,30,5,43a200,200,0,0,0,14,42"
          transform="translate(0.01 0)"/>
    <path class="cls-1"
          d="M767.86,721c-.25-1.43,1.6-2,22-15,14-8.92,16.52-10.84,23-14,9.51-4.64,14.27-7,21-8,10-1.55,20.45,2,41,9,18.25,6.27,18.94,8,19,9,.5,8.39-41.77,17-47,18C809.57,727.45,769,727.55,767.86,721Z"
          transform="translate(0.01 0)"/>
    <path class="cls-1"
          d="M770.86,774c1.58,8.13,15.41,6.34,42,21a271,271,0,0,1,40,27c6.59,5.58,13.5,12.15,25,16a61.07,61.07,0,0,0,19,3c6.24.11,10.13.13,14-2,0,0,7.34-4,10-15,6-24.7-64.42-95-118-79C785.7,750.16,769,764.51,770.86,774Z"
          transform="translate(0.01 0)"/>
    <path class="cls-1"
          d="M807.86,761c-2.21,11.22,30.85,12.89,78,52,6,5,21.13,17.94,41,18,4.33,0,13.14-.08,18-6,6.39-7.77,1.88-20.64,0-26-8.3-23.7-30.17-36.38-37-40C867,737.37,810.69,746.72,807.86,761Z"
          transform="translate(0.01 0)"/>
    <path class="cls-1"
          d="M804.86,733c-1.31,5.36,10.85,7,79,50l47,21c4.53,2,13.44,6.07,24,4,2.32-.45,10.42-2,15-8,8.34-10.84,0-29.6-2-34C946.93,719.16,809.22,715.22,804.86,733Z"
          transform="translate(0.01 0)"/>
    <path class="cls-1"
          d="M823.86,782c-9.24-4.27-23.42,1.78-27,12-2.17,6.18.16,12.13,1,14a21.46,21.46,0,0,0,12,11c.68.26,11.21,4.11,18-1C837.56,810.74,836.18,787.73,823.86,782Z"
          transform="translate(0.01 0)"/>
    <path class="cls-1"
          d="M846.86,797c-2.48-1.58-14.72-9.39-24-4-4.92,2.85-6.67,8-8,12-1.25,3.72-5.08,15.06,2,25a24.32,24.32,0,0,0,22,10c12.32-1.29,22.65-12.65,22-24C860.27,805.59,850.62,799.44,846.86,797Z"
          transform="translate(0.01 0)"/>
    <path class="cls-1"
          d="M843.86,827c-1.93,7.52,2.48,15.59,8,20,9.22,7.36,20.62,3.75,23,3s16-5.42,17-16c.94-9.5-8.85-17.47-17-20C863.11,810.4,846.8,815.62,843.86,827Z"
          transform="translate(0.01 0)"/>
    <path class="cls-9"
          d="M836.86,698c4.85-2.7,9.51-.74,15,0,13.87,1.87,16.27-6.24,35-8a69.8,69.8,0,0,1,24,2c12.39,3.07,25.77,9.82,25,13-.59,2.45-9,.38-23,2-21.73,2.52-24.67,10.18-48,13-9.72,1.18-21.21,1.3-29-5-1.61-1.31-4.9-4-5-8S834,699.64,836.86,698Z"
          transform="translate(0.01 0)"/>
    <path class="cls-9"
          d="M816.86,821c-1.94-3.39-1.36-6.85-1-9a19.57,19.57,0,0,1,22.52-16.09l.48.09c5.22.89,12.85,4.33,13,9,.09,2.89-2.72,5.16-5,7-5.92,4.79-9.34,2.65-15,7-4.61,3.54-4.82,6.86-8,7S818,823.07,816.86,821Z"
          transform="translate(0.01 0)"/>
    <path class="cls-9"
          d="M846.86,835c-1.76-4.79,2.44-10,4-12a18.84,18.84,0,0,1,25-5c1.87,1,6.32,3.48,6,6-.19,1.51-2,2.14-12,6-10.52,4-11,4.32-12,5-3.2,2.26-4.71,4.39-7,4C848.83,838.69,847.43,836.58,846.86,835Z"
          transform="translate(0.01 0)"/>
    <path class="cls-9"
          d="M797.86,803c-1.79-.47-3.29-10.37,2-16,4.07-4.33,10.26-4.12,14-4,4.85.16,10,1.72,10,3s-4.43.89-11,4a33.16,33.16,0,0,0-9,6C799.55,800.16,798.92,803.31,797.86,803Z"
          transform="translate(0.01 0)"/>
    <path class="cls-9"
          d="M783.86,714c2.6-1.48,2.16-1.58,11-8,4.74-3.44,25.64-18.62,27-17,.53.63-2.64,2.93-5,8a31.28,31.28,0,0,0-2,17c2.47,13.73,16.1,20.94,20,23,10.1,5.34,26,8.69,39,3,4.56-2,9.14-5.25,18-7a56,56,0,0,1,12-1c15,.49,26.31,8.6,38,17,12,8.6,17.33,15.3,20,19,8.22,11.4,7.35,17.27,7,19-.14.7-1.54,7.09-7,10-2.36,1.26-6.12,2.21-16-1-8.53-2.78-14.1-6.22-22-11-21-12.74-22.75-13.34-23-13s1.86,2.42,15,15c13.6,13,13.55,13.09,15,14,5.11,3.21,9.19,4.47,11,9a10.57,10.57,0,0,1,0,8c-2.18,4.75-7.89,5.8-9,6-5.89,1.08-10.87-1.84-16-5-17.24-10.63-24-16-24-16-20.15-16-25.22-20.74-26-20-1.08,1,6.44,12,16,22,14.43,15.1,27.26,21.45,26,24-.91,1.84-8.28-.13-11-1-5.49-1.77-8.87-5-18-14-7-6.92-10-10-10-10-19.53-20.14-21.6-22.3-26-26-8-6.7-11.94-10-17-12-8.12-3.13-13.15-2-22-7a51.16,51.16,0,0,1-9-6c-4-3.46-6.12-6.49-7-6s.75,3.73,1,10c.13,3.36.18,5.34-1,7-2.06,2.89-6.54,3-8,3-15,.4-67.86,7.08-91,10-18.44,2.33-13.73,3.84-54,11-15.4,2.74-28.54,4.73-44,6-20.43,1.68-48.27,2.37-49-2-.34-2,5.66-2.92,13-10,6.93-6.69,9.93-14,12-19a64.93,64.93,0,0,0,5-30c-1.24-15.42-7.58-18.91-5-24,3.06-6,15-7.13,60-1,33.34,4.54,38.81,6.78,67,10,21.27,2.43,4.32-.43,55,2C758.59,720.46,771.43,721.13,783.86,714Z"
          transform="translate(0.01 0)"/>
    <path class="cls-9"
          d="M1414.86,979c.21-2.11,1.12-7.74,7-14,1.3-1.39,5.55-5.69,19-11,1.65-.65,2.87-1.1,25-8,6.56-2,10.94-3.41,16-7,4.07-2.89,4.24-4.14,8-7,5-3.77,8.16-4.25,19-8,17.39-6,18.27-8,23-7,6,1.2,9.79,5.36,14,10,2.47,2.72,9.86,11.47,12,23,3.35,18.06-8,33.25-16,44-13.75,18.43-29.84,26.45-47,35-3,1.49-24.26,11.84-43,9-.72-.11-6-.93-6-2,0-1.45,9.71-.92,21-5a65.53,65.53,0,0,0,20-12,68.9,68.9,0,0,0,15-17c1.72-2.77,3.83-6.19,3-7-1.35-1.31-8.53,6.14-21,13a100.65,100.65,0,0,1-27,10c-11.27,2.39-23.61,2.82-24,1-.27-1.29,5.65-2.7,16-8a141.93,141.93,0,0,0,22-14c1.73-1.31,20.88-15.82,19-19-1.37-2.31-11.75,4.92-33,8-17.17,2.49-16.93-1.28-29,2-3.18.86-8.12,2.47-11,0C1414.19,985.75,1414.66,981.09,1414.86,979Z"
          transform="translate(0.01 0)"/>
    <path class="cls-9"
          d="M1404.86,924c-1.13,2.52.21,5.93,2,8,5.49,6.35,18.44,3.73,27,2,7.58-1.53,7.8-2.66,18-5,9.12-2.09,13.68-3.14,18-3,12.53.41,14.91,7,31,9a49.78,49.78,0,0,0,13,0c4.51-.62,17-2.33,19-9,1.51-5.11-3.88-10.81-5-12-10.54-11.16-29.62-8.88-37-8-8.08,1-11.17,2.59-23,6-20.66,6-31.21,8.41-35,8a65,65,0,0,0-20,0C1408.87,920.72,1405.92,921.68,1404.86,924Z"
          transform="translate(0.01 0)"/>
    <path class="cls-11"
          d="M982.86,708c2-2,16.7-4.67,42-9,15.12-2.59,25.92-6,42-11,21.49-6.73,32.23-10.09,44-16,9.9-5,21.14-6.94,31-12,2.16-1.11,8.45-4.41,12-2,1.74,1.18,4.31,4.73,6,8l.12.24a134.93,134.93,0,0,1,5.88,13.76c-.07,0-10.41-18-5-24,2.67-3,8.32-2.11,9-2,2.62.4,4.63,1.56,11,7,7.89,6.74,10.17,9.55,11,9,1-.69-.76-6.31-4-11-4-5.72-8.52-7.81-8-9,.6-1.36,5.8-1.23,10,1,4.55,2.42,6.24,6.43,7,6s.09-4.11-2-7c-1.14-1.58-2.12-2.06-2-3,.17-1.36,2.39-1.86,5-3,3.15-1.37,5.1-2.91,9-6a46,46,0,0,0,7-7c6-6.91,12.91-9.11,23-15a154.73,154.73,0,0,0,23-17c5.62-5.07,11.15-11.78,22-25,11.16-13.6,12.39-15.93,19-23,3.25-3.48,18.54-19.84,21-18,1.46,1.09-2.28,8-16,33-25.23,45.9-26.86,48.36-32,52-10.31,7.31-20.26,9.11-30,22-2.76,3.66-5.85,7.84-7,14-2.83,15.16,8.78,27.76,7,29-1.56,1.08-11.8-7.69-20-19-2.66-3.67-6.53-9.58-14-14-5.56-3.29-7.42-2.39-8-2-2.36,1.59-1.41,6.76-1,9,1.53,8.35,6.55,13.57,6,14s-3.42-3.1-8-7c-4.27-3.64-7.67-6.34-8-6s3.11,2.62,4,7a57.33,57.33,0,0,1,0,7c-.09,3.69-.16,4,0,5,.58,3.74,2.45,5.61,2,6s-3.23-1.89-7-5c-7.32-6-5.63-4.26-10-8a108.8,108.8,0,0,0-10-7c-1-.67-2.21-1.44-3-1s-.91,2.5,0,8a89.73,89.73,0,0,0,2,10c2.32,8.4,4.54,12.72,4,13s-2.33-3.26-7-9c-3.41-4.2-3.72-3.9-7-8-4.08-5.09-5-7.27-6-7-1.93.52-1.17,9.06-1,11a48.44,48.44,0,0,0,3,14,53.87,53.87,0,0,0,14,20c10,9.12,18.57,10.72,18,13-.62,2.48-11.28,2.43-20,1-13.7-2.25-23.4-8.07-24-7-.69,1.23,12.87,7.59,12,12-.93,4.71-17.79,4.53-44,5-55.76,1-83.63,1.51-90,4-5,1.94-15.91,6.75-22,2-3.62-2.83-2.52-6.69-6-16C987.78,714.44,979.68,711.22,982.86,708Z"
          transform="translate(0.01 0)"/>
    <path class="cls-11"
          d="M1355.86,511c.35-.15.09,0,11-3,11.21-3.06,13.57-3.75,14-3,.85,1.49-7.29,6.06-14,14-7.85,9.29-10.08,18.86-12,26-5.85,21.7-16.26,41.9-24,63-12,32.74-11.57,29.79-19,51-16.3,46.52-16.26,54.51-15,60,.43,1.86,2,8-1,11s-9.89,1.49-12,1-4.93-1.14-7-3c-3.85-3.46-3.66-9.5-3-17,1.32-15,2-22.44,6-36,1.58-5.34,3.39-10.23,7-20,4.71-12.75,8.79-22.71,11-28,2.74-6.58,3.7-8.61,16-36,8.26-18.4,12.4-27.6,13-29,2-4.7,6.19-14.45,12-27C1345.86,519.91,1349.15,513.89,1355.86,511Z"
          transform="translate(0.01 0)"/>
    <path class="cls-11"
          d="M1305.86,975c-4.83-.76-12.66,26.76-16,38.54a249.27,249.27,0,0,0-8,40.68c-3.93,35.63,3.18,36.9,0,69.59-2.52,25.86-8.88,44.63-1,50.32,1,.75,1.46.65,11,2.14,17.16,2.68,18.91,3.48,21,2.14,6.43-4.13,3.54-20.62,2-31-3.34-22.6-1.66-45.77-4-68.51C1304.23,1014.42,1311.53,975.94,1305.86,975Z"
          transform="translate(0.01 0)"/>
    <path class="cls-11"
          d="M1474.86,655c-2.67-3.06,1.14-7.16,14-38,8.09-19.4,11.2-28.66,20-44,10.41-18.14,19.89-28.94,34-45,0,0,14.34-16.32,32-25a26.18,26.18,0,0,1,11-3c6.91-.22,11.52,2.72,18,6,4,2,11,4.67,25,10,17.23,6.55,17.92,5.08,26,9a85.66,85.66,0,0,1,24,18c8.64,9.46,13.13,20.11,20,52,6,27.84,5,30.9,10,56,5.3,26.38,11.12,46.31,16,63,7.09,24.27,10.64,36.41,16,49,3.56,8.36,8.76,19.48,16,38,8.65,22.11,10,28.71,8,30s-6-4.1-16-10c-10.85-6.38-20.62-8.44-28-10-8-1.69-18.65-3.94-32-2-10.6,1.54-16.92,4.85-18,3-1.2-2.06,5.15-8.78,12-13,14.24-8.77,30-6.34,32-6,15.55,2.63,24.17,12.08,26,10,1.46-1.66-2.74-9.14-9-14-12.59-9.77-29.79-6-34-5-16,4-24.34,14.69-26,13-1.51-1.53,4.23-11.34,13-19,11-9.59,21.45-11.22,21-13s-12.37-2.53-23,3c-9.74,5.06-13.65,12.87-15,12s1.32-11.88,9-21c6.84-8.12,13.19-9.65,14-16,.59-4.63-2.2-8.31-4-11-3.16-4.72-1.77-4.18-12-36-8.73-27.15-13.23-41-20-55a127.45,127.45,0,0,0-13-22c-5.7-7.62-12-15.89-23-22-7.15-4-17.26-9.6-26-6-11.07,4.55-11.38,20.39-17,20-4.62-.32-8-11.26-9-18-1.41-9.38,1-15.73,0-16-1.25-.34-7.47,9.6-8,22-.68,15.91,8.42,26.32,6,28-2.1,1.46-10.78-5.13-16-14-4.53-7.7-4.69-14.12-6-14-1.53.14-3.66,9.11-1,18,2.6,8.69,7.86,10.94,7,15-1.16,5.47-12,7.13-21,9C1491.71,648.53,1479.53,660.4,1474.86,655Z"
          transform="translate(0.01 0)"/>
    <path class="cls-11"
          d="M1552.86,911c-.25-3,9.9-5,20-10,7.17-3.58,8.06-5.57,23-18,11.43-9.5,8.1-6,36-28,12.61-9.94,14.94-12,21-16a135.22,135.22,0,0,1,26-14c6.69-2.64,10.87-4.3,17-5,10.34-1.19,18.38,1.24,24,3,5.07,1.59,19.56,6.74,31,20,2.83,3.28,7,8.87,6,10s-7.1-3.84-16-8c-15.47-7.23-30.59-7.5-31-6-.3,1.09,7.34,2.62,16,10,3.44,2.93,10.39,9.64,9,12s-10.13-2.36-24-4c-13.21-1.56-23.54.63-30,2-3.24.69-14.05,3.15-34,14-31.17,17-50.69,27.57-64,44-1.65,2-8.38,10.55-13,9-2.56-.86-2.22-4-6-8C1558.73,912.66,1553.05,913.25,1552.86,911Z"
          transform="translate(0.01 0)"/>
    <path class="cls-11"
          d="M1468.86,1094.13c-5,4,.73,14.24,0,41.53-.44,16.48-2.88,26.34,3,35.6a24.9,24.9,0,0,0,7,7.12c10.84,7.85,22.39,5.83,34,4.75,9.34-.87,20.56-.58,43,0,27.37.71,37.9,3.86,39,0,1.56-5.46-17.67-18-30-26.1-25.35-16.61-27-12-41-23.73-13.55-11.41-17-20-35-32C1473.75,1091.19,1470.11,1093.18,1468.86,1094.13Z"
          transform="translate(0.01 0)"/>
    <path class="cls-10"
          d="M1336.86,975c1.44-.71,2.06.22,11,1,9.44.87,11,0,13,1,7.48,3.79,4.24,25.39,3,36.51-2,18.12-7.33,65.56,12,97,9.8,16,24.17,24.92,22,28.17-1.59,2.39-10.66-.49-17-4.17-9.07-5.27-12.72-12.29-14-11.48-1.54,1,2.45,11.93,8,23,9.32,18.5,17.54,26.28,15,30.25-1.26,2-3.93,1-13,1-18.63-.05-23.76,3.71-28,0-5-4.36-3.08-14.07-2-21.91,2.8-20.32-1.35-41-2-61.55-.58-18.44-1.23-38.87-5-64.68C1336.06,1003.26,1330.06,978.41,1336.86,975Z"
          transform="translate(0.01 0)"/>
    <path class="cls-10"
          d="M1383.86,987c-4.15,3.85-1.9,10.48,1,28,3.93,23.78,1.54,22.23,6,46,1.76,9.39,5.68,30.24,8,30,.6-.06,1.48-1.56,2-22,.69-27.46-.82-28.29,0-42,1.47-24.51,7-33.21,1-39C1397.22,983.54,1388.06,983.16,1383.86,987Z"
          transform="translate(0.01 0)"/>
    <path class="cls-10"
          d="M1410.86,1106c.38,5.45,3.37,6.46,12,19a164.25,164.25,0,0,1,12,20c6.16,12.4,7.47,20.26,9,20,1.77-.3,1.37-11.09,1-21-.78-20.83-2.64-20.19-2-31,.67-11.23,2.83-14.51,0-20-2.56-5-5.74-5.05-10-12-4.35-7.11-4-11.87-6-12-2.3-.15-3.47,6.1-9,19S1410.55,1101.64,1410.86,1106Z"
          transform="translate(0.01 0)"/>
    <path class="cls-10"
          d="M1328.86,949c1.13-2,8.38,1.41,21,4a165,165,0,0,0,29,3c15.34.54,25.65-.87,26,1,.19,1-2.63,2.35-4,3a23.25,23.25,0,0,1-12,2c-9.72-.89-24-1.78-29-2-13.91-.61-18.73,1.32-25-3C1331.27,954.56,1328,950.58,1328.86,949Z"
          transform="translate(0.01 0)"/>
    <path class="cls-8"
          d="M1392.86,518c-1.76-1.06-7.79,5.07-12,11a60.67,60.67,0,0,0-9,19c-4.69,17.08-12.21,33.26-18,50-3.37,9.75-7.31,21.15-13,36-10,26-16,41-16,41-4.29,10.66-6.46,22.06-10,33-1.87,5.78-3.71,11.25-1,16,3.29,5.78,12,8.13,14,6,.71-.74.27-1.69-1-10-.77-5-.9-6.56,0-8,1.15-1.83,3.15-2.2,6-3s11.34-3.17,16-7c3.47-2.85,4.7-6.42,6-10,4.89-13.5,11.17-26.48,16-40,5.54-15.52,5-11.81,10-26,11-31.07,6.39-28.25,13-42,4.83-10,10.45-18.14,8-28-.25-1-1.16-3.33-3-8-5.05-12.87-6.89-14.8-7-20C1391.74,522,1394.08,518.77,1392.86,518Z"
          transform="translate(0.01 0)"/>
    <path class="cls-8"
          d="M1442.86,555c3.56-1.69,5.54-.88,18-5a192.45,192.45,0,0,0,18-7c31-13.64,42.07-19.47,43-18,.8,1.25-7,5.93-16,16-2.41,2.69-8.65,9.92-20,32-6.84,13.3-12.46,24.22-18,40-10.54,30-15.81,45-16,46a18.52,18.52,0,0,1-4,9c-4.55,5.28-10.86,5.44-18,7-18.87,4.12-27.69,14.54-30,12-1.79-2,3.1-8.67,7-15,8-13,11.34-24.34,18-47C1436.87,584.17,1429.06,561.59,1442.86,555Z"
          transform="translate(0.01 0)"/>
    <path class="cls-8"
          d="M1419.86,555c1.55-.1,2.84,2.66,3,3,2.07,4.41-.39,9.4-2,13-2.89,6.45-4,13.59-7,20-7.29,15.8-4.61,17.41-17,52-8.62,24.08-9,20.68-10,27,0,0-2.39,14.86-8,22a14.75,14.75,0,0,1-5,4c-.45.22-4.12,2-5,1s2.08-5.07,4-8c4.34-6.62,4.08-9.92,8-22,3.73-11.48,4.21-9.26,10-25,4.39-12,3.57-11.74,9-27,4.35-12.23,5-12.75,8-22s4.45-13.82,6-20C1416.61,562.12,1417.46,555.19,1419.86,555Z"
          transform="translate(0.01 0)"/>
    <path class="cls-6"
          d="M373.25,328.5A14.57,14.57,0,0,0,371,333c-1.44,5.15,1.72,8.77.5,9.75s-6.12-1.28-7.5-5.25c-1.47-4.22,1.6-8.68,4.5-10.75,3.46-2.48,8-2.48,8.25-1.75C376.93,325.5,375.08,326.13,373.25,328.5Z"
          transform="translate(0.01 0)"/>
    <path class="cls-6"
          d="M1462,388c-.73,1.92,6,3.72,7.5,10s-3.46,11.4-2,12.5c1.23.92,6-1.73,8-6s.27-8,1.5-8.5c1.75-.68,5.57,6.94,6.5,6.5s0-7.14-4.5-11.5C1473.07,385.32,1462.85,385.76,1462,388Z"
          transform="translate(0.01 0)"/>
    <path class="cls-6"
          d="M1385,438c-1.34,1.1-.16,5,1.5,7.5a12.55,12.55,0,0,0,8,5c5.71,1.11,12-1.56,12-3.5,0-1.44-3.54-1.41-11.5-5C1388.59,439.11,1386.22,437,1385,438Z"
          transform="translate(0.01 0)"/>
</svg>