<svg id="Layer_1" data-name="Layer 1" xmlns="http://www.w3.org/2000/svg" viewBox="0 0 1872.43 1296.47">
    <defs>
        <style>
            .cls-1{fill:#9c9ba3;}.cls-1,.cls-13,.cls-14,.cls-15,.cls-16,.cls-17,.cls-18,.cls-19,.cls-2,.cls-20,.cls-21,.cls-3,.cls-4,.cls-5,.cls-6,.cls-7,.cls-8{stroke:#000;stroke-linecap:round;stroke-linejoin:round;stroke-width:8px;}.cls-2{fill:#2b2a2b;}.cls-4{fill:#bebdc6;}.cls-5{fill:#494649;}.cls-6{fill:none;}.cls-7{fill:#de3be2;}.cls-10,.cls-8{fill:#d9d9d9;}.cls-13,.cls-22,.cls-23,.cls-24,.cls-9{fill:#fff;}.cls-11{fill:#380208;}.cls-12{fill:#6a0006;}.cls-14{fill:#45485b;}.cls-15{fill:#7c9ab5;}.cls-16{fill:#bccebe;}.cls-17{fill:#a1afa2;}.cls-18{fill:#3d3d3d;}.cls-19{fill:#b5b5b5;}.cls-20{fill:#ffe600;}.cls-21{fill:#7f7f7f;}.cls-22{opacity:0.05;}.cls-22,.cls-23,.cls-24{isolation:isolate;}.cls-23{opacity:0.2;}.cls-24{opacity:0.15;}.cls-25{fill:#282828;}
        </style>
    </defs>
    <title>dialog</title>
    <g id="Layer_2" data-name="Layer 2">
        <g id="Layer_3" data-name="Layer 3">
            <path class="cls-1"
                  d="M138.33,972a51.79,51.79,0,0,0,13,12c3.93,2.55,6.56,4.21,10,4,8-.49,12.81-10.54,14-13a33.4,33.4,0,0,0,3-16c-.45-11.46-5.5-20-8-24-20.35-32.66-34.25-55-63-65-21-7.32-41.32-5.13-50,2-1.31,1.08-4.8,3.94-5,8-.31,6.25,7.39,11.23,10,13C87.66,910.17,130.33,961.06,138.33,972Z"
                  transform="translate(0 -67.03)"/>
            <path class="cls-2"
                  d="M541.33,945c.34-1.19,2.29-8,5-17,5.24-17.47,8.12-27.08,11-35,1-2.81,15.25-41.48,22-40,4.11.9,3.14,16.14,3,81,0,9.67.08,19.33,0,29-.39,49.94.28,100.17,1,154,1.18,88.31,1.77,132.47,2,134,3.77,25.55,10.15,54.82,0,60-7.93,4-22-8.65-29-15-20.78-18.79-32-41.58-41-68-8.59-25.09-18-52.52-19-91C494.64,1073.07,517.37,1028.22,541.33,945Z"
                  transform="translate(0 -67.03)"/>
            <path class="cls-1"
                  d="M590.33,771c4.25-1,12.83.66,30,4,10.24,2,17.3,4,19,9a8.57,8.57,0,0,1,0,5c-4.86,18.64-7.28,28-23,85a225.42,225.42,0,0,1-18,43c-1.2,2.19-3.81,6.73-9,9a16.53,16.53,0,0,1-10,1c-9.92-2.49-13.61-21.54-15-31C559,859.78,559.85,778.22,590.33,771Z"
                  transform="translate(0 -67.03)"/>
            <path class="cls-3"
                  d="M430.33,613c28.81,15,40.45,35.34,43,40,5,9.11,14.16,25.93,9,45-5.3,19.59-22.49,29.51-32,35-30.92,17.84-63.44,11-73,9a118.91,118.91,0,0,1-51-25c-15.73-13.17-23.83-27-29-36-12.24-21.32-23.42-40.8-18-56C290.8,592.85,375,584.12,430.33,613Z"
                  transform="translate(0 -67.03)"/>
            <path class="cls-3"
                  d="M607.33,775c11.67,9,20.93,16.26,27,21,13.56,10.59,15.77,12.38,21,16,7.35,5.08,10.68,6.87,21,14,7,4.82,12.7,9,14,10,17.87,13.58,37.28,57.56,20,89-2,3.59-9.15,16.64-24,22-11.83,4.27-22.72,1.56-29,0-9.21-2.29-15.93-6.56-29-15a254.1,254.1,0,0,1-30-22c-14.06-12.06-14-14.71-30-29-17.55-15.65-20.74-15.24-23-20C540,849.76,548,826.75,607.33,775Z"
                  transform="translate(0 -67.03)"/>
            <path class="cls-4"
                  d="M637.33,782c-7-2-18,3-24,12-4.13,6.19-6.92,12.49-15,33-9.21,23.38-13.82,35.06-15,39-10.7,35.74-5.66,48.28-11,50-17.89,5.76-82-132.5-80-191a247,247,0,0,0-1-28c-2.08-23.17-3.8-40.17-15-55-4.75-6.29-9-9.28-8-11,1.92-3.25,20.21,2.32,35,12,12,7.85,18.82,16.54,24,23,25.49,31.8,44.85,56,66,75,9.46,8.52,17.38,18.66,27,27C628.26,774.87,631.33,778,637.33,782Z"
                  transform="translate(0 -67.03)"/>
            <path class="cls-4"
                  d="M427.33,621c.45-.72,11.41,3.59,21,13a62.74,62.74,0,0,1,17,31c1.29,6,4.08,18.84-2,33a49.63,49.63,0,0,1-16,20c-20.79,15.11-48.27,8.53-63,5-16.69-4-28.27-10.47-38-16-30.92-17.57-29.08-29.2-48-38-33.46-15.56-84-1.11-102,29-2.12,3.54-4.21,8-7,20-4.19,18-10.63,55.92,5,136,7.76,39.76,13.69,52.68,22,64,11.41,15.55,23.94,23.5,32,29,73.83,50.34,71.84,98.32,136,124,22.11,8.85,49.27,13.93,55,15,17.5,3.27,33.67,6.19,55,5,29.26-1.63,38.32-1.79,44-8,3.66-4,8.15-11.93,11-18a102.94,102.94,0,0,0,5-13c6.44-19.93,9.66-29.9,11-35,1.66-6.33,7.76-30.57,11-70,2.48-30.12,4.16-50.65,1-79a303.34,303.34,0,0,0-20-80c-4.18-10.23-10.78-22.49-24-47-20.39-37.82-30.59-56.73-39-67C464.17,637.19,426.5,622.33,427.33,621Z"
                  transform="translate(0 -67.03)"/>
            <path class="cls-5"
                  d="M415.33,617c27.79,10.69,58,47,58,47a497.41,497.41,0,0,1,38,52,514.94,514.94,0,0,1,36,68c19.37,44.55,32.66,92.64,34,119,.11,2.06.44,10,1,10,.83,0,2-17.57,2-32a274.49,274.49,0,0,0-6-58,283.21,283.21,0,0,0-20-58c-6-13.09-7.94-14.84-12-26-5-13.7-5.19-19.84-12-27-.26-.27-4.5-3.85-13-11-7-5.94-12.77-10.73-12-12,.14-.23.43-.26,6,0,2.86.13,3.26.16,4,0,2.45-.53,5.12-2.38,5-4-.1-1.31-2-1.94-4-3s-4.31-3.36-9-8c-12.06-11.93-18.09-17.89-25-27-4.55-6-5.75-8.41-10-12-2.34-2-5.08-3.85-14-8-14.54-6.75-22.59-10.5-34-12-4.19-.55-4.16-.18-11-1-12.13-1.45-19.87-3.51-20-3s4.26,2,8,3c1.51.4,2.17.49,4,1C409.33,615,412.22,615.8,415.33,617Z"
                  transform="translate(0 -67.03)"/>
            <path class="cls-6" d="M457.33,984a199.78,199.78,0,0,0,39-16" transform="translate(0 -67.03)"/>
            <path class="cls-6"
                  d="M469.33,950a226.26,226.26,0,0,0,39-26,185.58,185.58,0,0,0,22-21,175.44,175.44,0,0,0,26-39"
                  transform="translate(0 -67.03)"/>
            <path class="cls-6" d="M491.33,952a114.12,114.12,0,0,0,31-18,109.08,109.08,0,0,0,34-48"
                  transform="translate(0 -67.03)"/>
            <path class="cls-6" d="M467.33,1066a94.45,94.45,0,0,0,77-44" transform="translate(0 -67.03)"/>
            <path class="cls-7"
                  d="M430.33,1072c4.17-.07,13.7,3,34,4,3.85.19,12.67.52,24,0a278.15,278.15,0,0,0,29-3c12-1.85,17.93-2.77,22-5,6.21-3.4,11.67-8.68,14-7,.42.31.7.82,1,3,.6,4.38,0,6.5,0,10a88.81,88.81,0,0,0,1,13,6.46,6.46,0,0,1,0,3c-.6,2.17-2.37,3.1-2,4,.26.62,1.14.28,2,1s1,2.22,1,5v5c-.32,3.48-.55,19.66-1,52-.08,5.68-.79,11.33-1,17-.22,5.87-.18,8.61-2,12-1.43,2.65-3.69,5.15-3,6,.33.4,1,0,3,0s3.89-.07,5,1c1.33,1.27,1.06,3.46,1,4a7.79,7.79,0,0,1-2,4c-2.06,2.62-4.18,3.65-4,4s3.21-1.54,7-1c.91.13,3.44.49,4,2,.76,2.06-2.84,4.39-2,6,.59,1.13,2.59.38,4,2a4.66,4.66,0,0,1,1,3c0,2.91-2.42,3.85-2,6,.27,1.37,1.31,1.2,2,3s.1,2.86,0,5c-.08,1.81.28,3.2,1,6a419.85,419.85,0,0,0,15,46c6.94,17.2,3.62,11.22,15,41,12.17,31.86,13.68,32.22,13,35.5h-216S397.22,1072.53,430.33,1072Z"
                  transform="translate(0 -67.03)"/>
            <path class="cls-6" d="M488.33,1107c9.08-.24,16.87-.63,23-1,16.15-1,21.34-1.86,27-4a75.41,75.41,0,0,0,15-8"
                  transform="translate(0 -67.03)"/>
            <path class="cls-6"
                  d="M482.33,1116c.85,7.19,1.72,16.74,2,28a318.42,318.42,0,0,1-2,43c-.94,8.35-2.45,18.89-5,31"
                  transform="translate(0 -67.03)"/>
            <path class="cls-6" d="M507.33,1128c-.12,9.87-.57,18.06-1,24-.6,8.34-.92,12.62-2,18a90.09,90.09,0,0,1-7,21"
                  transform="translate(0 -67.03)"/>
            <path class="cls-6"
                  d="M551.33,1204a130.42,130.42,0,0,0-18,6,35.64,35.64,0,0,0-11,7c-1.27,1.2-3.44,3.25-3,4,.85,1.43,10.59-2.93,13-4a119.48,119.48,0,0,0,18-10"
                  transform="translate(0 -67.03)"/>
            <path class="cls-6" d="M559.33,1213a43.42,43.42,0,0,0-16,8" transform="translate(0 -67.03)"/>
            <path class="cls-6"
                  d="M546.33,1192a118.19,118.19,0,0,0-12,2,133.08,133.08,0,0,0-30,11,148.36,148.36,0,0,0-14,8"
                  transform="translate(0 -67.03)"/>
            <path class="cls-6" d="M464.33,1307q8.17-2.17,17-5c6-1.93,11.65-3.95,17-6" transform="translate(0 -67.03)"/>
            <path class="cls-6"
                  d="M512.33,1235a336.74,336.74,0,0,0-39,28c-15.75,13.11-29.73,27.16-29,28,.46.53,6.48-4.6,22-15,12.41-8.31,19-12,25-15,5.8-2.87,17.34-8.17,18-7,1,1.67-20.84,16-27,20-15.62,10.25-25.63,15.66-25,17,.32.69,3.27-.06,10-2,7.3-2.1,17.18-5.08,29-9"
                  transform="translate(0 -67.03)"/>
            <path class="cls-5"
                  d="M580.33,884c-1.31,0,0,52.09-1,141-.23,20.15-.82,50.43-2,111-2,100.39-2.21,94.22-2,104,0,0,1.62,74.54-1,97a148.58,148.58,0,0,0-1,15,74.29,74.29,0,0,0,0,7.5h65.5c1-2.45-2.49-3.9-5.5-11.5-4.31-10.88-9-22-12-33-7.47-27.41-18.29-60.27-21-74-3.37-17.08-4.62-30.62-7-57-3.07-34.09-4.24-61.07-5-82-2.64-72.92-1-93.11-4-159C584,934.52,581.62,884,580.33,884Z"
                  transform="translate(0 -67.03)"/>
            <path class="cls-5"
                  d="M185.33,698c3.33,3.07,10.71-3.74,21-5,12.58-1.54,23.05,6,30,11,15.55,11.2,21.68,25.86,33,54a323.63,323.63,0,0,1,19,69c3.87,24.07,3,35.57,1,45s-4.51,20.83-14,31c-2.89,3.1-17.07,17.5-37,16a43.57,43.57,0,0,1-20-7c-18.69-11.45-25.09-31.43-26-31-1.52.72,14,35,14,35,39.52,87.33,40.11,89.29,43,93,1.8,2.31,6.63,8,8,16a56.79,56.79,0,0,1,1,11c-.17,3.73-.75,4.84,0,7,1,2.9,3.32,4.48,7,7,2.66,1.82,4.82,3.3,8,4,4.88,1.08,8.92-.37,9,0s-6.66,1.09-12,6c-1.64,1.51-4,3.75-4,7a7.69,7.69,0,0,0,3,6c2.67,2,5.21.65,6,2,1,1.8-2.82,5.29-6,10-3.77,5.59-4.62,10-6,14-6.17,17.85-36.62,66.75-59,124-7.4,18.94-10.17,29.18-12,38a220,220,0,0,0-4,51c.5,15.22,1.12,36,6,47.5h249c.73-1.84,1.49-10.4,3-18.5,7.19-38.57,7.06-68.51,7-97v-72c0-47.7,1-135.15,2-184a487.09,487.09,0,0,0-2-58c-1.19-12.69-2.61-22.46-3-25-6-39-33.94-69.57-76-129-11.47-16.2-27.74-39.85-54-75,0,0-42.26-56.57-64-52a68.06,68.06,0,0,0-7,2c-8.75,3-13.79,7-21,12-14.69,10.28-22,15.41-27,17-6.67,2.13-11.82,2.29-15,7C184,690.5,183.08,695.92,185.33,698Z"
                  transform="translate(0 -67.03)"/>
            <path class="cls-6"
                  d="M282.33,1054a156.34,156.34,0,0,0,28-1,109.12,109.12,0,0,0,22-5,103.36,103.36,0,0,0,21-10"
                  transform="translate(0 -67.03)"/>
            <path class="cls-6" d="M275.33,1075c3.41.45,11.09.8,15,1a138.24,138.24,0,0,0,14,0"
                  transform="translate(0 -67.03)"/>
            <path class="cls-6" d="M336.33,1076c5.87-.16,10.67-.09,14,0,6.6.19,9.88.55,15,0a56.58,56.58,0,0,0,10-2"
                  transform="translate(0 -67.03)"/>
            <path class="cls-6"
                  d="M245.33,923a199.8,199.8,0,0,0,15,44c4.21,8.76,18.33,36.43,20,51,1.33,11.57,1,14,1,14-.45,3.34-1.39,6.32,0,10a19.68,19.68,0,0,0,3,5c2.82,3.54,5,4.13,5,6,0,1.32-1.15,1.43-3,4a16.07,16.07,0,0,0-3,7c-.2,1.37-.64,4.39,1,7,1.21,1.93,2.24,1.51,3,3,1.24,2.41-.56,5.21-3,11-1.11,2.62-1.9,5.37-3,8-30.65,73.1-43,142-43,142s-9,50.22-9,95v29.5"
                  transform="translate(0 -67.03)"/>
            <path class="cls-5"
                  d="M266.33,615c-19.93,18.57-15.66,12.69-21,19-12.86,15.19-10,16.61-18,23-3.14,2.5-6.09,4.29-7,8-1.19,4.86,2,9.44,6,15,8.71,12.13,14.4,11.47,17,20,1,3.22,1.11,6.39,4,9a13.2,13.2,0,0,0,8,3c1.17.11,12.11,2.74,34,8,24.93,6,17.72,7.09,24,8,.79.11,3.48.47,4,2s-1.26,3.22-3,5c-11.33,11.55-10.48,11.54-13,13-5.32,3.08-8.45,2.74-9,5-.76,3.12,4.45,6.88,6,8,16.21,11.72,31.15,25.23,48,36,9.2,5.88,18.8,12.92,38,27,16.47,12.08,22.83,17.25,30,25a131.7,131.7,0,0,1,19,26c5.79,10.67,8.41,19.39,11,28a213.27,213.27,0,0,1,7,34c1.88,14.84,3.45,26,4,26,.93,0,1.94-26.21-1-53a204.4,204.4,0,0,0-10-44c-6.5-18.83-13.9-31.52-26-52-5.78-9.78-14.79-24.38-28-43-19.11-26.93-23.25-28.78-52-67-19.39-25.77-16.7-23.87-26-35-19.72-23.61-26.55-25.89-31-40-2-6.25-4-16.3-9-17C269.9,611.66,267.79,613.64,266.33,615Z"
                  transform="translate(0 -67.03)"/>
            <path class="cls-3"
                  d="M83.33,849c-10.86,4.44-18.57,16-34,39-7.18,10.73-16,23.93-23,43-6.82,18.63-5,24.15-13,35-2.88,3.92-7.67,9.37-9,18a33.3,33.3,0,0,0,1,14,39.56,39.56,0,0,0,8,14c10.49,11.51,32.16,11.25,43,11,8.53-.2,58.39-2.11,80-29,2-2.53,5.92-7.9,13-16,2.64-3,9.16-10.35,19-20,14.43-14.15,16.06-13.73,18-18,5.56-12.25-2.64-27.25-7-35C161.34,873,115.91,835.68,83.33,849Z"
                  transform="translate(0 -67.03)"/>
            <path class="cls-4"
                  d="M261.33,840a137.46,137.46,0,0,1-17,43c-3.73,6.26-3.8,5.29-15,21-17.11,24-30,44-30,44-7.06,11-12.11,19.3-22,29-5.51,5.4-11.65,10.36-12,10s2.56-2.76,5-7a33.68,33.68,0,0,0,4-12c1.95-12-3-24.54-4-27-7.48-18.44-20.26-30.78-30-40,0,0-24.25-23-50-31a37.64,37.64,0,0,0-14-2,38.89,38.89,0,0,0-19,6c-2.25,1.48-4.58,3.42-5,3s1.44-2.93,3-5c5.7-7.56,8.55-11.34,11-14s6.57-8.37,15-20c15.47-21.34,25-34.47,33-53,.39-.91-.1.22,12-31,4.73-12.2,7.18-18.42,11-24,6.52-9.51,14.15-14.65,22-20,14.16-9.65,22.76-15.5,34-16,19.3-.86,34,14.62,40,21"
                  transform="translate(0 -67.03)"/>
            <path class="cls-6"
                  d="M264.33,861a51.66,51.66,0,0,1-6,17c-2.59,4.57-6.06,10.69-13,15-4.72,2.93-9.21,3.89-9,5s4.85,1.11,7,1a35.76,35.76,0,0,0,14-4,53.46,53.46,0,0,0,7-4"
                  transform="translate(0 -67.03)"/>
            <path class="cls-3"
                  d="M98.33,967a99.43,99.43,0,0,1,29,9,94.11,94.11,0,0,1,25,18c9,9.17,11.22,15.38,22,34,3.62,6.26,11.78,20.05,22,35,18.12,26.5,27.18,39.74,36,45,1.71,1,6.41,3.63,9,9,1.8,3.73,2.3,8.18,1,15-1.52,8-5.55,29.09-22,35-8,2.87-15.51.93-23-1a68,68,0,0,1-23-11c-21-15-25.47-11.23-55-30-13.46-8.55-39.94-25.64-66-55,0,0-18.14-20.44-32-45a177.18,177.18,0,0,1-10-21c-2.75-6.92-4.12-10.38-4-12C8.6,975.57,58.75,960.86,98.33,967Z"
                  transform="translate(0 -67.03)"/>
            <path class="cls-3"
                  d="M178.33,1150c-.64,4.44,5.47,5.43,20,22,4.84,5.52,6.5,8.07,11,11,6.85,4.46,13.53,5.41,18,6,15.12,2,27.11-2.64,33-5,8-3.2,15.82-6.33,22-14,8.7-10.8,3.34-17.22,10-24,8.84-9,27.85-7.42,57-5,5.1.42,13.71,1.29,20-4,.62-.52,6.16-5.32,6-12-.19-8.1-8.63-13.57-17-19-5.33-3.45-5.75-2.81-18-9-14.4-7.27-15.55-9-22-11a56.55,56.55,0,0,0-21-2c-27.41,1.68-47.88,19.63-54,25-3,2.6-4.41,4.18-9,8a179.15,179.15,0,0,1-24,17C189.74,1145.88,179.17,1144.16,178.33,1150Z"
                  transform="translate(0 -67.03)"/>
            <path class="cls-3"
                  d="M300.33,1119c17,2.17,26.75,16.2,37,31,11,15.9,9.49,23.11,9,25-2.19,8.45-10.24,13-12,14-8.11,4.59-16.15,3.55-20,3-11.14-1.6-18.33-7.91-23-12-9.8-8.6-14-18.12-17-25-4.89-11.35-7.67-17.78-5-24C273.58,1121.09,289.16,1117.57,300.33,1119Z"
                  transform="translate(0 -67.03)"/>
            <path class="cls-3"
                  d="M300.33,1104c6.14-6.51,25.12,2.7,34,7,17.09,8.29,25.26,18.45,29,24,6.68,9.91,6.2,15.41,6,17a20.14,20.14,0,0,1-11,15c-7.94,3.9-16.06.85-21-1-19.39-7.27-28-26.22-32-35C301.17,1121.86,295.42,1109.2,300.33,1104Z"
                  transform="translate(0 -67.03)"/>
            <path class="cls-3"
                  d="M649.33,845a129.78,129.78,0,0,1,17-31c6.84-9.18,12.51-14.19,22-23,13.27-12.33,30.47-28.29,46-45,14.14-15.21,23.46-25.23,32-39,5.22-8.41,11.15-16.37,16-25,5.43-9.66,6-12.21,9-13,7.74-2.06,16.63,11.7,33,37,2.27,3.51,5.08,8,5,14-.12,9.11-6.86,15.77-9,18s-10.75,20.47-28,57-13.66,34.63-29,66a324.06,324.06,0,0,1-29,49,159.65,159.65,0,0,1-29,29,45.54,45.54,0,0,1-10,6,41,41,0,0,1-24,3,41.69,41.69,0,0,1-11-4C641.59,933.39,634.74,884,649.33,845Z"
                  transform="translate(0 -67.03)"/>
            <path class="cls-3"
                  d="M784.33,691c-3.71-2.82-4.27-8.07-5-15-1-9.69,1.58-16.88,5-26,2.58-6.89,8.5-22.18,21-33,1.82-1.57,5.17-4.26,9-7,8.63-6.18,10-5.73,14-9,3.22-2.65,3.14-3.64,14-21,5.6-9,7.34-11.44,11-13,5.9-2.52,11.78-.46,13,0,11.41,4.29,13.8,18.65,14,20,1.41,9.33-2.43,16.93-6,24-4.9,9.69-7.78,9.2-12,19-3.44,8-2.42,10.39-6,17a47.43,47.43,0,0,1-12,14C833.09,670.47,797.15,700.75,784.33,691Z"
                  transform="translate(0 -67.03)"/>
            <path class="cls-3"
                  d="M795.33,704c-.8-16,7-27.91,11-34,2.07-3.14,14.84-22,39-29a61.34,61.34,0,0,1,28-2c3.42.58,7.15.85,11,3a24.27,24.27,0,0,1,7,6c11,13.38,8.7,22.58,19,34,3.56,4,7.41,6.81,7,11-.39,3.91-4.24,6.49-5,7-5,3.34-10.25,2.1-16,2-2.68,0-4,.18-22,5-24.69,6.63-37.1,10-40,12-13.12,9.12-13.07,19.13-20,19C805,737.83,796.12,719.7,795.33,704Z"
                  transform="translate(0 -67.03)"/>
            <path class="cls-3"
                  d="M879.33,647c-.29-2.43,11.43-5.93,15-7,5.71-1.71,10.89-2.16,21-3,15.56-1.29,19.28-.45,21,0,5.44,1.43,14.36,5.16,14,8C949.37,652.71,880,652.82,879.33,647Z"
                  transform="translate(0 -67.03)"/>
            <path class="cls-3"
                  d="M882.33,655c-.08-4,8.3-7.24,18-11,10.28-4,18.21-4.34,33-5,10.51-.47,16.18.13,22,2,4.43,1.42,11.82,3.8,13,9,1.08,4.73-3.52,9.47-5,11C945.41,679.48,882.55,665.86,882.33,655Z"
                  transform="translate(0 -67.03)"/>
            <path class="cls-3"
                  d="M888.33,670c3.16-7.85,16.44-10.23,43-15,27.35-4.91,35.68-2.94,42,1,1.7,1.06,11.15,7,11,15-.16,8.26-10.34,13.88-16,17-10.9,6-15.91,4.23-43,9-16.11,2.84-19,4.3-24,2C891.26,694.35,884.42,679.7,888.33,670Z"
                  transform="translate(0 -67.03)"/>
            <path class="cls-3"
                  d="M313.33,320c1.09-3.16,10.85.41,26-7,5-2.43,5.64-3.66,15-10,13.13-8.9,19.7-13.35,27-16,4.43-1.61,17.56-6.18,33-2,17.41,4.71,26.87,17.6,30,22,8.23,11.57,9.82,22.7,12,38,1.32,9.24,2.74,19.89,0,33-1,4.91-1,2.38-7,22-3.21,10.51-3.82,13.21-6,14-6.59,2.38-18.62-15.86-23-22C384.57,341.82,310.41,328.45,313.33,320Z"
                  transform="translate(0 -67.03)"/>
            <path class="cls-8"
                  d="M145.33,573a8,8,0,0,0-2,4c-.33,3.18,2.42,6.41,5,8,4.85,3,11.13,1.43,15-1a18.29,18.29,0,0,0,7-9c2.06-4.91,2.24-9.8,1-19a153.06,153.06,0,0,0-4-20s-3.71-13-8-37a225.34,225.34,0,0,1-3-40c.29-11.08,1.7-46.78,26-81,21.9-30.84,50.45-43.68,65-50a168.27,168.27,0,0,1,69-14c40.08.65,68.66,16,85,25,11.76,6.49,26.52,14.8,41,31,12.76,14.28,19.23,27.88,25,40,4.34,9.12,14,29.54,18,53,1.76,10.45,5.63,20.5,7,31a31.62,31.62,0,0,0,4,12,18.93,18.93,0,0,0,6,7c3.91,2.56,10.54,4.3,16,1,.33-.2,6.3-3.91,6-9-.36-6.18-9.7-9.38-9-11,.54-1.24,6.78-1.17,12,2,10.59,6.43,12.64,23,11,34a37.7,37.7,0,0,1-9,20c-2.17,2.42-7.6,8.47-16,10-6,1.08-10.87-.56-11,0-.23,1,6.33,5.23,14,5,7.28-.22,11.87-4.39,13-3,.28.35.67,1.44-4,8-3.66,5.13-5.91,8.3-10,12-9,8.13-18.36,11.21-24,13-6.78,2.15-11.54,3.66-18,3-4.32-.44-8.7-1.79-9-1s3.28,1.74,6,5c4.59,5.51,3.82,13.82,3,14-.47.1-.55-2.62-3-5-3.61-3.5-9.1-3.07-10-3a16.76,16.76,0,0,0-8,3c-1.89,1.26-4.82,3.63-10,13s-5.27,12.39-10,17a34,34,0,0,1-5,4,35.48,35.48,0,0,1-12,5c-7,1.59-12.67.65-22-1a180.59,180.59,0,0,1-20-5,56.47,56.47,0,0,1-6-2c-2.25-1-3.12-1.62-5-2a14.23,14.23,0,0,0-5,0,26.06,26.06,0,0,0-11,5,33.71,33.71,0,0,0-10,11,14.9,14.9,0,0,0-2,6c-.2,2.4.37,3.86,0,4-.68.26-3.29-4.31-5-9a26,26,0,0,1-2-10,15.92,15.92,0,0,1,1-6c1.91-4.8,6.32-6,6-7-.4-1.23-7.31-.71-18,2-15.24,3.87-25.28,8.93-32,13-7.14,4.33-9.49,6.92-11,9-4.1,5.65-4.62,11.16-6,11-1.58-.19-2-7.46-2-11,0-4.36,0-9,2-14,3.42-8.38,10.44-12.47,10-13s-5.07,3.47-12,7a84.3,84.3,0,0,1-13,5c-11.06,3.51-17,5.4-25,6-13.79,1-25.06-2.41-25-3,0-.33,3.51.45,8-1a21.35,21.35,0,0,0,9-6c6.46-6.85,8.14-16.46,7-17-.55-.26-1.73,1.57-3,3-6.45,7.23-18,7.1-27,7s-20.66-.24-33-8c-2.54-1.6-12.89-6.77-19-18-.51-.94-9-15-4-26A20.66,20.66,0,0,1,145.33,573Z"
                  transform="translate(0 -67.03)"/>
            <path class="cls-9"
                  d="M221.33,357c-17.18,17-21.3,38.09-24,53-6.26,34.54.91,66.66,5,85a334.75,334.75,0,0,1,7,48,109.81,109.81,0,0,1-3,29c-1.7,7.34-3.28,10.87-6,14-4.28,4.93-11.94,9.5-19,8-4.13-.88-6.57-3.51-7-3-.62.73,4,6.66,10,11,9.62,6.92,20,7.69,25,8,7.65.47,17.73,1.1,26-5,4.7-3.47,7.05-7.81,9-7,2.2.92,1.63,7.48,1,11-1.84,10.35-7.62,14.09-6,17,1.8,3.25,10.64,1.58,19,0,7-1.33,13.92-2.63,22-7,8.42-4.55,12.25-9.27,14-8,2.18,1.58-1.71,10.35-2,11-4.32,9.61-11,13.36-10,15s9.5-1.29,17-4c10.83-3.91,11-5,18-7,8-2.3,13.86-2.64,20-3,3.83-.22,11.61-.68,12,1,.31,1.32-4.36,2.31-9,7s-7.27,10.84-6,12c1,.93,4.14-1.81,12-6,5.64-3,9.47-5,13-6,8.29-2.23,11.92,2.37,29,7,12.07,3.27,18.1,4.9,25,3,11-3,17.91-12.47,19-14,4.28-6,4.29-9.91,11-18,4.25-5.13,6.68-6.48,9-7,6.14-1.37,11.23,3.15,12,2s-2.83-5.7-8-8c-4-1.76-6.93-1.27-7-2-.11-1.14,7-3.44,15-4,8.19-.57,8.86,1.27,16,1a45.34,45.34,0,0,0,22-7c6.43-3.9,13.06-10,12-12-.73-1.37-4.29.67-11,0-1.78-.18-11.25-1.12-16-8-.87-1.27-3.17-4.59-2-7,.63-1.31,2.3-2.38,13-3,10.32-.6,11.27.26,15-1a24.41,24.41,0,0,0,11-8c4.47-5.49,5.42-11.19,6-15,1.21-7.92,0-16.75-2-17-1.25-.16-1.62,3.15-5,7-.54.62-5.71,6.36-12,7-9.82,1-17.64-10.93-19-13-3.26-5-4-8.81-7-23-1.64-7.67-3.6-15.28-5-23-10.46-57.77-41-91-41-91-15.15-16.48-30.76-24.56-49-34-19.23-10-37-19.12-62-21-29.92-2.24-53,7.22-72,15C240.74,343.39,231.13,347.33,221.33,357Z"
                  transform="translate(0 -67.03)"/>
            <path class="cls-10"
                  d="M306.25,513.5c1.42-7.37,5-12.12,9.25-17.75A78.81,78.81,0,0,1,331.75,480c10.69-7.86,12.75-5.65,25.5-14.75a65.84,65.84,0,0,1,11-6.75c4.61-2.2,8.34-4,13-4,8.46,0,14.62,5.69,15.75,6.75,10.66,10,9.61,26.4,11,26.25s1-13.55,1-15.25c-.17-9.74-1-13.17.75-19a19.31,19.31,0,0,1,16.5-15c9.16-1.51,16.74,4.09,26.75,11.5a89.08,89.08,0,0,1,22,23.5c4.61,7.19,7.46,11.77,8,18.75a32.78,32.78,0,0,1-5,19.5,26.69,26.69,0,0,1-9.25,9.5,24.92,24.92,0,0,1-13.25,3.5c-8.35-.28-8.57-5-16.25-5.75-6.82-.67-16.16,2.11-22.5,7.75-2.58,2.3-4.41,4.84-7,4.5-1.41-.19-2.1-1.11-7-6-3.57-3.57-4.65-4.51-5.75-4.25-1.63.39-2.24,3.18-2.5,4.25,0,0-.8,3.29-9.75,17-5.29,8.11-14.16,11.47-19.5,13.5-3.13,1.19-25.56,9.3-43.25-3.75a41.25,41.25,0,0,1-13.25-17.5C307.38,530.83,304.4,523.06,306.25,513.5Z"
                  transform="translate(0 -67.03)"/>
            <path class="cls-3"
                  d="M249.33,410c4.63-5.7,7.72-6.31,13-11,3.38-3,10.55-9.37,12-17,2-10.42-7.27-20.1-11-24-14.5-15.16-38.63-21.46-60-16-4.62,1.18-17.34,4.61-28,16-11.21,12-13.45,25.61-15,35-5.83,35.38,12,62.75,18,72a57.58,57.58,0,0,0,15,16c5.27,3.75,11.33,8.06,20,8,1.6,0,11.83-.24,19-8,5.25-5.68,6.07-12.37,7-20,1.19-9.75-1.09-10.25,0-23,.86-10,2.75-15.14,4-18A44.63,44.63,0,0,1,249.33,410Z"
                  transform="translate(0 -67.03)"/>
            <path class="cls-3"
                  d="M322.33,510a29.54,29.54,0,0,0,0,14c3.42,12.47,16.23,17.7,17,18,15.34,6,29.65-4.31,32-6a41.18,41.18,0,0,0,12-14,47.88,47.88,0,0,0,5-15,68,68,0,0,0,0-26c-2-10.22-4.93-12.34-6-13-2.18-1.36-5-1.84-10-1-6,1-12,3.39-23,11s-17,11.86-22,20A37.23,37.23,0,0,0,322.33,510Z"
                  transform="translate(0 -67.03)"/>
            <path class="cls-9"
                  d="M357.33,508c.32-1.49,2.55-3,7-6,5.52-3.71,7.88-4.61,9-5,3.55-1.24,5.45-1.9,7-1,3.14,1.82,2.59,8.68,1,13-.74,2-2.63,7.14-8,9a12.65,12.65,0,0,1-10-1C360.37,515.32,356.57,511.52,357.33,508Z"
                  transform="translate(0 -67.03)"/>
            <path class="cls-3"
                  d="M415.33,464a26.82,26.82,0,0,1,3-11c1.36-2.49,3.93-7.24,9-9,5.76-2,11.34,1,15,3,2.27,1.23,4.59,2.84,13,12,7.56,8.24,11.37,12.43,13,16a31.81,31.81,0,0,1,3,18,26.29,26.29,0,0,1-6,14c-4,4.61-8.41,6.28-13,8-5.79,2.17-8,1.46-9,1-1.41-.65-2.29-1.78-4-4-3.36-4.37-2.66-5.31-5-8-1.37-1.58-3.58-3-8-6-2.72-1.82-3.85-2.39-5-4a11.9,11.9,0,0,1-2-6C418.12,476,414.38,474,415.33,464Z"
                  transform="translate(0 -67.03)"/>
            <path class="cls-9"
                  d="M433.33,487c-.23-3.44,2-6,3-7a13.26,13.26,0,0,1,8-4c2.39-.39,5.83-1,8,1,3.44,3.1,1.22,10.32-1,14a8.28,8.28,0,0,1-11,4C437.58,494,433.62,491.27,433.33,487Z"
                  transform="translate(0 -67.03)"/>
            <path class="cls-11"
                  d="M447.33,572c.35.57-3.36,2.61-7,7-2.07,2.5-3.38,5-6,10-2.42,4.63-2.2,4.88-4,8-2.8,4.84-4.23,7.32-6.8,8.87a44.79,44.79,0,0,0-2.2-5.87c-1.63-3.82-3.27-7.66-7-11a16.08,16.08,0,0,0-4.18-2.77,27,27,0,0,0,5.18-4.23c3-3.37,3.37-5.89,7-8a15.76,15.76,0,0,1,8-2c4.34.1,5,2,9,2C444,574,447,571.45,447.33,572Z"
                  transform="translate(0 -67.03)"/>
            <path class="cls-12"
                  d="M423.53,605.87l-.2.13c-3,1.74-6,1.46-11,1a36.1,36.1,0,0,1-14-4c-4.51-2.38-7.09-5-11-9-3.7-3.77-6.71-6.84-6-8,1.29-2.1,11.93,6.53,23,3a25.16,25.16,0,0,0,5.82-2.77,16.08,16.08,0,0,1,4.18,2.77c3.73,3.34,5.37,7.18,7,11A44.79,44.79,0,0,1,423.53,605.87Z"
                  transform="translate(0 -67.03)"/>
            <path class="cls-6"
                  d="M410.15,586.23a25.16,25.16,0,0,1-5.82,2.77c-11.07,3.53-21.71-5.1-23-3-.71,1.16,2.3,4.23,6,8,3.91,4,6.49,6.62,11,9a36.1,36.1,0,0,0,14,4c5,.46,8,.74,11-1l.2-.13c2.57-1.55,4-4,6.8-8.87,1.8-3.12,1.58-3.37,4-8,2.62-5,3.93-7.5,6-10,3.64-4.39,7.35-6.43,7-7s-3.38,2-8,2c-4,0-4.66-1.9-9-2a15.76,15.76,0,0,0-8,2c-3.63,2.11-4,4.63-7,8A27,27,0,0,1,410.15,586.23Z"
                  transform="translate(0 -67.03)"/>
            <path class="cls-6"
                  d="M410.15,586.23a16.08,16.08,0,0,1,4.18,2.77c3.73,3.34,5.37,7.18,7,11a44.79,44.79,0,0,1,2.2,5.87"
                  transform="translate(0 -67.03)"/>
            <path class="cls-13"
                  d="M419.33,568a29.89,29.89,0,0,0,9,8,19.3,19.3,0,0,0,8,3c6.65.71,11.69-3,13-4a22.75,22.75,0,0,0,7-9,24.2,24.2,0,0,0,2-6,22.49,22.49,0,0,0,0-8"
                  transform="translate(0 -67.03)"/>
            <path class="cls-13"
                  d="M429.33,545a75.08,75.08,0,0,1,1,16,44.66,44.66,0,0,1-2,13,31.07,31.07,0,0,1-5,10,29.59,29.59,0,0,1-15,10,32.09,32.09,0,0,1-17,0c-4.46-1.06-7.62-2.71-12-5a79.78,79.78,0,0,1-11-7c-2.46-1.86-4.47-3.6-6-5"
                  transform="translate(0 -67.03)"/>
            <path class="cls-3"
                  d="M407.33,533a7,7,0,0,1,1-3,7.93,7.93,0,0,1,4-3c3.79-1.5,18.55-7.94,23-10,1.31-.61,3.54-1.67,6-1a7.4,7.4,0,0,1,4,3c1.06,1.61.72,2.5,1,9a59.12,59.12,0,0,1,0,8,8.21,8.21,0,0,1-1,4,7.77,7.77,0,0,1-4,3c-14.8,5.82-14.89,4.67-19,7-1.61.91-3.44,2.13-6,2a9,9,0,0,1-5-2C405.78,545.66,406.87,536.74,407.33,533Z"
                  transform="translate(0 -67.03)"/>
            <path class="cls-9"
                  d="M418.33,534a4.4,4.4,0,0,1,0-3c1-3.33,4.22-5.06,8-7,3.41-1.75,6.19-3.13,10-3,2,.07,4.73.16,6,2,1.74,2.5-.3,6.78-2,9-5,6.59-14.77,5.18-16,5C422.64,536.76,419.31,536.27,418.33,534Z"
                  transform="translate(0 -67.03)"/>
            <path class="cls-10"
                  d="M359,564.75a12.71,12.71,0,0,0-5,5,15.4,15.4,0,0,0-2,8.75c.59,7.13,6.43,11,5.75,11.75-.83.94-11.06-3.28-11.75-9.75C345.16,572.55,359.12,564.89,359,564.75Z"
                  transform="translate(0 -67.03)"/>
            <path class="cls-10"
                  d="M406.5,615.5c.57-.66,2.78,1.62,7.75,2.25a17.74,17.74,0,0,0,9-1c6.76-3,7.84-11.34,9-11s1.78,10.82-4.75,17c-1.06,1-4.49,4.25-9.25,4C410.33,626.34,405.49,616.67,406.5,615.5Z"
                  transform="translate(0 -67.03)"/>
            <path class="cls-10"
                  d="M459,541.5c-.4.41,3.91,3.27,5,9,.7,3.69-.35,6.32.25,6.5s3.25-3.17,3-6.75C466.85,544.53,459.49,541,459,541.5Z"
                  transform="translate(0 -67.03)"/>
        </g>
        <g id="Layer_6" data-name="Layer 6">
            <path class="cls-14"
                  d="M1276.33,782c16.27,3,25.88-.24,28-1,20.43-7.37,36-30.63,33-49-4.84-29.48-57.54-46-95-35-6.61,2-30.34,8.94-34,25C1203.1,745,1241.5,775.48,1276.33,782Z"
                  transform="translate(0 -67.03)"/>
            <path class="cls-15"
                  d="M1374.33,1278c-.2,1.12-2,11.8-3,26-.78,10.74-.87,19.69-1,35-.11,13.15-.16,19.23,0,20.5,0-.5,331,0,331,0,.76-3,3.45-11.52,4-30.5a227.65,227.65,0,0,0-1-29c-1.35-13.48-2.47-24.79-7-37a111.55,111.55,0,0,0-22-34C1628.87,1180.11,1382.61,1231.53,1374.33,1278Z"
                  transform="translate(0 -67.03)"/>
            <path class="cls-3"
                  d="M1470.33,711c1.21-20.84,2-35.19,7-55,2.92-11.69,8.5-33.29,23-58,12.1-20.61,24.45-41.66,50-53a82.29,82.29,0,0,1,29-7c31.21-1.53,70.44,15.37,74,38s-29.28,44.81-62,67c-44.52,30.19-62.63,26.23-87,55-18.61,22-26.34,45.87-32,44C1468.68,740.79,1469.23,729.93,1470.33,711Z"
                  transform="translate(0 -67.03)"/>
            <path class="cls-14"
                  d="M1279.33,694c-.29-1.73,7.27-4.13,18-8,26.91-9.7,22.1-10,31-12,7.39-1.64,13.68-2.08,17-7,1.11-1.65,2.36-4.49,5-5s5.09,1.86,6,1-.62-2.82-1-5c-.79-4.48,2.87-8.73,6-12a145.12,145.12,0,0,1,21-18c12.72-8.59,21.81-14.65,34-19a121.39,121.39,0,0,1,14-4,73.24,73.24,0,0,1,13-2c1.49-.07,10.43-.52,14,1,8.82,3.75,9.6,30,3,57-11.57,47.34-45.27,94.78-89,122-33.57,20.89-58,32-58,32-10.16,4.62-19.76,8.21-33,17-6.49,4.31-12.25,8.81-13,8-1.09-1.18-4.33-13.25,3.5-28.5,5.52-10.76,20.65-17.16,23.5-34.5,5.23-31.81,19.72-34.73,7-62-3-6.4-6.84-13.57-13-18C1284.57,694.29,1279.57,695.4,1279.33,694Z"
                  transform="translate(0 -67.03)"/>
            <path class="cls-6" d="M1357.33,663a32.86,32.86,0,0,1,25,8" transform="translate(0 -67.03)"/>
            <path class="cls-14"
                  d="M1286.33,821c-7.43,13.94-18,21.52-23,25-22,15.37-45.22,15.19-51,15-7.8-.26-28.33-.94-45-15-5-4.25-10-11.5-20-26-8.65-12.57-13-19-14-25s-.7-16.67,14-36c34-44.75,77.14-47.22,114-68,2.14-1.21,7.79-4.47,14-3,3.71.88,8.78,3.71,14,14,5,9.81,6.41,19.16,7,43,.86,34.78-1.38,47.58-3,55"
                  transform="translate(0 -67.03)"/>
            <path class="cls-14"
                  d="M1252.33,780c11-12.28,15.71-24.49,19-33,5.06-13.07,8.19-21.15,7-31-2-16.56-15.32-30.58-28-37-41.83-21.17-101,28.15-113,49a116.56,116.56,0,0,0-10,24c-2,7.3-3.14,11.45-3,17,.5,19.26,15.85,32.24,18,34a53.14,53.14,0,0,0,25,11"
                  transform="translate(0 -67.03)"/>
            <path class="cls-16"
                  d="M1163.33,671c-2.56.13-7.74.46-12,4-2.66,2.21-2.76,3.84-7,12-3.73,7.18-5.62,10.81-9,15-4.1,5.08-5.3,4.67-7,8-2.23,4.38-2,8.79-1,16,1.83,12.8,2.74,19.19,5,24,8.22,17.48,28,23.78,35,26,16.07,5.11,29.2,2.94,47,0,11-1.82,22.69-3.87,35-12a83.58,83.58,0,0,0,15-13c6.57-6.9,12-12.61,15-22a40,40,0,0,0,2-16c-.47-5.32-1.82-7.1-3-14-1.5-8.77-.35-11.93-1-15C1273.41,665.48,1208.13,668.76,1163.33,671Z"
                  transform="translate(0 -67.03)"/>
            <path class="cls-3"
                  d="M1152.33,687a33.41,33.41,0,0,0-2,15c1.18,10.38,7.56,17.39,10,20,10.12,10.83,23.29,13,35,15,12.18,2,25.1,4.21,40-2a60.21,60.21,0,0,0,27-23c4.34-7,6.19-13.59,8-20a111.83,111.83,0,0,0,4-24c1.87-29.44,3.13-13,8-82,1.6-22.73,2.65-36.52,3-48,.26-8.39.06-12.23,1-20,1.11-9.24,2.21-10.66,1-12-5.57-6.16-31.32,21.46-59,23-3.28.18-12.91.35-19,7a19.3,19.3,0,0,0-4,7c-5.85,16.83-8.79,31.34-13,45-.92,3-2.28,6.65-5,14-3.09,8.33-9.46,25.44-19,46A365.34,365.34,0,0,0,1152.33,687Z"
                  transform="translate(0 -67.03)"/>
            <path class="cls-6"
                  d="M1259.33,806a182.86,182.86,0,0,0,10-19c3.89-8.58,7.82-17.26,10-29,2.15-11.58,1.26-19,2-19,1.09,0,3.41,15.82,3,33a165,165,0,0,1-2,22"
                  transform="translate(0 -67.03)"/>
            <path class="cls-6" d="M1290.33,692a51.26,51.26,0,0,1,18,14c7.86,9.74,10.13,20.3,12,29a96,96,0,0,1,2,15"
                  transform="translate(0 -67.03)"/>
            <path class="cls-6" d="M1140.33,703a47.08,47.08,0,0,0,0,26c.46,1.56,7.18,22.94,28,30a41.94,41.94,0,0,0,17,2"
                  transform="translate(0 -67.03)"/>
            <path class="cls-3"
                  d="M1254.33,527c1.56.67,8.21,2.68,13,4,6.43,1.77,8.27,2,10,2a24.3,24.3,0,0,0,12-3c8.77-5.11,11.73-16.25,13-21,1.57-5.89,1.35-9.74,5-14,1.76-2,2.69-2.19,6-5,1.12-1,7.17-6.09,10-11s2.23-10.62,1-22c-1.14-10.61-2.28-10-4-23-1.18-9-1-11.66-3-17-1.74-4.53-3.74-9.76-9-13-5.93-3.66-12.45-2.58-16-2a40.22,40.22,0,0,0-17,8C1251.25,429.68,1238,519.94,1254.33,527Z"
                  transform="translate(0 -67.03)"/>
            <path class="cls-3"
                  d="M1164.33,495c-2.87-9.09-.58-11.4-2-27-1.66-18.31-5.56-23.28-2-27,4.24-4.42,11,1.36,27,0,12.16-1,12.56-4.72,28-7,10.85-1.6,18.62-2.75,27,1,9.57,4.28,14.34,12.44,17,17,7.45,12.75,7.22,25.15,7,37-.19,10.21-.52,21.16-7,33a56.46,56.46,0,0,1-12,15c-5.29,4.69-13.42,11.9-24,12-7,.07-12-3.29-22-10a106.65,106.65,0,0,1-26-25C1170,506.8,1166.63,502.26,1164.33,495Z"
                  transform="translate(0 -67.03)"/>
            <path class="cls-3"
                  d="M1256.33,458c1.23,7.1,4.26,10.26,5,11,5.26,5.22,12.76,5.08,17,5,3.54-.07,16.33-.31,24-10,5.2-6.57,5.12-13.78,5-24-.13-11.4-.24-21.28-7-26-9.35-6.52-24.16,1.92-26,3C1258.92,426,1254.1,445.14,1256.33,458Z"
                  transform="translate(0 -67.03)"/>
            <path class="cls-3"
                  d="M1162.33,448a13.22,13.22,0,0,1-2-5c-1.07-6.51,3.52-12.17,5-14a25.23,25.23,0,0,1,9-7c10.8-4.86,22,.07,24,1,17.52,8.14,20.24,29.89,21,36,.66,5.31,1.27,10.81-2,16-5.42,8.6-16.88,9-18,9-9.93.18-16.9-6.23-21-10C1172.38,468.52,1173.9,466.68,1162.33,448Z"
                  transform="translate(0 -67.03)"/>
            <path class="cls-3"
                  d="M1185.33,426a34.25,34.25,0,0,1,1-12c.76-2.74,3.62-13,13-18,9.65-5.09,19.91-1.18,23,0,17.62,6.71,23.31,26.2,25,32,1.59,5.44,3.71,13.08,1,22-.9,3-3.6,11.88-12,16a21.67,21.67,0,0,1-11,2c-4.08-.24-8.57-1.56-15-6C1204.78,458.17,1187.08,446,1185.33,426Z"
                  transform="translate(0 -67.03)"/>
            <path class="cls-3"
                  d="M1233.33,417c-.08-13.24.67-17.8-1-28-2.38-14.58-7.82-29.21-10-35-4.66-12.39-7.84-17.76-7-27,.35-3.81,1-10.7,6-15,9.07-7.76,25.14-.83,27,0,17.05,7.61,23.33,26.13,26,34,6.59,19.42,3.74,36.51,1,53a167.72,167.72,0,0,1-10,35c-3.62,9.37-16.43,42.53-24,41S1233.45,436.83,1233.33,417Z"
                  transform="translate(0 -67.03)"/>
            <path class="cls-16"
                  d="M1451.33,616c10-11.06,19-16,19-16,2.3-1.26,7.23-3.53,17-8,6-2.75,10.45-4.75,11-5,21.93-9.89,42.66-23.82,44-22,.74,1-5.24,5.64-14,15a219.12,219.12,0,0,0-27,36c-4.76,8-10.31,17.35-15,31-2.82,8.2-6.52,19-7,33-.21,6.22.38,7.84,0,18-.42,11.06-1.44,17.6,0,18,.94.26,2.18-2.3,5-7,6.75-11.28,8.38-11.23,14-21,1.12-2,3.1-6,7-14,6.79-13.94,10.19-20.9,11-23,1-2.48,6-15.68,11-26a12.79,12.79,0,0,1,4-5c4.64-3.34,10.63-2.21,12-2,12.14,1.86,41.89-10.42,57-19,26.94-15.3,44.23-39.78,57-37a33.14,33.14,0,0,1,6,2c5.3,2.44,7.17,5.28,14,12,3.2,3.15,6.13,5.77,12,11,7.88,7,8.3,7,9,8,8,12-27,48-27,48-37,38.11-56.57,48.84-90,79-18.76,16.92-38.79,35-62,62-2.85,3.32,114.43,442.55,62,455-80,19-188,5.39-194,4-3.44-.8,39.26-403,33-453-3.32-26.49-5.71-45.63-3-74C1422.1,666.12,1438.61,630.09,1451.33,616Z"
                  transform="translate(0 -67.03)"/>
            <path class="cls-17"
                  d="M1455.33,669c-1.56-.63,1.24-11.74,4-20s4.73-14.18,9-21c3-4.73,9-13,10-17a4.92,4.92,0,0,1,1-2,6.81,6.81,0,0,1,5-2c7.25-.46,22.79-11.66,25-9,1.23,1.48-3.85,8.65-14,23-.9,1.27-2.28,3.21-4,6-3.76,6.12-3.7,7.49-6,11-1.64,2.51-4.76,5.34-11,11s-6.33,5.26-9,8C1458.42,664.11,1456.44,669.44,1455.33,669Z"
                  transform="translate(0 -67.03)"/>
            <path class="cls-16"
                  d="M1518.33,565c-3.13,2.29-9.09,10.53-21,27-4.7,6.51-8.31,11.78-14,13-1.17.25-3.4.54-4,2-.86,2.09,2.32,4.93,4,7,4.47,5.51,4,12.75,3,27-1.08,14.86-6,18-6,28,0,.86,5.48-15.07,10-26,4.23-10.22,8.24-17.91,13-27,3.33-6.36,6.66-13.56,18-28,11-14,16-18.06,22-22s10.25-4.83,10-6C1552.8,557.53,1532.32,554.76,1518.33,565Z"
                  transform="translate(0 -67.03)"/>
            <path class="cls-16"
                  d="M1527.33,624c7-6,5.86,1.63,8,7,1.55,3.9,1,10.6,0,24-1.08,14-1.62,21-5,28-1.62,3.35-3.64,6.49-3,7,.88.7,5.75-4.4,12-10,3.9-3.49,8.93-7.33,19-15,17.17-13.09,30.09-19.06,62-40,3.86-2.53,14.16-9.32,27-19,14.15-10.66,20.47-16.6,26-24a98.59,98.59,0,0,0,10-17c3-6.23,4.57-9.35,4-11-3.16-9.18-39.91-12.91-56,4-4.8,5-4.12,8.11-13,19a99.36,99.36,0,0,1-17,17c-7.67,5.86-19.3,14.76-35,16-6.15.49-20.54,2.26-31,4C1529.33,615,1525.71,625.39,1527.33,624Z"
                  transform="translate(0 -67.03)"/>
            <path class="cls-18"
                  d="M1375.33,1223c5.8-2.88,10,2.76,26,9,21.3,8.29,40.3,8.59,66,9,12.54.2,22.44-.48,30-1,13-.9,24-2.25,36-4,53.79-7.84,61.85-13.79,70-7,10,8.35,11.14,28.45,3,39-4.87,6.3-12.14,8-23,10a538.19,538.19,0,0,1-79,8c-33.18,1.18-37.61,1.29-46,1a357.44,357.44,0,0,1-50-6,106.36,106.36,0,0,1-25-8c-4.77-2.22-7.16-3.33-9-5C1362.36,1257.13,1364.34,1228.45,1375.33,1223Z"
                  transform="translate(0 -67.03)"/>
            <path class="cls-14"
                  d="M1360.33,1236c-.81,2.72,2.07,3.62,4,11a43.9,43.9,0,0,1,1,15c-.5,5.35-1.61,7.2-1,12a19.91,19.91,0,0,0,2,7c1.81,3.49,4.3,5.33,8,8,7.34,5.3,9.81,4.37,14,9,2.09,2.31,3,4.28,4,4,1.51-.43,1.18-5.85,1-9-.49-8.66-.46-17.34-1-26-1.13-18.21-1.69-27.31-1-30a5.64,5.64,0,0,0,0-4C1388,1226,1362.6,1228.39,1360.33,1236Z"
                  transform="translate(0 -67.03)"/>
            <path class="cls-14"
                  d="M1700.33,1241c.15.27.46.94,2,4,4.23,8.4,4.39,8.31,5,10,1.73,4.83.19,4.94,2,11,1.43,4.8,2.94,6.52,2,8-1.22,1.93-5.22,1.27-8,1-.51-.05-8,1-23,3-14,1.9-21.11,2.88-24,4-5.63,2.18-7.32,3.94-13,5-6.23,1.17-9.32,0-15,0-6.58,0-10.22,1.5-21,5-26.27,8.52-22.47,5.25-34,10-9,3.7-18.82,4.86-28,8-.92.31-3.57,1.23-5,0-1.92-1.66-.18-6,1-11a67.73,67.73,0,0,0,1-23c-1.06-10.68-4.28-13.81-2-17,3.36-4.7,13.7-2.6,17-2,7,1.27,25.66-1.49,63-7C1655.44,1244.82,1696.16,1233.4,1700.33,1241Z"
                  transform="translate(0 -67.03)"/>
            <path class="cls-14"
                  d="M1501.33,585c-.19-.34-5.78.08-20,6-13.8,5.74-15.93,6.86-21,8-7.94,1.78-8.94.44-14,2-9.77,3-15.53,11-19,16-32.29,46.63-38,62-38,62-22.47,60.53-34,121.25-51,218a243.08,243.08,0,0,0-4,54c.62,15.48,2.4,21.51,7,49,9.24,55.17,3.65,40.28,12,97,3.45,23.46,6.16,38-1,50-1.84,3.09-6,8.88-5,16a32.2,32.2,0,0,0,8,16c2.72,2.94,5.19,4.46,5,7-.14,1.9-1.61,2.48-5,6-3.21,3.33-6,6.28-7,10-.75,2.91-.09,5.22,1,9,1.21,4.21,2.7,6.33,7,16,.72,1.63,1.61,3.71,1,6s-2.16,2.82-2,4c.25,1.9,4.52,2.48,11,4,9.59,2.25,14.38,3.37,18,6,2.52,1.83,3.32,3.16,5,3,3-.29,4.85-4.86,7-11,3.51-10,5.26-15.06,6-20,.11-.73,4.74-16.82,14-49,11.49-39.91,9.89-32,11-37,3.12-14.13,9-22,9-27,1,3,23.75,27.49,30,41,10.38,22.44,22.58,39.25,34,55,10.46,14.41,13.76,16.76,20,28,10.28,18.53,15.43,27.8,16,31a6.81,6.81,0,0,0,2,4c2.79,2.48,7.51,1.34,9,1,9-2,26-2.75,55-4,15.14-.65,20.29.65,30-3,5.45-2,6.45-3.45,14-6a115.75,115.75,0,0,1,23-5c6.17-.82,9.26-1.23,13-1,6.29.38,7.38,1.74,15,2h10a18,18,0,0,1-4-10c-.08-1.45.28-3.32,1-7,1.2-6.13,1.8-9.19,3-12,2.25-5.24,4-5.37,4-8,0-3.49-3.09-5.25-8-10-5.4-5.22-13.66-13.22-12-19,.69-2.4,2.33-1.75,6-6,4.23-4.89,5.8-10.07,7-14,1.59-5.23,2.39-7.85,2-11-1-8-7.43-10.83-6-16,.56-2,1.71-2.19,4-5,2.53-3.11,4.28-6.78,6-14,6-25.28,6-37,6-37,0-28.62,11.37-135.58,19-184,2.41-15.3,24.4-154.79,46-205,2-4.68,9.52-21.36,5-40a53.24,53.24,0,0,0-14-25c-5-4.91-12.67-8.6-28-16-6.92-3.34-12.42-5.72-20-9-13.25-5.73-17.24-4.79-24-10-4-3.08-12-8-14-8-1.34,0,5.21,5.5,5,9-.37,6.16-5.27,10.56-8,13-26.25,23.51-70,43-70,43-67.91,30.25-106.71,95.3-113,108a224.43,224.43,0,0,1-11,20c-4.91,7.94-9.5,15.38-17,24-6.72,7.72-8.85,8.44-13,15-4.67,7.38-6.31,13.32-8,13s-1.49-6-2-12c-1-11.11-3.49-15.6-7-28,0,0-3.87-13.68-7-36a220.36,220.36,0,0,1,2-71c2.55-13.08,6.55-32.71,19-54,4.46-7.62,9.91-16.78,20-26C1486.9,591.34,1501.85,585.93,1501.33,585Z"
                  transform="translate(0 -67.03)"/>
            <path class="cls-6"
                  d="M1479.33,716c-.91,2.33-3,7.37-4,11a90.18,90.18,0,0,0-2,9c-1.34,7.73-1.44,12.31-2,18-.64,6.44-1.36,13.75-4,22-2.8,8.75-4.6,8.7-8,19-1.63,4.93-2,7.24-4,16-2.87,12.43-4.4,17.46-6,24-1.29,5.29-2.38,10.58-7,44-5.32,38.46-4.86,38.55-7,49-1.11,5.39-2.92,13.6-5,26-1.69,10-2.53,15.08-3,21a151.13,151.13,0,0,0,1,33c2,14.06,4.2,14.06,6,28a136.12,136.12,0,0,1,1,27c-.85,13.1-3.41,21.62-1,36,.36,2.15,1.74,5.89,2,7"
                  transform="translate(0 -67.03)"/>
            <path class="cls-6"
                  d="M1445.33,1080a7.23,7.23,0,0,0,1,7c2.78,3.72,9.24,4.43,13,1,2.86-2.61,3.83-7.32,2-10C1458.31,1073.58,1447.7,1074.76,1445.33,1080Z"
                  transform="translate(0 -67.03)"/>
            <path class="cls-6" d="M1506.33,1182q16.73-6.61,17-6t-15,8" transform="translate(0 -67.03)"/>
            <path class="cls-6"
                  d="M1387.33,1177c-1-3.35.72-7,3-9,4.16-3.68,12.06-3.72,15,1,2.55,4.1.54,10.49-4,13C1396.14,1184.87,1388.87,1182,1387.33,1177Z"
                  transform="translate(0 -67.03)"/>
            <path class="cls-6" d="M1439.33,981a8.5,8.5,0,0,1,1-12l0,0h0c3.78-3,9.38-1.69,12,2a8.2,8.2,0,1,1-13,10Z"
                  transform="translate(0 -67.03)"/>
            <path class="cls-6"
                  d="M1453.33,866c-2.56-3.72-1.26-9.13,2-12,4-3.49,11-3.36,14,1,2.56,3.72,1.26,9.13-2,12C1463.37,870.49,1456.34,870.36,1453.33,866Z"
                  transform="translate(0 -67.03)"/>
            <path class="cls-6"
                  d="M1472.33,781a2.73,2.73,0,0,1,1-3c1.61-1.26,4.58-.45,5,1,.31,1.06-.76,2.47-2,3S1472.91,782.32,1472.33,781Z"
                  transform="translate(0 -67.03)"/>
            <path class="cls-6"
                  d="M1481.33,729a3.19,3.19,0,0,1,1-4c1.59-1.19,4.31-.65,5,1,.59,1.42-.44,3.33-2,4A3.24,3.24,0,0,1,1481.33,729Z"
                  transform="translate(0 -67.03)"/>
            <path class="cls-6"
                  d="M1511.33,682a2.85,2.85,0,0,1,2-3c1.64-.56,3.79.47,4,2s-1.38,2.92-3,3A2.87,2.87,0,0,1,1511.33,682Z"
                  transform="translate(0 -67.03)"/>
            <rect class="cls-19" x="1430.74" y="1229.45" width="55" height="68.08" rx="12" ry="12"
                  transform="translate(128.68 2594.72) rotate(-87.35)"/>
            <rect class="cls-18" x="1439.61" y="1240.42" width="37.28" height="46.15" rx="12" ry="12"
                  transform="translate(128.68 2594.74) rotate(-87.35)"/>
            <path class="cls-6"
                  d="M1442.33,1297a159.69,159.69,0,0,0-1,19,155.58,155.58,0,0,0,2,24,135.85,135.85,0,0,0,3,14"
                  transform="translate(0 -67.03)"/>
            <path class="cls-6" d="M1487.33,1306c-.49,5-.85,10.36-1,16-.11,4.17-.1,8.17,0,12"
                  transform="translate(0 -67.03)"/>
            <path class="cls-6"
                  d="M1655.33,1282.5a175.13,175.13,0,0,1,6,26.4c.9,6.14,1.27,11.06,2,20.9.79,10.59.95,17.32,1,20.9s0,6.65,0,8.8"
                  transform="translate(0 -67.03)"/>
            <path class="cls-6" d="M1633.33,1335c3.7-.57,8.86-1.49,15-3l4-1c12.4-3.37,22.79-8.31,23-8s-6.08,3.75-28,15"
                  transform="translate(0 -67.03)"/>
            <path class="cls-14"
                  d="M1755.33,625c19.9,3.31,32.39,15.41,37,20,12.74,12.69,17.83,35.79,28,82,7.19,32.66,6.28,41.09,3,47-1.16,2.09-5.77,9.53-3,15,1.12,2.22,2.55,2.32,5,5,.85.93,4.05,4.61,6,14a61.25,61.25,0,0,1,1,18c-1,10.78,2.28,16,9,41,11.76,43.84,5.23,40.88,13,56,5.93,11.55,13.62,20.81,11,32a31.26,31.26,0,0,1-7,13,32.7,32.7,0,0,1-11,7c-31.71,12-77-3-77-3-19.32-6.39-45.67-15.11-53-35-.66-1.8-1.78-5.87-4-14-4.5-16.47-6.89-27.41-8-32-4.51-18.7-9.69-23.15-29-66-8.1-18-12.15-27-13-30"
                  transform="translate(0 -67.03)"/>
            <path class="cls-14"
                  d="M1700.33,953a54.43,54.43,0,0,1,7-8c4.91-4.52,14-11.06,32-14,14.83-2.42,34.42,1.69,73,10,13.27,2.86,21.56,4.86,31,11,5.2,3.38,15.22,10.09,21,23,4.46,10,4.23,18.81,4,25-.61,16.6-7.15,28.41-13,39-6.94,12.56-10.41,18.84-17,22-5.74,2.76-11.93,2.9-17,9-2.87,3.45-1.82,4.54-5,8-.85.92-7.06,7.51-16,8-4.45.24-5.89-1.23-10,0-3.28,1-4.44,2.54-7,4,0,0-5,2.86-15,2-11.59-1-49.14-27.37-67-81C1697.43,999.29,1688.27,970.68,1700.33,953Z"
                  transform="translate(0 -67.03)"/>
            <path class="cls-16"
                  d="M1668.33,972c.49-4.21,1.38-10.36,6-14,3.21-2.53,5.88-2,11-5a33.8,33.8,0,0,0,9-8c7.5-8.18,29.82-8,45-2,30.74,12.15,38.68,50.74,41,62,5.57,27.07-1.48,48-5,58-3.66,10.4-8.69,24.13-21,30-6.3,3-14.51,3.95-15,4-6.4.7-8.32-.34-18-1-15.76-1.08-17.64,1.19-25-1-7.93-2.35-13-7.13-16-10C1657.74,1063.59,1662.9,1018.93,1668.33,972Z"
                  transform="translate(0 -67.03)"/>
            <path class="cls-6" d="M1728.33,919a77,77,0,0,0,23,1,66.67,66.67,0,0,0,20-5,64.69,64.69,0,0,0,15-9"
                  transform="translate(0 -67.03)"/>
            <path class="cls-6"
                  d="M1813.33,960a81.74,81.74,0,0,1-14-1c-8.29-1.31-13.8-3.5-14-3s9,3.51,19,10c4.85,3.15,15.26,10.09,23,23a65.09,65.09,0,0,1,8,21"
                  transform="translate(0 -67.03)"/>
            <path class="cls-6" d="M1815.33,991a87.55,87.55,0,0,1,11,26,84.11,84.11,0,0,1,2,29,77.68,77.68,0,0,1-4,17"
                  transform="translate(0 -67.03)"/>
            <path class="cls-6" d="M1759.33,951a64.81,64.81,0,0,1,22,11,57.17,57.17,0,0,1,19,24,54.58,54.58,0,0,1,4,20"
                  transform="translate(0 -67.03)"/>
            <path class="cls-6" d="M1792.33,1082a40.92,40.92,0,0,0,6-6,42.62,42.62,0,0,0,8-16,48.16,48.16,0,0,0,1-21"
                  transform="translate(0 -67.03)"/>
            <path class="cls-6" d="M1817.33,790q-4,7.46-8,15-5.05,9.53-10,19" transform="translate(0 -67.03)"/>
            <path class="cls-3"
                  d="M1583.33,994c6.15-4.88,9-1.22,30-7,10.82-3,10.74-4.12,33-12,23.57-8.34,28.72-8.84,32-9,5.79-.28,16.69-.68,28,5,15.8,7.94,22.33,22.69,26,31,9.11,20.6,6.31,39.07,5,47-1.82,11-3.67,22.19-13,30-7.15,6-15.22,7.06-23,8-13,1.57-18.86-.78-43-5-27.66-4.84-34.25-4.24-51-10-10.58-3.63-15.86-5.45-20-9C1567.87,1046.3,1567.31,1006.72,1583.33,994Z"
                  transform="translate(0 -67.03)"/>
            <path class="cls-3"
                  d="M1599.33,1009c2.29-3.2-3.26-7.59-12-28-6.45-15.06-6.11-18.91-13-33-5.89-12-8.84-18.08-13-21-9.95-7-23.63-3.33-51,4-14.07,3.77-23.5,7.75-32,15-3.81,3.25-7.5,6.47-10,12s-.77,6.82-3,24c-.71,5.5-1.16,7.46,0,10,2,4.46,7.25,6.73,13,8,19.6,4.31,42.66-3.7,63-4C1574.34,995.51,1594.77,1015.39,1599.33,1009Z"
                  transform="translate(0 -67.03)"/>
            <path class="cls-3"
                  d="M1522.33,959c-4.94-.34-6.12,4.22-18,13-12.24,9-15.06,7.2-23,15-4.52,4.44-10.45,10.27-12,19-.79,4.44.24,5.79-1,14-.93,6.13-1.89,8-1,11,1.45,4.91,6.24,7.53,9,9,3.35,1.78,11.55,5.34,26,3,11.46-1.86,29.27-4.74,38-20,8.27-14.45,2.78-30.18-1-41C1537.25,976,1531.52,959.63,1522.33,959Z"
                  transform="translate(0 -67.03)"/>
            <path class="cls-3"
                  d="M1606.33,1021c-1.71-5-9.58-27.79-33-37-17-6.69-41.38-5.86-49,6-5.29,8.23,1.12,16.12-6,24-3.53,3.91-6,3-20,12-7.12,4.6-8.35,6.06-9,8-1.55,4.63,1.78,7.26,2,17,.11,5.05-.76,5.33,0,8,.83,2.91,2.63,5.28,10,11,6.9,5.36,10.36,8,13,9a30.46,30.46,0,0,0,20,0c3.53-1.23,7.18-2.51,10-6s3.06-6.86,5-7c1.75-.13,2.47,2.61,5,5,3.28,3.1,7.33,3.47,14,4,8.08.64,13,1,19-1,12.16-4.09,18.11-14.4,19-16C1614.21,1043.87,1608.92,1028.52,1606.33,1021Z"
                  transform="translate(0 -67.03)"/>
            <path class="cls-6"
                  d="M1689.33,1183a178.3,178.3,0,0,1-17,11,193.55,193.55,0,0,1-23,11,250.29,250.29,0,0,1-43,13"
                  transform="translate(0 -67.03)"/>
            <path class="cls-6" d="M1696.33,1135a100.26,100.26,0,0,1-48-2" transform="translate(0 -67.03)"/>
            <path class="cls-6" d="M1362.33,1185a80.28,80.28,0,0,0,31,11" transform="translate(0 -67.03)"/>
            <path class="cls-20"
                  d="M1293.83,136a65,65,0,1,1,120.79,33.38c-4.26,7.1-16.82,22.18-23.29,35.62-10.78,22.4,6,35-33,35-35,0-19.91-11.68-31-34-7.09-14.26-20.85-30.47-25.2-38.19A64.7,64.7,0,0,1,1293.83,136Z"
                  transform="translate(0 -67.03)"/>
            <rect class="cls-21" x="1347.33" y="201.97" width="22" height="12" rx="2" ry="2"/>
            <line class="cls-6" x1="1329.33" y1="93.97" x2="1349.33" y2="174.97"/>
            <line class="cls-6" x1="1385.33" y1="90.97" x2="1367.33" y2="174.97"/>
            <path class="cls-6"
                  d="M1330.88,167a9,9,0,0,1,2.12-5c.55-.64,2.66-3.09,5.3-3,2.91.1,4.74,3.24,6.36,6,1.24,2.13,4.68,8,2.12,13-.59,1.15-2,3.21-3.18,3-1.81-.32-2.24-5.76-2.12-9,.11-2.87.36-9.26,5.3-13,1.19-.9,3.13-2.37,5.3-2,3.56.61,5.08,5.71,6.36,10,1,3.48,3.26,10.92,0,13a4.33,4.33,0,0,1-4.24,0c-3.9-2.27-1.33-11.08-1.06-12,.9-3.1,2.61-8.93,7.41-10,3.64-.81,6.89,1.61,7.41,2,3.86,2.88,4.1,7.44,4.24,10,.16,3.11-.43,7.71-2.12,8-1.22.21-2.63-1.92-3.18-3-2.27-4.46.67-9.36,1.06-10,.85-1.37,2.73-4.4,6.36-5a7.76,7.76,0,0,1,5.3,1,7.23,7.23,0,0,1,3.18,7"
                  transform="translate(0 -67.03)"/>
            <path class="cls-13"
                  d="M617.33,386c1,5,1.29,11.07-1,23a120,120,0,0,1-7,25c-3.74,9.13-6.17,14.87-12,20s-11.23,6.37-11,7c.39,1.06,16.25-1.53,32-10,16.5-8.88,25.88-20.44,32-28,8.81-10.87,11.74-18.28,13-22a89.67,89.67,0,0,0,3-14c105.28-4.91,177.69-8,190-8a91.64,91.64,0,0,0,14-1,70.3,70.3,0,0,0,19-5,60,60,0,0,0,19-13,57,57,0,0,0,11-17c17.17-38.44,25.33-63.93,33-86a173.86,173.86,0,0,0,5-20,55.19,55.19,0,0,0,1-18c-.6-5.13-1.68-7.37-3-9-3.12-3.84-8-4.68-10-5-44.74-7.09-67.12-10.64-348,19a19.63,19.63,0,0,0-7,2,21.7,21.7,0,0,0-9,9,25.94,25.94,0,0,0-3,12,579.94,579.94,0,0,0,4,83c1.19,8.79,2.14,15.27,6,23,5.38,10.78,13.9,19,16,21C612.27,381.48,617.33,386,617.33,386Z"
                  transform="translate(0 -67.03)"/>
            <rect class="cls-19" x="1335.33" y="169.97" width="47" height="35" rx="9" ry="9"/>
            <path class="cls-3"
                  d="M1491.33,313c-4.81-3.88-5.54-10.26-7-23-1.11-9.74-3.19-27.87,8-46a60.69,60.69,0,0,1,63-28c14.4,2.62,23.94,9.73,31,15,12.36,9.22,11.37,13,25,24,15.31,12.33,23.16,12.83,23,17-.31,8.07-29.7,7.71-71,21S1502.79,322.24,1491.33,313Z"
                  transform="translate(0 -67.03)"/>
            <path class="cls-8"
                  d="M1382.33,468a60.6,60.6,0,0,0,12-1c7.08-1.25,11.8-5.86,15-9a39.19,39.19,0,0,0,9-14c6-15,9-22.52,11-39,3.89-32.52,23.09-59.88,33-74,8.44-12,21.06-29.64,44-44,21.11-13.21,41.2-17.57,57-21a215.38,215.38,0,0,1,42-5c12.62-.17,35-.27,62,9,11.59,4,33,11.58,54,31a144,144,0,0,1,32,44,152.79,152.79,0,0,1,14,64c-.06,18.23-3.59,36.34-5,43-2.47,11.64-4.33,23.41-7,35a71.07,71.07,0,0,0-2,20,47,47,0,0,0,3,15c1.54,4,2.81,7.29,6,10,4.42,3.75,8.37,2.89,9,5,1,3.4-8.23,9.09-15,13-14.48,8.35-21.72,12.53-32,16-20.31,6.85-36.91,7-48,7-14.24,0-21.36,0-30-4-7.38-3.42-13.34-8.57-15-7s2.81,8.7,3,9a28.49,28.49,0,0,0,14,11c5.37,1.93,9,1.4,9,2,.06,1.22-14.94,4-32,4a174.71,174.71,0,0,1-36-4c-10.91-2.25-18.22-3.76-28-7-5.59-1.85-9.06-3.3-15-4-5.78-.68-9.72-.16-19,1-15.19,1.9-22.79,2.85-25,3-12.28.81-19.17,1.19-27-2-4-1.63-10.78-4.25-15-11a29.84,29.84,0,0,1-4-12,43.09,43.09,0,0,1,0-6,100,100,0,0,1-11-3c-6.57-2.2-17.84-6-28-15-9.23-8.2-15.3-18.74-14-20,.4-.39,1.17.45,4,1a18.89,18.89,0,0,0,10-1c.75-.3,3.12-1.25,3-2s-3-.92-4-1c-5.12-.4-9-3-15-7a57.93,57.93,0,0,1-15-15,29.34,29.34,0,0,1-4-10C1381.78,470.23,1382.07,468.45,1382.33,468Z"
                  transform="translate(0 -67.03)"/>
            <path class="cls-9"
                  d="M1397.33,471c9-1.06,15.18-7.2,19-11,6.19-6.17,9-13,12-22a301.23,301.23,0,0,0,10-39s5.5-26.86,19-52a148.8,148.8,0,0,1,40-48c28.63-22.13,57.93-26.8,78-30,23.34-3.72,45.08-7.18,71,2,29,10.26,45.87,30.19,54,40a150.18,150.18,0,0,1,27,51,158.39,158.39,0,0,1,6,63c-1.67,14.47-8.56,55.14-13,72a36.61,36.61,0,0,0-1,14c.39,3.11,1,7.76,4,12,5.16,7.24,13,7,13,10,0,4.23-15.71,7.52-18,8-7,1.46-17.07,3.57-30,1-15.39-3.06-24.79-10.76-26-9-.87,1.26,3.42,6,7,9,7,5.88,13.2,6.65,13,8-.37,2.55-22.54,1.1-24,1-14.13-1-21.19-1.43-28-5-6.66-3.49-9.37-7.29-12-6-3.28,1.61-3.76,9.83-1,16,3.2,7.16,9.71,9.21,9,11-1,2.4-13.09-.26-21-2a142.35,142.35,0,0,1-21-6c-9.47-3.54-9.34-4.67-14-6-6-1.72-11.1-1.27-31,4-19.15,5.07-23.72,7.12-36,9-8.46,1.29-14.35,1.55-21,0-4.74-1.1-12-2.79-17-9-4.52-5.61-5.88-13.28-6-14-.9-5.37.13-8-2-10s-5-.71-11-1c-6.34-.31-10.83-2.28-17-5-2-.88-13.72-6-13-9,.33-1.36,2.9-.75,8-3a22.59,22.59,0,0,0,10-8c1.32-2,2.77-4.21,2-6-1-2.27-4.83-2.23-10-3a88.17,88.17,0,0,1-15-4c-12.9-4.62-22.3-18.46-20-22C1392.11,470.8,1393.84,471.41,1397.33,471Z"
                  transform="translate(0 -67.03)"/>
            <path class="cls-10"
                  d="M1432.67,429.33c2.18,3.56,5.81,5.83,7.67,7a32.91,32.91,0,0,0,15,4.67c9.52.48,15.38-4,24-8,15.09-7,28.18-12.4,32-8.33,2.35,2.51-.86,6.47,2,9.67,4.16,4.67,15.85,1.71,17.33,1.33,5.47-1.38,8.35-3.59,11.33-2,2.12,1.13,2.87,3.43,3.33,4.67,2.27,6,6.64,9.88,14.33,16.67,11.17,9.86,24.87,11.77,29.33,12.33,6,.76,13.9,1.76,23-2,2.3-1,10.53-4.35,15.33-11.67,11.7-17.82-5.44-45.89-11-55-5.33-8.73-11.7-18.85-24.67-25.33a51.77,51.77,0,0,0-26.33-5.33c-1.9.14-19.67,1.69-33,15.33-8.19,8.38-11.28,17.82-13.67,17-1.64-.56-.81-5.21-1.33-10.67-1-10.5-6.54-21.06-11.67-25-15.68-12.06-59.66,13.49-71.33,41C1432.42,410.18,1427.72,421.25,1432.67,429.33Z"
                  transform="translate(0 -67.03)"/>
            <path class="cls-3"
                  d="M1663.33,272c.2-.78,1.08-3.93,6-8,6.38-5.28,12.7-6.45,18-8,12.07-3.54,12.16-7.1,24-12,5.45-2.25,19.44-8,34-6,23.61,3.31,37.3,25.6,40,30,15.72,25.6,9.31,53.11,7,63-5,21.48-16.17,35.07-22,42-5.37,6.38-11.48,12.08-20,16-5.27,2.43-13,6-20,3-5.36-2.29-8.1-7.48-11-15-7.51-19.47-7-30.81-10-42-2.76-10.13-9.76-27.23-25-36-4.34-2.5-10.62-5-16-12C1666.31,284.37,1661.72,278.39,1663.33,272Z"
                  transform="translate(0 -67.03)"/>
            <path class="cls-3"
                  d="M1438.33,419c1.72,4.39,5,6.82,8,9,2.13,1.54,8.12,5.88,16,7,17.5,2.49,32.86-12.54,39-22a74.25,74.25,0,0,0,6-12c2-5,3.65-9.24,4-15,.25-4.25.69-11.6-4-17-1-1.14-3.19-3.32-8-5-15.22-5.31-34.68,2.07-47,13a46.82,46.82,0,0,0-8,9c-6.56,10-6.85,19.8-7,25C1437.21,415.23,1437.66,417.28,1438.33,419Z"
                  transform="translate(0 -67.03)"/>
            <path class="cls-9"
                  d="M1470.33,403c-.18-1.3-.12-3.23,2-7,2.27-4,5.87-10.45,12-11a8.42,8.42,0,0,1,5,1,9.32,9.32,0,0,1,4,10c-.5,1.93-2,3.29-5,6-5.16,4.67-8.9,5.72-10,6-3.29.83-4.64.18-5,0C1470.85,406.71,1470.4,403.51,1470.33,403Z"
                  transform="translate(0 -67.03)"/>
            <path class="cls-3"
                  d="M1553.33,386c-6,8.38-6,17.2-6,22,0,15.33,8,26,11,30a48,48,0,0,0,20,16c4.31,1.78,11.68,4.71,21,3,2.85-.52,11.9-2.18,18-10,6.26-8,5.46-17.49,5-23-1-11.42-6.16-19.22-12-28-5-7.45-9.06-13.46-17-18-3.55-2-9.72-5.56-18-5C1562.38,373.88,1554.73,384.06,1553.33,386Z"
                  transform="translate(0 -67.03)"/>
            <path class="cls-9"
                  d="M1563.33,410a14.25,14.25,0,0,1,2-8,9.16,9.16,0,0,1,4-4c5.36-2.32,11.67,3.68,12,4a12.75,12.75,0,0,1,3,15c-.85,2.07-2.35,5.69-6,7s-7.14-.54-8-1C1563.72,419.47,1563.35,410.83,1563.33,410Z"
                  transform="translate(0 -67.03)"/>
            <path class="cls-8"
                  d="M1478.33,439a27.07,27.07,0,0,1-1-12,22.26,22.26,0,0,1,5-12c4.16-4.74,9.5-6,14-7a40.72,40.72,0,0,1,17,0c5.24.9,10.67,1.84,16,6a29.19,29.19,0,0,1,10,15"
                  transform="translate(0 -67.03)"/>
            <path class="cls-11"
                  d="M1544.33,493c.39.54-1.63,2.65-4,5-6.25,6.21-9.38,9.29-13,12a91.1,91.1,0,0,1-7.84,5.39,48.33,48.33,0,0,0-7.16-5.39,39.1,39.1,0,0,0-16-6c-3.68-.46-11.58-1.43-19,3a26,26,0,0,0-5.47,4.19c-.21-1.49,0-3-.53-7.19-.69-5.09-1.14-8.44-3-12-2.8-5.35-6.79-7.37-6-9,.5-1,2.22-.56,5-1,7-1.1,8.14-5.93,14-7,3.85-.71,7.06.7,10,2,5.35,2.36,6.37,5.11,12,10,5,4.31,9.83,8.53,17,10a33.93,33.93,0,0,0,16-1C1540.59,494.57,1543.87,492.37,1544.33,493Z"
                  transform="translate(0 -67.03)"/>
            <path class="cls-12"
                  d="M1519.49,515.39a58,58,0,0,1-12.16,5.61c-7.15,2.34-17,5.56-26,1-1.6-.81-7-3.53-9-9a8,8,0,0,1-.47-1.81,26,26,0,0,1,5.47-4.19c7.42-4.43,15.32-3.46,19-3a39.1,39.1,0,0,1,16,6A48.33,48.33,0,0,1,1519.49,515.39Z"
                  transform="translate(0 -67.03)"/>
            <path class="cls-6"
                  d="M1519.49,515.39a91.1,91.1,0,0,0,7.84-5.39c3.62-2.71,6.75-5.79,13-12,2.37-2.35,4.39-4.46,4-5s-3.74,1.57-8,3a33.93,33.93,0,0,1-16,1c-7.17-1.47-12-5.69-17-10-5.63-4.89-6.65-7.64-12-10-2.94-1.3-6.15-2.71-10-2-5.86,1.07-7,5.9-14,7-2.78.44-4.5,0-5,1-.79,1.63,3.2,3.65,6,9,1.86,3.56,2.31,6.91,3,12,.57,4.22.32,5.7.53,7.19a8,8,0,0,0,.47,1.81c2,5.47,7.4,8.19,9,9,9,4.56,18.85,1.34,26-1A58,58,0,0,0,1519.49,515.39Z"
                  transform="translate(0 -67.03)"/>
            <path class="cls-6"
                  d="M1471.86,511.19a26,26,0,0,1,5.47-4.19c7.42-4.43,15.32-3.46,19-3a39.1,39.1,0,0,1,16,6,48.33,48.33,0,0,1,7.16,5.39"
                  transform="translate(0 -67.03)"/>
            <path class="cls-13"
                  d="M1450.33,470a15.79,15.79,0,0,0,0,8c.79,3,2.26,4.81,4,7s3.69,4.65,7,6a9,9,0,0,0,5,1c1.16-.18,2-.63,6-4,3.7-3.11,4.1-3.66,6-5a42.82,42.82,0,0,1,5-3c2.2-1.18,9.72-8.14,13.5-9.5"
                  transform="translate(0 -67.03)"/>
            <path class="cls-13"
                  d="M1489.33,448a44.87,44.87,0,0,0-4,11,32.88,32.88,0,0,0-1,10,30.77,30.77,0,0,0,4,13c2.35,4.11,4.93,6.39,9,10,4.72,4.19,7.89,7,13,9a35.36,35.36,0,0,0,16,2c3.41-.22,10.86-.72,18-5a59.18,59.18,0,0,0,9-7c1.28-1.2,2.3-2.25,3-3"
                  transform="translate(0 -67.03)"/>
            <path class="cls-3"
                  d="M1472.33,441a9.93,9.93,0,0,0,3,4,10.45,10.45,0,0,0,5,2,131,131,0,0,1,18,4c3,1,5.32,2,9,2a11.62,11.62,0,0,0,5-1c2.33-1.12,3.54-2.85,5-5a24.8,24.8,0,0,0,4-10c.4-2.66.73-4.87,0-7-3-8.66-20.56-7.59-37-11a6.49,6.49,0,0,0-3,0c-3.53.89-5.29,4.92-7,9C1472.35,432.71,1470.61,436.87,1472.33,441Z"
                  transform="translate(0 -67.03)"/>
            <path class="cls-9"
                  d="M1490.33,430c-.36,2.11,1.17,4,2,5,1.11,1.36,3.11,3.2,9,5,6.79,2.07,11,3.34,14,1a7.45,7.45,0,0,0,3-6c-.41-6.71-13.25-12.9-22-10C1495.41,425.3,1490.88,426.81,1490.33,430Z"
                  transform="translate(0 -67.03)"/>
            <path class="cls-10"
                  d="M1470.25,523.75c.24,0,0,2.22,1.5,4.75.65,1.1,2.33,3.45,7,5.25,7.84,3,14.56.82,14.75,1.75s-4.89,2.82-10.25,3.75c-5.12.89-8.15,1.42-10.5-.25C1467.57,535.32,1469.71,523.79,1470.25,523.75Z"
                  transform="translate(0 -67.03)"/>
            <path class="cls-10"
                  d="M1451.75,458.5c-.11-.21-5.69,1.26-9,6.25a16.17,16.17,0,0,0-2.5,9.5c.25,6.75,4.46,10.92,4,11.25-.61.45-9.46-6-8.75-13C1436.39,463.74,1451.94,458.85,1451.75,458.5Z"
                  transform="translate(0 -67.03)"/>
            <path class="cls-10"
                  d="M1565,479.75c-.87.65,2.84,4.69,3.75,12.25a23.51,23.51,0,0,1-1.25,11.75c-2.4,5.94-6.78,8.3-6.25,9s6.68-1.13,9.75-6c2.56-4.07,1.91-8.44,3-8.5.88,0,1.91,2.75,2.25,5,.44,2.92-.26,4.93,0,5s2.26-3.22,2.5-7.25c.29-4.93-2.07-8.73-4-11.75C1571.17,483.65,1566,479,1565,479.75Z"
                  transform="translate(0 -67.03)"/>
        </g>
        <g id="Layer_8" data-name="Layer 8">
            <path class="cls-22"
                  d="M246.83,675.5c-1,6.62,7.37,9.33,9,20,.51,3.33-.12,4.25,1,6,2.75,4.28,9.62,3.62,17,4s14.92,2.59,30,7c16.9,5,19.78,7.93,21,11,1.37,3.47.53,6.85,0,9-1.81,7.29-7.77,12.59-14,18-4.53,3.94-5.85,4.28-6,6-.4,4.53,8.2,8.06,21,15,9.6,5.21,18.62,11.41,28,17,23.42,14,25.67,15.47,29,18a195.61,195.61,0,0,1,22,20c15.75,16,22.69,26.82,24,26,1.53-1-6.36-16.77-15-32-15.6-27.52-30-46.8-46-68-4.13-5.48-17.49-23.1-35-42-10.82-11.67-15.36-15.36-19-18-10.27-7.45-14-7.08-22-15-4.24-4.21-6.53-7.64-9-7-4.5,1.16-2.46,14-8,16-3.74,1.36-8.72-3-11-5-7.13-6.25-7.52-13-11-13C250.3,668.47,247.34,672,246.83,675.5Z"
                  transform="translate(0 -67.03)"/>
            <path class="cls-22"
                  d="M269.83,724.5c1.87-1.37,4.69,1.91,15,5,7.08,2.12,10.48,2,11,4,.65,2.51-4.29,4.26-8,11a29.17,29.17,0,0,0-3,9c-1.35,10.5,11.9,20.78,16,24,40.83,32,31.55,35,66,57,11.6,7.42,23.15,13.79,38,27a95.23,95.23,0,0,1,18,21c5.84,9.34,12.84,20.51,9,28-2,4-6.66,6-30,8-32,2.77-48.19,4-57-4-3.75-3.4-4.57-6.2-10-23-11.26-34.84-17-52.45-21-62-1.3-3.08.13.49-21-41,0,0-4.93-9.69-18-42C270.73,736.37,267,726.59,269.83,724.5Z"
                  transform="translate(0 -67.03)"/>
            <path class="cls-22"
                  d="M295.83,1043.5c.16,1,14.43,1,30-3,9.13-2.32,16.65-5.46,33-14,30.33-15.85,41.75-24.56,43-23,1.66,2.08-16.65,19.84-33,33-13.43,10.8-23.47,18.74-39,24-13.74,4.65-24.08,4.61-24,6,.11,2,22,2.78,40,2,17-.74,26.47-1.15,39-5,13.48-4.14,20.27-9.11,22-7,2.16,2.64-4.87,14.83-16,22-16.71,10.76-35.47,5.57-36,9s17.41,8.81,26,11c13.54,3.46,23.12,3.76,33,4,16.88.41,19.78-1.84,21-3,3-2.85,3.36-6.3,4-23,.92-24.1.38-23.08,1-30,1.58-17.66,5.16-25,2-27-5.08-3.27-20.47,11.64-21,11s15.47-10.51,22-28c.42-1.12,6.71-18.47,0-24-2.94-2.42-7.29-1.68-25,5-24,9.07-36,13.6-49,22-9.46,6.14-8.42,6.79-21,15-9.91,6.47-17.89,11.61-29,16C305.23,1041.87,295.7,1042.64,295.83,1043.5Z"
                  transform="translate(0 -67.03)"/>
            <path class="cls-22"
                  d="M264.83,1220.5c9.66-5.07,18-3,18-3,3.81.95,6,2.71,8,4,11.17,7.15,25.6,4.92,38,3,12.68-2,22.51-3.48,27-11,2.89-4.84.58-7.15,4-13,3.8-6.5,7.89-5.76,17-14,6.37-5.77,10.45-9.45,11-15,.61-6.13-3.72-8.15-3-15,.6-5.71,3.82-6.3,6-12,4.76-12.43-5.68-22.27-1-28,2.51-3.07,6.38-1.32,17-2,19.24-1.24,24.77-8.18,30-5,7.08,4.3,2.9,20.63,0,42-4.17,30.76,1.16,21.64-3,78-2.56,34.76-4.31,33.07-7,66-1.18,14.42-7.66,28.62-6,43,.17,1.45.81,6.3-2,9-3.41,3.27-10,1.5-12,1-17.72-4.35-80.14-7.17-120-1-17,2.64-27.59,6.56-35,0-6.76-6-6-16.39-5-31C251.78,1246.14,253,1226.68,264.83,1220.5Z"
                  transform="translate(0 -67.03)"/>
            <path class="cls-22"
                  d="M215.83,1343.5c5.84-4.49,3-15,2-28-1.4-17.38,1.07-30.92,6-58,3.88-21.31,7.87-30.47,5-32-3.6-1.92-15.25,9.66-22,23-3.62,7.15-5.41,14-7,47-1.85,38.4-.24,46.28,5,49A10.87,10.87,0,0,0,215.83,1343.5Z"
                  transform="translate(0 -67.03)"/>
            <path class="cls-22"
                  d="M454.83,635.5c-1.19,2.18,6.65,6.4,17,18a299.54,299.54,0,0,1,21,26c.31.44,5.38,7.79,7,7,.69-.34.09-1.82,1-3,2-2.61,8.27.25,9-1,1-1.68-10.18-7-19-18-6-7.41-6.56-12.06-15-21a26.82,26.82,0,0,0-10-7C462.11,635.06,455.82,633.68,454.83,635.5Z"
                  transform="translate(0 -67.03)"/>
            <path class="cls-22"
                  d="M517.83,712.5c-1.6,1.73,3.61,7.61,12,21a351.76,351.76,0,0,1,21,40c8.36,19,11.4,32.18,12,32s-1.77-14.31-8-30c-3.72-9.37-5.52-11-11-25-3.34-8.51-5-12.77-6-16-2.48-8.07-2.42-10.48-5-14C528.12,714.08,519.51,710.68,517.83,712.5Z"
                  transform="translate(0 -67.03)"/>
            <path class="cls-22"
                  d="M586.83,1236.5c-1.24.18.06,12.12,1,46,.7,25.14,1,37.84-1,44-2.45,7.52-6.66,15.87-3,20,2,2.2,5,1.89,10,2,20,.44,28.39,6.65,31,3,2.06-2.88-2.14-8.21-7-17-2.49-4.5-6.33-15-14-36C591,1263.53,588.71,1236.23,586.83,1236.5Z"
                  transform="translate(0 -67.03)"/>
            <path class="cls-23"
                  d="M381.83,732.5c2-2.68,9.36,2.47,28,5,7.47,1,18.14,2.38,31,0,9.26-1.71,19.14-3.54,27-11,12.34-11.72,11.25-29.28,14-29,2,.21,4.5,10,2,20-3.82,15.31-16.94,21.84-15,25,1.48,2.41,10.85,1.44,17-4,9-8,6-21.06,10-22,3.83-.89,9.51,10.25,19,30,19.2,40,16.24,36.6,23,49,10.15,18.62,14.76,22.41,16,34,1.35,12.59-2.52,22.6-5,29-7.1,18.36-19.11,29.24-29,38-18.81,16.66-39.7,26.82-41,25-.61-.85,3.18-4.09,21-23,9.82-10.42,13.84-14.92,13-16s-7.22,3.12-20,8c-11.26,4.3-17,6.4-21,4-5.23-3.11-4.55-11.84-5-19-.43-6.81-1.85-11.47-31-61-14.23-24.18-21.35-36.27-24-40C394.12,749.59,378.89,736.5,381.83,732.5Z"
                  transform="translate(0 -67.03)"/>
            <path class="cls-23"
                  d="M477.83,992.5c5.14-9.21,11.77-6.39,29-18,13-8.76,20.86-18.22,29-28,17.83-21.44,22.74-37.1,26-36,4.78,1.61-3.14,36.22-4,40-6.44,28.16-9.74,42.57-22,58-11.12,14-23.17,20.72-38,29-8.71,4.86-21.82,12-26,8-2.42-2.34-.11-6.76,2-17C478.43,1006.17,472.68,1001.72,477.83,992.5Z"
                  transform="translate(0 -67.03)"/>
            <path class="cls-23"
                  d="M515.83,1062.5c-.37-1.17,7.78-2.34,16-10,5.23-4.87,8.88-10.87,12-16,4.54-7.46,5-10.2,6-10,2.35.49,4.44,18.08-5,27-2.29,2.16-4.53,3.11-9,5C526.2,1062.57,516.24,1063.79,515.83,1062.5Z"
                  transform="translate(0 -67.03)"/>
            <path class="cls-23"
                  d="M91.83,846.5c-1.61-4.76,8.16-8.87,19-23,9.94-13,14.28-25.89,17-34,4.78-14.23,2.31-14.88,7-29,3.76-11.33,7.71-23.19,18-34,5.41-5.68,16.29-17.11,33-18,18.89-1,32.15,12.17,35,15,17.29,17.17,17.11,41.33,17,56-.22,29.57-11.69,51.28-20,67-15,28.3-20.68,20.61-36,49-1.84,3.41-5.14,9.78-10,10-6.6.29-8.8-11.09-20-25-4.07-5-17.43-21.66-38-28C101.39,848.66,93.26,850.73,91.83,846.5Z"
                  transform="translate(0 -67.03)"/>
            <path class="cls-23"
                  d="M533.83,689.5c1.06-.65,12.67,26,38,48,19.9,17.27,29.85,25.91,30,26,4.18,2.54,11.75,6.74,11,10-.56,2.44-5.17,1.72-10,5-8.69,5.9-7.47,17.5-11,18-4.94.7-11.83-21.46-12-22C564.49,725.16,532.48,690.33,533.83,689.5Z"
                  transform="translate(0 -67.03)"/>
            <path class="cls-24"
                  d="M463.83,1084.5c2.63-3.6,9-.49,26,0,7.17.21,12.45-.2,23-1s15.79-1.23,20-3c5.51-2.31,9.24-5.44,11-4,1.4,1.14.72,4.48,0,8-.5,2.46-.91,4.44-2,6-2.89,4.12-9.66,4-13,4-11.41,0-22.65,2.79-34,4-18.15,1.93-22.62,3.67-27,0S461.4,1087.82,463.83,1084.5Z"
                  transform="translate(0 -67.03)"/>
            <path class="cls-24"
                  d="M517.83,1122.5c-4.38,5.56-1.16,10.38-2,28-.48,10.13-.8,16.89-4,25-4.06,10.29-10.36,16.69-9,18,.86.82,3.38-1.7,9-4,9.8-4,14.46-1.36,19-5,1.17-.94,3.1-2.91,5-14,3.1-18.13-.65-21.18,1-41,.55-6.57,1.28-10-1-12C532.14,1114.29,522.47,1116.62,517.83,1122.5Z"
                  transform="translate(0 -67.03)"/>
            <path class="cls-24"
                  d="M490.83,1118.5c-2.35.92.5,10.58,2,26,1.94,20,0,32.92,1,33,.53,0,.91-3.4,4-23,2.49-15.77,3.6-22.2,0-29C495.91,1121.86,492.49,1117.85,490.83,1118.5Z"
                  transform="translate(0 -67.03)"/>
            <path class="cls-24"
                  d="M461.83,1113.5c-4,1.55,3,18.37,4,51,.75,25,0,44,0,44-.26,6.49-.59,11.92,0,12,1,.13,3.69-15.51,7-35,6.48-38.15,7-47.69,2-58C471.15,1119.94,464.7,1112.38,461.83,1113.5Z"
                  transform="translate(0 -67.03)"/>
            <path class="cls-24"
                  d="M466.83,1251.5c-1.59-1.43,5.82-13.28,14-22,11.52-12.28,23.66-17.39,37-23,4.91-2.07,6.7-2.49,7-2,.79,1.27-8.81,8.25-20,17C478,1242.51,468.44,1253,466.83,1251.5Z"
                  transform="translate(0 -67.03)"/>
            <path class="cls-24"
                  d="M500.83,1273.5c-.14-2.46,9-5,16-7,5.36-1.51,9-2,16-3,13.55-1.9,15.19-.84,16,0,2.29,2.39.91,6.26,0,13-.55,4-.36,10.36,0,23,.54,18.83.81,28.25,4,37,2.23,6.13,5,10.87,3,13-1.66,1.77-4.86-.11-13-1-11.09-1.22-13.24,1.37-16-1-4.11-3.52.06-9.75-3-23-1.39-6-2.41-10.44-6-13-8.39-6-23.22,3.65-24,2-.61-1.3,7.93-8.79,20-12,6.93-1.84,11.75-1.41,12-3,.33-2.06-7.35-5.37-14-7-10.67-2.61-17.7-.63-18-2-.36-1.65,9.54-6.35,21-8,7.89-1.13,14-.45,14-1C528.93,1279.33,501.07,1277.76,500.83,1273.5Z"
                  transform="translate(0 -67.03)"/>
            <path class="cls-25"
                  d="M61.83,880.5c-7.47,3.84-11.08,12-18,28a206.93,206.93,0,0,0-10,27c-2.06,7.2-2.86,11.66-6,19-3.88,9.07-6.53,11.3-8,15-4.14,10.43,4.42,24,27,51,22.4,26.77,33.61,40.15,49,53,23.3,19.46,24.63,14.14,47,34,11.92,10.58,26,18.49,38,29,4.29,3.76,12,10.7,20,9,2.77-.59,5.22-2.73,10-7,9.08-8.1,14.07-12.55,15-19,.85-5.9-2.08-10.85-4-14-16.66-27.27-38-52-38-52-5-5.82-14.79-17.2-26-33-21-29.65-21.76-39.14-36-46-9.94-4.79-21.92-6.12-23-13-.35-2.23.63-3.89,3-8,14.25-24.73,6.84-13.61,13-23,12.59-19.19,13-19.12,13-21-.2-12.67-20.07-21.91-31-27-8.39-3.9-14.1-4.91-19-5C74.5,877.44,68,877.32,61.83,880.5Z"
                  transform="translate(0 -67.03)"/>
            <path class="cls-25"
                  d="M229.83,1125.5c4.66-5.4,8.77-8.6,17-15,12.2-9.5,18.31-14.24,28-18a72,72,0,0,1,26-5,73,73,0,0,1,25,5,94.36,94.36,0,0,1,17,8c6.15,3.59,9.46,6.36,15,11,5.3,4.43,6.39,6,6,7-.82,2.09-7.75,1.17-9,1-8.89-1.18-11.21-4.9-22-9a80.84,80.84,0,0,0-15-4c-2-.38-13.55-2.53-14-1-.32,1.08,5.12,3.14,19,10,19.51,9.64,10.48,6.42,22,12,4.46,2.16,8.9,4.14,12,9,.49.76,4,6.34,2,9-1.48,2-5.5,1.59-12,0-11.15-2.72-17.62-6-30-11a117,117,0,0,0-22-7c-1.11-.23-9.71-2-10-1s9.59,3.72,23,11c9.7,5.26,6.4,4.9,20,13,8.14,4.85,12.28,6.74,13,11,.56,3.33-1.08,7.41-4,9-3.58,2-7.71-.6-17-5-12.61-6-9.17-3.23-21-9-16.72-8.16-16.29-10.06-24-12-8.42-2.12-15.61-1.53-22-1a78.67,78.67,0,0,0-20,4c-11.54,4-15.24,8.49-17,7C212.92,1152,219.84,1137.08,229.83,1125.5Z"
                  transform="translate(0 -67.03)"/>
            <path class="cls-25"
                  d="M604.83,828.5c.32-3.08,2.88-6.39,8-13,6.21-8,11.11-14.36,17-14,2.29.14,2.23,1.14,10,6,8.88,5.56,10.77,5.39,12,8,2.09,4.42-1.83,8-4,16-4,14.63,3.79,22.45,0,26C640.63,864.25,603.11,844.94,604.83,828.5Z"
                  transform="translate(0 -67.03)"/>
            <path class="cls-25"
                  d="M665.83,818.5c3.62-5.43,6.06-6.15,15-14,5.77-5.06,11.92-11.78,24-25,4-4.39,8.6-9.47,31-35,21.89-25,32.85-37.47,34-40,1.88-4.14,5.55-13.22,10-13,1.72.08,2.75,1.52,8,8,7.5,9.27,7.68,9.19,8,10,3.51,9-17.25,24.89-27,33,0,0-36.47,30.34-63,77-8.59,15.11-21.77,27.77-28,44-.94,2.44-2.84,7.74-6,8-4.81.39-10.16-11.08-12-20C659.31,849,656.24,832.89,665.83,818.5Z"
                  transform="translate(0 -67.03)"/>
            <path class="cls-25"
                  d="M800.83,678.5c-1-5.07,4.44-9.86,8-13,2-1.73,8.38-7.07,20-10,11-2.78,20.22-1.72,26-1,10.57,1.32,10.1,3.35,23,5,7.92,1,12.14.76,13,3,1.54,4-9.44,11.62-10,12-10.71,7.31-16.82,5.1-41,10-14.54,3-21.22,5.55-30,2C807.75,685.66,801.74,683.23,800.83,678.5Z"
                  transform="translate(0 -67.03)"/>
            <path class="cls-25"
                  d="M787.83,660.5c-3.9-6,4.93-17.87,8-22,4-5.32,8.84-11.92,18-16,5.56-2.48,11.71-2.65,24-3,16.43-.47,18.37,1.91,19,3,2.45,4.25-2.34,11.08-3,12-3.37,4.69-7.23,6-20,11-18.28,7.13-27.42,10.69-29,12-3.15,2.62-7.21,6.79-12,6A7.81,7.81,0,0,1,787.83,660.5Z"
                  transform="translate(0 -67.03)"/>
            <path class="cls-25"
                  d="M895.83,650.5c0-1.25,2.55-2.42,13-5,5.13-1.27,11.76-2.78,25-5a59.07,59.07,0,0,1,16-1c2.81.24,7.84.68,8,2s-4.77,2.88-19,7c-18.73,5.42-28.18,8-38,5C899.35,653,895.84,652,895.83,650.5Z"
                  transform="translate(0 -67.03)"/>
            <path class="cls-25"
                  d="M905.83,662.5c0-2.5,9.41-4.43,22-7a207.93,207.93,0,0,1,23-3c6.07-.47,11.34-.64,17,2,1.58.73,6.25,2.91,6,5-.28,2.3-6.34,2.92-20,5-20.54,3.12-25.66,4.58-35,3C917.69,667.31,905.84,665.31,905.83,662.5Z"
                  transform="translate(0 -67.03)"/>
            <path class="cls-25"
                  d="M885.83,644.5c-.22-.91,6.7-3.51,12-5,7.69-2.16,14-2.55,22-3,5.8-.33,9.91-.56,10,0,.17,1.07-14.53,4.2-25,6C899.19,643.47,886.13,645.72,885.83,644.5Z"
                  transform="translate(0 -67.03)"/>
            <path class="cls-25"
                  d="M843.83,604.5c-1.24-2.6-.83-5,3-16,5-14.43,6.24-15.86,8-17,5.94-3.84,13.25-1.28,14-1,8,3,12.87,11.88,12,20-1,8.87-8.38,13.67-12,16-2.9,1.87-9.63,6.21-17,4C850.63,610.14,845.84,608.7,843.83,604.5Z"
                  transform="translate(0 -67.03)"/>
            <path class="cls-25"
                  d="M1224.83,328.5c-.54-2.92-.91-6.61,1-10,2.84-5,9.36-7,14-7,10.4.06,17.6,10.31,23,18,8.61,12.26,10.19,23.31,12,36,1.48,10.37.53,14.38-2,17a12.77,12.77,0,0,1-12,3c-6.34-1.69-7.63-7.87-14-19C1236.4,348.27,1227.58,343.35,1224.83,328.5Z"
                  transform="translate(0 -67.03)"/>
            <path class="cls-25"
                  d="M1162.83,431.5c-.09-3,5.44-5.43,9-7a36.16,36.16,0,0,1,16-3c5.39.26,12.44.59,18,6,1.17,1.14,6.94,6.76,6,15a17.23,17.23,0,0,1-11,14,17.92,17.92,0,0,1-14-1,22,22,0,0,1-7-6c-3.06-3.61-2.72-4.94-5-8C1169.63,434.51,1162.93,434.79,1162.83,431.5Z"
                  transform="translate(0 -67.03)"/>
            <path class="cls-25"
                  d="M1188.83,410.5c-1-2.27,4.09-7.27,9-10a28.86,28.86,0,0,1,18-3,29.83,29.83,0,0,1,18,9,29.14,29.14,0,0,1,7,14c.79,4.15,1.67,8.8-1,12-3.35,4-10.5,3.64-15,2s-7.73-5.44-14-13c-4.65-5.6-4.54-6.53-7-8C1197,409.41,1189.95,413,1188.83,410.5Z"
                  transform="translate(0 -67.03)"/>
            <path class="cls-25"
                  d="M1262.83,432.5c-.23-.81-.78-3.27,3-10,3.64-6.47,6.5-11.55,13-15a28.17,28.17,0,0,1,15-3c5,.22,10.32.45,13,4,4.4,5.82-1.47,16.28-3,19-1.72,3.07-7.66,13.64-19,15-6.36.76-11.43-1.74-14-3C1267.5,437.86,1263.86,436.07,1262.83,432.5Z"
                  transform="translate(0 -67.03)"/>
            <path class="cls-25"
                  d="M1179.83,479.5c-2.35,2.62,1.09,9.24,2,11,5.67,10.92,15.5,16.4,24,21,10.14,5.49,18,7.46,28,10,17.53,4.43,20.78,2.15,22,1,4.17-3.94,2.62-11.83,2-15-.94-4.78-4.64-9.92-12-20-5.44-7.44-1.31-1-15-16-.91-1-3.27-3.6-5-3-1.28.45-1.27,2.34-2,4-2.27,5.16-10.87,6.23-17,7a73.65,73.65,0,0,1-16,0C1184.22,478.87,1181.33,477.82,1179.83,479.5Z"
                  transform="translate(0 -67.03)"/>
            <path class="cls-25"
                  d="M1255.83,470.5a28.76,28.76,0,0,0-1,12c1.28,8.65,5.78,8.85,8,18,1.77,7.31-.4,10.06,2,12,4.54,3.66,16-3.22,21-7a48.17,48.17,0,0,0,11-12,37.15,37.15,0,0,0,7-17c.44-3.74-.09-5.22-1-6-1.76-1.5-4.6-.09-9,1-5.74,1.43-10,1.28-18,1-10.07-.35-12.22-2.22-13-3-2.23-2.24-2.64-5.09-4-5C1257.29,464.6,1256.36,468.37,1255.83,470.5Z"
                  transform="translate(0 -67.03)"/>
            <path class="cls-25"
                  d="M1225.83,552.5c-2.56-5.87-13.49-8.71-18-5-1.8,1.48-1.74,3.32-3,8-1.76,6.54-3.45,8.85-6,15-5.79,13.94-8.71,30-17,52-7.08,18.77-11.31,30-18,43a73.08,73.08,0,0,0-7,23c-1.28,9.74.3,13.55,1,15,2,4.1,4.06,4.23,12,12,7.05,6.9,8,9.37,10,9,3.85-.73,4.46-11.15,6-22,1.83-12.89,6.07-25.32,9-38,11.88-51.37,19.31-83.51,29-101C1224.8,561.75,1227.68,556.74,1225.83,552.5Z"
                  transform="translate(0 -67.03)"/>
            <path class="cls-25"
                  d="M1601.83,989.5a222.93,222.93,0,0,0,35-11,135.42,135.42,0,0,1,24-8c10.21-2.29,15.42-2.09,17-2a51.1,51.1,0,0,1,21,6,58,58,0,0,1,20,17c2.47,3.33,11.72,15.82,8,21-2.58,3.6-10.19,2-16,1-21.6-3.73-39.36-3-61-2-22.51,1-40.71,5.79-44-1-.56-1.16-.24-1.73-1-7A105,105,0,0,0,1601.83,989.5Z"
                  transform="translate(0 -67.03)"/>
            <path class="cls-25"
                  d="M1467.83,957.5c-.08.34-1.53,7.16,2,10,2.36,1.89,5.54.89,18-3,7.77-2.43,14.18-4.42,20-6,9.21-2.49,16.34-4.43,17-3,.49,1.06-2.83,3.37-22,17-6.58,4.67-12.28,10.53-19,15-3.87,2.58-8.5,5.38-9,10-.32,3,1.17,5.54,2,7,.24.43,3.15,5.36,8,7,4.47,1.51,7.42-.85,16-4,11-4,19.56-5.09,27-6,4-.49,12.59-1.54,13,0s-8.68,3.5-19,11c-3,2.18-8,7.79-18,19-8.79,9.86-11.48,13.34-11,18a14.14,14.14,0,0,0,4,8c4.66,4.91,11.13,5,13,5,2.44-.06,6.18-.68,20-12,10.73-8.79,12-11.28,19-15,4.62-2.45,4.83-1.77,11-5,8.06-4.22,12.73-6.74,16-12,1.23-2,4.7-7.55,3-13-1.4-4.5-5-4.63-6-9-1.13-4.85,2.85-6.54,3-12,.21-7.52-7.24-8.45-9-17s4.75-11.2,3-20c-1.53-7.68-7.82-12.38-10-14-2.47-1.84-8.74-5.9-25-6-25.35-.16-42,9.5-55,17C1475.12,947.23,1469.29,951,1467.83,957.5Z"
                  transform="translate(0 -67.03)"/>
            <path class="cls-22"
                  d="M1366.83,652.5c-.12-1.34.57-2.63,7-8a181.3,181.3,0,0,1,24-17c12.9-7.72,13.78-7.26,14-7,1.3,1.49-8.71,8.35-15,23-4,9.37-2.84,13.34-7,16C1382.26,664.34,1367.33,658.22,1366.83,652.5Z"
                  transform="translate(0 -67.03)"/>
            <path class="cls-22"
                  d="M1306.83,689.5s7.41-1.51,18-4c7.17-1.69,11.42-2.69,16-6,5.16-3.74,5.41-6.57,10-8s8.71-.06,12,1a23,23,0,0,1,11,7c1.88,2.25,2.83,3.38,3,5,.42,4-6.38,8.39-20,17-11.58,7.31-17.46,11-22,10-5.57-1.17-9-5.88-10-5s2.79,5.31,5,11c4.93,12.69,0,26.07-1,26s1.44-10.26-3-24c-1.87-5.79-4-12.45-10-18-6.59-6.11-14.47-7.76-14-10C1302.05,690.45,1303.94,690.09,1306.83,689.5Z"
                  transform="translate(0 -67.03)"/>
            <path class="cls-23"
                  d="M1147.83,719.5c-1.35.89,2.08,8.4,4,12,2.14,4,6.32,11.64,15,17,5.75,3.55,11,4.61,18,6,11.25,2.25,17.65,1.22,18,3,.38,2-7,5.35-13,7-2.11.57-11.79,3-25,0-7.34-1.69-11.92-4.2-12-4s9.17,6.08,22,9a75.94,75.94,0,0,0,27,1,81.65,81.65,0,0,0,23-7c6.57-2.89,16.59-7.31,16-10-.67-3-14-.24-35-3-12.74-1.67-23.83-3.13-35-10C1156.24,731.52,1149.64,718.31,1147.83,719.5Z"
                  transform="translate(0 -67.03)"/>
            <path class="cls-22"
                  d="M1133.83,768.5c-1.84,1.19.65,9.12,4,15,6.75,11.86,18,17.19,26,21,5.45,2.59,12.79,6,23,7,13.69,1.35,28-2.07,28-5,0-1.79-5.26-2.53-25-8-17.3-4.8-26.05-7.25-31-10C1142.92,779.66,1136.3,766.9,1133.83,768.5Z"
                  transform="translate(0 -67.03)"/>
            <path class="cls-22"
                  d="M1162.83,821.5c-1.62,2.62,4.53,10,11,14a28.37,28.37,0,0,0,18,4c11.12-1.37,21.13-9.69,20-13-1-2.86-9.46.29-27-2C1170.87,822.68,1164.29,819.13,1162.83,821.5Z"
                  transform="translate(0 -67.03)"/>
            <path class="cls-22"
                  d="M1439.83,610.5c.91-.36.91-.24,9-2,10.24-2.23,11.34-2.68,12-2,2.44,2.51-7.25,14.15-15,27-10.64,17.64-14.88,33-19,48-4.74,17.21-6.1,30-8,48-2.3,21.76-3.45,32.64-1,43a142.31,142.31,0,0,0,14,36c3.55,6,6.93,10.38,8,18,1.13,8-1.24,13-3,21-2.85,12.87-.52,17.24-1,32-.54,16.72-3.65,15.18-14,64,0,0-2,9.51-5,27-3.18,18.64-3.14,21.69-3,24,.81,13.41,5.68,14.78,6,28a68.89,68.89,0,0,1-3,21c-3.41,10.56-8.26,15.6-6,22,1.22,3.45,3.47,4.39,6,7,12.54,13,5.57,39.88,5,42-4.26,15.73-12.76,20.5-11,32,.29,1.89,1.18,6.09-1,8s-5.5-.39-11,0a21.44,21.44,0,0,0-13,6c-6.85,6.8-3.56,15.33-8,17-4.73,1.78-12-6.6-15-11-2-2.91-4.14-6.28-4-11a16.61,16.61,0,0,1,5-11c2.67-2.51,4.64-2.51,15-6s11-4.36,11-5c.08-2.95-12.73-2.33-20-11-3.78-4.5-4.47-9.62-5-14-2.91-24.13-3.55-48.91-4-59-.05-1.15-1-11.76-3-33-3.08-33.31-3.53-36.52-4-45-.39-7-.88-19.27,0-45,1.19-34.75,2.16-63.17,8-101,4.46-28.87,4.54-16.5,16-75,6.17-31.47,8.23-45.72,19-63,4.65-7.46,8.75-12,15-24,12.08-23.18,16-34,16-34C1430.83,621.23,1433.1,613.2,1439.83,610.5Z"
                  transform="translate(0 -67.03)"/>
            <path class="cls-22"
                  d="M1358.83,1202.5a13.67,13.67,0,0,0,0,6c.7,2.89,2.81,5.45,15,13,8.31,5.15,10.12,5.68,12,5,3.14-1.14,4.78-5.05,5-8,.5-6.76-6.28-11.51-7-12-5.7-3.88-8.63-.6-16-5-2.92-1.74-5.21-3.89-7-3C1359.59,1199.12,1359.2,1200.89,1358.83,1202.5Z"
                  transform="translate(0 -67.03)"/>
            <path class="cls-22"
                  d="M1698.83,604.5c-11.64-.41-15.91,12.1-32,27-14.85,13.75-17.41,8.84-57,33-18.26,11.14-27.38,16.71-38,26-17.16,15-27.56,29.82-36,42-19.45,28.06-14.72,31.5-31,50-15.88,18-23.82,27.08-27,30-5.6,5.14-9.15,12.15-14,18-1.48,1.79-3.76,4.5-3,7,.88,2.91,5,2.71,9,6,3.07,2.53,4.11,5.54,6,11,3.08,8.88,5.47,15.78,2,21-3.31,5-10.7,6.52-13,7-4.4.91-5.2-.13-7,1-4.69,2.94-1.75,11.53-3,24-.48,4.8-2.65,11.53-7,25-5.13,15.9-7.55,20-5,24,2.74,4.29,9.73,6.17,14,4s4.18-7.26,6-12c3.68-9.57,14.84-14.18,37-23,15.35-6.11,26.26-10.36,42-12,14-1.46,22.66-2.36,30,3,9,6.6,5.13,14.75,15,27,1.16,1.44,15.19,18.4,31,16,8.93-1.36,14.36-8.28,21-17,5.33-7,18.16-24.35,20-51,1.86-26.83-8.56-46.51-5-48s14.62,19.19,17,18c1.91-1-3.89-15-10-35-5.8-19-13.69-44.9-8-48,2.14-1.17,4.9,1.6,14,8,18.47,13,20,10.68,34,21,9.51,7,17.8,13.11,26,24,10.25,13.61,13.79,26,16,34,3,10.76,5,18.48,1,25-4.48,7.34-13.37,7.93-13,11,.41,3.39,11.6,5.47,21,5a63.9,63.9,0,0,0,25-7c9.75-5,12.62-9.48,16-8,4,1.75,5.54,10.45,3,17-3.52,9.07-13.76,11.24-13,14,.64,2.31,8,1.44,21,2,11.48.5,20.34.88,30,4,12,3.89,19.22,10,20,9,1.1-1.48-15.57-10.32-21-28-.8-2.6-.4-2.3-2-20-1.06-11.72-1.77-19.49-3-28-2.4-16.55-4.24-29.3-9-30-2.94-.43-3.77,4.22-11,10-5.56,4.45-11.45,6.36-23,10-11.07,3.49-19.74,6.23-21,4s5.62-6,13-16c1.48-2,4.47-6.23,14-29,6.17-14.72,9.25-22.09,10-26,1.42-7.4,1.18-13.33-2-34s-4.43-24.48-8-45c-4.26-24.49-4.59-31.21-10-43-7.05-15.36-13.71-19.66-16-21-10-5.88-22.14-5.17-25-5-9.33.55-15.27,3.52-16,2s5.17-6.75,11-10c6.19-3.45,9.94-3.52,10-5,.09-2.39-9.59-3.37-22-8C1706.73,609.49,1705.93,604.75,1698.83,604.5Z"
                  transform="translate(0 -67.03)"/>
            <path class="cls-23"
                  d="M1689.83,958.5c.83,2.49,8,0,17,2,14.66,3.23,23.51,15.79,30,25,3.23,4.59,11.91,17.2,14,35,1.4,11.93-.81,20.59,1,21s6.46-8.37,8-18c2-12.54-1.92-21.75-1-22s6.16,10.33,8,24c1.24,9.23.31,14.92,1,15,1.14.13,6.48-14.84,5-32-.52-6.06-3-25.67-19-42a67.07,67.07,0,0,0-28-17c-12.43-4.06-19.37-2.42-21-2C1696.53,949.66,1688.92,955.76,1689.83,958.5Z"
                  transform="translate(0 -67.03)"/>
            <path class="cls-22"
                  d="M1758.83,940.5c.38-1.48,12.91.63,27,3,25.75,4.33,34.85,7.47,39,9,10.22,3.77,16.12,6,22,12a44.35,44.35,0,0,1,11,20c3.75,13.7,1.28,27.81-1,28-1.94.16-2.4-9.9-10-26-4.26-9-7-14.83-13-20-5.43-4.68-11.69-6.51-24-10-15.21-4.31-19.32-3.52-33-8C1770,946.26,1758.46,942,1758.83,940.5Z"
                  transform="translate(0 -67.03)"/>
            <path class="cls-22"
                  d="M1775.83,969.5c-1.35,1.14,5.24,8.32,10,20,5.33,13.09,5.69,25.24,6,36,.38,13-1,24.88,0,25,1.19.15,1.3-17.61,10-21,4-1.54,9.06.12,12,3,6,5.87,3.13,16.92,4,17s3.2-7.93,3-19c-.27-14.92-5.23-27.28-7-27s.79,12.92-4,15c-2.75,1.19-6.79-1.59-9-4-4.4-4.8-2.37-9-5-19-1.16-4.41-4-13-11-20C1781.69,972.32,1776.88,968.61,1775.83,969.5Z"
                  transform="translate(0 -67.03)"/>
            <path class="cls-22"
                  d="M1467.83,1106.5c4.63-4.14,18,10.37,51,26,23.12,11,42.16,16,65,22,24.72,6.51,37.09,9.77,53,10,24.83.36,39.54-5.68,41-2,1.77,4.49-18.14,18.47-39,26a144.33,144.33,0,0,1-44,8c-20.65.37-31-4-33,0-2.46,4.93,9.75,18.13,24,25,12.35,6,23.91,6,41,6,24.05-.06,37.43-4.05,38-2,.67,2.38-16.3,11.11-36,15-20.93,4.13-37.61,1.36-51-1-19-3.34-39.32-6.92-46-19-1.54-2.78-3.58-8.23-9-17-3.38-5.46-5.66-8.32-5-9,1-1.08,7.85,5,20,12,8.9,5.13,17.44,8.91,18,8,.7-1.12-12.29-7-20-21-1.53-2.78-8.5-15.48-4-21,4.31-5.28,15.67.29,40,4,19.84,3,37.82,3.23,38,2,.26-1.82-38.06-11.45-79-19-22.18-4.09-34.23-5.56-46-16C1470.52,1130.8,1463.18,1110.65,1467.83,1106.5Z"
                  transform="translate(0 -67.03)"/>
            <path class="cls-6"
                  d="M1442.83,1115.5c.44,5.86.88,13.42,1,22.26a315.39,315.39,0,0,1-1,32.28c-1.25,14.88-1.87,22.32-4,30.06-1.84,6.68-3.49,10.06-3,15.58.7,7.91,5.24,13.94,9,17.81"
                  transform="translate(0 -67.03)"/>
            <path class="cls-6" d="M1446.83,1210.5c-1.31-2.08-.11-5,2-6a4.22,4.22,0,0,1,5,1,4.3,4.3,0,0,1-7,5Z"
                  transform="translate(0 -67.03)"/>
            <path class="cls-23"
                  d="M1452.83,1190.5c-1.76-3.86,1.54-6.77,3-14,1.89-9.37-1.42-15.46,0-16,1.66-.64,5.53,7.91,14,21,5.73,8.86,10.6,16.38,18,25s12.06,12.22,11,14c-1.43,2.41-10.3-4-25-3-6.05.43-10.9,2-12,0-1.24-2.22,4.32-5.33,4-11-.24-4.2-3.57-7.56-6-10C1455.84,1192.48,1454,1193.1,1452.83,1190.5Z"
                  transform="translate(0 -67.03)"/>
            <path class="cls-23"
                  d="M1414.83,1210.5c-1.86-3.58,0-6.65,5-20,4.05-10.82,6.19-16.51,8-24,2.14-8.85,2.09-13,3-13,1.65,0,5.35,13.54,3,28-1.54,9.5-4.28,10.62-5,21-.51,7.3.52,11.37-2,13C1423.82,1217.45,1417.15,1215,1414.83,1210.5Z"
                  transform="translate(0 -67.03)"/>
            <path class="cls-23"
                  d="M1444.83,685.5c-1.32,0-3.29,12.64-3,28,.1,5.37.46,10.23,4,34,3.84,25.76,5,30.87,7,31,2.37.15,4.7-7,7-14,2.08-6.36,4-12.16,4-20,0-8.24-2-11.3,0-18,1.29-4.24,2.4-3.91,4-8,3.8-9.68-1.14-14.66,0-28,.84-9.88,4.26-15.39,3-16-1.7-.82-8.66,8.87-13,16-4.81,7.91-6.13,12.24-8,12C1446.24,702,1446.34,685.5,1444.83,685.5Z"
                  transform="translate(0 -67.03)"/>
            <path class="cls-23"
                  d="M1505.83,696.5c-3.73,3.14-10.91,9.17-10,16,.57,4.32,3.81,4.65,4,9,.25,5.51-4.72,9.87-6,11-5.2,4.57-8,2.39-12,6-5.87,5.34-6.07,15.9-3,23,.66,1.53,3.11,7.19,6,7,3.11-.2,3.83-7,8-17,1-2.44,5.34-9.62,14-24,8.25-13.69,9.83-16,13-19,5.08-4.84,11.2-8.69,11-9s-10.08,7.67-14,5c-3.31-2.25,0-10.46-3-12C1511.81,691.47,1508.54,694.22,1505.83,696.5Z"
                  transform="translate(0 -67.03)"/>
            <path class="cls-23"
                  d="M1539.83,624.5c-2.27,3.6,3,7.73,4,18,1,10.46-3.4,16.29-1,18s8.23-3.86,19-11c14-9.26,15.79-7.39,29-16,10.52-6.86,25.74-18.73,24-22-.7-1.31-3.79-.6-20,3-23.81,5.29-35.78,7.93-39,8C1546.9,622.7,1541.81,621.37,1539.83,624.5Z"
                  transform="translate(0 -67.03)"/>
            <path class="cls-23"
                  d="M1452.83,1303.5c-2.2,2.84,0,3.92,1,22,.37,6.73,2.13,13.32,3,20a8.72,8.72,0,0,0,2,5c.77.85,2.4,2.2,10,3,5.27.55,7.9.83,9,0,2.84-2.15.38-6.76,0-18a167.78,167.78,0,0,1,1-24c.52-4,.88-5.33,0-7C1475.35,1297.85,1458.21,1296.54,1452.83,1303.5Z"
                  transform="translate(0 -67.03)"/>
            <path class="cls-23"
                  d="M1495.83,1301.5c-2.09,1.31-1.57,4.13-1,20,.25,7,1.72,14,1,21-.37,3.61-1,7,1,9s6,1.35,8,1c9.2-1.57,18.67.12,28,0,12.79-.16,10.89,1.17,23,1,12.35-.18,13.64-1.55,26-2,10.11-.37,10.52.51,28,1,13.7.39,30.78.87,31-1,.18-1.54-11-4.49-20-6-13.52-2.27-21.66-1.19-22-3-.59-3.15,23.55-8.75,23-12-.23-1.36-4.67-1.71-26-2-18.94-.25-28.41-.38-31,0-15.89,2.33-23.68,7.74-30,3-3.34-2.5-4.56-6.56-5-8-2.84-9.39,3.87-15.52,1-19s-10.45,2.75-23,0C1500.81,1303,1498.35,1299.92,1495.83,1301.5Z"
                  transform="translate(0 -67.03)"/>
            <path class="cls-23"
                  d="M1409.83,1302.5c-3.09,3.68,3.44,10.74,0,15-3.21,4-12.53,2.34-17,1-6.58-2-9.05-5.23-11-4-2.23,1.41.28,6.17,0,15-.34,10.84-4.47,14.56-2,18,2,2.78,5.5,1.46,17,2s27.78,2.83,29,3c7.14,1,9.47,1.61,11,0,2.9-3-2-8.86-4-21-2.27-13.91,2.25-18.14-2-24C1425.65,1300.35,1413.11,1298.6,1409.83,1302.5Z"
                  transform="translate(0 -67.03)"/>
        </g>
    </g>
</svg>