<svg id="Layer_1" data-name="Layer 1" xmlns="http://www.w3.org/2000/svg" viewBox="0 0 3548.09 1583"><defs><style>.cls-1,.cls-16{fill:#fff;}.cls-1{stroke:#00c5db;stroke-width:20px;}.cls-1,.cls-14,.cls-17{stroke-miterlimit:10;}.cls-11,.cls-2{fill:#9c9c9c;}.cls-10,.cls-14,.cls-15,.cls-17,.cls-2,.cls-4,.cls-5,.cls-7,.cls-8{stroke:#000;}.cls-10,.cls-12,.cls-13,.cls-15,.cls-2,.cls-4,.cls-5,.cls-7,.cls-8{stroke-linecap:round;stroke-linejoin:round;}.cls-10,.cls-12,.cls-13,.cls-14,.cls-15,.cls-17,.cls-2,.cls-4,.cls-5,.cls-7,.cls-8{stroke-width:16px;}.cls-3,.cls-7{fill:#d9d9d9;}.cls-5,.cls-9{fill:#129f58;}.cls-6,.cls-8{fill:#46c678;}.cls-10,.cls-12,.cls-14{fill:none;}.cls-12,.cls-13{stroke:#fff;}.cls-15{fill:#090a0a;}.cls-18{fill:#00c5db;}</style></defs><title>footerSecondLesson-en</title><path class="cls-1" d="M2336,323.61A110.51,110.51,0,1,1,2257.8,356,110.51,110.51,0,0,1,2336,323.61Z" transform="translate(0 0.01)"/><path class="cls-1" d="M423,1264C193.14,1253.64,10,1064,10,831.58A431.9,431.9,0,0,1,156.92,506.75C187.92,227.31,425.5,10,713.92,10c169.08,0,320.73,74.71,423.5,192.8a319.68,319.68,0,0,1,389.41,92.68,318.36,318.36,0,0,1,159.7-42.58c115.72.12,217,61.76,273,153.91,199.39,38.8,349.72,214.46,349.56,425.19-.2,226.53-174.34,412.24-396,430.9q-18.21,1.57-36.83,1.57H442.46C436,1264.46,429.48,1264.29,423,1264Z" transform="translate(0 0.01)"/><path class="cls-1" d="M2585.28,520.63A66.34,66.34,0,1,1,2518.94,587a66.34,66.34,0,0,1,66.34-66.36h0Z" transform="translate(0 0.01)"/><path class="cls-2" d="M3132.79,748.93c-343.06,4.58-381.73,502.1-391.37,826.06h728C3456.93,1211.08,3499.74,744,3132.79,748.93Z" transform="translate(0 0.01)"/><path class="cls-3" d="M2988.36,1566.69c26-160.83,31.34-376.31,83.22-588,7.43-30.31,35.76-52.62,68.56-52.13a71.94,71.94,0,0,1,13.95,1.57c28.39,6,37.92,59.44,45.69,107.86,42,262.29,84.55,386,103.27,530.64Z" transform="translate(0 0.01)"/><path class="cls-2" d="M2943.6,765.55c-178.1,75.58-233.24,537.13-265.15,809.44h262.93C2987.11,1189.36,3047.8,964.77,2943.6,765.55Z" transform="translate(0 0.01)"/><path class="cls-3" d="M2735.51,1566.69s15.5-98.9,50.45-123.57c38.55-27.21,77.48-36,120-10.45,2.21,78.05-.11,132.81-.11,132.81Z" transform="translate(0 0.01)"/><path class="cls-4" d="M2943.6,765.55c133,231.85,10.35,531.64-2.22,809.44-22.4-1.38-53.9-1.17-69.55-1.28,31.07-433.31,118.8-478.21,18.78-789.5C2901.66,780.1,2919.88,773.09,2943.6,765.55Z" transform="translate(0 0.01)"/><path class="cls-2" d="M3024.21,1047.08c-37.72,182.3-47,391.08-61.78,430.57-20.35-25.16-67.33-167.7-49.22-278.91C2927.63,1110,2995.36,1058.16,3024.21,1047.08Z" transform="translate(0 0.01)"/><path class="cls-2" d="M3279.43,756.64c-100.77,246.83,80.18,610.36,90.44,817.8l147.92.55C3499.5,1243.62,3411.62,775,3279.43,756.64Z" transform="translate(0 0.01)"/><path class="cls-3" d="M3387.84,1406.23c14.39-18.59,36.38-24,60.9-20.44,39.26,5.71,36.26,89.73,35,181.13l-86.73-.68C3385.21,1494.12,3348.93,1456.37,3387.84,1406.23Z" transform="translate(0 0.01)"/><path class="cls-4" d="M3279.43,756.64c20.94,7.61,22.84,8,44.43,17.65-92.16,219.48,83.75,558.79,96.46,800.7l-50.45-.55C3360.75,1369.36,3182.64,1002.46,3279.43,756.64Z" transform="translate(0 0.01)"/><path class="cls-2" d="M3245.89,1205.05c14.78,94.27,25.53,364.34,48.37,364.34,20.55-86.07,114.74-148.64,57.78-261.14C3328.86,1262.51,3271.61,1186.91,3245.89,1205.05Z" transform="translate(0 0.01)"/><path class="cls-5" d="M3089.36,1179.56a1861.63,1861.63,0,0,1,6,222.28c-.28,8.83-16,22.63-11.09,32.16,3.69,7.15,20.07-5.61,33.26-5.1,15.76.64,28.72,13.17,33.54,4.78,5.14-8.83-5.72-22.07-8.74-27.4-39.17-69.06-14.44-172.29,24.18-236.3C3150.56,1155.22,3107.63,1159.54,3089.36,1179.56Z" transform="translate(0 0.01)"/><path class="cls-6" d="M3110.28,1223.39c1.66-14.37,1-19.1,5.12-24.57,5.67-7.57,17.21-12.36,21.75-9,5.93,4.32-1.55,21.34-7.36,38.84-7.31,22.07-22.95,69.46-14.72,112.29,7.47,38.43,33.54,69,25,75.59-1.45,1.13-4.17,1.27-9.6,1.55-11.58.62-14.42-3-21.75-1.24s-10.38,6.83-12.16,5.6.78-7.29,2.56-12.75c2-6.23,2.63-14.32,3.83-30.49,1.64-22-1.27-35.31-1.27-65.32a532.78,532.78,0,0,1,4.48-65C3108.2,1234.2,3108.83,1235.87,3110.28,1223.39Z" transform="translate(0 0.01)"/><path class="cls-4" d="M3248,1206.82c-52.15,35.16-114.46-3.94-123,22.44-3.71,11.46,4.4,20.41,32.64,29.23-23.23-.53-58.55,2.68-70.61,8.83-17.88,9.11-28.24,37.07,14.12,49.43-22.95,1.77-30.73,21.92-26.89,38.94,2.61,11.58,28.65,22.84,44.54,21.08-10.59,5.3-13.54,15.32-5.3,21.84,19.42,15.23,81.2,4.36,91.28,1.41,41.47-12.18,53.65-14.48,112.34-57.25C3341.09,1292.5,3297.08,1230.44,3248,1206.82Z" transform="translate(0 0.01)"/><path class="cls-7" d="M3279.43,756.64c77.92,24.2,148.28,78.45,212.27,182.16,43.87,71,67.17,137.59,29.55,224.19-82.53,190-147.81,218.75-227.05,406.37,48.12-154.78,33.54-296.81-48.37-364.34,56.49-42,92.69-83.44,124.95-142.67-29.55-26.74-40.3-44.59-40.3-95.54" transform="translate(0 0.01)"/><path class="cls-8" d="M3136.21,1191.88c-9.5-8.56-1.34-48.55,24.57-70.28,38.94-32.62,71.21,0,118.68-26.11C3288.8,1116.74,3232.44,1213.12,3136.21,1191.88Z" transform="translate(0 0.01)"/><path class="cls-9" d="M3137.7,1189.24c33.86-58.13,103.94-41.2,138.43-88.76a2.38,2.38,0,0,1,4.32,1.29c-.72,29-54.28,107.82-141.22,90.75a2.24,2.24,0,0,1-1.54-3.28Z" transform="translate(0 0.01)"/><path class="cls-4" d="M2987.49,1078.5c34.18-30.43,87.88-37.26,119.12-35.46,13.65.79,22.95,13.77,15.5,24.59a97.76,97.76,0,0,1-6.32,8.12c73.89,17.19,47.13,52.11,33,68,3.53,10.59-1.92,25.77-5.3,33.54s-14.12,12.36-24.71,14.12c-10.59,65.32-91.53,52.36-162.88,19C2931.14,1181.59,2947,1114.6,2987.49,1078.5Z" transform="translate(0 0.01)"/><path class="cls-7" d="M2943.6,765.55c-22.07,5.58-173.37,55.68-272.21,162.79-39.47,42.77-49.16,103.89-23.71,155.34,55.25,111.65,209.2,238.56,314.71,394-60-101.91-2.68-318.47,61.78-430.57-41.64,0-75.24-8.91-149.13-23,10.75-24.2-20.16-51-45.69-61.15" transform="translate(0 0.01)"/><path class="cls-10" d="M3136.21,1191.88c32.64-53.51,68.85-44.87,98.13-61" transform="translate(0 0.01)"/><path class="cls-5" d="M3086.91,1460.24c5.38-14.3,58.55-15.41,64.93-.85,2.51,5.72-2.82,12.45-8,19.14a12.52,12.52,0,0,0-2.61,6.53c-2.81,30.36-4.38,60.1-6.21,89.93h-48.26c2.19-30.7,4.14-57.52,7.14-86.8a25.88,25.88,0,0,0-4.24-17.32C3087.24,1467.32,3085.62,1463.67,3086.91,1460.24Z" transform="translate(0 0.01)"/><path class="cls-6" d="M3098.88,1460.12a20.76,20.76,0,0,1,10.59-3.74c13-1.31,22.63-2.28,26.62,3.12,3.53,4.78.9,12.36,0,15-7.7,23.22-8.67,58.1-9.34,92.2l-30.3-1.28c4.8-39.29,9.08-79.71,1.95-89.67-.78-1.09-4.94-6.3-3.41-10.93A10,10,0,0,1,3098.88,1460.12Z" transform="translate(0 0.01)"/><path class="cls-4" d="M2877.19,789.82c18.13-7.52,40.92-16.12,66.41-24.27,11.17,21.18,11.17,21.18,20.69,42.23-7.48,14.72-42.12,29.52-58.25,28.63C2894.74,810.65,2891.07,809,2877.19,789.82Z" transform="translate(0 0.01)"/><path class="cls-4" d="M3279.43,756.64a441.34,441.34,0,0,1,44.43,17.65c-9.76,26.76-11.62,32.9-22.37,84-14.86,2.93-36.93-7.47-44.64-16.12C3264.37,804.33,3266.61,795.63,3279.43,756.64Z" transform="translate(0 0.01)"/><path class="cls-10" d="M3136.21,1191.88" transform="translate(0 0.01)"/><path class="cls-10" d="M3279.43,1095.5" transform="translate(0 0.01)"/><path class="cls-11" d="M2875.08,1024.16c-26.89.9-49.3-10.38-65.21-13-30.35-5.1-34.71-6.83-54-12.25-62.7-17.65,3.53-26.11,10.59-27.11,12.71-1.77,21.4,1.25,24.41-1.77,2.31-2.31-2.81-7.64-5.3-19.54-1.64-7.61-3.37-15.55.44-21.66,6.74-10.77,26.85-9.64,32.25-9.34,14.53.81,62.12,18.82,68.07,23" transform="translate(0 0.01)"/><path class="cls-10" d="M2875.08,1024.16a56.38,56.38,0,0,0,.35-25.72c-8.24-36.35-51.72-50.61-55.54-51.81" transform="translate(0 0.01)"/><path class="cls-10" d="M2875.08,1024.16c-26.74-2.79-55.84-11.93-83.14-16.61" transform="translate(0 0.01)"/><path class="cls-11" d="M2637.42,1007.55s22.84,40.39,68.51,88.26c32.43,34,68.85,72.38,126.29,95.54a557.46,557.46,0,0,0,119.6,33.12c-16.45,73.47-27.13,145.69-4.5,226.11-43.5-59.61-131.53-155.34-195.47-228.87-35.8-41.2-63.94-76.68-72.76-92.15C2637.87,1074,2632.08,1029.23,2637.42,1007.55Z" transform="translate(0 0.01)"/><path class="cls-10" d="M2764.37,1176.77a317.93,317.93,0,0,0,39,26.74,331.4,331.4,0,0,0,89.34,35.68" transform="translate(0 0.01)"/><path class="cls-11" d="M3325.11,1065.31c.34.14-14.23-139-13-139.77,3.53-2.28-9.46-23.92,10.72-6.78,8.7,7.4,21.54,13,28.24,25.31,7.57,13.93,2.95,21.66,11.65,31.42,12.13,13.61,29,7.41,38.52,19.54,10.08,12.78,2.72,31.55,1.77,34-7.27,19-36.4,38.84-32.9,32.68" transform="translate(0 0.01)"/><path class="cls-10" d="M3369.46,1065.31c4.47-10.36,15.76-26.74,14.32-44.59" transform="translate(0 0.01)"/><path class="cls-10" d="M3360.88,986.33a172.15,172.15,0,0,0-1.77,46.18c1.06,11.3,7.61,24.2,10.2,31.53" transform="translate(0 0.01)"/><path class="cls-10" d="M3322.59,944a149.54,149.54,0,0,0,7.4,68.85c12.36,34.32,28.69,44.13,38,54.72" transform="translate(0 0.01)"/><path class="cls-11" d="M3314.82,1315.43s194.41-147.9,222-247.9c8.07,66.57-46.57,153-57.32,174.76-4.48,11-24,44.93-51.05,86.5-38.09,58.5-89.43,134.37-120.52,202.62C3318.72,1491.7,3335.92,1401,3314.82,1315.43Z" transform="translate(0 0.01)"/><path class="cls-10" d="M3352.81,1322.85a333.89,333.89,0,0,0,50.61-42A322.59,322.59,0,0,0,3450,1221" transform="translate(0 0.01)"/><path class="cls-10" d="M3136.32,1194.18c-9.5-8.56-1.34-48.55,24.57-70.28,38.94-32.62,71.21,0,118.68-26.11C3288.91,1119,3232.56,1215.41,3136.32,1194.18Z" transform="translate(0 0.01)"/><path class="cls-10" d="M2943.6,764.63c-22.07,5.58-173.37,55.68-272.21,162.79-39.47,42.77-49.16,103.89-23.71,155.34,55.25,111.65,209.2,238.56,314.71,394-60-101.91-2.68-318.47,61.78-430.57-41.64,0-116.3-12.36-149-21.59" transform="translate(0 0.01)"/><path class="cls-10" d="M3330.52,964.37" transform="translate(0 0.01)"/><path class="cls-10" d="M3279.43,754.18c77.92,24.2,148.28,78.45,212.27,182.16,43.87,71,67.17,137.59,29.55,224.19-82.51,190.09-147.77,218.68-227,406.38,48.12-154.78,33.54-296.81-48.37-364.34,56.49-42,92.69-83.44,124.95-142.67" transform="translate(0 0.01)"/><path class="cls-12" d="M3090.54,1315a171,171,0,0,0,22.95,1.77,231.35,231.35,0,0,0,42.37-3.53" transform="translate(0 0.01)"/><path class="cls-13" d="M3113.49,1378.53c10.59,3.53,49.75-8.26,53-10.59" transform="translate(0 0.01)"/><path class="cls-13" d="M3147,1145.51c-4.91,1.77-24.71,8.83-42.37,5.3" transform="translate(0 0.01)"/><path class="cls-13" d="M3117,1196.7c-6.05,2-28.24,5.3-37.07,5.3" transform="translate(0 0.01)"/><path class="cls-10" d="M3032.7,794.48" transform="translate(0 0.01)"/><path class="cls-10" d="M3029.17,813.9" transform="translate(0 0.01)"/><path class="cls-10" d="M3038,794.48" transform="translate(0 0.01)"/><path class="cls-14" d="M3376.27,646.73" transform="translate(0 0.01)"/><path class="cls-15" d="M2849.44,555.54c-30.22-13.5-37.25-36.88-34.33-40.6,0,0,19.61,8.56,23.65,4.61,9.27-9.06-80.55-35.94-76.65-114.9,2-40.78,24.43-82.76,40.12-97.09,1.36-1.24,2.28-16.88,6.81-22.15,2.31-2.68,12.92,7.06,12.73,4.48-.51-7.06,1.57-18,12.6-21.89,3.94-1.39,3.18,18.08,14.12,21.64,1.54-6.66,3.67-11,8.61-13.19,6.81,7.17,2.14,7.78,11.44,13.7,20.05,9.73,52.59,41.1,87.43,67.61,46.67,6.23,111.21-43.88,139.46-36.59a3.35,3.35,0,0,1,2.34,4.12h0a.45.45,0,0,1-.08.25c-3.69,10.7-22.95,21.59-22.95,21.59,7.45,14,55.94-42.37,119.33-22.67,1.54,3.65-30.84,17-28.81,24.59,36.14,4.22,47.93,4.11,58.89-.19,27.31-14.23,39.54-68,80.06-76.07,7.27-7.91,13.15-14.88,16.79-13.5,4.18,1.59.67,10.59,5.08,10.59,2.12-.12,8.3-9.8,10.49-16.77,17.49.78,13.12,23.81,15.43,23.76,3.3,0,6.74-7.48,7.71-8.19,3.69,0,7.06,12.55,9.25,27.15,36.14,42.77,89.34,127.38-9.94,195.45-.53,13.19,18.54,2,30,0-5.3,27.66-39,49.6-39.4,56.12" transform="translate(0 0.01)"/><path class="cls-7" d="M2759,711.57c31.9-25.1,57.09-56.86,79.72-125,26.48-79.56,77.16-228.44,256.67-228.44,216.81,0,234.55,116,280.84,285,12.36,44.82,36.65,59.93,66,61.27-5.65,11.28-16.4,14.6-25.07,15.55,7.06,13.82,9.83,21.52,3.67,34.76C3417.16,741.45,3401,734,3401,734c-3.87,44.31-44,65.81-105.92,101.42-10.59,6.13-82.77,78.43-167.7,78.48-122.4,0-186.4-64-204.31-76-34.26-20-85.77-23.94-128.46-87.45-7.06,2.4-11.32,1.54-23.14,11.26-4-5.19-.51-21.52,13.38-35.85C2770.34,725.92,2759,718.24,2759,711.57Z" transform="translate(0 0.01)"/><path class="cls-16" d="M2813.4,732.56c-6.09-1.87-10.26-15.2-6.81-31.88a43.43,43.43,0,0,1,9.06-18.59c26.18-32.09,34.07-50.58,46.59-83.46,2.52-6.62,5.42-13.1,8.49-19.42a144.24,144.24,0,0,0,6.23-14.67c17.94-48.51,29.69-80.89,47.66-101.33,34-27.91,57.94-19.28,56.07-23.57-6-11.42-29.32-13.82-29.32-13.82,5.53-15.5,72.27-1.85,91.56-7.17-9-11.42-22-14.48-19-21,0,0,39.21,17.65,85.39,15.89a297,297,0,0,0,72.52-12.8c2.74,4.93-7.06,12.36-10.29,21.52,16.45,9.6,80.43-5.17,83.32,4.1,0,0-18.64,7.06-21.54,14,17.51,5.67,26.62,8.83,38.13,14.48a65.32,65.32,0,0,1,28.47,26.6c19.86,35.68,12.48,86,51.19,163.16,17.18,34.3,44.13,58.71,38.57,72.22,0,0-13.57-13.13-26.23-15.36-.37,9.27,10.59,35.48,6.18,37.9,0,0-7.73-6.53-14.92-8.7.19,9.92-.64,20.71-6.18,31.25-7.06,13.27-47.5,43.25-85.39,45.26a47.66,47.66,0,0,0-29.25,11.37c-13.75,12.13-35.78,19-52,6.88-2.31-1.77,14.37-3.12,22.95-9-6.3-6.41,4.57-5.54,1.87-7.48,9.78-10.5-10.06.69-10.33-7.26-69.41,26.85-92.45-60.5-92.45-60.5s-22.54,108-102.26,37.85c.41,5.58,7.06,20,5.17,22.68-7.06-3.07-12.23,3.11-16.58,8.24,17.65,1,35.45,9,32.09,11.35-38.45,26.62-32.08-3.2-74.79-18-36.38-12.64-52.5-13.33-70.28-20.37A46.07,46.07,0,0,1,2848,744.2c-.11-1.29-.18-2.58-.23-3.9-5.1-1-9.32,3.85-13.38,10.75-4.25-1.77-.78-29.59,3.09-38.41C2819.43,713.93,2814.79,731.8,2813.4,732.56Z" transform="translate(0 0.01)"/><path class="cls-14" d="M3442.24,704.47c-5.65,11.28-16.4,14.6-25.07,15.55" transform="translate(0 0.01)"/><path class="cls-14" d="M3376.27,643.2" transform="translate(0 0.01)"/><path class="cls-10" d="M3083.08,344.34" transform="translate(0 0.01)"/><path class="cls-10" d="M3098.38,322" transform="translate(0 0.01)"/><path class="cls-10" d="M2956,357.65" transform="translate(0 0.01)"/><path class="cls-3" d="M2931.9,693.72c-1.36-9.92,1.13-12,4.57-13,3.21,9.55,15.22,26.76,28.24,27.82,5.79-17.55,53.29-31.93,59.74-33.7,1.91,2.77-4.18,10.33-3.53,10.82,21,1.25,40.85-46.34,48.83-53.36,7.64,4.1,22.95,47.42-4.06,76.63,15.36,22.6,64.7,22.49,78.33,1.08-23.9-35.89-13.72-72.38-7.47-76.08,7.06,2.7,30.68,45.61,53.22,58.78-3.05-8.83-2-11.4.51-13,6.11,7.22,37.46,44.36,58,49.76,17.42-10.52,25.63-37,31-34.71,3.28,1.36,3.21,10.27,2.54,15.15,7.63-3.42,36.82-33.17,36.61-73-.25-49.6-50.77-92.61-94.58-94.65-40.88-1.92-67.8,12.8-84.26,24.17-7.29-13.88,11-36.06,11-36.06-3.53-3.28-17.46-1.77-30.35,9.92.18-7.75-10.94-31.77-16.43-31s-11.35,17.49-15.59,32.09c-2.88,2.17-12.36-16.59-30-10.82,10.34,12.62,18.71,29.9,14.12,36.59-14.58-11.17-32.06-19.42-64.59-22.17-49.32-4.15-108.16,33-115.08,77.53C2886.43,662,2924.89,696.69,2931.9,693.72Z" transform="translate(0 0.01)"/><path class="cls-17" d="M3138.21,583.23a41.7,41.7,0,0,0,1.29,21.18c3.88,11.17,11.09,15.08,24.24,29.48,28.24,31,42.37,46.53,63.14,46.67,22.65.16,44.13-16.84,53.58-37.07,6.55-14.23,8.19-28.24,5.3-40.32-4.64-19.65-18.94-36.61-35.8-47.86-26.73-17.81-60.34-27.61-77.67-20.88C3153.79,543.2,3142.13,561.63,3138.21,583.23Z" transform="translate(0 0.01)"/><path class="cls-17" d="M3107.09,782.74c-2,0,2-26.9-11.63-42.37-4.27-4.85-8.46-8.1-25.51-15.08-12.46-5.1-26.94-10.8-28.7-20.48-1.11-19.84,30.95-27.56,62.49-28.58s65.32,6.2,65.32,25.4c0,10-9.89,12.69-24.55,20.32-12.11,6.3-19.51,8.74-26.48,16.35C3103.68,754.08,3109.1,782.8,3107.09,782.74Z" transform="translate(0 0.01)"/><path class="cls-16" d="M3069.79,689.56c-.3-2.47,14.81-8.1,35.31-8.1,22.95,0,36.21,4.73,36,7.31C3140.93,693.6,3070.39,694.29,3069.79,689.56Z" transform="translate(0 0.01)"/><path class="cls-17" d="M3072,583.23a41.7,41.7,0,0,1-1.29,21.18c-3.88,11.17-11.09,15.08-24.24,29.48-28.24,31-42.37,46.53-63.14,46.67-22.65.16-44.13-16.84-53.58-37.07-6.55-14.23-8.19-28.24-5.3-40.32,4.64-19.65,18.94-36.61,35.8-47.86,26.73-17.81,60.34-27.61,77.67-20.88C3056.4,543.2,3068.07,561.63,3072,583.23Z" transform="translate(0 0.01)"/><path class="cls-3" d="M3200.65,710.17c1.22-2.21,18.61,4.1,32.09,12.36,7.06,4.34,12.8,8.83,16.26,15,9.73,17.49,10.45,44.52,10.36,43.3-1-13.4-13.47-41.25-22.79-45.37.72,4.71,18.64,20.62-5.9,95.32-.32.58,13.12-71.28-7.26-101.06C3214.47,716.74,3199.53,712.24,3200.65,710.17Z" transform="translate(0 0.01)"/><path class="cls-3" d="M3008.46,710.17c-1.22-2.21-18.61,4.1-32.09,12.36-7.06,4.34-12.8,8.83-16.26,15-9.73,17.49-10.45,44.52-10.36,43.3,1-13.4,13.47-41.25,22.79-45.37-.72,4.71-18.64,20.62,5.9,95.32.32.58-13.12-71.28,7.26-101.06C2994.62,716.74,3009.55,712.24,3008.46,710.17Z" transform="translate(0 0.01)"/><path class="cls-10" d="M2992.18,733.49c-2.07,32,14.28,48.77,15.29,50.33,17.28,27.15,47.94,28.24,66.87,22a74.51,74.51,0,0,0,31.37-20.49" transform="translate(0 0.01)"/><path class="cls-10" d="M3223.12,741.74c0,54.72-43.48,65.74-45,66.07a75.08,75.08,0,0,1-39.88-2c-16.47-5.51-26.48-17.76-31.1-22.84" transform="translate(0 0.01)"/><path class="cls-7" d="M3142.07,530.12c-1.62-2-8-9.94-7.26-18,1.92-19.63,45.26-22.51,53.79-23.09,70.28-4.7,104.58,52.16,183.59,79.93,85.23,30,150.19.65,151.28,7.71,1,6.41-54.23,20.64-127.35,19.86-78-9.29-91.19-23-143.66-46.74A92.78,92.78,0,0,0,3198,542C3177.41,545.58,3155.75,546.94,3142.07,530.12Z" transform="translate(0 0.01)"/><path class="cls-7" d="M3061.47,759.21c-.26-9.39-10.42-15.89-13.12-17.65-24.82-16-65.44,0-111.11,28.42-88.72,55.32-120.73,73.77-130.22,77.67-93.7,37.85-176,22.38-190.74,20.74-52.61-5.84-89.87-22.79-90.28-21.52s52.13,27.41,121.91,36.12c72.68,9.06,129.54-4.8,165.11-13.82,21.18-5.3,116.67-50.68,132.71-58.55C3015.08,776.48,3062,777.11,3061.47,759.21Z" transform="translate(0 0.01)"/><path class="cls-16" d="M3040.85,751a20.25,20.25,0,0,0-14.49-7.22c-18.24-1.77-38.11,5.72-41.41,7.22-33.54,15.22-58,35.39-62.14,38.15-6.46,4.34-35.84,26.89-69.38,45.37-25.93,14.28-44,20.94-67.31,28.88-53,18-95.8,12.75-95.75,13.66s34,2.59,77.55-5c42.1-7.38,70.61-22.58,81.38-27.2,19.26-8.23,33.17-18.68,61.1-34,8.72-4.78,28.93-19.17,54.88-30.93a202.53,202.53,0,0,1,33.13-12.36c14.88-3.74,23.55-2.52,29-3.09,8-.83,10.94.26,14.49-4.13C3044.4,757.22,3043.27,754.31,3040.85,751Z" transform="translate(0 0.01)"/><path class="cls-7" d="M3157.15,848.4c-12-15.46-13.63-16.77-16.88-18.59-13-7.26-32.53-5.65-44.84,3.35-9.23,6.74-8.28,12.87-19.29,19-8.39,4.7-13.79,3.88-21.61,6.09-15.89,4.5-25.28,17-33.17,27.41-23.3,30.87-35.59,81.06-38.57,92.15-14.42,53.33-53.29,86.8-88.72,117.29-94.78,81.56-248.8,101.1-351.06,52.55-26.3-12.48-58.5-33.89-61-30.47-2.75,3.85,33,37.37,65.58,58.64,94.34,61.54,244.74,74.23,356.46,14.48,59.24-31.77,101.63-80.57,109.55-73.12,4.8,4.52-6.57,26.48-20.83,41.89-28.92,31.4-69.41,36.15-68.67,38.84s26.48,1.45,57.09-10.59c33.7-13.36,54.86-33.42,84.1-61.68,25.67-24.82,41-39.68,57.87-64.73,19.28-28.69,35.31-50.86,52.85-102.81,16-47.5,10-69,1.92-82.24C3176.55,873.46,3170.09,865.11,3157.15,848.4Z" transform="translate(0 0.01)"/><path class="cls-16" d="M3077.11,866.51c-2.4-3.37-17,1.22-19.68,2.07-14.4,4.55-18.75,11.6-21.41,15.16-20.3,27.13-37.71,81.4-50.93,110.54-15.2,33.54-31.33,59.45-44.68,74.35a325.41,325.41,0,0,1-106.66,79.44c-25.37,11.62-118.93,61.78-223.68,33a700.34,700.34,0,0,1-67.31-21.66s12,6.88,48.67,23.73a495.08,495.08,0,0,0,65,22.49c93.35,25.1,182.71-2.26,192.12-5.3,13.31-4.24,83.18-27.43,144.28-90.24,52-53.4,74.14-111.41,81-108.28,5.86,2.67-2.37,47.26-6,57.55-8.7,24.29-11.28,38.55-33.13,65-18.46,22.31-34,40.23-33.13,41.25,1.06,1.29,13.54-13.17,42.23-38.94,24.38-21.91,40-43,70.21-84.22,39.77-54.26,47.36-72.8,51.69-87.22a153.07,153.07,0,0,0,3.09-60.9c-1.13-7.36-3.11-19.75-7.71-20.3-2-.23-6.67,1.47-16.21,27.82-17.85,49.43-17.28,87.12-21.61,87.22-3.28,0-7.54-21.59-9.25-44.36-3.42-45.49,25-103.85,19.08-105.92-7.61-2.72-47.66,35.31-63.83,99.21-8.21,32.36-12.48,36.75-23.14,60.9-23.94,54.19-61.94,89.43-64,88-1.48-1,13.86-21.38,39.35-69.18,22.67-42.49,23.34-92.73,27.77-107.52C3057.16,883.35,3081,872,3077.11,866.51Z" transform="translate(0 0.01)"/><path class="cls-7" d="M3147,750c3.23-9.92,18.92-12.66,21.61-13.06,14.12-2.19,25.63,4.31,30,6.92,8.1,4.73,23.73,16.4,36.26,53,6.09,17.78,19.86,58.4,9.25,103-24.43,102.63-157.41,138.06-181.31,144.44-63.78,17-109.55,5.54-118.82,3.07-28.83-7.68-54.72-21.77-54-23.81s26.29,9.06,61.78,13.82a260.27,260.27,0,0,0,94.9-4.61c58.73-14.72,96.7-43.21,105.7-51.86,19.86-18.91,45.81-46.27,52.87-83.3,2.15-11.28,7.86-47.13-9.14-75.68-5-8.42-21.32-29.59-39.84-48.79C3150.14,766.57,3144.6,757.73,3147,750Z" transform="translate(0 0.01)"/><path class="cls-16" d="M3162,757.2c-.69-4.17-.32-5.3,0-6.18,3.11-8.24,15.75-5.9,26.92,0,35.2,18.55,55.27,74.92,49.71,121.68-7.06,58.62-42.88,96.44-55.64,107.4-13.08,11.23-24.33,17.26-40.12,25.74-57.88,31.07-107.68,37.07-108,36.12s65.76-5.79,124.61-53c16.95-13.59,44.63-33.68,55.36-68.85,9-29.36,10.59-57.67,7.26-76.31-5.12-28.24-11.83-44.84-23.81-56.72C3183,772,3164.81,773.94,3162,757.2Z" transform="translate(0 0.01)"/><path class="cls-7" d="M3068.6,530.12c1.62-2,8-9.94,7.26-18-1.94-19.7-45.33-22.65-53.79-23.16-70.28-4.7-104.58,52.16-183.59,79.93-85.23,30-150.19.65-151.28,7.71-.9,6.43,54.32,20.55,127.42,19.86,78-9.29,91.19-23,143.66-46.74A92.78,92.78,0,0,1,3012.7,542C3033.26,545.58,3054.92,546.94,3068.6,530.12Z" transform="translate(0 0.01)"/><path class="cls-16" d="M3057.43,505.6c-15.71-6.71-28-7.22-41.41-6.18-45.9,3.53-62,14.39-110.81,44.34-56.49,34.71-80.62,37.55-105.62,41.25a192,192,0,0,1-39.35,1c0,.41,39.37,6.27,86-5.15,18.09-4.43,39.37-12.89,82-32,71.25-31.93,87.7-23.64,108.53-23.69,18.52,0,22.95,2.22,25.88-3.71C3065.71,515.11,3064.68,508.7,3057.43,505.6Z" transform="translate(0 0.01)"/><path class="cls-16" d="M3154.48,505.6c15.71-6.71,28-7.22,41.41-6.18,45.9,3.53,62,14.39,110.81,44.34,56.49,34.71,82,38.57,107,42.28a156.65,156.65,0,0,0,37.88.49c.42,2.59-37.9,6.8-84.49-4.63-18.09-4.43-40.6-13.91-83.34-33-71.25-31.93-87.7-23.64-108.53-23.69-18.52,0-22.95,2.22-25.88-3.71C3146.2,515.11,3147.23,508.7,3154.48,505.6Z" transform="translate(0 0.01)"/><path class="cls-16" d="M3038.95,599.51a10.77,10.77,0,0,1-6,11.23c-7.71,3.78-21.91,10.49-38.84,17.44-9.51,3.92-12-7.06-11.14-18.36s21.77-28.44,42.37-27C3033.28,583.41,3037.59,590.93,3038.95,599.51Z" transform="translate(0 0.01)"/><path class="cls-16" d="M3170,598.11a12.06,12.06,0,0,0,6.64,13.06c7.89,3.85,21.64,10.31,37.92,17,9.51,3.92,12-7.06,11.14-18.36s-21.77-28.44-42.37-27C3175.75,583.37,3171.43,590.14,3170,598.11Z" transform="translate(0 0.01)"/><path class="cls-15" d="M2849.44,553.77c-30.22-13.5-37.25-36.88-34.33-40.6,0,0,19.61,8.56,23.65,4.61,9.27-9.06-80.55-35.94-76.65-114.9,2-40.78,24.43-82.76,40.12-97.09,1.36-1.24,2.28-16.88,6.81-22.15,2.31-2.68,12.92,7.06,12.73,4.48-.51-7.06,1.57-18,12.6-21.89,3.94-1.39,3.18,18.08,14.12,21.64,1.54-6.66,3.67-11,8.61-13.19,6.81,7.17,2.14,7.78,11.44,13.7,20.05,9.73,52.59,41.1,87.43,67.61,46.67,6.23,111.21-43.88,139.46-36.59a3.35,3.35,0,0,1,2.34,4.12h0a.45.45,0,0,1-.08.25c-3.69,10.7-22.95,21.59-22.95,21.59,7.45,14,55.94-42.37,119.33-22.67,1.54,3.65-30.84,17-28.81,24.59,36.14,4.22,47.93,4.11,58.89-.19,27.31-14.23,39.54-68,80.06-76.07,7.27-7.91,13.15-14.88,16.79-13.5,4.18,1.59.67,10.59,5.08,10.59,2.12-.12,8.3-9.8,10.49-16.77,17.49.78,13.12,23.81,15.43,23.76,3.3,0,6.74-7.48,7.71-8.19,3.69,0,7.06,12.55,9.25,27.15,36.14,42.77,89.34,127.38-9.94,195.45-.53,13.19,18.54,2,30,0-5.3,27.66-39,49.6-39.4,56.12" transform="translate(0 0.01)"/><path class="cls-7" d="M2759,709.8c31.9-25.1,57.09-56.86,79.72-125,26.48-79.56,77.16-228.44,256.67-228.44,216.81,0,234.55,116,280.84,285,12.36,44.82,36.65,59.93,66,61.27-5.65,11.28-16.4,14.6-25.07,15.55,7.06,13.82,9.83,21.52,3.67,34.76-3.67-13.26-19.86-20.67-19.86-20.67-3.87,44.31-44,65.81-105.92,101.42-10.59,6.13-82.77,78.43-167.7,78.48-122.4,0-186.4-64-204.31-76-34.26-20-85.77-23.94-128.46-87.45-7.06,2.4-11.32,1.54-23.14,11.26-4-5.19-.51-21.52,13.38-35.85C2770.34,724.16,2759,716.48,2759,709.8Z" transform="translate(0 0.01)"/><path class="cls-16" d="M2813.4,730.79c-6.09-1.87-10.26-15.2-6.81-31.88a43.43,43.43,0,0,1,9.06-18.59c26.18-32.09,34.07-50.58,46.59-83.46,2.52-6.62,5.42-13.1,8.49-19.42a144.24,144.24,0,0,0,6.23-14.67c17.94-48.51,29.69-80.89,47.66-101.33,34-27.91,57.94-19.28,56.07-23.57-6-11.42-29.32-13.82-29.32-13.82,5.53-15.5,72.27-1.85,91.56-7.17-9-11.42-22-14.48-19-21,0,0,39.21,17.65,85.39,15.89a297,297,0,0,0,72.52-12.8c2.74,4.93-7.06,12.36-10.29,21.52,16.45,9.6,80.43-5.17,83.32,4.1,0,0-18.64,7.06-21.54,14,17.51,5.67,26.62,8.83,38.13,14.48a65.32,65.32,0,0,1,28.47,26.6c19.86,35.68,12.48,86,51.19,163.16,17.18,34.3,44.13,58.71,38.57,72.22,0,0-13.57-13.13-26.23-15.36-.37,9.27,10.59,35.48,6.18,37.9,0,0-7.73-6.53-14.92-8.7.19,9.92-.64,20.71-6.18,31.25-7.06,13.27-47.5,43.25-85.39,45.26a47.66,47.66,0,0,0-29.25,11.37c-13.75,12.13-35.78,19-52,6.88-2.31-1.77,14.37-3.12,22.95-9-6.3-6.41,4.57-5.54,1.87-7.48,9.78-10.5-10.06.69-10.33-7.26-69.41,26.85-92.45-60.5-92.45-60.5s-22.54,108-102.26,37.85c.41,5.58,7.06,20,5.17,22.68-7.06-3.07-12.23,3.11-16.58,8.24,17.65,1,35.45,9,32.09,11.35-38.45,26.62-32.08-3.2-74.79-18-36.38-12.64-52.5-13.33-70.28-20.37a46.07,46.07,0,0,1-29.3-38.73c-.11-1.29-.18-2.58-.23-3.9-5.1-1-9.32,3.85-13.38,10.75-4.25-1.77-.78-29.59,3.09-38.41C2819.43,712.17,2814.79,730,2813.4,730.79Z" transform="translate(0 0.01)"/><path class="cls-14" d="M3442.24,702.71c-5.65,11.28-16.4,14.6-25.07,15.55" transform="translate(0 0.01)"/><path class="cls-14" d="M3376.27,641.43" transform="translate(0 0.01)"/><path class="cls-10" d="M3083.08,342.57" transform="translate(0 0.01)"/><path class="cls-10" d="M3098.38,320.28" transform="translate(0 0.01)"/><path class="cls-10" d="M2956,355.88" transform="translate(0 0.01)"/><path class="cls-3" d="M2931.9,692c-1.36-9.92,1.13-12,4.57-13,3.21,9.55,15.22,26.76,28.24,27.82,5.79-17.55,53.29-31.93,59.74-33.7,1.91,2.77-4.18,10.33-3.53,10.82,21,1.25,40.85-46.34,48.83-53.36,7.64,4.1,22.95,47.42-4.06,76.63,15.36,22.6,64.7,22.49,78.33,1.08-23.9-35.89-13.72-72.38-7.47-76.08,7.06,2.7,30.68,45.61,53.22,58.78-3.05-8.83-2-11.4.51-13,6.11,7.22,37.46,44.36,58,49.76,17.42-10.52,25.63-37,31-34.71,3.28,1.36,3.21,10.27,2.54,15.15,7.63-3.42,36.82-33.17,36.61-73-.25-49.6-50.77-92.61-94.58-94.65-40.88-1.92-67.8,12.8-84.26,24.17-7.29-13.88,11-36.06,11-36.06-3.53-3.28-17.46-1.77-30.35,9.92.18-7.75-10.94-31.77-16.43-31s-11.35,17.49-15.59,32.09c-2.88,2.17-12.36-16.59-30-10.82,10.34,12.62,18.71,29.9,14.12,36.59-14.58-11.17-32.06-19.42-64.59-22.17-49.32-4.15-108.16,33-115.08,77.53C2886.43,660.27,2924.89,694.92,2931.9,692Z" transform="translate(0 0.01)"/><path class="cls-17" d="M3138.21,581.47a41.7,41.7,0,0,0,1.29,21.18c3.88,11.17,11.09,15.08,24.24,29.48,28.24,31,42.37,46.53,63.14,46.67,22.65.16,44.13-16.84,53.58-37.07,6.55-14.23,8.19-28.24,5.3-40.32-4.64-19.65-18.94-36.61-35.8-47.86-26.73-17.81-60.34-27.61-77.67-20.88C3153.79,541.43,3142.13,559.86,3138.21,581.47Z" transform="translate(0 0.01)"/><path class="cls-17" d="M3107.09,781c-2,0,2-26.9-11.63-42.37-4.27-4.85-8.46-8.1-25.51-15.08-12.46-5.1-26.94-10.8-28.7-20.48-1.11-19.84,30.95-27.56,62.49-28.58s65.32,6.2,65.32,25.4c0,10-9.89,12.69-24.55,20.32-12.11,6.3-19.51,8.74-26.48,16.35C3103.68,752.31,3109.1,781,3107.09,781Z" transform="translate(0 0.01)"/><path class="cls-16" d="M3069.79,687.79c-.3-2.47,14.81-8.1,35.31-8.1,22.95,0,36.21,4.73,36,7.31C3140.93,691.83,3070.39,692.52,3069.79,687.79Z" transform="translate(0 0.01)"/><path class="cls-17" d="M3072,581.47a41.7,41.7,0,0,1-1.29,21.18c-3.88,11.17-11.09,15.08-24.24,29.48-28.24,31-42.37,46.53-63.14,46.67-22.65.16-44.13-16.84-53.58-37.07-6.55-14.23-8.19-28.24-5.3-40.32,4.64-19.65,18.94-36.61,35.8-47.86,26.75-17.8,60.39-27.56,77.75-20.87C3056.4,541.43,3068.07,559.86,3072,581.47Z" transform="translate(0 0.01)"/><path class="cls-3" d="M3200.65,708.41c1.22-2.21,18.61,4.1,32.09,12.36,7.06,4.34,12.8,8.83,16.26,15,9.73,17.49,10.45,44.52,10.36,43.3-1-13.4-13.47-41.25-22.79-45.37.72,4.71,18.64,20.62-5.9,95.32-.32.58,13.12-71.28-7.26-101.06C3214.47,715,3199.53,710.47,3200.65,708.41Z" transform="translate(0 0.01)"/><path class="cls-3" d="M3008.46,708.41c-1.22-2.21-18.61,4.1-32.09,12.36-7.06,4.34-12.8,8.83-16.26,15-9.73,17.49-10.45,44.52-10.36,43.3,1-13.4,13.47-41.25,22.79-45.37-.72,4.71-18.64,20.62,5.9,95.32.32.58-13.12-71.28,7.26-101.06C2994.62,715,3009.55,710.47,3008.46,708.41Z" transform="translate(0 0.01)"/><path class="cls-10" d="M2992.18,731.73c-2.07,32,14.28,48.77,15.29,50.33,17.28,27.15,47.94,28.24,66.87,22a74.51,74.51,0,0,0,31.37-20.49" transform="translate(0 0.01)"/><path class="cls-10" d="M3223.12,740c0,54.72-43.48,65.74-45,66.07a75.08,75.08,0,0,1-39.88-2c-16.47-5.51-26.48-17.76-31.1-22.84" transform="translate(0 0.01)"/><path class="cls-7" d="M3142.07,528.35c-1.62-2-8-9.94-7.26-18,1.92-19.63,45.26-22.51,53.79-23.09,70.28-4.7,104.58,52.16,183.59,79.93,85.23,30,150.19.65,151.28,7.71,1,6.41-54.23,20.64-127.35,19.86-78-9.29-91.19-23-143.66-46.74a92.78,92.78,0,0,0-54.42-7.77C3177.41,543.81,3155.75,545.17,3142.07,528.35Z" transform="translate(0 0.01)"/><path class="cls-7" d="M3061.47,757.45c-.26-9.39-10.42-15.89-13.12-17.65-24.82-16-65.44,0-111.11,28.42C2848.53,823.54,2816.52,842,2807,845.89c-93.7,37.85-176,22.38-190.74,20.74-52.61-5.84-89.87-22.79-90.28-21.52s52.13,27.41,121.91,36.12c72.68,9.06,129.54-4.8,165.11-13.82,21.18-5.3,116.67-50.68,132.71-58.55C3015.08,774.71,3062,775.35,3061.47,757.45Z" transform="translate(0 0.01)"/><path class="cls-16" d="M3040.85,749.26a20.25,20.25,0,0,0-14.49-7.22c-18.24-1.77-38.11,5.72-41.41,7.22-33.54,15.22-58,35.39-62.14,38.15-6.46,4.34-35.84,26.89-69.38,45.37-25.93,14.28-44,20.94-67.31,28.88-53,18-95.8,12.75-95.75,13.66s34,2.59,77.55-5c42.1-7.38,70.61-22.58,81.38-27.2,19.26-8.23,33.17-18.68,61.1-34,8.72-4.78,28.93-19.17,54.88-30.93a202.53,202.53,0,0,1,33.13-12.36c14.88-3.74,23.55-2.52,29-3.09,8-.83,10.94.26,14.49-4.13C3044.4,755.45,3043.27,752.54,3040.85,749.26Z" transform="translate(0 0.01)"/><path class="cls-7" d="M3157.15,846.63c-12-15.46-13.63-16.77-16.88-18.59-13-7.26-32.53-5.65-44.84,3.35-9.23,6.74-8.28,12.87-19.29,19-8.39,4.7-13.79,3.88-21.61,6.09-15.89,4.5-25.28,17-33.17,27.41-23.3,30.87-35.59,81.06-38.57,92.15-14.42,53.33-53.29,86.8-88.72,117.29-94.78,81.56-248.8,101.1-351.06,52.55-26.3-12.48-58.5-33.89-61-30.47-2.75,3.85,33,37.37,65.58,58.64,94.34,61.54,244.74,74.23,356.46,14.48,59.24-31.77,101.63-80.57,109.55-73.12,4.8,4.52-6.57,26.48-20.83,41.89-28.92,31.4-69.41,36.15-68.67,38.84s26.48,1.45,57.09-10.59c33.7-13.36,54.86-33.42,84.1-61.68,25.67-24.82,41-39.68,57.87-64.73,19.28-28.69,35.31-50.86,52.85-102.81,16-47.5,10-69,1.92-82.24C3176.55,871.7,3170.09,863.35,3157.15,846.63Z" transform="translate(0 0.01)"/><path class="cls-16" d="M3077.11,864.74c-2.4-3.37-17,1.22-19.68,2.07-14.4,4.55-18.75,11.6-21.41,15.16-20.3,27.13-37.71,81.4-50.93,110.54-15.2,33.54-31.33,59.45-44.68,74.35a325.41,325.41,0,0,1-106.66,79.44c-25.37,11.62-118.93,61.78-223.68,33a700.34,700.34,0,0,1-67.31-21.66s12,6.88,48.67,23.73a495.08,495.08,0,0,0,65,22.49c93.35,25.1,182.71-2.26,192.12-5.3,13.31-4.24,83.18-27.43,144.28-90.24,52-53.4,74.14-111.41,81-108.28,5.86,2.67-2.37,47.26-6,57.55-8.7,24.29-11.28,38.55-33.13,65-18.46,22.31-34,40.23-33.13,41.25,1.06,1.29,13.54-13.17,42.23-38.94,24.38-21.91,40-43,70.21-84.22,39.77-54.26,47.36-72.8,51.69-87.22a153.07,153.07,0,0,0,3.09-60.9c-1.13-7.36-3.11-19.75-7.71-20.3-2-.23-6.67,1.47-16.21,27.82-17.85,49.43-17.28,87.12-21.61,87.22-3.28,0-7.54-21.59-9.25-44.36-3.42-45.49,25-103.85,19.08-105.92-7.61-2.72-47.66,35.31-63.83,99.21-8.21,32.36-12.48,36.75-23.14,60.9-23.94,54.19-61.94,89.43-64,88-1.48-1,13.86-21.38,39.35-69.18,22.67-42.49,23.34-92.73,27.77-107.52C3057.16,881.58,3081,870.21,3077.11,864.74Z" transform="translate(0 0.01)"/><path class="cls-7" d="M3147,748.23c3.23-9.92,18.92-12.66,21.61-13.06,14.12-2.19,25.63,4.31,30,6.92,8.1,4.73,23.73,16.4,36.26,53,6.09,17.78,19.86,58.4,9.25,103-24.43,102.63-157.41,138.06-181.31,144.44-63.78,17-109.55,5.54-118.82,3.07-28.83-7.68-54.72-21.77-54-23.81s26.29,9.06,61.78,13.82a260.27,260.27,0,0,0,94.9-4.61c58.73-14.72,96.7-43.21,105.7-51.86,19.86-18.91,45.81-46.27,52.87-83.3,2.15-11.28,7.86-47.13-9.14-75.68-5-8.42-21.32-29.59-39.84-48.79C3150.14,764.81,3144.6,756,3147,748.23Z" transform="translate(0 0.01)"/><path class="cls-16" d="M3162,755.44c-.69-4.17-.32-5.3,0-6.18,3.11-8.24,15.75-5.9,26.92,0,35.2,18.55,55.27,74.92,49.71,121.68-7.06,58.62-42.88,96.44-55.64,107.4-13.08,11.23-24.33,17.26-40.12,25.74-57.88,31.07-107.68,37.07-108,36.12s65.76-5.79,124.61-53c16.95-13.59,44.63-33.68,55.36-68.85,9-29.36,10.59-57.67,7.26-76.31-5.12-28.24-11.83-44.84-23.81-56.72C3183,770.19,3164.81,772.17,3162,755.44Z" transform="translate(0 0.01)"/><path class="cls-7" d="M3068.6,528.35c1.62-2,8-9.94,7.26-18-1.94-19.7-45.33-22.65-53.79-23.16-70.28-4.7-104.58,52.16-183.59,79.93-85.23,30-150.19.65-151.28,7.71-.9,6.43,54.32,20.55,127.42,19.86,78-9.29,91.19-23,143.66-46.74a92.78,92.78,0,0,1,54.42-7.77C3033.26,543.81,3054.92,545.17,3068.6,528.35Z" transform="translate(0 0.01)"/><path class="cls-16" d="M3057.43,503.83c-15.71-6.71-28-7.22-41.41-6.18-45.9,3.53-62,14.39-110.81,44.34-56.49,34.71-80.62,37.55-105.62,41.25a192,192,0,0,1-39.35,1c0,.41,39.37,6.27,86-5.15,18.09-4.43,39.37-12.89,82-32,71.25-31.93,87.7-23.64,108.53-23.69,18.52,0,22.95,2.22,25.88-3.71C3065.71,513.35,3064.68,506.94,3057.43,503.83Z" transform="translate(0 0.01)"/><path class="cls-16" d="M3154.48,503.83c15.71-6.71,28-7.22,41.41-6.18,45.9,3.53,62,14.39,110.81,44.34,56.49,34.71,82,38.57,107,42.28a156.65,156.65,0,0,0,37.88.49c.42,2.59-37.9,6.8-84.49-4.63-18.09-4.43-40.6-13.91-83.34-33-71.25-31.93-87.7-23.64-108.53-23.69-18.52,0-22.95,2.22-25.88-3.71C3146.2,513.35,3147.23,506.94,3154.48,503.83Z" transform="translate(0 0.01)"/><path class="cls-16" d="M2978.73,622.42a62.79,62.79,0,0,1,13.72-15,71,71,0,0,1,17.41-10.27,54.14,54.14,0,0,1,20.42-4.24,36.67,36.67,0,0,1,10.59,1.57,28.09,28.09,0,0,1,5,2.1,34.73,34.73,0,0,1,4.32,3.12,88.26,88.26,0,0,0-18.34,4.2c-5.61,1.85-11.07,4.08-16.66,6.34s-11.28,4.61-17.25,6.81A98.1,98.1,0,0,1,2978.73,622.42Z" transform="translate(0 0.01)"/><path class="cls-16" d="M3230.35,622.42a98.08,98.08,0,0,1-19.19-5.3c-6-2.21-11.65-4.54-17.25-6.81s-11.05-4.47-16.66-6.34a88.26,88.26,0,0,0-18.34-4.2,34.73,34.73,0,0,1,4.32-3.12,49.7,49.7,0,0,1,5-2.1,30.94,30.94,0,0,1,5.3-1.18,38.18,38.18,0,0,1,5.3-.39,54.14,54.14,0,0,1,20.42,4.24,71,71,0,0,1,17.41,10.27A62.79,62.79,0,0,1,3230.35,622.42Z" transform="translate(0 0.01)"/><path class="cls-18" d="M341.57,769.35v69.3h-9.1v-55.3l-22.1,55.3h-8.1l-22.2-55.1v55.1H271v-69.3h10.9l24.6,58.2,24.2-58.2Z" transform="translate(0 0.01)"/><path class="cls-18" d="M392.22,787.05a20.86,20.86,0,0,1,7.75,10.7v-14h9.1v54.9H400v-14a20.85,20.85,0,0,1-7.75,10.7,22.56,22.56,0,0,1-13.55,4,24.88,24.88,0,0,1-13-3.4,23.5,23.5,0,0,1-8.95-9.75,36.13,36.13,0,0,1,0-30,23.46,23.46,0,0,1,8.95-9.8,24.89,24.89,0,0,1,13-3.4A22.57,22.57,0,0,1,392.22,787.05Zm-24.4,9.45q-5.05,5.35-5.05,14.75T367.82,826q5,5.35,13.45,5.35a18.67,18.67,0,0,0,9.65-2.5,17.4,17.4,0,0,0,6.65-7,22.29,22.29,0,0,0,2.4-10.55,22.59,22.59,0,0,0-2.4-10.6,17,17,0,0,0-6.65-7,19,19,0,0,0-9.65-2.45Q372.87,791.15,367.82,796.5Z" transform="translate(0 0.01)"/><path class="cls-18" d="M453.67,838.65l-21-24.7v24.7h-9.1v-74h9.1v43l20.7-23.9h11.1l-24.6,27.3,25.2,27.6Z" transform="translate(0 0.01)"/><path class="cls-18" d="M523.17,813.15h-43.9q.3,9.4,5.35,14.1A17.45,17.45,0,0,0,497,832a17.84,17.84,0,0,0,11-3.35,13.85,13.85,0,0,0,5.45-9h9.7a22.92,22.92,0,0,1-13.4,17.2,29.64,29.64,0,0,1-12.4,2.5,28.26,28.26,0,0,1-14-3.4,24,24,0,0,1-9.55-9.75,34.23,34.23,0,0,1,0-30,24,24,0,0,1,9.55-9.8,28.28,28.28,0,0,1,14-3.4,27.65,27.65,0,0,1,13.95,3.4,23.42,23.42,0,0,1,9.1,9.1,25.61,25.61,0,0,1,3.15,12.6A27.18,27.18,0,0,1,523.17,813.15Zm-10.8-14.6a14.64,14.64,0,0,0-6.3-6.1,19.19,19.19,0,0,0-8.7-2,18,18,0,0,0-12.6,4.65q-5.1,4.65-5.5,13.65h35.1A18.69,18.69,0,0,0,512.37,798.55Z" transform="translate(0 0.01)"/><path class="cls-18" d="M586.36,830.65v8h-6.8q-8.4,0-12.55-4t-4.15-13.4v-29.6h-8.2v-7.9h8.2v-13.7h9.2v13.7h14.2v7.9h-14.2v29.8q0,5.3,1.95,7.25t6.75,2Z" transform="translate(0 0.01)"/><path class="cls-18" d="M641.86,789q5.9,6.15,5.9,17.75v31.9h-9.1v-31.1q0-8.2-4.2-12.6t-11.4-4.4q-7.5,0-12,4.85t-4.5,14.15v29.1h-9.1v-74h9.1v32.1a18.71,18.71,0,0,1,7.45-10.3,21.6,21.6,0,0,1,12.35-3.6Q636,782.85,641.86,789Z" transform="translate(0 0.01)"/><path class="cls-18" d="M711.86,813.15H668q.3,9.4,5.35,14.1a17.45,17.45,0,0,0,12.35,4.7,17.84,17.84,0,0,0,11-3.35,13.85,13.85,0,0,0,5.45-9h9.7a22.92,22.92,0,0,1-13.4,17.2,29.64,29.64,0,0,1-12.4,2.5,28.26,28.26,0,0,1-14-3.4,24,24,0,0,1-9.55-9.75,34.23,34.23,0,0,1,0-30,24,24,0,0,1,9.55-9.8,28.28,28.28,0,0,1,14-3.4,27.65,27.65,0,0,1,13.95,3.4,23.42,23.42,0,0,1,9.1,9.1,25.61,25.61,0,0,1,3.15,12.6A27.18,27.18,0,0,1,711.86,813.15Zm-10.8-14.6a14.64,14.64,0,0,0-6.3-6.1,19.19,19.19,0,0,0-8.7-2,18,18,0,0,0-12.6,4.65q-5.1,4.65-5.5,13.65h35.1A18.69,18.69,0,0,0,701.06,798.55Z" transform="translate(0 0.01)"/><path class="cls-18" d="M765.86,786a23.48,23.48,0,0,1,12.4-3.15v9.9h-2.8q-7.7,0-12.6,4t-4.9,13v28.9h-9.1v-54.9H758v11.1A20.2,20.2,0,0,1,765.86,786Z" transform="translate(0 0.01)"/><path class="cls-18" d="M787.36,763.6a7.31,7.31,0,0,1,9,0,5.67,5.67,0,0,1,0,8.1,7.31,7.31,0,0,1-9,0,5.67,5.67,0,0,1,0-8.1Zm9,20.15v54.9h-9.1v-54.9Z" transform="translate(0 0.01)"/><path class="cls-18" d="M847,787.05a20.86,20.86,0,0,1,7.75,10.7v-14h9.1v55.8a27.87,27.87,0,0,1-3.2,13.5,23,23,0,0,1-9,9.2,26.83,26.83,0,0,1-13.5,3.3q-11.1,0-18.1-5.35a23.61,23.61,0,0,1-8.9-14.45h9a15.58,15.58,0,0,0,6,8.65q4.45,3.15,11.45,3.15a16.8,16.8,0,0,0,12.25-4.75q4.85-4.75,4.85-13.25v-14.9a20.85,20.85,0,0,1-7.75,10.7,22.56,22.56,0,0,1-13.55,4,24.88,24.88,0,0,1-13-3.4,23.5,23.5,0,0,1-8.95-9.75,36.13,36.13,0,0,1,0-30,23.46,23.46,0,0,1,8.95-9.8,24.89,24.89,0,0,1,13-3.4A22.57,22.57,0,0,1,847,787.05Zm-24.4,9.45q-5.05,5.35-5.05,14.75T822.61,826q5,5.35,13.45,5.35a18.67,18.67,0,0,0,9.65-2.5,17.4,17.4,0,0,0,6.65-7,22.29,22.29,0,0,0,2.4-10.55,22.59,22.59,0,0,0-2.4-10.6,17,17,0,0,0-6.65-7,19,19,0,0,0-9.65-2.45Q827.66,791.15,822.61,796.5Z" transform="translate(0 0.01)"/><path class="cls-18" d="M922.76,789q5.9,6.15,5.9,17.75v31.9h-9.1v-31.1q0-8.2-4.2-12.6t-11.4-4.4q-7.5,0-12,4.85t-4.5,14.15v29.1h-9.1v-74h9.1v32.1a18.71,18.71,0,0,1,7.45-10.3,21.6,21.6,0,0,1,12.35-3.6Q916.86,782.85,922.76,789Z" transform="translate(0 0.01)"/><path class="cls-18" d="M968.86,830.65v8h-6.8q-8.4,0-12.55-4t-4.15-13.4v-29.6h-8.2v-7.9h8.2v-13.7h9.2v13.7h14.2v7.9h-14.2v29.8q0,5.3,1.95,7.25t6.75,2Z" transform="translate(0 0.01)"/><path class="cls-18" d="M1046.36,788.65a23.73,23.73,0,0,1,8.5,15h-9.6a14,14,0,0,0-5.45-9.25,19.27,19.27,0,0,0-19.8-1.15,16,16,0,0,0-6.35,6.75,27.57,27.57,0,0,0,0,22.5,16,16,0,0,0,6.35,6.75,19.14,19.14,0,0,0,19.8-1.2,14.23,14.23,0,0,0,5.45-9.3h9.6a23.59,23.59,0,0,1-8.5,15.05q-6.9,5.55-17.4,5.55a28.26,28.26,0,0,1-14-3.4,24,24,0,0,1-9.55-9.75,34.23,34.23,0,0,1,0-30,24,24,0,0,1,9.55-9.8,28.28,28.28,0,0,1,14-3.4Q1039.46,783.05,1046.36,788.65Z" transform="translate(0 0.01)"/><path class="cls-18" d="M1111.16,789q5.9,6.15,5.9,17.75v31.9H1108v-31.1q0-8.2-4.2-12.6t-11.4-4.4q-7.5,0-12,4.85t-4.5,14.15v29.1h-9.1v-74h9.1v32.1a18.71,18.71,0,0,1,7.45-10.3,21.6,21.6,0,0,1,12.35-3.6Q1105.26,782.85,1111.16,789Z" transform="translate(0 0.01)"/><path class="cls-18" d="M1170.1,786.45a24.35,24.35,0,0,1,9.8,9.8,33.36,33.36,0,0,1,0,30,24.41,24.41,0,0,1-9.8,9.75,31.14,31.14,0,0,1-28.3,0,24.73,24.73,0,0,1-9.85-9.75,32.95,32.95,0,0,1,0-30,24.66,24.66,0,0,1,9.85-9.8,31.15,31.15,0,0,1,28.3,0Zm-23.2,6.8a16.55,16.55,0,0,0-6.7,6.75,22.74,22.74,0,0,0-2.55,11.25,22.51,22.51,0,0,0,2.55,11.15,16.53,16.53,0,0,0,6.7,6.75,19.71,19.71,0,0,0,18.1,0,16.54,16.54,0,0,0,6.7-6.75,22.51,22.51,0,0,0,2.55-11.15A22.75,22.75,0,0,0,1171.7,800a16.56,16.56,0,0,0-6.7-6.75,19.72,19.72,0,0,0-18.1,0Z" transform="translate(0 0.01)"/><path class="cls-18" d="M1195.45,763.6a7.31,7.31,0,0,1,9,0,5.67,5.67,0,0,1,0,8.1,7.31,7.31,0,0,1-9,0,5.67,5.67,0,0,1,0-8.1Zm9,20.15v54.9h-9.1v-54.9Z" transform="translate(0 0.01)"/><path class="cls-18" d="M1260.75,788.65a23.73,23.73,0,0,1,8.5,15h-9.6a14,14,0,0,0-5.45-9.25,19.27,19.27,0,0,0-19.8-1.15,16,16,0,0,0-6.35,6.75,27.57,27.57,0,0,0,0,22.5,16,16,0,0,0,6.35,6.75,19.14,19.14,0,0,0,19.8-1.2,14.23,14.23,0,0,0,5.45-9.3h9.6a23.59,23.59,0,0,1-8.5,15.05q-6.9,5.55-17.4,5.55a28.26,28.26,0,0,1-14-3.4,24,24,0,0,1-9.55-9.75,34.23,34.23,0,0,1,0-30,24,24,0,0,1,9.55-9.8,28.28,28.28,0,0,1,14-3.4Q1253.85,783.05,1260.75,788.65Z" transform="translate(0 0.01)"/><path class="cls-18" d="M1331.25,813.15h-43.9q.3,9.4,5.35,14.1a17.45,17.45,0,0,0,12.35,4.7,17.84,17.84,0,0,0,11-3.35,13.85,13.85,0,0,0,5.45-9h9.7a22.92,22.92,0,0,1-13.4,17.2,29.64,29.64,0,0,1-12.4,2.5,28.26,28.26,0,0,1-14-3.4,24,24,0,0,1-9.55-9.75,34.23,34.23,0,0,1,0-30,24,24,0,0,1,9.55-9.8,28.28,28.28,0,0,1,14-3.4,27.65,27.65,0,0,1,13.95,3.4,23.42,23.42,0,0,1,9.1,9.1,25.61,25.61,0,0,1,3.15,12.6A27.18,27.18,0,0,1,1331.25,813.15Zm-10.8-14.6a14.64,14.64,0,0,0-6.3-6.1,19.19,19.19,0,0,0-8.7-2,18,18,0,0,0-12.6,4.65q-5.1,4.65-5.5,13.65h35.1A18.69,18.69,0,0,0,1320.45,798.55Z" transform="translate(0 0.01)"/><path class="cls-18" d="M1350.25,828v10.7h-11V828Z" transform="translate(0 0.01)"/><path class="cls-18" d="M1430.3,808.35a17,17,0,0,1,4,11.3q0,8.6-5.85,13.8t-17,5.2h-26.2v-70.5h25.8q10.6,0,16.1,4.7t5.5,12.9q0,6.8-3.65,11a16.54,16.54,0,0,1-9.35,5.4A18.47,18.47,0,0,1,1430.3,808.35Zm-35.85-9.3h15.2q6.7,0,10.25-3.1t3.55-8.7a10.78,10.78,0,0,0-3.5-8.5q-3.5-3.1-10.7-3.1h-14.8Zm26.55,28.7q3.95-3.3,4-9.3a11.35,11.35,0,0,0-4.05-9.25q-4-3.35-11.25-3.35h-15.2v25.2h15.4Q1417,831.05,1421,827.75Z" transform="translate(0 0.01)"/><path class="cls-18" d="M1495.85,813.15h-43.9q.3,9.4,5.35,14.1a17.45,17.45,0,0,0,12.35,4.7,17.84,17.84,0,0,0,11-3.35,13.85,13.85,0,0,0,5.45-9h9.7a22.92,22.92,0,0,1-13.4,17.2,29.64,29.64,0,0,1-12.4,2.5,28.26,28.26,0,0,1-14-3.4,24,24,0,0,1-9.55-9.75,34.22,34.22,0,0,1,0-30,24,24,0,0,1,9.55-9.8,28.28,28.28,0,0,1,14-3.4,27.65,27.65,0,0,1,14,3.4,23.42,23.42,0,0,1,9.1,9.1,25.61,25.61,0,0,1,3.15,12.6A27.19,27.19,0,0,1,1495.85,813.15Zm-10.8-14.6a14.64,14.64,0,0,0-6.3-6.1,19.19,19.19,0,0,0-8.7-2,18,18,0,0,0-12.6,4.65q-5.1,4.65-5.5,13.65H1487A18.68,18.68,0,0,0,1485,798.55Z" transform="translate(0 0.01)"/><path class="cls-18" d="M1549.85,788.65a23.73,23.73,0,0,1,8.5,15h-9.6a14,14,0,0,0-5.45-9.25,19.27,19.27,0,0,0-19.8-1.15,16,16,0,0,0-6.35,6.75,27.57,27.57,0,0,0,0,22.5,16,16,0,0,0,6.35,6.75,19.14,19.14,0,0,0,19.8-1.2,14.23,14.23,0,0,0,5.45-9.3h9.6a23.59,23.59,0,0,1-8.5,15.05q-6.9,5.55-17.4,5.55a28.26,28.26,0,0,1-14-3.4,24,24,0,0,1-9.55-9.75,34.22,34.22,0,0,1,0-30,24,24,0,0,1,9.55-9.8,28.28,28.28,0,0,1,14-3.4Q1542.95,783.05,1549.85,788.65Z" transform="translate(0 0.01)"/><path class="cls-18" d="M1609.3,786.45a24.35,24.35,0,0,1,9.8,9.8,33.36,33.36,0,0,1,0,30,24.41,24.41,0,0,1-9.8,9.75,31.14,31.14,0,0,1-28.3,0,24.72,24.72,0,0,1-9.85-9.75,32.94,32.94,0,0,1,0-30,24.66,24.66,0,0,1,9.85-9.8,31.15,31.15,0,0,1,28.3,0Zm-23.2,6.8a16.55,16.55,0,0,0-6.7,6.75,22.74,22.74,0,0,0-2.55,11.25,22.51,22.51,0,0,0,2.55,11.15,16.53,16.53,0,0,0,6.7,6.75,19.71,19.71,0,0,0,18.1,0,16.54,16.54,0,0,0,6.7-6.75,22.51,22.51,0,0,0,2.55-11.15A22.74,22.74,0,0,0,1610.9,800a16.56,16.56,0,0,0-6.7-6.75,19.72,19.72,0,0,0-18.1,0Z" transform="translate(0 0.01)"/><path class="cls-18" d="M1717.5,789q5.85,6.15,5.85,17.75v31.9h-9.1v-31.1q0-8.1-4-12.4t-10.85-4.3a14.91,14.91,0,0,0-11.55,4.75q-4.35,4.75-4.35,14v29.1h-9.1v-31.1q0-8.1-4-12.4t-10.8-4.3q-7.3,0-11.65,4.75t-4.35,14v29.1h-9.1v-54.9h9.1v12.5a17.82,17.82,0,0,1,7.15-9.95,22.32,22.32,0,0,1,24,.1,19.33,19.33,0,0,1,7.35,10.45,19.85,19.85,0,0,1,7.7-10.35,21.29,21.29,0,0,1,12.2-3.65Q1711.65,782.85,1717.5,789Z" transform="translate(0 0.01)"/><path class="cls-18" d="M1787.55,813.15h-43.9q.3,9.4,5.35,14.1a17.45,17.45,0,0,0,12.35,4.7,17.84,17.84,0,0,0,11-3.35,13.85,13.85,0,0,0,5.45-9h9.7a22.92,22.92,0,0,1-13.4,17.2,29.64,29.64,0,0,1-12.4,2.5,28.26,28.26,0,0,1-14-3.4,24,24,0,0,1-9.55-9.75,34.22,34.22,0,0,1,0-30,24,24,0,0,1,9.55-9.8,28.28,28.28,0,0,1,14-3.4,27.65,27.65,0,0,1,14,3.4,23.42,23.42,0,0,1,9.1,9.1,25.61,25.61,0,0,1,3.15,12.6A27.19,27.19,0,0,1,1787.55,813.15Zm-10.8-14.6a14.64,14.64,0,0,0-6.3-6.1,19.19,19.19,0,0,0-8.7-2,18,18,0,0,0-12.6,4.65q-5.1,4.65-5.5,13.65h35.1A18.68,18.68,0,0,0,1776.75,798.55Z" transform="translate(0 0.01)"/><path class="cls-18" d="M1860.59,787.05a20.85,20.85,0,0,1,7.75,10.7v-14h9.1v54.9h-9.1v-14a20.84,20.84,0,0,1-7.75,10.7,22.55,22.55,0,0,1-13.55,4,24.87,24.87,0,0,1-13-3.4,23.5,23.5,0,0,1-9-9.75,36.13,36.13,0,0,1,0-30,23.46,23.46,0,0,1,9-9.8,24.89,24.89,0,0,1,13-3.4A22.56,22.56,0,0,1,1860.59,787.05Zm-24.4,9.45q-5.05,5.35-5,14.75t5,14.75q5,5.35,13.45,5.35a18.67,18.67,0,0,0,9.65-2.5,17.4,17.4,0,0,0,6.65-7,22.29,22.29,0,0,0,2.4-10.55,22.59,22.59,0,0,0-2.4-10.6,17,17,0,0,0-6.65-7,19,19,0,0,0-9.65-2.45Q1841.24,791.15,1836.19,796.5Z" transform="translate(0 0.01)"/><path class="cls-18" d="M1958.84,829.65a18.07,18.07,0,0,1-7.3,7,24.8,24.8,0,0,1-12.1,2.7A29.06,29.06,0,0,1,1927,836.8a22.13,22.13,0,0,1-8.7-7,19.8,19.8,0,0,1-3.75-10.15h9.7a13.76,13.76,0,0,0,7,10.55,15.61,15.61,0,0,0,7.85,1.85q6,0,9.2-3.2a11.1,11.1,0,0,0,3.2-8.2,10.57,10.57,0,0,0-2.25-7,16,16,0,0,0-5.55-4.25,75.35,75.35,0,0,0-9-3.35A90.77,90.77,0,0,1,1924,801.9a18.36,18.36,0,0,1-6.9-5.85q-2.85-3.9-2.85-10.3a17.79,17.79,0,0,1,2.65-9.7,17.37,17.37,0,0,1,7.6-6.5,27.42,27.42,0,0,1,11.65-2.3q10.4,0,16.5,5.05a19.34,19.34,0,0,1,7.1,12.85h-9.8a13.27,13.27,0,0,0-4.3-7.4q-3.5-3.2-9.5-3.2a13,13,0,0,0-8.8,2.85q-3.3,2.85-3.3,8a10,10,0,0,0,2.15,6.65,14.94,14.94,0,0,0,5.35,4,86,86,0,0,0,8.8,3.25,89.39,89.39,0,0,1,11,4.2,18.52,18.52,0,0,1,7,6q2.9,4.05,2.9,10.75A18.77,18.77,0,0,1,1958.84,829.65Z" transform="translate(0 0.01)"/><path class="cls-18" d="M2018.39,808.35a17,17,0,0,1,4,11.3q0,8.6-5.85,13.8t-17,5.2h-26.2v-70.5h25.8q10.6,0,16.1,4.7t5.5,12.9q0,6.8-3.65,11a16.54,16.54,0,0,1-9.35,5.4A18.47,18.47,0,0,1,2018.39,808.35Zm-35.85-9.3h15.2q6.7,0,10.25-3.1t3.55-8.7a10.78,10.78,0,0,0-3.5-8.5q-3.5-3.1-10.7-3.1h-14.8Zm26.55,28.7q3.95-3.3,4-9.3a11.35,11.35,0,0,0-4.05-9.25q-4-3.35-11.25-3.35h-15.2v25.2h15.4Q2005.14,831.05,2009.09,827.75Z" transform="translate(0 0.01)"/><path class="cls-18" d="M2042.94,831.55h25v7.1h-34.1v-70.5h9.1Z" transform="translate(0 0.01)"/><path class="cls-18" d="M2090.84,828v10.7h-11.1V828Zm-.6-61.5-1.3,51.5h-7.5l-1.3-51.5Z" transform="translate(0 0.01)"/></svg>