<svg xmlns:xlink="http://www.w3.org/1999/xlink" xmlns="http://www.w3.org/2000/svg" viewBox="0 0 1886.69 1613.24">
    <defs>
        <style>
            .cls-1,.cls-5{fill:#1c1a1e;}.cls-1,.cls-11,.cls-12,.cls-14,.cls-18,.cls-2,.cls-3,.cls-4,.cls-6,.cls-7{stroke:#000;stroke-width:10px;}.cls-1,.cls-11,.cls-12,.cls-14,.cls-18,.cls-2,.cls-3,.cls-4,.cls-6{stroke-linecap:round;stroke-linejoin:round;}.cls-2{fill:none;}.cls-3{fill:#6c7070;}.cls-10,.cls-6{fill:#c2cecc;}.cls-12,.cls-7,.cls-8{fill:#65578e;}.cls-7{stroke-miterlimit:10;}.cls-9{fill:#6f618c;}.cls-11{fill:#3d3d3d;}.cls-13{opacity:0.3;fill:url(#linear-gradient);}.cls-13,.cls-22,.cls-23,.cls-24,.cls-25{isolation:isolate;}.cls-14{fill:#a1adac;}.cls-15{fill:url(#linear-gradient-2);}.cls-16{fill:url(#linear-gradient-3);}.cls-17{fill:url(#linear-gradient-4);}.cls-18,.cls-20{fill:#d9d9d9;}.cls-19,.cls-22,.cls-23,.cls-24,.cls-25{fill:#fff;}.cls-21{fill:#282828;}.cls-22{opacity:0.2;}.cls-23{opacity:0.8;}.cls-24{opacity:0.05;}.cls-25{opacity:0.7;}
        </style>
        <linearGradient id="linear-gradient" x1="553.5" y1="331.55" x2="553.5" y2="1114.55"
                        gradientTransform="matrix(1, 0, 0, -1, 0, 1265.1)" gradientUnits="userSpaceOnUse">
            <stop offset="0" stop-color="#e09b3d"/>
            <stop offset="0.3" stop-color="#c74c4d"/>
            <stop offset="0.6" stop-color="#c21975"/>
            <stop offset="1" stop-color="#7024c4"/>
        </linearGradient>
        <linearGradient id="linear-gradient-2" x1="275.5" y1="-850.88" x2="275.5" y2="-305.73"
                        gradientTransform="matrix(1, 0, 0, -1, 0, -180.9)" xlink:href="#linear-gradient"/>
        <linearGradient id="linear-gradient-3" x1="418.3" y1="-850.88" x2="418.3" y2="-305.73"
                        gradientTransform="matrix(1, 0, 0, -1, 0, -180.9)" xlink:href="#linear-gradient"/>
        <linearGradient id="linear-gradient-4" x1="275.55" y1="-850.88" x2="275.55" y2="-305.73"
                        gradientTransform="matrix(1, 0, 0, -1, 0, -180.9)" xlink:href="#linear-gradient"/>
    </defs>
    <title>insta-panda</title>
    <g id="Layer_2" data-name="Layer 2">
        <g id="Layer_6" data-name="Layer 6">
            <path class="cls-1"
                  d="M1132.5,1289c-2.4,3.3-1.3,6.1-1,27,.2,13.1-.3,11.4,0,21,.6,21.2.9,36.1,5,37,2.8.6,6.4-5.6,15-23,17.5-35.5,26.2-53.4,22-60C1166.2,1279.65,1139.6,1279.25,1132.5,1289Z"/>
            <path class="cls-1"
                  d="M1159.5,1275c-.9,4-2.5,16.3-8,35-9,30.6-13.8,46.8-25,57-1.9,1.7-6.8,5.9-9,13-2.1,6.8-.5,12.8,0,15,3.9,16.3,1.7,33.4,4,50,2.5,18,4.3,43,8,93,4.2,56.3,4,67,4,67,28,1,542,6,562,1,5.9-1.5,5.1-5.5,1-47-9-91.7-13.7-138.5-27-185-13.5-47.5-21.6-75.7-40-101C1523.9,1128.15,1174.4,1210.35,1159.5,1275Z"/>
            <path class="cls-2"
                  d="M1277.5,1382c5.1,21.6,8.2,39,10,51,2.1,13.9,3.6,26.9,10,44a156.06,156.06,0,0,0,8,18"/>
            <path class="cls-2"
                  d="M1299.5,1535a64,64,0,0,1,26,4c9.5,3.6,15.1,8.6,26,18,9.3,8.1,16.9,14.7,24,26,5.3,8.5,9.3,19.4,11,25"/>
            <path class="cls-2" d="M1314.5,1520c6.8,5.9,14.1,12,22,18,5.1,3.9,10.1,7.6,15,11"/>
            <path class="cls-2" d="M1431.5,1455a89,89,0,0,0,13,8c5.5,2.8,11.6,5.8,20,7a53.53,53.53,0,0,0,15,0"/>
            <path class="cls-3"
                  d="M1265.5,1305c-1.2,4.4,1.1,6.1,1,26,0,4.8-.2,10.2,2,17,1.1,3.4,2.5,7.6,6,11,4.8,4.7,11,5.5,15,6,29.5,3.4,41.2-2.3,61,0a28.57,28.57,0,0,0,13-1,29.89,29.89,0,0,0,13-9c7.2-9,6.3-21.1,4-45-.8-8.2-1.2-12.4-2-14C1364.6,1268.65,1272.2,1279.65,1265.5,1305Z"/>
            <path class="cls-1"
                  d="M1284.5,1308c-1.2,3.7.6,4.2,0,21-.2,4.9-.5,9,2,13a16.83,16.83,0,0,0,7,6c6.4,3.2,11.9,2.5,21,2,19.7-1,23.2,1,36-2,6.1-1.4,9.2-2.1,11-4,5.9-6,4-17.6,1-36-.9-5.2-1.3-7.8-2-9C1349.8,1280.55,1290.7,1288.25,1284.5,1308Z"/>
            <path class="cls-4"
                  d="M1482.5,1343c2.9-7.2,10.4-11.1,30-17,14.3-4.3,24-7.3,40-10,20.5-3.5,22.8-1.8,32-6,6.9-3.2,13.4-7.7,24-15,11.9-8.3,10.9-8.6,14-10,15.8-7.2,37.6,2.6,50,13,2.9,2.4,20.3,17.6,22,43a62.34,62.34,0,0,1-9,36c-2,3.3-4.4,6.7-24,24-11.7,10.3-23.2,20.9-35,31-6.7,5.7-14.7,12.4-20,24-1.3,2.7-1.2,3.2-2,4-15,14.8-118.7-74.8-123-107A19,19,0,0,1,1482.5,1343Z"/>
            <path class="cls-1"
                  d="M1479.5,1290c3.4.9,2.5,10.1,4,22,3.2,24.9,14.8,41.8,28,61,17.7,25.7,36.8,39.2,75,66,0,0,13.2,9.3,36,16,6.2,1.8,10.7,2.2,15,1,4.8-1.3,6.6-3.8,8-3,3.3,1.8.5,19.7-8,30-17.3,21-59.2,11.9-68,10-61.1-13.3-92.7-68.4-99-80-8.4-15.6-22.2-42-17-74C1457.7,1313.45,1473.5,1288.35,1479.5,1290Z"/>
            <path class="cls-2"
                  d="M1639.5,1425c1.6,15.7,5.5,21.1,9,23,1,.6,4.4,2.1,5,5,.4,1.8-.5,3-1,5-1.1,4,.2,7.3,1,10,.2.8,4.5,23.2,13,68,3.9,20.3,6.5,39,8,50,.9,6.2,1.5,11.3,2,15"/>
            <path class="cls-2" d="M1437.5,1369a83.16,83.16,0,0,0-21,18,84.13,84.13,0,0,0-14,24"/>
            <path class="cls-5"
                  d="M1444,1334.75a115.84,115.84,0,0,0,2,36c3.3,15.4,6.6,30.8,16.3,49.3,16,30.7,37.9,47.9,47.9,55.5a178,178,0,0,0,67.2,31.9c18.5,4.3,41.5,9.4,59.1-3.1,1.6-1.2,15.1-10.9,13.2-20.6-1.3-6.8-9.6-10.4-14.3-12.3-27.1-11.2-50.5-14.2-63.2-17.5-37.4-9.7-59.8-42.4-74.4-63.7-14.1-20.7-23-33.6-23.4-52.4-.3-13.4,3.8-24.6-2-28.8-5.4-3.8-16.5.4-22.4,7.2C1447.1,1319.65,1445.1,1324.15,1444,1334.75Z"/>
            <path class="cls-6"
                  d="M1610,1288.55c-12.6,5.6-23.1,17.8-21,22,1.7,3.4,10.6-.7,23,2,14.2,3.1,23,13,31,22,11,12.4,14.7,23.4,22,45,2.2,6.7,3.4,11.5,2,17-1.5,6.1-5.2,9.5-4,11,1.5,1.9,8.8-.9,14-4,16.3-9.7,21.9-28.7,23-33,7.6-28.8-8.8-53.3-10-55C1671.5,1288.85,1634.3,1277.75,1610,1288.55Z"/>
            <path class="cls-7"
                  d="M1228.5,638c-5.9-2.1-14.9,2.6-33,12a186.57,186.57,0,0,0-40,27c-18.1,16.1-29.2,32.6-38,47-25.7,42.3-21.2,51.3-48,105-25.4,51-38.2,76.5-51,89-8.3,8.1-18.9,16.7-18,28,1.3,15.1,22.6,23.9,42,33,84.8,39.9,95.4,70.1,121,62,5.6-1.8,20.9-8.2,44-83,9.5-30.8,23.7-83.9,32-210C1244,679.55,1243.3,643.25,1228.5,638Z"/>
            <path class="cls-7"
                  d="M1021.5,932c-20.9,2.2-36.5,15.4-49,26-29.5,24.9-39.8,56.5-44,70a153.47,153.47,0,0,0-7,39c-.4,11-1,34.2,11,60,15.1,32.5,40.8,49.3,53,56,9,5,26.5,14.3,51,15,35.4,1,60.4-16.9,70-24,9-6.6,27.1-20,37-44,12.2-29.7,4.4-57.8-1-76C1126.2,998.65,1075.7,926.25,1021.5,932Z"/>
            <g id="_Group_" data-name="&lt;Group&gt;">
                <path class="cls-8"
                      d="M1685.5,637c47.2,49.1,44,183,44,183-1,40.6-1.4,60.9-28,402-1.1,13.5-7,90-35,96-12.6,2.7-20.5-10.8-56-20-19.2-5-34.7-5.6-45-6-17-.6-32,.7-64,6-33,5.5-54.1,10.4-67,13a524.54,524.54,0,0,1-91.5,10.8,50.11,50.11,0,0,1-4.5-6.8c-2.4-4.3-4.4-9.2-3-14,1.3-4.4,4.1-4.3,5-8,1.4-5.5-4-8.9-11-22-3.6-6.7-5.4-10.1-5-14,.6-5.8,4.6-7.9,8-14,4.2-7.4,4-14.6,4-22-.1-33,5.1-66.1,2-99-2.5-26.7-9.6-101.2,4.7-181,7.2.5,13.2-1.1,14.3-4,1.2-3.1-3.9-6.4-10.9-13.1,10.3-47.4,25.2-80.8,31.9-94.9,13.3-27.9,26.1-46.6,42-70,17.1-25.1,43.6-63.5,87-105,0,0,20.6-19.7,78-57,5.6-3.7,13.6-8.7,23.5-11.6,3.9,2,8,4.2,12.5,6.6,21.1,11.1,30.8,16.4,43,26A230.48,230.48,0,0,1,1685.5,637Z"/>
                <path class="cls-9"
                      d="M1609,585.45c-10,2.9-17.9,7.9-23.5,11.6-57.4,37.3-78,57-78,57-43.4,41.5-69.9,79.9-87,105-15.9,23.4-28.7,42.1-42,70-6.7,14-21.7,47.5-31.9,94.9a90.11,90.11,0,0,1-11.1-12.9,70.51,70.51,0,0,1-5.6-9.4c3.1-2.1,5.3-12.1,13.6-34.6,0,0,5.8-15.7,31-70,11.3-24.5,31.4-67.7,68-114,20.4-25.9,41.6-52.7,78-78,33.2-23.1,46.5-28,56.7-36.1C1584.3,572.45,1594.7,577.95,1609,585.45Z"/>
                <path class="cls-9"
                      d="M1571.8,566.35c1.5.7,3.3,1.6,5.4,2.6-10.2,8.2-23.5,13-56.7,36.1-36.4,25.3-57.6,52.1-78,78-36.6,46.3-56.7,89.5-68,114-25.2,54.3-31,70-31,70-8.3,22.5-10.5,32.5-13.6,34.6-.7-1.4-1.3-2.8-2-4.3.5-2.1,1-4.2,1.6-6.3,8.6-33.2,32.5-109.8,104-203C1486.5,618.95,1529.8,579.75,1571.8,566.35Z"/>
                <path class="cls-10"
                      d="M1566.5,564c1.3.5,3,1.2,5.3,2.3-42,13.4-85.3,52.6-138.3,121.7-71.5,93.2-95.4,169.8-104,203-.6,2.1-1.1,4.2-1.6,6.3a150.07,150.07,0,0,1-6.4-19.3,480.2,480.2,0,0,1-14-77c-10.7-123.2-10.8-123.8-14-151-1.7-14.1-1.9-26.1-.3-44.1,13.2-4.6,28.8-9.8,47.3-15.9,91.2-30.1,131.1-41,174-37A238,238,0,0,1,1566.5,564Z"/>
                <path class="cls-8"
                      d="M1346.6,923.95c7,6.8,12.1,10,10.9,13.1-1.1,2.9-7.1,4.5-14.3,4,.7-4,1.5-8,2.3-12C1345.8,927.35,1346.2,925.65,1346.6,923.95Z"/>
                <path class="cls-9"
                      d="M1346.6,923.95c-.4,1.7-.7,3.4-1.1,5.1-.8,4-1.6,8-2.3,12a36.37,36.37,0,0,1-17.7-6,22.94,22.94,0,0,1-4.7-4.3c.2-1.2.4-2.4.7-3.7s2.3-12.2,5.4-25.5a3.32,3.32,0,0,0,1.6.5,2.5,2.5,0,0,0,1.4-.4,64.7,64.7,0,0,0,5.6,9.4A90.12,90.12,0,0,0,1346.6,923.95Z"/>
                <path class="cls-9"
                      d="M1329.5,1271c7,13.1,12.4,16.5,11,22-.9,3.7-3.7,3.6-5,8-1.4,4.8.6,9.7,3,14a50.11,50.11,0,0,0,4.5,6.8c-12.4.3-25.6.2-39.1-.7-3.1-5.1-6.3-12-4.5-19.1s7-7.6,8-15c.4-3.2-1-7.8-4-17-2.9-9-4.1-10.8-4-15a23.87,23.87,0,0,1,4-12c10.8-17.6,6-78,6-78-.4-5.3.7,7.1,3-91,1.9-81,1.5-105.2,8.3-143.3a20.63,20.63,0,0,0,4.7,4.3,36.37,36.37,0,0,0,17.7,6c-14.3,79.9-7.2,154.4-4.7,181,3.1,32.9-2.1,66-2,99,0,7.4.2,14.6-4,22-3.4,6.1-7.4,8.2-8,14C1324.1,1260.95,1325.9,1264.35,1329.5,1271Z"/>
                <path class="cls-9"
                      d="M1321.5,878a150.07,150.07,0,0,0,6.4,19.3c-.4,1.4-.7,2.8-1,4.2-11.7-7-21.3-90.7-29.4-160.5-1.1-9.6-3.1-31.7-7-76-2.6-29.4-4-46.3-4.5-56.6,2.3-.8,4.7-1.7,7.2-2.5-1.7,18-1.4,30,.3,44.1,3.2,27.3,3.3,27.8,14,151A480.2,480.2,0,0,0,1321.5,878Z"/>
                <path class="cls-9"
                      d="M1326.9,901.55c-3.1,13.3-5.1,24-5.4,25.5-.2,1.3-.5,2.5-.7,3.7-2.9-3.5-6-9.2-10.3-19.7-9.3-22.8-12-37-12-37-13.6-71.2-23-151-23-151s-3.1-75-4-95a88.11,88.11,0,0,1,.8-14.7c4.2-1.6,8.8-3.2,13.7-4.9.5,10.3,1.9,27.2,4.5,56.6,3.9,44.3,5.9,66.4,7,76C1305.6,810.85,1315.2,894.55,1326.9,901.55Z"/>
                <path class="cls-8"
                      d="M1310.5,911c4.3,10.5,7.4,16.2,10.3,19.7-6.8,38.1-6.4,62.3-8.3,143.3-2.3,98.1-3.4,85.7-3,91,0,0,4.8,60.4-6,78a23.87,23.87,0,0,0-4,12c-.1,4.2,1.1,6,4,15,3,9.2,4.4,13.8,4,17-1,7.4-6.2,7.8-8,15s1.4,14,4.5,19.1c-.5,0-1-.1-1.5-.1-28.7-1.9-80.3-8.6-111-15-18.5-3.9-31.9-8.2-50-4-6,1.4-17.5,4.9-19,2-1.3-2.4,6.3-6,6-12-.3-6.8-10.3-7.5-17-18-.7-1.1-5.8-9.2-5-19,.8-10.9,8.1-14,13-26,4.2-10.3,3.3-19,3-27-1-26.4,5-52.6,7-79,1.7-22.3,5.8-58.5,14-131,8.4-73.8,12.6-110.6,17-139s11.2-67.9,23-116c12.2-49.7,18.5-74.9,29-89,9.2-12.4,18.8-19.6,59.8-34.7a87.82,87.82,0,0,0-.8,14.7c.9,20,4,95,4,95s9.4,79.8,23,151C1298.5,874,1301.2,888.25,1310.5,911Z"/>
                <path class="cls-2"
                      d="M1160.5,853c-4.4,28.4-8.6,65.2-17,139-8.2,72.5-12.3,108.7-14,131-2,26.4-8,52.6-7,79,.3,8,1.2,16.7-3,27-4.9,12-12.2,15.1-13,26-.8,9.8,4.3,17.9,5,19,6.8,10.5,16.7,11.2,17,18,.3,6-7.3,9.6-6,12,1.5,2.9,13-.6,19-2,18.1-4.2,31.5.1,50,4,30.7,6.4,82.3,13.1,111,15,.5,0,1,.1,1.5.1,13.5.9,26.6,1,39.1.7a527.36,527.36,0,0,0,91.5-10.8c12.9-2.6,34-7.5,67-13,32-5.3,47-6.6,64-6,10.3.4,25.8,1,45,6,35.5,9.2,43.4,22.7,56,20,28-6,33.9-82.5,35-96,26.6-341.1,27-361.4,28-402,0,0,3.2-133.9-44-183a230.48,230.48,0,0,0-21-19c-12.2-9.6-21.9-14.9-43-26-4.5-2.3-8.6-4.5-12.5-6.6-14.3-7.5-24.7-13-31.8-16.5-2.1-1-3.8-1.9-5.4-2.6-2.3-1.1-4-1.8-5.3-2.3a238,238,0,0,0-52-11c-42.9-4-82.8,6.9-174,37-18.5,6.1-34.1,11.3-47.3,15.9-2.5.9-4.9,1.7-7.2,2.5-4.9,1.7-9.5,3.4-13.7,4.9-41,15.1-50.6,22.3-59.8,34.7-10.5,14.1-16.8,39.3-29,89-11.9,48.1-18.7,87.7-23.1,116"/>
                <path class="cls-2"
                      d="M1343,1321.85a50.11,50.11,0,0,1-4.5-6.8c-2.4-4.3-4.4-9.2-3-14,1.3-4.4,4.1-4.3,5-8,1.4-5.5-4-8.9-11-22-3.6-6.7-5.4-10.1-5-14,.6-5.8,4.6-7.9,8-14,4.2-7.4,4-14.6,4-22-.1-33,5.1-66.1,2-99-2.5-26.7-9.6-101.2,4.7-181,.7-4,1.5-8,2.3-12,.3-1.7.7-3.4,1.1-5.1,10.3-47.4,25.2-80.8,31.9-94.9,13.3-27.9,26.1-46.6,42-70,17.1-25.1,43.6-63.5,87-105,0,0,20.6-19.7,78-57,5.6-3.7,13.6-8.7,23.5-11.6"/>
                <path class="cls-2"
                      d="M1571.8,566.35c-42,13.4-85.3,52.6-138.3,121.7-71.5,93.2-95.4,169.8-104,203-.6,2.1-1.1,4.2-1.6,6.3-.4,1.4-.7,2.8-1,4.2-3.1,13.3-5.1,24-5.4,25.5-.2,1.3-.5,2.5-.7,3.7-6.8,38.1-6.4,62.3-8.3,143.3-2.3,98.1-3.4,85.7-3,91,0,0,4.8,60.4-6,78a23.87,23.87,0,0,0-4,12c-.1,4.2,1.1,6,4,15,3,9.2,4.4,13.8,4,17-1,7.4-6.2,7.8-8,15s1.4,14,4.5,19.1"/>
                <path class="cls-2"
                      d="M1320.8,930.75c-2.9-3.5-6-9.2-10.3-19.7-9.3-22.8-12-37-12-37-13.6-71.2-23-151-23-151s-3.1-75-4-95a88.11,88.11,0,0,1,.8-14.7"/>
                <path class="cls-2"
                      d="M1293.2,605.95c-1.7,18-1.4,30,.3,44.1,3.2,27.3,3.3,27.8,14,151a480.2,480.2,0,0,0,14,77,150.07,150.07,0,0,0,6.4,19.3"/>
            </g>
            <path class="cls-6"
                  d="M1366.5,592c-.9,9.4-8,11.3-18,25-10.8,14.7-15.2,29.6-17,36-5.3,18.4-3.3,29.3-7,30-3.9.7-9.3-11.1-18-30-4.7-10.2-7.4-16.1-10-25-5-17-7.6-25.6-5-34,6.9-22.6,48.6-37,66-23C1363.2,575.65,1367.3,584.15,1366.5,592Z"/>
            <path class="cls-6"
                  d="M1357.5,587c.3,1.8.4.9,9,21,13.4,31.5,15.1,38.1,16,44,2.9,18.7-4.7,28.2,1,27,24-5,137.1-65.6,159-110,1.7-3.5,6.3-8.6,4-14-8-19-19.3-44.8-34-53C1458.1,471.65,1351.1,549.45,1357.5,587Z"/>
            <path class="cls-2"
                  d="M1365.5,619c-2.2,8.7-5.4,21.9-9,38a1285.55,1285.55,0,0,0-23,140c-2.9,27.1-4.9,60.9-5,63-.5,7.2-.8,32.2-1,36"/>
            <path class="cls-2"
                  d="M1361.5,672c-.3.8-1.3,3.4,0,5s3.6,1.1,4,1a6.16,6.16,0,0,0,5-5c.4-2.5-.9-5.5-3-6C1364.9,666.35,1362.4,669.75,1361.5,672Z"/>
            <path class="cls-2"
                  d="M1348.5,736c-1.7,1.9-1.8,5.5,0,7,1.6,1.3,4.2.3,5,0,2.8-1.1,5.6-4,5-6C1357.7,734.55,1351.2,733,1348.5,736Z"/>
            <path class="cls-2"
                  d="M1340.5,808c-2.3.6-3.5,3.6-3,6,.4,1.8,1.9,3.8,4,4,2.6.2,5-2.4,5-5C1346.5,809.95,1343.2,807.25,1340.5,808Z"/>
            <path class="cls-11"
                  d="M1349.5,964c-4.8,4.6-3.2,11.9-3,13,.1.6,2.3,9.8,11,12,5,1.3,11.4,0,15-5,4.4-6.1,1.3-13.3,1-14-3.5-7.8-12.2-8.9-13-9C1358.8,960.85,1353.4,960.25,1349.5,964Z"/>
            <path class="cls-11"
                  d="M1350.5,1079c-4.4,2.7-6.9,7.9-7,13-.1,8.8,7.3,13.6,8,14,4.7,2.9,12.1,4.2,18,0a15.92,15.92,0,0,0,6-17C1372.7,1079.15,1358.9,1074,1350.5,1079Z"/>
            <path class="cls-11"
                  d="M1354.5,1196a14.86,14.86,0,0,0-9,9c-2.3,6.6.7,14,6,18s13,5,19,1a15.55,15.55,0,0,0,7-14C1376.5,1199.95,1363.7,1192.95,1354.5,1196Z"/>
            <path class="cls-11"
                  d="M1352.5,1297c-3.3,1.3-8.5,4.7-8,8,.6,4.4,10.9,5.8,12,6,8,1.1,18.4-1,19-5,.5-3.4-6.3-7.5-11-9A17.53,17.53,0,0,0,1352.5,1297Z"/>
            <path class="cls-2"
                  d="M1178.5,1283a117.83,117.83,0,0,0,33,11c15.2,2.7,26.6,1.5,49-1,28.1-3.1,32-6.1,57-8,11.8-.9,20.1-.9,35-1,36.9-.2,40,2.4,63,1,14.9-.9,15.2-2.1,42-5,20.4-2.2,37.1-3.4,48-4"/>
            <path class="cls-2"
                  d="M1201.5,1225a409.22,409.22,0,0,0,39,15,338.22,338.22,0,0,0,36,10c24.5,5.2,44.1,5.6,66,6,28.8.5,32.4-1.8,51,1,13.1,2,17.8,4.1,34,7a327.8,327.8,0,0,0,45,5"/>
            <path class="cls-2"
                  d="M1140.5,1264c23.8,5.1,42.2,4.1,55,2s20.2-5.3,37-6c10.7-.5,18.6.4,34,2,10.4,1.1,24.4,2.9,41,6"/>
            <path class="cls-2"
                  d="M1435.5,1298c8.2-1.7,21.1-4.4,37-8,28.2-6.3,30.2-7.4,41-9,20.3-3.1,36.6-3.1,50-3,13.6.1,23.3.1,36,2a185.52,185.52,0,0,1,46,13"/>
            <path class="cls-12"
                  d="M1639,601.55c10.5,1.5,17,4.4,49.5,28.5,13.8,10.2,28.1,20.8,39,32,25.5,26.1,32,54.8,51,116,24.7,79.7,37.1,119.5,52,148,7.5,14.3,20.4,37.1,34,72,13.3,34.1,16.5,52.2,17,69,.5,14.8.8,34.6-10,56-4.7,9.3-14.5,28.6-35,37-21.8,8.9-43.2.4-59-6-42-16.9-65.7-50.6-79-70-8.6-12.5-2.4-5.9-31-57-4.9-8.8-17.9-29.8-44-72a194.58,194.58,0,0,0-27-35c-9.8-10-20.1-18.2-34-21"/>
            <path class="cls-12"
                  d="M1865.5,1134c-9.4,20.4-36.9,69.6-62,106-68.5,99.2-72.4,104.9-77,112-9,14-19,25-25,35-1.8,3-1,10.3-5,12-3.8,1.6-9.1-2-12-5-6.3-6.4-6.8-15.3-7-18-1.6-19.8-15.2-46.2-32-60-2.5-2-26.2-21.1-45-14-3.2,1.2-6.4,3.3-8,2-4-3.4,8.8-24.7,14-34,9.1-16.4,7.6-19.1,28-92,12.1-43.4,21.7-74.8,39-110,5.8-11.8,12.8-24.8,27-36,20.3-16,42.7-18.3,51-19"/>
            <path class="cls-6"
                  d="M962.5,1016c-3.9,2.3-3.1,11.2-2,22a72.18,72.18,0,0,0,10,30c12.7,21.2,32.8,30.2,48,37,9.1,4.1,22,9.7,40,11,9.1.7,27.3,1.7,46-8,13.1-6.8,19.2-15.2,22-20,.6-1.1,7-12.1,4-15-2.8-2.7-12.2,3.5-17,6-23.7,12.6-54.4,1.6-70-4C993.3,1057,972.4,1010.15,962.5,1016Z"/>
            <path class="cls-4"
                  d="M952.5,961c-7.3,11.3-9.1,12.3-11,16-7.1,13.5.2,31,4,40,9.8,23.4,27.6,36.3,41,46a175.16,175.16,0,0,0,39,21c25.1,10.2,61.8,19.8,65,13,2.4-5.2-17.1-14.2-48-44-22.9-22.1-39.6-38.2-54-64-11.8-21.2-18.8-43.2-26-42C960.2,947.45,959.7,949.95,952.5,961Z"/>
            <polygon class="cls-13"
                     points="48.7 624.05 32 238.55 136 150.55 481.8 150.85 514 180.55 1075 933.55 963 933.55 125 666.55 48.7 624.05"/>
            <path class="cls-14"
                  d="M899.5,915c-2.2.1-6,7,0,11,21.3,14.2,37,26,112,71,0,0,100.9,41.5,177,46a52,52,0,0,0,27-5c5.5-2.7,8.9-4.2,10-7,4-10-70-60-131-114-3.3-3-9.5-3-13-3C1009.5,914,931.5,914,899.5,915Z"/>
            <path class="cls-4"
                  d="M972.5,979c3.1-3,9.1,4.3,26,6,18.9,1.9,34-5.1,51-13,20-9.3,30.6-14.2,39-26,3.2-4.5,8.1-12.9,18-23,5.9-6.1,9.4-8.4,13-10,2.2-1,11.6-5,22-2,12.2,3.5,18,14.5,22,22a62.05,62.05,0,0,1,7,32c-.2,3.6-1.3,18.9-18,42-12.4,17.2-31.5,43.7-67,52-7,1.6-29.2,6.5-54-3C986.4,1038.75,965.2,986.15,972.5,979Z"/>
            <path class="cls-4"
                  d="M1043.5,1025c5.1-17.6,91.5-.8,104-32,3.4-8.4,1.3-20.2,11-28,.6-.5,8.6-6.7,18-5,17.5,3.2,22.5,30.4,23,33,3.2,18.1-4.3,32.8-6,36-15.8,29.6-57.4,41.9-91,36C1070.3,1059.45,1040.3,1036.25,1043.5,1025Z"/>
            <path class="cls-4"
                  d="M1034.5,1081a157.34,157.34,0,0,0,59,20c12,1.5,34.7,4.1,61-5,9.4-3.3,23.9-8.5,37-22a82.87,82.87,0,0,0,16-24c3.4-8,4.5-14.4,6-23,1.7-9.6,2.5-14.9,1-22a31.57,31.57,0,0,0-7-15s-5.9-6.5-17-9c-23-5.1-166.8,5.5-172,62C1017.8,1050.65,1019.2,1063.65,1034.5,1081Z"/>
            <path class="cls-8"
                  d="M1186,676.55a53.69,53.69,0,0,1,7-15c11-16.5,32.3-28.7,41-23,5.6,3.6,5.1,14,3,29-8.2,59.2-25.2,75.8-38,129-6.2,25.7-6.4,39.2-19,48s-34.8,11.4-45,1C1110.7,820.75,1169.3,734.85,1186,676.55Z"/>
            <path class="cls-2" d="M1185,655.55c21.3-11.7,40-21,62-32"/>
            <path class="cls-2" d="M1168,807.55c-2,9-7.3,46.3-9,55"/>
            <path class="cls-15"
                  d="M275.5,253.55c-78.6,0-142.5,63.9-142.5,142.5s63.9,142.5,142.5,142.5S418,474.65,418,396,354.1,253.55,275.5,253.55Zm0,229.6A87.1,87.1,0,1,1,362.6,396,87.11,87.11,0,0,1,275.5,483.15Z"/>
            <circle class="cls-16" cx="418.3" cy="254.65" r="34.1"/>
            <path class="cls-17"
                  d="M386.9,120.55H164.2C73.7,120.55,0,194.15,0,284.75v222.7c0,90.5,73.6,164.2,164.2,164.2H386.9c90.5,0,164.2-73.6,164.2-164.2V284.75C551,194.15,477.4,120.55,386.9,120.55Zm108.7,386.9a108.74,108.74,0,0,1-108.7,108.7H164.2A108.74,108.74,0,0,1,55.5,507.45V284.75A108.74,108.74,0,0,1,164.2,176H386.9a108.74,108.74,0,0,1,108.7,108.7v222.7Z"/>
            <path class="cls-4"
                  d="M1258.5,102c.6-6.1,20.1-4.7,49-19,8.6-4.2,18.4-11.2,38-25,32.5-23,32.5-25.5,47-33a186.87,186.87,0,0,1,45-16c10.3-2.3,19.9-4.4,33-4,10.4.3,26.7,1,44,11a82.87,82.87,0,0,1,29,29,93.53,93.53,0,0,1,12,32c4.3,21.5,1,38.6-2,54a165.11,165.11,0,0,1-13,41,179.75,179.75,0,0,1-24,37c-5.7,6.9-8.6,10.3-11,12-27.9,20-88.6-61-199-97C1288.3,118.15,1257.7,109.75,1258.5,102Z"/>
            <path class="cls-4"
                  d="M1498.5,167c6.6-3.3,10.3,2.2,27,2,5.7-.1,15.7-.2,26-5,13.7-6.4,18.5-16.8,22-15,3.7,1.9.3,14.8,0,16-4.3,16.1-16.5,24.9-18,26-7.9,5.6-14.3,6.3-14,8,.4,2,9.8,3.4,18,0,6.9-2.8,9.9-7.8,11-7,1.4,1-1.9,9.2-7,16a41.21,41.21,0,0,1-40,17c-5-.6-25.3-3.1-33-20C1484.1,191,1488.6,172,1498.5,167Z"/>
            <path class="cls-4"
                  d="M1193.5,129c-7.2-4.5-11.4,2.5-51,6-9,.8-24.4,1.2-55,2-33,.9-37.3.6-47,3-10.9,2.7-25.9,6.4-40,19-17.2,15.4-22.2,34.6-24,42a91.21,91.21,0,0,0-1,38,105.26,105.26,0,0,0,15,40,96.89,96.89,0,0,0,34,32c4,2.2,13.3,6.8,30,10,26.3,5,55,3.5,72-2C1198.7,295.65,1223.4,147.55,1193.5,129Z"/>
            <path class="cls-4"
                  d="M1071.5,303c-11.5.5-13.5,11.8-32,19-4.1,1.6-8.3,3.2-14,3-9.7-.3-15.9-5.5-17-4s4.8,8,9,12c6.3,5.9,12.6,12,23,14a35.71,35.71,0,0,0,14,0c9.2-1.9,14.9-7.2,19-11,5.1-4.8,17.5-16.4,14-25C1085.4,305.85,1077.9,302.75,1071.5,303Z"/>
            <path class="cls-18"
                  d="M1112.5,177c12.3-17,22.6-26.4,28-31,21.1-18.1,41.3-25.9,68-36,23.3-8.8,42.9-16.2,71-20,39.7-5.4,70.6-.1,88,3,22.3,4,48.8,9,79,26a221,221,0,0,1,45,34c18.9,18.4,30,35.7,39,50a440.38,440.38,0,0,1,28,52c1.2,2.6,7.6,17.6,18,36,5.8,10.2,9.8,16.4,17,22a51.27,51.27,0,0,0,22,10c5.5,1,12.7,2.3,20-1,7.9-3.6,9.6-9.8,12-9,4.3,1.4,2.1,21.8-2,38-3,11.8-5.3,21.4-13,32-4.2,5.9-11.3,15.8-24,21-7.4,3.1-14.1,3.4-14,5,.1,1.8,8.7,1.1,19,5,2.2.8,16.8,6.6,25,21,3.8,6.7,7,16.7,4,19-2.5,1.9-7.3-3.1-15-5-5.7-1.4-14.2-1.3-29,7-29.6,16.7-83.6,66.3-100,81a587.31,587.31,0,0,1-75,57c-16.6,10.6-29.1,17.2-43,23-15.9,6.6-36.1,14.8-63,16-16.3.7-28.2-1.5-52-6-18.7-3.5-36.5-6.9-59-15-13.9-5-26.1-10.6-44-11a94.08,94.08,0,0,0-21,2c-11.8,2.3-19.7,3.7-25,10-5.6,6.5-4.8,14-7,14-2.5,0-4.6-10.1-5-18-.4-7.3-.8-15.3,4-22,6-8.4,16.4-9.5,16-11s-10.7,1.3-22,1c-23.1-.6-39.9-13.9-45-18-12.6-10-22.1-23.5-20-26,1.2-1.5,5.4,2.5,12,2,11.3-.8,18.9-13.5,21-17,5.6-9.4,7.2-19.6,7-33-.4-22.1-5.4-36.2-10-54,0,0-3.5-13.7-10-56C1046.3,302.15,1079.3,222.65,1112.5,177Z"/>
            <path class="cls-19"
                  d="M1108.5,211a235.35,235.35,0,0,0-18,40c-1.7,4.9-9.4,28.3-12,62-2,25.9,0,45.4,2,64,2.4,22.6,4.8,29.9,10,69,1.5,11,2.1,22.1,4,33,.8,4.9,1.8,10,1,17a48.32,48.32,0,0,1-6,18,42.52,42.52,0,0,1-13,15c-11.1,7.6-21.3,5.3-22,9-.8,4.4,12.9,10.2,17,12a86.54,86.54,0,0,0,34,7c10.6,0,17.1.1,24-4,6.5-3.8,9.8-9.1,12-8,2.9,1.5.2,12.1,0,13-3.2,12.3-11.4,21.2-15,25-4.8,5-7,6-10,11-3.8,6.1-5.7,12.7-5,13,.5.2,1.9-3,5-6,2.4-2.3,5.7-4.6,15-7,7-1.8,13.1-2.6,25-4,8.5-1,9.8-1,13-2,8.3-2.6,13-7.1,14-6,.8.8-1.4,4.5-4,7-3.6,3.6-7.2,4-7,5,.2,1.3,6.6,1.4,12,1,6.8-.5,9.5-1.6,13-2,8.2-.9,14.4,2.7,21,6,10.9,5.4,22.7,8.5,34,13,25,10,48.5,10,57,10,29.2,0,50.9-8.3,63-13,24.1-9.4,40.1-21.3,53-31,18.5-13.9,30.6-26.7,48-45,23.2-24.5,20.5-25.3,38-42a311.07,311.07,0,0,1,52-39,131.29,131.29,0,0,1,28-12c12.5-3.8,17.8-3.5,21-3,9.9,1.5,16,7.2,17,6,1.5-1.8-10.2-13.2-11-14-5.8-5.6-8.8-8.6-13-11-15.3-8.8-31.8-2.1-33-6-.8-2.5,5.4-6.4,11-10,11-7.1,15.6-7,26-13,6.8-3.9,12.6-7.3,18-14,4.9-6.2,6.7-11.8,10-22,2.6-8.2,6.6-20.7,3-23-1.7-1.1-4,1-9,3a56,56,0,0,1-21,3c-12.3-.5-21.5-7.6-27-12-9.4-7.5-16.1-19.8-29-44-16.7-31.3-19.8-37.2-25-46-1.7-2.9-11.4-19.3-21-33-7.8-11.1-27.4-39.1-58-62-43.5-32.6-88.8-39.6-106-42-53.4-7.6-94.5,4.6-105,8-7.4,2.3-57.5,18.9-99,63A234.23,234.23,0,0,0,1108.5,211Z"/>
            <path class="cls-20"
                  d="M1106.5,456a47.58,47.58,0,0,0-1,15,50.36,50.36,0,0,0,13,29,51.3,51.3,0,0,0,28,15c14.2,2.4,25.1-2.1,32-5,10.3-4.3,16.6-9.7,26-18,9.6-8.4,15.7-13.7,20-23,4.9-10.6,4.2-19,6-19,2.2,0,6.2,12.3,5,25-.4,4.7-1.3,6.4,0,8,3,3.8,11.9-.7,30-5,19.2-4.6,28.8-4.1,30-9,.6-2.6-1.8-3.8-6-11-5.1-8.8-8.9-19.7-7-21,1.7-1.1,7,6.1,14,12,23.1,19.5,55.5,16.7,63,16a94.65,94.65,0,0,0,39-12,87.57,87.57,0,0,0,22-18,70.13,70.13,0,0,0,13-20c3.1-7.4,8.1-19.5,4-32-3.6-10.8-12.2-16.6-19-21-12.9-8.4-18.6-6.2-46-14-22.1-6.3-33.2-9.4-43-14-5.8-2.7-13.8-6.9-25-7a47.57,47.57,0,0,0-17,3c-10.9,4-17.3,10.9-21,15a67.22,67.22,0,0,0-13,22,73,73,0,0,0-4,18c-1.5,16.7,3.3,27,1,28s-6.1-8.7-17-20c-11.5-11.9-23-17.6-30-21-8.3-4-12.7-6.1-19-6-6.7.1-13.4,2.5-22,9-12.5,9.4-14.3,16.2-30,38C1117.2,434.25,1109.7,440.55,1106.5,456Z"/>
            <path class="cls-4"
                  d="M1125.5,450c-1.7,5.9-2.8,9.9-2,15,1.9,12.7,13.2,20.2,16,22,12.8,8.4,26.6,6.8,33,6,5.9-.7,18.2-2.3,29-12,9.6-8.6,12.8-18.9,15-26a67.47,67.47,0,0,0,3-25c-.4-5.8-1.4-18.5-10-31-4.7-6.8-12.1-17.6-24-19-14-1.6-25.4,10.9-31,17-4.7,5.2-1.9,3.8-16,27C1132.3,434.25,1128.3,440.15,1125.5,450Z"/>
            <path class="cls-19"
                  d="M1155.5,450c1-1.9,4.2-.9,12-2a68.88,68.88,0,0,0,15-4,46.71,46.71,0,0,0,10-5c4.5-3.1,5.9-5.5,7-5,1.7.8.2,7.8-2,13-1.4,3.3-3.6,8.3-9,12a23.73,23.73,0,0,1-13,4c-2.9.1-9.6.4-15-4C1157.8,456.85,1154.3,452.45,1155.5,450Z"/>
            <path class="cls-4"
                  d="M1278.5,372a63.46,63.46,0,0,0,5,20c5.7,14,9.3,23.1,18,32,14.1,14.5,31.1,18.3,39,20,6.9,1.5,20.1,4.3,36,0a59,59,0,0,0,25-13c4-3.6,9-8.1,12-16a36.91,36.91,0,0,0,1-23c-4-13.5-15.4-20.4-23-25-7.8-4.7-6.9-2.2-35-13-1.9-.7-10.5-4-22-8-10.3-3.5-14.5-4.7-20-5a42.7,42.7,0,0,0-17,2c-4.8,1.6-12.9,4.4-17,12C1277.6,360.35,1278,365.55,1278.5,372Z"/>
            <path class="cls-19"
                  d="M1316.5,406c.7-1.6,4.4-.4,14-1a83.74,83.74,0,0,0,19-3c11.8-3.6,17.2-9.7,19-8,1.6,1.6-1.8,7.8-4,11-1.7,2.4-7.8,10.5-19,13a28.44,28.44,0,0,1-13,0C1323.3,415.75,1315.4,408.65,1316.5,406Z"/>
            <path class="cls-2"
                  d="M1222.5,545a40.39,40.39,0,0,0,12,12,41.57,41.57,0,0,0,17,6c4.9.7,13,1.9,22-2a37.79,37.79,0,0,0,14-11,47.54,47.54,0,0,0,4-6"/>
            <path class="cls-2"
                  d="M1266.5,503a127.2,127.2,0,0,0,9,20c6,10.9,10.3,18.3,19,23a42.27,42.27,0,0,0,12,4,60.4,60.4,0,0,0,20,1,58,58,0,0,0,18-4,55.49,55.49,0,0,0,16-10,50.43,50.43,0,0,0,9-11,47.38,47.38,0,0,0,5-12"/>
            <path class="cls-2" d="M1290.5,574a9.35,9.35,0,0,0-1,5,9.2,9.2,0,0,0,3,6"/>
            <path class="cls-2" d="M1297.5,572a9.26,9.26,0,0,0,1,5,9.64,9.64,0,0,0,4,4"/>
            <path class="cls-4"
                  d="M1227.5,483c-1,1.7.5,5.7,1,8,.9,4.5,1.9,9,5,13a22.11,22.11,0,0,0,8,6c15.6,7.3,34.1-3.4,58-11a11.09,11.09,0,0,0,5-3c2.7-2.9,2.9-6.8,3-10a26.1,26.1,0,0,0-3-14s-1.8-7.3-8-9C1278.5,458,1233.5,473,1227.5,483Z"/>
            <path class="cls-19"
                  d="M1245.5,487c-.9-3.7,7.8-8.8,10-10,7.9-4.6,30.9-9,35-8,2.5.6,6.7,2.4,7,5,.4,3.2-4.9,6.2-10,9-6.6,3.6-16.6,9-30,8C1254,490.75,1246.3,490.25,1245.5,487Z"/>
            <path class="cls-21"
                  d="M950,969.55c-1.9-.7-7.3,5.9-9,14-1.3,6.2-.5,12.8,1,13,1.2.2,1.5-4.1,5-9,5.9-8.2,15.5-10.8,15-12-.4-1-7,2-10-1C950.1,972.65,951.2,969.95,950,969.55Z"/>
            <path class="cls-21"
                  d="M1498,1334.55c1.4-3.3,5.3-3.1,27-7,20.5-3.7,20.7-4.4,33-6a205.33,205.33,0,0,1,27-2c8.5,0,12.8,0,17,1,15.2,3.5,24.6,14,30,20,7.8,8.7,12.7,14.2,12,21-.8,7.6-8.2,10.5-24,21-31.3,20.7-36.7,32.1-50,30-4.8-.7-8.9-3.8-17-10-13.4-10.1-17-17.5-33-37C1502.7,1344.45,1495.9,1339.45,1498,1334.55Z"/>
            <path class="cls-22"
                  d="M1254,642.55c-5.2-2.4-16.2,3.1-38,14-23.8,11.9-42.4,21.3-61,40-16.4,16.5-24.6,32.1-34,50-12.2,23.2-7.9,22.3-28,70-15.5,36.8-23.3,55.2-30,64-4.9,6.4-14.8,18.5-12,22,1.5,1.8,5-.4,13-1,8.3-.6,9.4,1.4,30,4,5.9.7,9.5,1,14,0,1.5-.3,7-1.6,11-5,5.8-5,5.9-12.4,7-22s4.1-21.6,10-46c.9-3.7-.1.4,5.8-20.9,2.3-8.1,3.4-12.2,4.2-12.1,1.3.2-.2,12.1,3,29,.5,2.5,1.9,10.1,3,10,1.3-.1.4-11.2,2-26a134,134,0,0,1,8-35c6.1-15.8,14.8-27.6,16-27,.9.5-3.1,8.7-6,24-.6,3.3-2.9,15.4-1,16,1.2.4,3.2-4,10-14,4.7-6.9,7.1-10.3,8-10,2.5.8-2.3,19.9-7,44a683.73,683.73,0,0,0-10,84,144.26,144.26,0,0,0,1,22c1.6,15.3,4.2,20.4,7,24,3.1,3.9,3.8,2.6,9,8,6.7,6.9,6.6,10.1,13,18,5.8,7.1,6.8,5.6,12,12,2.9,3.6,4.1,5.9,11,20,9.7,19.9,10.6,22.1,11,26,.8,9.1-2.4,16.1-4,20-6,14.2-1.6,11.8-13,64-8.5,39-13,58.7-22,68-5.2,5.4-17,17.5-35,21-11.9,2.3-21.3-.1-23,4-2.3,5.5,11.4,16.1,15,19,16,12.6,29.5,14.3,29,18-.5,4-16.4,5.3-25,6-17.4,1.4-27.8-.4-28,1s10.5,5.7,23,7c11,1.2,16.2-.6,29-2,26.1-2.8,41.4.9,42-2,.4-2-6.9-3.2-20-11-8.3-5-14.9-10.6-28-22-9-7.8-10.6-9.8-10-11,1.2-2.8,12.5-.2,22,2,10.1,2.3,19.4,5.2,33,10,14.2,5,18.2,7,29,10,14.5,4.1,19.8,4.2,25,3,2.6-.6,12.5-2.8,17-11,3.1-5.6,2.3-11.4,2-14-1.9-15.3-.3-31-4-46-5.1-20.9-2.7-51.6,2-113,3.6-46.6,5.4-69.9,8-84a94.46,94.46,0,0,0,2-22c-.9-26.2-13.2-44.8-18-53-10.7-18.2-14.5-42.4-22-91C1248.2,706.35,1273.9,651.75,1254,642.55Z"/>
            <path class="cls-22"
                  d="M1203,1278.55c-.3,2,7.9,4.8,13,6,7.6,1.8,13.5,1.3,19,1,17.6-1.1,9.1.4,30-1,21.9-1.5,32.9-2.2,33-4,.1-2.1-13.9-4.9-25-6-10.5-1.1-14.6-.2-39,1C1211.5,1276.65,1203.3,1276.55,1203,1278.55Z"/>
            <path class="cls-22"
                  d="M1345,1266.55c.3-1.5,9.6-1,27,0,10.4.6,18.6,1.3,26,2,22.7,2.1,34,3.1,34,4,0,1.7-25.3,2.6-36,3-14.7.5-23.1.3-33-2C1354.7,1271.65,1344.7,1268.15,1345,1266.55Z"/>
            <path class="cls-22"
                  d="M1371,893.55c11-31,16.5-46.6,27-66,7.1-13.2,25.5-46,58-88,20.9-27.1,36.5-47.2,62-70,30-26.8,32.6-20.5,54-43,8.3-8.7,15.5-17.6,28-20,11-2.1,20.3,2,34,9,37.3,19.1,56,28.7,70,43,16,16.4,23.8,31.6,34,52,12.7,25.4,16.5,41.1,30,86,17.2,57.4,25.8,86.1,33,103,19.3,45.3,29,68,39,84,6.8,10.9,17.8,27,19,50a86.74,86.74,0,0,1-5,33c-18.4,55-51,107-51,107-64.4,102.7-85.7,105.1-100,138-1.7,3.9-8,19.2-16,19-4.6-.1-7.2-5.3-12-11s-13-10.7-29-21c-17.3-11.1-23.4-13.2-30-12-3.1.6-5.3,2.8-6,2-1.7-1.7,8.1-13,14-22,11-16.8,12.8-31.9,16-48,2.6-13.1,12.4-41.4,32-98,12.3-35.4,17.7-48.2,30-62a113.44,113.44,0,0,1,30-24,115.69,115.69,0,0,1,56-14c15.3.2,25,3.6,26,1,1.1-2.9-9.9-11.1-22-15-13.1-4.2-22.6-1.9-23-4-.4-2.3,10.5-7.7,23-9,15.6-1.6,26.7,3.9,27,3,.4-1.2-17.2-13-41-15-6.8-.6-31.5-1.8-54,13-13.5,8.9-21.8,20.6-24,19-2.6-1.9,7.8-19,5-21-2-1.4-7.4,7.4-15,8-9.9.8-18.1-13-27-27-13.5-21.3-26.4-41.5-42-59a139.94,139.94,0,0,0-44-32c-10-4.5-17.5-6.2-24-3-3,1.5-7.6,4.9-11,15-9.1,27.3,5.5,60.7,16,84,10.8,24.1,16.2,36.1,28,48,21.6,21.8,47.7,28.8,46,34-1.1,3.3-12.3,3-19,2-15.1-2.3-22.1-10.4-25-8-4.4,3.6,7.5,25.3,9,28,11,20,18.7,23.1,21,36,.4,2.2.8,5.5-3,24-5.9,28.8-8.9,31.3-13,52-4.6,23.5-2.4,28.7-9,38-2,2.8-8.5,11.3-26,18-20.9,8-33.9,4.3-86-1-44.2-4.5-52.9-3.7-63-13-7-6.4-16.5-19.3-23-30-5.8-9.5-6.8-13.1-13-21-9.9-12.6-13.8-11.6-18-20-4.7-9.4-6.2-23.2,0-33,4.6-7.3,9-5.1,17-14,2.4-2.6,11.5-13,12-28,.1-3.7.5-16.9-8-24-6.6-5.5-11.7-1.6-19-6-14.5-8.6-18.5-37.9-8-48,3.6-3.5,5.7-1.6,14-6,3.8-2,14.5-7.7,20-19,4.7-9.5,6.5-24.6-1-34-7.6-9.6-18.2-4.8-25-13C1358.8,931.95,1362.6,917.25,1371,893.55Z"/>
            <path class="cls-22"
                  d="M939,1036.55c-1.3.5-3.9,2.4-4,24,0,14.2,0,23.4,3,36,2.7,11.3,7.6,24.4,10,24,1.9-.4-1-8.8,3-20,4.4-12.5,12.5-14.9,12-24-.2-3.8-1.7-2.9-5-12-4.3-11.8-2.7-15.4-7-21C948.3,1040,942.7,1035.15,939,1036.55Z"/>
            <path class="cls-21"
                  d="M1122,917.55c-4.8,2.2-8.2,5.1-15,13-10.3,11.9-13.4,17.5-18,23-9.3,11.1-20.2,16.1-31,21-31.5,14.4-59.7,9.6-60,13-.2,2.7,15.5,7.3,33,9,15.2,1.5,55.8,5.5,88-20,6.2-4.9,12.5-13,25-29,5.2-6.7,8.8-11.7,8-18a18,18,0,0,0-9-13C1134.7,911.85,1125.5,915.95,1122,917.55Z"/>
            <path class="cls-21"
                  d="M1177,969.55c-6.3,1.8-6.2,10.7-12,22-5.7,11.1-13.6,17.6-20,23-15.2,12.7-28.6,14.7-28,17,.7,2.6,18.5,1.4,35-4,10.5-3.4,21.7-7.2,30-18a41.84,41.84,0,0,0,8-19c.8-5.5,2-13.3-3-18C1184.8,970.45,1180.7,968.45,1177,969.55Z"/>
            <path class="cls-21"
                  d="M1206,1001.55c-1.8.1.4,10.4-6,23-5,9.8-12.7,16.3-16,19-9.3,7.7-15.4,8.8-15,11,.6,3.3,15,6.1,26,0s14-18.6,15-23C1213.6,1016.25,1208.2,1001.45,1206,1001.55Z"/>
            <polygon class="cls-23" points="907 921.55 1083 921.55 1089 923.55 1093 927.55 1084 924.55 907 921.55"/>
            <path class="cls-24"
                  d="M1173,1316.55c-5.9,3.3-4.9,8.1-11,21-2,4.3-13.7,28.7-29,39a15.37,15.37,0,0,0-5,5c-4,7.1-.1,16.2,1,19s4.7,31.1,12,88c1.9,14.9,4,31.6,5,53,1.1,24.2,1.6,36.4,1,50-.2,4.2-1.3,5.8,0,6,24,3,146,3,168,3,10.7,0-3.6-25.5-12-34-7.2-7.2-15.9-10.1-25-13-17.9-5.8-31-4.7-31-6s11.6-3.6,25-2c15.7,1.8,24.9,7.9,26,6,1.5-2.5-13.3-14.2-18-18-18-14.3-27.9-18.5-27-21,1.1-3.1,18-1.5,33,4,10.4,3.9,16.8,8.5,18,7s-5.6-8.1-13-19c-6.3-9.3-9.5-16.9-13-25-6.7-15.6-6.5-24-14-76-3.5-24.1-3.1-19.4-4-27-3.4-28.5-2.7-44.2-7-45-3.1-.6-7.4,6.9-11,13-5.2,9-5.5,13.8-8,14-4.2.3-9.1-12.6-11-19-3.1-10.2-1.9-14.7-5-16-4.7-2-13.1,6.2-17,11-4.4,5.4-6.2,10.3-7,10-1.6-.6,7.1-16.7,1-25C1190.7,1313.85,1179.9,1312.65,1173,1316.55Z"/>
            <path class="cls-24"
                  d="M1440,1347.55c-12.6,7.3-19.8,16.2-27,25-6.6,8.2-16,19.7-21,37-.1.4,0,.1-4,22-3.3,18.3-4.3,23.6-2,25,1.5.9,3.7-.2,14-8,14.8-11.2,17.1-14.1,24-18,10.3-5.9,21.2-8.5,22-7,.7,1.3-6.5,5.6-20,18-8.3,7.6-10.9,10.8-11,15-.1,4.8,3.3,8.7,7,12,18.8,16.9,48.7,20.3,55,21,24.7,2.6,41.4-.2,42,3,.8,3.9-24.7,9.6-24,15,.7,5.8,30.7,6.8,38,7,29.5,1,46.5-3.2,47-1,.6,2.5-19.2,11.7-43,15-22.1,3.1-37.6-.3-38,2-.6,3.2,28.4,10.8,33,12,23.9,6.3,35.8,9.4,50,9,22-.6,31-7.8,39-1,4,3.4,5.6,9.6,9,22,2.2,8.2,8.6,20.7,4,22-21,6-161,6-202,4-7.1-.3-6.5-11.1-17-25a332.84,332.84,0,0,0-47-50c-25.3-22-26.8-16.9-36-29-10-13.1-7.8-18.4-21-58-11.1-33.2-17.8-44.9-12-51,3.6-3.8,8.1-1.3,29-1,21.4.3,32.2.5,43-5,2-1,17-8.8,24-25,4.4-10,1-12.4,5-19,9.4-15.4,36.4-16.6,54-11,2.7.9,14.1,4.5,14,9C1467.9,1338.25,1455.2,1338.75,1440,1347.55Z"/>
            <path class="cls-24"
                  d="M1485,1352.55c-1.2-.7-4-1.5-21,11-9.4,6.8-16.3,12-25,21-4.6,4.8-18.3,19-16,22,1.7,2.2,9.9-3.6,24-7,5.7-1.4,26.3-7.1,29-2,1.4,2.7-2.6,7.4-10,16-10.5,12.1-18.2,13.3-18,18,.3,7.5,19.1,12.3,22,13,14.1,3.6,26.4,1.5,35,0,9.8-1.7,8.4-2.8,26-7,15.4-3.6,19.2-3.4,20-6,1.9-6-14.7-21.2-33-22-17.4-.7-32,11.7-33,10-.8-1.3,9.1-6.3,14-18,1.4-3.4,3.6-8.5,2-14-2-7.1-7.8-6.7-12-14C1483.5,1363.85,1489.1,1355,1485,1352.55Z"/>
            <path class="cls-25"
                  d="M1394,626.55c-.3,4.9,3.6,7.4,4,18,.3,8.8-2.2,12.9,0,15,3.5,3.4,14.6-2.8,22-7,31.5-17.9,46-27.3,60-36,14.6-9,23.2-13.8,32-24,3-3.5,6-8,12-17,7.4-11.1,8.4-13.8,8-17-.7-6.1-6.1-12.2-12-13-8.1-1-14.4,8.6-22,17-12.6,14.1-25.1,20.7-50,34C1417.4,612.85,1394.7,615,1394,626.55Z"/>
            <path class="cls-25"
                  d="M1368,694.55c-4.9.6-9,14.3-5,18,2.4,2.2,6-.4,9,2s2.4,7.4,2,12c-.5,5.5-1.4,14.3-8,21-6.2,6.2-10.1,3.4-14,9-4.1,5.9.1,9.3-4,20-2.4,6.2-5,8.2-4,12,.9,3.5,4.6,7.2,8,7,6-.3,8.2-11.9,16-28,.9-1.9.6-1.1,18-29,21.3-34.2,22.2-35.9,27-42,6.7-8.5,12.9-15.1,12-16s-9.1,6-25,15c-13.1,7.4-17.9,8.6-22,7C1372.1,700.35,1371.4,694.15,1368,694.55Z"/>
            <path class="cls-25"
                  d="M1314,702.55c-6,2.2-.8,26.7,2,58,2.5,28.1,1.6,45,3,45s1.6-14.2,6-46c3.5-25.3,5.2-38,7-47,0,0,4.1-20.8,3-21-.8-.2-2.3,13.1-9,15C1320.8,707.95,1317.3,701.35,1314,702.55Z"/>
            <path class="cls-25"
                  d="M1311,642.55c-.7,2,1.4,3.2,5,11,2.5,5.3,3,8.1,4,8,1.2-.1.7-4.5,3-11s4.9-8.2,4-10C1325.2,637,1312.6,638,1311,642.55Z"/>
        </g>
    </g>
</svg>