<svg id="Layer_1" data-name="Layer 1" xmlns="http://www.w3.org/2000/svg" viewBox="0 0 1390.18 1599.27">
    <defs>
        <style>
            .cls-1{fill:#35383f;}.cls-1,.cls-10,.cls-11,.cls-12,.cls-13,.cls-14,.cls-15,.cls-16,.cls-17,.cls-18,.cls-19,.cls-2,.cls-3,.cls-4,.cls-5,.cls-6,.cls-9{stroke:#000;stroke-linecap:round;stroke-linejoin:round;}.cls-1,.cls-2,.cls-3,.cls-4,.cls-5,.cls-6,.cls-9{stroke-width:8px;}.cls-2{fill:#e8e8e8;}.cls-3{fill:#595952;}.cls-14,.cls-4{fill:none;}.cls-15,.cls-6,.cls-8{fill:#d9d9d9;}.cls-20,.cls-22,.cls-7{fill:#fff;}.cls-9{fill:#727272;}.cls-10{fill:#3a3731;}.cls-10,.cls-11,.cls-12,.cls-13,.cls-14,.cls-15,.cls-16,.cls-17,.cls-18,.cls-19{stroke-width:10px;}.cls-11{fill:#0b1626;}.cls-13{fill:#ef9ac7;}.cls-16{fill:#7c7567;}.cls-17{fill:#595448;}.cls-18{fill:#91929b;}.cls-19{fill:#b1b3ba;}.cls-20{opacity:0.2;}.cls-20,.cls-22{isolation:isolate;}.cls-21{fill:#282828;}.cls-22{opacity:0.05;}
        </style>
    </defs>
    <title>looking</title>
    <g id="Layer_7" data-name="Layer 7">
        <path class="cls-1"
              d="M805.17,1130.77c.06,2.68.46,10.87,1,19,1.09,16.24,1.63,24.37,3,28a26.69,26.69,0,0,1,2,10,27.73,27.73,0,0,1-1,7c-2.51,10.17-3.91,15.23-4,16-36,299-48,383.5-48,383.5h444c17-107,48-266.5,49-370.5.3-31.12-9-62-9-62-3.32-17.8-8.54-45.84-18-75-5.81-17.91-21.45-66.11-43-91-76.66-88.54-318.79,13.06-354,69C822.08,1072.86,804.67,1106.47,805.17,1130.77Z"
              transform="translate(0.01 0)"/>
        <path class="cls-2"
              d="M844.17,539.77a561.73,561.73,0,0,0,4,134c17.64,118.09,11.89,320,10,347-.24,3.38-1.12,14.13,5,24,7.23,11.66,20.32,15.78,28,18,73.47,21.22,119,17,119,17,42.45-3.93,65.79-6.1,85-25,17.88-17.59,23-40.6,29-68,7.1-32.19,6.35-57.54,6-71-1.2-45.65,0-91.34-1-137-2.77-123.73,20.28-243-8-284a322.29,322.29,0,0,0-24-30c-2.53-2.76-11.79-31.84-31-48-23.9-20.09-36.84-12.14-47-15-6.78-1.91-20-4.06-62,15-49.75,22.58-86.78,39.39-104,78C849.92,502.06,846.75,511.52,844.17,539.77Z"
              transform="translate(0.01 0)"/>
        <path class="cls-3"
              d="M836.17,1044.77c29-2.78,74-2,74-2,35.63.61,69.55-1.61,106-4,57.43-3.77,78.84-8.37,119-11,36.92-2.42,43.44-.19,54-5,1.45-.66,4.85-2.31,8-1,8,3.34,11,24.54,2,35-3.82,4.44-8.49,5.42-20,8-39.71,8.9-32.77,8.17-39,9-58.81,7.82-229.14,13.2-251,14-17.65.65-35.49-2.32-53,0-7,.93-12.78,2.09-19-1-15.17-7.54-20.23-34.1-13-40,2.6-2.12,5.22-.3,20-1C829.82,1045.5,833.16,1045.06,836.17,1044.77Z"
              transform="translate(0.01 0)"/>
        <path class="cls-2"
              d="M983.17,458.77c3.37,9,6.41,8,28,33,16.23,18.76,20.34,26,22,35s0,14.38,2,15c4.7,1.43,17.61-27.4,24-44,6.94-18,9.38-29.87,10-33,1.75-8.81,3.76-19.3,3-33s-1.28-23.09-8-32c-9.2-12.19-23.51-14.76-25-15-23.07-3.79-46.65,15.32-55,37C982.48,426.15,977,442.2,983.17,458.77Z"
              transform="translate(0.01 0)"/>
        <path class="cls-1"
              d="M766.17,495.77a41.12,41.12,0,0,1,9-16,37.35,37.35,0,0,1,10-7,50.62,50.62,0,0,1,21-5c24.75-1.14,44-34.29,55-30,9.44,3.67,5.28,31.73,3,62-3.33,44.17-.88,82.11,4,158,2.56,39.75,4.33,39.38,7,85,.52,8.91,2.1,37.08,3,92,2.07,126.69-4.22,107.54,0,148a496.25,496.25,0,0,1-1,95,112,112,0,0,1-6,26c-3.06,8.48-8.46,22.93-22,36-4.7,4.53-13.21,12.57-27,17a59,59,0,0,1-29,2c-6.57-1.3-16.18-3.19-21-11-2.33-3.78-2.62-7.44-3-13a74,74,0,0,1,2-23c1.55-5.83,2.7-27.88,5-72,1.57-30.11,2.36-45.17,2-64-.41-21.35-1.85-38.77-3-50a587.58,587.58,0,0,0-11-68C727.25,688.65,762.3,509.08,766.17,495.77Z"
              transform="translate(0.01 0)"/>
        <path class="cls-1"
              d="M815.17,498.77c-4.47-4.47,3.7-6.79,10-20,4.9-10.28,7.23-20.1,11-36,3-12.79,3.22-16.86,7-19,7.44-4.2,19.58,4.31,22,6,20.76,14.55,19.88,54.19,19,116-.81,56.55-1.93,154.19-2,160-.21,18.67-.74,37.33-1,56-.6,42.93-1.45,65.9-3,66-1.75.11-4.69-27.25-11-66-6-36.55-5.49-37.53-8-55-9.68-67.36,4-115.65-10-155-4.17-11.68-6.7-18.76-13-27C825.77,511.18,822.17,505.77,815.17,498.77Z"
              transform="translate(0.01 0)"/>
        <path class="cls-1"
              d="M760.17,477.77c7.61.3,13.77,6.74,20,16,17,25.36,20.74,51.27,24,76,7.16,54.34,10.74,81.51,11,88,2,48.89,3,73.34-6,95-14.17,34.15-52.76,80.63-98,74-26.16-3.83-48.94-24.61-59-47a87,87,0,0,1-7-40,62.1,62.1,0,0,1,5-22c3.34-7.51,7.43-12.3,14-20,7.17-8.39,8.86-8.67,18-19,6.08-6.87,9.12-10.31,12-15a68.78,68.78,0,0,0,9-25c5.24-29.55,6.36-55.45,11-82,4.74-27.13,10.75-41.21,17-52C736.8,495.05,747.12,477.27,760.17,477.77Z"
              transform="translate(0.01 0)"/>
        <path class="cls-1"
              d="M662.17,877.77c-4.11-1-2.69-3.05-23-34-11.83-18-18.2-26.32-19-40-.37-6.44.66-11,2-17,5.41-24.06,18.93-39.79,32-55,9.67-11.25,15.64-15.79,21-19a65,65,0,0,1,20-8c2.95-.59,18.24-3.66,27,1,19.4,10.31,10.43,60.43,9,68C720.8,828.61,683.39,883,662.17,877.77Z"
              transform="translate(0.01 0)"/>
        <path class="cls-1"
              d="M1190.17,452.77c9.22-4.87,20-4,20-4,16,1.29,26.85,13.38,31,18,24.71,27.47,35.26,84.36,39,104,8.2,43.14,20.38,107.17,34,154,6.23,21.43,8.79,43.88,16,65a83.85,83.85,0,0,1,5,28,87.69,87.69,0,0,1-3,22c-2.4,10.06-6.65,27.1-20,44a95.86,95.86,0,0,1-20,19c-17,11.86-25.17,8.73-55,22-17,7.54-18,10.2-22,9-17-5.15-13.6-58.77-13-111,0,0,.68-59.33-6-153C1188.07,556.19,1163.9,466.65,1190.17,452.77Z"
              transform="translate(0.01 0)"/>
        <path class="cls-4" d="M1227.17,724.77a234,234,0,0,0,25-86" transform="translate(0.01 0)"/>
        <path class="cls-4"
              d="M1276.17,829.77a107.46,107.46,0,0,0-23-13c-16.55-6.8-29.11-7-29-8,.13-1.21,19.66-3.15,41,4,12,4,20.07,9.39,21,8s-5-8.33-13-13c-18-10.49-36-3-39-10-1.26-2.95,1.16-6.63,6-14a86.49,86.49,0,0,1,17-19"
              transform="translate(0.01 0)"/>
        <path class="cls-1"
              d="M1087.17,424.77c4.59-1.74,7.76,5.91,28,13,15.37,5.38,29.15,6.45,37,7a144.63,144.63,0,0,0,27,0c8.29-.85,9.91-1.82,13-1,12.87,3.41,16.73,28.81,18,37,5.8,37.48,16.28,74.26,20,112,7.61,77.21,7.65,61.68,9,85,3.79,65.56-.51,119.62-3,151-1.94,24.37-3,25.08-4,45-1.55,29.48.22,36.58-5,48a47.39,47.39,0,0,0-5,18,45.39,45.39,0,0,0,2,16c5.36,18.47,5.8,38,9,57,3.76,22.27,2.46,45.72,10,67a19.7,19.7,0,0,1,1,11,20.43,20.43,0,0,1-6,10c-16.1,16.27-24.15,24.4-30,28-7.62,4.69-18,11-33,13-5.39.7-13.44,1.75-23-1-11.46-3.3-18.3-10.1-28-20a139.35,139.35,0,0,1-24-33c-4.89-9.4-10.9-20.94-13-37-1.53-11.72.47-14.73,0-40-.19-10.3-.66-17.25-1-23-2.29-39.18-3-103.64-3-108-.18-18-.58-65.17,2-116,5.82-114.81,19.76-109.06,18-173C1100.76,503.48,1073.05,430.13,1087.17,424.77Z"
              transform="translate(0.01 0)"/>
        <path class="cls-4" d="M1186.17,960.77q-46-44.88-45-46,.88-.94,35,29" transform="translate(0.01 0)"/>
        <path class="cls-1"
              d="M1066.17,395.77c-3.19,1.77,5.62,19.61,11,41,6.09,24.24,4.35,39.45,3,77-1.08,30-.49,60-1,90-.91,54.11-.13,45.28-1,117-1,81.63,1.75,115.69,5,116,2.35.22-.15-18.47,7-44,15.89-56.71,44-101,54-116,26.42-39.59,34-48,44-68-13-23-37-41-50-59,15-16,38-34,55-49,8.21-7.25-15.54-28.56-24-36-4.23-3.72-13.42-24-17-27s-8.76-2.25-11-2c-14.75,1.62-30.37-5.61-42-11C1076.67,414.36,1069.48,393.93,1066.17,395.77Z"
              transform="translate(0.01 0)"/>
        <path class="cls-5"
              d="M840.17,114.77c-3.33-4-9.46-1.91-23-3-18-1.45-22.84-6.47-38-10-5.66-1.32-35.63-8.29-65,6-6.46,3.14-22.28,11.1-33,29-12.18,20.34-10.13,40.75-9,52,.83,8.21,3.77,33.9,24,56,3.42,3.74,17.53,18.52,40,25,6.61,1.91,11.78,3.33,18,2,13.32-2.86,20.54-16,29-32,35.44-66.9,28.26-56.55,41-81C836.67,134.74,845.48,121.18,840.17,114.77Z"
              transform="translate(0.01 0)"/>
        <path class="cls-5"
              d="M942.17,74.77c.3-5.21,9.91-4.6,29-17,17.23-11.19,16.8-16.49,36-30,9.41-6.62,19-13.34,33-18,9.38-3.11,26-8.61,45-4,29.64,7.18,44.45,33.82,49,42a97.74,97.74,0,0,1,12,50c0,1.66-3,15.44-9,43-2.35,10.85-3.87,17.54-9,25-3.32,4.83-9.75,14.18-19,16-12.5,2.46-22.62-10.33-46-32-7-6.5-25-23.13-40-34C981.18,85.43,941.57,85.27,942.17,74.77Z"
              transform="translate(0.01 0)"/>
        <path class="cls-6"
              d="M725.17,430.77c2-3,3.9-5.65,10-14,7.3-10,9.7-19.72,12-29,2.2-8.87,3.09-17.55,3-29-.19-22.83-4.15-37.53-7-53-1.26-6.83-6.73-36.55-5-64,2.36-37.48,17.82-65.73,24-76,23.42-38.93,56.33-57.06,78-69,39.1-21.54,73.72-26.69,84-28,22.8-2.92,59.36-7.59,100,10,43.44,18.8,66.42,52.17,73,62,9.67,14.45,17.45,32.63,33,69a193.35,193.35,0,0,0,17,42,74.81,74.81,0,0,0,13,17c5.22,5.11,10.17,10,18,12,5.56,1.46,7,1,10,1,0,8-6.6,19.52-16,33-8,11.54-12.07,17.31-18,23-8.44,8.1-20.17,19.36-37,22-5.42.85-10.87.73-11,2-.16,1.53,7.5,4.18,15,5,12.87,1.41,18-1,22-3-1,2-8.47,12.06-15,17-14.67,11.09-22,16.63-34,23a441.89,441.89,0,0,1-63,27c-57.17,19-85.75,28.46-122,32-29.36,2.87-21.68-1.48-80,1-6.25.27-35-1-41-4,2-1,2.88-1.1,6-5a38.36,38.36,0,0,0,6-11,29.73,29.73,0,0,0,1-8s-4.95,3.73-7,5c-13.14,8.15-35.81,4.52-46,3C742.85,443,728.17,436.77,725.17,430.77Z"
              transform="translate(0.01 0)"/>
        <path class="cls-7"
              d="M796.17,145.77c-15.93,21.73-23.72,45.92-25,50a191.25,191.25,0,0,0-8,46c-.87,15.62.86,16.36,6,77a322.33,322.33,0,0,1,1,40c-.55,14.76-1.89,22.61-4,30-3.08,10.75-5.73,20-14,27-6.14,5.18-12.3,6.48-12,9,.36,3,9.14,4.12,16,5,11.14,1.43,18.36,2.36,28,0,6.39-1.56,16.15-4,24-12,2.67-2.74,4.54-5.53,6-5,2.36.85,1.95,9.73,0,17-3.45,12.85-10.74,17.17-9,21,2,4.4,13.51,2.94,23,2,19.91-2,40-.79,60-2,39.84-2.42,33.39,0,48-2,5.07-.7,14.41-2.19,64-18,33-10.52,45.83-15.28,53-18a375.47,375.47,0,0,0,47-22c19.88-11,21.38-14.19,21-15-.51-1.1-4.92,1.2-12,0a29,29,0,0,1-13-6c-2.81-2.16-10.19-7.83-9-12,1.06-3.7,8.06-3.34,19-6,5.32-1.29,18.13-4.9,30-13,9.14-6.24,14-12.63,22-23,5.94-7.74,12.76-16.78,10-21-1.16-1.78-3.17-1.39-8-3,0,0-5.68-1.89-14-8-10.47-7.69-15.8-22.63-17-26,0,0-5.69-15.93-25-65-7.43-18.89-13.43-34.13-25-50-20-27.49-45.2-40.91-55-46-49.45-25.69-97.59-18.52-113-16C893.58,83.64,832.56,96.13,796.17,145.77Z"
              transform="translate(0.01 0)"/>
        <path class="cls-8"
              d="M784.17,333.77a32.38,32.38,0,0,0,7,13c7.91,8.9,18.45,10.51,22,11,11,1.51,19.54-2.19,28-6,14.17-6.37,13.9-10.44,30-20a149.21,149.21,0,0,1,35-15c8.81-2.64,17-5,28-5,8.81,0,13.83,1.59,21,3,7.73,1.52,36.7,6.89,65-3,14.32-5,19.59-10.81,22-14,1.36-1.79,7.39-9.78,7-20-.51-13.28-11.56-22-23-31a111.83,111.83,0,0,0-48-22c-10.32-1.91-24.45-4.35-41,1-7.81,2.53-18,5.82-25,15-12.3,16.09-5.28,37.66-11,39-3.43.81-5.55-7-17-16-3.84-3-10.6-8.29-19-10-11.3-2.3-20.72,2.84-32,9-7.77,4.24-22.54,12.52-35,30C790.67,303.27,780.12,318.08,784.17,333.77Z"
              transform="translate(0.01 0)"/>
        <path class="cls-5"
              d="M793.17,318.77c-.88,6.16-.35,10.37,1,14,5.59,15.07,24.89,19.32,28,20,15.6,3.43,28.28-2.38,34-5a52.8,52.8,0,0,0,21-16c7.12-9.27,9-18.48,10-24,1.43-7.6,3.49-18.54-2-30-1.38-2.87-5.51-11.49-15-16-1.73-.82-8.48-3.8-20-2C821.92,264.19,797,292.35,793.17,318.77Z"
              transform="translate(0.01 0)"/>
        <path class="cls-7"
              d="M833.17,311.77c.42-2.79,3.28-4.53,9-8,4.75-2.88,8.32-4,15-6,5.87-1.79,7.1-1.63,8-1,3,2.12,1.48,8.88,1,11-.61,2.69-2,8.92-8,13-1.15.79-6.41,4.38-13,3C838.78,322.43,832.44,316.69,833.17,311.77Z"
              transform="translate(0.01 0)"/>
        <path class="cls-5"
              d="M933.17,267.77c-2-9.62-.46-14.63,0-16a26.81,26.81,0,0,1,10-13c8.49-6.21,17.83-6.18,28-6,4.17.07,18.32.61,36,8,13,5.45,21.23,8.88,27,18,1.83,2.89,7.48,12.78,5,25-2.65,13.08-12.85,20.13-17,23-19.82,13.7-43.73,7-50,5a59.69,59.69,0,0,1-20-11C937.67,288.45,934.2,272.75,933.17,267.77Z"
              transform="translate(0.01 0)"/>
        <path class="cls-7"
              d="M953.17,273.77c1.09-2.88,4.81-3.76,10-5a36.34,36.34,0,0,1,20,1c3.84,1.16,6.22,1.92,7,4,1.35,3.63-3.3,8.3-5,10a19.2,19.2,0,0,1-11,6,18.8,18.8,0,0,1-13-3C957.08,284.08,951.51,278.14,953.17,273.77Z"
              transform="translate(0.01 0)"/>
        <path class="cls-4"
              d="M913.17,334.77c3.77,12.89,6.69,22.57,8,27a11.46,11.46,0,0,0,2,4,12.82,12.82,0,0,0,6,4c16.79,6,27,7,27,7,6.32.59,9.57.87,14,0a37,37,0,0,0,23-15"
              transform="translate(0.01 0)"/>
        <path class="cls-8"
              d="M1006.17,342.77c-.14.85,3.47.85,6,4,3.09,3.84,1.69,8.77,3,9,1,.18,2.49-2.63,3-5,.23-1.09,1-4.53-1-7C1014,339.8,1006.37,341.56,1006.17,342.77Z"
              transform="translate(0.01 0)"/>
        <path class="cls-4"
              d="M889.17,393.27a29.18,29.18,0,0,0,11-1,29.92,29.92,0,0,0,11-6c3.35-2.89,5.24-5.93,9-12,1.77-2.86,3.11-5.31,4-7"
              transform="translate(0.01 0)"/>
        <path class="cls-5"
              d="M887.6,310.81l42.74-12.24c6.91-2,14.07,2.14,16.34,9.4l1.32,4.25c2.44,7.82-1.71,16.23-9.12,18.49l-42.56,13c-7,2.15-14.38-2.06-16.6-9.5l-1.5-5C875.86,321.32,880.14,312.95,887.6,310.81Z"
              transform="translate(0.01 0)"/>
        <path class="cls-7"
              d="M910.21,308l23.31-6.68a7.31,7.31,0,0,1,8.91,5.13l.72,2.32a8,8,0,0,1-5,10.09L914.94,326a7.31,7.31,0,0,1-9-5l0-.13-.82-2.73A8,8,0,0,1,910.21,308Z"
              transform="translate(0.01 0)"/>
        <path class="cls-5"
              d="M837.17,560.77c-4.26-4.54,2-11.75,3-41,.39-11-.25-16.73-1-21-2.34-13.37-5.83-13.8-7-23-1.56-12.32,4.55-12.66,8-36,2.54-17.2,3-25,3-25,.37-6.3.33-10.7,3-16,1.23-2.45,4.67-9.29,11-11,8.84-2.38,18.48,6.58,23,13,6.16,8.75,7,18.77,8,30,1.24,14.29-.86,20.89,4,25,4,3.38,9.77,2.62,14,2,12.23-1.79,19.53-8.74,33-20,15.45-12.92,9.53-6.84,29-23,18.18-15.09,22.1-19.35,32-23,6.44-2.37,17.73-6.54,27-1,7.43,4.44,9.7,12.81,10,14,1.53,6,2.38,20-27,49-25.39,25-35.12,23.47-69,50-26.18,20.5-27.94,27.35-51,41C884.06,548.39,846.21,570.39,837.17,560.77Z"
              transform="translate(0.01 0)"/>
        <path class="cls-5"
              d="M913.17,503.77c20.66-14,44-24.66,62-42,7.91-7.64,19.09-19.82,36-22,3.52-.45,10.76-1.29,15,3,5.94,6,2.34,18.4,1,23-2.19,7.52-4.55,8.64-9,19-4,9.23-4,12.88-6,18-5.36,14-18.14,21.58-29,28-10.23,6-15.09,6.6-50,18-18.27,6-18.89,5.71-24,8-19.68,8.82-25.6,17.59-32,15-7-2.82-9.9-17.29-7-29C873.29,530.19,882.12,524.83,913.17,503.77Z"
              transform="translate(0.01 0)"/>
        <path class="cls-2"
              d="M810.17,585.77c1.67-4.2,4.41-5.11,11-17a134.53,134.53,0,0,0,10-22c2.63-7.59,1.81-7.53,3-9,10.67-13.2,54.85,8.92,61,12a68.62,68.62,0,0,1,20,17c1.64,2,3.83,5,4,9a15,15,0,0,1-3,9c-2.38,3.56-6.92,12-16,29-6,11.11-4.33,11.64-11,24-5.92,11-8.87,16.44-12,18C857.46,665.58,800.51,610,810.17,585.77Z"
              transform="translate(0.01 0)"/>
        <path class="cls-1"
              d="M644.17,836.77c-.89-4.52-3.2-16.21-3-26,.24-11.92,5.17-21.77,15-41,7.87-15.39,11.81-23.09,19-33,13.32-18.35,27.42-30.06,43-43,17.89-14.85,22.6-16,33-28,2.34-2.69,6.37-7.55,19-27,12.21-18.8,18.91-28,23-37,2.11-4.61,4.07-8.41,8-16,5.4-10.44,6.5-11.86,8-13,2.71-2.06,9-4.93,27,2,36.12,13.91,47.52,39.65,66,55,1.33,1.11,5.08,4.14,6,9,.85,4.53-1.18,8.41-2,10-5.5,10.58-8.85,22.46-16,32-17.83,23.77-32,66.68-41,94-4.66,14.13-8,26.63-18,43a159,159,0,0,1-19,25c-17.35,19.19-21.52,16-61,47-5.34,4.19-16,12.7-32,18-9.13,3-14.09,3-16,3-14-.37-24.07-8.84-29-13-16.2-13.68-22-32.16-26-45A158.18,158.18,0,0,1,644.17,836.77Z"
              transform="translate(0.01 0)"/>
        <path class="cls-4"
              d="M687.17,733.77a113.26,113.26,0,0,0-9,28c-2.71,14.86-1.75,26.56-1,35a155.25,155.25,0,0,0,6,31"
              transform="translate(0.01 0)"/>
        <path class="cls-4"
              d="M697.17,665.77c9.56-8.27,16.91-15.64,22-21,6.26-6.61,10.93-12.16,20-23,7.58-9,13.73-16.66,18-22"
              transform="translate(0.01 0)"/>
        <path class="cls-4"
              d="M792.17,989.77a81.86,81.86,0,0,0,15-10c6.88-5.8,12.71-12.72,18-19,4.41-5.24,6.61-8.26,7-8,.55.36-2.76,7-7,13a86.54,86.54,0,0,1-15,16,131.27,131.27,0,0,1-16,12"
              transform="translate(0.01 0)"/>
        <path class="cls-4"
              d="M850.17,993.77c-2.82-2.41-.63-9.07,0-11,2.36-7.17,8.84-15.3,13-14s6.52,12.12,2,19C861.49,993.38,853.23,996.38,850.17,993.77Z"
              transform="translate(0.01 0)"/>
        <path class="cls-4"
              d="M849.17,898.77c-3.41-1.84-2.67-10-1-15,2.68-8,10.39-15.68,15-14,3.6,1.31,4.8,8.14,4,13C865.47,893.16,853.59,901.15,849.17,898.77Z"
              transform="translate(0.01 0)"/>
        <path class="cls-4"
              d="M966.17,518.77c.4,19.84.23,36,0,47-.59,28.55-.89,42.82-2,56a229.53,229.53,0,0,0-1,25c.13,7.84.6,11.16,1,19,.59,11.66.31,19.65,0,31-.79,29.38-1.19,44.07-1,55,.52,29.61,3.81,26.65,4,51,.24,30.32-4.88,32.42-5,64-.08,20.79,2.07,37.74,4,53,5.15,40.64,9.9,40.65,7,55-4,20-16.13,34.12-9,46,1.24,2.07,3.5,4.71,8,10,5.23,6.13,9.84,10.88,13,14"
              transform="translate(0.01 0)"/>
        <path class="cls-4"
              d="M979.17,545.77c-1.53.6-2,5.34,0,7,2.26,1.91,8,0,8,0h0C989.67,555.33,982.47,544.47,979.17,545.77Z"
              transform="translate(0.01 0)"/>
        <path class="cls-4"
              d="M978.17,634.77c-1.85,3.75-.13,9.14,3,10,2.29.63,4.79-1.32,6-3,2.54-3.52,2.05-9.58-1-11C983.67,629.6,979.67,631.69,978.17,634.77Z"
              transform="translate(0.01 0)"/>
        <path class="cls-4"
              d="M978.17,738.77c-3.38,2.37-2.87,9.48,1,12a6.47,6.47,0,0,0,7,0c3-2.1,3.34-7,1-10C985,737.93,980.67,737.05,978.17,738.77Z"
              transform="translate(0.01 0)"/>
        <path class="cls-4"
              d="M980.17,866.77c-2.16,1.51-1.89,5.63,0,8,1.65,2.07,5,3.39,7,2,2.16-1.51,1.89-5.63,0-8C985.52,866.7,982.16,865.38,980.17,866.77Z"
              transform="translate(0.01 0)"/>
        <path class="cls-4"
              d="M980.17,970.77c-3.09,2.32-2.52,8.62,1,11a6.26,6.26,0,0,0,7,0c2.69-2,2.93-6.25,1-9C987.05,969.77,982.6,969,980.17,970.77Z"
              transform="translate(0.01 0)"/>
        <rect class="cls-9" x="930.24" y="1038.7" width="99" height="49" rx="12" ry="12"
              transform="translate(-52.88 51.29) rotate(-2.92)"/>
        <path class="cls-4" d="M952.17,1098.77c.47,6.72,1.12,13.73,2,21,1.11,9.16,2.47,17.83,4,26"
              transform="translate(0.01 0)"/>
        <path class="cls-4"
              d="M904.17,1132.77c.79-4.77,1.77-9.78,3-15,2.94-12.51,4.59-21.11,6-21,1.7.14.12,12.58,5,29a88.32,88.32,0,0,0,6,15"
              transform="translate(0.01 0)"/>
        <path class="cls-4"
              d="M1058.17,1120.77a188,188,0,0,1,1-20c.46-4.43,1.55-15,3-15,1.21,0,1.43,7.34,4,17a90.36,90.36,0,0,0,8,20"
              transform="translate(0.01 0)"/>
        <path class="cls-4" d="M1210.17,1134.77c6.22,59.07,9.32,72.1,11,72,2.39-.14,3-27,3-40a344.79,344.79,0,0,0-2-36"
              transform="translate(0.01 0)"/>
        <path class="cls-4"
              d="M1220.17,1212.77c1.12,13.89,2.41,33.49,3,57,.22,8.68.68,31.76-2,97-2.19,53.16-3.35,80.44-7,115-2.66,25.2-5.67,46.15-8,61"
              transform="translate(0.01 0)"/>
        <path class="cls-4"
              d="M1016.17,1407.27c-1.06,24.34-2.14,44.79-3,60-3.31,58.54-5.81,83-7,94-1.51,13.94-3,25.39-4,33"
              transform="translate(0.01 0)"/>
        <path class="cls-4"
              d="M988.17,1422.77c-4.71,11.61-11.52,28.17-20,48-11.87,27.75-21.48,49-31,70-5.77,12.72-13.57,29.79-23,50"
              transform="translate(0.01 0)"/>
        <path class="cls-4" d="M814.17,1185.77a80.76,80.76,0,0,1,14,0,66.8,66.8,0,0,1,24,6,61.63,61.63,0,0,1,16,11"
              transform="translate(0.01 0)"/>
        <rect class="cls-3" x="941.11" y="1045.65" width="76.69" height="36.06" rx="12" ry="12"
              transform="translate(-52.91 51.28) rotate(-2.92)"/>
        <path class="cls-7"
              d="M833.67,560.27c-.17-2.29,1.43-2.26,5-11,2.18-5.32,1.83-6,3-7,2-1.84,5.86-2.45,21,3,13,4.68,19.55,7.1,21,11,2.48,6.67-3,14.36-7,20-3.73,5.25-6,5.85-7,6-3.92.64-6.89-2.66-11-6C844.93,565.11,834.13,566.27,833.67,560.27Z"
              transform="translate(0.01 0)"/>
        <path class="cls-7"
              d="M1026.67,490.27c0,4.38,4,5.73,8,13,4.3,7.9,2.93,12.57,5,13,4.3.9,12.81-18.67,17-35,1-4,2-10.34,4-23,2.24-14.3,2.27-17.45,1-18-2.35-1-8.11,7.34-12,13-10.16,14.76-7.9,17.94-16,27C1029.53,484.9,1026.67,486.6,1026.67,490.27Z"
              transform="translate(0.01 0)"/>
        <path class="cls-7"
              d="M901.67,708.27c6.45-10,11.26-7.59,22-23,2.66-3.82,4.73-7.36,17-31,9.3-17.91,11.5-22.41,13-22,2.36.64.12,12.6-1,30-1.82,28.25,2.09,27.82,1,59-1.12,31.93-5.23,32.79-2,48,2,9.33,4.93,15.62,2,24-1.83,5.24-6.22,10.49-15,21-5.57,6.67-9.75,11.1-9,12,1.26,1.52,13.67-10.24,19-7,4.05,2.46,1.42,12,0,23-3,23.39.77,42.66,4,59,4.21,21.32,9,25.23,8,41-.4,6.58-.95,15.6-6,25-11.63,21.64-36.34,25.18-35,32,1.21,6.19,21.88,4.92,22,8,.13,3.31-23.33,13.67-39,2-.67-.5-9.7-7.44-11-19-1.06-9.42,3.92-13.92,7-24,4.13-13.5-.63-19-2-39-.91-13.37,1.2-11.12,5-51,1.81-19,2.94-31.13,3-47,.05-12.93-.63-21.8-2-39C898.1,732.83,892.72,722.15,901.67,708.27Z"
              transform="translate(0.01 0)"/>
        <path class="cls-7"
              d="M981.67,608.27c10.13-14.59,13.32-17.94,17-24a87.6,87.6,0,0,0,9-21c4.94-16,3.39-24.6,6-25,3.35-.52,10.39,12.86,11,27,.35,8.21-1.6,13.33,0,14,3.38,1.42,15.41-19.94,16-21,10-17.88,11.14-27.15,14-27,6.32.33,8.67,46.13,9,53,1.42,29.34.07,43.94-1,82-1.19,42.54-1.79,63.81-1,83,1.58,38.52,4.94,46.07,0,66-5.68,22.91-17.53,42.86-13,46,3.41,2.37,11-8.38,17-6,7.29,2.88,2.9,21.22,4,61,.81,29.18,1.21,43.77,2,49,1.71,11.32,3.61,17.78,0,25-4.86,9.73-15.79,13-29,17-11.9,3.58-39.12,11.78-48,0a16.46,16.46,0,0,1-2-15c4.09-10.72,19.48-9.49,21-17,1.2-5.93-8-8.56-17-22-3-4.49-12-18-10-33,1.07-7.84,4-7.47,11-24,5.7-13.45,8.55-20.17,8-27-1.09-13.52-11-13.33-16-31-2-7.2-2-15.14-2-31,0-10,0-15,1-19,3.73-15.07,12.43-15.47,17-29,3.87-11.46,2.55-25.77-4-36-6.37-9.94-12.18-7.45-18-17-7-11.57-7.1-29.32,1-40,5.9-7.78,11.58-5.8,18-15,3.56-5.1,9.21-16.33,5-23-6.11-9.68-28.57-2.82-31-10C976.09,616.57,977,615,981.67,608.27Z"
              transform="translate(0.01 0)"/>
        <path class="cls-8"
              d="M915.33,400.67c2.36-.31,3.13,3.31,7.33,5.67,5.48,3.07,12,1.27,15.33.33,10.57-2.93,15.05-10.22,16.67-9s-.95,8.65-6,14c-8.22,8.7-19.89,8.08-21,8-1.36-.09-14.58-1.17-16.67-8.67C909.79,406.67,912.53,401,915.33,400.67Z"
              transform="translate(0.01 0)"/>
        <path class="cls-8"
              d="M816.33,365.33c-.06.73,11.72,4,25.67,2,5.08-.73,16.25-2.48,25.33-11,4.62-4.34,8.12-9.87,7.33-10.67s-5.66,4.06-15,9.33a81.79,81.79,0,0,1-21.33,8.67C825.56,366.67,816.38,364.69,816.33,365.33Z"
              transform="translate(0.01 0)"/>
        <path class="cls-8"
              d="M959.67,319c-.36,1.33,10,6.19,21.33,8a64.59,64.59,0,0,0,23.33-.67c10.11-2.13,20-6.69,19.67-8-.43-1.52-14.15,3.54-35,3.33C971.28,321.49,960,317.63,959.67,319Z"
              transform="translate(0.01 0)"/>
        <path class="cls-8"
              d="M827.67,245c.75.66,5.11-4,15-11,7.74-5.51,11.69-8.27,15.33-8.33,10.15-.18,16.56,12.58,18.33,11.33,1.46-1-1.22-10.8-9-16A19.75,19.75,0,0,0,854,217.67c-6.85,1-10.89,5.8-18,14.33C831.59,237.3,826.81,244.24,827.67,245Z"
              transform="translate(0.01 0)"/>
    </g>
    <g id="Layer_4" data-name="Layer 4">
        <polygon class="cls-10" points="871.76 1378.52 872.18 1594.27 940.18 1594.27 940.18 1393.48 871.76 1378.52"/>
        <polygon class="cls-10"
                 points="1214.76 1328.27 1215.18 1594.27 1283.18 1594.27 1283.18 1346.72 1214.76 1328.27"/>
        <path class="cls-11"
              d="M182.17,1485.77a311.54,311.54,0,0,0-15,32c-1.93,4.89-11,28.24-17,62-2.21,12.44-3.32,12.16-3,14.5h451c-11-58-31.47-118-60-144.5C418.55,1338.53,209.59,1436.68,182.17,1485.77Z"
              transform="translate(0.01 0)"/>
        <path class="cls-11"
              d="M242.17,1538.77a130.53,130.53,0,0,1,44,2c20.52,4.58,29.85,12.21,58,22a321.73,321.73,0,0,0,35,10"
              transform="translate(0.01 0)"/>
        <path class="cls-11"
              d="M342.17,1544.77a123.4,123.4,0,0,0,35,10c16.84,2.19,29.77.27,45-2a271.18,271.18,0,0,0,42-10c11.23-3.59,16.52-6,43-17,16.14-6.69,29.56-12.17,39-16"
              transform="translate(0.01 0)"/>
        <path class="cls-11"
              d="M444.17,1575.77a156.37,156.37,0,0,0,28-6c10.06-3.16,17.52-6.64,31-13,9.34-4.41,16.9-8.3,22-11"
              transform="translate(0.01 0)"/>
        <path class="cls-12"
              d="M194.17,753.77c-7.71,8.38-2.23,16-15,42a135.25,135.25,0,0,1-18,28,143.4,143.4,0,0,1-24,22c-12.58,9.37-14.74,8.17-16,11-7.71,17.35,77.26,54.13,159,130,43.52,40.4,59.16,66.85,85,63,24.71-3.68,39-32.14,54-62,0,0,32.12-64,15-142a56.42,56.42,0,0,0-6-16c-6-10.25-13.8-15.24-23-22-17.2-12.63-20-17.34-29-24-17.71-13.06-34.55-15.24-97-26C217.31,747.11,203.18,744,194.17,753.77Z"
              transform="translate(0.01 0)"/>
        <path class="cls-13"
              d="M474.17,848.77c8.38-3.56,22.84,8.44,38,21,14.86,12.32,23.77,25.1,30,35,12.74,20.24,21.72,40.25,39,91,15.31,45,23,67.48,27,85,3.39,14.74,9.63,44.8,19,66,8.24,18.64,12.36,28,14,30,2.74,3.42,6.23,7,6,12-.12,2.59-1.34,7.45-11,14-22.08,15-47,12-47,12-21.69-2.59-36.12-14.86-41-19-34.89-29.65-39.34-87.48-46-139C485.15,925.2,456.46,856.27,474.17,848.77Z"
              transform="translate(0.01 0)"/>
        <path class="cls-13"
              d="M550.17,1217.77c-1-7.73,10.35-15.28,22-23a84.94,84.94,0,0,1,38-14c5.57-.54,14.41-1.31,25,2,7.44,2.33,17,5.33,21,14,4.65,10.2-1.64,21.38-2,22-9.59,16.48-35.3,16.83-48,17C584.33,1236.07,551.82,1230.15,550.17,1217.77Z"
              transform="translate(0.01 0)"/>
        <path class="cls-13"
              d="M696.17,1209.77c-1.13-3.48-6-4.11-21-7-35.52-6.85-35.36-8.58-45-8-6.68.4-19,1.28-32,9a66.22,66.22,0,0,0-18,16c-6.59,8.41-14.24,18.17-12,26,4.06,14.21,40.18,20.61,68,12,12.87-4,21.92-11,40-25C697.56,1216.2,696.61,1211.12,696.17,1209.77Z"
              transform="translate(0.01 0)"/>
        <path class="cls-12"
              d="M651.17,1240.77c.3-9.07,6.59-16.25,9-19a40.55,40.55,0,0,1,16-11c11.27-4.49,21.38-3.15,30-2,7.07.94,6,1.66,24,6,17,4.1,18.39,3.57,21,6,8.35,7.79,7.58,25.94,0,38-7.86,12.51-21.41,15.87-30,18-6.43,1.59-28.72,6.08-49-7C667.17,1266.55,650.67,1255.9,651.17,1240.77Z"
              transform="translate(0.01 0)"/>
        <path class="cls-13"
              d="M408.17,800.77c2.75-2,11.82,8.66,32,23,9.06,6.44,9.91,6.19,25,16,20.45,13.3,30.67,19.95,36,25,24.1,22.84,29.58,54.7,31,63,2,11.9,4.62,26.93,3,41a72.9,72.9,0,0,0,0,19,71.76,71.76,0,0,0,3,13c7,21.41,33.72,74.95,47,114a165.5,165.5,0,0,1,7,29c1.47,9.86,2.81,19.37,1,31-1.9,12.22-5.51,15.41-9,27-4.91,16.27-3.54,29.05-3,40,2.1,42.26-6.35,89.72-8,99-8,44.91-17.69,49.92-17,84,.46,22.76,4.91,26.39,1,38-10.18,30.23-52.4,41.39-85,50-41.24,10.9-74.73,10.51-102,10-29.23-.55-59.17-1.1-96-11-25.9-7-35.67-13.29-60-14-21.45-.63-40.35,3.51-43-3-1.42-3.48,3.19-6.65,9-16a103.24,103.24,0,0,0,13-43c1.26-17.73-4-31.47-6-37-23.46-63.87-37-131-57-196-43.37-140.75-44.34-237.28-74-274-3-3.68-18.56-22-13-32,2-3.58,5.69-4.21,13-7,8-3,16.65-8.36,34-19a256.57,256.57,0,0,0,30-21c17.4-14.25,22.44-27.74,27-26,3.83,1.46.9,10.83,4,21,1.42,4.64,6.31,16.72,40,32,14.63,6.64,53.12,24.1,88,23a109,109,0,0,1,35,5c8.19,2.58,11.33,4.71,13,6,11.11,8.59,12.86,23.23,14,30,6.39,38,34.77,73,41,71,1.28-.42,1.65-2.42,2-17,.63-26.27,0-44.65,0-46-.87-25.72-1.35-38.67-4-43-1.3-2.14-4.4-6.62-3-11s6.54-5.75,11-8c16.6-8.36,22.38-29.17,24-35a65.13,65.13,0,0,0,2-23C412.81,811.7,405.67,802.63,408.17,800.77Z"
              transform="translate(0.01 0)"/>
        <path class="cls-14"
              d="M351.17,1240.77a273.23,273.23,0,0,0,50-12,281.5,281.5,0,0,0,55-26,286.9,286.9,0,0,0,36-26"
              transform="translate(0.01 0)"/>
        <path class="cls-14" d="M480.17,1222.77a203.49,203.49,0,0,0,57-23" transform="translate(0.01 0)"/>
        <path class="cls-13"
              d="M71.17,886.77c-19.28-1.16-35.58,13.67-37,15-6.3,5.88-11.64,13.76-17,31-11,35.37-8.38,66-8,70,2.75,28.85,10.75,50.79,30,94,30,67.28,35.91,70.87,61,127,14,31.25,22.78,54,43,93,11.41,22,27.14,50.6,57,69a98.58,98.58,0,0,0,28,12c10,2.51,33.94,8.52,52-2,18.6-10.83,21.76-33.82,27-72,0,0,5.79-42.17-6-65a133.92,133.92,0,0,0-10-16c-4.92-6.63-8.28-9.69-12-14-7.78-9-10.75-16.09-16-26-8.46-16-9.62-14.34-24-38a657.9,657.9,0,0,1-35-66c-3.43-7.46-7.38-16.1-12-28"
              transform="translate(0.01 0)"/>
        <path class="cls-13"
              d="M240.17,1295.77a99.06,99.06,0,0,1,26-27c18-12.48,35.83-15.24,55-18,20.33-2.93,21.53-.28,52-2,44.81-2.54,52.17-8.83,60-2,17.4,15.17.46,63.1-11,86-5.17,10.33-12.34,24.34-27,38-30.91,28.8-68.64,31.4-92,33-33.59,2.31-57,13.45-71.5-2.5"
              transform="translate(0.01 0)"/>
        <path class="cls-12"
              d="M350.17,1287.77c6.21-12.33,15-19.23,20-23,3.29-2.51,13.1-9.56,34-15,16.34-4.25,21.47-2.84,58-6,30.55-2.64,25.62-3.51,40-4,27.74-.94,34.9,2.68,51-3,4.8-1.69,7.55-3.21,11-2,10.61,3.72,15.16,28.84,8,47-3.35,8.49-9.2,15.31-32,30-23.09,14.87-35,19.44-83,42-25.21,11.86-34,16.3-49,17-8.77.41-25.36,1-41-10a56.77,56.77,0,0,1-21-28C338.86,1311,347.84,1292.4,350.17,1287.77Z"
              transform="translate(0.01 0)"/>
        <path class="cls-14"
              d="M236.17,1484.77c5.62.49,14,1.37,24,3,27.59,4.48,39.39,10,56,14,27.11,6.5,48.9,4.54,77,2a335.62,335.62,0,0,0,60-11"
              transform="translate(0.01 0)"/>
        <path class="cls-12"
              d="M324.17,371.77c.78-5.18,9.85-11.79,28-25,17.59-12.8,29.11-21.19,47-27,12.68-4.12,27.49-8.93,46-5,23.08,4.9,36.91,20.2,42,26,19,21.66,21.22,46.49,22,57,1.78,24-5.23,42.12-11,57-5.55,14.32-11.24,22.64-19,34-7.09,10.38-9.23,11.54-11,12-12.47,3.23-26.51-23.34-43-44C379.51,399.56,320.73,394.74,324.17,371.77Z"
              transform="translate(0.01 0)"/>
        <path class="cls-15"
              d="M6.17,647.77c1.49-.54,3.43,8.58,11,11,9.67,3.09,20.92-7.18,24-10,11.62-10.61,16.49-24.17,20-39,5.63-23.77,4.49-37,6-57,.87-11.53,3.54-44.14,16-75,13.72-34,35-55.23,44-64,48.34-47.24,107.4-55.79,132-59,26-3.39,77-9.35,132,18,13,6.47,51.63,27.46,80,71,22.25,34.15,29.58,69,32,81,8.17,40.57,12.26,60.86,12,74a92.59,92.59,0,0,0,6,31c3.38,9,6.63,13.24,11,16,1.07.68,8.86,5.44,17,3,6.29-1.89,8.53-6.8,10-6,2.25,1.22-1,13.73-7,25-3.22,6-9.59,18-23,27-15.5,10.41-30.12,10-30,14,.08,2.88,7.62,5.54,14,6,13.44,1,22.56-7.79,24-6s-5.8,11.47-16,19c-4.47,3.3-15.77,11.43-32,13-12.27,1.19-21.43-2-22,0-.36,1.23,3.16,2.9,12,9,9,6.25,13.56,9.4,13,11-.7,2-8.21-.3-19,0a87,87,0,0,0-27,6c-11.35,4.59-15.55,9.91-28,20-11.76,9.53-23.27,18.86-35,24-21.33,9.35-42.58,4.49-71-2-14.38-3.29-11.63-4.14-53-16-22.69-6.5-30.47-8.24-34-9a333.74,333.74,0,0,0-49-7c-29.72-1.8-44.58-2.7-58,5-6,3.45-12.77,8.92-15,7-2-1.76.62-8.94,4-14,7-10.51,17.6-12.68,17-15s-10.71-.24-24-1a97.32,97.32,0,0,1-34-8c-17-7.82-28-20.56-27-22,.74-1.06,7.27,5.08,18,5,7.39,0,13.16-3,17-5s10.5-5.4,10-8c-.58-3-10.24-2.52-20-4-1.88-.29-24.77-4-40-18C3.8,680,3.51,648.74,6.17,647.77Z"
              transform="translate(0.01 0)"/>
        <path class="cls-7"
              d="M154.17,448.77c-6.38,9.06-23.91,33.94-33,70-3.24,12.85-4.74,24.49-16,78-2.58,12.29-4.89,22.79-12,35-4.75,8.16-14.61,25.09-33,32-17.81,6.7-33.42.16-35,5-1.4,4.27,10,11.5,14,14,5.78,3.65,19.78,12.49,38,11,16.13-1.32,22.64-9.68,27-6,5.44,4.6-.62,21.07-6,30a42.59,42.59,0,0,1-14,15c-8.16,5.09-15,4.9-15,7-.07,3.34,17.09,6.19,22,7,11.62,1.93,21.66,3.59,35,2,15.11-1.8,23.58-6.49,25-4,1.79,3.15-10.24,13.36-11,14-8.09,6.8-14.38,8.71-14,10,.56,1.9,14.56-1.23,29-3a278.12,278.12,0,0,1,46-1,235.69,235.69,0,0,1,54,10c21.5,6.64,21.68,10.12,53,21,27.2,9.45,36,9.91,40,10,7,.15,25.17.32,43-10,16.52-9.56,13.77-17.14,35-30,9.17-5.56,17.43-10.43,29-11,9.56-.47,17.11,2.21,18,0,1.08-2.67-8.56-9.92-14-14s-8.31-5.5-8-7c.54-2.65,9.89-2.86,18-3,17.85-.3,23.47,2.16,34-1,5.52-1.65,12.35-4.84,12-7-.27-1.66-4.62-1.74-10-3-11.25-2.64-24.43-9.88-24-15,.26-3.07,5.26-3.46,20-10a130.84,130.84,0,0,0,25-14c6.55-4.8,14.12-10.35,13-15-.8-3.33-5.4-3.54-11-7-8-5-11.56-12.57-15-20-10.53-22.74-15.5-76.77-16-82-4.12-42.94-21.68-74.33-31-91-10.58-18.92-29.61-52.94-70-77-52.16-31.06-104.65-24.49-115-23C204.92,376.72,163.92,434.93,154.17,448.77Z"
              transform="translate(0.01 0)"/>
        <path class="cls-12"
              d="M82.17,507.77c7.75,14.27,13.71,19.63,19,23,4.21,2.68,15.08,9.6,26,6,10.37-3.42,14.87-14.38,18-22,6.88-16.74,1.49-22.34,6-40a84,84,0,0,1,22-38c16-15.71,36-22,36-22,8.8-2.78,13.39-2.57,18-7,11-10.54,6.55-28.7,6-31-6.64-27.69-43.39-43.42-71-46-7-.66-20.83-1.8-37,4-36,12.93-50.13,48.28-54,58-11.73,29.45-7.41,55.48-5,70C69.81,484.72,77.35,498.91,82.17,507.77Z"
              transform="translate(0.01 0)"/>
        <path class="cls-8"
              d="M213.17,658.77a44,44,0,0,0,12,22c13.63,13.69,32.11,13.87,46,14,11.26.11,36.29.35,55-16,10.94-9.56,15.83-21.39,23-20,5.15,1,4.1,7.38,10,12,14,11,36.69-12.12,60-2,6.06,2.63,6.77,5.17,15,8a50.33,50.33,0,0,0,27,2c5-1,15.44-3.24,23-12,8.82-10.22,8.28-23.17,8-30-.86-20.87-12.33-35.07-26-52-10.93-13.54-17.8-21.79-29-23s-20.35,5.32-24,8c-25.14,18.48-23.62,55.28-31,55-3.56-.14-3.72-8.66-11-23-4-7.89-12.74-25.08-28-33-12.74-6.61-25.44-4.38-39-2-40.33,7.08-64.36,33.82-68,38C225.62,616.87,208.67,636.27,213.17,658.77Z"
              transform="translate(0.01 0)"/>
        <path class="cls-12"
              d="M227.17,634.77c-1.25,15.75,9.41,29.28,10,30,10.74,13.26,26.08,15.84,33,17a64.79,64.79,0,0,0,41-7,61.68,61.68,0,0,0,26-26c2.82-5.49,9.28-18.53,6-35-.27-1.36-4.43-20.92-19-30C293.79,564.84,230,598.84,227.17,634.77Z"
              transform="translate(0.01 0)"/>
        <path class="cls-7"
              d="M292.17,638.77c.47-5.29,4.38-8.37,9-12s9.75-7.67,15-6c6,1.92,7.77,9.86,8,11,1.81,9-4.64,15.64-5,16-4.6,4.61-13.15,8-20,4A14.24,14.24,0,0,1,292.17,638.77Z"
              transform="translate(0.01 0)"/>
        <path class="cls-12"
              d="M403.17,625.77c-.8-5.85-1.8-13.88,2-23,1.21-2.91,5.45-12.67,16-18,12.09-6.11,24.19-2.22,28-1,18.58,6,31.47,24.56,33,43,.37,4.43,1.41,17-7,28a37,37,0,0,1-20,13c-16.57,4.47-30.12-3.81-32-5C406.82,652.41,404.25,633.69,403.17,625.77Z"
              transform="translate(0.01 0)"/>
        <path class="cls-7"
              d="M427.17,624.77a13.33,13.33,0,0,1,4-6c3.72-3.18,10.42-5.26,15-2,5,3.53,4.12,11,4,12-.85,7.48-7.37,15.94-14,15C429.31,642.8,424.91,632.13,427.17,624.77Z"
              transform="translate(0.01 0)"/>
        <path class="cls-14"
              d="M379.17,737.77a24.76,24.76,0,0,0,12,9c8.36,2.77,15.76-.27,20-2a30.2,30.2,0,0,0,12-8c7.11-8.08,7.11-18,7-21"
              transform="translate(0.01 0)"/>
        <path class="cls-14"
              d="M385.17,691.77c-.6,8.14-1.23,16.25-2,26a56.64,56.64,0,0,1-3,16,33.93,33.93,0,0,1-5,10c-5.54,7.18-13.49,9.44-19,11a52.22,52.22,0,0,1-23,1c-5.92-.87-11.51-1.77-17-6a27.93,27.93,0,0,1-7-8"
              transform="translate(0.01 0)"/>
        <path class="cls-12"
              d="M357.83,662.78h55.4c7.57,0,13.45,7,12.58,14.94l-.77,7a13,13,0,0,1-12,11.85l-54.63,2.7c-7.22.35-13.25-5.74-13.25-13.39v-9.69C345.16,668.78,350.83,662.78,357.83,662.78Z"
              transform="translate(0.01 0)"/>
        <path class="cls-7"
              d="M358.28,666.77h31.11a7.38,7.38,0,0,1,7.07,8.39L396,679.1a7.29,7.29,0,0,1-6.74,6.66l-30.68,1.51a7.31,7.31,0,0,1-7.44-7.18q0-.17,0-.34v-5.48A7.33,7.33,0,0,1,358.28,666.77Z"
              transform="translate(0.01 0)"/>
        <polygon class="cls-16" points="197.18 1404.77 886.18 1261.77 1385.18 1293.77 688.18 1450.77 197.18 1404.77"/>
        <polygon class="cls-17" points="197.18 1439.77 197.18 1404.77 688.18 1450.77 688.18 1490.77 197.18 1439.77"/>
        <polygon class="cls-17" points="1380.67 1293.48 1380.18 1329.77 688.18 1490.77 688.18 1450.77 1380.67 1293.48"/>
        <polygon class="cls-10" points="608.76 1482.52 609.18 1594.27 677.18 1594.27 677.18 1490.27 608.76 1482.52"/>
        <polygon class="cls-10" points="280.76 1448.27 281.18 1594.27 349.18 1594.27 349.18 1455.27 280.76 1448.27"/>
        <polygon class="cls-18" points="525.18 1366.77 525.18 1351.77 773.18 1366.77 770.18 1386.77 525.18 1366.77"/>
        <polygon class="cls-19" points="525.18 1351.77 849.18 1293.77 773.18 1366.77 525.18 1351.77"/>
        <path class="cls-12"
              d="M503.17,1245.77c-.37-6.85,42.76-14.14,48-15,17.8-2.93,38.8-6.38,64-1,15.71,3.35,18.42,7,61,25,13.12,5.54,21.47,8.28,37,15,23.3,10.09,35.42,16.58,45,29,8.91,11.55,8.31,18.75,8,21-1,6.9-5.75,14.22-13,17-6.29,2.41-12.53.68-15,0a28.28,28.28,0,0,1-7-3c-42.63-25.54-87-60-87-60C587.53,1229.78,503.67,1255.36,503.17,1245.77Z"
              transform="translate(0.01 0)"/>
        <path class="cls-12"
              d="M531.17,1285.77c4.29,8.75,14.2,12.84,34,21,14,5.75,20.92,8.62,30,8,12.73-.88,21.35-7.32,26-3,2,1.85,1,3.54,3,11,1.45,5.33,3,11.13,7,16,7.37,9.05,19,9.94,20,10,3.3.2,10.52.65,16-4,7.47-6.34,6.61-17.84,6-26,0,0-.81-10.85-5-20-12.11-26.46-86.34-84.55-122-60C531.67,1248.74,524.33,1271.81,531.17,1285.77Z"
              transform="translate(0.01 0)"/>
        <path class="cls-12"
              d="M637.17,1296.77c13.51,12.21,23.81,21.88,42,36,6.62,5.14,12.74,9.67,22,12,5.15,1.3,15.39,3.87,22-1,8.9-6.56,7.69-24,4-35-10.14-30.12-49.31-42-73-44-14.3-1.22-36.81,0-39,8C614.12,1276.64,618.4,1279.81,637.17,1296.77Z"
              transform="translate(0.01 0)"/>
        <path class="cls-12"
              d="M708.17,1221.77c-.4-5.6,8.48-10.51,13-13,11.32-6.25,22.33-6.18,32-6,7.69.14,19.21.46,33,6a87.12,87.12,0,0,1,33,24c5.24,6.13,12.82,15,16,29,1.17,5.17,3.14,14.34,0,25-4.09,13.88-17,30.85-33,30-8.18-.44-14-5.44-17-8-11.63-10.05-8.87-19.84-18-37-2.13-4-11.71-21.21-30-33C721.57,1228.71,708.67,1228.39,708.17,1221.77Z"
              transform="translate(0.01 0)"/>
        <path class="cls-12"
              d="M702.17,1240.77c-2.29,5.93,3.09,14.1,7,18,.91.9,2.54,2.38,16,9,10.54,5.18,12,5.51,14,8,3,3.75,2.26,6.45,4,16,2.31,12.68,3.47,19,8,23,5.58,4.91,15.68,6.14,22,2s7-12.71,8-29a79.53,79.53,0,0,0-1-21c-1.48-7.85-2.7-14.33-7-20-7.36-9.71-19.49-11.47-30-13C740.16,1233.33,706.82,1228.75,702.17,1240.77Z"
              transform="translate(0.01 0)"/>
        <path class="cls-18"
              d="M765,1377.27l115.67-227.66a13.86,13.86,0,0,1,11.12-7.53l244.15-21.81a8.83,8.83,0,0,1,8.58,12.94l-106.85,201.06A15,15,0,0,1,1027,1342l-255.08,44.52a6.44,6.44,0,0,1-6.89-9.28Z"
              transform="translate(0.01 0)"/>
        <path class="cls-20"
              d="M103.67,892.27c9-3.89,17.44-3.46,25-12,4.54-5.13,5.48-9.81,10-11,6.58-1.73,13.7,5.79,17,9,11.88,11.57,28.92,17.71,63,30,23.77,8.57,35.66,12.86,50,14,5.74.46,14.81.75,25,6,6.68,3.44,11.81,8,18,15,11.49,13.06,14.39,20.88,24,36a244.91,244.91,0,0,0,33,41c12.15,12.08,20.73,20.44,27,18,2.71-1.05,5.27-4.23,8-32,2.67-27.13,4-40.69,2-52-3.41-19.25-9.91-25.4-6-38,1.13-3.66,1.62-2.95,12-19,15.11-23.37,16.46-28.56,17-31,2.88-13.08-1.49-20.05,2-22,5.38-3,13.73,14.74,37,26,15.21,7.36,22.58,5.07,30,14,3.59,4.32,3.34,6.64,8,25,2.69,10.61,3.68,13.4,11,44,2.81,11.75,5,21.2,0,26-2.81,2.73-7,3-7,5,0,2.53,6.78,3.23,12,7,7.89,5.71,9.07,16.25,10,22,2.74,16.9,6.19,9.88,23,59,14.17,41.41,10.19,42,18,52,3.63,4.67,9.54,11,8,18-1.64,7.39-10.76,11.22-15,13-5.68,2.38-13.49,4.29-38,2-20.16-1.89-20.39-3.7-28-3-14.2,1.3-22.36,8.43-34,16-23.91,15.56-45.08,21.66-74,30-31,8.93-42.12,7.08-47,6-6.41-1.42-16.44-4.72-34-19-23.67-19.25-24.79-29-50-57-28.41-31.58-38.46-32-45-52-1.73-5.29-3.82-16.19-8-38-4.06-21.19-5.93-34.1-8-34-1.09.05-1.72,3.68-6,27-1.82,10-2.76,14.93-4,15-2.7.16-3-16.08-13-35-4.66-8.85-12.38-20.12-15-19s1.49,13.41,9,49c4.72,22.4,4.36,23.46,7,33,2.34,8.48,6.78,22.66,17,44a390.16,390.16,0,0,0,42,70c21.25,28.11,37.75,41.84,33,51-1.88,3.62-4.83,2.2-19,9-11.47,5.51-21.46,10.3-29,20-7.15,9.19-6.33,15.37-10,16-8,1.37-18.42-26.69-27-47-3.37-8-19.91-38.32-53-99-4.54-8.32-23.34-42.7-46-84-20.75-37.82-31.14-56.68-28-82,1.93-15.58,8.37-28.6,14-40C82.75,911.84,89.35,898.48,103.67,892.27Z"
              transform="translate(0.01 0)"/>
        <path class="cls-20"
              d="M265.67,1298.27c-1.28-5.58,8-12.29,20-21a100.43,100.43,0,0,1,30-15c18.21-5.4,38.16-5.51,39-2,.56,2.32-7.87,3.5-15,12-8.5,10.15-4.92,18.52-10,26C317.48,1316.2,268.36,1310,265.67,1298.27Z"
              transform="translate(0.01 0)"/>
        <path class="cls-20"
              d="M605.67,1213.27c0-5.15,12.46-11.13,23-11,6.38.08,7.47,2.34,21,4,5.32.65,9.89.88,10,2,.13,1.37-6.64,1.64-13,7-3.78,3.18-3.75,5.08-6,7C631.55,1230.07,605.67,1220.67,605.67,1213.27Z"
              transform="translate(0.01 0)"/>
        <path class="cls-20"
              d="M547.67,936.27c-3.28.71-1.65,22.79,1,38a173.08,173.08,0,0,0,11,37c20.51,50.8,21.22,46.19,28,66,11,32.25,22.18,64.77,20,81-.2,1.51-1.06,6.9,2,10,3.51,3.55,11.48,3.41,14,0,3.3-4.48-3.37-13.82-8-22-10.07-17.82-7.45-24.88-16-60-2.15-8.84-8.13-27-20-63C551.91,939.11,549,936,547.67,936.27Z"
              transform="translate(0.01 0)"/>
        <path class="cls-21"
              d="M358.67,1296.27c4.84-8.85,8.63-15.79,18-25,6.22-6.11,11.26-11.07,19-15,9.54-4.85,17.76-5.4,32-6,34.68-1.47,42.86-.59,58-2a240.07,240.07,0,0,0,38-7c16.16-4.14,19.48-6.54,31-9,17.3-3.7,31.06-2.84,43-2,25.54,1.79,46,9.19,87,24a233.26,233.26,0,0,1,39,18,109.17,109.17,0,0,1,27,22c2.46,2.78,11,12.42,9,15-1.65,2.14-9.81-1.56-13-3-10.23-4.64-13.46-9-22-15s-15.58-8.79-26-13c-10.13-4.09-23.4-8.37-24-7s10,6,23,15,21.36,13.44,27,23c1.28,2.17,5.08,8.6,3,11-.45.51-2.56,2.45-15-3-9.21-4-15.29-8.27-26-16-13.17-9.51-18.51-13.59-28-19-7.68-4.38-12.67-6.53-13-6-.45.72,8.36,5.28,16,15,3.13,4,11.66,14.83,8,21-2.45,4.13-9.49,4.71-14,4-5.83-.92-7.85-4.08-18-12-8.06-6.3-18.56-13.49-20-12-1,1,3.24,5.08,2,7-1.37,2.11-8.29-.06-25-6-17.54-6.23-20.42-7.57-29-10-2-.57-8-2.25-16-4a161.56,161.56,0,0,0-16-3c-12.57-1.31-22.74,3-28,5-11.84,4.57-31.56,8.38-71,16-45,8.69-34.65,1.89-58,8-6.23,1.63-18.41,5.11-21,1C354.73,1304.77,355.24,1302.55,358.67,1296.27Z"
              transform="translate(0.01 0)"/>
        <path class="cls-21"
              d="M722.67,1214.27c3.62-4.14,8-5.49,13-7,2.74-.84,9-2.45,25-1,11.88,1.07,17.82,1.61,24,4,8.66,3.34,13.68,7.78,23,16,4.86,4.29,9.49,9,12,16a14.62,14.62,0,0,1,1,7c-.75,6-5.83,11.71-9,11-2-.45-2.24-3.27-4-7-4-8.46-11.69-12.65-16-15-5.53-3-19.47-9.77-24-5-2.43,2.56-1.28,7.49,0,13,1.36,5.83,3.21,7.64,6,17,1.46,4.9,1.69,6.86,1,9a11.13,11.13,0,0,1-7,7c-3.76,1.16-6.1-.81-17-6-11.44-5.45-12.56-5-16-8-4.8-4.12-7-8.68-9-13-6.32-13.33-6.23-11-7-14S715.24,1222.75,722.67,1214.27Z"
              transform="translate(0.01 0)"/>
        <path class="cls-21"
              d="M658.67,1229.27c2.43-3.77,9.81-14.22,22-18,4.66-1.45,9.44-1.73,14-2,3.26-.19,10.6-.63,11,1s-7.28,2.46-11,9c-1.08,1.89-1.72,4.93-3,11-1.35,6.41-1,7-2,8-4.08,4.14-15-.37-19-2A50.82,50.82,0,0,1,658.67,1229.27Z"
              transform="translate(0.01 0)"/>
        <path class="cls-22"
              d="M717.67,623.27c-3.53-1.6.52-14.16,5-42,4.39-27.26,3.12-31.48,8-48,0,0,3.82-12.94,15-31,5.57-9,8.52-11.79,12-12,6.37-.38,11.65,8,16,15a88,88,0,0,1,11,26c5.35,23.26,9.45,41.12,4,61-4.55,16.6-14.76,27.29-35,48-29.68,30.37-62.21,53.08-64,51-1-1.17,10.33-13.12,33-37,16.65-17.54,20.61-20.87,28-31a150.58,150.58,0,0,0,19-36c2.5-6.82,6.73-18.33,4-20-3.56-2.19-17.12,13.51-21,18-8.13,9.41-9.88,13.67-19,24C725.17,618.9,720.27,624.44,717.67,623.27Z"
              transform="translate(0.01 0)"/>
        <path class="cls-22"
              d="M695.67,792.27c-1.35-9.4-.68-13.45,3-50,1.24-12.31,1.65-16.67,5-22,3.46-5.5,7.52-8,18-15,8.64-5.75,19.47-13,25-17,13.83-10.11,22.18-20.66,28-28,8.81-11.12,17.93-22.63,24-40,5-14.36,4.55-23,13-29,8.12-5.78,17.61-4.25,19-4,10.55,1.86,18.58,10.29,21,18,4.33,13.78-8.35,28.1-22,45-25.06,31-46.45,64.82-70,97-26.76,36.56-38.48,55.44-44,53-7.09-3.13,1.59-38.9,1-39s-7.3,53.12-14,53C698.82,814.2,696.28,796.52,695.67,792.27Z"
              transform="translate(0.01 0)"/>
        <path class="cls-22"
              d="M658.67,846.27c-2,.1-6.37-15.06-5-31,.49-5.72,3-14.48,8-32,4.08-14.27,4.73-15.05,5-15,1,.2-.91,12.53-3,32C660.06,833.79,660.51,846.18,658.67,846.27Z"
              transform="translate(0.01 0)"/>
        <path class="cls-22"
              d="M803.67,959.27c-.21-.37,8.32-4.38,19-13,8.57-6.92,6.89-7.42,19-18,9.52-8.31,11.49-8.82,17-15,4.42-5,5.61-7.38,7-7,3.69,1,2.22,19.89-1,34-1.79,7.85-3.37,14.8-8,23-5.63,10-9.88,11.36-15,22-2.88,6-7.58,15.75-4,20,4.52,5.36,16.51-4.76,25,0,9.63,5.4,7.22,26.34,2,68-3.54,28.23-6.27,35.44-10,42-3.34,5.87-12.54,20.16-30,28-3.57,1.6-21.5,9.65-28,3-4.68-4.79,0-13.68,4-31,1.6-7,2.73-23.65,5-57,1.78-26.15,1.78-35.61,8-49,2.74-5.91,5.7-10.42,10-17,11.82-18.07,17.3-20.46,25-34,6-10.51,12.54-26.42,9-29-2.55-1.86-8.37,4.63-25,15C817.2,953.92,803.93,959.73,803.67,959.27Z"
              transform="translate(0.01 0)"/>
        <path class="cls-22"
              d="M1094.67,440.27c2.52-1.84,4.87.72,16,2,14.43,1.66,18.13-1.76,27,1,6.43,2,10.25,5.59,16,11,11,10.32,8.4,14.54,21,29,5.29,6.06,8.16,8.09,8,12-.21,5.18-5.51,8-14,14-17.81,12.64-12.4,13-35,30-10.48,7.86-13.26,9-14,13-.85,4.62,1.48,10.37,20,27,23,20.69,32.1,23.17,33,32,.77,7.57-5.25,12-18,26-19.79,21.67-33.25,41.53-39,51-18,29.71-18.64,53.53-22,53-3.81-.6-.86-30.94,1-88,2-62.71-.53-56.26,2-82,4.93-50.25,13.1-58.06,7-85C1098.89,465.16,1088.23,445,1094.67,440.27Z"
              transform="translate(0.01 0)"/>
        <path class="cls-22"
              d="M1198.67,507.27c-5-.17-4.48,14.36-20,28-9.44,8.3-16.92,9.3-18,16-.43,2.65.25,5.57,11,19,12.54,15.65,17.05,18.47,22,28,.8,1.54,4.79,9.23,6,17,2.84,18.29-10.22,34.15-21,48-3.57,4.59-38.55,49.8-60,90-9.65,18.09-14.82,27.77-19,43-7.79,28.36-2.52,40.84-1,106,.79,34-.52,35.54,1,61,2,34,3.79,21.43,8,67,1.2,13,1.54,19.31,6,27,7.3,12.6,15.4,11.33,31,27,13.94,14,13.37,20.94,23,24s22.87.27,30-8c9.55-11.09-.09-22.74,1-59,.77-25.66,6-31.77,0-43-4.41-8.32-8.82-7.91-30-23-26.54-18.91-35.44-30.81-39-36-4.67-6.8-15-21.88-10-29,4.26-6,17.9-4,25-2,17.41,5,21.48,17.6,33,16,6.17-.86,10.35-5.22,13-8,8.16-8.53,9.26-19.46,10-26,7-61.75.92,104.37,8-49,4.76-103.09,4.52-113.13,7-139,2-20.46,3.34-26.9,4-45,.32-8.8.88-31.35-3-69C1213.94,561.79,1208.37,507.6,1198.67,507.27Z"
              transform="translate(0.01 0)"/>
        <path class="cls-22"
              d="M1219.67,467.27c2.37-1.89,13.66,6.94,22,17,13.71,16.53,17.7,34.25,20,45,10.61,49.64,15.92,74.46,16,75,12.54,80.68,19,121.3,26,135,7.28,14.14,22.42,39,16,45-1.1,1-2.46,1.15-10,1-18-.36-21.11-1.3-27-1-15.75.79-24.62,9.07-26,7s6.38-10.14,14-16c11.51-8.86,19.23-9.68,19-13-.28-4.06-12.19-8.55-23-7-7.56,1.09-11.25,4.65-13,3-2.25-2.12,2.15-9.6,8-22,1.93-4.09,8.05-17.07,11-26,6.57-19.89,4.53-41.37,1-42-4.87-.87-14.5,37.66-17,37-1.55-.41,1.4-15.49,6-51,1.54-11.86,2.6-20.89,2-33-.57-11.45-2.77-28.89-6-29-5-.18-8.86,41.28-12,41-2.88-.25-2-35.38-2-37,.52-20.18,1.94-21,2-33a173.19,173.19,0,0,0-10-57C1228.06,482.14,1217.07,469.35,1219.67,467.27Z"
              transform="translate(0.01 0)"/>
        <path class="cls-22"
              d="M888.67,1053.27c2.92-3.34,8.34.64,21,0,7.45-.38,10.1-2,12,0,1.42,1.48,1,6,0,15-.39,3.61-.59,5.43-1,6-2.73,3.81-9.39,2.26-26,2-4.85-.08-7.63,1.62-9,0-1.63-1.93,1-5,2-13C888.58,1056.33,887.1,1055.07,888.67,1053.27Z"
              transform="translate(0.01 0)"/>
        <path class="cls-22"
              d="M954.67,1055.27c4.21-4.36,10.7,1.3,26,0,12.06-1,17.16-5.32,21-2,3.22,2.79,3.65,9.28,1,13s-7.33,2.76-21,4c-17.91,1.62-22.21,4.56-26,1C951.67,1067.47,951.07,1059,954.67,1055.27Z"
              transform="translate(0.01 0)"/>
        <path class="cls-22"
              d="M1038.67,1048.27c3.6-4.27,9.67.55,24-2,6.58-1.17,9.73-3,12-1,1.8,1.56,1,3.69,2,12,1,7.56,2,8.48,1,10-2.25,3.46-8.65.31-21,1-11.61.65-17.6,4.09-20,1-.56-.72-.68-1.48,0-8C1037.52,1053.18,1037.94,1049.14,1038.67,1048.27Z"
              transform="translate(0.01 0)"/>
        <path class="cls-22"
              d="M969.67,1106.27c-1.56,4,.07,9.27,3,12,3.15,2.93,7.3,2.47,15,2,27.06-1.65,40.59-2.47,44-2,1.78.24,5,.76,8-1,4.75-2.81,7.24-10.53,5-15-1.64-3.27-6-5.21-27-5C990.05,1097.55,973,1097.72,969.67,1106.27Z"
              transform="translate(0.01 0)"/>
        <path class="cls-22"
              d="M886.67,1106.27c-6.41,4.58-7.55,10.76-11,19-7.59,18.1-17.64,25.37-16,27,1.88,1.87,15-7.78,24-17a60.38,60.38,0,0,0,10-13c.84-1.5,8.76-15.58,5-19C896.4,1101.2,890.47,1103.56,886.67,1106.27Z"
              transform="translate(0.01 0)"/>
        <path class="cls-22"
              d="M928.67,1108.27c-3,3.41-.33,10.58,4,14,2.51,2,7.14,3.93,10,2,3.7-2.5,3.5-10.85-1-15C938,1105.88,931.36,1105.21,928.67,1108.27Z"
              transform="translate(0.01 0)"/>
        <path class="cls-22"
              d="M1097.67,1259.27c-2.86-7,11.33-11.55,20-35,5.54-15,4.18-25.14,12-29,3.42-1.69,4.24,0,18,1a162.16,162.16,0,0,0,30,0c10.22-1.07,11.29-2.45,14-1,6.75,3.62,4.39,14.51,7,36,2.95,24.24,8.31,29.73,4,35-5.36,6.56-16.76,1.84-42-1C1120.07,1260.71,1101,1267.48,1097.67,1259.27Z"
              transform="translate(0.01 0)"/>
        <path class="cls-8"
              d="M361.5,771c.59-.71,3.63,2.69,9.5,3a19.82,19.82,0,0,0,11-3c5.26-3.21,6.89-7.51,8-7s.52,5.4-1.5,9.5c-1,2-4.84,9.83-12.33,10.27C366.54,784.33,360.51,772.17,361.5,771Z"
              transform="translate(0.01 0)"/>
        <path class="cls-8"
              d="M434.5,700.5c-.49.35,2.74,3.73,4.5,11a34.3,34.3,0,0,1,.5,14c-.08.45-.16.81-.19,1-1.51,7-4.58,10.33-4.31,10.54.45.35,11.7-6.48,12-17.5C447.31,707.93,435.33,699.9,434.5,700.5Z"
              transform="translate(0.01 0)"/>
        <path class="cls-8"
              d="M294.5,739.5c1.12-.2,1.47,4.31,6,9,4.22,4.36,8.25,4.93,8,6-.35,1.48-8.65,3-13-1.5C291,748.39,293,739.77,294.5,739.5Z"
              transform="translate(0.01 0)"/>
    </g>
</svg>