<svg id="Layer_1" data-name="Layer 1" xmlns="http://www.w3.org/2000/svg" viewBox="0 0 1569.25 1392.2">
    <defs>
        <style>
            .cls-1{fill:#2b2b2b;}.cls-1,.cls-11,.cls-12,.cls-13,.cls-14,.cls-15,.cls-2,.cls-3,.cls-4,.cls-5,.cls-6{stroke:#000;stroke-linecap:round;stroke-linejoin:round;stroke-width:10px;}.cls-2{fill:#a0a088;}.cls-3{fill:#292a3a;}.cls-4{fill:#b2ab9b;}.cls-5{fill:none;}.cls-6,.cls-8{fill:#d9d9d9;}.cls-11,.cls-16,.cls-17,.cls-18,.cls-7{fill:#fff;}.cls-9{fill:#380208;}.cls-10{fill:#6a0006;}.cls-13{fill:#232313;}.cls-14{fill:#3a3a21;}.cls-15{fill:#a0afad;}.cls-16{opacity:0.05;}.cls-16,.cls-17,.cls-18{isolation:isolate;}.cls-17{opacity:0.2;}.cls-18{opacity:0.15;}
        </style>
    </defs>
    <title>oldFriends</title>
    <g id="Layer_2" data-name="Layer 2">
        <g id="Layer_3" data-name="Layer 3">
            <path class="cls-1"
                  d="M879,1132.7c-9.06-3.62-19.7-6.63-33-16-8-5.67-19.75-15.56-25-20-10-8.44-11.86-10.54-17-13-1.15-.55-15.28-7.12-27-4-6.94,1.85-17.64,8.31-28,42-11.57,37.6-27,87.84,1,117,16,16.59,39.25,19.36,53,21,23.33,2.78,41.11-2.54,56-7,33.11-9.91,28.31-18.93,78-41,7.48-3.32,11.42-4.82,13-9C956.34,1186.08,917.44,1148.05,879,1132.7Z"
                  transform="translate(0 0)"/>
            <path class="cls-1"
                  d="M213.55,471.2c-7.93,10.69-8.82,19.07-9,22-.51,8.39,1.79,23,29,47,12.38,10.94,49,40.68,111,53,42.67,8.48,62.81,1.85,68,0,8.64-3.07,27.2-10,40-29a73.8,73.8,0,0,0,12-38c1-48.26-52.38-79.51-55-81-28.66-16.26-54.66-14-101-10C277.69,437.87,235.12,442.11,213.55,471.2Z"
                  transform="translate(0 0)"/>
            <path class="cls-2"
                  d="M238.55,517.2c2.48-2,12.12,9.62,36,25a256.46,256.46,0,0,0,73,32c29.76,7.75,45,5.62,49,5,8.81-1.38,23.81-3.94,36-16a58,58,0,0,0,12-18c5.25-12.33,5.12-24,5-30-.29-13.82-3.62-18.64-1-21,5.42-4.88,27.31,8.94,40,20,34.94,30.46,42,76.57,48,121,17.72,132.16,18,165,18,165,1.4,161.88-2,282-2,282-6.43,227.2-13.82,239.89-2,273,1.34,3.75,5.83,19.4,1,31.5h-172c-22-26-13.55-59.84-9-85.5.17-.94-2.68,15.12-34-484-5.77-92-8.8-142.39-40-202C272.49,569.23,233.53,521.32,238.55,517.2Z"
                  transform="translate(0 0)"/>
            <path class="cls-3"
                  d="M728,515.35a115.18,115.18,0,0,0-17.46,15.85c-9.16,10.23-13.93,19.29-20,31-7.52,14.51-16.17,31.22-20,55-1.55,9.63-4.06,26.15,0,47a122.1,122.1,0,0,0,15.4,39.8c-1.52,1.19-2.12,3.31-4.39,5.22-5.6,4.71-14.13,2.11-26,0-5.11-.91-12.41-1.61-27-3-3.78-.36-6.93-.61-9.65-.79a90.2,90.2,0,0,1-12.35-18.21c-9.13-17.86-9.56-33.66-10-50a180.28,180.28,0,0,1,12-70c7.65-19.29,17.74-44.73,44-62a95.42,95.42,0,0,1,15.62-8.3c2.31,4.22,3.25,7.52,6.38,8.3,3.93,1,5.74-3.4,12-5,5-1.28,6.23.94,19,4,13,3.11,18.45,2.45,21,7A22.68,22.68,0,0,1,728,515.35Z"
                  transform="translate(0 0)"/>
            <path class="cls-3"
                  d="M787.55,521.2c4.31,3.76,6.16,8.66,8.57,9.78a125.07,125.07,0,0,0-13.57,18.22c-7,11.39-10.22,20.83-14,32a240.72,240.72,0,0,0-12,59c-1.54,20.74-2.67,35.91,3,55a111.43,111.43,0,0,0,7.1,18h-.1c-3.21.18-4.49,2.32-8,4-5.75,2.76-11.22,1.3-18,0-27-5.15-30.61.73-40-6-5.43-3.89-8.7-9.08-13-8a4,4,0,0,0-1.61.78,122.1,122.1,0,0,1-15.39-39.78c-4.06-20.85-1.55-37.37,0-47,3.83-23.78,12.48-40.49,20-55,6.07-11.71,10.84-20.77,20-31A115.18,115.18,0,0,1,728,515.35a2.88,2.88,0,0,0,1.54,1.85c2.34,1,5.08-1.53,8-3,4.79-2.41,8.51-1,20,1C780.33,519.24,782.59,516.87,787.55,521.2Z"
                  transform="translate(0 0)"/>
            <path class="cls-3"
                  d="M1179.55,494.2c30.27,16.1,50.54,55.85,44,91-3.92,21.08-16.32,34.21-35,54-6.78,7.18-30,31.74-50,31-1.8-.06-11.76-.64-16-.89h0c-3.21-3.32-6.57-7-10-11.11-4.59-5.55-27.61-34-39-79a214.47,214.47,0,0,1-4.38-82.23c6.26-1.14,13.32-2.37,21.38-3.77C1131.74,486,1156.18,481.77,1179.55,494.2Z"
                  transform="translate(0 0)"/>
            <path class="cls-3"
                  d="M1122.5,669.31l-2-.11-2.8,3.73-3.2,4.27c-6.24,8.2-25.13,16.77-47,21-10.4,2-22.39,3.21-22.39,3.21l1.39-.21s-9-6.17-11.49-6.17a.66.66,0,0,0-.51.17.36.36,0,0,0-.09.24c-2.59-2.51-5.25-5.25-7.91-8.24-18.94-21.25-26.75-41.87-34-61a278.21,278.21,0,0,1-17-82c-.41-7.38-.5-14.09-.42-19.94a3.6,3.6,0,0,0,1.42-.06c3.63-.9,3.44-6.42,8-9,4-2.24,8.61-.61,11,0,11.34,2.92,23-3.81,33-8,9.84-4.13,21.52-6.76,40.62-10.23a214.47,214.47,0,0,0,4.38,82.23c11.39,45,34.41,73.45,39,79C1115.93,662.29,1119.29,666,1122.5,669.31Z"
                  transform="translate(0 0)"/>
            <path class="cls-3"
                  d="M1034.46,695.44c-.14,1.4,5.16,5.82,4.09,9.76s-7.79,5.07-12,6c-27.84,6.12-31,20.5-48,18-7.54-1.11-13.78-4.94-17.41-2.47a129.94,129.94,0,0,1-16.59-13.53c-28.77-27.73-36.54-61-41-80-3.31-14.16-8.7-38.31-3-69a152.92,152.92,0,0,1,8.25-28.5c.58,1.77.72,3.35,1.75,3.5,2,.3,3.34-5.5,7-10,4-5,9.36-6.32,20-9,13.25-3.34,22.34-5.64,30-1,3.33,2,5.28,4.68,7.58,5.06-.08,5.85,0,12.56.42,19.94a278.21,278.21,0,0,0,17,82c7.25,19.13,15.06,39.75,34,61C1029.21,690.19,1031.87,692.93,1034.46,695.44Z"
                  transform="translate(0 0)"/>
            <path class="cls-3"
                  d="M621.67,466.88a74.42,74.42,0,0,0-29.12,14.32c-12.39,10.09-18.13,21.85-26,38a220.38,220.38,0,0,0-16,46c-8.43,37.92-5.48,81.27-2,109.07-17-24.51-29.19-60.12-33-71.07-11.1-31.86-21.42-57.14-29.87-77.26a167.17,167.17,0,0,1,12.87-27.74c6.5-11.18,13.83-23.52,28-35A101.69,101.69,0,0,1,549,449.43c5.36.33,10.64.88,16.54,1.77,21.4,3.21,36.69,8.63,49,13C615.8,464.64,618.31,465.54,621.67,466.88Z"
                  transform="translate(0 0)"/>
            <path class="cls-3"
                  d="M864.44,540.51a158.79,158.79,0,0,0-11.89,21.69c-9.77,21.67-12.07,39.79-14,56-3.53,29.73-6.08,51.13,2,77a128.37,128.37,0,0,0,17.24,35c-3.14.14-5.36,2.63-7.24,4-7,5.14-15.61-.48-37-5-23.3-4.92-28-1.38-35-8-3.34-3.15-6.79-8.22-11.9-8a111.43,111.43,0,0,1-7.1-18c-5.67-19.09-4.54-34.26-3-55a240.72,240.72,0,0,1,12-59c3.78-11.17,7-20.61,14-32A125.07,125.07,0,0,1,796.12,531a2.34,2.34,0,0,0,1.43.22c2.3-.37,2.36-3.56,5-6,3-2.76,7.39-2.85,22,0,16.88,3.29,25.32,4.94,30,8S861.69,539.15,864.44,540.51Z"
                  transform="translate(0 0)"/>
            <path class="cls-3"
                  d="M513.55,449.2c15.13-.23,25.43-.39,35.46.23a101.69,101.69,0,0,0-22.46,13.77c-14.17,11.48-21.5,23.82-28,35a167.17,167.17,0,0,0-12.87,27.74c-18.26-43.54-27.7-63-17.13-72.74C472.19,449.84,486,449.63,513.55,449.2Z"
                  transform="translate(0 0)"/>
            <path class="cls-3"
                  d="M666.55,494.2c.62.93,1.15,1.83,1.62,2.7a95.42,95.42,0,0,0-15.62,8.3c-26.26,17.27-36.35,42.71-44,62a180.28,180.28,0,0,0-12,70c.44,16.34.87,32.14,10,50a90.2,90.2,0,0,0,12.35,18.21c-11.24-.76-15-.4-24.35-2.21a148.7,148.7,0,0,1-21-6c-9-3.4-17.49-12.08-25-22.93-3.49-27.8-6.44-71.15,2-109.07a220.38,220.38,0,0,1,16-46c7.87-16.15,13.61-27.91,26-38a74.42,74.42,0,0,1,29.12-14.32,193,193,0,0,1,28.88,14.32C658.85,486.31,663.07,489,666.55,494.2Z"
                  transform="translate(0 0)"/>
            <path class="cls-3"
                  d="M961.14,726.73a3.69,3.69,0,0,0-.59.47c-2,2-.92,4.37-2,7-3.24,7.88-20.92,4.84-50,6-22.35.89-35.77,3.64-42-4-1.35-1.66-3.93-5.72-8-6a4.82,4.82,0,0,0-.76,0,128.37,128.37,0,0,1-17.24-35c-8.08-25.87-5.53-47.27-2-77,1.93-16.21,4.23-34.33,14-56a158.79,158.79,0,0,1,11.89-21.69,6.65,6.65,0,0,0,4.11.69c4.23-.63,4.53-4.28,11-7,1.35-.57,1.84-.62,13-2,10.09-1.24,12.12-1.5,14,0a7.15,7.15,0,0,1,2.25,3.49h0a152.92,152.92,0,0,0-8.25,28.5c-5.7,30.69-.31,54.84,3,69,4.46,19,12.23,52.27,41,80A129.94,129.94,0,0,0,961.14,726.73Z"
                  transform="translate(0 0)"/>
            <path class="cls-3"
                  d="M492.55,683.2c-2-12.42,5.84-38.28.23-58-10.08-35.43-16-56.28-27.78-82-17.12-37.41-37.67-65.65-59-95-9.32-12.81-19.84-17.63-17.36-23,5.41-11.74,59.72-12.91,89.13,11,9.36,7.61,14.17,16.11,23.15,32a181.84,181.84,0,0,1,17.36,43,174.86,174.86,0,0,1,5.79,47c-.1,6.4-.48,7-5.79,45-3.48,25-5.22,37.42-5.79,42-3.3,26.61-15.24,52-16.9,52C494.3,697.19,494.23,693.63,492.55,683.2Z"
                  transform="translate(0 0)"/>
            <path class="cls-3"
                  d="M522.55,483.2c4.78,5,29.4,31,24,39a15.78,15.78,0,0,1-3.18,2.86c-4.27-.06-9.26,0-14.82.14-7.38.25-20.8.69-34,3a152.69,152.69,0,0,0-37.08,11.62c-31.57-76.48-71.68-121.23-61.92-129.62,3-2.62,6.76,1.9,64,29,12.89,6.1,25.2,11.79,40,23C509.89,470,516.16,476.56,522.55,483.2Z"
                  transform="translate(0 0)"/>
            <path class="cls-3"
                  d="M613.55,786.2c.75,15.59,3.88,24.76-1,29-1.54,1.34-3.6,2-4,4a3.22,3.22,0,0,0,0,1.07,228.07,228.07,0,0,1-30,3.93c-15.55,1-27.42.13-43-1-8.17-.59-18.77-1.56-31.19-3.2-1.47-37.34-3.55-66.36-7.81-101.8a1.36,1.36,0,0,1,0-.2,283.45,283.45,0,0,1,34-4.8,288.58,288.58,0,0,1,56,1c5.86.67,11.19,1.47,15.87,2.28.17,2.21,2.36,4.44,4.13,7.72,1.27,2.35,1.86,5.27,3,11a241.89,241.89,0,0,1,4,38C613.76,782.34,613.27,780.27,613.55,786.2Z"
                  transform="translate(0 0)"/>
            <path class="cls-3"
                  d="M633.55,1317.2c.45,2.35,1.73,7.54-1,11-1.2,1.52-2.86,2.24-3,4a3.69,3.69,0,0,0,.31,1.75c-2.2,1.07-4.64,2.18-7.31,3.25-11,4.42-18.65,4.34-39,8-31.76,5.71-42.91,5.75-52,5A131.49,131.49,0,0,1,516,1348c-3.26-36.67-9.44-91.26-4.41-208.76.25-5.8.15-19.83-.27-42.87,3.6.38,7.73.7,12.27.87,18.17.68,30.33-1.59,48-4,10.26-1.4,24.54-3.14,42-4.6.28,1.64,2.39,2.51,4,4.6,1.91,2.54,1.87,5.33,2,8,.37,7.29,1.75,6.86,3,18,3,26.62,6.11,126.58,10,161C633.94,1292.46,631.23,1305.08,633.55,1317.2Z"
                  transform="translate(0 0)"/>
            <path class="cls-3"
                  d="M614.55,862.2c.29,22.83,4.47,41.07-2,45a9.34,9.34,0,0,0-2.65,2q-21.42,0-44.35,1c-20.41.91-39.94,2.36-58.5,4.22q-.24-9.87-.5-20.22c-.72-29.2-1.36-53-2.19-74.2,12.42,1.64,23,2.61,31.19,3.2,15.58,1.13,27.45,2,43,1a228.07,228.07,0,0,0,30-3.93c.23,1.84,1.89,3.43,3,4.93,1.71,2.23,2.81,5,3,26C614.61,858,614.5,858.3,614.55,862.2Z"
                  transform="translate(0 0)"/>
            <path class="cls-3"
                  d="M618.55,1062.2c.35,3.56,2,19.07-3,23-.41.32-2,1.45-2,3a1.7,1.7,0,0,0,0,.4c-17.5,1.46-31.78,3.2-42,4.6-17.67,2.41-29.83,4.68-48,4-4.54-.17-8.67-.49-12.27-.87-.41-22.7-1.12-54.14-2.1-95.09h13.37c13.7-.1,29.31-.22,44-1,11.5-.61,26.73-1.85,45-4.57,0,2.51,2.46,4.43,4,6.57,3.37,4.58,2.46,10.13,2,16C616.46,1032.07,617.52,1051.88,618.55,1062.2Z"
                  transform="translate(0 0)"/>
            <path class="cls-3"
                  d="M632.55,1337.2c5.93,5.47,3.7,19.94,2,31-.88,5.75.89,12.77-3,18.5h-114c.58-12-.27-23.88-1.59-38.74a131.49,131.49,0,0,0,15.59,2.24c9.09.75,20.24.71,52-5,20.35-3.66,28-3.58,39-8,2.67-1.07,5.11-2.18,7.31-3.25A10,10,0,0,0,632.55,1337.2Z"
                  transform="translate(0 0)"/>
            <path class="cls-3"
                  d="M577.55,592.2c.79,2.35,2.61,8,0,11-.88,1-2.15,1.62-2.71,2.25-2.7.17-5.83.4-9.29.75-7.87.78-25.13,2.56-43,8a167,167,0,0,0-38,17.07,419.45,419.45,0,0,0-16-62.07c-3.49-10.26-7.22-20.06-11.08-29.38a152.69,152.69,0,0,1,37.08-11.62c13.2-2.31,26.62-2.75,34-3,5.56-.18,10.55-.2,14.82-.14-.58.48-1,.86-.82,1.14.31.65,2.76-.62,5,0,4.15,1.14,5.59,8.17,6,10C556.85,550.93,568.47,565.17,577.55,592.2Z"
                  transform="translate(0 0)"/>
            <path class="cls-3"
                  d="M614.55,919.2c.92,10.29,11.37,63.79,0,72-.59.43-2.71,1.79-3,4a3.1,3.1,0,0,0,0,.43c-18.24,2.72-33.47,4-45,4.57-14.69.78-30.3.9-44,1H509.18c-.61-25.26-1.32-54.14-2.13-86.82,18.56-1.86,38.09-3.31,58.5-4.22q22.92-1,44.35-1a1.65,1.65,0,0,0-.35,1c.07,1.13,1.65,1.49,3,3C614.32,915.17,614.41,917.65,614.55,919.2Z"
                  transform="translate(0 0)"/>
            <path class="cls-3"
                  d="M593.55,655.2c8,27,18.45,52.53,12,57-.76.52-2.46,1.25-3,3a3.29,3.29,0,0,0-.13,1.28c-4.68-.81-10-1.61-15.87-2.28a288.58,288.58,0,0,0-56-1,283.45,283.45,0,0,0-34,4.8c-4.3-35.84-7.52-62.63-11.93-86.73a167,167,0,0,1,38-17.07c17.87-5.44,35.13-7.22,43-8,3.46-.35,6.59-.58,9.29-.75a.9.9,0,0,0-.29.75c.15,1,2.35,1.06,4,2,4,2.27,4,9.33,4,11C582.82,631.74,590,643.17,593.55,655.2Z"
                  transform="translate(0 0)"/>
            <path class="cls-4"
                  d="M494.55,697.2c-2-5-8.64-30.35-12-55-10.88-79.8-46.73-143.77-60-167-24.68-43.2-41.49-57-36-64,8.78-11.22,65,7.09,94,47,14.57,20,19.87,42.13,22,51,5.75,24,4.73,44.28,4,57-1.23,21.47-4.06,18.81-6,45-1.58,21.29-.21,29.8-3,52C496.34,672.78,495.7,700.08,494.55,697.2Z"
                  transform="translate(0 0)"/>
            <path class="cls-3"
                  d="M359.31,669c3.41,11.09,6.72,22.81,10.24,35.23,4.54,16,7.25,28.74,9,37q.87,4.1,1.66,8.1a170.35,170.35,0,0,1-26.66,2.9c-4.62.14-7.61,0-11,0-15.87-.21-28.29.84-42,2-25.51,2.16-46.93,5.79-54,7-76.25,13.08-76.35,14.55-112,20-32.37,5-43.12,5.39-108,15l-6.77,1a7,7,0,0,0-1.23-3c-3.63-5.71.27-45.52,1-55,1.46-19-2.23-15.43-2-52,.12-19,1.15-25,3-31,3-9.7,1.66-14,13-35,9.82-18.19,10.46-17.37,17-28,8.92-14.5,19.8-22.5,24-27a172.66,172.66,0,0,1,29-25c36.08-24.09,83.8-20.6,92-20,.62,0,1.56.12,2.78.24,14.53,1.42,69.07,9.29,111.22,52.76a161.14,161.14,0,0,1,19,23.75C342.14,618.58,351,641.9,359.31,669Z"
                  transform="translate(0 0)"/>
            <path class="cls-3"
                  d="M392.55,861.2c.82,23.89,2.09,43.77,3.61,61.45-12.67,1.33-30.08,3.4-50.61,6.55-41.37,6.34-55.09,10.91-83,16-45.46,8.29-87.91,16-139,11-19.45-1.92-47.29-6.39-83,3C36,960.41,31.77,961.71,28,963a21.33,21.33,0,0,0-2.45-1.8c-3.65-2.8-3.11-9.31-3-12,.53-13.22-5-47-5-66a9.27,9.27,0,0,1,1-5c1.26-2.17,3.09-2.65,3-4a1.47,1.47,0,0,0-.47-1H32.55s30.44-.2,56-1c13.87-.44,122.25-3.84,191-20,4.8-1.13,22.66-5.44,47-10,19.22-3.6,32.66-5.53,36-6,10.43-1.48,20-2.6,28.67-3.46C392,845.14,392.33,854.82,392.55,861.2Z"
                  transform="translate(0 0)"/>
            <path class="cls-3"
                  d="M396.16,922.65c2.88,33.67,6.67,59.39,10,89.65-6.49.14-14.11.41-22.61.9,0,0-21.48,1.25-43,4-35.75,4.58-62.57,12.63-92,18,0,0-59.55,10.86-143,7a450.71,450.71,0,0,0-61,1q-3.27.27-6.17.56a27.36,27.36,0,0,0-2.83-3.56c-3-3.81-2.74-8.2-3-12-.84-12-9.21-49.23-8-57,.27-1.71.55-3.56,2-5,1-1,1.92-1.2,2-2A1.53,1.53,0,0,0,28,963c3.77-1.29,8-2.59,12.55-3.8,35.71-9.39,63.55-4.92,83-3,51.09,5,93.54-2.71,139-11,27.91-5.09,41.63-9.66,83-16C366.08,926,383.49,924,396.16,922.65Z"
                  transform="translate(0 0)"/>
            <path class="cls-3"
                  d="M391.22,832.74c-8.63.86-18.24,2-28.67,3.46-3.34.47-16.78,2.4-36,6-24.34,4.56-42.2,8.87-47,10-68.75,16.16-177.13,19.56-191,20-25.56.8-56,1-56,1H21.08a30.58,30.58,0,0,1-2.53-2c-1.94-2.1-1.94-4.94-2-7-.41-13.81-4.53-21.7-2-46,0,0-1.41-17.86,3-19,.42-.11,1.52-.2,2-1a1.79,1.79,0,0,0,.23-1l6.77-1c64.88-9.61,75.63-10,108-15,35.65-5.45,35.75-6.92,112-20,7.07-1.21,28.49-4.84,54-7,13.71-1.16,26.13-2.21,42-2,3.39,0,6.38.14,11,0a170.35,170.35,0,0,0,26.66-2.9A653.12,653.12,0,0,1,391.22,832.74Z"
                  transform="translate(0 0)"/>
            <path class="cls-3"
                  d="M413.55,1137.2c.49,30.45.63,56.35.64,78.91-7.26,1.23-16.29,2.66-26.64,4.09-17.59,2.44-47.88,6.06-89,8-82.67,3.9-78.1-6.14-145-2-15.9,1-45,3.34-82-5-5.48-1.23-10.41-2.54-14.65-3.77a8.37,8.37,0,0,0-1.35-1.23c-8.69-6.75-11-75-11-75-.08-2.3-.27-4.57,1-7,.92-1.77,2-2.52,2-4a4.37,4.37,0,0,0-1.6-2.94c4.33-1.1,9.23-2.17,14.6-3.06a187.48,187.48,0,0,1,53-1c17.62,1.85,43.41.57,95-2,36.47-1.81,98.87-5.27,174-26,12-3.32,22.11-6.46,29.44-8.83C412.71,1101.47,413.25,1118.23,413.55,1137.2Z"
                  transform="translate(0 0)"/>
            <path class="cls-3"
                  d="M416.58,1354.35c.93,10.71,2.21,21.44,4,32.85,0,0-343-1-343-.5-7.92-10.91-11.93-21.65-9-26.5,1.74-2.89,4.44-5,4-8a4.69,4.69,0,0,0-.45-1.43c2,.46,4.17.94,6.45,1.43,38.84,8.34,69,9.38,105,10,94.31,1.63,77.66-2.23,127,0,16.68.75,40.61,2.19,73-2C396.5,1358.53,407.7,1356.36,416.58,1354.35Z"
                  transform="translate(0 0)"/>
            <path class="cls-3"
                  d="M414.21,1297.46c.19,21,.79,38.89,2.37,56.89-8.88,2-20.08,4.18-33,5.85-32.39,4.19-56.32,2.75-73,2-49.34-2.23-32.69,1.63-127,0-36-.62-66.16-1.66-105-10-2.28-.49-4.44-1-6.45-1.43a10.82,10.82,0,0,0-3.55-3.57c-9.17-7,.41-23.2-7-44-1.75-4.91-5.11-11.92-2-16,1.4-1.84,3.84-2.71,4-5a3.41,3.41,0,0,0-.14-1.2c8.06,1.65,17.17,3.42,27.14,5.2a955.39,955.39,0,0,0,111,14c35,2.22,61.2,1.66,92,1,25.48-.54,40.73-1.56,92-3C396.55,1297.89,406.27,1297.65,414.21,1297.46Z"
                  transform="translate(0 0)"/>
            <path class="cls-3"
                  d="M414.19,1216.11c0,33.08-.2,58.94,0,81.35-7.94.19-17.66.43-28.66.74-51.27,1.44-66.52,2.46-92,3-30.8.66-57,1.22-92-1a955.39,955.39,0,0,1-111-14c-10-1.78-19.08-3.55-27.14-5.2-.45-1.46-1.81-2.61-2.86-3.8-2.15-2.4-3.1-5.93-5-13-3.41-12.69-3.22-22.31-3-33,.08-4,.4-8.3,3-10,.64-.42,1.85-1,2-2a2.36,2.36,0,0,0-.65-1.77c4.24,1.23,9.17,2.54,14.65,3.77,37,8.34,66.1,6,82,5,66.9-4.14,62.33,5.9,145,2,41.12-1.94,71.41-5.56,89-8C397.9,1218.77,406.93,1217.34,414.19,1216.11Z"
                  transform="translate(0 0)"/>
            <path class="cls-3"
                  d="M406.16,1012.3c2.32,21.07,4.42,44.36,5.83,74.07-7.33,2.37-17.42,5.51-29.44,8.83-75.13,20.73-137.53,24.19-174,26-51.59,2.57-77.38,3.85-95,2a187.48,187.48,0,0,0-53,1c-5.37.89-10.27,2-14.6,3.06a12.27,12.27,0,0,0-1.4-1.06c-10.31-7.08-9.69-68.28-10-75a5.51,5.51,0,0,1,1-4c1.14-1.29,2.58-1,3-2a1.68,1.68,0,0,0-.17-1.44q2.89-.29,6.17-.56a450.71,450.71,0,0,1,61-1c83.45,3.86,143-7,143-7,29.43-5.37,56.25-13.42,92-18,21.52-2.75,43-4,43-4C392,1012.71,399.67,1012.44,406.16,1012.3Z"
                  transform="translate(0 0)"/>
            <path class="cls-5" d="M359.31,669a393.46,393.46,0,0,0-122.76,13.2" transform="translate(0 0)"/>
            <path class="cls-5"
                  d="M328.57,598c-18.68-2.82-42.16-4.58-67-1.75a276.73,276.73,0,0,0-29,5,266.34,266.34,0,0,0-41,13"
                  transform="translate(0 0)"/>
            <path class="cls-5"
                  d="M198.33,521.44c-13.91,8.57-25.51,15.18-33.78,19.76-17.22,9.54-26.33,13.79-40,23a259.81,259.81,0,0,0-26,20"
                  transform="translate(0 0)"/>
            <path class="cls-3"
                  d="M383.55,767.2c-2.36,1-6.33-10.41-20-33-33.73-55.75-35-60.79-45-76a286.33,286.33,0,0,0-72-75c-17.32-12.25-37-25.89-66-32-20.4-4.3-37-7.79-54-3-7.55,2.12-15,2.75-30,4-7.42.62-12.37.75-14-2-2.49-4.19,4.34-12.24,5-13,4.56-5.28,9.29-6.86,16-10,12.71-5.94,19.16-9,25-15,4.32-4.48-2.85-13.3,9-28,3.51-4.36,12.2.73,15,0,7.86-2,16.52,7.4,20,11,7.31,7.57,29.2,20.38,73,46,25.1,14.68,24.86,11.46,38,20,49.46,32.14,69,88.27,87,140C379.5,726.92,387.92,765.39,383.55,767.2Z"
                  transform="translate(0 0)"/>
            <path class="cls-4"
                  d="M164.55,464.2c-12.65,6.51-28.28,14.55-29,27-.17,2.88.35,8,7,16,15.46,18.68,36.07,19.49,63,30,17.81,7,29.37,14.62,45,25,25.95,17.23,42.37,33.93,68,60,20.13,20.47,24.24,27,26,30,9.68,16.23,8.92,24.53,20,50,5.43,12.48,17.15,58,20,57,3.69-1.32-6-66.77-24-109-10.27-24.15-21.2-49.85-45-77-22.72-25.92-53.25-48.71-59-53-12.55-9.37-19.51-13.44-27-24-15-21.08-9.78-36.65-22-43C196.79,447.61,183.13,454.64,164.55,464.2Z"
                  transform="translate(0 0)"/>
            <path class="cls-5"
                  d="M344.55,606.2a77.21,77.21,0,0,0,18,7c11.56,2.89,20.57,2.24,36,1,13.65-1.1,20.48-1.65,29-5a67.77,67.77,0,0,0,21-13,64.68,64.68,0,0,0,12-15"
                  transform="translate(0 0)"/>
            <path class="cls-3"
                  d="M258.55,721.2c2.69,18.47,6.23,42.7,1,59a39.84,39.84,0,0,0-2.15,11.57,157.47,157.47,0,0,0-65.85-27.57c-12.7-2.12-51.94-8.09-92,13-25.34,13.34-40.37,31.91-46,39a153.3,153.3,0,0,0-13.68,20.4c-.1-.14-.21-.27-.32-.4-2.64-3.12-5.53-2.76-9-6-5.74-5.36-5.81-13.79-6-18,0-.12-3.67-15.75-11-47s-11.56-40.13-6-47c1.86-2.3,6.61-6.58,6-12a6.75,6.75,0,0,0-.19-1,127,127,0,0,1,17.19-12c30.51-17.63,60.09-17.37,101-17,18.28.16,42.64.53,74,8a295,295,0,0,1,49.1,16.36C256.77,709.31,257.86,716.46,258.55,721.2Z"
                  transform="translate(0 0)"/>
            <path class="cls-3"
                  d="M291.55,888.2c6.53,20.39,9.3,21.49,8,28-.62,3.1-2.12,7.23-.8,10.55a178.71,178.71,0,0,0-63.2-7.55c-13.75.84-53.14,3.25-87,29-4.89,3.72-17.26,15.48-42,39l-8.91,8.5c-1.89-.25-6.19.75-9.09-1.5s-2.94-7-3-9c-.61-20.45-24.57-34.46-19-49,1.39-3.61,4.37-6.68,3-10a4.51,4.51,0,0,0-.8-1.27c2.83-4.31,6.09-8.93,9.8-13.73,7.37-9.53,24.15-30.87,51-48,13.65-8.71,58.61-37.4,113-26A127.46,127.46,0,0,1,277.28,850c1.28,4.25,3.84,7.26,5.27,9.17C287.1,865.29,284.39,865.86,291.55,888.2Z"
                  transform="translate(0 0)"/>
            <path class="cls-3"
                  d="M318.55,982.2c3.44,8.53,8.87,16.75,8,24,0,.43-.65,5.18-.89,7.15-8.17-.61-18-1.09-29.11-1.15-19.89-.1-39.25-.6-60,4-55,12.19-88.32,44.29-96,52a185.1,185.1,0,0,0-13,14.51,5.14,5.14,0,0,0-1-2.51c-1.82-2.36-4.88-1.56-8-3-5.27-2.44-6.63-9.41-8-15-3.92-16-10.74-32.24-14-40-3.58-8.52-7.07-15.13-4-20,2.06-3.27,6.44-4.74,6-6-.11-.3-.43-.45-.91-.5,2.79-2.67,5.77-5.52,8.91-8.5,24.74-23.52,37.11-35.28,42-39,33.86-25.75,73.25-28.16,87-29a178.71,178.71,0,0,1,63.2,7.55,6.09,6.09,0,0,0,.8,1.45c1.6,2.16,3.55,2,6,4,4,3.38,4.62,8.88,5,12C311.93,955.52,313.74,970.27,318.55,982.2Z"
                  transform="translate(0 0)"/>
            <path class="cls-3"
                  d="M226.55,638.2a181.65,181.65,0,0,1,28.1,62.36,295,295,0,0,0-49.1-16.36c-31.36-7.47-55.72-7.84-74-8-40.91-.37-70.49-.63-101,17a127,127,0,0,0-17.19,12,11.33,11.33,0,0,0-2.81-5c-7.2-8.2-5.39-49.09,20-83,5.56-7.42,17.08-22.45,38-33,40.81-20.57,81.57-6,90-3C195.57,594.42,214.83,621.64,226.55,638.2Z"
                  transform="translate(0 0)"/>
            <path class="cls-3"
                  d="M264.55,815.2c7.15,12.57,13.37,15.14,13,23-.15,3.29-1.3,4.18-1,8a18.06,18.06,0,0,0,.73,3.83,127.46,127.46,0,0,0-34.73-12.83c-54.39-11.4-99.35,17.29-113,26-26.85,17.13-43.63,38.47-51,48-3.71,4.8-7,9.42-9.8,13.73-1.41-1.6-3.81-2.11-6.2-4.73-3.14-3.43-3.6-7.56-4-10-3.22-19.49-19.63-31.36-18-54,.57-7.91,3.16-14.57-.68-19.6a153.3,153.3,0,0,1,13.68-20.4c5.63-7.09,20.66-25.66,46-39,40.06-21.09,79.3-15.12,92-13a157.47,157.47,0,0,1,65.85,27.57,35.45,35.45,0,0,0,.15,4.43C258.31,804.1,261.6,810,264.55,815.2Z"
                  transform="translate(0 0)"/>
            <path class="cls-3"
                  d="M336.55,1032.2c3.48,10.57,8.65,12.75,7,18-.81,2.59-2.94,4.83-5,7a33.32,33.32,0,0,1-6,5c-7.7,5.17-12.6,20.75-13,22-4.76,14.75-40.82,71.61-95,82-24.89,4.78-35-3.82-67-6-1.77-.12-6.78-.44-10-4-2.94-3.25-2.88-7.53-3-10-.64-12.77-8.24-13-14-32-3.76-12.43-5.64-18.65-4-25,.43-1.68,1.28-4.22,1-6.49a185.1,185.1,0,0,1,13-14.51c7.68-7.71,41-39.81,96-52,20.75-4.6,40.11-4.1,60-4,11.1.06,20.94.54,29.11,1.15-.07.52-.11.85-.11.85,2.22.86,3.47,1.36,4.16,1.65l.84.35C334.55,1018.11,333.88,1024.08,336.55,1032.2Z"
                  transform="translate(0 0)"/>
            <path class="cls-3"
                  d="M558.55,1119.2a.76.76,0,0,0,.26.18,169,169,0,0,0-20.26,28.82c-18.86,33.87-21,65.25-22,83a221,221,0,0,0,4.28,57.33,5.15,5.15,0,0,0-2.28-.33c-4,.28-5.48,3.52-10,6-5.55,3-11,2.36-16,2-19-1.38-33.91,1.78-65-1-8-.72-14.79-1.62-19-6-.2-.2-.65-.69-1.19-1.22a177.73,177.73,0,0,1-.81-22.78c.86-29.62,9-50.84,19-77,8-20.77,16-41.34,33-65a233.89,233.89,0,0,1,20.37-24.58c.29,1.39.68,2.37,1.63,2.58,2.2.47,3.46-4,8-6s9.1-.33,13,1c18.09,6.2,27.14,9.29,33,10,5.63.68,18.19,1.36,21,5a14.67,14.67,0,0,1,2.34,4.39C558.56,1117.9,558,1118.66,558.55,1119.2Z"
                  transform="translate(0 0)"/>
            <path class="cls-3"
                  d="M652.55,1121.2c20,7.2,22.44,107.9,13,135a45.82,45.82,0,0,1-8,14c-2.23,2.5-6.08,6.13-14,10-7.45,3.64-10.78,3.71-31,8-19.75,4.19-27.31,6.39-32,2-1.56-1.46-3.37-4.19-6-4a3.49,3.49,0,0,0-1.65.56c-.9-5.76-1.74-12.33-2.35-19.56-1.7-20.3-3.82-45.67,5-76a158.23,158.23,0,0,1,23-48,145,145,0,0,1,16.51-18.9c2.43-.06,5.53-7.53,12.49-9.1,2.35-.53,6.6.64,15,3C647,1119.44,651.55,1120.84,652.55,1121.2Z"
                  transform="translate(0 0)"/>
            <path class="cls-3"
                  d="M427.45,1079.71a2.17,2.17,0,0,1,0,.26,224.18,224.18,0,0,0-32.89,19.23c-12.43,8.76-38.9,27.84-60,63-28.76,47.91-28.26,93.58-28,103,.13,4.7.44,9.08.85,13.07-.87.66.21,5-1.85,6.93-2.94,2.78-10.52-.87-13-2-8.44-3.85-3.39.55-41-8-24.44-5.56-30.26-8.26-35-11-3.85-2.23-16.92-10-16-18,.32-2.77,2.28-5.53,1-7a2.61,2.61,0,0,0-2.45-.58,270.09,270.09,0,0,1,5.45-27.42c6.16-24.36,13.3-52.92,34-79,26.93-33.93,63.48-46.93,103-61,9.67-3.44,18.78-6.22,27.09-8.46a5.79,5.79,0,0,0,3.91,2.46c3.42.38,4.81-2.87,9-4,4.7-1.27,7.7,1.52,14,4,14.13,5.56,25.49,1.9,29,7C427.43,1076.38,427.45,1079.62,427.45,1079.71Z"
                  transform="translate(0 0)"/>
            <path class="cls-3"
                  d="M475.55,1089.2c2.66,3,2.85,6.91,3.37,9.42a233.89,233.89,0,0,0-20.37,24.58c-17,23.66-25,44.23-33,65-10,26.16-18.14,47.38-19,77a177.73,177.73,0,0,0,.81,22.78c-1-1-2.32-2.1-2.81-1.78s.81,2.57,0,4c-1.27,2.25-7.2,1.15-8,1-14.1-2.58-28.67-.43-43-1-24.67-1-37.39,1.59-42-6-1.18-1.94-2.88-6.28-4-6a.35.35,0,0,0-.15.07c-.41-4-.72-8.37-.85-13.07-.26-9.42-.76-55.09,28-103,21.1-35.16,47.57-54.24,60-63a224.17,224.17,0,0,1,32.89-19.2c0,.69-.1.93.11,1.23,1.41,2,8.65-3.6,17-3,4.46.32,4,2,12,5C468,1087.42,471.9,1085,475.55,1089.2Z"
                  transform="translate(0 0)"/>
            <path class="cls-3"
                  d="M364.55,1058.2a24.61,24.61,0,0,1,4.09,4.54c-8.31,2.24-17.42,5-27.09,8.46-39.52,14.07-76.07,27.07-103,61-20.7,26.08-27.84,54.64-34,79a270.09,270.09,0,0,0-5.45,27.42,26.56,26.56,0,0,1-4.55.58c-6.61-.37-9.25-11.94-15-23-10.62-20.45-22.79-21.73-25-39a42.25,42.25,0,0,1,0-10c.74-8,3.52-18.71,14-33,27-36.81,63-54,63-54,27.42-13.09,53-15.84,73-18,22.5-2.42,24.09,1.13,38-3C349,1057.3,358.44,1053.63,364.55,1058.2Z"
                  transform="translate(0 0)"/>
            <path class="cls-3"
                  d="M614.55,1124.2a1.16,1.16,0,0,0,.51.1,145,145,0,0,0-16.51,18.9,158.23,158.23,0,0,0-23,48c-8.82,30.33-6.7,55.7-5,76,.61,7.23,1.45,13.8,2.35,19.56-1.43.92-2.47,2.78-4.35,4.44-3,2.65-6.33,3.1-13,4-6.36.86-15.88,2-27-2-3.92-1.42-5.47-3.79-7.72-4.67a221,221,0,0,1-4.28-57.33c1-17.75,3.14-49.13,22-83a169,169,0,0,1,20.26-28.82c2.26,1,9.51-6.81,19.74-8.18,4.14-.56,2.82.75,15,2,11.47,1.18,16.58.43,19,4C614.56,1120.16,612.93,1123.48,614.55,1124.2Z"
                  transform="translate(0 0)"/>
            <path class="cls-1"
                  d="M619.55,1211.2c1-14.81,2.17-29,10-46a114,114,0,0,1,16-25,151.31,151.31,0,0,1,35-31c10.55-6.85,18.18-11.82,30-15,7.18-1.93,23.18-6,42,0,9.53,3,15.06,7.39,36,27,18.83,17.63,30.32,29.07,53,52,11,11.15,21.92,22.27,33,39,3.77,5.69,10.1,15.87,12,30,.88,6.59,1.85,14.68-3,22-4.5,6.79-11.57,9.21-14,10-9.42,3.07-18.16.64-23-1-26.12-8.84-47.52-31.29-80-52-26.68-17-26.54-4.28-29.5-3.5-9.87,2.58-19.15-.86-44.5,21.5-9.58,8.45-13.61,11.08-17,13-7.55,4.28-20.39,11.57-35,8-2.81-.69-9.62-2.35-15-8C617.44,1243.69,618.09,1232,619.55,1211.2Z"
                  transform="translate(0 0)"/>
            <path class="cls-1"
                  d="M784.55,1185.2c14,16,20,20,46,48,5.32,5.73,15.77,13.1,21,27,1.67,4.43,4.75,13,2,23-.76,2.78-3.38,12.33-12,17-8.36,4.52-17.42,1.78-23,0-14.87-4.74-23.79-14.52-34-26-21.79-24.5-28.83-33.53-39-45-6.5-6.5-9.69-2.65-7.5-9.5"
                  transform="translate(0 0)"/>
            <path class="cls-1"
                  d="M744.55,1201.2s40.3,30.89,56,62a43.65,43.65,0,0,1,5,18c.19,4.19.58,12.86-5,21s-15.51,13.3-25,13c-9-.29-15.41-5.42-23-12-22.54-19.55-34.17-29.81-52-53-18.45-24-20.27-31.32-21-36"
                  transform="translate(0 0)"/>
            <path class="cls-1"
                  d="M365.55,60.2c.5-3.65,7-3.77,22-11,17.77-8.56,18.33-13,33-20a100.45,100.45,0,0,1,37-10c8.64-.57,25-1.64,42,7,19.75,10.06,28.55,27.32,34,38,13.67,26.8,11.74,51.8,11,60-1.52,16.84-6.41,28.41-13,44-6.68,15.82-20.75,43.9-27,42-3.55-1.08-2.45-11.19-3-20-2.86-45.55-51.81-85.89-86-104C389.59,72.45,364.54,67.47,365.55,60.2Z"
                  transform="translate(0 0)"/>
            <path class="cls-6"
                  d="M28.55,366.2c4-1,9.62-1.21,20-7,2.4-1.34,9.81-5.86,18-22,8.91-17.56,11-33.59,12-42,6.86-56.86,6.92-59.43,8-67,3.1-21.69,6.81-47.7,21-74,17.56-32.55,42.81-50.07,60-62,8.78-6.1,42.73-28.74,93-38,32.66-6,58.21-3.8,79-2,27.18,2.36,46.3,4,70,14,7.48,3.15,38.56,16.89,66,49,18.41,21.54,27.11,41.92,33,56a259.24,259.24,0,0,1,17,63c4.06,28.83,6.58,81.3,7,90a86.77,86.77,0,0,0,5,25s5.09,14.07,13,22l3,3,2,2c2.2,2.9-7.33,16.43-23,30-8.22,7.11-13.26,10-15,11-7.37,4.12-11,6.18-16,7-.63.1-3,.47-3,1s3,.68,7,2a28.06,28.06,0,0,1,8,4c2.31,1.71,5.64,4.83,5,6-.37.67-1.81.23-6,0a47.74,47.74,0,0,0-7,0c-3.44.39-5.74,1.89-9,4-13.85,9-12.61,7.91-14,9-7.07,5.54-12,11.33-26,28-12.79,15.23-15,17.9-20,22a86.39,86.39,0,0,1-19,12c-6.82,3-18.13,6.6-54,3a422,422,0,0,1-45-7,473.58,473.58,0,0,1-53-14c-14.72-4.85-25.29-9.19-44-13-7.55-1.54-13.18-2.33-18-3-23.1-3.21-34.65-4.81-46-1-8.86,3-14.53,7.7-16,6s3-8.37,6-12c6.38-7.72,12.56-9.85,12-12s-7.42-1.68-15-2c-7-.29-23.58-1-38-9a49.75,49.75,0,0,1-19-19c-2.1-3.88-4.54-9.82-3-11,1.28-1,4.05,2.28,9,4,9.34,3.24,20.12-1.19,20-3-.09-1.43-7.05-1.12-18-3-4.79-.82-22.83-4-38-13C40.14,392.93,27.55,374.2,28.55,366.2Z"
                  transform="translate(0 0)"/>
            <path class="cls-7"
                  d="M171.55,106.2c-8.72,7.2-24.42,20.44-36,43-7.74,15.09-9.88,27-14,50-6.47,36.11-8.6,79.32-9,88a131.93,131.93,0,0,1-3,25c-2.42,10.77-6.38,27.4-20,41a59.66,59.66,0,0,1-15,11c-12.31,6.19-22,1.77-24,6-2.64,5.71,12.18,17.56,14,19,11.14,8.79,22.72,11.83,31,14,6.92,1.81,11.47,3,18,3,11.28,0,17.06-3.61,19-1,2.31,3.12-3.48,11.53-8,16a25.65,25.65,0,0,1-11,7c-9,2.65-16.22-1.62-17,0s5.9,6.92,13,11a78.55,78.55,0,0,0,30,10c7.2.76,13.93,1.47,22-1,14.45-4.43,20.52-15.2,24-13,2.55,1.61,1.65,8.88-1,14-3.82,7.37-10.55,8.86-10,11,.73,2.85,12.85,1.1,28,2,8,.47,14,1.65,26,4,23.09,4.51,36.18,11,63,20,25.21,8.48,41.65,12.19,63,17,25.28,5.7,37.22,7,51,3,5.12-1.5,16.8-5,27-15,7-6.82,6.36-9.89,17-24,8.78-11.64,13.17-17.46,20-22,15.17-10.09,32.1-9,32-12-.09-2.7-13.54-3-14-7-.28-2.46,4.53-4.74,11-8,10.42-5.25,20.84-10.51,29-16s18.36-12.37,18-21c-.1-2.33-.92-3.69-4-9,0,0-1.33-2.3-12-21-6.07-10.63-4.64-21.4-4-34,0,0,.42-8.35-3-61-.77-11.83-3.39-47.61-20-85-5.22-11.75-17.87-39.51-44-64-44.73-41.92-99.9-47-122-49C266.16,51.75,205.39,78.24,171.55,106.2Z"
                  transform="translate(0 0)"/>
            <path class="cls-1"
                  d="M136.55,193.2c2.84,2.5,7.63,6.6,15,8,10.11,1.92,18.36-2.53,21-4,5.63-3.14,9.93-7.6,21-28,12.36-22.78,10.56-23.81,17-32,3.59-4.57,12.27-15.37,27-22,9.21-4.15,18.24-5.52,28-7,9.3-1.41,15.71-1.52,26-5s12.84-6.39,14-8c1.93-2.68,4.32-7.83,2-20-4-21.1-16.91-35.69-19-38-20.86-23.06-47.94-28.5-56-30-9.71-1.81-32.26-5.7-57,5-33.09,14.3-46.34,44.41-51,55-10.05,22.84-10,43.42-10,56a144.36,144.36,0,0,0,5,37C125.73,183.15,134,190.93,136.55,193.2Z"
                  transform="translate(0 0)"/>
            <path class="cls-5"
                  d="M386.55,205.2a82.66,82.66,0,0,1,22-1c9,.82,10,2.48,20,3a101.31,101.31,0,0,0,20-1c4-.6,7.45-1.36,10-2"
                  transform="translate(0 0)"/>
            <path class="cls-5" d="M401.55,176.2a38.69,38.69,0,0,1,10,1c5.91,1.39,8.38,3.48,13,5a33.42,33.42,0,0,0,16,1"
                  transform="translate(0 0)"/>
            <path class="cls-5" d="M144.55,319.2a86.15,86.15,0,0,0,19,1" transform="translate(0 0)"/>
            <path class="cls-5"
                  d="M188.55,355.2a19.09,19.09,0,0,1-4,7c-3.79,4.15-8.24,5-8,6s5.13,1.24,10,0c6.37-1.62,10-5,11-4,.56.57-.47,1.62-1,5a24.6,24.6,0,0,0,0,7,30.73,30.73,0,0,0,1,5"
                  transform="translate(0 0)"/>
            <path class="cls-5" d="M241.55,397.2a18.67,18.67,0,0,0-1,9" transform="translate(0 0)"/>
            <path class="cls-8"
                  d="M277.67,304a54.56,54.56,0,0,1,14-26.33c7.17-7.38,14.59-10.59,26.33-15.67,6.56-2.84,12-4.49,22.67-7.67,18-5.38,27.21-8.07,37.33-8.33,9.37-.24,17.88-.35,26,5,6.5,4.28,9.63,10,13,16.33,9.15,17.19,8.56,32.39,11,32.33,1.4,0,2.36-5.1,4-14,2.55-13.87,1.82-16.68,3.67-22,2.43-7,8.21-15.13,15.33-18.33,17.92-8.06,44.45,15,56.67,31.33a94.52,94.52,0,0,1,16,44.33c.6,6.81-.08,12.08-2.33,17a25.48,25.48,0,0,1-9,11c-6.83,4.47-13.66,3.41-13.67,4.67,0,1.09,5.09,2.9,10,1.67,4.75-1.19,7.26-4.72,7.67-4.33s-1.9,5.42-6.67,8.33c-6.57,4-14.54,2.12-19,1-8.81-2.22-8.82-5.07-15.33-7-15.33-4.54-24.77,8.43-43,4.67A36,36,0,0,1,422,354.33,50.27,50.27,0,0,1,410.33,345c-5.19-5.26-5-6.62-7-7-4.71-.88-7.86,6.17-17,13.67A64.1,64.1,0,0,1,370,361.33c-9.33,3.93-17.14,4.59-30,5.67-8.39.7-15.63.75-15.67.33s10.5-1,24.67-5c7.28-2,13.8-4.53,13.67-5s-10.05,3-23.33,4c-8.16.61-19.27,1.45-31.67-3.33-5.37-2.07-17-6.56-24.67-18.67C273.52,324.4,276.76,308.46,277.67,304Z"
                  transform="translate(0 0)"/>
            <path class="cls-1"
                  d="M441.55,273.2c1.07-4.71,2-8.35,5-12,.28-.34,6.46-7.51,16-8,9.36-.48,16.11,5.77,25,14a90,90,0,0,1,16,20c6.47,10.46,11,17.73,11,28,0,3.43-.07,10.88-5,18-6,8.7-15.21,11-19,12-3.46.88-12,3-19-1a24.6,24.6,0,0,1-5-4c-2.76-2.93-3.68-5.49-5-8-2.65-5-4.69-5.69-9-11a64.29,64.29,0,0,1-9-15C437.54,291.6,440.44,278.07,441.55,273.2Z"
                  transform="translate(0 0)"/>
            <path class="cls-7"
                  d="M458.55,296.2c1.42-1.76,3.85-1.85,8-2a31.8,31.8,0,0,1,12,2c4.52,1.63,8.22,3,9,6,.36,1.4-.09,2.6-1,5a26.67,26.67,0,0,1-6,9c-3.15,3.27-4.73,4.9-7,5-2.49.11-4.32-1.56-7-4a27.23,27.23,0,0,1-7-10C458.16,303.6,456.34,298.91,458.55,296.2Z"
                  transform="translate(0 0)"/>
            <path class="cls-1"
                  d="M294.55,304.2c1.38-9.61,6.58-15.88,10-20,8.15-9.82,17.76-14,29-19a125.07,125.07,0,0,1,21-7c11.35-2.9,17.76-4.47,26-3,4.44.79,10.25,1.83,15,6,13.18,11.58,7.37,37.83,2,51a56.13,56.13,0,0,1-12,19c-11.16,11.44-24.33,14.53-31,16-6.49,1.43-16.7,3.69-29,0-4.71-1.41-15.18-4.71-23-15C300.56,329.59,292.48,318.61,294.55,304.2Z"
                  transform="translate(0 0)"/>
            <path class="cls-7"
                  d="M347.55,303.2c.23-.89,1-2.36,7-5a47,47,0,0,1,13-4c6.77-1,11.71-1.78,14,1,1.28,1.55,1.18,3.52,1,7a24,24,0,0,1-3,11c-1.4,2.48-5.39,9.58-12,10-2.83.18-5-.94-7-2-4.2-2.2-6.23-5.28-10-11C347.27,305.22,347.35,304,347.55,303.2Z"
                  transform="translate(0 0)"/>
            <path class="cls-5"
                  d="M403.55,319.2a151.45,151.45,0,0,1-7,15c-3.58,6.69-5.78,10.72-10,15a43.79,43.79,0,0,1-9,7"
                  transform="translate(0 0)"/>
            <path class="cls-9"
                  d="M459.55,421.2c.47.64-4.38,4.09-10,11-2.06,2.53-1.68,2.4-7,10-7.71,11-9.54,12.76-11,14-.74.62-1.6,1.36-2.63,2.11a31.14,31.14,0,0,0-.37-9.11c-1.54-6.91-6.65-11.19-10-14a40.58,40.58,0,0,0-8.08-5.28,11.73,11.73,0,0,0,4.08-2.72c.9-.94,2.79-3.28,6-4,2.89-.65,5.24.37,7,1a40,40,0,0,0,23,1C456,423.62,459.15,420.66,459.55,421.2Z"
                  transform="translate(0 0)"/>
            <path class="cls-10"
                  d="M428.55,449.2a31.14,31.14,0,0,1,.37,9.11,26.47,26.47,0,0,1-7.37,3.89c-7.1,2.4-13.29,1-18,0a49.65,49.65,0,0,1-18-8c-5.87-4.17-10.25-10.45-19-23-6.23-8.93-6.52-10.38-6-11,2-2.32,13.4,9.52,32,11,5.13.41,12.5,1,17.92-1.28a40.58,40.58,0,0,1,8.08,5.28C421.9,438,427,442.29,428.55,449.2Z"
                  transform="translate(0 0)"/>
            <path class="cls-5"
                  d="M410.47,429.92c-5.42,2.28-12.79,1.69-17.92,1.28-18.6-1.48-30-13.32-32-11-.52.62-.23,2.07,6,11,8.75,12.55,13.13,18.83,19,23a49.65,49.65,0,0,0,18,8c4.71,1,10.9,2.4,18,0a26.47,26.47,0,0,0,7.37-3.89c1-.75,1.89-1.49,2.63-2.11,1.46-1.24,3.29-3,11-14,5.32-7.6,4.94-7.47,7-10,5.62-6.91,10.47-10.36,10-11s-3.54,2.42-9,4a40,40,0,0,1-23-1c-1.76-.63-4.11-1.65-7-1-3.21.72-5.1,3.06-6,4A11.73,11.73,0,0,1,410.47,429.92Z"
                  transform="translate(0 0)"/>
            <path class="cls-5"
                  d="M410.47,429.92a40.58,40.58,0,0,1,8.08,5.28c3.35,2.81,8.46,7.09,10,14a31.14,31.14,0,0,1,.37,9.11"
                  transform="translate(0 0)"/>
            <path class="cls-11"
                  d="M475.55,390.2a57.78,57.78,0,0,1-1,13c-1,5.38-2,10.65-6,16a26.82,26.82,0,0,1-11,9c-4.89,2.11-9.07,2-13,2a40.61,40.61,0,0,1-15-3,42.22,42.22,0,0,1-12-8,51.2,51.2,0,0,1-4-4"
                  transform="translate(0 0)"/>
            <path class="cls-11"
                  d="M441.55,382.2a78.23,78.23,0,0,1-3,18,58.56,58.56,0,0,1-8,18,39.24,39.24,0,0,1-9,10c-6.53,4.92-13.16,6-20,7-6.45,1-17.22,2.43-30-2a58.18,58.18,0,0,1-20-12,44.81,44.81,0,0,1-8-9,40.53,40.53,0,0,1-5-11"
                  transform="translate(0 0)"/>
            <path class="cls-5" d="M434.55,460.2a45.42,45.42,0,0,1,0,7,31.74,31.74,0,0,1-2,10,26.82,26.82,0,0,1-5,8"
                  transform="translate(0 0)"/>
            <path class="cls-12"
                  d="M414.55,355.2c-.5,1.18-.76,2.3-1,7-.3,6-.46,9.08,0,11,.4,1.7,1.47,6.18,5,9,1.8,1.44,3.75,2,16,2,11.81,0,15.84-.63,18-1,7.37-1.25,10.24-2.81,12-4a20.52,20.52,0,0,0,6-6c3.65-5.68,3.24-11.61,3-15-.31-4.51-.56-8-3-11-3.17-3.86-8-4.25-17-5a70.71,70.71,0,0,0-23,2,28,28,0,0,0-11,5A15.66,15.66,0,0,0,414.55,355.2Z"
                  transform="translate(0 0)"/>
            <path class="cls-7"
                  d="M441.55,350.2a10.3,10.3,0,0,0-2,7c.43,4.85,4.31,7.52,5,8,2.47,1.71,5.35,1.83,11,2,7.2.22,10.84.28,13-2,2.71-2.86,2.1-7.25,2-8a12.42,12.42,0,0,0-5-8c-4.09-3.19-8.69-3.08-12-3C449.56,346.29,444.51,346.41,441.55,350.2Z"
                  transform="translate(0 0)"/>
            <path class="cls-8"
                  d="M331,381.67c.5,1.12-3.63,2.5-6.67,7.67-3.4,5.79-2.87,12-2.67,14,1.13,11.32,9.7,17.67,8.67,18.67s-8.77-3.22-12.67-11c-3-6.06-2.31-11.59-3.67-11.67-1.18-.06-2.87,4-2.67,8,.19,3.6,1.87,5.89,1.67,6s-5-4.43-5.67-11.33c-.77-8.16,4.7-13.69,5.67-14.67C319.69,380.57,330.25,380,331,381.67Z"
                  transform="translate(0 0)"/>
            <path class="cls-8"
                  d="M389.33,475.67c.72-.79,3.48,2.13,10.67,4,2.94.77,7.35,1.91,12.33,1,7.45-1.36,10.86-6.34,12-5.33S423,483.05,417.67,487c-.83.62-6.62,4.8-14,3.33C393.43,488.3,388.11,477,389.33,475.67Z"
                  transform="translate(0 0)"/>
            <path class="cls-8"
                  d="M480.33,380c-.59.37,2.11,4,3.67,11a33.79,33.79,0,0,1,.67,13.33c-1.18,6.94-4.55,10.64-4,11s7-4.77,8.67-12.67A21.7,21.7,0,0,0,488,390.33C485.62,384.05,481,379.57,480.33,380Z"
                  transform="translate(0 0)"/>
            <path class="cls-8"
                  d="M396,195.25c0-.8,5.7-1.75,11.25-1.75,8.53,0,13.67,2.26,18.5,3.5,17.33,4.45,32.13-3.79,32.5-2.5.29,1-8.86,6.42-20.5,7-6.77.34-8-1.28-22.75-3.5C402.78,196.16,396,196.12,396,195.25Z"
                  transform="translate(0 0)"/>
            <path class="cls-8"
                  d="M411.75,169.25a45.28,45.28,0,0,1,11.75,4.5c3.12,1.74,4.3,2.93,7.25,3.5a19.12,19.12,0,0,0,7.5-.25c2.63-.5,6.35-1.64,6.25-2.25s-5.53.2-12.25-.25A60.2,60.2,0,0,1,411.75,169.25Z"
                  transform="translate(0 0)"/>
        </g>
        <g id="Layer_6" data-name="Layer 6">
            <path class="cls-1"
                  d="M1412.55,474.2c14.17,6.72,36.44,18.3,52,32a35.43,35.43,0,0,1,7,8c9.37,14.89,4.22,32.75,3,37-1.7,5.91-7.49,26-23,31-6.38,2.06-13.51,1.28-43-15-26.69-14.74-40-22.11-46-29-19.29-22.31-29.8-63.29-13-77C1362,451,1388.29,456.76,1412.55,474.2Z"
                  transform="translate(0 0)"/>
            <path class="cls-13"
                  d="M924.55,1109.2a12.4,12.4,0,0,0-5,5c-3.14,5.6-1.46,12.11-1,14,4.23,17.51,17.91,114.76,19,129,.7,9.08,2.46,12.72,6,20a10.5,10.5,0,0,0,2,3c5.38,5.48,16.18,3,19,2,15-5.46,13.57-46.68,13-60-3-70.21-30.36-109.43-41-113C929.28,1106.76,924.55,1109.2,924.55,1109.2Z"
                  transform="translate(0 0)"/>
            <path class="cls-14"
                  d="M1069.55,761.2c1.55-2.43,11.08-14.13,10-28-.22-2.78-.87-5.72,0-10,1.66-8.19,7.27-13.42,10-16,0,0,1.43-1.35,25-26,12.39-13,10.35-16,26-36,.82-1,13.84-17.65,24-27,20-18.37,41.24-20.08,70-27,76.61-18.44,83.71-44.38,140-44,10.25.07,25.34.29,44,6,46.71,14.3,72.65,49.82,82,63,14.15,19.94,20.15,37,30,65a455,455,0,0,1,20,79c9.51,58.08,15.89,135.4,13,254-1,41.4-1.69,69.27-5,109-7.51,90-16.19,92.78-34,230-1.78,13.73-4,33.5-4,33.5h-372s15-134.12-44-337.5C1104.55,1049.2,1036.18,813.55,1069.55,761.2Z"
                  transform="translate(0 0)"/>
            <path class="cls-1"
                  d="M676.55,1262.2c-5.36-4.74-7.34-10.22-9-15-1.58-4.54-5.62-16.74-1-31,1.58-4.89,7-21.59,20-24,9.42-1.75,17.56,5,20,7,13.93,11.52,18,34.27,10,51-1.34,2.79-8.61,18-22,19C685.27,1269.91,678,1263.45,676.55,1262.2Z"
                  transform="translate(0 0)"/>
            <path class="cls-1"
                  d="M684.55,1289.2c-8.8-11-6.09-24.56-4-35s5.16-25.79,18-31c12.64-5.13,25.31,3.52,26,4,10.6,7.47,11.1,21,12,37,.52,9.23.78,15.33-3,22-6.24,11-17.94,13.77-19,14C702.57,1302.83,690.91,1297.14,684.55,1289.2Z"
                  transform="translate(0 0)"/>
            <path class="cls-1"
                  d="M731.55,1313.2c-11.13-10.32-11-25.27-11-26,.09-3.69.37-16,10-23,1.13-.82,7.93-5.75,16-4,11.92,2.58,16,17.47,17,21s4.07,17.08-4,28c-1.27,1.72-7.92,10.72-17,10C737.6,1318.81,734.26,1315.72,731.55,1313.2Z"
                  transform="translate(0 0)"/>
            <path class="cls-1"
                  d="M787,1078.7c-42-1-66.07,37.64-65.5,67.5.11,5.78.46,16.24,8,24,9,9.31,23.5,9.64,33,7,12.94-3.59,19.8-13.54,27-24a79.83,79.83,0,0,0,13-31"
                  transform="translate(0 0)"/>
            <path class="cls-1"
                  d="M863,1125.7c6,3,9.86,8.33,34.5,8.5,12.93.09,14-1.74,19,0,15.18,5.25,20.37,26.88,24,42,3.08,12.81,10,41.47-3,51-3,2.18-7.31,2.79-16,4-9.62,1.34-14.5-.5-21.5,1.5"
                  transform="translate(0 0)"/>
            <path class="cls-15"
                  d="M890.55,1125.2c-3.61,6.38,7.94,14.36,17,34,3,6.6,12.48,27.05,10,51-1.73,16.73-8.54,28-3,33,3.12,2.79,8.1,1.72,12,1,35.72-6.62,44.88,3.8,56-5,10.58-8.37,9.72-25.25,8-59-1.51-29.52-2.71-48-16-57-7.35-5-15.82-5.35-31-6-6.93-.3-15.62.8-33,3C893.71,1122.33,891.66,1123.23,890.55,1125.2Z"
                  transform="translate(0 0)"/>
            <path class="cls-14"
                  d="M982.55,1105.2c2.89-3.27,5.42-2.22,27-8,16-4.29,13.8-4.65,27-8,18.64-4.73,23.07-4,34-9,10.57-4.81,10.57-7.37,14-7,14.5,1.55,20.18,47.7,26,95,.74,6-.18,28.33-2,73-.21,5.16-.77,15.45-8,22-4.55,4.13-9.61,4.83-19,6-18.3,2.28-36.76,3.25-55,6-13.51,2-19.63,4-24,0-5.38-4.92-3.65-14.8-3-19,5.65-36.23-1.25-80.33-5-97C987.78,1129.13,974.55,1114.24,982.55,1105.2Z"
                  transform="translate(0 0)"/>
            <path class="cls-14"
                  d="M916.55,1115.2c-1.73-3.46,1.63-9.08,5-12,3.67-3.18,7.59-3.38,17-4,15.34-1,23-1.51,26-2,14.09-2.29,15.49-6.06,22-5,9.74,1.58,16.22,11.58,21,21,14.92,29.4,13.89,54.4,18,128,0,.43,1.89,33.82-11,44a28.92,28.92,0,0,1-10,5c-5.56,1.33-9.1,0-16-1-8.4-1.25-6.87.12-22-1-15.56-1.16-18.72-2.72-21-5-4.07-4.07-5.18-10.22-4-11s3.81,4,9,5c5.59,1,10.71-3,12-4,7.2-5.67,7-20,1-57-6.13-37.89-5.46-20-15-67,0,0-6.73-33.11-16-34a21.85,21.85,0,0,0-5,0c-4.48.71-6.61,3.05-9,2A4.29,4.29,0,0,1,916.55,1115.2Z"
                  transform="translate(0 0)"/>
            <path class="cls-14"
                  d="M1174.55,548.2c-17.17,26.26-23,40-23,40a192.52,192.52,0,0,1-12,25c-6.89,11.86-11.77,17-15,20-7.57,7-9.15,5.09-16,11-12.85,11.08-10,20.23-24,35-7.61,8-14.32,11.53-14,12,.58.84,22.7-9.61,46-28,14.54-11.48,21.24-19.5,36-23,9.15-2.17,16.3-1.4,21-1s26.11-1.07,69-4c57-3.89,85.78-6,101-14a128.16,128.16,0,0,0,38-31c10.77-12.62,14.35-21.75,16-27,2.28-7.26,3.82-12.17,3-18-2.39-17-21.94-20.92-46-45-15.77-15.78-11.59-18.31-20-24C1294.09,448.83,1200.09,509.14,1174.55,548.2Z"
                  transform="translate(0 0)"/>
            <path class="cls-1"
                  d="M1507.55,597.2c8.07-1.64,18,19.76,26,37,6.72,14.48,7,20.16,5,25-2.74,6.66-10.07,12.43-17,12-13.07-.82-20.11-23.37-22-35C1496.92,620,1500,598.74,1507.55,597.2Z"
                  transform="translate(0 0)"/>
            <path class="cls-5"
                  d="M1343.55,850.2a105.51,105.51,0,0,0,33-5c10.21-3.29,14.14-6.34,27-13,26.34-13.63,27.94-10.18,50-22,19.72-10.56,16.86-12.47,36-22,16.77-8.35,23.46-9.12,33-17,11-9.06,16.81-20.16,20-28"
                  transform="translate(0 0)"/>
            <path class="cls-5"
                  d="M1479.55,840.2a112.55,112.55,0,0,1-2-21c0-14.92,3-17.34,4-18,4-2.73,9.94-.43,11,0,2.86,1.17,9.19,4.7,17,31a215.82,215.82,0,0,1,8,41c.64,6.56.89,12.07,1,16"
                  transform="translate(0 0)"/>
            <path class="cls-14"
                  d="M1321.55,886.2c1.66-35.22-9.26-61.14-21-89-11.28-26.76-18-42.8-35-58-27.29-24.45-60.08-28-79-30-13.16-1.41-38.59-3.86-68,7-12.44,4.59-31.63,11.68-46,30-12.51,15.94-14.83,32.07-18,54-7,48.14,5.77,75.57-3,100-1,2.92-4.25,10.93-3,21a40.55,40.55,0,0,0,6,18c3.65,5.59,6.85,7,7,11,.19,5-4.66,8.71-7,11-9.55,9.33-8,25.75-7,42,1.34,21,.91,42,2,63,2.83,54.28-5.34,49.64-3,97,0,.19,2.1,42.36-8,54a20.11,20.11,0,0,0-5,10,20.9,20.9,0,0,0,2,12c11.18,24.83,33,44,33,44,8.92,7.84,22.93,20,45,30,9.34,4.25,26.84,12,51,14,19.12,1.55,41.68,3.38,57-11,7.64-7.17,10.47-15.56,14-26a126.82,126.82,0,0,0,6-49c-.78-14.11,2.48-42.74,9-100,5.92-51.95,8.87-77.92,13-91,4.79-15.19,14.36-38.67,8-54-.76-1.83-3.57-8-1-13,2.72-5.33,9.94-6.51,12-7C1300,972,1319.55,928.51,1321.55,886.2Z"
                  transform="translate(0 0)"/>
            <path class="cls-5" d="M1279.55,1020.2a32.82,32.82,0,0,0,10-5,33.17,33.17,0,0,0,10-12"
                  transform="translate(0 0)"/>
            <path class="cls-14"
                  d="M1051.55,1237.2a99.68,99.68,0,0,0-13,18c-6.59,12.2-7.86,21.78-10,32a300.09,300.09,0,0,1-20,58c-13,27.87-20.32,33.83-19,41.5h211c2.73-4.32,11.41-24,19-39.5,7.22-14.73,10.88-23.6,14-33,3.34-10.06,5-15.09,6-22,2.54-17.82-1.63-32.2-7-50"
                  transform="translate(0 0)"/>
            <path class="cls-5" d="M1124.55,1295.2a138.71,138.71,0,0,1-68-42" transform="translate(0 0)"/>
            <path class="cls-5"
                  d="M1092.55,1167.2a100.5,100.5,0,0,0,11,18c4.36,5.69,11.63,15,24,22,10.17,5.76,20.5,8.11,21,7,.63-1.4-15.15-6.34-27-21a62.27,62.27,0,0,1-11-21"
                  transform="translate(0 0)"/>
            <path class="cls-5" d="M1044.55,1263.2a38.65,38.65,0,0,0-2,20,39.17,39.17,0,0,0,12,22"
                  transform="translate(0 0)"/>
            <path class="cls-5"
                  d="M1170.55,713.2c-1.51,3.49-3.58,8.31-6,14.07-5.28,12.57-5.71,14.1-6,16.08-1.36,9.17,2.77,10.07,2,20.1-.53,6.94-2.56,7.24-5,19.1a137.25,137.25,0,0,0-2,14.07c-1.93,17.54-.5,18-2,27.14-1.93,11.71-4.47,12-7,25.13a115.63,115.63,0,0,0-2,21.11c-.56,24.53-8.06,43.93-12,70.37-1.52,10.17-.63,8.82,0,76.4.36,38.74.54,58.11,0,70.37-1.15,25.95-3.52,47.24-7,78.41-2.79,25-4.17,33-6,55.29-2,24-2.32,38.56-2,52.27.33,14.24,6.76,22.39,2,32.17-2.73,5.61-7.11,9-12,20.1-1.88,4.29-2.42,6.49-4,11.06a202.55,202.55,0,0,1-12,27.14c-3.42,6.78-7.7,14.62-13,23.12"
                  transform="translate(0 0)"/>
            <path class="cls-5" d="M1061.55,950.2a133.15,133.15,0,0,1,23-13c4.24-1.85,6.78-2.69,15-6s14.73-6.12,19-8"
                  transform="translate(0 0)"/>
            <path class="cls-1"
                  d="M1241.55,138.2c-1.85-8.13-.9-16.42,1-33,2.71-23.67,8-31.34,11-35a38.85,38.85,0,0,1,14-11c15.58-7,31.67-.55,38,2,20.37,8.21,31,24.32,40,38a132.48,132.48,0,0,1,17,38c4.47,15.26,6.7,22.89,4,30-6.47,17-34.24,22.27-51,22C1283.21,188.68,1248.1,167,1241.55,138.2Z"
                  transform="translate(0 0)"/>
            <path class="cls-8"
                  d="M1532.55,392.2c4.22,2.87-5.45,23.82-6,25a149.51,149.51,0,0,1-37,49c-9.58,8.06-27.16,22.52-53,28a128.77,128.77,0,0,1-40,2c-8-1.11-14.67-3-15-2-.41,1.25,8.84,6.76,20,9,10.62,2.13,16.2,0,17,2,1.45,3.7-15.19,14.9-32,22-10.51,4.44-19.34,6.29-37,10-21.37,4.49-27.29,3.55-30,3-4.53-.92-9-2.55-10-1-1.58,2.51,7.69,10.83,9,12,4.32,3.88,10.16,9.11,19,11,6.44,1.38,10.84.2,11,1,.25,1.31-11.43,5.29-24,8-7.69,1.66-29.5,5.82-60,3a242.64,242.64,0,0,1-35-6s-17.68-4.39-25-9c-2.27-1.43-4.94-2.28-7-4-.64-.53-1.25-1.11-2-1-1.84.26-2.66,4.3-3,6-.5,2.48-1.27,6.26,0,10,2.57,7.59,11.5,9.08,11,11-.69,2.66-18,.29-29-2-6.94-1.44-12.22-3-17-6s-7.3-4.56-9-7c-.94-1.35-1.6-2.73-3-3-2.17-.42-4.18,2.19-6,4s-5.59,3.59-13,7c-8.44,3.89-16.67,7.68-28,9-6.17.72-14.87,1.63-25-2a40.62,40.62,0,0,1-15-9,39.14,39.14,0,0,1-6.28-7.81,69.71,69.71,0,0,0,19.28,5.81c4.16.6,22,2.77,40-6,28.12-13.7,38.31-45.22,43-43,2.08,1-1.18,6.58,1,17,2.84,13.53,12,21.52,16,25,1.65,1.44,7.23,6.3,9,5,1.52-1.11-1.24-5.65-2-11-2-14.37,10.93-30.4,16-29,2.69.74,1.57,6,4,12,6.36,15.84,30.24,20.34,51,24,26.44,4.66,57.1,5.12,58,0,.38-2.16-5-3-11-9-12.75-12.64-16.11-35.74-9-41,3.79-2.8,7.91,1.4,22,5,17.54,4.48,31.77,3.24,46,2,13.65-1.19,33-4.52,33-8,0-2-6.77-2.09-15-6-16.93-8-28.57-26.94-25-32,2.92-4.14,14.36,3.35,36,7,9.36,1.58,35.21,5.94,62-4,35.37-13.12,51.66-43.47,54-48,3-5.9,9.93-19.19,11.3-35.46a22,22,0,0,0,10.7.46C1528.28,394,1530.81,391,1532.55,392.2Z"
                  transform="translate(0 0)"/>
            <path class="cls-7"
                  d="M1500.55,390.2a71.31,71.31,0,0,0,11.3,4.54c-1.37,16.27-8.25,29.56-11.3,35.46-2.34,4.53-18.63,34.88-54,48-26.79,9.94-52.64,5.58-62,4-21.64-3.65-33.08-11.14-36-7-3.57,5.06,8.07,24,25,32,8.23,3.91,15,4,15,6,0,3.48-19.35,6.81-33,8-14.23,1.24-28.46,2.48-46-2-14.09-3.6-18.21-7.8-22-5-7.11,5.26-3.75,28.36,9,41,6,6,11.38,6.84,11,9-.9,5.12-31.56,4.66-58,0-20.76-3.66-44.64-8.16-51-24-2.43-6-1.31-11.26-4-12-5.07-1.4-18,14.63-16,29,.76,5.35,3.52,9.89,2,11-1.77,1.3-7.35-3.56-9-5-4-3.48-13.16-11.47-16-25-2.18-10.42,1.08-16-1-17-4.69-2.22-14.88,29.3-43,43-18,8.77-35.84,6.6-40,6a69.71,69.71,0,0,1-19.28-5.81,46.24,46.24,0,0,1-2.72-5.19c-2.22-4.84-3.4-7.45-3-11,.51-4.48,3.25-7.77,2-9-.72-.71-2.24-.21-3,0-4.61,1.27-9-.54-15-3-7.45-3.06-11.66-9-16-15-4.76-6.65-7.08-12.49-10-20-1.66-4.27-3.11-9.18-6-19-6.55-22.23-5.22-22.27-8-27a11.66,11.66,0,0,1-2-6c0-3.73.16-7.42,4-12a143.7,143.7,0,0,1,12-13c7.93-6.65,13-9,16-11a22.68,22.68,0,0,0-1-7c-5.4-12.08-6.92-58.11-3-89,1.36-10.74,7-48,32-88,23.81-38.1,52.59-58.57,59-63,37.38-25.87,73.2-31.86,98-36,38.49-6.43,68.58-3.29,89-1,24.29,2.72,37.54,4.2,54,12,27.48,13,42.44,33.46,56,52,24,32.87,34.58,65.12,39,79,17.31,54.43,20,67,20,67,2,9.19,4.69,23.53,16,36A64.35,64.35,0,0,0,1500.55,390.2Z"
                  transform="translate(0 0)"/>
            <path class="cls-5"
                  d="M1052.27,564.39a46.24,46.24,0,0,1-2.72-5.19c-2.22-4.84-3.4-7.45-3-11,.51-4.48,3.25-7.77,2-9-.72-.71-2.24-.21-3,0-4.61,1.27-9-.54-15-3-7.45-3.06-11.66-9-16-15-4.76-6.65-7.08-12.49-10-20-1.66-4.27-3.11-9.18-6-19-6.55-22.23-5.22-22.27-8-27a11.66,11.66,0,0,1-2-6c0-3.73.16-7.42,4-12a143.7,143.7,0,0,1,12-13c7.93-6.65,13-9,16-11a22.68,22.68,0,0,0-1-7c-5.4-12.08-6.92-58.11-3-89,1.36-10.74,7-48,32-88,23.81-38.1,52.59-58.57,59-63,37.38-25.87,73.2-31.86,98-36,38.49-6.43,68.58-3.29,89-1,24.29,2.72,37.54,4.2,54,12,27.48,13,42.44,33.46,56,52,24,32.87,34.58,65.12,39,79,17.31,54.43,20,67,20,67,2,9.19,4.69,23.53,16,36a64.35,64.35,0,0,0,21,15,71.31,71.31,0,0,0,11.3,4.54,22,22,0,0,0,10.7.46c5.73-1.21,8.26-4.19,10-3,4.22,2.87-5.45,23.82-6,25a149.51,149.51,0,0,1-37,49c-9.58,8.06-27.16,22.52-53,28a128.77,128.77,0,0,1-40,2c-8-1.11-14.67-3-15-2-.41,1.25,8.84,6.76,20,9,10.62,2.13,16.2,0,17,2,1.45,3.7-15.19,14.9-32,22-10.51,4.44-19.34,6.29-37,10-21.37,4.49-27.29,3.55-30,3-4.53-.92-9-2.55-10-1-1.58,2.51,7.69,10.83,9,12,4.32,3.88,10.16,9.11,19,11,6.44,1.38,10.84.2,11,1,.25,1.31-11.43,5.29-24,8-7.69,1.66-29.5,5.82-60,3a242.64,242.64,0,0,1-35-6s-17.68-4.39-25-9c-2.27-1.43-4.94-2.28-7-4-.64-.53-1.25-1.11-2-1-1.84.26-2.66,4.3-3,6-.5,2.48-1.27,6.26,0,10,2.57,7.59,11.5,9.08,11,11-.69,2.66-18,.29-29-2-6.94-1.44-12.22-3-17-6s-7.3-4.56-9-7c-.94-1.35-1.6-2.73-3-3-2.17-.42-4.18,2.19-6,4s-5.59,3.59-13,7c-8.44,3.89-16.67,7.68-28,9-6.17.72-14.87,1.63-25-2a40.62,40.62,0,0,1-15-9A39.14,39.14,0,0,1,1052.27,564.39Z"
                  transform="translate(0 0)"/>
            <path class="cls-8"
                  d="M1127.55,231.2c-8.62,16.84-6.9,33.35-6,42,1.19,11.45,3.8,36.52,24,50,18.24,12.17,39.42,7.29,45,6,31.63-7.29,46.69-35.91,52-46,7.13-13.55,16.73-31.78,10-52-8.82-26.51-38.51-34.82-43-36C1177.77,186.86,1141.72,203.5,1127.55,231.2Z"
                  transform="translate(0 0)"/>
            <path class="cls-8"
                  d="M1023.67,320.33c-3.61,1-1.25,16.22.67,41.33,3.65,47.8.71,66.13,11.33,86.33,8,15.2,18.54,21.7,22,23.33a75.15,75.15,0,0,0,9,3.33c3.13,1,8.11,2.25,8.33,1.67s-2.65-1.72-8-5.33c-4.51-3-4.78-3.68-4.67-4,.35-1,4.81-.2,7,0,10.52.94,23.24-7.55,28.33-17,6-11.05,1.38-23.23-2.67-34-2.65-7.05-5.37-11.52-29.67-42.33-24.12-30.6-22.51-27.56-27.33-34.67C1029.56,326.57,1026.22,319.61,1023.67,320.33Z"
                  transform="translate(0 0)"/>
            <path class="cls-1"
                  d="M1144.55,287.2c5.7,6.12,11.29,12.12,21,16,19.2,7.68,37.27.18,40-1,11.7-5.07,18.47-14.38,32-33,10.72-14.75,17.76-24.44,23-40,3.22-9.58,8.48-25.81,5-46-2.29-13.27-7.35-22.49-11-29-20.94-37.35-56.58-52.69-67-57-18.45-7.64-32.54-13.47-49-8-20.71,6.88-29.92,26.59-31,29-5.3,11.81-4.69,22.25-4,34,1,17.74,5.42,22.4,10,47,3.59,19.26,1,16.75,4,31C1120.21,242.73,1125.66,266.93,1144.55,287.2Z"
                  transform="translate(0 0)"/>
            <path class="cls-12"
                  d="M977.55,458.2c.18,4.32,1.46,7.35,3,11,2.06,4.88,4.24,7.86,8,13,3.48,4.76,5,6.08,7,7,1.52.71,4.94,2.32,7,1,2.27-1.46,1.14-5.39-3-27a52.45,52.45,0,0,0-6-16c-1.82-3.15-3.15-4.63-5-5-3.64-.72-7.36,3.3-9,6C977.29,451.92,977.44,455.7,977.55,458.2Z"
                  transform="translate(0 0)"/>
            <path class="cls-7"
                  d="M982.55,449.2c-3.73,2.81-2.14,9.43-2,10,.62,2.44,2.08,4.29,5,8,2,2.5,4.26,5.4,5,5s-1-3.62-2-9c-1.61-8.67.44-13.8-2-15C985,447.44,982.94,448.9,982.55,449.2Z"
                  transform="translate(0 0)"/>
            <path class="cls-5"
                  d="M1049.55,538.2c1.78-1.17,4.54-2.94,8-5,5.68-3.38,8.44-4.67,13-8a25.08,25.08,0,0,0,7-7,22.1,22.1,0,0,0,2-4"
                  transform="translate(0 0)"/>
            <path class="cls-1"
                  d="M1017.55,347.2c4-3.06,13.39,3,18,6,4,2.57,15.91,10.74,33,36,9.83,14.53,12.49,21.6,14,27,2,7.14,3.82,14.07,1,22-.87,2.44-4.68,12-15,16-12.11,4.7-22.87-2.24-24-3-8.31-5.56-10.86-14.5-13-22s-.64-8.1-3-19c-1.89-8.72-2.93-8.76-6-20-2.6-9.54-3.46-15.42-5-26C1015.52,350.32,1016.2,348.24,1017.55,347.2Z"
                  transform="translate(0 0)"/>
            <path class="cls-7"
                  d="M1027.55,390.2c1.62-1.86,5.59-1,10,0,1.6.36,4.4,1.57,10,4,4,1.72,4.66,2.11,5,3,.5,1.32-.17,2.79-5,9-5.89,7.57-7,8-8,8-1.21-.06-2.56-.88-6-7C1028.67,398.53,1025.38,392.68,1027.55,390.2Z"
                  transform="translate(0 0)"/>
            <path class="cls-5" d="M1029.55,432.2a67.92,67.92,0,0,0,3,12c2,5.68,4.25,12.16,10,18a36.15,36.15,0,0,0,12,8"
                  transform="translate(0 0)"/>
            <path class="cls-1"
                  d="M1470.55,534.2c6.42-3.34,15.31,1.67,23,6,15.23,8.58,21.81,22.28,24,27,2.46,5.29,4,14.86,7,34,0,0,1.38,8.72,2,27,.3,9,0,12-2,15-5.09,7.32-16.64,7.09-21,7-2.39,0-18-.59-28-12-6.84-7.78-7.09-16-8-37C1465.18,547,1464,537.6,1470.55,534.2Z"
                  transform="translate(0 0)"/>
            <path class="cls-1"
                  d="M1455.55,499.2c7.38.13,13.28,5.56,17,9,7.94,7.33,10.57,16,12,21,2.56,8.89,0,8.33,2,25,.83,7,2.22,15.2,4,31,.48,4.29.72,6.73,0,10-2.42,11-12.41,16.67-13,17-10.85,6-22.33,1.72-27,0a43,43,0,0,1-22-19c-4.5-8-5-15.2-6-29-.59-8.3-1-14.15,0-21"
                  transform="translate(0 0)"/>
            <path class="cls-8"
                  d="M1088.33,502c-.73,1.27,3.06,3.13,3.67,8.33a17.8,17.8,0,0,1-1,7.33c-1.39,4.56-3.24,6-2.67,6.67,1,1.1,7.71-1.51,10-6.67a11.93,11.93,0,0,0,1-4.63c-.08-3-1.49-4.63-1-5s3.28,1.08,4.67,3.67c1.74,3.25.54,6.57,1,6.67s3.47-4.48,2.33-8.67C1104.25,502,1089.65,499.71,1088.33,502Z"
                  transform="translate(0 0)"/>
        </g>
        <g id="Layer_4" data-name="Layer 4">
            <path class="cls-16"
                  d="M22,674.7c-1.73-2-.28-6.73,12-26,14.55-22.83,21.82-34.25,29-40a88.43,88.43,0,0,1,44-18,82.83,82.83,0,0,1,44,6c18.64,8.17,28.7,21,34,28,10.62,13.94,22.27,37,16,43-3.17,3-9.76.62-15-1-9.12-2.82-27.74-3.21-65-4-38-.8-57-1.2-76,6C34.9,672.55,24.87,678,22,674.7Z"
                  transform="translate(0 0)"/>
            <path class="cls-16"
                  d="M47,792.7c-3.11-1.85-1-4.26-6-24-5-20-9-24.78-9-38,0-7.3,0-13.24,3-19,2.07-4,8.48-13.35,46-19,8.65-1.3,16.08-2,86,2,11.56.66,20.68,1.3,28,8,3.79,3.46,4.35,6,14,30,6.24,15.49,7.81,18.89,6,21-3.56,4.17-15.52-2.18-28-6,0,0-26.6-8.15-61-1C79.92,756.29,59.25,800,47,792.7Z"
                  transform="translate(0 0)"/>
            <path class="cls-16"
                  d="M68,820.7c2.62-11.33,14.75-16.89,39-28,27-12.37,48.49-15.31,54-16,28.28-3.52,44.07,1.63,48,3,9.35,3.25,21.77,9.46,21,14-1,5.77-22.68,5-23,9-.41,5.08,33.38,10.24,33,14-.26,2.54-15.9,2.11-36,4-11.71,1.1-30.61,2.88-51,9-22,6.61-42.69,12.82-58,31-7.57,9-12.38,19.19-16,18-2.9-1-1.8-8.14-3-20C73.6,834.52,65.68,830.94,68,820.7Z"
                  transform="translate(0 0)"/>
            <path class="cls-16"
                  d="M100,906.7c-1.28-5.75,13.48-12.08,43-30,22.1-13.42,22.23-15,32-19a123.69,123.69,0,0,1,44-9c19.68-.43,32.81-.72,40,8,6.57,8,1.09,14.9,10,33,4,8.1,7.73,12.08,6,15-2.63,4.43-14.91,1.38-22,0,0,0-27.95-5.45-64,3-37.56,8.8-57.49,39.12-65,33-4.23-3.45,2.24-12.94-4-22C113.54,909.26,101.19,911.84,100,906.7Z"
                  transform="translate(0 0)"/>
            <path class="cls-16"
                  d="M144,968.7c3-5.56,10.4-8.78,25-15,16.69-7.11,35-14.72,61-17,23.45-2.06,34.15,1.88,37,3,5.35,2.1,13.39,5.25,20,13,7.91,9.27,4.84,14.65,15,32,4.45,7.6,7.29,10.42,6,13-2.26,4.53-14.09,2-26,1-16.75-1.36-30.5,1.43-58,7-26.87,5.45-40.31,8.17-50,16-8.23,6.65-14,14.81-19,13-3.72-1.33-4.35-7.11-6-18C143.49,980,140,976,144,968.7Z"
                  transform="translate(0 0)"/>
            <path class="cls-16"
                  d="M170,1060.7c5.34-8.58,17.3-12.83,41-21,6.57-2.26,19.72-5.51,46-12,9.17-2.26,27.2-6.56,43-3a20.64,20.64,0,0,1,11,6c3.64,4,6.44,10.9,4,15-2.89,4.86-12.16,4.2-16,4,0,0-27.18-1.41-62,9-11.25,3.36-35.64,10.65-52,32-6.15,8-8.51,14.57-12,14C166.42,1103.62,159.55,1077.55,170,1060.7Z"
                  transform="translate(0 0)"/>
            <path class="cls-16"
                  d="M193,1127.7c2.08-11.93,13.25-18.3,32-29,5.8-3.31,23.88-13.18,51-19,13.2-2.83,26.7-4.32,27-3,.39,1.72-22.67,4.35-48,20-10.05,6.21-22.17,13.7-32,28-11.38,16.55-11.09,29.73-17,30C199.75,1155,190.83,1140.43,193,1127.7Z"
                  transform="translate(0 0)"/>
            <path class="cls-16"
                  d="M233,1170.7c0-4.38,1.07-12.66,24-34a268.54,268.54,0,0,1,56-40c20.74-11.21,30.63-13.34,34-14,5.86-1.14,2.49.13,32-2,8.93-.65,12.92-1,14,1,1.78,3.36-5.88,10.6-16,20-30.66,28.49-31,27.72-38,35-17,17.64-25.72,26.69-30,42-3.08,11-2.17,19.16-8,22-6.59,3.21-11.71-5.28-27-7-14.33-1.61-18.43,4.89-27,1S233.12,1180,233,1170.7Z"
                  transform="translate(0 0)"/>
            <path class="cls-16"
                  d="M331,1201.7c-3.8-8.12,8.41-24.19,33-56,10.47-13.55,21.71-27.1,39-40,7.69-5.74,16.74-11.47,29-13,2.34-.29,20.39-2.38,24,5,2.62,5.35-4.33,11.66-15,27-12,17.29-24.26,34.89-30,57-4.14,16-2.28,24.17-10,30-2.16,1.63-7.24,4.72-26,3C351.37,1212.53,335.44,1211.07,331,1201.7Z"
                  transform="translate(0 0)"/>
            <path class="cls-16"
                  d="M431,1216.7c-2.74-5.12-.07-8.83,16-44a368.56,368.56,0,0,1,26-46c2.8-4.19,8-11.77,17-14,2.76-.69,4.88-.62,11,0,18.44,1.86,27.71,2.86,30,6,3.25,4.46.35,10.11-5,26-4.92,14.62-9.83,29.21-12,43-4.07,25.8,3.55,35.34-4,42-3,2.6-6.9,3.61-36-1C435.31,1222.56,432.39,1219.21,431,1216.7Z"
                  transform="translate(0 0)"/>
            <path class="cls-16"
                  d="M525,1223.7c-4.74-7.54,1.22-12.22,16-56,4.27-12.63,8.89-27.41,20-35a47.08,47.08,0,0,1,14-6c3-.69,12.43-2.88,14,0,1.73,3.16-8.25,8.52-15,20-5.56,9.45-1.69,10.73-7,35-5.24,24-10.19,28.1-8,41,.68,4,1.69,6.76,0,9C554.34,1237.94,532.21,1235.09,525,1223.7Z"
                  transform="translate(0 0)"/>
            <path class="cls-16"
                  d="M584,1216.7c-3.15-5.38.34-10,7-32,5.41-17.9,4.27-18.69,8-26,3-5.84,8.8-16.87,21-23,1.25-.63,12.4-6.14,15-3,2.92,3.52-9.63,12.28-17,32a191,191,0,0,0-10,44c-.62,5.8-1,11.5-5,14C597.8,1225.94,587.7,1223,584,1216.7Z"
                  transform="translate(0 0)"/>
            <path class="cls-16"
                  d="M279,770.7c6.11-5.63,12.92,2.71,37,1,8.33-.59,15.07-2.13,32-3,10.78-.56,12.82-.18,15,1,13.34,7.2,11.27,33.06,11,36-.56,6.2-.85,9.3-3,12-6.11,7.66-17,2.41-40,5-18.18,2-22,6.51-31,3-9.41-3.67-14.19-12.06-17-17C276.86,797.84,271,778.08,279,770.7Z"
                  transform="translate(0 0)"/>
            <path class="cls-16"
                  d="M265,694.7c-2.44,7.47,9.14,11.74,12,31,1,6.39.42,10.93,4,14,4,3.47,9.74,2,17,1,25-3.33,36.25,4,40-2,.65-1,1.92-3.83-5-18-9.12-18.66-13.68-28-23-33C293.26,678.68,268.29,684.76,265,694.7Z"
                  transform="translate(0 0)"/>
            <path class="cls-16"
                  d="M232,624.7c-3.37,10,11.45,23.47,23,29a52.29,52.29,0,0,0,13,4c1.67.35,24.35,4.93,27-1,1-2.33-1.51-5.17-16-20-18.31-18.74-21.36-21.49-27-22C244,614,234.26,618.13,232,624.7Z"
                  transform="translate(0 0)"/>
            <path class="cls-16"
                  d="M148,565.7c-.09,1,11.42.11,26,7,12.09,5.72,12.11,10.06,25,15a61.08,61.08,0,0,0,22,4c5.94,0,11.43-.06,12-2,1.15-3.93-18.17-14.47-37-20C170.84,562.29,148.17,564.34,148,565.7Z"
                  transform="translate(0 0)"/>
            <path class="cls-16"
                  d="M305,864.7c-2.07,5.77,8.92,9.07,14,26,2.78,9.26,1.36,14.5,6,18,3.37,2.55,6.83,1.82,17,1,24-1.93,25.94.41,30-3,5.79-4.86,5.87-13,6-28,.12-13.59.21-24.11-6-28-5.19-3.25-10.3.91-25,5C321.11,862.91,307.37,858.19,305,864.7Z"
                  transform="translate(0 0)"/>
            <path class="cls-16"
                  d="M331,948.7c2.65-4.16,11.86,2.22,30-1,10.84-1.92,13.82-5.31,18-3s3.67,7,7,28c2.54,16,3.9,19.89,1,23-1.51,1.62-2.65,1.38-18,4-8.79,1.5-10.07,1.86-12,1-5.39-2.4-5.64-9.78-8-18C342.84,961,327.82,953.76,331,948.7Z"
                  transform="translate(0 0)"/>
            <path class="cls-16"
                  d="M363,1028.7c1.67-2.39,5.42.17,18-1,6.85-.63,9.07-1.7,11,0,1.68,1.48,1.11,3.28,2,14,.44,5.31.68,6,0,7-2.59,3.8-12.3,2.72-19-1C366.39,1042.89,360.47,1032.39,363,1028.7Z"
                  transform="translate(0 0)"/>
            <path class="cls-16"
                  d="M518,547.7c-4.64,4.91.39,10.66,0,31-.24,12.61-2.33,19,1,21,3,1.84,6.33-2.43,15-5,14.65-4.34,24.32,2.19,27-2,2-3.12-3.1-7.14-9-20-7-15.17-4.89-20.51-11-25C534.41,542.82,523,542.5,518,547.7Z"
                  transform="translate(0 0)"/>
            <path class="cls-16"
                  d="M516,638.7c-4.59,6.31.33,11.56,0,29-.32,16.87-5.13,22.81-1,27,3.92,4,8.78-.82,25,0,9.8.5,21.94,3,32,5,8.44,1.71,10.33,2.39,12,1,4.67-3.88-2.67-15.46-9-40-5.83-22.58-4.14-30.33-11-34-4.16-2.23-12.11-.15-28,4C524.37,633.75,518.49,635.34,516,638.7Z"
                  transform="translate(0 0)"/>
            <path class="cls-16"
                  d="M520,731.7c-4.91,5.61,0,9.08-1,38-.63,18.7-3,27.48,3,33,2.19,2,6.49,2.7,15,4,5.87.9,14.71,2,34,2,14.44,0,16.26-.58,18-2,5-4.12,3.79-10.69,4-28,.34-28.63,4-35.62-2-42-2.23-2.37-5.13-4-19-6C541.85,726.25,526.76,724,520,731.7Z"
                  transform="translate(0 0)"/>
            <path class="cls-16"
                  d="M523,838.7c-3.25,3.54-.85,6.85,0,25,1.08,23.13-2.08,33.49,3,36,3.08,1.52,5.19-1.82,14-4,7.51-1.86,10.42-.53,25,0,16.48.6,24.79.83,28-3,3-3.53,1.14-7.18,0-20-2.13-24,2.43-31.61-3-36-4.54-3.67-9.22.47-24,2C540.84,841.31,529.31,831.88,523,838.7Z"
                  transform="translate(0 0)"/>
            <path class="cls-16"
                  d="M525,924.7c6-4.3,10.36,2.16,30,2,18.15-.15,24-5.74,31-1,4.5,3,6,9.69,9,23,3.72,16.52,6.13,27.91,0,34-.69.68-2.38,2.19-11,4-14.53,3.06-20.06,1-36,2-15.48,1-20,3.63-24,0-3.64-3.28-3.32-8.44-3-18C522.29,933,520.15,928.21,525,924.7Z"
                  transform="translate(0 0)"/>
            <path class="cls-16"
                  d="M527,1009.7c4-3.36,5.91.83,34,1,15.53.09,23.3.14,24,0,3.32-.66,6-1.5,8,0,3.41,2.57.41,8.7,0,19-.47,11.87,3.1,14.57,4,35,.28,6.4.08,9.45-2,12-4,4.88-11.76,4.16-18,4-30.21-.76-43.65,11.34-50,4-3-3.48-1.22-7.63,0-18C531.09,1032.22,518.44,1016.84,527,1009.7Z"
                  transform="translate(0 0)"/>
            <path class="cls-16"
                  d="M532,474.7c.73-2.57,4.16-3.71,11-6a60.38,60.38,0,0,1,18-3c1.53,0,25.29-.61,26,4,.39,2.51-6.62,3.16-14,11-6.86,7.29-5.58,11.79-10,14C552.56,499.94,529.85,482.39,532,474.7Z"
                  transform="translate(0 0)"/>
            <path class="cls-16"
                  d="M579,525.7c.37-7.48,4.75-12.72,10-19a45.67,45.67,0,0,1,38-18c.91,0,18.27-.1,19,4,.54,3-8.53,4.28-19,13-9.84,8.2-15.37,18.34-19,25-7.32,13.42-6.8,19.16-11,20C590.14,552.09,578.4,538.69,579,525.7Z"
                  transform="translate(0 0)"/>
            <path class="cls-16"
                  d="M617,576.7c1.85-9.24,6.46-25,19-39,6.75-7.55,14.39-16.09,25-17,3.46-.3,6.68.27,13-1,6.85-1.37,8.21-3.07,14-4,4.47-.72,14.52-1.46,16,2s-6.74,7.6-16,19c-8.62,10.6-13.13,21.23-16,28-7.26,17.12-6,24.18-13,28-5.85,3.17-12.53,1.43-18,0C628.2,589.34,620.34,580.79,617,576.7Z"
                  transform="translate(0 0)"/>
            <path class="cls-16"
                  d="M687,603.7c-2.5-4.77.13-9.37,10-29,15.65-31.14,18.31-38,28-44,4.1-2.54,10.15-6.29,18-6,6.1.22,7.67,2.67,18,4,7.21.93,10,.19,11,2,1.66,3-4.7,7.9-10,16-5.83,8.91-7.3,17-10,32-3.41,18.88-.81,24.84-7,31-5.69,5.66-14,6.74-16,7-3,.39-6.76.42-16-2C697.41,610.61,689.6,608.57,687,603.7Z"
                  transform="translate(0 0)"/>
            <path class="cls-16"
                  d="M767,616.7c-2.24-7,2.14-9.06,13-35,9-21.45,9.72-29,19-36,3.31-2.51,9.89-7.5,18-7,4,.25,5.13,1.61,14,3,6.42,1,8,.64,9,2,2.49,3.43-4.35,10.2-9,20-1.77,3.74-2.52,6.43-6,38-2.34,21.26-2.78,27.07-8,31-4.82,3.63-10.59,3.3-16,3C789.78,635.06,771.15,629.53,767,616.7Z"
                  transform="translate(0 0)"/>
            <path class="cls-16"
                  d="M853,635.7c-3.38-9.75.44-14.38,3-33,3-22.18-.86-26.56,5-39,4.59-9.74,10.48-14.48,15-17,3.36-1.87,9.47-5.27,13-3,4.8,3.09.54,13.91-2,35-2,16.39-3.69,30.63,0,47,3.42,15.17,9.47,23.21,7,25-2.7,2-13.16-5.23-19-15-4.39-7.35-5-14.14-6-14-2.08.28,2.6,27.11-3,29C862.74,651.82,856,644.18,853,635.7Z"
                  transform="translate(0 0)"/>
            <path class="cls-16"
                  d="M918,636.7c-3.86-1.62-4-7.66-5-28-1.65-32-2.44-36.33,0-46,2.23-8.83,4.38-17.38,12-24,4-3.44,10-5.62,22-10,8.15-3,10.38-3.1,12-2,3.54,2.4,1.61,8.89,1,19-.3,5-1.56,25.87,6,45,3.53,8.93,7.24,13.08,5,17-2.43,4.26-8.33,2-18,7-6.22,3.19-5.72,5.1-15,12C928.3,633.94,922.23,638.45,918,636.7Z"
                  transform="translate(0 0)"/>
            <path class="cls-16"
                  d="M989,526.7c-4,2.67-1.46,11,5,40,5.47,24.5,7.51,35.7,12,36,2.87.19,3-4.3,11-10,4.18-3,8.94-5.19,15-8,7.11-3.29,8.56-3.41,9-5,1.11-4-7.26-6.58-13-17-3.54-6.42-1.43-7.38-5-14-4.91-9.09-12.42-13.81-16-16C1000.49,528.69,993,524.08,989,526.7Z"
                  transform="translate(0 0)"/>
            <path class="cls-17"
                  d="M175,507.7c10.94,11.27,25.44,13.59,32,15,16.27,3.51,29.52,13.34,56,33,20.42,15.16,34.92,30.35,47,43,17,17.81,24.91,28.79,26,28,1.55-1.13-12.13-25.11-31-48a249,249,0,0,0-33-34c-25.94-21.89-33.09-18.24-45-35-5.63-7.92-9.56-16.51-19-19-2.16-.57-3-.39-19,1-15.29,1.32-18.89,1.52-20,4C167.26,499.68,173.43,506,175,507.7Z"
                  transform="translate(0 0)"/>
            <path class="cls-17"
                  d="M461,503.7a50.53,50.53,0,0,1,3-6c6.07-11.31,9.14-17,11-17,5-.11,9.11,17.81,11,26a203.55,203.55,0,0,1,5,41c.13,4.92-.24,14.62-1,34-.94,24.2-1.35,28-2,28-1.36.07-1.08-16.44-7-40-5.45-21.71-8.18-32.57-13-41C464.5,522.5,458.09,513,461,503.7Z"
                  transform="translate(0 0)"/>
            <path class="cls-18"
                  d="M338,579.7c2.43-3.21,11.69,4.19,32,7,12.16,1.68,21.78.82,31,0,12.91-1.15,17.81-3.06,20-4a47.49,47.49,0,0,0,16-11c8.8-9.29,10-18.48,13-18s3.85,9.5,4,11a29.93,29.93,0,0,1-1,11c-4.06,13.78-19,21.06-23,23-9.1,4.43-16.93,5.2-25,6-8.45.84-15,.22-28-1-21.79-2-26-4.6-28-6C341.27,592.27,335.8,582.67,338,579.7Z"
                  transform="translate(0 0)"/>
            <path class="cls-18"
                  d="M366,623.7c3.23-3.33,9.73,1.74,27,3,8.08.59,19.94,1.46,32-3,18.06-6.68,23.86-20.61,31-18,4.74,1.73,5.86,9.23,7,16,3.07,18.18,10.21,35.65,12,54,4.36,44.61,5.75,23,11,82,7.78,87.48,9.87,192.88,9,239-.72,38.22-3.68,46.62,2,64,1.69,5.17,6,16.93,2,20-1.78,1.35-4.51.51-16-4-15.55-6.1-15.07-6.34-20-8a146.06,146.06,0,0,0-25-6c-8.91-1.15-13-.61-16-4-3.67-4.2-2.38-10.84-2-13,3.06-17.45-3.12-35.31-4-53-.92-18.53-1.58-12-8-76-1.48-14.75-2.22-22.12-3-31-2.64-30.07-3.14-45.34-5-75-2-32.46-3-48.69-5-67-4.45-41.8-6.68-62.7-14-80C372.48,643.45,361.21,628.68,366,623.7Z"
                  transform="translate(0 0)"/>
            <path class="cls-16"
                  d="M732,1144.7c2.81,6.34,9.21,8.72,10,9,8.75,3.1,17.28-2.12,22-5,14.13-8.64,20.85-23.55,23-29,4.13-10.47,3-15.3,7-17,4.21-1.77,8.46,2.24,26,13,10.49,6.44,17.46,10.71,18,10,.82-1.08-13.54-13.31-27-23-13.67-9.85-18.4-11.31-22-12-10.85-2.07-19.8,1.34-24,3-18.19,7.19-25.94,22.83-29,29C732.57,1129.71,728.78,1137.35,732,1144.7Z"
                  transform="translate(0 0)"/>
            <path class="cls-16"
                  d="M829,1142.7c1.61-1.75,8.48,7.64,22,9s20.57-6.69,28-2c4.19,2.65,6.12,7.84,6,12-.22,7.66-7.41,13.69-14,15-6.91,1.38-12.5-2.55-20-8C837.41,1158.79,827.08,1144.83,829,1142.7Z"
                  transform="translate(0 0)"/>
            <path class="cls-16"
                  d="M637,1191.7c-2.65-2.23,1.52-11.15,8-25,5.27-11.28,9.38-20.05,18-30a96.22,96.22,0,0,1,24-20c11.44-6.7,25.37-11.59,27-9,1,1.54-3.57,3.87-6,11-2.73,8,.7,11.78-2,18-2.08,4.78-5.77,6.38-11,10-9.9,6.86-10.55,10.75-21,21C661.9,1179.61,641.36,1195.34,637,1191.7Z"
                  transform="translate(0 0)"/>
            <path class="cls-16"
                  d="M676,1217.7c-1.94-2.08.34-8.88,5-12,4.42-3,9.54-1.63,12-1,2.83.73,8.13,2.78,8,5-.07,1.11-1.48,1.94-11,5C677.83,1218.63,676.68,1218.38,676,1217.7Z"
                  transform="translate(0 0)"/>
            <path class="cls-16"
                  d="M692,1251.7c-2.38-2.59,1.76-9.6,2-10a17,17,0,0,1,11-8c4.94-1,11.36.26,15,5,2.42,3.15,4.16,8.57,2,11s-5.68-.34-14,0C698.51,1250.08,694.11,1254,692,1251.7Z"
                  transform="translate(0 0)"/>
            <path class="cls-16"
                  d="M731,1280.7c-.85-3.23,3.4-6.63,6-8,1.62-.85,4.82-2.53,8-1a7.48,7.48,0,0,1,4,8c-1.1,4.54-7.76,5.86-12,5C736.33,1284.55,731.82,1283.64,731,1280.7Z"
                  transform="translate(0 0)"/>
            <path class="cls-16"
                  d="M784,1202.7c1.56-1.28,8.18,7.93,31,27a96.09,96.09,0,0,1,21,23c2.27,3.56,7,10.92,5,13-2.1,2.24-11-2.61-16-6-9.57-6.46-14.77-14.08-20-22C790.13,1215.12,782.67,1203.83,784,1202.7Z"
                  transform="translate(0 0)"/>
            <path class="cls-16"
                  d="M808,1176.7c-1.6,2.57,12.31,9.13,27,29,5.43,7.34,11.3,17,24,33,5.76,7.28,8.89,10.78,11,10,3.5-1.29,3-14,0-24-6.21-20.49-23.73-31.82-32-37C825.38,1179.75,809.7,1174,808,1176.7Z"
                  transform="translate(0 0)"/>
            <path class="cls-16"
                  d="M737,1216.7c-1.82,2.1,13.94,12,26,36,10,19.84,10.17,34.92,18,36,4.73.65,10.07-4.1,12-9,4.85-12.31-10.71-28.4-20-38C757.78,1225.92,739,1214.42,737,1216.7Z"
                  transform="translate(0 0)"/>
            <path class="cls-16"
                  d="M1447,516.7c-1.21.9-3.42,3.1-3,24,.32,16,.55,24.11,4,31,3.89,7.77,12.65,18.76,20,17,6.92-1.66,9.37-13.86,10-17,1.38-6.87-.21-8.94-2-26-1.56-14.79-.69-16.35-3-20C1467.41,516.79,1453.36,512,1447,516.7Z"
                  transform="translate(0 0)"/>
            <path class="cls-16"
                  d="M1499,561.7c-1.11.3,3.17,9.92,3,27-.16,15.49-3.83,22.31,1,31,3,5.45,8.58,10.17,11,9,2-1,1.91-5.88-1-20C1508.37,586,1500.8,561.23,1499,561.7Z"
                  transform="translate(0 0)"/>
            <path class="cls-16"
                  d="M1141,631.7c-.53-1.6,4.43-2.67,10-10,2.07-2.73,8.31-10.94,9-22,.29-4.6-.57-6.69,1-8,2.92-2.44,8.81,2.34,17,5,12.09,3.93,15.49-1.19,32,0,17.21,1.24,28.1,7.86,29,6,1.16-2.39-17.27-12-16-15,1.09-2.56,15.35,3.42,37,6,11.15,1.33,22.1.89,44,0,27.62-1.12,35-3.21,40-5,6.2-2.22,14.77-5.39,23-13,4.93-4.57,7.26-8.44,8-8,1.46.86-3.72,18.11-15,31-15.67,17.9-38,21.55-53,24-18.61,3-20.57-.54-61,0-14.49.19-27.35.37-44,2C1167.2,628.12,1142.24,635.33,1141,631.7Z"
                  transform="translate(0 0)"/>
            <path class="cls-16"
                  d="M1099,711.7c-.42-.8,3.2-3,14-12,8.92-7.38,13.38-11.08,16-14,10-11.12,8.41-17.15,16-22,6.93-4.43,14.58-3.47,20-3,19,1.63,38-3.5,57-4,48-1.27,71.94-1.9,79-3,29.9-4.66,46.14-7.19,62-20,20.9-16.88,28.62-41.47,38-39,3.48.92,2.79,4.4,10,14,5,6.62,11.59,15.44,22,20,11.64,5.11,18.37.66,24,7,3.72,4.2,1.27,6.71,5,15,1.21,2.68,7.27,15.35,19,19,8.13,2.53,10.32-2,16,1,8.77,4.58,5.09,16.08,15,23,5.56,3.88,8.26,1.34,14,6s7.63,10.75,9,15c1,3.2,4,13.7,1,24-4.18,14.3-18,21.81-26,26-34.9,18.33-66.37,30.34-78,35-55.16,22.1-72.61,42.45-87,33-7.93-5.21-5.6-13.33-13-34-.86-2.41-12.79-34.71-39-60-27.92-26.93-60.36-34.63-83-40-17.6-4.17-34.28-8.13-56-5C1123.88,698,1100.12,713.76,1099,711.7Z"
                  transform="translate(0 0)"/>
            <path class="cls-16"
                  d="M1347,879.7c-5.65,10,.65,13.12-1,44-.67,12.55-1.66,30.91-9,51-9.84,26.91-24.59,39.14-21,43,3.39,3.64,19.81-3.73,31-14,8-7.35,10.59-13.67,12-13,2.4,1.14-1,21.53-14,38-7.27,9.17-15.11,14.06-14,16,1.82,3.18,22.23-11,32-4,5.13,3.68,3.8,10.68,5,37,1.46,31.93,4,34.75,6,36,8.55,5.43,18.77-10.39,46-17,25.26-6.14,31.62,3.8,52-5,4.58-2,20.48-9.48,30-26,8.92-15.48,8.87-33,9-33s-9.66,29,1,38c6.46,5.44,20,3.19,27-4,5.82-6,5.81-14.05,6-23,.37-17,3.92-34,3-51a926.26,926.26,0,0,1,1-105s3.84-53.33-7-83c-1.16-3.18-4.34-11.87-9-12-3.62-.1-6.44,5-7,6-5.16,9.32-.64,19.45,2,31,.86,3.75.57,19.84,0,52-.52,29.15-1.14,33.62-3,34-3.57.72-9.51-14.09-17-33-11.41-28.8-15.14-45.46-18-45-3.65.58-3,28.5-3,30,.28,11.34,1.5,16.5,0,17-2.65.89-12-13.39-17-30-4.45-14.66-3.25-23.46-8-25-4.38-1.42-8.5,5.06-17,11-11.4,8-21,8.18-35,11C1383.89,857,1356.8,862.39,1347,879.7Z"
                  transform="translate(0 0)"/>
            <path class="cls-16"
                  d="M1067,921.7c-3.46-1.51-3.61-10.59-2-17,2.37-9.42,8.08-11.24,8-18-.07-5.93-4.51-8-8-14-5.18-8.89-2.61-16.66,0-37,3.91-30.47.06-28.07,4-44,3.88-15.71,6.56-26.56,16-36,4.67-4.68,5.16-3.16,39-20,11.45-5.7,17.36-8.84,19-7,2,2.21-3.19,10.56-8,16-8.15,9.21-17.55,12.61-17,14,.78,2,18.81-6.78,24-1,3,3.29-.55,8.71-3,22-3,16.49.58,17.7-2,27-5.63,20.25-27,29.68-25,33,1.62,2.67,14.15-5.48,19-1,4.66,4.31-3.95,14.58-5,36-.66,13.49,2.4,16.55-1,21-6.32,8.27-18.78.11-35,8C1075.84,910.61,1071.5,923.64,1067,921.7Z"
                  transform="translate(0 0)"/>
            <path class="cls-16"
                  d="M1173,736.7c-1.14-3.5,1.36-7.8,4-10,1.39-1.16,6.09-4.45,27,2,12.75,3.93,21,8.34,37,17,9.79,5.3,12.63,7.34,15,11,5.3,8.19,3.67,17.42,3,24-.21,2.07,0,.43,7,52,5.49,40.59,6.21,48,1,57-6.18,10.66-16.08,15.59-19,17-17.45,8.41-26.08-1.51-55,1-23.79,2.06-34,10.17-40,4-2.91-3-1.89-6.44,0-30,2.13-26.51,1.18-26.57,3-31,7.83-19.08,28.75-26.48,27-30-1.47-3-15.1,4.55-21-1-4.62-4.34-1.79-14.11,3-30,5.81-19.26,8.71-28.89,17-35,12.13-8.94,28-6.42,28-8C1210,744.39,1176.44,747.1,1173,736.7Z"
                  transform="translate(0 0)"/>
            <path class="cls-16"
                  d="M1063,975.7c2.54-3.09,8.36-6.39,20-13,13.65-7.75,29.07-16.5,34-12,3.22,2.94-.46,9.33-3,23-2.41,13-1.13,18.19-1,39,.15,23.9-1.48,28-2,50-1.3,54.51,7.21,89.41,1,91-2.11.54-5.41-3.64-12-12-7.35-9.32-11.43-17.28-12-17-1,.52,14.47,26.11,9,31-3.12,2.79-13.17-1.05-19-8-7.81-9.3-5.32-20.95-5-39,.12-6.6-1.25-19.73-4-46C1063.31,1007.78,1051.08,990.28,1063,975.7Z"
                  transform="translate(0 0)"/>
            <path class="cls-16"
                  d="M1150,938.7c6.11-4.35,14.41-5.23,31-7,20-2.13,27.48,1.59,45-3,11.35-3,19.19-7.41,20-6,1.24,2.17-18.27,10.68-27,31a54.75,54.75,0,0,0-4,16c-3.63,30-.69,62.14,0,74,2,34.77-7.54,28-10,82-1.17,25.6,1.09,24.81,0,70-1.16,48.11-3.53,40.9-2,53,1.88,14.83,5.75,28.19-2,37-3.53,4-7.86,5.25-14,7-2.64.75-30.6,8.35-43-6-1.69-2-2.11-3.18-7-26-4.43-20.66-5.13-24.5-3-26,4.35-3.07,13.06,8.9,31,10,4.8.29,11.57.71,14-3,4.24-6.46-7.41-21.32-15-31-11.59-14.79-15.28-14.27-20-23-5.51-10.19-5.43-20-4-39,2.06-27.21,3.08-40.81,6-55C1161.46,1018.69,1123.32,957.72,1150,938.7Z"
                  transform="translate(0 0)"/>
            <path class="cls-16"
                  d="M1069,1169.7c4.91-.36,4.36,12.16,18,23,6.88,5.47,12.35,6.52,15,13,1.41,3.45.82,5.49,0,14-1.63,16.84-2.58,26.72-1,38,1.13,8,2.67,10.53,1,12-4.16,3.65-21.46-5-30-19-2.24-3.67-3.83-8.78-7-19-3.48-11.21-5.22-16.81-6-23C1056.77,1190.72,1062.8,1170.15,1069,1169.7Z"
                  transform="translate(0 0)"/>
            <path class="cls-16"
                  d="M1056,1276.7c-3.32,2.37,2.22,17.62,8,28,5.54,9.94,10.45,13.89,9,16-2,2.93-14.76.14-24-7-5.36-4.14-6.57-7.46-9-7-4.23.8-2.71,11.28-8,26-1.75,4.88-2.07,4.14-15,29-6,11.55-7.54,14.78-6,17,2.46,3.55,9.37-.46,25,0,13.44.4,15.92,3.59,22,1,5-2.13,5.83-5.34,14-18,13.14-20.35,16.8-21.07,17-28,.35-12.11-10.45-21.85-9-23s9.14,10.54,17,9c4.44-.87,8.48-5.88,8-10-.59-5.11-7.88-6.77-18-12C1066.3,1287,1059.22,1274.44,1056,1276.7Z"
                  transform="translate(0 0)"/>
            <path class="cls-16"
                  d="M1126,1310.7c.29-1.75,11.19-.42,29-1,22.08-.71,31.07-3.58,32-1,1.23,3.4-12.8,12.92-27,18-9.19,3.29-18.07,4.59-18,5,.13.74,27.74-6.59,31,0,1.61,3.26-4.34,6.65-17,25-6.21,9-7.66,12.38-13,16-6.08,4.13-12,5.06-18,6-9.56,1.5-21.29,3.35-25-2-2-2.87-.56-6.22,10-29,9-19.3,10.53-22.51,15-25,10.19-5.67,22.68-.55,23-2C1148.47,1318.77,1125.63,1313.25,1126,1310.7Z"
                  transform="translate(0 0)"/>
            <path class="cls-16"
                  d="M946,1109.7c-4,5.1,4.51,12.65,11,33,7.87,24.68,2.89,37,12,42,5.1,2.82,7.37-.64,25,2,8.8,1.32,10.86,2.57,13,1,4.24-3.12,1.16-11.76-4-35-5.72-25.75-6.09-33.82-14-39-2.82-1.85-6.21-2.56-13-4C964.34,1107.22,950.27,1104.25,946,1109.7Z"
                  transform="translate(0 0)"/>
            <path class="cls-16"
                  d="M1016,1107.7c-2.15,4,3.55,8.35,8,19,7.15,17.09,2.9,30.75,5,31,2.47.29,6.08-18.92,7-35,.54-9.53-.12-13.47-3-16C1028.16,1102.41,1018.35,1103.47,1016,1107.7Z"
                  transform="translate(0 0)"/>
            <path class="cls-17"
                  d="M904,1130.7c-2.49,3.24,9.71,11.42,16,27,7.25,18-.06,29.2,9,37,4.86,4.18,12.67,5.87,16,3,3.65-3.15-.88-9.38-3-27-1.9-15.78.35-22.34-5-33-1.89-3.77-2.74-7.58-6-9-3.92-1.71-6.67,1.32-15,2C908.18,1131.34,905.29,1129.08,904,1130.7Z"
                  transform="translate(0 0)"/>
        </g>
    </g>
</svg>