<svg xmlns="http://www.w3.org/2000/svg" viewBox="0 0 1317.79 2207.45">
    <defs>
        <style>
            .cls-1,.cls-10,.cls-11,.cls-12,.cls-2,.cls-3,.cls-4,.cls-5,.cls-6,.cls-9{stroke:#000;stroke-linecap:round;stroke-linejoin:round;}.cls-1,.cls-10,.cls-12,.cls-2,.cls-3,.cls-4,.cls-5,.cls-6,.cls-9{stroke-width:8px;}.cls-2{fill:#0a121e;}.cls-3{fill:#c5cbd3;}.cls-11,.cls-4,.cls-7{fill:#fff;}.cls-5{fill:#0b1523;}.cls-17,.cls-6{fill:none;}.cls-8{fill:#e3e4e5;}.cls-9{fill:#992c44;}.cls-10,.cls-14{fill:#162b4c;}.cls-11{stroke-width:6px;}.cls-12,.cls-13{fill:#d9d9d9;}.cls-15{fill:#c4395e;}.cls-16{fill:#282828;}
        </style>
    </defs>
    <title>panda303030</title>
    <g id="Layer_2" data-name="Layer 2">
        <g id="Слой_1" data-name="Слой 1">
            <path class="cls-1"
                  d="M940.57,2038.72c-3.21,11.77,2.57,10.29,4,63.29.29,10.75.59,31,2,60.13.49,10.14,1.07,15.17,1,15.82-3,27.43,131,13.71,211,12.66,8.06-.11,20-1.74,25-7.38,4.74-5.3.92-17.19-5-31.65-16.77-40.91-31-60.13-31-60.13-47.52-64.16-33.76-86.28-62-103.38C1037.84,1959.22,952.57,1994.62,940.57,2038.72Z"/>
            <path class="cls-1"
                  d="M861.32,2022.92c5.71,9.09,7.65,30.67,11.52,73.84,2.58,28.73-.06,21.44,2.3,44.3,1.84,17.82,1.38,35.87-10,41.14-45.6,21.15-221.32-3-237.41,1.05a15.72,15.72,0,0,1-7.68,0c-5.19-1.3-11.81-5.75-13.83-12.66-2.74-9.4,3.72-21,6.15-25.32,35.49-63.57,138.3-105.49,138.3-105.49C842.23,2002.44,856,2014.44,861.32,2022.92Z"/>
            <path class="cls-2"
                  d="M174.07,1153.19c-17-18.6,72.91-152,87-144.52C273.5,1015.29,239.07,1149,174.07,1153.19Z"/>
            <path class="cls-3"
                  d="M167.07,1119.44c-8.45-8,20.36-61.7,30-77,13.4-21.27,26.25-34.29,33-31.65,8.15,3.19,8,32.8-8,61.18C205.45,1101.44,173.88,1125.92,167.07,1119.44Z"/>
            <path class="cls-1"
                  d="M235.07,1031.88c1.08-1-.38-4.31-9-22.15-8-16.56-12-24.88-13-26.37-7.17-11-15.11-16.8-31-28.48-11.39-8.37-20.82-15.19-35-20-10.75-3.68-18.24-4.17-25-3.16-4.79.72-10.59,1.66-16,6.33-7.81,6.74-9.43,16.61-10,20a39.37,39.37,0,0,0,0,12.66c1.24,7.61,4.4,12.74,7,16.88s6.69,10.64,13,14.77c7.86,5.14,15.7,4.4,30,3.16,25.3-2.19,38-3.28,39-3.16C214.21,1005.64,231.68,1035.12,235.07,1031.88Z"/>
            <path class="cls-1"
                  d="M133.07,993.9c-12.9-3.74-26,1-41,6.33-9.15,3.28-15.77,7.11-29,14.77-23.73,13.73-30.8,21.65-35,27.43-4.82,6.63-8.78,12.23-8,19,1.43,12.42,17.79,19.47,24,22.15,40.8,17.6,117.17.87,124-35.87C171.92,1027,153.72,999.9,133.07,993.9Z"/>
            <path class="cls-1"
                  d="M172.07,1011.83c-12.2-9.9-28.08,8.51-85,16.88-4.41.65-16.7,2.36-33,6.33-31.51,7.68-38.32,14.13-42,19-1.11,1.47-11.36,15.42-7,29.54,3.9,12.64,17.15,17.8,26,21.1,17.3,6.45,33.71,5.57,57,1,46.9-9.09,70.35-13.63,82-31.65C183,1054.16,184.69,1022,172.07,1011.83Z"/>
            <path class="cls-1"
                  d="M186.07,1054c-12.51-5.22-24.11-6-82,5.27-55.32,10.79-66.81,15.82-72,27.43-4,8.92-3.86,20.83,1,29.54,4.7,8.41,13.76,13.74,31,16.88,47.44,8.64,65.78-15.87,139-33.76,6-1.47,16.3-3.85,18-10.55C223.73,1078.37,204.33,1061.65,186.07,1054Z"/>
            <path class="cls-1"
                  d="M187.07,1115.21c-3.61.11-6.6-.45-28-10.55-29.45-13.89-44.23-21-47-26.37-11.54-22.57,12.4-73.36,51-84.39,2.82-.81,36.91-9.91,59,14.77,20,22.36,13.11,53.39,12,58C228.27,1090.91,208.45,1114.55,187.07,1115.21Z"/>
            <path class="cls-4"
                  d="M230.07,1010.78c4.77.52,14.25,7.74,33,22.15,21,16.11,31.48,24.27,34,29.54,14.74,30.81-18.11,93.07-53,96-9.62.8-21-1.06-39-13.71s-27-15.82-38-25.32C191.07,1105.72,235.07,1036.1,230.07,1010.78Z"/>
            <path class="cls-5"
                  d="M530.07,960.15c-12.86-1.33-13.92,20.57-66,60.13-25,19-31,22.15-43,31.65-1.32,1-9,5.27-13,12.66,0-4.22-4.55-7-7-7.38-4.31-.69-8.37,4.47-9,5.27-4.56,5.79-4.36,12.7-6,12.66-1.14,0-.13-2.35-2-3.16-3-1.32-8.72,4.57-11,6.33-27-11.6-84-51.69-112-69.62-3,9.49-4.65,22.41-29,77-22.76,51-41,58.52-48,62.24-2,1-10,2.66-10,5.27,7,3.16,43.53,26.27,56,40.08,3.56,4,32.42,35.67,68,62.24,0,0,17.77,13.27,68,36.92a45.15,45.15,0,0,0,14,4.22c14.33,1.8,25.86-4.12,32-7.38,61.54-32.67,92.31-49,107-65.4,9.22-10.3,34.49-39.15,47-84.39C588.63,1057.91,558.67,963.11,530.07,960.15Z"/>
            <path class="cls-6"
                  d="M386.2,1075.13c-.47,1.92-1.18,4.85-2,8.44-2.08,9.08-3.59,16.72-4,19-2.45,13.44-1.58,31.53-1,40.08"/>
            <path class="cls-6"
                  d="M385.07,1075.13a68,68,0,0,0-10,14.77c-3.32,6.62-4.75,12.17-7,21.1-1.23,4.89-2.76,11.71-4,20"/>
            <path class="cls-6" d="M372.42,1078.55A60.72,60.72,0,0,0,356,1092.44a63.76,63.76,0,0,0-9.25,15.09"/>
            <path class="cls-5"
                  d="M526.7,1502.59c-3.26,6.17-6.85,15.67-1.06,69.61,6.8,63.47,13.64,127.21,46.83,199.84,6.16,13.48,14.75,29.94,31.93,62.87,18.16,34.81,24.15,44.74,41.51,78.59,0,0,25.73,50.19,36.19,87.57,5.39,19.26,8.74,31.24,4.26,42.66-.78,2-2.2,5-1.06,7.86,2.88,7.24,19.28,6.2,30.87,5.61,46.45-2.34,16.94,2.67,74.5-1.12,34.68-2.29,39.7-3.73,53.22-1.12,18.69,3.61,23.84,9.22,28.74,5.61,10.76-7.91-3.88-42.45-21.29-111.15-6.24-24.63-13.61-53.7-18.09-85.33-6.4-45.1-4.74-79.94-3.19-108.9,10.84-202.64,22.13-220.87,3.19-248.12-29.17-42-87.66-44.33-157.52-47.15C635.11,1458.29,551.87,1454.92,526.7,1502.59Z"/>
            <path class="cls-5"
                  d="M711.57,1714.36c11.53,4.25,26.5,7.08,48.22,22.88,30.11,21.89,48.81,58,86.21,130.24,30.07,58.07,23.22,56,50,107.78,8,15.56,20.36,38.31,28.74,71.85,4.06,16.26,2.79,17.4,5.32,22.45,72.37-7.86,171.36-7.86,208.61-16.84.75-6.85-9.79-14.3-20.22-33.68-7.08-13.15-7.42-22.61-9.58-35.93a64.62,64.62,0,0,1,0-20.21c3.93-28-7.7-76.94-14.9-108.9-15.62-69.38-7.42-45.6-27.67-137-19.25-86.85-21.23-83.79-23.42-108.9-5.85-67.11-3.19-116.76-3.19-116.76,1.25-23.38,2.54-25.92,0-31.44-21.64-47-199.61-46-293.75,57.26"/>
            <path class="cls-5"
                  d="M616.07,949.6c-10.64-5.65-34.51,1-46,4.22-8.36,2.34-13.58,2.61-24,3.16-5.09.27-9.43.22-14-2.11-5-2.57-6-5.67-8-5.27-3.07.59-5.13,8.43-6,33.76-.55,15.84-.83,24,0,36.92a346.53,346.53,0,0,0,7,49.58c4.16,20.59,8.74,35.92,10,40.08,9.43,31,26.43,87,43,86.5,16.16-.5,25.85-54.57,38-122.36C635.57,965.23,621.62,952.55,616.07,949.6Z"/>
            <path class="cls-7"
                  d="M631.07,934.83c-9.2,6.79-19.59,17.93-31,46.41-33.12,82.7-17.58,168.82-4,205.7,5,13.67,15.25,35.35,18,41.14,7.49,15.75,18.09,38.06,21,36.92,3.18-1.24-9.3-28-8-57,.4-8.85,3-38.9,47-87.55,21.92-24.25,73.33-81.1,162-104.43,65.47-17.23,102.1-3.25,109-22.15,8.56-23.44-36.24-76.52-90-91.77-52.14-14.79-61.51,20.53-156,19C677.32,920.72,653.21,918.44,631.07,934.83Z"/>
            <path class="cls-8"
                  d="M587.45,946.44c-2.57,20.16,8.07,46.94,19.82,63,12,16.42,26.09,22.8,37.35,27,59.52,22.16,111.3,13,111.3,13,92.49-16.36,187.66-33.2,190.58-75,2.93-42-88.29-94.94-167.71-105C693.13,858.59,594.11,894.17,587.45,946.44Z"/>
            <path class="cls-9"
                  d="M645.07,1019.22c-21.42,16.87-32.09,37.66-37,47.47-6.13,12.24-9.42,24-16,47.47-5.27,18.82-9.78,37.94-14,60.13-8.24,43.31-12.35,65-7,74.9,13.74,25.49,59.8,35.77,80,17.93,8.62-7.61,10.37-18.44,6-105.49-3.76-74.86-7.67-118.82,15-145.57,3.52-4.15,11.55-12.47,10-14.77C680,998.14,660.46,1007.09,645.07,1019.22Z"/>
            <path class="cls-5"
                  d="M626.07,948.54c-4.88-5-26.68,8.33-40,20a111.17,111.17,0,0,0-20,23.21c-38.25,59.69-54,127.69-54,127.69-4.49,19.39-19.07,85.72-21,177.22-.58,27.62-2.65,126,19,179.33a177.54,177.54,0,0,1,9,27.43c5.8,24.23,11.82,49.38,4,69.62-.84,2.19-2.66,6.42-1,8.44,3.46,4.2,19.17-4.66,24-7.38,32.2-18.17,49.43-45.42,52-49.58a161.14,161.14,0,0,0,15-31.65c12.63-36.23,34.51-135.6-7-261.61-8.69-26.37-22.09-12.67-28-34.81-7.34-27.48-12.45-101.51,6-162.45C599.65,982.55,607.07,965.44,626.07,948.54Z"/>
            <path class="cls-5"
                  d="M567.07,942.21c3.84-1.62,5.07,0,13,0,22.87,0,32.75-13.55,38-9.49,6,4.6-4.27,23.92-16,70.68-1.16,4.63-5.16,20.75-9,41.14,0,0-4.48,23.74-7,45.36-8.31,71.19,11.21,160.68,19,193,6,24.7,10,36.55,9,36.92-3.31,1.23-102.86-259.44-101-262.66,2.29-4,25.18,11.84,35,3.16,3.69-3.26,4-8.58,4-20,.13-29.48-1.41-36.65-1-49.58C551.4,980.17,552.41,948.44,567.07,942.21Z"/>
            <path class="cls-5"
                  d="M931.07,955.93c6,3.57,19.54,14.31,45,29.54a126.71,126.71,0,0,0,21,10.55c6.76,2.59,18.19,6.85,33,7.38a188.08,188.08,0,0,0,29-1c5.94-.81,8.77-1.58,12,0,8.45,4.12,9.64,19.34,10,26.37,13.58,265.11-25,341.78-25,341.78s-22.05,43.82-23,91.77c-.26,13.13-.65,32.83,11,47.47,2.82,3.54,4.54,4.53,5,7.38.58,3.64,0,15.68-65,46.41-39.29,18.58-58.93,27.87-83,32.7-40.71,8.16-72.78,3.59-98,0-33.8-4.82-57.18-13.05-86-23.21-58.82-20.72-83.54-39.75-97-51.69l-.11-.1a48.09,48.09,0,0,1-13.08-19.17c-19.94-53.39-34.63-122.06-26.81-212.8,1.67-19.35,2.5-29,4-36.92,12.33-65,49-106.76,83-144.52,38.56-42.79,78.71-67.91,159-118.14C873.23,960.18,908.27,942.29,931.07,955.93Z"/>
            <path class="cls-6" d="M914.07,1115.21c-3.41,8.92-6.78,18.42-10,28.48-3,9.48-3.68,33.41-6,42.19"/>
            <path class="cls-5"
                  d="M903.07,1211.2c-2.57-6.9-7.36-19.45-4-33.76,2.91-12.37,9.78-16.94,21-33.76,8.41-12.6,7.26-14.08,19-35.87,15-27.9,22.56-41.84,33-52.74,14.28-14.9,28.21-21.84,50-32.7a80.87,80.87,0,0,1,27-8.44c6.51-.78,12.24-1.4,19,1,12.32,4.48,18.36,15.65,19,16.88,5.49,10.51,6.59,25.83,7,31.65.34,4.71.45,10.39,4,12.66,2.61,1.67,5.32-1.26,8,0,4.59,2.15,4.06,13.14,4,14.77-1.29,32.57,31.22,120.54,46,183.55a31.13,31.13,0,0,0,3,8.44c2.88,5.3,5.74,6.4,9,11.6a44,44,0,0,1,4,9.49c16.19,52.33-12,99.16-12,99.16-18.39,30.55-44.94,42.24-64,50.63-15.05,6.63-47.45,20.89-74,8.44-14.53-6.81-25-19-25-19a77.79,77.79,0,0,1-11-16.88C938.67,1330,924.44,1268.6,903.07,1211.2Z"/>
            <path class="cls-10"
                  d="M1024.07,1297.72a192,192,0,0,1,33-10.55,182.2,182.2,0,0,1,50-4.22c12.6.75,22.54,1.34,35,6.33a90.62,90.62,0,0,1,28,17.93"/>
            <path class="cls-6"
                  d="M1137.07,1261.84a99.16,99.16,0,0,0-30,0c-11.09,1.71-21.19,5.22-21,6.33.24,1.37,15.61-3.35,34,0a77.91,77.91,0,0,1,30,12.66"/>
            <path class="cls-6"
                  d="M1088.07,1072c-2.86-3-7.74-7.18-14-7.38-5.26-.17-8.56,2.52-16,7.38-16,10.49-24.48,13.53-24,14.77.55,1.43,11.55-3.42,28-6.33a147.13,147.13,0,0,1,32-2.11"/>
            <path class="cls-2"
                  d="M1066.07,1476c5.59,4.41,18.51,13.37,36,15.82,24.08,3.38,42.71-7.56,55-14.77,9.78-5.74,26.69-15.67,39-36.92,16.42-28.36,13.27-57.23,12-67.51-1.94-15.75-5.86-47.57-30-63.29-24.48-15.94-53.61-4.82-69,1-9.82,3.75-44.71,17.06-62,55.91-13,29.26-14,68.29,3,92.83A86.86,86.86,0,0,0,1066.07,1476Z"/>
            <path class="cls-3"
                  d="M1109.07,1462.26c1.78,2.44,5.85,12.1,13,15.82,14.91,7.76,30.59-2.74,34-4.22,15.55-6.77,22.48-21.22,29-34.81,13-27.12,12.45-51.82,12-71.73-.46-20.31-.87-31.39-9-41.14a39.88,39.88,0,0,0-34-13.71c-24.53,2.63-38,30.84-45,45.36C1090.57,1396.36,1093.57,1441,1109.07,1462.26Z"/>
            <path class="cls-1"
                  d="M1113.07,1459.1c10.63,9.79,22.75,15.67,47,27.43,0,0,18.62,9,47,17.93a93.29,93.29,0,0,0,32,4.22c11.51-.54,16.08-3.05,19-6.33,4.86-5.45,5-12.76,5-14.77.06-4.38-.9-12.35-11-24.26a89.75,89.75,0,0,0-31-23.21c-43.41-20.31-78.36-28.48-83-29.54-33-7.52-49.63-11.14-54-4.22C1077.44,1416.85,1096.52,1443.86,1113.07,1459.1Z"/>
            <path class="cls-1"
                  d="M1220.07,1357.83c19.56-12.35,58.28,27,68,36.92,14.2,14.44,20.11,25.85,23,36.92,2,7.58,5.84,22.39-2,34.81-1.08,1.71-5.72,8.86-14,11.6-13.72,4.55-27.52-6.26-42-17.93-20.83-16.8-35.41-28.55-41-50.63C1208,1393.62,1207.07,1366,1220.07,1357.83Z"/>
            <path class="cls-1"
                  d="M1141.07,1378.93c11.2-15.56,55.69,2.27,79,11.6,1.62.65,27.71,11.36,55,34.81,12.14,10.43,18.3,18,21,28.48,1.22,4.73,4.7,21.51-5,32.7a27.14,27.14,0,0,1-15,8.44c-15.18,3.43-28.76-5.06-36-9.49-57.71-35.34-62.27-26.91-78-46.41C1149.11,1423,1131.74,1391.89,1141.07,1378.93Z"/>
            <path class="cls-1"
                  d="M1076.07,1433.78c13.68,19.66,42.09,18.19,47,17.93,18.3-.95,18-8.34,48-17.93,30.16-9.66,42.59-6.07,52-19,7.54-10.36,7.14-23.08,7-27.43-.57-17.78-10.91-29.89-17-36.92-25.09-29-62.5-32-84-33.76-12.4-1-18.73-1.46-25,1-28.91,11.61-35.38,59.82-35,84.39C1069.26,1414.36,1069.57,1424.44,1076.07,1433.78Z"/>
            <path class="cls-4"
                  d="M1183.07,1322c-.45,1.17-12.46-6.52-28-3.16-13.79,3-22.55,13-25,15.82-6.56,7.68-8.79,14.89-13,28.48-5.24,16.93-6.31,30.62-7,40.08-.58,8.06-1,14.48,0,23.21a108.62,108.62,0,0,0,6,24.26c3.33,9,6.8,20.74,12,25.32,6,5.27,5.43,5.36,13,4.22a37.49,37.49,0,0,0,12-4.22c0,.16-9.46,5.58-22,5.27-3.57-.09-7.29-.63-18-4.22a281.89,281.89,0,0,1-27-10.55c-18.8-8.75-28.21-13.12-34-17.93-17.15-14.24-23.09-34.37-25-41.14-1.09-3.86-12.47-46.88,14-81.22s68.74-31.38,80-30.59C1157.37,1298.15,1183.75,1320.19,1183.07,1322Z"/>
            <path class="cls-5"
                  d="M1008.07,1452.72c10.77,8.66,35.18,25.46,56,31.65,15.6,4.63,39,8.44,34,6.33-2-1.05-11.94-2.92-22-12.66s-14-20.82-16-26.37c-6.47-18.29-4.4-34.32-3-44.3,4.45-31.64,20.76-52.39,27-60.13,14.6-18.1,29.72-26.68,33-28.48,9-5,26.43-14.57,46-10.55a59.79,59.79,0,0,1,15.11,5.5c11.36,6,17.47,14.94,17.89,14.55s-6-11.14-14-19c-28-27.38-140-26.37-164,4.22"/>
            <path class="cls-1"
                  d="M1156.07,1320.91c2.15-6.72,13.44-9.75,36-15.82,10.75-2.89,22.26-5.91,38-6.33,11-.29,19.73-.53,31,3.16,13.4,4.39,22.05,11.61,27,15.82,5.56,4.73,10.57,9.09,14,16.88,1.51,3.43,3.92,8.9,3,15.82-1.27,9.54-8,15.33-11,17.93a38.16,38.16,0,0,1-14,7.38c-7.77,2.32-13.44,1.65-28,0-27.93-3.16-26.8-2.94-28-3.16-14.54-2.69-25.22-4.66-36-10.55C1171.71,1353.12,1152,1333.5,1156.07,1320.91Z"/>
            <path class="cls-9"
                  d="M652.5,962.94c-3.48,1.66-17.34,9-22,26-.83,3.08-2.55,9.68-.76,17,2.29,9.36,8.8,13.76,12.11,16,8.69,5.87,17,4.88,23.46,4,7.71-1,17.21-2.35,25.73-12,1.36-1.54,14.82-17.15,12.11-32C699.79,963.21,672.07,953.63,652.5,962.94Z"/>
            <path class="cls-11"
                  d="M666.07,966.94c0,.62,1.16,3.23,3.39,8.46,6,14.08,7.93,16.89,9.61,22.54,1.75,5.86,1.86,10.32,2,19,.4,24.89-1.5,29.5-2,34,19.5-1.5,45.42-15,125-45,16.31-6.15,30.41-11,34-23,4.85-16.26-12-37.45-28-48C757.36,900.28,664.51,948.56,666.07,966.94Z"/>
            <path class="cls-11"
                  d="M667.57,964.44c-1.46,6.68-8.83,5.83-25,18-7.84,5.9-20.24,19.84-27.34,36.5a70.15,70.15,0,0,1-4.58,9c-2.29-4.5-4.83-19.44-4.58-34,.33-19.6.62-36.55,11.91-46a26.49,26.49,0,0,1,16.49-6C653,941.44,669.89,953.84,667.57,964.44Z"/>
            <path class="cls-5"
                  d="M579.57,1335.15c-3-.07-8.65-49.19,2.5-103.9,10.6-52,34.45-88.86,51-113.93a397.88,397.88,0,0,1,53-64.35c25.72-25.31,75.24-81,153.5-96.53,15.18-3,41.46-2.58,70.5,1.6,26.18,3.76,19.31,9,69,22.15,5.8,1.54,14.91,3.86,15,7.38.14,5.18-19.33,9.61-28,11.6-92.21,21.16-135.6,35-170,52.74-22.19,11.41-40.75,24.46-39,29.54.81,2.35,5.51,1.65,17,4.22,4.2.94,25.94,5.81,26,10.55s-22.78,6.87-50,14.77c0,0-31.22,9.06-60,25.32-68.41,38.65-94.53,114.73-96,119.2C579.71,1299.24,582.11,1335.21,579.57,1335.15Z"/>
            <path class="cls-6"
                  d="M601.07,1395.81c-.28,1.74-1.72,12,5,20,6.45,7.76,18.38,11.11,28,5.27s12.3-18.09,10-27.43c-2.66-10.77-12.59-20.4-24-19C609.24,1376,602.57,1386.72,601.07,1395.81Z"/>
            <path class="cls-6"
                  d="M590.07,1309.31a25,25,0,0,0,12,11.6c2.24,1,8.76,3.93,16,1,8.3-3.29,11.29-11.71,12-13.71.27-.77,4.23-12.48-2-22.15-7.28-11.3-25.4-13.48-35-3.69C585.8,1289.83,585.94,1300.88,590.07,1309.31Z"/>
            <path class="cls-6"
                  d="M663.07,1425.34c-13.57-6.32-17.77-5.92-19-4.22-3.16,4.38,9.82,22.41,25,33.76a80.89,80.89,0,0,0,19,10.55"/>
            <path class="cls-6" d="M638.45,1581.18A699.82,699.82,0,0,1,872.6,1738.36"/>
            <path class="cls-6"
                  d="M704.44,1636.2A435.83,435.83,0,0,1,773.62,1699c11.09,12.5,25.53,29,40.44,53.89a327.35,327.35,0,0,1,30.87,68.49"/>
            <path class="cls-6" d="M767.24,1732.72a251.51,251.51,0,0,1,35.12,36,263.31,263.31,0,0,1,39.38,68.49"/>
            <path class="cls-1"
                  d="M562.24,589a45.53,45.53,0,0,1-12.83-14.66c-6-11.33-5.82-23.51-4.58-23.82.68-.17,1.45,3.32,5.5,7.33,2,1.93,4.88,4.19,5.5,3.67s-2.67-4.56-4.58-9.16c-5.32-12.81,1.84-28.63,3.67-28.41.78.1-.14,3,1.83,7.33,3.51,7.65,11.92,10.4,13.75,11,3.7,1.21,6.2,2,7.33.92,3-2.94-7.91-15.15-13.75-28.41-11.9-27-5.47-64.68,11.91-82.47,13.62-13.94,22-19.24,22-19.24,6.23-4,10.47-5.55,13.75-11,4.72-7.84,2.89-16.07,5.5-16.49,2.08-.34,5.09,4.56,6.41,8.25s.93,6.24,1.83,6.41c1.25.24,3.84-4.21,4.58-9.16,1.1-7.36-2.6-11.2-.92-12.83,2.47-2.39,12.93,3.47,20.16,9.16s7.9,8.56,13.75,11c5.42,2.26,8.73,1.39,14.66,1.83,12.94,1,22.51,7,27.49,10.08,5.28,3.31,11.31,8.36,22,24.74C742.38,458.37,750,470,751,482.72c2,24.11-16.32,43.19-31.16,58.65-30.16,31.4-63.38,39.31-110,50.4C594.12,595.53,575.94,598.59,562.24,589Z"/>
            <path class="cls-1"
                  d="M1046.07,620.18c5,1.09,7.6,3.46,12.83,2.75,1.34-.18,3.7-.68,11.91-6.41,1.61-1.12,13.68-9.59,12.83-11-.45-.75-3.92,1.61-10.08,1.83-4.65.17-9.16-.94-9.16-1.83,0-1.08,6.59-.79,14.66-4.58,4.41-2.07,9.72-5.58,9.16-7.33s-5.83-.1-13.75-2.75c-2.56-.86-7.26-2.43-7.33-4.58-.09-2.54,6.38-3.75,11-6.41,9.65-5.58,11.91-17.92,14.66-33a133.52,133.52,0,0,0,0-48.57,120.4,120.4,0,0,0-11.91-34.86c-10.62-19.92-15.93-29.89-20.16-33.9-1.5-1.43-5.81-5.29-5.5-10.08.22-3.28,2.38-3.46,2.75-7.33.4-4.18-1.7-8.19-3.67-11.91-.46-.88-.86-1.54-1.67-2.87-2.62-4.33-3.93-6.51-4.75-6.29-1.09.29.62,4.37-1.83,8.25a19.89,19.89,0,0,1-4.58,4.58,18.55,18.55,0,0,1-1.69,1.09c-1.53.91-5.71,3.4-6.56,2.57s3.34-4.57,4.58-11c1-5.25-.31-10.8-1.83-11s-2,6.17-7.33,11.91a27.23,27.23,0,0,1-12.83,7.33c-7.91,2.28-13.61.57-19.24,0-15.27-1.56-28,5.4-36.65,10.08-15,8.15-24.34,19.66-28.41,24.74-7.94,9.93-7.2,12.82-13.75,17.41-9.42,6.6-15.9,4.09-24.74,11.91-2.44,2.16-7.53,6.66-9.16,13.75-1.59,6.88,1.22,11.25,4.58,22.91,3.19,11.09,3.08,15.59,4.58,22,6.37,27.25,32.39,48.57,45.82,59.56a185,185,0,0,0,33.9,22c25.14,13,37.66,12.54,51.32,15.58C1032.33,626.6,1038.74,622.93,1046.07,620.18Z"/>
            <path class="cls-12"
                  d="M460.57,761.3c1.52-.74,3.65,4.13,10.08,7.33,7.27,3.62,14.67,2.42,18.33,1.83,11.6-1.87,19.22-8.72,25.66-14.66a89.13,89.13,0,0,0,22-32.07c5.24-13,5.33-21.42,7.33-38.49,1.33-11.33,4.82-40.3,12.83-67.81,3.55-12.2,9.28-31.44,22-53.15A206.54,206.54,0,0,1,642,497.44c28.33-18.82,53.83-25.4,73.31-30.24,54.28-13.5,99.24-7.61,133.79-2.75,40.18,5.65,67.81,15.15,74.22,17.41,29.33,10.31,55.77,19.61,81.55,44a168,168,0,0,1,39.4,56.81c7.49,18.08,9.27,33.13,12.83,63.23,4.53,38.29,7.29,61.59,4.58,92.55-.88,10.11-3,28.84,2.75,51.32,2.78,10.8,6.29,18.23,11,24.74,3,4.18,10.53,14.57,23.82,20.16,15.13,6.37,28.53,2.64,29.32,6.41.19.89-.32,2.17-9.16,8.25a224.79,224.79,0,0,1-21.08,12.83c-16.44,8.93-18.92,9.21-21.08,9.16-5.29-.1-8.71-2.12-11,0s-2.25,7.51,0,11c5.82,9,25.13,4.24,25.66,7.33.37,2.2-9.23,5.82-16.49,7.33-5.09,1.06-10.95,2.27-17.41,0-5.35-1.88-8.53-5.24-9.16-4.58s3.51,4.5,6.41,11c3.06,6.84,4.09,15.39,1.83,16.49-1.82.89-3.83-4-11-8.25-5.69-3.37-10.82-4.08-21.08-5.5-6.85-1-10.28-1.39-11,0-1.22,2.38,5.3,8.82,11.91,12.83,9.71,5.89,18.41,5.82,18.33,7.33-.1,1.93-14.27,2.64-16.49,2.75-12.67.63-19.29,1-27.49-.92-16.55-3.8-24-13-27.49-10.08-2.12,1.79.09,5.56.92,15.58,1,11.71-.52,25.12-3.67,25.66-2.26.38-2.89-6.29-9.16-11.91-9.17-8.21-24.76-9.15-27.49-4.58-1.94,3.24,2.4,9.63,5.5,12.83,5.53,5.73,12.12,6.49,11.91,7.33-.26,1.07-11.19.77-23.82-3.67-11.46-4-12.19-7.18-21.08-10.08-7.71-2.52-12.74-2-30.24-.92-33.41,2-29,.77-36.65,1.83-15.17,2.09-17.52,4.77-46.73,13.75-24.74,7.61-37.11,11.41-50.4,12.83a169.39,169.39,0,0,1-47.65-1.83,167,167,0,0,1-36.65-11A156.5,156.5,0,0,1,633.75,951c-7.24-4.81-8.48-6.58-29.32-24.74-16-14-20.85-17.76-27.49-22-7.44-4.75-12-7.67-19.24-10.08-4.82-1.61-17.83-6-33-2.75-9.09,1.92-14.1,5.53-15.58,3.67s2.24-8.59,7.33-12.83c8.15-6.79,18.41-6.59,18.33-7.33s-13.29,2.53-27.49-1.83c-3.06-.94-16.31-5.35-22.91-17.41-2.54-4.64-4-10.24-2.75-11,1.44-.87,5,5.65,12.83,10.08,9.18,5.17,20.8,5.55,22,2.75,1.1-2.58-6.54-8.17-9.16-10.08a48.56,48.56,0,0,0-14.69-7.38c-14.52-4.2-25,.22-25.66-1.83s9-8.44,21.08-11c13.62-2.88,24.45.41,24.74-.92.34-1.54-15.09-2.79-28.41-13.75-9.44-7.77-13.84-17.14-17.41-24.74C461.4,776,458.1,762.44,460.57,761.3Z"/>
            <path class="cls-7"
                  d="M542.08,757.64c-4.5,7.82-9.31,12.52-14.66,15.58-10.89,6.22-24,5.65-27.49,5.5-9.51-.41-15.51-2.89-16.49-.92s4.19,6.46,7.33,9.16c5.83,5,12.12,10.44,21.08,12.83,16,4.26,27.17-4.59,30.24,0,1.64,2.45-.74,7.13-5.5,16.49-2.93,5.76-4.39,8.64-7.33,11-6.77,5.42-14.39,3.51-14.66,5.5-.31,2.24,9.08,6.92,19.24,7.33,8.48.34,18.35-2.26,20.16-2.75,5.28-1.43,7.7-2.65,8.25-1.83,1,1.54-5.28,9.06-13.75,13.75-6.91,3.82-12,3.92-11.91,5.5.06,2.38,11.6,3.93,16.49,4.58a80.86,80.86,0,0,0,17.41.92c10.24-.67,14.93-3.15,15.58-1.83.85,1.73-6,8.39-14.66,11-4.21,1.27-7.28,1.11-7.33,1.83-.09,1.28,9.47,1.3,20.16,5.5,7.45,2.93,12.91,7.14,23.82,15.58,7.47,5.77,11.2,8.65,14,11.75,3.18,3.47,4.92,6.11,6.12,5.66,2.44-.92-3.22-12.4,1.83-22,3.53-6.72,11.25-10.48,12.83-9.16,1.08.9-1.32,3.64-1.83,9.16-.54,5.8,1.39,10.29,3.67,15.58,3,7,7.75,14.34,9.16,13.75,1-.42-1-4.3,0-10.08,1.11-6.55,5.48-12.45,7.33-11.91s-.9,8,1.83,18.33a40.17,40.17,0,0,0,11,18.33c6.65,6.41,14.1,8.93,22,11a202.94,202.94,0,0,0,55,6.41c19.81-.76,34.25-4,49.48-7.33,14.61-3.23,28.84-6.39,46.73-13.75,16.45-6.77,18.11-9.73,30.24-12.83,5.76-1.47,21.26-5.26,39.4-1.83,25.84,4.88,40.5,21.27,43.07,18.33,1.76-2-4-11.08-11-17.41-9.6-8.69-18.66-9.67-18.33-11.91.44-2.89,16.09-4.7,33-1.83,21.62,3.67,35.22,13.27,36.65,11,1-1.67-5.33-8.23-11.91-12.83-11.5-8-21.19-8.34-21.08-11,.14-3.11,13.47-4.86,18.33-5.5,6.87-.9,14.37-1.83,23.82,0,8.91,1.72,9.86,4,17.41,5.5,13,2.56,24.73-.38,24.74-1.83s-9.62.32-18.33-5.5c-11.19-7.47-15.94-24-11.91-27.49,2.4-2.1,6.13,2,17.41,4.58a68.92,68.92,0,0,0,33-.92c8.17-2,19.7-6.44,19.24-9.16-.38-2.26-9.75-.43-22.91-2.75-5.46-1-23.8-4.43-38.49-18.33-10.55-10-14.75-21.12-17.41-28.41-5.94-16.28-5.11-28.39-4.58-52.23.62-27.56,1-46,0-63.23-1.27-21.34-2.54-42.68-11.91-66.89-9.66-25-22.86-39.91-46.73-66.91-24.74-28-37.1-42-55.9-48.57-23.74-8.33-35.24-27.2-54.06-23.82-16.32,2.93-24-1.71-44.9,7.33-1.45.63-33,2.75-46.73,7.33-2.34.78-28.5,14.75-30.24,16.49C707,517.56,695.25,533,694.19,533.14c-4.17.42-3.67-13.75-.92-23.82,4.47-16.4,41.51-12.56,37.57-18.33-8.76-12.85-49,1-51.32,1.83-33.69,11.88-54.11,35.17-63.23,45.82C601,556.55,593,572.77,587,585.39a306.34,306.34,0,0,0-26.57,88.89C557,699.23,555.51,734.31,542.08,757.64Z"/>
            <path class="cls-13"
                  d="M697.86,620.18c.74-1,5.52.23,8.25,3.67,3.12,3.94,2.22,9.15,2.75,9.16s.33-6.84,2.75-14.66a39.78,39.78,0,0,1,8.25-14.63c2.09-2.33,6.19-6.29,7.33-5.5s-2.28,5.68-3.67,13.75c-1.48,8.63.06,17.2,1.83,17.41,1.31.15,1.52-4.37,5.5-9.16,5.23-6.3,13.78-9.26,15.58-7.33,1.38,1.49-2.33,4.69-1.83,11,.24,3.06,1.58,8.27,4.58,9.16,3.91,1.16,6.74-6.15,14.66-11,9-5.49,18.92-4.4,25.66-3.67,12.63,1.39,21.9,6.92,29.32,11.91,9,6.06,33.07,23.32,64.14,65.06,12.82,17.23,17.29,25.81,19.24,36.65a63.94,63.94,0,0,1-2.75,33A62.61,62.61,0,0,1,883,788.79c-11.09,10-23.31,13.71-23.82,12.83s8.36-4.26,11-12.83c1.73-5.61.46-12.25-1.83-12.83-1.69-.43-3.16,2.65-9.16,10.08-5.23,6.48-7.85,9.72-11,11.91-6.3,4.39-13.54,4.06-20.16,3.67-16.89-1-29.23-8.88-36.65-13.75-7.17-4.7-17.87-11.71-25.66-24.74-3.09-5.18-5.22-10.45-6.41-10.08-1.4.43-1.08,8.39,1.83,15.58,4.08,10.08,11.67,14.71,11,15.58s-10.88-5-21.08-12.83c-17.16-13.27-21-21.51-22-23.82-3-6.91-2.93-12-3.67-11.91-1.17.13-2.9,13.1,2.75,24.74,3.73,7.68,8.92,11.16,8.25,11.91-.91,1-11.62-4-18.33-13.75-2-2.9-2.11-4-3.67-4.58-6.07-2.27-18.92,9.1-22.91,22.91-1.14,4-.58,4.72-1.83,6.41-8.21,11.09-48-.5-48.57-11-.15-2.85,2.71-3.5,11.91-13.75,8-8.85,12.13-15.4,11.91-15.58s-5.77,10.18-17.41,15.58c-5.65,2.62-12.58,4-15.58,4.58a85.52,85.52,0,0,1-10.12,1.43c-5.16.41-6.13,0-10,.4-3.35.34-3.82.76-11.91,2.75-11.56,2.85-14,2.84-15.58,2.75-6.08-.35-10.12-2.6-10.08-2.75s4,1.48,8.25,0c1.08-.38,2.85-1.2,2.75-1.83-.17-1-5.12.08-10.08-1.83s-7.65-6-9.16-8.25c-1.28-1.93-4.18-6.85-4.58-15.58-.19-4.09-.11-15.3,10.08-33,6.76-11.74,13.75-19,24.74-30.24,7.54-7.72,6.27-12.11,17.87-20.62,7.67-5.62,21.92-31.86,39.4-37.57,10.82-3.53,26.89,6.9,29.32,7.33,9.76,1.73,10.56,13,15.12,10.54,2.7-1.43,3.84-5.45,3.67-8.25C701.22,623.72,697.1,621.18,697.86,620.18Z"/>
            <path class="cls-1"
                  d="M636.46,781.44a10.41,10.41,0,0,1,0-8.25c6.65-14.86,49-4.24,51.32-3.67,2.83.71,8.56,2.33,11.91,7.33.6.9,3.25,4.85,1.83,8.25-1.22,2.91-4.81,4-7.33,4.58-12.8,3.1-26,1.38-29.32.92C639.94,787.19,637.38,783.53,636.46,781.44Z"/>
            <path class="cls-1"
                  d="M659.37,779.63c-2.66,3.27-2.26,7.36-.92,16.49,2.26,15.38,3.4,23.06,4.58,26.57,5.09,15.06,13.75,26.14,14.66,25.66s-6.86-10.72-10.08-28.41c-1.89-10.39-4.93-27.09,1.83-38.49.92-1.55,2.75-4.23,1.83-5.5C669.93,774.1,662.77,775.44,659.37,779.63Z"/>
            <path class="cls-6"
                  d="M613.57,802.54A39.86,39.86,0,0,0,609.9,819c0,12.92,6.44,22.28,10.08,26.57a41.11,41.11,0,0,0,11,9.12,40.63,40.63,0,0,0,25.66,4.58,38.86,38.86,0,0,0,14.66-5.5c4.39-2.8,4.6-3.23,6.41-5.5"/>
            <path class="cls-6"
                  d="M677.7,848.35c1,2.33,2.7,2.94,5.5,6.41,16.14,20,50,20.73,55,20.16a74.63,74.63,0,0,0,29.32-10.08,71.31,71.31,0,0,0,15.58-11.91A64.49,64.49,0,0,0,795,835.52"/>
            <path class="cls-1"
                  d="M737.26,687c.34-4,1.69-7.83,9.16-18.33,7.76-10.9,11.64-16.35,17.41-21.08,3.74-3.06,11.26-9.09,22-11.91,15-3.94,27.69.66,38.49,4.58a105.54,105.54,0,0,1,41.25,27.49c10.7,11.69,26.15,28.57,24.74,52.23-.19,3.12-1.64,22.43-17.41,36.65-13.65,12.31-29.59,13.2-39.4,13.75-25.63,1.43-44.15-10.27-49.5-13.74-9.39-6.12-14.73-12.33-23.82-22.91a119.43,119.43,0,0,1-20.16-33C737.91,695.54,736.87,691.72,737.26,687Z"/>
            <path class="cls-1"
                  d="M674,633.93c8.38,4.25,12.56,12.4,14.66,16.49,6.82,13.3,4.72,26.14,3.67,32.07-2.12,11.88-7.33,19.74-11.91,26.54A92.24,92.24,0,0,1,652,736.55a83.53,83.53,0,0,1-29.32,11c-6.43,1.08-11.37,1.84-17.41,0-11.35-3.46-17-13.22-18.33-15.58-7.12-12.36-4.46-24.94-3.67-28.41,1.07-4.7,2.82-8.51,11.91-22,9.88-14.65,14.83-22,18.33-25.66C627.13,641.72,654.86,624.2,674,633.93Z"/>
            <path class="cls-4"
                  d="M693.28,509.31c-6.48-.54-9.6-19.93-10.08-22.91-1-5.93-2.41-15,.92-25.66,4.55-14.63,15.11-22.79,20.16-26.57,23.47-17.62,56-17.37,57.73-11.91,1.56,4.93-24.07,7.72-38.49,32.07-4.85,8.19-5.26,13.48-17.41,37.57C699.48,505,696.57,509.58,693.28,509.31Z"/>
            <path class="cls-13"
                  d="M621.8,789.72c0,.32-6.57-.1-12.83,4.58a25.6,25.6,0,0,0-7.33,9.16A33.71,33.71,0,0,0,598,818.11c-.26,10.92,4.71,17.77,3.67,18.33s-7.8-6-10.08-15.58c-2.15-9,.72-16-.92-16.49-1.32-.41-4.28,3.77-5.5,8.25a19.28,19.28,0,0,0,0,10.08s-6.6-14.42-.92-23.82C592.39,785.38,621.73,789,621.8,789.72Z"/>
            <path class="cls-13"
                  d="M794.08,813.53c-1.33,2.24,12,7.88,16.49,22,3.3,10.42.06,20.12-.92,22.91-5.17,14.8-17.64,21.35-16.49,22.91,1,1.32,11-1.91,18.33-10.08,10.36-11.48,9.4-25.85,11.91-25.66,1.83.14,3.69,7.81,1.83,14.66a20.35,20.35,0,0,1-3.67,7.33s8.34-7.94,9.16-18.33c1.27-16-16-28.3-17.41-29.32C805,814.18,795.17,811.72,794.08,813.53Z"/>
            <path class="cls-4"
                  d="M701.57,517.55a73.49,73.49,0,0,1-7.33-34.83c.74-17.75,8-30.17,12.83-38.49,4.37-7.49,13.12-22.13,30.24-33,20.52-13,40.94-12.91,58.65-12.83,12.43.06,35.11.17,58.65,12.83,16.5,8.87,30.37,22.27,34.82,26.57,8.22,7.94,12.16,13.24,22.91,22,8.47,6.9,14.23,11.59,22.91,15.58,4.06,1.87,30.49,14,45.82,2.75,7.51-5.52,9-14.18,10.08-13.75,1.5.59.53,17.31-10.08,28.41-11.15,11.67-27.85,11.8-43.07,11.93-13.31.1-23.19-2.2-41.24-6.41-20.71-4.83-18.88-6.25-33-9.16a165.26,165.26,0,0,0-58.65-1.83,133.08,133.08,0,0,0-27.54,7.34c-15,5.48-20.16,10-22.91,12.83a43.7,43.7,0,0,0-8.25,11.91"/>
            <path class="cls-4"
                  d="M704.27,523c1.17,0-.34-12.54,6.41-28.41a76.88,76.88,0,0,1,12.84-20.2c12.54-14.9,26.58-22,33.9-25.66a105.85,105.85,0,0,1,35.74-11c19-2.22,33.65,1.45,42.15,3.67,5.7,1.48,14.87,5.28,33,12.83,21.31,8.87,22.93,10.06,34.82,14.66,18.79,7.28,36.36,12.69,36.65,11.91s-15.51-5.39-33.9-16.49c-18.59-11.22-19.62-16.82-37.57-30.24-14.12-10.55-32.82-24.53-59.56-29.32-8.82-1.58-27.13-4.63-48.57,2.75-9.34,3.22-30.9,12.42-44.9,34.82-7.93,12.7-10.11,24.31-11.91,33.9C698.63,501.51,702.74,523,704.27,523Z"/>
            <path class="cls-4"
                  d="M710.69,518.44c.43.19,3.25-8,11-18.33,1.07-1.42,9.9-13,22-21.08C761,467.46,779.41,466.72,795,466.2c34-1,62,9,72.39,12.83,15.61,5.69,24.52,11.14,44,14.69,16.54,3,31,2.88,31.16,1.83.16-1.31-22.53-1.32-49.48-11.91s-25.88-19-50.4-28.41c-11.07-4.25-35.22-13.15-64.14-6.41-7,1.65-28.4,6.94-45.86,25.65C714.46,494,710,518.15,710.69,518.44Z"/>
            <path class="cls-4"
                  d="M733.57,507.44c.57.82,10.45-7.17,28.41-14.66a167.48,167.48,0,0,1,40.32-11c17.19-2.47,30.35-1.65,41.24-.92a181.76,181.76,0,0,1,32.07,4.58c12.18,2.93,15.83,5.23,25.66,8.25,21.35,6.55,47.58,9,48.57,5.5,1.45-5.11-49.71-29.59-103.55-33-25.8-1.63-42.19,2.21-50.4,4.58a142.89,142.89,0,0,0-30.24,12.83C746.91,494,732.91,506.44,733.57,507.44Z"/>
            <path class="cls-4"
                  d="M757.42,512c.81,1.46,9.71-1.47,27.49-7.33,19.21-6.33,23.23-8.69,33-11,14.18-3.35,25.4-3,33.9-2.75,31.29,1,55.59,11.26,76.06,20.16,23.39,10.17,33.76,18,34.82,16.49,1.74-2.47-22.23-28.71-56.81-44-11.15-4.92-51.11-22.57-95.3-8.25C779,485.64,755.63,508.84,757.42,512Z"/>
            <path class="cls-7"
                  d="M642.42,770c.55-1.59,3.87-2,11-1.83A154.23,154.23,0,0,1,674.5,770c10,1.64,17.41,2.88,17.41,4.58,0,.77-1.53,1.59-6.41,2.75-4,.94-30.77,7-41.24-3.67C643.57,772.95,642,771.31,642.42,770Z"/>
            <path class="cls-7"
                  d="M773.9,701.55c3.5-4.29,10.93-3.84,21-3.23s16.89,3,26.41,6.39c9.18,3.25,13.77,4.93,14,7.15.48,5.2-15.23,11.94-28.81,13.78-7.8,1.06-20,2.71-27.84-4.47C773,716,769.76,706.63,773.9,701.55Z"/>
            <path class="cls-7"
                  d="M664.49,694.72c-1.79-2-5.41-1.82-12.57-1.31a78,78,0,0,0-18,3.31c-7.18,2.21-10.77,3.32-11,5.48-.4,3.16,6.58,6.36,11.29,8.53,7.56,3.47,14.24,6.54,21.28,3.79a16.47,16.47,0,0,0,8.7-7.76C665.7,703.65,667.25,697.81,664.49,694.72Z"/>
            <ellipse class="cls-10" cx="604.57" cy="1294.01" rx="4" ry="4.22"/>
            <ellipse class="cls-10" cx="614.57" cy="1307.72" rx="4" ry="4.22"/>
            <ellipse class="cls-10" cx="615.57" cy="1390" rx="4" ry="4.22"/>
            <ellipse class="cls-10" cx="628.57" cy="1406.88" rx="4" ry="4.22"/>
            <path class="cls-14"
                  d="M610.57,1258.15c-1.86-4,2.16-9.15,10-21.1,17.62-26.84,13.71-25.67,23-38,15.23-20.16,31.82-31.35,45-40.08,20.39-13.53,36.77-19.53,64-29.53,28.28-10.4,42.42-15.6,61-17.93,13.73-1.73,25.4-1.66,26-5.27,1.2-7.25-44.26-16-44-29.54.12-6.32,10.11-10.81,24-16.88,21.68-9.46,33.14-10.14,58-16.88,29.91-8.11,26.24-10.63,50-15.82,21.83-4.77,27.07-3.11,44-9.49,11.19-4.22,15.78-7.54,27-9.49,15.71-2.74,30.8-.43,31,2.11s-15.25,2.07-34,12.66c-14.06,7.94-22.92,18.13-31,27.43-2.41,2.77-11.45,13.35-22,31.65-17.15,29.74-23,53.4-25,52.74-1.52-.51,1.09-15.12,4-26.37,3.54-13.65,7-20.46,6-21.1-1.68-1-14.39,15.15-24,33.76-3.39,6.57-18.64,37.14-21,87.55-.85,18.24,1.43,37.12,6,74.9,4.72,39,7.08,58.52,13,81.22,8.27,31.71,14.69,56.33,32,81.22,30.14,43.33,69.79,53.71,66,67.51-3,10.88-29.55,11.46-36,11.6-22.84.5-42.23-6.74-78-27.43-43.34-25.07-65-37.6-83-57-33.57-36.13-46.59-74-49-81.22-12.73-38.3-10.08-67.57-13-67.51-3.39.07-11.32,39.41-2,82.28,8.58,39.48,28.42,66.37,42,84.39,39.59,52.53,80.14,70.74,77,77-3.32,6.64-50.82-9.78-93-34.81-51.9-30.8-78.23-64.22-84-71.73-18.49-24.07-33.54-43.65-37-72.79-4.9-41.31,3-65.4,3-65.4,3.37-10.26,7.73-18.41,4-24.26C643.31,1255.21,614.85,1267.31,610.57,1258.15Z"/>
            <path class="cls-14"
                  d="M518.57,1169.54c-6.31,2-6,14.14-9,78.06-3.64,76.82-5.28,83.51-4,111.82.28,6.18,4.41,91.77,18,92.83,3.25.25,4.26-4.54,20-28.48,13.39-20.37,15.87-21.79,19-29.54,3.39-8.39,3.73-14.8,2-46.41-2.43-44.43-4.3-53.62-4-78.06.28-22.31,1.9-20.1,1-29.54C557.87,1201.44,530.57,1165.72,518.57,1169.54Z"/>
            <path class="cls-14"
                  d="M612.57,1174.81c-3.06-2.68,13.79-30.72,31-53.8,6.19-8.3,27.11-35.66,63-66.46,15.54-13.33,30.34-26,53-39a277.62,277.62,0,0,1,75-29.54c47.59-11,93.52-8,94-3.16.4,4-31.29,6.75-91,27.43,0,0-40.48,14-87,46.41-11.64,8.11-25,18.31-23,25.32,2.73,9.64,32.62,6.4,33,10.55.44,4.76-39.26,5.57-78,25.32C637.66,1140.72,616.07,1177.88,612.57,1174.81Z"/>
            <path class="cls-14"
                  d="M573.57,958.56c-8.37,4.88-8.42,15.87-12,88.61-.46,9.25-.79,15.91,0,25.32,1.65,19.56,6.43,30.26,4,31.65-4.4,2.52-23.74-30.42-27-28.48-2.5,1.48,6.83,22,16,47.47,16.48,45.73,20.2,73.29,23,72.79,3.55-.64-5-44.41-3-112.87,1.06-36.28,2.91-87.8,20-107.6,1.41-1.64,6.45-7.13,5-11.6C597.57,957.56,582.67,953.26,573.57,958.56Z"/>
            <path class="cls-14"
                  d="M680.49,1581.72c-1.15,3.55,37.84,15,87.27,49.4,13.31,9.26,29.1,22.64,60.67,49.4,37.88,32.11,47.26,42.33,55.34,52.77,20.5,26.46,34.48,56.63,30.87,59.5-3.31,2.63-18.43-20-55.34-50.52-19.63-16.23-22.48-15.72-56.41-41.54-24.79-18.87-47.5-37.58-47.89-37s46.81,29.2,78.76,84.2a285.59,285.59,0,0,1,24.48,56.1c6,19.21,6.11,27.22,10.64,49.4,3.08,15.11,19.62,96.09,35.12,95.43,7-.3,11.84-17,17-34.8,9.1-31.19,7.53-53.84,9.58-53.89s7.77,25.11,5.32,56.14c-2.9,36.27-14.9,57.32-9.58,60.72,5.88,3.71,25.24-19.4,28.74-23.58,20-23.87,23.81-41.5,27.67-40.42,5.58,1.57,8.33,41.51-11.71,70.73-10,14.63-20.78,19.28-19.16,23.58,2.67,7,33.46-.44,72.37-10.1,54.34-13.5,65.41-20.93,71.31-32.56,4.63-9.14,4.5-17.78,4.26-33.68-.42-27.46-7.42-47.38-11.71-60.63-10.4-32.12-15.31-65.95-23.42-98.8-20.06-81.34-19.45-77.81-20.22-82-11.62-62.19-9.61-102.37-21.29-104.41-5-.87-9.09,5.8-13.84,11.23-8.14,9.32-28,26.26-115,22.45-23.83-1-66.27-4.24-128.78-18C715.37,1589.8,681.57,1578.44,680.49,1581.72Z"/>
            <path class="cls-14"
                  d="M975.31,2047.67c0-.6,12.72-.79,45.77-6.74,40-7.2,47.51-11.62,53.22-16.84,13.21-12.08,15-26.68,21.29-25.82,6,.82,12.63,15.52,9.58,25.82C1095,2058.51,975.41,2049.49,975.31,2047.67Z"/>
            <path class="cls-14"
                  d="M571.93,1560.44c14.89-3.82,25.66,11.05,66,44.91,28,23.52,17.88,12.2,72.37,56.14,31.72,25.58,66.94,54.08,64.92,57.26-1.24,2-15.61-7.16-50-22.45-41.29-18.36-48-17.4-50-14.6-1.83,2.52-.18,6.89,6.39,20.21,11.55,23.42,17.32,35.13,23.42,43.79,25.54,36.35,55.29,70.74,55.29,70.74,9.51,11,84,97,72.37,112.27-7.43,9.75-50.44-9.06-79.82-30.31-21.76-15.75-33-30.61-36.19-28.07-4.31,3.42,7.37,36.93,30.87,65.12,18.28,21.93,36.58,32.07,94.72,82,4.51,3.87,15.57,13.45,13.84,16.84-2.33,4.56-23.82-10-56.41-11.23-24.77-1-29.19,6.77-49,2.25-19.3-4.42-32.22-15.71-37.25-20.21-20.26-18.12-26.29-39.43-35.12-62.87-3.61-9.57-18-37.82-46.83-94.31-32.85-64.39-35.26-55.4-56.41-99.92-23.85-50.2-45.1-96.47-31.93-144.83C545.64,1594.1,553.57,1565.13,571.93,1560.44Z"/>
            <path class="cls-14"
                  d="M1082.57,1041.9c.84-2.62-7.63-9.81-18-12.66-18.85-5.18-36.42,6.07-48,13.71-19.23,12.7-29.35,26.42-48,51.69-27,36.58-30.78,53.47-32,60.13-.77,4.2-2.32,14.12-1,31.65,2.79,37,15,63.83,22,80.17,26.72,62.79,38.37,118.7,40,118.14,1.23-.42-13.54-29.2-5-61.18,1.79-6.71,9-29.83,29-42.19,25.71-15.86,57.63-4.76,58-7.38.43-3-44.06-9.15-44-16.88,0-5.29,21-11.11,41-11.6,32.6-.81,53.89,12.66,56,8.44,1.3-2.61-5.93-9.66-38-36.92-29.82-25.35-35.83-29.67-37-39-.71-5.7.7-10.59,21-43.25,18.59-29.92,26.78-40.91,24-44.3-2.16-2.64-8.84,1.91-25,7.38-20.63,7-41,13.87-49,5.27-6.86-7.34-2.18-23.19,0-30.59,1.77-6,6-20.41,18-27.43C1062.45,1035.72,1081.37,1045.64,1082.57,1041.9Z"/>
            <path class="cls-14"
                  d="M1007.57,1353c5.69-12,11.41-24,24-33.76s24.9-11.75,44-14.77c23.43-3.7,46.68-3,47,0s-24,1.49-46,19c-3.38,2.69-24.16,19.7-30,48.52-6.23,30.78,9.29,51.77,0,59.07-8.16,6.41-25.85-5.3-29-7.38-3.84-2.54-15.77-10.45-20-25.32C993.24,1383.19,999.57,1369.79,1007.57,1353Z"/>
            <path class="cls-14"
                  d="M269.57,1028.19c-6.85,2.07-3.66,16.43-13,48.52-5.85,20.09-10.35,35.54-23,49.58-10,11.13-19.21,14.73-18,19,1.54,5.42,18.48,6.81,33,3.16,18.2-4.57,24.75-15.06,31-11.6s1.5,15.39,6,32.7c3,11.49,13,22.94,33,45.36,26.6,29.86,33,31.82,38,30.59,7.76-1.92,11.75-11.49,14-16.88,12.44-29.81-2.26-64-1-64.35,1-.3,5.63,22.93,19,45.36,12.21,20.48,30.49,38.24,36,34.81,4.48-2.78-3.8-16.86-3-42.19.88-27.89,12.13-49.18,15-48.52s-3.94,21.77,6,30.59c6.61,5.86,17.73,3.75,24,1,4.08-1.75,10-5.4,17-16.88,8.56-13.94,10.69-26.11,16-53.8,6.86-35.76,6.27-30.84,7-35.87,5.92-40.87,4.46-86.62-2-87.55-4.15-.6-3.71,18.27-20,38-10.19,12.32-23.08,20.33-43,32.7-16.74,10.4-22.21,11.85-26,20-3,6.53-1.32,9.46-2,33.76-.45,16.24-1.53,26.5-2,30.59-2.29,19.94-3.86,33.57-9,34.81-9.38,2.27-21.17-39-32-36.92-9.17,1.72-9.43,32.91-13,32.7-2.92-.17-6.65-21.3-3-44.3,2.49-15.7,7.38-25.7,6-26.37-1.71-.84-10.93,13.83-18,29.54-6.68,14.85-7.72,22.36-10,22.15-3.5-.32-8.22-18.8-4-36.92,5.75-24.7,24.24-32.13,21-42.19-3-9.44-19.59-3.79-41-15.82C283.57,1048.92,278.31,1025.55,269.57,1028.19Z"/>
            <path class="cls-14"
                  d="M395.57,1198c-3.18-1.15-4.12-6.93-5-48.52-.45-21.25-.39-28.93,0-38,1.06-24.4,2-42.14,9-44.3,3.37-1,5.17,2.44,13,6.33,15.75,7.83,23.78,1.39,30,6.33,14,11.12-3.44,62.23-26,97C411.09,1185.38,401.39,1200.13,395.57,1198Z"/>
            <path class="cls-14"
                  d="M585.57,1481.78c-2.66-.29-3.34,19.74-18,43.25-3.41,5.47-12.47,19.72-20,17.93-5.09-1.21-6.91-9.15-9-8.44s.45,9.31-2,22.15c-1.39,7.31-3.15,9.25-2,10.55,3.17,3.58,21.11-6.19,34-20a70.35,70.35,0,0,0,16-25.32C591.52,1502.21,588.21,1482,585.57,1481.78Z"/>
            <path class="cls-14"
                  d="M615.57,1458.57c.32,7.82,1,25,11,41.14,9.71,15.68,23.46,22.64,38,29.54,46.58,22.1,69.87,33.15,101,41.14,18.45,4.74,46.43,11.74,84,12.66,17.55.43,41.46.86,71-6.33,39.61-9.63,69.87-28.22,69-30.59s-33.27,16.19-82,21.1c-44.57,4.48-79.65-4.85-109-12.66-22.76-6.06-59.31-16.09-100-42.19-30-19.21-44.93-28.82-59-48.52-7.81-10.94-16.17-26.08-21-24.26C614.84,1441,615.29,1451.72,615.57,1458.57Z"/>
            <path class="cls-15"
                  d="M636.57,1041.9c-6.58,3.62-10,9.28-12,12.66-8.15,14-12.49,26.73-16,36.92-9.63,27.92-9.8,27.57-11,32.7-3.65,15.63-5.82,35-3,35.87,1.32.39,3-3.49,9-14.77,11.92-22.55,17.89-33.82,24-40.08,9.1-9.32,13.93-8.75,17-16.88,2.76-7.31-.35-9.89,1-22.15,1.74-15.85,8.2-23,5-26.37C647.16,1036.19,637.23,1041.54,636.57,1041.9Z"/>
            <path class="cls-15"
                  d="M642.57,998.44c-2,4.12,1.68,9.54,2,10,3.15,4.54,8.17,5.47,11,6,4.63.86,14.73,1.27,17-4,1.81-4.21-2.2-10.06-6-13C658.82,991.44,645.41,992.53,642.57,998.44Z"/>
            <path class="cls-16"
                  d="M1138.57,1387.89c-6.8-1-12-1.28-16,2.11-4.39,3.7-4.93,9.61-5,10.55-.73,9.39,7.07,16.37,10,19,4.08,3.65,10.15,7.38,23,9.49,10.48,1.72,39.77,4.72,43-5.27,2.62-8.1-13.31-20.37-17-23.21C1165.57,1392,1155.65,1390.54,1138.57,1387.89Z"/>
            <path class="cls-16"
                  d="M1180.57,1448c3.58-7.55,11.18-10,16-11.6,12.65-4.13,23.74-.8,33,2.11,13.22,4.16,23.58,7.42,29,17.93,3.28,6.37,6.86,17.8,2,24.26-2.15,2.86-6.41,5.38-39,0-33.52-5.53-38.57-9.78-41-14.77A21.61,21.61,0,0,1,1180.57,1448Z"/>
            <path class="cls-16"
                  d="M1255.57,1383.67c7.14-5.32,22.39,6.87,27,10.55,10,8,15.24,16.77,19,23.21,9.26,15.87,9.21,25.91,9,29.54-.07,1.14-.41,7.13-2,7.38-1.85.3-3.59-7.47-7-14.77-7.22-15.48-19.65-24.06-23-26.37-13.8-9.53-23.18-7.53-26-15.82C1251,1392.61,1252.13,1386.24,1255.57,1383.67Z"/>
            <path class="cls-16"
                  d="M1234.57,1407.94c12-7.5,30.62,5.42,38,10.55,5.77,4,13,9.14,18,19,2.18,4.26,6.49,12.7,4,22.15-1.36,5.15-5.25,12.58-10,12.66-4.19.07-6-5.66-13-15.82-5.63-8.16-12.2-17.67-22-24.26-11.73-7.89-20.89-6.75-22-12.66C1226.76,1415.25,1230.76,1410.31,1234.57,1407.94Z"/>
            <path class="cls-16"
                  d="M1178.57,1314c1.19-7.36,25.66-8.67,41-9.49,16.13-.86,24.57-1.24,36,2.11,13.12,3.84,21.22,10,29,15.82,13.55,10.23,13.17,14.72,13,15.82-.7,4.52-6.51,7-10,8.44-8.29,3.41-16.23,3.56-38,0-15.89-2.6-24-4-34-7.38a92.06,92.06,0,0,1-25-12.66C1183,1321.24,1178,1317.6,1178.57,1314Z"/>
            <path class="cls-16"
                  d="M1134.57,1345.72c2.67-10.26,11.73-15.11,17-17.93,4.28-2.29,8.54-4.57,13-3.16,5.56,1.76,5.71,7.46,11,14.77,4.54,6.28,13.7,11.22,32,21.1,12,6.48,15.11,7.4,15,9.49-.31,6-26.54,8.93-41,9.49-19.75.77-30.71,1-39-7.38C1136.83,1366.25,1131.94,1355.83,1134.57,1345.72Z"/>
            <path class="cls-16"
                  d="M138.57,993.44c-2.22,1.33-7.19,4.29-9,10a15.81,15.81,0,0,0,0,9,17.72,17.72,0,0,0,6,8c7.06,5.22,18.11,2.16,30-1,25-6.64,33.45-2.23,39-10,.91-1.27,4.34-6.08,3-11C203.24,982.6,154.35,984,138.57,993.44Z"/>
            <path class="cls-16"
                  d="M125.57,1077.72c-3.75-6.75-.7-15.11,0-16.88,5.29-13.43,21.14-17.79,37-22.15a77.74,77.74,0,0,1,26-2.11c6.48.55,9.74.87,11,3.16,3.66,6.68-11.85,23.17-22,31.65-8.57,7.16-17.39,14.31-30,14.77C144.17,1086.33,130.57,1086.81,125.57,1077.72Z"/>
            <path class="cls-16"
                  d="M105.57,939.44c4.17-6.76,12.64-7.52,18-8,5.89-.53,13.36.09,34,10,17.76,8.53,29.94,14.37,29,19-.73,3.62-9.13,4.66-20,6s-21.45.25-42-2c-10.38-1.14-14-1.76-17-5C103,954.49,101.76,945.62,105.57,939.44Z"/>
            <path class="cls-16"
                  d="M8.57,1065.44c-3.61-4.87,2.1-14.48,3-16,2.54-4.27,9.19-13.29,31-20,20.57-6.33,48-8.54,50-2,.88,2.83,1.66,13-11,15-19,3-31.09,6.37-35,8-7,2.89-17,10-27,15C12.71,1068.87,11.28,1069.1,8.57,1065.44Z"/>
            <path class="cls-16"
                  d="M33.57,1109.44c-3.7-5.34.48-14.57,2-17.93,12.51-27.63,47.61-31.3,61-32.7,2.61-.27,6.75-.54,9,2.11,4.45,5.24-1,19-3,20a240.18,240.18,0,0,0-24,14.77c-4.57,3.13-10,8.44-26,16.88C45.79,1116.15,36.93,1114.25,33.57,1109.44Z"/>
            <path class="cls-16"
                  d="M41.57,1023.44c-.59-1.31,4.13-4.59,12-10,7.24-5,12.33-8.45,20-12,10.53-4.88,16.69-7.74,20-5,3.51,2.91,3,11.48-1,15-1.94,1.69-4.26,1.84-6,2-3.18.3,4.76-.21-27,7C43.57,1024,41.88,1024.13,41.57,1023.44Z"/>
            <path class="cls-1"
                  d="M1044.31,2193.44c7.15-3.38,19.82-9.58,29-24.3,10.56-16.91,9.82-34.35,9.38-42.29-.4-7.16-2.15-38.71-25.59-54.89-15.83-10.92-33.31-9.14-43.5-8.1-9.59,1-21.53,2.2-32.41,10.8-21.33,16.85-21.33,48.39-21.33,67.49,0,12.47.16,24.35,7.68,36,7.79,12.05,18.94,16.85,23.88,18.9C1015.57,2207,1038.28,2196.28,1044.31,2193.44Z"/>
            <path class="cls-1"
                  d="M1047.73,2092.65c2.85-5.56,10.52-20,26.44-27,26.68-11.7,52.9,7.93,55.45,9.9a64.52,64.52,0,0,1,21.33,29.69c6,17.52,2.65,32.93,0,45-2.25,10.25-4,18.44-10.24,27-12,16.59-30.23,20.29-36.68,21.6s-22,4.45-35.83-2.7C1038.76,2180.94,1030.2,2126.81,1047.73,2092.65Z"/>
            <path class="cls-1"
                  d="M1126.2,2096.25c3.15-2,14.48-9.19,29.86-8.1,22.7,1.61,36,19.87,39.24,24.3,10.83,14.86,12.23,30.41,12.8,37.79.9,11.64,2,26.56-6.82,37.79s-23.3,12.73-40.95,14.4c-13.39,1.27-21,2-29.86-1.8-17.94-7.66-29.23-28.7-30.71-48.59C1098.09,2129.5,1108.94,2107.44,1126.2,2096.25Z"/>
            <path class="cls-16"
                  d="M975.82,2108.84c-2.69-7.93,4.21-17.2,6.82-20.7,10.65-14.28,27.49-16.38,33.27-17.1,6.49-.81,31.44-2.79,46.92,15.3,2,2.38,13.63,15.94,9.38,28.79-2.8,8.47-11.06,12.3-13.65,13.5-9.8,4.54-17,1.66-45.21-5.4C985.36,2116.24,978.07,2115.44,975.82,2108.84Z"/>
            <path class="cls-16"
                  d="M1075.62,2073.72c2.07-6.07,18.72-4.71,21.33-4.5,7.22.59,21.22,1.73,32.41,13.5,3.51,3.69,10.42,11,11.09,22.5.08,1.45.57,12.54-6.82,21.6-10.76,13.18-32.36,14.91-40.09,6.3-3.2-3.56-.8-5.29-5.12-24.3-2.49-11-3.74-16.45-6.82-22.5C1077.75,2078.81,1074.64,2076.63,1075.62,2073.72Z"/>
            <path class="cls-16"
                  d="M1150.69,2095.35c2.17-3.37,13.59.51,21.33,4.5,10.61,5.48,29.34,18.94,26.44,30.59-1.39,5.59-7.17,8.4-10.24,9.9-10,4.88-24,3.07-28.15-4.5-2.53-4.63.94-7.2,0-16.2C1158.57,2105.38,1148.49,2098.72,1150.69,2095.35Z"/>
            <path class="cls-1"
                  d="M778.71,2188.72c-7.53-3.56-20.85-10.08-30.52-25.56-11.11-17.8-10.34-36.15-9.87-44.5.42-7.53,2.26-40.73,26.93-57.75,16.66-11.49,35-9.62,45.77-8.52,10.09,1,22.65,2.31,34.11,11.36,22.45,17.73,22.44,50.92,22.44,71,0,13.12-.17,25.62-8.08,37.87-8.19,12.68-19.93,17.73-25.13,19.88C809,2203,785.06,2191.72,778.71,2188.72Z"/>
            <path class="cls-1"
                  d="M775.12,2082.64c-3-5.85-11.07-21.06-27.82-28.4-28.08-12.31-55.67,8.34-58.34,10.41a67.88,67.88,0,0,0-22.39,31.25c-6.34,18.43-2.79,34.64,0,47.34,2.37,10.79,4.26,19.41,10.77,28.4,12.64,17.46,31.81,21.35,38.59,22.72,6.94,1.41,23.1,4.69,37.7-2.84C784.57,2175.55,793.57,2118.59,775.12,2082.64Z"/>
            <path class="cls-1"
                  d="M692.57,2086.44c-3.31-2.15-15.24-9.67-31.41-8.52-23.89,1.69-37.89,20.9-41.29,25.56-11.4,15.64-12.86,32-13.46,39.77-.94,12.25-2.15,27.94,7.18,39.77s24.52,13.39,43.08,15.15c14.09,1.33,22.09,2.09,31.41-1.89,18.88-8.06,30.76-30.19,32.31-51.13C722.13,2121.44,710.71,2098.24,692.57,2086.44Z"/>
            <path class="cls-16"
                  d="M761.66,2099.72c-.42-2.8-2-13.21,3.59-22.72,7.8-13.31,23.82-15.06,33.21-16.1,7.54-.83,27.69-3,42.18,11.36,2.52,2.5,13.79,13.71,11.67,27.46-1.71,11.1-11.15,17.3-18,21.78-3.27,2.15-31.63,20.8-54.75,5.68C777.57,2125.81,764.23,2116.72,761.66,2099.72Z"/>
            <path class="cls-16"
                  d="M746.4,2061.81c-3.75-7.22-16.38-6.82-22.44-6.63-23.37.74-37.1,20-37.7,20.83-3.58,5.19-12,17.32-8.08,29.35,3.59,11.17,15.51,15.29,26,18.94,3.58,1.24,27.52,9.53,34.11,0,3.53-5.11-1.78-9.77-1.8-22.72C736.51,2080.16,751,2070.72,746.4,2061.81Z"/>
            <path class="cls-16"
                  d="M664.73,2086.44c-2.69-4.17-17.39.68-27.82,7.57-6.51,4.3-16.91,11.17-17,21.78-.1,7.15,4.51,12.28,5.39,13.26,11.14,12.4,36,9,39.49,0,2.48-6.26-7-11.14-6.28-23.67C659.11,2094.44,666.82,2089.72,664.73,2086.44Z"/>
            <rect class="cls-17" x="200.47" width="63.12" height="124"/>
        </g>
    </g>
</svg>