<svg id="Layer_1" data-name="Layer 1" xmlns="http://www.w3.org/2000/svg" viewBox="0 0 1795.99 1400.46">
    <defs>
        <style>
            .cls-1{fill:#272628;}.cls-1,.cls-10,.cls-11,.cls-12,.cls-13,.cls-14,.cls-15,.cls-2,.cls-20,.cls-26,.cls-27,.cls-28,.cls-29,.cls-3,.cls-4,.cls-5,.cls-6,.cls-7,.cls-8{stroke:#000;}.cls-1,.cls-10,.cls-11,.cls-12,.cls-13,.cls-14,.cls-15,.cls-2,.cls-20,.cls-25,.cls-26,.cls-27,.cls-28,.cls-29,.cls-3,.cls-4,.cls-5,.cls-6,.cls-7,.cls-8,.cls-9{stroke-linecap:round;stroke-linejoin:round;stroke-width:8px;}.cls-3{fill:#94d3d1;}.cls-4{fill:#8e8b7d;}.cls-5{fill:#66645a;}.cls-6{fill:#ddc533;}.cls-25,.cls-7,.cls-9{fill:none;}.cls-8{fill:#ff2a49;}.cls-25,.cls-9{stroke:#fff;}.cls-9{opacity:0.5;}.cls-21,.cls-22,.cls-24,.cls-25,.cls-31,.cls-9{isolation:isolate;}.cls-10{fill:#f4f4ea;}.cls-11{fill:#e2e2d7;}.cls-12{fill:#aeb3b7;}.cls-13{fill:#315d7c;}.cls-14{fill:#4c4a41;}.cls-15,.cls-17{fill:#d9d9d9;}.cls-16,.cls-20,.cls-21,.cls-22,.cls-24,.cls-31{fill:#fff;}.cls-18{fill:#380208;}.cls-19{fill:#6a0006;}.cls-21{opacity:0.4;}.cls-22,.cls-25{opacity:0.2;}.cls-23{fill:#282828;}.cls-24{opacity:0.05;}.cls-26,.cls-30{fill:#1a243d;}.cls-27{fill:#e2d9af;}.cls-28{fill:#69728c;}.cls-29{fill:#513b3b;}.cls-31{opacity:0.1;}
        </style>
    </defs>
    <title>salesPromo</title>
    <path class="cls-1"
          d="M596.7,1087.51c5.73,11.87-.82,8.37,10,73,3.73,22.27,4.48,45.1,10,67a59.87,59.87,0,0,1,2,19c-.23,3.84-.75,5.74-2,13,0,0-1.59,9.22-3,20-1.8,13.78-.54,24.67,0,31,1.67,19.73,1,73-1,89h-402c-5-32-1-83-5-127-3.05-33.59.18-60.54,13-93,29.53-74.77,90.54-111.49,100-117,61-35.56,119.18-32,146-30C495.82,1034.84,574.13,1040.73,596.7,1087.51Z"
          transform="translate(-0.02 -3.05)"/>
    <path class="cls-2"
          d="M845.7,543.51c-7.37-8.59-22.59-7.82-39-7-8.8.44-15.87,2.29-30,6-14.41,3.78-18.67,6.21-22,10-4.71,5.35-6.27,11.92-7,15-2,8.51.49,10.1-2,19a87.38,87.38,0,0,1-5,13c-2.66,5.59-4.06,7.06-4,10,.11,5.42,5,9.41,7,11,2.89,2.34,11.66,8.47,31,7,9.89-.75,37.59-2.85,57-26C845.23,585.37,856.84,556.5,845.7,543.51Z"
          transform="translate(-0.02 -3.05)"/>
    <path class="cls-3"
          d="M220.7,471.51c1.5-17.8,17.6-29.76,26-36,53-39.39,132.3-2.65,142,2,37.49,18,54.35,42.49,58,48,9.11,13.76,22.42,33.87,17,56-6.63,27-37.5,41.88-59,46-30.4,5.83-53.89-7.49-99-34C260.44,526.91,218.12,502,220.7,471.51Z"
          transform="translate(-0.02 -3.05)"/>
    <path class="cls-4"
          d="M478.7,474.51c7.81-4.46,22.06,3.47,32,9a108.82,108.82,0,0,1,26,20c43.35,46.83,80.25,95.36,116,128,10.1,9.22,19.81,18.87,30,28,24.07,21.56,28.22,23.19,30,30,5.66,21.67-24.75,49.72-48,63-8,4.59-42.88,24.49-79,15-55.26-14.52-72.84-88.35-108-236C474.6,518.5,466.13,481.68,478.7,474.51Z"
          transform="translate(-0.02 -3.05)"/>
    <path class="cls-5"
          d="M793.7,719.51c-1.23,5.72,1.09,11,2,13a26.3,26.3,0,0,0,13,13c8.09,3.64,15.47,1.86,19,1a34.37,34.37,0,0,0,16-9,35.69,35.69,0,0,0,10-20c.94-5.88,2.13-13.33-2-18-7.16-8.11-25-1.82-33,1C809.88,703.61,796.06,708.48,793.7,719.51Z"
          transform="translate(-0.02 -3.05)"/>
    <path class="cls-6"
          d="M796.7,752.51c3.61-.69,9.74-5.79,22-16,12.57-10.46,9.51-9.51,20-18,7-5.69,10.56-7.87,10-10-.82-3.14-9.36-1.83-20-4-2.86-.58-25.24-5.15-34-20-8.33-14.14,1.47-27.8-6-33-6.38-4.45-19,1.72-26,8-14.62,13.09-13.39,34.25-13,41,.35,6,1.53,22.26,14,36C766.25,739.32,780.94,755.51,796.7,752.51Z"
          transform="translate(-0.02 -3.05)"/>
    <path class="cls-4"
          d="M592.2,744c-5.22,4,0,11.08-.5,18.5-.34,4.92,2.4,9.58,20,25,17,14.93,25.57,22.39,38,29,7.91,4.21,17.37,9.15,31,12,8.53,1.78,22.91,4.63,40,0,13-3.52,21.73-9.78,29-15,8.93-6.41,11.24-9.94,25-23,9.53-9,17.85-16.94,27-24,23.61-18.22,39-24,42-29,.67-1.11-8.65,6.57-26,7-7,.17-16.24.41-26-4-13.54-6.11-20.13-17.55-25-26-4-7-12.48-21.65-11-40,1.78-22.07,16.77-35.45,13-39-2.47-2.33-8.45,3.84-25,9-8.33,2.6-15.89,3.73-31,6-14.14,2.12-14.73,1.51-21,3,0,0-26.5,8.5-39.5,22.5"
          transform="translate(-0.02 -3.05)"/>
    <path class="cls-7" d="M583.7,628.51a43.62,43.62,0,0,0,12,6,49.16,49.16,0,0,0,17,2,67.4,67.4,0,0,0,15-2"
          transform="translate(-0.02 -3.05)"/>
    <path class="cls-7"
          d="M606.7,650.51a147,147,0,0,0,17,2c8.83.52,13.62,0,23,0,15.24,0,22.86-.13,23,1,.2,1.6-14.32,5.28-28,7a186.05,186.05,0,0,1-31,1c-10.35-.34-18.93-1.22-25-2"
          transform="translate(-0.02 -3.05)"/>
    <path class="cls-7" d="M662.7,665.51a80.39,80.39,0,0,0-25,16,86.69,86.69,0,0,0-17,23,88,88,0,0,0-4,9"
          transform="translate(-0.02 -3.05)"/>
    <path class="cls-7"
          d="M643.7,707.51a76.41,76.41,0,0,1,10-17c2.17-2.78,7-8.63,8-8s-3,7-7,17c-3.49,8.87-8.25,21.32-7,36a57.39,57.39,0,0,0,3,14"
          transform="translate(-0.02 -3.05)"/>
    <path class="cls-2"
          d="M782.7,633.51c-4.7,8.38-3.36,20.08-2,32,1,8.5,1.75,15.36,6,23,8.14,14.65,22.45,20.38,29,23,6.29,2.52,18,7,32,4,6.4-1.37,10.47-3.7,18-8,9.16-5.23,20-11.59,27-24a35.23,35.23,0,0,0,5-14,34.41,34.41,0,0,0-4-20,38.8,38.8,0,0,0-13-14C859.88,621.22,796.72,608.5,782.7,633.51Z"
          transform="translate(-0.02 -3.05)"/>
    <polygon class="cls-8"
             points="739.68 661.45 741.68 688.45 765.68 674.45 861.68 487.45 831.68 473.45 739.68 661.45"/>
    <line class="cls-9" x1="836.18" y1="485.96" x2="753.18" y2="658.96"/>
    <path class="cls-2"
          d="M769.7,619.51c-7.06,10.75-6.69,15.28-6,21,1.7,14.08,28.68,21.8,42,24,24.31,4,43.19-3.74,56-9,18-7.39,24.21-14.94,27-19a41.16,41.16,0,0,0,7-18c.45-3.78,1.41-16.78-7-27-6.82-8.29-16.23-10.38-24-12-30.18-6.27-61.19,6.69-78,23C780.16,608.85,771.14,617.31,769.7,619.51Z"
          transform="translate(-0.02 -3.05)"/>
    <path class="cls-2"
          d="M772.7,578.51c-4.38,7.38-5.78,12.23-6,17-.42,9.14,3.48,18.71,9,24,18.24,17.5,64-2.25,88-21,9.73-7.6,15.55-14.77,18-24,.64-2.43,4.42-16.66-4-28-6.51-8.77-16.55-10.74-23-12-20.74-4.06-38.06,4.89-46,9A100.19,100.19,0,0,0,772.7,578.51Z"
          transform="translate(-0.02 -3.05)"/>
    <path class="cls-6"
          d="M254.7,476.51c.71-.66,26.05,30.82,69,57a186.48,186.48,0,0,0,46,20c18.94,5.36,36.64,10.11,52,1a41.5,41.5,0,0,0,15-16c1.48-2.73,7.32-14.17,3-41-3.79-23.56-11.7-36-10-37,3.07-1.88,33.22,35.72,61,83,13.91,23.67,47.6,84.45,72,175,43.64,161.93,8.23,235.94,25,305,2.21,9.1,10.07,37.66-5,57-.81,1-3.26,4.08-10,9-28.3,20.69-62.57,23.85-89,26-10.72.87-20.51,1.67-34,1-18-.89-34.34-4.26-67-11-5.63-1.16-8.45-1.75-9-2-27-12.47-11.91-90.85-5-161,4.33-44,11.78-149.23-11-266-15.47-79.28-35.1-113.86-47-132C286.47,507.56,254,477.2,254.7,476.51Z"
          transform="translate(-0.02 -3.05)"/>
    <path class="cls-7"
          d="M315.7,540.51a87.6,87.6,0,0,0,16,15c14.58,10.56,28.58,13.74,39,16,12.7,2.75,27.85,6,46,1,7.07-2,16.66-4.61,25-13,10.49-10.55,12.44-23.56,14-34,3.2-21.43-1.65-39.63-6-51"
          transform="translate(-0.02 -3.05)"/>
    <path class="cls-2"
          d="M387.7,515.51a204.5,204.5,0,0,0-16-22c-6.93-8.29-10.51-11.2-13-13a57.14,57.14,0,0,0-16-8c-30.37-10.23-49.25-16.59-49-21,.33-5.87,34.51-7.45,54-7,27.09.63,34.85,5.39,38,11,1.8,3.22,2.2,7.14,3,15,.7,6.91.4,11.67,0,20C388.43,496,388,504.61,387.7,515.51Z"
          transform="translate(-0.02 -3.05)"/>
    <path class="cls-3"
          d="M342.7,526.51c4.45-4.22,8-13.61,8-35,0-4,2.77-9.51,6-10,4-.6,4,1,10,6-10-13-16.38-12.27-31-24-44.43-35.66-109.88-54-118-41-4.87,7.79,11.51,25.83,28,44C283.85,508.54,326.7,519.51,342.7,526.51Z"
          transform="translate(-0.02 -3.05)"/>
    <path class="cls-3"
          d="M388.7,485.51c2-6,1.44-12.18,4-13,3.11-1,12.06,11.53,15,26,1.65,8.12.8,13.83,2,14,1.72.24,5.12-11.31,7-22,3.59-20.36,5.92-33.65-2-43-9-10.56-28.91-13.68-36-6C368.4,452.66,391.7,460.51,388.7,485.51Z"
          transform="translate(-0.02 -3.05)"/>
    <path class="cls-4"
          d="M420.7,436.51c.48-.4,10.74,13.08,29,24,9.87,5.91,17.06,8.06,23,9s7.41.17,12,1c9.68,1.75,17,7.67,24,15,20.55,21.46,30,43,30,43,31.79,63.58,42,118,42,118,6.36,23.61,14,52,21,91,1.93,10.65,7.87,44.49,12,90,5.62,61.82,4.72,110.19,4,144,0,0-1.7,79.45,2,125,.6,7.38,1.73,15.26,4,31,3.06,21.23,4.13,24,6,27,1.14,1.81,3,4.37,3,8,0,4.74-3.27,8-7,12-15.31,16.5-14.07,19.46-21,22a26.92,26.92,0,0,1-15,1c-6.17-1.44-10.45-5.63-19-14-6.15-6-9.27-9.14-11-14a27.83,27.83,0,0,1-1-14c2.43-15.6,1.62-91.73,0-244-.21-19.56-.43-40-2-68-3.4-60.47-7.11-126.62-30-206-16.32-56.61-29.36-101.82-66-150C448.2,471.07,419.93,437.16,420.7,436.51Z"
          transform="translate(-0.02 -3.05)"/>
    <path class="cls-4"
          d="M408.7,419.51c-8.22-7.15,24.41,39.15,65,127,3,6.55,30.72,67.08,50,137,35.39,128.36,26.6,231.08,29,231,2.83-.09-2.29-142.22,0-213,.28-8.57-.15-28.71-1-69-.54-25.62,0-29.21-3-34-15-24-36-41-49-51,9-8,17.26-18.27,11-30C502.7,502.51,431.7,439.51,408.7,419.51Z"
          transform="translate(-0.02 -3.05)"/>
    <path class="cls-7"
          d="M407.7,1064.51a227.34,227.34,0,0,0,37-5c14.78-3.25,30.55-6.72,48-17a126.62,126.62,0,0,0,32-27"
          transform="translate(-0.02 -3.05)"/>
    <path class="cls-7" d="M424.7,1088.51a257.89,257.89,0,0,0,38-2c15.09-1.92,29.75-3.78,47-11a137.3,137.3,0,0,0,38-24"
          transform="translate(-0.02 -3.05)"/>
    <path class="cls-7"
          d="M407.7,1090.51a286.46,286.46,0,0,0,39,9c12.85,2,32.54,5,58,3,16.1-1.28,27.62-2.21,40-7,3.82-1.48,6.9-2.94,9-4"
          transform="translate(-0.02 -3.05)"/>
    <path class="cls-4"
          d="M122.7,561.51a39.76,39.76,0,0,1,1-16,28.52,28.52,0,0,1,4-9c4.52-6.46,11.29-9,14-10,6.14-2.38,14.76-7.59,32-18,16.63-10,24.95-15.07,32-25,6-8.49,6.13-13.24,11-15,10.8-3.89,26.44,13.65,32,20,54.93,62.76,82.39,94.14,96,123,53.83,114.16,66.31,248.16,77,363,0,0,4.83,51.85-6,203a52.49,52.49,0,0,1-2,11c-7.4,25.32-32.9,43.21-57,49-8.12,2-14.19,2-26,2-17.36,0-38-1.63-79-11-18.49-4.23-54.73-13.15-78-28-8.29-5.29-17.08-12.7-21-24a39.32,39.32,0,0,1-2-10c-2.57-36.26,39.23-134.73,51-151a15.67,15.67,0,0,0,3-7c.84-5.73-2.13-10.51-3-12-4.6-7.9-4-16.25-9-37C192.7,959.51,156,805.76,122.7,561.51Z"
          transform="translate(-0.02 -3.05)"/>
    <path class="cls-4"
          d="M229.7,432.51c-5.42-.29-6.65,10.79-21,28-6.12,7.35-8.12,8-9,12-1.73,7.85,4,14,15,29,13.31,18.15,20,27.22,22,34,5.15,17.13-1.73,26.2,6,34,3.57,3.6,7.35,4,22,6,38.94,5.29,41.64,6.37,43,9,4.46,8.62-8.55,28-20,45-4,5.94-7.43,10.36-6,15,2.16,7,13.29,7.6,24,12,13.8,5.67,21.11,15.31,33,31,30.93,40.8,55.59,171.47,61,171,4-.34,6-72.56-11-161-6.94-36.23-13.82-58.29-17-68-11.21-34.27-23-70.24-52-107-18.31-23.18-32.84-41.59-52-52-6.34-3.44-16.55-7.84-25-19C234.88,441.18,234.4,432.76,229.7,432.51Z"
          transform="translate(-0.02 -3.05)"/>
    <path class="cls-4"
          d="M248.7,732.51c-5.9,5.86-12.28,8.89-20,19a80.28,80.28,0,0,0-11,20c-15.23,38-16.44,52.81-26,69-9.67,16.38-22.4,24.9-36,34-41.46,27.75-110.47,44.69-133,17-11-13.48-8.74-34.85-8-42,.46-4.46,1.67-12.07,16-41,20.71-41.8,23.68-37,29-55,4.32-14.63,7.23-34.26,15-35,2.89-.27,6.22,2.08,7,1,.9-1.24-3-5-5-8-6.09-9.38-.16-22.87,3-32,5.18-15,4.48-31.36,7-47,9.46-58.69,9.18-68.44,20-78,8.15-7.2,17-9.31,24-11"
          transform="translate(-0.02 -3.05)"/>
    <path class="cls-2"
          d="M205.7,868.51c-1.65-2.09-.28-3.75,12-35,9.25-23.53,12-31.62,21-40a94.08,94.08,0,0,1,15-11c9.41-5.44,12-4.52,21-10,9.55-5.83,11-9.54,15-9,6.48.88,10.6,11.62,12,18,5.31,24.22-15.13,47.46-20,53C255.73,864,213.1,877.87,205.7,868.51Z"
          transform="translate(-0.02 -3.05)"/>
    <path class="cls-10"
          d="M287.7,661.51c1.21-.65,4.36,5.15,13,9a38.15,38.15,0,0,0,17,3c47.93-1,107-11,107-11s3.56-.6,31-6c23.89-4.7,29.23-5.92,36-10,13.91-8.37,16.42-18.26,20-17,7.56,2.66-1.66,47.38-9,83-4.3,20.85-6.5,31.35-9,35-25.74,37.5-124.83,37-173-13C293,705.7,284.67,663.14,287.7,661.51Z"
          transform="translate(-0.02 -3.05)"/>
    <path class="cls-11"
          d="M276.7,675.51c1.88-3.2,16.36,2.08,19,3,7.18,2.51,29.06,8.58,165-16,16.14-2.92,24.54-4.58,35-10,12.5-6.48,22.25-15.39,25-13,1.78,1.55-.54,6.88-1,8-12.47,30.1,17.92,152,40,208,4.6,11.67,9.21,21.4,19,29,9.21,7.16,18.24,8.71,18,12-.38,5.24-23.78,7.52-29,8-60.69,5.63-91,8.44-103,6-59.35-12.12-79.84-68-158-173-1.93-2.6-17.14-23-21-37-1.3-4.72-1.78-10.4-6-18C277.68,678.86,275.93,676.82,276.7,675.51Z"
          transform="translate(-0.02 -3.05)"/>
    <path class="cls-12"
          d="M328.7,690.51c-5-7.31-4-14-4-14,.13-.91.9-6.1,5-9a12.84,12.84,0,0,1,8-2c12.62.42,41.4-2.68,57-6,18.44-3.92,27.66-5.89,28-6,2.45-.84,8.4-3,15-1a15.91,15.91,0,0,1,6,3c6.37,5.3,6.1,14.69,6,18a33.66,33.66,0,0,1-1,7C443.3,699.31,342.67,711,328.7,690.51Z"
          transform="translate(-0.02 -3.05)"/>
    <path class="cls-13"
          d="M266.88,699.68,512.1,662.94a10.57,10.57,0,0,1,11.85,8l61,255.25a10.57,10.57,0,0,1-7.82,12.74q-.49.12-1,.19L347.61,971.25A10.57,10.57,0,0,1,336,963.91L258.35,713.27a10.57,10.57,0,0,1,8.53-13.59Z"
          transform="translate(-0.02 -3.05)"/>
    <path class="cls-2"
          d="M275.7,785.51c2.56,1.1,0,6.87,4,12,6.13,7.83,21,5.79,33,4,16.15-2.41,29.61-7.31,45-13,8.71-3.22,15.83-6.18,27-8,14.9-2.43,20.58-.17,23,1,10,4.85,13.58,14.76,14,16,3.13,9.24.24,17.46-1,21-7.51,21.37-38.14,37.18-60,47-48.43,21.76-46.73,11-111,34-19.87,7.11-37.18,14.28-47,6-9.6-8.09-6.2-26-6-27,3.56-17.58,17.41-20.6,38-42C259.52,810.71,270.15,783.13,275.7,785.51Z"
          transform="translate(-0.02 -3.05)"/>
    <path class="cls-2"
          d="M343.7,839.51c12.69-9.88,34.89-30.29,65-32,9.71-.55,17.72,1,24,6,10.61,8.47,13.38,24.53,10,36-3.32,11.26-13,19.44-40,31-36.83,15.74-71.57,30.58-121,26-24.24-2.25-65.89-10.45-66-21C215.55,871.9,284.81,885.36,343.7,839.51Z"
          transform="translate(-0.02 -3.05)"/>
    <path class="cls-2"
          d="M205.7,898.51c-.11,9.66,10.62,18.85,12,20,8.5,7.12,18.73,8.5,34,9a360.92,360.92,0,0,0,50-2c43.64-4.22,51.42-1.93,78-8,11.89-2.72,26.57-6.88,38-19a44.53,44.53,0,0,0,10-16c3.23-9.44,3.19-20.68,0-27-6.94-13.73-34-14.49-68-11C306,850,206,869.2,205.7,898.51Z"
          transform="translate(-0.02 -3.05)"/>
    <path class="cls-5"
          d="M234.7,938.51c5.19,7.8,2.51,18.88,2,21-2.85,11.8-11.42,18.15-14,20-16.82,12.07-47.27,11.15-56-5-5.16-9.56-1.52-22.22,4-30C185.53,923.59,224.45,923.09,234.7,938.51Z"
          transform="translate(-0.02 -3.05)"/>
    <path class="cls-6"
          d="M152.7,849.51c10.92-3.51,20.54,6.21,40,0,8.12-2.59,19.88-9,19-5-2,9-4,14.81-3,30,1.13,16.83,10.44,33.81,23,43,15.81,11.57,26,10,37,10-14,11-46,38-88,55-29.5,11.94-43.95-39.85-46-45C120.33,901.42,133,855.83,152.7,849.51Z"
          transform="translate(-0.02 -3.05)"/>
    <path class="cls-4"
          d="M17.2,838c-3,9-4.65,16.28-8.5,29.5-2.06,7.09-13,44.82,8,82,15.44,27.28,39.43,38.89,50,44a121.47,121.47,0,0,0,46,12c11,.56,18.13-.66,44-6,72.41-15,72-25,72-25s-4.91,7.31-16,5c-22.38-4.65-36-19.77-38-22a69.73,69.73,0,0,1-15-29c-1.26-4.73-8.43-31.58,5-54,13.72-22.9,29-27,40-30a119.69,119.69,0,0,1-24-2,242.42,242.42,0,0,1-36-9,250.13,250.13,0,0,0-33.12-8.07"
          transform="translate(-0.02 -3.05)"/>
    <path class="cls-7"
          d="M92.7,814.51a97.3,97.3,0,0,1,44,3c21.18,6.7,36.07,20.16,39,17,2.15-2.32-4.2-11.42-6-14-5.78-8.28-17.87-22.18-42-32"
          transform="translate(-0.02 -3.05)"/>
    <path class="cls-7" d="M45.7,861.51a85.77,85.77,0,0,1,30-21,87,87,0,0,1,49-5" transform="translate(-0.02 -3.05)"/>
    <path class="cls-7" d="M97.7,845.51a66.9,66.9,0,0,0-21,7c-17.21,9.17-25.71,23.54-29,30"
          transform="translate(-0.02 -3.05)"/>
    <path class="cls-7" d="M81.7,712.51a23.93,23.93,0,0,0,7,8c2.77,2,8.51,5.1,21,4,20.83-1.83,41.92-13.77,49-18"
          transform="translate(-0.02 -3.05)"/>
    <path class="cls-7" d="M81.7,706.51a28.66,28.66,0,0,0,13,8c9.12,2.53,17-.61,23-3a53.54,53.54,0,0,0,16-10"
          transform="translate(-0.02 -3.05)"/>
    <path class="cls-7" d="M208.7,1002.51a46.15,46.15,0,0,0,10,11c8.89,7,18,8.76,25,10a80.89,80.89,0,0,0,36-2"
          transform="translate(-0.02 -3.05)"/>
    <path class="cls-14"
          d="M379.7,1045.51c-6.3,2.56-7,10.49-7,11-.29,4.25,1.34,10.45,7,13a12.25,12.25,0,0,0,14-3c4-4.5,3.47-10.85,1-15C391.79,1046.62,385.28,1043.24,379.7,1045.51Z"
          transform="translate(-0.02 -3.05)"/>
    <path class="cls-7" d="M277.7,1233.51c-1.86,7-5.14,20.51-7,32,0,0-2,12.11-3,26-1.44,19.35-1.83,61.54,0,108"
          transform="translate(-0.02 -3.05)"/>
    <path class="cls-7" d="M261.7,1232.51a154.29,154.29,0,0,0-2,18c-.74,14.4.7,26,2,36,.71,5.45,1.45,9.94,2,13"
          transform="translate(-0.02 -3.05)"/>
    <path class="cls-7" d="M325.7,1280.51a51.15,51.15,0,0,1-7,12,52.22,52.22,0,0,1-19,15"
          transform="translate(-0.02 -3.05)"/>
    <path class="cls-7" d="M477.7,1117.51c.11,17.2.07,31.54,0,42-.16,23.08-.25,34.92-1,50-.82,16.48-2,30-3,39"
          transform="translate(-0.02 -3.05)"/>
    <path class="cls-7" d="M509.7,1284.51c-12.06,7.14-24.44,15.11-37,24q-5.63,4-11,8"
          transform="translate(-0.02 -3.05)"/>
    <path class="cls-7" d="M465.7,1323.51a149.73,149.73,0,0,0,55-19" transform="translate(-0.02 -3.05)"/>
    <path class="cls-7"
          d="M579.7,1250.51a137.51,137.51,0,0,1-29,25c-23.78,15.24-46.65,19.24-46,22,.56,2.41,18.15.43,22,0a137.31,137.31,0,0,0,17-3"
          transform="translate(-0.02 -3.05)"/>
    <path class="cls-7" d="M474.7,1337.51l14,15" transform="translate(-0.02 -3.05)"/>
    <path class="cls-7" d="M460.7,1326.51q-3.67,14.46-7,30c-2.72,12.74-6,31.09-8,43"
          transform="translate(-0.02 -3.05)"/>
    <path class="cls-7" d="M522.7,1195.51c-4.93,8.27-10.56,17-17,26-5.72,8-11.44,15.33-17,22"
          transform="translate(-0.02 -3.05)"/>
    <path class="cls-7" d="M394.7,1249.51c.67-9,2-25,2-34" transform="translate(-0.02 -3.05)"/>
    <path class="cls-7" d="M413.7,1203.51c3.07,6.19,6.1,12.86,9,20a296.62,296.62,0,0,1,12,36"
          transform="translate(-0.02 -3.05)"/>
    <path class="cls-2"
          d="M305.7,59.51c.75-2.88,13.46,1.28,35-5,9.37-2.73,17.57-6.6,29-12,16-7.56,14.35-8.17,22-11a88.39,88.39,0,0,1,40-5c7.27.83,15.66,1.78,25,7,16.65,9.3,23.38,24.91,26,31a76.24,76.24,0,0,1,6,29c.42,13.54-2.5,23.93-7,40-2.47,8.81-2.32,5.94-7,21-1.41,4.52-2.39,7.9-5,12-1.58,2.48-6.62,10.4-11,10-6.66-.6-9.68-20.18-11-26C435.22,95.28,303.31,68.64,305.7,59.51Z"
          transform="translate(-0.02 -3.05)"/>
    <path class="cls-15"
          d="M64.7,354.51c.35-.25,2.16,2.64,6,5a22.94,22.94,0,0,0,15,3c7.08-1.2,11.38-6,14-9,4.12-4.72,7.8-11.48,10-27a138.09,138.09,0,0,0,1-30s-2.31-29.65-2-60c.16-16,.37-36.68,8-60,9.64-29.49,26.33-48.46,34-57,32.66-36.38,71.69-48.75,89-54a213,213,0,0,1,82-8c11.81,1.17,31,3.22,54,13a162.53,162.53,0,0,1,51,34c16.68,16.82,25.09,33.24,31,45,10.26,20.43,14.39,37.27,18,52,4.91,20,9.67,39.43,10,64,.11,8.38,2.08,18.59,6,39a30.09,30.09,0,0,0,7,15,23,23,0,0,0,11,7c2.15.59,6.55,1.79,11,0,6-2.41,7.76-8.49,9-8s.35,7-2,14c-2.73,8.13-6.31,18.82-16,25-8.51,5.43-17.07,4.4-17,6,.06,1.44,7,3.52,14,2,9-2,13.69-9,15-8,1.15.88-1.31,7.18-6,14-5.45,7.92-11.7,13.32-30,26-16.23,11.24-16.66,10.7-23,16a171,171,0,0,0-20,20c-11,12.91-10.36,15.81-19,24-4,3.78-10.31,9.77-20,14-13.75,6-26.42,5-38,4-13.7-1.21-15.22-3.51-33-7-3.91-.77-10.43-2-46-5-39.42-3.38-36.8-2.39-47-4a290.77,290.77,0,0,1-48-12c-19.93-6.51-27.81-11.07-31-13-14.16-8.59-25-19.53-24-21,.53-.77,3.85,1.83,11,3a31.59,31.59,0,0,0,16-1c4.69-1.66,10.53-5.22,10-7-.65-2.15-10.14,0-22,0a103.23,103.23,0,0,1-34-6c-6-2.06-27.76-9.84-44-30C69.14,364.36,64.09,355,64.7,354.51Z"
          transform="translate(-0.02 -3.05)"/>
    <path class="cls-16"
          d="M144.7,225.51c-1.14,17.31-.25,20.13-2,46-.76,11.3-3.17,25.53-8,54-1.12,6.62-2.7,15.32-9,24-2.31,3.18-6.9,9.5-15,13-12.47,5.39-23.87,0-25,3s10,9.77,12,11c8,4.86,19,10.16,40,15,16.8,3.87,25.19,5.81,33,4,13.34-3.08,20.75-11.73,24-9s-2.12,14.18-3,16c-1.6,3.31-6.11,12.66-16,17-8.47,3.72-15.7,1.51-16,3-.52,2.64,22.15,9.18,25,10,20.54,5.88,34.34,9.82,54,11,15.26.91,14.66-1,33,0a232.17,232.17,0,0,1,39,5c21.7,4.81,23.71,9,48,14,17.67,3.63,25.09,3.15,31,2a66.06,66.06,0,0,0,25-11c4.66-3.33,8.84-7.93,17-17,15.13-16.81,13.88-17.67,21-24,6.82-6.06,13.12-9.85,25-17a235.24,235.24,0,0,0,21-14c7.44-5.57,10.64-8.7,10-10-.73-1.47-5.47,1.17-13,0a26.83,26.83,0,0,1-14-7c-2.61-2.55-6.22-7.26-5-9,1.09-1.56,4.94.82,11,1,8.32.24,14.67-3.85,18-6,7.44-4.79,14.73-13.15,13-16-1-1.72-4.45.09-10-1-7.58-1.48-12.41-7-15-10-8.49-9.75-9.62-22-10-26-3-31.61-9-71.41-13-91-6.37-31.06-15.89-50.73-18-55-5.67-11.48-13.65-27.64-29-43-22.12-22.13-46.66-29.71-67-36-19-5.86-49.83-15-89-8-13.15,2.35-39.05,7.29-65,27-32.83,24.93-44.69,57.51-48,67C147.82,178.21,146.66,195.88,144.7,225.51Z"
          transform="translate(-0.02 -3.05)"/>
    <path class="cls-17"
          d="M247.7,285.51a49.38,49.38,0,0,0-2,17c.21,4,1.14,17.81,11,29,11.34,12.86,27.42,14.26,36,15,19,1.64,33.24-5.26,41-9,9.44-4.56,18.69-9,26-19,6.63-9.06,7.13-16.47,12-17,5.54-.61,10.65,8.36,15,16,3.37,5.92,7.31,13.06,5,20-1,3-2.57,4.29-2,5,1.69,2.08,13.84-11.53,31-12,7-.19,11.81,1.87,14-1s-.44-8.76-2-12a53,53,0,0,0-16-19,82.62,82.62,0,0,0,19,14c5,2.63,9.2,4.79,15,5,1.67.06,10.85.4,18-6,8.18-7.32,8.06-18.38,8-24-.09-8.66-2.8-14.78-6-22-5.3-12-11.81-19.74-18-27-7.49-8.79-12.36-14.39-21-19-5.34-2.85-11.2-5.87-19-5-1.42.16-10.64,1.34-17,9-1.4,1.69-4.8,6.28-6,20-1.51,17.35,2.21,29.69,1,30s-3.23-11.93-12-25c-3.91-5.82-9.92-14.8-21-20-13.39-6.29-26.51-3.48-33-2-6.81,1.55-11.79,3.87-35,20C256.69,269.45,250.74,275.91,247.7,285.51Z"
          transform="translate(-0.02 -3.05)"/>
    <path class="cls-2"
          d="M265.7,286.51a31.64,31.64,0,0,0-2,16c1.7,12.65,10.69,20.19,13,22,12.38,9.71,27.77,7.56,39,6,6.46-.9,15.94-2.33,26-9a50.57,50.57,0,0,0,18-20c3.37-6.93,4-12.63,5-21,1.06-9.19,2-17.28-1-27-1.83-5.92-4.25-13.77-12-19-9.34-6.31-19.67-4.28-21-4-5.43,1.15-8.09,3.56-20,14-8.35,7.32-16.46,14.91-25,22C273.13,276.94,268.73,279.11,265.7,286.51Z"
          transform="translate(-0.02 -3.05)"/>
    <path class="cls-16"
          d="M315.7,290.51c-.3-4.64,3.07-8,7-12,2.84-2.86,7.21-7.27,14-8,2.06-.22,6.38-.69,10,2,4.52,3.35,4.85,9.31,5,12a19.2,19.2,0,0,1-2,10,18,18,0,0,1-10,9c-7.15,2.41-13.31-1-15-2C322.64,300.35,316.09,296.67,315.7,290.51Z"
          transform="translate(-0.02 -3.05)"/>
    <path class="cls-2"
          d="M395.7,242.51a57.46,57.46,0,0,0,1,23,55.26,55.26,0,0,0,33,39c7.19,3.22,12,5.38,18,4,7.4-1.71,11.67-7.72,14-11a30.46,30.46,0,0,0,6-17c.13-7.14-2.68-12-8-21-4.45-7.51-4.9-6.11-18-23-6.69-8.62-9.16-12.33-15-15a21,21,0,0,0-13-2c-7.47,1.46-11.64,7.14-13,9C397.29,233.16,396.49,237.68,395.7,242.51Z"
          transform="translate(-0.02 -3.05)"/>
    <path class="cls-16"
          d="M418.7,274.51c-.14-5.58,3.67-9.57,6-12s4.5-4.71,8-5c5-.41,9.13,3.66,11,7,2.68,4.77,1.55,9.64,1,12-.51,2.19-1.41,6.08-5,9a12.6,12.6,0,0,1-8,3C425,288.33,418.87,281.38,418.7,274.51Z"
          transform="translate(-0.02 -3.05)"/>
    <path class="cls-18"
          d="M426.7,390.51c.11,1.44-3,2-10,7-5.81,4.18-8.75,6.35-10,10-.73,2.13-.53,3.49-2,8a40.78,40.78,0,0,1-1.49,4.16,69,69,0,0,0-3.51-9.16,65,65,0,0,0-10-16,93,93,0,0,0-8.42-9.34c8.49-.37,17.17.07,22.42.34C404.9,385.57,426.42,386.73,426.7,390.51Z"
          transform="translate(-0.02 -3.05)"/>
    <path class="cls-19"
          d="M403.21,419.67a3.71,3.71,0,0,1-.51.84c-3.9,4.64-16.13.35-20-1-4.88-1.71-11.78-4.22-18-11-4.26-4.65-9.42-10.27-8-15,1.77-5.9,13-7.86,24.58-8.34a93,93,0,0,1,8.42,9.34,65,65,0,0,1,10,16A69,69,0,0,1,403.21,419.67Z"
          transform="translate(-0.02 -3.05)"/>
    <path class="cls-7"
          d="M381.28,385.17c-11.58.48-22.81,2.44-24.58,8.34-1.42,4.73,3.74,10.35,8,15,6.22,6.78,13.12,9.29,18,11,3.87,1.35,16.1,5.64,20,1a3.71,3.71,0,0,0,.51-.84,40.78,40.78,0,0,0,1.49-4.16c1.47-4.51,1.27-5.87,2-8,1.25-3.65,4.19-5.82,10-10,7-5,10.11-5.56,10-7-.28-3.78-21.8-4.94-23-5C398.45,385.24,389.77,384.8,381.28,385.17Z"
          transform="translate(-0.02 -3.05)"/>
    <path class="cls-7" d="M381.28,385.17a93,93,0,0,1,8.42,9.34,65,65,0,0,1,10,16,69,69,0,0,1,3.51,9.16"
          transform="translate(-0.02 -3.05)"/>
    <path class="cls-7" d="M408.7,425.51a10.89,10.89,0,0,1,0,18" transform="translate(-0.02 -3.05)"/>
    <path class="cls-2"
          d="M145.7,245.51a14.27,14.27,0,0,0,6-6c4.7-8,4.13-17.38,4-20-.56-11,2.25-22,3-33,2-29.18,22.25-57.27,41-73a136.22,136.22,0,0,1,33-20,189.93,189.93,0,0,1,20-7c11-2.93,16.74-3,17-5,.3-2.41-7.48-4.81-23-11-17-6.77-14.37-6.58-26-11-12.73-4.84-24.49-9.32-39-12-16.23-3-29.17-5.39-45-1-24.09,6.69-37.51,24.28-41,29-9.07,12.26-12.1,23.87-15,35a133.36,133.36,0,0,0-4,41c.83,14.64,1.74,30.82,12,46,4.39,6.49,4.62,4.12,14,16,5.11,6.47,12,16,22,26,2.18,2.18,6.09,6,12,7A14.38,14.38,0,0,0,145.7,245.51Z"
          transform="translate(-0.02 -3.05)"/>
    <path class="cls-20"
          d="M406.7,387.51a24.08,24.08,0,0,0,9,6c1.81.68,7.11,2.67,13,1,7.11-2,10.7-8.11,13-12,4.53-7.69,4.85-15.11,5-20a52.22,52.22,0,0,0-3-19"
          transform="translate(-0.02 -3.05)"/>
    <path class="cls-20"
          d="M415.7,351.51a75.5,75.5,0,0,1-1,16c-.93,5.41-1.82,10.35-5,16a35.27,35.27,0,0,1-6,8c-6.77,6.69-14.7,8.54-21,10-5.69,1.32-12.45,2.9-21,1a33.38,33.38,0,0,1-15-7c-1.78-1.51-8.82-7.48-11-17-.7-3.06-.7-5.64-2-6-1.87-.53-4.8,4-7,8"
          transform="translate(-0.02 -3.05)"/>
    <path class="cls-2"
          d="M386.7,337.51c-1.34,1.61-3.13,7.11-1,12,.31.7,1.63,3.53,6,6,10.66,6,23.68,1,39-5a13.89,13.89,0,0,0,6-4c3.5-4.2,3.18-9.78,3-13-.15-2.68-2.16-7.72-6-9C421.7,320.51,396.7,325.51,386.7,337.51Z"
          transform="translate(-0.02 -3.05)"/>
    <path class="cls-16"
          d="M396.7,343.51c-1.45-2.51,5.85-10,13-14,2.7-1.52,12.35-7,20-3,2.28,1.18,5.39,3.72,5,6-.44,2.54-5,3.55-11,5C401.87,342.81,397.71,345.24,396.7,343.51Z"
          transform="translate(-0.02 -3.05)"/>
    <path class="cls-7" d="M386.2,513c2.84,3.34,11,15.65,14,21,3.52,6.35,7.66,20.26,9,25"
          transform="translate(-0.02 -3.05)"/>
    <path class="cls-7" d="M155.2,547a98,98,0,0,1,68,53" transform="translate(-0.02 -3.05)"/>
    <path class="cls-21"
          d="M296.2,478c1.1-1.57,4.07.73,14,1,6.46.18,7.82-.73,18-1,11.52-.31,13.3.75,14,2,1,1.83-.78,3.13-2,9-1.06,5.12-.07,6-1,13-.79,5.94-1.18,8.92-3,10-2.78,1.66-7.53-1.1-14-6C311.53,497.94,293.41,482,296.2,478Z"
          transform="translate(-0.02 -3.05)"/>
    <path class="cls-21"
          d="M352.2,532c-.1-3.2,3.89-3.45,7-9,5.56-9.91-.75-20.57,2-22,3.25-1.69,13.61,12.44,22,24,15.74,21.67,14.63,24.23,14,25s-2.52,1.38-18-4C353.4,537,352.25,533.64,352.2,532Z"
          transform="translate(-0.02 -3.05)"/>
    <path class="cls-21"
          d="M405.2,522c-1.42,2.38,5.14,6.17,7,15,1.25,5.92-.69,9,1,10,2.8,1.73,11.57-4.5,16-13,3.29-6.31,3.23-12,3-22-.29-13-2.82-25.1-4-25-.8.07-.07,5.68-2,15-1.72,8.34-3.37,16.3-9,19C411.91,523.54,406.52,519.79,405.2,522Z"
          transform="translate(-0.02 -3.05)"/>
    <path class="cls-21"
          d="M366.2,580c3.27-3.28,10.64,4.4,29,6a74.16,74.16,0,0,0,28-3c8.06-2.49,18.57-5.73,26-15s6.28-17.62,10-18c1.8-.18,4.61,1.51,16,29,14.45,34.87,9.72,31.63,15,39,2.24,3.13,6.72,8.78,5,14-.62,1.89-2,3.57-6,6-2.06,1.26-11.16,6.59-30,8a69.93,69.93,0,0,1-14,0c-7.35-.81-8.39-2.23-14-3-1.87-.26-5.54-.62-24,3-13.72,2.69-16.17,3.78-19,2-5-3.13-4.27-10.83-5-19C380.58,599.92,361.27,585,366.2,580Z"
          transform="translate(-0.02 -3.05)"/>
    <path class="cls-22"
          d="M221.2,480c-2.31,4.08,10.17,10.86,22,32,6.73,12,12.09,21.62,10,33-1.2,6.5-4.26,10.52-2,14,2.46,3.79,8.12,2.11,19,3,9.39.76,18.59,4.18,37,11,10.32,3.83,12.61,5.29,14,8,1.91,3.71,1.78,9.08-5,22-12,22.94-24.62,30.79-22,36,2.11,4.2,10.4-.73,25,5,8.67,3.41,9.54,6.64,19,9,1.86.46,6.57,1,16,2,10.28,1.12,11.85,1.08,13,0,3.82-3.57-1.18-14.56-4-21-16.45-37.57-8.63-34-22-59-8.88-16.59-17.37-27.56-27-40-11.21-14.48-17.29-22.23-28-31a117.4,117.4,0,0,0-38-21C243.7,481.54,224,475.13,221.2,480Z"
          transform="translate(-0.02 -3.05)"/>
    <path class="cls-22"
          d="M452.2,480c-3.22,2.54,9.76,21,28,57,16.91,33.4,25.36,50.1,26,59,.33,4.65.61,18.11,8,24a29.41,29.41,0,0,1,11,15,78.46,78.46,0,0,1,4,18c.84,8,2.17,16,3,24,2.06,19.86,7.17,41.2,9,41,1.65-.18,1-17.92,0-46-1.39-38.68-3-38.56-1-48,1.26-5.83,3.25-12.12,1-20-2-6.85-6-11.06-13-18-11.56-11.48-16.89-17.67-26-25-9.47-7.62-16.58-12-16-18,.2-2,1.17-3.4,3-6,5.8-8.26,11.59-7.83,13-12,1.84-5.44-5.83-12.59-17-23a141.69,141.69,0,0,0-18-14C458.09,482,453.54,479,452.2,480Z"
          transform="translate(-0.02 -3.05)"/>
    <path class="cls-22"
          d="M144.2,536c.55,2.7,11.7-.32,26,3,19.83,4.61,32.4,18.34,44,31a163.46,163.46,0,0,1,28,43c15.08,33.19,16.22,62.36,20,62,1.3-.12,1.52-3.62,4-15s4.42-20.25,7-27c7.54-19.7,21.1-22.7,19-30-1-3.49-12.35-7-35-14-16.88-5.18-21.86-6.71-26-12-3-3.86-2.67-6-6-22-5.39-25.88-8.58-31.19-12-35-2.12-2.36-7.3-8.15-15-9-7-.77-11.59,3-20,8C157.28,531.42,143.6,533.06,144.2,536Z"
          transform="translate(-0.02 -3.05)"/>
    <path class="cls-22"
          d="M107.2,573c5.15-6.76,13.67-8.19,19-9,17.8-2.72,32.51,4.6,43,10a133.4,133.4,0,0,1,40,32c7,8,14,21,28,47,2.86,5.31,5.2,9.85,5,16-.41,12.59-11.14,21.49-19,28-12.67,10.5-25.14,14.53-39,19-11.61,3.75-24.41,6.62-25,5s12.25-5.27,25-17c11.08-10.19,19.6-24.2,17-27-1-1.09-3.91-.73-43,19-6.05,3-14.2,7.2-15,6-1.2-1.79,15.43-13.68,14-16-1-1.69-10.48,3.63-27,8-22.42,5.94-28.24,2.29-30,1-5.13-3.75-6.53-9.93-7-12-1.86-8.2,1.49-13.82,5-24,1.78-5.16,6.61-19.49,7-35,.28-11.12-2-11.87-2-29C103.21,580.13,104.93,576,107.2,573Z"
          transform="translate(-0.02 -3.05)"/>
    <path class="cls-22"
          d="M82.2,728c4.23-1.1,7.22,4.82,14,9s14.7,5,30,3c35.57-4.53,56.73-16.73,59-13,1.73,2.83-7.89,14.12-21,21-19.56,10.26-38.51,6.3-39,10-.4,3,12.42,4.27,26,14,16.55,11.86,24.73,29.51,23,31-1.41,1.21-7.94-9.58-24-17-16.31-7.53-31.68-6.62-42-6-3.3.2-13.79.82-14,3s8.83,3.51,20,8c18.51,7.44,31.73,18.66,31,20-.6,1.09-9.9-5.44-26-8-5.63-.89-16.51-2.51-29,1-16.35,4.59-29.3,16.25-28,19,.64,1.35,4.4-.08,17-1,6.82-.5,18.85-1,19,0s-14.9,1.38-30,8c-27.42,12-37.55,37.45-42,35-3.54-1.94,2-18.49,5-26,3.43-8.52,8.18-20.33,19-29,16.83-13.48,37.13-10.4,37-13-.11-2.17-14.34-5.7-28-1-8.34,2.87-13.39,7.74-14,7-.88-1.07,9.74-11,23-28,6.13-7.86,8.9-12.21,9-18,.09-5.54-2.35-7.41-2-14C75.48,737.65,77.61,729.2,82.2,728Z"
          transform="translate(-0.02 -3.05)"/>
    <path class="cls-22"
          d="M37.2,871c-1.13-.25-4.55,7.93-6,17-2.36,14.76.82,29.81,4,30,2,.12,2.41-5.93,9-15,.57-.78,8.29-11.32,11-10,2.07,1-1,7.85-1,20,0,8.69,0,16.51,5,21,2.42,2.2,5.8,3.39,20,3,11.73-.32,17.45-1.35,25-2,24.63-2.1,37.29,2.61,40-3,1-2.07-.41-3.36-2-9a56.62,56.62,0,0,1,0-30c2.75-9.58,8.22-15.67,13-21,11.63-13,23.11-16.82,22-20-.72-2.07-5.91-1.33-15-2-13.53-1-18.37-3.86-26-5-15.15-2.27-33.06,3.45-44,13-19.54,17-17,46.4-23,46-3.15-.21-5.94-8.39-6-15-.08-9.46,5.46-14.75,4-16-2-1.75-15.12,6.59-24,20-4.28,6.47-5.73,11.31-7,11C33,903.21,39.38,871.49,37.2,871Z"
          transform="translate(-0.02 -3.05)"/>
    <path class="cls-21"
          d="M187.2,860c4.27-4.22,10.44-8.35,12-7,1.29,1.11-2.07,4.6-3,11-1.62,11.11,6.1,16.88,3,22-2.23,3.69-6.73,1.49-14,5-11.51,5.55-14.1,17.74-16,17-2.3-.9,2.5-18.38,8-32C179.23,871,181.83,865.31,187.2,860Z"
          transform="translate(-0.02 -3.05)"/>
    <path class="cls-22"
          d="M194.2,1191c20.7,9.5,31.05,14.26,33,15,24.24,9.26,36.36,13.89,45,16a227.78,227.78,0,0,0,46,6c21.94.66,32.83-2.14,36-3,7-1.92,15.43-4.3,24-11,2.87-2.24,10.46-8.64,17-22,7-14.28,7.26-25.23,9-50,3-42.79,5.94-63.7,1-65-2.17-.57-3.12,3.37-9,6-7.72,3.46-19.63,2.73-28-5-7.67-7.09-10.78-18.61-7-28,3.63-9,12.24-12.69,13-13,11.72-4.79,20.82,3.22,26-2,3.45-3.48,3.32-11,0-14-3.76-3.44-10.88-.46-23,4-19.85,7.3-35.21,12.94-50,16-20.43,4.22-22.29-.12-32,5-12.87,6.78-16.6,18.06-26,36-7.18,13.71-19.88,37.95-38,57-25.12,26.42-52.67,34.45-50,44C181.84,1185.29,183.8,1186.23,194.2,1191Z"
          transform="translate(-0.02 -3.05)"/>
    <path class="cls-22"
          d="M567.2,663c.34,6.19,1.54,28.21,2,48,.42,18.1.25,34.52,0,57-.22,20.4-.46,21.58,0,28,1.79,25.13,6.6,23.87,7,44,.19,9.48-.71,18.43,5,27a50.37,50.37,0,0,0,7,8c6,5.7,11.57,11,15,10,9.06-2.64,4.78-49.64-3-77-5.25-18.44-10-29-10-29-3.77-8.38-5.23-9.73-7-16-1.55-5.47-4.68-17.12,0-29,2-5,3.24-4.79,5-9,4.93-11.79-.43-24.52-3-31-13.93-35.11-16.2-63.61-19-63C564.88,631.29,565.78,637.55,567.2,663Z"
          transform="translate(-0.02 -3.05)"/>
    <path class="cls-22"
          d="M593.2,911c-2.53,5.69,5,9.86,4,19-.77,7-6.06,12.16-9,15-7,6.79-10.9,4.89-14,10-2.94,4.85-.86,8.91,0,22,.3,4.56,0,3.28,0,19,0,73.17,6.58,82.78,0,113-1.63,7.48-5.56,23.12-3,42,.56,4.14,2.12,13.51,9,22,3,3.65,7.12,8.79,13,9,3.53.13,7.73-2.91,16-9,5.2-3.83,7.83-5.79,9-8,3.61-6.81.1-15.2-1-18-.6-1.54-2.74-20.69-7-59-.82-7.36-.88-24.91-1-60-.14-39.77-.2-59.65,0-62,1.44-16.61-2.85-33.43-1-50,.25-2.23,1-8-2-10C602.89,903.73,595.3,906.28,593.2,911Z"
          transform="translate(-0.02 -3.05)"/>
    <path class="cls-22"
          d="M550.2,530c.91-.58,8.69,11.36,25,32,11,13.87,17.23,21.81,27,32,8.8,9.18,8.48,7.71,27,26,12.06,11.92,13,13.35,18,17,4.63,3.39,8.48,5.57,8,7-.54,1.63-6.21.72-17,0-12.56-.83-24-.87-24-1s12.92-1.2,22-2c2.58-.23,5.53-.51,6-2,.65-2.09-3.94-5.48-6-7a21.93,21.93,0,0,0-5-3c-4.15-1.69-7.36-1.11-12-1a81.1,81.1,0,0,1-13-1c-9.79-1.54-18.31-5.85-18-7,.15-.56,2.32-.14,9,0,7.88.16,13.71.28,14-1,.35-1.56-7.71-4.71-11-6-8.68-3.39-10.92-2.82-14-5-6.38-4.53-6.69-14.07-7-18C576.85,560.68,548.68,531,550.2,530Z"
          transform="translate(-0.02 -3.05)"/>
    <path class="cls-22"
          d="M600.2,674c.54-1.3,5.58,1,14,1a55.4,55.4,0,0,0,20-4c5.58-2.17,8.72-4.42,9-4,.47.7-8.73,6-17,15-12.16,13.31-14.85,26.67-17,26-1.47-.46-1.78-7.24,1-13,3.61-7.48,10.8-9.85,10-12-.7-1.88-6.14.11-13-3C603.32,678.24,599.71,675.18,600.2,674Z"
          transform="translate(-0.02 -3.05)"/>
    <path class="cls-22"
          d="M624.2,721c-.32-2.24-.51-7.16,6-17,7.71-11.66,18-19.91,19-19,.69.64-3.66,5.45-12,20-4.18,7.3-5.43,10.18-6,14-1.1,7.43,1.28,12.5,0,13S625.09,727.35,624.2,721Z"
          transform="translate(-0.02 -3.05)"/>
    <path class="cls-22"
          d="M668.2,674c-.58-1.32,6-6,13-9a58.28,58.28,0,0,1,17-4c13.85-1.4,16.35,2,25-1,6.15-2.11,9.41-5.36,11-4s-.89,5.27-2,13a51.87,51.87,0,0,0,0,14c1.86,11.93,8.9,16,7,20-1.75,3.65-9,2.83-17,3-5.26.11-41.35,1.28-52,19-5.09,8.46-2.62,17.77-5,18s-6.2-9.58-7-19a51.88,51.88,0,0,1,7-30c9.58-15.54,25.1-20.73,24-23C688,668.46,669.13,676.12,668.2,674Z"
          transform="translate(-0.02 -3.05)"/>
    <path class="cls-21"
          d="M445.2,1016c-.07-2.82,14.27-4.29,39-11,16.46-4.47,24.7-6.71,32-11,15.91-9.35,20.72-20.09,26-18,3.22,1.27,4.19,9.53,6,26,1.23,11.23,1.83,17,1,22a51,51,0,0,1-11,24c-6.15,7.18-14,11.59-33,17-32.32,9.22-61.81,11.36-62,10-.14-1,16-1.9,40-11,24.54-9.31,34.48-18.57,37-21,11.61-11.18,15.64-21.86,17-26,2.84-8.66,4.67-21.32,1-23-2.91-1.33-7,5.28-18,15-11.46,10.09-21.66,15.79-31,21-10,5.57-18.14,10.06-30,13s-22.78,3.14-23,2,9-3.12,23-10c8.63-4.23,13.21-6.53,13-9C471.7,1020.2,445.29,1019.83,445.2,1016Z"
          transform="translate(-0.02 -3.05)"/>
    <path class="cls-21"
          d="M476.2,1092c0-.85,14.26,1.75,32-5,5.54-2.11,12.88-4.9,21-11,6.78-5.1,12.36-11.18,14-10,1.35,1-2.06,5.45,0,10,1.77,3.91,5.9,4.14,6,6,.14,2.5-7.08,6.16-23,9C499.22,1095.81,476.18,1093.08,476.2,1092Z"
          transform="translate(-0.02 -3.05)"/>
    <path class="cls-23"
          d="M266.2,780c-5-3.44-18.91,9.12-21,11a79.13,79.13,0,0,0-15,19c-3.3,5.67-3.17,6.81-11,27-6.21,16-7.53,18.48-6,21,2.93,4.83,12.64,3.72,31,1,33.66-5,50.48-7.49,62-11,13.44-4.09,24.3-9.06,46-19,15.17-7,27.08-13.09,35-26,1.62-2.63,6.64-10.83,4-14s-12,1.09-35,10c0,0-11.17,4.33-39,14-21.57,7.5-30.52,9.91-41,7-2.12-.59-12.7-3.52-14-10-.71-3.53,1.92-5.21,4-12C267.65,793.28,269.91,782.56,266.2,780Z"
          transform="translate(-0.02 -3.05)"/>
    <path class="cls-23"
          d="M335.2,854c-.09-2.59,25.67,2,54-14,16-9,27.25-21.41,32-18,2.52,1.81,1.84,7.1,1,10-3.51,12.15-19.7,17-30,20C363.32,860.31,335.3,856.71,335.2,854Z"
          transform="translate(-0.02 -3.05)"/>
    <path class="cls-23"
          d="M364.2,888c.46-1.93,10.17,1,24-1,17.58-2.51,27.74-10.89,29-9,1.06,1.6-5.38,8.74-13,13a38.54,38.54,0,0,1-26,4C371.09,893.51,363.79,889.72,364.2,888Z"
          transform="translate(-0.02 -3.05)"/>
    <path class="cls-23"
          d="M768.2,594a72.56,72.56,0,0,1,7-14c8.29-12.87,18.56-19.77,25-24a96.51,96.51,0,0,1,26-12c14.65-4.25,22-2.53,24-2,3.72,1,11.81,3.1,13,8,1.6,6.6-10.22,14.48-26,25-22.74,15.16-20,8-45,23-5.43,3.25-12.45,7.72-18,5C770.59,601.24,769,597.1,768.2,594Z"
          transform="translate(-0.02 -3.05)"/>
    <path class="cls-23"
          d="M774.2,640c-3.91-3.64-3.2-11.12-1-16,1.92-4.27,5.09-6.77,19-14,12.55-6.52,18.82-9.79,25-12s5.35-1.39,30-7c18.13-4.13,24.5-5.92,30-2,.72.51,5.16,3.78,5,8-.19,5.25-7.4,9.17-22,15-34.72,13.86-35.81,8.37-49,17-7.27,4.75-14.9,11.63-27,13C779.62,642.52,776.38,642,774.2,640Z"
          transform="translate(-0.02 -3.05)"/>
    <path class="cls-23"
          d="M796.2,667c-1-4.43,21-13.36,25-15,1.9-.77,4.51-1.87,8.11-3,7.58-2.39,14.76-3.47,24.89-5,21.11-3.18,25.76-.6,28,2,.42.49,2.73,3.27,2,6-1.23,4.58-10.8,4.56-21,6-25,3.54-29.62,12.13-52,12C807.19,670,796.83,669.92,796.2,667Z"
          transform="translate(-0.02 -3.05)"/>
    <path class="cls-23"
          d="M739.2,607c-1.34-2.33,6-5.8,9-15,1.81-5.61-.18-6.64,1-17,.92-8,1.38-12.06,4-16,4.28-6.42,11.36-8.62,19-11,6.68-2.08,13.69-3,14-2s-7.87,2.75-16,10c-3.09,2.75-8,7.12-10,14-2.11,7.2,1.33,9,0,18-.41,2.78-2,13.5-10,18C746,608.37,740.27,608.88,739.2,607Z"
          transform="translate(-0.02 -3.05)"/>
    <path class="cls-24"
          d="M492.2,1142c3.93-2.5,6.25,1.17,17,0,14.7-1.6,20.11-9.53,24-7,6.76,4.4-4.18,32-5,34-1.21,3-5,12.09-21,35-12.12,17.37-18.33,26.18-21,25-2.94-1.3,2.37-13,4-33C492.7,1165.18,483.82,1147.34,492.2,1142Z"
          transform="translate(-0.02 -3.05)"/>
    <path class="cls-24"
          d="M484.2,1263c12.39-10.05,18.45-8.86,27-20a164.12,164.12,0,0,0,14-22c3.65-7.11,6-13.21,9-13,2.44.18,2.58,4.35,6,8,1.28,1.36,4.55,4.29,23,5,15.07.58,22.75.77,30-4,4.52-3,6.61-6.31,7-6,.87.69-9.1,17.34-23,32-20.43,21.53-45.16,34.33-47,32s16.62-18.08,15-20c-1.39-1.65-15.54,9.17-37,22-20,12-44.16,26.41-48,22C456.82,1295.12,468.44,1275.79,484.2,1263Z"
          transform="translate(-0.02 -3.05)"/>
    <path class="cls-24"
          d="M434.2,1135c4.35-2.18,7.24,2.5,18,1,8-1.11,10.17-4.2,13-3,5.89,2.5,3.58,19,2,36-3.36,36.27.48,33-4,72-2.19,19.06-4.54,39-8,39-1.34,0-2.19-2.95-8-26-8.19-32.49-9.13-37-14-43-1.73-2.12-4.48-5-6-10-2.36-7.69,0-14.54,1-18C435.7,1157.82,425.66,1139.29,434.2,1135Z"
          transform="translate(-0.02 -3.05)"/>
    <path class="cls-24"
          d="M508.2,1327c10-1.9,17-5.19,23-8a114.87,114.87,0,0,0,27-18c3.63-3.22,15.86-14.08,14-17-2.29-3.6-24.51,7.11-25,6-.39-.87,14-5.9,27-16,23.13-18,27.81-41.4,32-40,3.87,1.29,3.27,22.27-4,41-3.78,9.75-9.72,19.79-8,21,1.54,1.08,7-6.39,10-5s1,10.16,0,18c-1.83,14,.73,12.33,1,46,.15,19.62,1.81,31.5-1,32-34,6-87,5-105,7-6,.67,3.47-10.2,3-28-.31-11.57-2.78-16.77-4-19-4.8-8.77-12.45-12.27-12-13,1-1.59,35.82,17.33,36,17s-29.89-15.44-28-21C494.89,1328,499.28,1328.7,508.2,1327Z"
          transform="translate(-0.02 -3.05)"/>
    <path class="cls-24"
          d="M407.2,1238c-1.33.18-.41,8.46-2,23-.47,4.34-3.25,29.79-8,30-3.12.14-6.2-10.68-8-17-3.74-13.13-3-20.76-5-21-2.17-.27-6.19,8.5-7,18-1.07,12.59,4,21,2,22-2.31,1.22-10.66-9.45-15-15-8.27-10.57-10.39-15.52-13-15-3.1.62-2.53,8.09-6,19a82.89,82.89,0,0,1-13,24c-12.72,15.62-28,17.66-27,23,.89,4.65,13,5.91,14,6,11.2,1.08,18.32-4.24,19-3,1,1.73-11.07,15.28-25,15-3.19-.06-6-.85-8,1-3,2.77-.92,8.54,0,15,2.06,14.45-8,24.11-2,26,16,5,104,3,121,3,5.24,0,4.6-9.57,8-20,6.35-19.51,4-24.51,10-45,3.6-12.2,7.87-22,6-23s-7.15,9.72-13,9c-5.51-.67-8.22-11.15-12-25C409.8,1238.86,407.7,1237.94,407.2,1238Z"
          transform="translate(-0.02 -3.05)"/>
    <path class="cls-16"
          d="M337.2,674c0,.82,7.63,1.84,14,2a100.23,100.23,0,0,0,21.25-2c1.13-.21,2.41-.47,4.75-1,29.24-6.43,39-9,39-9,3-.92,9.51-3,13,0,1.31,1.12,2.3,3.06,5,4,.41.14,3,1,4,0,1.22-1.26,0-4.86-2-7-2.49-2.62-6.13-2.93-8-3-10.93-.44-22.64,4.44-24,5-13.54,5.59-25.25,6.82-46,9C346,673.29,337.22,673.13,337.2,674Z"
          transform="translate(-0.02 -3.05)"/>
    <polyline class="cls-25" points="265.18 704.95 511.18 669.45 576.18 924.95"/>
    <path class="cls-2"
          d="M1070.7,1057.51c-4.88,5.26-7.35,10.41-11,18-5.25,10.92-7.87,16.39-6,21,4.4,10.82,29.79,9.26,34,9,8.82-.54,34.84-2.14,47-22,1.38-2.25,10.37-16.93,4-29-6.71-12.71-25.39-12.93-31-13C1106.75,1041.49,1085.48,1041.57,1070.7,1057.51Z"
          transform="translate(-0.02 -3.05)"/>
    <path class="cls-26"
          d="M1077.7,1234.51c2-3.62,8.31-2,16-3,11.85-1.51,20.9-10,39-27,14-13.16,21.31-20,28-32,3.83-6.86,5.76-12.35,12-19a66.58,66.58,0,0,1,21-14c82.7-34.34,246-31,246-31,8.52.17,130.11,3.19,136,29,2.23,9.78,3,23,3,23,.56,9.63,0,14.48,0,22,0,11.88,1.53,19.12,4,34,0,0,5.3,31.87,10,73,1.67,14.61,2.51,21.91,3,30,2.35,38.47-2.89,72-5,79.5l-494,.5c6-30,15-63,15-63,1-1.55,3-10,3-10s-7.71-6.16-10-12c-3.7-9.45,9.24-20.59,5-26-1.64-2.09-3.89-.81-7-4-2.62-2.69-4.55-7.21-3-10,1.18-2.12,3.42-1.54,4-3,1.27-3.19-8.52-8.19-17-18C1084.08,1250.47,1074.81,1239.76,1077.7,1234.51Z"
          transform="translate(-0.02 -3.05)"/>
    <path class="cls-27"
          d="M1135.7,899.51c-8-.09-16.61,20.27-22,33-3,7-2.4,7.34-7,20-6.28,17.3-7.24,16.38-16,38-8.61,21.26-10.9,30.06-19,33-2,.72-7,2.05-7,4,0,2.18,6.27,3.58,6,5-.23,1.2-4.68.25-8,3a10,10,0,0,0-3,5c-3.84,11.73-2.76,16.82-6,23-3.9,7.44-9,6.83-10,13-.8,4.94,5.52,15.13,9,16,2-6,5.43-17.55,14-26,8.41-8.3,21.09-11.1,33-12,23.95-1.82,35,28.7,48,25,16.25-4.61,14.57-56.46,14-74C1160.17,958.31,1149.19,899.66,1135.7,899.51Z"
          transform="translate(-0.02 -3.05)"/>
    <path class="cls-2"
          d="M1290.7,471.51c-5.35,9.27-16.7,29-11,51a55.58,55.58,0,0,0,16,26c25.43,22.59,67.88,11.85,91,6,50.42-12.76,78.66-41.84,106-70,8.2-8.45,15.65-17.21,18-30,3.86-21-7.76-43.1-20-54C1445.23,360,1323.64,414.42,1290.7,471.51Z"
          transform="translate(-0.02 -3.05)"/>
    <path class="cls-28"
          d="M1293.7,475.51c1.43.64-10.89,21.17-2,39,4.76,9.55,13.5,14.12,19,17,17.43,9.12,34.33,7.36,57,5,13.5-1.41,29.25-3,48-11,25.71-10.9,34.79-24.22,38-22,8,5.52-46.8,89-86,168-77.08,155.4-80.5,266.79-105,265-19.59-1.43-29.76-73.57-38-132-7.49-53.14-14-99.3-4-159C1237.8,543.41,1291,474.29,1293.7,475.51Z"
          transform="translate(-0.02 -3.05)"/>
    <path class="cls-27"
          d="M1306.7,472.51c-4.16-3.46-21.66,22.11-61,34-16.27,4.92-22.75,3.41-38,11a111.83,111.83,0,0,0-36,29,123.7,123.7,0,0,0-24,45c-3.46,11.94-4.09,21-5,34-.72,10.32-.33,14.79,0,56,.1,12.63.08,14,0,16a195.3,195.3,0,0,1-6,41c-7,28.3-8,72.54-9,114-.89,37.55.62,68,2,96,1.55,31.3-.18,62.67,0,94,.06,9.57.16,17.25-3,27-3,9.27-5.87,10.87-6,18a37.81,37.81,0,0,0,8,23c3.64,4.62,7.81,7.51,7,9-1,1.93-8.61-1.82-11,1-.53.63-1.85,2.8,2,10a55.12,55.12,0,0,0,19,20c22.62,13.36,36.39,17.23,59,28,22.19,10.57,32.09,17.87,41,13,5.86-3.2,8.3-10,9-12,3.7-10.37-.43-19.8-3-28-1.86-5.93-2.57-20-4-48-.57-11.2-.78-22.87,0-51,1.59-57.3,2.38-86,6-107,6.49-37.77,12.82-40.46,11-63-1.44-17.83-6.11-24.92-14-58,0,0-4.78-20-10-52-5.75-35.22-20.37-124.69,15-209C1277.53,511.48,1311.92,476.85,1306.7,472.51Z"
          transform="translate(-0.02 -3.05)"/>
    <path class="cls-27"
          d="M1321.7,466.51c1.74,1.87-11,13.24-26,37s-22,43.86-27,58c-21.69,61.52-19.87,119-18,178,1.33,41.82,5.27,57.36,10,70,10.34,27.6,25.64,44.51,21,49-3.89,3.77-19.28-3.69-29-14a52.07,52.07,0,0,1-11-18c-18.63-51.32-20-98-20-98a577.09,577.09,0,0,1,8-114c8.07-47.53,16-70,29-96C1277.82,480.27,1319,463.65,1321.7,466.51Z"
          transform="translate(-0.02 -3.05)"/>
    <path class="cls-27"
          d="M1528.7,462.51c6.59,2,5.26,4.25,21,15a197.24,197.24,0,0,0,39,21c17.68,6.9,22.71,5.18,49,15,12.43,4.64,15.07,6.43,17,8,5.13,4.17,15.25,14.89,16,43,2.34,87.37-79.82,566.65-81,575-.09.64-1.51,11.3-3,18-.14.61-.55,2.46-1,5-.67,3.81-.92,6.44-1,7-1.13,8.16-19,13-19,13-36.95,10-74,6-74,6-59.16-6.41-88.74-9.61-104-8-24.83,2.62-31.79,7.42-63,9-22.63,1.14-28.4-.9-45,3-16.38,3.85-26.23,9.49-31,5s-.56-15.69,2-24c2.16-7,3.11-30.67,5-78,1.53-38.17-.69-42.37,0-76,.82-39.77,4.65-69.22,8-95,6.12-47.08,12.92-99.34,35-163,9-25.82,16.64-42.54,32-76,40.28-87.72,72.26-131.81,97-160,0,0,14.4-16.41,40-36C1509.24,457.72,1524.69,461.31,1528.7,462.51Z"
          transform="translate(-0.02 -3.05)"/>
    <path class="cls-27"
          d="M1515.7,427.51c-7.35-2.36-18.73,18.46-30,33-19.34,25-39.37,32.76-58,45-35.63,23.4-55.62,56.07-88,109-41.48,67.81-58.3,128-67,160-11.32,41.66-17.86,82.44-21,102-2,12.61-5.78,37.32-9,69-7.73,76-11.6,114-6,133,1.31,4.43,10.43,34,2,45-1.06,1.39-5.33,6.33-4,11,1,3.47,4.5,4.76,4,7-.57,2.59-5.52,2-7,5-.91,1.86,0,3.94,4,11,6.08,10.84,7.9,13.14,7,16s-3.55,2.35-6,6c-3.79,5.64-2.93,15.14,2,19,.53.41,1.79,1.3,8,2,9,1,17.74,2,20-2,.75-1.33.17-3.89-1-9-1.47-6.45-2.69-7.48-2-10,1-3.72,4.35-4,5-7,.59-2.77-2.06-4.12-6-10-2.86-4.26-6.79-10.14-5-13,1.65-2.64,6.89-.7,8-3,1.27-2.64-5.29-5.91-6-12-.56-4.86,3.15-6.75,6-13,3.07-6.73,2.38-13.16,1-26-1.23-11.48-2.92-12.54-4-23a113.06,113.06,0,0,1,0-22c3.45-43.83.69-39.61,6-86,5.94-51.9,9.87-86.24,22-132,5.93-22.38,11.58-39,17-55a995.84,995.84,0,0,1,38-96c14.62-31.67,23.93-51.82,41-78,18.51-28.39,35.44-54.35,65-76a443.77,443.77,0,0,1,47-30c9.08-4.86,17.67-10.65,27-15,12.74-5.94,20.56-8.07,21-13,.28-3.17-2.79-4.1-12-15a140.45,140.45,0,0,1-10-13C1518,431.43,1518.36,428.36,1515.7,427.51Z"
          transform="translate(-0.02 -3.05)"/>
    <path class="cls-7"
          d="M1190.7,1127.51c33.36,2.72,61.35,3.68,82,4,55.67.87,75.55-2.58,83-4a267.31,267.31,0,0,0,60-19"
          transform="translate(-0.02 -3.05)"/>
    <path class="cls-7"
          d="M1145.7,1123.51a328.15,328.15,0,0,0,43,23c9.2,4.07,41.64,17.93,87,25,21.82,3.4,42.69,6.65,70,4,12.39-1.2,21.75-3.2,43-5,17.73-1.5,32.32-1.9,42-2"
          transform="translate(-0.02 -3.05)"/>
    <path class="cls-7" d="M1222.7,1141.51a287.59,287.59,0,0,0,131,22" transform="translate(-0.02 -3.05)"/>
    <path class="cls-7"
          d="M1256.7,874.51a10,10,0,0,0-1,5,9.61,9.61,0,0,0,3,6c3.51,3.06,9.25,2.55,13,0,.42-.28,5-3.48,5-9,0-5.17-3.86-10.54-9-11C1261,864.9,1257.32,873.12,1256.7,874.51Z"
          transform="translate(-0.02 -3.05)"/>
    <path class="cls-7"
          d="M1243.7,975.51a11,11,0,0,0,3,8,10.41,10.41,0,0,0,7,3c5.35.08,8.53-4.32,9-5a12.55,12.55,0,0,0,0-14c-.7-1-3.6-4.91-8-5C1248.66,962.39,1243.78,969.49,1243.7,975.51Z"
          transform="translate(-0.02 -3.05)"/>
    <path class="cls-7"
          d="M1240.7,1082.51a12.88,12.88,0,0,0,9,10c1.07.31,5.6,1.62,9-1,3.85-3,3.77-9.06,2-13-2.46-5.47-8.19-6.82-9-7-1.53-.33-5.12-1.12-8,1C1239.61,1075.52,1240.57,1081.74,1240.7,1082.51Z"
          transform="translate(-0.02 -3.05)"/>
    <path class="cls-2"
          d="M1064.7,1080.51c-1.79,1.13-11,7.19-14,18-1.63,5.85-.71,10.51,0,15,3.67,23.1-.9,22.86,3,51,1.67,12.06,2.51,18.09,5,26a107.63,107.63,0,0,0,20,37c8.17,9.63,12.26,14.44,19,17,21.23,8.06,39.85-20.27,52.5-43.5,8.13-14.92,19.56-20.36,19.5-24.5-.17-11-2.92-19-6-28a138.37,138.37,0,0,0-17-33,113.64,113.64,0,0,0-13-16c-4.32-4.39-10.95-11.13-20-16C1110.5,1081.78,1084.3,1068.15,1064.7,1080.51Z"
          transform="translate(-0.02 -3.05)"/>
    <path class="cls-7"
          d="M1077.7,1030.51a47.13,47.13,0,0,1,18-4c17.93-.27,31,10.55,32,9,.68-1.1-5.65-7-13-11a50.82,50.82,0,0,0-21-6"
          transform="translate(-0.02 -3.05)"/>
    <path class="cls-27"
          d="M1653.7,524.51c7.89,1.89,15.32,6.6,24,17,15.69,18.79,21.42,39.32,24,49,8.89,33.31,12.61,58.54,15,73,3.72,22.53,8.48,42,18,81,20.79,85.14,31.19,127.71,39,143,2.64,5.16,11.5,21.87,11,44-.19,8.56-.4,17.68-5,25-17.51,27.86-95.11,23.82-135-13-13.39-12.36-23.34-29.17-25-32-7.53-12.88-8.3-18.62-18-46-10.08-28.44-17.15-48.38-29-72-9.13-18.19-11.44-19.32-17-33"
          transform="translate(-0.02 -3.05)"/>
    <path class="cls-2"
          d="M1495.7,1080.51c-3.55,1-12,7.32-29,20-10.58,7.91-15.87,11.86-22,17a294.15,294.15,0,0,0-39,40c-19.39,23.93-25.37,38.51-28,46s-2.92,10.79-3,12c-.38,5.94.37,19.49,25,44,22.88,22.77,38.84,38.65,60,36,14.18-1.78,23.83-11,28-15,13.93-13.33,17.84-30.09,22-49,6.25-28.41.64-34.85,10-50,7-11.31,18-20.48,21-23,14.65-12.22,20.53-11,23-17C1571.71,1122,1524.94,1072.43,1495.7,1080.51Z"
          transform="translate(-0.02 -3.05)"/>
    <path class="cls-27"
          d="M1784.2,915c2,5,4.58,20.24,6.5,40.5,1.37,14.44,2.78,29.27-2,45-1.35,4.45-6.51,19.89-37,47-6.22,5.53-32.54,28.49-79,52-30.75,15.56-56,25-56,25-17.86,6.68-31.8,10.66-52,22-14.21,8-13.44,9.44-19,11-33.14,9.28-86.76-35.51-81-64,2.32-11.46,12.32-10.78,35-32,20.5-19.18,15-22.2,45-58,11-13.16,13.14-14.37,51-54,11.12-11.64,11-14.62,14.5-16.5,1.5-.8,9-6,9-6s-8.94,3.1-10.5.5c-1.66-2.76,2.59-8.47,5-11,8.92-9.36,24.6-8.75,39-8"
          transform="translate(-0.02 -3.05)"/>
    <path class="cls-7"
          d="M1512.7,1320.51a140.25,140.25,0,0,0,25-3c20.09-4.27,33.05-11.69,34-10,.74,1.32-6.69,6.81-18,15-31,22.46-40.69,28.6-40,30,.61,1.23,9.29-.94,45-16"
          transform="translate(-0.02 -3.05)"/>
    <path class="cls-7"
          d="M1518.7,1214.51c3.26,8.05,13.94,35.1,17,56a92,92,0,0,1,1,12c.15,11.24.25,19.16-4,27-2.25,4.14-4.76,6.5-4,10,.68,3.11,3.21,3.83,5,7,2.84,5,.84,11.06,0,14-2.52,8.87-5.11,27.43-8,55"
          transform="translate(-0.02 -3.05)"/>
    <path class="cls-7" d="M1105.7,1268.51a90.76,90.76,0,0,0,21-2,93.79,93.79,0,0,0,31-13,111.15,111.15,0,0,0,33-32"
          transform="translate(-0.02 -3.05)"/>
    <path class="cls-7" d="M1112.7,1271.51a24,24,0,0,0,9,3c5.25.63,9.28-.71,13-2a44.25,44.25,0,0,0,14-8"
          transform="translate(-0.02 -3.05)"/>
    <path class="cls-7" d="M1112.7,1286.51a152.87,152.87,0,0,0,16,4c6.6,1.28,10.72,2.08,16,2a51.88,51.88,0,0,0,19-4"
          transform="translate(-0.02 -3.05)"/>
    <path class="cls-7" d="M1111.7,1304.51a17.42,17.42,0,0,0,8,6c5.62,1.95,10.68,0,16-2a49.39,49.39,0,0,0,16-10"
          transform="translate(-0.02 -3.05)"/>
    <path class="cls-7" d="M1116.7,1324.51a83.78,83.78,0,0,0,20-1,82.54,82.54,0,0,0,24-8,80.76,80.76,0,0,0,27-23"
          transform="translate(-0.02 -3.05)"/>
    <path class="cls-7" d="M1233.7,1202.51c2.49,17.8,5,32.75,7,44,3.09,17.32,5.17,28.82,9,44,3.6,14.26,7.27,25.91,10,34"
          transform="translate(-0.02 -3.05)"/>
    <path class="cls-7"
          d="M1217.7,1358.51a194.12,194.12,0,0,1,37,16c15.89,8.94,24.42,16.7,25,16,.88-1.06-17.13-20.94-44-37-13.77-8.23-24.35-12.16-24-13,.45-1.08,18.31,4.58,36,13,7.19,3.42,13,6.65,17,9"
          transform="translate(-0.02 -3.05)"/>
    <path class="cls-7" d="M1261.7,1342.51a97.83,97.83,0,0,1,24,21c5.19,6.34,11.44,14.14,14,26a87.94,87.94,0,0,1,1,10"
          transform="translate(-0.02 -3.05)"/>
    <path class="cls-7"
          d="M1371.7,1182.51a103.27,103.27,0,0,0,3,11c2.14,6.42,8.56,23.58,37,53,15.68,16.22,24.86,25.71,41,35a135.25,135.25,0,0,0,34,14,126.38,126.38,0,0,0,44,3"
          transform="translate(-0.02 -3.05)"/>
    <path class="cls-7" d="M1358.7,1233.51a124.56,124.56,0,0,0-11,52" transform="translate(-0.02 -3.05)"/>
    <path class="cls-7" d="M1379.7,1327.51a114.81,114.81,0,0,0,41-24" transform="translate(-0.02 -3.05)"/>
    <path class="cls-7" d="M1420.7,1323.51a347.54,347.54,0,0,0,34,8c14.36,2.62,23.62,4.26,36,4a126.72,126.72,0,0,0,29-4"
          transform="translate(-0.02 -3.05)"/>
    <path class="cls-2"
          d="M1335.2,46a274.41,274.41,0,0,1-57.5-10.5c-9.28-2.78-21.69-7.08-42-12-19.42-4.71-25.28-5-28-5-7.77-.14-24.36-.24-41,10-12.06,7.42-18.5,16.8-22,22a87.4,87.4,0,0,0-14,41c-1.9,23.57,6.3,41,11,51,3.85,8.19,7.69,16.15,16,24,8.72,8.24,20.54,14.64,30,16,23.31,3.35,42.23-22.43,83-68C1285.33,98.15,1307.17,74.33,1335.2,46Z"
          transform="translate(-0.02 -3.05)"/>
    <path class="cls-15"
          d="M1197.7,106.51c-6.65,8.37-18.37,23.38-27,46-8.19,21.48-10,40.31-12,62-2.91,31-4.37,46.43-4,56a81.35,81.35,0,0,1-3,25c-1.45,5.16-2.69,9.38-6,14-5.67,7.91-13.27,11.14-20,14-8,3.38-13.06,5.55-19,4-7.83-2-11.21-9-13-8s.88,10.1,4,17c2.85,6.31,8.6,18.61,22,28,5.7,4,10.22,7.16,17,8s11.75-1.18,13,1c1.13,2-2.13,5-6,11-2.46,3.84-7.5,12.56-9,22-1.56,9.8.78,19.83,3,20,1.65.13,1.86-5.32,6-11,7.48-10.27,22.58-14.18,25-11,1.6,2.1-3.6,5.62-7,16-3.91,11.94-1.94,22.31-1,27,1.95,9.67,6.35,18.4,8,18,1.44-.35-1.08-7.19,2-15,3.27-8.3,12.22-16.11,18-14,4.86,1.78,6,10,6,14,0,1.21-.17,9.43-6,14-4.94,3.87-10.91,2.73-11,4s6,4,13,4c15,0,24.57-12.79,28-10,1.52,1.23-.2,3.84,0,12,.13,5.38.3,12,3,13,3.31,1.19,9.76-6.41,12.89-11.19,2.32-3.55,3.1-6,4.11-5.81,1.7.28.57,7.26,3,16,2.32,8.34,7.4,16.61,10,16,1.69-.4,1.1-4.26,3-11,2.73-9.69,8.72-18.67,11-18,1.66.49.32,5.79,1,14,1.31,15.8,9.17,31.51,14,31,1.69-.18,1.71-2.2,5-8,6.78-12,11.43-11.76,16-22,2.69-6,2.85-10.07,4-10,1.5.1,3.36,7.15,2,14-1.94,9.73-9.37,13.91-8,16,1.49,2.28,11.3-1.19,18-5,5.08-2.89,12.45-7.09,15-15,1.42-4.42.56-7.58,2-8,2.11-.61,7,5.27,8,12,.8,5.59-1.63,8.39,0,10,2.73,2.69,12-2.71,16-5,8.63-5,15.9-9.21,18-17,2-7.34-2-12.93,0-14,2.91-1.58,12,10.37,14,13,4,5.29,6.3,8.35,7,13,1.07,7-2.5,10.76-1,12,2.85,2.36,20.72-7,26-23,3.48-10.53-.13-19,4-21,3.2-1.52,6,3.31,16,7,8.29,3.06,15.28,3,21,3,7.42,0,18.69-1.21,19-4,.19-1.7-3.91-1.72-7-6-1.56-2.16-1.47-3.49-3-16-.71-5.78-.89-6.87,0-8,2.35-3,8.88-2.1,13,0,.55.28,6.62,3.5,8,10,1.32,6.2-2.68,10.46-1,12s8-1.82,12-5c2.08-1.64,13.28-10.48,14-24,.33-6.25-1.77-9.94,0-11,2.18-1.31,8.15,2.6,11,8,3,5.67,1.14,10.35,3,11,2.31.81,8.41-5.27,10-13,1.95-9.49-4-16.26-1-19,1.7-1.56,4.31,0,10,1a47,47,0,0,0,24-2c8.78-3.34,16.12-10.53,15-13-.83-1.83-5.62.42-13-1-11.48-2.21-19.87-11.49-19-13,.62-1.07,5.39,2.62,13,3,15,.76,28-11.93,27-14-.67-1.38-7.24,2.62-18,1-5.74-.86-12.16-3.24-12-5s6.67-1.36,17-4c7.06-1.8,17-4.44,25-12,6.35-6,10.69-14.24,9-16-1.5-1.56-6.3,3.5-15,5-13,2.24-26.4-4.93-26-8,.21-1.63,4.25-1.45,13-4,2.78-.81,13.29-4,21-9,13-8.38,20.48-23.36,18-26-1.55-1.65-5.8,2.76-16,4a44.32,44.32,0,0,1-19-2,45.36,45.36,0,0,1-20-14c-3.95-4.57-8.34-11.3-13-29a213.06,213.06,0,0,1-6-35s-2.46-23.42-11-56c-14.86-56.73-69.76-91.4-74-94-28.95-17.77-55.73-21.77-84-26-25.19-3.77-49.45-7.39-80-1C1244.68,48.69,1208.13,93.37,1197.7,106.51Z"
          transform="translate(-0.02 -3.05)"/>
    <path class="cls-16"
          d="M1192.7,134.51a138.47,138.47,0,0,0-12,22c-4.06,9.48-7.9,21.58-11,51-4.14,39.3-6.21,59-5,72,.46,5,1.72,16-4,27a45,45,0,0,1-12,14c-3.87,3.22-13.13,10.91-26,12-9.24.78-14.67-2.32-16,0-2,3.51,9,13.12,10,14,3.9,3.38,12.56,10.87,26,13,12.64,2,20.26-2.19,22,1,1.54,2.81-3.89,7-11,18-7.86,12.2-12.69,24.89-11,26,1,.68,3.27-3.86,10-7,3.2-1.49,7.84-2,17-3,9.6-1,10.55-.7,11,0,1.54,2.41-4.51,6.54-10,18a63.94,63.94,0,0,0-5,16c-.19,1.07-2,11.34,0,12,1.45.48,3.27-4.65,8-9,2.48-2.28,9.38-8.75,16-7,4.85,1.28,7.27,6.37,9,10,1.15,2.42,4.41,9.25,2,16-2.56,7.18-9.74,9.27-9,11s9.54,1.6,17-3c9.22-5.68,11-14.74,14-14s3.69,9.51,3,16c-.76,7.18-3.36,11-2,12,1.68,1.24,7.37-3.27,11-7,6.69-6.87,8.67-13.42,10-13,1.17.37-.14,5.48,0,14,.09,5.53.84,15.74,3,16,1.54.19,2.27-4.85,6-11,5.67-9.34,15.65-17,19-15,1.94,1.15.53,4.87,0,16s-1.06,22.2,3,24c2.74,1.21,6.57-2.19,12-7,5.25-4.66,13.07-11.59,16-23,1.83-7.12.66-11.76,2-12,2.58-.47,7.13,16.72,8,20,2.65,10,2.41,13.76,1,17-1.94,4.45-5.45,6.37-5,7,.69,1,10.12-1.75,15-9,6.66-9.89,0-21.07,5-24,4-2.38,12.07,2.85,16,8,1.09,1.43,4.29,5.62,4,11-.25,4.68-3,6.89-2,8,1.47,1.69,9.44-1.54,15-7,1.71-1.68,7.14-7,8-15,1.12-10.37-6.45-16-4-19,2.93-3.64,16,1.65,24,7,4.78,3.18,10.51,7,13,14,2.6,7.31-.09,13.16,2,14,2.58,1,8.28-7.24,11-12s6-10.46,6-18c0-9.74-5.32-16.13-4-17s5.65,7.18,16,13c6.06,3.4,11.27,4.37,20,6,9.5,1.77,10.68.57,11,0,1-1.84-2.81-4.22-5-10-.5-1.31-3.82-10.49,1-18,4.21-6.56,12-7.7,14-8,6.4-.94,14.2.78,19,6,5.31,5.77,3.72,12.27,7,13,3.49.78,9.41-5.68,11-13,2.38-11-6.2-18.43-3-22,2.78-3.1,12-.6,18,4,6.39,4.93,7.9,11.42,9,11s.56-9.11-4-17c-3.61-6.25-7.75-8.7-7-10,1-1.69,8.31,1.83,18,4,15.82,3.54,30.76,1.89,31,0,.17-1.34-7.17-1.59-16-7-11.37-7-19.26-18.86-17-22,1.12-1.56,4.07,0,16,1,7.33.64,13.89.74,14,0s-8.57-1-16-7c-4.49-3.65-8.28-9.27-7-11s7.5,2.42,16,4c18.34,3.4,36.66-7.92,36-11-.33-1.54-5.19,0-14-3a43.66,43.66,0,0,1-17-11c-4-3.94-8.07-8-7-11,1.15-3.22,7.4-3.13,14-4,19.81-2.62,36.66-13.17,36-16-.41-1.75-7.48-.32-16-1-28.1-2.26-47.73-25.62-52-31-12.21-15.4-15.44-30.89-19-48-3.3-15.87-1.87-20.73-4-43-2.83-29.7-4.25-44.55-10-58-14.26-33.38-45.84-50.33-62-59-4.68-2.51-21.42-11.22-47-17-22.9-5.18-70.4-15.92-121,6C1235.65,69.45,1211.67,105.78,1192.7,134.51Z"
          transform="translate(-0.02 -3.05)"/>
    <path class="cls-17"
          d="M1158.7,262.51c1.77-11.73,8.18-18.82,21-33,12.36-13.67,24.17-21.14,35-28,10.17-6.44,16.52-9.19,23-11,8.49-2.36,16.37-4.56,24-1,8.82,4.12,12.29,13.59,15,21,5.92,16.19,3.64,29.9,5,30s1.88-13.86,8-31c4.19-11.74,7.85-21.61,17-28s19.22-6.19,26-6c19.53.56,35,11,65,32,9,6.27,19.63,14.21,30,27,9.81,12.1,11.46,18.79,12,23,1.61,12.65-4.4,22.47-6,25-7.5,11.87-19.1,16.11-27,19-19.44,7.11-36.49,4.06-48,2-15.76-2.82-30-5.37-40-17-6.4-7.47-7.13-14.15-11-14-6.6.25-14.17,20-8,28,1.79,2.32,4.26,3,4,4-.52,2-10.57-.68-24,0-14.64.74-23.15,5-26,1-2-2.79.5-7.25-1-8-1.72-.86-5.68,4.66-9,8-9.54,9.59-23.25,10.53-30,11-5.11.35-23.7,1.64-39-12C1163.17,294.23,1156.36,278,1158.7,262.51Z"
          transform="translate(-0.02 -3.05)"/>
    <path class="cls-2"
          d="M1180.7,262.51c-1.81,6.7-2.07,12.47,0,18,4,10.78,15,15.33,19,17,16.81,7,32.82.65,37-1a52.37,52.37,0,0,0,25-20,52.92,52.92,0,0,0,8-24c.82-7.33,2-18.25-4-29-5-9-14.83-17.25-26-19C1210.88,200,1186.49,241.06,1180.7,262.51Z"
          transform="translate(-0.02 -3.05)"/>
    <path class="cls-16"
          d="M1220.7,246.51c-4.21,3.84-4,9.89-4,11a16.35,16.35,0,0,0,6,12,16.53,16.53,0,0,0,13,3c.81-.14,11.12-2,13-10,1.72-7.31-5.16-13.27-6-14C1236.85,243.44,1226.47,241.24,1220.7,246.51Z"
          transform="translate(-0.02 -3.05)"/>
    <path class="cls-2"
          d="M1308.7,215.51c-4.11,10.71-1.29,20.08,2,31,2.92,9.68,7,23.29,20,34,14.61,12,31,12.64,41,13,11.36.41,24,.87,34-8,8-7.08,10.31-16.58,11-21,3.19-20.57-12.74-37.35-20-45a82.7,82.7,0,0,0-33-21c-11.74-4.28-21.56-7.86-33-4C1329.64,194.86,1314.56,200.23,1308.7,215.51Z"
          transform="translate(-0.02 -3.05)"/>
    <path class="cls-16"
          d="M1341.7,236.51a15.57,15.57,0,0,0-1,8,18.79,18.79,0,0,0,9,14c6.82,4,14.8,2.56,20-1,1.54-1.06,6.61-4.52,7-10,.55-7.74-8.69-13.09-12-15s-10.79-6.24-17-3A14,14,0,0,0,1341.7,236.51Z"
          transform="translate(-0.02 -3.05)"/>
    <path class="cls-18"
          d="M1353.7,363.51a105.65,105.65,0,0,1-19.91,20.93,77.16,77.16,0,0,0-10.09-3.93c-5.29-1.81-10.14-3.46-17-4-8.82-.69-23.08-1.81-33,8a38,38,0,0,0-6.21,8.2,11.35,11.35,0,0,1-1.79-3.2c-1.11-3.08.07-4.17-1-9a31.61,31.61,0,0,0-5-11c-4.24-6.32-7.32-6.76-7-9,.55-3.87,10.3,1.39,19,2,6,.42,8-2.66,12-1,6.67,2.76,21.18,4.94,33,5,19,.09,35.64-13.08,38-15,4.63-3.76,8.11-7.68,9-7C1365,345.53,1359.23,355.82,1353.7,363.51Z"
          transform="translate(-0.02 -3.05)"/>
    <path class="cls-19"
          d="M1307.7,399.51c-4.26,1.23-18.85,5.26-32-1-2.39-1.13-5.88-2.84-8.21-5.8a38,38,0,0,1,6.21-8.2c9.92-9.81,24.18-8.69,33-8,6.86.54,11.71,2.19,17,4a77.16,77.16,0,0,1,10.09,3.93l-.09.07C1325.94,390.66,1318.84,396.28,1307.7,399.51Z"
          transform="translate(-0.02 -3.05)"/>
    <path class="cls-7"
          d="M1333.79,384.44a105.65,105.65,0,0,0,19.91-20.93c5.53-7.69,11.34-18,10-19-.89-.68-4.37,3.24-9,7-2.36,1.92-19,15.09-38,15-11.82-.06-26.33-2.24-33-5-4-1.66-6,1.42-12,1-8.7-.61-18.45-5.87-19-2-.32,2.24,2.76,2.68,7,9a31.61,31.61,0,0,1,5,11c1.07,4.83-.11,5.92,1,9a11.35,11.35,0,0,0,1.79,3.2c2.33,3,5.82,4.67,8.21,5.8,13.15,6.26,27.74,2.23,32,1,11.14-3.23,18.24-8.85,26-15Z"
          transform="translate(-0.02 -3.05)"/>
    <path class="cls-7"
          d="M1267.49,392.71a38,38,0,0,1,6.21-8.2c9.92-9.81,24.18-8.69,33-8,6.86.54,11.71,2.19,17,4a77.16,77.16,0,0,1,10.09,3.93"
          transform="translate(-0.02 -3.05)"/>
    <path class="cls-20"
          d="M1237.7,335.51a20.61,20.61,0,0,0-4,10c-.9,8.42,4.08,14.62,6,17a27.51,27.51,0,0,0,30,9,28.34,28.34,0,0,0,14-10"
          transform="translate(-0.02 -3.05)"/>
    <path class="cls-20"
          d="M1273.7,320.51a73.92,73.92,0,0,0,0,18c.94,7.68,1.73,14,6,20,5.45,7.61,13.46,10.2,19,12,14.22,4.61,26.65,1.44,32,0a68.07,68.07,0,0,0,21-10c8-5.39,18.26-15,19-18s-.68-5.66,0-6c.37-.19,1.32.34,4,4"
          transform="translate(-0.02 -3.05)"/>
    <path class="cls-20"
          d="M1270.7,413.51a19.19,19.19,0,0,0-6,7,21.31,21.31,0,0,0-2,8c-.47,4.57,0,9.88,1,10s.91-3.66,4-7c3.43-3.71,8.59-4.7,9-4,.32.55-2.54,1.65-4,5s-.59,6.66,0,9a21,21,0,0,0,4,8"
          transform="translate(-0.02 -3.05)"/>
    <path class="cls-2"
          d="M1372.7,40.51c.21-3.58,19.14-2,48-10,16.9-4.68,16.74-7,40-14,18.07-5.46,27.16-8.21,40-9,10.88-.67,25.47-1.57,41,5,26.32,11.13,37.6,36.21,42,46a109.27,109.27,0,0,1,8,57,113.3,113.3,0,0,1-15,43s-9.45,15.87-30,32c-3.05,2.4-7.63,5.73-14,6-.83,0-8.06.26-13-4-7.17-6.17-5.06-17.9-5-28,.11-18.56-6.72-32.32-14-47-2.06-4.16-17.83-34.9-51-51-9.57-4.65-21.38-8.1-45-15C1383.54,45.32,1372.54,43.25,1372.7,40.51Z"
          transform="translate(-0.02 -3.05)"/>
    <path class="cls-2"
          d="M1248.7,306.51c-.8,5.86,3.58,10.56,4,11,2.51,2.61,5.74,4,13,5,19.8,2.84,32.87-1.82,36-3,6.15-2.32,8.62-4.34,10-7,2.09-4,2.11-9.36,0-12-8-10-34-12-52-6C1255.68,295.85,1249.57,300.15,1248.7,306.51Z"
          transform="translate(-0.02 -3.05)"/>
    <path class="cls-16"
          d="M1274.7,297.51c.86-.76,3.66-3,13-3,7.2,0,12.88,0,17,4,.9.88,3.29,3.21,3,6-.39,3.69-5.2,5.78-8,7-2.14.93-13.3,5.79-22,0-.92-.61-6.47-4.31-6-9A8,8,0,0,1,1274.7,297.51Z"
          transform="translate(-0.02 -3.05)"/>
    <path class="cls-29" d="M1620.2,927a214,214,0,0,1,26-2c13.89-.21,18.87,1.09,23,3a35.93,35.93,0,0,1,11,8"
          transform="translate(-0.02 -3.05)"/>
    <path class="cls-23"
          d="M1075.2,1064a71.7,71.7,0,0,0-13,26c-2,7.81-1.39,11.21-1,34s-.08,28.89,1,47c1,16.5,2,21.51,4,27,3.62,9.76,8.83,16.4,14,23,.78,1,14.93,18.92,18,17,1.49-.94-.6-6-4-17-3.78-12.26-10.16-35.12-8-36,1-.42,3.24,4.48,12,17,5.43,7.75,10,13.64,17,19,3.86,3,8.15,6.26,10,5,2.63-1.8-1.23-11.83-6-24-6.63-16.92-10.78-22.82-12-35-.61-6.06-.4-12.74,1-13,1.64-.31,2.85,8.59,10,20,5.3,8.47,10.74,13.31,16,18,5,4.46,7.54,6.68,9,6,3.82-1.77.87-19-5-33-2.88-6.88-7.25-13.92-16-28-7.18-11.56-10.71-16.4-10-17,1-.82,9.78,6.45,17,16,13.49,17.85,14.4,34.31,19,34,3.3-.22,5.44-8.89,6-14,1.22-11.11-3.46-19.8-8-28-3.41-6.15-9-16.17-20-25-5.25-4.2-11.91-8.27-23-18-4.32-3.79-7.09-6.49-7-10,.16-6.56,13.37-8.16,13-12-.32-3.34-10.29-6-19-5A32.19,32.19,0,0,0,1075.2,1064Z"
          transform="translate(-0.02 -3.05)"/>
    <path class="cls-26"
          d="M1105.2,1265c-17.21-1-30-20-30-27,0-5.78,7.24-3.86,27-18,9.17-6.56,14.7-12.69,24-23,22.3-24.72,24.74-37,35-37,2,0,1.16.45,26,13,4.08,2.06,5.79,2.9,7,5"
          transform="translate(-0.02 -3.05)"/>
    <path class="cls-23"
          d="M1453.2,1118c-4.14-1.16-8.85,2.18-25,20-13.39,14.77-20.08,22.16-26,31-4,5.92-8.31,14.95-17,33a26.63,26.63,0,0,0-3,11c-.08,2.35.13,6.2,4,15,3.72,8.46,7.71,17.54,11,17,2.47-.41,2-5.85,6-16,3.75-9.63,9.06-17.41,10-17s-1.74,6.7-5,21c-2.27,9.94-2.41,12.9-2,16,1,7.47,5.08,15.35,8,15,2.37-.28,2.76-5.86,5-14,4.59-16.67,13.55-31.7,16-31,2.25.65.79,15.43-2,27-2.21,9.16-4.62,13.64-4,22,.42,5.6,2.25,13.8,5,14,3.22.24,6.3-10.6,10-23,10.07-33.75,15.11-50.63,18-56,15-27.94,41.07-37.87,37-47-.64-1.43-1.38-1.42-8-5-14.4-7.79-22.77-12.31-29-20S1457.29,1119.15,1453.2,1118Z"
          transform="translate(-0.02 -3.05)"/>
    <path class="cls-30"
          d="M1369.2,1193c5.1-1.13,15.95,17,32,42,10.47,16.28,25.55,35.73,52,46,14.86,5.77,23,12.7,23,16,0,2.82-10.33,5.58-19,6-18.85.92-33.42-9.07-39-13-7.41-5.22-14.27-13.81-28-31-8.41-10.52-12.45-16.59-16-23-8.29-15-9.07-23-9-28C1365.22,1206.24,1365.4,1193.85,1369.2,1193Z"
          transform="translate(-0.02 -3.05)"/>
    <path class="cls-7"
          d="M1372.7,1183.51a103.27,103.27,0,0,0,3,11c2.14,6.42,8.56,23.58,37,53,15.68,16.22,24.86,25.71,41,35a135.25,135.25,0,0,0,34,14,126.38,126.38,0,0,0,44,3"
          transform="translate(-0.02 -3.05)"/>
    <path class="cls-7"
          d="M1353.7,1287.51a97.46,97.46,0,0,1,8-20c3.89-7.27,9.59-15.68,11-15,1.16.56-1.63,6.79-4,19-2.1,10.83-2.79,20.85-2,21s2.24-9.91,8-23a112.94,112.94,0,0,1,8-15"
          transform="translate(-0.02 -3.05)"/>
    <path class="cls-24"
          d="M1091.2,1239c-.16-5.67,12.1-12.76,21-11,1.63.32,3.75,1.21,8,3,7.88,3.31,11.42,5.73,12,5s-2-3.14-7-10c-4.63-6.36-5.32-8.14-5-10,.18-1,.68-2.13,5-6,5.77-5.16,8.65-7.74,11-8,6.52-.73,11.33,7.22,13,6s-4.29-7.58-3-16c.71-4.67,3.37-8.19,7-13,3.2-4.24,4.8-6.36,7-7,5.7-1.66,12,4.3,18,10,4.3,4.07,6.53,6.18,8,10,2.74,7.1.43,13.83-1,18-2.11,6.16-5.75,16.76-16,20-10.1,3.19-21.34-6.18-22-5s10.21,5.79,10,12c-.15,4.55-6.14,7.86-10,10a41.2,41.2,0,0,1-18,5C1112.89,1252.74,1091.41,1246.41,1091.2,1239Z"
          transform="translate(-0.02 -3.05)"/>
    <path class="cls-24"
          d="M1204.2,1202c-4.15,3,0,10.19-2,21-1.72,9.1-8.48,16.07-22,30-13.29,13.69-20.15,20.6-31,24-10.55,3.31-18.94,1.83-19,3-.07,1.46,12.92,5.52,27,3,14.32-2.56,22.66-10.67,24-9,1.57,2-9.63,13.52-13,17-10.84,11.19-18.45,16.35-18,17,.57.82,14.38-4.89,27-17,12.17-11.67,15.8-22.17,20-21,3.49,1,4.53,9.23,4,15-1,11.36-8.66,18.92-16,26-8.28,8-19.5,18.8-36,21-8.67,1.15-14.39-.66-20,4-4.3,3.57-5.12,8.11-7,15-7.32,26.8-16.37,36.65-12,41,2.58,2.57,7.65,1.06,12,0,19.51-4.74,15.77,1.82,75,0,23.71-.73,24.4-1.78,36-1,10.12.68,17.29,2,18,0,.44-1.24-1.72-3.44-19-14-15.5-9.47-23.25-14.21-30-17-16.11-6.66-27.18-7.17-27-9s12.21-2.85,23-2c12.36,1,19.61,4,20,3,.47-1.23-9.43-7.55-22-11-16.72-4.59-28.77-1.51-29-3-.28-1.82,17.2-9.92,38-8,20.6,1.9,35.21,12.77,37,10,1.21-1.88-5.88-6.24-10-16-3.74-8.86-2.62-16.47-2-24,2-24.52-3.43-21.24-3-57,.24-19.7,2-27-4-34C1217.89,1202.77,1208.41,1199,1204.2,1202Z"
          transform="translate(-0.02 -3.05)"/>
    <path class="cls-24"
          d="M1251.2,1212c-4.93,5.11-1.37,12.53,3,39,3.85,23.36,2.17,24.2,6,42,.78,3.63,7.95,36.5,12,36,2.79-.35,1.24-16.09,3-44,3-47.32,11.38-64.3,1-73C1269.15,1206.09,1256.47,1206.54,1251.2,1212Z"
          transform="translate(-0.02 -3.05)"/>
    <path class="cls-24"
          d="M1358.2,1209c.64.31-6.84,13.27-12,33-3.74,14.31-4.58,25.73-6,45-.44,6-1.18,18-1,33,0,1.55.14,9.91,1,21,.95,12.16,1.86,23.85,4,24,1.88.13,2.44-8.8,8-21,6.25-13.72,15.33-23.91,17-23,2.39,1.31-11.12,25.14-6,29,1.88,1.42,5.15-.71,17-7,24.68-13.1,26.68-12.45,27-12,1.09,1.54-11.66,9.33-10,15,1.19,4,9.22,5.29,22,6,35.38,2,53-3.16,56,3,1.29,2.65-1.38,4.8-9,21-4.39,9.32-4.84,15.86-7,16-30,2-111,3-137,1-6.69-.51-1.89-7.85-8-20-9.81-19.52-18.66-24.25-22-39-.52-2.31-.9-4.83,0-21,2.09-37.44,5.12-41.65,5-61-.15-24.09-5-39.12-2-40,2.31-.68,7.22,7.71,10,15,7.2,18.88,3,38,3,38s-1.37-18.49,7-36c5.69-11.91,15.52-22.62,19-21,2.63,1.22,1.32,9.3-1,23-3.3,19.5-7.23,29.45-6,30C1330.12,1262.32,1356.9,1208.38,1358.2,1209Z"
          transform="translate(-0.02 -3.05)"/>
    <path class="cls-24"
          d="M1375.2,1218c-1.87.5-4.25,5.67-9,16-3.86,8.4-6.38,14-5,15,2.6,2,16.63-13.89,19-12,1.79,1.44-4.69,11.81-3,13s7.57-7.34,11-6c3.77,1.48,2.15,13.88,2,15-4.14,30.23-30.64,49.21-27,54,1.57,2.07,7.52-.13,18-4,7.27-2.68,18.8-6.94,30-17,5.3-4.76,8.07-8.62,9-8,1.19.79-1.67,8.2-6,14-6.09,8.15-13.27,10.5-13,11,.44.82,20.23-4.09,26-18,1.44-3.47,1.8-7,3-7,1.72,0,4.5,7.29,3,14-2.05,9.2-11.13,12.73-10,15,1,2.07,9.82,1.52,17-3,7.75-4.88,7.26-10.4,13-12,5.12-1.43,8,2.27,18,6,11.9,4.44,22.8,4.81,23,4,.3-1.19-22.7-4.32-48-19a152.75,152.75,0,0,1-28-21C1391,1242.27,1383.42,1215.79,1375.2,1218Z"
          transform="translate(-0.02 -3.05)"/>
    <path class="cls-24"
          d="M1553.2,1235c-3.76,6.67,2.26,11.31,4,29,.91,9.21,2,20.2-4,30-3.59,5.88-7.93,8.38-7,10,1.5,2.63,14.1-1.84,23-5,6.35-2.25,9.55-3.41,11-5,4.94-5.4,2.25-13-1-33-3.94-24.29-2.8-30.58-8-33C1565.66,1225.43,1556.6,1229,1553.2,1235Z"
          transform="translate(-0.02 -3.05)"/>
    <path class="cls-31"
          d="M1294.2,541c3.78-.82,4.15,1.77,16,6,8.4,3,25.19,9,43,5,10.3-2.31,15.53-6.76,17-5,2.32,2.77-9.18,15.53-17,25-20.42,24.73-31.69,46.36-44,70a427.7,427.7,0,0,0-27,65c-11.36,34.28-14.33,56.35-17,56-3.29-.44-1.36-34.24,0-58,.8-14,2.43-38.79,9-91C1280.88,560.94,1284.66,543.09,1294.2,541Z"
          transform="translate(-0.02 -3.05)"/>
    <path class="cls-21"
          d="M1065.2,1057c.67.75,4.44-2.86,12-6a57.3,57.3,0,0,1,16-4c4.28-.49,8.6-1,14,0,9.46,1.72,14.59,6.57,16,5,1-1.07-.67-4.2-2-6-3.09-4.18-7.67-5.4-14-7-4.61-1.16-9.83-2.48-17-2a49.38,49.38,0,0,0-16,4c-3.63,1.58-8.31,4.14-8,5,.24.66,3.28-.12,10-1,8.74-1.15,13-1.08,13-1s-10.17-.91-18,5C1067.2,1052,1064.56,1056.28,1065.2,1057Z"
          transform="translate(-0.02 -3.05)"/>
    <path class="cls-21"
          d="M1092.2,1007c-1-2,2.5-4.67,7-11,2.77-3.89,4.85-8.26,9-17,8.06-17,9.15-24.24,11-24s1.35,8.82,3,28,3.77,28.07,0,30c-2.44,1.25-4.28-2-12-4C1100,1006.39,1093.46,1009.61,1092.2,1007Z"
          transform="translate(-0.02 -3.05)"/>
    <path class="cls-21"
          d="M1164.2,582c4.87-12,9.26-17.39,13-21,5.84-5.63,11.85-8.52,17-11,9.75-4.69,11.52-3.36,23-8,14.36-5.81,19.39-11,22-9,3,2.36-.82,11.57-4,20-6,16-9.21,32.93-15,49-9.25,25.65-11,48.45-13,74-1.39,17.91-3.83,52.52,5,95,6.65,32,10,48,20,61a51.82,51.82,0,0,1,10,19,52.87,52.87,0,0,1,0,26c-8.94,39.82-10.06,123.66-19,176-1.08,6.34-1.64,8.49-3,17-1.8,11.29-1.61,12.49-3,16-1.29,3.26-4.81,12.11-13,16-6,2.87-11,1.32-12,4-1,2.88,3.89,7.06,5,8,7.86,6.67,17,6.21,17,7-.06,1.15-19.75,5.51-40-3-.63-.26-8.1-5.18-23-15-11.92-7.85-17.88-11.88-18-17-.1-4.24,3.32-7.12,6-10,6.72-7.25,9.15-16.83,14-36,7.56-29.85,4.25-76.43,4-80-4-56.47-6-84.71-6-107,0-26.62,1.48-51.53,4-94,2.44-41.08,3.08-36.94,3-49-.23-36.18-5.82-54.51-3-91A128.76,128.76,0,0,1,1164.2,582Z"
          transform="translate(-0.02 -3.05)"/>
    <path class="cls-21"
          d="M1280.2,1144c.1-.74,10.72,1.2,31,1a313.91,313.91,0,0,0,32-2c14.57-1.57,29.16-3.14,46-8,26-7.5,39.87-17.8,41-16s-12.41,15.26-31,24c-19.25,9-36.42,9.61-54,10C1309.36,1153.81,1280,1145.24,1280.2,1144Z"
          transform="translate(-0.02 -3.05)"/>
    <path class="cls-21"
          d="M1284.2,1113c.13,2.17,27.07,3.1,52,1,13.68-1.15,31.57-2.77,54-10a203.13,203.13,0,0,0,47-22c13.36-8.53,25.8-18.76,25-20s-11.15,6.08-26,12c-29.46,11.74-58.53,11.44-59,9-.3-1.55,11-3.32,35-13,12.52-5.06,21.6-9.5,39-18,18.49-9,18.73-9.8,34-17,15.59-7.35,25.28-11.23,25-12-.57-1.56-41.11,12.34-42,10-.53-1.38,13.95-5.19,26-17,9.5-9.3,13.83-20,19-38,7.54-26.3,16.82-59.63,16-105-.26-14.27-.44-24.67-3-39-4.24-23.77-11.54-39-8-41,2.07-1.17,5.85,3.32,19,15,9.36,8.32,25.32,22.49,27,21,1.36-1.21-7.75-11.83-15-24-12.25-20.56-15.06-38.67-19-64-5-32.48-3.17-56.42-1-84,2.13-27.07,4.46-56.76,13-58,5.58-.81,11.51,10.78,17,22,42.17,86.17,34.81,102.32,60,140,.44.65,17.8,26.62,26,53a92.08,92.08,0,0,1,4,27c0,8.09,0,13.73-3,20-5.48,11.49-16.19,15-15,18,.92,2.29,7.37.49,17,1,16.42.87,29.3,7.77,29,9-.25,1-9-1.86-23-1-10.13.63-21.07,3.09-21,5,.08,2.16,14,.76,32,7,16,5.54,28.89,14.93,28,17-.72,1.66-9.79-2.62-25-4-20.57-1.87-37.1,2.94-37,4s18.06-3.37,41,3a90.44,90.44,0,0,1,30,15c7.81,6,17.62,15.49,16,18-1.24,1.91-8.19-1.68-25-7-17.54-5.56-27.95-8.77-41-9-5.63-.1-15.83-.19-27,4-12.88,4.83-20.16,12.77-32,26-26,29.11-39.07,43.66-48,55-9.94,12.63-14.9,19.52-29,37-19.12,23.71-26.66,31.7-35,34-1.22.34-5.05,1.27-6,4-1.06,3.06,2.15,6.48,7,12,14.63,16.67,13.89,18.13,20,22,4.15,2.63,8.73,5.53,15,6,11,.82,19.82-6.44,23-9,18.08-14.56,40.08-23.55,59-37a700.11,700.11,0,0,1,65-41c16.62-9.17,37.95-19.9,60-37a190.57,190.57,0,0,0,21-20c11.3-12.3,16.94-18.6,17-26,.1-12.81-13.67-22.32-19-26-18.86-13-39.13-11.56-39-13s17-3.26,37,2c15.83,4.17,24.94,10.59,26,9,1.22-1.83-9.24-12.8-23-21-25.09-15-49.15-13.52-49-16,.12-2,15.57-5,33-2,16.73,2.89,25,9.56,29,6,4.85-4.33-1.86-19.15-4-24-3.1-7-11.4-43-28-115-3.59-15.56-7.39-34.71-15-73-4.42-22.22-7.23-37.1-13-59-7.28-27.63-12.72-41.59-18-53-7.58-16.36-12-25.76-22-36-5-5.18-18.45-18.64-39-24-8.14-2.12-9.1-.81-23-4a181.6,181.6,0,0,1-29-9c-20.08-8.26-19.54-13-29-15-8.64-1.78-19.56.06-47,20a346.93,346.93,0,0,0-50,44c-20.94,23-40.66,44.6-62,78-40.37,63.17-55.84,120.37-69,169-12.5,46.21-18.11,83.9-22,110-9,60.11-1.77,45.47-9,87,0,0-5.56,31.94,1,80a17.74,17.74,0,0,0,3,8c6,8.4,18.74,8.83,27,9,25.71.52,53.95.58,54,1C1363.29,1100.72,1284,1109.27,1284.2,1113Z"
          transform="translate(-0.02 -3.05)"/>
    <path class="cls-21"
          d="M1178.2,1152c4.64,1.75,10.37,3.82,17,6,9.5,3.13,14.25,4.69,20,6,11.54,2.63,17.9,2.48,18,4s-5.74,3.41-11,4c-10.45,1.18-18.88-2.92-25-6A70.77,70.77,0,0,1,1178.2,1152Z"
          transform="translate(-0.02 -3.05)"/>
    <path class="cls-21"
          d="M1492.2,484c-13.25,4.77-34.34,12.52-59,29-13.43,9-30.59,20.45-47,41-8.72,10.92-13.41,19.64-22,36-23.83,45.43-35.75,68.15-42,82-22.51,49.9-15,45-38,99-9.94,23.36-10.51,49.75-18,74a9.27,9.27,0,0,0,0,6c1.06,2.76,4,5.33,6,5,4.27-.69,5.18-14.31,6-22,.27-2.49,4.84-19.33,14-53,4.49-16.53,12.33-34.35,28-70,4.92-11.19,18.68-39.61,46-96,11.79-24.34,17.89-36.78,28-50a225.09,225.09,0,0,1,40-40c16.66-13.22,31.89-21.8,43-28,20.56-11.47,36.45-17.88,36-19C1512.81,477,1500.89,480.88,1492.2,484Z"
          transform="translate(-0.02 -3.05)"/>
    <path class="cls-21"
          d="M1263.2,532c-1.08-.3-12.73,31.23-21,69a477.14,477.14,0,0,0-11,93c-.51,26.56-.81,51.39,7,83,6.45,26.09,15.85,46.37,17,46,1.45-.46-12-33.06-16-80-1.54-18.14-1-30.67,0-54a706.3,706.3,0,0,1,12-103C1257.63,552.6,1264.06,532.25,1263.2,532Z"
          transform="translate(-0.02 -3.05)"/>
    <path class="cls-21"
          d="M1258.2,904c-4.67,5.83-1.25,10.87-3,24s-6.56,18.9-3,23c1.72,2,4.91,3,7,2,3.62-1.73,2.73-8.93,3-17,.75-22.44,9.89-34.58,6-37C1265.93,897.59,1261,900.57,1258.2,904Z"
          transform="translate(-0.02 -3.05)"/>
    <path class="cls-21"
          d="M1248.2,1000c-3.26.84-3.34,7.75-5,25-2.18,22.6-3.88,29.76,1,34,2.23,1.93,5.8,3.23,8,2,3.06-1.72,2.18-7.66,2-14-.67-23.09,8.51-30.73,2-41C1254.44,1003.23,1250.93,999.3,1248.2,1000Z"
          transform="translate(-0.02 -3.05)"/>
    <path class="cls-21"
          d="M1249.2,1176c-2.81,1.26-3.94,4-6,9-.84,2-1.26,3.08-1,4,.19.67.87,2.23,10,5,5.08,1.54,5.78,1.34,6,1,.67-1-3.3-3-4-7-.9-5.11,4.47-8.37,3-11C1256.1,1175,1251.94,1174.78,1249.2,1176Z"
          transform="translate(-0.02 -3.05)"/>
    <path class="cls-17"
          d="M1381.5,319c-.3.62,8.47,2.79,13.5,11.5,4.73,8.19,3.41,17.39,3,20-1.65,10.54-7.59,16.68-6.5,17.5s6.79-3.47,10.5-10c4.83-8.5,3.47-16.3,5.5-16.5,1.64-.16,3.79,4.81,4.5,9,.78,4.62-.25,7.95,0,8,.42.09,5.36-9,3.5-17.5C1411.75,323.85,1382,317.87,1381.5,319Z"
          transform="translate(-0.02 -3.05)"/>
    <path class="cls-17"
          d="M1225,338c.42.21-3.28,4.59-3,11,.5,11.26,12.8,17.49,11.5,19.5s-13.76-.57-17-8.5C1212.59,350.41,1224.28,337.64,1225,338Z"
          transform="translate(-0.02 -3.05)"/>
    <path class="cls-17"
          d="M1280.5,412.5c.65-.85,3.62,1.8,9.5,3,8.71,1.77,16.48-1.15,22.5-3.5,9.74-3.8,14.34-8.29,15-7.5s-4.94,8.17-13,13.5c-5.62,3.71-13.25,8.75-21.5,6.5S1279.5,413.81,1280.5,412.5Z"
          transform="translate(-0.02 -3.05)"/>
    <path class="cls-17"
          d="M318,368.5c1,.56-3.23,5.83-3,14.5.3,11.26,7.87,17.79,6.5,19s-12.84-4.21-14.5-14C305.15,377.06,316.56,367.7,318,368.5Z"
          transform="translate(-0.02 -3.05)"/>
    <path class="cls-17"
          d="M385,434c1.29-1.12,4.07,2.68,9,2.5,5.38-.2,8.21-5,9.5-4s.07,6.16-3.5,9c-3.26,2.6-8.56,3.18-12,.5C385,439.64,383.77,435.06,385,434Z"
          transform="translate(-0.02 -3.05)"/>
</svg>