<svg id="Layer_1" data-name="Layer 1" xmlns="http://www.w3.org/2000/svg" viewBox="0 0 1896.06 1025.04">
    <defs>
        <style>
            .cls-1,.cls-11{fill:#b59ab2;}.cls-1,.cls-10,.cls-12,.cls-13,.cls-14,.cls-15,.cls-16,.cls-17,.cls-18,.cls-19,.cls-2,.cls-20,.cls-25,.cls-26,.cls-27,.cls-28,.cls-29,.cls-3,.cls-30,.cls-31,.cls-4,.cls-5{stroke:#000;stroke-linecap:round;stroke-linejoin:round;}.cls-1,.cls-10,.cls-2,.cls-3,.cls-4,.cls-5{stroke-width:6px;}.cls-3{fill:#d6d2aa;}.cls-17,.cls-4{fill:none;}.cls-13,.cls-5,.cls-7{fill:#d9d9d9;}.cls-10,.cls-20,.cls-21,.cls-23,.cls-24,.cls-6{fill:#fff;}.cls-8{fill:#380208;}.cls-9{fill:#6a0006;}.cls-12{fill:#aa6a8d;}.cls-12,.cls-13,.cls-14,.cls-15,.cls-16,.cls-17,.cls-18,.cls-19,.cls-20,.cls-25,.cls-26,.cls-27,.cls-28,.cls-29,.cls-30,.cls-31{stroke-width:8px;}.cls-14{fill:#3e6046;}.cls-16{fill:#f4f0df;}.cls-18{fill:#7f4f6a;}.cls-19{fill:#c683a5;}.cls-21{opacity:0.1;}.cls-21,.cls-23,.cls-24{isolation:isolate;}.cls-22{fill:#282828;}.cls-23{opacity:0.2;}.cls-24{opacity:0.6;}.cls-25{fill:#474338;}.cls-26{fill:#686353;}.cls-27{fill:#87816c;}.cls-28{fill:#a09982;}.cls-29{fill:#6d6d6d;}.cls-30{fill:#c9d2d6;}.cls-31{fill:#9e9e9e;}
        </style>
    </defs>
    <title>saling</title>
    <g id="Layer_2" data-name="Layer 2">
        <g id="Layer_7" data-name="Layer 7">
            <path class="cls-1"
                  d="M950,303c7.19-7.09,30.37,3.52,43,12,4.24,2.85,10.35,7.51,26,27,25.57,31.85,30.2,45.51,47,61,1.79,1.65,8.2,7.45,17,16,8.46,8.21,12.69,12.32,14,14,12.49,16,5.38,48.62-10,70-3.53,4.91-23,31.9-44,28-9.85-1.83-18.19-10.07-30-35-21.38-45.14-16.38-65.29-30-108C966.26,335.54,941.34,311.57,950,303Z"
                  transform="translate(0 0)"/>
            <path class="cls-2"
                  d="M1232,349c6.25-10.4,8-23,13-34,15.12-33.15,16.94-36,19-39,6.87-9.9,12-17.07,21-20,2.74-.89,3.93-.77,17-4,6.77-1.67,7.51-2,12-3,10.19-2.34,15.29-3.51,19-3,9.34,1.29,15.37,8.25,16,9,8.22,9.76,5.79,23.15,4,33-3.24,17.87-12.44,29.9-18,37a95.47,95.47,0,0,1-24,22,86.51,86.51,0,0,1-27,11c-11.38,2.46-9.24-.52-35,1-10.09.6-17.18,1.46-19-2C1228.64,354.46,1230.91,350.84,1232,349Z"
                  transform="translate(0 0)"/>
            <path class="cls-2"
                  d="M1231,336c-3.46-2.2-1.37-6.43-2-34-.39-17.11-1.32-21,1-29,.79-2.73,3.52-8.48,9-20,7.07-14.86,8.57-16.62,9-22,.57-7.09-1.55-10.1,1-15,1.95-3.74,6.16-7.73,11-8,10.44-.58,17.41,16.51,18,18,2.55,6.46,2.4,13.4,2,27-.33,11.1-.51,17.39-2,26-2.08,12-4,23.29-11,34C1257.15,328.14,1238.28,340.66,1231,336Z"
                  transform="translate(0 0)"/>
            <path class="cls-1"
                  d="M1064,463c3.12-13.11,7.12-20.49,10-25,1.67-2.61,6.83-10.29,19-20,12-9.58,19.36-12,34-20a313.71,313.71,0,0,0,37-24c22-16.15,33-24.23,41-36s9.8-20,17-21,13.68,6.1,22,15c5.18,5.54,8.12,11,14,22a20.35,20.35,0,0,1,3,10,19.61,19.61,0,0,1-3,10c-11.93,20.48-22,29-22,29-30.11,25.48-45.16,38.22-49,41-22.19,16.08-25.65,17.26-66,44-41,27.19-49.5,33.94-56,30C1052.69,510.57,1061.54,473.39,1064,463Z"
                  transform="translate(0 0)"/>
            <path class="cls-2"
                  d="M1131,410c-1.35-4.49,3-9.47,6-13,9.32-10.79,21.68-14.58,27-16,27.51-7.36,60.34-3.49,61,3,.39,3.8-10.73,4.09-35,18-16.53,9.47-20.6,14.62-32,16C1147.18,419.35,1133,416.86,1131,410Z"
                  transform="translate(0 0)"/>
            <path class="cls-3"
                  d="M798,784c-3,10-5.92,49.88-8,63-.48,3-2,22.35-5,61-.69,8.83-1.4,18.79,1,31s4.38,22.28,9,27c.32.33,2.64,2.65,2,4-.45,1-2,.66-5,2-1.81.81-2.71,1.21-3,2-.48,1.31.9,2.6,4,7,2.94,4.17,3.17,5.11,3,6-.35,1.84-2.1,2-3,4-1.19,2.68.43,5.75,1,7,3.39,7.46-.12,20.22,0,22.5,0,0,312-.5,312,0-2-17.5-25.66-81.45-30-86.5-.39-.46-2.4-2.62-2-5,.36-2.14,2.54-3.68,3-4,2.18-1.54,3.86-1.26,4-2,.32-1.68-8.23-3.79-8-6,.09-.82,1.72-1.55,5-3s3.83-1.36,4-2c.4-1.52-3.31-2.91-8-8a15.34,15.34,0,0,1-3-4,13.84,13.84,0,0,1-1-8c2.7-19.51-2.41-39.32-3-59-1.33-44.74-5.19-61.73-7-69-2.12-8.49-3.46-13.86-5-17-22.07-44.89-211.39,28.25-236,18-1.19-.49-10.6-4.75-15-1-.94.8-1.62,2.2-3,5a28.42,28.42,0,0,0-3,9C797.59,781.08,798.18,783.44,798,784Z"
                  transform="translate(0 0)"/>
            <path class="cls-2"
                  d="M752,317c.91-2.55,4.28-6.37,11-14,4.16-4.73,6.14-6.43,11-12,5.09-5.83,8.28-10.1,9-11,6.76-8.43,32.81-15.07,78-5,40.66,9.06,70.36,15.68,81,41,5.54,13.2,5.27,30-2,43-16.52,29.67-62.56,28.35-75,28C799.16,385.16,746.48,332.43,752,317Z"
                  transform="translate(0 0)"/>
            <path class="cls-1"
                  d="M765,299c3,5,10,14.37,19,25,16,19,30.08,27.67,49,34,11.34,3.8,32.72,10.67,58,5,9-2,17.41-3.9,25-11,8.12-7.59,16.36-22.15,17-38,.21-5.21-.48-8.53,2-12,5.59-7.82,20.09-6.37,23-6,27,3.44,44.14,39.47,52,56,11.89,25,16,45.79,19,61,26.43,133,26.71,118.62,28,138,0,0,5.7,85.31,10,118a111.57,111.57,0,0,0,2,11c1.16,4.72,2.64,9.07,5,16,2.73,8,3.38,9.29,3,12-.55,3.89-2.36,4.51-3,9s1,5.19,1,10c0,6.79-3.36,12.29-5,15-3.28,5.4-5.16,5.3-6,9-1.09,4.8,1.63,6.93,1,11-.32,2.1-1.8,6.43-11,11-25.52,12.67-67,16-67,16-35.56,2.85-76.71,7.73-79,8-14.13,1.68-25,3.15-41,3-11.11-.11-20.41-1.07-39-3-8.71-.9.86-.07-24-4-10.08-1.59-15.69-2.37-19-7-2.18-3-2.61-6.72-3-10-1-8,1.92-9.77,0-14-1.36-3-4.24-5-10-9-3.92-2.72-5.37-3.08-6-5-.79-2.41.85-3.84,3-10,1.78-5.1,2.68-7.66,2-10-1-3.35-3.65-3.21-9-8-2.64-2.37-7.44-6.76-9-13-.87-3.49-.08-4.9,0-9,.1-5.3-1.11-9.77-7-23-4-8.91-6-13.37-9-19-7.3-13.48-10.42-27.6-15-51-12.83-65.58-19.24-98.37-22-136-4.13-56.35,2.88-44-1-75-1.06-8.51-3.71-26.37,5-43a69.54,69.54,0,0,1,10-14c4.32-4.53,6.24-5.1,22-16,10.24-7.08,15.11-10.94,18-13C761,303,763,300,765,299Z"
                  transform="translate(0 0)"/>
            <path class="cls-4"
                  d="M758,313a125.32,125.32,0,0,0,15,23,117,117,0,0,0,46,35c22.4,9.35,41.12,8.64,58,8,27.37-1,38.33-8.16,41-10a49,49,0,0,0,17-19,45.1,45.1,0,0,0,3-8"
                  transform="translate(0 0)"/>
            <path class="cls-1"
                  d="M740,322c-11.27-5.22-32.75,16.24-41,26a97.44,97.44,0,0,0-14,22c-11.73,25.34-10.25,49.16-9,66,1.66,22.37,7,39,16,67,5.12,15.93,9.42,26.26,11,30a279.93,279.93,0,0,0,21,41c9.37,14.93,12.1,15.7,26,35,14.69,20.4,12.42,20.62,26,40,2,2.91,23.29,32.89,48,51a62.14,62.14,0,0,0,25,10c3.5.56,9.64,1.48,11-1,1.5-2.73-3.83-7.68-7-12-7.53-10.26-6.59-22.08-5-42,1-12.17,5.31-25.11,14-51,5.62-16.75,9.6-26,18-29,3.66-1.32,7-1.06,9-4,3.63-5.33-1.33-15.11-5-20a38.1,38.1,0,0,0-12-10,56.66,56.66,0,0,0-11-5c-5.27-1.91-11.77-6-25-23a275.89,275.89,0,0,1-27-42c-13-25.62-8.92-26-18-42"
                  transform="translate(0 0)"/>
            <path class="cls-2"
                  d="M1038,573c-2.12-1.72.31-4.43,3-26,1.1-8.79,1.27-13,4-19,2-4.41,4.19-7.18,8-12,5.11-6.47,7.57-8.12,16-17,9.56-10.07,8.12-9.76,12-13,8.64-7.22,20.52-12.74,23-10,1.24,1.37-.19,4.48-3,10-9.74,19.16-15,26.15-19,35-6.37,14.11-1.43,15-7,26C1065.33,566,1043.29,577.33,1038,573Z"
                  transform="translate(0 0)"/>
            <path class="cls-2"
                  d="M1078.5,511.54c2.28.72,1.57,11.1,5.5,16.5,4.64,6.37,11.78,8.47,17,10,11.08,3.25,20.43,1.88,26,1,8.68-1.37,15.79-4.58,30-11,11.63-5.25,17.51-8,21-12,2.31-2.68,4-5.61,8-7a14.2,14.2,0,0,1,13,2c6.73,5.34,4.78,16.52,4,21-1.83,10.5-7.8,17.39-11,21-7.87,8.87-16.51,12.8-26,17a130.3,130.3,0,0,1-30,9c-19.12,3.52-26.24,1.74-44,3-37.65,2.68-55,14.21-59,8-2.34-3.65,2.94-8.75,17-31C1066.2,533.39,1073.63,510,1078.5,511.54Z"
                  transform="translate(0 0)"/>
            <path class="cls-2"
                  d="M1118,561c21.18-4.76,43.64-4.48,64-12,4-1.48,12.46-4.79,17-1,5.34,4.45,2.64,16.51,0,23-2,4.84-6,11.71-15,18-10,7-20.69,9.48-49,11-30.68,1.65-30.38-.66-51,1-29.77,2.39-44.1,8.29-47,3-2.72-5,6.77-15.76,14-22C1063.79,571,1073.06,571.13,1118,561Z"
                  transform="translate(0 0)"/>
            <path class="cls-2"
                  d="M1050,622a117.67,117.67,0,0,0,34,5c16.49.06,28.66-3.63,53-11,6.82-2.07,14.41-4.6,22-11,4.92-4.14,11.89-10,11-15-1.85-10.32-37.13-14.92-67-12-38.88,3.8-78.41,21.32-77,32C1026.65,614.92,1035.79,617.71,1050,622Z"
                  transform="translate(0 0)"/>
            <path class="cls-1"
                  d="M845,622a73.13,73.13,0,0,1,16-35c3.79-4.47,10.6-12.34,22-17,8.62-3.53,15.53-3.45,30-3,33.39,1,50,2,50,2s25.53,1.49,45,0c11.47-.88,16.18-2.67,19-4s4.13-2.37,7-3c7.7-1.68,14.62,2.22,16,3,11.24,6.34,14.1,20,16,29,2.44,11.64.66,19.46,0,22-2,7.49-5.19,11.13-6,12a24.27,24.27,0,0,1-9,6c-13.2,5.4-13,11-68,37-17.66,8.36-30.11,13.58-55,24-3,1.26-28.13,11.55-58,13-4.41.21-16.4-.22-21.5-3.5"
                  transform="translate(0 0)"/>
            <path class="cls-4" d="M815,634a249.93,249.93,0,0,1,50-49" transform="translate(0 0)"/>
            <path class="cls-4"
                  d="M801,595a91.09,91.09,0,0,0,28-9c7.66-4,20.12-11.89,25-15,6.8-4.33,12.24-8,20-8a26.49,26.49,0,0,1,10,2"
                  transform="translate(0 0)"/>
            <path class="cls-4" d="M881,583a80.31,80.31,0,0,0-7,20c-2.47,12-1.62,22.21-1,29,.31,3.36.7,6.12,1,8"
                  transform="translate(0 0)"/>
            <path class="cls-4" d="M787,735a194,194,0,0,0,42,15c22,5.09,39.33,5,56,5a340.42,340.42,0,0,0,51-4"
                  transform="translate(0 0)"/>
            <path class="cls-4" d="M892,739a155.1,155.1,0,0,0,127-62" transform="translate(0 0)"/>
            <path class="cls-4"
                  d="M800,779a297.82,297.82,0,0,0,56,6c46.26.55,80.82-9.87,107-18,33.49-10.4,49.76-20.09,56-24a196.72,196.72,0,0,0,32-25"
                  transform="translate(0 0)"/>
            <path class="cls-4"
                  d="M1016,934a50.29,50.29,0,0,0-17,18.61c-3.25,6.2-4.49,11.83-6,18.61-1.64,7.41-1.89,11.86-3,23-.61,6.11-1.57,15.13-3,26.28"
                  transform="translate(0 0)"/>
            <path class="cls-4" d="M1025,946a174.41,174.41,0,0,1-15,10c-4.52,2.69-8.88,5-13,7"
                  transform="translate(0 0)"/>
            <path class="cls-4" d="M1025,974c-5,.48-10.36.84-16,1-4.89.14-9.56.13-14,0" transform="translate(0 0)"/>
            <path class="cls-4"
                  d="M789,938l39-11c29.91-8.45,36.07-10.23,46-14,14.32-5.44,22.6-9.76,23-9,.57,1.09-15.59,11.35-32,20-14.34,7.56-20.67,9.58-41,20-7.37,3.77-13.29,7-17,9"
                  transform="translate(0 0)"/>
            <path class="cls-4"
                  d="M833,803c-2.45,27.31-4.38,51.35-6,72,0,0-2.57,32.65-1,45a121.38,121.38,0,0,1,1,14v18c0,9.21-.73,16.09-1,24a204,204,0,0,0,1,28"
                  transform="translate(0 0)"/>
            <path class="cls-4" d="M800,968q8.35-2.79,17-6c12-4.48,23.37-9.19,34-14" transform="translate(0 0)"/>
            <path class="cls-4"
                  d="M838,835a85.42,85.42,0,0,0,18,0c9.45-1,16.94-1.79,24-7,4.8-3.54,7.84-8,12-14a93.39,93.39,0,0,0,6-10"
                  transform="translate(0 0)"/>
            <path class="cls-4" d="M928,798c-1,16.9-1.63,29.59-2,37-.82,16.39-1.15,24.62-4,36a124,124,0,0,1-6,18"
                  transform="translate(0 0)"/>
            <path class="cls-4" d="M959,797c-1.23,6.86-2.86,14.23-5,22-1.56,5.67-3.25,11-5,16"
                  transform="translate(0 0)"/>
            <path class="cls-4" d="M998,790c3.53,22.85,6.13,42.18,8,57,2.48,19.67,3.52,30.26,4,43,.46,12,.26,22.06,0,29"
                  transform="translate(0 0)"/>
            <path class="cls-4" d="M1030,788a331.73,331.73,0,0,1,4,43c.45,16.79-.6,26.59-1,30a177.74,177.74,0,0,1-4,22"
                  transform="translate(0 0)"/>
            <path class="cls-4" d="M1052,927l14-9c1.85-1.19,3.67-2.36,4-2s-1.38,2.75-6,8c-3.12,3.55-7.49,8.37-13,14"
                  transform="translate(0 0)"/>
            <path class="cls-2"
                  d="M1139,424c-2.66-7.38,1.2-14.63,3-18,5.69-10.68,15.76-15.33,24-19,8.64-3.85,17.21-5.28,34-8,18.76-3,28.14-4.55,34-3,9.93,2.63,9.91,6.83,31,21,14.92,10,23.77,13.87,23,16s-10.12-2-25-1c-18.72,1.19-19.67,8.73-36,8-17.58-.79-23-2-23-2-3.39-.76-7.66-2-12,0-3.62,1.63-5,4.39-7,7-5.49,7-15.33,12-24,12C1153.09,437,1142.21,432.94,1139,424Z"
                  transform="translate(0 0)"/>
            <path class="cls-2"
                  d="M1209,406c-.49,5.23,16,7.57,17,18,.48,5.23-3.17,10.17-6,14-4.74,6.4-7.41,5.72-12,12-2.1,2.87-5.82,8-6,15,0,1.38-.17,12.07,7,16,5.41,3,11.78.33,15-1,8-3.3,8.19-7.59,16-13,10.38-7.19,14.18-2.5,22-9,6.9-5.74,9.3-13.85,12-23,1.79-6,2.89-10,2-15-1.55-8.78-7.93-14.23-10-16C1247.29,388,1209.72,398.3,1209,406Z"
                  transform="translate(0 0)"/>
            <path class="cls-2"
                  d="M932,63c4.63-7.56,17.06-8.75,30-10a74.51,74.51,0,0,1,29,3c7.68,2.38,15.82,4.89,23,12,12.26,12.14,12.8,28.85,13,35,.52,16.08-5.54,28.13-10,37-1.3,2.59-.11-.1-16,24-4,6-5,7.62-7,8-7.49,1.42-15.93-16.59-27-37C940.07,85.37,925.68,73.35,932,63Z"
                  transform="translate(0 0)"/>
            <path class="cls-5"
                  d="M700,190c4,0,8.57-1.63,17-6,4.53-2.35,8.88-6.23,15-17,8.87-15.62,12-29,14-36,7.4-25.41,23.55-44.2,33-53,19.13-17.83,40.69-22.67,60-27,19.67-4.42,45.65-10.24,76,0,37.94,12.81,57.5,42.22,64,52,12.51,18.81,17.47,36.62,20,46a179.92,179.92,0,0,1,6,48c.11,19.37.19,34.46-5,46a68.66,68.66,0,0,0-5,18,30.66,30.66,0,0,0,0,10c.56,3.16,1.6,8.94,6,12,1.75,1.21,2.66,1,3,2,1.09,3-6.8,8.44-12,12-8,5.47-12,8.2-17,9-2.42.38-5.59.52-6,2s2,3.2,3,4c5.65,4.32,11.27,2.26,12,4,1.14,2.71-10.2,12.57-25,17-12.51,3.74-24,2.56-29,2-4.53-.51-11-2-11-2a33.88,33.88,0,0,1-6,6,38.06,38.06,0,0,1-9,5c-9.55,3.47-21.57,1-30-4-4.82-2.83-6.42-5.26-13-8a58.39,58.39,0,0,0-10-3,87.42,87.42,0,0,0-17-2c-16.74-.47-37.53-10.52-51-21-8-6.22-14.48-13.42-14-14,.23-.27,1.82,1.15,5,2a18.31,18.31,0,0,0,9,0c2.9-.74,7.21-2.63,7-4-.25-1.6-6.5-1.74-10-2-14.12-1-24.79-6.92-34-12-8.81-4.86-20.83-11.49-28-25-4-7.48-6.13-16.45-5-17,.52-.25,1.37,1.46,4,3s5.16,1.78,8,2c1.9.15,9.54.75,10-1,.4-1.55-5.26-3.34-12-8a65.68,65.68,0,0,1-15-15C705.43,211.38,699,197,700,190Z"
                  transform="translate(0 0)"/>
            <path class="cls-6"
                  d="M715,192c5-1,11.88-1.93,18-4,8.77-3,13.41-11.13,20-25,14.27-30,13.81-36.58,21-50,2.74-5.11,14.78-26.53,39-41,22.19-13.26,43.67-14.15,64-15,16.29-.68,27.79-1.16,42,4,20.77,7.54,32.65,21.79,42,33,18.63,22.34,25.43,44.79,29,57,4.28,14.66,8.35,28.58,7,47-.89,12.14-5.56,45.82-9,58a24.66,24.66,0,0,0-1,8,26.86,26.86,0,0,0,3,11c3,5.82,5.93,6,6,9,.08,3.64-4.24,6.36-10,10-7.63,4.82-13.13,8.28-20,8-1.56-.06-3.69-.34-5,1-1.7,1.73-1.36,5.48,0,8,3.75,6.93,15.78,5.48,16,8s-11.94,5.5-14,6c-14.64,3.55-23,5.59-32,2-5.47-2.19-8.83-5.54-13-4-3,1.1-3.23,3.53-6,6-5.47,4.88-13.94,3.83-20,3-11.26-1.55-12.7-5.1-25-9-10.3-3.27-10.38-1.12-31-5a200.69,200.69,0,0,1-25-6c-13.94-4.4-26.51-10.31-26-12,.24-.82,3.24.41,8-1,5.86-1.74,9.33-6,11-8,2.27-2.76,5-6.09,4-8-1.36-2.61-8.62-.64-15,0-14.67,1.46-26.29-4-37-9-16.2-7.59-31-20.55-29-25,.91-2,4.49-.68,11-4,1.23-.63,10.35-5.28,10-10-.3-4-7.08-4-17-11-4.62-3.27-12.91-9.3-15-19A88.64,88.64,0,0,1,715,192Z"
                  transform="translate(0 0)"/>
            <path class="cls-2"
                  d="M888,69a17.22,17.22,0,0,0,4-7c1.29-4.26.85-8.61-1-14a73.14,73.14,0,0,0-19-29c-4.63-4-18.23-15.33-39-16-2.46-.08-26.72-.47-45,18-9.93,10-13.21,20.7-17,33-2.52,8.19-7.62,25.46-3,46,2.09,9.3,4.41,19,13,24s18.3,2.45,20,2c8.24-2.19,13.14-7.57,19-14,8.12-8.91,6.42-11.12,14-19,3.61-3.76,10-10.37,20-14,3-1.07,8-2,18-4C879.8,73.52,884.28,72.91,888,69Z"
                  transform="translate(0 0)"/>
            <path class="cls-7"
                  d="M936,213a19.1,19.1,0,0,0-5-5,19.46,19.46,0,0,0-9-3c-7.32-.73-12.79,1.55-18,3a68.45,68.45,0,0,1-31,1c-7-1.27-12.75-2.29-18-7-8.78-7.88-9-19.5-9-21,0-14.15,10.9-23.68,17-29,18.28-15.93,40.39-15.34,46-15,7.18.43,16.79,1,26,8,1.77,1.34,13.78,10.72,15,25,.77,8.95-3,16-1,17,1.18.59,3-1.53,9-7,11.29-10.29,13.69-10.84,15-11,6.56-.79,12.23,5.14,14,7,4.66,4.88,5.85,10,8,20,2.36,10.92,4,18.76,1,28-1.4,4.22-3.44,10.39-9,13-5,2.36-10.32.58-18-2a67.63,67.63,0,0,1-16-8C945.73,222.32,940.34,218.82,936,213Z"
                  transform="translate(0 0)"/>
            <path class="cls-2"
                  d="M856,173a22.73,22.73,0,0,0,0,12c2.56,9.3,10.46,13.93,14,16,9.24,5.41,18.23,5.18,25,5,7.75-.2,17.12-.45,26-7a35.1,35.1,0,0,0,12-16c1.4-3.84,4.1-11.28,1-19-3.17-7.88-10.49-11.34-14-13-16.16-7.64-33.12-.78-40,2C872.14,156.21,859.34,161.39,856,173Z"
                  transform="translate(0 0)"/>
            <path class="cls-6"
                  d="M899,180c.74-3,5.41-4.14,9-5,6.28-1.51,10.48-2.52,13,0,3.06,3.06,1.41,9.1,0,12-.69,1.43-2.31,4.78-6,6-3.52,1.16-6.65-.35-8-1-4.33-2.09-6.09-6-7-8S898.72,181.19,899,180Z"
                  transform="translate(0 0)"/>
            <path class="cls-2"
                  d="M955,199c-.27-1.33-.22-3.1,3-9,4.18-7.65,6.27-11.48,10-13a14.44,14.44,0,0,1,10,0c6.53,2.68,8.68,10.28,12,22,1.53,5.41,2.39,8.56,2,13-.26,2.95-.82,9.43-6,14a16.39,16.39,0,0,1-9,4c-1.18.12-6.65.7-11-3a13.86,13.86,0,0,1-4-6c-.8-2.27-.33-2.76-1-7a30.92,30.92,0,0,0-2-8C957.19,201.86,955.54,201.72,955,199Z"
                  transform="translate(0 0)"/>
            <path class="cls-6"
                  d="M962,199a8.69,8.69,0,0,1,5-5,9.63,9.63,0,0,1,7,0,8.66,8.66,0,0,1,5,4c1.83,3.63-.1,7.82-2,10a8,8,0,0,1-5,3,8.17,8.17,0,0,1-6-2C963.61,207.19,960.65,203.17,962,199Z"
                  transform="translate(0 0)"/>
            <path class="cls-8"
                  d="M939,284a46.05,46.05,0,0,0-9,8c-2.06,2.26-3,3.62-3.91,4.56A36.55,36.55,0,0,0,924,286a38.86,38.86,0,0,0-7-12c-8.1-9.47-18.37-12.22-25-14-3.35-.89-6-1.59-8-1.93-1-3.81-1.39-7.16,0-8.07,2.57-1.63,6.63,7.34,17,10,10.21,2.62,24-1.51,29-3,4.25-1.27.86,1.57,3,3,3.66,2.44,6.88,5.06,12,12,2.17,2.94,4.12,3.73,5,4,3.09,1,5.9-.33,6,0s-4,1.79-9,4A53.76,53.76,0,0,0,939,284Z"
                  transform="translate(0 0)"/>
            <path class="cls-9"
                  d="M916,298a44,44,0,0,1-19-11c-6.06-6.44-8.11-12.89-11-22-.7-2.19-1.48-4.65-2-6.93a76.84,76.84,0,0,1,8,1.93c6.63,1.78,16.9,4.53,25,14a38.86,38.86,0,0,1,7,12,36.55,36.55,0,0,1,2.09,10.56A5.9,5.9,0,0,1,924,298C921.62,299,919.11,298.86,916,298Z"
                  transform="translate(0 0)"/>
            <path class="cls-4"
                  d="M926.09,296.6c.92-.94,1.85-2.3,3.91-4.56a46.05,46.05,0,0,1,9-8,53.76,53.76,0,0,1,8-4c5-2.21,9.12-3.61,9-4s-2.91,1-6,0c-.88-.27-2.83-1.06-5-4-5.12-6.94-8.34-9.56-12-12-2.14-1.43,1.25-4.27-3-3-5,1.49-18.79,5.62-29,3-10.37-2.66-14.43-11.63-17-10-1.44.91-1,4.26,0,8.07.57,2.28,1.35,4.74,2,6.93,2.89,9.11,4.94,15.56,11,22a44,44,0,0,0,19,11c3.11.82,5.62,1,8,0A5.9,5.9,0,0,0,926.09,296.6Z"
                  transform="translate(0 0)"/>
            <path class="cls-4"
                  d="M884,258.11a76.84,76.84,0,0,1,8,1.93c6.63,1.78,16.9,4.53,25,14a38.86,38.86,0,0,1,7,12,36.55,36.55,0,0,1,2.09,10.56"
                  transform="translate(0 0)"/>
            <path class="cls-10"
                  d="M933.5,260.38a25.44,25.44,0,0,0,2.09,7.66c1.14,2.51,3.28,7.25,8.37,9.85A16.64,16.64,0,0,0,955.47,279a18.72,18.72,0,0,0,8.37-4.38c2.47-2.25,3.64-4.54,5.23-7.66a27.54,27.54,0,0,0,3.14-8.75,24.65,24.65,0,0,0,0-7.66"
                  transform="translate(0 0)"/>
            <path class="cls-10"
                  d="M945,239c-1.49,5.45-4.19,12.88-9,19a20.29,20.29,0,0,1-4,4c-3.93,2.91-8.06,3.57-12,4-11.39,1.24-17.09,1.85-24,0-4.92-1.32-12.31-3.3-18-10a34.47,34.47,0,0,1-7-15,61,61,0,0,1-1-8,56.5,56.5,0,0,1,0-6"
                  transform="translate(0 0)"/>
            <path class="cls-2"
                  d="M927.22,214.17l-2.61,6.71A9.5,9.5,0,0,0,929.25,233l22.44,9.87a8.29,8.29,0,0,0,10.85-4.45h0l.15-.39,1.81-4.49a9.57,9.57,0,0,0-3.89-11.88L939,209.56C934.56,207.1,929.14,209.23,927.22,214.17Z"
                  transform="translate(0 0)"/>
            <path class="cls-6"
                  d="M934.15,215.63l-1.27,2.49c-.89,1.76.12,3.78,2.25,4.5l10.9,3.66a4.49,4.49,0,0,0,5.34-1.8l.88-1.67c.87-1.65,0-3.58-1.89-4.41l-10.51-4.49A4.52,4.52,0,0,0,934.15,215.63Z"
                  transform="translate(0 0)"/>
            <polygon class="cls-11" points="838.5 695.51 855.5 697.51 855.5 648.51 838.5 642.51 838.5 695.51"/>
            <path class="cls-4"
                  d="M1048.5,472.54a52.37,52.37,0,0,1,5-18c7.65-15.64,20.74-21.42,19-25-1.94-4-19.49.6-21,1a66.39,66.39,0,0,0-11,4"
                  transform="translate(0 0)"/>
        </g>
        <g id="Layer_3" data-name="Layer 3">
            <path class="cls-12"
                  d="M1412,686a16.78,16.78,0,0,1,3-10c.39-.54,4.78-6.42,10-6,7.16.58,11,12.64,12,19,1.22,7.68.43,20.21-5,22C1425.32,713.24,1411.91,699,1412,686Z"
                  transform="translate(0 0)"/>
            <polygon class="cls-13" points="1393 948.01 1388 963.01 1397 968.01 1401 953.01 1393 948.01"/>
            <polygon class="cls-5" points="1267 825.01 1258 834.01 1262 842.01 1272 833.01 1267 825.01"/>
            <path class="cls-14"
                  d="M1573,718c-2.87,5.67-5.13,15.77-6,24-1.11,10.41-.07,19.61,2,38,1.25,11.08,2.09,14.87,2,23a115,115,0,0,1-2,20c-4.24,22.82-16.07,56.39-22,75-6.26,19.63-10.84,40.09-20,81-4.38,19.56-6.56,38.9-6,41.5h340c1.36-2.3,4.58-10.37,7-15.5,5.56-11.78,39.18-90,16-177a289.42,289.42,0,0,0-12-35c-3.23-7.86-6.93-15.93-33-63-16.84-30.4-19.83-35.2-24-47-5.91-16.7-4.59-20.24-9-24-15.7-13.38-47.23,18.88-101,34C1639.24,711.53,1586.48,691.4,1573,718Z"
                  transform="translate(0 0)"/>
            <path class="cls-15"
                  d="M1521,383c-8.64-3.66-21.92,8.15-33,18-8.46,7.52-13.58,13.94-29,35-25.45,34.76-22.65,32.51-32,44-17.8,21.86-26.69,32.79-29,35-5.38,5.16-9.09,8.12-11,14-3.67,11.29,4.08,18.63,9,34,9.52,29.73-4.44,49.18,7,57,4.31,3,9.36,2.28,19,1,3-.4,15-2.23,31-13,6.54-4.42,13.12-11,26-24,8.55-8.62,15.15-15.62,23-24,17.73-18.92,26.59-28.38,27-29,12.56-19.12,3.08-32.63,0-96C1527.36,401.23,1529.15,386.49,1521,383Z"
                  transform="translate(0 0)"/>
            <path class="cls-16"
                  d="M1533,372a108.34,108.34,0,0,0-28,34,111.55,111.55,0,0,0-11,40c-1,12,.92,12.26,1,33a265.79,265.79,0,0,1-2,38c-3,22.57-7,25-8,44-.47,9.28-.84,17.94,2,29,2.73,10.62,6.33,24.61,18,33,5.72,4.12,10.85,5.06,16,12,2.42,3.26,3.62,6.19,6,12,5.25,12.81,3.3,14.52,7,19,5.16,6.25,10.7,5,13,11,1.31,3.4.14,5.41,0,10,0,0-.25,7.94,6,20,6.69,12.91,30.55,25.53,61,31,27.52,4.94,48.92,2,69-1,19.36-2.86,45.89-7,74-24,13-7.84,22.48-13.56,29-25,12.37-21.68,4.57-47.2,0-63-33.74-116.59-23.47-158.22-65-211a203.62,203.62,0,0,0-29-30c-15.56-13-35-29.2-64-35C1625.58,348.55,1574,339,1533,372Z"
                  transform="translate(0 0)"/>
            <path class="cls-15"
                  d="M1537,379c-9.73,8.62-16.7,16.45-15,24,2.06,9.16,15.76,13.07,19,14,4.11,1.18,16.78,4.14,39-5,15.48-6.36,48.4-19.89,51-47,.21-2.24,1.78-18.56-8-26C1601.06,322.34,1547.54,369.71,1537,379Z"
                  transform="translate(0 0)"/>
            <path class="cls-15"
                  d="M1685,395c10.58-1,27.3-.79,44,8,25.49,13.41,36,38.88,39,46,4.36,10.52,3.24,13.23,9,26,7.12,15.77,15.26,25.88,20,32,6.52,8.41,27.91,36,44,70a173.53,173.53,0,0,1,16,58c.85,9.94.61,18.84-5,26-5.84,7.46-14.61,9.33-23,11-6.69,1.33-28.92,5.75-52-6-12.72-6.48-20.48-16.65-36-37-11.12-14.58-22.58-29.61-32-52-5.53-13.15-6.42-19.48-14-30-8.34-11.57-13.57-12.65-23-24a99.49,99.49,0,0,1-19-35c-2.25-7.66-8.26-29.26,1-54A82.62,82.62,0,0,1,1685,395Z"
                  transform="translate(0 0)"/>
            <path class="cls-17" d="M1758,771a105.33,105.33,0,0,0,25-11,103.19,103.19,0,0,0,24-20,99.3,99.3,0,0,0,9-12"
                  transform="translate(0 0)"/>
            <path class="cls-17" d="M1725,837c7.28-3.41,15.29-6.8,24-10a300.4,300.4,0,0,1,29-9"
                  transform="translate(0 0)"/>
            <path class="cls-17"
                  d="M1574,806a154.72,154.72,0,0,0,20,23c18.06,17,35.68,25.37,50,32a242.11,242.11,0,0,0,51,17"
                  transform="translate(0 0)"/>
            <path class="cls-17"
                  d="M1581,795c13.19,7.47,24.56,13.08,33,17,16,7.44,27.74,12.83,44,17a183.57,183.57,0,0,0,29,5"
                  transform="translate(0 0)"/>
            <path class="cls-15"
                  d="M1584,692c6.6-4.42,6.76-3.54,26-14,18.39-10,31.71-18.12,43-25,35.41-21.59,32.56-22.48,52-33,14.48-7.84,28.73-15.44,49-21,18.23-5,34.17-9.37,54-5,9.36,2.06,30.78,6.79,42,26,1.66,2.84,10.37,18.47,5,36-1.59,5.18-5.31,13.49-20,25-21.12,16.56-42.92,22.49-53,25-35.82,8.92-50.21,6.07-119,13-21.65,2.18-32.47,3.27-43,5-48.45,8-69,19.31-73,13C1542.43,729.87,1563,706.08,1584,692Z"
                  transform="translate(0 0)"/>
            <path class="cls-18"
                  d="M1330,643l55.72,13.93a17.18,17.18,0,0,1,7.51,4.07L1540,797l-37,3-65-44.33a196.67,196.67,0,0,1-36.14-31.79Z"
                  transform="translate(0 0)"/>
            <path class="cls-18"
                  d="M1527,814c5.22,36.49,4,54,4,54-2.87,41.2,7.09,44.7,0,76-4.43,19.56-10.39,27.34-17,32-1.63,1.15-15.16,10.38-29,5-14.15-5.5-17.72-22-19-28-3.26-15.11,1.37-29.07,3-29,1.26,0,.38,8.41,5,21,2.39,6.52,4.49,12,10,16,1.23.89,7.86,5.7,15,4,3.66-.87,8.89-3.8,14-16,6.11-14.59,5.32-26.35,5-48-.85-58.3,3.68-56-1-69-2.6-7.18-8-19-3-25,1.82-2.16,5.32-4,8-3C1525.68,805.34,1526.62,811.37,1527,814Z"
                  transform="translate(0 0)"/>
            <path class="cls-15"
                  d="M1600,691c-6.27-.13-14.93,1.91-32,6-26.53,6.35-40.08,9.68-54,17a120.77,120.77,0,0,0-26,18c-6.62,6.19-10.61,11.49-17,20-4.4,5.86-6.94,9.86-9,15-2.45,6.1-4.13,10.29-3,14,3,9.71,23.65,11.29,33,12,22.26,1.7,39.66-2.72,56-7,14-3.67,24.82-6.59,38-14a147.08,147.08,0,0,0,26-19c4.9-4.32,10.6-10.55,22-23,12.42-13.57,13.09-15,13-17C1646.47,701.79,1621.9,691.48,1600,691Z"
                  transform="translate(0 0)"/>
            <path class="cls-19"
                  d="M1248,806c-2.14-4.63,1.19-13.29-2-25-2.55-9.37,2.9-34.3,6-37,.36-.32,13.91-17.54,41-52,29-36.89,26.53-47.91,37-49,14,7,20.69,18.77,62,64,15.51,17,24.48,26.8,38,38,43.82,36.29,60,39,73,55-9,14-19.84,30.21-46,68-18,26-24,30-33,49-4.52,9.54-5.66,20.82-3,34,2.11,10.49,6.7,17.45,4,20-1.76,1.66-6.57,1.42-20-7a175.77,175.77,0,0,1-42-37c-10.36-12.89-26.91-27.93-60-58C1268.24,837.45,1254,819,1248,806Z"
                  transform="translate(0 0)"/>
            <path class="cls-12"
                  d="M1503,800l-76.11,107.67a37.11,37.11,0,0,0-6.69,18.5l-2.08,26.39a6.83,6.83,0,0,0,.36,2.79l4.34,12.39a6.83,6.83,0,0,0,8.51,4.26l12.68-4,8.45,4.55a6.83,6.83,0,0,0,8.14-1.26l21.56-22.23a44.86,44.86,0,0,0,10.11-16.34L1540,797l-37,3"
                  transform="translate(0 0)"/>
            <path class="cls-19"
                  d="M1344,605c-3.81,7.31-2.06,13.24,0,28,1.48,10.61,4,32,5,51a67.5,67.5,0,0,0,6,26c1.38,3,4.89,10.46,8,10,2.11-.31,3.82-4.27,5-14,2.27-18.75-1.14-28.18-3-48-2.8-29.81-2-46-2-46,.49-10,1.47-17.22-2-19C1356.91,590.94,1348.08,597.19,1344,605Z"
                  transform="translate(0 0)"/>
            <path class="cls-15"
                  d="M1268,402c3.07-1,8.19-.52,28,19,16.82,16.57,24.14,27.07,41,47,16.35,19.33,24.76,29.17,36,38,17.87,14,20.24,10,29,20,16.14,18.41,6.32,30,24,53,6.16,8,12.62,13.42,14,24,.31,2.39,1.33,11.17-4,19-1.49,2.19-5.44,7.2-17,11-3.07,1-17.27,5.42-40,1a115.9,115.9,0,0,1-46-20,118.34,118.34,0,0,1-27-28c-7.74-10.8-12.6-22.68-22-46-6.47-16-12.81-31.91-19-54-7.59-27.09-7.94-38.56-8-42C1256.87,436.91,1256.32,405.86,1268,402Z"
                  transform="translate(0 0)"/>
            <path class="cls-19"
                  d="M1379,508c.21-1.52,6-2.23,10-2,3.29.19,12.44,1.4,23,13,19.73,21.67,29.08,62.8,30,67,7.31,33.22,9.85,58.76,12,81,4.55,47.14,1.16,51.59,3,77,0,0,.73,10.11-2,30a21.39,21.39,0,0,1-1,4c-1.09,3.09-4,9.18-7,9-2.38-.14-3.92-4.17-5-7-1.53-4-1.87-7.67-2-15-.1-5.4-.15-8.11,0-11,.81-15.84-1.81-46.24-3-60-1.57-18.16-2.52-29.25-5-45-3.17-20.16-6.74-34.69-11-52-6.62-26.91-10.55-37.29-12-41-7-17.84-18.21-38.21-24-42C1382,512.08,1378.84,509.19,1379,508Z"
                  transform="translate(0 0)"/>
            <path class="cls-15"
                  d="M1445,154c-5.28-4.1-4.68-13.5-4-24,.53-8.26,1.17-18.22,8-28,5.71-8.18,12.85-12.09,20-16,5.93-3.25,12.61-6.9,22-8,17.54-2.05,31,6.39,35,9,6.66,4.32,18.53,12,20,25a27.54,27.54,0,0,1-4,17c-9.91,15.07-28.84,6.48-67,19C1459.2,153.22,1450.78,158.52,1445,154Z"
                  transform="translate(0 0)"/>
            <path class="cls-13"
                  d="M1374,254c.59.77-4.67,4-4,8,.54,3.17,4.54,4.82,5,5,5.31,2.1,11.56-1,15-4,7.23-6.23,7.77-16.62,8-20,0,0,.8-11.75,16-57,11.23-33.43,38.13-53,45-58,28.79-20.94,58.31-23.83,72-25a151.6,151.6,0,0,1,50,4c12.28,3.14,32.51,8.54,52,25,23.83,20.13,32.43,44.87,37,58a160.74,160.74,0,0,1,9,57c-.83,26.25-1.24,39.37-2,43a46.5,46.5,0,0,0,0,21c1,4.06,2.56,10.06,8,14,1.11.8,6.62,4.79,13,3a12.17,12.17,0,0,0,7-5c3.06-4.94.78-11,1-11s4.7,10.28,2,23a35.11,35.11,0,0,1-6,14c-6.41,8.74-15.34,11.75-22,14a56.45,56.45,0,0,1-18,3c-9.13,0-14.9-2.37-15-2s9.32,5.61,20,4c3.89-.59,6.5-1.85,7-1,.84,1.43-5.53,6.84-10,10a51.32,51.32,0,0,1-13,7,50.65,50.65,0,0,1-30,1c-9.43-2.63-14.85-7.27-15-7s8.5,8.42,20,10c1.82.25,3.92.37,4,1,.18,1.36-9.12,3.8-15,5-8.45,1.73-19.82,3.93-34,1-6.4-1.32-14-3-21-9a38.67,38.67,0,0,1-7-8c-.13.1,5.86,9.94,14,14a42.47,42.47,0,0,0,8,3c3.27.79,5,.7,5,1,0,.84-13.1,3.21-28,3-11.71-.17-18.67-.27-27-4-7.16-3.21-13.63-8.33-17-11-.79-.63-3.41-4.14-8-7a18.93,18.93,0,0,0-4-2,17.49,17.49,0,0,0-10,0c-4,1-25.38,6-42,3a45.19,45.19,0,0,1-19-8c-3.25-2.41-8.15-6.14-11-13-2.23-5.36-2-13-2-13a28.29,28.29,0,0,1-7-1c-2.4-.66-7.95-2.18-12-7-3.58-4.25-5.21-10.15-4-11,.47-.33,1.11.28,3,1,4.08,1.55,8,1.29,8,1s-5.46-.62-12-4a27,27,0,0,1-6-4,25.4,25.4,0,0,1-6-8c-2.22-4.66-3.2-10.45-2-11,.51-.23,1.08.66,3,2,3.38,2.35,6.88,3.24,7,3s-5-2.25-11-7a34.6,34.6,0,0,1-8-8,29.76,29.76,0,0,1-5-16c-.06-3.42-.14-8.38,3-13C1366.82,255.42,1373.39,253.25,1374,254Z"
                  transform="translate(0 0)"/>
            <path class="cls-6"
                  d="M1693,338c-8.58,1.29-16.38-6.41-19-9-3.68-3.64-9.18-10.65-12-26-3.18-17.35.63-25.86,2-47a240.26,240.26,0,0,0-1-38c-1.78-15.2-5.55-47.54-30-74-20.49-22.18-45.23-29.12-56-32-30.3-8.09-54.92-2.45-70,1-16.12,3.69-36.22,8.54-55,25-12,10.56-18.66,21.61-23,29-12.72,21.66-17,42.87-19,53-2.54,12.69-8.06,25.06-8,38a15.14,15.14,0,0,1-2,8c-1.94,3.23-4.79,4.79-7,6-2.85,1.56-8.29,4.54-14,3-4.71-1.27-6.64-4.83-8-4s-.49,5.54,1,9c3.52,8.15,11.18,12.11,13,13,9.71,4.74,17.33,2.29,18,5,.58,2.36-4.63,6.51-10,8-6.4,1.77-11.08-.78-12,1s2.91,5.75,6,8c4.62,3.36,9.74,4.38,13,5,6.57,1.24,9.19.33,10,2,1.15,2.37-2.46,7.68-7,9-3.62,1.06-6.64-.77-7,0s3.47,4.2,8,6c3.35,1.34,6.84,2.73,11,2,1.28-.22,2.33-.6,3,0,1.25,1.12-.45,4.22-1,7-1.65,8.27,6.28,16.29,7,17,4.94,4.88,10.68,5.81,18,7a61.6,61.6,0,0,0,18,0c13.9-1.77,14-5.17,23-6,15-1.37,28.64,6.67,36,11,5.55,3.27,7.63,5.39,15,9,8.63,4.23,18.23,7.44,19,6,.48-.89-3-2.56-6-7-4.48-6.61-5.81-16.26-3-18s7.24,5.56,21,13a88.72,88.72,0,0,0,21,8c8.68,2.29,19.36,3.89,20,2,.41-1.2-3.66-2.36-7-7s-5.62-12.6-3-15c3.12-2.87,10.34,4.49,29,9a62.75,62.75,0,0,0,17,2c8.23-.22,17-2.21,17-4,0-1.23-4.16-1.22-10-4-6.66-3.17-14-9.27-13-12,.91-2.43,7.86-.69,26-1,9.8-.17,14.78-.29,19-2,11.07-4.5,18.27-15.4,17-17C1697.48,336.39,1695.84,337.61,1693,338Z"
                  transform="translate(0 0)"/>
            <path class="cls-15"
                  d="M1601,135a23.12,23.12,0,0,0,0,12c2.31,8.06,8.1,9.35,16,18,3.35,3.67,12,13.12,14,26,1.19,7.64-1.23,8.27,0,20,.93,8.92,1.59,14.45,6,19,6.17,6.37,15,6,16,6,7.88-.4,13.1-5.28,18-10,13.35-12.85,17.42-28.57,19-35a87.26,87.26,0,0,0,2-29c-.7-8.66-1.64-20.47-9-33-3.62-6.16-9-15.27-20-20-9.19-3.94-17.56-2.81-23-2C1624.94,109.27,1605,118.8,1601,135Z"
                  transform="translate(0 0)"/>
            <path class="cls-7"
                  d="M1469,214c-1.39-.55,2.83-9.29,1-21-.67-4.32-1.79-11.49-7-15-6-4-14.2-1.09-20,1-22.45,8.09-31.38,28.88-34,35-2.48,5.79-3.24,9.94-2,14,1.67,5.45,6.25,8.51,10,11a37.52,37.52,0,0,0,17,6,54.47,54.47,0,0,0,19-2c4.45-1.39,7.18-3,11-2,3.48.9,5.62,3.37,7,5,11.86,14,13,16,15,18,8.43,8.44,24.61,10.3,37,5,2.21-.94,15.07-6.72,19-20,3.7-12.5-2.95-23.42-10-35-5.76-9.46-12.51-14.64-26-25a12.74,12.74,0,0,0-7-3c-4.61-.29-8.58,2.63-13,7C1474.87,204,1470.52,214.63,1469,214Z"
                  transform="translate(0 0)"/>
            <path class="cls-15"
                  d="M1413,226c-1.75-8,2.7-15,4-17,3.18-5,6.88-7.37,14-12a62.54,62.54,0,0,1,17-8c5.93-1.71,9-2.56,12-1,5.25,2.75,5.78,10.68,6,14,.16,2.46.49,12.5-7,20a21.4,21.4,0,0,1-10,6c-3.73.91-4.59-.16-10,1a29.28,29.28,0,0,0-9,3c-2.34,1.31-3.42,2.44-6,3a9.46,9.46,0,0,1-5,0C1414.64,233.56,1413.31,227.45,1413,226Z"
                  transform="translate(0 0)"/>
            <path class="cls-6"
                  d="M1434,219a11.79,11.79,0,0,1,3-6c.78-.87,3.72-4.12,8-4,.91,0,3.55.1,5,2,1.81,2.37.45,5.84,0,7-1.49,3.82-4.7,5.67-7,7-2.79,1.61-5.14,3-7,2C1433.5,225.73,1433.66,221.11,1434,219Z"
                  transform="translate(0 0)"/>
            <path class="cls-15"
                  d="M1480,229a52.24,52.24,0,0,1,2-11c1.92-6.92,3.13-11.26,7-15a18.83,18.83,0,0,1,9-5c8.15-1.73,15.22,3.48,20,7,8.11,6,11.93,12.85,17,22,4.21,7.6,6.31,11.51,6,17-.45,8-5.5,13.39-7,15-8,8.62-19.13,9.08-23,9a32.19,32.19,0,0,1-18-6c-8.78-6.5-11.16-15.73-12-19A42.65,42.65,0,0,1,1480,229Z"
                  transform="translate(0 0)"/>
            <path class="cls-6"
                  d="M1496,237a11.67,11.67,0,0,1,1-6c.6-1.36,2.29-5.18,6-6s6.86,2,8,3a11.8,11.8,0,0,1,4,8,10.55,10.55,0,0,1-2,7c-1.85,2.45-5.3,4.59-9,4C1498.92,246.22,1496.4,240.75,1496,237Z"
                  transform="translate(0 0)"/>
            <path class="cls-8"
                  d="M1483,297c.69,1-6.08,6.71-10,10a88.41,88.41,0,0,1-12,9l-.89.54A65.11,65.11,0,0,0,1449,314c-4.75-.66-11.73-1.53-19,2-.46.22-1.79.87-3.24,1.75-.76-2.2-1.16-5.58-1.76-10.75-.94-8.08-1.38-12.14,0-13,2.83-1.76,7.29,6.63,18,10,9.41,3,18.62.46,24-1C1476.63,300.42,1482.38,296.1,1483,297Z"
                  transform="translate(0 0)"/>
            <path class="cls-9"
                  d="M1460.11,316.58c-5.08,3-9.73,5.64-16.11,6.46-4.06.53-11.85,1.53-16-3a6.3,6.3,0,0,1-1.24-2.25c1.45-.88,2.78-1.53,3.24-1.75,7.27-3.53,14.25-2.66,19-2A65.11,65.11,0,0,1,1460.11,316.58Z"
                  transform="translate(0 0)"/>
            <path class="cls-17"
                  d="M1460.11,316.58l.89-.54a88.41,88.41,0,0,0,12-9c3.92-3.29,10.69-9,10-10s-6.37,3.38-16,6c-5.38,1.46-14.59,4-24,1-10.71-3.37-15.17-11.76-18-10-1.38.86-.94,4.92,0,13,.6,5.17,1,8.55,1.76,10.75A6.3,6.3,0,0,0,1428,320c4.15,4.53,11.94,3.53,16,3C1450.38,322.22,1455,319.63,1460.11,316.58Z"
                  transform="translate(0 0)"/>
            <path class="cls-17"
                  d="M1426.76,317.79c1.45-.88,2.78-1.53,3.24-1.75,7.27-3.53,14.25-2.66,19-2a65.11,65.11,0,0,1,11.11,2.54"
                  transform="translate(0 0)"/>
            <path class="cls-20"
                  d="M1410,257a23.49,23.49,0,0,0-6,8,25.38,25.38,0,0,0-2,12,24.72,24.72,0,0,0,2,10,20.08,20.08,0,0,0,9,10,19.55,19.55,0,0,0,8,2,22.38,22.38,0,0,0,8-1"
                  transform="translate(0 0)"/>
            <path class="cls-20"
                  d="M1428,263a32.2,32.2,0,0,0-5,12,27.66,27.66,0,0,0,9,27,29.54,29.54,0,0,0,11,6c13.76,4.34,26.24-1.67,29-3a57.63,57.63,0,0,0,13-9,63.44,63.44,0,0,0,5-5"
                  transform="translate(0 0)"/>
            <path class="cls-15"
                  d="M1418.06,243.21l-1.38,6.56a7.84,7.84,0,0,0,3.47,8.31l17.16,10.43a7.09,7.09,0,0,0,9.74-2.38q.14-.23.26-.46l5-9.25a7.83,7.83,0,0,0-3.9-11l-20.79-7.73a7.25,7.25,0,0,0-9.56,5.52Z"
                  transform="translate(0 0)"/>
            <path class="cls-6"
                  d="M1433.11,247.95l-.56,2.64a3.15,3.15,0,0,0,1.4,3.34l6.9,4.19a2.85,2.85,0,0,0,3.91-1h0l.09-.16,2-3.72a3.15,3.15,0,0,0-1.24-4.28h0l-.33-.16-8.36-3.11a2.91,2.91,0,0,0-3.81,2.24Z"
                  transform="translate(0 0)"/>
            <path class="cls-17"
                  d="M1531.5,627.54c14.4,3.81,26.66,6.8,36,9,22.74,5.35,30,6.41,37,7a161.8,161.8,0,0,0,27,0"
                  transform="translate(0 0)"/>
        </g>
        <g id="Layer_5" data-name="Layer 5">
            <path class="cls-21"
                  d="M695.5,380.54c4.73-14.87,17.11-27.14,21-31,2.72-2.69.34,0,21-16,5.18-4,8.15-6.36,12-6,6.44.61,10.51,8.36,12,11,6.75,12,17.5,20,39,36,19.73,14.68,41.54,15.65,72,17,35.16,1.56,50.94-6.67,55-9,10-5.76,15.75-9.06,19-16,1.52-3.24,2.35-7,6-9,3.33-1.85,5.17-.16,12-1a39.32,39.32,0,0,0,13-4c6.67-3.49,6.93-6.54,10-7,8.36-1.25,18,19.58,20,24,7.32,16.22,10.59,30.55,14,51,7,41.93,5.08,52.62,11,67a97.21,97.21,0,0,1,6,21c.83,4.94,1.47,8.89,1,14-.17,1.82-1.27,12.46-8,21-3.84,4.87-10.66,10.52-28,14-7,1.4-27.59,4.84-60-3-34.58-8.37-62.52-24.73-62-26,.09-.22,1.28.06,3.67.63,16.64,4,25,6,26.33,6.37,14.83,4.23,31.59,4.78,32,3s-16.62-7.54-42-16c-23-7.65-30.63-9.51-41-17-7.66-5.53-12-10.66-19-19-4.12-4.89-10.16-12.55-35-54a241,241,0,0,0-18-26c-4.94-6.23-12.86-16.22-15-15-1.74,1,1.38,8.82,6,23,6.16,18.93,4.81,17.92,10,34,7,21.65,12.27,38,23,57,10.55,18.66,16.66,29.48,30,37,13.72,7.74,29.28,8.72,29,11-.18,1.47-6.59.85-15,3-10,2.57-11.77,6.22-24,13-14.33,7.94-25.69,10.52-41,14-.85.19-12.38,2.77-13,1s10.63-4.36,14-13c3.24-8.31-2-19-5-19-1.81,0-1.81,4-6,10-1.67,2.38-7,10-12,10-6.45,0-10.65-12.42-16-24-10.46-22.64-15.83-21.42-27-42-9.55-17.58-5.35-18-21-71C695.42,401.38,691.34,393.61,695.5,380.54Z"
                  transform="translate(0 0)"/>
            <path class="cls-21"
                  d="M796.5,608.54c-.14-1.47,7.65-2.89,17-6a150,150,0,0,0,21-9,198,198,0,0,0,25-15c.1.15-15.3,7.6-29,22-18.32,19.25-23.21,40-26,39-1.77-.64-1.8-9.69,2-17,2.6-5,5.71-6.72,5-9C810.11,609.09,796.68,610.45,796.5,608.54Z"
                  transform="translate(0 0)"/>
            <path class="cls-21"
                  d="M852.5,653.54c1.94-.49-.26-9.67,1-23,1.82-19.28,9.64-34.37,11-34,1.1.3-2.91,10.58-2,26,.91,15.57,6.59,32.22,11,32,4.06-.2,6.69-14.72,8-22,2.49-13.79.76-19.73,5-32,2-5.86,3.1-9,6-12,7.7-8.06,20.25-7.32,29-7,19.64.72,42.06,1.55,62-2,20.25-3.61,29-10.13,47-7,5.22.9,12,2.75,18,8,7.15,6.24,13.49,17.53,10,24-3.23,6-13.72,5.68-22,6-30.92,1.18-26.06,11-85,24-25.65,5.68-38.39,6.44-49,15-6.49,5.23-13.67,9.58-20,15-5.77,4.94-8,7.44-11,7-8.06-1.16-10.83-21.42-13-21-2,.38,1.65,16.93-3,19-3.26,1.46-9.52-4.72-13-10-8.55-13-6.93-30.41-4-31C842.25,627.78,849.19,654.37,852.5,653.54Z"
                  transform="translate(0 0)"/>
            <path class="cls-21"
                  d="M1028.5,371.54c-.57.37,10.51,10.87,11,26,.34,10.55-4.64,17.79-1,21,2,1.74,4.33.39,11,0,13-.76,21.47,3.42,22,2,.47-1.25-6.55-3.37-14-10-5-4.43-6.07-7.24-14-19S1029,371.22,1028.5,371.54Z"
                  transform="translate(0 0)"/>
            <path class="cls-21"
                  d="M1071.5,468.54c0-6.21,2.67-10.8,6-16,5.53-8.64,14.84-23.19,17-22,1.56.86-1.71,9.33-7,23-5.53,14.31-9.88,25.54-13,25C1072.32,478.16,1071.47,472.17,1071.5,468.54Z"
                  transform="translate(0 0)"/>
            <path class="cls-21"
                  d="M1182.5,369.54c-.83-2.16,13.17-4.76,23-18,10.82-14.57,13-18,13-18,2-3.21,3.7-6,6-6s3.73,3.3,8,11c6.8,12.26,8.57,13,8,16-1.24,6.47-10.88,9.65-15,11-7,2.3-9.56,1-22,2C1189.61,368.65,1183.09,371,1182.5,369.54Z"
                  transform="translate(0 0)"/>
            <path class="cls-21"
                  d="M773.5,700.54c1.3-2.2,18,9.87,49,18a205.36,205.36,0,0,0,72,6c33.45-3.5,56.52-15.3,57-14,.41,1.11-16.11,10.16-38,16-25.89,6.91-43.62,5.14-44,9-.31,3.21,11.68,7.42,21,9a59,59,0,0,0,21,0,152.61,152.61,0,0,1-49,1,158.7,158.7,0,0,1-39-11C794.66,722.37,772,703.16,773.5,700.54Z"
                  transform="translate(0 0)"/>
            <path class="cls-21"
                  d="M813.5,756.54c1.08-3.34,26.56,6.56,65,7,14.18.16,38.86.23,68-10a182.08,182.08,0,0,0,51-28c33.07-25.72,45.37-53.47,50-51,3.54,1.88-.17,19.88-9,35-14,24-37.26,34.5-59,44-19.59,8.56-34.66,11.73-55,16-31.34,6.58-52.71,10.83-78,4C828.35,768.64,812.63,759.24,813.5,756.54Z"
                  transform="translate(0 0)"/>
            <path class="cls-22"
                  d="M1241.5,303.54a25.51,25.51,0,0,1-2-19c3.16-11.23,12.82-16,15-17,2.62-1.2,11.35-5.2,20-1a21.2,21.2,0,0,1,10,11c3.78,8.69.86,16.74,0,19-3,8-9,12-12,14-3.72,2.45-8.11,5.33-14,5C1248,314.95,1242.19,304.78,1241.5,303.54Z"
                  transform="translate(0 0)"/>
            <path class="cls-22"
                  d="M1269.5,318.54c-.83-7.6,13.86-14.06,16-15a40.93,40.93,0,0,1,21-3c6.54.76,20.4,3.92,21,10,.52,5.22-9,10-15,13-6.32,3.17-17.64,8.84-30,5C1280.65,328,1270.17,324.7,1269.5,318.54Z"
                  transform="translate(0 0)"/>
            <path class="cls-22"
                  d="M1307.5,279.54c-.57-2.46,2.31-5,8-10,5-4.38,6.34-4.33,16-11,6.18-4.27,7.62-5.67,9-5,2.77,1.34,2.06,9.35,0,15-.79,2.16-4.34,11.87-14,15C1318.56,286.11,1308.45,283.61,1307.5,279.54Z"
                  transform="translate(0 0)"/>
            <path class="cls-22"
                  d="M1293.5,264.54c-1.09-2.76,6.74-8.13,8-9,11.06-7.59,26.47-9.48,28-6,1.26,2.87-6.84,9.62-14,13C1306.31,266.87,1294.69,267.56,1293.5,264.54Z"
                  transform="translate(0 0)"/>
            <path class="cls-22"
                  d="M1336.5,291.54c-.28-3.91,1.94-5.68,5-12,3.75-7.74,3.82-12.09,5-12,1.5.11,2.74,7.23,2,14-.88,8-4.71,17.23-8,17C1338.46,298.4,1336.72,294.63,1336.5,291.54Z"
                  transform="translate(0 0)"/>
            <path class="cls-22"
                  d="M1255.5,250.54c-1.56-2.28,3.13-5.25,5-14,2.14-10-1.78-16.32,1-18,2.43-1.47,7.41,2.19,10,5,4.16,4.51,8.46,13.67,4,21C1270.55,252.67,1257.72,253.78,1255.5,250.54Z"
                  transform="translate(0 0)"/>
            <path class="cls-22"
                  d="M1148.5,418.54c-3.69-7.64,9.08-19.25,11-21,6.88-6.26,14-8.68,21-11,7.51-2.48,15-3.32,30-5,9.72-1.09,14.64-1.62,18-1,8.35,1.54,10.82,5.25,23,13,18,11.43,25.41,11.49,26,17,.38,3.49-2.39,5.47-15,17-15.11,13.81-9.07,9.07-26,24-17.37,15.32-21.6,18.43-24,17-3.2-1.9-1.09-10.63-1-11,2-7.93,7.33-10.4,17-21,7.83-8.58,11.75-12.87,12-18,.43-8.73-7.59-16.48-14-20-12.05-6.62-25.26-2-31,0-4,1.41-14,4.89-22,14-4.76,5.42-6,9.62-11,11S1150.57,422.83,1148.5,418.54Z"
                  transform="translate(0 0)"/>
            <path class="cls-22"
                  d="M1293.5,426.54c1-.79,10.66,10.53,43,46,20.56,22.54,30.84,33.82,36,39,7.77,7.81,11.33,11,17,18,7.59,9.38,16.27,22.25,20,39,1.38,6.18,2.9,13,0,15-1.16.79-5.42,2.42-24-14-15.29-13.51-32.94-29.44-49-60-10.54-20-7.38-21.63-20-45S1292.4,427.4,1293.5,426.54Z"
                  transform="translate(0 0)"/>
            <path class="cls-22"
                  d="M1414.5,503.54c-.87-8.68,8.16-11,25-32a292.09,292.09,0,0,0,24-35c7.69-13.65,11.95-24.52,20-25a11.13,11.13,0,0,1,8,3c6.2,6.3.08,18.42-4,41-3.25,18-.25,15.21-3,26-7.45,29.24-25.28,33.21-31,61-.76,3.67-1.71,9.76-4,10-3,.32-4.58-10-11-21C1427.74,513,1415.51,513.53,1414.5,503.54Z"
                  transform="translate(0 0)"/>
            <path class="cls-22"
                  d="M1050.5,545.54c-1.37-4.31.17-8.08,3-15,3.06-7.5,10.31-21.19,15-20,3.62.92,1.08,9.53,7,18,5.27,7.53,13.71,9.93,21,12,14.06,4,25.63,2.06,38,0,15.75-2.62,23.62-3.93,32-10,11.05-8,15-18.42,20-17,3.14.89,5,5.93,5,10,0,15.42-26.66,26.73-32,29-19.49,8.27-20.93,1.43-46,10-15.74,5.38-24.28,11.19-34,7-3-1.3-1.75-1.67-13-10S1051.93,550,1050.5,545.54Z"
                  transform="translate(0 0)"/>
            <path class="cls-22"
                  d="M1145.5,572.54c.69-3.66,10.59-1.63,25-8,10.62-4.69,15.55-10.35,17-9s-2.74,9.32-8,15c-3.82,4.13-11.23,12.13-21,11C1151.73,580.75,1144.9,575.72,1145.5,572.54Z"
                  transform="translate(0 0)"/>
            <path class="cls-22"
                  d="M1663.5,428.54c3.61-11.55,14.73-17.31,18-19,16.45-8.52,33.31-2.42,40,0,22,7.94,32.66,26.13,36,32,5.16,9.06,4.2,11.86,10,27a223.74,223.74,0,0,0,21,41c19.89,31.65,31.18,32.08,44,60,8.12,17.69,7.67,26.42,7,31s-3.42,17.87-22,33c-22.24,18.11-36.91,14.09-80,28-30.47,9.83-49.8,16.07-74,30-18.55,10.68-35.32,23.21-54,18-1.94-.54-13.09-3.65-14-10-1.19-8.31,16.23-14.85,58-38,25.63-14.2,38.44-21.3,52-30,16.11-10.34,22.27-15.36,36-21,17-7,35.1-10.58,35-11s-23.7,9.74-35,0c-4-3.43-3.78-7.06-7-20-2.57-10.32-6-19.88-13-39-6-16.37-8.93-24.55-14-33-7.73-12.88-11-12.57-22-27C1671.59,462.24,1658.39,444.87,1663.5,428.54Z"
                  transform="translate(0 0)"/>
            <path class="cls-22"
                  d="M1477.5,753.54c1.67-3,5.84-9.78,16-19,5.61-5.09,12.09-11,22-16,13.77-7,14.7-2.46,34-10,12-4.69,18.31-9,25-6,3.12,1.42,3,2.93,9,7,8.18,5.53,12.62,5.58,13,8,.6,3.82-9.72,8.19-18,12,0,0-16.87,7.76-48,26-20,11.74-29.89,20.2-32,18-1.66-1.73,2.61-8.83,6-13a41,41,0,0,1,14-11,98.58,98.58,0,0,0-20,13c-7.69,6.29-11.06,10.68-12,10-1.18-.86,2.41-9,8-16,6.75-8.4,14.89-13.15,15-13,.24.32-32.75,28-37,24C1470.59,765.76,1475,758,1477.5,753.54Z"
                  transform="translate(0 0)"/>
            <path class="cls-23"
                  d="M838.5,846.54c4.57-4.89,11.19.92,28-3,5.32-1.24,13.22-3.08,21-9,5.3-4,7-7.28,15-13,6.5-4.66,9.75-7,12-6,5.17,2.27,2.67,18.61,0,36-2.27,14.8-3.48,22.32-7,28-6.78,10.93-16.84,15.49-29,21-11.78,5.34-30.89,14-38,7-4.61-4.53.78-10.75,0-30S833.88,851.48,838.5,846.54Z"
                  transform="translate(0 0)"/>
            <path class="cls-23"
                  d="M794.5,913.54c-4.51-5.34-1.27-11.61,2-32,3.69-23,1.24-25.33,6-34,3.48-6.32,6-7.31,12-18,5.31-9.48,7-15.27,8-15,1.58.41-2.25,14.42-4,36-2,24-2.92,36-1,44,1.39,5.77,4,13.53,0,19-2.84,3.88-7.69,4.8-9,5A15.94,15.94,0,0,1,794.5,913.54Z"
                  transform="translate(0 0)"/>
            <path class="cls-23"
                  d="M853.5,937.54c-.43-1.41,6.13-4.34,31-17,23.92-12.18,28.82-15.06,34-21,7-8.06,9.61-16.07,13-27,8.26-26.6,6.46-50,7-50,.69,0-1,38.25,4,39,.91.14,2.17-1,11-21,6.3-14.29,8.86-21,15-29,4.59-6,9.07-11.86,13-11,4.76,1,5.77,11.33,8,30,5.11,42.74,2.35,9.86,8,72,1.34,14.71,1.94,22.26-1,32-3.15,10.42-5.74,8.26-13,24-8,17.28-13.16,28.52-14,43-.17,3-.14,5.56-2,8-4.79,6.28-16.28,3.79-31,2-9.57-1.17-36.24-4.41-62-3-13.48.74-19.2,2.35-25-2-8.16-6.12-10.85-19.81-7-30,3-7.85,9.09-11.7,24-20,31.47-17.51,46.61-24,46-26C911.35,926.66,854.73,941.58,853.5,937.54Z"
                  transform="translate(0 0)"/>
            <path class="cls-23"
                  d="M1007.5,804.54c-5,4,1.74,15.54,6,41,3.15,18.85,2.54,31,4,31,.75,0,1.47-3.12,4-25,3.94-34.09,3.84-40.91-1-45C1016.78,803.39,1010.55,802.1,1007.5,804.54Z"
                  transform="translate(0 0)"/>
            <path class="cls-23"
                  d="M1038.5,801.54c-7.11,5.67,7.67,23.76,8,54,.22,20.06-6,36.94-9,45-7.09,19.18-16.77,32.78-15,34,1.3.9,6-7,17-14,12.35-7.88,24.3-9.41,24-11-.35-1.82-15.72,1.75-18-3-1.8-3.74,6.56-8.41,11-18,5.19-11.2-.51-17.14-2-38-2-27.56,6.36-40-2-47C1048.58,800.22,1041.87,798.85,1038.5,801.54Z"
                  transform="translate(0 0)"/>
            <path class="cls-23"
                  d="M1017.5,962.54c.09-2,16.12.94,29-8,10.66-7.4,11.08-17.33,16-17s6.09,10.86,15,37c6.86,20.11,10.87,27.46,7,32-2.18,2.56-4.73,1.72-19,3-17.1,1.53-23.65,3.66-25,1-1.23-2.41,3.72-5.08,7-13,.32-.77,5.46-13.56,1-22C1042,963.17,1017.39,965,1017.5,962.54Z"
                  transform="translate(0 0)"/>
            <path class="cls-23"
                  d="M1328.5,670.54c-5.79-.91-10.2,7.72-20,21-15.09,20.45-22.78,30.88-35,41-5.2,4.31-9.53,7.16-11,13-2.37,9.41,4.67,18.77,8,23,18.56,23.57,45.49,44.64,56,53,43.36,34.49,65,51.73,69,57,4.17,5.55,12.42,17.34,21,16,5.25-.82,7.64-6.09,13-15,10.61-17.64,22.35-32.11,32-44,12-14.83,18.45-19.5,17-27-1.15-6-6.89-11.61-11-11-3.84.56-3.67,6.17-10,11-.75.57-8.59,6.41-14,4-5.78-2.58-6.35-13.52-7-26-.7-13.41,1.22-17.15-2-23s-8.13-7.54-14-11c-23.1-13.64-29.35-36.23-35-34-4.11,1.63.72,13-7,22-3.88,4.53-10.78,8.3-17,7-9.76-2-14.07-15.72-17-25-3-9.55-6.84-21.68-6-34a19.32,19.32,0,0,0-2-11C1336.32,677.22,1332.93,671.23,1328.5,670.54Z"
                  transform="translate(0 0)"/>
            <path class="cls-23"
                  d="M1403.5,528.54c-2.33,1.46,15.57,24.24,26,63,4,15,6.34,30.07,10,54s4.26,34,5,34c1.36-.09,1.86-33.73-4-71-5.36-34.07-12.42-48.18-17-56C1415.58,539,1405.2,527.47,1403.5,528.54Z"
                  transform="translate(0 0)"/>
            <path class="cls-24"
                  d="M1512.5,423.54c-2.75,1-3,6.79-3,20,0,24.51,1.06,29.91,1,42-.11,21.41-.17,33.14-5,48-2.66,8.18-5.3,12.8-4,20,.48,2.65,2.55,11.57,17,22,10.13,7.31,21,11.52,43,16,30.45,6.2,49.39,9.84,73,4,12.36-3.06,22.17-5.49,27-14,5.69-10,1.14-22.65-8-47-8.61-22.94-13-25.3-16-41a107.43,107.43,0,0,1-1-33c3.54-32,18.69-49.12,14-53-2.65-2.19-8.53,2.41-33,17-26.29,15.68-33.64,18.81-40,21-14.53,5-23.77,8.21-34,5C1524.42,444.56,1518.28,421.46,1512.5,423.54Z"
                  transform="translate(0 0)"/>
            <path class="cls-24"
                  d="M1548.5,642.54s1.17.34,29,8c23,6.32,37.36,1.67,38,5,.68,3.56-15.55,10-29,13-11,2.4-18.44,4-27,1-16.5-5.86-26.2-25.31-23-29C1537.61,639.26,1540.07,640.08,1548.5,642.54Z"
                  transform="translate(0 0)"/>
            <path class="cls-21"
                  d="M1607.5,786.54c1-4.25,14.53-.82,24-10,5.75-5.57,3.84-9.82,9-15,7.18-7.21,17.69-5.81,30-6,13.35-.21,25.57-3.14,50-9,30.08-7.22,45.61-16.54,47-14s-14.75,15.22-29,24c-20.21,12.46-33.65,15.65-33,19,.33,1.7,4.16,2.79,34,3,39.46.28,44.63-1.54,48-3,17.35-7.51,19.42-19.41,30-19,3.83.15,13.48,2.09,27,29,21.54,42.88,20.7,85.07,20,99-1.64,32.68-10,57.84-16,76-9.14,27.59-9.13,36.16-17,42-5.81,4.31-13.6,6.83-63,1-36.8-4.34-38.41-6.44-57-7-28.5-.87-49.59,3.3-50,1-.37-2.07,16.86-4.53,38-17,10.87-6.41,26.84-17.87,25-22-1.59-3.58-15,1.81-38,4-28.49,2.71-50.68-1.51-69-5-25.09-4.78-45.41-12-45-14,.46-2.26,26.93,2.2,28-2,.81-3.21-14.45-6.45-24-21-3.26-5-8.09-14.66-5-18,5.75-6.21,34,14.87,38,10,1.54-1.89-1.28-6.82-19-35-7.88-12.53-10.35-16.37-9-18,2.61-3.16,16,6.16,37,15a225.57,225.57,0,0,0,59,16,185.36,185.36,0,0,0,53-1c16.88-2.8,39.45-9,39-13-.43-3.81-21.72-2-54-6-43.68-5.37-78.46-17.7-78-20,.36-1.82,22.46,3.78,59,3,27.12-.58,43.29-4.27,55-8s27-10.07,39-24c2.82-3.27,8.84-10.24,7-13-2.6-3.9-18.26,4.56-49,13-17.49,4.8-26.44,7.2-37,7-6.89-.13-18.69-3.75-42-11a282.85,282.85,0,0,1-47-19C1614.91,794.62,1606.73,789.94,1607.5,786.54Z"
                  transform="translate(0 0)"/>
            <path class="cls-21"
                  d="M1552.5,964.54c5.94-5.35,14.67-2.54,36,2,21.61,4.6,33.17,7.06,47,8,18.8,1.28,29.57-1.07,30,1,.68,3.28-25.94,11.28-35,14a304.17,304.17,0,0,1-59,12c-3.24.32-25.53,2.53-26,0-.63-3.41,38.78-12.66,38-17-.67-3.78-30.7,2.14-35-8C1546.87,972.69,1549.31,967.4,1552.5,964.54Z"
                  transform="translate(0 0)"/>
            <rect class="cls-25" x="599" y="704.04" width="38" height="316"/>
            <rect class="cls-25" x="171" y="704.04" width="38" height="316"/>
            <rect class="cls-26" x="464" y="740.04" width="38" height="281"/>
            <rect class="cls-26" x="53" y="739.54" width="38" height="281"/>
            <rect class="cls-27" x="4" y="750.54" width="518" height="26"/>
            <polygon class="cls-27" points="522 749.52 675 694.51 675 722.51 522 776.51 522 749.52"/>
            <polyline class="cls-28" points="4.5 750.51 521.5 750.51 675 694.51 159 694.51 4.5 750.51"/>
            <path class="cls-29"
                  d="M222,702l23-134.86a7.54,7.54,0,0,1,7.27-6.27L478,556.22a7.54,7.54,0,0,1,7.6,8.71L464,702H222"
                  transform="translate(0 0)"/>
            <path class="cls-30"
                  d="M228.5,702l21.91-129.94a7.22,7.22,0,0,1,6.94-6l215.5-4.51a7.24,7.24,0,0,1,7.26,8.39L459.49,702h-231"
                  transform="translate(0 0)"/>
            <polygon class="cls-29" points="464 720.01 464 702.01 421 732.01 464 720.01"/>
            <polygon class="cls-31" points="222 702.01 464 702.01 421 732.01 167 734.01 222 702.01"/>
        </g>
    </g>
    <path class="cls-7"
          d="M926.13,302.15c-.4-.4-3,2.89-7.87,5-5.74,2.5-11.17,1.87-14.37,1.5-3-.36-9.27-1.08-14.87-5.37-2.3-1.76-3.72-3.53-4.37-3.12-.93.58.47,5.06,2.5,8.5,1.18,2,4.42,7.47,11.25,9.5a18.46,18.46,0,0,0,10.25,0c4.69-1.31,7.47-4.1,11.38-8C923.54,306.61,926.56,302.58,926.13,302.15Z"
          transform="translate(0 0)"/>
    <path class="cls-7"
          d="M870,218.77c.1.23-4.09,1.25-7.75,5.5a22.8,22.8,0,0,0-4.75,10.5,34.15,34.15,0,0,0,1.25,19c2.16,5.78,5.07,8.49,4.5,9-.82.72-8.18-3.57-11.5-11-3.86-8.63-.29-17-2-17.5-1.25-.34-4.08,3.89-4.75,8.5-.75,5.1,1.34,9.29,1.5,9.25s-5.2-9.45-2.25-17.75C848.69,221.8,869.77,218.25,870,218.77Z"
          transform="translate(0 0)"/>
    <path class="cls-7"
          d="M977.25,254c-.64.15.73,4.21-.25,9.75a25.51,25.51,0,0,1-4.75,10.75c-4.92,6.62-11.1,8.13-10.75,9s9.51.63,15-5.5,4.24-14.37,4-16C979.86,257.66,977.88,253.87,977.25,254Z"
          transform="translate(0 0)"/>
    <path class="cls-7"
          d="M1501,285.52c-.68,1.15,1.18,2.42,1.75,5,1.5,6.8-8.08,13.09-7,14.5.78,1,6.82-1,10.75-5.75,2.44-3,5.82-9.11,3.25-12.5C1507.63,284,1502,283.81,1501,285.52Z"
          transform="translate(0 0)"/>
    <path class="cls-7"
          d="M1423.75,328c-1.21.45-.56,5.06-.25,7.25.52,3.69.9,6.38,2.5,8.5,4.63,6.14,17.28,4.59,17.75,2.5.3-1.33-4.54-1.83-10.5-7.25C1427.08,333.41,1425.16,327.49,1423.75,328Z"
          transform="translate(0 0)"/>
</svg>