<svg xmlns="http://www.w3.org/2000/svg" viewBox="0 0 874 861">
    <defs>
        <style>
            .cls-1,.cls-9{fill:#fff;}.cls-2{clip-path:url(#clip-path);}.cls-3{fill:#8bbad8;}.cls-3,.cls-4,.cls-5,.cls-8{stroke:#000;stroke-linecap:round;stroke-linejoin:round;stroke-width:3px;}.cls-5,.cls-6{fill:#d9d9d9;}.cls-7{fill:#380208;}.cls-8{fill:none;}.cls-9{opacity:0.2;isolation:isolate;}.cls-10{fill:#282828;}.cls-11{fill:#cec89f;}.cls-12{fill:#f9f6d7;}.cls-13{fill:#473c35;}.cls-14{fill:#cacae8;}.cls-15{fill:#11113f;}.cls-16{fill:#9b7532;}.cls-17{fill:#c49b49;}.cls-18{fill:#e8bc5b;}.cls-19{fill:#a01c87;}.cls-20{fill:#ce28a7;}.cls-21{fill:#f737c1;}.cls-22{fill:#6772b2;}.cls-23{fill:#b5aa68;}.cls-24{fill:#f7f4df;}.cls-25{fill:#b9b3ba;}.cls-26{fill:#d44be8;}.cls-27{fill:#eaa549;}.cls-28{fill:#48edc1;}.cls-29{fill:#d1ca97;}.cls-30{fill:#f4c59f;}.cls-31{fill:#5f5360;}.cls-32{fill:#6b6b70;}.cls-33{fill:#fc1d47;}.cls-34{fill:#c1e1f7;}.cls-35{fill:#8f8f96;}.cls-36{fill:#4f90aa;}.cls-37{fill:#86c4ea;}.cls-38{fill:#dfe9f4;}.cls-39{fill:#53af35;}.cls-40{fill:#6be849;}.cls-41{fill:#eade47;}.cls-42{fill:#89602e;}.cls-43{fill:#e4e7ed;}.cls-44{fill:#563c28;}.cls-45{fill:#8e6442;}.cls-46{fill:#d1c9ae;}
        </style>
        <clipPath id="clip-path">
            <circle class="cls-1" cx="445.98" cy="421.02" r="115.98"/>
        </clipPath>
    </defs>
    <title>scheme</title>
    <g id="Layer_2" data-name="Layer 2">
        <g id="Layer_1-2" data-name="Layer 1">
            <g id="Слой_2" data-name="Слой 2">
                <g id="Слой_1-2" data-name="Слой 1-2">
                    <circle class="cls-1" cx="445.98" cy="421.02" r="115.98"/>
                    <g class="cls-2">
                        <path class="cls-3"
                              d="M417.43,480.63a36.2,36.2,0,0,1,6-5.81A38.61,38.61,0,0,1,434,469.19a79.85,79.85,0,0,1,33-4.77,70.83,70.83,0,0,1,16.52,4,44.41,44.41,0,0,1,11.76,6.25,20.66,20.66,0,0,1,4.61,4.46,19,19,0,0,1,3.3,9.2c1.53,14.06-4.89,45.27-3.13,68.48.07.94.3,3.71.6,7s2.23,24.17,2.24,28c0,1.55-.32,2.26,0,3.42a1.6,1.6,0,0,1-.85,2.1h0c-1.79,1-5.94,1.08-8.63,1.34-1.17.11-1.5.2-2.38.3-5.5.65-33.43,2.28-53.3-.45-4.41-.6-6.91-.75-11.91-1-5.67-.33-6.74-.15-7.45,0-4.37.94-7.61,3.47-8.93,2.24a3.58,3.58,0,0,1-.75-1.49,5.55,5.55,0,0,1-.15-2.53,64.22,64.22,0,0,1,1.45-6.55,27.68,27.68,0,0,0,.75-6.4c.45-6.84,2.07-18.86,2.68-24.86C414.24,549.62,415.5,529.36,417.43,480.63Z"/>
                        <path class="cls-3"
                              d="M422.49,477.22c-2.3-.27-5.29,3.14-6.85,4.92a26.07,26.07,0,0,0-3.28,4.9,61.62,61.62,0,0,0-4.77,10.55c-1.53,4.56-1.22,5.48-2.38,9.68-1.91,6.92-3.52,7.25-7.14,16.38-2.55,6.38-3.83,9.57-4.17,14.29a26.67,26.67,0,0,0,2.24,13.84c1.15,2.41,2.66,5.63,6.1,7.73a15.67,15.67,0,0,0,14,.89c6.9-3.11,8.61-11.88,11.61-28.58a116.71,116.71,0,0,0,1.49-34.24C428.89,493.5,427.16,477.77,422.49,477.22Z"/>
                        <path class="cls-4"
                              d="M460.3,482.74c.79,0,1.77-.44,3.72-1.34,3-1.36,5.33-2.44,7.73-4.77a13.88,13.88,0,0,0,3.72-5.36,8.14,8.14,0,0,0-.6-7.29c-2.29-3.67-11.63-4.71-17.58-.15-1.25,1-5.5,4.59-5.06,9.84C452.65,478.31,456.61,482.74,460.3,482.74Z"/>
                        <path class="cls-4"
                              d="M445,387.12c.19-.7,2.71,0,5.79-1.28.88-.35,1.61-.79,4.31-3,4.92-4.13,4.53-4.4,6.64-5.84a26.78,26.78,0,0,1,7.47-3.37,27.35,27.35,0,0,1,6.55-1.36,9,9,0,0,0,1.82-.29,5.78,5.78,0,0,0,3.14-1.67c.86-1,.84-2.17,1.09-2.14s.34,1,.29,1.82a4,4,0,0,1-1.31,3c-.49.34-1,.38-.94.51a3.77,3.77,0,0,0,4-1c.32-.59.15-1.16.25-1.17a2.11,2.11,0,0,1,.27,2c-.31.91-1.41,1.1-1.31,1.41s.84.25,1.48.13c1-.2,1.54-.75,1.69-.6s-.08.76-.55,1.15-1.25.3-1.41.63.63,1.13.92,1.41c1.08,1.09,1.26,2.52,1.62,5.37a32.31,32.31,0,0,1-.33,8.79c-.48,3.66-.7,5.52-1.82,7-.7,1-1.66,1.84-1.41,2.26s1.48.28,2.41-.23c1.8-1,2.11-3.3,2.38-3.23s0,1.6-.41,3A7.46,7.46,0,0,1,486,403a5.32,5.32,0,0,1-.64.49c-.52.33-.79.35-.79.42a3,3,0,0,0,2.88-.49,4.47,4.47,0,0,0,.51-.7,3.18,3.18,0,0,1-1.08,2,3.58,3.58,0,0,1-2.17.85c-1.06,0-1.72-.44-1.93-.17s.07.7.35,1.08c1.15,1.41,3.75.9,3.78,1.23s-1.08.55-2.16.7a10.5,10.5,0,0,1-2.55.07,30,30,0,0,1-7.61-1.73C466,403.23,460.42,395.3,449.22,390,448.45,389.68,444.78,388,445,387.12Z"/>
                        <path class="cls-4"
                              d="M429.34,393.12c-.53-.34-1.17.46-3.87.6a17.21,17.21,0,0,1-5.06-.6c-2.68-.64-3.19-1.13-6.7-2.38a35.51,35.51,0,0,0-8.18-2.24c-3.11-.37-4.65-.56-5.63-.15a2.11,2.11,0,0,1-1.64.15,2.21,2.21,0,0,1-1-1.49c-.77-2.36-.11-4.22-.45-4.32s-1,1.22-1.34,2.53a3.63,3.63,0,0,0,0,2.24c.35.89,1,1.15.89,1.49s-1.61.33-1.93.3a4.75,4.75,0,0,1-1.86-.53c-.43-.23-.6-.42-.7-.37a2.47,2.47,0,0,0,1.19,1.79c1.11.6,2.45-.07,2.53.15s-.43.4-1.64,1c-2.28,1.2-2.61,1.29-3,1.34-1.12.14-1.85-.22-1.93,0s.56.82,1.34,1,1.41-.12,1.64.15c.39.41-.41,1.73-.75,2.38-1,2-.91,3.92-.75,6.55a18.38,18.38,0,0,0,4,9.84c1.79,2.43,2.86,4.28,4.77,4.77.34.09,1.15.25,1.19.6s-1.05,1-2.11,1.19c-2.35.41-4.22-1.35-4.46-1s.7,1.17,1.64,1.79a5.9,5.9,0,0,0,2.38.89c1.54.22,2.59-.24,2.68,0s-.53.65-1.19.89a7.42,7.42,0,0,1-2.38.15c-.06.15,1.09.7,1.49.89a8.24,8.24,0,0,0,2.38.89c1.67.08,2.75-1.41,3.13-1,.22.2.06.87-.3,1.34-1,1.29-3.35.77-3.42,1.19,0,.21.53.58,1.64.89a12.66,12.66,0,0,0,6.55-.15C416,423.46,432.38,395,429.34,393.12Z"/>
                        <path class="cls-5"
                              d="M417.57,397.73a39.38,39.38,0,0,0-6.57,7.89,34.22,34.22,0,0,0-3.72,9.53A51.33,51.33,0,0,0,406,428.7c0,7,0,10.46.3,12.35a13.18,13.18,0,0,1-.15,4.92,8.44,8.44,0,0,1-1.65,3.73,8.1,8.1,0,0,1-3.87,2.53,11.62,11.62,0,0,1-6.1.15c-2.57-.51-4-1.48-4.32-1s.66,1.55,1.34,2.38a15.91,15.91,0,0,0,3.68,3.28c1.86,1.17,3.2,1.55,3.13,1.79s-1.94,0-2.81-.13l-.79-.16c-2-.49-3-1.16-3.13-1a11.14,11.14,0,0,0,4.46,3.13,15.36,15.36,0,0,0,3.87,1c4.17.58,7.07-.61,7.29,0s-1.48,1.5-1.93,1.79c-2.59,1.6-4.74,1.61-4.77,2.24,0,.32.56.59,2.11,1.19a43.4,43.4,0,0,0,5.34,1.93c3.39.7,5.43,0,5.63.75s-1,1.41-1.49,1.79c-3.32,2.4-7.14,2.11-7.14,2.53s1.67.7,3.57.75c.7,0,5.74,0,9.08-3.13.35-.34,1.12-1.11,1.19-1a21.16,21.16,0,0,0-1.47,2.53,6.86,6.86,0,0,0-.6,2.24c-.12,1.51.34,3.12.75,3.13s.3-.77.75-1.64c1-2.06,3.4-2.81,4.32-3.13a9.76,9.76,0,0,1,5.51,0c6.95,1.76,15.38,1.65,28.43,1.49a39.2,39.2,0,0,0,7.73-1.19c4.68-1.12,5.77-2.11,6.25-3.13.62-1.26.36-2.66,1.19-3,.37-.13.56.08,1.93.6a23.82,23.82,0,0,0,3,.89c.35.08,2,.5,2.11.3s-.89-.35-1.49-1.19c-.7-1-.58-2.45-.3-2.53s.37.66,1.19,1.34,2.16,1.05,2.38.75-.34-.62-.75-1.79c-.2-.59-.53-1.53-.15-1.93s1-.13,1.64,0a13.23,13.23,0,0,0,4,0c2.62-.37,4.92-2.11,4.77-2.68-.08-.25-.54-.1-1.34-.45-1.24-.54-2.39-1.89-2.11-2.68.22-.56,1.17-.84,1.93-.75,1.41.19,2.07,1.71,2.53,1.49s.2-1.41.15-1.64c-.35-1.93-1.57-2.55-1.34-3.28s1.17-.65,3.28-1c2.7-.5,4.4-.82,5.81-1.64a6.47,6.47,0,0,0,3-3.28,6.1,6.1,0,0,1-2.24,1.34c-1.4.3-3-.4-3-.75s.83-.18,2.24-.6c2-.6,3.66-1.72,3.57-1.93s-.83.2-2.68.45a8.3,8.3,0,0,1-3.28,0c-.59-.15-1.46-.28-1.49-.6s1.58-.7,3.13-1.49a11.19,11.19,0,0,0,3.87-3.57c2.55-3.33,3.69-7.62,3-8-.27-.16-.59.37-1.79.89a9.72,9.72,0,0,1-11.76-4.17,35.09,35.09,0,0,1-3.49-8.2,64.64,64.64,0,0,0-5.81-13.25c-2.35-4.39-4-7.44-7.14-10.72a36.51,36.51,0,0,0-14.44-8.93,40.23,40.23,0,0,0-15-1.79C438.74,387.32,424,391.62,417.57,397.73Z"/>
                        <path class="cls-1"
                              d="M396.13,453.7c.13-.36,1.06-.11,2.68-.3a12.09,12.09,0,0,0,4.77-1.64c2.33-1.52,3.21-4.28,3.72-6.4,1.95-8,1.15-13.76,1.93-22.5.44-4.85.75-8.19,2.24-12.35a31,31,0,0,1,8.78-13.7,30,30,0,0,1,6.7-4.32,43,43,0,0,1,14.59-4c4.77-.49,11.25-1.16,18.61,1.79a33.27,33.27,0,0,1,11.17,7.45c6.16,6,9,13.23,10.87,17.87A107.31,107.31,0,0,0,486.51,426c2.14,4.54,3.57,6.75,6.1,8.34a10,10,0,0,0,5.63,1.79c3-.1,5.11-1.87,5.51-1.34s-1.14,2.11-1.49,2.53a16.88,16.88,0,0,1-5.81,4.17c-3.88,1.66-6.45,1.33-6.55,2.24-.08.7,1.41,1.69,2.68,1.93,1,.18,1.71-.08,1.79.15s-.75.86-1.64,1.19c-1.46.55-2.62.2-2.68.45s1,.79,2.24,1.19c2.31.76,4,.6,4,.89s-1.06.64-2.38.89c-4,.76-6.92-.33-7.14.3-.1.27.42.49,1.19,1.49,1,1.28,1.7,3,1.34,3.28s-.81-.47-2.11-.75c-.16,0-2.52-.51-3.42.75a2.74,2.74,0,0,0,0,2.68c1,1.93,3.63,2,3.57,2.68s-1.78,1-3.28,1c-2.93.15-4.42-1-5.36-.15a2.57,2.57,0,0,0-.6,1.79c0,1.22.78,1.92.6,2.11s-1.48-.48-1.93-1.64c-.34-.86,0-1.53-.3-1.64s-1.34.79-1.49,1.93c-.2,1.6,1.41,2.69,1,3.13s-1.83-.08-3-.89-1.41-1.6-1.93-1.49-.55.89-1,1.79a7.34,7.34,0,0,1-2.81,2.38,40.12,40.12,0,0,1-28.58,2.53,45.12,45.12,0,0,0-11.58-1.7,10.6,10.6,0,0,0-4.61.89c-2.39,1.13-3.55,3-4,2.68s-.08-1.54.6-2.53c1.17-1.71,3.19-2,3.13-2.24s-2-.23-4.17.6c-2.74,1-4,2.68-4.32,2.38s.36-2.11,1.79-3.13c1.07-.77,2.11-.74,2.11-1s-1.93-.75-3.42-.89c-2.35-.22-2.81.14-4.77,0-2.62-.19-5-1.08-4.92-1.49s1.05,0,2.38-.75a6.52,6.52,0,0,0,2.38-2.38c.7-1,1.61-2.4,1.19-3s-2,.25-5.21.75-6.07.29-6.1,0,.7-.27,2.38-.89c1.51-.58,2.88-1.1,2.81-1.49s-1.69-.19-3.87-.89C398,455.91,395.93,454.29,396.13,453.7Z"/>
                        <path class="cls-6"
                              d="M413.85,435.39c.3-.7.84-1.41,3.57-3a59.91,59.91,0,0,1,8.18-3.87c5.58-2.37,8.44-3.59,9.68-5.36,1.84-2.55,1.75-5.23,3.13-5.36,1.05-.1,2,1.41,2.68,2.38a12.41,12.41,0,0,1,1.79,5.36c.6,4.18,0,6.76.45,6.85s1.31-1.87,1.79-4c.82-3.76-.46-5,.6-7.59a7.18,7.18,0,0,1,3.57-3.87c1-.42,2.43-.65,6.25.6a44.46,44.46,0,0,1,9.23,4.46c4.37,2.57,6.59,3.88,8,5.63s3.38,4.13,3,7.14c-.48,3.64-4.22,5.7-6.25,6.85-1,.56-6.93,3.85-12.8,1.79-3.21-1.13-5.63-3.6-6.85-2.68a2.31,2.31,0,0,0-.6,1.64c-.14,1.83,1.24,2.67.89,3.72-.2.6-.8.82-2.11,1.34-4.61,1.89-5.67,2.78-6.25,2.24-.2-.19-.2-.43,0-2.68.24-2.73.34-3.52.15-3.57s-.58,1-1.34,2.11a9.58,9.58,0,0,1-4.77,3.28,14,14,0,0,1-6.7.45c-3.21-.4-8.29-1-12.06-5.06C416.69,443.71,412.32,438.94,413.85,435.39Z"/>
                        <path class="cls-4"
                              d="M415.93,434.84c.39-.94,2.23-.95,3.28-1s3.28-1.11,7.45-3.13c5-2.4,7.45-3.61,8.63-5.21.7-.94,1-1.73,1.79-1.79,1.93-.14,3.66,4.92,3.87,5.51a17.15,17.15,0,0,1,.77,7.3c-.26,2.34-.51,4.62-2.24,6.4-1.24,1.29-2.64,1.67-4.77,2.24-2.63.7-8.68,2.29-11.91-.75a12.4,12.4,0,0,1-2.53-3.57c-.64-1.46-.53-2.11-1.34-2.81-1-.86-2-.6-2.68-1.64A1.83,1.83,0,0,1,415.93,434.84Z"/>
                        <path class="cls-1"
                              d="M427.55,437.18c0-.25,1.28-.77,3.87-1.79,3.8-1.49,4.47-1.55,4.92-1.19a2.47,2.47,0,0,1,.15,3C434.79,439.84,427.66,438.24,427.55,437.18Z"/>
                        <path class="cls-4"
                              d="M447.5,431a18.32,18.32,0,0,1,.15-4.92c.27-2.71.42-4.09,1-5.06a6.33,6.33,0,0,1,3.57-2.68c.6-.15,2-.39,6.4,1.64a47.23,47.23,0,0,1,5.63,3.13c3.88,2.45,5.85,3.73,7.29,6a6.75,6.75,0,0,1,1.49,4.77,6.23,6.23,0,0,1-2.68,3.87c-3.68,3.1-8.28,3.21-11,3.28-2.19,0-3.47.08-5.06-.6a11.28,11.28,0,0,1-5.06-4.92A12.21,12.21,0,0,1,447.5,431Z"/>
                        <path class="cls-1"
                              d="M454.18,430a3.44,3.44,0,0,0-.13,2.81,4.16,4.16,0,0,0,2.07,2.33c1.7.79,3.45,0,4.52-.51a9.14,9.14,0,0,0,2.71-2.07c.75-.7.77-.94.77-1,0-1.15-2.81-2.31-5.17-2.58C457.63,428.84,455.16,428.6,454.18,430Z"/>
                        <path class="cls-6"
                              d="M469.23,452.66s.23.34,1.93,3a2.87,2.87,0,0,1,.6,1.64,2.31,2.31,0,0,1-.45,1.34c-.81,1-2.39.89-2.38,1a2.81,2.81,0,0,0,2.81-.3,2.94,2.94,0,0,0,1-1.93C473,454.84,469.36,452.51,469.23,452.66Z"/>
                        <path class="cls-4"
                              d="M440.5,449.24a3,3,0,0,0,.15,1.34,4.11,4.11,0,0,0,1,2.24,3.42,3.42,0,0,0,.89.6c2.36,1,9.39-2.95,9.68-3.28.78-.92-.15-2.94-.45-3.57s-.4-1.52-.89-1.49C448.24,445.22,441.25,447.9,440.5,449.24Z"/>
                        <path class="cls-1"
                              d="M443.62,448.2c.41-.77,1.15-.4,3.42-1.49a5.11,5.11,0,0,1,2.24-.75,2.35,2.35,0,0,1,1.34.3c.43.26,1,.83.89,1.34s-.92.8-1.64,1c-4.06,1.36-4.92,2.55-5.81,1.93A2,2,0,0,1,443.62,448.2Z"/>
                        <path class="cls-7"
                              d="M465.06,457a2,2,0,0,1,.15,1.64c-.09,0-.16-.54-.6-.75a1,1,0,0,0-.75,0,10,10,0,0,0-3.72,2.11c-.3.29-2.11,1.53-5.63,4-2.29,1.6-3.71,2.47-5.36,2.38a4.31,4.31,0,0,1-1.79-.45,6.87,6.87,0,0,1-1.93-1.79c-.34-.39-.8-.92-1.31-1.57a5.63,5.63,0,0,0,1.17-.07,6.67,6.67,0,0,0,2.81-1.19,8.26,8.26,0,0,0,1.92-2.36,7.57,7.57,0,0,0,1.06.86,6.5,6.5,0,0,0,3.13,1.34,5.78,5.78,0,0,0,3.57-.89c1.15-.7,1.1-1.24,3.13-3,1.2-1,1.59-1.16,1.93-1.19a2.9,2.9,0,0,1,2.21.86Z"/>
                        <path class="cls-8"
                              d="M444.1,462.56c.52.65,1,1.18,1.31,1.57a6.87,6.87,0,0,0,1.93,1.79,4.31,4.31,0,0,0,1.79.45c1.65.08,3.07-.79,5.36-2.38,3.57-2.49,5.36-3.73,5.63-4a10,10,0,0,1,3.72-2.11,1,1,0,0,1,.75,0c.44.2.51.77.6.75A2,2,0,0,0,465,457h0"/>
                        <path class="cls-8"
                              d="M438.86,461a14.77,14.77,0,0,0,2.68,1,11.24,11.24,0,0,0,2.55.51,5.63,5.63,0,0,0,1.17-.07,6.67,6.67,0,0,0,2.81-1.19,8.26,8.26,0,0,0,1.92-2.36h0"/>
                        <path class="cls-8"
                              d="M446.75,451.77c.6,1.53,1,2.75,1.34,3.57s.45,1.28.65,1.75a5.56,5.56,0,0,0,.83,1.41c.15.18.29.33.43.47a7.57,7.57,0,0,0,1.06.86,6.5,6.5,0,0,0,3.13,1.34,5.78,5.78,0,0,0,3.57-.89c1.15-.7,1.1-1.24,3.13-3,1.2-1,1.59-1.16,1.93-1.19a2.9,2.9,0,0,1,2.21.86"/>
                        <path class="cls-4"
                              d="M423.09,457.73a4.53,4.53,0,0,0,0,2.11c.39,2.41,1.22,3.52,2.11,6a18,18,0,0,1,.89,3.28,19,19,0,0,1-.3,6.55,39.17,39.17,0,0,1-1.49,5.63c-2.31,6.9-4.05,8.5-3.28,9.53,1.15,1.51,6.44-.06,10.13-2.53a20.39,20.39,0,0,0,7.73-10.55,18.62,18.62,0,0,0,.3-12.66,17.42,17.42,0,0,0-7.45-8.78c-1.41-.79-4-2.24-6.25-1.19A4.63,4.63,0,0,0,423.09,457.73Z"/>
                        <path class="cls-4"
                              d="M438.57,469.64c.79.18,1.21.91,3,1.49a10.32,10.32,0,0,0,3.87.45,36.36,36.36,0,0,0,9.53-2.11,36.83,36.83,0,0,1,7.59-1.93,7.24,7.24,0,0,1,4.61.6,4.65,4.65,0,0,1,2.38,2.81,4.44,4.44,0,0,1-.45,3,7.4,7.4,0,0,1-3.42,3.28A112.15,112.15,0,0,1,453,482.74c-8.6,3-8.13,4-12.06,4.46-2.16.25-9.28,1.1-11.46-2.38C426.37,479.84,435,468.84,438.57,469.64Z"/>
                        <path class="cls-4"
                              d="M422.19,493.45a8.14,8.14,0,0,1-.15-3.28c.6-3.26,4.08-5.79,10.42-8.63,8.35-3.75,16.62-7.46,24.27-4.61,1.36.51,4.61,1.72,5.21,4.32a5.8,5.8,0,0,1-1,4.17c-1.71,2.66-4.56,3.59-6.7,4.32-5,1.71-9.79,4-14.77,5.81-8.38,3.1-10.33,4.11-12.8,3A8.39,8.39,0,0,1,422.19,493.45Z"/>
                        <path class="cls-4"
                              d="M433.2,493.29c10.11-5.93,14.64-4.31,22.63-7a3.62,3.62,0,0,1,3,0c1.24.77,1.31,2.68,1.34,3.28a7,7,0,0,1-1.49,4.46c-1.69,2.18-4.22,2.81-6.4,3.28a151.33,151.33,0,0,1-17.27,3c-9,.84-9.92.53-10.13,0C424.22,498.59,431.17,494.49,433.2,493.29Z"/>
                        <path class="cls-3"
                              d="M423.68,560.14a19.89,19.89,0,0,0,9.38-12.66,20.33,20.33,0,0,0,.45-5.06c0-13.52.06-20.28,0-23.67-.23-14.21,0-18.23-.89-18-4.46,1-11.17-9.53-10.72-13.25.27-2.23-4.1,2.37-6.7,8.63-1.05,2.54-1.11,3.14-2.81,8.34-2.39,7.35-3.69,11.09-5.63,14.57-1.73,3.07-1.68,2.14-4.46,6.7s-4.78,7.87-6,12.35"/>
                        <path class="cls-3"
                              d="M488.74,489.59a23.24,23.24,0,0,1,3.57-6c1.48-1.63,2.11-1.7,4.32-4.17.83-.94,1-1.25,1.49-1.34,2.24-.41,5.08,5.5,5.81,7a48.47,48.47,0,0,1,4,13.7c1.34,7.89.7,9.14,2.11,16.82.44,2.41,1.09,5,2.38,10.13,3.19,12.72,4.08,14,4.46,18.91s.7,9.18-1.79,13.55c-.7,1.27-3.14,5.58-7.89,7-6.86,2-14.25-3.19-17.58-8.34-1.82-2.81-2.36-6.05-3.42-12.5-.5-3-.46-3.83-1.19-12.8-.91-11-1.08-11.1-1.19-14.89-.18-6.06-.27-9.43.6-14.14A50.81,50.81,0,0,1,488.74,489.59Z"/>
                        <path class="cls-8"
                              d="M481.14,498.52a26.78,26.78,0,0,0-.89,6.55,19.27,19.27,0,0,0,1.19,7.73,17,17,0,0,0,1.34,2.68"/>
                        <path class="cls-8" d="M484.72,517.9a15,15,0,0,1,3.41-8.82"/>
                        <path class="cls-8" d="M487.69,501.5a18.1,18.1,0,0,0-3.57,11.61"/>
                        <path class="cls-9"
                              d="M416.76,497.4c.54,0,.39,1.69,2.11,3.72a9.36,9.36,0,0,0,4,2.81c3.11,1.07,5.33-.33,6.1.75.13.18.23.55-.89,3.57-.53,1.41-.79,2.11-1.19,3a76.84,76.84,0,0,0-3.42,10.87,177.38,177.38,0,0,1-7.14,21.59,20.25,20.25,0,0,1-4.32,6.7c-1.69,1.72-3.93,4-7,3.87-3.35-.13-5.52-3-5.81-3.42-2.88-4-1.41-9.32-.45-12.66.23-.79,1-3.52,4.46-9.23,3.3-5.46,4.79-6.65,6.7-9.68C416.41,509,415.33,497.32,416.76,497.4Z"/>
                        <path class="cls-4"
                              d="M447.34,544.67a22.68,22.68,0,0,0-8.93-5.36c-3.9-1.46-4.89-1-7.59-2.68a20.76,20.76,0,0,1-4.61-4c-2.45-2.88-2.46-4.52-4.77-5.81a5.33,5.33,0,0,0-4-.75c-2,.58-2.91,2.6-3.28,3.42a9.74,9.74,0,0,0,0,7.14c1.12,3,3.26,4.64,6.25,6.85,1.62,1.2,2.59,1.69,8.49,4.77,7.59,4,7.63,4,8.18,4.17,5.32,1.67,12.58,1.54,13.7-1.19C451.63,549.13,448.68,546,447.34,544.67Z"/>
                        <path class="cls-4"
                              d="M422.93,543.18c-.84,1.08-.66,2.25-2.38,4.92a20.31,20.31,0,0,1-4.14,4.61c-1.13.92-4.73,4.48-10.13,5.06-4.18.45-6.1.3-6.55-.3-.57-.76-.1,2.33,1,3.57a13.3,13.3,0,0,0,4.46,3.28,10.27,10.27,0,0,0,6.25,1.19c.15,1,1.41,2.17,3,2.81a8.77,8.77,0,0,0,7.73-.45,5.34,5.34,0,0,0,2.53,1.49c1.93.6,3.68.59,9.68-1.93,5.56-2.34,8.35-3.52,10.55-5.81a17.71,17.71,0,0,0,3.72-5.63,11.9,11.9,0,0,0,1-4.32C449.33,544.43,427.14,537.84,422.93,543.18Z"/>
                        <path class="cls-3"
                              d="M514.42,559.33c-1.28,3.14-5.46,5.49-10.94,7.66-7.31,2.9-14.67,3.57-43.32.15-9-1.08-16.88-4.36-14-7,3.28-3,3.87-13.25-.45-17-1.22-1.05,2.81-.88,6.85-1.19a37.39,37.39,0,0,0,8.78-1.93c9.68-2.94,14.51-4.41,18.76-4.92a34.23,34.23,0,0,1,11.76.15"/>
                        <path class="cls-8"
                              d="M499.45,521.84a16.91,16.91,0,0,0-6.1,3.13,17.29,17.29,0,0,0-3.71,4.22c-1.17,1.79-2,3.71-1.8,3.85s1.65-2.81,4.77-4.46a10.55,10.55,0,0,1,4.77-1.19"/>
                        <path class="cls-8"
                              d="M490.38,533.84a25.16,25.16,0,0,1,5.36-.45c2.81.07,6.56.09,10.13,2.38a14.06,14.06,0,0,1,3.42,3.13"/>
                        <path class="cls-8" d="M492.6,531.41a12.75,12.75,0,0,1,8.93-.6"/>
                        <path class="cls-8"
                              d="M458.07,489.73a28.74,28.74,0,0,0,7-1.79,28.07,28.07,0,0,0,10.55-7.29,19.69,19.69,0,0,0,4.75-8.19,17.69,17.69,0,0,0,.6-3.87"/>
                        <path class="cls-8" d="M464.54,482.22q.41.87.89,1.79t.89,1.64"/>
                        <path class="cls-8" d="M468,480.58l1.64,2.11.75.89"/>
                        <path class="cls-8" d="M471.39,478.64a13.11,13.11,0,0,0,2.81,1.49"/>
                        <path class="cls-8" d="M474.22,475.66a22.37,22.37,0,0,1,2.38.15l1.19.15"/>
                        <path class="cls-8" d="M476.45,472.39a16.72,16.72,0,0,0,1.79-.3c.42-.09.82-.19,1.19-.3"/>
                        <path class="cls-8" d="M462.46,487.28,461,482.67"/>
                        <path class="cls-8"
                              d="M417.5,493.53a11.57,11.57,0,0,0,3.57,6.25,12.19,12.19,0,0,0,4.46,2.38,15.42,15.42,0,0,0,5.63.75"/>
                        <path class="cls-8" d="M418.4,493.68a10.6,10.6,0,0,1,2.11-3.57"/>
                        <path class="cls-8" d="M419.58,495.91a5.17,5.17,0,0,1,.75-2.38,5.11,5.11,0,0,1,1.19-1.34"/>
                        <path class="cls-8" d="M421.22,497.54a6.64,6.64,0,0,1,1.49-3"/>
                        <path class="cls-8" d="M422.86,498.74l.89-1.93"/>
                        <path class="cls-8" d="M425,500.23l1.19-1.64"/>
                        <path class="cls-8" d="M426.88,501.42l1-1.19"/>
                        <path class="cls-8"
                              d="M451.3,542.95a6.33,6.33,0,0,1,1.64.89c1.76,1.34,2.25,3.29,2.68,5.06a15.38,15.38,0,0,1-.3,8.34,8.27,8.27,0,0,1-2.11,3.72,7.58,7.58,0,0,1-3.87,1.93"/>
                        <path class="cls-8" d="M447.87,543.25l1.79.3,1.93.3"/>
                        <path class="cls-8" d="M448.62,545h3.72"/>
                        <path class="cls-8" d="M449.36,546.84c.56.07,1.15.12,1.79.15h2.24"/>
                        <path class="cls-8" d="M450.1,549.51a16.88,16.88,0,0,0,4.17-.3"/>
                        <path class="cls-8" d="M449.8,551.59a6.15,6.15,0,0,0,4.32.45"/>
                        <path class="cls-8" d="M450,554.27h1.93a13.08,13.08,0,0,1,1.79.15"/>
                        <path class="cls-8" d="M449.51,556.84a3.33,3.33,0,0,1,3.42.75"/>
                        <path class="cls-8" d="M448.46,558.73a3.34,3.34,0,0,1,2.68,1.79"/>
                        <path class="cls-8" d="M447.27,560.22a3.28,3.28,0,0,1,1.49.89,3.21,3.21,0,0,1,.6.89"/>
                        <path class="cls-10"
                              d="M444.14,473.6c1.41-.9,1.69-.63,6.55-1.93,4.45-1.2,6.67-1.79,7.89-2.24a11.08,11.08,0,0,1,4.77-.89c1,.06,2.44.15,2.81,1s-.92,2.38-1.49,3c-1.79,1.86-4.22,3.12-11,4.92-3.69,1-5.82,1.35-5.81,1.93s1.61.9,2.68,1c4.25.56,7.23-2.06,8.34-.89a1.89,1.89,0,0,1,.3,1.49c-.06.51-.32,1.41-1.93,2.53a13.76,13.76,0,0,1-4.61,1.93c-3.71,1.07-4.87,1.15-4.92,1.64s1.77,1.52,3.57,1.79c3.3.49,5.32-1.29,6.25-.3a2.26,2.26,0,0,1,0,2.38c-.7,1.24-2.26,1.5-3.72,1.79-4.32.85-1.46.79-8.34,2.24-1.83.38-3.8.7-7.73,1.34s-4.86.7-6.1.3a8.86,8.86,0,0,1-4.32-3.72,10.69,10.69,0,0,1-1.93-6.1c0-2.17.82-2.36,1.93-6.4a36.68,36.68,0,0,0,1.19-6.4c.32-3.45.47-5.17-.15-7.14-1.34-4.22-4.74-5.2-4.32-8a3.52,3.52,0,0,1,1.64-2.53c1.82-1,4.35.65,6.1,1.79a13.25,13.25,0,0,1,3.72,3.42,13.06,13.06,0,0,1,2.38,6,10.88,10.88,0,0,1-.6,6c-.93,2.14-2.29,2.93-1.93,3.57S442.28,474.84,444.14,473.6Z"/>
                        <path class="cls-10"
                              d="M418.09,527.17c-.43.46.46,1.92,1.49,3.57,1.74,2.81,3,4.78,5.21,6.4,3.78,2.73,6.43,1.53,7.29,3.42.79,1.72-.83,3.92-3.87,8s-5.34,7.26-9.7,9.68c-3.08,1.72-5.63,2.19-5.51,2.81s3.27.88,6,.6c6-.64,9.65-3.65,10.27-2.81.39.52-.7,2.24-1.93,3.28-1.73,1.41-3.57,1.41-3.57,1.93s1.58,1.09,3.28,1.19c4.7.27,8.37-3.45,8.63-3.13s-3.27,2.81-3,3.28c.07.12.44.23,4.17-1.34s5.72-2.41,6.85-3.57a11,11,0,0,0,2.68-4.77,12.86,12.86,0,0,0,0-6.4A11.78,11.78,0,0,0,444,543.5c-1.41-1.62-2.94-2.24-5.63-3.28-5.24-2-6.18-.83-8.93-2.68a16.7,16.7,0,0,1-4.77-5.06c-.86-1.45-1.12-2.42-2.38-3.57C420.76,527.58,418.59,526.64,418.09,527.17Z"/>
                        <path class="cls-9"
                              d="M440.87,510.5s.58,0,7.89-.89a38.29,38.29,0,0,0,13.7-4.77c4.5-2.41,8-4.3,10.72-8.34a39.2,39.2,0,0,0,3.57-7.43c.78-2,1.28-3.58,2.24-6.7,2.46-8,2.54-9.71,4.17-10.42,1.44-.63,3.09,0,6.4,1.34,3,1.17,4.43,1.76,4.77,3,.53,2-2.31,3.47-5.63,8a38.45,38.45,0,0,0-4.32,7.89c-2.81,7.25-1.41,13.54-1.79,13.55s-1.25-5.15-.75-11.46c.32-4.06,1.31-6.62,1-6.7s-2.45,4.74-3.87,10a35.77,35.77,0,0,0-1.64,9.38c-.07,3.37-.13,6.28,1.34,9.38a15.34,15.34,0,0,1,1.49,3.42c.57,2.25,0,2.94.3,5.51.39,3.52,1.69,4.33,1,5.51-.76,1.41-3.08,1.2-6.1,1.49-.5,0-3.8.93-10.42,2.68-10.64,2.81-12,3.45-15.78,3.57-3.2.11-5.88-.23-8.34-1.79-2.07-1.31-4.06-3.52-3.57-4.46s3.94.7,9.08-.3c2.81-.53,5.76-1.82,5.63-2.68s-3.19-.49-7.59-2.24a15.38,15.38,0,0,1-6-3.57c-3.52-3.75-4.47-10.39-2.11-12.35C437.16,510.47,437.83,510.66,440.87,510.5Z"/>
                        <path class="cls-9"
                              d="M486.72,499.49c1.06-1.93.94-2.45,1.93-4.92a47.88,47.88,0,0,1,2.81-5.51c2.77-4.92,3.79-5.83,4.77-6.4a4.19,4.19,0,0,1,3-.89c1.34.29,2.69,1.79,4.17,7.89a66.58,66.58,0,0,1,1.6,10.72,120.07,120.07,0,0,0,2.81,18.76c1.17,4.8,2.6,8.94,3.42,11.31a95.69,95.69,0,0,1,3.42,11.46c.7,3.28.89,4.88.75,4.92a22.15,22.15,0,0,0-3.42-8,15.86,15.86,0,0,0-7-5.36c-3.9-1.45-7.12-.65-7.14-1s3.14-1.36,6.7-1c2.24.2,3.63.83,3.72.6s-2.11-2-5.06-2.68c-3.27-.77-6,0-6.1-.3s4.22-1.15,4.17-1.93c0-.58-2.48-1.1-4.77-.89a31.62,31.62,0,0,0-3.42.75,17.69,17.69,0,0,1,5.36-2.81c4.26-1.6,7-1.51,7-2.24s-2.29-1.41-4.17-1.64a11.53,11.53,0,0,0-5.63.89c-4,1.69-5.53,4.71-6.55,4.17-.49-.25-.39-1.07-.45-2.68-.15-4.75-1.15-5.1-.89-7.14.58-4.56,6-6.19,5.36-7.73-.47-1.08-3.58-1.27-5.51,0a8.35,8.35,0,0,0-2.11,2.53,13.17,13.17,0,0,1,2.24-5.21c2.61-3.91,6-5.54,5.81-6s-6.8,2.92-7.45,1.93C486,500.72,486.27,500.32,486.72,499.49Z"/>
                        <path class="cls-9"
                              d="M454.72,542.84c-.13.63.86.76,1.93,2.53,1.31,2.15,1.41,4.5,1.49,7.29.08,2.44-.2,2.36,0,3,.63,1.93,3.75,3.43,17,3.72a139.94,139.94,0,0,0,22.5-1.34c9.65-1.31,12.26-2.5,13.4-4.77,1.25-2.48.37-5.47-.3-7.73a15.43,15.43,0,0,0-5.51-8.34c-4.63-3.45-10.17-3.21-10.27-2.81-.06.22,1.69.46,3.87,1.93,3.52,2.38,5.58,6.21,5.06,6.7s-2.11-1.51-6.1-3.57a29.62,29.62,0,0,0-8.49-3,27.37,27.37,0,0,0-10.55.3c-5.37,1.09-5.15,2.48-10.42,3.87C460.89,542.51,455.08,541.24,454.72,542.84Z"/>
                        <path class="cls-9"
                              d="M420,479.23c-1.64,0-3.09,1.78-5.63,6.85a90.57,90.57,0,0,0-5.07,11.76c-2.35,7.26-1.91,8-3.42,12.5-3.49,10.37-8.88,16-8.37,16.38s5.23-4.1,8.63-10.72c1.18-2.29,2-4.92,3.72-10.13,3.65-11.25,2.76-11.36,4.61-14,4-5.63,5.93-8.44,6.55-8.93.37-.32,1.54-1.29,1.34-2.24A2.4,2.4,0,0,0,420,479.23Z"/>
                    </g>
                </g>
            </g>
            <circle class="cls-1" cx="115" cy="422" r="115"/>
            <polygon class="cls-11" points="152.49 471.2 174.99 471.69 154.66 493.7 152.49 471.2"/>
            <polygon class="cls-12"
                     points="70.95 348.3 176.92 348.3 176.92 471.69 153.94 471.69 152 496.12 70.95 497.33 70.95 348.3"/>
            <polygon class="cls-13" points="86.19 439.75 95.15 450.16 59.58 484.51 51.11 475.56 86.19 439.75"/>
            <circle class="cls-14" cx="124.77" cy="411.01" r="33.97"/>
            <path class="cls-15"
                  d="M177.21,345H71a3.09,3.09,0,0,0-3.09,3.09h0V453.8L52.08,469.57a10,10,0,0,0,14.2,14.2l1.65-1.65v14.78A3.09,3.09,0,0,0,71,500h80.76a3.1,3.1,0,0,0,2.18-.9l25.44-25.44a3.09,3.09,0,0,0,.9-2.18V348.1A3.09,3.09,0,0,0,177.21,345ZM61.94,479.49A3.85,3.85,0,0,1,56.49,474l29.62-29.57,5.44,5.44Zm92.9,10V474.55h14.93ZM174.1,468.4H151.74a3.09,3.09,0,0,0-3.09,3.09h0v22.38H74.11V476l24-24a3.09,3.09,0,0,0,0-4.35l-2.82-2.82,5.92-5.92a36.65,36.65,0,1,0-4.39-4.35l-5.88,5.88-2.64-2.64a3.09,3.09,0,0,0-4.35,0l-9.76,9.75v-96.4h100V468.45ZM94.16,410.81a30.4,30.4,0,1,1,0,.05Z"/>
            <path class="cls-15" d="M142,407.92H107.49a3.09,3.09,0,0,0-.44,6.17h35a3.09,3.09,0,1,0,.44-6.17H142Z"/>
            <path class="cls-15" d="M142,420H107.49a3.09,3.09,0,1,0-.44,6.17h35a3.09,3.09,0,1,0,.44-6.17H142Z"/>
            <path class="cls-15"
                  d="M121.35,395.56H107.49a3.09,3.09,0,0,0-.44,6.17H121.4a3.09,3.09,0,1,0,.44-6.17h-.49Z"/>
            <path class="cls-15" d="M132.46,395.56h-1.81a3.09,3.09,0,0,0,0,6.17h1.81a3.09,3.09,0,1,0,.44-6.17h-.44Z"/>
            <circle class="cls-1" cx="445" cy="115" r="115"/>
            <polyline class="cls-16"
                      points="380.06 101.36 380 155.22 445.51 192.15 512.63 154.89 512.63 99.98 380.06 101.36"/>
            <polyline class="cls-17"
                      points="375.5 80.07 375.5 99.02 443.58 137.55 516.16 98.05 516.16 80.07 375.5 80.07"/>
            <polygon class="cls-18" points="375.5 80.07 445.51 120.53 516.16 80.07 445.83 40.24 375.5 80.07"/>
            <polygon class="cls-19"
                     points="470.24 125.99 470.88 140.76 481.16 131.45 482.76 134.98 483.63 116.52 470.24 125.99"/>
            <polygon class="cls-20" points="473.45 104.8 487.58 97.09 488.54 113.47 475.05 120.53 473.45 104.8"/>
            <polygon class="cls-21" points="405.05 64.33 473.45 103.83 487.58 98.05 418.53 56.62 405.05 64.33"/>
            <polyline class="cls-19"
                      points="406.01 116.52 418.53 124.71 417.25 140.76 410.18 131.45 405.05 134.98 406.01 116.52"/>
            <polygon class="cls-20" points="406.01 98.05 417.25 104.8 417.25 121.82 403.44 115.07 406.01 98.05"/>
            <polygon class="cls-21" points="406.01 96.44 473.45 56.62 486.29 63.37 417.25 104.8 406.01 96.44"/>
            <path class="cls-15"
                  d="M391,85.21l-1.61-.93a3.28,3.28,0,0,0-4.5,1.28A3.32,3.32,0,0,0,386.1,90l1.61.93A3.32,3.32,0,0,0,391,85.21Z"/>
            <path class="cls-15"
                  d="M518.73,80.39V80h0v-.55l-.1-.29V79c-.06-.13-.1-.22-.16-.35l-.22-.32h0l-.19-.22h0l-.29-.22h0l-.32-.22h0L447.79,37.48a3.37,3.37,0,0,0-3.31,0L402.93,61.57h0L374.44,77.63a3.28,3.28,0,0,0-1.67,2.86V98.31a3.28,3.28,0,0,0,1.67,2.86l1.86,1.12V154.7a3.28,3.28,0,0,0,1.67,2.86l66.09,38.15h0l.39.19h0l.35.1h1.77l.35-.1h0l.39-.19h0l66.09-38.15a3.28,3.28,0,0,0,1.67-2.86V102.23l1.86-1.12a3.28,3.28,0,0,0,1.67-2.86V80.39Zm-10,0L487.19,92.82,465.64,80.39,487.23,68Zm-59.64,40.18V118.7l-.1-.16v-.1l-.13-.16h-.1l-.13-.13-.13-.1-.13-.1-.16-.1h0l-23.22-13.39L446.6,92l21.58,12.43-24.57,13a3.31,3.31,0,0,0,3.21,5.78S467,112.82,467,112.82l4.5-2.6v10L449.14,132.7V120.56Zm-6.62,2v10.18l-21.65-12.52V110Zm10-34.49,6.62-3.82L480.64,96.7,474,100.52Zm22.8,37.22,6.62-3.82v7.29a3.31,3.31,0,0,0-3.21.93l-3.44,3.6,0-8Zm2.06-8.83V106.27l6.62-3.82v10.18l-.32.19h0ZM445.86,44l34.78,20.1L417.7,100.52l-6.62-3.82,23.19-13.39h0l13.26-7.64h0l27.23-16A3.3,3.3,0,0,0,471.46,54L445.83,69,424.28,56.56Zm-36.1,77.43,6.62,3.82v8l-3.44-3.6a3.33,3.33,0,0,0-3.21-.93l0-7.29Zm-2.06-8.86V102.42l6.62,3.82v10.21Zm10-52.31,21.55,12.43-6.71,3.85L411,64.14Zm-38.15,22L404.4,68,426,80.39,404.4,92.82,380,79.2a3.28,3.28,0,0,0-4.5,1.28,3.32,3.32,0,0,0,1.19,4.46l24.41,13.62v10.18L379.51,96.32Zm119.14,27.75,10.79-6.23-.51,41.59-.32,7.26h0l-59.48,34.39V137.55a3.31,3.31,0,0,0-6.62,0v49.52l-59.44-34.33V106.08l20,11.56v15.93h0v1.8l.1.16h0l.16.16h0l.16.16h.1l.16.1h3l2.06-.8,7.61,8.06h0l.16.13.1.1.16.1h.1l.16.1h.13l.29.16h0l.29.1h2.92l.13-.1.13-.1h0l.13-.13.1-.1.1-.13.1-.13V128.85l21.16,12.24h0l.39.19h0l.35.1h1.77l.35-.1h0l.39-.19h0L467,128.85v14.42l.1.13.1.13.1.1.13.13h0l.13.1.13.1h2.86l.29-.1h0l.29-.16h.42l.16-.1.1-.1.16-.13h0l7.61-8.06,2.06.8h3l.16-.1h.1l.16-.16h0l.16-.16h0l.1-.16v-1.8h0V117.8l6.78-3.92m20.07-17.57-1.86,1.06h0L497,105.05h0l-6.42,3.69V98.57l21.55-12.43V96.32Z"/>
            <path class="cls-15"
                  d="M454.57,118.89a3.22,3.22,0,0,0,1.64-.45l1.61-.9a3.3,3.3,0,0,0-3.31-5.72l-1.61.9a3.35,3.35,0,0,0-1.22,4.53,3.41,3.41,0,0,0,2.89,1.64Z"/>
            <path class="cls-15"
                  d="M461.25,67.13a3.22,3.22,0,0,0,1.64-.45l1.7-1A3.3,3.3,0,0,0,461.28,60l-1.7,1a3.3,3.3,0,0,0,1.67,6.17Z"/>
            <path class="cls-15"
                  d="M445.77,145.42a3.3,3.3,0,0,0-3.31,3.31v2a3.31,3.31,0,0,0,6.62,0v-2A3.32,3.32,0,0,0,445.77,145.42Z"/>
            <circle class="cls-1" cx="222" cy="203" r="115"/>
            <polygon class="cls-22"
                     points="150.29 255.86 156.9 241.28 174.67 235.13 186.42 244.24 197.68 235.13 211.81 238.32 223.2 251.76 221.6 260.19 159.86 260.19 150.29 255.86"/>
            <polygon class="cls-23"
                     points="172.62 200.15 172.62 188.19 184.92 183.41 198.36 186.27 202.24 200.15 172.62 200.15"/>
            <polygon class="cls-24"
                     points="172.62 203 189.71 194.8 200.45 200.15 197.91 223.05 186.53 228.52 176.49 223.05 172.62 203"/>
            <polygon class="cls-25"
                     points="184.24 147.86 189.02 145.13 289.96 145.13 294.97 151.28 293.61 218.04 289.73 223.05 197.91 223.05 201.1 194.34 195.86 185 181.96 182.95 184.24 147.86"/>
            <polygon class="cls-26" points="259.2 160.16 272.87 160.16 273.78 212.12 259.2 212.12 259.2 160.16"/>
            <rect class="cls-27" x="235.05" y="188.19" width="13.22" height="23.92"/>
            <polygon class="cls-28" points="211.81 171.56 224.57 171.56 225.89 210.97 210.67 210.97 211.81 171.56"/>
            <path class="cls-15"
                  d="M287.86,142h-99a9.6,9.6,0,0,0-9.59,9.59V181a12.94,12.94,0,0,0-10.4,13.54l.42,6.25,1,14.59a16.19,16.19,0,0,0,27.64,10.37h90a9.6,9.6,0,0,0,9.59-9.59v-64.6A9.6,9.6,0,0,0,287.86,142ZM175.1,197.34l-.21-3.17a7,7,0,0,1,6.54-7.41h8.18l-1.68,4.44C187.43,191.9,184.31,196.1,175.1,197.34ZM196.6,215a10.19,10.19,0,0,1-20.35,0l-.75-11.67a27.4,27.4,0,0,0,14.49-5.7,12.37,12.37,0,0,0,2.1,1.4,27.68,27.68,0,0,0,5.44,1.87Zm1.4-20.85v.57a17.62,17.62,0,0,1-3.08-1.1,6,6,0,0,1-1.18-.76l1.71-4.58a7.11,7.11,0,0,1,.68.66,6.89,6.89,0,0,1,1.8,5.21Zm93.45,22a3.59,3.59,0,0,1-3.59,3.59H201.67a16.29,16.29,0,0,0,.91-4.37v-.22h77.19a3,3,0,0,0,0-6h-3.25V159.77a3,3,0,0,0-3-3H259a3,3,0,0,0-3,3h0v49.43h-3.74V187.74a3,3,0,0,0-3-3H234.8a3,3,0,0,0-3,3h0v21.46H228.3V171.56a3,3,0,0,0-3-3H210.83a3,3,0,0,0-3,3h0v37.64H203l.68-10.45.27-4.19a13,13,0,0,0-3-9.12V155.74a3,3,0,1,0-6,0h0v25.63a12.92,12.92,0,0,0-3.93-.62h-5.7V151.57a3.59,3.59,0,0,1,3.59-3.6h99a3.59,3.59,0,0,1,3.59,3.59h0Zm-77.63-7V174.55h8.49v34.64Zm24,0V190.74h8.39v18.46Zm24.19,0V162.79h8.49v46.41Z"/>
            <path class="cls-15"
                  d="M225.7,252.09a24.73,24.73,0,0,0-24.35-20.33h-4.57a3,3,0,0,0-2.13.88l-8.25,8.25-8.25-8.25a3,3,0,0,0-2.13-.88h-4.57a24.73,24.73,0,0,0-24.35,20.33,10.11,10.11,0,0,0,10,11.91h58.7a10.11,10.11,0,0,0,10-11.91Zm-6.79,4.44a4.1,4.1,0,0,1-3.16,1.49H157a4.12,4.12,0,0,1-4.05-4.85,18.74,18.74,0,0,1,18.46-15.38h3.33l9.49,9.49a3,3,0,0,0,4.19,0l9.49-9.49h3.33a18.74,18.74,0,0,1,18.46,15.38h0a4.1,4.1,0,0,1-.8,3.37Z"/>
            <circle class="cls-1" cx="664" cy="204" r="115"/>
            <polygon class="cls-29"
                     points="685.76 178.07 679.01 183.39 656.07 184.03 618.65 232.04 649.54 261.51 701.74 234.17 706 221.74 716.65 207.54 685.76 178.07"/>
            <polygon class="cls-30"
                     points="608.71 210.38 643.15 178.07 649.18 184.1 661.97 184.1 641.73 206.47 642.08 212.51 647.41 215.35 665.87 201.5 679.37 201.86 706 228.49 667.29 268.26 657.35 261.16 657.35 249.79 628.24 223.16 620.07 224.23 608.71 210.38"/>
            <polygon class="cls-31" points="683.63 172.03 704.93 151.79 744.7 190.85 724.11 212.51 683.63 172.03"/>
            <polygon class="cls-32" points="582.43 190.14 621.84 151.79 643.15 173.45 604.09 212.51 582.43 190.14"/>
            <path class="cls-15"
                  d="M747.68,189.18l-40.34-39.8a3.34,3.34,0,0,0-4.72,4.72l8.81,8.31,29.19,29.15-17,17a1.38,1.38,0,0,1-1.92.07l-.07-.07h0l-33.66-33.66a1.38,1.38,0,0,1-.07-1.92l.07-.07h0l19.42-18.85a3.34,3.34,0,1,0-4.72-4.72l-8,7.42h0l-11.33,11.54a7.85,7.85,0,0,0-1.7,8.77l-3.94,3.94h-27l-5-4.94A8.56,8.56,0,0,0,646,174a7.84,7.84,0,0,0-2.34-5.65l-19.07-18.68a3.32,3.32,0,0,0-5.26,4c.18.25,8.34,8,8.59,8.17L639,173a1.38,1.38,0,0,1,.07,1.92l-.07.07h0l-.92.92-32.7,32.74h0a1.33,1.33,0,0,1-1.85,0l-17-17,37.89-37.53a3.34,3.34,0,0,0-4.79-4.65l-8.31,7.85-31.81,31.92a3.28,3.28,0,0,0,0,4.69h0l19.39,19.39a8,8,0,0,0,8.42,1.85L618.22,226a11.38,11.38,0,0,0,4.72,15.37,11.58,11.58,0,0,0,5.33,1.31h0a11.39,11.39,0,0,0,11.33,11.36h0a11.36,11.36,0,0,0,16.72,10l4,3.94a10.09,10.09,0,0,0,17.22-6.71A10.31,10.31,0,0,0,687.35,251h0a11.22,11.22,0,0,0,10.47-11.18,10.86,10.86,0,0,0,9.37-15.84L718.1,214a7.93,7.93,0,0,0,10.23-.89l19.39-19.39a3.28,3.28,0,0,0,0-4.69h0ZM628.2,236.05a4.72,4.72,0,1,1,4.72-4.72h0a4.72,4.72,0,0,1-4.72,4.72ZM643.11,246l-.39.39a4.73,4.73,0,1,1,.39-.39ZM654.3,257.5h0a4.72,4.72,0,0,1-6.82-6.53h0l.39-.39a4.72,4.72,0,0,1,6.5,6.82ZM700.46,232a4.2,4.2,0,0,1-5.93,0l-6.92-6.92a3.34,3.34,0,1,0-4.72,4.72l6.92,6.92h0a4.52,4.52,0,1,1-6.28,6.5h0l-6.64-6.28a3.32,3.32,0,1,0-4.54,4.83l7.24,6.85a3.62,3.62,0,1,1-5,5.18h0l-3.37-3.37a3.34,3.34,0,1,0-4.72,4.72l3.48,3.48a3.44,3.44,0,1,1-4.76,5l-.11-.11L661,259.42a11.35,11.35,0,0,0-10-16.69h0a11.35,11.35,0,0,0-11.36-11.36h0a11.36,11.36,0,0,0-16.72-10l-10.4-10.4,29.29-29.4,5.11,5.11a3.36,3.36,0,0,0,2.38,1h4.4l-13.14,13.14a10.62,10.62,0,1,0,15.09,14.95l11.15-11.15,12.18.14L700.49,226a4.2,4.2,0,0,1,0,5.93Zm2.38-12.92-20.31-20h0a3.26,3.26,0,0,0-2.73-.92L665.34,198a3.27,3.27,0,0,0-2.38,1l-12.07,12.14a4,4,0,0,1-5.61-5.61l17.82-17.82h16.08a3.33,3.33,0,0,0,2.34-1l4.44-4.44,27.34,27.34Z"/>
            <circle class="cls-15" cx="724.14" cy="193.05" r="3.34"/>
            <circle class="cls-15" cx="602.6" cy="193.41" r="3.34"/>
            <circle class="cls-15" cx="622.02" cy="151.97" r="3.34"/>
            <circle class="cls-15" cx="705" cy="151.72" r="3.34"/>
            <circle class="cls-1" cx="759" cy="422" r="115"/>
            <polygon class="cls-33"
                     points="698.52 376.17 706.55 369.29 822.6 369.29 836.65 381.9 836.65 473.03 686.78 473.03 686.78 448.67 695.66 434.63 698.52 376.17"/>
            <rect class="cls-34" x="708.27" y="426.03" width="119.21" height="17.19"/>
            <polygon class="cls-34"
                     points="709.42 380.75 821.74 380.75 826.04 387.35 826.04 398.52 708.27 398.52 709.42 380.75"/>
            <circle class="cls-35" cx="797.67" cy="474.17" r="12.9"/>
            <circle class="cls-35" cx="711.42" cy="474.17" r="12.9"/>
            <path class="cls-15"
                  d="M818,377.66H709a4.88,4.88,0,0,0-4.88,4.88h0v16.71a3.2,3.2,0,0,0,3.2,3.2h119a3.2,3.2,0,0,0,3.2-3.2h0V389.14A11.5,11.5,0,0,0,818,377.66Zm-79.52,18.39h-28v-12h28Zm46.65,0H744.92v-12H785.1Zm6.38,0v-12H818a5.1,5.1,0,0,1,5.1,5.1h0v6.91Z"/>
            <path class="cls-15"
                  d="M826.3,422.6h-119a3.2,3.2,0,0,0-3.2,3.2h0v18.39a3.2,3.2,0,0,0,3.2,3.2h119a3.2,3.2,0,0,0,3.2-3.2h0V425.8a3.2,3.2,0,0,0-3.2-3.2ZM738.47,441h-28V429h28Zm46.65,0H744.92V429H785.1Zm6.38,0V429h31.59v12Z"/>
            <path class="cls-15"
                  d="M843.71,469.19H841V389.14a23,23,0,0,0-23-23H709a16.4,16.4,0,0,0-16.38,16.38v52L688,438.18a12.67,12.67,0,0,0-4.64,10.23v24a3.2,3.2,0,0,0,3.2,3.2H695a17.48,17.48,0,0,0,34.42,0h51.41a17.48,17.48,0,0,0,34.42,0H843.7a3.2,3.2,0,0,0,0-6.38ZM699,382.54a10,10,0,0,1,10-10H818a16.61,16.61,0,0,1,16.55,16.6v21.64H699Zm-3.32,84.35V467l-.17.54v.25l-.12.49v.33l-.09.43v.09H690v-7.74h9a17.48,17.48,0,0,0-3.29,5.41Zm16.57,16.71a11.11,11.11,0,0,1-11.09-11.09v-2.45l.09-.4h0a11.09,11.09,0,0,1,21.45,0h0l.09.4v2.44a11.11,11.11,0,0,1-10.54,11.08Zm69.27-16.71V467l-.17.54v.25l-.12.49v.33l-.09.43v.09H729.46v-.09l-.09-.43v-.33l-.12-.49v-.25l-.17-.54v-.15a17.48,17.48,0,0,0-3.09-5.5H784.8a17.46,17.46,0,0,0-3.31,5.48Zm16.57,16.71A11.11,11.11,0,0,1,787,472.51v-2.4l.11-.43h0a11.09,11.09,0,0,1,21.45,0h0l.11.43v2.39a11.11,11.11,0,0,1-10.59,11.08Zm36.47-14.4H815.23v-.09l-.09-.43v-.33l-.12-.49v-.25l-.17-.54v-.15a17.48,17.48,0,0,0-3.09-5.5h2.69a3.2,3.2,0,0,0,0-6.38H689.76v-6.6a6.45,6.45,0,0,1,2.21-5.21l5.82-4.64a3.2,3.2,0,0,0,1.22-2.5V417.27H834.55Z"/>
            <circle class="cls-1" cx="445" cy="746" r="115"/>
            <polygon class="cls-36" points="395.56 810.57 405.94 823.99 477.94 824.92 487.45 812.8 395.56 810.57"/>
            <polyline class="cls-37"
                      points="392.09 749.5 491.18 750.55 491.18 784.66 477.94 802.37 463.41 808.33 428.93 808.33 409.73 805.35 395.94 793.79 392.77 774.69 392.09 749.5"/>
            <polyline class="cls-38" points="392.02 730.24 491.18 730.24 491.18 747.76 392.09 749.5 392.02 731.36"/>
            <polygon class="cls-39"
                     points="455.58 670.22 445.3 676.38 437.87 687.37 427.63 682.06 410.67 683.27 410.67 699.49 416.63 708.25 433.12 711.04 438.81 708.8 444.93 711.04 464.15 711.04 477.94 703.77 482.05 693.71 455.58 670.22"/>
            <polygon class="cls-40" points="458 671.53 459.68 691.28 480 692.59 480 671.53 458 671.53"/>
            <polygon class="cls-41"
                     points="459.49 760.62 452.97 770.31 452.97 786.9 477.94 786.9 477.94 771.62 472.54 760.62 459.49 760.62"/>
            <path class="cls-15"
                  d="M502.87,736.53H495.3v-6.39a3.08,3.08,0,0,0-3.08-3.08H468.7v-1.54a3.14,3.14,0,0,0-6.28,0h0v1.54H390.78a3.08,3.08,0,0,0-3.08,3.08v43.28a38.26,38.26,0,0,0,12.8,29.08,40.57,40.57,0,0,0,6.34,4.61H386.94a3.14,3.14,0,1,0,0,6.28h5.38l11.07,12.3a4,4,0,0,0,3,1.3h70.27a4,4,0,0,0,3-1.3l11.07-12.3H496a3.14,3.14,0,0,0,0-6.28H476.14a40.59,40.59,0,0,0,6.34-4.61,38.21,38.21,0,0,0,12.8-28.56A20.23,20.23,0,0,0,506,756V739.68a3.08,3.08,0,0,0-3-3.15Zm-34.25-3.24H489v13.19H468.63ZM471.28,764l4.7,7.83v13.71H455V771.85l4.7-7.83ZM482,813.36l-6.55,7.25H407.36l-6.58-7.25Zm6.88-40c0,19.52-15.54,33.68-36.9,33.68H430.88c-21.41,0-36.9-14.16-36.9-33.68V733.29h68.44v13.19l-70.08-.21c-1.74,0-.25,1.49-.25,3.23s-2.36,3.57-.62,3.57l70.88-.31v5H457.9a3.08,3.08,0,0,0-2.7,1.54l-6.07,10.1a3.08,3.08,0,0,0-.45,1.61v17.74a3.08,3.08,0,0,0,3.08,3.08h27.3a3.08,3.08,0,0,0,3.08-3.08V771a3.08,3.08,0,0,0-.45-1.61l-6.05-10.09a3.08,3.08,0,0,0-2.69-1.54h-4.44v-5h20.36v20.66ZM499.69,756a14,14,0,0,1-4.42,10.22V742.83h4.42Z"/>
            <path class="cls-15"
                  d="M482.75,669.92a3.08,3.08,0,0,0-2.26-2.26h-.22l-.66-.15h-.32l-.52-.11a63.48,63.48,0,0,0-20.4-1h0l-1,.15h0c-1.12.18-2.21.41-3.26.67a22.37,22.37,0,0,0-17.21,16.91l-.32-.34c-8.69-8.82-26.41-4.32-27.16-4.12a3.08,3.08,0,0,0-2.24,2.26c-.2.75-4.61,18.44,4.1,27.13,4.29,4.29,10.76,5.41,16.24,5.41a47.65,47.65,0,0,0,10.88-1.3.89.89,0,0,1,1.18,0A67.18,67.18,0,0,0,455,715c7.69,0,16.48-1.54,22.33-7.38a24.18,24.18,0,0,0,6.15-11.22c.28-1.06.51-2.15.69-3.24A63.65,63.65,0,0,0,482.75,669.92Zm-47.86,37.47c-5.1,1-14.68,1.63-19.2-2.87s-3.81-14.16-2.86-19.26c5.1-1,14.75-1.69,19.23,2.86,2.06,2.09,3.23,5.59,3.46,10.06v.29a42,42,0,0,1-.64,8.91Zm37.89-4.27c-7.83,7.83-24.25,5.39-29.77,4.31a66.63,66.63,0,0,1-1.14-8.72v-1.54c-.25-6.76.71-14.79,5.5-19.58a17.15,17.15,0,0,1,6.93-4A66.81,66.81,0,0,0,456,692.22a3.08,3.08,0,0,0,2.26,2.26,67.8,67.8,0,0,0,15.37,1.84c1,0,2.11,0,3.18-.09a17.11,17.11,0,0,1-4.06,6.91Zm5.52-17.38v1.43h0v2.58a59.13,59.13,0,0,1-16.43-1,58.84,58.84,0,0,1-1.25-16.4h6c1.09,0,2.15.09,3.16.18h2.12l2.08.28H477v3.35h0a4.13,4.13,0,0,0,.14,1v3.49h0c0,.62.08,1.25.11,1.89v2.72q1,.22,1,.46Z"/>
            <circle class="cls-1" cx="206" cy="657" r="115"/>
            <polygon class="cls-42"
                     points="133.16 692.71 148.91 694.68 168.91 681.89 189.9 675.65 206.3 689.43 217.78 678.61 230.57 676.64 256.48 690.09 264.68 694.68 281.41 691.07 267.63 711.08 251.56 722.88 229.92 722.88 213.52 712.06 206.3 701.89 200.73 710.09 184.66 720.59 167.27 722.88 148.58 715.67 133.16 692.71"/>
            <circle class="cls-43" cx="234.51" cy="614.65" r="22.96"/>
            <path class="cls-15"
                  d="M262.65,675.1a2.77,2.77,0,0,0-.16-.56,2.62,2.62,0,0,0-.26-.52,3.51,3.51,0,0,0-.85-.85,3.92,3.92,0,0,0-.52-.26,3.58,3.58,0,0,0-.56-.16,3.76,3.76,0,0,0-1.21,0,2.77,2.77,0,0,0-.56.16,2.62,2.62,0,0,0-.52.26,2.48,2.48,0,0,0-.46.36,5.71,5.71,0,0,0-.39.46,3.92,3.92,0,0,0-.26.52,3.58,3.58,0,0,0-.16.56,1.78,1.78,0,0,0,0,.59,2,2,0,0,0,0,.62,2.77,2.77,0,0,0,.16.56,2.94,2.94,0,0,0,1.15,1.38,3.92,3.92,0,0,0,.52.26,3.58,3.58,0,0,0,.56.16,3.76,3.76,0,0,0,1.21,0,2.77,2.77,0,0,0,.56-.16,2.62,2.62,0,0,0,.52-.26,5.71,5.71,0,0,0,.46-.39,2.48,2.48,0,0,0,.36-.46,3.92,3.92,0,0,0,.26-.52,3.09,3.09,0,0,0,.16-1.74Z"/>
            <path class="cls-15"
                  d="M284.13,688.74a3,3,0,0,0-3.31-.69S271,692,264.42,692c-1.64,0-5-2.76-8.3-5.41-7.12-5.77-16.86-13.74-30.34-13.74h-.72a22,22,0,0,0-18,10.27l-.59,1-.59-1a22,22,0,0,0-18-10.27h-.72c-13.48,0-23.22,7.87-30.34,13.74-3.28,2.66-6.66,5.41-8.3,5.41-6.59,0-16.3-3.94-16.4-3.94a3.06,3.06,0,0,0-3.94,1.84,2.9,2.9,0,0,0,0,2.1c.43,1,10.17,24.76,31.19,32a38,38,0,0,0,12.4,2,45.42,45.42,0,0,0,13.74-2.16,35,35,0,0,0,20.7-16.3l.26-.52.26.52a35,35,0,0,0,20.7,16.3A44.42,44.42,0,0,0,241.1,726a37.87,37.87,0,0,0,12.4-2c21-7.28,30.76-31.06,31.19-32A2.79,2.79,0,0,0,284.13,688.74ZM202.1,702c-.39.92-.82,1.84-1.31,2.79-7,13.18-26.57,18-39.46,13.58-12-4.2-20.11-15.05-24.2-22.11a45,45,0,0,0,11.41,2c3.94,0,7.51-3,12.17-6.79,6.76-5.48,15.15-12.3,26.47-12.3h.52a15.85,15.85,0,0,1,13.05,7.45A16.77,16.77,0,0,1,202.1,702Zm49.56,16.33a31.32,31.32,0,0,1-10.3,1.61c-11.35,0-23.88-5.21-29.16-15.19a26.68,26.68,0,0,1-1.31-2.79,16.64,16.64,0,0,1,1.38-15.48A15.92,15.92,0,0,1,225.32,679h.52c11.28,0,19.65,6.82,26.47,12.3,4.66,3.8,8.33,6.79,12.17,6.79a45,45,0,0,0,11.41-2C271.7,703.24,263.66,714.13,251.66,718.29Z"/>
            <path class="cls-15"
                  d="M237.89,707.47c-6.79-.85-12.59-4.2-14.86-8.46-.33-.62-.62-1.21-.85-1.77a3.06,3.06,0,1,0-5.64,2.36q.49,1.13,1.08,2.26c3.21,6.1,10.69,10.59,19.55,11.77h.39a3.05,3.05,0,0,0,3.08-3.05,3.09,3.09,0,0,0-2.72-3.08Z"/>
            <path class="cls-15"
                  d="M250.78,708.06a5.71,5.71,0,0,0-.46-.39,3.92,3.92,0,0,0-.52-.26,3.58,3.58,0,0,0-.56-.16,3.76,3.76,0,0,0-1.21,0,2.77,2.77,0,0,0-.56.16,2.62,2.62,0,0,0-.52.26,5.71,5.71,0,0,0-.46.39,2.48,2.48,0,0,0-.36.46,3.92,3.92,0,0,0-.26.52,3.58,3.58,0,0,0-.16.56,3.76,3.76,0,0,0,0,1.21,2.77,2.77,0,0,0,.16.56,2.62,2.62,0,0,0,.26.52,2.45,2.45,0,0,0,.82.82,3.92,3.92,0,0,0,.52.26,3.58,3.58,0,0,0,.56.16,3.76,3.76,0,0,0,1.21,0,2.77,2.77,0,0,0,.56-.16,2.62,2.62,0,0,0,.52-.26,3.07,3.07,0,0,0,.85-4.26c-.13-.1-.23-.26-.39-.39Z"/>
            <path class="cls-15"
                  d="M194.79,695.56a3.09,3.09,0,0,0-3.94,1.64A14.54,14.54,0,0,1,190,699c-2.26,4.3-8.1,7.61-14.86,8.46a3.06,3.06,0,0,0,.39,6.1h.39c8.82-1.12,16.33-5.61,19.55-11.77.43-.75.75-1.54,1.08-2.26A3.06,3.06,0,0,0,194.79,695.56Z"/>
            <path class="cls-15"
                  d="M167.37,709.57a2.77,2.77,0,0,0-.16-.56,2.61,2.61,0,0,0-.26-.52,1.73,1.73,0,0,0-.39-.46,2.59,2.59,0,0,0-1-.66,3.58,3.58,0,0,0-.56-.16,3.76,3.76,0,0,0-1.21,0,2.77,2.77,0,0,0-.56.16,2.62,2.62,0,0,0-.52.26,5.71,5.71,0,0,0-.46.39,2.48,2.48,0,0,0-.36.46,3.92,3.92,0,0,0-.26.52,3.58,3.58,0,0,0-.16.56,2,2,0,0,0,0,.62,1.78,1.78,0,0,0,0,.59,2.77,2.77,0,0,0,.16.56,2.61,2.61,0,0,0,.26.52,2.45,2.45,0,0,0,.82.82,3.92,3.92,0,0,0,.52.26,3.58,3.58,0,0,0,.56.16,2,2,0,0,0,.62,0,3,3,0,0,0,2.16-.92,5.71,5.71,0,0,0,.39-.46,3.92,3.92,0,0,0,.26-.52,3.58,3.58,0,0,0,.16-.56,1.78,1.78,0,0,0,0-.59Z"/>
            <path class="cls-15"
                  d="M262.71,614a27.11,27.11,0,1,0-6.13,17.19v32a3.07,3.07,0,1,0,6.13,0h0V614Zm-27.06,21A20.92,20.92,0,1,1,256.58,614h0A20.94,20.94,0,0,1,235.66,634.92Z"/>
            <circle class="cls-1" cx="668" cy="650" r="115"/>
            <polygon class="cls-44"
                     points="598.05 625.22 598.05 699.74 737.04 701.81 739.62 694.33 739.62 629.6 598.05 625.22"/>
            <polygon class="cls-45"
                     points="601.14 615.16 736.27 615.16 739.62 631.92 673.09 666.48 598.05 633.21 601.14 615.16"/>
            <polygon class="cls-46"
                     points="649.37 654.88 654.52 649 683.15 649 689.6 657.71 685.21 665.71 653.49 665.71 649.37 654.88"/>
            <path class="cls-15"
                  d="M733.12,611.37h-37V604.9a11.92,11.92,0,0,0-11.9-11.9H654.14a11.92,11.92,0,0,0-11.9,11.9v6.47h-37a10.39,10.39,0,0,0-10.37,10.37v72.88A10.39,10.39,0,0,0,605.2,705H733.12a10.39,10.39,0,0,0,10.37-10.37v-72.9A10.39,10.39,0,0,0,733.12,611.37Zm-85-6.47a6,6,0,0,1,6-6h30.12a6,6,0,0,1,6,6v6.47H648.08Zm89.48,89.74a4.38,4.38,0,0,1-4.38,4.38h-128a4.38,4.38,0,0,1-4.38-4.38V637.46l45.48,22.07A11.88,11.88,0,0,0,658,669.46h22.52a11.88,11.88,0,0,0,11.69-9.93L738.85,636c1.47-.72,1.49-2.65.77-4.13s1.47-3,0-2.32L718,640.41l-26.5,12.85a11.88,11.88,0,0,0-11-7.51H657.94a11.88,11.88,0,0,0-11,7.51l-46.16-22.39v-9.14a4.38,4.38,0,0,1,4.38-4.38h128a4.38,4.38,0,0,1,4.38,4.38v72.88Zm-85.62-37a5.93,5.93,0,0,1,5.93-5.93h22.52a5.93,5.93,0,1,1,.73,11.84H658A5.93,5.93,0,0,1,652,657.6Z"/>
        </g>
    </g>
</svg>