<svg xmlns="http://www.w3.org/2000/svg" viewBox="0 0 407.5 319.53">
    <defs>
        <style>
            .cls-1{fill:#5d2fd1;}.cls-2{fill:#ffd817;}.cls-3{fill:#25ff15;}.cls-4{fill:#ff17a7;}.cls-5{fill:#11113f;}.cls-6,.cls-8{fill:none;stroke:#fff;stroke-linecap:round;stroke-linejoin:round;}.cls-6{stroke-width:3px;}.cls-7{fill:#fff;}.cls-8{stroke-dasharray:12;opacity:0.5;}
        </style>
    </defs>
    <title>scheme-th</title>
    <g id="Layer_2" data-name="Layer 2">
        <g id="Layer_2-2" data-name="Layer 2">
            <polyline class="cls-1"
                      points="27.83 36.48 34.08 36.48 35.16 33.6 38.13 31.65 41.6 33.11 43.07 36.48 48.73 36.48 48.73 57.14 42.87 57.14 42.28 62.31 39.11 65.05 34.86 63 34.08 57.72 27.83 57.72 27.83 51.08 27.83 36.48"/>
            <polygon class="cls-2"
                     points="6.93 42.59 6.93 36.63 13.48 36.63 13.48 33.11 17.29 30.38 21.39 32.63 21.39 35.95 27.83 36.48 27.83 42.59 31.84 43.47 34.08 46.58 32.62 50.01 27.83 51.08 27.83 57.72 6.93 57.72 6.93 51.57 2.44 50.2 0.98 46.11 3.61 42.98 6.93 42.59"/>
            <polyline class="cls-3"
                      points="27.83 57.72 34.57 57.72 34.57 61.43 37.3 64.75 40.63 64.17 42.58 61.24 42.58 57.72 48.73 57.72 48.73 78.62 28.03 78.62 27.93 72.57 31.54 70.99 33.1 67.64 31.35 64.85 27.83 63.48 27.83 57.72"/>
            <polygon class="cls-4"
                     points="6.93 57.72 27.83 57.72 27.83 63.48 31.35 65.34 32.62 68.61 31.54 70.99 27.93 72.57 28.03 78.62 6.93 78.62 6.93 72.66 11.52 71.49 13.57 68.17 11.52 63.97 6.93 63.48 6.93 57.72"/>
            <path class="cls-5"
                  d="M49,35.44H43.55a5.08,5.08,0,0,0-10.13,0H22.52v-.85a5.09,5.09,0,0,0-10.18,0v.85H6.91a1,1,0,0,0-1,1h0v5.45H5.09A5.08,5.08,0,1,0,5.09,52h.85V63.59a1,1,0,0,0,1,1H9.06a3.43,3.43,0,0,1,0,6.86H6.91a1,1,0,0,0-1,1v6.12a1,1,0,0,0,1,1H49a1,1,0,0,0,1-1V36.41A1,1,0,0,0,49,35.44ZM6.91,50.07H5.09a3.13,3.13,0,0,1,0-6.26H6.91a1,1,0,0,0,1-1V37.39h5.45a1,1,0,0,0,1-1V34.59a3.14,3.14,0,1,1,6.27-.12h0v1.93a1,1,0,0,0,1,1H27v5.45a1,1,0,0,0,1,1h1.83a3.13,3.13,0,1,1,.11,6.26H28a1,1,0,0,0-1,1V56.5H17.86V51.24a1,1,0,0,0-2,0V56.5h-8V51.05A1,1,0,0,0,6.91,50.07ZM28,71.12a1,1,0,0,0-1,1v5.45H20.76V72.28a1,1,0,0,0-2,0v5.26H7.89V73.38H9.06a5.38,5.38,0,0,0,0-10.76H7.89V58.45H27v5.45a1,1,0,0,0,1,1h.58a3.13,3.13,0,1,1,0,6.25ZM48,70H42.78a1,1,0,0,0,0,2H48v5.58H28.95V73.06a5.07,5.07,0,0,0,0-10.13V58.46h4.47v2.16a5.08,5.08,0,0,0,10.17.15h0V58.46H48Zm0-24.88H42.78a1,1,0,0,0,0,2H48v9.4H42.6a1,1,0,0,0-1,1V60.6a3.13,3.13,0,0,1-6.26.11V57.47a1,1,0,0,0-1-1H28.95V52h.85a5.09,5.09,0,1,0,0-10.18h-.85V37.39h5.45a1,1,0,0,0,1-1V35.9a3.13,3.13,0,0,1,6.26,0v.52a1,1,0,0,0,1,1H48Z"/>
            <circle class="cls-5" cx="19.79" cy="68.61" r="0.98"/>
            <circle class="cls-5" cx="39.11" cy="70.99" r="0.98"/>
            <circle class="cls-5" cx="39.11" cy="46.11" r="0.98"/>
            <circle class="cls-5" cx="16.87" cy="47.56" r="0.98"/>
            <polygon class="cls-4"
                     points="6.35 140.47 11.78 136.46 14.61 139.06 18.08 139.71 20.9 137.76 22.1 134.17 18.84 129.72 24.04 125.38 39.26 143.34 34.15 147.64 36.09 151.22 33.72 155.13 29.59 155.57 27.2 153.94 21.56 158.39 6.35 140.47"/>
            <path class="cls-3"
                  d="M22.1,158.5l5.1-4.56,2.39,1.63,3.26.11,2.15-2.5v-4.34l-.85-1.19,5.1-4.3,4.56,5.06s-2.39,2.61-2.61,3-.87,3.91-.87,3.91L42,158.5h3.48L49.9,156l4.89,5.34L37.17,176.42Z"/>
            <path class="cls-5"
                  d="M54.34,159.75l-3.88-4.5a1.06,1.06,0,0,0-1.5-.11l-2.59,2.24a3.42,3.42,0,0,1-4.58-5.07l.07-.06.05,0L44.5,150a1.06,1.06,0,0,0,.11-1.5L40.73,144l-1.39-1.61-6.53-7.56-1.4-1.61-5.71-6.61L24.31,125l-.72.63-.09.07L18.44,130a1.06,1.06,0,0,0-.11,1.5l1.53,1.78a3.74,3.74,0,0,1-5.66,4.89h0l-1.55-1.79a1.06,1.06,0,0,0-1.5-.11L6.1,140.68a1.06,1.06,0,0,0-.11,1.5L36,177a1.06,1.06,0,0,0,1.5.11l18.2-15.71ZM27.93,153.6a1.06,1.06,0,0,0-1.5-.11l-4.5,3.89-4.44-5.15,4.35-3.75a1.07,1.07,0,1,0-1.4-1.61h0l-4.35,3.75-7.78-9,3.44-3,.83,1a5.87,5.87,0,0,0,9.06-7.48l-.16-.19-.84-1,3.44-3L37.7,143.77l-4.5,3.88a1.06,1.06,0,0,0-.11,1.5l.42.48a3.42,3.42,0,1,1-5.17,4.47h0Zm15.24,15.79L39.41,165a1.07,1.07,0,0,0-1.61,1.4h0l3.76,4.36-4.61,4L23.31,159l3.71-3.2a5.54,5.54,0,0,0,8.37-7.23l3.71-3.2,3.19,3.69-1.78,1.53a5.55,5.55,0,0,0,7.14,8.5l.12-.1,1.78-1.55,3.19,3.69Z"/>
            <circle class="cls-5" cx="24.04" cy="144.43" r="1.09" transform="translate(-88.55 50.83) rotate(-40.81)"/>
            <circle class="cls-5" cx="36.09" cy="162.43" r="1.09" transform="translate(-97.39 63.08) rotate(-40.81)"/>
            <polygon class="cls-3"
                     points="12.34 228.97 22.47 228.97 22.47 235.37 26.13 239.91 30.14 240.35 34.15 238.89 35.92 234.18 35.92 228.97 46.27 228.97 46.27 261.5 45.39 262.82 12.34 262.82 12.34 252.78 16.21 251.45 19.96 245.9 17.84 240.88 12.34 239.25 12.34 228.97"/>
            <path class="cls-5"
                  d="M44.55,227.34H35.78a1.58,1.58,0,0,0-1.59,1.59h0V234a5.05,5.05,0,1,1-10.09.4V234h0v-5.11a1.58,1.58,0,0,0-1.59-1.59H10.57v11.94a1.58,1.58,0,0,0,1.59,1.59h.93a5.07,5.07,0,0,1,5.07,5.07h0A5.07,5.07,0,0,1,13.08,251h-.93a1.58,1.58,0,0,0-1.59,1.59h0V264.5H46.14a1.58,1.58,0,0,0,1.59-1.59h0V227.34Zm0,21.82H36a1.58,1.58,0,0,0-1.5,1.67,1.61,1.61,0,0,0,1.5,1.5h8.51v9H13.7V254.1a8.25,8.25,0,0,0,7.67-8.68v0a8.16,8.16,0,0,0-7.63-7.63v-7.27H21V234a8.2,8.2,0,0,0,16.4,0v-3.48h7.18Z"/>
            <circle class="cls-5" cx="30.14" cy="250.7" r="1.59"/>
            <line class="cls-6" x1="64.88" y1="21.5" x2="64.88" y2="272.5"/>
            <line class="cls-6" x1="65.38" y1="272.5" x2="386.13" y2="272.5"/>
            <path class="cls-7"
                  d="M47.45,300.11a1.36,1.36,0,0,1,.49-.08,1.26,1.26,0,0,1,.92.38,1.23,1.23,0,0,1,.38.91,1.31,1.31,0,0,1-1.3,1.3,1.74,1.74,0,0,1-1.3-.49,1.83,1.83,0,0,1-.49-1.34v-7.63q0-.76-.25-.76c-.07,0-.13.05-.18.15a4.17,4.17,0,0,0-.19.8,4.1,4.1,0,0,1-.49,1.55.82.82,0,0,1-.67.37.76.76,0,0,1-.63-.33,3.62,3.62,0,0,1-.41-1.48,3.49,3.49,0,0,0-.18-.86c-.06-.11-.13-.17-.22-.17h-.16v-1.19H43a.92.92,0,0,1,.77.42,4,4,0,0,1,.44,1.7q.09.75.21.75c.09,0,.17-.25.24-.75a3.91,3.91,0,0,1,.53-1.71,1,1,0,0,1,.83-.42,1.29,1.29,0,0,1,1.06.51,2.16,2.16,0,0,1,.41,1.38Zm.49,1.74a.49.49,0,0,0,.36-.15.52.52,0,0,0,.15-.38.48.48,0,0,0-.15-.36.5.5,0,0,0-.36-.15.51.51,0,0,0-.37.15.48.48,0,0,0-.15.36.52.52,0,0,0,.15.38A.49.49,0,0,0,47.94,301.84Z"/>
            <path class="cls-7"
                  d="M56.93,302.5h-1.2a6.18,6.18,0,0,0-2.54-1.59v.19a1.44,1.44,0,0,1-.43,1.13,1.54,1.54,0,0,1-1.07.38,1.42,1.42,0,0,1-1-.33,1.11,1.11,0,0,1-.37-.87,1.25,1.25,0,0,1,.41-.92,1.9,1.9,0,0,1,1.15-.48v-2.85a1.36,1.36,0,0,1-.49.08,1.27,1.27,0,0,1-.92-.38,1.23,1.23,0,0,1-.39-.91,1.31,1.31,0,0,1,1.31-1.31,1.73,1.73,0,0,1,1.29.5,1.83,1.83,0,0,1,.49,1.34v3.59a6.8,6.8,0,0,1,2.45,1.19v-6.4h1.29Zm-5.52-6a.51.51,0,0,0,.37-.15.47.47,0,0,0,.15-.35.52.52,0,0,0-.52-.53.5.5,0,0,0-.37.15.51.51,0,0,0-.15.38.47.47,0,0,0,.15.35A.51.51,0,0,0,51.42,296.45Zm.49,4.86v-.53a1,1,0,0,0-.55.23.53.53,0,0,0-.21.4.47.47,0,0,0,.1.32.33.33,0,0,0,.26.12Q51.91,301.84,51.91,301.31Z"/>
            <path class="cls-7" d="M56.68,294.17h-.77v-2.3h.77Z"/>
            <path class="cls-7"
                  d="M66.12,293.87a3.81,3.81,0,0,1-1.18,1.85,3.23,3.23,0,0,1,.62,2v4.74H64.27q-1.22-2.31-1.59-2.91a3.68,3.68,0,0,0-.77-.92,1.23,1.23,0,0,0-.77-.32.75.75,0,0,0-.58.24.87.87,0,0,0-.22.62v.91a1.34,1.34,0,0,1,.49-.08,1.27,1.27,0,0,1,.92.38,1.23,1.23,0,0,1,.38.91,1.31,1.31,0,0,1-1.31,1.3,1.73,1.73,0,0,1-1.29-.49,1.83,1.83,0,0,1-.49-1.34v-1.55a2.07,2.07,0,0,1,.53-1.53,2,2,0,0,1,1.47-.53,1.93,1.93,0,0,1,1.2.42,3.59,3.59,0,0,1,.87.93q.32.51,1.14,2.1v-2.86a2.09,2.09,0,0,0-.32-1.2,7.26,7.26,0,0,1-1.15.64l-.32-.45a4.07,4.07,0,0,0,.94-.7,2.17,2.17,0,0,0-1.12-.28,4.94,4.94,0,0,0-2.77.91h-.07v-1.44a7.63,7.63,0,0,1,2.82-.59,3.62,3.62,0,0,1,2,.48,2.32,2.32,0,0,0,.56-1.25Zm-5.28,8a.49.49,0,0,0,.37-.15.52.52,0,0,0,.15-.38.48.48,0,0,0-.15-.36.51.51,0,0,0-.37-.15.5.5,0,0,0-.36.15.48.48,0,0,0-.15.36.52.52,0,0,0,.15.38A.49.49,0,0,0,60.84,301.84Z"/>
            <path class="cls-7"
                  d="M72.23,302.5H70.95v-4.9a2,2,0,0,0-.42-1.35,1.48,1.48,0,0,0-1.16-.47,4.54,4.54,0,0,0-2.31.7H67v-1.35a6.66,6.66,0,0,1,2.4-.46,2.53,2.53,0,0,1,2.86,2.86Z"/>
            <path class="cls-7"
                  d="M80.62,302.5h-1.2a6.18,6.18,0,0,0-2.54-1.59v.19a1.44,1.44,0,0,1-.43,1.13,1.54,1.54,0,0,1-1.07.38,1.42,1.42,0,0,1-1-.33,1.11,1.11,0,0,1-.37-.87,1.25,1.25,0,0,1,.41-.92,1.9,1.9,0,0,1,1.15-.48v-2.85a1.36,1.36,0,0,1-.49.08,1.27,1.27,0,0,1-.92-.38,1.23,1.23,0,0,1-.39-.91,1.31,1.31,0,0,1,1.31-1.31,1.73,1.73,0,0,1,1.29.5,1.83,1.83,0,0,1,.49,1.34v3.59a6.8,6.8,0,0,1,2.45,1.19v-6.4h1.29Zm-5.52-6a.51.51,0,0,0,.37-.15.47.47,0,0,0,.15-.35.52.52,0,0,0-.52-.53.5.5,0,0,0-.37.15.51.51,0,0,0-.15.38.47.47,0,0,0,.15.35A.51.51,0,0,0,75.1,296.45Zm.49,4.86v-.53A1,1,0,0,0,75,301a.53.53,0,0,0-.21.4.47.47,0,0,0,.1.32.33.33,0,0,0,.26.12Q75.59,301.84,75.59,301.31Z"/>
            <path class="cls-7"
                  d="M87.41,302.5H86.12v-4.9a2,2,0,0,0-.42-1.35,1.48,1.48,0,0,0-1.16-.47,4.54,4.54,0,0,0-2.31.7h-.09v-1.35a6.66,6.66,0,0,1,2.4-.46,2.53,2.53,0,0,1,2.86,2.86Z"/>
            <path class="cls-7"
                  d="M94.28,295.81a6.37,6.37,0,0,1-1.26.12l-1.52-.07a2.12,2.12,0,0,0-1.06.22.64.64,0,0,0-.38.55,3.65,3.65,0,0,1,.63,0,2.78,2.78,0,0,1,2.08.62,3,3,0,0,1,.58,2.08v1.48a1.83,1.83,0,0,1-.48,1.34,1.73,1.73,0,0,1-1.3.49,1.31,1.31,0,0,1-1.3-1.3,1.23,1.23,0,0,1,.38-.91,1.26,1.26,0,0,1,.92-.38,1.36,1.36,0,0,1,.49.08v-.81a2.16,2.16,0,0,0-.33-1.34,1.26,1.26,0,0,0-1-.41q-.29,0-.67,0l-.65.08-.49.09h0v-.48a2.25,2.25,0,0,1,2.66-2.52l1.52.06a3.16,3.16,0,0,0,.64-.07l.57-.13h.06Zm-2.72,6a.49.49,0,0,0,.37-.15.52.52,0,0,0,.15-.38.48.48,0,0,0-.15-.36.51.51,0,0,0-.37-.15.5.5,0,0,0-.36.15.49.49,0,0,0-.15.36.52.52,0,0,0,.15.38A.49.49,0,0,0,91.56,301.84Z"/>
            <path class="cls-7"
                  d="M101.6,302.5h-1.29v-4.41a2.62,2.62,0,0,0-.44-1.74,1.74,1.74,0,0,0-1.36-.49A1.56,1.56,0,0,0,96.78,297h1.3v.91a1.85,1.85,0,0,0-.92.68,2.2,2.2,0,0,0-.29,1.22v.25a1.36,1.36,0,0,1,.49-.08,1.26,1.26,0,0,1,.92.38,1.23,1.23,0,0,1,.38.91,1.31,1.31,0,0,1-1.3,1.3,1.74,1.74,0,0,1-1.3-.49,1.83,1.83,0,0,1-.49-1.34V300A1.83,1.83,0,0,1,96.78,298H95.43v0a3.51,3.51,0,0,1,.8-2.41,2.88,2.88,0,0,1,2.28-.91,3,3,0,0,1,2.35.82,3.85,3.85,0,0,1,.74,2.63Zm-4.25-.66a.49.49,0,0,0,.36-.15.52.52,0,0,0,.15-.38.48.48,0,0,0-.15-.36.5.5,0,0,0-.36-.15A.51.51,0,0,0,97,301a.48.48,0,0,0-.15.36.52.52,0,0,0,.15.38A.49.49,0,0,0,97.35,301.84Z"/>
            <path class="cls-7"
                  d="M110.42,302.5H104v-1.22h1.12v-4.13a1.36,1.36,0,0,1-.49.08,1.26,1.26,0,0,1-.92-.38,1.23,1.23,0,0,1-.38-.91,1.31,1.31,0,0,1,1.3-1.31,1.72,1.72,0,0,1,1.3.5,1.84,1.84,0,0,1,.48,1.34v4.81h2.75V291.23h1.29Zm-5.81-6a.51.51,0,0,0,.37-.15.47.47,0,0,0,.15-.35.52.52,0,0,0-.15-.38.49.49,0,0,0-.37-.15.49.49,0,0,0-.36.15.52.52,0,0,0-.15.38.47.47,0,0,0,.15.35A.5.5,0,0,0,104.61,296.45Z"/>
            <path class="cls-7"
                  d="M110.38,292a4.4,4.4,0,0,1-3.63,2.25l.33-.74a.75.75,0,0,1-.49-.27.81.81,0,0,1-.19-.53.79.79,0,0,1,.22-.56.75.75,0,0,1,1.09,0,.78.78,0,0,1,.23.56,1.17,1.17,0,0,1-.28.8,3,3,0,0,0,1.85-1.51Zm-3.21,1a.22.22,0,0,0,.16-.07.23.23,0,0,0,0-.33.22.22,0,0,0-.16-.07.24.24,0,0,0,0,.48Z"/>
            <path class="cls-7"
                  d="M118.76,302.5h-6v-3a1.83,1.83,0,0,1,.49-1.35,1.73,1.73,0,0,1,1.29-.49,1.25,1.25,0,0,1,.92.39,1.26,1.26,0,0,1,.38.92,1.23,1.23,0,0,1-.38.91,1.26,1.26,0,0,1-.92.38,1.36,1.36,0,0,1-.49-.08v1.09h3.46v-3.53a2,2,0,0,0-.53-1.46,1.94,1.94,0,0,0-1.43-.53,4.9,4.9,0,0,0-2.75.91h-.08v-1.44a7.6,7.6,0,0,1,2.81-.59,3.35,3.35,0,0,1,2.43.82,3,3,0,0,1,.85,2.29Zm-4.26-3a.51.51,0,0,0,.37-.15A.48.48,0,0,0,115,299a.51.51,0,0,0-.15-.38.51.51,0,0,0-.73,0,.51.51,0,0,0-.15.38.48.48,0,0,0,.15.36A.51.51,0,0,0,114.5,299.49Z"/>
            <path class="cls-7"
                  d="M125.65,300.27a2.74,2.74,0,0,1-.54,1.83,1.93,1.93,0,0,1-2.54.28,2.94,2.94,0,0,1-.89-1.18l-1.59-3.32h1.34l1.37,2.85a2.58,2.58,0,0,0,.35.52.65.65,0,0,0,.5.26q.7,0,.7-1.24v-3.1a1.34,1.34,0,0,1-.49.08,1.27,1.27,0,0,1-.92-.38,1.23,1.23,0,0,1-.38-.91,1.32,1.32,0,0,1,1.31-1.31,1.73,1.73,0,0,1,1.29.5,1.83,1.83,0,0,1,.49,1.34Zm-1.79-3.81a.5.5,0,0,0,.36-.15.47.47,0,0,0,.15-.35.52.52,0,0,0-.15-.38.49.49,0,0,0-.36-.15.49.49,0,0,0-.37.15.52.52,0,0,0-.15.38.47.47,0,0,0,.15.35A.51.51,0,0,0,123.86,296.46Z"/>
            <path class="cls-7"
                  d="M134,302.5h-1.29v-4.41a2.64,2.64,0,0,0-.44-1.74,1.74,1.74,0,0,0-1.37-.49,1.56,1.56,0,0,0-1.74,1.18h1.31v.91a1.92,1.92,0,0,0-1.22,2v2.54h-1.29v-2.31q0-1.78,1.2-2.18H127.8v0a3.51,3.51,0,0,1,.8-2.41,2.88,2.88,0,0,1,2.28-.91,3,3,0,0,1,2.35.82,3.84,3.84,0,0,1,.74,2.63Z"/>
            <path class="cls-7"
                  d="M136.13,291.87a3.15,3.15,0,0,1-1.36,1.79,4.25,4.25,0,0,1-2.37.66,2.54,2.54,0,0,1-1.56-.43,1.36,1.36,0,0,1-.57-1.14,1.31,1.31,0,0,1,1.31-1.3,1.23,1.23,0,0,1,.91.38,1.26,1.26,0,0,1,.38.92,1.32,1.32,0,0,1-.27.88,2.93,2.93,0,0,0,1.71-.57,2,2,0,0,0,.93-1.2Zm-4.55,1.4a.47.47,0,0,0,.35-.15.53.53,0,0,0,0-.73.47.47,0,0,0-.35-.15.51.51,0,0,0-.38.15.51.51,0,0,0,0,.73A.51.51,0,0,0,131.59,293.27Z"/>
            <path class="cls-7"
                  d="M142.37,300.11a1.29,1.29,0,0,1,.74,1.19,1.27,1.27,0,0,1-.38.92,1.24,1.24,0,0,1-.92.39,1.27,1.27,0,0,1-.93-.39,1.26,1.26,0,0,1-.39-.92.76.76,0,0,1,0-.17,7.78,7.78,0,0,0-2,1.37h-1.2v-5.35a1.36,1.36,0,0,1-.49.08,1.27,1.27,0,0,1-.92-.38,1.23,1.23,0,0,1-.39-.91,1.31,1.31,0,0,1,1.31-1.31,1.73,1.73,0,0,1,1.29.5,1.83,1.83,0,0,1,.49,1.34v4.78a6.21,6.21,0,0,1,2.45-1.25v-5.15h1.29Zm-5.52-3.66a.51.51,0,0,0,.37-.15.47.47,0,0,0,.15-.35.52.52,0,0,0-.52-.53.5.5,0,0,0-.37.15.51.51,0,0,0-.15.38.47.47,0,0,0,.15.35A.51.51,0,0,0,136.85,296.45Zm4.94,5.38a.5.5,0,0,0,.37-.15.51.51,0,0,0,.15-.38.48.48,0,0,0-.15-.36.52.52,0,0,0-.73,0,.48.48,0,0,0-.15.36.51.51,0,0,0,.15.38A.5.5,0,0,0,141.79,301.83Z"/>
            <path class="cls-7"
                  d="M148.61,300.11a1.36,1.36,0,0,1,.49-.08,1.26,1.26,0,0,1,.92.38,1.23,1.23,0,0,1,.38.91,1.31,1.31,0,0,1-1.3,1.3,1.74,1.74,0,0,1-1.3-.49,1.83,1.83,0,0,1-.49-1.34v-7.63q0-.76-.25-.76c-.07,0-.13.05-.18.15a4.17,4.17,0,0,0-.19.8,4.1,4.1,0,0,1-.49,1.55.82.82,0,0,1-.67.37.76.76,0,0,1-.63-.33,3.62,3.62,0,0,1-.41-1.48,3.49,3.49,0,0,0-.18-.86c-.06-.11-.13-.17-.22-.17h-.16v-1.19h.18a.92.92,0,0,1,.77.42,4,4,0,0,1,.44,1.7q.09.75.21.75c.09,0,.17-.25.24-.75a3.91,3.91,0,0,1,.53-1.71,1,1,0,0,1,.83-.42,1.29,1.29,0,0,1,1.06.51,2.16,2.16,0,0,1,.41,1.38Zm.49,1.74a.49.49,0,0,0,.36-.15.52.52,0,0,0,.15-.38.48.48,0,0,0-.15-.36.5.5,0,0,0-.36-.15.51.51,0,0,0-.37.15.48.48,0,0,0-.15.36.52.52,0,0,0,.15.38A.49.49,0,0,0,149.1,301.84Z"/>
            <path class="cls-7"
                  d="M158.32,302.5H157v-4.41q0-2.23-2-2.23a1.93,1.93,0,0,0-1.49.57,2.14,2.14,0,0,0-.53,1.51,7.23,7.23,0,0,0,.31,1.92,13.26,13.26,0,0,1,.24,1.4l.72-.7a2.07,2.07,0,0,0,.48-.64,1.34,1.34,0,0,1-.75-.47,1.27,1.27,0,0,1-.27-.8,1.25,1.25,0,0,1,.38-.91,1.24,1.24,0,0,1,.91-.38,1.21,1.21,0,0,1,.92.39,1.38,1.38,0,0,1,.37,1,2.72,2.72,0,0,1-.43,1.37,8.12,8.12,0,0,1-1.69,1.81q-.37.31-.62.57h-1.29v-.59a9.89,9.89,0,0,0-.26-1.8,11.18,11.18,0,0,1-.3-2.15,3.38,3.38,0,0,1,.85-2.4,3.16,3.16,0,0,1,2.44-.92q3.31,0,3.31,3.45ZM155,299.18a.5.5,0,0,0,.37-.15.48.48,0,0,0,.15-.36.52.52,0,0,0-.15-.38.5.5,0,0,0-.37-.15.49.49,0,0,0-.36.15.52.52,0,0,0-.15.38.49.49,0,0,0,.15.36A.49.49,0,0,0,155,299.18Z"/>
            <path class="cls-7"
                  d="M158.27,292a4.4,4.4,0,0,1-3.63,2.25l.33-.74a.75.75,0,0,1-.49-.27.81.81,0,0,1-.19-.53.79.79,0,0,1,.22-.56.75.75,0,0,1,1.09,0,.78.78,0,0,1,.23.56,1.17,1.17,0,0,1-.28.8A3,3,0,0,0,157.4,292Zm-3.21,1a.22.22,0,0,0,.16-.07.23.23,0,0,0,0-.33.22.22,0,0,0-.16-.07.24.24,0,0,0,0,.48Z"/>
            <path class="cls-7"
                  d="M80.57,319.3H74.94v-1.22h.87v-1.75a2.31,2.31,0,0,1,.14-.86,4.31,4.31,0,0,1,.41-.76,3,3,0,0,0,.38-.72,1.79,1.79,0,0,0,.08-.5q0-1.12-.94-1.12a.5.5,0,0,0-.28.07,1.28,1.28,0,0,1,.56,1.05,1.23,1.23,0,0,1-.38.91,1.26,1.26,0,0,1-.92.38,1.3,1.3,0,0,1-1.29-1.3,1.86,1.86,0,0,1,.64-1.47,2.45,2.45,0,0,1,1.67-.56,2.24,2.24,0,0,1,1.59.56,1.92,1.92,0,0,1,.6,1.47,2.47,2.47,0,0,1-.09.64,4.47,4.47,0,0,1-.43.94,2.63,2.63,0,0,0-.44,1.22v1.8h2.18v-6.43h1.29ZM74.86,314a.5.5,0,0,0,.37-.15.52.52,0,0,0,.15-.38.48.48,0,0,0-.15-.36.52.52,0,0,0-.73,0,.48.48,0,0,0-.15.36.52.52,0,0,0,.15.38A.5.5,0,0,0,74.86,314Z"/>
            <path class="cls-7"
                  d="M80.53,308.75A4.4,4.4,0,0,1,76.9,311l.33-.74a.75.75,0,0,1-.49-.27.83.83,0,0,1,0-1.09.75.75,0,0,1,1.09,0,.79.79,0,0,1,.23.56,1.17,1.17,0,0,1-.28.8,3,3,0,0,0,1.85-1.51Zm-3.21,1a.23.23,0,0,0,.16-.07.23.23,0,0,0,0-.34.23.23,0,0,0-.16-.07.24.24,0,0,0,0,.48Z"/>
            <path class="cls-7"
                  d="M88.91,319.3h-6v-3a1.83,1.83,0,0,1,.49-1.35,1.73,1.73,0,0,1,1.29-.49,1.24,1.24,0,0,1,.92.39,1.26,1.26,0,0,1,.38.92,1.23,1.23,0,0,1-.38.91,1.26,1.26,0,0,1-.92.38,1.36,1.36,0,0,1-.49-.08v1.09h3.46v-3.53a2,2,0,0,0-.53-1.46,1.94,1.94,0,0,0-1.43-.53,4.89,4.89,0,0,0-2.75.91h-.08V312a7.58,7.58,0,0,1,2.81-.59,3.35,3.35,0,0,1,2.43.82,3,3,0,0,1,.85,2.29Zm-4.26-3a.5.5,0,0,0,.37-.15.48.48,0,0,0,.15-.36.52.52,0,0,0-.15-.38.51.51,0,0,0-.73,0,.52.52,0,0,0-.15.38.48.48,0,0,0,.15.36A.5.5,0,0,0,84.66,316.29Z"/>
            <path class="cls-7"
                  d="M94.7,316.91a1.36,1.36,0,0,1,.49-.08,1.26,1.26,0,0,1,.92.38,1.23,1.23,0,0,1,.38.91,1.31,1.31,0,0,1-1.3,1.3,1.74,1.74,0,0,1-1.3-.49,1.82,1.82,0,0,1-.49-1.34v-5a2.79,2.79,0,0,0-.24-1.4.93.93,0,0,0-.84-.35q-.29,0-.67,0l-.65.08-.49.1h0v-.48A2.26,2.26,0,0,1,93.15,308l1.52.06a3.09,3.09,0,0,0,.64-.07l.57-.13h.05v1.19a6.33,6.33,0,0,1-1.26.12l-1.52-.07a2.11,2.11,0,0,0-1.07.22.64.64,0,0,0-.38.55,3.57,3.57,0,0,1,.63,0,2.35,2.35,0,0,1,1.88.59,3.43,3.43,0,0,1,.48,2.11Zm.49,1.74a.49.49,0,0,0,.36-.15.52.52,0,0,0,.15-.38.48.48,0,0,0-.15-.36.52.52,0,0,0-.72,0,.48.48,0,0,0-.15.36.52.52,0,0,0,.15.38A.5.5,0,0,0,95.19,318.64Z"/>
            <path class="cls-7"
                  d="M104.42,319.3h-1.29v-4.41a2.68,2.68,0,0,0-1.09-2.34l-.92.7-.94-.7a2.58,2.58,0,0,0-1.08,2.19,7.21,7.21,0,0,0,.31,1.92,13.21,13.21,0,0,1,.24,1.4l.72-.7a2.07,2.07,0,0,0,.48-.64,1.34,1.34,0,0,1-.75-.47,1.26,1.26,0,0,1-.27-.8,1.25,1.25,0,0,1,.38-.91,1.23,1.23,0,0,1,.91-.38,1.21,1.21,0,0,1,.92.39,1.37,1.37,0,0,1,.37,1,2.74,2.74,0,0,1-.43,1.37,8.14,8.14,0,0,1-1.69,1.81q-.37.31-.62.57H98.38v-.59a9.92,9.92,0,0,0-.26-1.8,11.17,11.17,0,0,1-.3-2.15,3.44,3.44,0,0,1,.6-2.22,3.78,3.78,0,0,1,1.76-1.12l.92.71.92-.71a3,3,0,0,1,1.81,1.18,4,4,0,0,1,.57,2.29ZM101.14,316a.51.51,0,0,0,.37-.15.48.48,0,0,0,.15-.36.52.52,0,0,0-.15-.38.49.49,0,0,0-.37-.15.49.49,0,0,0-.36.15.52.52,0,0,0-.15.38.49.49,0,0,0,.15.36A.5.5,0,0,0,101.14,316Z"/>
            <path class="cls-7"
                  d="M104.37,308.75a4.4,4.4,0,0,1-3.63,2.25l.33-.74a.75.75,0,0,1-.49-.27.83.83,0,0,1,0-1.09.75.75,0,0,1,1.09,0,.79.79,0,0,1,.23.56,1.17,1.17,0,0,1-.28.8,3,3,0,0,0,1.85-1.51Zm-3.21,1a.23.23,0,0,0,.16-.07.23.23,0,0,0,0-.34.23.23,0,0,0-.16-.07.24.24,0,0,0,0,.48Z"/>
            <path class="cls-7"
                  d="M108,316.91a1.36,1.36,0,0,1,.49-.08,1.26,1.26,0,0,1,.92.38,1.23,1.23,0,0,1,.38.91,1.31,1.31,0,0,1-1.3,1.3,1.73,1.73,0,0,1-1.29-.49,1.82,1.82,0,0,1-.49-1.34v-5.92H108Zm.49,1.74a.5.5,0,0,0,.37-.15.52.52,0,0,0,.15-.38.48.48,0,0,0-.15-.36.52.52,0,0,0-.73,0,.48.48,0,0,0-.15.36.52.52,0,0,0,.15.38A.5.5,0,0,0,108.49,318.64Zm3.14-1.74a1.36,1.36,0,0,1,.49-.08,1.26,1.26,0,0,1,.92.38,1.23,1.23,0,0,1,.38.91,1.31,1.31,0,0,1-1.3,1.3,1.73,1.73,0,0,1-1.29-.49,1.82,1.82,0,0,1-.49-1.34v-5.92h1.29Zm.49,1.74a.5.5,0,0,0,.37-.15.52.52,0,0,0,.15-.38.48.48,0,0,0-.15-.36.52.52,0,0,0-.73,0,.48.48,0,0,0-.15.36.52.52,0,0,0,.15.38A.5.5,0,0,0,112.13,318.64Z"/>
            <path class="cls-7"
                  d="M120.82,319.3H115v-2.2a1.23,1.23,0,0,1,.7-1.1,1.25,1.25,0,0,1-.68-1.12v-1.6a1.83,1.83,0,0,1,.49-1.34,1.72,1.72,0,0,1,1.29-.5,1.32,1.32,0,0,1,1.31,1.31,1.23,1.23,0,0,1-.38.91,1.27,1.27,0,0,1-.92.38,1.36,1.36,0,0,1-.49-.08v.9a.64.64,0,0,0,.73.72h.27v.84H117q-.73,0-.73.68v1h3.23v-6.43h1.29Zm-4-6a.51.51,0,0,0,.37-.15.47.47,0,0,0,.15-.35.51.51,0,0,0-.15-.38.52.52,0,0,0-.73,0,.52.52,0,0,0-.15.38.47.47,0,0,0,.15.35A.51.51,0,0,0,116.79,313.25Z"/>
            <path class="cls-7"
                  d="M120.76,308.75a4.4,4.4,0,0,1-3.63,2.25l.33-.74A.75.75,0,0,1,117,310a.83.83,0,0,1,0-1.09.75.75,0,0,1,1.09,0,.79.79,0,0,1,.23.56,1.17,1.17,0,0,1-.28.8,3,3,0,0,0,1.85-1.51Zm-3.21,1a.23.23,0,0,0,.16-.07.23.23,0,0,0,0-.34.23.23,0,0,0-.16-.07.24.24,0,0,0,0,.48Z"/>
            <path class="cls-7"
                  d="M127.7,317.07a2.74,2.74,0,0,1-.54,1.83,1.81,1.81,0,0,1-1.45.63,1.83,1.83,0,0,1-1.08-.35,3,3,0,0,1-.89-1.18l-1.59-3.32h1.34l1.37,2.85a2.58,2.58,0,0,0,.35.52.64.64,0,0,0,.5.26q.7,0,.7-1.24V314a1.34,1.34,0,0,1-.49.08,1.26,1.26,0,0,1-.92-.38,1.23,1.23,0,0,1-.38-.91,1.32,1.32,0,0,1,1.31-1.31,1.72,1.72,0,0,1,1.29.5,1.83,1.83,0,0,1,.49,1.34Zm-1.79-3.81a.5.5,0,0,0,.36-.15.47.47,0,0,0,.15-.35.52.52,0,0,0-.15-.38.49.49,0,0,0-.36-.15.5.5,0,0,0-.37.15.52.52,0,0,0-.15.38.47.47,0,0,0,.15.35A.51.51,0,0,0,125.91,313.26Z"/>
            <path class="cls-7"
                  d="M220.26,302.5h-6v-3a1.83,1.83,0,0,1,.49-1.35,1.73,1.73,0,0,1,1.29-.49,1.25,1.25,0,0,1,.92.39,1.26,1.26,0,0,1,.38.92,1.23,1.23,0,0,1-.38.91,1.26,1.26,0,0,1-.92.38,1.36,1.36,0,0,1-.49-.08v1.09H219v-3.53a2,2,0,0,0-.53-1.46,1.94,1.94,0,0,0-1.43-.53,4.9,4.9,0,0,0-2.75.91h-.08v-1.44a7.6,7.6,0,0,1,2.81-.59,3.35,3.35,0,0,1,2.43.82,3,3,0,0,1,.85,2.29Zm-4.26-3a.51.51,0,0,0,.37-.15.48.48,0,0,0,.15-.36.52.52,0,0,0-.15-.38.51.51,0,0,0-.73,0,.52.52,0,0,0-.15.38.48.48,0,0,0,.15.36A.51.51,0,0,0,216,299.49Z"/>
            <path class="cls-7" d="M220,294.17h-.77v-2.3H220Z"/>
            <path class="cls-7"
                  d="M228.59,302.5h-6v-3a1.83,1.83,0,0,1,.49-1.35,1.73,1.73,0,0,1,1.29-.49,1.25,1.25,0,0,1,.92.39,1.26,1.26,0,0,1,.38.92,1.23,1.23,0,0,1-.38.91,1.26,1.26,0,0,1-.92.38,1.35,1.35,0,0,1-.49-.08v1.09h3.46v-3.53a2,2,0,0,0-.53-1.46,1.94,1.94,0,0,0-1.43-.53,4.9,4.9,0,0,0-2.75.91h-.08v-1.44a7.6,7.6,0,0,1,2.81-.59,3.35,3.35,0,0,1,2.43.82,3,3,0,0,1,.85,2.29Zm-4.26-3a.51.51,0,0,0,.37-.15.48.48,0,0,0,.15-.36.51.51,0,0,0-.15-.38.51.51,0,0,0-.73,0,.51.51,0,0,0-.15.38.48.48,0,0,0,.15.36A.51.51,0,0,0,224.33,299.49Z"/>
            <path class="cls-7"
                  d="M237,300.11a1.32,1.32,0,0,1,.36,2.11,1.24,1.24,0,0,1-.92.39,1.27,1.27,0,0,1-.93-.39,1.26,1.26,0,0,1-.39-.92.79.79,0,0,1,0-.17,7.77,7.77,0,0,0-2,1.37H232v-5.35a1.36,1.36,0,0,1-.49.08,1.27,1.27,0,0,1-.92-.38,1.23,1.23,0,0,1-.39-.91,1.31,1.31,0,0,1,1.31-1.31,1.73,1.73,0,0,1,1.29.5,1.83,1.83,0,0,1,.49,1.34v4.78a6.21,6.21,0,0,1,2.45-1.25v-5.15H237Zm-5.52-3.66a.51.51,0,0,0,.37-.15A.47.47,0,0,0,232,296a.52.52,0,0,0-.52-.53.49.49,0,0,0-.37.15.51.51,0,0,0-.15.38.47.47,0,0,0,.15.35A.51.51,0,0,0,231.46,296.45Zm4.94,5.38a.5.5,0,0,0,.37-.15.52.52,0,0,0,.15-.38.48.48,0,0,0-.15-.36.53.53,0,0,0-.73,0,.48.48,0,0,0-.15.36.52.52,0,0,0,.15.38A.5.5,0,0,0,236.41,301.83Z"/>
            <path class="cls-7"
                  d="M240.74,300.11a1.36,1.36,0,0,1,.49-.08,1.26,1.26,0,0,1,.92.38,1.23,1.23,0,0,1,.38.91,1.31,1.31,0,0,1-1.3,1.3,1.73,1.73,0,0,1-1.29-.49,1.83,1.83,0,0,1-.49-1.34v-5.92h1.29Zm.49,1.74a.49.49,0,0,0,.37-.15.51.51,0,0,0,.15-.38.48.48,0,0,0-.15-.36.52.52,0,0,0-.73,0,.48.48,0,0,0-.15.36.51.51,0,0,0,.15.38A.49.49,0,0,0,241.23,301.84Zm3.14-1.74a1.36,1.36,0,0,1,.49-.08,1.26,1.26,0,0,1,.92.38,1.23,1.23,0,0,1,.38.91,1.31,1.31,0,0,1-1.3,1.3,1.73,1.73,0,0,1-1.29-.49,1.83,1.83,0,0,1-.49-1.34v-5.92h1.29Zm.49,1.74a.49.49,0,0,0,.37-.15.51.51,0,0,0,.15-.38.48.48,0,0,0-.15-.36.52.52,0,0,0-.73,0,.48.48,0,0,0-.15.36.51.51,0,0,0,.15.38A.49.49,0,0,0,244.87,301.84Z"/>
            <path class="cls-7"
                  d="M253.78,302.5h-6v-3a1.83,1.83,0,0,1,.49-1.35,1.73,1.73,0,0,1,1.29-.49,1.25,1.25,0,0,1,.92.39,1.26,1.26,0,0,1,.38.92,1.23,1.23,0,0,1-.38.91,1.26,1.26,0,0,1-.92.38,1.36,1.36,0,0,1-.49-.08v1.09h3.46v-3.53a2,2,0,0,0-.53-1.46,1.94,1.94,0,0,0-1.43-.53,4.9,4.9,0,0,0-2.75.91h-.08v-1.44a7.6,7.6,0,0,1,2.81-.59,3.35,3.35,0,0,1,2.43.82,3,3,0,0,1,.85,2.29Zm-4.26-3a.5.5,0,0,0,.37-.15A.48.48,0,0,0,250,299a.51.51,0,0,0-.15-.38.51.51,0,0,0-.73,0,.51.51,0,0,0-.15.38.48.48,0,0,0,.15.36A.5.5,0,0,0,249.52,299.49Z"/>
            <path class="cls-7"
                  d="M213.57,319.3h-5.63v-1.22h.87v-1.75a2.32,2.32,0,0,1,.14-.86,4.38,4.38,0,0,1,.41-.76,3,3,0,0,0,.38-.72,1.77,1.77,0,0,0,.08-.5q0-1.12-.94-1.12a.5.5,0,0,0-.28.07,1.28,1.28,0,0,1,.56,1.05,1.22,1.22,0,0,1-.38.91,1.26,1.26,0,0,1-.92.38,1.3,1.3,0,0,1-1.29-1.3,1.86,1.86,0,0,1,.64-1.47,2.44,2.44,0,0,1,1.67-.56,2.24,2.24,0,0,1,1.59.56,1.91,1.91,0,0,1,.6,1.47,2.43,2.43,0,0,1-.09.64,4.38,4.38,0,0,1-.43.94,2.64,2.64,0,0,0-.44,1.22v1.8h2.18v-6.43h1.29ZM207.86,314a.5.5,0,0,0,.37-.15.51.51,0,0,0,.15-.38.48.48,0,0,0-.15-.36.52.52,0,0,0-.73,0,.48.48,0,0,0-.15.36.51.51,0,0,0,.15.38A.5.5,0,0,0,207.86,314Z"/>
            <path class="cls-7"
                  d="M213.53,308.75A4.4,4.4,0,0,1,209.9,311l.33-.74a.75.75,0,0,1-.49-.27.83.83,0,0,1,0-1.09.75.75,0,0,1,1.09,0,.79.79,0,0,1,.23.56,1.17,1.17,0,0,1-.28.8,3,3,0,0,0,1.85-1.51Zm-3.21,1a.23.23,0,0,0,.16-.07.23.23,0,0,0,0-.34.23.23,0,0,0-.16-.07.23.23,0,0,0-.17.07.23.23,0,0,0,0,.34A.23.23,0,0,0,210.33,309.7Z"/>
            <path class="cls-7"
                  d="M221.91,319.3h-6v-3a1.83,1.83,0,0,1,.49-1.35,1.73,1.73,0,0,1,1.29-.49,1.24,1.24,0,0,1,.92.39,1.26,1.26,0,0,1,.38.92,1.23,1.23,0,0,1-.38.91,1.26,1.26,0,0,1-.92.38,1.36,1.36,0,0,1-.49-.08v1.09h3.46v-3.53a2,2,0,0,0-.53-1.46,1.94,1.94,0,0,0-1.43-.53,4.89,4.89,0,0,0-2.75.91h-.08V312a7.58,7.58,0,0,1,2.81-.59,3.35,3.35,0,0,1,2.43.82,3,3,0,0,1,.85,2.29Zm-4.26-3a.51.51,0,0,0,.37-.15.48.48,0,0,0,.15-.36.52.52,0,0,0-.15-.38.51.51,0,0,0-.73,0,.52.52,0,0,0-.15.38.48.48,0,0,0,.15.36A.51.51,0,0,0,217.66,316.29Z"/>
            <path class="cls-7"
                  d="M227.7,316.91a1.35,1.35,0,0,1,.49-.08,1.26,1.26,0,0,1,.92.38,1.23,1.23,0,0,1,.38.91,1.31,1.31,0,0,1-1.3,1.3,1.74,1.74,0,0,1-1.3-.49,1.82,1.82,0,0,1-.49-1.34v-5a2.8,2.8,0,0,0-.24-1.4.94.94,0,0,0-.84-.35q-.29,0-.67,0l-.65.08-.49.1h0v-.48a2.26,2.26,0,0,1,2.67-2.52l1.52.06a3.09,3.09,0,0,0,.64-.07l.57-.13h.05v1.19a6.33,6.33,0,0,1-1.26.12l-1.52-.07a2.11,2.11,0,0,0-1.07.22.64.64,0,0,0-.38.55,3.57,3.57,0,0,1,.63,0,2.35,2.35,0,0,1,1.88.59,3.43,3.43,0,0,1,.48,2.11Zm.49,1.74a.49.49,0,0,0,.36-.15.52.52,0,0,0,.15-.38.48.48,0,0,0-.15-.36.52.52,0,0,0-.72,0,.48.48,0,0,0-.15.36.53.53,0,0,0,.15.38A.5.5,0,0,0,228.19,318.64Z"/>
            <path class="cls-7"
                  d="M237.42,319.3h-1.29v-4.41a2.68,2.68,0,0,0-1.09-2.34l-.92.7-.94-.7a2.58,2.58,0,0,0-1.08,2.19,7.21,7.21,0,0,0,.31,1.92,13.08,13.08,0,0,1,.24,1.4l.72-.7a2.07,2.07,0,0,0,.48-.64,1.34,1.34,0,0,1-.75-.47,1.27,1.27,0,0,1-.27-.8,1.25,1.25,0,0,1,.38-.91,1.23,1.23,0,0,1,.91-.38,1.21,1.21,0,0,1,.92.39,1.37,1.37,0,0,1,.37,1,2.74,2.74,0,0,1-.43,1.37,8.15,8.15,0,0,1-1.69,1.81q-.37.31-.62.57h-1.29v-.59a10,10,0,0,0-.26-1.8,11.21,11.21,0,0,1-.3-2.15,3.44,3.44,0,0,1,.6-2.22,3.79,3.79,0,0,1,1.76-1.12l.92.71.92-.71a3,3,0,0,1,1.82,1.18,4.05,4.05,0,0,1,.57,2.29ZM234.14,316a.5.5,0,0,0,.37-.15.48.48,0,0,0,.15-.36.52.52,0,0,0-.15-.38.49.49,0,0,0-.37-.15.49.49,0,0,0-.36.15.52.52,0,0,0-.15.38.48.48,0,0,0,.15.36A.5.5,0,0,0,234.14,316Z"/>
            <path class="cls-7"
                  d="M237.37,308.75a4.39,4.39,0,0,1-3.63,2.25l.33-.74a.75.75,0,0,1-.49-.27.83.83,0,0,1,0-1.09.75.75,0,0,1,1.09,0,.79.79,0,0,1,.23.56,1.18,1.18,0,0,1-.28.8,3,3,0,0,0,1.85-1.51Zm-3.21,1a.22.22,0,0,0,.16-.07.23.23,0,0,0,0-.34.22.22,0,0,0-.16-.07.24.24,0,0,0,0,.48Z"/>
            <path class="cls-7"
                  d="M241,316.91a1.36,1.36,0,0,1,.49-.08,1.26,1.26,0,0,1,.92.38,1.23,1.23,0,0,1,.38.91,1.31,1.31,0,0,1-1.3,1.3,1.73,1.73,0,0,1-1.29-.49,1.83,1.83,0,0,1-.49-1.34v-5.92H241Zm.49,1.74a.5.5,0,0,0,.37-.15.51.51,0,0,0,.15-.38.48.48,0,0,0-.15-.36.52.52,0,0,0-.73,0,.48.48,0,0,0-.15.36.51.51,0,0,0,.15.38A.5.5,0,0,0,241.49,318.64Zm3.14-1.74a1.36,1.36,0,0,1,.49-.08,1.26,1.26,0,0,1,.92.38,1.23,1.23,0,0,1,.38.91,1.31,1.31,0,0,1-1.3,1.3,1.73,1.73,0,0,1-1.29-.49,1.83,1.83,0,0,1-.49-1.34v-5.92h1.29Zm.49,1.74a.5.5,0,0,0,.37-.15.51.51,0,0,0,.15-.38.48.48,0,0,0-.15-.36.52.52,0,0,0-.73,0,.48.48,0,0,0-.15.36.51.51,0,0,0,.15.38A.5.5,0,0,0,245.13,318.64Z"/>
            <path class="cls-7"
                  d="M253.82,319.3H248v-2.2a1.23,1.23,0,0,1,.7-1.1,1.25,1.25,0,0,1-.68-1.12v-1.6a1.83,1.83,0,0,1,.49-1.34,1.72,1.72,0,0,1,1.29-.5,1.32,1.32,0,0,1,1.31,1.31,1.23,1.23,0,0,1-.38.91,1.27,1.27,0,0,1-.92.38,1.36,1.36,0,0,1-.49-.08v.9a.64.64,0,0,0,.73.72h.27v.84H250q-.73,0-.73.68v1h3.23v-6.43h1.29Zm-4-6a.51.51,0,0,0,.37-.15.47.47,0,0,0,.15-.35.51.51,0,0,0-.15-.38.52.52,0,0,0-.73,0,.51.51,0,0,0-.15.38.47.47,0,0,0,.15.35A.51.51,0,0,0,249.79,313.25Z"/>
            <path class="cls-7"
                  d="M253.76,308.75a4.39,4.39,0,0,1-3.63,2.25l.33-.74A.75.75,0,0,1,250,310a.83.83,0,0,1,0-1.09.75.75,0,0,1,1.09,0,.79.79,0,0,1,.23.56,1.18,1.18,0,0,1-.28.8,3,3,0,0,0,1.85-1.51Zm-3.21,1a.22.22,0,0,0,.16-.07.23.23,0,0,0,0-.34.22.22,0,0,0-.16-.07.24.24,0,0,0,0,.48Z"/>
            <path class="cls-7"
                  d="M260.7,317.07a2.74,2.74,0,0,1-.54,1.83,1.81,1.81,0,0,1-1.45.63,1.83,1.83,0,0,1-1.08-.35,3,3,0,0,1-.89-1.18l-1.59-3.32h1.34l1.37,2.85a2.59,2.59,0,0,0,.35.52.64.64,0,0,0,.5.26q.7,0,.7-1.24V314a1.34,1.34,0,0,1-.49.08,1.26,1.26,0,0,1-.92-.38,1.23,1.23,0,0,1-.38-.91,1.32,1.32,0,0,1,1.31-1.31,1.72,1.72,0,0,1,1.29.5,1.83,1.83,0,0,1,.49,1.34Zm-1.79-3.81a.51.51,0,0,0,.36-.15.48.48,0,0,0,.15-.35.52.52,0,0,0-.15-.38.49.49,0,0,0-.36-.15.5.5,0,0,0-.37.15.52.52,0,0,0-.15.38.47.47,0,0,0,.15.35A.51.51,0,0,0,258.91,313.26Z"/>
            <path class="cls-7"
                  d="M338,300.11a1.36,1.36,0,0,1,.49-.08,1.26,1.26,0,0,1,.92.38,1.23,1.23,0,0,1,.38.91,1.31,1.31,0,0,1-1.3,1.3,1.73,1.73,0,0,1-1.29-.49,1.83,1.83,0,0,1-.49-1.34v-5.92H338Zm.49,1.74a.49.49,0,0,0,.37-.15.51.51,0,0,0,.15-.38.48.48,0,0,0-.15-.36.52.52,0,0,0-.73,0,.48.48,0,0,0-.15.36.51.51,0,0,0,.15.38A.49.49,0,0,0,338.46,301.84Zm3.14-1.74a1.36,1.36,0,0,1,.49-.08,1.26,1.26,0,0,1,.92.38,1.23,1.23,0,0,1,.38.91,1.31,1.31,0,0,1-1.3,1.3,1.73,1.73,0,0,1-1.29-.49,1.83,1.83,0,0,1-.49-1.34v-5.92h1.29Zm.49,1.74a.49.49,0,0,0,.37-.15.51.51,0,0,0,.15-.38.48.48,0,0,0-.15-.36.52.52,0,0,0-.73,0,.48.48,0,0,0-.15.36.51.51,0,0,0,.15.38A.49.49,0,0,0,342.09,301.84Z"/>
            <path class="cls-7"
                  d="M351.23,302.5h-5.63v-1.22h.87v-1.75a2.33,2.33,0,0,1,.14-.87,4.34,4.34,0,0,1,.41-.75,3,3,0,0,0,.38-.72,1.8,1.8,0,0,0,.08-.5q0-1.12-.94-1.12a.51.51,0,0,0-.28.07,1.27,1.27,0,0,1,.56,1.05,1.23,1.23,0,0,1-.38.91,1.26,1.26,0,0,1-.92.38,1.3,1.3,0,0,1-1.29-1.3,1.86,1.86,0,0,1,.64-1.47,2.44,2.44,0,0,1,1.67-.56,2.24,2.24,0,0,1,1.59.56,1.91,1.91,0,0,1,.6,1.47,2.43,2.43,0,0,1-.09.64,4.39,4.39,0,0,1-.43.94,2.63,2.63,0,0,0-.44,1.22v1.8h2.18v-6.43h1.29Zm-5.71-5.29a.49.49,0,0,0,.37-.15.51.51,0,0,0,.15-.38.48.48,0,0,0-.15-.36.52.52,0,0,0-.73,0,.48.48,0,0,0-.15.36.51.51,0,0,0,.15.38A.49.49,0,0,0,345.52,297.21Z"/>
            <path class="cls-7"
                  d="M351.59,290.34a2.83,2.83,0,0,1-.8,1.24,3,3,0,0,1-1.91.46h-.7a1,1,0,0,0-.64.19.6.6,0,0,0-.25.5.71.71,0,0,0,.16.44.67.67,0,0,0,.43.25q0-.79.66-.79a3.66,3.66,0,0,1,1.12.53.9.9,0,0,1,.31-.51.87.87,0,0,1,1.16,1.29.83.83,0,0,1-.59.26,3.53,3.53,0,0,1-1.34-.53,2.39,2.39,0,0,0-.62-.28c-.06,0-.1.12-.1.36v.45h-.17a1.86,1.86,0,0,1-1.29-.43,1.36,1.36,0,0,1-.48-1.06,1.3,1.3,0,0,1,.44-1,1.74,1.74,0,0,1,1.2-.39h.68a2.26,2.26,0,0,0,1.24-.24,1.53,1.53,0,0,0,.51-.74Zm-1.07,3.32a.28.28,0,0,0,.21-.09.31.31,0,0,0,.08-.22.3.3,0,0,0-.08-.22.29.29,0,0,0-.42,0,.3.3,0,0,0-.08.22.32.32,0,0,0,.08.22A.27.27,0,0,0,350.52,293.65Z"/>
            <path class="cls-7"
                  d="M358.14,300.27a2.74,2.74,0,0,1-.54,1.83,1.93,1.93,0,0,1-2.54.28,2.94,2.94,0,0,1-.89-1.18l-1.59-3.32h1.34l1.37,2.85a2.59,2.59,0,0,0,.35.52.64.64,0,0,0,.5.26q.7,0,.7-1.24v-3.1a1.34,1.34,0,0,1-.49.08,1.27,1.27,0,0,1-.92-.38,1.23,1.23,0,0,1-.38-.91,1.32,1.32,0,0,1,1.31-1.31,1.73,1.73,0,0,1,1.29.5,1.83,1.83,0,0,1,.49,1.34Zm-1.79-3.81a.5.5,0,0,0,.36-.15.47.47,0,0,0,.15-.35.52.52,0,0,0-.15-.38.49.49,0,0,0-.36-.15.49.49,0,0,0-.37.15.52.52,0,0,0-.15.38.47.47,0,0,0,.15.35A.51.51,0,0,0,356.35,296.46Z"/>
            <path class="cls-7"
                  d="M361.72,300.11a1.36,1.36,0,0,1,.49-.08,1.26,1.26,0,0,1,.92.38,1.23,1.23,0,0,1,.38.91,1.31,1.31,0,0,1-1.3,1.3,1.73,1.73,0,0,1-1.29-.49,1.83,1.83,0,0,1-.49-1.34v-5.92h1.29Zm.49,1.74a.49.49,0,0,0,.37-.15.51.51,0,0,0,.15-.38.48.48,0,0,0-.15-.36.52.52,0,0,0-.73,0,.48.48,0,0,0-.15.36.51.51,0,0,0,.15.38A.49.49,0,0,0,362.21,301.84Zm3.14-1.74a1.36,1.36,0,0,1,.49-.08,1.26,1.26,0,0,1,.92.38,1.23,1.23,0,0,1,.38.91,1.31,1.31,0,0,1-1.3,1.3,1.73,1.73,0,0,1-1.29-.49,1.83,1.83,0,0,1-.49-1.34v-5.92h1.29Zm.49,1.74a.49.49,0,0,0,.37-.15.51.51,0,0,0,.15-.38.48.48,0,0,0-.15-.36.52.52,0,0,0-.73,0,.48.48,0,0,0-.15.36.51.51,0,0,0,.15.38A.49.49,0,0,0,365.85,301.84Z"/>
            <path class="cls-7"
                  d="M373.3,295.81a6.36,6.36,0,0,1-1.26.12l-1.52-.07a2.12,2.12,0,0,0-1.06.22.64.64,0,0,0-.38.55,3.64,3.64,0,0,1,.63,0,2.78,2.78,0,0,1,2.08.62,3,3,0,0,1,.58,2.08v1.48a1.83,1.83,0,0,1-.48,1.34,1.73,1.73,0,0,1-1.29.49,1.31,1.31,0,0,1-1.3-1.3,1.23,1.23,0,0,1,.38-.91,1.26,1.26,0,0,1,.92-.38,1.36,1.36,0,0,1,.49.08v-.81a2.16,2.16,0,0,0-.33-1.34,1.26,1.26,0,0,0-1-.41c-.2,0-.42,0-.67,0l-.65.08-.49.09h0v-.48a2.25,2.25,0,0,1,2.66-2.52l1.52.06a3.16,3.16,0,0,0,.64-.07l.57-.13h.06Zm-2.72,6a.49.49,0,0,0,.37-.15.52.52,0,0,0,.15-.38.48.48,0,0,0-.15-.36.51.51,0,0,0-.37-.15.5.5,0,0,0-.36.15.48.48,0,0,0-.15.36.52.52,0,0,0,.15.38A.49.49,0,0,0,370.58,301.84Z"/>
            <path class="cls-7"
                  d="M379.32,300.27a2.74,2.74,0,0,1-.54,1.83,1.93,1.93,0,0,1-2.54.28,2.94,2.94,0,0,1-.89-1.18l-1.59-3.32h1.34l1.37,2.85a2.59,2.59,0,0,0,.35.52.64.64,0,0,0,.5.26q.7,0,.7-1.24v-3.1a1.34,1.34,0,0,1-.49.08,1.27,1.27,0,0,1-.92-.38,1.23,1.23,0,0,1-.38-.91,1.32,1.32,0,0,1,1.31-1.31,1.73,1.73,0,0,1,1.29.5,1.83,1.83,0,0,1,.49,1.34Zm-1.79-3.81a.5.5,0,0,0,.36-.15A.47.47,0,0,0,378,296a.52.52,0,0,0-.15-.38.49.49,0,0,0-.36-.15.49.49,0,0,0-.37.15.52.52,0,0,0-.15.38.47.47,0,0,0,.15.35A.51.51,0,0,0,377.53,296.46Z"/>
            <path class="cls-7"
                  d="M337.57,319.3h-5.63v-1.22h.87v-1.75a2.32,2.32,0,0,1,.14-.86,4.31,4.31,0,0,1,.41-.76,3,3,0,0,0,.38-.72,1.81,1.81,0,0,0,.08-.5q0-1.12-.94-1.12a.5.5,0,0,0-.28.07,1.27,1.27,0,0,1,.56,1.05,1.23,1.23,0,0,1-.38.91,1.26,1.26,0,0,1-.92.38,1.3,1.3,0,0,1-1.29-1.3,1.86,1.86,0,0,1,.64-1.47,2.44,2.44,0,0,1,1.67-.56,2.24,2.24,0,0,1,1.59.56,1.91,1.91,0,0,1,.6,1.47,2.43,2.43,0,0,1-.09.64,4.43,4.43,0,0,1-.43.94,2.63,2.63,0,0,0-.44,1.22v1.8h2.18v-6.43h1.29ZM331.86,314a.5.5,0,0,0,.37-.15.51.51,0,0,0,.15-.38.48.48,0,0,0-.15-.36.52.52,0,0,0-.73,0,.48.48,0,0,0-.15.36.51.51,0,0,0,.15.38A.5.5,0,0,0,331.86,314Z"/>
            <path class="cls-7"
                  d="M337.53,308.75A4.39,4.39,0,0,1,333.9,311l.33-.74a.75.75,0,0,1-.49-.27.83.83,0,0,1,0-1.09.75.75,0,0,1,1.09,0,.79.79,0,0,1,.23.56,1.18,1.18,0,0,1-.28.8,3,3,0,0,0,1.85-1.51Zm-3.21,1a.22.22,0,0,0,.16-.07.23.23,0,0,0,0-.34.22.22,0,0,0-.16-.07.24.24,0,0,0,0,.48Z"/>
            <path class="cls-7"
                  d="M345.91,319.3h-6v-3a1.84,1.84,0,0,1,.49-1.35,1.73,1.73,0,0,1,1.29-.49,1.24,1.24,0,0,1,.92.39,1.26,1.26,0,0,1,.38.92,1.23,1.23,0,0,1-.38.91,1.26,1.26,0,0,1-.92.38,1.36,1.36,0,0,1-.49-.08v1.09h3.46v-3.53a2,2,0,0,0-.53-1.46,2,2,0,0,0-1.43-.53,4.89,4.89,0,0,0-2.75.91h-.08V312a7.58,7.58,0,0,1,2.81-.59,3.35,3.35,0,0,1,2.43.82,3,3,0,0,1,.85,2.29Zm-4.26-3a.5.5,0,0,0,.37-.15.48.48,0,0,0,.15-.36.51.51,0,0,0-.15-.38.51.51,0,0,0-.73,0,.51.51,0,0,0-.15.38.48.48,0,0,0,.15.36A.5.5,0,0,0,341.66,316.29Z"/>
            <path class="cls-7"
                  d="M351.7,316.91a1.36,1.36,0,0,1,.49-.08,1.26,1.26,0,0,1,.92.38,1.23,1.23,0,0,1,.38.91,1.31,1.31,0,0,1-1.3,1.3,1.74,1.74,0,0,1-1.3-.49,1.83,1.83,0,0,1-.49-1.34v-5a2.8,2.8,0,0,0-.24-1.4.94.94,0,0,0-.84-.35c-.2,0-.42,0-.67,0l-.65.08-.49.1h0v-.48a2.26,2.26,0,0,1,2.67-2.52l1.52.06a3.09,3.09,0,0,0,.64-.07l.57-.13h.05v1.19a6.33,6.33,0,0,1-1.26.12l-1.52-.07a2.11,2.11,0,0,0-1.07.22.64.64,0,0,0-.38.55,3.57,3.57,0,0,1,.63,0,2.35,2.35,0,0,1,1.88.59,3.43,3.43,0,0,1,.48,2.11Zm.49,1.74a.49.49,0,0,0,.36-.15.52.52,0,0,0,.15-.38.48.48,0,0,0-.15-.36.52.52,0,0,0-.72,0,.48.48,0,0,0-.15.36.52.52,0,0,0,.15.38A.5.5,0,0,0,352.19,318.64Z"/>
            <path class="cls-7"
                  d="M361.42,319.3h-1.29v-4.41a2.68,2.68,0,0,0-1.09-2.34l-.92.7-.94-.7a2.58,2.58,0,0,0-1.08,2.19,7.21,7.21,0,0,0,.31,1.92,13.08,13.08,0,0,1,.24,1.4l.72-.7a2.07,2.07,0,0,0,.48-.64,1.34,1.34,0,0,1-.75-.47,1.27,1.27,0,0,1-.27-.8,1.25,1.25,0,0,1,.38-.91,1.23,1.23,0,0,1,.91-.38,1.21,1.21,0,0,1,.92.39,1.37,1.37,0,0,1,.37,1,2.74,2.74,0,0,1-.43,1.37,8.15,8.15,0,0,1-1.69,1.81q-.37.31-.62.57h-1.29v-.59a10,10,0,0,0-.26-1.8,11.21,11.21,0,0,1-.3-2.15,3.44,3.44,0,0,1,.6-2.22,3.79,3.79,0,0,1,1.76-1.12l.92.71.92-.71a3,3,0,0,1,1.82,1.18,4.05,4.05,0,0,1,.57,2.29ZM358.14,316a.5.5,0,0,0,.37-.15.48.48,0,0,0,.15-.36.52.52,0,0,0-.15-.38.49.49,0,0,0-.37-.15.49.49,0,0,0-.36.15.52.52,0,0,0-.15.38.48.48,0,0,0,.15.36A.5.5,0,0,0,358.14,316Z"/>
            <path class="cls-7"
                  d="M361.37,308.75a4.39,4.39,0,0,1-3.63,2.25l.33-.74a.75.75,0,0,1-.49-.27.83.83,0,0,1,0-1.09.75.75,0,0,1,1.09,0,.79.79,0,0,1,.23.56,1.18,1.18,0,0,1-.28.8,3,3,0,0,0,1.85-1.51Zm-3.21,1a.22.22,0,0,0,.16-.07.23.23,0,0,0,0-.34.22.22,0,0,0-.16-.07.24.24,0,0,0,0,.48Z"/>
            <path class="cls-7"
                  d="M365,316.91a1.36,1.36,0,0,1,.49-.08,1.26,1.26,0,0,1,.92.38,1.23,1.23,0,0,1,.38.91,1.31,1.31,0,0,1-1.3,1.3,1.73,1.73,0,0,1-1.29-.49,1.83,1.83,0,0,1-.49-1.34v-5.92H365Zm.49,1.74a.5.5,0,0,0,.37-.15.51.51,0,0,0,.15-.38.48.48,0,0,0-.15-.36.52.52,0,0,0-.73,0,.48.48,0,0,0-.15.36.51.51,0,0,0,.15.38A.5.5,0,0,0,365.49,318.64Zm3.14-1.74a1.36,1.36,0,0,1,.49-.08,1.26,1.26,0,0,1,.92.38,1.23,1.23,0,0,1,.38.91,1.31,1.31,0,0,1-1.3,1.3,1.73,1.73,0,0,1-1.29-.49,1.83,1.83,0,0,1-.49-1.34v-5.92h1.29Zm.49,1.74a.5.5,0,0,0,.37-.15.51.51,0,0,0,.15-.38.48.48,0,0,0-.15-.36.52.52,0,0,0-.73,0,.48.48,0,0,0-.15.36.51.51,0,0,0,.15.38A.5.5,0,0,0,369.13,318.64Z"/>
            <path class="cls-7"
                  d="M377.82,319.3H372v-2.2a1.23,1.23,0,0,1,.7-1.1,1.25,1.25,0,0,1-.68-1.12v-1.6a1.83,1.83,0,0,1,.49-1.34,1.72,1.72,0,0,1,1.29-.5,1.32,1.32,0,0,1,1.31,1.31,1.23,1.23,0,0,1-.38.91,1.27,1.27,0,0,1-.92.38,1.36,1.36,0,0,1-.49-.08v.9a.64.64,0,0,0,.73.72h.27v.84H374q-.73,0-.73.68v1h3.23v-6.43h1.29Zm-4-6a.51.51,0,0,0,.37-.15.47.47,0,0,0,.15-.35.51.51,0,0,0-.15-.38.52.52,0,0,0-.73,0,.51.51,0,0,0-.15.38.47.47,0,0,0,.15.35A.51.51,0,0,0,373.79,313.25Z"/>
            <path class="cls-7"
                  d="M377.76,308.75a4.39,4.39,0,0,1-3.63,2.25l.33-.74A.75.75,0,0,1,374,310a.83.83,0,0,1,0-1.09.75.75,0,0,1,1.09,0,.79.79,0,0,1,.23.56,1.18,1.18,0,0,1-.28.8,3,3,0,0,0,1.85-1.51Zm-3.21,1a.22.22,0,0,0,.16-.07.23.23,0,0,0,0-.34.22.22,0,0,0-.16-.07.24.24,0,0,0,0,.48Z"/>
            <path class="cls-7"
                  d="M384.7,317.07a2.74,2.74,0,0,1-.54,1.83,1.81,1.81,0,0,1-1.45.63,1.83,1.83,0,0,1-1.08-.35,3,3,0,0,1-.89-1.18l-1.59-3.32h1.34l1.37,2.85a2.59,2.59,0,0,0,.35.52.64.64,0,0,0,.5.26q.7,0,.7-1.24V314a1.34,1.34,0,0,1-.49.08,1.26,1.26,0,0,1-.92-.38,1.23,1.23,0,0,1-.38-.91,1.32,1.32,0,0,1,1.31-1.31,1.72,1.72,0,0,1,1.29.5,1.83,1.83,0,0,1,.49,1.34Zm-1.79-3.81a.51.51,0,0,0,.36-.15.48.48,0,0,0,.15-.35.52.52,0,0,0-.15-.38.49.49,0,0,0-.36-.15.5.5,0,0,0-.37.15.52.52,0,0,0-.15.38.47.47,0,0,0,.15.35A.51.51,0,0,0,382.91,313.26Z"/>
            <line class="cls-6" x1="65" y1="272.5" x2="363.5" y2="45"/>
            <line class="cls-8" x1="64.5" y1="50.5" x2="357.5" y2="50.5"/>
            <line class="cls-8" x1="357.5" y1="272" x2="357.5" y2="50"/>
            <line class="cls-8" x1="233.5" y1="272" x2="233.5" y2="145"/>
            <line class="cls-8" x1="100.5" y1="272" x2="100.5" y2="245"/>
            <line class="cls-8" x1="64.5" y1="145" x2="233.5" y2="145"/>
            <line class="cls-8" x1="64.5" y1="244" x2="100.5" y2="244"/>
            <line class="cls-6" x1="64.57" y1="1.5" x2="51.5" y2="20"/>
            <line class="cls-6" x1="64.93" y1="1.5" x2="78" y2="20"/>
            <line class="cls-6" x1="406" y1="271.57" x2="387.5" y2="258.5"/>
            <line class="cls-6" x1="406" y1="271.93" x2="387.5" y2="285"/>
        </g>
    </g>
</svg>