<svg xmlns="http://www.w3.org/2000/svg" viewBox="0 0 407.5 323.07">
    <defs>
        <style>
            .cls-1{fill:#5d2fd1;}.cls-2{fill:#ffd817;}.cls-3{fill:#25ff15;}.cls-4{fill:#ff17a7;}.cls-5{fill:#11113f;}.cls-6,.cls-8{fill:none;stroke:#fff;stroke-linecap:round;stroke-linejoin:round;}.cls-6{stroke-width:3px;}.cls-7{fill:#fff;}.cls-8{stroke-dasharray:12;opacity:0.5;}
        </style>
    </defs>
    <title>scheme-en</title>
    <g id="Layer_2" data-name="Layer 2">
        <g id="Layer_2-2" data-name="Layer 2">
            <polyline class="cls-1"
                      points="27.83 36.48 34.08 36.48 35.16 33.6 38.13 31.65 41.6 33.11 43.07 36.48 48.73 36.48 48.73 57.14 42.87 57.14 42.28 62.31 39.11 65.05 34.86 63 34.08 57.72 27.83 57.72 27.83 51.08 27.83 36.48"/>
            <polygon class="cls-2"
                     points="6.93 42.59 6.93 36.63 13.48 36.63 13.48 33.11 17.29 30.38 21.39 32.63 21.39 35.95 27.83 36.48 27.83 42.59 31.84 43.47 34.08 46.58 32.62 50.01 27.83 51.08 27.83 57.72 6.93 57.72 6.93 51.57 2.44 50.2 0.98 46.11 3.61 42.98 6.93 42.59"/>
            <polyline class="cls-3"
                      points="27.83 57.72 34.57 57.72 34.57 61.43 37.3 64.75 40.63 64.17 42.58 61.24 42.58 57.72 48.73 57.72 48.73 78.62 28.03 78.62 27.93 72.57 31.54 70.99 33.1 67.64 31.35 64.85 27.83 63.48 27.83 57.72"/>
            <polygon class="cls-4"
                     points="6.93 57.72 27.83 57.72 27.83 63.48 31.35 65.34 32.62 68.61 31.54 70.99 27.93 72.57 28.03 78.62 6.93 78.62 6.93 72.66 11.52 71.49 13.57 68.17 11.52 63.97 6.93 63.48 6.93 57.72"/>
            <path class="cls-5"
                  d="M49,35.44H43.55a5.08,5.08,0,0,0-10.13,0H22.52v-.85a5.09,5.09,0,0,0-10.18,0v.85H6.91a1,1,0,0,0-1,1h0v5.45H5.09A5.08,5.08,0,1,0,5.09,52h.85V63.59a1,1,0,0,0,1,1H9.06a3.43,3.43,0,0,1,0,6.86H6.91a1,1,0,0,0-1,1v6.12a1,1,0,0,0,1,1H49a1,1,0,0,0,1-1V36.41A1,1,0,0,0,49,35.44ZM6.91,50.07H5.09a3.13,3.13,0,0,1,0-6.26H6.91a1,1,0,0,0,1-1V37.39h5.45a1,1,0,0,0,1-1V34.59a3.14,3.14,0,1,1,6.27-.12h0v1.93a1,1,0,0,0,1,1H27v5.45a1,1,0,0,0,1,1h1.83a3.13,3.13,0,1,1,.11,6.26H28a1,1,0,0,0-1,1V56.5H17.86V51.24a1,1,0,0,0-2,0V56.5h-8V51.05A1,1,0,0,0,6.91,50.07ZM28,71.12a1,1,0,0,0-1,1v5.45H20.76V72.28a1,1,0,0,0-2,0v5.26H7.89V73.38H9.06a5.38,5.38,0,0,0,0-10.76H7.89V58.45H27v5.45a1,1,0,0,0,1,1h.58a3.13,3.13,0,1,1,0,6.25ZM48,70H42.78a1,1,0,0,0,0,2H48v5.58H28.95V73.06a5.07,5.07,0,0,0,0-10.13V58.46h4.47v2.16a5.08,5.08,0,0,0,10.17.15h0V58.46H48Zm0-24.88H42.78a1,1,0,0,0,0,2H48v9.4H42.6a1,1,0,0,0-1,1V60.6a3.13,3.13,0,0,1-6.26.11V57.47a1,1,0,0,0-1-1H28.95V52h.85a5.09,5.09,0,1,0,0-10.18h-.85V37.39h5.45a1,1,0,0,0,1-1V35.9a3.13,3.13,0,0,1,6.26,0v.52a1,1,0,0,0,1,1H48Z"/>
            <circle class="cls-5" cx="19.79" cy="68.61" r="0.98"/>
            <circle class="cls-5" cx="39.11" cy="70.99" r="0.98"/>
            <circle class="cls-5" cx="39.11" cy="46.11" r="0.98"/>
            <circle class="cls-5" cx="16.87" cy="47.56" r="0.98"/>
            <polygon class="cls-4"
                     points="6.35 140.47 11.78 136.46 14.61 139.06 18.08 139.71 20.9 137.76 22.1 134.17 18.84 129.72 24.04 125.38 39.26 143.34 34.15 147.64 36.09 151.22 33.72 155.13 29.59 155.57 27.2 153.94 21.56 158.39 6.35 140.47"/>
            <path class="cls-3"
                  d="M22.1,158.5l5.1-4.56,2.39,1.63,3.26.11,2.15-2.5v-4.34l-.85-1.19,5.1-4.3,4.56,5.06s-2.39,2.61-2.61,3-.87,3.91-.87,3.91L42,158.5h3.48L49.9,156l4.89,5.34L37.17,176.42Z"/>
            <path class="cls-5"
                  d="M54.34,159.75l-3.88-4.5a1.06,1.06,0,0,0-1.5-.11l-2.59,2.24a3.42,3.42,0,0,1-4.58-5.07l.07-.06.05,0L44.5,150a1.06,1.06,0,0,0,.11-1.5L40.73,144l-1.39-1.61-6.53-7.56-1.4-1.61-5.71-6.61L24.31,125l-.72.63-.09.07L18.44,130a1.06,1.06,0,0,0-.11,1.5l1.53,1.78a3.74,3.74,0,0,1-5.66,4.89h0l-1.55-1.79a1.06,1.06,0,0,0-1.5-.11L6.1,140.68a1.06,1.06,0,0,0-.11,1.5L36,177a1.06,1.06,0,0,0,1.5.11l18.2-15.71ZM27.93,153.6a1.06,1.06,0,0,0-1.5-.11l-4.5,3.89-4.44-5.15,4.35-3.75a1.07,1.07,0,1,0-1.4-1.61h0l-4.35,3.75-7.78-9,3.44-3,.83,1a5.87,5.87,0,0,0,9.06-7.48l-.16-.19-.84-1,3.44-3L37.7,143.77l-4.5,3.88a1.06,1.06,0,0,0-.11,1.5l.42.48a3.42,3.42,0,1,1-5.17,4.47h0Zm15.24,15.79L39.41,165a1.07,1.07,0,0,0-1.61,1.4h0l3.76,4.36-4.61,4L23.31,159l3.71-3.2a5.54,5.54,0,0,0,8.37-7.23l3.71-3.2,3.19,3.69-1.78,1.53a5.55,5.55,0,0,0,7.14,8.5l.12-.1,1.78-1.55,3.19,3.69Z"/>
            <circle class="cls-5" cx="24.04" cy="144.43" r="1.09" transform="translate(-88.55 50.83) rotate(-40.81)"/>
            <circle class="cls-5" cx="36.09" cy="162.43" r="1.09" transform="translate(-97.39 63.08) rotate(-40.81)"/>
            <polygon class="cls-3"
                     points="12.34 228.97 22.47 228.97 22.47 235.37 26.13 239.91 30.14 240.35 34.15 238.89 35.92 234.18 35.92 228.97 46.27 228.97 46.27 261.5 45.39 262.82 12.34 262.82 12.34 252.78 16.21 251.45 19.96 245.9 17.84 240.88 12.34 239.25 12.34 228.97"/>
            <path class="cls-5"
                  d="M44.55,227.34H35.78a1.58,1.58,0,0,0-1.59,1.59h0V234a5.05,5.05,0,1,1-10.09.4V234h0v-5.11a1.58,1.58,0,0,0-1.59-1.59H10.57v11.94a1.58,1.58,0,0,0,1.59,1.59h.93a5.07,5.07,0,0,1,5.07,5.07h0A5.07,5.07,0,0,1,13.08,251h-.93a1.58,1.58,0,0,0-1.59,1.59h0V264.5H46.14a1.58,1.58,0,0,0,1.59-1.59h0V227.34Zm0,21.82H36a1.58,1.58,0,0,0-1.5,1.67,1.61,1.61,0,0,0,1.5,1.5h8.51v9H13.7V254.1a8.25,8.25,0,0,0,7.67-8.68v0a8.16,8.16,0,0,0-7.63-7.63v-7.27H21V234a8.2,8.2,0,0,0,16.4,0v-3.48h7.18Z"/>
            <circle class="cls-5" cx="30.14" cy="250.7" r="1.59"/>
            <line class="cls-6" x1="64.88" y1="21.5" x2="64.88" y2="272.5"/>
            <line class="cls-6" x1="65.38" y1="272.5" x2="386.13" y2="272.5"/>
            <path class="cls-7"
                  d="M65.43,292.63v5.92a3.07,3.07,0,0,0,.64,2.15,2.31,2.31,0,0,0,1.78.69,2.23,2.23,0,0,0,1.75-.7,3.12,3.12,0,0,0,.63-2.14v-5.92H71.5v5.92a4.15,4.15,0,0,1-1,3,4,4,0,0,1-5.35,0,4.15,4.15,0,0,1-1-3v-5.92Z"/>
            <path class="cls-7"
                  d="M79.69,295.55a3.45,3.45,0,0,1,.83,2.49v4.47H79.24v-4.35a2.46,2.46,0,0,0-.59-1.76,2.1,2.1,0,0,0-1.6-.62,2.18,2.18,0,0,0-1.68.68,2.81,2.81,0,0,0-.63,2v4.07H73.48v-7.69h1.27v1.82a2.62,2.62,0,0,1,1-1.44,3,3,0,0,1,1.73-.5A2.87,2.87,0,0,1,79.69,295.55Z"/>
            <path class="cls-7"
                  d="M86.15,301.38v1.12h-1a2.44,2.44,0,0,1-1.76-.56,2.53,2.53,0,0,1-.58-1.87v-4.14H81.71v-1.11h1.15V292.9h1.29v1.92h2v1.11h-2v4.17a1.44,1.44,0,0,0,.27,1,1.32,1.32,0,0,0,.94.27Z"/>
            <path class="cls-7"
                  d="M94.71,298.93H88.57a2.69,2.69,0,0,0,.75,2,2.44,2.44,0,0,0,1.73.66,2.49,2.49,0,0,0,1.55-.47,1.94,1.94,0,0,0,.76-1.25h1.36a3.21,3.21,0,0,1-1.88,2.41,4.15,4.15,0,0,1-1.74.35,4,4,0,0,1-2-.48,3.37,3.37,0,0,1-1.34-1.37,4.79,4.79,0,0,1,0-4.19,3.36,3.36,0,0,1,1.34-1.37,4,4,0,0,1,2-.48,3.88,3.88,0,0,1,2,.48,3.28,3.28,0,0,1,1.27,1.27,3.59,3.59,0,0,1,.44,1.76A3.8,3.8,0,0,1,94.71,298.93Zm-1.51-2a2,2,0,0,0-.88-.85,2.69,2.69,0,0,0-1.22-.28,2.52,2.52,0,0,0-1.76.65,2.63,2.63,0,0,0-.77,1.91h4.91A2.61,2.61,0,0,0,93.2,296.89Z"/>
            <path class="cls-7"
                  d="M102.65,295.55a3.45,3.45,0,0,1,.83,2.49v4.47H102.2v-4.35a2.46,2.46,0,0,0-.59-1.76,2.1,2.1,0,0,0-1.6-.62,2.18,2.18,0,0,0-1.68.68,2.81,2.81,0,0,0-.63,2v4.07H96.44v-7.69h1.27v1.82a2.62,2.62,0,0,1,1-1.44,3,3,0,0,1,1.73-.5A2.87,2.87,0,0,1,102.65,295.55Z"/>
            <path class="cls-7"
                  d="M110.48,295.28a2.92,2.92,0,0,1,1.08,1.5v-2h1.27v7.69h-1.27v-2a2.91,2.91,0,0,1-1.08,1.5,3.15,3.15,0,0,1-1.9.56,3.48,3.48,0,0,1-1.82-.48,3.29,3.29,0,0,1-1.25-1.37,5.06,5.06,0,0,1,0-4.19,3.29,3.29,0,0,1,1.25-1.37,3.49,3.49,0,0,1,1.82-.48A3.16,3.16,0,0,1,110.48,295.28Zm-3.42,1.32a3.37,3.37,0,0,0,0,4.13,2.47,2.47,0,0,0,1.88.75,2.62,2.62,0,0,0,1.35-.35,2.43,2.43,0,0,0,.93-1,3.11,3.11,0,0,0,.34-1.48,3.16,3.16,0,0,0-.34-1.48,2.38,2.38,0,0,0-.93-1,2.66,2.66,0,0,0-1.35-.34A2.47,2.47,0,0,0,107.07,296.6Z"/>
            <path class="cls-7"
                  d="M120.94,295.19a3.29,3.29,0,0,1,1.25,1.37,5.06,5.06,0,0,1,0,4.19,3.29,3.29,0,0,1-1.25,1.37,3.48,3.48,0,0,1-1.82.48,3.13,3.13,0,0,1-1.9-.57,2.89,2.89,0,0,1-1.07-1.49v2h-1.27V292.14h1.27v4.63a2.88,2.88,0,0,1,1.07-1.49,3.12,3.12,0,0,1,1.9-.57A3.49,3.49,0,0,1,120.94,295.19Zm-3.53,1a2.36,2.36,0,0,0-.94,1,3.16,3.16,0,0,0-.34,1.48,3.11,3.11,0,0,0,.34,1.48,2.41,2.41,0,0,0,.94,1,2.62,2.62,0,0,0,1.34.35,2.48,2.48,0,0,0,1.9-.75,3.37,3.37,0,0,0,0-4.13,2.48,2.48,0,0,0-1.9-.75A2.67,2.67,0,0,0,117.41,296.19Z"/>
            <path class="cls-7" d="M125.58,292.14V302.5h-1.27V292.14Z"/>
            <path class="cls-7"
                  d="M134.64,298.93H128.5a2.69,2.69,0,0,0,.75,2,2.44,2.44,0,0,0,1.73.66,2.49,2.49,0,0,0,1.55-.47,1.94,1.94,0,0,0,.76-1.25h1.36a3.21,3.21,0,0,1-1.88,2.41,4.15,4.15,0,0,1-1.74.35,4,4,0,0,1-2-.48,3.37,3.37,0,0,1-1.34-1.37,4.79,4.79,0,0,1,0-4.19,3.36,3.36,0,0,1,1.34-1.37,4,4,0,0,1,2-.48,3.88,3.88,0,0,1,2,.48,3.28,3.28,0,0,1,1.27,1.27,3.59,3.59,0,0,1,.44,1.76A3.8,3.8,0,0,1,134.64,298.93Zm-1.51-2a2,2,0,0,0-.88-.85,2.69,2.69,0,0,0-1.22-.28,2.52,2.52,0,0,0-1.76.65,2.63,2.63,0,0,0-.77,1.91h4.91A2.61,2.61,0,0,0,133.13,296.89Z"/>
            <path class="cls-7"
                  d="M68.21,312.08a2.92,2.92,0,0,1,1.08,1.5v-2h1.27v7.69H69.29v-2a2.92,2.92,0,0,1-1.08,1.5,3.16,3.16,0,0,1-1.9.56,3.48,3.48,0,0,1-1.82-.48,3.29,3.29,0,0,1-1.25-1.37,4.53,4.53,0,0,1-.46-2.09,4.58,4.58,0,0,1,.46-2.1A3.28,3.28,0,0,1,64.49,312a3.48,3.48,0,0,1,1.82-.48A3.16,3.16,0,0,1,68.21,312.08Zm-3.42,1.32a3.37,3.37,0,0,0,0,4.13,2.47,2.47,0,0,0,1.88.75,2.61,2.61,0,0,0,1.35-.35,2.43,2.43,0,0,0,.93-1,3.13,3.13,0,0,0,.34-1.48A3.16,3.16,0,0,0,69,314a2.38,2.38,0,0,0-.93-1,2.66,2.66,0,0,0-1.35-.34A2.47,2.47,0,0,0,64.79,313.4Z"/>
            <path class="cls-7"
                  d="M75,311.93a3.29,3.29,0,0,1,1.74-.44v1.39h-.39a2.72,2.72,0,0,0-1.76.55,2.21,2.21,0,0,0-.69,1.83v4H72.59v-7.69h1.27v1.55A2.83,2.83,0,0,1,75,311.93Z"/>
            <path class="cls-7"
                  d="M83,312.08a2.92,2.92,0,0,1,1.08,1.5v-2h1.27v7.81a3.9,3.9,0,0,1-.45,1.89,3.22,3.22,0,0,1-1.26,1.29,3.75,3.75,0,0,1-1.89.46,4.05,4.05,0,0,1-2.53-.75,3.3,3.3,0,0,1-1.25-2h1.26a2.18,2.18,0,0,0,.85,1.21,2.71,2.71,0,0,0,1.6.44,2.35,2.35,0,0,0,1.72-.66,2.48,2.48,0,0,0,.68-1.86v-2.09a2.92,2.92,0,0,1-1.08,1.5,3.16,3.16,0,0,1-1.9.56,3.48,3.48,0,0,1-1.82-.48A3.29,3.29,0,0,1,78,317.56a4.53,4.53,0,0,1-.46-2.09,4.58,4.58,0,0,1,.46-2.1A3.28,3.28,0,0,1,79.3,312a3.48,3.48,0,0,1,1.82-.48A3.16,3.16,0,0,1,83,312.08ZM79.6,313.4a3.37,3.37,0,0,0,0,4.13,2.47,2.47,0,0,0,1.88.75,2.61,2.61,0,0,0,1.35-.35,2.43,2.43,0,0,0,.93-1,3.13,3.13,0,0,0,.34-1.48,3.16,3.16,0,0,0-.34-1.48,2.38,2.38,0,0,0-.93-1,2.66,2.66,0,0,0-1.35-.34A2.47,2.47,0,0,0,79.6,313.4Z"/>
            <path class="cls-7"
                  d="M94.24,311.61v7.69H93v-1.81a2.59,2.59,0,0,1-1,1.43,3.08,3.08,0,0,1-1.74.5,2.85,2.85,0,0,1-2.16-.86,3.43,3.43,0,0,1-.83-2.47v-4.48h1.27V316a2.48,2.48,0,0,0,.59,1.77,2.09,2.09,0,0,0,1.6.62,2.18,2.18,0,0,0,1.68-.68,2.81,2.81,0,0,0,.63-2v-4.09Z"/>
            <path class="cls-7"
                  d="M107.9,312.35a3.47,3.47,0,0,1,.82,2.49v4.47h-1.27v-4.35a2.48,2.48,0,0,0-.55-1.74,2,2,0,0,0-1.52-.6,2.09,2.09,0,0,0-1.62.67,2.8,2.8,0,0,0-.61,2v4.07h-1.27v-4.35a2.46,2.46,0,0,0-.56-1.74,2,2,0,0,0-1.51-.6,2.11,2.11,0,0,0-1.63.67,2.8,2.8,0,0,0-.61,2v4.07H96.28v-7.69h1.27v1.75a2.5,2.5,0,0,1,1-1.39,3.13,3.13,0,0,1,3.36,0,2.71,2.71,0,0,1,1,1.46A2.77,2.77,0,0,1,104,312a3,3,0,0,1,1.71-.51A2.85,2.85,0,0,1,107.9,312.35Z"/>
            <path class="cls-7"
                  d="M117.7,315.73h-6.15a2.69,2.69,0,0,0,.75,2,2.44,2.44,0,0,0,1.73.66,2.5,2.5,0,0,0,1.55-.47,1.94,1.94,0,0,0,.76-1.25h1.36a3.21,3.21,0,0,1-1.88,2.41,4.15,4.15,0,0,1-1.74.35,4,4,0,0,1-2-.48,3.37,3.37,0,0,1-1.34-1.37,4.32,4.32,0,0,1-.48-2.09,4.37,4.37,0,0,1,.48-2.1,3.35,3.35,0,0,1,1.34-1.37,4,4,0,0,1,2-.48,3.87,3.87,0,0,1,2,.48,3.28,3.28,0,0,1,1.27,1.27,3.59,3.59,0,0,1,.44,1.76A3.83,3.83,0,0,1,117.7,315.73Zm-1.51-2a2,2,0,0,0-.88-.85,2.68,2.68,0,0,0-1.22-.28,2.52,2.52,0,0,0-1.76.65,2.62,2.62,0,0,0-.77,1.91h4.91A2.62,2.62,0,0,0,116.19,313.69Z"/>
            <path class="cls-7"
                  d="M125.64,312.35a3.45,3.45,0,0,1,.83,2.49v4.47h-1.27v-4.35a2.46,2.46,0,0,0-.59-1.76,2.1,2.1,0,0,0-1.6-.62,2.18,2.18,0,0,0-1.68.68,2.81,2.81,0,0,0-.63,2v4.07h-1.27v-7.69h1.27v1.82a2.62,2.62,0,0,1,1-1.44,3,3,0,0,1,1.73-.5A2.87,2.87,0,0,1,125.64,312.35Z"/>
            <path class="cls-7"
                  d="M132.09,318.18v1.12h-1a2.45,2.45,0,0,1-1.76-.56,2.53,2.53,0,0,1-.58-1.88v-4.14h-1.15v-1.11h1.15V309.7h1.29v1.92h2v1.11h-2v4.17a1.43,1.43,0,0,0,.27,1,1.31,1.31,0,0,0,.94.27Z"/>
            <path class="cls-7"
                  d="M138.15,312.2a2.86,2.86,0,0,1,1,1.83h-1.22a1.77,1.77,0,0,0-.57-1.13,1.85,1.85,0,0,0-1.29-.44,1.6,1.6,0,0,0-1.07.33,1.11,1.11,0,0,0-.39.89.92.92,0,0,0,.26.68,1.65,1.65,0,0,0,.64.39,10.12,10.12,0,0,0,1.06.29,10.36,10.36,0,0,1,1.38.4,2.17,2.17,0,0,1,.9.65,1.83,1.83,0,0,1,.37,1.2,1.89,1.89,0,0,1-.71,1.53,2.85,2.85,0,0,1-1.88.59,3.61,3.61,0,0,1-2.24-.66,2.63,2.63,0,0,1-1-1.83h1.23a1.6,1.6,0,0,0,.61,1.13,2.2,2.2,0,0,0,1.42.43,1.48,1.48,0,0,0,1-.34,1.13,1.13,0,0,0,.37-.88,1,1,0,0,0-.27-.71,1.75,1.75,0,0,0-.66-.41,9.93,9.93,0,0,0-1.08-.29,10.49,10.49,0,0,1-1.36-.39,2.08,2.08,0,0,1-.87-.62,1.74,1.74,0,0,1-.36-1.15,1.93,1.93,0,0,1,.71-1.56,3,3,0,0,1,1.95-.6A3.1,3.1,0,0,1,138.15,312.2Z"/>
            <path class="cls-7"
                  d="M226.06,292.63l-2.51,9.87H222l-2.28-8.06-2.28,8.06h-1.55l-2.52-9.87h1.41l1.89,8.39,2.34-8.39h1.41l2.34,8.36,1.9-8.36Z"/>
            <path class="cls-7"
                  d="M234.57,298.93h-6.15a2.69,2.69,0,0,0,.75,2,2.44,2.44,0,0,0,1.73.66,2.49,2.49,0,0,0,1.55-.47,1.94,1.94,0,0,0,.76-1.25h1.36a3.21,3.21,0,0,1-1.88,2.41,4.15,4.15,0,0,1-1.74.35,4,4,0,0,1-2-.48,3.37,3.37,0,0,1-1.34-1.37,4.79,4.79,0,0,1,0-4.19,3.36,3.36,0,0,1,1.34-1.37,4,4,0,0,1,2-.48,3.88,3.88,0,0,1,2,.48,3.28,3.28,0,0,1,1.27,1.27,3.59,3.59,0,0,1,.44,1.76A3.8,3.8,0,0,1,234.57,298.93Zm-1.51-2a2,2,0,0,0-.88-.85,2.69,2.69,0,0,0-1.22-.28,2.52,2.52,0,0,0-1.76.65,2.63,2.63,0,0,0-.77,1.91h4.91A2.62,2.62,0,0,0,233.06,296.89Z"/>
            <path class="cls-7"
                  d="M241.34,295.28a2.93,2.93,0,0,1,1.08,1.5v-2h1.27v7.69h-1.27v-2a2.92,2.92,0,0,1-1.08,1.5,3.16,3.16,0,0,1-1.9.56,3.48,3.48,0,0,1-1.82-.48,3.3,3.3,0,0,1-1.25-1.37,5.06,5.06,0,0,1,0-4.19,3.3,3.3,0,0,1,1.25-1.37,3.49,3.49,0,0,1,1.82-.48A3.16,3.16,0,0,1,241.34,295.28Zm-3.42,1.32a3.37,3.37,0,0,0,0,4.13,2.46,2.46,0,0,0,1.88.75,2.61,2.61,0,0,0,1.35-.35,2.44,2.44,0,0,0,.93-1,3.12,3.12,0,0,0,.34-1.48,3.17,3.17,0,0,0-.34-1.48,2.39,2.39,0,0,0-.93-1,2.66,2.66,0,0,0-1.35-.34A2.46,2.46,0,0,0,237.93,296.6Z"/>
            <path class="cls-7" d="M249.95,302.5,247,299v3.46h-1.27V292.14H247v6l2.9-3.35h1.55L248,298.64l3.53,3.86Z"/>
            <path class="cls-7"
                  d="M201.21,312.08a2.92,2.92,0,0,1,1.09,1.5v-2h1.27v7.69h-1.27v-2a2.92,2.92,0,0,1-1.09,1.5,3.16,3.16,0,0,1-1.9.56,3.48,3.48,0,0,1-1.82-.48,3.29,3.29,0,0,1-1.25-1.37,4.53,4.53,0,0,1-.46-2.09,4.58,4.58,0,0,1,.46-2.1,3.28,3.28,0,0,1,1.25-1.37,3.48,3.48,0,0,1,1.82-.48A3.16,3.16,0,0,1,201.21,312.08Zm-3.42,1.32a3.37,3.37,0,0,0,0,4.13,2.47,2.47,0,0,0,1.88.75,2.61,2.61,0,0,0,1.35-.35,2.44,2.44,0,0,0,.93-1,3.13,3.13,0,0,0,.34-1.48A3.16,3.16,0,0,0,202,314a2.39,2.39,0,0,0-.93-1,2.65,2.65,0,0,0-1.35-.34A2.47,2.47,0,0,0,197.79,313.4Z"/>
            <path class="cls-7"
                  d="M208,311.93a3.29,3.29,0,0,1,1.74-.44v1.39h-.39a2.72,2.72,0,0,0-1.76.55,2.21,2.21,0,0,0-.69,1.83v4h-1.27v-7.69h1.27v1.55A2.82,2.82,0,0,1,208,311.93Z"/>
            <path class="cls-7"
                  d="M216,312.08a2.92,2.92,0,0,1,1.08,1.5v-2h1.28v7.81a3.9,3.9,0,0,1-.45,1.89,3.22,3.22,0,0,1-1.26,1.29,3.75,3.75,0,0,1-1.89.46,4.05,4.05,0,0,1-2.53-.75,3.31,3.31,0,0,1-1.25-2h1.26a2.18,2.18,0,0,0,.85,1.21,2.71,2.71,0,0,0,1.6.44,2.35,2.35,0,0,0,1.72-.66,2.48,2.48,0,0,0,.68-1.86v-2.09a2.92,2.92,0,0,1-1.08,1.5,3.16,3.16,0,0,1-1.9.56,3.48,3.48,0,0,1-1.82-.48,3.29,3.29,0,0,1-1.25-1.37,4.54,4.54,0,0,1-.46-2.09,4.59,4.59,0,0,1,.46-2.1A3.28,3.28,0,0,1,212.3,312a3.48,3.48,0,0,1,1.82-.48A3.16,3.16,0,0,1,216,312.08Zm-3.42,1.32a3.37,3.37,0,0,0,0,4.13,2.47,2.47,0,0,0,1.88.75,2.62,2.62,0,0,0,1.35-.35,2.42,2.42,0,0,0,.93-1,3.12,3.12,0,0,0,.34-1.48,3.15,3.15,0,0,0-.34-1.48,2.38,2.38,0,0,0-.93-1,2.66,2.66,0,0,0-1.35-.34A2.47,2.47,0,0,0,212.6,313.4Z"/>
            <path class="cls-7"
                  d="M227.24,311.61v7.69H226v-1.81a2.6,2.6,0,0,1-1,1.43,3.09,3.09,0,0,1-1.74.5,2.85,2.85,0,0,1-2.16-.86,3.43,3.43,0,0,1-.83-2.47v-4.48h1.27V316a2.47,2.47,0,0,0,.59,1.77,2.09,2.09,0,0,0,1.6.62,2.18,2.18,0,0,0,1.68-.68,2.81,2.81,0,0,0,.63-2v-4.09Z"/>
            <path class="cls-7"
                  d="M240.89,312.35a3.47,3.47,0,0,1,.82,2.49v4.47h-1.28v-4.35a2.47,2.47,0,0,0-.55-1.74,2,2,0,0,0-1.52-.6,2.09,2.09,0,0,0-1.62.67,2.8,2.8,0,0,0-.61,2v4.07h-1.27v-4.35a2.46,2.46,0,0,0-.56-1.74,2,2,0,0,0-1.51-.6,2.1,2.1,0,0,0-1.63.67,2.8,2.8,0,0,0-.61,2v4.07h-1.27v-7.69h1.27v1.75a2.5,2.5,0,0,1,1-1.39,3.13,3.13,0,0,1,3.36,0,2.71,2.71,0,0,1,1,1.46A2.78,2.78,0,0,1,237,312a3,3,0,0,1,1.71-.51A2.84,2.84,0,0,1,240.89,312.35Z"/>
            <path class="cls-7"
                  d="M250.7,315.73h-6.15a2.69,2.69,0,0,0,.75,2,2.44,2.44,0,0,0,1.73.66,2.5,2.5,0,0,0,1.55-.47,1.94,1.94,0,0,0,.76-1.25h1.36a3.21,3.21,0,0,1-1.88,2.41,4.15,4.15,0,0,1-1.74.35,4,4,0,0,1-2-.48,3.37,3.37,0,0,1-1.34-1.37,4.31,4.31,0,0,1-.48-2.09,4.36,4.36,0,0,1,.48-2.1,3.35,3.35,0,0,1,1.34-1.37,4,4,0,0,1,2-.48,3.87,3.87,0,0,1,2,.48,3.27,3.27,0,0,1,1.27,1.27,3.59,3.59,0,0,1,.44,1.76A3.83,3.83,0,0,1,250.7,315.73Zm-1.51-2a2,2,0,0,0-.88-.85,2.67,2.67,0,0,0-1.22-.28,2.52,2.52,0,0,0-1.76.65,2.62,2.62,0,0,0-.77,1.91h4.91A2.62,2.62,0,0,0,249.19,313.69Z"/>
            <path class="cls-7"
                  d="M258.64,312.35a3.45,3.45,0,0,1,.83,2.49v4.47h-1.27v-4.35a2.46,2.46,0,0,0-.59-1.76,2.1,2.1,0,0,0-1.6-.62,2.18,2.18,0,0,0-1.68.68,2.81,2.81,0,0,0-.63,2v4.07h-1.27v-7.69h1.27v1.82a2.62,2.62,0,0,1,1-1.44,3,3,0,0,1,1.73-.5A2.87,2.87,0,0,1,258.64,312.35Z"/>
            <path class="cls-7"
                  d="M265.09,318.18v1.12h-1a2.44,2.44,0,0,1-1.76-.56,2.53,2.53,0,0,1-.58-1.88v-4.14h-1.15v-1.11h1.15V309.7h1.29v1.92h2v1.11h-2v4.17a1.44,1.44,0,0,0,.27,1,1.31,1.31,0,0,0,.95.27Z"/>
            <path class="cls-7"
                  d="M271.15,312.2a2.86,2.86,0,0,1,1,1.83h-1.22a1.77,1.77,0,0,0-.57-1.13,1.85,1.85,0,0,0-1.29-.44,1.6,1.6,0,0,0-1.07.33,1.11,1.11,0,0,0-.38.89.92.92,0,0,0,.26.68,1.65,1.65,0,0,0,.64.39,10.15,10.15,0,0,0,1.06.29,10.37,10.37,0,0,1,1.38.4,2.16,2.16,0,0,1,.9.65,1.83,1.83,0,0,1,.37,1.2,1.89,1.89,0,0,1-.71,1.53,2.85,2.85,0,0,1-1.88.59,3.61,3.61,0,0,1-2.24-.66,2.63,2.63,0,0,1-1-1.83h1.23a1.61,1.61,0,0,0,.61,1.13,2.2,2.2,0,0,0,1.42.43,1.48,1.48,0,0,0,1-.34,1.13,1.13,0,0,0,.37-.88,1,1,0,0,0-.27-.71,1.74,1.74,0,0,0-.66-.41,10,10,0,0,0-1.08-.29,10.52,10.52,0,0,1-1.37-.39,2.08,2.08,0,0,1-.87-.62,1.74,1.74,0,0,1-.36-1.15,1.93,1.93,0,0,1,.71-1.56,3,3,0,0,1,1.95-.6A3.1,3.1,0,0,1,271.15,312.2Z"/>
            <path class="cls-7"
                  d="M340.21,301.24a2.53,2.53,0,0,1-1,1,3.47,3.47,0,0,1-1.69.38,4.08,4.08,0,0,1-1.74-.36,3.11,3.11,0,0,1-1.22-1,2.78,2.78,0,0,1-.53-1.42h1.36a1.93,1.93,0,0,0,.29.82,1.9,1.9,0,0,0,.7.66,2.17,2.17,0,0,0,1.1.26,1.74,1.74,0,0,0,1.29-.45,1.55,1.55,0,0,0,.45-1.15,1.48,1.48,0,0,0-.32-1,2.25,2.25,0,0,0-.78-.6,10.63,10.63,0,0,0-1.26-.47,12.8,12.8,0,0,1-1.5-.58,2.57,2.57,0,0,1-1-.82,2.39,2.39,0,0,1-.4-1.44,2.49,2.49,0,0,1,.37-1.36,2.43,2.43,0,0,1,1.06-.91,3.84,3.84,0,0,1,1.63-.32,3.51,3.51,0,0,1,2.31.71,2.7,2.7,0,0,1,1,1.8H339a1.85,1.85,0,0,0-.6-1,1.9,1.9,0,0,0-1.33-.45,1.82,1.82,0,0,0-1.23.4,1.41,1.41,0,0,0-.46,1.13,1.39,1.39,0,0,0,.3.93,2.08,2.08,0,0,0,.75.56,12.11,12.11,0,0,0,1.23.46,12.5,12.5,0,0,1,1.53.59,2.6,2.6,0,0,1,1,.85,2.53,2.53,0,0,1,.41,1.5A2.62,2.62,0,0,1,340.21,301.24Z"/>
            <path class="cls-7"
                  d="M345.92,301.38v1.12h-1a2.44,2.44,0,0,1-1.76-.56,2.53,2.53,0,0,1-.58-1.87v-4.14h-1.15v-1.11h1.15V292.9h1.29v1.92h2v1.11h-2v4.17a1.44,1.44,0,0,0,.27,1,1.32,1.32,0,0,0,.95.27Z"/>
            <path class="cls-7"
                  d="M349.85,295.13a3.28,3.28,0,0,1,1.74-.44v1.39h-.39a2.72,2.72,0,0,0-1.76.55,2.21,2.21,0,0,0-.69,1.83v4h-1.27v-7.69h1.27v1.55A2.83,2.83,0,0,1,349.85,295.13Z"/>
            <path class="cls-7"
                  d="M358.32,295.19a3.42,3.42,0,0,1,1.37,1.37,4.67,4.67,0,0,1,0,4.19,3.42,3.42,0,0,1-1.37,1.37,4.36,4.36,0,0,1-4,0,3.46,3.46,0,0,1-1.38-1.37,4.6,4.6,0,0,1,0-4.19,3.45,3.45,0,0,1,1.38-1.37,4.36,4.36,0,0,1,4,0Zm-3.25,1a2.31,2.31,0,0,0-.94.94,3.19,3.19,0,0,0-.36,1.58,3.16,3.16,0,0,0,.36,1.56,2.31,2.31,0,0,0,.94.95,2.76,2.76,0,0,0,2.53,0,2.31,2.31,0,0,0,.94-.95,3.15,3.15,0,0,0,.36-1.56,3.18,3.18,0,0,0-.36-1.58,2.32,2.32,0,0,0-.94-.94,2.76,2.76,0,0,0-2.53,0Z"/>
            <path class="cls-7"
                  d="M368.07,295.55a3.45,3.45,0,0,1,.83,2.49v4.47h-1.27v-4.35a2.46,2.46,0,0,0-.59-1.76,2.1,2.1,0,0,0-1.6-.62,2.18,2.18,0,0,0-1.68.68,2.81,2.81,0,0,0-.63,2v4.07h-1.27v-7.69h1.27v1.82a2.62,2.62,0,0,1,1-1.44,3,3,0,0,1,1.73-.5A2.87,2.87,0,0,1,368.07,295.55Z"/>
            <path class="cls-7"
                  d="M375.9,295.28a2.93,2.93,0,0,1,1.08,1.5v-2h1.27v7.81a3.91,3.91,0,0,1-.45,1.89,3.23,3.23,0,0,1-1.26,1.29,3.77,3.77,0,0,1-1.89.46,4.07,4.07,0,0,1-2.53-.75,3.31,3.31,0,0,1-1.25-2h1.26a2.18,2.18,0,0,0,.85,1.21,2.71,2.71,0,0,0,1.6.44,2.35,2.35,0,0,0,1.71-.67,2.48,2.48,0,0,0,.68-1.85v-2.09a2.92,2.92,0,0,1-1.08,1.5,3.16,3.16,0,0,1-1.9.56,3.48,3.48,0,0,1-1.82-.48,3.3,3.3,0,0,1-1.25-1.37,5.06,5.06,0,0,1,0-4.19,3.3,3.3,0,0,1,1.25-1.37,3.49,3.49,0,0,1,1.82-.48A3.16,3.16,0,0,1,375.9,295.28Zm-3.42,1.32a3.37,3.37,0,0,0,0,4.13,2.46,2.46,0,0,0,1.88.75,2.61,2.61,0,0,0,1.35-.35,2.44,2.44,0,0,0,.93-1,3.12,3.12,0,0,0,.34-1.48,3.17,3.17,0,0,0-.34-1.48,2.39,2.39,0,0,0-.93-1,2.66,2.66,0,0,0-1.35-.34A2.46,2.46,0,0,0,372.48,296.6Z"/>
            <path class="cls-7"
                  d="M325.21,312.08a2.93,2.93,0,0,1,1.08,1.5v-2h1.27v7.69h-1.27v-2a2.93,2.93,0,0,1-1.08,1.5,3.16,3.16,0,0,1-1.9.56,3.48,3.48,0,0,1-1.82-.48,3.3,3.3,0,0,1-1.25-1.37,4.54,4.54,0,0,1-.46-2.09,4.59,4.59,0,0,1,.46-2.1,3.29,3.29,0,0,1,1.25-1.37,3.48,3.48,0,0,1,1.82-.48A3.16,3.16,0,0,1,325.21,312.08Zm-3.42,1.32a3.37,3.37,0,0,0,0,4.13,2.47,2.47,0,0,0,1.88.75,2.61,2.61,0,0,0,1.35-.35,2.44,2.44,0,0,0,.93-1,3.13,3.13,0,0,0,.34-1.48A3.16,3.16,0,0,0,326,314a2.39,2.39,0,0,0-.93-1,2.65,2.65,0,0,0-1.35-.34A2.47,2.47,0,0,0,321.79,313.4Z"/>
            <path class="cls-7"
                  d="M332,311.93a3.28,3.28,0,0,1,1.74-.44v1.39h-.39a2.72,2.72,0,0,0-1.76.55,2.21,2.21,0,0,0-.69,1.83v4h-1.27v-7.69h1.27v1.55A2.83,2.83,0,0,1,332,311.93Z"/>
            <path class="cls-7"
                  d="M340,312.08a2.93,2.93,0,0,1,1.08,1.5v-2h1.27v7.81a3.91,3.91,0,0,1-.45,1.89,3.22,3.22,0,0,1-1.26,1.29,3.75,3.75,0,0,1-1.89.46,4.05,4.05,0,0,1-2.53-.75,3.31,3.31,0,0,1-1.25-2h1.26a2.18,2.18,0,0,0,.85,1.21,2.71,2.71,0,0,0,1.6.44,2.35,2.35,0,0,0,1.71-.66,2.48,2.48,0,0,0,.68-1.86v-2.09a2.93,2.93,0,0,1-1.08,1.5,3.16,3.16,0,0,1-1.9.56,3.48,3.48,0,0,1-1.82-.48,3.3,3.3,0,0,1-1.25-1.37,4.54,4.54,0,0,1-.46-2.09,4.59,4.59,0,0,1,.46-2.1A3.29,3.29,0,0,1,336.3,312a3.48,3.48,0,0,1,1.82-.48A3.16,3.16,0,0,1,340,312.08Zm-3.42,1.32a3.37,3.37,0,0,0,0,4.13,2.47,2.47,0,0,0,1.88.75,2.61,2.61,0,0,0,1.35-.35,2.44,2.44,0,0,0,.93-1,3.13,3.13,0,0,0,.34-1.48,3.16,3.16,0,0,0-.34-1.48,2.39,2.39,0,0,0-.93-1,2.65,2.65,0,0,0-1.35-.34A2.47,2.47,0,0,0,336.6,313.4Z"/>
            <path class="cls-7"
                  d="M351.24,311.61v7.69H350v-1.81a2.59,2.59,0,0,1-1,1.43,3.08,3.08,0,0,1-1.74.5,2.85,2.85,0,0,1-2.16-.86,3.43,3.43,0,0,1-.83-2.47v-4.48h1.27V316a2.48,2.48,0,0,0,.59,1.77,2.09,2.09,0,0,0,1.6.62,2.18,2.18,0,0,0,1.68-.68,2.81,2.81,0,0,0,.63-2v-4.09Z"/>
            <path class="cls-7"
                  d="M364.89,312.35a3.47,3.47,0,0,1,.82,2.49v4.47h-1.27v-4.35a2.48,2.48,0,0,0-.55-1.74,2,2,0,0,0-1.52-.6,2.09,2.09,0,0,0-1.62.67,2.8,2.8,0,0,0-.61,2v4.07h-1.27v-4.35a2.46,2.46,0,0,0-.56-1.74,2,2,0,0,0-1.51-.6,2.1,2.1,0,0,0-1.63.67,2.8,2.8,0,0,0-.61,2v4.07h-1.27v-7.69h1.27v1.75a2.5,2.5,0,0,1,1-1.39,3.13,3.13,0,0,1,3.36,0,2.71,2.71,0,0,1,1,1.46A2.78,2.78,0,0,1,361,312a3,3,0,0,1,1.71-.51A2.85,2.85,0,0,1,364.89,312.35Z"/>
            <path class="cls-7"
                  d="M374.7,315.73h-6.15a2.69,2.69,0,0,0,.75,2,2.44,2.44,0,0,0,1.73.66,2.5,2.5,0,0,0,1.55-.47,1.94,1.94,0,0,0,.76-1.25h1.36a3.21,3.21,0,0,1-1.88,2.41,4.15,4.15,0,0,1-1.74.35,4,4,0,0,1-2-.48,3.37,3.37,0,0,1-1.34-1.37,4.31,4.31,0,0,1-.48-2.09,4.36,4.36,0,0,1,.48-2.1,3.35,3.35,0,0,1,1.34-1.37,4,4,0,0,1,2-.48,3.87,3.87,0,0,1,2,.48,3.27,3.27,0,0,1,1.27,1.27,3.59,3.59,0,0,1,.44,1.76A3.83,3.83,0,0,1,374.7,315.73Zm-1.51-2a2,2,0,0,0-.88-.85,2.67,2.67,0,0,0-1.22-.28,2.52,2.52,0,0,0-1.76.65,2.62,2.62,0,0,0-.77,1.91h4.91A2.62,2.62,0,0,0,373.19,313.69Z"/>
            <path class="cls-7"
                  d="M382.64,312.35a3.45,3.45,0,0,1,.83,2.49v4.47h-1.27v-4.35a2.46,2.46,0,0,0-.59-1.76,2.1,2.1,0,0,0-1.6-.62,2.18,2.18,0,0,0-1.68.68,2.81,2.81,0,0,0-.63,2v4.07h-1.27v-7.69h1.27v1.82a2.62,2.62,0,0,1,1-1.44,3,3,0,0,1,1.73-.5A2.87,2.87,0,0,1,382.64,312.35Z"/>
            <path class="cls-7"
                  d="M389.09,318.18v1.12h-1a2.44,2.44,0,0,1-1.76-.56,2.53,2.53,0,0,1-.58-1.88v-4.14h-1.15v-1.11h1.15V309.7h1.29v1.92h2v1.11h-2v4.17a1.44,1.44,0,0,0,.27,1,1.31,1.31,0,0,0,.95.27Z"/>
            <path class="cls-7"
                  d="M395.15,312.2a2.86,2.86,0,0,1,1,1.83h-1.22a1.77,1.77,0,0,0-.57-1.13,1.85,1.85,0,0,0-1.29-.44,1.6,1.6,0,0,0-1.07.33,1.11,1.11,0,0,0-.38.89.92.92,0,0,0,.26.68,1.65,1.65,0,0,0,.64.39,10.15,10.15,0,0,0,1.06.29,10.37,10.37,0,0,1,1.38.4,2.16,2.16,0,0,1,.9.65,1.83,1.83,0,0,1,.37,1.2,1.89,1.89,0,0,1-.71,1.53,2.85,2.85,0,0,1-1.88.59,3.61,3.61,0,0,1-2.24-.66,2.63,2.63,0,0,1-1-1.83h1.23a1.61,1.61,0,0,0,.61,1.13,2.2,2.2,0,0,0,1.42.43,1.48,1.48,0,0,0,1-.34,1.13,1.13,0,0,0,.37-.88,1,1,0,0,0-.27-.71,1.74,1.74,0,0,0-.66-.41,10,10,0,0,0-1.08-.29,10.52,10.52,0,0,1-1.37-.39,2.08,2.08,0,0,1-.87-.62,1.74,1.74,0,0,1-.36-1.15,1.93,1.93,0,0,1,.71-1.56,3,3,0,0,1,1.95-.6A3.1,3.1,0,0,1,395.15,312.2Z"/>
            <line class="cls-6" x1="65" y1="272.5" x2="363.5" y2="45"/>
            <line class="cls-8" x1="64.5" y1="50.5" x2="357.5" y2="50.5"/>
            <line class="cls-8" x1="357.5" y1="272" x2="357.5" y2="50"/>
            <line class="cls-8" x1="233.5" y1="272" x2="233.5" y2="145"/>
            <line class="cls-8" x1="100.5" y1="272" x2="100.5" y2="245"/>
            <line class="cls-8" x1="64.5" y1="145" x2="233.5" y2="145"/>
            <line class="cls-8" x1="64.5" y1="244" x2="100.5" y2="244"/>
            <line class="cls-6" x1="64.57" y1="1.5" x2="51.5" y2="20"/>
            <line class="cls-6" x1="64.93" y1="1.5" x2="78" y2="20"/>
            <line class="cls-6" x1="406" y1="271.57" x2="387.5" y2="258.5"/>
            <line class="cls-6" x1="406" y1="271.93" x2="387.5" y2="285"/>
        </g>
    </g>
</svg>