<svg id="Layer_1" data-name="Layer 1" xmlns="http://www.w3.org/2000/svg" viewBox="0 0 1805.39 1031.5">
    <defs>
        <style>
            .cls-1,.cls-12,.cls-13,.cls-14,.cls-15,.cls-16,.cls-17,.cls-18,.cls-2,.cls-3,.cls-4,.cls-5,.cls-6,.cls-7,.cls-8,.cls-9{stroke:#000;stroke-linecap:round;stroke-linejoin:round;}.cls-1,.cls-2,.cls-3,.cls-4,.cls-5,.cls-6,.cls-7,.cls-8,.cls-9{stroke-width:10px;}.cls-2{fill:#efca92;}.cls-3{fill:#287760;}.cls-15,.cls-4{fill:none;}.cls-5{fill:#bfbc9b;}.cls-6{fill:#969474;}.cls-7{fill:#ab3fff;}.cls-8{fill:#757575;}.cls-11,.cls-17,.cls-9{fill:#d9d9d9;}.cls-10,.cls-18,.cls-19,.cls-20,.cls-22,.cls-23{fill:#fff;}.cls-12{fill:#d3d313;}.cls-12,.cls-13,.cls-14,.cls-15,.cls-16,.cls-17,.cls-18{stroke-width:8px;}.cls-13{fill:#5e5e5a;}.cls-16{fill:#ad4764;}.cls-19{opacity:0.3;}.cls-19,.cls-20,.cls-22,.cls-23{isolation:isolate;}.cls-20{opacity:0.1;}.cls-21{fill:#282828;}.cls-22{opacity:0.05;}.cls-23{opacity:0.2;}
        </style>
    </defs>
    <title>similiar</title>
    <g id="Layer_2" data-name="Layer 2">
        <g id="Layer_2-2" data-name="Layer 2-2">
            <path class="cls-1"
                  d="M335.89,458c-13.5,14.41-13.19,33.32-13,45,.36,22.33,9.37,59.56,33,65,16.3,3.75,31.8-9.43,36-13,29.23-24.86,41.94-82.17,15-104C388.82,436.35,354,438.62,335.89,458Z"
                  transform="translate(0 0)"/>
            <path class="cls-2"
                  d="M239.89,515c2.59-5.22,4-3.38,27-26,16.76-16.52,19-20.45,29-28,4.68-3.52,29.42-22.14,37-16,5,4.1-3.14,14.63-3,41,.07,13.09.12,22.52,6,32,3.27,5.28,5.31,5.67,15,19,5,6.93,7.56,10.4,9,13,3.61,6.53,4.93,11.13,7,11,1.67-.1,2.56-3.19,4-7,0,0,.67-1.78,9-18,4.66-9.08,10.11-13.77,15-19,3.42-3.66,29.21-31.93,32-68,1.15-14.9-6-23.2-2-26,6.69-4.63,29,13.62,38,21,4.84,4,8,7,15,12,12.09,8.65,15.85,9,19,12,13.35,12.6-.08,56.84-24,88-23.07,30.06-52,42.86-64,48-22.66,9.71-68.27,29.24-112,8C254.72,591.52,227.68,539.61,239.89,515Z"
                  transform="translate(0 0)"/>
            <path class="cls-3"
                  d="M262.89,480c4.89,1.94-3.26,20.56,2,44,4.39,19.56,15.88,32.47,20,37,28.61,31.4,70.86,29.27,75,29,24.45-1.62,41.24-12.65,57-23a158.79,158.79,0,0,0,45-45c9.17-13.49,13-23.68,15-30,2.79-9,4.47-14.37,4-22-.54-8.72-3.49-13.87-1-16,2.31-2,7.11.5,15,4,8.2,3.64,16.75,6.47,25,10,12.73,5.45,23.23,9,38,14,14.6,4.94,17.62,5.43,24,9a91.78,91.78,0,0,1,20,16c33.13,35.86,19,401.43,19,430v89.5h-447c-2.47-6.92-2-11.5-2-11.5.35-4.47,1.62-6.5,3-12a96.91,96.91,0,0,0,2-15c3.36-46.84-7-89-7-89-27.12-110.35-20.1-294.78-18-316,1.21-12.18,5.67-19.92,6-37,.05-2.64,0-7.42,3-12,2.18-3.38,5.85-6.45,16-10a111.79,111.79,0,0,1,21-5c1.09-.18,21.57-3.67,37-13C253.9,494.5,258.44,478.24,262.89,480Z"
                  transform="translate(0 0)"/>
            <path class="cls-4"
                  d="M247.89,503a90.75,90.75,0,0,0,0,18c2.83,28.25,18.32,47.56,24,54,20.3,23,45.71,29.06,58,32,6,1.43,53.18,12,98-15,22.81-13.72,36.09-31.8,42-40a165.46,165.46,0,0,0,19-35c4.72-11.28,8.41-20.34,9-33a75.45,75.45,0,0,0-2-21"
                  transform="translate(0 0)"/>
            <path class="cls-2"
                  d="M359.89,550c1.12,1.4-2.41-9.07-4-12-2.53-4.67-3.17-6.72-6-10a60.63,60.63,0,0,1-7-11c-7-13.61-4.66-28.72-4-33,2.15-14,7.25-16.39,5-20-6.7-10.79-51.91,11.16-64,19-2.34,1.52-6.13,4.25-8,9-2.15,5.46-.64,10.74,0,13,11.17,39.54-6.81-9,10,38,8.69,24.28,13.08,36.49,15,40,5.35,9.78,8.44,12.64,15,26,3.76,7.66,7,15.34,8,15,.82-.27-.86-5.35-1-13a62.11,62.11,0,0,1,2-16c1.35-6,2.73-9.28,10-26,8.44-19.41,10.93-24.68,15-26C352.35,540.9,355.89,545,359.89,550Z"
                  transform="translate(0 0)"/>
            <path class="cls-2"
                  d="M374.89,546c-.11.28.17-9.6,5-17a170.41,170.41,0,0,0,10-17c2.66-5,3.72-9,5-14,2.28-8.91,3.15-17.66,3-32-.26-25.93-3.37-24.93-1-31,6.09-15.58,27-23.2,42-23a29.54,29.54,0,0,1,14,3c2.52,1.31,10.69,6.08,16,22,1.78,5.33,5.28,18.06-1,55-3.56,20.93-7.17,42.17-18,64-5.6,11.28-12,23-12,23-8.13,14.89-9.64,16.3-13,24-6.19,14.18-6.62,22.06-9,22s-3.36-7.84-8-29c-3.81-17.37-1-2.57-10-37,0,0-4-20-13-22C380.92,536.12,376.89,541,374.89,546Z"
                  transform="translate(0 0)"/>
            <path class="cls-3"
                  d="M179.39,523.5c-4.39,1.15-11.71,4.91-23.5,12.5a112.77,112.77,0,0,0-26,23c-9.18,11.27-14.35,22.27-24,50-7.93,22.78-9.87,30.94-16,50-6.58,20.46-16.38,50.57-33,86-6.36,13.55-13,27.51-24,45-11.59,18.38-13.1,16.9-18,27-12.1,24.92-10.21,48.83-9,64,1.45,18.31,2.25,28.28,10,38,11.57,14.5,29.61,17.09,36,18,38.08,5.45,68.89-23.08,73-27,28.83-27.5,35.58-67.65,39-88,.83-4.94,2.14-14.16,5-29,3.54-18.33,6-27.43,9-41,4.59-20.93,7.59-39.87,9-51"
                  transform="translate(0 0)"/>
            <path class="cls-3"
                  d="M19.89,868c-5.24,8.21-15.43,24.16-14,46,1.88,28.73,22.44,46.14,27,50a80.75,80.75,0,0,0,35,17c26.27,6.06,47.84-1.77,65-8,20.46-7.43,34.31-18.29,62-40,12.17-9.54,20.66-17.31,25-30a51.12,51.12,0,0,0,2-25c-5.81-31.5-42.07-44.35-44-45-5.57-1.88-13-2.92-28-5-5.19-.72-18.3-2.54-30-3-17.68-.69-39.95-1.56-63,10"
                  transform="translate(0 0)"/>
            <path class="cls-4"
                  d="M66.89,798a97.83,97.83,0,0,1,28,0c6.77,1,18.56,2.8,31,10,13.09,7.57,18.91,16.48,21,15,1.91-1.35-1.4-9.91-5-16-3.45-5.83-11.34-16.47-29-24"
                  transform="translate(0 0)"/>
            <path class="cls-2"
                  d="M176.89,828c-5.45,1.83-8.62,5.3-12,9-16.9,18.48-13.44,44.09-13,47,.93,6.14,2.24,14.83,9,23,1.09,1.32,13.79,16.17,32,14,9.52-1.13,15.82-6.36,19-9,13.1-10.87,15.57-26,16-29,3.27-22.8-11.92-38.87-14-41C212.05,840.12,194.08,822.22,176.89,828Z"
                  transform="translate(0 0)"/>
            <path class="cls-1"
                  d="M169.89,842c-3.53,9.65-.63,18.25,3,29,2.7,8,5.57,16.52,14,23,2.62,2,11.37,8.75,22,7,15.43-2.54,21.89-20.85,23-24,.32-.9,7.38-22.06-6-40-2.84-3.81-12-16-27-16C185.32,821,173.89,831.07,169.89,842Z"
                  transform="translate(0 0)"/>
            <path class="cls-1"
                  d="M174.89,846c-4.63-3.91-.24-17.22,2-24,1.7-5.16,4.13-9.77,9-19,4.65-8.83,5.46-9.19,8-15,3.52-8.07,3-9.64,6-14,1.52-2.18,5.32-7.62,12-10,4.76-1.7,5.78,0,13-1,9.39-1.31,10.19-4.53,17-5,9.86-.67,17.37,5.47,18,6,5.82,4.91,10.56,13.55,9,22-.59,3.19-2.36,7.92-17,19a185.93,185.93,0,0,1-25,16C188.29,841.5,179.36,849.78,174.89,846Z"
                  transform="translate(0 0)"/>
            <polygon class="cls-5" points="236.89 755 239.89 740 411.89 740 407.89 755 236.89 755"/>
            <polygon class="cls-5" points="401.89 888 411.89 877 411.89 740 406.89 755 401.89 888"/>
            <polygon class="cls-6" points="236.89 755 272.89 888 401.89 888 406.89 755 236.89 755"/>
            <path class="cls-4"
                  d="M243.89,748c.12-2.34.09-8.3-4-13-1.35-1.55-3.78-4.33-7-4-3,.32-5.42,3.26-6,6-1.1,5.19,4.29,9.6,6,11s5.64,4.61,11,4c3.8-.43,8.16-2.73,10-7,1.58-3.68.56-7.11,0-9-.69-2.3-2.06-6.92-6-8-2.34-.64-5.5,0-7,2-2.88,3.87,1.14,11.89,6,16a17.78,17.78,0,0,0,9,4c2.15.28,5.2.69,8-1,4.71-2.83,4.94-9.3,5-11,.13-3.58-.75-10.84-5-12-2.46-.67-5.48.86-7,3-3.82,5.35,1.85,14.21,3,16,2,3.1,4.34,6.79,9,8a13.74,13.74,0,0,0,14-5c4-5.19,2.44-11.28,2-13-1-3.79-4-10.17-8-10-3.64.15-5.84,5.59-6,6-2.39,6.11,1.42,12.09,2,13,2.8,4.4,8.37,8.53,15,8a14.7,14.7,0,0,0,10-5,14.9,14.9,0,0,0,3-12c-.14-.81-1.58-9.19-7-10-3.63-.54-6.68,2.65-7,3-4.28,4.69-3.7,13.72,1,19,4.1,4.61,10,4.9,12,5,2.41.12,7.21.36,11-3,4.93-4.37,4.18-11.33,4-13-.24-2.25-.87-8-5-10-4.76-2.26-12.09,1.52-14,7-2.24,6.43,3.86,12.68,7,15,2.62,1.93,5.41,2.62,11,4,5,1.22,7.44,1.84,10,1,5.39-1.76,7.55-7.64,8-9a15.16,15.16,0,0,0-1-12c-.26-.46-4-7-9-7-6.9.06-13.37,10.33-11,17,1.2,3.38,4.41,5.09,8,7a25.34,25.34,0,0,0,13,3c3.32-.19,7-.39,10-3,4.69-4,5.35-11.56,3-17-.4-.93-3.37-7.83-9-8-5.09-.16-9.18,5.28-10,10a13.14,13.14,0,0,0,2,9c2,3.21,4.64,4.7,7,6a25.29,25.29,0,0,0,10,3c4.26.37,8.35.72,12-2a13.34,13.34,0,0,0,5-12c-.53-4.65-3.5-7.54-5-9-1.9-1.85-4-3.91-7-4-4.79-.14-9.32,4.91-10,10a12.09,12.09,0,0,0,2,8c2.21,3.5,5.46,4.91,8,6a26.61,26.61,0,0,0,10,2c6.44.31,10.09.49,13-2,5.2-4.45,3.18-13.25,3-14-.23-1-2.37-9.24-8-10a8.24,8.24,0,0,0-6,2c-4.35,3.45-5,10.24-3,15,1.17,2.77,3,4.35,5,6,2.33,2,5.83,4.92,11,5a14.81,14.81,0,0,0,9-3,15,15,0,0,0,4.66-6.11,16.26,16.26,0,0,0,1.34-6.89c-.1-3.35-1.4-10.7-6-12s-10.69,4.32-12,10a11.47,11.47,0,0,0,1,8c1.22,2.16,2.88,3.17,6,5,4.44,2.61,6.69,3.94,10,4a14,14,0,0,0,11-5c4.66-5.72,2.41-12.81,2-14-.33-1-2.61-7.65-7-8s-8.63,5.67-9,11c-.4,5.79,3.87,9.93,6,12,1.76,1.71,3.81,3.69,7,4,4.17.4,7.29-2.37,8-3,5.73-5.09,4.23-13.71,4-15-.15-.88-1.49-8.5-5-9-3.28-.47-7.53,5.39-8,11-.55,6.56,4.19,11.23,5,12"
                  transform="translate(0 0)"/>
            <path class="cls-1"
                  d="M238.89,796c9.5.79,13.28,5,22,9,13.43,6.12,27.29,5.08,55,3,0,0,26.78-2,51,0,2.54.21,8.27.77,12,5,4.63,5.27,3.44,13.14,3,16a30.61,30.61,0,0,1-9,17c-10.13,9.74-24.66,9.88-32,10-12.89.21-57.13.93-86,5-30.52,4.3-41.08,12-56,4-.82-.44-16.89-9.29-18-24-1.32-17.49,19.51-30.21,29-36C216.84,800.76,226.59,795,238.89,796Z"
                  transform="translate(0 0)"/>
            <path class="cls-1"
                  d="M199.89,873c.11,6.73,5.92,12.13,9,15,8.91,8.3,19.53,10.52,29,12,25,3.91,30.49.86,68,2,10.62.32,21.78.92,35-4,13.47-5,16.84-11.19,18-14,.4-1,2.07-5.25,1-12-2.41-15.23-15.86-25-20-28-31.14-22.6-81.94-11.48-112,3C218.21,851.67,199.69,860.84,199.89,873Z"
                  transform="translate(0 0)"/>
            <path class="cls-1"
                  d="M356.89,831c8.31-1.22,12.75.48,14,1,5.75,2.39,12.32,8.16,13,16,.6,6.87-3.61,12.06-6,15-8.42,10.37-20.94,12.48-30,14-11.13,1.87-20.27,3.41-25-2-6.36-7.27.22-21.38,1-23C332.25,834.61,353.22,831.54,356.89,831Z"
                  transform="translate(0 0)"/>
            <path class="cls-4"
                  d="M241.89,998a584,584,0,0,0,92-16c43.93-11.35,74.69-19.29,108-42,30.2-20.59,47.35-43,51-40,3.32,2.72-8.18,23.54-20,39a175.91,175.91,0,0,1-59,49c-25,12.67-43.5,14.61-43,18,.61,4.13,28.55,3.85,51,2a378.16,378.16,0,0,0,85-17"
                  transform="translate(0 0)"/>
            <path class="cls-3"
                  d="M562.39,483.5c7.5,1.5,17,4.14,33.5,11.5,10,4.47,20.93,9.33,31,19,15.07,14.47,20,31.81,23,42,10.64,36.77,22.41,73.21,33,110,12.26,42.59,18.39,63.88,28,84,6.39,13.39,12.41,23.7,19,43,9.16,26.84,11.39,47.5,12,54,2.23,23.83,4.22,45.09-8,65-3.5,5.71-9.18,15-20,19-18,6.7-37.25-5.92-45-11-31.47-20.63-43.33-55.14-56-92-4.21-12.25-9.6-28.17-13-50-3.87-24.82-1.76-35.41-6-63-2.33-15.16-4.53-22.13-10-44"
                  transform="translate(0 0)"/>
            <path class="cls-3"
                  d="M558.89,800c8.47-.32,10.18,4.28,22,4,12.84-.3,19-5.92,30-10,19.75-7.35,38.38-3.55,46-2,27.12,5.52,44.37,22.55,51,30a95.78,95.78,0,0,1,22,43c1.41,6.58,13,22,8,40-1.68,6.06-12.11,19.93-24,32-16,16.27-38.35,16.69-58,18a139.39,139.39,0,0,1-62-10c-25.8-10.57-41.28-26.08-50-35-12.64-12.93-17.93-22.81-20-27-3.31-6.69-7.18-14.52-8-24C513.55,831.73,537.38,800.81,558.89,800Z"
                  transform="translate(0 0)"/>
            <path class="cls-2"
                  d="M508.89,858c.09,7,1.19,12.91,5,18,8.56,11.43,25.14,11.08,29,11,17.88-.38,29.69-11.72,33-15s13.38-13.56,15-30c1.29-13.08-3.53-22.94-6-28s-6.37-12.81-15-19c-2.58-1.85-11.93-8.56-22-8C523.8,788.35,508.56,830.66,508.89,858Z"
                  transform="translate(0 0)"/>
            <path class="cls-1"
                  d="M475.89,830c-1.16,14.75,2.68,22,6,26s7.09,5.8,14,9c11.29,5.22,20,9.26,32,9,5.07-.11,20.9-.45,32-12,6.17-6.42,8.08-13.38,11-24,2.57-9.34,4.73-17.2,2-26-2.07-6.68-4.71-6.68-11-17-4.36-7.16-6.58-13.11-11-25-5.85-15.73-8.78-23.59-9-29a23.78,23.78,0,0,0-3-12c-1.85-3.11-4.89-6.24-7-7C518.1,717,479.08,789.46,475.89,830Z"
                  transform="translate(0 0)"/>
            <polygon class="cls-7" points="497.89 614 416.89 778 421.89 803 442.89 792 524.89 628 497.89 614"/>
            <polygon class="cls-8" points="515.89 597 504.63 617.5 519.11 625 529.89 604 515.89 597"/>
            <line class="cls-4" x1="487.2" y1="635.65" x2="514.09" y2="649.6"/>
            <path class="cls-1"
                  d="M419.89,706a31,31,0,0,0-3,12c0,1.72,0,7.84,3,13,6.15,10.63,21.64,11.76,25,12,14.13,1,17.87-5.66,34-4,4.49.46,8.34.86,13,3,11.11,5.11,11.31,13,22,19,1.62.9,13.43,7.49,20,3,8-5.43,3.49-23.82,2-30-2.3-9.5-6-15.86-12-26-6.68-11.36-10-17-16-21-7.76-5.14-15.45-5.52-25-6a91.07,91.07,0,0,0-38,7C434.85,692.1,424.74,696.24,419.89,706Z"
                  transform="translate(0 0)"/>
            <path class="cls-1"
                  d="M431.89,779c-2.5-5-.92-10.43,1-17,1.74-6,5.86-20.06,19-28,18.63-11.25,40.14-.87,44,1,14,6.78,32.24,23.16,29,40-1.75,9.09-9,14.61-11,16-5.32,3.75-11.55,5.34-51-1C441.14,786.5,434.73,784.68,431.89,779Z"
                  transform="translate(0 0)"/>
            <path class="cls-1"
                  d="M434.89,819c-1.9-16.22-2.85-24.33-2-27,4.18-13.16,20.49-21,34-22,1.51-.11,25.63-1.47,35,15,6.58,11.57,1.88,24.87-1,33a45.11,45.11,0,0,1-12,19c-3.57,3.28-9,8.3-17,9-4,.35-8.63-1.44-18-5-12.12-4.61-14.21-7-15-8C436.37,829.82,435.78,826.61,434.89,819Z"
                  transform="translate(0 0)"/>
            <path class="cls-4" d="M636.89,782a81.15,81.15,0,0,1,32,1,84.88,84.88,0,0,1,30,14,87,87,0,0,1,23,25"
                  transform="translate(0 0)"/>
            <path class="cls-4" d="M618.89,778a67.31,67.31,0,0,1,53-37" transform="translate(0 0)"/>
            <path class="cls-4"
                  d="M564.89,655a148.57,148.57,0,0,0,9,27c8.45,19,18.46,30.68,16,33-1.59,1.51-7.24-2-12-5a69.66,69.66,0,0,1-17-15"
                  transform="translate(0 0)"/>
            <path class="cls-1"
                  d="M267.89,131c-.11-3.34,5.13-3.19,19-15,14.43-12.28,14.14-17,24-24,15.69-11.09,33.36-11.07,38-11,19.52.28,33.11,9.08,39,13,19.1,12.73,27,30.13,30,37,3.61,8.26,5.08,17.17,8,35s1.75,20.88,0,22c-5.19,3.31-18.23-8.87-23-13C355.38,133.82,268.33,144.67,267.89,131Z"
                  transform="translate(0 0)"/>
            <path class="cls-9"
                  d="M120.89,250a161.1,161.1,0,0,0-6,57,165,165,0,0,0,12,55c5.13,12.37,8,14.74,17,36,3.62,8.6,6.08,16.74,11,33a89,89,0,0,1,3,18c.28,4.17.19,7.39-1,11-.78,2.36-2.19,6.64-6,9-4.28,2.65-8.76,1.12-9,2-.17.64,1.64,3.45,23,10a353.87,353.87,0,0,0,61,13c23,2.74,34.52,4.12,47,2,19.88-3.37,37.46-12.26,38-11,.33.77-6.69,3.22-13,11a34.14,34.14,0,0,0-6,11c-1.45,4.52-2.29,10.52-1,11s3.33-4.35,7-9c6.93-8.77,15.83-12.45,22-15,8.37-3.46,15.14-4.15,30-5,37.43-2.14,39.54-.37,53-3,12.18-2.38,23.06-4.51,34-13,12.14-9.43,18.6-22.23,21-27,5-10,3.67-12,10-24,4.45-8.43,7.89-14.79,15-21,3.31-2.89,10-8.7,20-11,8.35-1.91,14.65-.4,15-2s-5.18-4.7-11-6c-9.76-2.19-17.38,1.47-18,0-.54-1.27,5.1-4.21,10-8,11.94-9.23,17-21.55,20-29a85.15,85.15,0,0,0,6-28c1.51-22.51-4.67-40.16-6-40-.7.08.28,5-3,8a9.17,9.17,0,0,1-6,2c-12.42.31-28-21-28-21a192,192,0,0,1-21-37c-4.11-9.16-17.37-38.71-40-61-23.84-23.48-51.4-32.32-66-37a191.86,191.86,0,0,0-51-9c-15.51-.61-53.28-1.62-93,20-22.32,12.15-36,26.41-46,37C151.58,193.1,131.3,215.08,120.89,250Z"
                  transform="translate(0 0)"/>
            <path class="cls-10"
                  d="M178.89,190c-11.72,19.06-13.72,36.77-16,57a222.26,222.26,0,0,0,6,79,562.12,562.12,0,0,0,20,61s5.3,13.17,9,39c.93,6.5,1.4,12-1,18-3.87,9.65-12.24,13.19-11,16,1.17,2.65,9.4,1.35,18,0,11.16-1.75,18.14-2.85,25-8,5.55-4.17,7.9-8.64,9-8s-.39,7.39-4,13c-5.15,8-11.62,9.77-11,12,.8,2.85,12,2.48,20,1,7-1.3,16.89-3.13,24-11,3.84-4.24,5.22-8.43,7-8,2,.47,2.93,6.09,2,11-1.8,9.54-10.23,13.49-9,16,1.1,2.24,8.59.64,16-1,13.81-3,20.71-4.57,28-10s9.82-11,12-10c2.52,1.13,1.94,9.65,0,16-2,6.71-5.16,9.54-4,11,.4.51,2,1.74,15-4s13.41-7.85,20-10c5.75-1.87,11.83-1.58,24-1,15.31.73,16.38,2.54,25,2,4.26-.27,14.67-1,25-7,12.61-7.29,18.94-18.8,24-28,4.31-7.83,5.63-12.82,13-25,4.66-7.71,6.76-10.06,9-12,9.17-8,19.21-7.87,19-10-.18-1.78-7.4-3.61-14-2-4.76,1.16-7.41,3.67-8,3-.82-.93,3.61-6.41,8-11,6.16-6.43,9.56-8.28,15-13,4.38-3.8,10.87-9.43,16-18,5.76-9.61,7.18-18.52,8-24,2.12-14.17-.08-26.86-2-27-1.17-.08-1.44,4.56-5,6-2.16.87-4.51.15-7-1a40.05,40.05,0,0,1-14-11c-20.53-27.56-14-14.15-23-30-16.52-29-17-36.22-26-51-13.41-22.09-30-35.08-39-42a173,173,0,0,0-83-34c-13.46-1.66-44-5.07-79,9C226.16,148.53,197.23,160.18,178.89,190Z"
                  transform="translate(0 0)"/>
            <path class="cls-1"
                  d="M176.89,247c.22-1.87,1-6,9-15,8.25-9.29,11.71-9.73,21-19,8-7.95,12-12,13-18,1.46-8.4-2.68-16.91-8-22-3.4-3.25-7.68-5.48-24-8-16.52-2.55-25.61-4-39-3-16.7,1.19-27.94,2-39,9-20.81,13.18-25.44,38.47-27,47-5.81,31.78,8.64,56.74,14,66,0,0,14.09,24.34,40,38,6.13,3.23,12.28,5.46,19,4,8.38-1.82,13.35-8.46,16-12,6.46-8.63,7.63-17.55,9-28,1.14-8.7,2-15,0-23C179,255.21,176.21,252.85,176.89,247Z"
                  transform="translate(0 0)"/>
            <path class="cls-11"
                  d="M349.25,276c-9-5.75-22-.55-30,2.75,0,0-44.59,18.44-63.25,72-1.81,5.19-3.44,11.57-2,19,2.05,10.58,9.16,17.18,12,19.75,12.78,11.55,28.9,11.69,36,11.75,5.52,0,21.38,0,36.25-10.75,4-2.88,12.89-9.29,17.75-20.75,4.53-10.69,3.68-21.34,8-22.25,1.82-.38,3.58,1.24,5.25,2.75,5.7,5.16,4.06,11.24,7.75,13,2.2,1.05,3.8-.63,11.75-4,5.45-2.31,10.78-4.57,17-5.75,9.27-1.75,13.73.19,15.25-2.5,2.15-3.8-5.05-10.64-3-13,1.11-1.27,4-.25,6,.25,8.94,2.28,17.18-1.31,24.5-4.5,5-2.17,14.9-6.49,21-17.5,1-1.82,7.48-13.94,3.25-28.25-3.51-11.86-12.25-18.06-18.5-22.5-25.88-18.37-56-10.76-61.5-9.25C384,258.66,373.7,261.49,370,270c-4,9.11.39,23,1,25,1.53,4.91,3.44,8.32,2.75,8.75s-2.62-1.58-12.75-14C351.46,278.06,351.21,277.25,349.25,276Z"
                  transform="translate(0 0)"/>
            <path class="cls-1"
                  d="M265.89,343c-.69,4.24-1.5,9.31,0,15,4.19,15.88,22.76,22.62,27,24,1.59.52,21.92,6.79,40-5,8.64-5.63,12.82-12.81,17-20,3.88-6.67,10.32-17.73,10-33-.11-5.25-.53-17.25-9-28-2.79-3.54-7.77-9.86-16-12-11.42-3-21.71,4-35,13-6,4.08-15.69,10.76-24,23C272.44,325.08,267.61,332.36,265.89,343Z"
                  transform="translate(0 0)"/>
            <path class="cls-10"
                  d="M320.89,336c-.62-2.88,1.67-5.35,6-10,6.15-6.61,10.9-7.76,12-8,1.91-.42,3.43-.72,5,0,3.84,1.77,4.57,8.07,4,12a15.1,15.1,0,0,1-6,10c-5.47,3.9-11.5,2.43-13,2S321.74,340,320.89,336Z"
                  transform="translate(0 0)"/>
            <path class="cls-1"
                  d="M374.89,278a30.6,30.6,0,0,0,1,16c6.09,20,27.33,28,30,29,5.69,2.06,17.77,6.44,31,1,2-.81,14.66-6.26,20-20a29.25,29.25,0,0,0,2-16c-2.18-12.38-12.69-19.2-17-22-8.44-5.48-16.11-6.42-29-8-11.91-1.46-17.86-2.19-24,1C378,264.65,375.16,276.78,374.89,278Z"
                  transform="translate(0 0)"/>
            <path class="cls-10"
                  d="M402.89,298c-.79-3.06.77-5.82,2-8a17.65,17.65,0,0,1,10-8c2.3-.68,5.31-1.56,8,0,3.29,1.92,3.79,6.18,4,8a13.75,13.75,0,0,1-2,9c-.48.75-3.47,5.24-9,6C410.55,305.73,404.14,302.82,402.89,298Z"
                  transform="translate(0 0)"/>
            <path class="cls-4"
                  d="M413.89,400a61.53,61.53,0,0,0,8,3c4.86,1.45,7.49,2.23,11,2a18.91,18.91,0,0,0,12-5,19.57,19.57,0,0,0,5-9,24.62,24.62,0,0,0,1-8"
                  transform="translate(0 0)"/>
            <path class="cls-4"
                  d="M406.89,376c1.89,5.63,3.16,10.43,4,14,1.88,8,2,11.29,2,13a28.23,28.23,0,0,1-1,9c-2.33,7.59-8.17,11.91-11,14a38.13,38.13,0,0,1-13,6,32.44,32.44,0,0,1-25-3,28.6,28.6,0,0,1-7-5,27.26,27.26,0,0,1-4-5"
                  transform="translate(0 0)"/>
            <path class="cls-4" d="M433.89,422a18.5,18.5,0,0,1,0,12" transform="translate(0 0)"/>
            <rect class="cls-1" x="375.68" y="347.29" width="49.73" height="31" rx="12" ry="12"
                  transform="translate(-104.52 170.55) rotate(-21.33)"/>
            <path class="cls-10"
                  d="M399.9,350.12l4-1.56a8,8,0,0,1,10.36,4.54h0a8,8,0,0,1-4.54,10.36l-4,1.56a8,8,0,0,1-10.36-4.54h0A8,8,0,0,1,399.9,350.12Z"
                  transform="translate(0 0)"/>
            <path class="cls-4" d="M366.39,560.5v25" transform="translate(0 0)"/>
            <path class="cls-11"
                  d="M424.75,425.5c-.28,0,.15,3.76-2.5,6.75A10.9,10.9,0,0,1,416,435.5c-3.92.56-6.35-1.4-7-.5s1.25,3.76,3.5,5.5c2,1.58,6.22,3.7,9.25,2.25C427.63,439.93,425.29,425.54,424.75,425.5Z"
                  transform="translate(0 0)"/>
            <path class="cls-11"
                  d="M340.5,422.75c.28-.06.09,5.23,4,9.5,5.35,5.83,13.65,4.59,13.75,6.5.09,1.69-6.32,5-11,3C339.78,438.48,340,422.85,340.5,422.75Z"
                  transform="translate(0 0)"/>
        </g>
        <g id="Layer_3" data-name="Layer 3">
            <path class="cls-12"
                  d="M1276.89,476c25.81-29.13,50.65-40.49,59-44,106.52-44.77,232.18,52,241,59,148.31,117.34,60,535.5,60,535.5h-347S1177.19,588.53,1276.89,476Z"
                  transform="translate(0 0)"/>
            <path class="cls-13"
                  d="M1606.89,489c8.4-4.24,23.93,4.17,31,8,12.21,6.61,19,15.13,26,24,4.33,5.52,14.15,18.9,23,43,5.54,15.09,7.23,24.91,11,43,0,0,7.24,34.68,18,76,8.95,34.35,13.68,51.46,22,70,6.23,13.88,12.3,24.4,19,36,17.91,31,23.35,33.36,30,50,3.92,9.81,11.76,29.4,8,53-3.62,22.75-19,55.4-46,61-20.7,4.3-39.06-9.2-52-19s-51.59-42.54-67-123c-9.35-48.83,1.16-56.28-1-119C1625,577.38,1586.32,499.39,1606.89,489Z"
                  transform="translate(0 0)"/>
            <path class="cls-13"
                  d="M1559.89,453c3.73-1.46,7.29,3.59,28,10a187,187,0,0,0,20,5,92.11,92.11,0,0,1,20,11c21.84,16.16,32,53,32,53,18.46,66.91,24,119,24,119,6.45,60.63,6.05,75.59,13,146,4.51,45.66,5.46,47.29,8,76,6.19,69.9-3.19,96.71,6,143,.6,3,0,10.5,0,10.5h-113s0-8.57,6-36.5,15.75-54.68,17-85c1-23.18-18-70.77-26-153-7.39-76.12-11.08-114.18-13-127C1568.39,534.72,1546.32,458.3,1559.89,453Z"
                  transform="translate(0 0)"/>
            <path class="cls-13"
                  d="M1499.89,408c2.16-2.21,9.36,4.12,29,12,8.16,3.27,7.75,2.52,25,9,9.25,3.48,14.76,5.72,20,8,8.26,3.59,12.38,5.39,15,7,7.47,4.61,9.42,9.7,20,29,13.62,24.85,20.44,37.28,23,40,4.25,4.51,9.31,8.86,9,15-.18,3.56-2.13,7-9,13-16.84,14.69-30.67,16.26-31,23-.1,2.06,1.14,3,7,9,16.34,16.67,12.29,14.92,24,26,10.07,9.53,12.73,10.51,15,16,3.18,7.7,1.79,15.08,1,19-7.79,38.59-11.68,57.88-13,62-1.22,3.81-6.15,20.87-16,55-25.33,87.74-22.37,103.87-19,114,2,6,5.67,14.48,13,36,5.72,16.8,8.61,25.35,10,33,3.06,16.9,1,29.63-2,48-3.19,19.61-7.61,34.57-11.39,44.5.39-.29-15.61-.13-16.21,0,8-24,11.1-47,14.6-69.5,3-19.43,2.58-25.67,2-30-2.3-17.12-9.8-26.45-16-38-9-16.79-11.34-36.19-16-75a442.19,442.19,0,0,1-3-66c.51-16.31,1.55-19,2-35,.29-10.23.45-30.11-3-62-2-18.8-12.72-117.5-40-173-7.69-15.65-14.07-32-23-47C1504,419.48,1497.58,410.37,1499.89,408Z"
                  transform="translate(0 0)"/>
            <path class="cls-13"
                  d="M1671.89,831a71.6,71.6,0,0,1,13-9,65.83,65.83,0,0,1,30-7c35.92-.61,62.56,27.44,64,29,6,6.49,19.23,21.23,22,44,2.32,19.07-4,33.34-10,47-6.45,14.62-15.31,34.71-36,44-9,4-16.69,4.47-26,5-9.54.54-27.83,1.35-47-9a76.64,76.64,0,0,1-23-19c-14.09-17.45-16.17-36.41-17-45C1638.33,874.07,1657.48,843.76,1671.89,831Z"
                  transform="translate(0 0)"/>
            <path class="cls-12"
                  d="M1650.89,844c10-5.8,20.95-3.48,23-3,27.38,6.36,41.49,47.31,39,77a81.57,81.57,0,0,1-16,39c-3.18,4.09-6.56,7-11,8-5.36,1.17-10-1-12-2-7.74-3.69-33.13-21.49-39-57C1634,900.89,1627.41,857.56,1650.89,844Z"
                  transform="translate(0 0)"/>
            <path class="cls-14"
                  d="M1625.89,881c-1.93,2.89-7.07,10.38-8,21a35.86,35.86,0,0,0,2,16c4.92,13,16.71,18.87,21,21,5.06,2.51,21,10.42,36,3,12.39-6.13,16.67-19,19-26,3.88-11.65,2.78-21.58,2-28-.42-3.43-1.85-13.27-10-30-11.14-22.86-17.5-35.9-26-36C1649.53,821.86,1647.08,849.31,1625.89,881Z"
                  transform="translate(0 0)"/>
            <path class="cls-14"
                  d="M1627.89,898c-2.6,3.45-7.37,10.19-16,13a29.41,29.41,0,0,1-17,0c-11-3.06-16.94-11.13-19-14-1.66-2.32-9.73-13.59-7-28,3-15.72,16.57-23.47,21-26,14.42-8.23,28.81-6.17,37-5,2.75.39,36.93,5.57,39,20C1667.47,869,1648.32,870.84,1627.89,898Z"
                  transform="translate(0 0)"/>
            <path class="cls-14"
                  d="M1670.89,858c4.89-5.73.51-8.84,6-36,1.91-9.45,3.47-14.2,1-20-2.87-6.73-9.09-10-15-13a69,69,0,0,0-32-7,81.15,81.15,0,0,0-39,11c-7.16,4-11.71,7.89-20,15-6.67,5.72-8.56,8.16-10,11-.92,1.81-4.69,9.81-2,19,.44,1.49,2.29,7.29,9,13,10.28,8.75,23.36,10,56,11C1662.69,863.18,1667.3,862.21,1670.89,858Z"
                  transform="translate(0 0)"/>
            <path class="cls-14"
                  d="M1663.89,810c3.27-5.44.21-8.83,3-26,1.7-10.48,3.37-12.49,2-17-1.44-4.76-4.77-7.38-17-15-27-16.8-32.72-17.69-36-18a50.64,50.64,0,0,0-19,2c-13.07,4-20.66,12.07-29,21-9,9.63-11.23,15.64-12,18-1.18,3.59-3.18,9.68-1,16,2.27,6.59,8,10.25,13,13,34.42,18.91,67,16,67,16C1648,818.83,1659.19,817.84,1663.89,810Z"
                  transform="translate(0 0)"/>
            <path class="cls-15"
                  d="M1704.89,812a59.47,59.47,0,0,1,23-10c9.45-1.83,18.87-1.12,19,0,.07.61-5,2.08-15,5-2.87.83-5.27,1.52-7,2"
                  transform="translate(0 0)"/>
            <path class="cls-15" d="M1775.89,833a46.06,46.06,0,0,0-14-14,47.4,47.4,0,0,0-29-7"
                  transform="translate(0 0)"/>
            <path class="cls-13"
                  d="M1150.89,527c.43-2.58,3-9.72,8-24,1.26-3.55,3.13-8.65,8-12a19.06,19.06,0,0,1,8-3c8.93-1.57,17.26-5.6,26-8,7.48-2.06,15.65-5,32-11,37.12-13.54,36.35-16.16,42-16,27.69.79,48,63.71,58,98,28.3,97.42,34,174,34,174,11.14,149.79,7,170,4,255-.43,12.13,7.54,33.55,2,46.5h-235c1-17,2.74-43.93,13-74.5C1200.74,803.45,1144.77,563.94,1150.89,527Z"
                  transform="translate(0 0)"/>
            <path class="cls-13"
                  d="M1182.89,511c-1.1-3.5-3.52-10.83-10-14-8.55-4.18-19,1.41-22,3-12.87,6.87-18.77,18.67-24,29-28.33,56-27.49,49.85-36,71-9.83,24.43-14,40.14-15,44-3.69,14.19-4.42,21.1-7,35-6.92,37.24-16.13,65.16-23,86-8.08,24.49-12.11,36.74-19,48-9.13,14.92-14.73,18-20,32-6.19,16.49-5.51,31.06-5,42a138.72,138.72,0,0,0,9,42c5.56,14.63,8.66,22.79,17,29,13.22,9.85,29.87,7.57,34,7,27.42-3.76,44.45-28,71-67,21.77-32,34.34-59.2,42-76,9.05-19.85,16.34-35.84,23-59a329.13,329.13,0,0,0,13-96c-.24-13.3-.92-3.69-6-56C1204.89,611,1200.66,567.41,1182.89,511Z"
                  transform="translate(0 0)"/>
            <path class="cls-13"
                  d="M1104.89,822a98.24,98.24,0,0,1,33-1c9,1.33,13.3,3.34,45,17,30.41,13.1,32.63,13.89,37,15,6,1.53,7.26,1.42,37,7,12.09,2.27,18.18,3.42,20,4,4.75,1.52,23.25,7.44,36,25,1.72,2.37,20.78,29.54,9,59-2,4.88-7.75,17.64-21,26-11.66,7.36-22.5,7.18-38,8-29.57,1.56-15.85,3.58-61,7-26.06,2-47.37,2-90,2-12,0-24.89-.09-41-5-8.72-2.66-19.15-5.71-30-14-4.41-3.37-27.92-22.14-28-50"
                  transform="translate(0 0)"/>
            <path class="cls-12"
                  d="M1263.89,868c-4.66,5.78-5.77,11.85-8,24-2.09,11.39-3.45,18.77-1,28,4.18,15.77,16.17,24.49,21,28,6.9,5,13.44,9.77,22,9,11.35-1,18.47-11,22-16,11.61-16.34,10.18-35.24,9-43-1.45-9.5-5.16-33.8-25-41C1289.69,851.85,1272.46,857.36,1263.89,868Z"
                  transform="translate(0 0)"/>
            <path class="cls-14"
                  d="M1277.89,916c3.94,6.84,6.85,11.74,13,15,8.24,4.36,16.68,2.8,21,2,16.48-3,26.8-14.89,33-22a85.27,85.27,0,0,0,14-22c3.56-8.4,8.57-24.48,0-70-6.47-34.36-10.63-56.48-21-58-7.47-1.1-14.92,9-29,28-9.49,12.82-15.32,24-20,33a332.75,332.75,0,0,0-14,31c-5,12.76-7.54,19.14-8,24C1265.27,894.09,1273,907.53,1277.89,916Z"
                  transform="translate(0 0)"/>
            <path class="cls-15"
                  d="M1230.89,920c-7.74.6-18.75,1.37-32,2-21.33,1-34.89,1.66-53,1-28-1-22.35-3.52-46-4-19.37-.39-36.19,1-39-6-1.25-3.14,1.24-5.59,0-14-.53-3.62-1-6.94-3-10-5.51-8.52-17.93-7.81-18-11s11.44-3.83,12-8c.73-5.43-18.13-9.41-18-17,0-2.48,2.7-5,8-10,5.72-5.41,8.2-5.78,9-9,1.14-4.57-3.11-6.84-2-11,1.17-4.36,6.68-5,11-8,8.71-6,9.37-19,10-26,1.33-14.65,7.55-37.1,20-82,8.58-31,11.4-26.79,21-62,3.37-12.34,7.32-28.6,13-52,3.09-12.73,6.72-25.32,10-38,4.48-17.31,6.51-25.59,13-35a68.08,68.08,0,0,1,17-17"
                  transform="translate(0 0)"/>
            <path class="cls-15"
                  d="M1059.89,791a85.3,85.3,0,0,1,30-1c15.51,2.27,26.52,8.35,33,12a109.44,109.44,0,0,1,16,11"
                  transform="translate(0 0)"/>
            <path class="cls-15"
                  d="M1017.89,862c18.72-27.82,37.26-34.94,44-37,6.5-2,19-4.44,30-6,7.81-1.1,14.37-1.68,19-2"
                  transform="translate(0 0)"/>
            <path class="cls-15"
                  d="M1056.89,924a80.22,80.22,0,0,1,4-22c8.42-25.34,27.15-38.73,32-42,21.14-14.25,43.17-11.15,43-14-.15-2.56-17.64-4.4-34-3-7.58.65-16.89,1.51-28,6a83.9,83.9,0,0,0-31,22"
                  transform="translate(0 0)"/>
            <path class="cls-13"
                  d="M1205.89,462c2.6-6.58,15.83-3.17,37-9,10.15-2.8,18.17-5,25-12,8.39-8.58,6.78-16,12-18,12.62-4.91,37.78,32.18,39,34,22.6,33.76,30.18,66.37,33,79,20.23,90.75,26,155,26,155,2.78,31,3.85,58.65,6,114,5.48,141.4-2.78,106.87,2,144,4.58,35.57,11.72,64.28-4,77.5h-34c1-5,3.82-8.45,8-17.5s6.05-16.4,10-80c2.13-34.28,3.19-51.43,3-54-3.54-47.14-23.62-84.11-33-101-4.87-8.77-9.54-16-14-23-21.27-33.17-25.19-31.77-38-54-11.56-20.06-15.7-26.71-24-40-4.22-6.76-7.61-11.9-14-15-3.67-1.78-6.42-2-7-4-.89-3.11,4.54-6.25,13-14,7-6.45,4.52-5.42,16-17,10.14-10.23,13.51-12.46,13-16-.55-3.78-5-5.6-12-9-24.45-11.91-20.49-14.42-34-19-17.09-5.8-28.51-3.5-30-9-.75-2.76,1.77-4.67,5-10,4.55-7.51,5.7-14.67,8-29,2.86-17.8,4.29-26.7,0-32-3-3.74-7.05-4.82-10-11C1206.49,469,1204.64,465.17,1205.89,462Z"
                  transform="translate(0 0)"/>
            <path class="cls-14"
                  d="M1291.89,826c-3.9-9.34,6.08-12.94,16-47,6.27-21.54,5.58-31.45,15-38,4.32-3,5-1.32,27-5,22.52-3.77,27.74-6.53,36-3,5.89,2.52,9.32,6.52,14,12a60.78,60.78,0,0,1,13,26c1,4.65,2,9.18,1,15-1.27,7.11-4.86,12.09-8,16-11.26,14-20,24.84-34,32C1342.9,848.78,1299.31,843.74,1291.89,826Z"
                  transform="translate(0 0)"/>
            <path class="cls-14"
                  d="M1319.89,817c2.9-21.1,24.53-32.24,40-34,16-1.83,28.69,6.06,35,10,5.4,3.37,11.45,7.26,15,15,3.72,8.11,2.54,15.76,2,19-2,11.88-9.32,19.34-12,22-11.09,11-32,19.49-52,11C1332.66,853.53,1317.16,836.86,1319.89,817Z"
                  transform="translate(0 0)"/>
            <path class="cls-14"
                  d="M1333.89,869c-2.51-8.81,9.66-19.62,16-24,10.29-7.11,28.26-13.24,43-5,7.82,4.37,11.73,11.1,14,15s8.08,14.25,6,28a41.26,41.26,0,0,1-11,22c-5,5.52-8.8,6.68-10,7a19.31,19.31,0,0,1-12-1c-12.66-4.88-11-16.87-24-28C1344.62,873.36,1335.87,876,1333.89,869Z"
                  transform="translate(0 0)"/>
            <path class="cls-16"
                  d="M1297.89,358a81.57,81.57,0,0,0-23,43c-1.17,6.47-4.53,25,5,43,1.87,3.53,7.66,13.51,32,28,32.88,19.58,60.72,24.25,101,31,6.62,1.11,16.62,2.63,29,0,5-1.06,18.3-4,29-14,16.93-15.77,17-39.41,17-48,.08-38.72-27.65-66.07-34-72C1410.71,328.68,1333.35,323.73,1297.89,358Z"
                  transform="translate(0 0)"/>
            <path class="cls-15"
                  d="M1315.89,427a175.54,175.54,0,0,0,34,27c15,9.11,27.06,13.35,46,20,1.66.58,41.53,14.5,43,11,.66-1.57-7.09-5-22-16-8.11-6-18.62-13.77-29-25a148.41,148.41,0,0,1-18-24"
                  transform="translate(0 0)"/>
            <path class="cls-16"
                  d="M1434.89,513c-4,6.49-3,12.29-3,22,0,13.38-1.81,7.58-7,47-6.22,47.27-1.63,40.7-4,48-.43,1.33-1.85,5.43,0,9,1.46,2.82,4.28,4,10,6,11,3.79,19.12,5.79,20,6,14.82,3.58,15.78,3.58,17,3,6.77-3.22,6.29-16.89,6-29-1.35-56.57,2.72-24.4-2-86-2.11-27.55-3-35-9-38C1454.68,497,1440.79,503.39,1434.89,513Z"
                  transform="translate(0 0)"/>
            <path class="cls-16"
                  d="M1453.89,509c-.67,6.86-.22,7.51,0,28,.43,39.51-1.21,40.89,0,63,1.5,27.37,3.94,24,4,42,0,.39,1.33,9.93,4,29,.67,4.8,1.28,8.78,4,10,3.52,1.58,6.75-3.14,16-8,8.11-4.26,15.47-5.8,26-8,8-1.67,9.91.12,12-2,2.91-3,2.27-8.15-2-27-2.25-9.93-3.38-14.89-4-17-3.72-12.59-6.82-29.06-13-62-6.39-34-7.36-46.29-15-70-8.26-25.62-12.19-27-14-27C1463.77,460,1456,487.53,1453.89,509Z"
                  transform="translate(0 0)"/>
            <path class="cls-16"
                  d="M1485.89,374c-14.13,1.14-14.83,23-45,63-6,8-11.66,16.26-18,24-10.61,13-16,17.64-19,28a43.82,43.82,0,0,0-1,20c.93,5.64,2.78,16.8,10,19,4.21,1.28,8.85-3.4,10-2,.84,1-1.67,3.13-1,6,.62,2.64,3.59,4.46,6,5,4.46,1,8.62-2,10-3,12.31-8.85,25.93-15.82,38-25,22.17-16.87,24.55-11.47,38-25,5-5,17.69-17.8,18-31,.09-3.84-.87-7.83,0-16,.54-5.1,1.52-9.2,0-10-1.78-.94-5.71,3.31-6,3s4.81-4,7-10a20.53,20.53,0,0,0,1-8c-.78-7.84-8.82-13-18-19C1487.17,374.27,1487.72,373.86,1485.89,374Z"
                  transform="translate(0 0)"/>
            <path class="cls-14"
                  d="M1418.89,61c.43-8.47,12.62-15.31,37-29,20.46-11.49,31.23-17.54,46-16,19,2,31.54,15.18,38,22,17.32,18.27,20.73,39.38,22,48,1,6.76,2.76,19.72-2,35-1.69,5.44-8.24,26.44-20,28-9.75,1.29-18.15-11.44-25-20C1475.42,79.7,1417.82,81.88,1418.89,61Z"
                  transform="translate(0 0)"/>
            <path class="cls-17"
                  d="M1157.89,337c.94-1.93,5.51.58,14-1,13.57-2.52,22.21-12.71,25-16a56,56,0,0,0,11-22c4.09-15.74,1-29.17,0-34,0,0-6.19-29.48-1-76,4.87-43.68,35.16-74.13,41-80,31.21-31.38,68.11-38.06,112-46,31-5.62,61.65-10.8,99,0,14.92,4.31,43.68,13,67,39,14.69,16.36,20.52,32.12,29,55,10.14,27.38,20.06,54.14,19,86a105.71,105.71,0,0,0,5,38c3.82,11.47,8.34,17.65,13,22,3.82,3.57,9.57,8.93,18,10,5.42.69,9-.77,10,1,1.79,3.1-7.07,11.27-9,13-4.15,3.71-12.32,11-25,13-9.55,1.49-16.43-.85-17,1-.52,1.69,5.32,3.28,12,10s9.19,13.36,11,18c1.58,4,3.48,8.9,2,10-1.89,1.41-6.29-5.66-16-9-4.43-1.52-10.29-1.35-22-1-11.91.36-12.85,1.36-13,2-.47,2,5.75,3.59,12,9,9.93,8.59,14.46,22,12,24-1.48,1.23-4.69-2.35-12-5-2-.73-9-3.08-22-2-18.16,1.5-35.28,8.6-45,12-23.81,8.33-44.2,8.78-54,9-22.1.49-22.8-4.15-73-9a183.42,183.42,0,0,0-35,0c-26.82,2.55-33.93,9.25-37,14-2.62,4.06-3.23,8.17-4,8-1.32-.3-2.1-13.14,4-24,6.47-11.52,17.07-14.35,16-18s-12.45-3.28-21-3c-16.8.56-29.46,1-42,9-10.78,6.89-15,15.23-17,14-2.23-1.35.41-12.72,7-22,9.85-13.87,24.8-17.81,24-20-.62-1.7-9.52.91-20,2-3.35.35-23.86,2.3-44-5C1172,355.8,1156,340.87,1157.89,337Z"
                  transform="translate(0 0)"/>
            <path class="cls-10"
                  d="M1264.89,119c-16.69,21.08-22.91,44.74-25,53a176.94,176.94,0,0,0-5,45,345.86,345.86,0,0,0,3,43c1.53,10.39,2.79,14.81,2,23a56.39,56.39,0,0,1-10,28c-7.73,10.78-17.67,15.86-24,19-14.67,7.28-26,7.15-26,10,0,2.54,9,4.4,17,6,15.54,3.12,26.71,5.37,42,4,19.79-1.77,30.23-8.13,33-4,2.44,3.64-3.46,11.86-5,14-6.85,9.54-15.63,12.25-15,14s8.75-.28,21-2c11-1.54,21.31-2.94,33-2,10.48.84,24.75,3.79,25,8,.14,2.24-3.83,3-11,9-4.74,4-12.13,11.21-11,13,1.33,2.11,13.29-5.23,32-11,7.86-2.42,22.74-6.91,40-7,14.91-.08,15.39,3.2,44,8,21.55,3.62,32.32,5.42,45,4,18.39-2.07,37-8,37-8,10.56-3.37,18.39-6.87,28-4,7.48,2.24,11.95,7.11,13,6s-2.92-9-10-14c-6.83-4.79-12.36-4.08-13-7-.73-3.33,5.53-8.37,12-11,18.36-7.46,36.44,5.34,39,1,1.72-2.92-5-11.21-12-16s-13.06-5-13-7c.1-3.23,15.82-5.42,20-6,8.52-1.18,10.47-.54,18-2,1.55-.3,16.15-3.19,16-6-.1-1.86-6.55-1.53-14-5-9.6-4.48-14.7-12.42-17-16-8.55-13.31-7.35-28.42-7-36,1.36-29.76-5.32-54.38-12-79-4.1-15.1-11.54-41.42-33-67a153.37,153.37,0,0,0-46-37c-59.26-30.88-120.82-10.9-139-5C1316.07,81.76,1286.88,91.23,1264.89,119Z"
                  transform="translate(0 0)"/>
            <path class="cls-18"
                  d="M1402.89,26c3.64-4.74,14.76-2.16,37,3,25.81,6,33.39,13.25,36,16,3.24,3.41,8.94,9.59,10,19,1.44,12.83-6.78,22.41-9,25-6.6,7.69-14.36,10.39-19,12-6.1,2.12-15.67,5.45-22,1-4.71-3.31-5.58-9.48-6-12C1424.68,58.81,1395.46,35.69,1402.89,26Z"
                  transform="translate(0 0)"/>
            <path class="cls-18"
                  d="M1297.89,46c14.5-8.32,21.15-7.09,38-13,20.84-7.31,19.45-12.27,43-21,13.36-4.95,21.89-8.11,34-8,7.06.06,24.41.22,39,13,2.8,2.45,16.56,14.51,17,33,.3,12.54-5.69,21.8-11,30a73.2,73.2,0,0,1-18,19c-2.31,1.79-15.54,12-19,9-1.87-1.62.79-5.64,1-12,.38-11.52-7.63-20.47-9-22-14.39-16.09-47.09-9.3-63-6s-17.36,6.41-30,7c-17.42.81-38.84-4-40-12C1279,56.85,1290.2,50.42,1297.89,46Z"
                  transform="translate(0 0)"/>
            <path class="cls-15"
                  d="M1311.89,53c9.26-2.16,21.55-5.15,36-9,15.65-4.16,20.08-5.67,29-7,15.82-2.36,26.36-3.92,38,1,3,1.29,18.27,7.73,23,23,3,9.73.36,18.51-1,23a48.49,48.49,0,0,1-11,19"
                  transform="translate(0 0)"/>
            <path class="cls-14"
                  d="M1195.89,106a109.48,109.48,0,0,0,7,25c4,9.53,10.82,25.6,27,35,4.94,2.87,12.36,7.18,22,6,12.11-1.49,19.59-10.65,22-14,5.58-7.77,4.19-12.64,8-28,4.39-17.68,6.58-26.53,13-33,13.8-13.93,33.1-4.78,41-17,5.93-9.18.32-22.5-2-28-13.62-32.32-56-39.26-61-40-9.59-1.43-26-3.65-44,5-3.24,1.56-22.53,11.2-32,33C1189,68.09,1192.09,85,1195.89,106Z"
                  transform="translate(0 0)"/>
            <path class="cls-11"
                  d="M1325.33,243c2.23,9.13,8.87,14.48,11.67,16.67,8.4,6.57,17.16,7.54,28.67,8.67,11.07,1.08,25.24,2.46,42-4,9.62-3.71,20.42-10.14,26-16.67.81-.94,5.31-6.34,10.67-13,1.07-1.33,1.31-2.94,2.67-3.33,3.29-1,9.07,4.82,11,11.33s-1.19,9.69.67,12.67c3.4,5.45,17.55,5.42,27.33-.33,7.34-4.32,8.64-9.75,14.67-10,4-.16,5,2.12,11.33,5,6.72,3,12.26,3.47,23.33,4.33,10.39.81,15.59,1.21,19.33-1,7.36-4.35,9.09-13.6,9.67-16.67,2.48-13.25-4-24.44-7.67-30.67-13-21.87-34.44-29.39-52.33-35.67a32.22,32.22,0,0,0-14.33-2c-2.53.26-9.26,1-15,6-6.66,5.77-8.08,13.8-9,19-2,11.52,1.09,19.07-.67,19.67-1.53.52-4.48-5.07-13-19.33-8.77-14.68-10.57-17-13-19.33-7.86-7.49-17-9.71-21-10.67-35.37-8.56-70,27.75-74,32a78.52,78.52,0,0,0-16.67,27.67C1323.61,235.16,1324.91,241.27,1325.33,243Z"
                  transform="translate(0 0)"/>
            <path class="cls-14"
                  d="M1338.89,218a30.56,30.56,0,0,0,1,18c4,10.19,12.88,14.85,17,17,12.54,6.56,24.7,5.11,34,4,8-1,19.67-2.5,31-11a45.08,45.08,0,0,0,19-40c-.35-5.63-.95-15.26-8-23-7.49-8.22-17.79-9.4-23-10-19.39-2.23-34.53,8-45,15S1342.19,203.27,1338.89,218Z"
                  transform="translate(0 0)"/>
            <path class="cls-10"
                  d="M1391.89,217c1-2,3.55-1,13-3,12.83-2.7,14-3,14-3,2.47-.63,5.3-1.4,8,0a6.34,6.34,0,0,1,3,3c1.78,4.42-4.27,10.32-6,12-2.72,2.65-7.16,7-14,7a18,18,0,0,1-11-4C1395.05,226.08,1390.26,220.22,1391.89,217Z"
                  transform="translate(0 0)"/>
            <path class="cls-14"
                  d="M1478.89,183c-5.24,9.62.35,21.95,4,30,2.65,5.83,6.09,13.21,14,20a51.59,51.59,0,0,0,23,11c5,1,10.88,2.17,18,0,3.07-.94,11.38-3.47,15-11,3.29-6.86.8-13.91-1-19-4.55-12.88-13.86-20.26-20-25,0,0-13.25-10.23-34-14-3.52-.64-7.78-1.11-12,1A16.67,16.67,0,0,0,1478.89,183Z"
                  transform="translate(0 0)"/>
            <path class="cls-10"
                  d="M1494.89,215c1.13-2.82,4.34-3.8,5-4,3.24-1,5.28.32,11,2,9.1,2.68,12.24,1.82,13,4,1,3-4,7.16-5,8a15.69,15.69,0,0,1-11,4c-.46,0-7.16-.52-11-6C1496,221.73,1493.58,218.28,1494.89,215Z"
                  transform="translate(0 0)"/>
            <path class="cls-17"
                  d="M1438.89,235a49.24,49.24,0,0,1,16-9,48.33,48.33,0,0,1,23-2,35,35,0,0,1,12,4,33.76,33.76,0,0,1,11,10"
                  transform="translate(0 0)"/>
            <rect class="cls-14" x="1453.89" y="235" width="50" height="34" rx="12" ry="12"/>
            <path class="cls-10"
                  d="M1467.39,239h4a8.5,8.5,0,0,1,8.5,8.5h0a8.5,8.5,0,0,1-8.5,8.5h-4a8.5,8.5,0,0,1-8.5-8.5h0A8.5,8.5,0,0,1,1467.39,239Z"
                  transform="translate(0 0)"/>
            <path class="cls-15"
                  d="M1478.89,266c-.13,11.49-.19,20.21,0,26a13.31,13.31,0,0,1-1,6c-1.41,3.24-3.92,5-7,7-7.58,5-13.5,8.14-17,10-6.42,3.42-8.22,4.26-11,5a29.24,29.24,0,0,1-10,1,27.42,27.42,0,0,1-8-2,29,29,0,0,1-9-6c-2.31-2.16-4.6-4.34-6-8a17.32,17.32,0,0,1-1-4"
                  transform="translate(0 0)"/>
            <path class="cls-15"
                  d="M1523.89,299a40.79,40.79,0,0,1-3,6c-2.21,3.64-5.33,8.78-11,11a13.12,13.12,0,0,1-6,1,12.88,12.88,0,0,1-4-1c-2.72-1.13-7.93-4.07-15-13a81.35,81.35,0,0,1-5-7"
                  transform="translate(0 0)"/>
            <path class="cls-15" d="M1491.89,321a21,21,0,0,1,5,8,21.6,21.6,0,0,1,1,9,26.33,26.33,0,0,1-4,12"
                  transform="translate(0 0)"/>
            <path class="cls-15"
                  d="M1515.39,430.5a355.38,355.38,0,0,0-49,38c-16.13,14.93-36.26,36.36-34,39,1.87,2.19,18.52-9.14,33-19,20.54-14,36.76-26.73,48-36"
                  transform="translate(0 0)"/>
            <path class="cls-11"
                  d="M1461.67,336c1.47-.64,2.87,3.21,8,4.67a16.26,16.26,0,0,0,10.67-1c5.56-2.55,7.08-7.27,8.67-6.67s1.16,6.26.33,10c-1.18,5.36-2.7,12.24-8.67,14.67-5.36,2.18-11.49-.37-15-3.67C1459.12,347.86,1459.38,337,1461.67,336Z"
                  transform="translate(0 0)"/>
            <path class="cls-11"
                  d="M1398.67,299.33c.47.23-1.11,2.45-.67,6,.61,4.92,4.44,7,3.67,8.33-.88,1.56-7.19,1.19-9-2C1390.09,307.14,1397.72,298.87,1398.67,299.33Z"
                  transform="translate(0 0)"/>
            <path class="cls-11"
                  d="M1532.33,296c-.45.19,1.51,3.14.33,6.33-1.44,3.91-6.26,4.65-6,5.67.31,1.22,7.76,2.25,10-1.33C1539.21,302.59,1533,295.7,1532.33,296Z"
                  transform="translate(0 0)"/>
        </g>
        <g id="Layer_5" data-name="Layer 5">
            <path class="cls-19"
                  d="M294.39,534.5c-1,3.7.43,4.62,6,21,2.61,7.69,5.5,15.28,8,23,1.94,6,2.79,9,4,9,1.78,0,2.1-6.62,5-17,3.39-12.13,5.32-19,11-25s10.62-6.47,11-11c.3-3.51-2.59-4.54-6-11-5-9.42-2.66-14.48-6-16-1-.47-3.65-1.07-20,13C295.8,530.47,294.85,532.72,294.39,534.5Z"
                  transform="translate(0 0)"/>
            <path class="cls-19"
                  d="M393.39,527.5c-.62,4.31,4.2,5.34,10,15,4.71,7.85,6.24,15,9,28,3.18,15,2.71,21.66,5,22,2,.31,4.52-4.62,11-21,6.1-15.42,8.11-21.71,12-32,7.16-19,11-25.89,15-42,1.5-6,4.4-18,2-19-1.8-.76-5,5.24-12,13a125.75,125.75,0,0,1-24,20C404.74,521.92,394.3,521.23,393.39,527.5Z"
                  transform="translate(0 0)"/>
            <path class="cls-20"
                  d="M117.39,653.5a90.1,90.1,0,0,1,18-22c9.74-8.54,14.92-9.1,33-19,15.77-8.63,26.93-14.74,39-25,16.71-14.21,21.2-24.51,29-23,5.77,1.12,7,7.49,14,18,10.08,15.15,14.2,12,32,31,12.49,13.37,15.18,20,33,38,5.91,6,14.12,13.84,17,12,2.07-1.32-.48-6.44,0-17,.37-8.15.61-13.4,4-17,4.25-4.52,9.21-1.94,27-4,14.61-1.69,15.85-4,20-2,7.25,3.41,5.74,11.38,15,27,2.89,4.87,10.88,18.34,16,17,3.21-.84,2.58-6.8,7-26,3.6-15.62,6.3-21.62,8-25a84.4,84.4,0,0,1,9-14c5.12-6.51,9.82-10.43,19-18,23.27-19.2,24.88-20.43,28-24a98.23,98.23,0,0,0,14-22,102.87,102.87,0,0,0,9-31c2.15-18.46-2.58-25.36,2-29s12,1.8,36,11c21.5,8.24,24.08,7,42,15,12.92,5.76,19.38,8.65,26,14,13.38,10.83,19.52,24.48,24,36,20,51.34,11.5,72.14,29,116,3,7.42,8.26,19.5,15,39,6.42,18.58,5.63,19.24,10,30,9.66,23.76,20.58,37.9,18,40-1,.85-3.45-1-7-3a76.41,76.41,0,0,0-39-8c-17,1.13-26.76,10-28,8s7-9.92,16-15c3.87-2.19,13-7.18,25-7,10.57.16,15.26,4.19,17,2,2.58-3.25-4.46-16.34-16-22-9.85-4.83-19.85-2.71-23-2-17.46,4-26.74,18.44-30,16-1.62-1.21.52-4.91,1-13,.24-4.06,0-8.41-2-18-3-14.46-7.1-26.18-10-35-4.11-12.5-1.88-6.89-10-33-11.35-36.48-14.06-42.13-17-42-4.08.18-6.87,11.44-8,16-4,16-.14,27.07-3,28-2.57.83-7.66-7.48-10-12-5.65-10.89-5.3-19-7-19-2.19,0-4.86,13.39-5,26-.08,7.52-.1,16.61,4,27,2.9,7.35,6.72,12.47,6,13-1.33,1-13.49-17.09-18-15-3.15,1.46-1.94,12.47,1,21,4.74,13.74,13.86,20.63,12,23-1.57,2-9.14-1.59-10-2-2.39-1.14-7.8-4.06-19-19-4.28-5.72-6.44-8.62-7-11-1.54-6.53,1.56-10.7,6-22,4.61-11.73,2.1-9.37,8-26,2.48-7,5.17-13.76,7-24,1.07-6,1.08-8.94,0-12-2.9-8.21-11.58-11.49-13-12-10.33-3.71-20,1.44-23,3-6,3.15-9.15,6.92-21,25-15.26,23.28-22.89,34.92-25,40-3.41,8.2-4.8,13.94-11,19-3.43,2.8-8.66,4.57-19,8-16.21,5.38-19.09,4.94-23,9-5.07,5.26-3.07,8.93-8,14-5.53,5.69-13.28,6.45-21,7-19.42,1.38-29.13,2.06-41,1-22.17-2-38.62-1.63-68-1-16.67.36-34.12-4.07-50,1-2.54.81-9,3.06-14,0-3.78-2.32-5.29-6.8-7-17-3.51-20.9-1.87-30-5-31-.71-.23-3.27-.57-15,17-6.2,9.3-10.33,16.65-16,27-14.13,25.82-15.32,29.15-16,34-.59,4.2-.06,10.8,1,24,1.58,19.72,3.56,27.93,1,29s-5.17-5.87-14-13c-13.67-11-29.24-12.47-35-13-12.74-1.17-24,1.36-24,3s9.61,1.33,21,8c4.29,2.51,10.79,7.14,10,9-.68,1.6-6.35.13-20-2-23.09-3.61-28.11-2.72-31-2-10.06,2.5-15,8.14-16,7-1.47-1.68,8.34-14.92,22-25,11.89-8.77,25.49-14.27,30-16,6-2.29,13.12-4.57,13-5-.23-.81-24.91,9-29,3-2.92-4.26,7.61-12.22,17-29C109.87,693.87,100.48,681.24,117.39,653.5Z"
                  transform="translate(0 0)"/>
            <path class="cls-20"
                  d="M26.39,844.5c-2.23-2.22,5.43-13.71,11-20a55.9,55.9,0,0,1,19-14c18.9-8.26,36.67-2.64,45,0,5.39,1.71,14.39,5.21,14,7-.52,2.38-16.78-2.66-35,0C48.34,822.19,29.79,847.87,26.39,844.5Z"
                  transform="translate(0 0)"/>
            <path class="cls-20"
                  d="M25.39,893.5c-4.26-4.58,6.7-21,10-26,5.85-8.79,13.16-19.77,27-26,4.93-2.22,12.62-3.15,28-5,7.33-.88,15.88-1.26,33-2s21.75-.67,23,2c1.59,3.39-4.65,6.47-8,16-4.39,12.47,2.16,18.9-2,25-4,5.83-12.45,3.57-35,4-18.63.35-32.84.62-49,5C35.94,891,28.38,896.72,25.39,893.5Z"
                  transform="translate(0 0)"/>
            <path class="cls-20"
                  d="M595.39,812.5c-1,4,7.41,5.64,11,15,3.69,9.64-2.35,15.24,1,22,2.65,5.35,9,7,27,10,33.44,5.5,34.81,3.51,50,7,20,4.59,28.32,10.49,33,6s1.13-15.58-1-22a71.56,71.56,0,0,0-24-33c-5.09-4-22.32-16.28-45-16-4.34,0-1.35.48-25,4C603.87,808.26,596.28,808.86,595.39,812.5Z"
                  transform="translate(0 0)"/>
            <path class="cls-20"
                  d="M274.39,966.5c-.13-1.57,15.45-2.36,40-9,22.43-6.07,38.84-13.37,56-21,22.19-9.87,33.28-14.81,43-22,25.77-19.08,34.48-40.23,39-38,3.76,1.85,1.46,18.32-6,32-9.57,17.56-24.88,25.46-44,35-14.13,7-41,18.62-79,23C298.25,969.4,274.55,968.43,274.39,966.5Z"
                  transform="translate(0 0)"/>
            <path class="cls-20"
                  d="M432.39,991.5c-.72-2.52,16.89-5.09,36-22a129.81,129.81,0,0,0,25-31c9.7-16.85,11.1-28.29,15-28,4.07.31,8,13.17,7,25-2.14,25.38-26.54,41.12-31,44C460.79,994.73,433.27,994.59,432.39,991.5Z"
                  transform="translate(0 0)"/>
            <path class="cls-21"
                  d="M426.39,706.5c0-1.47.8-4.69,14-11a102.86,102.86,0,0,1,26-9c6-1.21,12.88-2.55,22-2,6.87.42,13.41.81,20,5,4.79,3,12.54,9.94,11,15s-11.37,5.92-24,7c-25.12,2.14-26.48-3.7-42,0-8.82,2.1-15.71,5.73-22,2C431,713.29,426.3,710.4,426.39,706.5Z"
                  transform="translate(0 0)"/>
            <path class="cls-21"
                  d="M442.39,738.5c.38-1.42,1.74-5,12-9,5.94-2.35,12.31-3.85,28-5,19.22-1.4,15.65.42,25-1,8.5-1.29,14.52-3.27,21,0,1.25.63,6.19,3.12,6,6-.22,3.42-7.5,5-32,11-11.94,2.92-24.27,4.32-36,8-8.37,2.63-14.18,5.07-19,2C443.62,748.1,441.24,742.81,442.39,738.5Z"
                  transform="translate(0 0)"/>
            <path class="cls-21"
                  d="M439.39,790.5c-.42-3.13,2.34-6.14,6-9,6.48-5.06,17.43-10.92,43-15,20.43-3.26,15.75.11,34-3,5-.86,9.94-1.89,11,0,1.56,2.76-5.93,10.35-12,15-14.42,11-20.88,5.59-50,16-7.59,2.71-15.58,6.09-24,3C446.16,797,440,794.77,439.39,790.5Z"
                  transform="translate(0 0)"/>
            <path class="cls-21"
                  d="M228.39,768.5c-3.4-3.25-11.33-1.08-16,2-1.05.7-3.73,2.62-8,10-5.06,8.76-4.56,11.69-8,18-4.63,8.5-7.79,7.27-14,16s-11.47,22-8,25c2.85,2.49,9.26-3.76,22-8,10.45-3.48,15.92-2.54,35-3,19.24-.47,47.88-2.26,48-5,.06-1.34-10.63-4.25-32-10-7.77-2.09-12.76-3.36-16-8-2.76-3.94-2.88-8.35-3-16C228.18,776.11,231.43,771.41,228.39,768.5Z"
                  transform="translate(0 0)"/>
            <path class="cls-21"
                  d="M1274.39,865.5c.85-5.29,2.57-12.06,9-25s8-12.89,15-26c6.18-11.59,9.91-18.58,13-29,5.09-17.18,7.64-25.77,8-28,.4-2.48,1-6.5,4-10,2.5-2.88,5.77-4.36,13-6,19.56-4.45,22.43.28,34-4,1.93-.71,5.29-2.12,9-1,3.15,1,6.58,3.72,7,7,.78,6-9,11.35-12,13-11.08,6-24.85,6.88-27,7-4.63.25-8.88,0-13,3-2.82,2-6,5.85-5,8,1.15,2.49,7.17,1.24,24,0,14.79-1.09,19.41-.8,24,0,9,1.58,13.28,4.34,16,7,1.56,1.53,5.93,5.8,5,10-1.07,4.85-8.58,6.83-13,8-13.42,3.55-18.35-1.2-34,2a44.83,44.83,0,0,0-13,5c-3.06,1.76-8.52,4.9-8,7,.6,2.42,8.5,1,22,3,6.1.93,13.3,2.08,21,6,2.42,1.23,17.36,9.09,16,16-.9,4.53-8.4,6.57-10,7-9.68,2.62-14.13-2.8-29-4-7.43-.6-13.25-1.07-19,2s-5.52,6.4-14,20c-11.1,17.82-10.46,10.65-23,29-1.82,2.66-3.88,5.8-7,6-5.26.33-10-7.87-12-13C1274.72,883.73,1272.49,877.39,1274.39,865.5Z"
                  transform="translate(0 0)"/>
            <path class="cls-21"
                  d="M1563.39,768.5c.65-2.92,1.91-3.62,16-16,7.39-6.49,9.14-8.14,13-10,3.5-1.68,8.63-4.07,15-3,2.12.35,7,1.18,10,5,4.21,5.42,2.53,14.35-1,20-4.17,6.68-8.71,5.21-27,15-10.51,5.62-13,8.22-17,7C1566.24,784.64,1561.83,775.54,1563.39,768.5Z"
                  transform="translate(0 0)"/>
            <path class="cls-21"
                  d="M1569.39,828.5c-.16-5.73,2.37-9.84,5-14,4.6-7.26,9.89-11.36,16-16s10.84-8.17,18-10c4.64-1.19,9.22-2.36,13,0,5.46,3.42,6.11,12.28,5,18-1.91,9.81-10,15.23-20,22-7.72,5.2-25.27,17-33,11C1569.62,836.56,1569.44,830.36,1569.39,828.5Z"
                  transform="translate(0 0)"/>
            <path class="cls-21"
                  d="M1581.39,877.5c-3.2-8,3.08-16.43,5-19,5.67-7.62,9.83-6.06,23-16,9.19-6.93,10.75-10.4,15-10,6.16.58,12.63,8.77,12,16-.67,7.69-8.82,7.75-26,23-10.26,9.1-14,15-20,14C1586,884.8,1582.73,880.85,1581.39,877.5Z"
                  transform="translate(0 0)"/>
            <path class="cls-20"
                  d="M1415.39,492.5c.57-4.68,2.28-7.94,5-13,3.07-5.72,5.36-8.26,14-19,11.35-14.11,12-15.4,16-19,4.55-4.07,8.17-7.3,14-10,8.88-4.11,12.39-2.12,28-7,5.38-1.68,7.52-2.72,8-2s-.9,3.58-25,24c-15.14,12.82-20.84,17-31,27-11.42,11.22-14.75,16.27-17,22-4,10.12-2.72,17.71-5,18C1419.63,513.86,1414.09,503.2,1415.39,492.5Z"
                  transform="translate(0 0)"/>
            <path class="cls-20"
                  d="M1435.39,516.5c5.4-6.72,12.39-9.46,16-11,3.34-1.43,9.23-5,21-12,4.54-2.72,11.64-7,20-13,12.71-9.17,17.91-14.94,19-14s-3.22,9.7-10,17c-3.36,3.61-6.23,5.75-30,19,0,0-4,2.22-23,12-8.31,4.27-14.12,7.19-15,6C1432.82,519.73,1434.54,517.56,1435.39,516.5Z"
                  transform="translate(0 0)"/>
            <path class="cls-20"
                  d="M1293.39,439.5c.12,4.8,4.1,8.77,18,17,11.19,6.62,20.29,12,36,18,21.92,8.35,30.65,8,47,14,1,.38,3.79,1.42,4,1,.41-.79-8.56-6.61-17-11-10.75-5.59-13.51-5.15-30-12-10.93-4.54-16.51-6.9-22-11-4.18-3.12-10-7.45-15-15-5.5-8.26-5.36-13.29-9-14C1300.62,425.57,1293.22,432.79,1293.39,439.5Z"
                  transform="translate(0 0)"/>
            <path class="cls-20"
                  d="M1330.39,424.5c2.68,6.1,7.55,9.83,25,19,9.46,5,8.52,4.13,22,11,10.88,5.54,16.56,8.67,17,8,.57-.87-9.42-5.48-18-17-4.51-6-4.71-8.75-12-19-2-2.78-8.42-11.85-10-11-1.82,1,4.92,14,2,16-1,.71-3-.17-13-7-9.51-6.46-12.65-9-14-8S1329.15,421.68,1330.39,424.5Z"
                  transform="translate(0 0)"/>
            <path class="cls-20"
                  d="M1387.39,426.5c-1.09,1.72,7.61,6.3,20,19,2.58,2.64,4.94,5.25,8,5,2.61-.22,3.8-2.35,8-7,7.15-7.9,10.63-9.35,10-11-.74-1.94-5.62-.1-16-1a191.83,191.83,0,0,1-23-4C1389.46,426.36,1387.84,425.79,1387.39,426.5Z"
                  transform="translate(0 0)"/>
            <path class="cls-20"
                  d="M1464.39,525.5c-6.61,6.19-3.24,16.94,0,42,1.85,14.28,2.66,28.67,4,43,1.29,13.75,6.71,27.21,6,41-.08,1.53-.43,6.82,2,8,1.6.78,3.46-.67,6-2,9.21-4.82,19-3.71,19-4a13.34,13.34,0,0,1-3,0c-6.21-1.5-6.48-19.93-7-29-1.85-31.9-11.64-29.74-13-59-1.12-24.15,4.91-39.34-2-43C1472.85,520.63,1467.48,522.61,1464.39,525.5Z"
                  transform="translate(0 0)"/>
            <path class="cls-20"
                  d="M1442.39,544.5c-1.71-.15-5.36,24.77-7,38-3.86,31.14-.65,30.27-4,38-.81,1.86-3.1,6.76-1,10,1.54,2.38,4.12,1.83,10,5,4.85,2.61,5.85,4.47,7,4,2.65-1.08-.24-11.9-2-24-1-7.17-1.36-22.11-2-52C1443.09,549.44,1443.14,544.57,1442.39,544.5Z"
                  transform="translate(0 0)"/>
            <path class="cls-22"
                  d="M1220.39,468.5c-.41,2.72,6.68,3.46,11,10,4.6,7,2.83,15.6,1,24-4.55,20.81-14.72,27.87-11,36,1.11,2.42,2.81,3.53,12,8,16.07,7.82,26.53,12.07,37,17s18.35,9.33,26,17c6.34,6.35,6.92,9.34,7,11,.26,5.24-3.78,9.47-19,22-17.47,14.38-20.74,15.88-21,20-.48,7.63,10.31,9.28,23,23,6.43,6.94,12.62,19.3,25,44,8.09,16.14,11.06,23.55,19,26,2.33.72,7.89.81,19,1,10.73.18,12-.27,13-1,6.3-4.6,1.75-20-1-32-5.32-23.29.83-13.44-6-66-4-31.18-4.61-22.29-10-60-3.14-22-5.07-39.77-16-55a84.16,84.16,0,0,0-14-15c-8.48-6.78-11.56-6-20-12-14.08-10.08-18-21.33-21-20-2.53,1.13-1.69,10.1,1,17,3.26,8.34,8.67,12.23,8,13-1,1.11-13.13-5.74-25-17-8.61-8.17-9.69-11.66-16-14C1232.52,461.85,1220.9,465.13,1220.39,468.5Z"
                  transform="translate(0 0)"/>
            <path class="cls-22"
                  d="M1187.39,495.5c-1.56,3.52,4.09,6.3,8,17s2.06,18.71,4,19c2.53.38,6.26-12.84,8-19,2.66-9.41,3.95-14.17,2-17C1205,489.12,1189.68,490.34,1187.39,495.5Z"
                  transform="translate(0 0)"/>
            <path class="cls-22"
                  d="M1210.39,578.5c-4.92,4.19.93,16.28,6,34,6.89,24.07,7.8,42.66,9,67s2,41.51-3,64c-5.7,25.44-13.37,32.87-10,50,2.12,10.77,7.21,18.25,6,33-.47,5.81-1.7,10,1,13,3.94,4.36,10.57-.17,23,3,9.23,2.35,10.7,6.14,15,5,5.82-1.55,6.45-9.37,12-24,6.6-17.41,9.62-16.66,19-40,4.46-11.09,6.69-16.74,7-22,.63-10.66-3.13-17.74-12-35-24.47-47.61-23.34-47.09-27-51-8.73-9.31-15.62-20.34-25-29-1.79-1.65-5.55-5-6-10-.53-5.86,3.81-10.79,8-15,17.85-18,31.78-21.79,31-27-.47-3.13-5.76-3.55-24-9C1218.27,578.9,1213.57,575.8,1210.39,578.5Z"
                  transform="translate(0 0)"/>
            <path class="cls-22"
                  d="M1166.39,522.5c-5.43-.6-10.69,9.16-16,19-9.31,17.25-12,32.09-14,42,0,0-6.59,33-17,67-8.32,27.11-10.12,24.15-17,49-7.83,28.31-5.42,31.89-13,47-6.93,13.81-14.32,21.52-11,28,2.38,4.64,7.73,3.71,20,8,20.49,7.17,29.82,18.25,32,16,1.9-2-3.49-12-11-19-5.92-5.5-11.48-7.51-11-9,.78-2.42,15.17,4.21,25-2,6-3.77,7-10.25,10-20,5.58-18.29,7-12.18,17-39a390,390,0,0,0,15-51c2.87-12.29,4.66-20,6-31a227.26,227.26,0,0,0,1-43C1181.67,573.81,1178.28,523.81,1166.39,522.5Z"
                  transform="translate(0 0)"/>
            <path class="cls-22"
                  d="M1119.39,563.5h0c-6.81,17.57-13.3,31.48-18,41-10.07,20.38-14.64,26.08-19,41-2.87,9.84-1.48,9.4-6,35-2.89,16.37-5,28-9,43a301.24,301.24,0,0,1-14,42c-3.34,7.88-10.85,24.58-10,25,.6.3,3.76-8.16,10-9,2.81-.38,4.4,1,6,0,3-1.92,1.34-9.28,1-11-2.19-11.18,3.94-21,15-51,.47-1.27,5-14.85,14-42,6-18.2,10.85-33.11,14-43"
                  transform="translate(0 0)"/>
            <path class="cls-22"
                  d="M1053.39,847.5c-1-1.47,5.93-9.18,15-13,6.5-2.73,13-3,19.4-3.23a93.91,93.91,0,0,1,10.6.23c14.61,1,30.07,3.25,30,4-.09.91-22.66-5.65-49,2C1064.2,841.92,1054.44,849.12,1053.39,847.5Z"
                  transform="translate(0 0)"/>
            <path class="cls-22"
                  d="M1024.39,867.5c-4.07,4.67-5.48,10.2-7,18-1.91,9.79-2.86,14.69-2,15,1.61.58,3.44-11.4,14-23,2.44-2.68,5.79-5.83,5-9a5.64,5.64,0,0,0-5-4C1027.68,864.47,1026.15,865.49,1024.39,867.5Z"
                  transform="translate(0 0)"/>
            <path class="cls-22"
                  d="M1062.39,872.5c-1-1,2.23-6.07,5-9,6.36-6.73,16.16-8.58,17-7C1085.78,859.12,1064.54,874.63,1062.39,872.5Z"
                  transform="translate(0 0)"/>
            <path class="cls-22"
                  d="M1074.39,900.5c-1.77-5.89,7-13.34,16-21,6.66-5.66,17.54-14.91,35-20,16.47-4.8,28-2.74,29-7,1.22-5.22-15.23-12-14-15,.91-2.19,10.73-.59,19,2,9.08,2.84,11.71,5.45,21,10a134.38,134.38,0,0,0,35,12c7,1.28,14,2.87,21,4,8.6,1.38,11.73,1.57,13,4,2.2,4.22-4.76,8.39-7,20-1.69,8.79,1.36,11.28-1,15-4.22,6.66-17.33,3.92-34,3-17-.94-9,1.59-52,3-17.75.58-32.09.57-49-1C1078.09,906.87,1075.1,902.87,1074.39,900.5Z"
                  transform="translate(0 0)"/>
            <path class="cls-22"
                  d="M1562.39,447.5c-2.55,1.81-3.62,4.94-4,25-.24,12.3-.35,18.45,0,23,1.54,19.8,7.77,32.35,13,48,3.41,10.18,6.27,28.79,12,66,4.79,31.09,7.18,46.63,7,54-.58,23.56-6.3,53.33,1,56,.77.28,1.13.06,8,1,6.45.88,7,1.19,8,1,5.52-1,7.2-13.63,9-23,3.35-17.4,10.08-34,15-51,4.27-14.77,5.31-17.89,4-23-1.41-5.5-4-7.24-20-23-14.57-14.33-19.83-20.15-24-29-2.53-5.37-4.76-7.86-4-11,1.44-5.93,9.11-5.15,21-14,5.87-4.36,21.29-20,16-15h0s-3.27-15-7-26c-3.25-9.57-8.5-18.38-19-36-7.31-12.27-10.16-15.87-15-19C1582.42,450.88,1569.31,442.6,1562.39,447.5Z"
                  transform="translate(0 0)"/>
            <path class="cls-22"
                  d="M1644.39,541.5c-3,.24-2.44,8.18-11,18-4.79,5.5-7.25,5.62-8,9-1,4.68,2.79,8.45,14,21,13.63,15.25,16.49,19.21,19,24a66.13,66.13,0,0,1,6,17c1,4.21,4.72,22.53-5,59-6.46,24.24-13.48,36.23-7,44,2.81,3.37,5.7,3,12,9,8.66,8.26,9.89,15.34,12,15,4-.64,3.14-26.36,2-48-1.72-32.82-2.58-49.23-6-71-2.73-17.37-5.82-29.91-12-55C1654.67,560.29,1649.13,541.12,1644.39,541.5Z"
                  transform="translate(0 0)"/>
            <path class="cls-22"
                  d="M1684.39,601.5c-1.55.32,8.12,56.23,15,96,2.93,17,3.67,34.35,8,51,3.36,12.9,6.87,20.94,4,32-1.16,4.46-3.36,9.43-1,12,1.28,1.4,3.29,1.4,14,0,12.07-1.58,14.79-2.28,19-1,5.09,1.54,7.52,4.51,8,4,1-1.07-11.39-12.24-21-27-3.21-4.93-8-13.19-14-31-8.47-25.21-10.29-42.72-14-64C1695.55,634.24,1685.6,601.26,1684.39,601.5Z"
                  transform="translate(0 0)"/>
            <path class="cls-22"
                  d="M1687.39,836.5c-.35,6.66,16.08,7.12,28,21,1.87,2.18,9.59,11.17,11,24,1.08,9.79-2.32,14.54,1,18s8.92.32,24-1c17.58-1.54,22.67,1.82,29-3,6.86-5.22,7.84-14.45,8-16,2.28-21.54-24.18-38.85-29-42-15.89-10.39-30.52-11.2-45-12-6.92-.38-15.1-.09-22,5C1689.76,832.45,1687.52,834.1,1687.39,836.5Z"
                  transform="translate(0 0)"/>
            <path class="cls-23"
                  d="M1367.39,537.5c4-4.59,21,1,21,1-3.42-3.92,7.45,7.46,10,12s2.72,7.47,5,8c2.66.62,4.8-2.66,6-2,2.09,1.15-2.06,12.36-3,15-5.76,16.17-.83,18.13-4,64-.86,12.45-1.44,15.37,1,19,6.29,9.37,19,3.29,31,14,8.23,7.37,11.71,18.77,13,23,3,9.92.87,12.22,4,16s8.07,4.65,38,3c21.31-1.17,26.92-2,34-5,7.41-3.12,12.35-5.19,16-10,7.55-9.93,2.73-22.44-4-54-5.92-27.8-3.18-22.75-9-49-7.26-32.71-10.89-49.07-15-55-3.16-4.56-9.77-12.86-7-19,1.49-3.31,4.56-3.45,10-9,5.93-6,6.25-9.91,8-10,6.25-.3,13.4,48.09,16,66,22.1,152.27,11.21,104.68,16,130,2.37,12.49,5,23.92,2,39-2,10-5.07,14.71-11,38a85.92,85.92,0,0,0-3,22c0,5.94.64,7.36,1,13,1.26,19.62-5.33,21.46-3,35,1.41,8.22,5.37,16.46,9,24,2.81,5.84,3,5.24,4,8,4,11.2-.87,17.12,0,29,.26,3.6,1.14,15.47,9,23,9.54,9.14,20.33,3.23,26,11,1.57,2.15,1.85,4.12-3,31-9,50-6.53,24.16-8,35-.59,4.34-1,8.21-4,11-5.9,5.39-16.83,2.12-21,1-24.88-6.67-55.06-2.65-90,2-23.65,3.15-32.8,7.63-41,1-6.89-5.57-8-14.85-10-32-3-25.74,4-32.23-3-47-1.83-3.87-4.65-8.35-3-13,1.8-5.06,7.14-5.39,14-10,7.47-5,15.22-14.12,17-24,1.73-9.61-3.77-11.1-4-26-.15-9.94,2.27-11.35,3-22,.82-11.93-1.91-14.51-4-31-2.78-21.9,1.47-21.84-2-40-3.11-16.29-8.15-24.81-11-29-3.36-4.94-4.55-5.16-8-10-7.61-10.69-10-21.18-12-30-7.64-34.49-9-44-9-44-13-90.84-10.05-92.63-17-105C1370.25,551.68,1364.06,541.33,1367.39,537.5Z"
                  transform="translate(0 0)"/>
        </g>
    </g>
</svg>