<svg xmlns="http://www.w3.org/2000/svg" viewBox="0 0 788.1 933.09">
    <defs>
        <style>
            .cls-1{fill:#445151;}.cls-1,.cls-10,.cls-11,.cls-13,.cls-14,.cls-15,.cls-16,.cls-17,.cls-18,.cls-19,.cls-2,.cls-23,.cls-24,.cls-3,.cls-4,.cls-5,.cls-8,.cls-9{stroke:#000;stroke-width:4px;}.cls-1,.cls-13,.cls-14,.cls-18,.cls-2,.cls-3,.cls-4{stroke-miterlimit:10;}.cls-2{fill:#5f7172;}.cls-3{fill:#9eb6b7;}.cls-4{fill:#738b8e;}.cls-20,.cls-5{fill:#fff;}.cls-10,.cls-11,.cls-15,.cls-16,.cls-17,.cls-19,.cls-22,.cls-23,.cls-24,.cls-5,.cls-8,.cls-9{stroke-linecap:round;stroke-linejoin:round;}.cls-15,.cls-6{fill:#e0d9c7;}.cls-7{fill:#9b968c;}.cls-22,.cls-8{fill:none;}.cls-9{fill:#c0c6cc;}.cls-11{fill:#999fa3;}.cls-12{fill:#d5dce0;}.cls-13{fill:#b7b2a7;}.cls-16,.cls-18{fill:#c4a870;}.cls-17{fill:#9b9176;}.cls-19{fill:#d9d9d9;}.cls-21{fill:#bcbcbc;}.cls-22{stroke:#fff;stroke-width:2px;}.cls-23,.cls-25{fill:#282828;}.cls-24{fill:#161616;}
        </style>
    </defs>
    <title>sitLoser</title>
    <g id="Layer_2" data-name="Layer 2">
        <g id="Слой_1" data-name="Слой 1">
            <polygon class="cls-1" points="717.1 833.53 705.1 839.53 705.1 778.53 717.1 771.53 717.1 833.53"/>
            <rect class="cls-2" x="677.1" y="772.53" width="28" height="67"/>
            <polygon class="cls-1" points="673.6 850.03 661.6 856.03 661.6 795.03 673.6 788.03 673.6 850.03"/>
            <rect class="cls-2" x="633.6" y="789.03" width="28" height="67"/>
            <polygon class="cls-1" points="320.1 833.53 308.1 839.53 308.1 778.53 320.1 771.53 320.1 833.53"/>
            <rect class="cls-2" x="280.1" y="772.53" width="28" height="67"/>
            <polygon class="cls-1" points="276.1 850.03 264.1 856.03 264.1 795.03 276.1 788.03 276.1 850.03"/>
            <rect class="cls-2" x="236.1" y="789.03" width="28" height="67"/>
            <rect class="cls-3" x="175.1" y="735.03" width="611" height="43"/>
            <polygon class="cls-4" points="786.1 778.03 751.1 795.03 751.1 753.03 786.1 735.03 786.1 778.03"/>
            <rect class="cls-4" x="135.1" y="753.03" width="616" height="42"/>
            <path class="cls-5"
                  d="M229.1,254a18.9,18.9,0,0,0-6,3c-1.51,1.21-2.7,3.16-5,7a52.23,52.23,0,0,0-5,10,19.73,19.73,0,0,0-1,4,15.65,15.65,0,0,0,0,5c.8,2.84,6.09,4.2,17,5,13.54,1,20.42,1.42,26-2,2-1.25,6.41-3.93,8-9,2.61-8.31-3.9-17.87-11-22a25.17,25.17,0,0,0-14-3A31.27,31.27,0,0,0,229.1,254Z"/>
            <path class="cls-6"
                  d="M519.1,604c4.34,18.55,2,38,2,38-1.61,13.36-2.68,23.14-3.44,30.49-9.45,6-23.9,20.3-44.06,21-20.7.73-28.54-13.49-52-26-51.92-27.68-112.93-11-120-9-31.63,9.08-54.6,27.26-93,33-13.41,2-22.39,1.55-31-1-19.94-5.9-24.48-19-34-18-15.3,1.67-34,38.92-24,64,3.09,7.78,8.75,13.92,24.31,19.67-2-.34-4-.73-5.81-1.17-20.43-5-26-19.28-49-42-27.66-27.29-37.65-25-50-47-4.69-8.34-12.15-22-8-37,3-10.94,11.1-18.34,14-21s9.16-7.85,21-12c16-5.62,30-4.92,43-4,35.91,2.56,53.86,3.84,64,7,13.12,4.09,46.1,14.38,67,38,3.21,3.62,10,11.94,22,17,3.76,1.59,13.32,5.08,24,4,17.16-1.74,22.78-13.82,42-28,5-3.69,21.07-10.84,53-25,31-13.73,46.57-20.63,52-22,46.05-11.64,68.16-1.48,73,2a37.25,37.25,0,0,1,10,11A31.19,31.19,0,0,1,519.1,604Z"/>
            <path class="cls-7"
                  d="M517.66,672.52c-2.16,20.65-1.95,22.11-4.56,29.51-6.24,17.69-13.81,27.3-18,32a79.68,79.68,0,0,1-12,11,90.27,90.27,0,0,1-21,11c-34.38,12.1-227,1.08-264,3a245.56,245.56,0,0,1-40-1c-3.24-.34-8.88-.93-14.19-1.83-15.56-5.75-21.22-11.89-24.31-19.67-10-25.08,8.7-62.33,24-64,9.52-1,14.06,12.1,34,18,8.61,2.55,17.59,3,31,1,38.4-5.74,61.37-23.92,93-33,7.07-2,68.08-18.68,120,9,23.46,12.51,31.3,26.73,52,26C493.76,692.82,508.21,678.57,517.66,672.52Z"/>
            <path class="cls-8"
                  d="M143.91,756.2c-2-.34-4-.73-5.81-1.17-20.43-5-26-19.28-49-42-27.66-27.29-37.65-25-50-47-4.69-8.34-12.15-22-8-37,3-10.94,11.1-18.34,14-21s9.16-7.85,21-12c16-5.62,30-4.92,43-4,35.91,2.56,53.86,3.84,64,7,13.12,4.09,46.1,14.38,67,38,3.21,3.62,10,11.94,22,17,3.76,1.59,13.32,5.08,24,4,17.16-1.74,22.78-13.82,42-28,5-3.69,21.07-10.84,53-25,31-13.73,46.57-20.63,52-22,46.05-11.64,68.16-1.48,73,2a37.25,37.25,0,0,1,10,11,31.19,31.19,0,0,1,3,8c4.34,18.55,2,38,2,38-1.61,13.36-2.68,23.14-3.44,30.49-2.16,20.65-1.95,22.11-4.56,29.51-6.24,17.69-13.81,27.3-18,32a79.68,79.68,0,0,1-12,11,90.27,90.27,0,0,1-21,11c-34.38,12.1-227,1.08-264,3a245.56,245.56,0,0,1-40-1C154.86,757.69,149.22,757.1,143.91,756.2Z"/>
            <path class="cls-7"
                  d="M429.6,602.53c2.79,7.17,12,4.45,33,15,11.25,5.64,21.47,10.94,27,22,2.85,5.69,3.56,11.14,5,11,1.83-.18,3.79-9.35,2-18-3.35-16.17-18.45-24-17-26,1.11-1.52,11,1.71,18,9,4.12,4.26,5.84,8.43,7,8,1.61-.6-.2-9.27-1-13-2.59-12.12-3.88-18.18-7-23-9.58-14.82-38.17-21.33-55-9C434.19,584,426.6,594.83,429.6,602.53Z"/>
            <path class="cls-9"
                  d="M248.1,262c-20.25,6.15-48.5,25.44-105,64a45.49,45.49,0,0,0-14,14c-10.54,17.18-5.26,37.62-2,53,0,0,6.2,29.28,9,78,3.61,62.84-15.64,87.21,4,112,.49.62-.12-.19,26,23,30.78,27.32,33.57,30.15,37,34,11.59,13,12,16.71,27,33,9.6,10.43,14.4,15.65,20,19,18.91,11.31,39.77,8.11,47,7,16.7-2.56,27.75-9.47,43-19,9.59-6,21.37-13.48,33-27,9.23-10.73,15.47-21.9,20-30,8.89-15.9,6.66-16.16,11-21,12.08-13.47,31.78-14.25,51-15s31.07,3.12,36,5a70.86,70.86,0,0,1,15,8c6.61,4.6,14.88,10.36,16,19,.51,3.94-.69,6.79,0,7,1.15.36,5.81-7.26,7-16a43.78,43.78,0,0,0-1.5-20.5c-3.4-11.63-6.09-19.44-11-25-3.73-4.22-8.5-9.5-8.5-9.5s1-3.3,2-6c2.35-6.18,1.57-11.87,1-16-1.45-10.57-6.51-11.73-9-24a53.22,53.22,0,0,1-1-10c-.56-18.17-7.58-45.61-11-59a424.14,424.14,0,0,0-23-68c-7.22-16.49-13.79-31.48-25-48-8.59-12.66-29.58-43.58-64-61C328.09,237.72,275.23,253.79,248.1,262Z"/>
            <path class="cls-10"
                  d="M216.1,301c-4.92,6.73-6.1,14.91-8,28a107.44,107.44,0,0,0,15,73,102.08,102.08,0,0,0,13,17,104.08,104.08,0,0,0,17,14c10.17,6.79,16.36,10.93,24,10,4.69-.57,7.81-2.79,11-5,26.51-18.38,24.94-13.53,37-24a135.58,135.58,0,0,0,25-28c9.57-14.5,27.38-41.51,19-63-8.27-21.21-37.83-26.21-72-32C273.45,287,231.52,279.93,216.1,301Z"/>
            <path class="cls-11"
                  d="M389.1,472c-7.06-1-9,6-10,14-.89,7.16,16.79-.66,21-6C404.07,475,396.56,473.09,389.1,472Z"/>
            <path class="cls-11"
                  d="M52.1,471c-3.58,1.31-6,4-10,7,0,2.52,3.84,4.59,10,7,17.49,6.85,33.72,13.21,40,6,4-4.62,3-13.72-1-19C82,460,58.24,468.78,52.1,471Z"/>
            <path class="cls-11"
                  d="M479.1,477c-.06-4.21,11.29-15.07,16-8,2,3,4,7,7,15C497.85,488.59,479.19,483.38,479.1,477Z"/>
            <path class="cls-12"
                  d="M467.6,574.53c2.92,4.56,9.51.63,24,6a61.76,61.76,0,0,1,19,11c7.83,6.73,10.45,12.72,12,12,2-.94-.72-11.82-4-20a63.75,63.75,0,0,0-11-19c-6.87-8-15.29-17.86-25-16C471.21,550.71,463.39,568,467.6,574.53Z"/>
            <path class="cls-12"
                  d="M219.6,542.53c9.4,15.09,15.78,21,18,23,5.5,4.91,12.77,11.4,24,14,1.92.44,10.23,2.23,24-1,24.73-5.79,33.91-20,38-17,5.51,4-3.56,35.29-27,53-5.33,4-15.55,11.53-30,12-19.21.62-33-11.62-38-16-36.54-32.32-29.92-97.05-25-98C205.58,512.15,206.92,522.17,219.6,542.53Z"/>
            <path class="cls-10"
                  d="M91.1,419c-10.78,8.1-16.52,32.06-28,80a131.77,131.77,0,0,0-4,36c.56,18,4.8,29,6,32a63.6,63.6,0,0,0,11,19c1.28,1.49,12.69,14.42,28,18,29.83,7,63.43-24.18,72-50a113.43,113.43,0,0,0,5-32,116.28,116.28,0,0,0-1-17c-7.16-57.29-1.87-70.76-13-83C150.88,404.19,112.5,403,91.1,419Z"/>
            <path class="cls-10"
                  d="M421.1,471c-8-1.21-20.54,2.38-30,9a47.31,47.31,0,0,0-7,6c-14.2,14.52-19.16,16-41,37-22.48,21.56-33.71,32.35-45,49-12.68,18.71-18.4,33.67-20,38a178.82,178.82,0,0,0-9,40,98.38,98.38,0,0,0,0,19c.58,6.12,1.72,12.12,5,18a17,17,0,0,0,5,6c3.13,2.24,6.3,2.65,9,3,4.21.55,7.55,1,10-1,1.91-1.54,2-3.51,4-4,1.54-.37,2.72.5,4,1,3.65,1.42,7.57-.41,11-2,6.72-3.12,10.72-11.17,15-20,6.21-12.82,11.54-23.82,9-32-.34-1.1-1.48-4.25,0-6s5.18-1.14,6-1c8.07,1.37,23.2-5.28,36-10,37.81-14,45.13-7.38,57-18,20.73-18.54,16-54.37,14-70C453.66,529.68,446,474.82,421.1,471Z"/>
            <path class="cls-10"
                  d="M390.1,447c-4.81,7-6.27,21.08-9,49-3.53,36.15-1.69,48.75-1,53a127.34,127.34,0,0,0,11,35c6.42,14.05,11.46,24.66,22,28,5.49,1.74,10,.74,18-1a81.37,81.37,0,0,0,32-15,86.9,86.9,0,0,0,25-32c7.35-16,7.61-29.49,8-49,.47-23.77.71-35.66-5-49-2.65-6.2-16.16-37.78-48-42C421.91,421.22,400.73,431.6,390.1,447Z"/>
            <path class="cls-9"
                  d="M387.6,397.53c-1,5.83-2.55,16.39-4.5,37.5-1.22,13.15-1.83,19.73-2,21-.37,2.72-2,14.15-2,20a53.39,53.39,0,0,1,0,7c-.18,1.83-.41,2.74,0,3,1.22.78,6.41-5.33,7-6,8.81-10.12,34.21-16.47,55-17,17.16-.44,36.54-.93,49,11,3.44,3.3,10.16,11.19,12,10,.9-.58.24-3.08,0-4-7.85-29.92-6.36-39.38-19.5-67.5"/>
            <path class="cls-9" d="M178.1,409"/>
            <path class="cls-9"
                  d="M178.1,409c-.35,5.91-1.14,12.14-1,23,.23,18.21,2.69,19.51,3,39,.21,13.11-.85,15.9,1,24,1.46,6.39,1.76,13.79,0,15-3-2-7.3-6.62-9-8-2.88-2.35-10.25-5.56-31-16-19.79-10-39.66-10.64-50-11-25.79-.89-38,1-49,3,5-4,8.11-7.93,14-15,6.6-7.92,10.74-18.61,21-40,9-18.67,7.06-17.07,17-38,8.52-17.94,13.33-26.3,20-35,7.31-9.53,13.36-14.92,20-19,8.33-5.12,12.49-7.68,17-7"/>
            <path class="cls-12"
                  d="M420.6,333.53c-6.16,3.11-8.35,9.33-10,14-2.61,7.4-2.31,14.06-2,21,.3,6.65,1.15,8.05,1,15a79.68,79.68,0,0,1-1,12c-1.44,8.77-3.7,12.53-2,14,2.15,1.86,7.57-2.57,9-1,.93,1-.35,4-5,11-6.85,10.29-7.8,9.36-11,15-1.36,2.39-.26.93-7,20-1.14,3.22-1.86,5.22-1,6,1.68,1.52,7.23-3.65,14-7,10.25-5.08,19.95-4.32,37-3,9.65.75,15.9,1.23,24,4,17.19,5.87,25.55,16.16,28,14,1.52-1.34-1-5.88-7-20,0,0-.6-1.43-8-20-6.06-15.21-5.31-17.55-11-34-2.14-6.17-7.76-18.11-19-42-4.83-10.27-8.42-17.61-16-20A18.29,18.29,0,0,0,420.6,333.53Z"/>
            <path class="cls-12"
                  d="M144.6,330.53c-9.59,3.07-15.45,9.26-19,13-3.72,3.92-5.81,7.28-10,14a116.17,116.17,0,0,0-9,17c-2.66,6.33-3.41,9.88-5,15-3.1,10-4.83,11.16-14,31-10.27,22.23-8.66,21.95-13,28-8.57,11.94-18.32,17.86-17,20,.87,1.41,5.44-.58,12-2,10.85-2.34,19.13-1.38,31,0,10.31,1.2,17.87,3.46,33,8,14.71,4.41,19.07,6.86,21,8,7.21,4.27,11.9,9,13,8s-3.09-5.53-6-15c-1.13-3.67-2.52-8.37-2-14a30.62,30.62,0,0,1,4-12c4.82-9.42,5.3-18.68,6-32,1.13-21.55-5.7-33.19-2-35,2.92-1.43,9.77,4.53,13,11s2.2,12,3,12c1.2.05,4.08-12.54,3-27a83.07,83.07,0,0,0-4-20c-4.16-12.55-8.27-25-19-29C156.31,326.79,149.1,329.09,144.6,330.53Z"/>
            <path class="cls-12"
                  d="M198.6,379.53c-1.05.22,0,9.55,1,18,1.6,13.71,2.4,20.57,4,27a138.52,138.52,0,0,0,17,39,154,154,0,0,0,10,14c10.3,12.77,17.86,17.75,17,19-1.05,1.53-14.53-3-25-13-3.53-3.37-5.92-6.59-7-6s.29,5.65,4,17c4.19,12.81,6.22,19.23,7,21,3.39,7.71,7.3,16.6,16,25a50.69,50.69,0,0,0,34,15c14.83.73,27.23-4.92,27-6-.19-.9-9,2.63-21,0a47,47,0,0,1-22-12c-9.27-8.72-14.71-20.61-13-22,1.17-1,4.8,3.76,13,8a57.08,57.08,0,0,0,24,6c13.61.72,23.76-3.15,31-6a86.94,86.94,0,0,0,25-15,84.7,84.7,0,0,0,19-24,89.65,89.65,0,0,0,9-27c5-26-.79-46-2-50-2.58-8.56-6-19.35-8-19-2.64.46,3.16,19-5,38-6.44,15-18.48,23.05-23,26-19.76,12.88-37.3,19.87-45,19-12.74-1.44-26.83-7.67-34-11s-19.56-17-31-30C201,408.32,200.44,379.14,198.6,379.53Z"/>
            <path class="cls-8"
                  d="M212.1,499a107.08,107.08,0,0,0,5,17,93.84,93.84,0,0,0,9,18c3.84,5.92,8.72,13.46,18,20a52,52,0,0,0,20,9,46.13,46.13,0,0,0,24-1,42.93,42.93,0,0,0,7-3"/>
            <path class="cls-8"
                  d="M272.1,533a64.83,64.83,0,0,0,21,3c13.38-.32,23-4.78,30-8a90.73,90.73,0,0,0,25-17,87.26,87.26,0,0,0,11-13"/>
            <path class="cls-8"
                  d="M224.1,619c6.76,13.83,13.13,25,18,33,9.74,16.07,13.7,20.11,19,23,9.05,4.94,18.1,4.41,25,4,13.89-.82,23.8-5.77,34-11a149.7,149.7,0,0,0,34-24"/>
            <path class="cls-8" d="M216.1,400.53a109,109,0,0,0,9,18,116.7,116.7,0,0,0,14,18c9.88,10.5,32.5,27,50.5,31"/>
            <path class="cls-13"
                  d="M308.1,708c-1.41,4.15-3,8.69-1,12,3.71,6.28,19.29,6.92,28-1,4.37-4,8.78-11.71,6-18-3.57-8.08-17.27-9.9-25-5C311.1,699.2,309.2,704.79,308.1,708Z"/>
            <path class="cls-13"
                  d="M13.1,678c-1,.21-11,1.84-11,6,0,2.47,2.18,5.34,6,7,1.33.58,22.59,9.62,27,3,2.44-3.66-.76-11.41-6-15C24.19,675.67,18.76,676.83,13.1,678Z"/>
            <path class="cls-13"
                  d="M464.1,704c7.06-1.27,14.28,8.29,17,15,.67,1.65,4.17,10.29,0,19-1,2.09-3.89,8.12-9,9-7.47,1.29-16.2-9-18-19C452.34,718.22,456.65,705.37,464.1,704Z"/>
            <path class="cls-10"
                  d="M59.6,626.53c-7.22,3.77-15.55-7.29-23.5,3.5-26.19,35.55-9,87.67,0,108,7.06,16,16.76,29.5,25,41a341.66,341.66,0,0,0,28,34c58.3,63.19,66.74,84.65,88,84,2.1-.06,16.06-.49,25-11,6.19-7.28,6.65-16,7-25,1.5-39,2.25-58.53,1-70-2-18.57-3.45-31.62-9-49-3.29-10.32-10.52-32.31-28-55-15.46-20.08-31.22-30.67-54-46C105.14,631.64,84.25,637.47,59.6,626.53Z"/>
            <path class="cls-14"
                  d="M337.1,668c-11.42,13.62-14.15,30.47-17,48-.9,5.52-3.93,26.06,1,57,9.16,57.47,31.75,62.64,39,114,.85,6,1.55,13.1,7,19,10.12,11,22.84,3,64,7,14.5,1.41,24.57,3.53,31-3,1.36-1.38,3.11-3.82,5-15,2.39-14.17,1.94-24.49,2-34,0-6.48.69-14.65,2-31,1.78-22.27,3.38-28.56,5-45,1.45-14.67,3.34-33.76,2-51-1.5-19.39-4.3-55.5-30-76C416.61,632.92,361.05,639.44,337.1,668Z"/>
            <path class="cls-15"
                  d="M71.6,594.53c-18,3-32.51,15.15-36.5,19.5-10.58,11.55-14.15,27.27-15,31-2.38,10.48-1.11,15.7-6,24-5.58,9.47-13,12.54-12,15,1.32,3.1,13.88.06,27-2,0,0,18.43-2.89,46-3,26.33-.11,45.54,5.34,69,12,26,7.39,33.76,12.91,39,18,7.63,7.4,12.12,15.92,14,15,2.56-1.25-3.33-18.19-5-23-4.17-12-8.2-23.59-16-36"/>
            <path class="cls-15"
                  d="M450.18,612.94c-12.42-5.17-30.24-8.28-56.09-6.91-33.62,1.79-55.52,26.37-62,34-28.14,33.13-28.22,77.35-26,78,.92.27,1.68-7.07,8-15,13.19-16.55,36.84-18.46,56-20,13-1,28.87-2.33,49,3,25.68,6.79,56.58,23.86,61,43,.4,1.74,1.17,6,2,6,1.63-.08,9.45-14.59,11.5-25.5,1.78-9.52,2.57-19.93-.28-31.74"/>
            <path class="cls-7"
                  d="M97.6,594.53c-3.18-.49-13.23-2.3-18,3-.49.54-2.4,2.67-2,5,.84,4.9,11.14,6.38,21,9,6.19,1.64,14.13,5.1,30,12,18.59,8.08,29.72,12.92,40,23,16.09,15.77,17.16,31.72,23,31,6.09-.75,11.13-18.83,9-35-3-22.67-20.75-46.74-44-53C134.15,583.49,122.42,598.33,97.6,594.53Z"/>
            <path class="cls-10"
                  d="M70.1,540c5.7-13.2,19.2-18.43,31-23,26.88-10.42,51.24-4.12,59-2,17.26,4.72,28.75,12.8,36,18,24,17.19,35.78,38,43,51,5.34,9.64,18.61,34.14,19,62,.17,11.86-2.09,18.46-5,27,0,0-5,14.68-12,17a14,14,0,0,1-5,1c-1.11-.11-2-.43-3,0a4.47,4.47,0,0,0-2,2,24.68,24.68,0,0,1-4,5c-2.39,2-5.49,2-7,2a9.25,9.25,0,0,1-5-1c-1.57-.91-1.79-1.85-3-2-1.45-.18-2.19,1-4,2a12,12,0,0,1-7,1c-1-.08-5.06-.41-8-3s-3.52-6.59-4-10c-2.52-17.86-3.79-26.79-8-33a22.3,22.3,0,0,1-4-8c-.87-3.6-.08-5-1-8-1.17-3.83-3.84-6.16-6-8a34.38,34.38,0,0,0-14-7c-10.33-2.59-19.89-7.66-30-11-15.67-5.18-31.56-10.43-43-23C73.36,578.33,62.52,557.56,70.1,540Z"/>
            <path class="cls-16"
                  d="M81.1,821c2.4-3.31,7.48-3.9,17-5a68.1,68.1,0,0,1,15,0c6.6.71,9.9,1.07,14,3,6,2.81,13,6,13,6a45.55,45.55,0,0,1,5-2c13.73-4.57,26.06-1.36,31,0,6.71,1.84,13,3.56,19,9,8.26,7.44,10.5,16.76,12,23,1.37,5.7,4.49,18.68-2,32a45.34,45.34,0,0,1-9,12c-5.8,5.87-11.8,9.26-12,9s5.27-3.18,9-9c5.34-8.33,4.15-17.9,4-19-2.68-19.34-27.73-28.53-32-30-10.27-3.54-18.83-3.28-28-3-26,.79-32.44,9.27-43,4C82.38,845.18,76.27,827.68,81.1,821Z"/>
            <path class="cls-17"
                  d="M56.1,889c1.29-.83,4.11,2.6,8,5,2,1.24,6.94,3.84,21,3,10.76-.64,13.62-2.51,27-5,14-2.6,20.93-3.9,28-3,11.73,1.5,11.78,5.71,29,9a64.68,64.68,0,0,0,20,1c6-.69,10-1.15,14-4,2.81-2,4.95-4.62,6-4,.8.47.44,2.53,0,5a53.11,53.11,0,0,1-2,7c-1.35,4.42-1.6,6-3,9,0,0-.49,1.06-1,2-5.31,9.82-124.83-3.25-137,0a4.92,4.92,0,0,1-3,0c-3-1.07-3.26-5.23-6-17C55.84,891.63,55.22,889.6,56.1,889Z"/>
            <path d="M112.1,830.33a46.94,46.94,0,0,0-16-7.5c-2.77-.66-16.95-4-30,3.75a36,36,0,0,0-14,15.94,37.7,37.7,0,0,0-4,17.82,36,36,0,0,0,4,15,34.31,34.31,0,0,0,10,12.19,37.62,37.62,0,0,0,11,5.63,43.09,43.09,0,0,0,15,1.88c2.41-.12,14.63-1,25-9.38,13.15-10.69,19.43-30.43,12-43.14C121.79,836.86,116,832.92,112.1,830.33Z"/>
            <path d="M77.1,862a35.86,35.86,0,0,1,11-27c2.46-2.54,11.11-11.21,25-13,3.86-.5,10.57-1.28,18,2a32,32,0,0,1,13,11c6.83,9.19,7.69,18.86,8,23,.45,6,1.64,21.64-9,32-6.55,6.37-14.57,7.83-21,9-5,.9-12.82,2.23-22-1a34.14,34.14,0,0,1-16-11C77,878,77.07,867.81,77.1,862Z"/>
            <path d="M122.1,860a36.25,36.25,0,0,0,3,18,37.35,37.35,0,0,0,9,12,46.72,46.72,0,0,0,16,10c14,5,26.31,1.2,30,0,6-1.94,13.75-4.48,19-12,6.18-8.86,4.9-19,4-26-.77-6.06-2-16-10-24-6.5-6.5-14-8.2-22-10-7.33-1.65-15.58-3.51-25,0a35.8,35.8,0,0,0-15,11A37.72,37.72,0,0,0,122.1,860Z"/>
            <path class="cls-18"
                  d="M320.1,881c-5.06-6.4-4.44-19.36,0-28,.54-1,5.48-10.32,16-14,6.95-2.43,13.63-1.48,17-1a66.14,66.14,0,0,1,9,2,76.91,76.91,0,0,1,18-4c11.37-1.12,20.07.62,32,3a168.39,168.39,0,0,1,22,6c8.34,2.89,12.59,4.4,17,8a39.27,39.27,0,0,1,11,15c3.74,8.34,3.92,15.55,4,21,.13,8.76.27,18.68-6,27a32.22,32.22,0,0,1-16,11,32.49,32.49,0,0,0,8-6,35.41,35.41,0,0,0,7-12c3.36-10.05.9-29.9-8-39C425,843.34,337.92,903.6,320.1,881Z"/>
            <path class="cls-17"
                  d="M323.1,906c-1.85,1.36.66,7.95,2.44,11.44A31.62,31.62,0,0,0,333.1,927a17.37,17.37,0,0,0,2,1c7.2,3,113,3,113,3h8a7.58,7.58,0,0,0,2,0c1-.23,3.33-1.18,6-9,1.47-4.29,3-10.61,2-11-.64-.25-1.42,2.16-4,4-3.27,2.33-7.15,2.11-9,2-9.61-.55-23.43-15.15-37-20-24.12-8.62-60.06,9-62,10-3.95,2-11.81,6.42-20,4C328.21,909.29,324.78,904.79,323.1,906Z"/>
            <path d="M371.1,850c-6.67-5.3-16.09-7.77-17-8-5.19-1.32-10.12-2.58-16-1-9,2.42-13.89,9.8-16,13-5.23,7.93-5.76,15.74-6,20-.26,4.56-.6,12.56,4,21a33.52,33.52,0,0,0,11,12c6.43,4.11,12.59,4.65,17,5,7.27.57,22.17,1.73,31-7C392.46,891.82,386,861.83,371.1,850Z"/>
            <path d="M360.1,872c.41-5.86.78-9,2-13,1.31-4.27,3.06-9.73,8-14,3.45-3,6.89-4,10-5a34.25,34.25,0,0,1,35,8c7.89,7.28,10.66,15.74,12,20,2.05,6.53,5,16,1,26-3.22,8-9.56,13.06-12,15a37.51,37.51,0,0,1-8,5c-8.42,3.85-16.06,3.41-22,3s-9.56-.67-14-3a27.12,27.12,0,0,1-11-11C358.35,897.83,358.9,889.16,360.1,872Z"/>
            <path d="M405.1,880a34.74,34.74,0,0,1,3-13c1.23-2.68,5.48-11.92,16-16,2.29-.89,10.92-3.88,20,0,10,4.29,13.73,14,16,20,3.78,10,2.77,18.44,2,25-.93,7.88-2.87,11.3-4,13a24.47,24.47,0,0,1-9,8c-8.91,4.8-22.1,5.13-31-2-4.56-3.66-6.44-8-9-14A44.56,44.56,0,0,1,405.1,880Z"/>
            <path class="cls-10"
                  d="M53.1,126c-.59,1.9.61,4.6,3,10,2.51,5.66,5.4,9.4,9,14a78.58,78.58,0,0,0,10,11c3.92,3.51,6.68,6,11,8,7.18,3.34,13.75,3.14,18,3a52.39,52.39,0,0,0,18-4c16-6.74,35-25.06,31-36-2.67-7.31-16.78-8.54-45-11C91.09,119.55,56.05,116.49,53.1,126Z"/>
            <path class="cls-10"
                  d="M125.1,153a55.56,55.56,0,0,1-19,1c-10.34-1.06-17.58-4.49-25-8-6.84-3.24-14.85-7.11-23-15a69.83,69.83,0,0,1-11-14c-1-1.53-6.71-10.45-5-12,.81-.74,2.41,1,6,1,2.58,0,3.85-.9,7-2a49.73,49.73,0,0,1,9-2c7.79-1.51,14.4-6.25,22-10,9.25-4.56,16.9-6.13,26-8,10.21-2.1,18-3.63,28-2,7.13,1.16,13.33,2.17,18,7,9.53,9.85,4.73,27.33,4,30C157,137.44,140,149.41,125.1,153Z"/>
            <path class="cls-19"
                  d="M177.1,63c-11.37,8.62-22.08,16.74-30,25-26.52,27.69-30.66,66.4-32,79a224.45,224.45,0,0,0-1,28c.31,12.46.46,18.69,2,25,1.41,5.8,3.61,11.8,4,21a29.33,29.33,0,0,1-6,20,22.17,22.17,0,0,1-6,6,19,19,0,0,1-8,3c-7.7.89-13-4.24-14-3-.19.24-.49,1.08,6,9,4.07,5,6.11,7.46,9,10a45,45,0,0,0,10,7c7.54,3.77,12.92,3.37,13,5s-4.74,3.46-9,4c-5.71.73-9.38-1.12-10,0-.71,1.28,2.26,4.92,6,7,5,2.79,9.9,1.94,10,3,.06.62-2,1.42-6,3-3.44,1.34-3.78,1.27-5,2-3.3,2-5.53,5.34-5,6s2.17-1.25,6-2c3-.6,3.55.21,9,0,3.27-.13,4.83-.49,5,0,.27.76-3.2,2.58-4,3a14.62,14.62,0,0,1-6,2c-1.86.14-2.93-.24-3,0-.13.43,3.23,2.25,7,3,4.66.93,8.52-.07,12-1a47,47,0,0,0,10-4c11.13-5.88,17.17-12.78,18-12,.5.46-1.8,2.8-4,8a47.72,47.72,0,0,0-3,11,49.54,49.54,0,0,0-1,10c.13,8.33,2.91,16.15,4,16,.52-.07.16-1.86,1-5a23.45,23.45,0,0,1,7-11c2.5-2.32,4.63-3.36,8-5,2.58-1.26,3.54-1.41,4-1,.75.68-.19,2.57-1,5-1.06,3.16-1.37,6.44-2,13-.3,3.12-.84,8.82,0,9s1.67-3.91,4-8c3.84-6.72,9.77-11.82,11-11,.4.26.06,1,0,3a22.08,22.08,0,0,0,1,7,21,21,0,0,0,5,9c5.42,5.63,12.86,6.34,13,6s-2.66-.66-4-3c-1.81-3.17.28-7.51,1-9,2.41-5,7.06-8.67,8-8,.32.23,0,.79,0,2,.05,3.16,2.5,5.54,4,7,.47.45,1.62,1.53,6,4s6.76,3.82,8,4c3.89.58,7-1.09,11,0a5.05,5.05,0,0,1,2,1c1.23,1,1.51,2.4,2,4s1.4,3.31,2,5c2.12,5.94,8.55,14.7,10,14,.48-.23,0-1.29,0-4a25.44,25.44,0,0,1,3-11c1.54-3.25,3.57-6.2,4-6s-1.09,2.48-1,6c0,1.31.27,2.14,2,7,2.26,6.34,2.61,7,3,7,.8-.08.44-3.11,2-8a25.87,25.87,0,0,1,5-9c.91-1.05,3-3.48,4-3s.54,3.18,0,5c-1.13,3.8-3.49,5-3,6,.64,1.31,5.37.77,9-1,1.4-.68,5.68-2.77,7-7,.93-3-.15-5.41,1-6,1-.5,2.45.9,4,2,4.35,3.1,9,3.64,12,4,5.66.66,10.13-1.3,14-3,8.8-3.87,14.49-10.28,14-11-.22-.32-1.55.66-3,0a4,4,0,0,1-2-3c-.3-2,.92-3.57,2-5,.88-1.16,1.32-1.75,2-2,3.17-1.18,7.7,4.6,8,5a12.66,12.66,0,0,1,3,7c.22,3.56-1.56,5.62-1,6,.89.6,5.63-4.41,9-10,2.91-4.83,3-7.13,3-8,0-3.4-1.74-5.37-1-6,1-.85,5.14,1.76,8,5,.83.94,5.46,6.18,5,13-.2,3-1.3,4.87-1,5,.52.23,4.09-5.25,6-12,1.15-4.05,2.19-7.74,1-12s-3.66-5.87-3-7c1.27-2.16,9.53-1.4,15,3a18.31,18.31,0,0,1,6,9c.93,3.36.42,5.91,1,6,.77.12,2.5-4.31,3-9a28.94,28.94,0,0,0-1-11c-2.09-7.38-6-11-5-12,.8-.84,3.57,1.21,8,3a52.19,52.19,0,0,0,35,0c4.22-1.73,8.28-4.27,8-5-.19-.5-2.25.37-5,0-5.35-.72-9.68-5.68-9-7,.53-1,3.66.87,9,0,4.07-.67,8.19-2.74,8-4-.1-.67-2.73-1.12-8-2-8.11-1.35-10.76-1.79-13-4-.55-.55-2.53-2.5-2-4,.62-1.76,4.33-1.87,11-2,6.45-.12,9.67-.19,13,1,5.09,1.81,7.12,4.71,8,4,1.15-.93-1.34-6.69-5-11a30.56,30.56,0,0,0-9-7c-6.06-3.2-11.06-3.57-11-4,.1-.78,9-1.85,19,1,10.34,3,15.72,8.37,17,7,.94-1-1.71-5-7-13-4.83-7.3-6.69-9-8-10-4.48-3.53-8.09-3.89-8-5,.18-2.33,13.4-3,20-3,9.41,0,14.81,0,21,3,2.28,1.12,4.49,2.56,5,2,.82-.91-3.5-6.31-7-10-9.44-9.94-19.41-14.18-19-15,.29-.58,4.86,2.16,12,3a29.7,29.7,0,0,0,16-2c6.94-3.13,11.63-9.1,11-10-.34-.49-2,.83-5,1-3.19.19-6-1.06-9-3a80.39,80.39,0,0,1-19-18,110.59,110.59,0,0,1-15-27c-5.14-13.44-3.28-15.93-8-35-2.62-10.58-6.09-24.26-14-40-4-7.89-9.78-19.24-21-31a115.32,115.32,0,0,0-24-19c-26.33-16.42-59.4-25.61-82-25a175.76,175.76,0,0,1-25-1c-7.27-.65-11.86-1.39-17-3-4.61-1.44-9.8-3.07-15-7-9-6.83-11.48-15.63-13-15s.37,8.22,2,13c1.41,4.14,2.42,7.12,5,10,4.89,5.46,11.21,5.89,11,7-.28,1.51-12,.51-18,0-10.56-.9-15.84-1.35-21-3-4.39-1.4-7.35-2.91-8-2-.8,1.11,2.31,5.24,6,8,5.41,4.05,9.84,3.52,10,5,.27,2.59-13.24,4.14-28,12C188.2,54.64,184.43,57.47,177.1,63Z"/>
            <path class="cls-20"
                  d="M206.6,280.53c-1.91-1.08-4.09,1.89-12,6-8.79,4.56-17.6,6.86-18,6s8.19-5.67,8-6-6.68,4.32-16,7a43.71,43.71,0,0,1-17,2c-8.17-.8-13.41-4.07-14-3-.51.91,3,4,6,6a37,37,0,0,0,18,6c13.53.76,24.82-5.48,25-5s-8.45,2.22-12,9c-1.81,3.45-2,7.58-1,8s2.41-3.57,7-7c3.5-2.62,5.19-2.14,12-5,5.89-2.47,8.84-3.71,11-6C209.09,292.72,209.66,282.26,206.6,280.53Z"/>
            <path class="cls-20"
                  d="M229.1,52c.53.57-2.22,4.23-5,7-4.06,4-7.27,5.25-7,6,.38,1.05,7.16-.23,13-2a64.67,64.67,0,0,0,18-8c4.9-3.22,8.41-6.57,9-6s-4.1,5.45-3,7,8.75-.5,15-5c8.86-6.38,11.32-14.83,14-14,1.77.55,2.11,4.67,2,7-.39,8.12-7.16,12.16-6,14,1.31,2.09,11.89-.26,21-6,6.31-4,9.08-7.79,16-9a25.48,25.48,0,0,1,8,0c4.8.6,18.32,2.3,30,12,2.91,2.42,9.36,8.37,16,24,13.76,32.39,14.08,72.84,11,88a38.32,38.32,0,0,0,0,17,40.38,40.38,0,0,0,4,10c1.87,3.49,5.23,9.76,11,14,9.88,7.26,21.94,5,22,7,0,1.5-6.48,2.89-7,3-7,1.46-11.42-.31-12,1s3.74,3.51,8,8c5.21,5.5,7.23,11.19,10,19,.6,1.68,5.56,15.67,3,17-1.34.7-3.24-2.83-9-6-6.19-3.4-13.3-4.43-14-3-.46.94,2.28,2.09,5,6,3,4.38,2.28,6.8,5,15,2.38,7.18,4.7,10.54,4,11s-3.92-4.19-11-10c-6.9-5.66-11.43-7.29-14-8-3.69-1-9.16-1.75-10,0-.43.9.63,1.85,3,6,2.26,4,3.61,6.32,3,7-.85.94-4.63-2.34-11-5-7.45-3.11-14.16-3.59-20-4-6.43-.45-8.79.12-12,0-15-.55-34.07-15.66-35-31-.84-13.88,13.65-19.88,10-32-2.33-7.73-10.25-12-12-13-5.78-3.15-7.93-1.5-21-4-8.13-1.56-13.33-3.35-21-6-11.09-3.83-12.89-5.55-14-7-5.09-6.62-2.25-15.75-4-16-1.52-.22-3.92,6.63-5,11a27.33,27.33,0,0,0-1,6c-.06,1.76-.11,8.75,4,14,5,6.4,13.26,6.52,13,8-.21,1.17-5.45,1.29-9,1-4.43-.36-10.13-.82-15-5-4.38-3.76-6.26-9-7-11-1.26-3.47-1.43-6-2-6-.75,0-1.74,4.48-1,9,.6,3.65,2.21,6.66,4,10,2.21,4.12,3.49,5.39,3,6-.8,1-5.72-.54-9-4-2.91-3.07-2.13-5.12-5-12a52.17,52.17,0,0,0-7-12c-3.85-4.87-8.39-8.52-9-8s4.14,5,6,13a23.48,23.48,0,0,1,0,12,23,23,0,0,1-6,10c-3.59,3.64-5.29,3.18-16,9-8.23,4.47-10.57,6.56-12,8a41.28,41.28,0,0,0-6,8,57.37,57.37,0,0,0-7,15c-2.09,7.31-.28,7.72-2,15-.94,4-2.8,11.84-9,18-7.5,7.45-17.66,8.74-18,8s6.18-2.51,10-9c2.52-4.29,3.18-9.38,2-10-1-.53-2.44,2.71-7,5a21.7,21.7,0,0,1-10,2c-.58,0-9.61.12-10-2-.35-1.88,6.66-2.59,12-8,5-5.1,5.9-11.64,7-21,1-8.43.26-11.35,0-26-.27-15.13-5.9-24.2-4.5-28.5,4.75-14.56,5.34-12.4,4-14-1.17-1.39-3.29,4-4,3s-2.37-34.17,4-41c2.48-2.66,15-46,39.5-35.5-1.94-7.75-10.08-12.18-8-16,1.63-3,7.46-3,8-3,4.16,0,4.84,3.14,8,3s5.56-3.28,9-8c2.15-2.95,4.21-5.77,5-10,.64-3.42.07-5.68,1-6,1.09-.37,3.61,2.13,4,5,.57,4.18-3.67,7.18-3,8,.86,1,8.32-3.3,15-8,3.81-2.68,7.16-5.33,14-10C227.21,52.54,228.77,51.68,229.1,52Z"/>
            <path class="cls-19"
                  d="M235.1,328a30.82,30.82,0,0,0-8,9,31.77,31.77,0,0,0-4,12,40.05,40.05,0,0,0,0,8c.25,4.2.48,7.81,2,12,1.4,3.87,3.51,7.2,4,7s-1.05-2.95-1-7a18.7,18.7,0,0,1,5-12c2.2-2.44,5.3-4.59,6-4,.55.46-.85,2.21-2,6a17.7,17.7,0,0,0,2,17c1.29,2.22,3.41,5.29,4,5s-.82-2.53-1-6c-.06-1.22-.39-7.6,4-11a10.67,10.67,0,0,1,7-2"/>
            <path class="cls-20"
                  d="M246.1,326a21.21,21.21,0,0,0-7,4,28.83,28.83,0,0,0-8,10c-.84,1.63-3.13,6-2,7,.75.64,2.26-.86,6-2,.86-.26,7.45-2.22,9,0,.38.55.24,1,0,3-.55,4.56-.9,7.53,0,8s2-1.77,6-4a16,16,0,0,1,5-2,18.41,18.41,0,0,1,6,0c2.11.22,3.19.34,4,1,1.8,1.45,1.57,4,2,4s1.27-3.09,1-7c-.49-7.07-4.1-11.07-3-12s4.34,1.61,6,3c4.27,3.56,5.45,7.22,6,7,.78-.31.41-8.43-5-14-3.87-4-8.64-4.93-14-6C254.47,325.31,250.62,324.59,246.1,326Z"/>
            <path class="cls-21"
                  d="M212.1,206a10.4,10.4,0,0,0,2,6c1.85,2.26,4.84,3.27,7,4a26,26,0,0,0,4,1c1.36.24,13.23,2.31,14,0,.36-1.08-2.1-1.94-5-6-1.37-1.92-3.91-6.06-3-7,1.07-1.11,5.85,3.33,14,7,9.88,4.44,20.28,5.75,21,4,.32-.77-1.48-1.57-4-5-2.83-3.85-4.73-8.48-4-9s4,4.5,11,9a46.7,46.7,0,0,0,11,5c4.8,1.65,9.71,2.79,20,4,13.72,1.62,13.69.62,23,2a120,120,0,0,1,21,5c13.18,4.45,17.57,8.57,19,10a37.57,37.57,0,0,1,6,8,27.73,27.73,0,0,1,4,11,26.87,26.87,0,0,1-1,10,47.88,47.88,0,0,1-6,14c-3,5-5.65,7.88-10.83,13.47-1.63,1.76-4.65,4.92-5.17,4.53s1.69-3.05,3-8c1.51-5.69.32-8.34,0-9s-1.4-2.86-3-3c-2.44-.21-5.53,4.2-5,8a7.1,7.1,0,0,0,2,4c1.47,1.42,3,1.52,3,2-.06.67-3.15,1-6,1a33.61,33.61,0,0,1-8-1,70.65,70.65,0,0,1-15-6,61.76,61.76,0,0,1-10-6c-4.05-3.09-6.06-5.57-7-5s-.4,3.63,1,6c2.69,4.56,8.16,5.51,8,6s-5.62-.31-13-3a102,102,0,0,1-13-6c-8.44-4.36-12.66-6.53-15-9-5.85-6.16-5.73-12.18-8-12-2.65.2-5.6,8.59-4,16,.57,2.64,1.23,2.9,1,4-1.81,8.68-46.28,7.89-47,3-.19-1.27,2.72-1.72,5-6,1.58-3,1.77-5.7,2-9a23.55,23.55,0,0,0-1-10c-.86-2.45-2.36-5.19-3-5s.39,3.62,0,8a24.55,24.55,0,0,1-4,11c-3,4.79-6.47,7.24-12,11-7.27,4.95-13.69,7.51-14,7s3-2,5-6c.9-1.87,1.68-4.59,1-5-1.16-.7-4.21,6.67-12,11-4.9,2.72-9.8,3.2-18,4-5.69.56-8,.19-8,0s4.9.11,8-3c.26-.26,2.7-2.77,2-5-.88-2.8-6.14-3.26-9-3-1.07.1-6.44.58-8,4s2.07,6.95,1,8c-1.65,1.63-13.57-3.53-18-14-2.85-6.73-1.65-13.39-1-17a26.48,26.48,0,0,1,4-11c3.27-4.8,7.53-6.9,14-10,7.66-3.67,9-2.9,19-7,8.52-3.48,6.8-3.72,15-7,8.48-3.39,12.17-3.88,17-8a25.06,25.06,0,0,0,6-7c5.54-10,1.41-21.91,2-22S211.13,196.31,212.1,206Z"/>
            <path class="cls-8" d="M234.1,190a22.1,22.1,0,0,0,6,14,23.69,23.69,0,0,0,11,6,27.87,27.87,0,0,0,7,1"/>
            <path class="cls-8"
                  d="M197.1,183a31.08,31.08,0,0,1,7,12,20.32,20.32,0,0,1,1,9,13.29,13.29,0,0,1-2,6,12.75,12.75,0,0,1-7,5"/>
            <path class="cls-10"
                  d="M259.1,213c-1.6.73-2.19,3.26-2,5,.14,1.21.65,2,3,5,3.35,4.26,3.4,4,4,5,1.55,2.51,1.12,3.89,2,9a55.79,55.79,0,0,0,3,11,36.13,36.13,0,0,0,5,9,35.53,35.53,0,0,0,11,9c11.51,6.3,24.07,6.17,32,6,14.4-.3,24.3-3.28,29-5,14-5.13,17-10.7,18-13a13.11,13.11,0,0,0,1-8c-1.22-5.47-6.35-8.42-11-11-2.51-1.39-7.43-3.84-18-6-8.65-1.77-9.86-1.05-23-3-3.34-.5-9.3-1.39-17-3-10.64-2.22-10.76-2.92-18-4-5.36-.8-6.91-.65-10-2C263.32,215,261.19,212.08,259.1,213Z"/>
            <path class="cls-10"
                  d="M193.1,212c-.92-.1-1.93.31-6,5-5.57,6.42-6.46,8.86-10,12-2.47,2.2-4.58,3.26-8,5-2.22,1.13-4.76,2.23-17,6-6.84,2.11-9.11,2.71-12,5-1.87,1.48-4.36,3.52-5,7s1.1,6.52,2,8c4.59,7.56,13.79,9.91,22,12,4.73,1.21,9,2.3,15,2,7.22-.37,12.31-2.55,18-5,7.75-3.33,10.12-5.95,11-7a17.21,17.21,0,0,0,4-8c.71-3.86-.29-6.88-2-12-1.79-5.36-2.65-5.3-4-10s-.64-5.44-2-10C198.06,218.55,196.22,212.37,193.1,212Z"/>
            <path class="cls-22"
                  d="M291.1,243a12.4,12.4,0,0,0,2,4c2.17,2.86,5,3.94,8,5a31.08,31.08,0,0,0,11,2,32.89,32.89,0,0,0,17-5"/>
            <path class="cls-22" d="M165.1,253a24.43,24.43,0,0,0,7,4,25.93,25.93,0,0,0,23-3"/>
            <path class="cls-10"
                  d="M210.1,290a6,6,0,0,1,0-4c1.92-5.11,12.59-5.61,21-6,7-.33,12.32.78,23,3,2.2.46,5.8,1.26,7,4a5.41,5.41,0,0,1,0,4c-.53,1.2-1.7,2.42-7,4a54.65,54.65,0,0,1-10,2,87.78,87.78,0,0,1-17,0,38,38,0,0,1-10-2C211.42,293,210.41,290.89,210.1,290Z"/>
            <path class="cls-10"
                  d="M231.1,293c-.37,2,.45,3.74,2,7a27.08,27.08,0,0,0,3,5c4.91,6.39,12.63,9.56,13,9s-4.26-2.32-8-8c-1.3-2-5-7.58-4-14,.45-2.94,1.65-4.49,1-5C237,286.17,231.85,289,231.1,293Z"/>
            <path class="cls-10"
                  d="M226.1,320a3.18,3.18,0,0,1-1-3c1.14-4.87,17.25-5.9,28-5,11.31,1,22.46,4.54,27,6a16.43,16.43,0,0,1,3,1c-.08.33-13.47-3.92-30-4-6.19,0-9.28,0-13,1C233.08,318,228.42,321.92,226.1,320Z"/>
            <path class="cls-10"
                  d="M389.1,84c7.76-3.35,15.94-1.59,28,1,9.88,2.12,16.5,5.37,28,11a132.55,132.55,0,0,1,25,16c6.71,5.45,9.39,8.74,10,13,.58,4-.84,7.56-3,13a50.8,50.8,0,0,1-6,11,50.13,50.13,0,0,1-11,11,44.05,44.05,0,0,1-17,8c-4.84,1.05-8.91,1.94-13,0-5-2.37-7-7.51-8-7-.81.42.8,3.67,1,9,.18,5-.92,9.95-2,10s-.87-4.2-4-9c-.9-1.37-5.08-7.78-10-7a6.81,6.81,0,0,0-5,4c-1.67,4.05,2.07,8,1,9s-7.21-2.59-14-9c-4-3.8-11.71-11.06-16-20C362.9,126.76,370.18,92.2,389.1,84Z"/>
            <path class="cls-10"
                  d="M367.1,142a31.36,31.36,0,0,0,12,11c6.94,3.77,13.25,3.91,21,4a84.27,84.27,0,0,0,26-4c6.89-2.17,16-5,25-12a110.51,110.51,0,0,1,14-9c3.49-1.89,5.91-2.94,9-3s3.89.89,8,1a22.54,22.54,0,0,0,8-1c5.66-1.91,9.4-6.42,9-7s-2.82,1.88-7,2-8.17-2.17-8-3c.11-.53,1.83-.18,5-1,2.81-.72,6.15-2.21,6-3s-3.57-.16-9-1a32.44,32.44,0,0,1-10-3c-3.59-1.86-4.88-3.79-9-8,0,0-.16-.16-11-10-2.82-2.56-26-23.59-52-20a42.09,42.09,0,0,0-15,5c-9.63,5.56-14.18,13.75-17,19C368.71,105.32,357.52,126.14,367.1,142Z"/>
            <path class="cls-20"
                  d="M270.6,271.53c1.73-.57,2.79,3.17,9,8,6,4.65,11.76,6.44,20,9,10.09,3.13,9.07.92,16.61,3.61.82.29,2.91,1.06,3.39.39,1-1.35-5.69-7.14-5-8,.49-.61,4.15,2,10,5,3.36,1.74,3.2,1.43,15,7,5.06,2.39,7.2,3.44,9,6s2.35,5.13,3,5-.29-2.81,1-6c.93-2.29,2.62-3.86,6-7,.82-.77.79-.68,2.27-2,4.57-4.05,6.48-6.2,6.73-6,.41.33-5.64,5.17-6,12-.31,5.87,3.72,10.52,5,12,6.15,7.11,15.17,8.51,15,9s-8-1.26-18-3c-3.81-.67-6.41-1.07-7,0-.87,1.57,3.71,4.35,6,10,2,4.94,2.26,10.53,1,11s-3.11-5-9-11c-4.84-4.91-9.68-7.33-15-10-9.05-4.53-17.7-6.72-18-6-.19.46,3.2,1.44,6,5,3.09,3.93,4.17,9.32,3,10-1.33.77-4.18-5.38-12-11-4.75-3.41-9.83-5.27-20-9-5.63-2.06-9.88-3.26-15-7-1-.76-2.86-2.16-3-2-.35.39,9.88,8.7,9,10-.71,1.06-9.41-1.48-15-8C266.16,288.7,267.21,272.65,270.6,271.53Z"/>
            <path class="cls-20"
                  d="M216.38,283a1,1,0,0,0,.54,1.76c30.75,2.31,38.53,1.89,38.67.82.17-1.32-4.35-4.23-15-6-5.51-.91-17.28-.5-22,2A15.88,15.88,0,0,0,216.38,283Z"/>
            <path class="cls-8" d="M508.6,555.53c-6-5-9-7-17-9"/>
            <path class="cls-8" d="M377.6,406.53c-2,12,1.42,38.39,4,46"/>
            <path class="cls-9" d="M185.6,415.53a149.47,149.47,0,0,1-1,15c-.73,6.26-4.8,15.95-6,21"/>
            <path class="cls-23"
                  d="M83.6,491.53c3.48-1.74,8.32-1.82,18-2,11.68-.21,20.72,1.44,29,3a188.85,188.85,0,0,1,20,5c11.81,3.63,5.84,3.06,18,8a8.19,8.19,0,0,1,4,3c.89,1.36,1.12,2.83,1,7-.2,7-1,8.31,0,10,1.61,2.67,5.71,2.88,7,3,13.75,1.33,33.59,25.27,40,33,12.21,14.72,18.25,27.75,23,38a124.74,124.74,0,0,1,10,33,38.75,38.75,0,0,1,0,14c-2.08,10.53-8.72,18.58-10,18-.84-.38,1.24-4.18,1-11s-2.6-13.12-4-13c-1.16.1-.68,4.57-3,12a47.47,47.47,0,0,1-7,14c-4.31,5.83-10.54,11.05-12,10-1-.7,1.07-3.46,2-11a46.28,46.28,0,0,0,.25-8.85c-.05-1-.38-7.1-1.25-7.15-1.12-.06-.22,10-6,14a9.78,9.78,0,0,1-9,1c-3-1.29-2.92-3.6-7-10-4.41-6.91-6.42-7.22-8-12a24.78,24.78,0,0,1-1-9c.23-11.22,5-15.35,3-19-2.27-4.2-11-3.13-17-3-4.64.1-8.42-.34-46-15-42.75-16.67-45.46-19.06-48-22-11.89-13.72-12.66-30.57-13-38C67.41,532.41,66.3,500.16,83.6,491.53Z"/>
            <path class="cls-23"
                  d="M274.6,644.53c-1.93-.61.09-16.87,6-34,8.56-24.8,21.69-41,34-56,13.45-16.33,26.3-27.56,52-50,17.11-14.94,25.82-22.47,33-25,24.72-8.71,58.88-2.2,74,20,1.89,2.77,9,13.49,8,28-1.08,16.22-11.51,26.63-15,30-7.4,7.16-14.64,9.83-30,15-33.17,11.17-59,19-59,19a424.32,424.32,0,0,0-45,17c-7.3,3.25-17.09,7.88-23,18a49.59,49.59,0,0,0-5,13c-2.8,12-.08,20.42-2,21-1.67.5-5.56-5.34-8-12-6-16.28-.69-30.24-3-31C288.27,616.44,277.27,645.38,274.6,644.53Z"/>
            <path class="cls-23"
                  d="M334.6,731.53c-.94,5.49-1.3,9.74-2,18-1.26,15-1.89,22.51-1,28a61.79,61.79,0,0,0,9,23c6.21,10.16,16.12,20.66,19,19,1.85-1.07-1-6.1-1-15,0-14.53,7.58-27.55,10-27,1.35.31,1.25,7.87,1,23-.35,20.83-1.34,28.4,3,31,2.33,1.4,3.74-.12,11-1,8.63-1,15.09.09,26,2,8.08,1.42,13.25,2.32,20,5,10.85,4.31,14.72,8.8,19,7,4.07-1.71,5.08-7.65,6-13a150.12,150.12,0,0,0,7-39c2.27-51,5.23-47.6,3-53-10-24.08-42.81-28.24-104-36-4.13-.52-11.47-1.32-17,3C338.25,710.71,336.94,717.85,334.6,731.53Z"/>
            <path class="cls-23"
                  d="M69.6,713.53c-1.25,2-1.92,5,3,20,2.8,8.55,6.26,17.51,15,36,17.52,37.06,13.24,21.43,17,31,.82,2.08,2.27,6,6,8s6.18.35,14,1c5.45.45,5.07,1.3,11,2,7.19.85,9.33-.22,16,0a69.93,69.93,0,0,1,17,3c13.38,4.2,16.13,10.41,21,9,6.5-1.88,8-14.82,9-23,.76-6.43,1.46-17.56-6-52-4.37-20.18-6.46-24.91-11-29-3.23-2.91-7.69-5.48-23-8-18.27-3-26-1.68-53-2C81.37,709.24,73.05,708,69.6,713.53Z"/>
            <path class="cls-23"
                  d="M322.6,871.53c-1.79-4.15-.5-8.25,1-13a22.3,22.3,0,0,1,4-8,21.14,21.14,0,0,1,8-6,25.83,25.83,0,0,1,11-2c9.06.19,18.28,4.4,18,7-.11,1-1.48.83-4,3a20.94,20.94,0,0,0-5,7c-1.62,3.17-1.54,4.16-3,8-2.33,6.12-3.5,9.19-6,11-4.59,3.33-10.9,1.58-13,1S325,877.16,322.6,871.53Z"/>
            <path class="cls-23"
                  d="M364.6,876.53c-2.62-1.62-5.06-3.87-6-7-2.79-9.26,8.84-21.93,21-26,10.83-3.63,20.11-.12,23,1,3.18,1.23,11,4.23,11,9,0,1.57-1,1.88-4,6s-5.82,7.88-7,13c-.85,3.68,0,4.18-1,6-2.68,4.71-10.58,4.91-14,5C377.71,883.79,369.61,879.79,364.6,876.53Z"/>
            <path class="cls-23"
                  d="M410.6,879.53c-1.28-2.8-.16-5.86,1-9,3.17-8.62,11.09-12.15,13-13a22.39,22.39,0,0,1,14-2c7.5,1.55,11.65,6.94,14,10,2.56,3.32,6.82,8.87,5,13-.78,1.78-2.87,3.7-14,5C431,885,414,887,410.6,879.53Z"/>
            <path class="cls-23"
                  d="M180.6,835.53a38.22,38.22,0,0,0-15-5c-3.78-.42-11.25-1.24-19,3a28.21,28.21,0,0,0-11,11c-1.93,3.37-4.65,8.14-3,13,.35,1,1.37,3.45,5,6,5.8,4.07,11.7,3.87,23,4,20.82.24,23.68,1.21,28-2,.78-.58,6.85-5.23,7-12C195.8,844.41,185.11,838.16,180.6,835.53Z"/>
            <path class="cls-23"
                  d="M134.6,830.53c-1.72-3.95-9.55-4-15-4-4.92,0-11.66,0-19,4-2.86,1.54-7.81,4.22-11,10-1.15,2.09-4.33,7.84-2,13,1.36,3,4,4.43,7,6,2.47,1.28,15.07,7.83,24,2,1.94-1.27,3.63-3.84,7-9a71,71,0,0,0,7-14C135.16,832.16,134.84,831.09,134.6,830.53Z"/>
            <path class="cls-23"
                  d="M92.6,826.53c-1.42-2.15-6.39-1.23-13,0-4.74.88-9.22,1.71-14,5-2.16,1.49-9,6.21-10,14a10.74,10.74,0,0,0,1,7c2.55,4.37,8.55,6.18,13,5,3.53-.94,5.14-3.5,9-9C90.24,831.92,94.06,828.75,92.6,826.53Z"/>
            <path class="cls-8" d="M167.1,640a38.1,38.1,0,0,1,14,11c8.69,11.07,8.24,23.55,8,27"/>
            <path class="cls-8" d="M210.6,702.53a16,16,0,0,1-4,8c-2.21,2.37-7.64,5.49-9,6"/>
            <path class="cls-8"
                  d="M432.6,601.53a94.16,94.16,0,0,1,29,3c8.74,2.33,17.19,4.68,25,12a43.9,43.9,0,0,1,9,12"/>
            <path class="cls-8" d="M439.6,594.53a60.59,60.59,0,0,1,53,13"/>
            <path class="cls-24" d="M591.6,606.53"/>
            <path class="cls-25"
                  d="M141.6,84.53c-.91-2.4-8.35-1.66-15-1a112.43,112.43,0,0,0-24,5c-4.61,1.55-10.07,4-21,9-15.1,6.86-17.17,8.42-23,9-7.82.77-13-1.15-14,1-.65,1.4,1.09,3.24,8,11,9.58,10.75,9.52,10.89,11,12a34.36,34.36,0,0,0,18,7,35.24,35.24,0,0,0,23-7c4.65-3.62,3-4.41,14-19,6.08-8,9.11-12.06,13-16C138.14,88.9,142.34,86.48,141.6,84.53Z"/>
            <path class="cls-25"
                  d="M404.6,78.53a36.75,36.75,0,0,0-17,7c-5.5,4.2-8,8.76-12,16-4.58,8.31-6.93,12.58-6,18s4.42,8.65,8,12c2.58,2.41,10.63,9.41,25,13,16.32,4.08,29.75,1,38-1,0,0,20.12-4.84,34-19,1.22-1.25,3.1-3.35,3-6-.15-3.75-4.18-6.28-10-10s-11.3-7.39-17-11c-13.13-8.31-10.86-9.92-19-14C427.52,81.49,417.36,76.55,404.6,78.53Z"/>
        </g>
    </g>
</svg>