<svg xmlns="http://www.w3.org/2000/svg" viewBox="0 0 383.01 867.09">
    <defs>
        <style>
            .cls-1{fill:#0b1523;}.cls-1,.cls-10,.cls-14,.cls-15,.cls-16,.cls-2,.cls-3,.cls-6,.cls-7,.cls-8,.cls-9{stroke:#000;}.cls-1,.cls-10,.cls-15,.cls-16,.cls-2,.cls-6,.cls-8,.cls-9{stroke-linecap:round;stroke-linejoin:round;}.cls-1,.cls-10,.cls-15,.cls-16,.cls-2,.cls-3,.cls-6,.cls-7,.cls-8,.cls-9{stroke-width:4px;}.cls-2,.cls-7{fill:none;}.cls-14,.cls-3,.cls-7{stroke-miterlimit:10;}.cls-4,.cls-8{fill:#e0d9c7;}.cls-5{fill:#9b968c;}.cls-6{fill:#c0c6cc;}.cls-9{fill:#9b9176;}.cls-10{fill:#c4a870;}.cls-11{fill:#d5dce0;}.cls-12{fill:#282828;}.cls-13{fill:#162b4c;}.cls-16{fill:#d9d9d9;}.cls-17{fill:#fff;}.cls-18{fill:#bcbcbc;}
        </style>
    </defs>
    <title>standLoser</title>
    <g id="Layer_2" data-name="Layer 2">
        <g id="Слой_1" data-name="Слой 1">
            <path class="cls-1"
                  d="M83.59,184.77c16.26-15,33.77-26.26,53.78-36.27,1.54-.77,6.08.58,10,0,8.06-1.2,15.71,9.24,22.51,18.76,10,14,19.9,27.83,15,36.27-3,5.12,3.92-2.81-6.25,1.25-21.89,8.74-25,22.51-51.28,38.77C121.11,216,104.85,192.28,83.59,184.77Z"/>
            <path class="cls-2" d="M127.36,243.55"/>
            <path class="cls-3"
                  d="M327.46,397.38c.66,1.84,2.55,7.76,8.75,47.52,7.74,49.63,11.61,74.86,11.26,95-.25,14.47-1.6,31.71-10,50a96.73,96.73,0,0,1-11.26,18.76c-5.06,6.56-13.25,16.93-27.51,23.76-8.72,4.17-23,11-31.27,6.25-18.74-10.81,20-66.25,17.51-156.33-1-34.76-7.86-65.64,12.51-87.55,8-8.59,24.72-19,27.51-16.26.92.89-.15,2.75,0,7.5A33.35,33.35,0,0,0,327.46,397.38Z"/>
            <path class="cls-3"
                  d="M242.42,700c25.8,2.46,40.28-1,45,7.5,1.6,2.88,1.55,6.14-1.25,16.26a215.77,215.77,0,0,1-16.26,41.27c-3.66,7.2-10.36,19-23.76,42.52-7.74,13.61-11.76,20.5-18.76,25a42.58,42.58,0,0,1-27.51,6.25c-2.4-.33-19.37-2.49-26.26-15-1.94-3.52-2.54-8.18-3.75-17.51a147.4,147.4,0,0,1-1.25-18.76,179.36,179.36,0,0,1,5-40c7.52-32.65,11.27-49,20-53.78C204,688.08,208.75,696.82,242.42,700Z"/>
            <path class="cls-3"
                  d="M74.83,701.29c-8.51,9.39-9.64,22-11.26,40a177.32,177.32,0,0,0,0,30c1.13,11.19,2.85,15.31,2.5,26.26-.27,8.6-.41,12.9-1.25,17.51-.88,4.8-1.89,7.79-1.25,12.51a21.11,21.11,0,0,0,3.75,10c3.85,5.07,9.89,6.57,15,7.5,12.67,2.31,22.4,1.61,32.52,1.25,24.51-.88,36.76-1.32,43.77,0a47.52,47.52,0,0,0,18.76,0c4.48-.93,9.35-1.94,11.26-5,4.21-6.77-4.78-23.07-17.51-31.27-8.18-5.27-17.57-7-17.51-11.26,0-1.9,1.89-3.28,2.5-3.75,11.5-9,21.28-44.54,25-63.78,3.84-19.78,5.76-29.67,2.5-35-12.25-20.12-57.75-11.49-78.79-7.5C84.39,692.66,78.33,697.43,74.83,701.29Z"/>
            <path class="cls-4"
                  d="M81.2,706.43c3.46,1,6.59,1.74,6.75,1.74A22.93,22.93,0,0,0,81.2,706.43Zm30.53-20.77c.16-1.14-18.5-9.94-36.27-3.75-4.46,1.56-6.48,3.23-10,2.5-10.33-2.11-14.12-20.65-15-25-1.74-8.54-3.1-15.21,1.25-20,4.58-5.05,13.52-5.87,18.76-2.5,3.19,2.05,3.69,4.83,6.25,10a65.62,65.62,0,0,0,13.76,18.76c7,6.2,14.9,7.08,30,8.75,11.91,1.33,20.09,2.23,30-1.25a44.25,44.25,0,0,0,6.78-3,75.71,75.71,0,0,0,1.35,9.91c5.49,26.74,24.24,42.63,28.76,46.27,6,.15,11.23.31,15.9.5a67.81,67.81,0,0,0-3.39,10.76c-47.52,1.25-110.06-1.25-148.83-1.25a34.25,34.25,0,0,1,0-13.69c1.69-1.49,6.44-5.7,10.63-9.44A26.53,26.53,0,0,1,73,706.92a23.51,23.51,0,0,1,5.07-.65,25.49,25.49,0,0,1,3.16.16c-4.51-1.31-9.62-3.14-9.48-4.51.16-1.75,8.79-2.41,10-2.5,6.45-.45,9.78.73,10,0,.34-1.09-6.59-5.69-15-6.25-4.25-.29-7.35.56-7.5,0-.21-.8,5.79-3.36,11.26-5C98,682.91,111.59,686.62,111.73,685.66Z"/>
            <path class="cls-5"
                  d="M210.72,616l-5.79-17.63a77.92,77.92,0,0,0-9.77-16.2c6.79-1.36,14-2.7,21.62-4,22.45-3.88,38.39-5.72,50.16-5.65.2.48.35.9.49,1.28L252,608.49c-12,.91-18.85,1.55-26.45,3.38A134.65,134.65,0,0,0,210.72,616Z"/>
            <path class="cls-5"
                  d="M191.28,582.92a157,157,0,0,0-26.69,44C158,617.32,153,605,150.18,592.51,162,589.45,175.51,586.16,191.28,582.92Z"/>
            <path class="cls-4"
                  d="M78,608.12c-.68,0-14.62,2.08-42.52,6.25a13.79,13.79,0,0,0-6.25,2.5,12.17,12.17,0,0,0-1.86,1.71,48,48,0,0,1,0-13.59c4.09-25.39,33.84-40.11,41.27-43.77,23.32-11.53,54.3-15,81.59-7.53-3.44,10.86-3.1,25,0,38.82C115.83,601.48,96.07,608.69,78,608.12Z"/>
            <path class="cls-4"
                  d="M217.41,637.51c.09.33.18.65.25,1-11.23,5.19-21.26,8.53-30.27,6.53q-.71-.15-1.43-.38c.68-.88,1.36-1.79,2.05-2.75,7.6-10.61,5.84-13.17,11.26-18.76A29,29,0,0,1,210.72,616l5,15.38Q216.56,634.34,217.41,637.51Z"/>
            <path class="cls-5"
                  d="M296.82,581.85c10.39,9.86,15.88,24.66,11.88,28.14-2.36,2.06-6.13.89-16.88-1.88-7.74-2-16.95-1.35-35,0l-4.81.38,15.45-34.77c-.14-.38-.29-.8-.49-1.28C282.14,572.54,290.41,575.76,296.82,581.85Z"/>
            <path class="cls-4"
                  d="M252,608.49l-6.93,15.61a135.42,135.42,0,0,1-15.15,8.4c-4.24,2.11-8.32,4.16-12.26,6-.08-.33-.16-.65-.25-1q-.84-3.17-1.65-6.17l-5-15.38a134.65,134.65,0,0,1,14.82-4.09C233.14,610,240,609.41,252,608.49Z"/>
            <path class="cls-4" d="M88,708.17c-.16,0-3.29-.71-6.75-1.74A22.93,22.93,0,0,1,88,708.17Z"/>
            <path class="cls-4" d="M191.28,582.92c.78-.91,1.55-1.81,2.33-2.69.53.63,1.05,1.26,1.55,1.9Z"/>
            <path class="cls-4"
                  d="M217.66,638.48c4.74,18.13,6,33.73,3.5,49.05,0,.05,0,.11,0,.16A47.42,47.42,0,0,1,214.58,705a147.46,147.46,0,0,0-11.29,21.79c-4.66-.19-9.89-.35-15.9-.5-4.53-3.64-23.27-19.54-28.76-46.27a75.71,75.71,0,0,1-1.35-9.91c5.59-3.08,10.23-7.14,15.73-12a95.21,95.21,0,0,0,13-13.51q.71.23,1.43.38C196.4,647,206.43,643.67,217.66,638.48Z"/>
            <path class="cls-4"
                  d="M232.83,548.59c-13.27,6.8-27.08,17.93-39.22,31.64-.8-.93-1.61-1.84-2.46-2.75-11.06-11.79-25.41-19.55-41-23.79A29.62,29.62,0,0,1,158.63,540C175.16,525.59,208.19,538.38,232.83,548.59Z"/>
            <path class="cls-5"
                  d="M186,644.64c-8-2.29-15.33-8.85-21.37-17.7a157,157,0,0,1,26.69-44l3.88-.79a77.92,77.92,0,0,1,9.77,16.2L210.72,616a29,29,0,0,0-11.44,7.17c-5.42,5.59-3.65,8.15-11.26,18.76C187.33,642.85,186.64,643.76,186,644.64Z"/>
            <path class="cls-4"
                  d="M195.16,582.13c-.5-.64-1-1.28-1.55-1.9,12.14-13.71,26-24.84,39.22-31.64,0,0,0,0,0,0l3.33,1.38c23.11,9.6,28.84,18,30.78,22.49-11.77-.06-27.71,1.78-50.16,5.65C209.14,579.43,201.95,580.77,195.16,582.13Z"/>
            <path class="cls-4"
                  d="M308.7,610c4-3.48-1.49-18.28-11.88-28.14-6.42-6.09-14.68-9.32-29.88-9.4C265,568,259.28,559.57,236.17,550l-3.33-1.38c12.66-6.48,24.83-9,34.59-6.13,8.92,2.65,14.28,10.11,25,25,6.43,8.93,29.38,41.85,27.51,88.8-.89,22.26-15,58.78-22.51,75-56.13-1.1-60-3.16-94.16-4.5A147.46,147.46,0,0,1,214.58,705a47.42,47.42,0,0,0,6.55-17.32c0-.05,0-.11,0-.16,2.49-15.32,1.24-30.92-3.5-49.05,3.94-1.81,8-3.86,12.26-6a135.42,135.42,0,0,0,15.15-8.4L252,608.49l4.81-.38c18.07-1.35,27.28-2,35,0C302.58,610.88,306.34,612.06,308.7,610Z"/>
            <path class="cls-5"
                  d="M157.27,670.12c-1-14.32,1.83-29,7.32-43.18,6,8.84,13.34,15.41,21.37,17.7a95.21,95.21,0,0,1-13,13.51C167.51,663,162.87,667,157.27,670.12Z"/>
            <path class="cls-4"
                  d="M150.18,592.51c-3.11-13.87-3.45-28,0-38.82,15.56,4.24,29.92,12,41,23.79.85.91,1.66,1.83,2.46,2.75-.78.88-1.55,1.78-2.33,2.69C175.51,586.16,162,589.45,150.18,592.51Z"/>
            <path class="cls-5"
                  d="M150.5,673.15c-9.93,3.48-18.11,2.58-30,1.25-15.12-1.68-23-2.55-30-8.75a65.62,65.62,0,0,1-13.76-18.76c-2.56-5.18-3.06-8-6.25-10-5.24-3.36-14.18-2.55-18.76,2.5-4.35,4.8-3,11.47-1.25,20,.89,4.36,4.68,22.9,15,25,3.53.73,5.54-.94,10-2.5,17.77-6.19,36.43,2.61,36.27,3.75-.14,1-13.76-2.75-31.27,2.5-5.47,1.64-11.47,4.2-11.26,5,.15.56,3.25-.29,7.5,0,8.42.56,15.35,5.17,15,6.25-.23.73-3.55-.45-10,0-1.21.09-9.84.75-10,2.5-.14,1.38,5,3.2,9.48,4.51a25.49,25.49,0,0,0-3.16-.16,23.51,23.51,0,0,0-5.07.65,26.53,26.53,0,0,0-11.26,6.25c-4.19,3.74-8.94,8-10.63,9.44a57.27,57.27,0,0,1,7.5-18.82c-5-11.26-7-13.57-17.51-36.27-9.14-19.79-11.73-34.83-12.51-40-.49-3.28-.93-6.2-1.24-8.92a12.17,12.17,0,0,1,1.86-1.71,13.79,13.79,0,0,1,6.25-2.5c27.9-4.18,41.85-6.28,42.52-6.25,18.11.58,37.87-6.64,72.22-15.61C153,605,158,617.32,164.59,626.94c-5.49,14.14-8.34,28.86-7.32,43.18A44.25,44.25,0,0,1,150.5,673.15Z"/>
            <path class="cls-2"
                  d="M203.29,726.8c34.21,1.34,38,3.4,94.16,4.5,7.5-16.26,21.62-52.78,22.51-75,1.86-46.95-21.09-79.87-27.51-88.8-10.73-14.91-16.1-22.36-25-25-9.77-2.9-21.94-.35-34.59,6.13"/>
            <path class="cls-2" d="M217.66,638.48c3.94-1.81,8-3.86,12.26-6a135.42,135.42,0,0,0,15.15-8.4"/>
            <path class="cls-2"
                  d="M267.43,573.72c-.14-.38-.29-.8-.49-1.28C265,568,259.28,559.57,236.17,550l-3.33-1.38s0,0,0,0c-24.64-10.21-57.67-23-74.2-8.63a29.62,29.62,0,0,0-8.45,13.73"/>
            <path class="cls-2"
                  d="M204.92,598.32a77.92,77.92,0,0,0-9.77-16.2c-.5-.64-1-1.28-1.55-1.9-.8-.93-1.61-1.84-2.46-2.75-11.06-11.79-25.41-19.55-41-23.79-27.29-7.43-58.27-4-81.59,7.53C61.15,564.88,31.4,579.6,27.31,605a48,48,0,0,0,0,13.59c.31,2.71.75,5.64,1.24,8.92.78,5.19,3.36,20.24,12.51,40,10.49,22.7,12.51,25,17.51,36.27a57.27,57.27,0,0,0-7.5,18.82,34.25,34.25,0,0,0,0,13.69c38.77,0,101.3,2.5,148.83,1.25a67.81,67.81,0,0,1,3.39-10.76A147.46,147.46,0,0,1,214.58,705a47.42,47.42,0,0,0,6.55-17.32c0-.05,0-.11,0-.16,2.49-15.32,1.24-30.92-3.5-49.05-.08-.33-.16-.65-.25-1q-.84-3.17-1.65-6.17"/>
            <path class="cls-6"
                  d="M267.43,198.53c14.45-5.08,36.41,14.19,38.77,16.26,13.16,11.55,18.24,25.18,23.76,40,6.84,18.38,8.49,33.75,10,48.78a313.89,313.89,0,0,1,1.25,40c-.69,35.13-5.6,46.34,0,58.78.82,1.82,3.44,7.19,1.25,10s-7.61,1.67-10,1.25c-18.24-3.19-32.35-1-38.77-2.5C257,402.35,228.06,212.36,267.43,198.53Z"/>
            <path class="cls-6"
                  d="M211.15,192.28c-4.65.3-19.86,1.59-47.52,15-17.8,8.63-84.46,43.48-123.81,120.06A287.74,287.74,0,0,0,22.3,369.87c-8.5,26.33-10.73,46-15,83.79a691.94,691.94,0,0,0-5,72.54c-.43,32.39-.65,48.59,1.25,57.53A63.54,63.54,0,0,1,4.8,606.24c-.74,5.7-1.63,6-1.25,7.5,3.63,14.48,89.22,5.23,137.57,0,39.1-4.23,53.4-7.28,63.78-10,2.12-.56,14.53-3.84,31.27-7.5,18.9-4.14,25.13-4.78,27.51-5,10.3-1,20.87-2,33.77,1.25,17.61,4.37,15.37,8.19,20,6.25,6.25-20-7.11-147.26-7.5-172.59-.07-4.39,0-8.75,0-8.75.18-11.39,1-19.86,1.25-22.51,1.49-16,.47-20,2.5-63.78.65-14,1.06-20.15,0-30a148.5,148.5,0,0,0-5-25c-8.34-30.21-12.51-45.31-17.51-52.53C267.55,189.41,213.9,192.1,211.15,192.28Z"/>
            <path class="cls-3"
                  d="M157.37,348.61c-9-.31-15.88,6.18-21.26,11.26-6.32,6-13.19,15.21-21.26,46.27-3.79,14.59-5.45,24.77-8.75,45-1.2,7.35-2.88,22.41-6.25,52.53-.9,8.08-1.85,17.13,0,28.76,1.1,6.93,1.95,12.23,5,18.76,5.44,11.62,12.23,15,11.26,22.51-.3,2.29-.84,1.23-5,10-5.53,11.66-5.41,15.29-5,17.51a17.36,17.36,0,0,0,3.75,7.5c4.69,6,11.06,9.06,26.26,13.76,16.32,5,24.61,7.54,31.27,6.25A39,39,0,0,0,184.89,620c21.84-17.84,24.26-51.23,26.26-78.79a305,305,0,0,0,0-41.27c-.83-14.17-1.76-15.1-5-47.52-2.17-21.68-2.05-24.18-3.75-32.52-1.78-8.7-4.39-21.09-11.26-35C184.44,371.3,173.53,349.17,157.37,348.61Z"/>
            <path class="cls-3"
                  d="M91.09,630a20.76,20.76,0,0,1-1.25-8.75,18.79,18.79,0,0,1,3.75-10c5.14-6.33,14.1-6.29,20-6.25a38.91,38.91,0,0,1,16.26,3.75c5.2,2.47,8.54,4.05,10,7.5,3,7.19-4.49,16.78-10,21.26a29.7,29.7,0,0,1-15,6.25c-3.54.41-11.42,1.33-17.51-3.75C93.33,636.66,91.81,632.13,91.09,630Z"/>
            <path class="cls-3"
                  d="M101.1,633.76c-1.94,5.79.65,11.25,1.25,12.51,3.68,7.76,11.5,10.47,13.76,11.26,11.47,4,21.71-1.42,23.76-2.5a34.31,34.31,0,0,0,13.76-13.76c5.22-9.06,5.11-17.71,5-26.26-.11-8.78-.17-13.17-2.5-15s-6.46-2-47.52,25C106.61,626.31,102.7,629,101.1,633.76Z"/>
            <path class="cls-3"
                  d="M127.36,645c-.8,3.62,7.71,9.78,16.26,11.26,9.15,1.58,16.71-2.48,21.26-5,11.18-6.2,16.85-15.26,21.26-22.51,6.74-11.07,15-30,11.26-32.52-6.14-4.17-36.67,39.78-62.53,45C133,641.64,127.92,642.47,127.36,645Z"/>
            <path class="cls-6"
                  d="M100.47,298.79a115.46,115.46,0,0,0-6.87,34.81c-1.25,33.77-1.25,53.78,1.25,93.8,47.52,0,91.3,1.25,126.32,0,0,0,3.75-37.52-3.75-140.07-.57-7.73-3.75-17.51-3.75-17.51a78.43,78.43,0,0,0-10-18.76c-6.35-9.17-14.38-14.33-21.26-18.76-5-3.24-8.52-3-11.26-3.75a16.7,16.7,0,0,0-8.76.4"/>
            <path class="cls-7" d="M51.07,736.31"/>
            <path class="cls-8" d="M41.06,667.52c10.49,22.7,12.51,25,17.51,36.27"/>
            <path class="cls-9"
                  d="M194.89,840.11c4.79-1.13,7.33,1.78,16.26,2.5,3,.24,5,.1,15-1.25,22.05-3,21.36-3.52,27.51-3.75a119,119,0,0,1,21.26,1.25c6.89,1,10.33,1.47,13.76,2.5,4.87,1.46,7.12,2.81,11.26,2.5,4.39-.32,6.46-2.18,7.5-1.25,2.08,1.86-4.78,12.77-6.25,15-42.52-1.25-86.29,0-118.81-1.25C181.35,850.52,188,841.73,194.89,840.11Z"/>
            <path class="cls-10"
                  d="M238.67,797.59c-8.21-2.35-17.71,4.27-22.51,10-1.54,1.84-5.6,6.69-6.25,13.76-1.28,13.85,11.94,21.13,8.75,27.51-2.37,4.76-12.52,6.3-18.76,2.5-8.58-5.22-6.88-18.74-6.25-23.76,1.76-14,11-22.67,13.76-25a42.14,42.14,0,0,1,25-10c10.44-.68,24.2,2.33,25,7.5.39,2.51-2.22,5.72-5,6.25C247.65,807.26,245.82,799.64,238.67,797.59Z"/>
            <path class="cls-9"
                  d="M57.32,832.61c1.36-.39,1.79,3.13,6.25,6.25,6.15,4.3,14,4.35,25,2.5,14.52-2.44,25.73-3.12,43.77-3.75,1.67-.06,41.53-1.26,53.78,7.5a19.66,19.66,0,0,0,8.75,3.75c2,.3,6.62,1.23,10-1.25,1.64-1.2,2.25-2.64,2.5-2.5.51.29-2.68,5.76-5,13.76-1,3.34-.93,4.14-1.25,5-18.76,3.75-112.56-2.5-133.82-1.25a7.45,7.45,0,0,1-3.75,0C54.56,859.69,53.68,833.65,57.32,832.61Z"/>
            <path class="cls-10"
                  d="M126.11,852.62c2-4-5.07-7.91-7.5-18.76-1.54-6.89-1.32-17.12,3.75-23.76,10.19-13.34,36-6.94,36.27-10,.23-2.26-13.52-8.51-27.51-5S110.1,810,108.6,812.6c-3.39,5.87-4.2,11.06-5,16.26-1.51,9.74-2.9,18.75,2.5,23.76C111.92,858,123.82,857.08,126.11,852.62Z"/>
            <path class="cls-3"
                  d="M119.86,818.85a34,34,0,0,1,10-15,34.35,34.35,0,0,1,17.51-7.5c4.48-.72,10.65-1.71,17.51,1.25,8.63,3.73,12.47,11.16,13.76,13.76s5.05,10.46,2.5,20a26.18,26.18,0,0,1-6.25,11.26c-4.65,4.77-9.94,6.16-15,7.5-7.41,2-13.28,1.66-20,1.25-10.49-.63-15.74-.95-18.76-3.75C112.55,839.68,118.91,821.45,119.86,818.85Z"/>
            <path class="cls-3"
                  d="M146.12,803.84c5.61-7.6,14.59-9.42,17.51-10a30.58,30.58,0,0,1,11.33-.18,27.34,27.34,0,0,1,13.68,6.43c8.17,7.36,8.65,17.64,8.75,20a33.09,33.09,0,0,1-3.75,16.26c-2.17,4.65-4.59,9.84-10,12.51-1.31.64-3.44,1.46-12.51,1.25-11.22-.26-16.84-.39-20-2.5-7-4.64-8-14.06-8.75-21.26C141.63,819.48,140.73,811.15,146.12,803.84Z"/>
            <path class="cls-3"
                  d="M211.15,813.85a27,27,0,0,1,10-13.76c10.58-7.25,22.79-3.28,25-2.5a29.52,29.52,0,0,1,13.76,10c1,1.27,8.6,11.8,5,23.76a19.21,19.21,0,0,1-6.25,10c-2.16,1.7-4.48,2.61-17.51,3.75-15.2,1.33-17.42.57-18.76,0-7.21-3.05-10.48-9.58-11.26-11.26C207.12,825.14,210.06,816.9,211.15,813.85Z"/>
            <path class="cls-3"
                  d="M176.13,797.59c7.17-3.27,14.37-.68,16.26,0a25.32,25.32,0,0,1,13.76,12.51,27.65,27.65,0,0,1,2.5,15c-.21,3.14-.71,9.3-5,15a18.12,18.12,0,0,1-7.5,6.25,17.54,17.54,0,0,1-7.5,1.25c-10.39-.21-18.74-.38-23.76-6.25-6.25-7.32-3.09-18.51-1.25-25C165.33,810.32,167.87,801.36,176.13,797.59Z"/>
            <path class="cls-3"
                  d="M241.17,800.09c6-6.31,15.45-6.27,18.76-6.25,9.15,0,15.61,4.18,18.76,6.25,3.91,2.58,9.64,6.35,12.51,13.76.51,1.33,5,13.08-1.25,21.26-3.47,4.52-8.64,5.85-15,7.5a37.58,37.58,0,0,1-13.76,1.25c-2.45-.25-9.56-1-15-5C235.31,830.82,231.61,810.06,241.17,800.09Z"/>
            <path class="cls-3"
                  d="M261.18,800.09c3.93-4.71,10.12-5.68,13.76-6.25,2.53-.4,12.42-1.6,21.26,5a28.25,28.25,0,0,1,10,30c-.86,2.91-3.1,10.44-10,13.76-4.11,2-8.06,1.57-11.26,1.25a31.88,31.88,0,0,1-13.76-5C259.22,830.58,253,809.93,261.18,800.09Z"/>
            <path class="cls-11"
                  d="M146.2,241.68c-8.36,2.38-12.89,8.35-20.78,18.76a121.81,121.81,0,0,0-18.6,36.27c-4.19,12.93-5.35,23.13-6.56,33.77-2.05,18-1.48,32.75-1.09,43.77.83,23.31,3.15,24.55,1.09,35-.68,3.47-1.68,7.08,0,10,2.71,4.73,10,3.49,21.88,2.5,24.6-2,36.9-3.06,45.94-1.25,6.52,1.3,11.42,3.18,16.41,0,3.06-2,5.51-5.41,8.75-16.26,5.5-18.42,7-37.17,5.47-37.52-.87-.2-1.68,5.71-6.56,16.26-3.92,8.47-9,16.77-9.84,16.26-1-.6,5.24-12.57,9.84-32.52A197.15,197.15,0,0,0,196.52,338c1.17-13.76,2-23.48,0-36.27-2.66-17-8.62-28.7-13.13-37.52-4.21-8.25-6.41-12.45-10.94-16.26C171.53,247.15,160,237.76,146.2,241.68Z"/>
            <path class="cls-11"
                  d="M139.24,227.92c-6.65,0-15.11,2.57-36.27,23.76a308.16,308.16,0,0,0-22.51,25,320.61,320.61,0,0,0-37.52,60,289.93,289.93,0,0,0-16.26,42.52c-4.47,15.55-6.32,28.71-10,55-3.26,23.26-5.4,38.5-6.25,60-1.28,32.18,2.34,26.89,0,43.77-1.53,11-4.26,21.86,1.25,26.26.64.51,3.11,2.3,11.26,1.25C35.29,564,44.4,558,49.19,554.34c12.84-9.7,19.66-21,25-30,8.81-14.89,11.46-25.35,12.51-25,1.35.43-.66,18.85-10,37.52-9.76,19.51-24,32.21-30,37.52-17.54,15.4-32.81,21.3-31.27,26.26.59,1.88,3.35,2.86,11.26,3.75,23.47,2.64,35.21,4,45-2.5,11.12-7.32,13.67-22.39,18.76-52.53.6-3.56.57-3.83,3.75-38.77,3.07-33.76,4-43.33,0-45-2.64-1.12-5.86,1.87-17.51,12.51-6.92,6.32-30.72,28-31.27,27.51s20.26-15.12,31.27-41.27c6.54-15.55,7.51-30.08,8.75-48.78.21-3.14.41-7,0-40-.46-37.11-.79-38.66,0-46.27,2.08-20.2,4-36.37,16.26-48.78,8.61-8.7,19.54-12.73,22.51-13.76,17-5.87,26.44-.38,32.52-7.5,5.29-6.21,4.82-18.21-1.25-25C149.89,227.9,141.18,227.92,139.24,227.92Z"/>
            <path class="cls-11"
                  d="M238,286.7c-2.28.56.53,25.58,8.75,50a129,129,0,0,0,7.5,18.76c13.41,26.54,32.28,37.93,30,41.27-1.91,2.8-16.21-3.82-18.76-5-22.33-10.35-30.71-23.32-33.77-21.26-3.49,2.35,1.2,23.44,16.26,35,9.51,7.31,18,6.89,18.76,11.26.95,5.81-17.47,6.66-32.52,21.26-12.74,12.36-18.43,29.74-16.26,31.27,1.06.74,3.89-2.32,8.75-6.25,2.71-2.19,20.8-16.81,37.52-18.76,19.62-2.29,33.82,13.3,36.27,10,1.62-2.18-3.49-10.5-11.26-15-11.94-6.93-26.07-2.46-26.26-3.75-.16-1.1,10.21-3.62,25-8.75,9.38-3.25,12.64-4.82,12.51-6.25-.21-2.27-8.66-1.77-20-7.5-5.44-2.75-9.05-5.67-8.75-6.25.5-1,11,6.72,21.26,3.75,5.66-1.63,11.43-6.53,11.26-11.26-.22-6-9.83-10-12.51-11.26C258.95,372.43,242.32,285.64,238,286.7Z"/>
            <path class="cls-5"
                  d="M224.28,639.38c2.7-4.47,8.41-3.39,17.51-6.25,14.84-4.67,22.83-14.82,23.76-13.76.7.8-3.78,6.59-11.26,16.26-3,3.93-4.26,5.37-3.75,6.25,1.91,3.32,24.5-8,26.26-5,1.06,1.81-6.66,6.42-15,17.51-3.23,4.29-8.17,10.84-11.26,20-4.55,13.51-.35,18.61-6.25,30a37.44,37.44,0,0,1-8.75,11.26c-8.34,7.13-20.36,10.48-22.51,7.5-1.21-1.68,1.32-4.54,6.25-13.76s7.34-13.69,8.75-18.76c3.7-13.22-.11-28.17-2.5-37.52C223.8,646.36,222.22,642.8,224.28,639.38Z"/>
            <path class="cls-12"
                  d="M123,438c23.76-6.25,48.78-3.75,68.79-1.25,1.33,1.75,2.14,3.67,3.75,7.5,7.28,17.32,8.33,32.85,8.75,41.27,1.83,36.27,2.49,54.41-1.25,75-3.49,19.25-6.52,34.86-18.76,50a74.42,74.42,0,0,1-22.51,18.76c-15.42,8.28-31.71,9.7-32.52,7.5-.5-1.36,5.35-3.11,8.75-10,2.17-4.4,3-10.24,1.25-11.26s-4.4,5-12.51,10a29.45,29.45,0,0,1-15,5c-3.42.09-8.93.23-12.51-3.75-.19-.21-4.18-4.79-2.5-10,1.29-4,5.08-5.72,6.25-6.25,4.55-2,9.11-.87,12.51,0,6,1.55,9.59,4.33,10,3.75.52-.73-5.86-4.25-8.75-11.26a22.14,22.14,0,0,1-1.25-11.26c1.18-10.46,8.77-19.86,17.51-25,6.62-3.9,10.65-3.45,11.26-6.25,1.06-4.93-11-8.39-18.76-18.76-6.11-8.13-7-17-7.5-30C116.17,468,115.26,446.05,123,438Z"/>
            <path class="cls-12"
                  d="M156.75,620.62c-1.66,5.28,1.41,7.33,0,13.76-2.27,10.35-12.3,14.53-11.26,16.26s12.11-1.54,21.26-8.75c3.15-2.48,7.12-5.68,10-11.26,3.83-7.4,6-19.33,1.25-22.51C172.89,604.65,159.63,611.49,156.75,620.62Z"/>
            <path class="cls-12"
                  d="M316.83,425.52c-6.9,5-3.44,20.91,3.75,52.53,9.3,40.88,10.26,44,11.26,53.78,2.86,27.91-.84,42-2.5,47.52-4.28,14.18-10.76,23.32-10,23.76,1,.57,13.68-13,20-32.52,7-21.64,3.18-41.31,0-57.53-4.63-23.65-9.1-21.19-11.26-40-3-25.84,3.74-45.35-3.75-48.78C321.87,423.15,318.73,424.15,316.83,425.52Z"/>
            <path class="cls-12"
                  d="M121.73,825.73c-1.73-4.9,2.37-10.3,5-13.76a36.16,36.16,0,0,1,18.76-12.51c4.38-1.29,7.42-2.19,11.26-1.25,9.42,2.31,13.12,13.14,13.76,15,1.15,3.36,3.22,9.41,0,15-2,3.45-5.06,5-7.5,6.25-14.09,7-29.45-.42-33.77-2.5C123.59,829.26,122.28,827.28,121.73,825.73Z"/>
            <path class="cls-12"
                  d="M161.75,797c0-1.09,5.32-2.45,10-2.5a22.53,22.53,0,0,1,13.76,3.75c6.64,4.63,8.26,11.62,8.75,13.76.79,3.42,2.11,9.08-1.25,13.76a12.67,12.67,0,0,1-8.75,5c-.57,0-5.57.41-7.5-2.5-1.3-2-.09-3.72,0-7.5.13-5.27-2-9.27-3.75-12.51-2.29-4.27-4.43-8.25-8.75-10C163,797.7,161.76,797.48,161.75,797Z"/>
            <path class="cls-12"
                  d="M190.52,799.47c.27-.46,4.82.78,8.75,3.75,8.18,6.18,8.63,16,8.75,18.76.1,2.2-.13,3.84-1.25,5-2.12,2.21-6.07,1.3-6.25,1.25A4.29,4.29,0,0,1,198,827c-1.18-1.43-.46-3.46,0-6.25a23.94,23.94,0,0,0,0-10,19.13,19.13,0,0,0-3.75-7.5C192.26,800.78,190.33,799.79,190.52,799.47Z"/>
            <path class="cls-12"
                  d="M218,810.72c0-.63,0-2.26,4.62-6.25,3.57-3.11,5.7-5,9.24-6.25a22.91,22.91,0,0,1,15,0,22.67,22.67,0,0,1,12.7,8.75c1.33,2,4.64,6.79,3.46,12.51a11.12,11.12,0,0,1-3.46,6.25c-2.81,2.34-6.12,2-11.55,1.25a49.75,49.75,0,0,1-16.17-5c-2.32-1.19-4.63-2.88-9.24-6.25C219.26,813.24,218.15,812.2,218,810.72Z"/>
            <path class="cls-12"
                  d="M253.06,797c.16-.8,1.89-1,4.46-1.25a27.46,27.46,0,0,1,7.8,0,19.81,19.81,0,0,1,7.8,2.5c5.66,3.44,7.86,9.56,8.91,12.51,1.4,3.89,2.57,7.17,1.11,10-1.76,3.43-6.09,3.71-6.69,3.75s-4.33.29-6.69-2.5c-1.19-1.4-1.06-2.44-2.23-7.5-1.31-5.68-2-8.55-3.34-10s-1.83-.8-6.69-3.75C254.84,799.09,252.88,797.87,253.06,797Z"/>
            <path class="cls-12"
                  d="M273.06,795.71c.34-1.44,5.7-1.27,6.25-1.25a26.6,26.6,0,0,1,12.51,3.75c2.25,1.3,7.16,4.25,10,10,1,1.93,1.91,3.94,1.25,6.25a7,7,0,0,1-6.25,5c-3,.07-5-2.28-6.25-3.75-2.38-2.77-1.55-4-3.75-7.5-2-3.23-4.62-5.26-7.5-7.5C275.26,797.56,272.82,796.72,273.06,795.71Z"/>
            <path class="cls-12"
                  d="M78.1,749.44c-1.28,4.15-1.93,12.34-1.9,18.76,0,9.67,1.6,10.19,1.9,20,.23,7.61.49,16.32-1.9,26.26-.94,3.91-2.46,8.75-.95,13.76a12.57,12.57,0,0,0,2.84,5c3.62,3.69,9.41,3.48,12.32,0,2.66-3.18.81-6.56,2.84-15,1.86-7.74,5.3-12.78,8.53-17.51,3.73-5.46,6.14-9,10.43-11.26,4.85-2.56,10.27-2.52,12.32-2.5,4.37,0,5.33,1,7.58,0,3.87-1.71,5.83-6.66,7.58-11.26,6.69-17.58,10-26.37,9.48-28.76C124.54,748.19,100.84,745.69,78.1,749.44Z"/>
            <path class="cls-12"
                  d="M224.28,734.43c4.43-2.67,6.66.48,22.51,1.25,16.75.82,22.63-2.29,25,1.25.9,1.33,1.16,3.41-10,25-5,9.71-11.26,21.26-11.26,21.26h0A157.16,157.16,0,0,0,226.79,787c-12.64,3.19-16.66,7-18.76,5-2.51-2.37,2.15-8.78,6.25-21.26C221.49,748.77,216.85,738.92,224.28,734.43Z"/>
            <path class="cls-13"
                  d="M90.47,181.65c-.47-2.37,3.36-4.45,16.26-12.51,8.55-5.34,17.65-9.76,26.26-15a16.43,16.43,0,0,1,6.25-2.5c6.2-1,11.51,2.31,13.76,3.75,11,7,8,14.77,20,25,2.63,2.24,5.27,4,5,6.25-.4,3.34-6.84,4.87-11.26,6.25-25,7.79-35.57,26.3-43.77,21.26a15.74,15.74,0,0,1-2.5-2.5c-5.59-6.18-5-9.81-8.75-15s-8.83-8-12.51-10C93.56,183.51,90.84,183.54,90.47,181.65Z"/>
            <path class="cls-14"
                  d="M203.6,228.17c-5.16,14,35.17,41.09,45,66,2.26,5.72,5.17,10.15,11,19,4.25,6.45,6.23,8.59,9,9,5.76.86,11.16-6.26,14-10,7.78-10.25,10-20.95,11-26,4.86-25.38-3.71-36.07-8-45C271.17,211.14,209.76,211.43,203.6,228.17Z"/>
            <path class="cls-15"
                  d="M378.46,53.43c.91,1.13.82,3.28.65,7.59a45.2,45.2,0,0,1-2.35,11.91,57.3,57.3,0,0,1-3.83,10.14c-1.72,3.44-2.92,5.85-5.31,8.38a27.29,27.29,0,0,1-11.4,6.86,38.21,38.21,0,0,1-13.28,2.12c-12.63-.29-30.45-7.61-30.68-16.1-.15-5.67,9.09-10.29,27.57-19.53C351,59.23,373.9,47.76,378.46,53.43Z"/>
            <path class="cls-15"
                  d="M336.88,91.06A40.52,40.52,0,0,0,350,86.64c6.73-3.49,10.72-7.76,14.81-12.13,3.77-4,8.16-8.8,11.57-16.34a50.92,50.92,0,0,0,3.7-12.44c.25-1.3,1.75-8.89.17-9.48-.75-.28-1.37,1.33-3.8,2.29-1.75.69-2.85.42-5.28.52a36.26,36.26,0,0,0-6.64,1.06c-5.69,1.07-11.44-.38-17.6-.88-7.49-.61-13.1.38-19.78,1.55-7.49,1.32-13.19,2.37-19.52,6.15-4.52,2.7-8.45,5-10.33,9.58-3.82,9.24,4.12,19.8,5.33,21.42C311,89.05,325.78,92.61,336.88,91.06Z"/>
            <path class="cls-16"
                  d="M299.13,41.82c8.91,5.37,17.31,10.42,23.69,15.8,21.38,18,27.38,45.77,29.33,54.8a163.68,163.68,0,0,1,2.9,20.23c.74,9.06,1.11,13.59.49,18.28-.57,4.32-1.7,8.84-1.27,15.54a21.39,21.39,0,0,0,5.9,14A16.17,16.17,0,0,0,365,184.4a13.87,13.87,0,0,0,6,1.55c5.65,0,9.12-4.08,9.92-3.26.16.16.44.74-3.65,7a57.44,57.44,0,0,1-5.75,7.95,32.8,32.8,0,0,1-6.71,5.85c-5.18,3.32-9.11,3.44-9,4.63s3.7,2.14,6.84,2.2c4.19.08,6.71-1.54,7.25-.78s-1.25,3.74-3.81,5.54c-3.42,2.41-7,2.18-7,3,0,.45,1.53.88,4.58,1.71a25.25,25.25,0,0,1,3.78,1.06c2.55,1.17,4.43,3.45,4.09,4s-1.67-.74-4.51-1c-2.26-.2-2.56.43-6.53.7-2.38.16-3.54,0-3.63.39-.13.57,2.52,1.62,3.13,1.87a10.66,10.66,0,0,0,4.51,1c1.36,0,2.11-.4,2.18-.23s-2.16,1.88-4.84,2.72a18.27,18.27,0,0,1-8.78.21,34.28,34.28,0,0,1-7.56-2.12c-8.53-3.4-13.44-7.93-14-7.31-.32.38,1.52,1.89,3.52,5.49a34.8,34.8,0,0,1,3,7.74,36.13,36.13,0,0,1,1.5,7.17c.55,6-.86,11.94-1.66,11.91-.38,0-.26-1.34-1.11-3.55a17.1,17.1,0,0,0-5.93-7.43,21,21,0,0,0-6.19-3c-2-.71-2.68-.75-3-.41-.49.55.33,1.85,1.11,3.55,1,2.21,1.5,4.56,2.46,9.27.46,2.24,1.29,6.33.7,6.53s-1.51-2.71-3.52-5.49c-3.3-4.58-8-7.81-8.83-7.12-.27.22,0,.72.23,2.18a16.1,16.1,0,0,1-.18,5.15,15.28,15.28,0,0,1-2.93,6.91c-3.49,4.5-8.83,5.6-9,5.36s1.88-.69,2.67-2.49c1.07-2.44-.78-5.42-1.42-6.45-2.14-3.44-5.79-5.74-6.42-5.18-.22.19.08.57.16,1.45.21,2.3-1.38,4.21-2.36,5.39a20.53,20.53,0,0,1-4,3.37c-3.07,2.19-4.61,3.29-5.49,3.52-2.77.72-5.17-.25-8,.85a3.69,3.69,0,0,0-1.37.88,5.46,5.46,0,0,0-1.14,3.06c-.25,1.29-.76,2.51-1.06,3.78-1.07,4.47-5.06,11.32-6.17,10.93-.37-.13-.07-.94-.31-2.9a18.56,18.56,0,0,0-3-7.74c-1.37-2.24-3.07-4.22-3.37-4s1,1.71,1.19,4.27c.08,1,0,1.57-.91,5.23-1.14,4.77-1.35,5.3-1.63,5.31-.58,0-.56-2.22-2.07-5.65a18.86,18.86,0,0,0-4.32-6.14c-.74-.69-2.46-2.29-3.13-1.87s-.15,2.35.39,3.63c1.11,2.67,2.92,3.35,2.64,4.12-.36,1-3.84,1-6.6,0-1.07-.39-4.34-1.57-5.62-4.53-.91-2.11-.31-3.94-1.19-4.27s-1.71.84-2.75,1.76a17.77,17.77,0,0,1-8.39,3.83c-4.06.92-7.45-.16-10.38-1.09-6.68-2.12-11.3-6.33-11-6.89.13-.25,1.17.36,2.18-.23a2.9,2.9,0,0,0,1.22-2.33c.06-1.45-.94-2.52-1.84-3.47-.73-.78-1.09-1.16-1.61-1.3-2.39-.61-5.22,3.93-5.41,4.25a9.23,9.23,0,0,0-1.63,5.31c.12,2.6,1.57,4,1.19,4.27-.6.5-4.42-2.76-7.3-6.55-2.49-3.28-2.73-4.94-2.8-5.57-.24-2.47.84-4,.26-4.43-.78-.54-3.59,1.67-5.41,4.25-.53.75-3.48,4.91-2.62,9.81.38,2.17,1.32,3.43,1.11,3.55-.36.21-3.37-3.49-5.28-8.24-1.14-2.85-2.19-5.44-1.66-8.62s2.2-4.54,1.63-5.31c-1.09-1.47-7-.28-10.64,3.34a13.35,13.35,0,0,0-3.65,7c-.41,2.51.15,4.32-.26,4.43s-2.15-2.93-2.87-6.29a21.1,21.1,0,0,1-.13-8.05c.94-5.52,3.5-8.41,2.7-9.09-.65-.55-2.5,1.16-5.57,2.8a32.55,32.55,0,0,1-11.37,3.42,32.28,32.28,0,0,1-14-.7c-3.2-.93-6.33-2.45-6.19-3,.1-.38,1.66.1,3.63-.39,3.82-.94,6.58-4.87,6-5.77-.46-.7-2.59.92-6.53.7-3-.17-6.15-1.35-6.11-2.28,0-.49,1.9-1,5.65-2.07,5.77-1.61,7.67-2.13,9.12-3.91.36-.44,1.64-2,1.14-3.06-.59-1.23-3.28-1-8.13-.6-4.68.41-7,.61-9.35,1.73-3.55,1.71-4.8,4-5.49,3.52-.9-.58.45-5,2.77-8.36a22.29,22.29,0,0,1,6-5.77c4.15-2.79,7.74-3.44,7.67-3.75-.13-.56-6.69-.64-13.7,2.2-7.27,2.94-10.75,7.29-11.78,6.39-.76-.65.85-3.76,4.07-10,2.93-5.66,4.16-7,5-7.87,3-2.9,5.56-3.45,5.41-4.25-.31-1.67-9.95-1.13-14.74-.62-6.82.72-10.74,1.13-15,3.8-1.57,1-3.06,2.21-3.47,1.84-.66-.6,2-4.85,4.3-7.79,6.08-7.94,13-11.78,12.61-12.35-.25-.4-3.35,1.94-8.47,3.11a21.66,21.66,0,0,1-11.76-.21c-5.27-1.73-9.14-5.7-8.75-6.4.21-.38,1.55.44,3.7.34,2.33-.11,4.28-1.23,6.29-2.87a58.63,58.63,0,0,0,12.38-14.53,80.65,80.65,0,0,0,8.78-20.74c2.69-10.14,1.14-11.81,3.09-26,1.08-7.88,2.54-18.07,7-30.09a87.39,87.39,0,0,1,12.82-24.11A84.1,84.1,0,0,1,146.8,50.78c17.82-13.95,41.08-23.18,57.52-24.49a128.17,128.17,0,0,0,18.05-2.66,55,55,0,0,0,12.09-3.49A33.3,33.3,0,0,0,244.8,13.9c6-5.65,7.11-12.22,8.26-11.89s.37,6-.44,9.58c-.7,3.11-1.2,5.35-2.85,7.64-3.12,4.34-7.67,5.14-7.43,5.93.32,1.08,8.78-.57,13.05-1.4,7.59-1.47,11.38-2.21,15-3.8,3.08-1.36,5.1-2.68,5.65-2.07s-1.27,4-3.73,6.27c-3.61,3.36-6.87,3.31-6.86,4.4,0,1.9,9.92,2,21.23,6.53C290.43,36.6,293.38,38.36,299.13,41.82Z"/>
            <path class="cls-17"
                  d="M294.6,201.83c1.3-.93,3.11,1.06,9.17,3.42,6.73,2.63,13.29,3.61,13.52,3s-6.38-3.48-6.27-3.73,5.18,2.61,12.14,3.84a31.88,31.88,0,0,0,12.48.13c5.86-1.22,9.41-4,9.92-3.26s-1.83,3.1-3.89,4.82a27,27,0,0,1-12.59,5.75c-9.75,1.6-18.42-2.05-18.52-1.69s6.3,1,9.4,5.6c1.58,2.36,2,5.34,1.35,5.72s-2-2.4-5.62-4.53c-2.74-1.63-3.93-1.15-9.09-2.7-4.46-1.34-6.7-2-8.44-3.5C293.74,210.85,292.52,203.32,294.6,201.83Z"/>
            <path class="cls-17"
                  d="M260.57,37.88c-.34.45,1.93,2.89,4.17,4.69,3.26,2.62,5.68,3.25,5.54,3.81-.2.79-5.21.39-9.58-.44A47.16,47.16,0,0,1,247,41.53c-3.8-2-6.61-4.11-7-3.65s3.4,3.63,2.72,4.84-6.38.31-11.26-2.46c-6.92-3.94-9.36-9.87-11.24-9.07-1.24.53-1.17,3.55-.91,5.23.91,5.86,6.13,8.26,5.44,9.69-.79,1.62-8.64.73-15.69-2.72-4.88-2.39-7.19-4.94-12.3-5.29a18.58,18.58,0,0,0-5.8.62c-3.43.81-13.11,3.09-20.82,11-1.92,2-6.14,6.8-9.74,18.64C153,93,155.86,122.3,159.27,133.06a28,28,0,0,1,1.32,12.33,29.45,29.45,0,0,1-2.12,7.56c-1.09,2.68-3,7.48-6.89,11-6.6,6-15.52,5.3-15.41,6.78.08,1.09,4.92,1.59,5.31,1.63,5.19.51,8.25-1.11,8.78-.21s-2.44,2.83-5.18,6.42c-3.35,4.39-4.38,8.68-5.78,14.55-.3,1.27-2.81,11.79-.86,12.56,1,.4,2.13-2.31,6.06-5,4.23-2.95,9.3-4.25,9.92-3.26.41.65-1.49,1.69-3.16,4.74-1.87,3.41-1.13,5.11-2.46,11.26-1.17,5.39-2.59,8-2,8.29s2.52-3.35,7.2-8.1,7.72-6.17,9.53-6.89c2.6-1,6.5-2,7.25-.78.38.62-.31,1.39-1.71,4.58-1.33,3-2.13,4.86-1.63,5.31.69.62,3.18-2.05,7.59-4.48,5.16-2.83,10-3.7,14.19-4.45,4.63-.83,6.38-.6,8.7-.93,10.84-1.56,23.49-14,23-25.19-.47-10.13-11.44-13.36-9.73-22.43,1.09-5.78,6.5-9.53,7.69-10.36,3.95-2.73,5.63-1.7,14.92-4.53a98.69,98.69,0,0,0,14.76-6c7.74-3.64,8.91-5,9.61-6.16,3.18-5.19.41-11.59,1.66-11.91,1.08-.28,3.36,4.5,4.48,7.59a19.93,19.93,0,0,1,1.19,4.27c.18,1.27.76,6.33-1.81,10.46-3.13,5-9.11,5.76-8.81,6.81.24.84,4.05.51,6.6,0,3.18-.6,7.28-1.38,10.49-4.79a18.79,18.79,0,0,0,4.22-8.52c.64-2.61.57-4.48,1-4.51s1.61,3.11,1.42,6.45a23.2,23.2,0,0,1-2.12,7.56c-1.28,3.16-2.11,4.18-1.71,4.58.66.66,4.1-.83,6.22-3.6,1.87-2.45,1.14-3.88,2.7-9.09a38,38,0,0,1,4.15-9.24c2.41-3.83,5.42-6.83,5.91-6.5s-2.62,3.93-3.34,9.89a17.12,17.12,0,0,0,.93,8.7,16.73,16.73,0,0,0,5.13,6.79c2.88,2.36,4.08,1.9,12.3,5.29,6.31,2.6,8.17,3.94,9.32,4.87a30.11,30.11,0,0,1,5,5.34,41.84,41.84,0,0,1,6.24,10.33c2.08,5.14.8,5.58,2.61,10.72,1,2.82,2.95,8.37,7.92,12.35,6,4.82,13.49,5,13.67,4.41s-4.68-1.34-7.95-5.75c-2.16-2.91-3-6.56-2.23-7.1s2,1.77,5.46,3.08a15.82,15.82,0,0,0,7.41.67c.42,0,7-.66,7.1-2.23.11-1.39-5-1.36-9.32-4.87-4-3.3-5.18-8-6.7-14.68-1.37-6-1.07-8.21-2-18.85-1-11,2.4-18,1.05-21-4.57-10.19-4.84-8.57-4-9.84.74-1.1,2.69,2.62,3.13,1.87s-.93-25-6.08-29.42c-2-1.73-14.44-32.19-31.4-22.68.81-5.77,6.36-9.62,4.56-12.22-1.41-2-5.64-1.6-6-1.55-3,.35-3.26,2.65-5.57,2.8s-4.28-1.94-7.15-5.1c-1.79-2-3.5-3.86-4.4-6.86-.73-2.43-.49-4.12-1.19-4.27s-2.45,1.83-2.51,3.94c-.09,3.08,3.22,4.93,2.8,5.57-.54.82-6.29-1.75-11.5-4.64-3-1.65-5.6-3.31-10.93-6.17C262,38.11,260.78,37.6,260.57,37.88Z"/>
            <path class="cls-18"
                  d="M284.84,148.23a7.58,7.58,0,0,1-1,4.51c-1.17,1.78-3.26,2.75-4.77,3.44a18.93,18.93,0,0,1-2.82,1c-1,.28-9.42,2.7-10.15,1.09-.34-.76,1.37-1.57,3.16-4.74.85-1.5,2.37-4.7,1.63-5.31s-4,2.87-9.61,6.16c-6.82,4-14.26,5.74-14.92,4.53-.29-.53.95-1.25,2.51-3.94,1.75-3,2.77-6.51,2.2-6.84s-2.54,3.57-7.28,7.38a34.06,34.06,0,0,1-7.59,4.48c-3.35,1.57-6.83,2.77-14.19,4.45-9.82,2.24-9.88,1.51-16.52,3.23A87.5,87.5,0,0,0,190.67,173c-9.21,4.25-12.08,7.58-13,8.72a27.4,27.4,0,0,0-3.73,6.27,20.22,20.22,0,0,0-2,8.29,19.59,19.59,0,0,0,1.5,7.17,34.92,34.92,0,0,0,5.44,9.69c2.53,3.37,4.71,5.27,8.9,8.93,1.32,1.15,3.75,3.21,4.1,2.88s-1.46-2.08-2.8-5.57c-1.54-4-.88-6-.7-6.53s.79-2.18,1.94-2.41c1.75-.34,4.34,2.62,4.25,5.41a5.18,5.18,0,0,1-1.14,3.06c-1,1.14-2.09,1.34-2,1.68s2.37.49,4.43.26a24.51,24.51,0,0,0,5.72-1.35A51.52,51.52,0,0,0,211.93,214a45,45,0,0,0,6.79-5.13c2.7-2.56,4-4.51,4.69-4.17s.57,2.6-.26,4.43c-1.6,3.52-5.49,4.63-5.34,5s4.05-.66,9.19-3.18a74.4,74.4,0,0,0,9-5.36c5.78-3.81,8.67-5.72,10.18-7.69,3.76-4.92,3.21-9.27,4.87-9.32,1.94-.06,4.73,5.79,4.14,11.29-.21,2-.67,2.2-.41,3,2,6.15,34.17,2.13,34.31-1.47,0-.93-2.1-1-4.09-4a15.07,15.07,0,0,1-2.15-6.37,17.17,17.17,0,0,1-.05-7.33c.43-1.84,1.31-3.95,1.79-3.86s0,2.65.62,5.8a17.9,17.9,0,0,0,3.75,7.67c2.52,3.24,5.25,4.75,9.55,7,5.65,3,10.51,4.39,10.69,4s-2.36-1.19-4.09-4c-.8-1.28-1.57-3.19-1.11-3.55.78-.6,3.57,4.51,9.55,7,3.76,1.59,7.36,1.56,13.36,1.5,4.17,0,5.81-.49,5.8-.62s-3.55.46-6-1.55c-.21-.17-2.17-1.8-1.84-3.47.42-2.1,4.2-2.84,6.29-2.87.78,0,4.71-.08,6.11,2.28s-1,5.2-.1,5.88c1.32,1.05,9.57-3.61,12-11.55,1.54-5.1.16-9.84-.59-12.4a19.31,19.31,0,0,0-3.75-7.67c-2.74-3.23-6-4.42-10.93-6.17-5.84-2.06-6.72-1.4-14.32-3.6-6.45-1.87-5.22-2.17-11.42-3.91-6.41-1.8-9.13-1.87-12.95-4.48a18.28,18.28,0,0,1-4.89-4.61c-4.8-6.81-2.72-15.78-3.16-15.8S284.79,141.1,284.84,148.23Z"/>
            <path class="cls-15"
                  d="M251.3,157c1.22.4,1.84,2.19,1.84,3.47,0,.89-.32,1.51-1.79,3.86-2.1,3.35-2.15,3.19-2.51,3.94-.93,1.94-.51,2.9-.75,6.68a40.68,40.68,0,0,1-1.32,8.21,26.35,26.35,0,0,1-2.93,6.91,25.91,25.91,0,0,1-7.28,7.38c-7.86,5.46-17,6.34-22.74,6.83a65.69,65.69,0,0,1-21.42-1.38c-10.56-2.63-13.18-6.44-14.06-8A9.56,9.56,0,0,1,177,189.1c.46-4.06,4-6.6,7.12-8.83,1.71-1.2,5.09-3.36,12.59-5.75,6.13-2,7.07-1.53,16.45-4,2.38-.62,6.63-1.73,12.09-3.49,7.54-2.44,7.58-3,12.74-4.3,3.83-1,5-1,7.1-2.23C248.39,158.67,249.71,156.43,251.3,157Z"/>
            <path class="cls-15"
                  d="M299.08,151.11c.66-.14,1.42.07,4.74,3.16,4.54,4.22,5.37,5.92,8.18,7.93a24.29,24.29,0,0,0,6.19,3c1.7.64,3.62,1.25,12.79,3,5.13,1,6.82,1.26,9.09,2.7,1.47.93,3.43,2.22,4.17,4.69a8.37,8.37,0,0,1-.83,6c-2.74,5.84-9.23,8.25-15,10.41a33.7,33.7,0,0,1-10.72,2.61c-5.26.29-9.12-.9-13.44-2.23-5.88-1.81-7.8-3.53-8.52-4.22a12.55,12.55,0,0,1-3.52-5.49c-.82-2.74-.32-5,.52-8.86.88-4,1.51-4.05,2.12-7.56s0-4,.67-7.41C296,156.22,296.85,151.6,299.08,151.11Z"/>
            <path class="cls-15"
                  d="M292.8,209a4.39,4.39,0,0,0-.31-2.9c-1.79-3.56-9.56-3.09-15.69-2.72-5.09.31-8.87,1.52-16.45,4-1.56.5-4.11,1.37-4.77,3.44a4,4,0,0,0,.31,2.9c.48.83,1.42,1.63,5.39,2.36a39.85,39.85,0,0,0,7.41.67A64,64,0,0,0,281,215.38a27.75,27.75,0,0,0,7.1-2.23C292.07,211.23,292.64,209.63,292.8,209Z"/>
            <path class="cls-15"
                  d="M277.81,212.79c.43,1.43,0,2.75-.91,5.23a19.75,19.75,0,0,1-1.79,3.86c-3.07,5-8.42,7.91-8.73,7.53s2.91-2,5.18-6.42c.79-1.53,3-5.88,1.81-10.46-.56-2.1-1.54-3.12-1.11-3.55C273,208.28,277,209.92,277.81,212.79Z"/>
            <path class="cls-15"
                  d="M147,73.49c-5.89-1.83-11.68.08-20.23,2.9-7,2.31-11.55,5.17-19.45,10.15a96.66,96.66,0,0,0-16.89,13.54c-4.44,4.47-6.13,7.07-6.24,10.2-.11,2.94,1.2,5.42,3.18,9.19a37,37,0,0,0,5.2,7.51,36.56,36.56,0,0,0,8.83,7.12,32.13,32.13,0,0,0,12.95,4.48c3.59.39,6.61.72,9.43-1,3.44-2.1,4.5-6,5.26-5.7s-.3,2.72,0,6.6c.25,3.61,1.44,7.14,2.23,7.1s.3-3.11,2.2-6.84c.54-1.07,3.08-6,6.71-5.85a5,5,0,0,1,3.94,2.51c1.53,2.81-.88,6,0,6.6s5-2.44,9.45-7.61c2.62-3.06,7.64-8.93,10.05-15.74C169.34,102.45,161.39,77.95,147,73.49Z"/>
            <path class="cls-15"
                  d="M167.48,113.84a22.87,22.87,0,0,1-7.85,8.91c-4.74,3.27-9.3,3.87-14.92,4.53a61.46,61.46,0,0,1-19.16-.88c-5.17-1-12-2.41-19.06-6.76a80.59,80.59,0,0,0-10.85-5.44c-2.68-1.1-4.51-1.67-6.76-1.48s-2.75.95-5.72,1.35a16.43,16.43,0,0,1-5.88-.1C73,113,70,110,70.21,109.58s2.19,1.15,5.23.91,5.75-2.21,5.57-2.8c-.12-.38-1.34,0-3.7-.34-2.09-.31-4.63-1.13-4.58-1.71s2.58-.39,6.45-1.42a23.66,23.66,0,0,0,7-3c2.46-1.63,3.24-3.12,5.91-6.5,0,0,.1-.13,7.2-8.1,1.84-2.07,17-19.12,36.16-18.54a30.69,30.69,0,0,1,11.26,2.46c7.42,3.28,11.35,8.87,13.8,12.46C163.46,87.35,173.2,101.57,167.48,113.84Z"/>
            <path class="cls-17"
                  d="M247.5,200.26c-1.3-.28-1.77,2.51-5.91,6.5-4,3.83-8,5.58-13.8,8.08-7.07,3.05-6.51,1.37-11.76,3.9-.57.28-2,1-2.43.55-.81-.9,3.57-5.62,3-6.19-.4-.41-2.85,1.75-6.86,4.4-2.3,1.52-2.21,1.29-10.33,6.24-3.48,2.12-5,3.05-6.06,5s-1.31,3.9-1.79,3.86,0-2.06-1.19-4.27c-.85-1.59-2.2-2.6-4.89-4.61-.66-.49-.62-.43-1.8-1.27-3.63-2.58-5.18-4-5.35-3.83s4.49,3.31,5.28,8.24c.68,4.23-1.88,7.92-2.7,9.09-3.91,5.63-10.34,7.35-10.18,7.69s5.73-1.54,12.82-3.57c2.71-.78,4.57-1.27,5.08-.54.75,1.07-2.35,3.44-3.58,7.72-1.07,3.74-.82,7.81.13,8.05s1.87-3.88,5.67-8.67c3.13-3.94,6.45-6.07,10.1-8.41,6.21-4,12.31-6.25,12.59-5.75.17.32-2.21,1.29-4,4.09-1.94,3.09-2.3,7.08-1.4,7.48s2.61-4.22,7.85-8.91c3.18-2.84,6.72-4.59,13.8-8.08,3.92-1.93,6.91-3.13,10.33-6.24.7-.64,1.9-1.79,2-1.68.28.26-6.49,7.07-5.75,7.95.6.71,6.7-1.81,10.26-7C252,212.37,250,200.81,247.5,200.26Z"/>
            <path class="cls-17"
                  d="M287.7,204.34a.72.72,0,0,1-.26,1.32c-22.12,4.06-27.79,4.36-28,3.6-.23-.94,2.83-3.41,10.41-5.51,3.92-1.09,12.49-1.7,16.11-.26A11.58,11.58,0,0,1,287.7,204.34Z"/>
            <path class="cls-17"
                  d="M210,183.52a5.61,5.61,0,0,0,.49,5.57c2.11,3,6.82,2.89,10.29,2.83a28.9,28.9,0,0,0,13.7-4c.62-.33,3.23-2.56,2.66-4s.34-2-7.38-4c-3.61-.95-7-.81-10.13-1C218.7,178.88,211.92,179.54,210,183.52Z"/>
            <path class="cls-17"
                  d="M298.94,176.13a5.93,5.93,0,0,0,0,5.13c1.44,2.89,5.12,3.2,7.82,3.42a19.84,19.84,0,0,0,11-2.57c.51-.26,2.7-2.08,2.35-3.42s.4-1.8-5.48-4.28c-2.75-1.16-5.38-1.31-7.82-1.71C306.08,172.59,300.76,172.64,298.94,176.13Z"/>
            <path class="cls-2"
                  d="M247.6,242.17a30,30,0,0,1,8-8c5.25-3.55,10.07-4.35,14-5a13,13,0,0,1,6,0,12.16,12.16,0,0,1,6,4"/>
            <path class="cls-17"
                  d="M258.1,241.67c1.5-2.12,4.33-2.42,10-3,6.13-.63,9.19-.95,11,1,2.38,2.56,1.44,7.26,0,10-2.63,5-8.2,5.89-9,6s-7.4.93-11-4C257.14,249,256.08,244.54,258.1,241.67Z"/>
            <path class="cls-12"
                  d="M317.1,44.67c.4-2.46,8.07-3.13,18-4,8.68-.76,13-1.14,19,0,5.44,1,6.75,2.27,11,2,7.08-.45,10.24-4.33,12-3,2.44,1.85-1.24,11.21-5,18-4.7,8.48-15.21,23.25-22,21-2.22-.74-1.87-2.58-6-9a73.69,73.69,0,0,0-13-15C322.84,47.64,316.74,46.91,317.1,44.67Z"/>
            <path class="cls-12"
                  d="M86.1,102.67c-.28-2,4.12-3.07,10-9,2.44-2.46,2.46-3.06,5-6s7.28-8.43,14-12a32.44,32.44,0,0,1,18-4c12,1,19.36,9,23,13,4.09,4.45,9.79,10.66,8,16-1.55,4.61-7.85,6.09-16,8-12.74,3-23.27,2-34,1-4.16-.39-8.44-1.26-17-3C89,105,86.31,104.16,86.1,102.67Z"/>
        </g>
    </g>
</svg>