<?xml version="1.0" encoding="utf-8"?>
<!-- Generator: Adobe Illustrator 21.0.0, SVG Export Plug-In . SVG Version: 6.00 Build 0)  -->
<svg version="1.1" id="Слой_1" xmlns="http://www.w3.org/2000/svg"  x="0px" y="0px"
	 viewBox="0 0 1211.8 1889.1" style="enable-background:new 0 0 1211.8 1889.1;" xml:space="preserve">
<style type="text/css">
	.st0{fill:#FFEFCC;}
	.st1{fill:#FFDE8D;}
	.st2{fill:#FFD561;}
	.st3{fill:#FFD039;}
	.st4{fill:#FECC0C;}
	.st5{stroke:#000000;stroke-width:6;stroke-linecap:round;stroke-linejoin:round;}
	.st6{fill:#282828;}
	.st7{fill:#0B1523;stroke:#000000;stroke-width:6;stroke-linecap:round;stroke-linejoin:round;}
	.st8{fill:#162B4C;}
	.st9{fill:#E3E4E5;}
	.st10{fill:#FFFFFF;}
	.st11{fill:none;stroke:#000000;stroke-width:6;stroke-linecap:round;stroke-linejoin:round;}
	.st12{fill:#992C44;stroke:#000000;stroke-width:6;stroke-linecap:round;stroke-linejoin:round;}
	.st13{fill:#FFFFFF;stroke:#000000;stroke-width:6;stroke-linecap:round;stroke-linejoin:round;}
	.st14{fill:#04080C;stroke:#000000;stroke-width:6;stroke-linecap:round;stroke-linejoin:round;}
	.st15{fill:#C4395E;}
	.st16{fill:#D9D9D9;stroke:#000000;stroke-width:6;stroke-linecap:round;stroke-linejoin:round;}
	.st17{fill:#D9D9D9;}
	.st18{stroke:#000000;stroke-width:6;stroke-miterlimit:10;}
</style>
<rect y="1686.8" class="st0" width="200" height="202.3"/>
<rect x="200" y="1484.5" class="st1" width="202.3" height="404.5"/>
<rect x="402.2" y="1282.3" class="st2" width="202.3" height="606.8"/>
<rect x="604.5" y="1078.3" class="st3" width="202.3" height="810.8"/>
<polygon class="st4" points="1100,1889.1 806.8,1889.1 806.8,1043.4 806.8,876 1100,876 1100,1191.4 "/>
<path class="st5" d="M921.2,821.7c1.3,4.6-1.1,4-1.6,24.6c-0.1,4.2-0.2,12-0.8,23.4c-0.2,4-0.4,5.9-0.4,6.2
	c1.2,10.7-53.8,5.3-86.6,4.9c-3.3,0-8.2-0.7-10.3-2.9s-0.4-6.7,2.1-12.3c6.9-15.9,12.7-23.4,12.7-23.4c19.5-25,13.8-33.6,25.4-40.2
	C881.3,790.8,916.3,804.6,921.2,821.7z"/>
<path class="st5" d="M995.8,811.5c-2.3,3.5-3.1,11.9-4.7,28.7c-1.1,11.2,0,8.3-0.9,17.2c-0.8,6.9-0.6,14,4.1,16
	c18.7,8.2,90.8-1.2,97.4,0.4c1,0.2,2.1,0.2,3.2,0c2.6-0.6,4.7-2.4,5.7-4.9c1.1-3.7-1.5-8.2-2.5-9.8c-14.6-24.7-56.8-41-56.8-41
	C1003.6,803.6,998,808.2,995.8,811.5z"/>
<path class="st5" d="M878.7,881.9c-4.8-1.9-9-5.2-11.9-9.5c-4.3-6.6-4-13.4-3.8-16.5c0.2-2.8,0.9-15.1,10.5-21.3
	c6.5-4.3,13.7-3.6,17.8-3.2c3.9,0.4,8.8,0.9,13.3,4.2c8.8,6.5,8.8,18.8,8.8,26.3c0,4.8-0.1,9.5-3.2,14c-2.4,3.4-5.9,6-9.8,7.3
	C890.4,887.2,881.1,883,878.7,881.9z"/>
<path class="st5" d="M877.3,842.7c-1.2-2.2-4.3-7.8-10.8-10.5c-10.9-4.5-21.7,3.1-22.8,3.8c-4,2.9-7,6.9-8.8,11.5
	c-2.5,6.8-1.1,12.8,0,17.5c0.9,4,1.7,7.2,4.2,10.5c4.9,6.5,12.4,7.9,15.1,8.4s9,1.7,14.7-1C880.9,877,884.4,856,877.3,842.7z"/>
<path class="st5" d="M845.1,844.1c-3.7-2.3-7.9-3.4-12.3-3.2c-9.3,0.6-14.8,7.7-16.1,9.5c-3.2,4.3-5,9.4-5.3,14.7
	c-0.4,4.5-0.8,10.3,2.8,14.7s9.6,5,16.8,5.6c5.5,0.5,8.6,0.8,12.3-0.7c7.4-3,12-11.2,12.6-18.9C856.5,857.1,852.4,848.8,845.1,844.1
	z"/>
<path class="st6" d="M906.8,849c1.1-3.1-1.7-6.7-2.8-8c-4.4-5.6-11.3-6.4-13.7-6.7c-2.7-0.3-12.9-1.1-19.3,6
	c-0.8,0.9-5.6,6.2-3.8,11.2c1.2,3.3,4.5,4.8,5.6,5.3c4,1.8,7,0.7,18.6-2.1S905.8,851.6,906.8,849z"/>
<path class="st6" d="M865.8,835.3c-0.8-2.4-7.7-1.8-8.8-1.8c-3,0.2-8.7,0.7-13.3,5.3c-1.4,1.4-4.3,4.3-4.6,8.8
	c-0.1,3.1,0.9,6,2.8,8.4c4.4,5.1,13.3,5.8,16.4,2.5c1.3-1.4,0.3-2.1,2.1-9.5c1-4.3,1.5-6.4,2.8-8.8
	C864.9,837.3,866.2,836.5,865.8,835.3z"/>
<path class="st6" d="M835,843.8c-0.9-1.3-5.6,0.2-8.8,1.8c-4.4,2.1-12,7.4-10.8,11.9c0.6,2.2,2.9,3.3,4.2,3.8
	c4.1,1.9,9.8,1.2,11.6-1.8c1-1.8-0.4-2.8,0-6.3C831.8,847.7,835.9,845.1,835,843.8z"/>
<path class="st7" d="M1115,578c1.8,10.5-0.2,14.7-4.9,39.7c-6.4,34.2-4.4,36.1-11.6,70.8c-3.7,17.8-5.6,26.8-9.2,35.7
	c-5.9,14.7-10,17.4-17.7,36.3c-4,9.6-7.5,18.2-9.8,30c-4.2,21.5-1.8,28.3-1.8,35.7c-22,4.5-65.5,1.9-73.5,0.2
	c-0.2,0-1.7-21.5,1.4-38.8c2.7-16.5,4.3-33.2,4.9-49.9c0.8-16.1,0-32.2-2.4-48.2c-4.1-25.5-10-30.3-13.4-47
	c-1-5-11.8-61.6,26.3-92.4c24.1-19.5,66.7-27.7,91-9.6C1110.6,552.7,1114.2,573.3,1115,578z"/>
<path class="st7" d="M1028.1,656.4c-9.3,4.2-20.4,9.1-32.5,22.5c-6.9,7.6-12.1,17.9-22.6,38.5c-13.5,26.5-20.3,39.8-24.5,56.7
	c-7.7,30.6-7.5,36.3-8.8,47.6c-34.6,3.4-62.8-0.6-95.5-4c12.6-32.9,10.8-32.2,33.3-107.7c7.3-24.6,8.3-39.7,13.2-68
	c3.2-18.9,4.3-31.8,10.1-59.5c6.7-32,10.9-42,15.7-50.4c8.2-14.4,19.4-34,35.2-36.8c22.4-4,54.6,25.5,76.4,60.3"/>
<path class="st5" d="M1029.7,876c5.1-2,9.4-5.5,12.5-9.9c4.6-6.9,4.2-14.1,4.1-17.3c-0.2-2.9-0.9-15.8-11-22.5
	c-6.8-4.5-14.4-3.7-18.8-3.3c-4.1,0.4-9.3,0.9-14,4.4c-9.2,6.9-9.2,19.8-9.2,27.6c0,5.1,0.1,10,3.3,14.7c2.6,3.6,6.2,6.3,10.3,7.7
	C1017.3,881.6,1027.1,877.2,1029.7,876z"/>
<path class="st5" d="M1031.2,834.8c1.2-2.3,4.5-8.2,11.4-11c11.5-4.8,22.8,3.3,23.9,4c4.2,3.1,7.4,7.3,9.2,12.2
	c2.6,7.2,1.1,13.5,0,18.4c-1,4.2-1.8,7.5-4.4,11c-5.2,6.8-13.1,8.3-15.8,8.8s-9.5,1.8-15.5-1.1
	C1027.3,870.9,1023.6,848.8,1031.2,834.8z"/>
<path class="st5" d="M1065,836.2c3.9-2.4,8.4-3.6,12.9-3.3c9.8,0.7,15.6,8.1,16.9,9.9c3.3,4.5,5.3,9.9,5.5,15.5
	c0.4,4.8,0.9,10.9-2.9,15.5s-10.1,5.2-17.7,5.9c-5.8,0.5-9.1,0.8-12.9-0.7c-7.8-3.1-12.6-11.7-13.3-19.9
	C1052.9,849.9,1057.3,841.2,1065,836.2z"/>
<path class="st6" d="M1036.7,841.4c0.6-3,0.1-6.2-1.5-8.8c-3.2-5.2-9.8-5.9-13.6-6.3c-3.1-0.3-11.4-1.2-17.3,4.4
	c-1,1-5.7,5.3-4.8,10.7c0.7,4.3,4.6,6.7,7.4,8.5c1.3,0.8,13,8.1,22.5,2.2C1030.2,851.6,1035.6,848,1036.7,841.4z"/>
<path class="st6" d="M1042.9,826.7c1.5-2.8,6.7-2.7,9.2-2.6c9.6,0.3,15.2,7.8,15.5,8.1c1.5,2,4.9,6.7,3.3,11.4
	c-1.5,4.3-6.4,6-10.7,7.4c-1.5,0.5-11.3,3.7-14,0c-1.4-2,0.7-3.8,0.7-8.8C1047,833.8,1041.1,830.1,1042.9,826.7z"/>
<path class="st6" d="M1076.5,836.2c1.1-1.6,7.1,0.3,11.4,3c2.7,1.7,6.9,4.3,7,8.5c-0.1,1.9-0.8,3.8-2.2,5.2
	c-4.6,4.8-14.8,3.5-16.2,0c-1-2.4,2.9-4.3,2.6-9.2C1078.8,839.4,1075.6,837.5,1076.5,836.2z"/>
<path class="st8" d="M1031.8,594.5c-18.9,5.1-24.8,8.7-34,10.8c-13.4,3.1-24.5,1-32.9-0.6c-11.3-2.1-28.5-5.4-41.4-18.7
	c-7.3-7.5-10-15-13.6-14.2s-4.4,9-5.7,18.7c-3,23.3-0.1-10.4-10.2,60.7c-1.4,9.7-2.4,17.6-4.5,33.4c-1.1,8.2-1.6,12.4-1.7,13.6
	c-1.1,22,7.5,35.9,4.5,37.4c-1.8,1-6.5-3.7-9.1-7.4c-3.4-5-3.3-9-4.5-9.1c-2.1-0.1-3.9,12.3-6.2,24.4c-4.3,22.1-6.4,33.1-10.8,43.1
	c-5.8,13.1-12.3,20.4-9.1,24.9c1.5,2.1,4.1,2.4,9.6,2.8c17.4,1.4,26.1,1.3,34,1.7c16.3,0.9,20.9,3.8,24.9,0
	c2.8-2.7,2.6-5.9,3.4-15.9c0.9-10.8,3.2-21.5,4.5-32.3c2.1-17.4,3.2-26.1,3.4-27.2c2.5-11.6,6.5-22.8,11.9-33.4
	c11.3-23.6,23.3-35.2,21.5-36.8s-13.3,7.7-22.7,17c-8.9,8.9-16.7,18.8-23.2,29.5c-0.2-0.1,9.7-23.9,32.9-46.5c7.4-7.3,7-5.4,36.3-30
	c16.2-13.7,14.1-12.4,23.2-19.8c22.2-18.2,34.7-26,33.4-28.3C1045.6,591.6,1044.2,591.1,1031.8,594.5z"/>
<path class="st8" d="M1079.9,616c-11.5,9.1-14.9,5.6-35.7,15.9c-10.2,5-19.7,11.3-28.3,18.7c-5.4,4.7-10.9,10.4-10.2,11.3
	c0.9,1.2,10.4-7.3,27.2-12.5c7-2.1,14.2-3.5,21.5-4c5.9-0.4,14.3-1.6,14.7,0s-7.3,3.8-19.8,10.8c-6.5,3.6-13.4,7.4-20.4,13.6
	c-8.1,7.1-16.6,17.4-14.7,19.8c2.3,3,19.5-7.9,21-5.7c0.8,1.3-4.6,5-10.8,12.5c-2.6,3.2-4.3,5.7-15.9,27.2
	c-7.7,14.4-9.5,17.9-8.5,18.7c2.4,2,17.3-16.5,22.1-13.6c3.4,2-2.1,12.3-5.1,33.4c-3,21.5,0.8,24.3-4,36.3
	c-5.3,13.2-13.8,19.8-11.3,23.2c1.6,2.2,5.6,0.6,15.3-0.6c20.5-2.4,27,1.9,31.2-2.8c3.9-4.3-0.1-9.5-1.1-23.8
	c-1.3-18.8,3.8-33.7,6.2-40.8c3.6-10.5,5.2-9.4,15.3-30.6c8-16.7,14.5-30.5,11.3-32.9c-4-3-20.8,14.7-23.2,12.5
	c-1.8-1.6,5.7-12.5,10.8-19.8c14.4-20.8,16.2-18.1,19.8-26.6c5.3-12.5-0.4-14.1,5.1-39.1c0.7-3.1,1.8-7.9,0-9.1
	C1090.2,606.7,1085.1,611.9,1079.9,616z"/>
<path class="st9" d="M1046.3,256.7c2.8,4.5,6.8,12.5,6.3,39.1c-0.1,3.6-0.2,7.2-0.3,10.8c-10.8,1.7-22.6,1.8-33,1.9
	c-21.1,0.2-41.9-4-61.4-12.2c-3.7-1.5-12.7-5.3-22.8-10.6c-3.6-8.6-5.8-17-4.4-27c0.8-5.2,2.1-14.5,9.7-22.1
	c20.5-20.5,65.1-7.1,66.9-6.5C1014.1,232.2,1035,238.7,1046.3,256.7z"/>
<path class="st10" d="M1052.3,306.6c-0.8,21.9-3.3,44.6-16.9,70c-8.6,16.1-17.8,33.3-29.8,33.1c-3.6,0-10.3-1.7-38.3-54.2
	c-14.7-27.5-4.2-10.9-26.9-58.2c-1.9-4-3.8-7.9-5.4-11.6c10.1,5.3,19.2,9.1,22.8,10.6c19.4,8.2,40.3,12.3,61.4,12.2
	C1029.7,308.4,1041.5,308.3,1052.3,306.6z"/>
<path class="st11" d="M1052.3,306.6c0.1-3.6,0.2-7.2,0.3-10.8c0.5-26.6-3.4-34.6-6.3-39.1c-11.3-18-32.2-24.5-38.9-26.6
	c-1.8-0.6-46.4-13.9-66.9,6.5c-7.6,7.6-9,16.9-9.7,22.1c-1.5,10,0.7,18.4,4.4,27c1.6,3.8,3.4,7.6,5.4,11.6
	c22.7,47.3,12.2,30.6,26.9,58.2c28,52.5,34.7,54.1,38.3,54.2c12,0.2,21.1-17,29.8-33.1C1049,351.1,1051.6,328.5,1052.3,306.6z"/>
<path class="st12" d="M988.7,267.3c2.8,9.6,2.9,19.8,4.6,29.6c2.4,13.6,2.5,25.2,2.6,36.3c0.1,13.8,0.2,22.4-1.7,34
	c-3.5,21.5-9.6,28.3-5,39.6c2.2,5.6,4.3,5.3,8.7,14.8c5.7,12.2,5.3,19.1,8.3,19.7c4,0.8,10.5-10.7,15.1-23.2
	c2.6-7.2,15-43.3,0.9-94.6c-3.6-12.8-8.4-25.3-14.3-37.2c-7.6-14.8-10-13.6-14.5-22.6c-0.4-0.9-1.9-3.9-3.2-3.7
	c-1.1,0.2-1.8,2.8-1.8,4.7C988.4,265.6,988.5,266.5,988.7,267.3z"/>
<path class="st12" d="M978.5,263c-0.2,3.3,1.5,6.1,2.4,7.8s3.9,6.7,9.8,8.3c7.7,2.3,15.8-2,18.2-9.7c0.6-2,0.8-4.2,0.5-6.3
	c-0.6-5.9-4.7-12.4-11.3-14.1C988.6,246.5,978.8,255.4,978.5,263z"/>
<path class="st13" d="M1000.1,244.5c0.7,3.8-6.7,4.8-13.6,13.1c-14.1,17.1-12.4,21.9-13,32.1c-13-3.9-48.5-41.8-33.5-55.4
	C952.2,223.2,998,233.6,1000.1,244.5z"/>
<path class="st13" d="M991.3,241.6c-0.9,3.7,8.8,5.7,16.1,18.5c7.7,13.4,8.7,19.5,10.1,27.7c7.4-4.9,32.3-32.3,26.2-47.7
	C1036.9,222.8,993.1,234.1,991.3,241.6z"/>
<path class="st7" d="M927.1,251.3c-4.6-1.6-7.5,4.6-29.8,15.6c-6.8,3.4-13.9,6.4-21.1,8.8c-11,3.5-16.5,5.3-20.6,4.9
	c-2.9-0.4-5.9-0.1-8.7,1c-1.5,0.5-2.9,1.6-3.8,2.9c-0.8,1.5-1,3.2-0.5,4.9c1.2,5.5-1.1,14.7-1.1,21.9c0.1,29.3,20.6,79.8,20.6,79.8
	c10.7,26.4,11.7,23.3,25.4,56.9c10.8,26.4,14.6,39,17.3,51.1c3.1,13.6,4.9,27.4,5.4,41.3c0.6,20.4,4.4,34-3.3,41.8
	c-0.9,0.9-2.4,2.3-2.2,3.9c0.9,5.3,19.8,6.8,32.5,7.8c23,1.8,35.7-0.5,40.1-1.5c9.4-1.9,14-4.2,16.2-5.3c2-1.1,13.7-4.5,20-13.1
	s12.8-19.7,13.5-24.3c5-31.3-6-65.1-6.5-72.5c-2.5-35.8,3.8-47.3,0.5-54.5c-4-8.8-1.9-21.2-23.3-27.2
	c-15.6-22.1-30.9-37.1-42.2-56.4c-12.4-21.1-18.6-31.6-20.6-38.9C927.9,273.5,935.1,254.1,927.1,251.3z"/>
<path class="st7" d="M930.9,239.2c-3.7,3-4.1,4.5-7,7.3c-1,0.9-1.9,1.7-11.9,6.8c-11.8,6.1-13.3,6.5-14.6,6.8c-6.1,1.4-9,0.2-10.3,2
	c-1.9,2.6,2.7,8.1,6.5,12.6c24,28.6,19,24.4,24.9,30.1c11,10.7,20.3,17.5,18.4,20.4c-0.6,1-2.4,1.3-6,2c-6.2,1.1-9.1,0.1-10.3,1.5
	c-1.7,2,2,7,2.7,7.8c18.7,20.2,29,27.5,29,27.5c34.3,26.6,38.4,28.2,44.4,32.1c11,7.2,20,4.4,21.4,27c0.1,2,2.2,6.5,2.7,6.3
	c0.8-0.2,0.4-7.5-2.2-14.6c-3-8.3,10-10.5-6.8-22.6c0,0-11.1-8.8-17.9-17.5c-9.5-12.1-13.5-20.9-24.4-41.8
	c-5.6-10.8-13.9-25.3-18.7-44.5c-5.4-21.8-8.1-32.7-8.1-37.9c0-5.5,0.4-14.5-3.3-15.6C937.2,234.1,933.9,236.8,930.9,239.2z"/>
<path class="st14" d="M1119.6,466.7c-3.4,4.7,7.9,22.1,20.3,37.3c7.5,9.2,19.1,23.6,21.4,19.8
	C1175.5,500.4,1139.5,447.8,1119.6,466.7z"/>
<path class="st5" d="M1120.1,479.9c-9.2-0.3-18.2,2.3-25.9,7.3c-3.3,2.1-10.8,7-14.3,16.2c-4.3,11.2-0.6,23.7,7.6,31.9
	s18.5,10,21.9,10.5c7.7,1.1,15.5,0.3,22.8-2.4c6.2-2.3,11.7-6,16.1-10.9c3.6-3.9,6.2-8.6,7.6-13.7c0.6-2.2,2.4-9.6-0.4-17.4
	C1150.5,488.2,1134.2,480.5,1120.1,479.9z"/>
<path class="st6" d="M1121,485.5c-1.3-0.2-6.5-0.8-7.8,1.5c-1,1.7,1.1,3.4,1.5,7.3s-1.4,4.6-3.4,11.7c-1.5,5.1-2.3,8-1.5,11.7
	c0.3,1.4,1.5,6.5,5.4,8.3c2.6,1.2,4.6,0,7.8,2c1.6,1,1.5,1.5,2.9,2.4c3.1,2,6.7,1.4,9.3,1c5.4-0.9,9.1-3.3,12.8-5.8
	c5.5-3.8,8.3-5.6,8.8-8.3c0.4-2.1-0.2-4.9-11.3-15.6C1131.7,488.3,1125.7,486.1,1121,485.5z"/>
<path class="st7" d="M1086.6,263.5c1.2-1,4.3-3.7,7.6-2.9c1.9,0.5,3.1,2,5.8,5.8c2.3,3.1,4.4,6.4,6.3,9.7c1.8,3.6,6,9,14.3,19.9
	c15.8,20.7,23.7,31,34.8,43.3c12.6,13.8,14,13.3,28.6,29.7c14.3,16,19.1,23.4,21.9,33.1c2,6.9,5.6,19.6,0,28.7
	c-8.9,14.5-36.1,11.4-53.2,3.4c-6.5-3-11.9-7.7-22.8-17c-9.3-8-21.5-18.5-33.5-34c-11.4-14.8-20.3-26.4-25-44.3
	C1061.2,300.5,1080.1,269.1,1086.6,263.5z"/>
<path class="st13" d="M1116.3,477.7c3.6,0.5,8.3,2.6,17.9,10.3c5.2,4.3,9.8,9.3,13.5,14.9c6.9,10.5,9.9,15.4,10.3,19.1
	c2.8-2.8,5.9-5.9,10.3-14c2.9-5.3,4.3-7.9,4.8-10.3c2.6-14.5-16.5-30-27.4-35.9c-6.6-3.5-10.1-3.5-12.7-2.3s-3.1,3.3-8.8,8.9
	C1118.8,473.7,1117.1,475.8,1116.3,477.7z"/>
<path class="st7" d="M1150.1,406.5c-9.7,11.6-15.3,26.2-15.6,27c-3.5,9.3-3.5,14-8.6,22.4c-3.4,5.7-4.7,8.9-7,12.1
	c2.7,0,6.1,0.8,11.7,1.9c10.3,2,17.2,10.3,21,14.9c4.5,5.4,9.1,11,10.5,19.6c1.7,10.5,0.4,17.7-0.8,20c2.3-1.4,5.7-5,8.2-8.9
	c7.3-11.1,13.9-22.6,19.9-34.5c7.6-14.8,10.5-20.6,14-29.8c3.9-10.1,4.7-14.5,5.1-18.2c0.9-8.7-0.3-17.5-3.5-25.6
	c-1.6-3.8-3.7-11.4-14.2-22.6"/>
<path class="st11" d="M1180.6,385.8c-5.9-0.5-11.8,0.2-17.4,2c-4.8,1.5-10.4,3.3-15.2,8.3c-6.6,6.9-7.4,15.4-8.9,15.1
	c-1.4-0.3-1.2-7.3-0.9-11.7c0.5-6.6,1.6-18,9.4-28.7c2.4-3.3,5.3-6.2,8.5-8.8"/>
<path class="st11" d="M1118.5,338.6c-0.7,9.6-0.4,19.2,0.9,28.7c3.2,23.1,11.9,42.8,13.4,42.3c0.7-0.2-1.2-5.1-0.9-13.6
	c0.1-3.7,0.8-20.4,12.1-29.7c2.8-2.2,6-3.9,9.4-4.9"/>
<path class="st11" d="M1144.1,350.8c-8.1,7.8-11.4,19.2-8.8,30.1"/>
<path class="st11" d="M1189.1,381.4c-4.8-2.8-10.1-4.5-15.6-4.9c-4-0.2-11.9-0.7-19.2,4.9c-4.3,3.4-7.6,8-9.4,13.1"/>
<path class="st11" d="M1155.6,399.9c3.7-1.4,7.6-2.2,11.6-2.4c3.9-0.2,9.9-0.6,16.1,2.4c8.3,4,11.8,11.8,13.4,10.7
	c1-0.7,0.4-4.1-0.4-6.3c-3.7-10.1-17.1-12.3-19.2-12.6"/>
<path class="st8" d="M1103.3,278.3c-0.4,0.4,7.9,9.4,10.3,23.8c0.9,5.5,0.2,7.7-0.4,19c-0.8,11.7-0.8,23.3,0,35
	c-1.4-6.9-0.6-14,2.2-20.4c2.9-6.2,8-11.1,9.4-10.2c1.2,0.8-1.4,5.2-2.7,13.6c-0.8,5.1-0.1,13.2,1.3,29.2c0.1,1.2,0.9,10.2,1.3,10.2
	s-1.6-9.8,2.2-19.5c0.5-1.3,4.9-11.8,13.8-14.1c3.8-1,8.2-0.4,8.5,1s-4.6,2.7-8.9,7.3c-7.1,7.4-8.2,19-7.2,19.5
	c0.7,0.3,1.7-4.1,6.3-8.3c4.3-3.8,9.9-5.9,15.6-5.8c7.5,0.2,14.2,4.4,13.8,5.8c-0.3,1.3-5.5-0.9-11.2,2
	c-7.8,3.9-11.1,14.4-10.3,15.1c0.6,0.5,2.8-4.6,8.9-7.8c6.9-3.6,14.3-2.4,17.4-2c6.8,1,10.1,3.5,10.7,2.4c1-1.6-4.9-9.2-13-14.1
	c-10.2-6.3-21.1-6.6-21-7.8c0.1-0.9,6.7,0.1,7.6-2.4s-5-7.3-6.3-8.3c-3.2-2.5-8.1-6.4-13.8-5.4c-5.3,1-7.6,5.4-8.9,4.4
	s-0.5-7,2.7-9.2c4.4-3.1,11.2,2,12.1,0.5s-5.3-6.7-12.1-14.6c-2.6-3-2.6-3.3-13-18C1112.5,290.1,1103.8,277.9,1103.3,278.3z"/>
<path class="st8" d="M1152.9,387.8c-0.3-0.5,2.7-3.1,5.8-4.9c3.2-1.8,6.7-3,10.3-3.4c7.8-0.9,13.8,1.7,17.4,3.4
	c4,1.8,7.8,4.4,7.6,4.9s-5.9-2.5-14.7-3.9c-5-1-10.2-1-15.2,0C1157.5,385.3,1153.2,388.4,1152.9,387.8z"/>
<path class="st8" d="M1150.2,413.3c1.9-2.2,4-2.8,8.4-4.1c3.9-1.2,8.1-2.4,13.3-1.8c7.7,0.9,14.7,4.9,19.4,11
	c5.7,7.3,7.8,16.8,6.9,17.4s-3.6-6.9-10.7-12.8c-9.1-7.6-19.6-7.9-19.8-6.9s8.4,3,18.7,12.4c9.5,8.7,10.3,14.4,10.3,17
	c0,1.3-0.1,2.5-1.5,6.9c-2.7,8.3-6.3,16.3-10.7,23.8c-2.7,4.6-5.6,9-8.8,13.3c-7.2,10-8.8,10-9.5,9.6c-1.5-0.8-0.6-4.4-1.5-9.2
	c-1.9-10.4-10.3-16.5-14.1-19.2c-3.1-2.2-9.8-7.1-18.3-6.4c-2.8,0.2-5.7,1.1-6.1,0s2.4-3.1,6.1-6.9c3.3-3.4,7.9-8.1,10.7-14.7
	c0.8-2,1.6-5.9,3-13.7C1147.9,418.7,1147.8,416,1150.2,413.3z"/>
<path class="st8" d="M1164.5,391.6c-0.1-0.5,7.4-3.8,16.5-2.4c6.5,1,12.5,4,17,8.8c4.7,5,7.8,11.3,8.9,18c1.8,9-0.3,15.9,0.4,16
	s3.5-6.5,3.6-14.1s-2.4-17.9-8.9-23.8C1188.9,382.1,1164.7,392.6,1164.5,391.6z"/>
<path class="st7" d="M1049.2,242.1c3.3-1.3,6.1,8.5,15.5,11.2c5.4,1.5,7.5-0.8,13.3,2c2.4,1.3,4.9,2.5,7.6,3.4
	c1.9,0.7,3.8,1.2,5.8,1.5c6.1,0.6,9.5-2.9,11.6-2.9c15.8-0.2,19.5,97.3,19.5,97.3c2,51.1,0.4,113.9-3.6,140.1
	c-1.8,11.5-2.1,17.9-2.7,30.6c-0.5,9.9-0.3,14,0.4,18.5c1.5,9.3,2.6,16.1,7.1,21.9c0.9,1.1,1.7,2,1.8,3.4
	c0.2,5.3-11.5,9.8-15.1,11.2c-17.9,6.9-34.8,4.4-42.2,2.9c-9.5-1.9-19.4-4.1-28.9-12.7c-4.7-4.4-8.6-9.4-11.6-15.1
	c-5-8.8-7.6-17.6-9.8-30.6c-2.3-13.8-3.5-27.8-3.6-41.8c-0.5-36.8-0.8-55.2,0.4-67.1c1.7-16.2,10.2-29.2,17.1-58.6
	c9.7-41.5,8.2-46.7,9.6-64.9c0.9-12.7,4.7-25.2,4.9-37.9C1046.6,250,1046.5,243.1,1049.2,242.1z"/>
<path class="st7" d="M1032.3,229c-3.1,3.1,5.7,14.1,7.1,36c0.1,1.4,0.1,2.4,0.2,3.6c0.2,7.8,3,22.9-3.9,56.5
	c-7.6,36.4-13.1,54.6-16.4,66.1c0,0-3.4,9.8-4.9,27.2c-0.3,3.2-0.8,11,0,11.2c1.1,0.2,5.5-11,10.2-24.8c1.7-5.1,7.1-12.5,15.1-30.1
	c12.9-28.5,25.6-46.2,24.7-50.3c-0.4-1.9-2.7-3.1-5.8-4.9c-5.4-3-8.8-2.5-9.3-4.4c-0.6-2.1,9.5-11.5,25.8-46.2
	c5-10.8,7.2-15.3,5.3-18c-1.6-2.3-4.4-1-11.1-2.9c-5.3-1.6-9-4-13.8-7.3c-7.1-4.8-8-7.1-13.8-9.7
	C1037.1,228.9,1033.8,227.4,1032.3,229z"/>
<path class="st7" d="M839.9,289.3c3.6-0.7,7,1.9,9.3,3.9c14,12,20.1,24.8,20.1,24.8c5.2,10.9,3,10.6,12.3,46.2
	c2.9,11,5,18.2,3.4,28.2c-1,5.8-2.8,11.3-5.4,16.5c-2.8,6.2-6.6,12.3-17.7,25.3c-9.9,11.6-14.9,17.5-19.6,21.4
	c-6.1,5-21.3,17.3-43.2,19.5c-8.6,0.8-21.3,2.1-28.5-5.8c-5.3-5.8-5.3-14.3-5.4-18.5c-0.1-8.3,2.4-14.5,4.4-19
	c7.2-16.5,15.3-28.6,21.1-37.5c11.4-17.3,17.1-25.9,21.6-33.6c1.6-2.8,11.2-16.7,17.2-32.6c2.3-6.2,2.8-8.9,2.9-10.7
	c0.9-9.2-2.8-12.7-0.5-19.5C832.3,297.2,834.7,290.3,839.9,289.3z"/>
<path class="st5" d="M902.7,513.5c3.9-1.5,9,2.4,19.1,10.2s15.3,14.6,16.7,16.5c4.9,6.8,8.3,11.6,7.8,18c-0.4,3.6-1.6,7.1-3.4,10.2
	c-1.1,1.9-3.1,5.5-5.4,6.8c-8.1,4.7-33.1-10.7-39.3-33.1C895.2,530.9,896.4,515.9,902.7,513.5z"/>
<path class="st5" d="M888,527.6c5.9-3.9,20.5,8.5,29.9,16.5c11.5,9.8,14.8,16.8,16.2,21.4c1.5,4.5,1.8,9.4,1,14.1
	c-0.5,3.4-1.9,6.5-3.9,9.2c-2.4,3.1-6.7,6.5-10.8,6.8c-8.9,0.8-16.4-12.8-21.1-21.4C891.4,559.9,880.5,532.5,888,527.6z"/>
<path class="st5" d="M882.1,542.2c2.8-2.5,24.7,14.2,31.9,32.1c2.1,5.2,2.6,9.6,1.5,13.6c-0.4,1.6-1.7,6.2-5.9,8.8
	c-6.1,3.7-13.5-0.1-15.2-1c-2-1-7.4-4.2-9.3-10.2c-0.5-1.5-0.7-3,0.5-13.1c1.1-9.7,1.4-9.3,1.5-11.7
	C887.2,549.3,880.5,543.6,882.1,542.2z"/>
<path class="st14" d="M856.6,539.3c-0.3,2.4-3.2,10.9,0.5,12.7c9.6,4.5,46.8-48.9,41.2-55C893.9,492.3,860.4,512.6,856.6,539.3z"/>
<path class="st13" d="M892.9,500.8c5.9,1.9,21.6,14.6,23.6,16c-1.5,3.4-27,33.1-32.9,50.6c-2.4-1-3.2-2-5.4-3.4
	c-10.3-6.6-15.1-12.9-25-21.9c-4.1-3.7-4.5-3.7-4.9-4.9C843.5,524.8,874.9,495.2,892.9,500.8z"/>
<path class="st7" d="M844.3,441c4.6,2.8,4.9,2.3,15.2,16.5c5.1,7,12.6,13.5,26.5,27.2l12.3,12.2c-3.4,2-14.7,14.4-23.1,23.3
	c-3.6,3.8-12.3,13.2-14.7,19.9c-1.6,4.4-2.9,9.7-2.9,9.7c-0.2,0.8-0.4,1.5-0.5,2c-61.4-51.1-78.3-58-89.3-87.1
	c0-0.1-4.7-13.4-1.7-22.1"/>
<path class="st15" d="M996.7,285.1c-0.5,0.1,2,8.4,3.9,21.4c2.4,16.1,3.5,24.1,2,34c-1.5,9.5-2.4,19.2-3.9,28.7
	c-0.2,1.3-0.2,2.6,0,3.9c0.9,6.1,13.3,19,19.1,10.2c5-7.4,3.7-11.1,4.9-16.5c2.9-13.1-2.9-33.9-7.4-47.7c-2.5-7.8-4.8-13.1-9.3-23.8
	c-4.7-11.1-5.3-11.2-5.4-11.2c-0.5,0.2,0.8,4.7,3.9,17c3,11.9,4.7,18.4,4.4,18.5C1008.3,319.8,997.8,284.8,996.7,285.1z"/>
<path class="st15" d="M988.3,265.7c0.1,3.4,2.5,5.5,3.5,6.3c1.8,1.6,4.2,2.3,6.6,2c1.3-0.2,4.5-0.7,5.8-3.9c1.4-3.5-0.5-7.7-1.9-9.7
	c-1.2-1.8-3.2-3.1-5.4-3.4c-3.8-0.4-6.2,2.9-6.6,3.4C989.1,261.8,988.4,263.7,988.3,265.7z"/>
<path class="st8" d="M891.7,263.3c1.2-1.5,4.2,0.1,10.8-1c5.1-0.9,9.9-2.9,14.1-5.8c9.8-6.1,13.1-13.2,14.1-12.6s-0.7,9-7.6,15.1
	c-5.8,5.2-10.9,4.9-12.4,9.2c-0.9,2.5,0,4.9,3.3,11.2c6.5,12.4,10.3,17.5,10.3,17.5c13,17.7,18.5,23.8,17.9,24.3
	c-0.8,0.6-11.1-8-20.6-18.5c-6.7-7.5-5.6-7.6-14.6-18.5C896.3,271.5,889.8,265.7,891.7,263.3z"/>
<path class="st8" d="M943.6,329.9c-0.4-0.8-2.8-0.1-10.8,0.5c-3.9,0.3-5,0.3-5.4,1c-0.9,1.6,2.7,4.7,6.5,8.3
	c7.6,7.1,3.3,4.4,13,13.6c1.7,1.6,7.4,7,19.5,17c17,14.1,23.6,18.2,26.5,19.9c5.8,3.5,14.1,7.9,14.6,7.3s-10.4-8.6-29.8-23.4
	c-25.9-19.7-41.8-32.8-38.4-39.4C940.5,332.4,944.2,330.9,943.6,329.9z"/>
<path class="st8" d="M935,258.9c-1.1,0.2,2.3,22,9.8,44.8c3.2,10,7.2,19.8,11.9,29.2c4.7,9.6,10.3,18.8,16.8,27.2
	c10.7,13.8,22.6,23.9,23.3,23.4s-9.5-10.3-21.7-28.2c-5.5-8.1-13.4-19.9-20-36c-3.2-7.9-2.4-7.8-11.9-37
	C938,266.6,935.5,258.8,935,258.9z"/>
<path class="st8" d="M1034.7,237.5c2.8,6.1,5.1,12.4,6.9,18.8c1.5,5.6,2.6,11.4,3.3,17.2c0.4,3.8,1.9,17.2-1.3,37.5
	c-1.1,6.8-3.6,15.8-8.4,33.6s-5.9,20-9.3,33.1c-1.2,4.3-8.7,32.7-7.6,33.1s10.8-29.6,17.3-49.6c4.4-13.7,6.5-20.6,8.4-29.7
	c2.2-10.1,3.7-20.3,4.4-30.6c0.6-9.3,1.1-16.5,0-25.3C1045.7,253.2,1034.9,237.4,1034.7,237.5z"/>
<path class="st8" d="M1050.7,242.3c-0.4,0.6,2.3,4.1,5.8,6.8c4.8,3.7,7.4,3.1,9.3,5.8c1.9,2.8,1.5,6.4,0.4,11.7
	c-2.9,14.7-7.4,25.1-7.1,25.3s3.4-12.8,12.4-26.3c2.5-3.7,5.7-7.9,4.4-11.2c-0.8-2-2.9-3-7.1-4.9c-3.6-1.6-4.6-1.5-8.4-2.9
	C1054.1,244.3,1051.1,241.7,1050.7,242.3z"/>
<path class="st8" d="M1051.6,322.1c-0.7,1.3,3.1,3.3,4,7.8c0.7,3.7-1.1,6.7-4.4,12.6c-8.9,15.6-10.7,19.1-11.6,20.9
	c-3.6,7.5-5.7,14.4-5.3,14.6c0.6,0.3,6.8-15.7,15.1-28.7c2.3-3.6,4.1-7.7,6.7-11.2c1.8-2.3,3.1-5,4-7.8c0.6-2.1,1.1-3.7,0.4-5.4
	C1059,321.2,1052.4,320.5,1051.6,322.1z"/>
<path class="st7" d="M1040.4,428.1c-2.3-2.5-5.5-3.9-8.8-3.9c-0.9,0-5.6,0.2-8.3,3.9c-3.5,4.6-1,10.5-0.5,11.7
	c0.7,1.5,2.5,6,7.4,7.3c3.5,0.9,7.2,0,9.8-2.4C1044.4,440.5,1044.3,432.6,1040.4,428.1z"/>
<path class="st7" d="M1035.5,480.6c-2.8-1-5.9-0.7-8.3,1c-3.6,2.6-3.5,7.5-3.4,9.2s0.2,7.1,4.9,10.2c3.8,2.5,9.4,2.6,12.3,0
	C1046,496.4,1042.5,483.4,1035.5,480.6z"/>
<path class="st8" d="M847.5,284.6c-0.2,1,6.6,2,13.3,6.3c6.1,3.9,9.2,8.6,13.3,15.1c7,10.9,10,20.6,12.8,29.7s4.6,15,5.4,23.4
	c1.9,19.1-3.5,31.1,0,32.6c3.2,1.4,10.5-7.7,11.3-8.8c4.6-5.7,5.7-10.5,6.9-10.2s1.4,6.5,0,12.6c-2.7,11.8-9.6,16.6-7.8,19
	s10.7,0.5,16.7-3.9c2.6-1.9,4.1-3.9,4.9-3.4c1.2,0.7-0.2,6.3-2.9,10.7c-5.6,9.2-15.8,11.2-15.2,13.1c0.7,2.5,16.4-2,19.6,3.4
	c1.6,2.6-1.1,5.2-2.4,10.7c-1.9,8,1.3,12.7,7.8,31.1c4.5,12.7,6.8,19,7.4,23.3c2.1,16-3.1,25.2,1.5,28.2c3.5,2.3,9.7-1,15.2-3.9
	c11.7-6.2,15.2-13.7,17.2-12.7c2.8,1.5,0.4,19-11.3,29.2c-6.5,5.6-13.1,6.6-12.8,8.8c0.5,3.1,13.9,4.2,23.1,3.9
	c7.5-0.2,10.7-1.3,11.3,0c1.2,2.6-8.3,11.8-20.1,16.5c-5.6,2.2-9.8,2.7-9.8,4.4c-0.1,2.3,8.1,4.5,12.8,5.3c7,1.3,20,3.7,30.9-3.9
	c4.9-3.4,7.2-7.3,11.8-15.1c4.8-8.1,8.9-18.1,7.4-19c-2.1-1.3-13.3,16-15.7,14.6c-2-1.2,2.2-16,9.3-29.2c2.5-4.6,4.4-7.2,3.4-8.3
	c-2.9-3.4-28.1,14.5-29.4,12.7c-0.9-1.3,11.2-8.7,20.1-22.9c10.7-17,12.1-36.8,8.3-38.4c-2-0.9-4.1,3.7-12.8,8.3
	c-5.7,3-15.2,6.5-16.7,4.4c-1.9-2.8,8.2-17.4,21.6-20.4c3.2-0.7,6.1-0.6,6.4-2c0.6-2.4-7.8-7.7-16.7-9.2
	c-13.6-2.4-23.6,5.1-24.5,3.4s8-11.3,20.6-13.6c9.4-1.7,15.9,1.5,17.2-1c1.9-3.5-9.8-13-11.8-14.6c-11.3-9.2-18.5-10.4-31.4-18.5
	c-6.7-4-13-8.7-18.7-14.1c-4.5-4.3-17.8-16.9-26-37c-3.3-7.9-5.2-15.8-7.8-15.6c-2.9,0.2-3.5,9.8-5.4,9.7s-2.4-8.7-4.9-24.3
	c-1.9-12.3-2.9-15.5-3.9-18.5c-0.9-2.5-4.2-11.3-11.8-17c-3.1-2.3-5.2-2.9-6.9-2.4c-2.1,0.5-2.6,2.2-4.9,3.9c-2,1.4-4.1,2-8.8,2.4
	C853.7,284.7,847.7,283.8,847.5,284.6z"/>
<path class="st8" d="M1090.9,265.7c1-0.7,2-1.3,3.2-1.7c2.2-0.7,4.5-0.8,6.7-0.3c2.4,0.8,4.4,2.4,5.9,4.4
	c11.8,15.7,10.8,111.4,10.8,111.4c-0.3,32.7,1.7,36.1,0,63.2c-1.4,22.8-2.2,34.2-4.9,50.6c-3,17.9-5,21.3-3.9,31.1
	c1.9,17.3,10.1,26.5,4.9,34c-3,4.4-8.7,5.3-14.7,6.3c-15.1,2.5-27.5-3.4-33.4-6.3c-3.1-1.5-21.6-11-30.9-31.1
	c-2.8-6.1-5.4-14.4-3.4-15.6c1.5-0.9,4.8,3.2,11.8,8.3c9.1,6.6,19.7,11.4,20.6,10.2c0.4-0.6-12.4-8.8-19.6-19.5
	c-0.8-1.2-2.3-3.6-1.5-4.9s3.9-0.6,9.3,0c3.8,0.4,12.8,1.5,13.3,0c0.7-1.9-14.2-5.7-14.2-11.7c0-1.7,1.1-3.6,12.8-10.7
	c12.2-7.4,17-8.9,16.7-10.7c-0.6-3.5-19.1,0.1-36.3-10.7c-0.8-0.5-7.7-4.9-6.9-6.8s7.6,0.2,17.7,0c13-0.3,22.2-4.1,22.1-4.9
	c-0.2-0.9-15.4,3.8-25-3.9c-0.5-0.4-4.1-3.3-3.4-5.4c1-2.8,8.9-0.1,16.2-3.9c7.5-3.8,11.7-13,9.8-15.1c-2.8-3.2-19.2,10-25,4.9
	c-0.4-0.4-1.5-1.5-2-7.8c-0.5-6-0.2-12.1,1-18c4.1-16.9,13.6-40.2,16.7-48.1c6.6-16.8,9.9-25.1,11.3-31.6
	c4.7-22.9,0.8-40.1,4.4-40.9c2.3-0.5,6,6.1,8.3,12.2c11,28.6-3.9,57.7-2,58.4c1.4,0.5,10.6-14.1,13.3-33.1
	c2.7-19.4-2.5-35.2-4.4-40.9C1094.5,273.3,1092.8,269.4,1090.9,265.7z"/>
<path class="st8" d="M943.7,588.1c0,0.8,8,1.5,14.7,1.5c7.1,0,15.4-0.1,25.5-3.4c9.4-2.9,18-8.1,25-15.1c4.9-5,9.2-11.3,8.3-12.2
	s-6.9,5.5-17.7,12.2c-9.3,5.6-19.4,9.9-29.9,12.7C954.9,587.6,943.7,587.1,943.7,588.1z"/>
<path class="st8" d="M1029.1,543.9c-0.8,0.4,2,10.1,9.3,18.5c6.4,7.4,13.8,10.7,18.2,12.7c10.1,4.3,21,5.9,31.9,4.9
	c9.5-0.9,18.3-3.8,18.2-4.9c-0.2-1.2-12.5,1.8-29.4-0.5c-8.1-1.1-22.6-3.1-34.4-13.1C1033.2,553.2,1029.9,543.5,1029.1,543.9z"/>
<path class="st8" d="M1017.8,438.8c-0.8,0.1,0.2,10.7,0.5,23.3c0.3,13.1-0.5,15.1-0.5,25.3c0.1,23.3,4.5,41.4,4.9,41.3
	c0.2,0-0.3-5.2-1.5-24.3c-1-15.8-1-19.5,1.5-23.8c2.3-4,5.2-5.9,5.9-10.7c0.4-3.2-0.6-5.8-2.4-10.7c-2.1-5.5-3.2-6-5.4-11.7
	S1018.3,438.8,1017.8,438.8z"/>
<path class="st11" d="M800.3,430.6c5.6-0.3,11.1-0.3,16.7,0c8.9,0.5,13.4,0.7,18.2,2.4c8.8,3.2,12.7,8.5,14.2,7.3s-1-6.8-3.4-10.7
	c-3.6-5.7-8.3-9.1-13.3-12.2c-8.3-5-17.2-8.9-26.5-11.6"/>
<path class="st11" d="M839.6,410.1c4.2,3,7.6,7,9.8,11.7c1.8,3.5,2.8,7.3,2.9,11.2c0.1,3.7-0.8,6.4,0,6.8c1.2,0.5,4.2-3.9,4.9-4.9
	c3.2-4.7,6.6-11.5,8.3-22.4c0.9-5.3,1.2-10.7,1-16"/>
<path class="st11" d="M838.1,429.6c-9.1-6.1-20.2-8.2-30.9-5.8c-5.9,1.3-11.5,4-16.2,7.8"/>
<path class="st11" d="M832.7,439.3c-4.5-0.9-14.7-2.3-25,2.4c-3.2,1.5-8.2,3.8-11.8,9.2c-1.7,2.5-2.8,5.3-3.4,8.3"/>
<path class="st11" d="M840.1,386.8c8.4,9.1,13.4,20.8,14.2,33.1"/>
<path class="st11" d="M835.7,309c4.3,0.6,8.4,1.9,12.3,3.9c9.9,5.1,14.6,13.3,18.2,19.5c4.8,8.4,7.8,17.6,8.8,27.2"/>
<path class="st8" d="M834.7,302.2c2.7-1,5.5-1.3,8.3-1c2.3,0.3,8,1.4,15.7,10.7c8.7,10.5,11,20.5,11.3,20.4s-2.8-12.9-11.3-25.8
	c-3.4-4.8-7.8-9-12.7-12.1c-2.8-1.8-4.7-2.5-6.4-2C836.8,293.3,835,297.1,834.7,302.2z"/>
<path class="st8" d="M835.7,319.7c2.3-1.6,5.5-0.6,7.4,0c5,1.6,9.4,5.1,14.2,11.7c2,2.8,5.5,8,9.3,18c3.3,8.3,5.6,16.9,6.9,25.8
	c2,14.3,0.9,28.1-0.5,28.2c-1.1,0.1-0.8-8.1-5.4-18c-7-14.9-20.2-23.2-21.1-22.4c-0.7,0.6,6.5,6,10.3,17.5
	c1.9,5.8,2.4,11.1,2.9,18.5c0.5,6.9,0.5,12.6,0,12.6c-0.7,0,0.5-11.7-6.4-22.4c-3.5-5.3-8.5-9.5-14.2-12.2c-3.9-1.8-9.9-3.5-10.8-2
	s3.9,4.7,8.8,11.2c7.7,9.9,11.3,21.6,9.3,22.9c-1.2,0.8-3.5-2.6-10.8-5.8c-4.2-1.9-9.3-3.3-9.8-2.4s5.1,3.6,10.8,10.2
	c4.3,5,7,10.2,6.4,10.7s-5.1-6.1-14.7-11.7c-3.6-2-7.4-3.7-11.3-4.9c-4.7-1.5-11.3-3.4-18.7-1.5c-0.7,0.2-6,1.5-5.9,2.9
	c0.1,1.7,8.2,1.3,18.2,3.9c12.4,3.3,21.5,9.7,21.1,10.7s-7.9-3.6-19.1-3.4c-3.7,0.1-13,0.4-21.6,6.8c-4.9,3.8-8.8,8.8-11.3,14.6
	c-2.9,6-4.2,12.3-3.4,12.6s2.7-6.9,8.3-12.2c11.7-11,32.8-7.1,32.9-5.8c0.1,0.9-8.7,0-17.7,6.3c-2.1,1.5-8.2,5.8-11.3,13.6
	c-4,10.3,0.2,19.3-2,19.9c-1.7,0.5-5.6-4.6-6.9-10.2c-1.2-5.3,0.2-10.1-0.5-10.2c-0.9-0.2-2.3,7.6-4.9,7.8c-2,0.1-4-4.2-4.9-7.3
	c-2.1-8.3-0.3-17.1,4.9-23.8c7.2-9.4,18.7-12.1,18.2-13.6c-0.5-1.3-8.1,1.6-9.8-1c-1.4-2.1,1.8-6.5,4.9-10.7
	c4.3-5.9,7.3-10,12.8-13.1c8.1-4.7,16.8-4.4,16.7-4.9s-11.3,1.7-12.8-1.5c-0.3-0.6-0.7-2.3,7.4-10.2c7.1-7,8.8-7,12.8-11.2
	c3.4-3.6,9.9-10.5,10.3-19.5c0.2-5-1.7-7.1-1.5-16.5C833.3,323.6,833.8,321,835.7,319.7z"/>
<path class="st8" d="M845,444.7c-5.7-4.7-14.1-3.1-20.6-2c-7.1,1.3-13.3,2.4-19.6,7.3c-8.4,6.5-15.5,18.7-11.8,25.8
	c1,2,2.5,2.8,4.9,4.4c7.1,4.5,13.5,10,20.6,14.6c12,7.7,35.7,25.5,39.8,36c0.2,0.6,0.8,2.2,2,2.4c2.3,0.4,4.4-5.6,9.3-13.6
	c5.8-9.6,9-14.8,15.2-18.5c4-2.4,7-2.7,7.4-4.9c0.5-2.9-3.9-5.6-9.3-9.7c-6.6-5.1-12.6-10.8-18.2-17C857,461.2,853,457,849,450.1
	C847.6,447.6,846.9,446.2,845,444.7z"/>
<path class="st6" d="M915.7,525.9c4.2,2.4,8.1,5.2,11.8,8.3c5.2,4.4,9.3,7.8,11.3,13.6c1.1,3.3,2.4,6.4,1,9.2
	c-1.9,3.9-6.7,3.9-7.8,8.3c-0.3,1.2,0.1,1,0,4.4c-0.1,3.7-0.2,6.7-1.5,9.2s-4.2,5.5-7.8,5.8s-5.3-2.2-8.3-1
	c-1.4,0.6-1.3,1.3-3.4,2.4c-1.7,0.9-3.5,1.4-5.4,1.5c-0.7,0-5.4,0.2-7.8-2.4c-1.9-2.1-1.4-4.8-1-10.2c0.9-12.7-1-12.6,0.5-18.5
	c0.5-2,1.3-4,7.4-13.6C907.1,538.6,910.9,532.8,915.7,525.9z"/>
<path class="st5" d="M1091.5,87.4c2.2-1.2,4.1-2.9,5.6-5c2.9-4.1,3.3-8.8,2.9-8.9c-0.3-0.1-0.7,1.2-2.5,2.6
	c-0.8,0.7-2.1,1.4-2.3,1.2c-0.2-0.2,1.2-1.6,2.2-3.3c2.7-4.7,0.7-11.1-0.1-11.1c-0.3,0-0.1,1.2-1.1,2.7c-1.7,2.8-5.1,3.4-5.8,3.6
	c-1.5,0.3-2.5,0.5-2.9,0c-1-1.3,3.8-5.4,6.6-10.3c5.8-9.8,5.2-24.6-0.7-32.2c-2.2-3.1-4.7-5.9-7.5-8.4c-2.2-1.8-3.8-2.6-4.8-4.9
	c-1.4-3.2-0.3-6.3-1.3-6.6c-0.8-0.2-2.2,1.5-2.8,2.9c-0.7,1.3-0.7,2.3-1,2.4s-1.3-1.8-1.3-3.7c-0.1-2.9,1.5-4.2,1-4.9
	c-0.8-1-5.1,0.7-8.2,2.6s-3.4,2.9-5.8,3.6c-2.2,0.6-3.4,0.1-5.7,0c-3.8-0.1-7.6,0.8-11,2.6c-2.2,1-4.7,2.7-9.6,8.5
	c-7,8.2-10.5,12.3-11.5,17.2c-1.9,9.2,4.2,17.4,9.2,24c10.1,13.5,22.5,18.1,39.8,24.6C1078.9,88.4,1085.8,90.4,1091.5,87.4z"/>
<path class="st5" d="M879.8,107c-2.5-0.7-4.8-1.8-6.7-3.5c-3.8-3.2-5.5-7.7-5.1-7.9c0.2-0.2,1,1,3,1.9c1,0.4,2.4,0.8,2.5,0.5
	s-1.6-1.3-3-2.6c-3.8-3.9-3.4-10.6-2.8-10.8c0.3-0.1,0.4,1.1,1.7,2.4c2.4,2.3,5.8,2,6.5,2c1.5-0.1,2.5-0.2,2.8-0.7
	c0.7-1.5-5-4.3-9-8.3c-8.2-8.1-11.3-22.6-7.5-31.5c1.4-3.5,3.1-6.9,5.2-10.1c1.7-2.3,3-3.5,3.4-5.9c0.6-3.5-1.3-6.2-0.4-6.8
	c0.7-0.4,2.5,0.9,3.5,2.1s1.2,2.1,1.6,2.1s0.8-2.1,0.3-4c-0.7-2.8-2.6-3.7-2.2-4.5c0.6-1.2,5.2-0.6,8.6,0.4s4.1,2,6.5,2
	c2.3,0,3.3-0.8,5.6-1.4c3.7-1.1,7.6-1.2,11.4-0.3c2.4,0.4,5.3,1.4,11.5,5.8c8.8,6.2,13.2,9.3,15.4,13.8c4.2,8.4,0.3,17.9-2.8,25.6
	c-6.4,15.7-17.3,23.3-32.5,34C892.2,104.8,886.1,108.5,879.8,107z"/>
<path class="st16" d="M959.4,41.1c-9.6,1.2-14.3,1.8-19.4,3.6c-10.8,3.7-17.9,9.7-22.2,13.5c-6.9,5.9-12.6,13.1-17,21
	c-3.5,6.4-5,11.5-7.9,21.8c-2.4,8.4-5,17.2-6.3,28.9c-1.2,10.6-0.8,17.3-3.2,32.1c-0.6,4.8-2.2,9.4-4.8,13.5c-2.6,3.8-6,7.1-9.9,9.5
	c-6.4,4.4-11.9,8.8-17.8,7.5c-3-0.6-4.9-2.4-5.3-1.8c-0.7,0.9,2.8,5.4,6.3,8.7c5,5,11.3,8.5,18.2,10.3c5.2,1.3,6.1,0.3,17,2.4
	c8.1,1.5,8.3,2.2,8.3,2.4c-0.1,0.7-4.3,0.1-10.3,1.6c-4,1.1-7.9,2.7-11.5,4.8c-3.9,2.1-7.4,3.7-7.1,4.4s5.4-0.6,14.3-1.2
	c3.2-0.2,12-0.7,12.3,0.8c0.2,1.1-4.4,3-4.8,3.2c-3.8,1.5-6.7,1.3-6.7,1.6c0,0.4,7.7,1.6,17.8,0.8c8.2-0.7,14-2.4,14.3-1.6
	c0.2,0.5-2.6,1.4-6.3,4c-5.1,3.5-9.4,8.5-8.7,9.5c0.5,0.7,3.3-1,9.1-3.2c2.1-0.8,9.2-3.3,15.5-4c5.3-0.5,9.4,0.6,17.4,2.8
	c9.1,2.5,12.2,4.5,23.8,8.7c9.3,3.4,14,5.1,17.8,6c4.1,0.9,18.6,3.7,34.5-2c1.8-0.6,8.8-4.8,23-13.1c9.6-5.6,14.9-8.9,23.4-11.1
	c4.8-1.2,8.9-2.3,14.3-1.6c8.3,1,13.5,5.4,14.7,4c1-1.2-2-5.4-4.4-7.9c-5-5.5-10.2-6.6-9.9-7.9s6-1.5,10.7-0.8
	c6.1,1,9.3,3.2,9.9,2.4s-2.1-4.3-5.6-6.7c-5.4-3.8-10.2-3.5-10.3-5.1c-0.2-1.9,5.8-3.8,7.5-4.4c9-2.9,15.4-1.7,15.9-3.6
	c0.3-1.3-2.7-3.2-4.4-4c-3.8-1.8-7-0.9-7.1-1.6c-0.2-0.9,5.3-3.2,11.1-4.8s6.3-1,10.3-2.4c4.1-1.3,7.9-3.5,11.1-6.3
	c4.9-4.6,7.8-11,6.7-11.9c-0.5-0.4-1.6,0.7-4.4,1.6c-2.4,0.7-5,0.9-7.5,0.8c-6.9-0.4-12.7-6.3-15.1-8.7c-1.3-1.3-6.7-7-10.3-17.4
	c-2.1-6.2-1.7-8.4-3.2-17.8c-1.4-8.9-2.9-17.9-6.7-27c-4.1-9.6-9.3-15.6-15.5-22.6c-5.3-6.1-11.7-13.4-22.2-19.8
	c-11-6.7-20.6-8.9-28.5-10.7c-15-3.4-27-3.1-38.8-2.8C974,39.5,966.7,40.1,959.4,41.1z"/>
<path class="st10" d="M990.9,72.6c-3.3-0.2-3.8-5.2-8.7-10.7c-7.3-8.2-17.6-10.1-23-11.1c-10.1-1.8-20.5-0.4-29.7,4
	c-11.9,5.8-17.8,14.9-20.6,19.4c-5,8-6.5,14.7-9.1,27.8c-3,14.8-5.8,28.4-4.4,44.8c0.2,2.3,1.3,14.3-2.4,25.8
	c-0.7,2.2-1.6,4.3-2.8,6.3c-2.9,4.9-7,9-11.9,11.9c-5.6,3.3-10,3.5-9.9,4.8c0,0.4,0.6,1.2,7.5,2.4c11.3,1.9,16.9,2.9,22.6,0
	c3.9-1.9,5.7-4.5,6.3-4c0.8,0.7-1,5.5-4.8,8.3c-3.2,2.4-6.3,2.2-6.3,3.2c-0.1,1.3,5,3.1,10.3,3.6c8.4,0.7,13.2-2.5,14.3-0.8
	s-2.8,6.5-6.3,9.5c-5.9,5.1-11.3,5.5-11.1,6.7c0.2,1.6,9.8,2.9,19.4,0c6.1-1.9,10.1-4.8,10.7-4s-2.4,4.3-5.6,6.7
	c-2.3,1.8-4.1,2.5-4,2.8c0.2,0.5,5.2-1.6,11.5-2c3.6-0.1,7.2,0.3,10.7,1.2c9.7,2.3,14.9,6.3,22.6,9.9c9.1,4.5,18.9,7.1,28.9,7.9
	c7.4,0.5,15.4,1,23.8-3.2c9.1-4.5,7.9-9.4,19-16.6c3.7-2.4,11.2-7.2,21.4-8.3c11.8-1.3,19.3,3.3,20.2,1.2s-5.6-8.9-13.5-11.1
	c-3.5-1-6.3-0.8-6.3-1.6c-0.1-1.1,5-3.1,10.3-3.2c6.3-0.1,10.2,2.5,10.7,1.6s-2.9-4.8-7.5-6.7c-3.3-1.4-5.2-0.9-5.6-2
	c-0.7-1.9,4.3-6.6,10.3-7.9c7-1.6,12.5,2,13.1,0.8c0.4-1-2.9-4.1-7.1-5.6c-3.6-1.2-6.2-0.5-6.3-1.2c-0.2-1,5.2-3.8,11.5-5.1
	c6-1.3,7.6-0.1,15.1-0.8s15.5-2.6,15.5-4c-0.1-1-4.2-0.7-10.3-2.4c-3.6-1-13.2-3.6-19-11.1c-3.7-4.7-4.5-9.5-5.6-16.3
	c-1.6-10.2-0.2-15.7,0-23.4c0.1-10.6-2.1-21.2-6.3-30.9c-9.4-20.8-27.7-30.4-34.1-33.3c-5.1-2.3-11.5-5.2-20.2-4.8
	c-2.7,0.1-11.9,0.6-19.8,6.7C995.9,64.6,995.2,72.8,990.9,72.6z"/>
<path class="st17" d="M985.2,174c-0.4-1.2,0.4-1.5,2-6.7c1.1-3.6,1.9-7.3,2.4-11.1c0.5-4.6,0.4-9.1,0-9.1s-0.4,3.5-2.4,7.9
	c-1.7,3.4-3.9,6.5-6.7,9.1c-6.1,6.2-14,10.4-22.6,11.9c-5.7,1-10.7,0.8-10.7,0.4s3-0.5,7.5-2.4c2.3-1,4.5-2.3,6.3-4
	c0.7-0.6,2.2-2,2-2.4s-3.3,1-6.7,2.4c-3.7,1.5-7.6,2.5-11.5,3.2c-6,0.6-12.1-0.6-17.4-3.6c-3.4-1.9-8.1-4.5-9.9-9.1
	c-4.2-10.7,9.6-25.1,17.4-31.3c11.1-8.7,22.5-10.4,30.1-11.5c7.8-1.1,13.5-1.9,19,1.2c4.7,2.6,7.6,7,9.5,5.9
	c1.4-0.7,1.4-3.7,0.8-5.5c-1-3-4-4.7-6.3-5.2c-3.1-0.5-5.2,1-5.6,0.4c-0.3-0.6,1.7-2.9,4.4-3.6c0.4-0.1,3.4-0.9,5.6,0.8
	c1.5,1.2,1.7,2.8,2.4,2.8s0.8-1.8,1.6-3.6c1.7-3.6,5.7-5.7,6.3-5.1c0.7,0.6-1.8,2.8-2.8,7.1c-1,4.6-0.1,10.4,2.4,11.1
	c1.6,0.4,3.2-1.4,5.2-3.2c6.1-5.3,13.2-6.3,18.6-7.1c8.7-1.3,15.5,1.1,22.2,3.6c6.4,2.3,14.8,5.3,21.4,13.5c2.2,2.7,6.3,8,6.7,15.5
	c0.1,2.3,0.4,7.6-3.2,11.9c-1.5,1.8-3.4,3.1-5.6,4c-3.6,1.5-7.2,1.3-12.7,0c-11.2-2.7-17.8-7.4-18.2-6.7s3.5,4.4,9.1,7.1
	c8.1,4,15.5,3.6,15.5,4.4c0,0.5-3.6,0.9-6.7,0.8c-2.4-0.1-4.8-0.5-7.1-1.2c-9.8-3.1-25.7-12.1-26.2-11.5c-0.2,0.3,3.5,3.8,9.1,7.1
	c8.7,5.1,16,6.5,15.9,7.1s-6.3,0.6-13.1-1.2c-4.8-1.3-17-4.5-23-14.3c-1.5-2.4-2.5-5-3.2-4.8c-1,0.3-0.7,5.4,0.4,9.9
	c2.3,9.4,7.3,11.6,6.3,14.7C1011.7,180,987.2,180,985.2,174z"/>
<path class="st5" d="M991.4,175.2l17.8-0.9c4.2-0.2,7.7,3,7.9,7.2l0,0c0.2,4.2-3,7.7-7.2,7.9l-17.8,0.9c-4.2,0.2-7.7-3-7.9-7.2l0,0
	C984.1,179,987.3,175.4,991.4,175.2z"/>
<path class="st10" d="M988.9,174.3l21.4-1.1c0.9,0,1.6,0.6,1.7,1.5v0c0,0.9-0.6,1.6-1.5,1.7l-21.4,1.1c-0.9,0-1.6-0.6-1.7-1.5v0
	C987.4,175.1,988,174.4,988.9,174.3z"/>
<path class="st5" d="M1008.4,132.2c-0.4,2.4-0.3,4.8,0.4,7.1c1.2,3.5,3.6,6.4,6.7,8.3c1.1,0.7,2.8,1.6,13.1,3.6
	c8.2,1.5,7.8,1.1,11.1,2c6.6,1.8,7,3.4,12.3,4.4c4,0.7,8,1.4,11.1-0.8c4.5-3.2,4.1-10.4,4-12.7c-0.4-7.1-4.2-12-6.3-14.7
	c-3.8-4.7-8.7-8.4-14.3-10.7c-4.8-2.3-10.1-3.6-15.5-3.6c-4.5,0-10,0.1-15.1,4C1011.9,122.3,1009.2,127,1008.4,132.2z"/>
<path class="st5" d="M929.1,153.9c1.6,6.1,7.6,9.9,11.9,11.1c8.3,2.2,15.3,0.7,20.2-0.4c5.4-1.2,12.8-2.9,19-9.1
	c2.9-2.7,5.1-6.1,6.3-9.9c1.4-4.8,1.1-10-0.8-14.7c-0.6-1.4-3.8-9.1-11.5-11.5c-5.2-1.6-9.6-0.1-16.3,2.4c-5.3,2-10.3,4.8-14.7,8.3
	c-4.1,3-7.7,6.6-10.7,10.7C928.3,146.8,927.9,149.6,929.1,153.9z"/>
<path class="st13" d="M994.3,77.5c1,1,7.4-3.8,8.7-4.8c1.6-1.2,8.1-6.1,15.1-16.6c6-9.1,6.6-13.6,6.7-15.9c0.1-1.9,0.3-6.2-2-7.5
	s-6.4,1.1-8.7,3.6c-3.9,4.2-3.1,9.1-4,14.7C1007.6,67,992.9,76.1,994.3,77.5z"/>
<path class="st13" d="M985.6,70.4c1-0.8-2.4-5.2-11.1-20.2c-6.4-11-7.7-14.2-12.3-17c-1.7-1-8.9-5.6-16.3-2.8
	c-3.3,1.5-6.1,4-7.9,7.1c-1.2,1.9-2.1,3.6-1.6,5.2c0.9,2.6,5.3,2.7,10.3,4c3.3,0.8,6.9,2.8,14.3,6.7
	C976.7,61.8,984.2,71.6,985.6,70.4z"/>
<path class="st13" d="M988.8,74c1-0.5-0.5-6.5-3.6-18.6c-4.3-17-5.9-20.2-8.3-23.4c-2.3-3-6.5-8.6-13.9-9.9
	c-5.8-1-13.6,0.6-14.7,4.4c-1.1,4,6.3,7.6,15.9,16.7C981.1,59.1,986.5,75.1,988.8,74z"/>
<path class="st13" d="M1000.3,16.9c2.2-1.5,4.9-2.1,7.5-1.6c5.1,0.9,7.9,5.8,8.7,7.1s4,7.4,0.8,19.8c-5.5,21.3-23.4,36.6-25.8,34.9
	c-1.4-1,4.5-6.5,7.1-19C1003.1,37.3,993.1,22.3,1000.3,16.9z"/>
<path class="st13" d="M961.8,23.2c0.9-3.6,5-5.8,5.9-6.3c3.5-1.9,7.7-2.3,11.5-1.2c12.3,3.9,14.9,29.5,13.9,44.8
	c-0.5,6.6-1.9,14.6-3.6,14.7c-2.2,0-0.4-13.5-8.3-27C973,34.3,960.1,30.3,961.8,23.2z"/>
<path class="st13" d="M977.7,18.5c1.1-2.9,3-5.4,5.6-7.1c3.5-2.2,7.9-2.8,11.9-1.6c8.2,2.7,10.5,13.8,11.5,18.2
	c2.4,11.2-0.7,20.4-3.6,28.5c-3.9,11-10.8,23.5-13.5,22.6c-2.1-0.7,1.6-8.7,0-21C987,38.1,973.3,29.9,977.7,18.5z"/>
<path class="st18" d="M998.7,183.7c-1.2,1,0.7,3.9,1.5,9.7c0.5,3.6,0.8,5.9-0.5,8.3c-1.4,2.6-3.9,3.7-6.3,4.9
	c-2.3,1.1-4.8,1.7-7.3,2c-1.7,0.2-8,1.5-13.6-0.5c-2.8-1-5.3-2.6-7.3-4.9c-1.6-1.6-2.7-3.7-3.4-5.8c-1.4-5,2.4-9.6,1.5-10.2
	c-0.7-0.5-3.4,1.6-4.9,4.4c-2.7,5.3,0.3,11.2,0.5,11.7c3.3,6.5,12.1,10.6,19.9,9.7c10.5-1.1,18-6.3,22.9-8.3
	c1.9,0.5,2.9-1.1,1.5-3.9c-0.9-1.6-0.9-3.2-1-6.3c-0.1-6.1,1.2-8.8-0.5-10.2C1000.8,183.5,999.4,183.2,998.7,183.7z"/>
<path class="st18" d="M999.7,203.7c0.1,1.2,1.6,1.5,5.3,3.9c5.3,3.4,7.4,3.7,8.3,3.9c3,0.7,6.2,0.7,9.2,0c5.6-1.1,10.2-3.9,10.1-4.4
	c-0.1-0.3-2.1,0.5-7,1.5c-3.9,0.7-5.8,1.1-8.3,1s-5.1-0.3-7.9-2c-4.4-2.7-5.3-5.4-7.4-6.8C1000.6,201.1,999.7,202.3,999.7,203.7z"/>
<path class="st10" d="M952.7,145.1c0.5-0.8,1.8-0.7,4.4-1c2-0.2,1.3-0.3,6.8-1.5c6.6-1.4,9.9-2,10.2-1.5c0.6,1.1-4.7,5-9.7,7.3
	C961,150,952,146.3,952.7,145.1z"/>
<path class="st10" d="M1019.9,137.8c-0.4,0.8,1.4,2.6,2.4,3.4c4.2,3.4,9.8,2.6,11.2,2.4c2.6-0.4,6.4-1.5,6.3-2.4s-3.4-0.8-11.7-2.4
	C1022.9,137.7,1020.3,136.9,1019.9,137.8z"/>
<path class="st17" d="M963.4,181.1c0,0.5-4,0.2-7.8,2.9c-2.6,1.9-4.5,4.7-5.3,7.8c-1.4,5.5,1.1,10.2,2.4,12.7c3,5.5,6.8,7.5,6.3,8.3
	c-0.6,1-7.6-1.1-12.7-6.3c-2-2.1-6.5-6.7-5.8-12.6c1-9,12.6-12.5,13.1-12.6C958.7,179.6,963.4,180.6,963.4,181.1z"/>
<path class="st17" d="M1043.7,211.2c-1.6,0.7-1.3,2.3-2.9,3.9c-2.4,2.2-5.8,1.4-5.8,2s4.8,3,8.8,1c2.5-1.3,4.7-4.3,3.9-5.8
	C1047,211.1,1045.1,210.6,1043.7,211.2z"/>
</svg>
