<svg id="Layer_1" data-name="Layer 1" xmlns="http://www.w3.org/2000/svg" viewBox="0 0 2771.7 1314.63">
    <defs>
        <style>
            .cls-1{fill:#d3d3d3;}.cls-1,.cls-10,.cls-11,.cls-12,.cls-17,.cls-18,.cls-2,.cls-24,.cls-25,.cls-26,.cls-27,.cls-28,.cls-29,.cls-3,.cls-4,.cls-5,.cls-6,.cls-7,.cls-8,.cls-9{stroke:#000;stroke-linecap:round;stroke-linejoin:round;}.cls-1,.cls-10,.cls-11,.cls-12,.cls-17,.cls-18,.cls-2,.cls-3,.cls-4,.cls-5,.cls-6,.cls-7,.cls-8,.cls-9{stroke-width:14px;}.cls-3{fill:#efefef;}.cls-4{fill:#ff3f45;}.cls-27,.cls-5{fill:none;}.cls-6{fill:#d8d6bf;}.cls-7{fill:#b5b3a0;}.cls-8{fill:#3b3b3d;}.cls-23,.cls-9{fill:#908f9b;}.cls-10{fill:#6b6b75;}.cls-11{fill:#222223;}.cls-12,.cls-14,.cls-28{fill:#d9d9d9;}.cls-13,.cls-17,.cls-20,.cls-21,.cls-29,.cls-30{fill:#fff;}.cls-15{fill:#380208;}.cls-16{fill:#6a0006;}.cls-18{fill:#b8b8bf;}.cls-19{fill:#107a43;}.cls-20{opacity:0.2;}.cls-20,.cls-21,.cls-30{isolation:isolate;}.cls-21{opacity:0.1;}.cls-22{fill:#282828;}.cls-24,.cls-25,.cls-26,.cls-27,.cls-28,.cls-29{stroke-width:12px;}.cls-25{fill:#dddd78;}.cls-26{fill:#68bc92;}.cls-30{opacity:0.3;}
        </style>
    </defs>
    <title>supporting</title>
    <g id="Layer_2" data-name="Layer 2">
        <g id="Layer_1-2" data-name="Layer 1-2">
            <path class="cls-1"
                  d="M610.72,1003.59c4.22-12,12.66-31,32.63-53.74a217.36,217.36,0,0,1,60.46-48c13.81-7.42,44.14-23.72,51.82-15.35,6.72,7.41-7.46,30.63-16.31,45.1-5,8.13-11.9,18.29-54.7,62.38-13.67,14.09-28.33,28.88-51.82,40.31-16.68,8.12-22.25,7-25,4.8C600.38,1033.1,607.36,1013.2,610.72,1003.59Z"
                  transform="translate(0.04 -5.28)"/>
            <path class="cls-2"
                  d="M708.6,872.12c15.19,6.86,10.31,13.64,51.82,48.94,32.07,27.27,36.47,30.71,36.47,30.71C813.35,964.65,815.68,965.2,818,970c11.89,24.55-23,63.47-30.71,72-12.74,14.19-33.73,37.55-63.34,37.43a66.31,66.31,0,0,1-25.91-5.76c-15.55-6.78-24.09-17.39-34.55-30.71-46.3-59-53.81-73-59.5-85.41-7.79-17-11.67-25.62-10.56-33.59C598.61,886.86,667.92,853.73,708.6,872.12Z"
                  transform="translate(0.04 -5.28)"/>
            <path class="cls-3"
                  d="M490.76,616.85c13.15-5.21,33.59,3.93,44.14,8.64,23.51,10.51,37.2,26.87,48,40.31,37.18,46.2,66.52,89.8,79.65,109.4,31.39,46.86,36.33,54.7,49.9,68.13,30.22,29.84,31.67,27.83,43.18,43.18C734.51,874,583.85,987.28,607.84,1039.1c-6.72-3.84-15-13.67-16.31-15.35C533.57,949.09,431,640.54,490.76,616.85Z"
                  transform="translate(0.04 -5.28)"/>
            <path class="cls-3"
                  d="M55.08,690.75a185.07,185.07,0,0,1,24-18.23c14.62-9.07,25-12.15,45.1-20.15,14.25-5.65,28.13-12.21,42.22-18.23,53.38-22.83,89.32-59.62,126.67-74.85,77.22-31.49,189.26,17.48,242.79,88.29,25,33,35.25,68.13,45.1,101.72,15.5,52.78,17.23,97.41,18.23,128.59a731.6,731.6,0,0,1-4.8,106.52c-3.16,27.67-5.76,37-9.6,75.81C582,1088.3,582,1097.3,579,1123.55c-4.28,37.57-6.41,56.35-9.6,65.26-15.82,44.27-90.06,54.85-203.44,71-137,19.53-167.32-.49-239,2.88A102.56,102.56,0,0,1,84.83,1255c-16.62-6.92-22-14.74-24-18.23-2.47-4.28-4-9.21-4.8-22.07-1.21-20.62,1.47-31.12,1.92-44.14s-1.55-22.17-6.72-43.18c-12.25-49.9-21.86-84.19-25.91-100.76-7.56-31-8.56-55.51-10.56-104.6C13.92,900.75,8.12,733.62,55.08,690.75Z"
                  transform="translate(0.04 -5.28)"/>
            <path class="cls-4"
                  d="M392.88,709c.43,7.68-1.76,15.35-1.92,23-.4,19.7-13.61,181.49-9.6,256.23a118.54,118.54,0,0,0,1.92,16.31c.91,4.8,4.56,22.43,25,54.7,15.81,25,20.84,25.84,23,25.91,8.9.27,15.65-10.4,23-22.07,5.44-8.64,16.81-29,19.19-60.46a151,151,0,0,0,0-23c-10-133-44.42-231.52-43.18-282.14.09-3.38.53-14.84-4.8-17.27-5.06-2.32-13,4.86-28.79,19.19a11.57,11.57,0,0,0-2.88,3.84A12,12,0,0,0,392.88,709Z"
                  transform="translate(0.04 -5.28)"/>
            <path class="cls-4"
                  d="M377.53,684c1.27,4.32,2.73,5.76,6.72,17.27,3,8.49,4.23,13.69,7.68,14.39,2,.39,2.79-1,6.72-2.88,6.24-2.88,12-2.88,16.31-2.88,6.63,0,10.76,0,14.39,2.88,2.45,1.92,3.4,4.13,4.8,3.84,2.26-.46,2.73-6.86,2.88-8.64,1.49-18.56,6.45-19.93,6.72-34.55.17-9.6.57-30.39-14.39-42.22-7.11-5.62-18.92-10.2-29.75-6.72C377.8,631.55,372.59,667.23,377.53,684Z"
                  transform="translate(0.04 -5.28)"/>
            <path class="cls-3"
                  d="M399.6,618.77A80.9,80.9,0,0,1,414,631.25c7.42,8.17,11.22,15.78,19.19,35.51,11.26,27.83,16.88,41.75,20.15,54.7,3.78,15,4.9,25,7.68,25,.63,0,3.27-.48,7.68-23,4.09-20.93,6.72-34.42,5.76-53.74C473.31,646.61,467.6,627.07,463,616,436.48,552.7,339.16,510.69,278.7,535.37c-19.91,8.13-39,24.78-48,32.63-11.93,10.41-18.76,18.55-22.07,29.75A50.59,50.59,0,0,0,206.71,615c1.6,31.58,33.1,59,48,72,17.66,15.35,32.84,24.18,55.66,37.43,24.89,14.44,16,6.28,43.18,21.11,6.72,3.69,16.75,9.37,19.19,6.72,1.38-1.49-.25-5-1-6.72-3.55-8.89-1.73-18.56,2-37.56,4.15-21.11,8.89-33.14,20.15-70C396.38,629.62,398.4,622.85,399.6,618.77Z"
                  transform="translate(0.04 -5.28)"/>
            <path class="cls-5"
                  d="M213.43,780a156.91,156.91,0,0,1,14.39,33.59,189.8,189.8,0,0,1,5.76,29.75c.22,2,.34,3.51.34,3.51.71,8.64.09,11.72.62,11.84,1.22.28,7.91-14.58,8.64-32.63A81.77,81.77,0,0,0,241.26,805"
                  transform="translate(0.04 -5.28)"/>
            <path class="cls-5"
                  d="M599.2,774.24a163.56,163.56,0,0,1,8.64,45.1c1.42,30.5-6.3,54.06-3.84,54.7,1.92.51,7.57-14,10.56-24a132,132,0,0,0,4.8-24"
                  transform="translate(0.04 -5.28)"/>
            <path class="cls-1"
                  d="M114.58,1079.4c21.7,20.23,186.07-95.49,173.7-122.83-6.72-14.78-66.22-8.81-108.44,19.19C131.72,1007.66,102.37,1068,114.58,1079.4Z"
                  transform="translate(0.04 -5.28)"/>
            <path class="cls-2"
                  d="M123.22,1016.07c10.39,35,59.5,96.92,59.5,96.92,58.86,74.23,62.53,77,66.22,85.41.89,2.05,4.68,11.06,7.68,10.56s3.62-10,3.84-12.48c1.92-21.75,19.19-53.17,38.39-72.93,3.84-4,40.36-41.56,71-34.55,3.84.87,11.06,3.25,12.48,1,1.76-2.88-6.83-10.65-16.31-20.15-13.6-13.63-23.14-25.08-42.22-48-3-3.62-3.84-4.68-25-32.63-38-50.27-41.77-55.19-48.94-63.34-24.74-28.09-37.1-42.14-48.94-43.18-45.84-4-79.94,97-80.61,109.4-.21,3.84,0,7.68,0,7.68A80.74,80.74,0,0,0,123.22,1016.07Z"
                  transform="translate(0.04 -5.28)"/>
            <path class="cls-3"
                  d="M110.74,662.92c-17.07-4.65-34.08,6.72-44.14,13.44-7.53,5-21.25,15.61-34.55,37.43C25.1,725.18,12,750,8,789.6c-4.56,46.34,6.59,82.16,16.31,112.28C35.2,935.61,38,928.75,87.66,1029.51c18.18,36.89,23,44.14,26.87,49.9-8.6-30.71,148.78-147.79,171.82-125.71-4.8-6.72-10.56-9.39-25.91-33.59a253.84,253.84,0,0,1-23-44.14C228.67,853.7,231,848.39,224,828"
                  transform="translate(0.04 -5.28)"/>
            <polygon class="cls-6" points="50.37 1254.63 792.14 1064.63 1594.37 1064.63 1041.64 1254.63 50.37 1254.63"/>
            <rect class="cls-7" x="50.42" y="1254.63" width="991" height="53"/>
            <polygon class="cls-7"
                     points="1041.42 1254.57 1594.42 1064.47 1594.42 1112 1041.42 1307.37 1041.42 1254.57"/>
            <path class="cls-2"
                  d="M672.14,1042c.12,5,3,9,10.56,16.31,15.28,14.88,26.32,25.65,47,34.55,11.31,4.87,24.52,8.73,128.59,12.48,78.52,2.82,32.4-.77,91.17-1.92a101.73,101.73,0,0,0,17.27-1.92c5.76-1.12,8.64-1.69,10.56-2.88,12.06-7.42,5.47-38.24,4.8-41.26-1.5-6.72-6.22-24.16-22.07-42.22-14-16-28.79-23.32-48-32.63-16.61-8-36.18-17.53-64.3-21.11-13.28-1.69-42.18-5-74.85,6.72-18.23,6.55-9.93,7.85-61.42,39.35C687.09,1022.35,671.83,1030.26,672.14,1042Z"
                  transform="translate(0.04 -5.28)"/>
            <polygon class="cls-8" points="1147.42 1166.84 1147.42 1195.63 774.12 1190.84 1147.42 1166.84"/>
            <polyline class="cls-9" points="773.91 1191.2 985.03 1123.06 1354.49 1115.39 1147.21 1167.21"/>
            <path class="cls-10"
                  d="M1138.36,1198.5l140.18-389.77a34.85,34.85,0,0,1,28-22.58l200.22-28.36a5.34,5.34,0,0,1,5.76,7.33l-157,365a34.79,34.79,0,0,1-22.15,19.54L1145,1205.32a5.35,5.35,0,0,1-6.66-6.81Z"
                  transform="translate(0.04 -5.28)"/>
            <path class="cls-2"
                  d="M917.81,1040.06c-2.81-6.54,6.52-16.56,13.44-24,12.48-13.35,26.63-18,39.35-22.07,10.35-3.28,34.13-10.51,64.3-4.8,12,2.26,28.2,5.34,44.14,18.23,6.4,5.18,19.49,17.39,25.91,36.47,2.88,8.64.33,6.38,5.76,45.1a154,154,0,0,1,1.92,22.07c.12,14.63.19,21.95-4.8,27.83-8.15,9.6-23.46,8-26.87,7.68-14.91-1.54-24.13-11.37-26.87-14.39-10.32-11.35-11.95-24.85-12.48-29.75-1.32-12.33,2.54-15.49,0-25-3-11.26-11.52-18.06-15.35-21.11C993.74,1030.39,924.62,1055.89,917.81,1040.06Z"
                  transform="translate(0.04 -5.28)"/>
            <path class="cls-2"
                  d="M918.76,1058.29c-1.73,7.94,1.84,14.78,8.64,27.83,5.14,9.87,13.44,25.86,30.71,36.47,14.73,9.06,24.64,7.23,33.59,19.19,2.35,3.15,4.16,6.6,8.64,8.64,6.92,3.14,16.21,1.07,22.07-3.84,8.58-7.18,10.31-20.84,6.72-30.71-5-13.74-17.27-11.8-26.87-28.79-3.06-5.43-4.6-11.62-7.68-24-5.34-21.44-2.88-24.73-6.72-28.79C974.9,1020.54,924,1033.82,918.76,1058.29Z"
                  transform="translate(0.04 -5.28)"/>
            <path class="cls-2"
                  d="M1032,1000.71c17.69-1.24,52-3.65,65.26,12.48,1.7,2.07,6.65,8,14.52,18a132,132,0,0,0,9.47,10.77c10,10.25,13.91,12.41,17.27,20.15,1.27,2.88,2.14,11.58,3.84,28.79,3,30.8,1,17,1.92,25,1.17,9.33,2.13,12.79,0,16.31-3.53,5.84-12.3,6.34-18.23,6.72-5,.32-19.14,1.22-32.63-7.68-15.63-10.32-11.6-21.42-25-32.63-6.13-5.15-12.18-7.17-46.06-11.52-49.27-6.31-56-4.57-61.42-11.52-10.8-13.92-1.85-44.45,16.31-60.46C990.33,1003.63,1004.65,1002.63,1032,1000.71Z"
                  transform="translate(0.04 -5.28)"/>
            <path class="cls-10"
                  d="M943.72,1234.39c0,.48-186.17.48-186.17,0,0-36.83,41.68-66.7,93.09-66.7S943.72,1197.55,943.72,1234.39Z"
                  transform="translate(0.04 -5.28)"/>
            <path class="cls-5"
                  d="M929.32,1220.47a118.84,118.84,0,0,1,25-1.92c6.13.17,16.47.47,17.27,3.84,1,3.84-11.33,8.06-10.56,11.52.83,3.72,16,3.16,28.79,2.88,42.43-1,36.42,1.8,59.5,0,29.61-2.31,29.17-6,48.94-5.76,20.52.26,35.89.45,48,9.6,25.31,19.19,13.59,60.46,25.91,63.34,11.28,2.68,32.93-29.09,38.39-62.38,4.8-29.43-4-53.87-9.6-66.22"
                  transform="translate(0.04 -5.28)"/>
            <path class="cls-2"
                  d="M247,1149.46c-2.12,11.67-.11,21.16,1.92,30.71,1.16,5.45,6.78,31.91,25,48.94,19.47,18.23,46.06,18.84,61.42,19.19,171.11,3.93,157.92,4.53,175.62,3.84,0,0,47.89-1.87,159.3-13.44,0,0,10.15-1.06,39.35-7.68,13.15-3,16.12-4.09,19.19-6.72,8.32-7.11,8.86-18.91,9.6-42.22.68-21.53.88-32.45-5.76-39.35-8-8.28-20.81-7.79-25.91-7.68-28.92.67-76.22-7.55-170.82-24-35.1-6.1-31.67-8.58-98.84-22.07-20.3-4.08-52.5-10.25-93.09-6.72-12.7,1.1-19.9,1.78-29.75,4.8C309.66,1088.47,254.88,1106.11,247,1149.46Z"
                  transform="translate(0.04 -5.28)"/>
            <path class="cls-2"
                  d="M705.72,1146.58c5.55-5.7,12.33-13.71,25.91-29.75,37.43-44.14,42.93-55.66,60.46-60.46,4.36-1.18,14.39-1.43,34.55-1.92a307.42,307.42,0,0,1,36.47,1c12.48,1.12,18.72,1.69,24,3.84,4.58,1.92,10.11,5.06,26.87,25.91,11.46,14.26,17.88,25.5,30.71,48,3.13,5.48,6.8,12.14,4.8,19.19-2.11,7.42-9.37,11.32-11.52,12.48-27,14.52-68.44-29.06-94-14.39-8.64,4.92-3.84,9.78-24,36.47-10.73,14.18-16.09,21.28-25.91,27.83-18.23,12.15-37.43,13.08-47,13.44-3.93.14-13.18.26-32.63-3.84-34.81-7.34-61.32-12.93-63.34-25C649.14,1188.13,670.54,1182.75,705.72,1146.58Z"
                  transform="translate(0.04 -5.28)"/>
            <path class="cls-2"
                  d="M822.8,1137.94c-2.37,23.15,34.41,38.52,36.47,39.35,7.14,2.88,16.31,6.59,26.87,3.84,19.25-5,36.14-29.65,28.79-50.86-8-22.94-38.6-25.6-55.66-22.07C845.51,1111,824.51,1121.25,822.8,1137.94Z"
                  transform="translate(0.04 -5.28)"/>
            <path class="cls-2"
                  d="M926.44,1126.43c2,1.2,2.83,2.25,13.44,25.91,6.56,14.64,8.47,19.19,7.68,25.91a31.25,31.25,0,0,1-5.76,14.39c-.76,1.07-7.68,10.56-17.27,12.48-16.51,3.29-36-16.9-40.31-37.43-1-4.38-4.12-19.71,5.76-31.67C899,1125.09,916.15,1120.36,926.44,1126.43Z"
                  transform="translate(0.04 -5.28)"/>
            <path class="cls-11"
                  d="M475.41,159.1a107,107,0,0,0,1.92-32.63c-2-21-9.82-35.82-15.35-46.06-7.39-13.67-15.75-29.15-33.59-41.26C413,28.73,397.73,25.58,389,23.79a142.84,142.84,0,0,0-32.63-2.88c0,.12,23.33,6.42,48-1,6.21-1.86,9.6-3.7,17.27-4.8A76.21,76.21,0,0,1,450.44,17c16.41,4.57,26.09,14.77,40.31,29.75,9,9.47,25,26.58,34.55,52.78.86,2.35,2.81,9.24,6.72,23,9.29,32.82,9,36,7.68,38.39C531.55,175.28,483.35,161.44,475.41,159.1Z"
                  transform="translate(0.04 -5.28)"/>
            <path class="cls-10"
                  d="M446.62,155.26c8-9,17.61-13.39,22.07-15.35,15.83-7,30-6.28,38.39-5.76s35.51,2.18,58.54,22.07c21.36,18.43,27,41.77,32.63,65.26,6.72,27.83,3.64,47.38,2.88,51.82-2.47,14.39-3.37,21.68-7.68,25.91-26,25.53-158.73-35.19-161.22-97.88C431.09,172.79,446.62,155.26,446.62,155.26Z"
                  transform="translate(0.04 -5.28)"/>
            <path class="cls-2"
                  d="M384.24,155.26c1-9.43,10.23-23,11.52-25,4.94-7.25,10.65-15.62,21.11-21.11,16-8.38,32.46-4.5,39.35-2.88,14,3.3,22.83,10,33.59,18.23,21.83,16.67,32.39,34.62,34.55,38.39,7.27,12.71,14.45,25.23,11.52,40.31-1.45,7.45-5.36,15.53-10.56,20.15C494.63,250.75,380.07,192.75,384.24,155.26Z"
                  transform="translate(0.04 -5.28)"/>
            <path class="cls-12"
                  d="M69.48,495.94c5.76-1.92,10.62-4.24,23-12.48,11.16-7.4,16.76-17.13,20.15-23,9.6-16.67,10.21-33,10.56-40.31,1.42-29.61,7.68-58.79,10.56-88.29,4-40.83,7.4-71.86,24-99.8,31.49-53,96-69.28,137.23-79.65,8.69-2.19,52.34-12.77,109.4-7.68,22.28,2,55.54,5.25,94,23,16.5,7.62,37.63,17.61,58.54,38.39,28.46,28.29,39,59.24,47,82.53,5,14.7,17.63,52.54,16.31,98.84-.66,23.35,2,46.73,1,70.05a66.85,66.85,0,0,0,3.84,26.87c2.27,6.17,5.43,14.7,13.44,21.11,9.3,7.45,17.33,5.76,19.19,11.52.37,1.16,1.08,4.42-7.68,16.31-9.09,12.33-13.63,18.5-22.07,23-14.31,7.68-27.38,4.08-28.79,9.6-.68,2.68,2.3,3.84,5.76,11.52,3,6.6,5.29,15.79,2.88,17.27-1.74,1.07-4.56-2.68-10.56-5.76a42.47,42.47,0,0,0-20.15-3.84c-12.55.83-21.17,9.54-30.71,19.19-11.89,12-9.75,15.11-20.15,25a79.77,79.77,0,0,1-29.75,18.23c-17.15,5.64-31.9,3.16-44.14,1-16-2.88-20.1-6.42-44.14-15.35-36.92-13.71-64-19-70-20.15-16.15-3-28.36-5.29-45.1-4.8-20.91.61-35.34,4.88-48,8.64-18.33,5.46-24.56,10-28.79,14.39-5,5.22-7.25,10.17-8.64,9.6-2.22-1,.52-15,6.72-26.87,3-5.76,6.38-12,13.44-16.31s13.48-4,13.44-4.8c-.09-1.33-19.49-.55-31.67-1-8.2-.28-60-2.73-98.84-37.43-6.72-6-12.82-13.62-25-28.79C69.47,505.27,69.48,498.82,69.48,495.94Z"
                  transform="translate(0.04 -5.28)"/>
            <path class="cls-13"
                  d="M334.34,260.83c.12,29.52,2.54,29.83,1.92,44.14-.52,11.93-2,38.73-20.15,61.42A71.09,71.09,0,0,1,294,385.58c-6,3.23-23.44,12.74-43.18,9.6-3.77-.6-6.06-1.41-7.68,0-6.5,5.71,11.52,35.88,15.35,42.22a250.56,250.56,0,0,0,49.9,59.5c13.25,11.61,30.71,26.87,57.58,38.39,29.88,12.78,55,13.88,54.7,16.31-.27,2.11-19.19,2.08-36.47,0a202.89,202.89,0,0,1-54.7-14.39C294.13,522,272.92,500.12,268.13,495c-13.44-14.29-21.54-27.83-27.83-38.39-9.55-16-8.73-18.54-21.11-42.22-6.58-12.59-8.71-15.52-8.64-21.11,0-1.92.33-5.44-1.92-7.68-2-2-4.44-1.31-8.64-1.92-7-1-12.05-4.64-16.31-7.68-6.72-4.8-7.6-8.13-9.6-7.68-3.84.85-3.45,13.7-3.84,26.87-.65,22.57-1.2,41.26-8.64,60.46-4.33,11.15-7.68,19.74-16.31,26.87-17.57,14.48-38.54,7.66-41.28,16.3-3,9.38,19.66,24.06,24,26.87a90.15,90.15,0,0,0,36.47,13.44c10.77,1.67,20.6,3.2,31.67-1,11.38-4.27,17.47-12.08,19.19-10.56s-1.66,9.48-7.68,15.35c-11.29,11-26.74,8.69-26.87,11.52-.15,3.16,19,10.56,41.26,7.68,19.37-2.48,33.34-11.69,34.55-9.6,1.42,2.47-18.46,14.3-16.31,19.19,1.19,2.71,8.78,2.5,14.39,1,12.48-3.43,17.16-14,20.15-12.48,2.68,1.35,2.17,11.42-2.88,19.19-6.41,9.88-16.81,10.92-16.31,13.44.66,3.31,19.77,6.41,36.47-1.92,12.1-6,19.77-16.49,21.11-15.35s-7.68,11.42-4.8,15.35c1.56,2.14,5.63,1,16.31,0,5.42-.51,10.88-.59,16.31-1,13.87-1,26.18,7.27,37.43,13.44,15.83,8.64,30.71,13.14,60.46,22.07,33,9.89,42.31,8.64,47,7.68a68.21,68.21,0,0,0,30.71-15.35c10.61-9.6,8.13-14.28,20.15-26.87,7.6-8,17.34-18.16,30.71-19.19s22.8,7.76,25,4.8c1.68-2.31-2.57-9.72-8.64-13.44-5.37-3.28-10.5-2.66-10.56-3.84-.07-1.38,6.86-3,17.27-4.8,21.11-3.68,19.74-1.79,25-3.84,5.52-2.16,12-8.8,25-22.07,2.5-2.56,5.76-6,4.8-7.68-1.25-2.33-8.42,1.48-15.35-1-1.54-.54-7.42-2.88-12.48-15.35-7.16-17.62-4.37-35-3.84-38.39.61-3.94.09-26.94-1-72.93-1.11-48.7-15.35-85.51-26.87-115.16-18.3-47-33.65-61-38.45-65.18-17-14.65-36.47-22.07-44.14-25A163.76,163.76,0,0,0,413,181.17c-14.15,2.94-33,7.05-51.82,21.11-8.41,6.27-17.61,13.32-23,25.91C335.26,235,334.25,241.47,334.34,260.83Z"
                  transform="translate(0.04 -5.28)"/>
            <path class="cls-13"
                  d="M329.54,171.58c14.39-2,18.1-7.49,31.67-12.48,30.42-11.17,58.38-.76,58.54-1.92s-27.62-8.2-62.38-7.68a201.28,201.28,0,0,0-47,7.68c-9.74,2.75-17.36,5-17.27,7.68C293.2,169,311.67,174.08,329.54,171.58Z"
                  transform="translate(0.04 -5.28)"/>
            <path class="cls-2"
                  d="M166.4,352c4,3.58,9.16,7.45,16.31,8.64,3.64.6,10.46,1,20.15-3.84,17.5-8.64,27.37-25.74,32.63-34.55,25-41.89,39.06-65.43,61.42-80.61,10.28-7,19.8-15.17,30.71-21.11,9.36-5.1,16.31-7.78,20.15-15.35,4.32-8.55,1.83-17.84,1-21.11-9.6-35.81-71-50.52-76.77-51.82a151.79,151.79,0,0,0-57.58-1.92c-14.66,2.34-40.2,6.72-64.3,26.87-8.29,6.92-29.32,25-36.47,55.66-5,21.61-.54,38.18,5.76,61.42C119.38,274.26,132,320.91,166.4,352Z"
                  transform="translate(0.04 -5.28)"/>
            <path class="cls-14"
                  d="M338,414c-1.29-15.37,6.11-27.44,8.75-31.75,6.13-10,15-16.13,32.5-28C391,346.32,398,341.51,409,336.5c17.08-7.8,30.65-14,48-11.5,4.1.59,20.37,3.16,32.75,16.25,7,7.44,10,15.31,13,23.25,7.57,20.07,5.85,34.15,9.25,34.5,2.9.3,6.28-9.71,9.75-20,6.24-18.51,5.25-24.09,10.5-31.75,1.24-1.81,9.56-13.48,21.25-15,26.84-3.49,49.27,49.5,54.25,61.25,3,7.09,8.75,22.33,4.5,37a41.39,41.39,0,0,1-4,9.25c-1.73,2.91-7.92,12.45-17.5,15.75-6.61,2.28-8.85-.47-28-4.25-17.34-3.42-18.43-1.75-29.75-5.25a124,124,0,0,1-21.25-9c-10.19-5.45-15.28-8.17-18-11.75-1.47-1.94-3.13-4.66-5.25-4.5-2.88.22-4.6,5.61-5,6.75-4.22,12-28,25.07-42.25,30.5-9.65,3.67-41.33,15.73-70.75-.5C364.83,454.36,340.16,439.65,338,414Z"
                  transform="translate(0.04 -5.28)"/>
            <path class="cls-2"
                  d="M536.83,396.14a71.55,71.55,0,0,1-1-18.23c.57-11.52,1-19.7,6.72-26.87.88-1.09,8.7-10.56,20.15-10.56,11.88,0,19.84,10.2,26.87,19.19,10.11,13,13.14,25.91,15.35,35.51,1.92,8.3,2.94,12.88,1.92,19.19-.46,2.88-3.17,17.47-16.31,25-2.28,1.3-9,5.11-17.27,3.84-8.11-1.23-13-6.55-19.19-13.44A68.85,68.85,0,0,1,536.83,396.14Z"
                  transform="translate(0.04 -5.28)"/>
            <path class="cls-13"
                  d="M552.18,394.22c.29-1.92,1.11-7.21,5.76-10.56,5.18-3.74,11.23-2.23,12.48-1.92a15.8,15.8,0,0,1,9.6,6.72c3.84,6.18,1.5,12.87,1,14.39a18.12,18.12,0,0,1-9.6,10.56c-1.49.63-5.41,2.28-9.6,1C554.35,412,551,401.82,552.18,394.22Z"
                  transform="translate(0.04 -5.28)"/>
            <path class="cls-2"
                  d="M372.73,403.81a47.2,47.2,0,0,1,4.8-26.87c4-7.75,9.41-11.89,20.15-20.15,9.26-7.13,18.08-13.91,31.67-18.23,9.5-3,17.77-5.64,27.83-2.88,13.93,3.84,21.26,15.24,23,18.23,12.59,21.23-1.14,46.75-3.84,51.82-.71,1.34-14.53,26.37-43.18,33.59a60.81,60.81,0,0,1-25.91,1c-6.1-1.2-15.91-3.13-24-11.52C374.49,419.65,373.26,408.59,372.73,403.81Z"
                  transform="translate(0.04 -5.28)"/>
            <path class="cls-13"
                  d="M434.14,386.54c.61-4.55,4.35-7.34,8.64-10.56,3.9-2.88,10-7.49,17.27-5.76a15.35,15.35,0,0,1,8.64,5.76c5.14,7.19,1.67,17-1.92,22.07-1.25,1.77-3.84,5.45-8.64,6.72a15.22,15.22,0,0,1-9.6-1C442,401.34,433.1,394.32,434.14,386.54Z"
                  transform="translate(0.04 -5.28)"/>
            <path class="cls-12"
                  d="M526.27,395.18a55.47,55.47,0,0,1,18.23,9.6A57.2,57.2,0,0,1,559.86,424a45.1,45.1,0,0,1,3.84,9.6c1.51,5.92-17.38,11.52-17.75,14.87"
                  transform="translate(0.04 -5.28)"/>
            <path class="cls-15"
                  d="M557,519.93c.73,1.41-7.06,4.89-14.39,13.44-1.68,1.92-4.32,5.76-9.6,13.44l-2.52,3.67a56.07,56.07,0,0,0-4.19-16.14c-1-2.3-4.8-11-13-17.14a29.57,29.57,0,0,0,7.27-4c3-2.21,5.67-5.14,9.6-4.8,2.88.25,3.2,2,10.56,6.72,6.48,4.17,9,4.65,10.56,4.8C554.69,520.26,556.61,519.22,557,519.93Z"
                  transform="translate(0.04 -5.28)"/>
            <path class="cls-16"
                  d="M530.46,550.47a22.16,22.16,0,0,1-4.19,5,27.55,27.55,0,0,1-12.48,5.76c-8.84,1.48-15.89-2.59-23-6.72a64.21,64.21,0,0,1-23-23c-3-5.09-8.77-15-5.76-18.23,3.41-3.66,12.78,6.81,30.71,6.72,6.17,0,13.57-.08,20.56-2.74,8.24,6.09,12,14.84,13,17.14A56.07,56.07,0,0,1,530.46,550.47Z"
                  transform="translate(0.04 -5.28)"/>
            <path class="cls-5"
                  d="M513.24,517.18c-7,2.67-14.39,2.71-20.56,2.74-17.93.1-27.3-10.37-30.71-6.72-3,3.24,2.78,13.15,5.76,18.23a64.21,64.21,0,0,0,23,23c7.14,4.13,14.19,8.2,23,6.72a27.55,27.55,0,0,0,12.48-5.76,22.16,22.16,0,0,0,4.19-5L533,546.8c5.28-7.68,7.92-11.52,9.6-13.44,7.33-8.54,15.12-12,14.39-13.44-.36-.71-2.28.33-5.76,0-1.54-.14-4.08-.62-10.56-4.8-7.36-4.74-7.68-6.47-10.56-6.72-3.92-.35-6.65,2.59-9.6,4.8A29.57,29.57,0,0,1,513.24,517.18Z"
                  transform="translate(0.04 -5.28)"/>
            <path class="cls-5" d="M513.24,517.18c8.24,6.09,12,14.84,13,17.14a56.07,56.07,0,0,1,4.19,16.14"
                  transform="translate(0.04 -5.28)"/>
            <path class="cls-17"
                  d="M522.43,497.86a39.09,39.09,0,0,0,8.64,16.31c3.09,3.45,7.3,8.16,14.39,9.6a23.88,23.88,0,0,0,14.39-1.92,27.15,27.15,0,0,0,12.48-10.56,28.13,28.13,0,0,0,3.84-11.52,35.3,35.3,0,0,0-1-14.39"
                  transform="translate(0.04 -5.28)"/>
            <path class="cls-17"
                  d="M441.82,495.94a50.86,50.86,0,0,0,6.72,13.44,53.26,53.26,0,0,0,28.79,20.15,54.53,54.53,0,0,0,25,1c6.11-1.08,15.77-2.78,24-10.56a42.36,42.36,0,0,0,9.6-14.39c3.07-6.82,3.84-12.48,4.8-19.19a108.7,108.7,0,0,0,1-19.19"
                  transform="translate(0.04 -5.28)"/>
            <path class="cls-14"
                  d="M435.1,493.06c0,1.54-2.69,1.6-3.84,3.84-1.65,3.21,1.73,7.15,1,7.68s-7.42-3.5-6.72-8.64c.38-2.88,3-5.87,5.76-5.76C433.11,490.26,435.13,491.72,435.1,493.06Z"
                  transform="translate(0.04 -5.28)"/>
            <path class="cls-5" d="M532,567a26.8,26.8,0,0,1-1,22.07" transform="translate(0.04 -5.28)"/>
            <rect class="cls-2" x="508.42" y="425.63" width="59" height="41" rx="11.52" ry="11.52"/>
            <path class="cls-13"
                  d="M528.78,434.91h5.55a11.5,11.5,0,0,1,11.5,11.5h0a11.5,11.5,0,0,1-11.5,11.5h-5.55a11.5,11.5,0,0,1-11.5-11.5h0a11.5,11.5,0,0,1,11.5-11.5Z"
                  transform="translate(0.04 -5.28)"/>
            <path class="cls-9"
                  d="M269.64,363.92a106.52,106.52,0,0,0,7.37,30.5c17.5,43,33.34,63.14,33.34,63.14,17.11,21.76,33.92,35,47,45.1,26.26,20.34,51.19,28.34,49.9,31.67-.91,2.32-13.78-.22-22.07-2.88A78,78,0,0,1,367,522.81c-14.21-8.94-29.29-18.43-47-36.47-12.64-12.86-20.33-23.65-28.79-35.51-9.32-13.07-16.41-23.15-23-38.39a179.5,179.5,0,0,1-9.6-28.79c-4.41-17.52-6.87-37.69-4.8-40.31,3.55-4.47,14.33-3,15.35,0,.26.76-.25,1.18-1,3.84Z"
                  transform="translate(0.04 -5.28)"/>
            <path class="cls-18"
                  d="M392.88,536.24c0,2,.19,7,4.8,13.44,7.59,10.67,19.19,14.39,25,16.31,10,3.25,16.27,2.49,19.19,1.92,3.32-.64,7.24-1.45,9.6-4.8,3.08-4.36,1.4-10,1-11.52-1.62-5.49-5.45-8.53-10.56-12.48-8.54-6.59-16.31-9.08-24-11.52-4.41-1.4-8.49-2.38-13.44-1.92-3.09.29-7.15.72-9.6,3.84A10.71,10.71,0,0,0,392.88,536.24Z"
                  transform="translate(0.04 -5.28)"/>
            <path class="cls-10"
                  d="M177,213.8c-10.23,24-9.89,45-9.6,56.62.47,18.23,1,35.16,11.52,53.74,5.76,10.09,18.6,27.83,42.22,37.43,26.73,10.85,50.52,4.5,58.54,1.92a87.33,87.33,0,0,0,33.59-20.15C337.55,320,340.94,289,343,270.42s4.8-42.71-7.68-69.09c-3.54-7.49-21.36-45.1-58.54-51.82-21.48-3.84-39.68,4.37-47,7.68-18.42,8.32-29.28,20.72-34.55,26.87A116.4,116.4,0,0,0,177,213.8Z"
                  transform="translate(0.04 -5.28)"/>
            <path class="cls-8"
                  d="M236.46,138c.81-22.83,11.52-40.44,16.31-49.9a131.8,131.8,0,0,1,22.07-31.67c9.29-9.7,17.76-15.35,25-20.15a158.48,158.48,0,0,1,39.35-19.19c9.38-2.94,15.86-5,25-4.8,3.25.06,2.88.33,20.15,1.92,11.2,1,13.44,1.1,16.31,1,5.62-.29,7.58-2.88,17.27-2.88,6.72,0,24.78,2.17,25,2.88.25,1.06-37-.74-72,17.27-13.27,6.85-31,16.23-47,35.51C311.59,82.85,306,96.83,301.85,107.34c-12.57,32-13.17,62.31-12.48,73.89.48,8,.07,16,1,24,1.06,9.46,2.29,13.15,0,15.35-3.3,3.19-8.94-1.5-25-4.8-14.73-3-20.54-1.26-25-6.72-2.71-3.35-4-8.29-4.8-11.52a27.23,27.23,0,0,1-1-9.6C234.78,185.37,236.19,145.61,236.46,138Z"
                  transform="translate(0.04 -5.28)"/>
            <path class="cls-9"
                  d="M186.56,253.15c-.12,3-.49,14.63,3.84,30.71,3.58,13.31,6.13,22.81,13.44,31.67,11.81,14.35,32.11,22.22,51.82,20.15,27.27-2.88,42-23.56,45.1-27.83,10.08-14.12,11.52-28,13.44-46.06,1.62-15.48,3.29-31.35-3.84-49.9-3.31-8.64-11-28.59-31.67-38.39A55.92,55.92,0,0,0,248,168.7c-18.63,2.46-30.15,13.89-35.51,19.19-15.52,15.35-20,33.73-23,46.06A99.33,99.33,0,0,0,186.56,253.15Z"
                  transform="translate(0.04 -5.28)"/>
            <path class="cls-13"
                  d="M39.25,741.13c.41-9.6,6-16.45,14.39-26.87,5-6.14,14.51-17.71,30.71-25.91,12.15-6.15,15-3.84,32.63-12.48,8.55-4.2,8.83-5.22,18.23-9.6,14.66-6.82,15.91-5.25,25.91-10.56,12.64-6.72,15.43-11.77,21.11-10.56,6.3,1.33,9.33,8.94,11.52,13.44,3.49,7.18,15.77,17.58,40.31,38.39,23.9,20.26,42.59,32.79,62.38,46.06,19.08,12.79,27.18,17.1,35.51,20.15,21.71,8,24,8.64,24,8.64,6.86,2,8.53,2.18,10.56,3.84,9.15,7.52,3.69,28.38,1.92,35.51-10.14,40.8-10.31,78.56-10.56,133.39-.06,13.1.43,24.68,2.88,38.39,3.13,17.51,5.76,32.2,15.35,48,8.51,14,18.23,21.86,15.35,26.87-2.1,3.66-9.32,3.06-11.52,2.88-11.52-1-18.64-10.86-26.87-21.11-28.63-35.6-40.24-41.39-44.15-58.6-3-13.44-2.88-21.11-2.88-21.11.18-7.88,1.69-10.62,0-15.35-2.53-7.11-9-9.42-14.39-13.44-10.81-8-6.52-14.52-17.27-31.67-12.21-19.46-22.81-20.39-24-33.59-.5-5.58,1.32-6.13,3.84-19.19A195.55,195.55,0,0,0,257.09,816c.47-35.07-39-76.69-40.31-75.81-.65.45,8.64,12.24,14.39,33.59,1.92,7.11,3.77,16.54,1.92,17.27s-6-9.6-17.27-21.11c-1.36-1.4-15.95-16.23-20.15-13.44-2.6,1.73.33,9.13,5.76,27.83,0,0,5,17.27,10.56,40.31,4.48,18.65,3.52,19,8.64,40.31,4.35,18.09,6.53,27.14,9.6,33.59,8.86,18.59,18.9,23.93,16.31,30.71-1.92,5-8.29,4.24-26.87,9.6a237.47,237.47,0,0,0-44.14,17.27c-13.93,7.32-15.43,10.46-20.15,9.6-11.83-2.17-13.77-23.94-23-51.82-7.68-23.22-20.5-44.91-46.06-88.29C75.94,808,68,788.9,55.56,772.8,46.83,761.49,38.72,753.27,39.25,741.13Z"
                  transform="translate(0.04 -5.28)"/>
            <path class="cls-13"
                  d="M238.86,642.28c-.77,4.09,1,10.79,34.55,34.55,28.53,20.15,27.21,15.29,49.9,31.67,16.48,11.9,25.57,20.5,31.7,17.27,2.77-1.49,3.17-4.51,5.76-18.23,2.63-13.91,5.44-27.74,6.72-33.59,5.14-23.5,9.16-25.43,6.72-30.71-3.71-8-14.78-7.45-47-11.52-40.64-5.12-54-9.94-72.93-1.92C247.91,632.48,240,635.91,238.86,642.28Z"
                  transform="translate(0.04 -5.28)"/>
            <path class="cls-13"
                  d="M440.38,659.56c-1.57,1.8,9.48,9.22,14.39,25.91,3.84,12.93,1.07,21.76,2.88,22.07,2.49.44,11.89-15.5,6.72-29.75C459.26,663.71,442.17,657.51,440.38,659.56Z"
                  transform="translate(0.04 -5.28)"/>
            <path class="cls-13"
                  d="M454.78,768c1.4-.47,4.31,7.92,8.64,7.68s7.08-9.21,9.6-17.27c13-41.74,14.59-36.92,15.35-47,1.77-23.19-7.73-30.71-1-40.31,6.08-8.64,20.15-11.57,30.71-8.64,13.44,3.74,21.65,17.27,34.55,55.66,12.15,36.19,23.14,69.66,28.79,122.83,2.25,21.11,4.54,42.68,2.88,72-2.44,43-9.78,38.93-12.48,84.45-1.62,27.33-11,54.23-9.6,81.57.13,2.58.58,9.82-3.84,13.44-5.83,4.8-15.22-.72-32.63-5.76-28.45-8.23-35.93-3-42.22-10.56-8.28-10-.59-25.42,3.84-46.06,2.88-13.25.61-37.62-3.84-86.37-4.88-53.47-7.33-80.21-15.35-113.24C462.89,808.46,451.76,769,454.78,768Z"
                  transform="translate(0.04 -5.28)"/>
            <path class="cls-13"
                  d="M562.26,668.19c-1.8,1.45,26.68,26.14,40.31,70,11.17,36,8.27,71.73,13.44,72,3.33.15,5.39-14.69,8.64-14.39,3.45.32,6.47,17.63,4.8,35.51-2.06,22.14-9.5,25.67-6.72,39.35,2,9.94,6.11,8.84,15.35,27.83,8.9,18.29,8,25.16,13.44,26.87,7.6,2.37,13.18-9.66,31.67-23,24.57-17.75,41.45-15.83,43.18-25.91,1.45-8.45-9.68-14.12-25.91-29.75-8.94-8.64-20.35-25-43.18-57.58-28-40-24.75-39.22-41.26-61.42C589.81,692.48,564,666.76,562.26,668.19Z"
                  transform="translate(0.04 -5.28)"/>
            <path id="DiaVita_Club_копия" data-name="DiaVita Club копия" class="cls-19"
                  d="M254.59,884.67a1.54,1.54,0,0,0,1.13.32l9.09-1q7.06-.72,10-3.84t2.32-9.15q-.61-6-4.11-8.53t-10.56-1.78l-9.09,1a1.49,1.49,0,0,0-1,.56,1.55,1.55,0,0,0-.34,1.17l2,20.24A1.42,1.42,0,0,0,254.59,884.67Zm3.84-18.85,4.35-.44q4.35-.44,6.1,1t2.13,5.28q.39,3.84-1,5.59t-5.76,2.2l-4.35.44ZM279.79,862a1.83,1.83,0,0,0,1.41.36l2-.2a1.85,1.85,0,0,0,1.32-.63,1.92,1.92,0,0,0,.36-1.41l-.06-.55a1.74,1.74,0,0,0-1.77-1.71h-.3l-2,.2a1.84,1.84,0,0,0-1.31.63,1.92,1.92,0,0,0-.36,1.42l.06.55a1.83,1.83,0,0,0,.63,1.31Zm1.6,20a1,1,0,0,0,.74.2l3.64-.36a1,1,0,0,0,.89-1.08l-1.56-15.35a1,1,0,0,0-1-.89h0l-3.7.37a1,1,0,0,0-.89,1h0l1.5,15.49a1,1,0,0,0,.36.68Zm16.36-1a9.93,9.93,0,0,0,5.76-2.43v.5a1,1,0,0,0,1.09.88l3.13-.32a1,1,0,0,0,.89-1l-1-10.07a6.28,6.28,0,0,0-2.88-5.12,10.18,10.18,0,0,0-6.38-1.1q-8.86.9-8.38,5.56a1,1,0,0,0,1,.89h0l2.48-.25a2.48,2.48,0,0,0,1.86-1.18,3.46,3.46,0,0,1,2.69-1.27,4.11,4.11,0,0,1,2.88.47,3.56,3.56,0,0,1,1.07,2.56l-5.34.54a9.73,9.73,0,0,0-5.4,2,4.8,4.8,0,0,0-1.75,4.41,4.87,4.87,0,0,0,2.6,4,9.52,9.52,0,0,0,5.65,1Zm-.35-7.73,5-.5.26,2.53a8.94,8.94,0,0,1-4.67,2,3,3,0,0,1-2-.35,1.92,1.92,0,0,1-.45-2.68h0l.17-.2a2.73,2.73,0,0,1,1.74-.73Zm19.61,3.8a2.48,2.48,0,0,0,2.49,1.39l2.34-.24a2.48,2.48,0,0,0,2.16-1.86l7.29-21.22a1.21,1.21,0,0,0,0-.44,1,1,0,0,0-.36-.51,1.09,1.09,0,0,0-.9-.27l-3.56.36c-.84.09-1.42.69-1.78,1.75l-4.88,14.64-7.68-13.38a2.14,2.14,0,0,0-2.09-1.35l-3.53.36a1.09,1.09,0,0,0-.82.44.81.81,0,0,0-.1,1Zm17.42-20a1.83,1.83,0,0,0,1.41.36l2-.2a1.85,1.85,0,0,0,1.32-.63,1.92,1.92,0,0,0,.36-1.41l-.06-.55a1.74,1.74,0,0,0-1.77-1.71h-.3l-2,.2a1.84,1.84,0,0,0-1.31.63,1.92,1.92,0,0,0-.36,1.42l.06.55a1.83,1.83,0,0,0,.63,1.31Zm1.78,19.45a1,1,0,0,0,.75.22l3.64-.36a1,1,0,0,0,.89-1.08L339.93,860a1,1,0,0,0-1.09-.88l-3.64.36a1,1,0,0,0-.89,1h0L335.88,876a1,1,0,0,0,.35.68Zm15.35-5.76a3.84,3.84,0,0,1-1-2.48l-.6-5.93,4.53-.46a1,1,0,0,0,.88-1.09l-.19-1.92a1,1,0,0,0-1.08-.89l-4.53.46L349,853a1,1,0,0,0-1-1h-.1l-3.67.37a1,1,0,0,0-.89,1v.06l1.55,15.35q.74,7.3,7.68,6.59a23.31,23.31,0,0,0,4.32-.77,1.27,1.27,0,0,0,.69-.41.9.9,0,0,0,.22-.67l-.17-1.74a1,1,0,0,0-1-.89h0L356,871l-2.21.41a2.64,2.64,0,0,1-2.2-.74ZM367.51,874a9.92,9.92,0,0,0,5.7-2.42v.5a1,1,0,0,0,1.09.88l3.14-.32a1,1,0,0,0,.89-1v-.1l-1-10a6.29,6.29,0,0,0-2.88-5.12,10.16,10.16,0,0,0-6.38-1.1q-8.86.9-8.38,5.56a1,1,0,0,0,1,.89h0l2.49-.25a2.48,2.48,0,0,0,1.92-1.18,3.46,3.46,0,0,1,2.7-1.27,4.07,4.07,0,0,1,2.88.47,3.58,3.58,0,0,1,1.07,2.56l-5.33.54a9.75,9.75,0,0,0-5.4,2,4.8,4.8,0,0,0-1.75,4.41,4.88,4.88,0,0,0,2.6,4,9.52,9.52,0,0,0,5.66,1Zm-.71-7.73,5-.51.26,2.53a9,9,0,0,1-4.67,2,3,3,0,0,1-2-.35,1.8,1.8,0,0,1-.83-1.37A1.78,1.78,0,0,1,365,867a2.7,2.7,0,0,1,1.76-.73Z"
                  transform="translate(0.04 -5.28)"/>
            <path class="cls-20"
                  d="M400.08,693.15c-2.42-3.07-2.6-6.38-2.88-11.52-.36-6.66,1.11-11.57,2.88-17.27,2.24-7.21,3.36-10.82,5.76-11.52,5.44-1.58,12.88,10.1,14.39,12.48,3.24,5.1,8.86,13.91,5.76,23a15.34,15.34,0,0,1-6.72,8.64C413,700.5,404.21,698.39,400.08,693.15Z"
                  transform="translate(0.04 -5.28)"/>
            <path class="cls-20"
                  d="M404.88,731.53c0,39.35,4.8,93.09,0,178.49-1,17.27-7.81,38.39-1.92,66.22,1.62,7.68,5.56,18.85,13.44,41.26,9.81,27.91,12.4,31.37,15.35,31.67,8.87.88,20-25,25-47,4.19-18.84,3.84-35-3.84-86.37-5.4-36-5.39-29.1-14.39-84.45-4.23-26-12.65-51.44-14.39-77.73-.77-11.52-1.31-29.16-7.68-30.71C411.94,721.82,404.88,728.57,404.88,731.53Z"
                  transform="translate(0.04 -5.28)"/>
            <path class="cls-21"
                  d="M207.19,271.86c-4.69-9.21-4.74-17.54-4.8-25.91-.07-10.6-.19-28.64,12.48-44.14,2.88-3.47,19.58-23,44.14-20.15,21.22,2.52,32.56,20,34.55,23,9.2,14.15,8.43,28.4,7.68,42.22-1,17.5-2,36.47-16.31,47-15,11.12-35,5.76-42.22,3.84C237.46,296.37,216.85,290.85,207.19,271.86Z"
                  transform="translate(0.04 -5.28)"/>
            <path class="cls-21"
                  d="M305.07,180.69c-1.63,1.27,11.07,13.51,17.27,34.55,6.13,20.8,2.69,39.28,0,53.74-2.94,15.76-5.28,28.39-14.39,41.26C293,331.36,271.76,336.43,273.4,341c1.28,3.52,15.35,3.67,26.87-1.92,16.6-8,23-25.6,26.87-36.47,3.22-8.91,4.39-20,6.72-42.22,2.2-20.95,1.5-27.16,1-30.71A77.31,77.31,0,0,0,323.34,199C316.22,188.16,306.46,179.61,305.07,180.69Z"
                  transform="translate(0.04 -5.28)"/>
            <path class="cls-21"
                  d="M537.31,157.66c-1.55,2.88,9.22,8.39,22.07,24,14.34,17.42,19,32.5,21.11,31.67s-1.15-13.73-3.84-22.07c-4-12.4-6.91-21.41-15.35-27.83C552,156.32,538.86,154.72,537.31,157.66Z"
                  transform="translate(0.04 -5.28)"/>
            <path class="cls-21"
                  d="M258,115.44c-.77-8.68,2.52-16.23,11.52-29.75,10.6-15.95,15.91-23.91,25-31.67,11.2-9.6,21.52-14.2,30.71-18.23,19.75-8.64,39.61-12.48,40.31-10.56.76,2.15-23.39,6.72-45.1,27.83-13.77,13.44-20.87,27.94-25,36.47-12.76,26.7-14.34,50.18-16.31,49.9-2.44-.34,1.43-35.67-2.88-36.47-3.56-.66-9.37,22.85-14.39,22.07C258.92,124.57,258,116,258,115.44Z"
                  transform="translate(0.04 -5.28)"/>
            <path class="cls-22"
                  d="M191.83,1018.46c.35-2.26,1.46-4.52,25-20.15,16.31-10.85,24-15.19,32.63-19.19,11-5.08,16.63-7.59,22.07-6.72,10,1.62,15.35,10.82,24,24,17,26,3.31.87,39.35,53.74,14.5,21.28,19.69,29.69,31.67,34.55,10.35,4.19,19.56,3.22,24,2.88,12.86-1,41.7,5.76,98.84,19.19,92.37,21.78,81.57,22.12,99.8,24,54.6,5.59,81.92,8.38,86.37,7.68,4.16-.65,24.41-4,28.79,3.84,1.92,3.45-.71,6.32,0,16.31.68,9.7,3.53,12.34,1.92,15.35-4,7.44-27.09,2.29-28.79,1.92-55.35-12.25-113.24-5.09-169.86-8.64-67.42-4.22-84.81-1.74-139.15-9.6-11.28-1.63-27,0-45.1-7.68-9.72-4.14-17.56-9.41-58.54-51.82-43.35-44.85-32.63-36.93-44.14-47C202.84,1035.5,190.35,1028.06,191.83,1018.46Z"
                  transform="translate(0.04 -5.28)"/>
            <path class="cls-22"
                  d="M722.52,1131.7c2.44-6.26,10.93-14.49,27.83-30.71,16-15.35,15.93-14.89,23-22.07,9.86-10,10.06-13.62,16.31-17.27,7-4.07,14.25-4.32,28.79-4.8a223.73,223.73,0,0,1,34.55,1.92c8.44,1.06,14.93,1.36,23,3.84a59,59,0,0,1,13.44,5.76c7.78,4.64,14.27,11.22,13.44,12.48s-7-3.46-18.23-5.76c-9.39-1.92-18.93-1.51-19.19,0s10.29,2.88,25,10.56c7.81,4.09,14.79,7.83,21.11,15.35,3.68,4.38,1.43,3.24,10.56,17.27a57,57,0,0,1,7.68,15.35c1,3.39,2.36,7.68,1,8.64-1.57,1-5.59-2.88-16.31-12.48-10.14-9.12-15.28-13.71-18.23-15.35-9.35-5.2-18.75-6.27-23-6.72-6.07-.63-8.38,0-20.15-1-8.51-.69-8.42-1.11-10.56-1-10.9.77-17.8,12-24,20.15-6.49,8.53-16.48,16.56-36.47,32.63-21.47,17.27-33.93,27-45.1,23-8.41-3-12.37-12.48-14.39-17.27C716.13,1149.1,721.35,1134.71,722.52,1131.7Z"
                  transform="translate(0.04 -5.28)"/>
            <path class="cls-22"
                  d="M682.21,934c.21-3.21,7.5-5.65,22.07-10.56,13.44-4.5,20.25-6.72,27.83-5.76,4.94.63,10.34,3.63,21.11,9.6,9.6,5.31,9.65,6.11,29.75,19.19,11.09,7.22,14.92,9.48,14.39,11.52-.74,2.83-8.75.81-21.11,3.84-15.78,3.84-18.32,11-27.83,10.56-8.19-.37-10.69-5.85-22.07-14.39C702.52,940.12,681.79,940.35,682.21,934Z"
                  transform="translate(0.04 -5.28)"/>
            <path class="cls-22"
                  d="M761.86,983.92c3.33-6,9.6-9.09,25.91-12.48,17.89-3.72,32.42-6.72,53.74-4.8,15.67,1.44,26.12,4.8,47,11.52,15.52,5,41.13,13.22,40.31,19.19-.42,3-7.25,2.11-22.07,8.64a105.31,105.31,0,0,0-25,15.35c-9.33,7.8-7.8,9.6-12.48,12.48-14.14,8.68-28.45-7.55-66.22-16.31-23.19-5.38-35.51-3.37-41.26-13.44A21.36,21.36,0,0,1,761.86,983.92Z"
                  transform="translate(0.04 -5.28)"/>
            <path class="cls-22"
                  d="M941.32,1017.51c9.21-6.09,17.35-8.88,27.83-12.48a176,176,0,0,1,40.31-8.64c12.32-1.17,21-2,32.63,0,9.6,1.66,27.36,4.72,40.31,18.23,8.34,8.7,5,11.65,17.27,25.91,4.1,4.8,8.64,9.24,11.52,17.27,1.61,4.44,4,11.14,1,15.35-4.25,5.76-16.46,3.49-23,1-2.75-1.06-8-3.51-16.31-12.48-11.71-12.66-9.44-16.67-16.31-23-4.43-4.11-6.78-3.73-50.86-9.6-10.15-1.35-16.93-2.29-25,1-2.64,1.07-11.52,4.68-15.35,13.44-3,6.9-1.18,13.23,1.92,24,2,6.95,5.09,17.27,13.44,27.83,10.29,13,20.33,15.9,19.19,19.19-1.38,4-17.19,3-29.75-1-8.27-2.63-15.46-6.72-24-13.44-20.88-16.31-35.88-28.11-35.51-44.14C911,1037.52,931.4,1024.06,941.32,1017.51Z"
                  transform="translate(0.04 -5.28)"/>
            <path class="cls-22"
                  d="M1122.69,1047.25c-1.07.79,3.51,5.39,5.76,16.31,1.63,7.94.35,11,2.88,18.23.47,1.33,3.84,10.89,6.72,10.56s5.5-10.88,3.84-20.15C1139.07,1056.45,1124.43,1046,1122.69,1047.25Z"
                  transform="translate(0.04 -5.28)"/>
            <path class="cls-19"
                  d="M220.7,284.77a4.12,4.12,0,0,0,2.88,1.31l24.48,1.3q19,1,28-6.11T286,258q.85-16.21-7.4-24.31t-27.26-9.08l-24.48-1.3a4,4,0,0,0-3,1.07,4.16,4.16,0,0,0-1.37,3l-2.88,54.54A3.84,3.84,0,0,0,220.7,284.77Z"
                  transform="translate(0.04 -5.28)"/>
            <path class="cls-23"
                  d="M238.57,236.35l11.72.61q11.72.61,15.78,5.15t3.5,14.86q-.55,10.39-5,14.39t-16.23,3.45l-11.72-.61Z"
                  transform="translate(0.04 -5.28)"/>
        </g>
        <g id="Layer_2-2" data-name="Layer 2-2">
            <path class="cls-24"
                  d="M1790.12,566.41c-2.24-4.7.59-10.29,5-19,2.78-5.49,10.19-20.13,27-27,6.06-2.48,17.26-7,25-2,11.06,7.21,11.17,31.52,0,45C1831.56,582.18,1795.69,578.09,1790.12,566.41Z"
                  transform="translate(0.04 -5.28)"/>
            <path class="cls-24"
                  d="M1885.12,550.41c1.66-2.4,9.79-13.45,24-14s22.88,9.66,24,11c7.21,8.64,7.08,18.54,7,24s-.21,15.44-7,23c-9.56,10.66-29.69,13.33-43,3C1875.11,585.76,1876.2,563.32,1885.12,550.41Z"
                  transform="translate(0.04 -5.28)"/>
            <path class="cls-24"
                  d="M1941.12,679.41c3.75,6.09,4.2,13.64,5,27,.6,10.11,1,16.55-1,24-3.24,12.13-13.93,31.36-31,33-16.78,1.61-29.48-14.76-32-18-15.81-20.37-21.18-59.28,1-75C1901.11,657.66,1931.69,664.1,1941.12,679.41Z"
                  transform="translate(0.04 -5.28)"/>
            <path class="cls-24"
                  d="M2119.12,280.41c-5-7.9-13.6-1.81-49-15-12.91-4.81-23.16-9.87-45-17-18.94-6.18-24.37-6.67-30-5-15.4,4.58-22.42,22.44-25,29-11.63,29.6-2,63.89,15,87,8.38,11.41,18.61,25.34,35,29C2070.18,399.58,2134.88,305.35,2119.12,280.41Z"
                  transform="translate(0.04 -5.28)"/>
            <path class="cls-25"
                  d="M2019.12,364.41c.94-3.34,3.18-11.08,0-19-.88-2.18-4.88-11.13-23-18-33.05-12.54-64-1-64-1-29.82,11.12-44.42,35.73-60,62-11.88,20-19.59,44.68-35,94-15.06,48.17-17.11,64.15-18,75-1.82,22-.18,38.78,2,61,3.27,33.43,7.72,42,10,46,10.87,18.83,28,27.44,37,32,11,5.56,29,14.62,51,10,5.2-1.09,19.12-4.21,30-16,8.5-9.21,10.67-19.81,15-41,3.91-19.11,5.78-28.87,2-39-.6-1.61-6.31-16.27-21-24-2.65-1.4-17.72-9.33-32-6-2,.47-5.46,1.5-9,0-1.86-.79-5.51-3-8-11-3.05-9.8-2.23-21.5,3-45,7.49-33.69,8.6-22.28,12-41,.95-5.22,2.3-14,9-18,2.29-1.36,4.76-1.89,9-2,12.16-.32,20.5,3.25,27,5,9.85,2.64,22.14,2.87,30,0C2009.67,459.8,2003.6,419.56,2019.12,364.41Z"
                  transform="translate(0.04 -5.28)"/>
            <path class="cls-26"
                  d="M2021.62,715.91c-14.69-.25-45.08,32.91-46.5,34.5-6.58,7.35-9.81,14.34-16,28-12.95,28.57-19.24,43-22,49-11.27,24.62-23.85,41.08-36,57-25.69,33.65-37.22,35.64-56,58-33.8,40.26-62.19,112.13-34,153,13.64,19.78,36.81,26.88,47,30,5.95,1.82,40,11.68,74-5,6-2.94,14.87-8.13,39-35,21.53-24,41.7-46.43,62-82,12.28-21.52,27.52-48.22,35-81C2088.77,831.87,2054.68,716.47,2021.62,715.91Z"
                  transform="translate(0.04 -5.28)"/>
            <path class="cls-26"
                  d="M1978.12,898.41c.78,8.28.19,0,16,95,10.72,64.42,13.5,83.23,15,110,1.22,21.67.81,39.78,0,76-1.43,63.71-5.62,90.58-7,99-5.09,31-7,34.5-7,34.5h556s9.47-75.55,10-82.5c3.42-45.1,13.36-67.2,19-133,19.66-229.45,30.23-352.88-47-432-56.54-57.93-134.77-66.1-153-68-117.45-12.27-182.86,66.28-290,86-10.58,2-42.33,7.14-69,32"
                  transform="translate(0.04 -5.28)"/>
            <path class="cls-26"
                  d="M2396.12,611.41c20.05-32.5,98-18.08,120-14,18.64,3.45,59.79,11.58,99,44,43.38,35.87,59.33,80.74,70,112,16.54,48.46,3.5,48.21,24,137,9.25,40,15.53,67.27,29,104,12.69,34.61,18.65,41.92,23,67,4.08,23.55,11.36,65.49-14,95-5.39,6.27-15.84,18.44-32,21-36.49,5.79-70.86-42.37-102-86a479.79,479.79,0,0,1-46-80c-9.77-21.73-20.65-50.55-28-70-9.34-24.74-14.68-40.39-27-62"
                  transform="translate(0.04 -5.28)"/>
            <path class="cls-24"
                  d="M2424.12,963.41c-8.34-8.63-17.89-15.42-37-29-13.32-9.47-14.55-9.37-34-23-18.88-13.23-28.32-19.85-34-25-9.29-8.43-12.28-12.79-21-17-7.2-3.48-10.08-2.88-25-6a286.53,286.53,0,0,1-37-10c-19.09-6.75-23-11.31-31-9s-14,9.69-16,17c-3.82,13.61,6.37,25.7,10,30,5,5.94,18.07,18.37,36,21,5,.73,10.56.74,14,5,4,5,2.36,12.36,2,14-2.52,11.35-12.81,18.1-19,22-23.12,14.58-46.15,25.41-62,33-12,5.76-23.59,11.42-35,23-10.59,10.74-11.84,17.24-12,21-.54,13.15,11.18,22.38,12,23,15.49,11.83,39.29,4.77,49,2,34.69-9.91,117.27-33.49,182-30,50.46,2.72,76.34,21.15,86,8C2462.5,1019.28,2443.39,983.36,2424.12,963.41Z"
                  transform="translate(0.04 -5.28)"/>
            <path class="cls-24"
                  d="M2243.12,1009.41s-28.52,5.94-67,26c-18.39,9.59-29.84,17.88-33,31-.65,2.71-2.76,13.15,3,21,8.93,12.16,30.38,9.38,41,8,30.37-3.94,51.9-18.82,58-23,74.53-51,117.18-59.62,114-70C2354.18,986.29,2251.48,1007.67,2243.12,1009.41Z"
                  transform="translate(0.04 -5.28)"/>
            <path class="cls-24"
                  d="M2188.12,1081.41c-.71,3.25-3.22,14.77,3,23,7.2,9.53,22.63,10,41,8,44.48-4.92,62.88-19.87,130-45,1.38-.52,19.64-7.35,43-19,22.84-11.39,34.26-17.09,34-21-.87-13.22-80.14-29.51-157-9C2271.13,1021.35,2196.9,1041.16,2188.12,1081.41Z"
                  transform="translate(0.04 -5.28)"/>
            <path class="cls-26"
                  d="M2765.62,1096.91c.56,9.56-4,68-43.5,100.5-25.5,21-60.46,19-91,16a259.37,259.37,0,0,1-90-26c-28.4-14.13-23.24-18-87-63a192.91,192.91,0,0,1-51-51c-28.25-41.07,31.42-37.53,41-53,13.45-21.73,7.08-44.63,24-59a20.15,20.15,0,0,1,10-5c6.28-1,10.08,2,18,5,8.81,3.32,15.88,4,26,5,7.36.72,13.87,1.36,22,0,9.91-1.65,16.43-5.3,20-7,15.23-7.25,31.72-5.23,50-3,41.27,5,72.56,31.65,81,39"
                  transform="translate(0.04 -5.28)"/>
            <path class="cls-26"
                  d="M2401.12,940.41c2,3.43,3.66,11.62,7,28,2.65,13,.11,24.47-2,34-1.73,7.82-6.24,28.22-22,46-7.89,8.9-17.68,16.12-16,19,.7,1.2,2.63.34,7,1,4.53.69,7.5,2.38,18,9,11,6.95,10.28,6.69,11,7,11.4,4.94,25.62-3.58,33-8,23.91-14.32,34.11-36.91,37-44,5.62-13.81,6.28-24.91,7-37,.87-14.6,1.38-25.83-6-34-3.46-3.83-7.33-5.53-13-8-12.17-5.31-14.33-1.62-28-6-18.52-5.93-28-10-28-10-1.26-.54-5-2.18-6-1C2399.32,937.38,2400.76,939.78,2401.12,940.41Z"
                  transform="translate(0.04 -5.28)"/>
            <path class="cls-27"
                  d="M2561.12,964.41a132.06,132.06,0,0,1,45,4c19.75,5.29,33,13.83,44,21,20.89,13.67,39.73,31.59,38,34-2.19,3-37.77-18.11-46-23-25.81-15.35-39.75-26.53-64-30a100.11,100.11,0,0,0-13-1"
                  transform="translate(0.04 -5.28)"/>
            <path class="cls-27" d="M2607.12,993.41a150.69,150.69,0,0,1,62,87" transform="translate(0.04 -5.28)"/>
            <path class="cls-27" d="M2567.12,947.41a115.17,115.17,0,0,0,85-13" transform="translate(0.04 -5.28)"/>
            <path class="cls-27"
                  d="M2042.12,1192.41a447.46,447.46,0,0,0,84,43c46.77,18,85.44,23.62,129,30,45,6.59,77.07,7.73,86,8,48.8,1.47,100.85-2.2,101-7,.13-4.14-38.49-4.43-103-19-38-8.59-69.25-15.85-105-34a320.27,320.27,0,0,1-74-52"
                  transform="translate(0.04 -5.28)"/>
            <path class="cls-26"
                  d="M1956.12,997.41c-5-13.06-10.9-28.24-20-38a39.42,39.42,0,0,1-7-10,42.16,42.16,0,0,1-4-17c-1-19.09-2.9-12.21-4-37-1.11-25.21-1.67-37.81,0-49,1.25-8.36,3.43-18-1-29-1.27-3.13-3.09-7.64-7-11-9.46-8.12-22.2-1.8-46,1-32.89,3.88-44.44-4-54,6-5.77,6-5.26,12.73-7,24-1.66,10.79-3.85,15.82-25,61-32.16,68.7-33.61,71-37,82-5.63,18.31-10.67,34.68-11,57-.75,51.07,23.82,87.3,32,99,13.91,19.9,29.42,42.1,56,47,16,3,30.64-1.36,43-5,21.35-6.29,35.68-16.34,45-23,15-10.71,24.87-22,44-44,39.23-45.2,40.94-48.94,39.5-51.5"
                  transform="translate(0.04 -5.28)"/>
            <path class="cls-26"
                  d="M1831.12,761.41c-4.57.39-11.44,1-16,6-4.11,4.53-3.09,9.07-5,20-3.14,17.94-8.24,19-7,27,2,13.08,17.47,20.75,22,23,12.55,6.23,23.82,5.48,46,4,17.57-1.17,26.85-4.09,32-6,9.55-3.53,19.18-7.25,23-16,1.58-3.63.33-3.91,1-18,.38-8,.84-9,2-25,1.05-14.56.82-15.72,0-17-3.86-6.06-13.78-4.2-38-3C1886.81,756.63,1868.25,758.22,1831.12,761.41Z"
                  transform="translate(0.04 -5.28)"/>
            <path class="cls-24"
                  d="M1765.12,675.41a12.45,12.45,0,0,0,1.58,6.6c4.91,10.09,13.08,15.68,20.42,21.4,16.91,13.16,25.16,23.63,27,26,4.9,6.33,7.38,9.6,9,15,3.08,10.28-.7,15.81,3,23,3.13,6.07,9.15,8.57,15,11,19.26,8,38.25,2.83,56-2,8.76-2.39,14.48-4.78,20-9,4.6-3.51,13.51-10.32,13-18-.54-8.24-11.34-8.9-25-22-13.35-12.81-9.1-18-22-30-5-4.61-5.76-4-32-19-22.26-12.72-22.5-13.62-29-16-9.74-3.57-24.89-8.89-40-3C1780.31,660.12,1765.86,665.75,1765.12,675.41Z"
                  transform="translate(0.04 -5.28)"/>
            <path class="cls-24"
                  d="M1777.12,688.41c-1.72-1.3-11.11-8.63-14-21-1.53-6.54-.32-10.55,3-27,0,0,2-10,6-32,4.76-26.3,3.92-29.13,8-37,2.38-4.59,7.65-14.74,19-21,10.56-5.82,20.6-5.07,35-4,13.13,1,20.14,1.5,27,7,10.09,8.09,11.66,20.35,12,23,.39,3,1.84,16-7,27-.86,1.07-8.14,9.83-20,12-8.37,1.53-15.36-.89-16,1-.49,1.46,3.78,2.62,7,7,2.92,4,2.86,7.73,3,25,.11,13.82.16,13.76,0,15-.44,3.38-1.9,14.51-8,22C1820.88,699.21,1793.65,700.91,1777.12,688.41Z"
                  transform="translate(0.04 -5.28)"/>
            <path class="cls-27"
                  d="M1928.12,954.41c2.94,19.21,4.31,35.57,5,48,1.66,30.08-.31,44.39-1,49a181.84,181.84,0,0,1-5,23"
                  transform="translate(0.04 -5.28)"/>
            <path class="cls-27" d="M1927.12,925.41a79.39,79.39,0,0,1,43,45" transform="translate(0.04 -5.28)"/>
            <path class="cls-27"
                  d="M1944.12,589.41a35.53,35.53,0,0,0-18-1c-14.45,3.1-22.17,15.07-26,21-8.89,13.77-9.49,27.35-10,39-.46,10.48-.93,21.2,5,33a52.85,52.85,0,0,0,15,18"
                  transform="translate(0.04 -5.28)"/>
            <path class="cls-27" d="M1918.12,623.41a34.4,34.4,0,0,1,25,7" transform="translate(0.04 -5.28)"/>
            <path class="cls-27" d="M1910.12,643.41a70,70,0,0,1,32,9" transform="translate(0.04 -5.28)"/>
            <path class="cls-27" d="M1908.12,659.41a79.31,79.31,0,0,1,24,6" transform="translate(0.04 -5.28)"/>
            <path class="cls-27"
                  d="M1900.12,581.41a30.29,30.29,0,0,0-11,4c-7.39,4.5-10.66,11.08-14,18a75.09,75.09,0,0,0-7,25"
                  transform="translate(0.04 -5.28)"/>
            <path class="cls-27"
                  d="M1929.12,457.41a59.37,59.37,0,0,1-8-18c-1.61-6.36-1.76-12.66-2-25-.12-6.25-.07-11.43,0-15"
                  transform="translate(0.04 -5.28)"/>
            <path class="cls-27" d="M1997.12,334.41a68,68,0,0,0-43,55" transform="translate(0.04 -5.28)"/>
            <path class="cls-27" d="M1952.12,420.41a55.25,55.25,0,0,0,0,21c.9,4.58,2.8,13.7,10,22a40.18,40.18,0,0,0,4,4"
                  transform="translate(0.04 -5.28)"/>
            <path class="cls-24"
                  d="M1962.12,415.41c-2.16-2.78-.49-7.94,3-10s8.52-1.17,10,2c1.3,2.78-.74,6.29-3,8C1969.21,417.62,1964.22,418.12,1962.12,415.41Z"
                  transform="translate(0.04 -5.28)"/>
            <path class="cls-24"
                  d="M1977.12,380.41c-2-2.43-.47-7.56,3-9,2.23-.92,5.63-.48,7,2s-.18,5.54-2,7C1982.73,382.33,1978.8,382.42,1977.12,380.41Z"
                  transform="translate(0.04 -5.28)"/>
            <path class="cls-24"
                  d="M1975.12,439.41c-1.23-2-1.9-5.43,0-7a4.4,4.4,0,0,1,5,0c3.18,2.21,2.31,9,0,10C1978.59,443,1976.23,441.19,1975.12,439.41Z"
                  transform="translate(0.04 -5.28)"/>
            <path class="cls-27"
                  d="M1883.12,697.41c15.48,27.22,13.14,43.47,10,52-6.09,16.53-18,32-18,32-6.55,8.5-11.14,12.2-10,17,1.82,7.72,16.56,10.53,24,11,9.25.58,20.68-1.61,21-5,.25-2.7-6.49-6.71-13-7-16-.71-27.57,21.08-30,26-3.59,7.26-10,20.33-4,32,4.06,7.84,11.66,11,14,12,16.84,7,37.41-4.13,37-6-.24-1.07-7.74-1-14,1-13.06,4.14-19.78,16.22-23,22-2.86,5.14-13,23.44-6,41,1.21,3,3.73,9.06,10,13,7.3,4.59,15.22,3.51,19,3,8-1.09,15.31-4.87,15-6s-6.95-.85-12,1c-5.32,1.94-12.3,7-20,29-8.38,23.93-14.54,41.54-6,59,1.74,3.56,7,14.31,19,19,10.82,4.23,20.8,1.07,24,0,9.12-3,16.74-9.52,16-11s-10.59.67-18,5c-17.49,10.21-21.7,32.69-24,45-3.14,16.78-7.3,39,6,51,9.08,8.16,22.39,8,26,8,9-.09,20-3.07,20-6,0-1.83-4.25-3.84-8-4-10.77-.45-19,14.33-21,18-7.93,14.29-12.87,39.35,1,57,1.66,2.11,10.19,12.51,24,16,8.36,2.11,16.76,1.21,17,3,.18,1.36-4.66,2.05-9,5-9,6.09-15.36,21.5-10,34,5.21,12.15,18.92,15.49,21,16,13.41,3.27,26.85-2.61,27-2,.11.46-8,1.17-12,7-3.06,4.5-2.18,9.89-2,11,1.27,7.78,8.41,13.79,18,16.5"
                  transform="translate(0.04 -5.28)"/>
            <path class="cls-28"
                  d="M1992.12,429.41a227.74,227.74,0,0,1,17-59c15.45-34.44,35.76-55.66,40-60,31-31.74,65-43.43,90-52,19.29-6.62,66.09-22.11,127-14,22.57,3,62.41,8.31,102,36,57.65,40.32,80,103.8,85,118,8.93,25.36,20.79,49.84,27,76a101.78,101.78,0,0,0,14,34,80.69,80.69,0,0,0,23,24c7.86,5.29,21.48,14.44,38,13,4.34-.38,7.18-1.34,8,0,2.53,4.11-19,21.75-30,30-12.78,9.6-19.17,14.39-29,18-20.94,7.68-38.75,3.64-39,6-.19,1.84,10.65,3.47,26,9,1.85.67,34.17,12.43,33,18-.58,2.76-9.11,2.61-45,4-24.17.94-37.8,1.69-38,4-.13,1.5,5.54,1.54,12,6,6.28,4.33,8.31,9.39,16,26,9.44,20.4,11.74,24.37,10,26-2.21,2.07-7.76-2.6-19-7-8-3.14-17.78-4.47-37-7-34.65-4.57-36.57-2-37-1-1,2.49,3,5.13,9,13,8.77,11.44,17.56,28.39,14,32-2.6,2.63-10-3.6-27-10-17.29-6.51-40.85-11.81-44-6-1,1.79.73,3.29,5,13,5.22,11.87,8.2,18.64,6,21s-7.52-.86-24-7c-21.29-7.94-26.51-8.1-31-7-5.61,1.37-6.36,3.79-15,10-6.62,4.76-21,15.06-40,18a76.09,76.09,0,0,1-31-2c-9.81-2.7-16.88-4.64-23-11-6-6.19-6.72-12.12-12-13-5.77-1-11.19,5.07-12,6-8.33,9.55-3.14,22-8,24-3.89,1.56-11.77-4.61-14-12-2.29-7.58,2.39-13,0-15-2.88-2.36-13.11,2.76-20,11-8.77,10.47-7.37,20.28-12,21s-12.17-8.72-14-19c-2.77-15.57,8.45-26.22,4-31-2.69-2.88-8.7-1.08-19,2-11.47,3.43-22,6.6-30,16-7.64,9-7.22,17.16-10,17-4.14-.24-10.35-18.55-5-35,5-15.34,18.06-23,16-26-1.33-1.9-6.87,1.12-17,3-3.91.73-17,2.85-30,0-17.2-3.76-29.86-15.2-29-17,.45-.94,4.42,1.2,12,1,1.41,0,8.58-.3,14-3,1.69-.84,9.1-4.85,14-22a87,87,0,0,0,2-38c-6.39-35.56-14.36-66.43-16-73C1994.9,521.57,1984.7,479.19,1992.12,429.41Z"
                  transform="translate(0.04 -5.28)"/>
            <path class="cls-13"
                  d="M2048.12,330.41c-23.4,31.46-28.67,65.24-33,93-2.63,16.84-8.74,56,2,102,5.73,24.58,10.34,49.41,16,74a118.48,118.48,0,0,1,2,35c-1.59,17.92-6.3,24-8,26-6.69,7.85-15.61,9.54-15,12,.72,2.91,13.66,2.19,17,2,17-1,24.59-5.69,28-2,2.7,2.92.71,8.89-1,14-4.58,13.72-13.71,19-12,22,1.35,2.36,8.06.8,20-2,11.73-2.75,17.6-4.12,23-8,6.21-4.47,8.11-8.79,11-8s3.85,6.13,5,13c1,6,2,12,0,19s-5.21,9.09-4,11c1.87,3,11.9,1.34,20-3,13.41-7.18,16.94-19.36,21-18s4,14.29,4,16c0,6.08-1.29,9.31,0,10,1.89,1,7.3-4.57,11-10,7.6-11.15,6.16-19,10-20,4.74-1.26,8.1,10.33,20,20,13.44,10.93,29.13,12.37,36,13,8.85.81,23.6,2.17,37-6,11.36-6.93,10-13.56,22-19,2.21-1,13.63-5.94,27-3,13.16,2.9,18.9,11.39,22,9,2.87-2.21.91-11.77-4-18-3.65-4.64-7.28-5.33-7-7,.55-3.31,15.6-5.11,31-3,23.56,3.22,35.7,13.9,39,10,2.66-3.15-2.19-13.71-9-20-5.37-5-10-5.5-10-8,.07-4.73,16.93-8,22-9,11.31-2.2,23.35-4.54,38-1,16.38,4,23.78,12.31,26,10,2.68-2.79-5.29-17.89-18-29-14.82-13-28.22-13.59-28-19,.23-5.75,15.6-10.7,28-12,20.1-2.11,33.47,5.22,35,2,1.34-2.83-7.74-11.22-18-16-11.23-5.23-19.92-4.29-20-6-.09-2,11.32-4,39-9,22.15-4,24.64-4.54,29-6,18.39-6.14,36.6-18,35-23-1-3-8.41-2-16-3-25.29-3.45-41.52-28.41-51-43-19.36-29.78-15.46-44.44-30-85-16.21-45.21-38.49-75.67-44-83-15.77-21-41.7-55.51-88-75s-88-13.33-117-9C2156.46,265.58,2088.83,275.68,2048.12,330.41Z"
                  transform="translate(0.04 -5.28)"/>
            <path class="cls-14"
                  d="M2026,550a68.75,68.75,0,0,1,7.5-19.5c8.79-15.14,21.76-23.34,35-31.5,12.06-7.44,11.59-5.07,22-12,16.66-11.09,19.56-18.26,28.5-19,10.5-.86,19.15,8,24.5,13.5,21.63,22.2,22.5,52.91,25,52.5,1.66-.27.48-13.73.5-32.5,0-25.77.16-38.76,6.5-43.5,2.54-1.9,7.19-3.86,38.5,5,14.91,4.22,26.52,8.25,41,13.5,39.12,14.2,45.62,17.93,51,21.5,12.1,8,21.84,14.51,27.5,27.5.63,1.45,9.05,21.64-.5,42-11.86,25.27-41.76,30.22-52.5,32-35.1,5.82-61.76-12.69-67-16.5-10.23-7.44-16.57-18.51-18-17.5-1.71,1.21,6.82,17,13,41.5.69,2.74,1.06,4.42.5,6.5-3.92,14.72-46,20.88-61.5,7-7.05-6.33-9-12.5-9-12.5-1.82-5.77-.61-10.24-2.5-11-2.35-1-6.53,5-9.5,8.5-9,10.54-20.87,14.29-31,17.5-14,4.44-43,7.34-60.45-10.85C2015.87,592.2,2023.5,560.46,2026,550Z"
                  transform="translate(0.04 -5.28)"/>
            <path class="cls-24"
                  d="M2247.12,266.41c1.68,11.64,9.75,19.73,14,24,10,10,21,13.66,40,20,16.44,5.48,20.85,4.86,33,11a93,93,0,0,1,20,13c13.31,11.52,12.3,18.11,27,34,9.18,9.92,14.74,15.78,24,18,13.14,3.16,24.94-3.32,28-5,32.65-17.9,37.21-76,32-112-1.67-11.51-4.66-30.69-18-51-5.86-8.92-18-27-41-37-27.16-11.89-52.64-5.26-69-1-37,9.64-58.49,31.91-67,41C2258.38,233.94,2244.56,248.69,2247.12,266.41Z"
                  transform="translate(0.04 -5.28)"/>
            <path class="cls-24"
                  d="M2039.12,556.41c-.32,4.49-1,14.64,5,24,7.14,11,19.24,14.06,27,16,5.36,1.34,25.69,6.06,46-6a58.46,58.46,0,0,0,25-30c6.61-18.26,1.7-33.87,0-39-2.86-8.65-7.29-22-19-27-11.53-4.91-23.46,1.13-41,10-11.22,5.68-23.49,12.07-33,26C2045.75,535.35,2040,544,2039.12,556.41Z"
                  transform="translate(0.04 -5.28)"/>
            <path class="cls-13"
                  d="M2092.12,542.41c2-3.29,5.53-4.5,7-5,5.48-1.88,10.34,0,13,1,3.67,1.4,9.82,3.75,11,9,1,4.31-1.94,8.23-4,11-1.81,2.43-4.42,6-9,7-7.26,1.67-13.27-4.25-14-5C2091.76,556,2088.73,548,2092.12,542.41Z"
                  transform="translate(0.04 -5.28)"/>
            <path class="cls-24"
                  d="M2196.12,499.41a32.37,32.37,0,0,1,10-13c15.62-12,37.82-5,54,0,23.46,7.31,36.35,19.44,39,22,7.29,7.05,15.1,14.6,17,27,.26,1.69,2.13,15.2-6,27-14.55,21.12-47.5,17-54,16-22.95-3.54-37-17.79-41-22C2212.63,553.81,2185.51,524.71,2196.12,499.41Z"
                  transform="translate(0.04 -5.28)"/>
            <path class="cls-13"
                  d="M2222.12,522.41c1.85-2.35,5.48-2.21,11-2a38.41,38.41,0,0,1,17,5c4.73,2.64,7.33,4.09,8,7,1.26,5.42-5.4,10.55-6,11a17.51,17.51,0,0,1-13,3,19.42,19.42,0,0,1-11-6C2223.28,535.51,2218.89,526.51,2222.12,522.41Z"
                  transform="translate(0.04 -5.28)"/>
            <path class="cls-16"
                  d="M2272.12,646.41c2.86,3.44,1.29,9,1,10-1.56,5.49-5.8,8.67-9,11-13.55,9.86-20.32,14.78-25,17-7.85,3.71-17.5,8.28-31,9-7.82.42-16.48.88-25-4a18.75,18.75,0,0,1-4.17-3.13c1.05-2.59,2.51-5.53,4.17-8.87a61.8,61.8,0,0,1,17.42-21.17c9.87,1,21.22,1.31,33.58-4.83.92-.46,8.21-3.12,21-5C2265.46,644.89,2270.61,644.59,2272.12,646.41Z"
                  transform="translate(0.04 -5.28)"/>
            <path class="cls-15"
                  d="M2200.54,656.24a61.8,61.8,0,0,0-17.42,21.17c-1.66,3.34-3.12,6.28-4.17,8.87a74,74,0,0,0-10.83-9.87c-7.4-5.66-10.64-6.87-12-11-1.5-4.54,12-1.48,15-5C2177.93,652.5,2188,655,2200.54,656.24Z"
                  transform="translate(0.04 -5.28)"/>
            <path class="cls-27"
                  d="M2200.54,656.24c-12.49-1.29-22.61-3.74-29.42,4.17-3,3.52-16.5.46-15,5,1.36,4.13,4.6,5.34,12,11a74,74,0,0,1,10.83,9.87,18.75,18.75,0,0,0,4.17,3.13c8.52,4.88,17.18,4.42,25,4,13.5-.72,23.15-5.29,31-9,4.68-2.22,11.45-7.14,25-17,3.2-2.33,7.44-5.51,9-11,.29-1,1.86-6.56-1-10-1.51-1.82-6.66-1.52-17,0-12.79,1.88-20.08,4.54-21,5C2221.76,657.55,2210.41,657.26,2200.54,656.24Z"
                  transform="translate(0.04 -5.28)"/>
            <path class="cls-27" d="M2178.95,686.28c1.05-2.59,2.51-5.53,4.17-8.87a61.8,61.8,0,0,1,17.42-21.17"
                  transform="translate(0.04 -5.28)"/>
            <path class="cls-29"
                  d="M2129.12,666.41a44.4,44.4,0,0,0,11,4,39.18,39.18,0,0,0,11,1,40,40,0,0,0,15-4,47.8,47.8,0,0,0,11-7c3.82-3.24,8-6.89,10-13a22.1,22.1,0,0,0,1-5"
                  transform="translate(0.04 -5.28)"/>
            <path class="cls-29"
                  d="M2171.12,626.41a83.73,83.73,0,0,0,2,9c1.54,5.49,2.84,10.11,6,15a38.27,38.27,0,0,0,11,11,44.54,44.54,0,0,0,19,7c3.81.49,13.44,1.72,23-3,3.47-1.71,2.3-1.93,17-13,5.82-4.39,8.2-6,12-7,2.24-.58,4-1,10,0,2,.34,1.14,2.13,2,3"
                  transform="translate(0.04 -5.28)"/>
            <rect class="cls-24" x="2136.96" y="592.61" width="69" height="36.95" rx="12" ry="12"
                  transform="translate(-49.64 211.86) rotate(-5.66)"/>
            <path class="cls-13"
                  d="M2172.87,594.67l13.43-1.33a12,12,0,0,1,13.12,10.76h0a12,12,0,0,1-10.76,13.12l-13.43,1.33a12,12,0,0,1-13.12-10.76h0A12,12,0,0,1,2172.87,594.67Z"
                  transform="translate(0.04 -5.28)"/>
            <path class="cls-20"
                  d="M2191.62,789.91c13.88,8.08,26.76,10,34,11,8.34,1.21,37.63,5.47,58-11,12.57-10.16,10.55-19.16,22-23,14.28-4.79,30.94,4.69,35,7,13.64,7.76,17.31,16.66,22,15,7.21-2.56-.51-23.89,11-34,9.86-8.67,27.67-3.66,30-3,17.07,4.81,20.61,17,28,15,9.29-2.57,15.38-25.18,9-42-3.85-10.14-10.91-14.73-9-18,2.38-4.06,16-1.65,27,3,25.87,11,32.52,32.51,41,30,7-2.06,9.33-18.59,8-31-2.66-24.84-20.66-37.67-16-44,2.53-3.44,8.53-.56,26,0,13.1.42,33.11,1.06,36-6,3.17-7.77-16.24-20.31-14-24,2.35-3.87,23.43,3,43,14a167.09,167.09,0,0,1,49,40c31.11,37.29,38.79,78.81,44,107,4.53,24.49,7.47,57,10,85,2,22.13,2.35,31.36,7,46,9.61,30.25,26.58,48.87,23,52-2.63,2.3-10.8-8.65-30-15-17.37-5.75-27.94-2.5-30-8-1.84-4.91,5.75-9.72,16-30,5.08-10.06,4.82-12,4-13-2.82-3.3-13.17,4.56-32,10-16.92,4.89-30.79,5-42,5-14.38.07-21.57.1-28-3-9.25-4.46-14.24-12.07-25-34-14.17-28.87-14.29-33.52-23-50-2.13-4-24.42-46.19-34-43-5.27,1.76-5.11,16.69-5,27,.24,22.94,6.81,35.66,3,38-5.77,3.56-25.22-23-30-20-3.66,2.31,2.88,21,12,39,21.28,42.07,44.64,57,40,65-4.95,8.5-36.09-.71-54-6-23.22-6.86-41.68-16.53-52-22-5.64-3-14-7.44-24-14-35.13-23-36.71-36.76-60-48-20.08-9.69-18.22.84-50-10-16.21-5.53-33.3-13.94-63-22-9.72-2.64-13.91-3.37-19-2-17.15,4.62-29.53,29.11-27,50,2.9,23.91,24.84,38.82,31,43,16.91,11.49,30.09,10.8,31,18,1.08,8.52-16.36,17.48-31,25-23.55,12.09-29.49,10.2-45,18-27.21,13.69-53.4,41.89-48,59,3.42,10.82,16.82,8.78,21,22,4.38,13.84-8,23.35-2,36,3.68,7.74,9.15,5.9,14,15,4.48,8.39,2.4,14.77,3,27,0,0,.62,12.71,7,32,12.73,38.51,51.85,60,61,65,18.34,10.06,31.44,12.25,31,14-.82,3.27-46.54-5.41-86-16-52-14-69.53-24.92-82-39a112.89,112.89,0,0,1-16-24c-5.7-11.76-8.72-23.63-11-46-1.27-12.47-2.21-27.17-2-58,.26-39.29,2-41.9,1-67-1.06-27.81-3.24-27.33-2-40,1.55-15.81,5.53-22.57,22-60,18.53-42.12,21.55-51.89,34-72,12.66-20.44,24.63-34.72,28-33,3.16,1.62-3.44,16.25,1,19,5.74,3.55,24.87-15.84,27-18,10.44-10.58,11.24-15,17-16C2174.53,775.52,2179.29,782.74,2191.62,789.91Z"
                  transform="translate(0.04 -5.28)"/>
            <path class="cls-20"
                  d="M2419.62,954.91c-2.48,1.88,2.46,8.41,4,20,2.63,19.83-7.68,32.08-2,37,3.62,3.14,8-1.67,17,1,10.49,3.12,12.49,12,17,11,1.66-.37,4.33-2.23,8-31,2.46-19.27,1.91-23.56-1-26-3.81-3.19-7.55.26-17-1C2430.3,963.87,2422.81,952.49,2419.62,954.91Z"
                  transform="translate(0.04 -5.28)"/>
            <path class="cls-20"
                  d="M2490.62,973.91c-5.59,6.39,6.82,16.9,5,39-1.56,18.87-11.69,24.36-8,33,4.34,10.18,21,8.74,49,14a335.51,335.51,0,0,1,68,22c39.65,18,54.67,38,61,33,8.26-6.52-12-44.77-18-56a206.77,206.77,0,0,0-40-53c-16.56-15.76-26.44-19.7-30-21-11.71-4.26-15.93-2-35-4C2508.71,977.39,2496.15,967.59,2490.62,973.91Z"
                  transform="translate(0.04 -5.28)"/>
            <path class="cls-20"
                  d="M2658.62,1024.91c-1,1,9.66,9.58,17,24,12.55,24.66,6.9,49.44,11,50,4.38.6,7.89-28,18-29,9.72-1,18.45,24.3,22,23,4.52-1.65-8.65-43.1-4-45s22.5,39.68,27,38c3.93-1.47,1.22-37.17-22-61-15.31-15.71-35-21.61-36-20-1.44,2.34,33.64,25.43,31,30-1.62,2.81-15.81-4.37-19,0-3.59,4.92,10.59,19.22,8,22-1.61,1.73-8.69-2.1-18-8C2672.11,1035.27,2659.7,1023.85,2658.62,1024.91Z"
                  transform="translate(0.04 -5.28)"/>
            <path class="cls-20"
                  d="M1993.62,758.91c-3.5-1.63-16.3,16.17-24,31-8.94,17.22-6.59,21.92-17,39-6.2,10.18-9.3,12.24-11,20-2.24,10.27,1.66,13.65,0,27-1.57,12.62-5.53,13.36-5,21,1.09,15.68,19,30,25,27,4.1-2.08,1.21-11.49,1-27-.2-14.77,2.18-23.86,11-56C1992.48,772.2,1996.29,760.16,1993.62,758.91Z"
                  transform="translate(0.04 -5.28)"/>
            <path class="cls-20"
                  d="M1815.62,810.91c-1.31-4,4.5-6.16,6-16,1-6.39-.78-10.06,1-11,2.56-1.36,6.26,6.2,16,9,5.45,1.57,7.26,0,9,2,5,5.63-5,24-5,24h0S1818.17,818.71,1815.62,810.91Z"
                  transform="translate(0.04 -5.28)"/>
            <path class="cls-20"
                  d="M1813.62,857.91c-13.23,3.73-13.25,22.23-27,59-14.24,38.07-22.32,39.88-29,70-5.21,23.52-4.4,41-4,47,1.79,26.77,11,57.44,18,57,5.26-.33,5.87-17.86,14-60,10.59-54.93,15.89-82.39,27-106,14.38-30.55,30.45-46.88,23-59C1831.5,859.21,1821.37,855.73,1813.62,857.91Z"
                  transform="translate(0.04 -5.28)"/>
            <path class="cls-20"
                  d="M2211.62,1130.91c5.85-7.77,20.43,2.85,48-2,17.8-3.13,31.5-11.05,47-20,20.57-11.88,27.19-20.16,44-22a62,62,0,0,1,23,2c20.71,5.33,29.14,17.39,48,33,34.15,28.26,55.33,29.08,55,41-.34,12.29-23.09,20.88-34,25-34,12.83-55.48,7.67-129,3-51.82-3.29-67.91-2.43-84-17C2215,1160.67,2205.37,1139.22,2211.62,1130.91Z"
                  transform="translate(0.04 -5.28)"/>
            <path class="cls-20"
                  d="M2043.62,1218.91c9-5.07,21,21.83,62,44,33.28,18,66.25,22.42,108,28,35.16,4.7,55,3.89,55,5,0,2-64.23-9.58-153-3-20.15,1.49-38.48,3.69-54-8C2037.45,1266.69,2033.35,1224.72,2043.62,1218.91Z"
                  transform="translate(0.04 -5.28)"/>
            <path class="cls-30"
                  d="M1955.62,334.91c-34.26,5.52-56,29-56,29-11.85,12.8-16.59,24.24-26,47-16,38.61-6.89,38.2-22,75-3.39,8.26-15.72,37.2-9,42,.36.26,2.24,1.17,6,3,5.56,2.7,8.35,4,9,4,5.95-.5,8.24-24.63,10-38,.85-6.45,5.9-26.63,16-67,3.76-15,7.84-30.59,18-47,2.61-4.21,9.69-15.06,22-19,1.56-.5,8.78-2.81,11,0,1.74,2.21-1,5.82-3,12-2.74,8.37-2.14,15.15-1,28,.46,5.14,1.67,18.91,4,19s4.64-13.35,7-27c4.81-27.79,2.86-31.45,8-40,7-11.61,17.68-16.7,16-20C1964.52,333.74,1959.06,334.36,1955.62,334.91Z"
                  transform="translate(0.04 -5.28)"/>
            <path class="cls-22"
                  d="M2205.62,853.91c-.48,5.4,5.87,10.12,12,14,14.64,9.26,26.31,12.61,43,19,24.67,9.44,29.38,13.68,32,19,4.5,9.14,1.59,19,1,21-6.22,21.11-32.47,31.33-77,48-17.63,6.6-34.14,16-52,22-8,2.68-20.29,6.41-25,17-.21.48-4.22,9.79,0,15s14.33,3.17,26,1c19.42-3.61,38.83-6.43,50-8,13.66-1.92,32.68-3.74,33-2,.29,1.54-14.18,5.17-44,15-30.77,10.15-42,15.08-45,25-.34,1.12-3.08,9.41,1,14,5.34,6,19,1.92,70-16,25-8.77,35.24-12.55,36-11,1.29,2.64-25.92,18.77-28,20-25.12,14.83-38.71,18.57-38,23s16.18,6.27,27,6c8.79-.22,17.89-1.82,50-15,18.66-7.66,28-11.49,41-18,14.54-7.28,19.51-10.79,33-16,13.85-5.35,15.41-4.27,21-8,14.12-9.42,18.55-25.88,21-35,2.15-8,7.89-29.32-2-50-3.49-7.3-12.33-14.86-30-30-21.41-18.34-23.25-16.58-49-38-5.3-4.41-8.87-7.52-15-11-5.33-3-11-5.46-34-11-30.31-7.32-29.67-5.34-36-9-6.77-3.92-13.06-9.4-18-7A7.63,7.63,0,0,0,2205.62,853.91Z"
                  transform="translate(0.04 -5.28)"/>
            <path class="cls-22"
                  d="M1865.62,575.91c-1.39,3.28-5.35,5.13-29,7-23.32,1.85-28.77.79-34-2-2.46-1.31-11.08-5.91-11-12,.1-7.6,13.7-12.66,20-15,5.62-2.09,16-5.81,29-3,5,1.08,16,3.48,22,13C1864.2,566.44,1867.44,571.62,1865.62,575.91Z"
                  transform="translate(0.04 -5.28)"/>
            <path class="cls-22"
                  d="M1908.62,541.91c-2.46,1.49-5,4.53-5,8,0,5.31,5.95,8.83,13,13,7.5,4.44,14.07,8.33,17,6,3.94-3.13,1-17.28-8-24C1924.89,544.37,1915.65,537.67,1908.62,541.91Z"
                  transform="translate(0.04 -5.28)"/>
            <path class="cls-22"
                  d="M1781.62,616.91c-1.73,11.13-2.38,17-3,21-2,13.22-4.84,14.47-3,18,2.4,4.6,8.74,5.46,20,7,13,1.78,19.5,2.66,25-1,4.87-3.24,6.91-8.83,11-20,2.38-6.51,3.54-9.82,2-12-2.89-4.09-10.59,1.07-21-1-16.46-3.28-24.18-21.54-29-19C1782.7,610.4,1782.49,611.33,1781.62,616.91Z"
                  transform="translate(0.04 -5.28)"/>
            <path class="cls-22"
                  d="M1793.62,680.91c2.09-5.42,13.92-5.75,23-6a69.12,69.12,0,0,1,28,5c12.38,5.14,19.81,12.64,25,18a72.26,72.26,0,0,1,15,22c2.83,6.62,5.86,13.71,3,17-.95,1.09-4.29,3.78-25-4-12.74-4.78-25.52-9.71-42-22C1808.85,702.13,1790.67,688.57,1793.62,680.91Z"
                  transform="translate(0.04 -5.28)"/>
            <path class="cls-14"
                  d="M2190.51,702c.11-.23,6.31,4.08,17.5,6,2.2.38,10.78,1.73,25-.5,16.37-2.56,24.73-7.45,25.5-6,.87,1.64-8.1,11.31-20.5,14.5C2214.79,722,2190.29,702.46,2190.51,702Z"
                  transform="translate(0.04 -5.28)"/>
            <path class="cls-14"
                  d="M2084.51,468c.83.71,6.37-4.38,12.5-10,8.77-8,8.46-8.8,11-10,11-5.19,24.21,5.61,25.5,3.5,1-1.68-6.24-10.27-16.5-12.5-2.19-.48-8.69-1.89-14.5,1.5-2.93,1.71-3.61,3.43-9.5,13C2086.33,464.35,2083.91,467.49,2084.51,468Z"
                  transform="translate(0.04 -5.28)"/>
            <path class="cls-14"
                  d="M2160.51,444c.41.23,2.54-7.67,9.5-10.5,3.1-1.26,7.91-1.82,23,5,14.79,6.68,22.42,12.75,23,12,.72-.93-10.63-10.71-21-18.5-13.44-10.1-16.47-10.3-18.5-10C2165.42,423.64,2159.86,443.63,2160.51,444Z"
                  transform="translate(0.04 -5.28)"/>
        </g>
        <path class="cls-14"
              d="M485,570c1.71-1.14,5.75,7.4,15,8.5,9.82,1.17,16.37-7.13,19.5-4.5,2.76,2.31-.43,10.31-2,13.5-.69,1.39-6.27,12.73-14,13C491,600.94,482,572,485,570Z"
              transform="translate(0.04 -5.28)"/>
    </g>
</svg>