<svg id="Layer_1" data-name="Layer 1" xmlns="http://www.w3.org/2000/svg" viewBox="0 0 1725.95 1157.67">
    <defs>
        <style>
            .cls-1,.cls-10,.cls-11,.cls-12,.cls-13,.cls-19,.cls-2,.cls-20,.cls-3,.cls-4,.cls-5,.cls-6,.cls-9{stroke:#000;stroke-width:8px;}.cls-1,.cls-10,.cls-11,.cls-12,.cls-13,.cls-2,.cls-20,.cls-3,.cls-4,.cls-5,.cls-6,.cls-9{stroke-linecap:round;stroke-linejoin:round;}.cls-2{fill:#77637c;}.cls-3{fill:#eadce9;}.cls-19,.cls-4{fill:none;}.cls-16,.cls-5{fill:#f2f2f2;}.cls-6,.cls-8{fill:#d9d9d9;}.cls-10,.cls-23,.cls-24,.cls-25,.cls-26,.cls-7{fill:#fff;}.cls-15,.cls-9{fill:#6a0006;}.cls-11{fill:#d9dde2;}.cls-12{fill:#281c38;}.cls-13{fill:#f29cb4;}.cls-14{fill:#380208;}.cls-17{fill:#ddd;}.cls-18{fill:#21190b;}.cls-19{stroke-miterlimit:10;}.cls-20{fill:#0c7572;}.cls-21{fill:#444;}.cls-22{fill:#282828;}.cls-23{opacity:0.6;}.cls-23,.cls-24,.cls-25,.cls-26{isolation:isolate;}.cls-24{opacity:0.05;}.cls-25{opacity:0.2;}.cls-26{opacity:0.1;}
        </style>
    </defs>
    <title>tea</title>
    <g id="Layer_2" data-name="Layer 2">
        <g id="Layer_3" data-name="Layer 3">
            <path class="cls-1"
                  d="M1447.13,667.5c-3.69,6.15-12.17,22.46-18,44-2.35,8.67-3.54,15.51-6,34-9.23,69.24-6,74.09-3,76,5.6,3.58,13.84-1,37-15,69.48-42.15,66.78-44.75,86-53,36.76-15.78,66.09-14.66,68-28,.38-2.67-1.78-3.45-8-15,0,0-5.21-9.68-9-19-9.9-24.37-7.63-49.23-7-55,1.42-13,3.73-13.87,2-17C1578.3,599.89,1477.78,616.44,1447.13,667.5Z"
                  transform="translate(0)"/>
            <path class="cls-2"
                  d="M1334.13,739.5c-3.53-1.11-7.48-.34-14,3-18.72,9.58-29.22,25.27-31,28-29.87,45.77-34,53-34,53-4.87,8.53-37.79,65.81-59,84-9.09,7.8-13.64,11.7-21,14-4.72,1.48-8.39,1.66-12,5-4.95,4.59-5.66,11.32-6,15-.29,3.11-1.13,16.3,9,32,11.45,17.74,33.92,34,53,36,73.51,7.5,136.11-194.11,129-242C1347.13,760.75,1344.45,742.74,1334.13,739.5Z"
                  transform="translate(0)"/>
            <path class="cls-1"
                  d="M990.13,788.5c-1-6.16-2.28-3.83-10-24-4.85-12.66-5.77-17.25-11-23-3.86-4.24-4.34-2.83-12-10-8-7.49-8.55-10-14-13-3.21-1.74-6.81-2.49-14-4-11.46-2.4-11.84-1.07-19-3-9.33-2.51-9.81-5.07-19-7-6.6-1.38-10.9-2.29-15,0-7,3.91-7.77,14-8,17a28.4,28.4,0,0,0,3,15c2.47,4.71,6.3,8.53,16,14,12.3,6.94,18.54,7.8,28,12a118.39,118.39,0,0,1,27,18c25,22.1,24.91,46.54,34,46C984.39,826,993,805.32,990.13,788.5Z"
                  transform="translate(0)"/>
            <path class="cls-1"
                  d="M980.13,796.5c2.26-3.39-16.51-22.24-40-35-7.5-4.07-15.85-8.53-28-11a83.51,83.51,0,0,0-44,3c-12.16,4-16,8.18-18,11-1,1.51-5.29,7.84-4,16,1.43,9,8.68,14.08,10,15,13.35,9.27,32.56,2.39,42-1,12-4.3,12-7.16,20-10C947.06,774.26,977.33,800.69,980.13,796.5Z"
                  transform="translate(0)"/>
            <path class="cls-1"
                  d="M987.13,792.5c-1.23-4.93-7.08-7.63-39-14-50.62-10.1-70.23-10.15-84-2-8,4.71-10.27,10-11,12-2.46,6.79-.84,14.55,3,20,3.53,5,8.47,7.38,13,9,15,5.33,26.48,2.72,42,2,30.89-1.44,33.48,6.66,49,1C974.9,815.12,989.41,801.65,987.13,792.5Z"
                  transform="translate(0)"/>
            <path class="cls-1"
                  d="M920.13,799.5c-12.73-12.6-35.61-2.87-46,6-3.29,2.81-10.1,8.63-10,17,.11,9.41,8.87,15.52,11,17,7.94,5.54,16.49,5.23,23,5,8.14-.29,16.16-.58,22-6C929.77,829.54,930.26,809.52,920.13,799.5Z"
                  transform="translate(0)"/>
            <path class="cls-1"
                  d="M907.13,826.5c4.07,4.2,10,4.8,22,6,9.13.92,13.69,1.37,19,0,13.71-3.55,27.31-17.75,25-27-3.84-15.37-53.71-25.32-67-7C900.54,806.19,900.7,819.87,907.13,826.5Z"
                  transform="translate(0)"/>
            <path class="cls-3"
                  d="M933.13,836.5c-.34-3.33,7.88-5.9,15-10,6.32-3.63,3.85-3.91,20-19,14.91-13.93,22.13-18.46,24-25,.19-.67.71-2.69,2-3,1.74-.42,3.6,2.57,8,8,3.58,4.42,1.39,1.25,6,7,14.51,18.09,21.77,27.14,21,33-.64,4.86-4,5.42-18,17-21.66,17.86-24.81,25.62-34,25-6.55-.44-12.72-4.9-17-8-2-1.44-.47-.57-11-10-4.39-3.93-8.13-8.67-13-12C934.38,838.31,933.25,837.68,933.13,836.5Z"
                  transform="translate(0)"/>
            <path class="cls-2"
                  d="M938.13,858.5c-.48-4.77,14-7,29-17,9.21-6.1,15.65-13.09,22-20,9.09-9.88,13.64-14.82,15-17,2.93-4.69,5.57-10.2,9-10,2.11.12,3.57,2.35,4,3,8.52,12.75,22.31,21.36,31,34,10.54,15.34,25.36,26.56,55,49,14.48,11,25.71,25.79,40,37a11.4,11.4,0,0,1,4,5c.94,2.51.61,5,1,5,.56,0,.56-5,3-6,1.4-.58,3.05.4,4,1,10.1,6.44,14,13,14,13,4.87,8.2,25.29,42.54,12,58-5.65,6.58-15.37,7.37-27,7-84-2.67-149.85-62.3-161-74-5.17-5.42-10-11-10-11-7.58-8.75-13-16-19-24-9.11-12.19-11.83-16.69-16-21-1.85-1.92-3.57-4-7-8C938.27,859.12,938.16,858.85,938.13,858.5Z"
                  transform="translate(0)"/>
            <path class="cls-4" d="M1171.13,929.5a51.62,51.62,0,0,1,10,8,52.17,52.17,0,0,1,11,17"
                  transform="translate(0)"/>
            <path class="cls-4" d="M1149.13,929.5c.44,2.82.79,5.82,1,9a104.82,104.82,0,0,1-1,23"
                  transform="translate(0)"/>
            <path class="cls-4"
                  d="M828.13,758.5a32.23,32.23,0,0,1,9-15c2.52-2.35,8.16-7.61,17-8a24.6,24.6,0,0,1,17,6c6,5.43,7.22,12.39,8,17,.23,1.38,3.22,20.88-10,35-4.73,5-9.82,7.37-20,12-8.75,4-15.88,5.88-24,8a220.57,220.57,0,0,1-25,5"
                  transform="translate(0)"/>
            <polygon class="cls-5" points="733.13 826.5 723.13 844.5 786.13 844.5 777.13 826.5 733.13 826.5"/>
            <path class="cls-5" d="M832.13,743.5c0,50.26-12,93-76.5,91-59.48-1.84-76.5-40.74-76.5-91Z"
                  transform="translate(0)"/>
            <path class="cls-3"
                  d="M1446.13,686.5c.75.83-4,5.18-8,15-3,7.43-3,11.54-3,13a21.18,21.18,0,0,0,3,11c4,6.28,11.93,10,12,10a79.57,79.57,0,0,1-1,8c-2.08,11.74-5.6,16.16-11,31-.46,1.25-2.3,7.17-6,19-4.7,15-5.72,18.67-5,19s3.13-3.69,10-14c7.65-11.48,7-9.84,13-19,7.67-11.75,11.5-17.62,13-21s3.32-6.21,7-12c1.7-2.67,3.24-4.93,6-6a10.9,10.9,0,0,1,7,0c.31.09,9.87.39,29,1,9.5.3,22-2.8,47-9,10.8-2.68,16.49-4.45,23-8a78,78,0,0,0,17-13,41.32,41.32,0,0,0,4.47-5.29c.32-.52.36-.64.53-.71,2.53-1.1,16.51,15.7,17,29,.65,17.75-28.47,31.74-45,41-53.64,30-84.59,72.48-128,132-25.5,35-39.64,54.35-52,86-13.66,35-14.76,58.35-26,60-16.2,2.38-36-43-44-66-19.5-56-13.16-105.48-10-124,3.48-20.4,11.58-67.87,46-108,9.79-11.42,26.2-24.94,59-52C1421.13,703.5,1444.25,684.43,1446.13,686.5Z"
                  transform="translate(0)"/>
            <path class="cls-2"
                  d="M1316.13,761.5a82.57,82.57,0,0,0,6-9c5.15-9.15,4.67-13,9-17,2.68-2.47,5.79-3.31,12-5,9.17-2.49,13.09-1.76,21-3,15-2.35,19.66-7.92,22-6,5.52,4.53-16.65,38.7-27,57-39.76,70.33-38.51,142.59-38,172,1.12,64.35,21.38,120.78,31,120,7-.56,5.14-30.74,26-80a338.67,338.67,0,0,1,18-36c54.77-97.88,126.85-121.75,173-189,4.29-6.25,14.86-22.36,32-25,16.82-2.59,33.76,8.74,37,11,9.45,6.6,7.83,9.6,21,19,7,5,12,7.39,17,14a50.35,50.35,0,0,1,7,14c14.91,48,5,104,5,104-4.94,27.94-14.47,81.84-41,141-5.42,12.09-16.73,35.93-34,76-10,23.23-14,33.5-14,33.5h-370s5.73-105.21,41-240.5c4.62-17.73,13.11-48.75,14-52,15.95-58.24,11.25-37.8,14-49C1301.23,798.87,1306.73,774.78,1316.13,761.5Z"
                  transform="translate(0)"/>
            <path class="cls-2"
                  d="M1348.13,737.5a53.75,53.75,0,0,1,4-4,80.49,80.49,0,0,1,10-8c6.17-4.06,9-3.14,20-7a125.91,125.91,0,0,0,16-7c4.5-2.26,8.29-4.45,20-12,18.67-12,23.94-16.11,25-15,1.31,1.36-4.9,9.32-7,12a137.24,137.24,0,0,1-24,24c-13.59,10.46-20.67,22.45-34,45-11.14,18.85-16.21,33.86-23,54-13.9,41.2-9.85,49.7-21,99-1.62,7.18-3.91,16.73-2,29,1.88,12,6.58,19,5,20-2.37,1.57-17.08-11-26-29-6.22-12.55-7.15-26.7-9-55-2.24-34.24,2.7-31.59,1-49-.21-2.15-.81-7.58,2-13,1.68-3.23,3.48-4.36,11-10,22.73-17,19.13-16.36,23-18,1.37-.58,4.7-1.88,6-5a9.05,9.05,0,0,0,0-6c-.42-1.55-.95-7-2-18C1342.55,758.45,1341.3,745.42,1348.13,737.5Z"
                  transform="translate(0)"/>
            <path class="cls-2"
                  d="M1601.13,699.5c-4.42-.12-7.23,16.91-11,27-6.56,17.56-20.28,25.39-36,37-7,5.19-25.35,23.13-62,59-27.21,26.64-43.57,42.65-63,68-25.23,32.91-17.06,31.25-53,82-4.16,5.87-13,18.17-11,20,1.79,1.68,11.3-6.64,31-21,3.47-2.53,20.58-15,38-26a439.57,439.57,0,0,1,46-26c13.42-6.49,25.31-17.45,40-20,1.51-.26,7.09-1.11,9-5,1.09-2.22.52-4.48,0-7-1.09-5.26-1-10.72-2-16-.65-3.4-.77-11.6-1-28-.22-15.33,0-19.19,3-23,1.26-1.59,3.09-3.29,9-6,6.5-3,16.13-6.38,32-8,12.12-1.24,18.18-1.86,26-1,3.93.43,7.3,1.09,12,0,2.85-.66,5.76-1.87,14-8,10-7.47,10.52-9.25,18-14,6.39-4,10.09-5.32,13-6a40.87,40.87,0,0,1,10-1c6.31.29,9.08,2.18,10,1,1.49-1.92-4.33-8.83-7-12-4.28-5.08-7.53-7.79-13-13,0,0-4.16-4-11-11-10.92-11.24-22.46-25-30-33a95.26,95.26,0,0,0-8-7C1601.87,699.67,1601.54,699.51,1601.13,699.5Z"
                  transform="translate(0)"/>
            <path class="cls-4"
                  d="M1417.13,719.5a20,20,0,0,0,1,9,25.26,25.26,0,0,0,8,11c1.88,1.45,3.36,2.12,4,4,.87,2.57-.57,5.19-1,6-1.75,3.32,1.52-.81-6,24-4.94,16.28-7.4,24.42-10,30-5,10.7-9.73,16.94-7,21,.71,1.06,1.29,1,8,4,9.07,4,9.73,4.9,12,5,5.35.22,9.55-4.24,13-8,17.43-19,26.14-28.52,31-38,3.6-7,9.36-13.27,11-21,.32-1.5,1-5.48,4-7,2.27-1.17,4.81-.35,6,0,6.11,1.81,12.7,1.09,19,2,9.17,1.32,16.3-.16,30-3a148.49,148.49,0,0,0,21-6"
                  transform="translate(0)"/>
            <path class="cls-1"
                  d="M1305.13,944.5c3.39-3.53,9.72-3.09,11-3,4.37.3,7,2.17,13,6,9.37,6,14,9,18,11,9.32,4.64,10.74,2.3,19,6,9.82,4.4,15.53,11.16,23,20s6,9.58,16,23c8.54,11.48,11,12.74,18,23,7.55,11,13.5,19.66,11,23-1.1,1.46-4.38,2.66-25-5-23.05-8.57-54.79-20.36-58-37a27.53,27.53,0,0,0-4-11,29.46,29.46,0,0,0-10-9c-14.41-8.9-17-8-22-12C1303.58,970.36,1298.84,951,1305.13,944.5Z"
                  transform="translate(0)"/>
            <path class="cls-5"
                  d="M1181.13,810.5c2-1.87,6.92.85,12,3,.55.23,8.37,2.15,24,6,31.1,7.65,31.32,6.22,39,10,3.26,1.6,8.51,5.07,19,12,7.17,4.74,10.29,7,13,11a31,31,0,0,1,5,14c3,22.93,18.34,48.41,38,144,3.66,17.79,5.41,28,11,43,2.76,7.41,6.56,16.22,13,34,.89,2.46,3.31,9.16,6,18,5.21,17.11,2.59,13.14,5,19,.65,1.59,1.85,4.31,1,5-1,.82-4.33-1.78-6-3-9.75-7.12-16.65-6-23-10-9.46-6-11-19.35-12-26-3.81-24.68-9.68-14.38-32-87-17.47-56.85-13.4-61.62-29-101-2.26-5.71-21.69-53.7-43-57-25.91-4-26-4-26-4-3.54.23-8.46.92-11-2-1.47-1.68-.81-3-2-10-.81-4.7-1.31-5.27-2-10C1180.36,814.21,1180,811.54,1181.13,810.5Z"
                  transform="translate(0)"/>
            <path class="cls-5"
                  d="M1152.13,818.5c-1.51,1-1.28,3.92-1,7a37.72,37.72,0,0,0,2,9,83.4,83.4,0,0,0,4,10c4.51,8.1,20.4,7,32,9,21.39,3.62,35.55,18.8,46,30,11.6,12.43,16.56,23.93,25,44a307.45,307.45,0,0,1,20,65c1.42,7.56,13.42,72.72,16,86a33.48,33.48,0,0,0,4,11c.69,1.17,3.11,5.12,10,11,3.64,3.11,5,3.77,11,8,14.47,10.25,12.72,10.92,19,14,5.27,2.58,8.42,3.05,13,7,2.89,2.49,4,4.38,5,4,2.64-1-1.54-17.25-2-19-2.09-8-3.13-11.95-7-20-7.85-16.35-14.9-42.23-29-94-6-22-5.7-23-10-37-5.29-17.2-6.6-18.46-16-47-3.63-11-7.48-22-11-33-2.82-8.85-7.48-17.06-10-26a21.36,21.36,0,0,0-4-8,22.09,22.09,0,0,0-8-6c-13.63-6.52-20.44-9.78-28-12-3.75-1.1-11.83-2.73-28-6-9.46-1.91-13.14-2.54-18-3-5.69-.53-6.47-.21-15-1-8.76-.81-13.13-1.21-15-2S1153.41,817.67,1152.13,818.5Z"
                  transform="translate(0)"/>
            <path class="cls-5"
                  d="M1131.13,843.5c.14-2.14,3.77-3.53,8-5,10.18-3.54,15.28-5.31,20-6,11.25-1.66,28.68-4.22,51,0,6.56,1.24,12.71,3.16,25,7,21.83,6.82,11.61,5.67,17,7a8.13,8.13,0,0,1,5,3,7.63,7.63,0,0,1,1,5c-.39,5,2.61,9.91,6,17,3.23,6.76,9.15,20.84,21,49,2.84,6.74,12.26,29.3,21,57,1.64,5.19,3,9.84,6,19,5.13,15.79,8.76,25.79,12,35,8.68,24.67,21,59.65,23,77,.88,7.57,0,13.19,3,22,.64,1.84,2,5.35,1,6-1.17.78-5-3-6-4-5.82-5.6-14.55-8.73-32-15a222.94,222.94,0,0,0-38-10c-14.2-2.4-21.31-3.6-31-2-10.27,1.69-12,4.56-16,3-9.12-3.57-6.86-21.26-12-51-4-22.86-6.51-19.45-11-44-5.51-30.16-1.41-34-7-54-.61-2.2-7.42-16.17-21-44,0,0-16.63-34.08-32-56-3.64-5.19-5.46-7.79-8-10C1133.67,846.49,1131,845.38,1131.13,843.5Z"
                  transform="translate(0)"/>
            <path class="cls-1"
                  d="M1261.13,977.5a13.75,13.75,0,0,0-6,7c-1,2.33-3.21,8.64,2,23,3.17,8.73,7.26,20,18,29,9.41,7.87,19.14,10,28,12,35.34,8.1,53.83,12.35,71,19,23.37,9.06,36,19.37,58,19,11.83-.2,15.61-3.29,17-6,2.7-5.25-1.78-12.51-4-16-8.61-13.54-22.27-19.36-26-21-26.52-11.63-42.28-22.27-57-37-8.71-8.72-17-19.76-18-19-.62.46.71,5.9,4,10,.82,1,2,2.23,2,4a5.23,5.23,0,0,1-2,4c-1.95,1.54-4.56,1.21-6,1-12.4-1.78-13.91-2.75-19-3-7.53-.37-11.3-.55-13,0a4,4,0,0,1-3,0,4.56,4.56,0,0,1-2-3c-1.8-6.34-12.54-14-14-15a53,53,0,0,0-9-5c-4.46-2.1-7.61-3.55-12-4C1267.22,976.2,1264.22,975.9,1261.13,977.5Z"
                  transform="translate(0)"/>
            <path class="cls-1"
                  d="M1277.13,1030.5c-2.24,3.5-2,11.59-2,13a43.67,43.67,0,0,0,4,16c5.55,11.42,18.85,18.27,32,23,28.11,10.11,32.22,2.12,68,11,11.2,2.78,22.46,6.45,40,7,6.85.21,23.71.74,25-4,1.38-5.1-15.88-14-28-20C1390.65,1063.84,1288.36,1013,1277.13,1030.5Z"
                  transform="translate(0)"/>
            <path class="cls-1"
                  d="M1289.13,1061.5c-1.64,3.05-.67,9.57,0,14a41.34,41.34,0,0,0,6,17c1.71,2.62,5.67,7.89,15,13,22.5,12.33,48.35,8.48,65,6a101.17,101.17,0,0,0,20-5c11.67-4.24,17.5-6.35,18-9C1415.8,1083.34,1298.27,1044.53,1289.13,1061.5Z"
                  transform="translate(0)"/>
            <path class="cls-4"
                  d="M1327.13,1124.5c-.88,3.58-1.54,6.58-2,8.77a82.85,82.85,0,0,0-2,12.06,55.54,55.54,0,0,0,0,7.67"
                  transform="translate(0)"/>
            <path class="cls-3"
                  d="M1395.13,1107.5c-.69-4.11,7.36-6.05,19-18,4.12-4.23,8.92-9.23,13-17,3.21-6.12,10.32-19.67,6-32-1-2.83-2.86-6.39-2-7s3.34,2,7,5c2,1.67,1.66,1.23,13,9,10.81,7.42,16.22,11.13,17,12,5.83,6.56,7,14.22,8,21,1,6.58,3,20.29-5,33-1.74,2.75-8.88,14-20,15-3.9.34-7.27-.77-14-3-7.08-2.34-10.56-4.45-16-7C1403.58,1110.27,1395.8,1111.51,1395.13,1107.5Z"
                  transform="translate(0)"/>
            <path class="cls-2"
                  d="M1631.13,812.5c7-6.5,13.54-11.36,22-15,6.16-2.65,22.46-9.65,36-4,12.64,5.28,17.18,19.21,23,38,5.67,18.31,6.86,39.12,9,80,1.42,27.16,1.15,37.37-2,50-2.81,11.27-5.25,13.76-7,25-2,12.57-.29,18.26,2,43,1.62,17.49,2.25,30.49,3,46,1,20.93,1,32.74,1,37-.09,21.76-.13,36.14-2,40.5l-117-.5s-1.65-5.13-5-25c-2.75-16.28-2.51-22.69-5-49-1.33-14-2.61-27.56-5-44-4.43-30.5-6.82-30.79-9-51a227.46,227.46,0,0,1,0-56"
                  transform="translate(0)"/>
            <path class="cls-4"
                  d="M1555.13,965.5a132.12,132.12,0,0,0,3,17c1.75,7.16,3.55,14.51,8,23,2.12,4,6.19,10.94,8,14,3.84,6.5,5.7,9.34,5,10s-4-1.51-10-6c-4.66-3.48-10.82-8.18-18-14"
                  transform="translate(0)"/>
            <path class="cls-2"
                  d="M1445.13,1038.5c-.81,1.34,7,4.73,11,14,3.81,8.83,1.64,17.11-2,31-3.29,12.54-6.78,25.22-18,36-5.41,5.2-9,7-9,7-2.45,1.11-3.85,1.2-4,2-.47,2.44,11.5,6.54,18,9a354.87,354.87,0,0,1,36,15.5c3,1.5,160,0,160,0s-3-8.8-12-22.5c-4.18-6.34-12.92-19.28-29-29-9.09-5.5-17.43-8.09-30-12-8.94-2.78-13.78-3.65-19-5-16.5-4.25-25-10.17-45-21C1475.3,1049,1446.69,1035.92,1445.13,1038.5Z"
                  transform="translate(0)"/>
            <path class="cls-4" d="M1660.13,1061.5a106.67,106.67,0,0,0-61,18" transform="translate(0)"/>
            <path class="cls-4"
                  d="M1659.13,1123.5a105.18,105.18,0,0,0-23-18c-11.79-6.8-20.16-8.5-23-9-6.6-1.17-14.67-1.46-15,0-.26,1.16,4.54,2.57,11,6a86,86,0,0,1,22,17,73.84,73.84,0,0,1,13,20"
                  transform="translate(0)"/>
            <path class="cls-1"
                  d="M1406.63,443c-7.41-3.78-9.18-13.76-11-24-5.38-30.29,13.57-54,16.5-57.5a75.34,75.34,0,0,1,36-24c20.46-6.15,37.41-1.49,46,1,7.3,2.12,23.65,7.08,37,22,7.32,8.18,13.53,15.12,12,22-2.9,13.09-29.95,8.76-66,24C1436.34,423.74,1421.06,450.37,1406.63,443Z"
                  transform="translate(0)"/>
            <path class="cls-6"
                  d="M1308.13,574.5c2,1,7,1,11,0,7.19-1.8,13-8.85,17-16a167,167,0,0,0,16-42c2-9.7,8.17-38,25-66,6.55-10.89,20.71-33.89,48-52,28.8-19.12,56.9-22.62,84-26,13.46-1.68,31-3.75,54-1,17.42,2.09,45.28,5.74,74,25,8.81,5.9,30.87,21.08,46,50,2.67,5.1,17.22,33.76,15,70-.75,12.24-4.71,46.56-9,64a83.77,83.77,0,0,0-2,17c-.18,9.3,1.27,13.26,2,15,1.1,2.61,3.5,8.32,9,11s9.89.21,11,2c1.73,2.78-6.51,12.37-18,21-20.19,15.17-40.44,19.9-58,24-14.2,3.32-28.34,6.62-37,3-.77-.32-5.81-2.5-7-1-.65.81.23,2.22,1,5a36,36,0,0,1,1,8,24.11,24.11,0,0,1-4,14c-1.93,2.75-5,5.6-6,5-.69-.4,0-2.12,0-4,0-6-6.85-10.56-9-12-6.89-4.6-14.31-4.88-19-5-25.22-.66-37.83-1-48,0-13.13,1.27-23.54,2.86-31,4-16.8,2.57-27.48,4.85-43,4a63,63,0,0,1-17-3c-4.79-1.58-11.87-3.92-18-10-1.39-1.38-2.34-2.56-10-16s-7.76-14.1-10-17c-3.66-4.74-8.11-10.5-16-14-5.2-2.31-9.47-2.56-17-3-6.82-.4-11.35-.61-16,2-2.61,1.47-4.54,3.42-5,3-.63-.57,2.36-4.84,4-7,2.87-3.78,5.51-7.26,10-10,5.94-3.63,11-3.46,11-5,0-1.27-3.38-2.11-6-3-7.05-2.39-12-6.93-22-16,0,0-8.07-7.34-11-16C1308,576.07,1307.4,574.14,1308.13,574.5Z"
                  transform="translate(0)"/>
            <path class="cls-7"
                  d="M1500.13,380.5a177.28,177.28,0,0,1,52,2c10.44,2,24.7,5,41,14,7.3,4,26.36,14.88,41,37,14.89,22.51,17.26,44.69,19,61,2.49,23.33.28,48.87,0,52a233,233,0,0,0-1,38c1,17.09,3.34,21.49,5,24,8.45,12.77,24.54,13.59,24,19-.3,3-5.54,4.81-12,7-4.51,1.53-12.6,4.28-23,3-14.8-1.82-22.85-10.38-25-8-1.42,1.57.92,6.6,4,10,7.66,8.47,19.87,6.83,20,9s-13.24,5.7-28,7c-11.84,1-22.88,2-36-2-12-3.67-20.44-9.89-21-9s6.74,4.63,13,13c7,9.42,10,20.78,8,22-1.33.81-3.92-3.39-10-7-7-4.14-13.82-4.71-21-5-27.65-1.12-44,1-44,1-24.63,3.2-26.18,6-52,9a127.46,127.46,0,0,1-33,0c-17.25-2.35-22.86-7-25-9-4.19-3.94-6.39-8.5-10-16-4.86-10.07-4.23-13.35-9-19a34.39,34.39,0,0,0-12-9c-11.53-5.18-21.43-1.64-22-4-.46-1.9,5.51-6,12-7,6.09-.92,10.38,1.27,11,0,.87-1.76-6.82-7.18-8-8-6.58-4.59-10.28-5.49-19-10-6.22-3.22-14.66-7.59-14-10,.4-1.46,3.74-.84,9-3a35.84,35.84,0,0,0,9-6c14.34-12.66,20-49,20-49,2.84-18.27,7.09-45.51,17-68,5.54-12.56,18-35.24,42-53C1450.33,385.67,1479.61,382.63,1500.13,380.5Z"
                  transform="translate(0)"/>
            <path class="cls-8"
                  d="M1347.75,553.75c1.09,10.15,11.22,16.56,12.75,17.5a30.67,30.67,0,0,0,13.5,4.25c10.25,1,12.65-3.28,22.75-3.25,8.77,0,8.2,3.25,20,4.75,7,.89,15.17,1.92,23.75-1.5,9.29-3.71,13.26-10.31,17.25-8.5,2.54,1.15,3,4.78,3.5,7,3.26,14.91,19.63,24.62,25.75,28.25,3.73,2.21,21.13,12.53,42.25,7.25,5.08-1.27,19.9-5,27.5-18.25,7.14-12.46,3.59-25.84.5-37.5-2.26-8.53-7.23-27.29-25.25-41.25-4.46-3.46-25.59-19.94-52.5-13.5-17.09,4.09-33.35,16.67-39.5,33.75a65.28,65.28,0,0,0-2.5,11.25s6.11-14.41,2.5-29.75c-1.05-4.47-2.82-12-8.75-17-13-11-38.78-3.26-53.5,8.5-3.53,2.82-9.27,11-20.75,27.5C1349.45,544.07,1347.16,548.28,1347.75,553.75Z"
                  transform="translate(0)"/>
            <path class="cls-1"
                  d="M1593.13,405.5c-2.29-8,.85-15.34,2-18,5.59-13,18.06-19.2,28-24,13.84-6.68,27-13,44-10,23.4,4.17,36.21,22.92,39,27,12.87,18.84,11.94,38.8,11,59-.55,11.78-1.41,27-10,44-4.73,9.38-12.41,24.58-29,31-2.24.87-19.4,7.5-30-1-5.71-4.58-7.12-11.63-9-21-2.61-13,.34-16.29-2-27-2.64-12.06-9.11-20.37-12-24-7.1-8.91-12.9-11.16-26-26A25,25,0,0,1,1593.13,405.5Z"
                  transform="translate(0)"/>
            <path class="cls-1"
                  d="M1362.13,547.5a19.54,19.54,0,0,0,3,10c3.69,5.57,9.64,7.31,12,8,10.89,3.19,20.87-1.59,28-5s16.75-8,23-19a38.46,38.46,0,0,0,5-24c-.53-4-2.23-16.8-11-21-8.3-4-18.11,2.07-31,10-16.45,10.13-22.7,20.72-24,23C1362,538.57,1362,544.82,1362.13,547.5Z"
                  transform="translate(0)"/>
            <path class="cls-7"
                  d="M1392.13,540.5c-.68-2.75-1.53-6.21,0-10,.22-.54,3.06-7.25,10-8a12,12,0,0,1,11,5,10.28,10.28,0,0,1,2,7c-.64,5.2-5.91,7.9-10,10-3.3,1.69-7.21,3.7-10,2C1393.34,545.41,1392.82,543.3,1392.13,540.5Z"
                  transform="translate(0)"/>
            <path class="cls-1"
                  d="M1467.13,545.5a52.76,52.76,0,0,1,4-20c3.4-8.8,6.59-17.08,14-21,9.72-5.15,21.34,0,28,3,27.08,12.07,34.79,41.38,36,46,1.74,6.63,3.17,12.35,1,19-4.86,14.91-23,19.91-27,21-3.62,1-20.25,5.57-35-4-11.43-7.42-15.39-19.21-18-27A55.16,55.16,0,0,1,1467.13,545.5Z"
                  transform="translate(0)"/>
            <path class="cls-7"
                  d="M1484.13,555.5a14.39,14.39,0,0,1,0-9c.27-.76,2.35-6.27,8-8s11.22,1.57,14,5a12.41,12.41,0,0,1,3,9c-.53,4.91-4.31,7.74-6,9-1.24.93-7.47,5.58-13,3C1486.05,562.6,1484.78,557.9,1484.13,555.5Z"
                  transform="translate(0)"/>
            <path class="cls-6"
                  d="M1391.13,574.5a24.32,24.32,0,0,1,4-13c3.73-5.51,8.87-7.76,14-10a51.94,51.94,0,0,1,17-4,65.38,65.38,0,0,1,12,0"
                  transform="translate(0)"/>
            <path class="cls-9"
                  d="M1393.13,622.5c-.33,1.16-.79,3.5,1,9,1.84,5.67,3.13,9.61,7,13,4.77,4.17,10.29,4.73,13,5,6.46.65,11.33-1.21,16-3,6.54-2.5,10.71-5.7,15-9,2.23-1.71,8.74-6.71,8-8-.59-1-5.14,1.49-13,3-6.59,1.27-13.3,2.56-20,0-6.32-2.41-12-8-14-10-3.6-3.56-5.42-6.36-8-6S1393.74,620.38,1393.13,622.5Z"
                  transform="translate(0)"/>
            <path class="cls-10"
                  d="M1376.13,614.5a16.58,16.58,0,0,0,2,6c.78,1.37,3.13,5.52,8,7,4.31,1.31,8.08-.22,10-1a24.38,24.38,0,0,0,5-3,60.48,60.48,0,0,0,8-7,16.25,16.25,0,0,0,4-5c.56-1.19-13.15-1.26-13-2"
                  transform="translate(0)"/>
            <path class="cls-10"
                  d="M1402.13,590.5c-1.08,5.76-1.66,10.57-2,14-.71,7.29-1,11,0,15a27,27,0,0,0,6,11c7.11,8.06,16.74,9.51,20,10,0,0,11.44,1.73,25-5a24.2,24.2,0,0,0,7-5,17.23,17.23,0,0,0,4-6,16.23,16.23,0,0,0,1-7"
                  transform="translate(0)"/>
            <rect class="cls-1" x="1393.63" y="558.01" width="30" height="43" rx="12" ry="12"
                  transform="translate(539.28 1830.23) rotate(-77.56)"/>
            <rect class="cls-7" x="1409.25" y="567.44" width="12.51" height="17.06" rx="6" ry="6"
                  transform="translate(548.13 1834.17) rotate(-77.56)"/>
            <path class="cls-8"
                  d="M1473.25,609c-.3.21,3.21,3.65,3.75,9.75a19.31,19.31,0,0,1-1.25,8.5c-3.13,8.1-10.62,11.17-10,12.25.49.85,5.64-.18,9.75-3.5,3.67-3,4.85-6.39,6-6s.94,4.13.75,5.75c-.36,3-1.44,4.91-1.25,5s3.75-3.75,4.75-8.25C1488.33,620.92,1473.83,608.58,1473.25,609Z"
                  transform="translate(0)"/>
            <path class="cls-8"
                  d="M1399.25,652.75c.6-.29,1.48,2.67,5,5,4.58,3,10,2.59,13.5,2.25,8.13-.78,12.29-4,12.75-3.25.6,1-5.83,7.5-14.75,9.75-3.24.82-6.62,1.67-10,0C1399.19,663.26,1398.19,653.26,1399.25,652.75Z"
                  transform="translate(0)"/>
        </g>
        <g id="Layer_2-2" data-name="Layer 2-2">
            <path class="cls-1"
                  d="M257.13,676.5c5.42,1.82,14.89,5.25,23,14,9,9.69,11.45,20.67,13,28,1.23,5.83,8.09,38.25-11,56-3.39,3.15-8.84,8.22-16,8-12.21-.38-17.24-15.8-32-35-11-14.26-11.35-9.87-46-43-25.92-24.79-38.84-37.28-37-42C157.36,646.53,237.06,669.77,257.13,676.5Z"
                  transform="translate(0)"/>
            <path class="cls-11"
                  d="M270.13,771.5c.49,0,1.42-.54,4-10,2.86-10.5,2.11-11.29,4-17,2.71-8.19,4.72-8,7-16,2.06-7.27,1.23-10.31,3-11,3.6-1.41,11.76,9.32,17,19,7.41,13.69,9.53,26.29,11,38a406.09,406.09,0,0,1,3,55c-.18,21.69-1.21,10.42-5,63,0,0-1.17,16.31-12,36-1.6,2.9-3.38,5.78-6,6-7,.59-13.89-18.6-17-27-15.31-41.29-14.77-21.63-41-87-19.53-48.66-17.76-54.41-31-71-10.35-13-21.71-22.35-19-27,1.53-2.63,14.38-.45,40,4a44.22,44.22,0,0,1,15,5,46.84,46.84,0,0,1,12,10,52.32,52.32,0,0,1,10,15C268.83,765.11,268.5,771.46,270.13,771.5Z"
                  transform="translate(0)"/>
            <path class="cls-12"
                  d="M319.13,700.5c.54-.39,1.77-1,9,1a94.24,94.24,0,0,1,25,11c7.82,4.94,17.37,11,28,22,8.59,8.84,7.44,10.08,21,27,10.17,12.69,16.06,20,25,28,9.23,8.22,11.24,7.78,32,22,10.89,7.46,22.12,15.15,35,26,15.62,13.15,24,20.18,32,33a113.22,113.22,0,0,1,13,30c2.25,8,4.32,15.24,4,25-.08,2.37-.71,17.49-8,29-13.84,21.87-46.69,22.87-51,23-50.37,1.54-102.19-54.47-123-109-16.81-44-2.1-57.53-26-114C327.58,736.67,312.3,705.37,319.13,700.5Z"
                  transform="translate(0)"/>
            <path class="cls-4" d="M401.13,851.5a60.16,60.16,0,0,1,9-10,61.16,61.16,0,0,1,35-15"
                  transform="translate(0)"/>
            <path class="cls-4" d="M383.13,864.5a99.7,99.7,0,0,1-2-15c-.4-7-.86-15.25,2-25a57.75,57.75,0,0,1,9-18"
                  transform="translate(0)"/>
            <path class="cls-12"
                  d="M328.13,705.5c-13.41-11.42-33.84-21.62-38-17-3.5,3.89,8,14.42,16,37,4.44,12.51,5.29,24.34,7,48,1.26,17.47,2.83,40.55,0,71-1.23,13.2-1.06,3.94-8,50-1.88,12.48-3.36,22.88-6,23s-5.23-10.79-6-14c-8.63-36.07-39.24-106.4-73-155-17.89-25.75-32.4-39.26-43-47-14.72-10.75-24.62-12.36-36-22a16.25,16.25,0,0,0-8-4c-5.54-.89-10.2,1.86-17,6-11.69,7.12-17.54,10.68-18,11-15,10.32-41.68,25.5-54,30a20.57,20.57,0,0,0-8,5,21.12,21.12,0,0,0-5,9c-14,47.94-15,93-15,93-1.17,52.36-2.25,40.75-2,62,.56,46.6,5.89,112,10,138,2,12.95,5,23.9,2,32,0,0-2.68,7.23-1,13a10.24,10.24,0,0,0,2,4c1.06,1.11,2,1.31,2,2,0,1.16-2.42,1.64-4,3-2.84,2.44-2.28,7.25-2,11a150.76,150.76,0,0,1,0,18c-.44,7.76-3.29,13.51-9,25-6.51,13.11-10,12.9-10,15.5h333s39.57-94.16,37-135.5c-1.32-21.29-8.3-71.85-6-118,.14-2.77.61-11.64,1-24,.91-29.1,1.36-43.66,0-61"
                  transform="translate(0)"/>
            <path class="cls-13"
                  d="M277.63,1153c6.2-19.79,14.42-43.44,19-82,3.86-32.52,1.4-39.2,7-50,20.27-39.08,96.49-36.23,160-36,79.75.28,159.31-7.92,239-11,171.23-6.62,265.78-22.61,346-11,38.69,5.6,88.07,19.65,120,18a96.81,96.81,0,0,1,39,6c6.27,2.38,15.91-1,22,5,8.43,8.34,7.8,24.29,11,41,4.6,24,7.31,43.13,8,48,3.95,28.07,5.14,57,12,72Z"
                  transform="translate(0)"/>
            <path class="cls-13" d="M656.07,1100.06C693,1102,731.74,1103,771.63,1103c142.06,0,269.24-12.95,354.54-33.35"
                  transform="translate(0)"/>
            <path class="cls-13"
                  d="M1223.77,1030.66c8.41-7.11,12.86-14.53,12.86-22.16,0-52.19-208.19-94.5-465-94.5s-465,42.31-465,94.5c0,25.22,48.63,48.14,127.87,65.09"
                  transform="translate(0)"/>
            <path class="cls-12"
                  d="M525.13,942.5c-.23,2.1-3.16,25.58-22,39-12.6,9-18.72,3.77-62,7-35.36,2.64-47.69,7.33-60-2-6.36-4.83-4.62-7.26-14-21-20.26-29.68-40.42-35.94-38-47,1.17-5.34,5.76-3.39,20-15,8.66-7,9.11-9.52,30-31,6.59-6.78,9.89-10.16,11-11,16-12,35.22-11.35,45-11"
                  transform="translate(0)"/>
            <path class="cls-11"
                  d="M277.13,943.5a14.45,14.45,0,0,1,2-9c2.1-3.18,5.17-4.34,13-7,13.35-4.54,13.12-4.11,18-6,4.5-1.74,8.57-3.6,16-7,7.18-3.28,7.28-3.51,9-4,8.43-2.42,16.12.07,19,1,12.23,4,19,13,25,21,4.67,6.23,8.34,11.14,10,19a35.09,35.09,0,0,1-2,22c-1.14,2.51-4.45,9.6-12,14-7.32,4.27-15.14,4-22,3C319.7,985.79,278.22,960.94,277.13,943.5Z"
                  transform="translate(0)"/>
            <path class="cls-1"
                  d="M254.13,970.5c.26-3,2.5-2.81,12-14,9.79-11.53,9.45-14.12,15-18,8.2-5.73,17.28-5.89,23-6s16.42-.3,27,7c2.15,1.48,12.63,9,16,23a31.54,31.54,0,0,1,0,17,35.44,35.44,0,0,1-13,17C309.45,1013.75,252.77,985.83,254.13,970.5Z"
                  transform="translate(0)"/>
            <path class="cls-4"
                  d="M394.13,958.5a33.18,33.18,0,0,0,6,0,60.75,60.75,0,0,0,6-1c4.45-.8,5.58-.58,8-1,6.81-1.18,6.66-4.46,13-6,3.43-.84,2.57.34,13,0a73.94,73.94,0,0,0,11-1,61,61,0,0,0,8-2"
                  transform="translate(0)"/>
            <path class="cls-4"
                  d="M502.13,935.5a23,23,0,0,0,8.59-3.23c2.85-1.84,3.26-3.18,6.13-4.3,1.57-.61,3.5-.77,7.36-1.08,5.29-.42,6.5-.06,8.59-1.07a9.32,9.32,0,0,0,3.68-3.23c2.43-3.84.29-8,0-8.6"
                  transform="translate(0)"/>
            <path class="cls-11"
                  d="M131.13,655.5c-1.06.82-2.05,2.89-4,7-2.27,4.8-3.41,7.2-4,10a30.73,30.73,0,0,0,0,11c1.63,8.13,7.56,13.2,14,19,9.77,8.8,19.28,18,25,24,1.92,2,1.16,1.3,20,24,17.88,21.54,17.37,20.75,19,23,7.26,10.06,13,19.9,15,19,.41-.19.42-.74,1-5,.32-2.34.73-4.66,1-7,.55-4.7,3.37-9.65,7-16a141.39,141.39,0,0,1,15-21c2.95-3.29,2.32-2,6-6,2.54-2.74,4-1,5,0,1.42,1.42,7.23,7.56,7,7-5-12-9.57-12.1-19-21-14.23-13.44-26.28-22.47-39-32-17.11-12.82-13.51-8.64-27-19-5.06-3.88-13.93-10.9-27-16C140.95,654.48,134.82,652.64,131.13,655.5Z"
                  transform="translate(0)"/>
            <path class="cls-11"
                  d="M274.13,678.5c-1.64,3,4,6.2,8,18a48.56,48.56,0,0,1,3,17,89.6,89.6,0,0,1-4,24c-.31.93,2.82-5.71,5-6,1.78-.24,5.31.63,14,16,6.09,10.77,10,19,10,19s1,2.19,8,12c.54.76,1.57,2.19,2,2,.63-.28-.41-3.8-1-6,0,0-.5-1.87-3-16-.5-2.81-.67-9.25-1-22-.35-13.71-.31-16-1-21a66.26,66.26,0,0,0-3-14c-2-5.71-5.07-14.48-13-20C289.31,675.36,276.34,674.53,274.13,678.5Z"
                  transform="translate(0)"/>
            <path class="cls-12"
                  d="M50.13,724.5a43,43,0,0,0-21,10c-3.68,3.47-6.12,7.28-10,16-4.79,10.78-10,22.45-13,40-2.46,14.27-2.22,25.11-2,35,.24,11,.51,23.08,4,37s8.56,23.18,17,38c13.42,23.56,20.14,35.34,33,56,20.21,32.45,20.6,41,38,67,9,13.51,16,22.43,24,31,9,9.69,17.52,16.92,27,25,2.14,1.82,6.09,4.88,14,11,7.2,5.57,10.65,8.1,16,10a26.39,26.39,0,0,0,10,2c8.36-.23,14.39-5.65,17-8,9.75-8.76,17.36-25.72,25-56,0,0,7.86-31.17,5-61-.29-3-1.08-8.43-5-13-1.44-1.69-3.56-4.15-7-5-5-1.23-8.48,2.07-11,0-1.29-1.06-.77-2.23-2-5-1.63-3.67-4.3-5.59-6-7-3.67-3.06-4.17-4.93-11-14-17.59-23.36-22.78-22.24-26-33-1.3-4.36-1.8-9.06-6-13-3.5-3.29-8.36-4.91-8-7,.2-1.15,1.74-1.15,3-3,1.46-2.14,1.15-4.71,1-6-.75-6.21-5.41-6.77-8-14-1.51-4.22-.13-4.62-2-9-1.36-3.2-2.88-4.83-3-8a11.41,11.41,0,0,1,1-5c4.67-11.31-10-38-10-38"
                  transform="translate(0)"/>
            <path class="cls-4" d="M109.13,829.5c6.75,4.75,13.79,10.07,21,16,5.74,4.72,11.07,9.41,16,14"
                  transform="translate(0)"/>
            <path class="cls-4" d="M149.13,879.5a35.69,35.69,0,0,0-21-6" transform="translate(0)"/>
            <path class="cls-4"
                  d="M47.13,729.5a80.8,80.8,0,0,0-7,12,87.62,87.62,0,0,0-7,23,159.55,159.55,0,0,0,1,56c1.68,7.34,3.79,12.9,8,24,3.74,9.85,4.21,9.69,9,22,5.35,13.76,5.11,14.86,8,20,1.09,1.94,2.44,4.12,13,17,13.32,16.25,14.68,17,17,22,3.77,8,1.36,8.45,6,19,3.7,8.43,5.89,9.64,9,18,1.7,4.56,3.54,9.51,4,16,.92,13.07-4.57,21.35-1,24,1.8,1.34,3.47-.57,8,1a15.41,15.41,0,0,1,7,5c2.54,3.31.79,6.74,3,8,.86.49,1.37.18,4,0,4.35-.3,7.62-.52,9,1,2.06,2.27-.81,7.66,0,8s2.79-5.16,5-5c1.89.14,2.6,4.34,6,13s4.48,9.05,5,9c2.06-.21,2-8.85,4-9,1.09-.08,1.74,2.49,4,7,2.62,5.23,4.84,9.54,9,12a15,15,0,0,0,7,2"
                  transform="translate(0)"/>
            <path class="cls-1"
                  d="M430.13,975.5c2.63-9.13,12.26-14.59,13-15,2.23-1.23,4.24-1.89,10-5,2.88-1.56,5.26-3,7-4,5.77-3.48,8.66-5.22,12-8s3.27-3.32,5-4c3.75-1.48,7.19-.06,11,1s7.89,1.38,16,2a65.64,65.64,0,0,0,26-3,115.38,115.38,0,0,1,17-5c4-.82,6-1,8,0,5.85,2.81,6,12.31,6,13,0,1.49-.16,5.94-4,12-5.3,8.35-13,12.42-16,14-25.15,13-44,18-44,18-35,9.29-52.69,13.78-61,6C430.6,992.32,428,982.91,430.13,975.5Z"
                  transform="translate(0)"/>
            <path class="cls-1"
                  d="M431.13,1031.5c0,1.13.6,2.58,23,13,19.58,9.11,32.12,14,47,18,8.56,2.27,17.11,4,26,1a24,24,0,0,0,11-7,24.88,24.88,0,0,0,5-10,28.81,28.81,0,0,0,1-11c-2-11.9-29.59-17.36-33-18C473.33,1010.35,431.06,1021.84,431.13,1031.5Z"
                  transform="translate(0)"/>
            <path class="cls-1"
                  d="M431.13,1008.5c-2.62-9.51,23.94-24.29,36-31,0,0,30.31-16.87,73-18a105.19,105.19,0,0,1,28,4c10,2.8,13.12,5.26,15,8,4,5.91,3.18,14.13,1,19-5.77,12.91-26.58,15.25-45,17C468.78,1014.17,433.61,1017.51,431.13,1008.5Z"
                  transform="translate(0)"/>
            <path class="cls-1"
                  d="M423.13,1013.5c.41,5.73,17.72,3.1,71,18,13.58,3.8,28,3.17,42,5,2.55.34,8.78,1.16,15-2a19.38,19.38,0,0,0,9-9,19.64,19.64,0,0,0,1-13,27.83,27.83,0,0,0-7-12C539.54,985.89,422.07,998.6,423.13,1013.5Z"
                  transform="translate(0)"/>
            <path class="cls-11"
                  d="M395.13,974.5c.76-.45.58-.19,11-2,11.44-2,12.84-2.5,18-3,6.79-.66,10.19-1,14,0a27.42,27.42,0,0,1,13,8c7,7.63,7.49,17,8,27,.21,4.24.67,15.26-4,25a41.76,41.76,0,0,1-7,10,14.13,14.13,0,0,1-5,4,13.4,13.4,0,0,1-6,1s-4.35-.08-16,0c-8.75.06-8.81,1.65-12,1-10.33-2.1-14.91-19.88-17-28C391.24,1014.06,383.17,981.62,395.13,974.5Z"
                  transform="translate(0)"/>
            <path class="cls-12"
                  d="M207.13,975.5c1.2-.93,5.13-3.62,13-9s9.53-6.4,12-7c6.19-1.51,10.68,1,17,3,3.68,1.17,11.51,1.8,27,3,32.14,2.5,31.36.9,52,3,16.81,1.71,21.8,3.22,34,3,6-.11,12,0,18,0,8.68-.08,11.64-.22,16,1,1.91.54,8.15,2.29,13,7,5.74,5.58,6.54,12.42,8,25,0,0,1.43,12.31-3,34a13.39,13.39,0,0,1-2,5c-2.85,4.23-7.6,5.58-9,6-14.58,4.4-27.4,13.67-42,18-54.8,16.25-48.14,15.29-67,20-22.92,5.72-41.38,10.25-67,13-18.73,2-8-.09-28,2a50,50,0,0,1-17-1c-4.62-1.1-7.4-1.76-9-4-3.36-4.71,1.53-12.2,6-23"
                  transform="translate(0)"/>
            <path class="cls-4"
                  d="M191.13,1054.5a12.71,12.71,0,0,0,6,2c3.07.17,5.12-1,8-2,2.18-.77,5.12-1.18,11-2,8.7-1.22,11.24-.39,21-1,8.15-.51,7-1.12,17-2,11-1,11.54-.15,22-1a221.64,221.64,0,0,0,22-3c3.9-.69,3.43-.7,19-4,8.6-1.83,15.23-3.23,24-5,9.3-1.88,14-2.81,15-3,5.79-1,7-1.08,10-2,5.29-1.61,11-4,11-4a22.55,22.55,0,0,1,7-2,25.89,25.89,0,0,1,4,0c10,.39,10.75.37,12,0,2.48-.75,2.2-1.45,6-3a33.63,33.63,0,0,1,7-2"
                  transform="translate(0)"/>
            <path class="cls-4" d="M215.13,963.5a62.42,62.42,0,0,0-14,3,68.77,68.77,0,0,0-21,12,72.59,72.59,0,0,0-13,14"
                  transform="translate(0)"/>
            <path class="cls-4" d="M137.13,1039.5a79.87,79.87,0,0,1,16-44,78,78,0,0,1,8-9" transform="translate(0)"/>
            <path class="cls-4" d="M163.13,1010.5a63.55,63.55,0,0,0-3,13,71.18,71.18,0,0,0,2,26,88.32,88.32,0,0,0,3,10"
                  transform="translate(0)"/>
            <path class="cls-4"
                  d="M75.13,992.5c.26,1.85.62,4.63,1,8,1.68,15,1.12,19.91,2,41,1,23.7,2,25,0,29-1,1.94-3.75,6.76-2,11,.28.68.77,1.56,4,5,2.42,2.58,4.52,4.61,6,6"
                  transform="translate(0)"/>
            <path class="cls-4" d="M31.13,1080.5a62.23,62.23,0,0,0,15,11" transform="translate(0)"/>
            <path class="cls-4" d="M64.13,1093.5a69.09,69.09,0,0,0,14,2,76.92,76.92,0,0,0,15-1,98.29,98.29,0,0,0,10-2"
                  transform="translate(0)"/>
            <path class="cls-4"
                  d="M77.13,1102.5a114.66,114.66,0,0,1-2,13.17,67,67,0,0,1-3,11c-1.73,4.54-2.26,4.09-4,8.78a68.19,68.19,0,0,0-3,11c-.51,2.63-.82,4.89-1,6.59"
                  transform="translate(0)"/>
            <path class="cls-4"
                  d="M270.13,771.5c1.79,2.5,5.34,6.8,8,11.65,8.13,14.79,10.93,27.8,14,42.56,1.54,7.43,2.7,15.76,5,32.43,2.43,17.61,2.85,23.84,3,26.35a228.3,228.3,0,0,1,0,28.37c-.29,4.51-.67,9.82-1,12.65"
                  transform="translate(0)"/>
            <path class="cls-4"
                  d="M279.13,772.5a2.56,2.56,0,0,0,0,2,3,3,0,0,0,4,1c1.34-1.1.59-4.55-1-5C281.08,770.21,279.62,771.21,279.13,772.5Z"
                  transform="translate(0)"/>
            <path class="cls-4"
                  d="M294.13,817.5c-.71,1.21.06,3,1,4,1.19,1.26,3.56,2.19,5,1s1.19-3.64,0-5C298.53,815.67,295.09,815.88,294.13,817.5Z"
                  transform="translate(0)"/>
            <path class="cls-4" d="M302.13,873.5c-1.13.91-.92,2.89,0,4a2.78,2.78,0,0,0,3,1,2.92,2.92,0,1,0-2.72-5.17Z"
                  transform="translate(0)"/>
            <path class="cls-1"
                  d="M244.13,378.5c.38-3.78,6.92-7.86,20-16,10-6.19,17.16-10.68,28-14,11-3.38,21.25-6.5,33-3,13.72,4.09,21.27,14.73,25,20,10.87,15.34,11.48,31.4,12,45a81.5,81.5,0,0,1-3,26c-2.38,8.28-5.18,18-12,20-5.21,1.54-10.63-2-17-7-17-13.19-27.31-25.8-32-31C272.52,390.09,243,390.06,244.13,378.5Z"
                  transform="translate(0)"/>
            <path class="cls-6"
                  d="M10.13,614.5a65.49,65.49,0,0,1,8-3c5.54-1.86,8.47-6.46,12-12,6.29-9.88,8.63-20.27,10-29,2.11-13.45,2-23.18,2-32,.09-21,1.28-39.73,2-47,3.44-35,21.06-60.79,24-65,23-32.87,55.31-45.49,70-51,30-11.25,55.41-10.64,74-10,20.25.69,45.79,1.57,75,16a154.86,154.86,0,0,1,58,50c18,25.94,23.29,51.32,27,69,2.94,14,7.15,34.06,7,51-.06,6.92.63,13.62,2,27a42.23,42.23,0,0,0,2,10,45.23,45.23,0,0,0,9,15c4.5,5.41,6.75,8.11,10,9,1.44.39,3.42.63,4,2,.72,1.69-1.16,4-2,5-17.65,21.17-30,29-30,29-6.41,4.06-9.62,6.1-14,8-2.67,1.16-6.14,2.47-6,3s3.49-.6,8,0c4.7.62,9.2,2.91,9,4s-3.86.92-6,1c-16.19.63-30.78,11-35,14-6.82,4.85-5.12,5.5-15,13-5.09,3.86-10.11,7.68-17,11a73.21,73.21,0,0,1-26,7c-4.63.3-13.66.36-36-8-28.5-10.66-28.35-16.19-50-22a286.3,286.3,0,0,0-31-6c-9-1.25-11.27-1.15-24-3-12.95-1.88-19.55-2.86-26-5-3.07-1-7.22-2.57-15-5-8.54-2.66-10.33-2.91-12-3-8.67-.46-14.22,3.37-15,2s3.91-5.23,6-7a42.85,42.85,0,0,1,11-7c4.78-2.09,8.07-2.51,8-3-.1-.74-7.5-.16-12,0a111.57,111.57,0,0,1-36-5,74.11,74.11,0,0,1-27-17C11.8,619.14,10.13,616.5,10.13,614.5Z"
                  transform="translate(0)"/>
            <path class="cls-7"
                  d="M147.13,389.5a122.4,122.4,0,0,0-39,36c-10.15,14.68-14.42,27.85-17,36-4.27,13.52-5.57,26.53-8,52-2.23,23.4-1.76,30-5,48a130.76,130.76,0,0,1-10,32c-7.41,16-13.16,19.6-16,21-7.86,3.88-15.78,2.18-16,4-.28,2.29,12.16,5.52,14,6a81.76,81.76,0,0,0,22,3c9.6,0,16.54,0,24-4,5.66-3,9-6.87,10-6s-.76,5.57-4,9c-5.48,5.8-13.12,5.65-13,7s7.17,1.94,13,2c9.64.1,14.41-1.43,15,0,.67,1.63-4.74,5.62-9,8-8.38,4.69-15,4.7-15,6s8.25,2.63,16,3c9.4.45,15-.47,23-1a199,199,0,0,1,24,0c24.9,1.87,44.13,13.27,50,17,11.21,7.12,10.18,9.44,22,16a112.49,112.49,0,0,0,29,11c12.71,2.94,20.51,4.74,30,2,6.76-2,11.34-5.34,19-11,12-8.88,11-11.79,19-16,11.14-5.82,21.7-4.69,22-8,.25-2.66-6.49-4.59-6-7,.38-1.87,4.73-2.07,9-3,9.13-2,15.26-6.76,22-12,6.32-4.92,3.26-4.2,14-14,4.25-3.87,7.74-6.73,7-9-.58-1.76-3.24-1.74-6-3-4.81-2.21-7.5-7.23-10-15-6.27-19.47-6-32-6-32,.55-25.15-3.31-61.69-12-88a149.7,149.7,0,0,0-24-45c-20.79-26.48-45.37-38.48-57-44-13.37-6.34-53.48-25.38-99-14A124.72,124.72,0,0,0,147.13,389.5Z"
                  transform="translate(0)"/>
            <path class="cls-8"
                  d="M192.33,561.67c0-1.64.38-8.3,7-18.67,17-26.63,47.22-33.35,52-34.33,14.56-3,23.82-.77,26.67,0,4.78,1.3,10.94,3,16,8,11.25,11.18,8.36,30.35,10.33,30.33,1.13,0,1.53-6.32,4.33-17,3.54-13.47,6.23-16.06,7.33-17,5.27-4.49,12.57-3.89,15.33-3.67,24,2,41.76,36.21,42,55.33A32.31,32.31,0,0,1,369.67,581a23.73,23.73,0,0,1-8.33,9.33c-1.42.89-6.64,4.07-13,3.33-6.14-.71-6.28-4.24-13.2-7.17-7.46-3.16-9.3.1-25.13-2.5-6.38-1-9.63-1.61-12.67-3.67-4.87-3.3-6.79-7.86-9.67-7.33-2.08.38-3.14,3.12-3.67,4.33-3.21,7.37-10,11.94-18,17.33-15.77,10.62-36.71,5-40.67,4-5.21-1.39-13-3.56-20.33-10.33C202.9,586.39,191.92,576.21,192.33,561.67Z"
                  transform="translate(0)"/>
            <path class="cls-1"
                  d="M66.13,473.5c2.34,4,5.43,8.56,11,12,1.11.69,10.42,6.27,21,4s16.2-10.85,23-21c12.34-18.44,8.72-25.92,20-35,6-4.8,14.8-9,19-11,8.72-4.15,12.47-4.77,17-9,4.69-4.38,8.11-10.65,9-16,3.36-20.13-26.67-40.7-43-49-12.11-6.16-23.3-11.84-38-10-28.2,3.54-43.06,31.47-46,37-9.23,17.34-9.09,33.4-9,44A120.27,120.27,0,0,0,66.13,473.5Z"
                  transform="translate(0)"/>
            <path class="cls-1"
                  d="M205.13,552.5c-.69,3.44-2.25,11.81,2,20,8.1,15.62,29.77,16,32,16,3.4,0,16.88-.39,28-11a40.69,40.69,0,0,0,12-24c.67-4.78,2.25-16.15-5-26-7-9.56-18-11.65-20-12C232.9,511.87,209.37,531.33,205.13,552.5Z"
                  transform="translate(0)"/>
            <path class="cls-7"
                  d="M242.13,551.5c.15-5,3.83-8.16,6-10a14.9,14.9,0,0,1,9-4c1.55-.07,5-.23,7,2,1.84,2,1.5,4.84,1,9-.37,3-.92,7.17-4,11-1.3,1.61-2.64,3.27-5,4-4.92,1.51-9.48-2.53-10-3A12.26,12.26,0,0,1,242.13,551.5Z"
                  transform="translate(0)"/>
            <path class="cls-1"
                  d="M316.13,559.5a43.35,43.35,0,0,1-2-18c.4-6.61.68-11.36,4-16,3.59-5,10.12-9,17-9,11.23.09,18.59,11,24,19a49.29,49.29,0,0,1,6,12c1.7,5.11,3.64,10.93,2,18-.51,2.21-2.24,9.64-9,14-5.18,3.34-10.61,3.13-14,3a29.93,29.93,0,0,1-12-3C321.21,574,317.37,563,316.13,559.5Z"
                  transform="translate(0)"/>
            <path class="cls-7"
                  d="M327.13,551.5a10.09,10.09,0,0,1,5-9,10.45,10.45,0,0,1,8-1,9.94,9.94,0,0,1,6,5c1.92,4.08-.06,8.1-1,10s-2.69,5.46-6,6c-2.83.47-5.19-1.5-7-3S327.35,555.53,327.13,551.5Z"
                  transform="translate(0)"/>
            <path class="cls-6"
                  d="M307.13,561.5a22.83,22.83,0,0,1,6,0c6,.8,10.06,3.79,13,6,3.18,2.38,5.27,4,7,7a16.3,16.3,0,0,1,2,12,15.31,15.31,0,0,1-4,7"
                  transform="translate(0)"/>
            <path class="cls-14"
                  d="M324.13,638.5c.32,1.6-4.65,2.63-10,8a76.13,76.13,0,0,0-5,6c-3.4,4.29-4,5.51-6,7a15.79,15.79,0,0,1-3.73,2.06c-1.38-7.25-2.32-11.36-4.27-15.06A39.83,39.83,0,0,0,287,635.21c4.21-.48,8.09-1.24,12.17-3.71,3.76-2.28,4.54-4.12,7-4,4.4.21,5.09,6.25,12,9C321.54,637.86,323.91,637.39,324.13,638.5Z"
                  transform="translate(0)"/>
            <path class="cls-15"
                  d="M299.4,661.56a17.9,17.9,0,0,1-3.27.94c-6,1.21-11.06-1.12-15-3-7.1-3.39-11.3-7.88-16-13-5.13-5.59-11.61-12.65-10-15,2-2.86,12.86,5.57,29,4l2.83-.29a39.83,39.83,0,0,1,8.17,11.29C297.08,650.2,298,654.31,299.4,661.56Z"
                  transform="translate(0)"/>
            <path class="cls-4"
                  d="M287,635.21l-2.83.29c-16.14,1.57-27-6.86-29-4-1.61,2.35,4.87,9.41,10,15,4.7,5.12,8.9,9.61,16,13,3.94,1.88,9,4.21,15,3a17.9,17.9,0,0,0,3.27-.94,15.79,15.79,0,0,0,3.73-2.06c2-1.49,2.6-2.71,6-7a76.13,76.13,0,0,1,5-6c5.35-5.37,10.32-6.4,10-8-.22-1.11-2.59-.64-6-2-6.91-2.75-7.6-8.79-12-9-2.46-.12-3.24,1.72-7,4C295,634,291.17,634.73,287,635.21Z"
                  transform="translate(0)"/>
            <path class="cls-4" d="M287,635.21a39.83,39.83,0,0,1,8.17,11.29c2,3.7,2.89,7.81,4.27,15.06"
                  transform="translate(0)"/>
            <path class="cls-10"
                  d="M297.13,619.5a22.17,22.17,0,0,0,1,6c3.13,10,12.42,14.29,14,15a22.59,22.59,0,0,0,14,2,21.75,21.75,0,0,0,11-6,23.33,23.33,0,0,0,6-10"
                  transform="translate(0)"/>
            <path class="cls-10"
                  d="M239.13,620.5a51,51,0,0,0,4,6c2.62,3.38,11.54,14.9,27,18a42.16,42.16,0,0,0,16,0,38.36,38.36,0,0,0,14-5,32.9,32.9,0,0,0,12-12c2.69-4.77,3.36-9,4-13a54.52,54.52,0,0,0,0-17"
                  transform="translate(0)"/>
            <rect class="cls-1" x="295.13" y="574.5" width="40" height="26" rx="9" ry="9"/>
            <rect class="cls-7" x="299.82" y="577.5" width="21.31" height="11" rx="5" ry="5"/>
            <path class="cls-4" d="M390.63,1085q-2.16,12.15-5,25-5,22.34-11,42" transform="translate(0)"/>
            <path class="cls-4" d="M499.63,1109c-1,7.17-2.12,13.26-3,18-2,10.88-3.27,15.4-5,20-1.13,3-.36,1.41-1.13,3"
                  transform="translate(0)"/>
            <path class="cls-4" d="M713.63,1128v23.5" transform="translate(0)"/>
            <path class="cls-4"
                  d="M1183.63,1076a235.91,235.91,0,0,0,5,25,185.2,185.2,0,0,0,10,30,169.09,169.09,0,0,0,11,21"
                  transform="translate(0)"/>
            <path class="cls-4"
                  d="M1044.63,1104c2.14,7.57,4.15,14.59,6,21,2.62,9.1,4,13.82,6,20,1.21,3.74,1.5,4.66,2.25,6.83"
                  transform="translate(0)"/>
            <path class="cls-5"
                  d="M874.63,1012c7-.16,12.33,1.23,23,4,9,2.34,14.61,3.8,21,8,7.9,5.2,10.69,10.42,18,11a18.46,18.46,0,0,0,8.5-1.5c12.58-4.91,26.27-6.47,39-11,24.18-8.61,45.06-14.69,53-17,14.54-4.23,17.37-4.62,43-12,18.06-5.2,15.55-4.69,24-7,26.84-7.34,42.22-9.77,42-12-.1-1-3.47-1.36-8-2-10.81-1.53-21.29-4.89-32-7-50-9.84-50-9.71-54-11-9.63-3.12-20.44-3.61-29-9-1.58-1-6-4-11-3-2.33.45-3.5,1.52-6,3,0,0-3.29,2-13,5-17.57,5.52-119.66,22.75-129,49-.59,1.67-2.81,7.89,0,11C866.21,1012.81,869.87,1012.11,874.63,1012Z"
                  transform="translate(0)"/>
            <path class="cls-5"
                  d="M800.13,1014.5c.68,1.44,2.91.2,10,3,5.22,2.06,9.36,4.85,17,10,5.09,3.43,6.27,4.5,9,5,5.07.93,9.36-1.22,11-2,4.07-1.95-12.16,6.4,32-9,20.67-7.21,26-9.67,41-15,19.91-7.09,36.09-11.88,50-16,5-1.47,6-1.73,38-11,24.9-7.2,37.34-10.85,37-13-.14-.86-2.16-.87-9-2,0,0-10.42-1.71-23-5-9.62-2.51-9.91-3.69-18-6-10.64-3-19-3.53-27-4a252.11,252.11,0,0,0-73,7C839.91,971.68,797,1007.88,800.13,1014.5Z"
                  transform="translate(0)"/>
            <path class="cls-5"
                  d="M705.13,993.5c.26,1.74,3.63.86,25,10,17.66,7.55,7,4.55,21,11,4.53,2.08,10.68,4.7,12,10,.46,1.85.08,3,1,4,3,3.23,13.19-1.7,16-3,13.42-6.22,28.82-6.76,43-11,25.62-7.66,47.56-13.29,62-17,46.39-11.91,44.58-8.68,67-16,17.19-5.61,28-10.72,45-12,3.28-.25,10.9-.67,11-2,.11-1.52-9.69-3.37-13-4C959,956.68,702.87,978.51,705.13,993.5Z"
                  transform="translate(0)"/>
            <path class="cls-5"
                  d="M704.13,983.5c.26,2.75,8.21,1.8,29,12,14.82,7.27,15,9.8,24,13,4.76,1.69,10.79,3.13,14,8a7,7,0,0,0,3,3c3.56,1.58,8-1.37,9-2,6.86-4.28,21-4.61,46-10,18.65-4,21.51-6.17,76-22,0,0,22.38-6.5,64-17,10.67-2.69,22.74-5.64,39-7,8.76-.73,13-.52,13-1,.13-1.91-66.41-13.06-137-12C786.32,950,703.27,974.54,704.13,983.5Z"
                  transform="translate(0)"/>
            <path class="cls-5"
                  d="M699.13,977.5c.84,6,32.46,10.13,51,19,6.61,3.16,8.11,5.27,15,8,2.67,1.06,5.7,2,8,5,1.49,1.93,1.58,3.28,3,4,3.09,1.57,7.93-2.2,9-3,7.46-5.57,17.26-5.12,34-8,5.73-1,19.82-5,48-13,54-15.35,46.22-14.35,62-18,19.56-4.52,30.26-5.76,59-13,12.12-3,18.87-3,19-5,.35-5.38-48-13.22-71-16C812.84,922.58,697.48,965.67,699.13,977.5Z"
                  transform="translate(0)"/>
            <path class="cls-5"
                  d="M655.13,931.5c4.16-8.87,24.4-.41,70-6,24.5-3,23-6,50-9,0,0,27.3-3,45-8,6.22-1.74,10-3,10-3,4-1.34,4.57-1.69,6-2,6.39-1.37,12.23,2,14,3,.27.14,16.51,3.76,49,11,30.34,6.76,45.51,10.14,63,13,0,0,8.17,1.34,37,10,5.29,1.59,13.23,4,13,6-.16,1.32-4,1.85-5,2-22.87,3.44-117,41.3-175,45-11.76.75-23.23,4.44-35,5-4,.19-14.31.41-18,5-.37.46-1.44,1.91-3,2-2.44.14-4.42-3.14-5-4-4.3-6.4-18.23-8.84-24-10-12.09-2.43-43.46-8.74-64-22C667.49,959.4,650.86,940.59,655.13,931.5Z"
                  transform="translate(0)"/>
            <path class="cls-16"
                  d="M745.63,934c.4,1.51.22,4.54-.27,8.3-1.37-.54-2.78-1.08-4.22-1.62,2.91-1.93,4.49-4,4.49-6.18a4.36,4.36,0,0,0,0-.51Z"
                  transform="translate(0)"/>
            <path class="cls-17"
                  d="M745.6,934a4.36,4.36,0,0,1,0,.51c0,2.17-1.58,4.25-4.49,6.18A165.49,165.49,0,0,0,717.63,934c-15-3.08-26.33-3-49-3-26.56.06-42.66.21-63,6-4.36,1.24-8.42,2.59-12.16,4-2.69-1.56-4.52-3.22-5.34-4.93a13,13,0,0,1,.5-2.07C616.62,932,707.58,922,745.6,934Z"
                  transform="translate(0)"/>
            <path class="cls-16"
                  d="M588.71,947.59c-.26-1.61-.47-3.09-.61-4.47q2.57-1.08,5.37-2.12c11.92,6.93,40.71,12,73.66,12,34.16,0,63.22-5.14,74-12.32,1.44.54,2.85,1.08,4.22,1.62-.6,4.61-1.67,10.33-2.73,15.7-2.38,12.06-5.07,25.73-15,39a71.35,71.35,0,0,1-29.49,23l-4.51-12-51,4-3.08,6.85a72.19,72.19,0,0,1-18.92-9.85c-.61-.45-1.34-1-2.14-1.62A74.08,74.08,0,0,1,600.63,987c-6.48-10.92-8.36-20.56-10-29C589.86,954,589.19,950.6,588.71,947.59Z"
                  transform="translate(0)"/>
            <path class="cls-17"
                  d="M667.13,916c42.63,0,77.33,8,78.47,18-38-12-129-2-157,0a13,13,0,0,0-.5,2.07,4.7,4.7,0,0,1-.5-2.07C587.63,923.78,623.78,916,667.13,916Z"
                  transform="translate(0)"/>
            <path class="cls-18"
                  d="M741.14,940.68c-10.79,7.18-39.85,12.32-74,12.32-33,0-61.74-5.07-73.66-12,3.74-1.41,7.8-2.76,12.16-4,20.34-5.79,36.44-5.94,63-6,22.67,0,34-.08,49,3A165.49,165.49,0,0,1,741.14,940.68Z"
                  transform="translate(0)"/>
            <path class="cls-16"
                  d="M698.14,1020l4.49,12h-69l5.92-13.15c2.74,1,5.14,1.62,7.08,2.15,9.64,2.65,28,7.7,49,0C696.48,1020.69,697.32,1020.36,698.14,1020Z"
                  transform="translate(0)"/>
            <path class="cls-16"
                  d="M693.63,1008l4.51,12c-.82.34-1.66.67-2.51,1-21,7.7-39.36,2.65-49,0-1.94-.53-4.34-1.2-7.08-2.15l3.08-6.85Z"
                  transform="translate(0)"/>
            <path class="cls-16" d="M593.47,941q-2.81,1-5.37,2.12a27,27,0,0,1,0-7A13.75,13.75,0,0,0,593.47,941Z"
                  transform="translate(0)"/>
            <path class="cls-4"
                  d="M588.13,936.07a27,27,0,0,0,0,7c.14,1.38.35,2.86.61,4.47.48,3,1.15,6.45,1.92,10.41,1.64,8.44,3.52,18.08,10,29a74.08,74.08,0,0,0,17.86,20.38c.8.64,1.53,1.17,2.14,1.62a72.19,72.19,0,0,0,18.92,9.85c2.74,1,5.14,1.62,7.08,2.15,9.64,2.65,28,7.7,49,0,.85-.31,1.69-.64,2.51-1a71.35,71.35,0,0,0,29.49-23c9.93-13.27,12.62-26.94,15-39,1.06-5.37,2.13-11.09,2.73-15.7.49-3.76.67-6.79.27-8.3h0"
                  transform="translate(0)"/>
            <path class="cls-19"
                  d="M745.6,934c-1.14-10-35.84-18-78.47-18-43.35,0-79.5,7.78-79.5,18a4.7,4.7,0,0,0,.5,2.07c.82,1.71,2.65,3.37,5.34,4.93,11.92,6.93,40.71,12,73.66,12,34.16,0,63.22-5.14,74-12.32,2.91-1.93,4.49-4,4.49-6.18A4.36,4.36,0,0,0,745.6,934Z"
                  transform="translate(0)"/>
            <polyline class="cls-4" points="639.55 1018.85 633.63 1032 702.63 1032 698.14 1020.02"/>
            <path class="cls-4"
                  d="M588.71,947.59a30.48,30.48,0,0,0-4.06-3,27.35,27.35,0,0,0-9-3.6,25.69,25.69,0,0,0-17,2c-9.28,4.79-12.27,14.24-13,17-4,15.17,6.51,29.9,15,37,8.83,7.39,18.67,9.24,23,10,7.81,1.37,12.33.34,20,0a108.09,108.09,0,0,1,14.86.38"
                  transform="translate(0)"/>
            <path class="cls-4"
                  d="M593.47,941c3.74-1.41,7.8-2.76,12.16-4,20.34-5.79,36.44-5.94,63-6,22.67,0,34-.08,49,3a165.49,165.49,0,0,1,23.51,6.68"
                  transform="translate(0)"/>
            <path class="cls-4" d="M584.65,944.6c1.11-.49,2.26-1,3.45-1.48" transform="translate(0)"/>
            <path class="cls-8"
                  d="M229,611c.59.58-1.64,2.43-2,6-.51,5.08,3.29,8.49,2.67,9-.82.68-9-4-8-9.33C222.44,612.57,228.17,610.19,229,611Z"
                  transform="translate(0)"/>
            <path class="cls-8"
                  d="M272,668c.79-.83,3.8,2.76,11,4.33a26.28,26.28,0,0,0,14.67-.67c6.64-2.47,9.5-7.33,10.33-6.67s-1.68,6.65-6.33,11.33c-2.77,2.79-7.7,7.75-14.33,7.33C276.86,683,270.65,669.43,272,668Z"
                  transform="translate(0)"/>
        </g>
        <g id="Layer_4" data-name="Layer 4">
            <circle class="cls-20" cx="838.63" cy="195" r="191"/>
            <circle class="cls-10" cx="838.63" cy="195" r="175"/>
            <circle class="cls-1" cx="838.63" cy="195" r="16"/>
            <path class="cls-21"
                  d="M821.08,44.45l-.66.48a4.16,4.16,0,0,1-5.78-1.1h0l-.1-.16a4.73,4.73,0,0,1,1.14-6.24L822,32.81a5.51,5.51,0,0,1,3.48-1.14,4.58,4.58,0,0,1,4.56,4.5v33.6a4.5,4.5,0,0,1-9,0Z"
                  transform="translate(0)"/>
            <path class="cls-21"
                  d="M840.64,73.67c-2.7,0-4.86-1.68-4.86-4.56a6.31,6.31,0,0,1,2.28-4.5c1.92-1.86,3.3-3.24,4.08-4s2-2,3.6-3.84a31,31,0,0,0,3.48-4.32c1.44-2.22,3-5.52,3-8.1,0-2.76-1.2-4.14-3.66-4.14a4.52,4.52,0,0,0-3.24,1.5,4.92,4.92,0,0,1-6,1c-1.86-1.2-2.4-3.78-.78-6.48,1.92-2.94,5.82-5,10.92-5,3.9,0,6.9,1.08,9.12,3.3a11,11,0,0,1,3.24,8q0,12-14,22.74H859a4.11,4.11,0,0,1,4.26,4v0h0a4.25,4.25,0,0,1-4.09,4.4Z"
                  transform="translate(0)"/>
            <path class="cls-21"
                  d="M994.87,197.25c5,1.14,7.86,5,7.86,10.08a11.42,11.42,0,0,1-4,9.24,15.09,15.09,0,0,1-10.26,3.48c-4.74,0-8.4-1.14-10.92-3.48a4.73,4.73,0,0,1-.9-6.36,4.42,4.42,0,0,1,6.12-.9,9.3,9.3,0,0,0,5.1,1.74c3.42,0,5.28-1.74,5.28-4.08q0-4.68-5.58-4.68c-2.88,0-5-1.5-5-4.44s2-4.44,4.68-4.44a4,4,0,0,0,4.26-4.26c0-2-1.2-3.54-3.84-3.54a8.48,8.48,0,0,0-4.26,1.08c-2.16,1.26-4.8.9-6.06-1.2a4.56,4.56,0,0,1,1.26-6.06,16.28,16.28,0,0,1,9.9-2.82,14,14,0,0,1,9.12,2.88,9.71,9.71,0,0,1,3.48,7.86C1001.11,192.21,999.13,195.27,994.87,197.25Z"
                  transform="translate(0)"/>
            <path class="cls-21"
                  d="M849.58,335.77A12.79,12.79,0,0,1,853,345c0,4.38-1.44,7.86-4.26,10.32a14.39,14.39,0,0,1-9.9,3.78,14.6,14.6,0,0,1-11.16-4.5,15.44,15.44,0,0,1-4.32-11.1,27.25,27.25,0,0,1,2.76-12.18,29.37,29.37,0,0,1,6.42-9,27.61,27.61,0,0,1,7.68-5.1q4-1.71,5.76,1.26c1.2,1.74.36,4.32-2.34,5.82a20.78,20.78,0,0,0-9.6,10.2c1.62-1.5,4.08-2.28,7.38-2.28A11,11,0,0,1,849.58,335.77Zm-6.18,9.84a4.71,4.71,0,0,0-5.1-5,6.19,6.19,0,0,0-5.34,2.94c0,4,2.16,6.54,5.94,6.54a4.23,4.23,0,0,0,4.5-4.48Z"
                  transform="translate(0)"/>
            <path class="cls-21"
                  d="M677.94,197.71a12.52,12.52,0,0,1-3.78-9.36,13.33,13.33,0,0,1,4.44-10.5,14.73,14.73,0,0,1,10-3.9,15,15,0,0,1,11.28,4.44c2.82,2.94,4.2,6.9,4.2,11.76,0,7.14-1.68,13-5,17.52a23,23,0,0,1-12.9,8.94c-2.64.72-5-.12-5.7-2.34-.78-2.46.24-4.2,3.06-5.34,5-2,8.34-5.28,9.9-9.78a9.33,9.33,0,0,1-6.54,2.28A12.23,12.23,0,0,1,677.94,197.71Zm5.82-10a5.18,5.18,0,0,0,5,5.34h.39a6.19,6.19,0,0,0,5.34-2.94c0-4.08-2.28-7.14-5.94-7.14a4.72,4.72,0,0,0-4.8,4.64h0v.1Z"
                  transform="translate(0)"/>
        </g>
        <g id="Layer_5" data-name="Layer 5">
            <path class="cls-22"
                  d="M272.63,955c-1.16-3,5.25-8.43,10-11,5.83-3.15,11.29-3.09,15-3,5.14.12,16.27.38,19,7,1.31,3.17.65,7.71-2,10-3.39,2.92-8,.43-18-1C281.32,954.8,273.8,958,272.63,955Z"
                  transform="translate(0)"/>
            <path class="cls-22"
                  d="M452.63,963c1.39-3.54,3.23-1.94,20-14,3.12-2.25,5.32-3.93,9-5,5.2-1.52,9.17-.58,14,0,6.47.78,11,.5,20,0,13.91-.78,20.87-1.17,26-5,3.46-2.59,5.44-5.64,8-5s4.62,4.75,4,8c-1.41,7.43-16.75,10.22-21,11-11.89,2.17-17.34-.47-32,3-2.47.58-8.1,1.92-8,3,.13,1.39,9.68,1.08,27,2,27.87,1.49,21.82,3.31,34,3,4.82-.12,11.67-.56,19,3,1.93.94,8,3.89,8,8,0,2.43-2.11,4.25-3,5-6.82,5.74-18.17,4.12-35,3-25.35-1.68-26.75.21-27,1-.72,2.27,4.81,5.92,11,10,5.23,3.45,11.63,7.67,21,10,6.66,1.66,10.66,1.33,11,3,.45,2.2-5.91,5.5-10,7-15.55,5.71-29.87-7-33-3-1.94,2.5,1.81,9.29,5,13,4.42,5.14,9.3,6.16,9,8-.45,2.72-11.52,3-13,3-11.8.21-15.76-2.52-30-5-15.16-2.64-22-1.53-24-6-1.28-2.87.83-4.91,2-11,1.41-7.35,0-13-2-21C457.75,972.48,450,969.69,452.63,963Z"
                  transform="translate(0)"/>
            <path class="cls-22"
                  d="M878.63,709c-.6,4.38,8.6,8.84,11,10,10.17,4.92,14.27,2.66,28,6,10.12,2.46,16.81,5.86,23,9,4.1,2.08,14.78,7.5,14,10-.49,1.57-5.18.86-19,2-9,.74-12.15,1.47-14,4-2.38,3.27-1.29,7.78-1,9,.48,2,2.58,8.94,23,19,13.85,6.83,20.78,10.24,26,7,5.66-3.51,5.9-12.43,6-16,.31-11.33-5.75-19.72-11-27a75.33,75.33,0,0,0-19-18c-4.29-2.84-8.18-5.38-14-7-6.73-1.87-8-.29-16-2-5.41-1.16-9.59-2.91-17-6-8.2-3.42-11.91-5.69-16-4C882.2,705.18,879,706.56,878.63,709Z"
                  transform="translate(0)"/>
            <path class="cls-22"
                  d="M850.63,769c0-3.29,3.81-5.53,8-8,7.8-4.6,15-5.45,20-6,7.78-.84,10.57.27,12,1,.71.36,5.92,3,6,7,.07,3.42-3.7,5.86-7,8-6.86,4.45-13.49,5.22-21,6-7.3.76-10,0-12-1C855.7,775.53,850.61,772.81,850.63,769Z"
                  transform="translate(0)"/>
            <path class="cls-22"
                  d="M864.63,798c-.92,2.54,2.29,6.22,5,8,3.14,2,5.64,1.59,16,1,13.23-.75,16.57-.4,18-3,1.17-2.13.48-5.18-1-7-2.29-2.81-6.28-2.48-15-2C869,796,865.45,795.72,864.63,798Z"
                  transform="translate(0)"/>
            <path class="cls-22"
                  d="M875.63,825c-.52,2.17,6.07,5.57,10,7,3.08,1.12,8.32,3,14,1,5.25-1.88,9.94-6.79,9-9-.56-1.31-2.92-1.29-12-1C878,823.59,875.9,823.87,875.63,825Z"
                  transform="translate(0)"/>
            <path class="cls-22"
                  d="M926.63,783c-.68,1.65,6.26,4.46,6,9-.18,3.12-3.6,4.41-3,7,.45,2,2.51,1.72,4,4,2.49,3.81-.92,8,1,10,2.14,2.18,8.51-.82,11-2,6.37-3,11.17-5.06,12-9,1.47-7-10.49-15-19-18C932.92,782,927.21,781.59,926.63,783Z"
                  transform="translate(0)"/>
            <path class="cls-22"
                  d="M1288.63,998c-1.35,2,8,11.07,16,17a74,74,0,0,0,23,12c10.25,3.14,11.6,1,28,4,4.5.83,11,2.56,24,6,9.3,2.46,18.85,4,28,7,6.56,2.12,9.53,3.46,11,2,2.42-2.4-1.58-10-8-22a203.23,203.23,0,0,0-16-26c-7.1-9.78-10.65-14.68-16-19-6-4.86-6.58-3.43-23-13-11-6.43-15-9.54-17-8-2.25,1.73-.77,8.34,2,13,3.4,5.71,7.1,5.73,17,13a91.67,91.67,0,0,1,15,14c5.2,6.09,7.8,9.14,7,12-1.55,5.53-14.21,6.4-23,7-6.21.42-16.16,1-28-3-4.89-1.65-4.69-2.26-15-7C1300.82,1001.11,1289.92,996.1,1288.63,998Z"
                  transform="translate(0)"/>
            <path class="cls-23"
                  d="M150.63,697c-.87,1.52,8.27,6.44,20,18a154.46,154.46,0,0,1,25,31c6.14,10.21,9.34,18.59,13,18,2.06-.33,1.89-3.13,6-9a47.62,47.62,0,0,1,12-12c5.62-3.8,8.74-3.83,9-6,.32-2.69-4.2-5.08-11-9-18.23-10.52-14.6-10-23-14-7.56-3.57-8-2.8-26-9C158,698.91,151.36,695.72,150.63,697Z"
                  transform="translate(0)"/>
            <path class="cls-23"
                  d="M240.63,763c-2.62,4.47,4.37,11.58,13,25,5.27,8.19,9.18,16.46,17,33,12.7,26.86,15.8,42.49,18,42s1.25-16.2-2-30a133.77,133.77,0,0,0-13-33c-7.68-13.91-10.76-13.75-14-24-2.24-7.07-2.51-12.63-7-15C248.7,758.93,242.5,759.8,240.63,763Z"
                  transform="translate(0)"/>
            <path class="cls-23"
                  d="M286.63,761c5,5.57,5.5,9.45,5,12-.64,3.26-3,4.34-3,8,0,3.1,1.62,3.37,3,8,1.81,6.06-.26,8.16,2,11,1.83,2.3,3.47,1.29,7,4,4.28,3.29,5.12,7.27,6,7s-.34-5.74-1-14c-.76-9.54.38-11.1-1-18-1-4.8-1.58-7.92-4-11C296.24,762.42,289.32,761.29,286.63,761Z"
                  transform="translate(0)"/>
            <path class="cls-23"
                  d="M295.63,714c-1.8,1.66-1,5.7,0,8,.73,1.61,1.4,1.92,6,8l1,1.3c4.18,5.88,3.42,12.67,4,12.7,1.07.06,7.86-20.51-1-28C302.71,713.53,297.66,712.12,295.63,714Z"
                  transform="translate(0)"/>
            <path class="cls-23"
                  d="M316.63,925c.08,2.23,10.09.1,20,7a64.69,64.69,0,0,1,14,14c2.88,3.92,4.1,6.51,7,7,3.47.58,4.84-2.61,11-4,5.49-1.24,7.87.51,9-1,2-2.73-3.47-11.38-10-17-8.25-7.09-17.71-9-23-10a48.16,48.16,0,0,0-11-1C325.52,920.29,316.55,922.89,316.63,925Z"
                  transform="translate(0)"/>
            <path class="cls-23"
                  d="M416.63,977c-.67,1.74,2.3,2.83,5,8,3.74,7.17,3.17,14.94,3,17-.53,6.2-2.5,8.15-1,10,1.85,2.28,5.41,0,14,1,6.36.72,8.26,2.4,10,1,1-.81,1.61-2.36,0-13-1.31-8.66-2-13-4-16a22.51,22.51,0,0,0-10-8C426.71,974.07,417.71,974.16,416.63,977Z"
                  transform="translate(0)"/>
            <path class="cls-24"
                  d="M92.63,815c1.32-2.1,11.56.62,20,6,11.21,7.15,14.8,16.17,18,15s2.21-11.94,2-14c-.26-2.53-1.57-13.22-12-34-2.5-5-4.11-7.72-3-9,2-2.32,11.22,2.07,17,6,3.69,2.51,12.67,8.62,17,20,4.95,13,.84,25.14,4,26,2.65.72,5.83-7.78,9-7,2.69.66,4.31,7.76,3,14-1.65,7.86-7.45,12-6,14s6.89-1.38,9,1c1.32,1.49.08,3.81-1,10a53.6,53.6,0,0,0-1,10c.33,6.3,4.77,10,9,15,7.15,8.5,3.5,8.73,14,26,6.63,10.91,11.93,17.14,17,22,6.09,5.84,9.4,7.36,11,8,7.67,3.09,14.94,1.86,20,1a56.41,56.41,0,0,0,15-5c6.34-3.11,13.92-6.82,19-15,4.19-6.74,4.69-13.32,5-18,.41-6.2-.33-13-5-26-2.47-6.85-4.27-10.52-14-30-17.05-34.14-16.76-33.39-17-34-3.67-9.45-5.35-16.12-8-16-2.83.12-5.38,7.94-6,14-.73,7.17,1.31,11.31,0,12-2,1-7.45-7.78-15-16-11.1-12.08-15.73-11-31-24-2.78-2.36-9.89-9.94-24-25-15.72-16.78-23.63-25.25-26-29-10.37-16.42-11.38-29-17-29-3.85,0-4.3,5.89-12,14-7.51,7.91-11.65,7.1-25,16-10.31,6.87-16.5,11-22,19-8,11.62-9.47,24.06-10,29-.15,1.41-.06,1,0,16,.08,21.33-.09,24.31,2,29,2.91,6.52,7.49,10.29,12,14,11.62,9.56,24.2,12.41,24,13-.26.77-20.77-7.78-24-3-1.29,1.9.9,4.82,6,14,10.05,18.1,7.56,17.57,13,25s8,8,16,19c3.24,4.46,4.86,6.69,6,9,5.1,10.35,1.65,14.66,6,26,2.41,6.28,3.71,5.6,7,14,2.39,6.09,3.91,10,4,15,.2,10.7-6.22,18.2-5,19,.87.57,3.87-3.43,9-8,7.59-6.76,17.43-12.61,19-11,1.12,1.15-2.9,5.22-7,15-2.68,6.38-5.74,16.06-4,17,1.25.67,4.19-3.59,11-11a183,183,0,0,1,20-19c8.86-7.06,13.44-10.72,21-13,8.48-2.56,14.36-1.46,15-4s-4.94-7.77-11-9c-4.65-.94-7.52.81-9-1s1-4.9,1-10c0-3.8-1.44-6.44-4-11-6.09-10.86-10.18-10.49-14-19-3.06-6.82-.95-8.18-4-12-2.92-3.66-5.85-3.66-19-8-13.4-4.42-12.79-5.22-18-6-10.89-1.62-16.85,1.38-18-1-1.27-2.62,4.62-8.93,11-12,7.25-3.49,14.53-2.51,18-2,8.71,1.28,13.34,5,14,4,1-1.41-8.22-9.93-18-17-10.58-7.65-11.45-6.09-16-11-5.47-5.91-4.44-8.44-13-20C93.89,818,92,816.08,92.63,815Z"
                  transform="translate(0)"/>
            <path class="cls-24"
                  d="M197.63,976c-1.2-1-12.54,7.53-20,21-3.18,5.73-8.18,14.77-7,26,.31,3,1.87,7.63,5,17,1.86,5.58,2.92,8.07,4,8,1.37-.09,1.52-4.19,4-11,2.32-6.36,5.28-11.26,6-11s-2.53,7.61,0,16c1.17,3.88,2.64,4.79,3,5,3.36,1.93,8-1.21,12-3,7.37-3.34,11.94-1.85,24-2,17.12-.21,16.33-3.3,38-5,20.86-1.64,20.83,1.29,37-1,17.91-2.54,16.07-5.86,31-7,15.23-1.17,22.64,1.87,32-4,2.09-1.31,7.46-4.68,10-11,2.33-5.81,1.42-12,2-12,.76,0,.11,10.78,5,13,1.12.51,1.12-.08,8,0,2.83,0,3.81.14,6,0,3.42-.22,5.14-.33,6-1,2.27-1.75,1-5.67,0-15-1.13-10.43-.25-11.83-2-14-3.91-4.83-12.9-3.53-17-3,0,0-5.47.71-50,1-19.28.12-14.06-2.9-48-5-19.65-1.22-25.65-.47-35-5-4-1.92-7.6-4.34-13-4-4.57.29-8.39,2.43-18,11-14.53,13-18.38,19.3-22,18-3.31-1.19-4.25-8-4-12C195,979.9,198.33,976.57,197.63,976Z"
                  transform="translate(0)"/>
            <path class="cls-24"
                  d="M320.63,720c-4.14,5.07,4.33,12.12,9,37,2.17,11.54-.35,6.35,2,29,.35,3.42,1,9.17-1,10-2.55,1-7.09-6.88-9-6-2.09,1,1.41,11.26,3,20,2.53,13.9.35,24.55-3,41-2.91,14.29-5,28.74-8,43-.48,2.28-1.67,7.84,1,10,1.3,1,3.69,1.44,14-3,11.22-4.83,16.82-7.24,21-12,4.59-5.23,6.12-10.5,8-17,1.11-3.85,2.53-9.86,3-26,.38-13,.67-22.79-1-36-1.82-14.42-4.77-23.32-3-24s6.74,7.82,8,10c6.47,11.14,7.26,19,10,19,1.74,0,1.29-3.62,5-8,.94-1.11,2.34-2.49,16-9,4.33-2.06,5.44-2.52,6-2,1.32,1.22-2.41,5.93-6,14-5.21,11.7-5.6,20.24-6,29-.22,4.85.1,6.69,1,7,1.83.64,4.43-5.63,10-12,2.32-2.65,10.42-11.71,23-15,8-2.1,16.08-.62,20,0,7,1.1,10.56,2.87,11,2,.72-1.42-6.92-9.58-17-11-6.83-1-12.62,1.49-14-1-.83-1.5,1-3,1-6,.07-4.53-3.78-8-6-10,0,0-6.3-5.72-20-19-4.41-4.27-2.42-3.14-15-18-7.91-9.35-12-14.12-17-19-8.64-8.39-13.28-12.89-21-16C344.85,720.68,326.09,713.31,320.63,720Z"
                  transform="translate(0)"/>
            <path class="cls-24"
                  d="M425.63,841c.08.72,8-1.32,19,2,9.86,3,20,9.65,19,13-.75,2.64-7.87,1.51-28,3-23.17,1.72-28.24,4.3-31,6-1.31.81-5.88,5.54-15,15-11.32,11.73-13.19,14.54-19,17-3.45,1.46-6.87,2.2-7,4s3.43,3.34,9,6c12.32,5.88,18.48,8.81,22,13,5.28,6.28,2.54,9.93,7,13,5.69,3.91,11.2-1.3,26-3,16.5-1.9,26.54,2.62,29-2,2-3.85-3.16-10.26-2-11s4.8,6.82,12,9c4.66,1.41,6.59-.72,17-3,9.82-2.15,10.92-.86,23-3,10-1.77,13.6-1,17-4,3.69-3.31,4.6-7.87,5-10,2.28-12.26-5.94-23.36-11-30-7-9.17-14-14.15-28-24-10.49-7.4-15.73-11.1-21-13C447.16,831.28,425.5,839.8,425.63,841Z"
                  transform="translate(0)"/>
            <path class="cls-25"
                  d="M556.63,1077c.33-2,16.68,1.87,22-6,3.8-5.62-1.39-12.29,3-17,1.52-1.63,3.74-2.56,15-3,8.55-.34,12.82-.5,18,0,18.52,1.8,23.37-.7,48,1,26.9,1.86,34.51,5.77,54,3,6.19-.88,19.59-3.29,22-11,1.21-3.88-1-7,1-9,2.48-2.44,8.12.1,19,4,12.13,4.35,18.19,6.52,22,7,6.36.79,13.24-.47,27-3,11.55-2.12,12-3,17-3,11.16,0,11.89,4.25,22,5,10.9.81,21.29-3.33,33-8,7-2.81,10-4.71,15-4,6.78,1,8.34,5.55,15,10,14.85,9.92,34.5,5.47,41,4,7.51-1.7,10.82-3.88,18-7,19.09-8.31,25.23-5.78,59-13,14.56-3.11,30.84-6.6,51-14,8.08-3,9.68-4,33-13,1.15-.45,10.35-4,22-9,7.55-3.23,4-1.86,9-4,12.34-5.26,16.41-6.09,17-9,.8-4-5.86-7-5-9,1.2-2.78,15.28,0,30,5,20.81,7.12,33.46,11.45,37,22,3.32,9.89-3.05,20.22-6,25-14.56,23.62-44.22,32-98,42-44.88,8.32-79.87,12.58-100,15-64.52,7.75-96.78,11.62-115,13-55.86,4.22-98.39,4.11-139,4-83-.22-69.74-4.83-110-3a298.16,298.16,0,0,1-61-4C568,1083.88,556.34,1078.75,556.63,1077Z"
                  transform="translate(0)"/>
            <path class="cls-25"
                  d="M503.63,1145c-2.12-4.09,2-6.82,5-19,4.42-17.83-.42-27.92,5-31,4-2.27,10.51,1,14,4,6.31,5.44,4.07,11.17,10,33,2.19,8,3.13,9.6,2,12C535.13,1153.57,508.32,1154.07,503.63,1145Z"
                  transform="translate(0)"/>
            <path class="cls-25"
                  d="M396.63,1145c-2.81-4.14,4.12-9.3,7-22,3.7-16.36-3.33-27.49,1-30s13.65,6.68,15,8c10.44,10.14,13.59,23.64,16,34,1.44,6.17,3.45,8.89,2,11-2,3-7,1.56-21,1C401.81,1146.4,398.41,1147.64,396.63,1145Z"
                  transform="translate(0)"/>
            <path class="cls-25"
                  d="M729.63,1143c-1.83-3,.16-5.07,1-17,.45-6.42.08-8.75,1-9,1.25-.34,2.87,3.74,10,18,3.92,7.85,4.93,9.59,4,11C743.51,1149.22,732.85,1148.26,729.63,1143Z"
                  transform="translate(0)"/>
            <path class="cls-25"
                  d="M1012.63,1150c-1.61-1.79.24-4,4-17,1.76-6.08,3.37-12.55,7-23,2.28-6.57,3-8,4-8,2.51,0,2.37,9.48,8,22,5.24,11.67,11.15,16.28,9,20-1,1.75-2.93,1.78-10,3C1018.06,1149.86,1014.56,1152.16,1012.63,1150Z"
                  transform="translate(0)"/>
            <path class="cls-25"
                  d="M1160.63,1078c-6.77,7.33-.14,17.24,0,39,.09,14.16-2.64,21.88,2,25,2.1,1.42,3.47.36,12,1,10,.74,12.74,2.53,14,1,2.17-2.64-5.44-8.72-10-21-2.85-7.69-1-8.33-5-30-2.26-12.2-3.83-17.34-7-18C1163.92,1074.43,1161.2,1077.39,1160.63,1078Z"
                  transform="translate(0)"/>
            <path class="cls-26"
                  d="M977.63,851c.12-3.59,9-3.22,20-12,4.16-3.32,10.65-8.51,13-17,1.7-6.16.15-10.17,2-11,2.78-1.25,8.61,6.74,16,16,1.69,2.11,15.25,19.06,27,31a218.18,218.18,0,0,0,27,23c12.55,9.07,16.6,10,29,20,9.38,7.59,7.41,7.37,17,15,4.06,3.23,6.69,5.08,9,9,3.45,5.85,4.85,14,2,16-2,1.37-5.5-.66-8-2-12.83-6.85-15.78-4.08-30-10-13.24-5.51-13.4-9-35-23-21-13.55-20.3-9.88-38-22-18.48-12.65-19.13-16.58-33-23C985.75,856.43,977.51,854.47,977.63,851Z"
                  transform="translate(0)"/>
            <path class="cls-26"
                  d="M1158.63,934c-1.67.51-2,6.42,0,11,1.75,4.11,5.55,7.71,7,7s.19-6.21,0-7C1164.26,939.42,1160.48,933.44,1158.63,934Z"
                  transform="translate(0)"/>
            <path class="cls-26"
                  d="M1263.63,823c-.55-3.46,3.8-5.41,10-12,3.7-3.94,6.8-9,13-19,4.91-8,5.94-10.59,11-18,2.84-4.15,7.15-10.46,8-10s-4.34,9.38-9,24c-7.11,22.28-9,34-9,34-1,5.88-1.6,11.94-5,13-.77.24-2,.33-9-4C1267.18,827,1263.94,825,1263.63,823Z"
                  transform="translate(0)"/>
            <path class="cls-26"
                  d="M1308.63,802c-1.67-1.33.4-6.49,3-13,3-7.51,5.57-11.63,9-18,7.56-14,9.32-20.39,11-20s-.1,6.45,2,18c1.51,8.3,3.31,10.16,2,14-.72,2.12-2,3.7-11,10C1314.94,799.78,1310.07,803.15,1308.63,802Z"
                  transform="translate(0)"/>
            <path class="cls-26"
                  d="M1312.63,824c4.85-6.64,13.79-11.92,19-15,6-3.55,12-6.13,18-13,3.94-4.52,4.73-7.28,5-9,.81-5.16-2-7.43-4-14-3.06-10.08-.77-19,0-22,1.14-4.44,2.73-10.63,8-15,4-3.28,7.32-3.32,14-5,17.37-4.36,25.58-11.87,27-10,1.25,1.65-5.14,7.49-14,19a259.29,259.29,0,0,0-16,24c-7.42,12.61-11.28,23.74-19,46-5.25,15.15-8.62,26.76-11,35-5.92,20.52-8.88,30.79-11,43-4.21,24.28-3.08,39.73-6,40-2.55.23-5.55-11.37-7-17-3.68-14.25-4-23.86-5-45C1309.06,834.08,1308.43,829.75,1312.63,824Z"
                  transform="translate(0)"/>
            <path class="cls-26"
                  d="M1395.63,954c-.75-.77.21-4.22,32-43,12.9-15.74,22-26.46,36-43,37.27-44,38.7-45.87,45-52a507,507,0,0,1,44-38c9.5-7.12,18.35-15.09,28-22,9.22-6.6,12.85-8.6,16-14,7.61-13,1-26.39,5-28s9.46,12.65,27,29c11.7,10.91,19.93,14.48,19,20-.68,4-5.41,4.56-17,11-18.16,10.1-16.89,14.47-28,18-2.59.82-11.09,1.22-28,2-18.08.83-20.05.64-25,2-4.53,1.25-15.18,4.18-23,13s-9,19.12-10,29c-2.62,25.58,7.3,35.93,0,47-3.57,5.41-8.27,6.47-20,11,0,0-14.69,5.67-50,24C1413.35,937.27,1397.73,956.15,1395.63,954Z"
                  transform="translate(0)"/>
            <path class="cls-26"
                  d="M1412.63,977c4-10.5,12.72-14.08,32-25,32.88-18.62,27.94-19.82,42-25,13.25-4.88,20.62-4.92,37-13,14.44-7.12,17.55-11.44,19-15,2.57-6.31-.28-9.71-4-28-5.12-25.2-2.41-32.1-1-35a29.18,29.18,0,0,1,11-12c6.18-3.64,9.42-2.07,25-4,10.71-1.33,22.83-3.76,24-4,12-2.43,15.42-3.83,17-2,2.52,2.92-2.65,10.5-10,23,0,0-10.5,17.86-24,46-7.46,15.56-11.19,23.34-13,32-3.81,18.28-1.35,34.62-4,35-2.39.34-4.44-12.92-9-13-3.89-.07-7.46,9.52-9,16-4,16.79,1.75,29.15-2,31s-10.08-9.74-15-8-6.58,16-2,28c5.15,13.46,15.32,16.32,14,21-2.41,8.57-38.2,5.34-53,4-29.75-2.68-42.72-8-49-11-10.82-5.08-23.53-11.28-27-24A28.29,28.29,0,0,1,1412.63,977Z"
                  transform="translate(0)"/>
            <path class="cls-26"
                  d="M1467.63,1059c2.78-2.82,14.16,5.42,36,18,20.65,11.89,31,17.84,40,20,4.59,1.1,13.4,2.8,31,7,7.4,1.77,9.75,2.4,13,4,10.05,4.95,15.59,12.68,20,19,4.15,5.95,7.55,10.81,6,13-2.2,3.11-12.77-1.39-23-5-31.09-11-31.44-3.9-64-15-28.1-9.58-23.33-13.29-41-18-3.26-.87-8.91-2.2-12-7s-.67-8.91-2-19C1470.14,1064.71,1465.83,1060.82,1467.63,1059Z"
                  transform="translate(0)"/>
            <path class="cls-26"
                  d="M1586.63,931c-.14-7.5,2.91-15.67,9-32,6.86-18.39,12.3-33,24-50,8.65-12.59,17.42-21.72,27-29,10.35-7.87,17.71-10.59,25-11,3.59-.2,9.85-.56,15,3,8.15,5.63,8.57,17.62,9,28,2.14,51.52,3.39,36,3,56-.59,30.5-.88,45.75-5,62-2.14,8.43-4.49,14.94-6,27-1,7.83-1,16.33-1,33,0,16.08,0,24.23,1,30,1.65,9.69,3.19,10.45,6,25a142.4,142.4,0,0,1,3,22c.25,5.35,0,6.86-1,23-1.27,21.23-1.18,25.56-3,26-3,.72-5-10.34-15-22-10.55-12.33-23.79-18.1-35-23-19.23-8.39-31-8.43-31-12,0-4.46,18.3-8,28-9,10.29-1.1,22.78-2.44,35,4,6.51,3.43,9.25,7.13,11,6,3-2-.21-16.3-9-26-8.64-9.54-20-11.68-27-13-5.68-1.07-26.36-5-38,6-2.74,2.58-4.5,5.54-6,5-2.55-.92-.15-10.49,0-23,.13-10.78-1.55-12.57-4-31-3.09-23.29-.5-21.17-3-34C1594.22,949.31,1586.93,946.78,1586.63,931Z"
                  transform="translate(0)"/>
            <path class="cls-23"
                  d="M967.63,817c0-3.36,5.64-3.54,13-10s8.88-12.47,13-12a5.18,5.18,0,0,1,4,3c1.54,3.67-2.83,8.39-11,17-7,7.41-9.15,8-11,8C971.83,822.91,967.64,819.89,967.63,817Z"
                  transform="translate(0)"/>
            <path class="cls-23"
                  d="M1407.63,744c-4.79-.5-8.56,10.47-20,37-16.21,37.6-17.39,35.87-24,55a369.39,369.39,0,0,0-12,43c-4.15,19.34-1.51,14.65-6,37-3.15,15.69-5.55,23.45-2,26,4,2.88,12.74-2.86,16-5,14-9.18,18.93-22.56,20-22s-2.09,11.86-10,23c-4.16,5.85-7.76,9-7,10,1,1.41,9.47-2.29,16-7,11.13-8,15.08-17.79,21-29,.56-1,11.52-21.59,26-39,12-14.47,14.71-12.61,34-33,14.55-15.38,12.85-16.25,26-30,19.19-20.07,36.61-32.65,35-35-1-1.38-7,3-19,3-4.2,0-4.8-.51-7,0-7.87,1.83-11.74,11.3-14,16-6.64,13.79-16.61,22.06-31,34-14.81,12.28-13.91,6-33,20-2.72,2-6.91,5.2-11,4-5-1.48-7.19-8.85-9-15-1.18-4-2.61-8.9-2-15,.73-7.21,3.53-8.37,9-20,3.07-6.53,5-13,9-26,2.78-9.12,3.2-11.75,3-15C1415.2,754,1412,744.45,1407.63,744Z"
                  transform="translate(0)"/>
            <path class="cls-23"
                  d="M1440.63,1047c-1.62.51,0,4.54-2,13-1.72,7.4-4,9.15-3,13s5.09,7.64,8,7c2.76-.61,3.92-4.94,5-9a24,24,0,0,0,1-9C1448.81,1053.84,1443,1046.26,1440.63,1047Z"
                  transform="translate(0)"/>
        </g>
    </g>
</svg>