<svg id="Слой_1" data-name="Слой 1" xmlns="http://www.w3.org/2000/svg" viewBox="0 0 829 998.61">
    <defs>
        <style>
            .cls-1,.cls-10,.cls-13,.cls-14,.cls-16,.cls-3,.cls-5,.cls-7,.cls-8{stroke:#000;}.cls-1,.cls-10,.cls-11,.cls-14,.cls-17,.cls-18,.cls-2,.cls-3,.cls-5,.cls-7,.cls-8{stroke-linecap:round;stroke-linejoin:round;}.cls-1,.cls-10,.cls-11,.cls-13,.cls-14,.cls-16,.cls-19,.cls-2,.cls-3,.cls-5,.cls-7,.cls-8{stroke-width:8px;}.cls-11,.cls-17,.cls-18,.cls-2{stroke:#fff;}.cls-12,.cls-3{fill:#9c9c9c;}.cls-10,.cls-4{fill:#d9d9d9;}.cls-5,.cls-9{fill:#129f58;}.cls-6,.cls-8{fill:#46c678;}.cls-11,.cls-13,.cls-17,.cls-7{fill:none;}.cls-13,.cls-16,.cls-19{stroke-miterlimit:10;}.cls-14{fill:#090a0a;}.cls-15{fill:#fff;}.cls-17,.cls-18{stroke-width:6px;}.cls-18,.cls-19{fill:#545454;}.cls-19{stroke:#545454;}
        </style>
    </defs>
    <title>greeting</title>
    <path class="cls-1"
          d="M560.47,946.19c.91,9.72.16,29.19-19.51,35.24-13,4-26.74-.16-27,0-5.25,5.19-28,8-39.25,3.92.25.08-13.75,4.08-26.75,3.08-42.14-4.57-56-40-53.4-66.06C409.62,893.4,555.14,889.18,560.47,946.19Z"
          transform="translate(-13 -15)"/>
    <path class="cls-2" d="M516,982c7-7,12-30,0-45" transform="translate(-13 -15)"/>
    <path class="cls-2" d="M475,986c7-7,12-30,0-45" transform="translate(-13 -15)"/>
    <path class="cls-1"
          d="M169.49,946.37c-.91,9.72-.16,29.19,19.51,35.24,13,4,26.74-.16,27,0,5.25,5.19,28,8,39.25,3.92-.25.08,13.75,4.08,26.75,3.08,42.14-4.57,56-40,53.4-66.06C320.35,893.57,174.82,889.36,169.49,946.37Z"
          transform="translate(-13 -15)"/>
    <path class="cls-3"
          d="M381.07,320c-270.17,3.61-207,544.11-229.84,614.83C213.89,907,269.81,910.2,319.34,915.46a429.4,429.4,0,0,0,85.84.52c66.27-6.28,120.68-2.5,183.66,17.41C535.56,740.7,644,316.48,381.07,320Z"
          transform="translate(-13 -15)"/>
    <path class="cls-4"
          d="M212.37,916.15c-.4-1-5.64-40.44,4.57-52.35,10.81-12.6,29.14-7.1,49.61-4.77a16.53,16.53,0,0,0,17.58-10.73c33.5-97.45,24.31-243.88,62.13-398.16,4.21-17.17,20.26-29.81,38.84-29.53a40.75,40.75,0,0,1,7.9.89c16.08,3.43,21.48,33.67,25.88,61.1,29.79,185.88,60,239.71,63.72,361.44a16.38,16.38,0,0,0,13.06,15.44c10.52,2.2,20.39-3,33.83,9,12.53,11.15,16.15,40.13,11.92,52.65C434.59,904,433.47,919,365.9,917.87,316.07,917.06,268.34,906.11,212.37,916.15Z"
          transform="translate(-13 -15)"/>
    <path class="cls-3"
          d="M273.76,329.37c-122.53,52-142.32,426.48-160.58,539.78,17.5-9.38,45.11-39,153.73-31C292.78,588.44,337.17,450.61,273.76,329.37Z"
          transform="translate(-13 -15)"/>
    <path class="cls-4"
          d="M151.23,847.51c6.34-77.7,4.82-112.33,33.23-133.5,21.84-16.27,43.89-21.54,68-6.25,1.77,65.94,1.92,50.84-3.46,127.28C215.56,836,198.67,833.31,151.23,847.51Z"
          transform="translate(-13 -15)"/>
    <path class="cls-1"
          d="M273.76,329.37c75.34,131.34.27,351.38-6.85,508.75-12.69-.78-26.9-1.27-35.77-1.33,17.6-245.46,69.26-320.51,12.6-496.85C250,337.61,260.32,333.64,273.76,329.37Z"
          transform="translate(-13 -15)"/>
    <path class="cls-3"
          d="M319.42,488.85c-21.37,103.27-26.64,221.54-35,243.91-11.53-14.25-38.14-95-27.88-158C264.71,524.5,303.08,495.13,319.42,488.85Z"
          transform="translate(-13 -15)"/>
    <path class="cls-3"
          d="M464,324.32c-63.93,156.59,72.3,396.18,48.71,501.53C555.35,828,574,834.35,601,847.51,599.49,662.77,547.26,335.87,464,324.32Z"
          transform="translate(-13 -15)"/>
    <path class="cls-4"
          d="M525.41,692.84c8.15-11,20.61-14.19,34.5-12.09,28.92,4.39,17.36,87.14,20.1,155.93-16.28-5.33-30.75-7.87-48.15-9.7C538.1,756.34,497.43,730.5,525.41,692.84Z"
          transform="translate(-13 -15)"/>
    <path class="cls-1"
          d="M464,324.32c11.86,4.31,12.94,4.51,25.17,10C431.55,471.54,558.9,691.44,542.8,828.6c-3.67,1,4.18-1.54-30.07-2.74C536.57,723.14,402.63,480.19,464,324.32Z"
          transform="translate(-13 -15)"/>
    <path class="cls-5"
          d="M356.33,563.9a1054.59,1054.59,0,0,1,3.42,125.92c-.16,5-9.07,12.82-6.28,18.22,2.09,4.05,11.37-3.18,18.84-2.89,8.93.36,16.27,7.46,19,2.71,2.91-5-3.24-12.5-4.95-15.52-6.39-44.35-8.18-97.6,13.7-133.86C391,550.11,366.68,552.56,356.33,563.9Z"
          transform="translate(-13 -15)"/>
    <path class="cls-6"
          d="M368.18,590.73c.94-8.14.59-10.82,2.9-13.92,3.21-4.29,9.75-7,12.32-5.11,3.36,2.45-.88,12.09-4.17,22-4.14,12.5-6.94,40-2.23,64.27,4.23,21.77,0,22,8,42.16-.82.64-2.36.72-5.44.88-6.56.35-8.17-1.72-12.32-.7s-5.88,3.87-6.89,3.17.44-4.13,1.45-7.22c1.15-3.53,1.49-8.11,2.17-17.27.93-12.46-.72-20-.72-37a301.82,301.82,0,0,1,2.54-36.83C367,596.85,367.36,597.8,368.18,590.73Z"
          transform="translate(-13 -15)"/>
    <path class="cls-7"
          d="M151.43,934.82C214.09,907,270,910.2,319.53,915.46a429.4,429.4,0,0,0,85.84.52c66.27-6.28,120.68-2.5,183.66,17.41"
          transform="translate(-13 -15)"/>
    <path class="cls-8"
          d="M382.87,570.88c-5.38-4.85-.76-27.5,13.92-39.81,22.06-18.48,40.34,0,67.23-14.79C469.31,528.31,437.38,582.91,382.87,570.88Z"
          transform="translate(-13 -15)"/>
    <path class="cls-9"
          d="M383.71,569.38c19.18-32.93,58.88-23.34,78.42-50.28a1.35,1.35,0,0,1,2.45.73c-.41,16.42-30.75,61.08-80,51.41A1.27,1.27,0,0,1,383.71,569.38Z"
          transform="translate(-13 -15)"/>
    <path class="cls-1"
          d="M298.62,506.65c19.36-17.24,49.78-21.11,67.48-20.09,7.73.45,13,7.8,8.78,13.93-1,1.47-2.22,3-3.58,4.6,41.86,9.74,26.7,29.52,18.7,38.52,2,6-1.09,14.6-3,19s-8,7-14,8c-6,37-51.85,29.66-92.27,10.78C266.7,565.05,275.66,527.1,298.62,506.65Z"
          transform="translate(-13 -15)"/>
    <path class="cls-10"
          d="M273.76,329.37c-12.5,3.16-98.21,31.54-154.2,92.22-22.36,24.23-27.85,58.85-13.43,88,31.3,63.25,118.51,135.14,178.28,223.18-34-57.73-1.52-180.41,35-243.91-23.59,0-42.62-5.05-84.48-13,6.09-13.71-11.42-28.87-25.88-34.64"
          transform="translate(-13 -15)"/>
    <path class="cls-7" d="M382.87,570.88c18.49-30.31,39-25.42,55.59-34.56" transform="translate(-13 -15)"/>
    <path class="cls-5"
          d="M354.94,722.9c3.05-8.1,33.17-8.73,36.78-.48,1.42,3.24-1.6,7.05-4.55,10.84a7.09,7.09,0,0,0-1.48,3.7c-3.13,33.77-3.54,66.19-7.68,100.31a18.72,18.72,0,0,0,1.81,10.57c1.82,3.69,3.5,8.25,1.63,10-5.83,5.29-9-1.37-18.52-1.26-10.65.12-16.87,6-19.71,1.86-2.62-3.83-.81-7,1.75-9.75a23.1,23.1,0,0,0,6.34-13.88c3.39-41.22,4.53-66.43,7.57-96.08a14.66,14.66,0,0,0-2.4-9.81C355.13,726.91,354.21,724.84,354.94,722.9Z"
          transform="translate(-13 -15)"/>
    <path class="cls-6"
          d="M361.72,722.83a11.76,11.76,0,0,1,6-2.12c7.34-.74,12.82-1.29,15.08,1.77,2,2.71.51,7,0,8.49-8.4,25.34-2.67,75.2-8.77,99.2-.66,2.59-1.73,5.94-.7,10.08,1.3,5.26,5.08,8.13,3.86,10.43-.66,1.24-2.33,1.5-4,1.77-5.72.9-7.21-2.39-11.92-1.95-5.11.48-6.68,4.66-10.52,3.54-1.44-.42-3.11-1.56-3.16-2.83-.07-1.71,2.88-2.24,5.09-5.13,1.37-1.78,1.79-3.61,2.28-6.72,1.08-6.84,1.61-10.27,1.4-14.68-.9-18.76,12.25-83,5.09-93-.44-.62-2.8-3.57-1.93-6.19A5.69,5.69,0,0,1,361.72,722.83Z"
          transform="translate(-13 -15)"/>
    <path class="cls-5"
          d="M344.54,869.7c4-8.38,33.46-7.71,37.29,1.26,1.69,3.94-4.76,7.65-4.76,12.45,0,37,2.85,72.88,2.85,104.64,0,7.62,9.12,10.54,7.42,14.61-3.83,9.17-36.44,9.26-40.15.36-1.57-3.76,6.09-6.82,6.09-12.81,0-36.44-3-71.08-3-107C350.24,877.42,342.69,873.6,344.54,869.7Z"
          transform="translate(-13 -15)"/>
    <path class="cls-6"
          d="M354.18,873.63c.07-.89.69-1.9,2.74-3,5.14-2.8,14.86-3.82,16.9,1.24.8,2-.35,3.06-.87,10.31-.22,3-.17,5-.14,8,.3,33.68,5.56,67.66,1.73,101a10.34,10.34,0,0,0,.29,4.62c1.11,3.38,3.83,4,3.76,5.51-.1,2.13-5.5,3.34-6.5,3.56-6.79,1.45-15.5.63-16-2.67-.2-1.24.94-1.71,2-4.62a21.07,21.07,0,0,0,1-8.71c-.39-9.06-2.31-98.95-2-105.81a11.42,11.42,0,0,0-.29-3.73C356,876.21,354,875.34,354.18,873.63Z"
          transform="translate(-13 -15)"/>
    <path class="cls-1"
          d="M236.14,343.12c10.27-4.26,23.18-9.13,37.62-13.75,6.33,12,6.33,12,11.72,23.92-4.24,8.34-23.86,16.72-33,16.22C246.08,354.92,244,354,236.14,343.12Z"
          transform="translate(-13 -15)"/>
    <path class="cls-1"
          d="M464,324.32a250,250,0,0,1,25.17,10c-5.53,15.16-6.58,18.64-12.67,47.58-8.42,1.66-20.92-4.23-25.29-9.13C455.47,351.34,456.74,346.41,464,324.32Z"
          transform="translate(-13 -15)"/>
    <path class="cls-11" d="M237.68,929.39" transform="translate(-13 -15)"/>
    <path class="cls-11" d="M262,973.17" transform="translate(-13 -15)"/>
    <path class="cls-11" d="M267.62,935.16" transform="translate(-13 -15)"/>
    <path class="cls-7" d="M382.87,570.88" transform="translate(-13 -15)"/>
    <path class="cls-7" d="M464,516.28" transform="translate(-13 -15)"/>
    <path class="cls-12"
          d="M234.94,475.87c-15.23.51-27.93-5.88-36.94-7.39-17.19-2.89-19.66-3.87-30.59-6.94-35.52-10,2-14.79,6-15.36,7.2-1,12.12.71,13.83-1,1.31-1.31-1.59-4.33-3-11.07-.93-4.31-1.91-8.81.25-12.27,3.82-6.1,15.21-5.46,18.27-5.29,8.23.46,35.19,10.66,38.56,13"
          transform="translate(-13 -15)"/>
    <path class="cls-7" d="M234.94,475.87a31.94,31.94,0,0,0,.2-14.57c-4.67-20.59-29.3-28.67-31.46-29.35"
          transform="translate(-13 -15)"/>
    <path class="cls-7" d="M234.94,475.87c-15.15-1.58-31.63-6.76-47.1-9.41" transform="translate(-13 -15)"/>
    <path class="cls-12"
          d="M100.31,466.46s12.94,22.88,38.81,50c18.37,19.28,39,41,71.54,54.12a315.79,315.79,0,0,0,67.75,18.76c-9.32,41.62-15.37,82.53-2.55,128.09-24.64-33.77-74.51-88-110.73-129.65-20.28-23.34-36.22-43.44-41.22-52.2C100.57,504.11,97.29,478.74,100.31,466.46Z"
          transform="translate(-13 -15)"/>
    <path class="cls-7" d="M172.23,562.32a180.1,180.1,0,0,0,22.07,15.15,187.73,187.73,0,0,0,50.61,20.21"
          transform="translate(-13 -15)"/>
    <path class="cls-7"
          d="M382.93,572.18c-5.38-4.85-.76-27.5,13.92-39.81,22.06-18.48,40.34,0,67.23-14.79C469.37,529.61,437.45,584.21,382.93,572.18Z"
          transform="translate(-13 -15)"/>
    <path class="cls-7"
          d="M273.76,328.85c-12.5,3.16-98.21,31.54-154.2,92.22-22.36,24.23-27.85,58.85-13.43,88,31.3,63.25,118.51,135.14,178.28,223.18-34-57.73-1.52-180.41,35-243.91-23.59,0-65.88-7-84.38-12.23"
          transform="translate(-13 -15)"/>
    <path class="cls-7" d="M492.94,442" transform="translate(-13 -15)"/>
    <path class="cls-7" d="M512.53,825.86c42.62,2.16,61.32,8.49,88.28,21.65" transform="translate(-13 -15)"/>
    <path class="cls-7" d="M113.18,868.42c17.5-9.38,45.11-39,153.73-31" transform="translate(-13 -15)"/>
    <path class="cls-2" d="M214,982c-7-7-12-30,0-45" transform="translate(-13 -15)"/>
    <path class="cls-2" d="M255,986c-7-7-12-30,0-45" transform="translate(-13 -15)"/>
    <path class="cls-7" d="M324.23,345.76" transform="translate(-13 -15)"/>
    <path class="cls-7" d="M322.23,356.76" transform="translate(-13 -15)"/>
    <path class="cls-7" d="M327.23,345.76" transform="translate(-13 -15)"/>
    <path class="cls-13" d="M683,271.06" transform="translate(-13 -15)"/>
    <path class="cls-3"
          d="M489.88,340c36.63,25,53.67,46.58,71.42,59,25.35,17.75,41.44,21.86,62.26,25,32.71,4.94,60.58-8.34,67.76-12,27.22-13.87,29.3-28.24,40.29-26,30.48,6.21,32,120.24,32,135,.14,21.38.11,32.23-4.58,40-22.87,37.91-108.37,25.79-165.73-5-24-12.9-45.62-28-54.94-37"
          transform="translate(-13 -15)"/>
    <path class="cls-4"
          d="M478,394c1.27,18.18,19.47,28.79,48.53,62,2.11,2.41,10.26,10.94,26.55,28,18.87,19.75,25.9,26.82,28.39,25,1.92-1.4-.48-6.93-3.66-24-2-10.56-5-27.08-2.75-28,2.11-.85,6.42,12.41,17.4,28A135.6,135.6,0,0,0,619,513c3.6,2.94,18.87,15.08,43,24,7.72,2.85,40.15,14.83,44.87,6,2.71-5.07.18-12.58-4.58-29-6.35-21.91,1.58-32.67-1.83-59-1-7.61-1-28.16-9.16-38,0,0-53.11,27-109.88-1-27.67-13.65-45.25-36.75-63.18-53C505.83,351.73,488,344,488,344,477.71,348.48,477.15,382.24,478,394Z"
          transform="translate(-13 -15)"/>
    <path class="cls-1"
          d="M717.88,462.57c-34.72-19.64-31.6-82.29-24.72-98.77,5.49-13.17,30.22-31,40.29,14.11,2.75-22.58,12.82-48.91,33.88-48.91,28.39,3.76,14.65,45.15,14.65,45.15s7.33-39.51,31.13-27.28c28.2,14.49-6.41,53.62-6.41,53.62s20.14-26.34,29.3-9.41C850.78,418.42,781.06,498.32,717.88,462.57Z"
          transform="translate(-13 -15)"/>
    <path class="cls-7" d="M701.39,411c-4.5,11,14.19,194.5,54,154" transform="translate(-13 -15)"/>
    <path d="M713.3,514c11.9-2,23.31-10.08,27.47-13,12.82-9,26.87-21.9,24.72-36-16.48,1-41.2,5-57.69-21C693.94,457.78,709.64,497,713.3,514Z"
          transform="translate(-13 -15)"/>
    <path class="cls-7"
          d="M491.71,340c36.63,25,53.67,46.58,71.42,59,25.35,17.75,41.44,21.86,62.26,25,32.71,4.94,60.58-8.34,67.76-12"
          transform="translate(-13 -15)"/>
    <path class="cls-1"
          d="M464,326.32c11.86,4.31,12.94,4.51,25.17,10C431.55,473.54,558.9,693.44,542.8,830.6c-3.67,1,4.18-1.54-30.07-2.74C536.57,725.14,402.63,482.19,464,326.32Z"
          transform="translate(-13 -15)"/>
    <path class="cls-1"
          d="M464,326.32a250,250,0,0,1,25.17,10c-5.53,15.16-6.58,18.64-12.67,47.58-8.42,1.66-20.92-4.23-25.29-9.13C455.47,353.34,456.74,348.41,464,326.32Z"
          transform="translate(-13 -15)"/>
    <path class="cls-14"
          d="M225.2,190.4c-17.12-7.65-21.1-20.89-19.45-23,0,0,11.11,4.85,13.4,2.61,5.25-5.13-45.63-20.36-43.42-65.09,1.14-23.1,13.84-46.88,22.73-55,.77-.7,1.29-9.56,3.86-12.55,1.31-1.52,7.32,4,7.21,2.54-.29-4,.89-10.2,7.14-12.4,2.23-.79,1.8,10.24,8,12.26.87-3.77,2.08-6.21,4.88-7.47,3.86,4.06,1.21,4.41,6.48,7.76,11.36,5.51,29.79,23.28,49.53,38.3,26.44,3.53,63-24.86,79-20.73a1.9,1.9,0,0,1,1.28,2.48c-2.09,6.06-13,12.23-13,12.23,4.22,7.94,31.69-24,67.6-12.84.87,2.07-17.47,9.63-16.32,13.93,20.47,2.39,27.15,2.33,33.36-.11,15.47-8.06,22.4-38.52,45.35-43.09,4.12-4.48,7.45-8.43,9.51-7.65,2.37.9.38,6,2.88,6,1.2-.07,4.7-5.55,5.94-9.5,9.91.44,7.43,13.49,8.74,13.46,1.87,0,3.82-4.24,4.37-4.64,2.09,0,4,7.11,5.24,15.38C540,67.51,570.13,115.44,513.89,154c-.3,7.47,10.5,1.16,17,0-3,15.67-22.08,28.1-22.32,31.79"
          transform="translate(-13 -15)"/>
    <path class="cls-10"
          d="M174,278.79c18.07-14.22,32.34-32.21,45.16-70.8,15-45.07,43.71-129.41,145.4-129.41,122.82,0,132.87,65.72,159.09,161.47,7,25.39,20.76,33.95,37.37,34.71-3.2,6.39-9.29,8.27-14.2,8.81,4,7.83,5.57,12.19,2.08,19.69-2.08-7.51-11.25-11.71-11.25-11.71-2.19,25.1-24.91,37.28-60,57.45-6,3.47-46.89,44.43-95,44.46-69.34,0-105.59-36.23-115.74-43.08-19.41-11.32-48.59-13.56-72.77-49.54-4,1.36-6.41.87-13.11,6.38-2.24-2.94-.29-12.19,7.58-20.31C180.4,286.92,174,282.57,174,278.79Z"
          transform="translate(-13 -15)"/>
    <path class="cls-15"
          d="M204.78,290.68c-3.45-1.06-5.81-8.61-3.86-18.06A24.6,24.6,0,0,1,206,262.1c14.83-18.18,19.3-28.65,26.39-47.28,1.43-3.75,3.07-7.42,4.81-11q2-4.07,3.53-8.31c10.16-27.48,16.82-45.82,27-57.4,19.27-15.81,32.82-10.92,31.76-13.35-3.39-6.47-16.61-7.83-16.61-7.83,3.13-8.78,40.94-1.05,51.87-4.06-5.12-6.47-12.46-8.2-10.78-11.9,0,0,22.21,10,48.37,9a168.22,168.22,0,0,0,41.08-7.25c1.55,2.79-4,7-5.83,12.19,9.32,5.44,45.56-2.93,47.2,2.32,0,0-10.56,4-12.2,7.91,9.92,3.21,15.08,5,21.6,8.2a37,37,0,0,1,16.13,15.07c11.25,20.21,7.07,48.74,29,92.43,9.73,19.43,25,33.26,21.85,40.91,0,0-7.69-7.44-14.86-8.7-.21,5.25,6,20.1,3.5,21.47,0,0-4.38-3.7-8.45-4.93.11,5.62-.36,11.73-3.5,17.7-4,7.52-26.91,24.5-48.37,25.64a27,27,0,0,0-16.57,6.44c-7.79,6.87-20.27,10.79-29.45,3.9-1.31-1,8.14-1.77,13-5.11-3.57-3.63,2.59-3.14,1.06-4.24,5.54-5.95-5.7.39-5.85-4.11-39.32,15.21-52.37-34.27-52.37-34.27s-12.77,61.16-57.93,21.44c.23,3.16,4,11.33,2.93,12.85-4-1.74-6.93,1.76-9.39,4.67,10,.58,20.08,5.1,18.18,6.43-21.7,15.19-18.09-1.75-42.25-10.14-20.61-7.16-29.74-7.55-39.81-11.54a26.1,26.1,0,0,1-16.6-21.94c-.06-.73-.1-1.46-.13-2.21-2.89-.56-5.28,2.18-7.58,6.09-2.41-1-.44-16.76,1.75-21.76C208.2,280.13,205.58,290.25,204.78,290.68Z"
          transform="translate(-13 -15)"/>
    <path class="cls-13" d="M561,274.77c-3.2,6.39-9.29,8.27-14.2,8.81" transform="translate(-13 -15)"/>
    <path class="cls-13" d="M523.65,240.06" transform="translate(-13 -15)"/>
    <path class="cls-7" d="M357.56,70.76" transform="translate(-13 -15)"/>
    <path class="cls-7" d="M366.23,58.13" transform="translate(-13 -15)"/>
    <path class="cls-7" d="M285.59,78.3" transform="translate(-13 -15)"/>
    <path class="cls-4"
          d="M271.92,268.68c-.77-5.62.64-6.79,2.59-7.35,1.82,5.41,8.62,15.16,16,15.76,3.31-9.93,30.19-18.1,33.84-19.13,1.08,1.57-2.37,5.85-2,6.13,11.91.71,23.14-26.25,27.66-30.23,4.33,2.32,13,26.86-2.3,43.41,8.7,12.8,36.65,12.74,44.37.61-13.54-20.33-7.77-41-4.23-43.1,4,1.53,17.38,25.84,30.15,33.3-1.73-5-1.11-6.46.29-7.35,3.46,4.09,21.22,25.13,32.84,28.19C461,283,465.65,268,468.68,269.3c1.86.77,1.82,5.82,1.44,8.58,4.32-1.94,20.86-18.79,20.74-41.37-.14-28.1-28.76-52.46-53.58-53.62-23.16-1.09-38.41,7.25-47.73,13.69-4.13-7.86,6.24-20.43,6.24-20.43-2-1.86-9.89-1-17.19,5.62.1-4.39-6.2-18-9.31-17.57s-6.43,9.91-8.83,18.18c-1.63,1.23-7-9.4-17-6.13,5.86,7.15,10.6,16.94,8,20.73-8.26-6.33-18.16-11-36.59-12.56-27.94-2.35-61.27,18.72-65.19,43.92C246.16,250.73,267.95,270.36,271.92,268.68Z"
          transform="translate(-13 -15)"/>
    <path class="cls-16"
          d="M388.76,206.09a23.62,23.62,0,0,0,.73,12c2.2,6.33,6.28,8.54,13.73,16.7,16,17.57,24,26.36,35.77,26.44,12.83.09,25-9.54,30.35-21,3.71-8.06,4.64-16,3-22.84-2.63-11.13-10.73-20.74-20.28-27.11-15.14-10.09-34.18-15.64-44-11.83C397.61,183.41,391,193.85,388.76,206.09Z"
          transform="translate(-13 -15)"/>
    <path class="cls-16"
          d="M371.16,319.11c-1.12,0,1.14-15.24-6.59-24-2.42-2.75-4.79-4.59-14.45-8.54-7.06-2.89-15.26-6.12-16.26-11.6-.63-11.24,17.53-15.61,35.4-16.19s37,3.51,37,14.39c0,5.67-5.6,7.19-13.91,11.51-6.86,3.57-11.05,4.95-15,9.26C369.23,302.87,372.3,319.14,371.16,319.11Z"
          transform="translate(-13 -15)"/>
    <path class="cls-15"
          d="M350,266.32c-.17-1.4,8.39-4.59,20-4.59,13,0,20.51,2.68,20.42,4.14C390.32,268.61,350.36,269,350,266.32Z"
          transform="translate(-13 -15)"/>
    <path class="cls-16"
          d="M351.3,206.09a23.62,23.62,0,0,1-.73,12c-2.2,6.33-6.28,8.54-13.73,16.7-16,17.57-24,26.36-35.77,26.44-12.83.09-25-9.54-30.35-21-3.71-8.06-4.64-16-3-22.84,2.63-11.13,10.73-20.74,20.28-27.11,15.14-10.09,34.18-15.64,44-11.83C342.45,183.41,349.06,193.85,351.3,206.09Z"
          transform="translate(-13 -15)"/>
    <path class="cls-4"
          d="M424.15,278c.69-1.25,10.54,2.32,18.18,7,4,2.46,7.25,5,9.21,8.51,5.51,9.91,5.92,25.22,5.87,24.53-.59-7.59-7.63-23.37-12.91-25.7.41,2.67,10.56,11.68-3.34,54-.18.33,7.43-40.38-4.11-57.25C432,281.72,423.53,279.17,424.15,278Z"
          transform="translate(-13 -15)"/>
    <path class="cls-4"
          d="M315.29,278c-.69-1.25-10.54,2.32-18.18,7-4,2.46-7.25,5-9.21,8.51-5.51,9.91-5.92,25.22-5.87,24.53.59-7.59,7.63-23.37,12.91-25.7-.41,2.67-10.56,11.68,3.34,54,.18.33-7.43-40.38,4.11-57.25C307.45,281.72,315.91,279.17,315.29,278Z"
          transform="translate(-13 -15)"/>
    <path class="cls-7"
          d="M306.07,291.21c-1.17,18.11,8.09,27.63,8.66,28.51,9.79,15.38,27.16,16,37.88,12.46a42.21,42.21,0,0,0,17.77-11.61"
          transform="translate(-13 -15)"/>
    <path class="cls-7"
          d="M436.88,295.88c0,31-24.63,37.24-25.51,37.43a42.53,42.53,0,0,1-22.57-1.13c-9.33-3.12-15-10.06-17.62-12.94"
          transform="translate(-13 -15)"/>
    <path class="cls-10"
          d="M391,176c-.92-1.14-4.55-5.63-4.11-10.17,1.09-11.12,25.64-12.75,30.47-13.08,39.81-2.66,59.24,29.55,104,45.28,48.28,17,85.08.37,85.7,4.37.57,3.63-30.72,11.69-72.14,11.25-44.2-5.26-51.66-13-81.38-26.48a52.56,52.56,0,0,0-30.83-4.4C411,184.76,398.73,185.53,391,176Z"
          transform="translate(-13 -15)"/>
    <path class="cls-10"
          d="M345.32,305.78c-.15-5.32-5.9-9-7.43-10-14.06-9.06-37.07,0-62.94,16.1-50.26,31.34-68.39,41.79-73.77,44-53.08,21.44-99.72,12.68-108.05,11.75-29.8-3.31-50.91-12.91-51.14-12.19s29.53,15.53,69.06,20.46c41.17,5.13,73.38-2.72,93.53-7.83,12-3,66.09-28.71,75.18-33.17C319,315.56,345.6,315.92,345.32,305.78Z"
          transform="translate(-13 -15)"/>
    <path class="cls-15"
          d="M333.64,301.14a11.47,11.47,0,0,0-8.21-4.09c-10.33-1-21.59,3.24-23.46,4.09-19,8.62-32.87,20.05-35.2,21.61-3.66,2.46-20.3,15.23-39.3,25.7-14.69,8.09-24.92,11.86-38.13,16.36-30,10.22-54.27,7.22-54.24,7.74S154.36,374,179,369.7c23.85-4.18,40-12.79,46.1-15.41,10.91-4.66,18.79-10.58,34.61-19.28,4.94-2.71,16.39-10.86,31.09-17.52a114.73,114.73,0,0,1,18.77-7c8.43-2.12,13.34-1.43,16.42-1.75,4.53-.47,6.2.15,8.21-2.34C335.64,304.65,335,303,333.64,301.14Z"
          transform="translate(-13 -15)"/>
    <path class="cls-10"
          d="M399.52,356.3c-6.79-8.76-7.72-9.5-9.56-10.53-7.39-4.11-18.43-3.2-25.4,1.9-5.23,3.82-4.69,7.29-10.93,10.79-4.75,2.66-7.81,2.2-12.24,3.45-9,2.55-14.32,9.6-18.79,15.53-13.2,17.49-20.16,45.92-21.85,52.2-8.17,30.21-30.19,49.17-50.26,66.44-53.69,46.2-140.94,57.27-198.87,29.77-14.9-7.07-33.14-19.2-34.53-17.26-1.56,2.18,18.67,21.17,37.15,33.22,53.44,34.86,138.64,42.05,201.93,8.2,33.56-18,57.57-45.64,62.06-41.42,2.72,2.56-3.72,15-11.8,23.73-16.38,17.79-39.32,20.48-38.9,22s15,.82,32.34-6c19.09-7.57,31.08-18.93,47.64-34.94,14.54-14.06,23.25-22.48,32.78-36.67,10.92-16.25,20-28.81,29.94-58.24,9.07-26.91,5.64-39.08,1.09-46.59C410.51,370.5,406.85,365.77,399.52,356.3Z"
          transform="translate(-13 -15)"/>
    <path class="cls-15"
          d="M354.17,366.56c-1.36-1.91-9.64.69-11.15,1.17-8.16,2.58-10.62,6.57-12.13,8.59-11.5,15.37-21.36,46.11-28.85,62.62-8.61,19-17.75,33.68-25.31,42.12a184.34,184.34,0,0,1-60.42,45C202,532.61,149,561,89.61,544.72a396.73,396.73,0,0,1-38.13-12.27s6.8,3.9,27.57,13.44a280.44,280.44,0,0,0,36.81,12.74c52.88,14.22,103.5-1.28,108.83-3,7.54-2.4,47.12-15.54,81.73-51.12,29.43-30.25,42-63.11,45.89-61.34,3.32,1.51-1.34,26.77-3.42,32.6-4.93,13.76-6.39,21.84-18.77,36.8-10.46,12.64-19.25,22.79-18.77,23.37.6.73,7.67-7.46,23.92-22.06,13.81-12.41,22.65-24.34,39.77-47.71,22.53-30.74,26.83-41.24,29.28-49.41a86.71,86.71,0,0,0,1.75-34.5c-.64-4.17-1.76-11.19-4.37-11.5-1.13-.13-3.78.83-9.18,15.76-10.11,28-9.79,49.35-12.24,49.41-1.86,0-4.27-12.23-5.24-25.13-1.94-25.77,14.17-58.83,10.81-60-4.31-1.54-27,20-36.16,56.2-4.65,18.33-7.07,20.82-13.11,34.5-13.56,30.7-35.09,50.66-36.28,49.84-.84-.58,7.85-12.11,22.29-39.19,12.84-24.07,13.22-52.53,15.73-60.91C342.87,376.1,356.37,369.66,354.17,366.56Z"
          transform="translate(-13 -15)"/>
    <path class="cls-10"
          d="M393.84,300.56c1.83-5.62,10.72-7.17,12.24-7.4,8-1.24,14.52,2.44,17,3.92,4.59,2.68,13.44,9.29,20.54,30,3.45,10.07,11.25,33.08,5.24,58.32-13.84,58.14-89.17,78.21-102.71,81.82-36.13,9.63-62.06,3.14-67.31,1.74-16.33-4.35-31-12.33-30.59-13.49s14.89,5.13,35,7.83A147.44,147.44,0,0,0,337,460.72c33.27-8.34,54.78-24.48,59.88-29.38,11.19-10.74,25.92-26.24,29.94-47.22,1.22-6.39,4.45-26.7-5.18-42.87-2.84-4.77-12.08-16.76-22.57-27.64C395.55,309.95,392.41,304.94,393.84,300.56Z"
          transform="translate(-13 -15)"/>
    <path class="cls-15"
          d="M402.27,304.64c-.39-2.36-.18-3,0-3.5,1.76-4.67,8.92-3.34,15.25,0,19.94,10.51,31.31,42.44,28.16,68.93-4,33.21-24.29,54.63-31.52,60.84-7.41,6.36-13.78,9.78-22.73,14.58-32.79,17.6-61,21-61.19,20.46s37.25-3.28,70.59-30c9.6-7.7,25.28-19.08,31.36-39,5.09-16.63,6-32.67,4.11-43.23-2.9-16-6.7-25.4-13.49-32.13C414.19,313,403.86,314.12,402.27,304.64Z"
          transform="translate(-13 -15)"/>
    <path class="cls-10"
          d="M349.36,176c.92-1.14,4.55-5.63,4.11-10.17C352.37,154.67,327.82,153,323,152.71c-39.81-2.66-59.24,29.55-104,45.28-48.28,17-85.08.37-85.7,4.37-.57,3.63,30.72,11.69,72.14,11.25,44.2-5.26,51.66-13,81.38-26.48a52.56,52.56,0,0,1,30.83-4.4C329.34,184.76,341.6,185.53,349.36,176Z"
          transform="translate(-13 -15)"/>
    <path class="cls-15"
          d="M343,162.11c-8.9-3.8-15.84-4.09-23.46-3.5-26,2-35.13,8.15-62.77,25.12-32,19.66-45.67,21.27-59.83,23.37a108.79,108.79,0,0,1-22.29.58c0,.23,22.3,3.55,48.69-2.92,10.25-2.51,22.3-7.3,46.46-18.13,40.36-18.09,49.68-13.39,61.48-13.42,10.49,0,13,1.26,14.66-2.1C347.71,167.5,347.13,163.87,343,162.11Z"
          transform="translate(-13 -15)"/>
    <path class="cls-15"
          d="M398,162.11c8.9-3.8,15.84-4.09,23.46-3.5,26,2,35.13,8.15,62.77,25.12,32,19.66,46.43,21.85,60.59,23.95a88.74,88.74,0,0,0,21.46.28c.24,1.47-21.47,3.85-47.86-2.62-10.25-2.51-23-7.88-47.21-18.71-40.36-18.09-49.68-13.39-61.48-13.42-10.49,0-13,1.26-14.66-2.1C393.32,167.5,393.9,163.87,398,162.11Z"
          transform="translate(-13 -15)"/>
    <path class="cls-15"
          d="M298.45,229.29a35.57,35.57,0,0,1,7.77-8.47,40.22,40.22,0,0,1,9.86-5.82,30.67,30.67,0,0,1,11.57-2.4c1,0,2,.09,3,.22s2,.4,3,.67,1.91.75,2.81,1.19a19.69,19.69,0,0,1,2.45,1.77,50,50,0,0,0-10.39,2.38c-3.18,1.05-6.27,2.31-9.44,3.59s-6.39,2.61-9.77,3.86A55.57,55.57,0,0,1,298.45,229.29Z"
          transform="translate(-13 -15)"/>
    <path class="cls-15"
          d="M441,229.29a55.56,55.56,0,0,1-10.87-3c-3.38-1.25-6.6-2.57-9.77-3.86s-6.26-2.53-9.44-3.59a50,50,0,0,0-10.39-2.38,19.69,19.69,0,0,1,2.45-1.77c.89-.44,1.83-.82,2.81-1.19s2-.48,3-.67,2-.17,3-.22a30.67,30.67,0,0,1,11.57,2.4,40.22,40.22,0,0,1,9.86,5.82A35.57,35.57,0,0,1,441,229.29Z"
          transform="translate(-13 -15)"/>
    <path class="cls-17" d="M391.68,546.64c-13,.75-17.87-.81-31.56-5" transform="translate(-13 -15)"/>
    <path class="cls-17" d="M373.43,574.63A98.68,98.68,0,0,1,348,569.69" transform="translate(-13 -15)"/>
    <path class="cls-18" d="M732,355v26" transform="translate(-13 -15)"/>
    <path class="cls-18" d="M791,344c-4,9-11,25-15,34" transform="translate(-13 -15)"/>
    <path class="cls-18" d="M828,378c-3.67,4-13.33,14-17,18" transform="translate(-13 -15)"/>
    <path class="cls-19"
          d="M721,429c-.05,1.12-.39,10.65,5,19,8.17,12.65,26.34,17.73,41,13,2.67-.86,16.95-5.47,21-19,5-16.64-10.36-30.44-11-31-10.76-9.38-23.82-8.27-27-8-2.58.22-19.18,1.63-26,14A26.6,26.6,0,0,0,721,429Z"
          transform="translate(-13 -15)"/>
    <path class="cls-12"
          d="M728,418c-2.07,4.37-4.48,9.45-3,15,1.91,7.16,9.1,10.63,14,13,4.54,2.19,22.18,10.72,36,1,1.27-.89,10.68-7.74,11-19,.41-14.59-14.84-22.87-17-24-1.8-.94-15.33-7.74-28-1C733.13,407.18,729.72,414.38,728,418Z"
          transform="translate(-13 -15)"/>
</svg>