<svg id="Слой_1" data-name="Слой 1" xmlns="http://www.w3.org/2000/svg" viewBox="0 0 474.6 460.22">
    <defs>
        <style>.cls-1{fill:#82bc68;}.cls-2{fill:#1d8064;}.cls-3{fill:#80b57d;}.cls-4{fill:#0e5944;}.cls-5{fill:#fff;}
        </style>
    </defs>
    <title>groupleaf5</title>
    <path class="cls-1"
          d="M12.89,420.83a24.42,24.42,0,0,1,12.62,1.23c-1.53.66-1.61,4.33-2.71,6.06a16.41,16.41,0,0,1,7.52-3.9,54.67,54.67,0,0,1,11.53,8.61c-2.44.74-3.33,4.13-4.7,5.39a18.61,18.61,0,0,1,8.18-1.86,107,107,0,0,1,13.2,17.76,43.83,43.83,0,0,1-13.22,5.38c-1.73-1.69-5.51-5.48-8-8.29,0,0,1.71,5.09,3.52,8.93a29.83,29.83,0,0,1-14.68-2.63,30.37,30.37,0,0,1-3.64-10.29s-.07,4.41.16,8.46C7.56,446.68,0,427.34,0,427.34A26.92,26.92,0,0,1,12.89,420.83Z"/>
    <path class="cls-2" d="M0,427.34c6.39,5.88,24.15,15.45,56.36,26.46C56.36,453.81,23.09,439.47,0,427.34Z"/>
    <path class="cls-1"
          d="M296.16,259.44a43,43,0,0,1-6.79,17.67c-.1-2.57-4.25-4.64-5.75-7.14a31.58,31.58,0,0,1,1.22,13,68.24,68.24,0,0,1-14.73,12.18c.2-3.94-3.29-7-4.13-9.68a36.17,36.17,0,0,1-1.38,12.87,110.49,110.49,0,0,1-25.89,9.77,85.75,85.75,0,0,1-.49-22c2.67-1.61,8.61-5.11,12.86-7.2a93.86,93.86,0,0,0-11.69.39,50.43,50.43,0,0,1,9.27-19.93,29.26,29.26,0,0,1,13.3.12s-5-2.44-9.71-4.25c16.74-17.16,42-17.91,42-17.91A52,52,0,0,1,296.16,259.44Z"/>
    <path class="cls-2" d="M294.24,237.28c-9.43,6.17-27.93,26.89-54.24,67.84C240,305.11,270.6,264.39,294.24,237.28Z"/>
    <path class="cls-1"
          d="M427.21,26.66A31.1,31.1,0,0,1,434.45,15c-.28,1.84,2.38,3.87,3.1,5.85a22.82,22.82,0,0,1,.91-9.39A49.31,49.31,0,0,1,450.6,4.89c-.68,2.77,1.37,5.43,1.61,7.44a26.14,26.14,0,0,1,2.74-8.94A79.84,79.84,0,0,1,474.6,0a62,62,0,0,1-2.67,15.71c-2.11.78-6.81,2.44-10.11,3.34a67.83,67.83,0,0,0,8.35,1.33,36.44,36.44,0,0,1-9.28,12.84,21.14,21.14,0,0,1-9.42-1.91s3.21,2.42,6.31,4.35c-14.23,9.88-32.25,7-32.25,7A37.59,37.59,0,0,1,427.21,26.66Z"/>
    <path class="cls-2" d="M425.54,42.64c7.54-3.09,23.5-15.25,47.78-40.7C473.32,1.95,446.06,26.65,425.54,42.64Z"/>
    <path class="cls-3"
          d="M392.24,404.84c2.45.83,5.61-12.12,6.94-12s-4.17,12.36-2.84,14,6.43,1.46,7.64.52.54-10.73,2.4-10.54-1.36,6.75-.43,9,5.17.94,6.13.07.39-6.48,2-7.13-.81,5.6,1.7,6.33a3.83,3.83,0,0,0,1.71.09l.29-.06h0a6.35,6.35,0,0,0,2.72-1.49s-.87-5.77,1.18-4.3,1,3.08,4,2.11a9,9,0,0,0,4.31-3h0l0-.09.06-.08h0l.13-.25a7.44,7.44,0,0,0,.63-4.62c-.56-2.85-1.59-1.23-4-2.11s3.55-3,3.55-3a5.17,5.17,0,0,0,.09-2.87,2.3,2.3,0,0,0-.09-.26,3.13,3.13,0,0,0-.94-1.3c-2-1.61-6.77,3.39-6.94,1.8s5.51-3.91,5.88-5.1a4.9,4.9,0,0,0-.32-2.72l-.1-.24a2.57,2.57,0,0,0-2.68-1.82c-2.64.38-7.36,6.17-8.47,4.8s8.64-5.69,9-7.1c.17-.74-.41-2.21-1.31-3.48l-.16-.22a4.65,4.65,0,0,0-2.81-2c-2.22-.24-11.29,10.13-12,9.14s10.09-9.91,8.09-11.42a25.45,25.45,0,0,0-3-2.06h0l-.25-.14c-3.61-2-8.79-2.63-9.83,10-1.17,4.3-4.22,1.91-1.22-8.31a21.65,21.65,0,0,0-4.38,0h-.3c-2.25.29-4.41,1.16-4.11,3.45.6,4.64,1.43,8.93.21,8s-.51-7.69-2.81-5.16l0,.06a4.14,4.14,0,0,0-.58.86,8.58,8.58,0,0,0-.32,5.4l.06.25-.5.15c-1.83.58-4.4,1.72-5.32,3.67v.06a1.89,1.89,0,0,0-.21.78c.06,1.61,5.23-1.52,6.53-1.06,1.46.51-3.07,2-7.84,3.81-2.24.86-2.14,2.81-1.41,4.64.07.17.14.34.22.51a17.34,17.34,0,0,0,2.23,3.45c8.36-7.41,12.16-6.2,8.61-3.15-10.56,6.4-9,10.07-5.84,12.09l.23.14h0A21,21,0,0,0,392.24,404.84ZM398,374.32c.86-.91,1.07.37,1.11,1.25a1.07,1.07,0,0,1-1,1.08H398a.73.73,0,0,1-.53-.2,1.42,1.42,0,0,1,.13-1.67h0A3.13,3.13,0,0,1,398,374.32ZM410.51,400a.47.47,0,0,1-.43,0,1.51,1.51,0,0,1-.5-.49c-.89-1.3-1.41-4.41.41-4.26h.26a1.38,1.38,0,0,1,.53.27,1.35,1.35,0,0,1,.49.88c.14,1.15.23,3.14-.76,3.58Zm8.39-2.34a.87.87,0,0,1-.56,1.06h-.17a.61.61,0,0,1-.7-.5v-.06a3.75,3.75,0,0,1,.09-.57.74.74,0,0,1,.53-.4.63.63,0,0,1,.8.39l0,.07Zm-4.84-21.91c1.39-1.07,2.35-1.45,2.89-1.29a.65.65,0,0,1,.41.34,2.42,2.42,0,0,1,0,1.64c-.6,2.2-4.29,3.71-4.29,3.71a9.5,9.5,0,0,1-1.37.53,4.74,4.74,0,0,1-.82.17c-.55.06-1,0-1.21-.45-.49-1.18,1.62-2.49,4.42-4.64Z"/>
    <path class="cls-4"
          d="M374.46,370.68c.32.12,32.59,12.57,55.87,27.36l-.35.45c-23.22-14.76-55.45-27.19-55.77-27.31Z"/>
    <path class="cls-4"
          d="M417.53,405.22v-.06c-2.2-5.48.64-12,1.26-13.3l.11-.22.5.2-.14.29a23.46,23.46,0,0,0-1.7,5.5,5.63,5.63,0,0,1-.09.57,13.13,13.13,0,0,0,.63,6.79l-.26.11h0Z"/>
    <path class="cls-4" d="M420.6,392.4c.19-.25,4.74-6.14,9.9-7.31l.09.52c-4.94,1.12-9.49,7-9.54,7.09Z"/>
    <path class="cls-4"
          d="M410.25,395.22c.65-3.64,1.33-6.67,1.44-7.16v0l.55.07,0,.24c-.19.84-.83,3.76-1.43,7.16A1.38,1.38,0,0,0,410.25,395.22Z"/>
    <path class="cls-4" d="M409.06,407a40.54,40.54,0,0,1,.51-7.52,1.51,1.51,0,0,0,.51.5,37.48,37.48,0,0,0-.45,6.94Z"/>
    <path class="cls-4"
          d="M415.34,387.31c1.8-2.79,5.91-7.93,12.72-9.79l.12.51c-9.2,2.51-13.34,11.23-13.39,11.32l-.52-.19A17.88,17.88,0,0,1,415.34,387.31Z"/>
    <path class="cls-4"
          d="M405.92,384.86l.52.18c-.06.14-6.57,14.28-6.08,22.81l-.57.07C399.3,399.27,405.86,385,405.92,384.86Z"/>
    <path class="cls-4"
          d="M417.36,374.79a.65.65,0,0,0-.41-.34,30.46,30.46,0,0,1,7.41-4.73h.06l.1.24.1.24A29.55,29.55,0,0,0,417.36,374.79Z"/>
    <path class="cls-4"
          d="M407.48,385.65l.15-.24.51-.82q1.26-1.94,2.71-3.76a4.74,4.74,0,0,0,.82-.17,45.6,45.6,0,0,0-3.55,5l-.13.22Z"/>
    <path class="cls-4"
          d="M389.05,400.1c4-6.14,12.93-16.71,13.38-17.23l.43.31c-.13.15-12.85,15.13-14.85,19.88l-.53-.16A20.63,20.63,0,0,1,389.05,400.1Z"/>
    <path class="cls-4"
          d="M407.73,371.83c2.21-3.43,4.65-6.8,6.74-8.63l.37.38c-5.13,4.5-12.8,19.08-12.88,19.23l-.5-.21C401.6,382.22,404.41,377,407.73,371.83Z"/>
    <path class="cls-4"
          d="M382.52,390.45c-.08-.17-.15-.34-.22-.51,5.5-4.91,13.24-7.81,15.55-8.61l.68-.22.14.51h-.12C397.39,382,388.53,385,382.52,390.45Z"/>
    <path class="cls-4"
          d="M396.71,380.54v-.32c0-1.82.36-10.35,2-15.22h.3l.28.06a46.36,46.36,0,0,0-1.67,9.78h0a1.42,1.42,0,0,0-.13,1.67c-.14,2.13-.17,3.7-.18,4v0Z"/>
    <path class="cls-4"
          d="M385,382.54a1.89,1.89,0,0,1,.21-.78v-.06a24.76,24.76,0,0,1,7.21-2.83l.81-.19.08.52h-.11C392.43,379.4,387.21,380.63,385,382.54Z"/>
    <path class="cls-4"
          d="M391.49,378.17v-.35a48.89,48.89,0,0,1-.13-5.6,4.14,4.14,0,0,1,.58-.86l0-.06a42.66,42.66,0,0,0,.09,6.78h0Z"/>
    <path class="cls-5" d="M417.45,398.22a.93.93,0,0,1,.09-.57C417.51,397.82,417.47,398,417.45,398.22Z"/>
    <path class="cls-3"
          d="M76.49,221.39c-.19,2.58,13.14,2.43,13.37,3.74s-13-1-14.26.72.18,6.59,1.39,7.53,10.53-2.14,10.8-.29-6.88.35-8.84,1.82.37,5.25,1.45,6,6.37-1.23,7.41.17-5.62.6-5.71,3.22a3.83,3.83,0,0,0,.33,1.68q.06.14.13.27h0a6.35,6.35,0,0,0,2.12,2.26s5.37-2.27,4.45.07-2.74,1.73-1,4.42a9,9,0,0,0,4,3.43h.2l.27.06a7.44,7.44,0,0,0,4.63-.54c2.62-1.25.8-1.85,1-4.42s3.84,2.69,3.84,2.69a5.17,5.17,0,0,0,2.8-.62l.23-.15a3.13,3.13,0,0,0,1-1.23c1.08-2.29-5-5.71-3.46-6.28s5.16,4.37,6.4,4.43a4.9,4.9,0,0,0,2.55-1l.21-.16a2.57,2.57,0,0,0,1.1-3c-1-2.46-7.8-5.6-6.75-7s7.65,7,9.09,6.91c.76,0,2-.94,3-2.13l.17-.21a4.65,4.65,0,0,0,1.27-3.23c-.31-2.21-12.61-8.43-11.84-9.41s12.09,7.38,13.06,5a25.45,25.45,0,0,0,1.27-3.37h0l.07-.27c1-4,.37-9.17-12.17-7-4.45-.07-2.9-3.61,7.75-3.25a21.65,21.65,0,0,0-1-4.25h0l-.11-.28c-.84-2.11-2.21-4-4.37-3.13-4.34,1.73-8.29,3.59-7.73,2.19s7.32-2.4,4.3-4h-.07a4.14,4.14,0,0,0-1-.35,8.58,8.58,0,0,0-5.31,1l-.23.12-.27-.45c-1-1.62-2.76-3.84-4.88-4.24h-.07a1.89,1.89,0,0,0-.81,0c-1.54.46,2.77,4.69,2.65,6.07-.14,1.54-2.69-2.48-5.64-6.65-1.39-2-3.26-1.38-4.85-.22l-.43.34a17.34,17.34,0,0,0-2.79,3c9.25,6.26,9,10.24,5.19,7.55-8.82-8.65-12-6.18-13.16-2.66l-.08.26h0A21,21,0,0,0,76.49,221.39Zm31-2c1.1.61-.09,1.13-.94,1.39a1.07,1.07,0,0,1-1.28-.66V220a.73.73,0,0,1,.06-.56,1.42,1.42,0,0,1,1.65-.29h0a3.13,3.13,0,0,1,.49.19ZM85.73,237.92a.47.47,0,0,1-.08-.42,1.51,1.51,0,0,1,.35-.61c1-1.19,3.92-2.46,4.23-.66a1.56,1.56,0,0,1,0,.26,1.38,1.38,0,0,1-.13.58,1.35,1.35,0,0,1-.73.7c-1.07.42-3,1-3.66.15Zm4.35,7.55a.87.87,0,0,1-1.17-.28,1,1,0,0,1-.09-.16.61.61,0,0,1,.3-.81l.06,0,.58,0a.74.74,0,0,1,.52.42.63.63,0,0,1-.22.86Zm20-10.12c1.38,1.08,2,1.92,2,2.48a.65.65,0,0,1-.23.48,2.42,2.42,0,0,1-1.6.37c-2.28,0-4.65-3.24-4.65-3.24a9.5,9.5,0,0,1-.85-1.19,4.74,4.74,0,0,1-.37-.75c-.2-.52-.23-1,.13-1.28,1-.77,2.81,1,5.59,3.13Z"/>
    <path class="cls-4" d="M105.17,195.69c0,.34-4.09,34.69-12.65,60.9l-.52-.22c8.54-26.15,12.6-60.46,12.6-60.8Z"/>
    <path class="cls-4"
          d="M82.38,246h0c4.76-3.49,11.78-2.36,13.2-2.08l.24,0-.07.54-.31-.06a23.46,23.46,0,0,0-5.75-.29l-.58,0a13.13,13.13,0,0,0-6.43,2.3l-.08-.27h0Z"/>
    <path class="cls-4" d="M95.6,245.76c.29.12,7.12,3.06,9.54,7.78l-.48.22c-2.31-4.51-9.16-7.45-9.23-7.48Z"/>
    <path class="cls-4"
          d="M90.24,236.45c3.69-.27,6.79-.36,7.29-.38h.07l.07.56h-.25c-.86,0-3.84.13-7.29.39A1.38,1.38,0,0,0,90.24,236.45Z"/>
    <path class="cls-4"
          d="M78.6,238.22A40.54,40.54,0,0,1,86,236.85a1.51,1.51,0,0,0-.36.61,37.48,37.48,0,0,0-6.83,1.29Z"/>
    <path class="cls-4"
          d="M99.2,239.42a22.61,22.61,0,0,1,12.64,9.9l-.47.24c-4.71-8.29-14.19-10.14-14.28-10.16l.05-.55A17.87,17.87,0,0,1,99.2,239.42Z"/>
    <path class="cls-4"
          d="M99.23,229.69v.54c-.15,0-15.47-2.82-23.6-.23l-.21-.53C83.6,226.84,99.08,229.66,99.23,229.69Z"/>
    <path class="cls-4"
          d="M111.83,238.22a.65.65,0,0,0,.23-.48,30.46,30.46,0,0,1,6.42,6h0l-.21.16-.21.16A29.55,29.55,0,0,0,111.83,238.22Z"/>
    <path class="cls-4"
          d="M98.85,231.39l.27.08.92.29q2.19.74,4.31,1.69a4.74,4.74,0,0,0,.37.75A45.6,45.6,0,0,0,99,232l-.25-.07Z"/>
    <path class="cls-4"
          d="M80.29,217.12c6.93,2.31,19.39,8.38,20,8.68l-.2.5c-.18-.09-17.85-8.7-22.94-9.46v-.55A20.63,20.63,0,0,1,80.29,217.12Z"/>
    <path class="cls-4"
          d="M112.31,228.22c3.87,1.29,7.74,2.82,10,4.39l-.27.45c-5.64-3.86-21.66-7.67-21.82-7.7l.07-.54A116.24,116.24,0,0,1,112.31,228.22Z"/>
    <path class="cls-4"
          d="M88,208.39l.43-.34c6.13,4.11,10.85,10.89,12.2,12.93l.39.61-.46.26-.07-.11C99.87,220.72,94.79,212.86,88,208.39Z"/>
    <path class="cls-4"
          d="M101.14,219.68l.33-.08c1.77-.4,10.11-2.22,15.23-1.87l.11.28h0v.28a46.36,46.36,0,0,0-9.89.81h0a1.42,1.42,0,0,0-1.65.29c-2.09.39-3.63.75-3.92.81h0Z"/>
    <path class="cls-4"
          d="M96.29,208.85a1.89,1.89,0,0,1,.81,0h.07a24.76,24.76,0,0,1,4.53,6.28l.38.74-.49.21V216C101.18,215.22,98.7,210.51,96.29,208.85Z"/>
    <path class="cls-4"
          d="M102.14,214.05l.33-.11a48.89,48.89,0,0,1,5.39-1.52,4.14,4.14,0,0,1,1,.35h.07a42.66,42.66,0,0,0-6.55,1.77h0Z"/>
    <path class="cls-5" d="M89.17,244.16a.93.93,0,0,1,.58,0Z"/>
    <path class="cls-1"
          d="M212.6,128.64a79.28,79.28,0,0,1-26.38-17.81c4.26,1,9.28-4.14,14-5.21-4.75-.13-12.9-.38-21.82-4a107.62,107.62,0,0,1-14.26-27C170.53,76.67,177,73,181.65,72.9A69.06,69.06,0,0,1,161,65.22a156,156,0,0,1-5.94-42.17,164.09,164.09,0,0,1,36.41,9.12c1.6,4.61,5,14.85,6.8,22a126.16,126.16,0,0,0,3.93-17.24,91.39,91.39,0,0,1,29.12,22.43,39.42,39.42,0,0,1-5.39,19.38s6-6.2,10.77-12.29c21.65,32.11,13,69.32,13,69.32C235.26,135.55,223,133,212.6,128.64Z"/>
    <path class="cls-2" d="M249.74,135.73c-6.45-16.51-33.26-52.79-90.25-109.51C159.49,26.22,214.45,89,249.74,135.73Z"/>
</svg>