<svg id="Слой_1" data-name="Слой 1" xmlns="http://www.w3.org/2000/svg" viewBox="0 0 775 985.39">
    <defs>
        <style>
            .cls-1{opacity:0.49;}.cls-12,.cls-15,.cls-2,.cls-20{fill:none;}.cls-11,.cls-18,.cls-2,.cls-20,.cls-21,.cls-3,.cls-4,.cls-5,.cls-7,.cls-9{stroke:#000;}.cls-11,.cls-12,.cls-14,.cls-15,.cls-17,.cls-18,.cls-2,.cls-3,.cls-4,.cls-5,.cls-7,.cls-9{stroke-linecap:round;stroke-linejoin:round;}.cls-11,.cls-12,.cls-14,.cls-16,.cls-18,.cls-2,.cls-20,.cls-21,.cls-3,.cls-4,.cls-5,.cls-7,.cls-9{stroke-width:8px;}.cls-3{fill:#474747;}.cls-13,.cls-5{fill:#9c9c9c;}.cls-11,.cls-6{fill:#d9d9d9;}.cls-10,.cls-7{fill:#129f58;}.cls-8,.cls-9{fill:#46c678;}.cls-12,.cls-14,.cls-15,.cls-17{stroke:#fff;}.cls-15,.cls-17{stroke-width:6px;}.cls-16{fill:#545454;stroke:#545454;}.cls-16,.cls-20,.cls-21{stroke-miterlimit:10;}.cls-18{fill:#090a0a;}.cls-19{fill:#fff;}
        </style>
    </defs>
    <title>sit</title>
    <ellipse class="cls-1" cx="389.5" cy="939.39" rx="385.5" ry="46"/>
    <path class="cls-2" d="M902,890c-19.37-11.84-104.38,7.53-173.25-10.76" transform="translate(-134 -31.61)"/>
    <path class="cls-3"
          d="M268.2,983.61c119.18,15.29,189.16.91,256.1,0,69.65-1,136,11.27,251.8,12.91,42-59.75-112.37-253.77-285.15-233.5C355.48,778.91,245.49,917.83,268.2,983.61Z"
          transform="translate(-134 -31.61)"/>
    <path class="cls-4"
          d="M580.26,992.22c78.55,0,124.82,8.61,182.93-14,41.72-16.23-58.3-136.78-122.67-121.59-35.78,8.44-70,51.39-65.64,91.46C575.62,954.81,564.73,992.22,580.26,992.22Z"
          transform="translate(-134 -31.61)"/>
    <path class="cls-4"
          d="M288.65,968.55c-3.29-.31-6.46-1.22-6.46-1.08,0,14,120.52,29.05,172.17,20.45,22.72-28-26.18-113.5-59.18-113C256.37,877.08,330.48,972.44,288.65,968.55Z"
          transform="translate(-134 -31.61)"/>
    <path class="cls-5"
          d="M529.76,353C334.36,355.65,311.4,774.86,311.4,774.86s-137.54,6.52-133.59,122.67c3.23,94.69,112.48,86,133.43,90.39,2.15-62.41,109.2-116.49,162.48-110.83,30.68,3.26,69.35,2.91,100.07,0C645.12,870.32,711.54,929.81,732,993.3c54.88,12.91,155.65-7.65,150.65-115.14-4.3-92.54-150.3-151.72-150.3-151.72S711.17,350.61,529.76,353Z"
          transform="translate(-134 -31.61)"/>
    <path class="cls-6"
          d="M289.72,943.8c-43.44,21.12-131.28-10.76-89.31-86.08,56.53-101.46,184.09-51,206.11-49.15,8.39.7,16.3-2.89,18.92-8.5,36-77.19,26.15-193.17,66.85-315.37,4.53-13.6,21.8-23.61,41.8-23.39a59,59,0,0,1,8.5.71c17.3,2.72,23.11,26.67,27.84,48.39C602.49,657.64,635,700.27,639,796.69c.24,5.81,20.29-71.51,28.42-70.25,11.32,1.74,224.18,36,201.22,177.55-6.46,39.81-65.71,53.16-73.17,45.19-63.49-67.79-209.32-93.14-282-94C459.82,854.53,317.7,863.1,289.72,943.8Z"
          transform="translate(-134 -31.61)"/>
    <path class="cls-5"
          d="M414.29,363.13c-81.61,34.61-120.86,202.2-143.59,353.8a96.77,96.77,0,0,1-34.21,60.2c-53.42,44.15-81.11,86-86.65,120.4,18.84-10.09,96.18-29,213.06-20.45,3.38-32.63,40.33-52.31,45.19-80.7C443.29,591,474.23,477.74,414.29,363.13Z"
          transform="translate(-134 -31.61)"/>
    <path class="cls-6"
          d="M170.28,890c6.82-83.61,76.4-92.54,160.33-148.5,24.39-16.26,52.73,5.38,75.32,26.9,1.91,71-37.25,23.2-43,105.45C326.93,874.94,232.69,860.94,170.28,890Z"
          transform="translate(-134 -31.61)"/>
    <path class="cls-4"
          d="M414.29,363.13c64.65,112.69,25,299.83-8.35,441.86-8.48,36.09-41.49,34.56-43,68.87-13.65-.84-42.11,1.15-51.65,1.08,3.55-49.52,51.87-59.16,60.26-95.77,36.33-158.62,60-250.49,10.48-404.66C388.77,372,399.82,367.72,414.29,363.13Z"
          transform="translate(-134 -31.61)"/>
    <path class="cls-5"
          d="M463.42,534.74c-23,111.12-28.66,238.39-37.67,262.46-12.41-15.34-41-102.28-30-170.06C404.55,573.09,445.84,541.5,463.42,534.74Z"
          transform="translate(-134 -31.61)"/>
    <path class="cls-5"
          d="M619,357.7c-44,107.89-4.85,295.82,44.1,412.86,27.5,65.76,38.74,26.9,65.64,108.68C798.7,894.3,873,875.84,902,890c-.42-51.27-42.88-97.56-118.59-149.47A87.85,87.85,0,0,1,746.2,681C722.14,519.89,677.75,365.84,619,357.7Z"
          transform="translate(-134 -31.61)"/>
    <path class="cls-6"
          d="M687.86,752.26c8.77-11.81,55,1,69.94,3.23,31.12,4.72,126.19,51.87,129.13,125.9-17.51-5.73-114.06,12.91-160.48-10.79C733.16,794.59,657.76,792.78,687.86,752.26Z"
          transform="translate(-134 -31.61)"/>
    <path class="cls-4"
          d="M619,357.7c12.76,4.64,13.92,4.85,27.08,10.73C602,473.42,656.87,631.79,705,759.11a77,77,0,0,0,12.22,21.29c32.29,39.78,59.9,67.66,55.61,104.21-3.95,1-7.27-4.09-44.12-5.38C726.6,829.74,681,820.8,665.27,777,621.29,654.74,570.38,481.19,619,357.7Z"
          transform="translate(-134 -31.61)"/>
    <path class="cls-7"
          d="M258.42,822.1a1134.8,1134.8,0,0,1,135.5-3.69c5.37.18,13.79,9.76,19.61,6.76,4.36-2.25-3.43-12.23-3.11-20.27.38-9.61,8-17.51,2.91-20.47-5.41-3.13-13.46,3.49-16.7,5.32-47.73,6.88-105,8.8-144-14.74C243.58,784.8,246.22,811,258.42,822.1Z"
          transform="translate(-134 -31.61)"/>
    <path class="cls-8"
          d="M287.29,809.35c-8.76-1-11.65-.63-15-3.12-4.62-3.45-7.52-10.49-5.5-13.26,2.64-3.62,13,.94,23.7,4.49,13.45,4.46,43.06,7.47,69.16,2.4,23.43-4.55,23.67,0,45.36-8.64.68.89.77,2.54.95,5.85.38,7.06-1.85,8.79-.76,13.26s4.17,6.32,3.41,7.41-4.45-.48-7.77-1.56c-3.8-1.24-8.73-1.6-18.58-2.34-13.41-1-21.5.78-39.82.78a324.77,324.77,0,0,1-39.63-2.73C293.87,810.64,294.9,810.23,287.29,809.35Z"
          transform="translate(-134 -31.61)"/>
    <path class="cls-7"
          d="M432.53,827c-8.71-3.28-9.39-35.7-.52-39.58,3.49-1.53,7.59,1.72,11.66,4.9a7.63,7.63,0,0,0,4,1.59c36.33,3.36,71.23,3.81,107.94,8.27A20.14,20.14,0,0,0,567,800.25c4-2,8.88-3.77,10.71-1.75,5.69,6.28-1.48,9.64-1.36,19.93.13,11.47,6.47,18.15,2,21.21-4.12,2.82-7.56.87-10.5-1.89a24.85,24.85,0,0,0-14.93-6.82c-44.35-3.65-71.48-4.87-103.39-8.14A15.77,15.77,0,0,0,439,825.37C436.84,826.81,434.61,827.81,432.53,827Z"
          transform="translate(-134 -31.61)"/>
    <path class="cls-8"
          d="M432.45,819.73a12.65,12.65,0,0,1-2.28-6.42c-.79-7.9-1.38-13.8,1.9-16.23,2.91-2.15,7.48-.55,9.13,0,27.27,9,80.92,2.87,106.74,9.43,2.79.71,6.4,1.86,10.85.75,5.66-1.4,8.74-5.47,11.23-4.15,1.33.71,1.62,2.51,1.9,4.34,1,6.16-2.57,7.76-2.09,12.83.52,5.5,5,7.19,3.81,11.32-.45,1.55-1.68,3.34-3,3.4-1.84.07-2.41-3.1-5.52-5.47-1.92-1.47-3.89-1.93-7.23-2.45-7.37-1.16-11-1.74-15.79-1.51-20.19,1-89.36-13.18-100.08-5.47-.66.48-3.85,3-6.66,2.08A6.13,6.13,0,0,1,432.45,819.73Z"
          transform="translate(-134 -31.61)"/>
    <path class="cls-7"
          d="M601.66,838.65c-9-4.26-8.3-36,1.36-40.13,4.24-1.81,8.24,5.12,13.39,5.12,39.8,0,78.43-3.07,112.6-3.07,8.2,0,11.34-9.81,15.72-8,9.86,4.12,10,39.21.39,43.2-4,1.69-7.33-6.55-13.78-6.55-39.21,0-76.49,3.28-115.12,3.28C610,832.51,605.86,840.64,601.66,838.65Z"
          transform="translate(-134 -31.61)"/>
    <path class="cls-8"
          d="M605.89,828.27c-1-.08-2-.74-3.25-3-3-5.53-4.11-16,1.34-18.18,2.15-.86,3.29.37,11.1.93,3.26.23,5.37.18,8.61.16,36.24-.32,72.81-6,108.69-1.87a11.13,11.13,0,0,0,5-.31c3.64-1.2,4.29-4.12,5.93-4,2.3.11,3.6,5.92,3.83,7,1.56,7.31.68,16.68-2.87,17.25-1.34.22-1.84-1-5-2.18A22.67,22.67,0,0,0,729.9,823c-9.75.42-106.47,2.48-113.86,2.18a12.29,12.29,0,0,0-4,.31C608.67,826.36,607.73,828.42,605.89,828.27Z"
          transform="translate(-134 -31.61)"/>
    <path class="cls-9"
          d="M257.37,782.4c-7.07,3.3-27.58-10.76-33.62-30.48-9.08-29.6,16.9-40,13.5-72.83C251.39,678.89,292.13,733.4,257.37,782.4Z"
          transform="translate(-134 -31.61)"/>
    <path class="cls-10"
          d="M256.24,780.94c-24.61-32.8,1.53-68.14-17-98.79A1.45,1.45,0,0,1,241,680c16.11,7.28,47.65,56.07,17.46,100.8A1.37,1.37,0,0,1,256.24,780.94Z"
          transform="translate(-134 -31.61)"/>
    <path class="cls-2"
          d="M258.69,782.88c-7.07,3.3-27.58-10.76-33.62-30.48-9.08-29.6,16.9-40,13.5-72.83C252.7,679.37,293.45,733.89,258.69,782.88Z"
          transform="translate(-134 -31.61)"/>
    <path class="cls-2" d="M255.54,784c-22.29-31-8.85-49.32-11-69.58" transform="translate(-134 -31.61)"/>
    <path class="cls-5"
          d="M598.55,631c9,57.46,15.56,222.08,29.48,222.08,12.53-52.46,69.94-90.61,35.21-159.19C649.13,666.06,614.23,620,598.55,631Z"
          transform="translate(-134 -31.61)"/>
    <path class="cls-4"
          d="M601.78,630.67c-4.21-.46-46.46,15.16-75.32,45.19,0,0-32.28-14-39.81,30.13-1.43,8.38,2.15,30.13,16.14,40.89,17.38,26.76,56.53,34.12,85,24.75,24-7.88,34.93-22,40.89-30.13,6.17-8.4,32.48-44.23,17.22-75.32C632.47,638.82,610.52,631.63,601.78,630.67Z"
          transform="translate(-134 -31.61)"/>
    <path class="cls-11"
          d="M619,357.7c47.5,14.75,90.37,47.82,129.39,111,26.74,43.32,40.95,83.86,18,136.67C716.12,721.26,676.33,738.75,628,853.11,657.36,758.77,648.5,672.18,598.55,631c34.4-25.63,56.51-50.86,76.16-87-18-16.31-24.57-27.18-24.57-58.24"
          transform="translate(-134 -31.61)"/>
    <path class="cls-4"
          d="M428.54,593c2.71-9.48,19.31-23.43,45.19-48.42,15.71-15.17,45.08-47.24,68.87-48.42,24.6-1.22,17.22,33.36,17.22,33.36s26.9,3.23,18.29,34.43a135.39,135.39,0,0,1-7.53,19.37s21.49,16.93,0,35.51c-39.81,34.43-142.06,32.82-155,21.52C394.48,621.84,424,609,428.54,593Z"
          transform="translate(-134 -31.61)"/>
    <path class="cls-11"
          d="M414.29,363.13c-13.46,3.4-105.68,33.94-165.92,99.23-24.06,26.08-30,63.33-14.45,94.69C267.6,625.12,361.43,702.47,425.75,797.2c-36.58-62.12-1.64-194.13,37.67-262.46-25.39,0-45.86-5.44-90.9-14,6.55-14.75-12.28-31.06-27.84-37.27"
          transform="translate(-134 -31.61)"/>
    <path class="cls-4"
          d="M373.81,377.92c11.05-4.58,24.94-9.83,40.48-14.79C421.1,376,421.1,376,426.89,388.87c-4.56,9-25.68,18-35.5,17.45C384.5,390.62,382.31,389.62,373.81,377.92Z"
          transform="translate(-134 -31.61)"/>
    <path class="cls-4"
          d="M619,357.7a269,269,0,0,1,27.08,10.73c-5.95,16.31-7.08,20.06-13.64,51.2-9.06,1.79-22.52-4.56-27.22-9.82C609.82,386.77,611.19,381.47,619,357.7Z"
          transform="translate(-134 -31.61)"/>
    <path class="cls-12" d="M375.47,1008.78" transform="translate(-134 -31.61)"/>
    <path class="cls-12" d="M465.79,948.28" transform="translate(-134 -31.61)"/>
    <path class="cls-2" d="M531.7,623" transform="translate(-134 -31.61)"/>
    <path class="cls-2" d="M619,564.25" transform="translate(-134 -31.61)"/>
    <path class="cls-13"
          d="M372.52,520.76c-16.39.55-30.06-6.33-39.75-8-18.5-3.11-21.15-4.16-32.91-7.47-38.22-10.74,2.19-15.92,6.41-16.53,7.75-1.13,13,.76,14.88-1.07,1.41-1.41-1.71-4.66-3.28-11.91-1-4.64-2.05-9.48.27-13.2,4.11-6.57,16.37-5.88,19.65-5.69,8.86.5,37.87,11.47,41.49,14"
          transform="translate(-134 -31.61)"/>
    <path class="cls-2" d="M372.52,520.76a34.37,34.37,0,0,0,.22-15.68c-5-22.16-31.53-30.86-33.85-31.58"
          transform="translate(-134 -31.61)"/>
    <path class="cls-2" d="M372.52,520.76c-16.3-1.7-34-7.27-50.68-10.12" transform="translate(-134 -31.61)"/>
    <path class="cls-13"
          d="M227.65,510.64s13.93,24.62,41.77,53.84c19.77,20.75,42,44.1,77,58.24a339.81,339.81,0,0,0,72.9,20.19c-10,44.78-16.53,88.81-2.75,137.83C390,744.41,336.38,686.09,297.4,641.23c-21.82-25.12-39-46.74-44.36-56.17C227.92,551.16,224.4,523.86,227.65,510.64Z"
          transform="translate(-134 -31.61)"/>
    <path class="cls-2" d="M305,613.79a193.8,193.8,0,0,0,23.75,16.31,202,202,0,0,0,54.46,21.74"
          transform="translate(-134 -31.61)"/>
    <path class="cls-13"
          d="M646.84,545.85c.2.09-8.67-84.74-7.95-85.2,2.17-1.39-5.77-14.58,6.53-4.13,5.31,4.51,13.13,7.91,17.21,15.43,4.61,8.5,1.8,13.2,7.1,19.15,7.39,8.3,17.65,4.52,23.48,11.91,6.14,7.79,1.66,19.23,1.09,20.71-4.43,11.6-22.19,23.7-20.06,19.92"
          transform="translate(-134 -31.61)"/>
    <path class="cls-2" d="M673.84,545.85c2.72-6.32,9.61-16.31,8.72-27.18" transform="translate(-134 -31.61)"/>
    <path class="cls-2" d="M668.64,497.7a104.94,104.94,0,0,0-1,28.15c.65,6.89,4.63,14.75,6.22,19.22"
          transform="translate(-134 -31.61)"/>
    <path class="cls-2" d="M645.31,471.89a91.16,91.16,0,0,0,4.5,41.93c7.58,20.92,17.48,26.85,23.16,33.39"
          transform="translate(-134 -31.61)"/>
    <path class="cls-13"
          d="M640.58,698.31s118.51-90.16,135.35-151.11c4.91,40.57-28.39,93.25-34.94,106.58-2.74,6.71-14.66,27.39-31.12,52.67C686.64,742.12,655.35,788.37,636.4,830,642.95,805.77,653.42,750.46,640.58,698.31Z"
          transform="translate(-134 -31.61)"/>
    <path class="cls-2" d="M663.73,702.83a203.53,203.53,0,0,0,30.85-25.63A196.64,196.64,0,0,0,723,640.71"
          transform="translate(-134 -31.61)"/>
    <path class="cls-2"
          d="M414.29,362.57c-13.46,3.4-105.68,33.94-165.92,99.23-24.06,26.08-30,63.33-14.45,94.69,33.68,68.06,127.52,145.42,191.84,240.15-36.58-62.12-1.64-194.13,37.67-262.46-25.39,0-70.89-7.59-90.8-13.16"
          transform="translate(-134 -31.61)"/>
    <path class="cls-2" d="M650.14,484.32" transform="translate(-134 -31.61)"/>
    <path class="cls-2"
          d="M619,356.2c47.5,14.75,90.37,47.82,129.39,111,26.74,43.32,40.95,83.86,18,136.67C716.12,719.76,676.33,737.25,628,851.62c29.34-94.35,20.47-180.93-29.48-222.08,34.4-25.63,56.51-50.86,76.16-87"
          transform="translate(-134 -31.61)"/>
    <path class="cls-2" d="M149.84,897.53c18.84-10.09,96.18-29,213.06-20.45" transform="translate(-134 -31.61)"/>
    <path class="cls-4"
          d="M563.14,815.76c-10.51-.18-31.33,2.21-36.22,23.81-3.23,14.28,2.36,28.67,2.21,29-5.14,6.06-6.29,30.7-1,42.43-.1-.26-3.25,15.09-1.12,29,8.34,44.84,47.5,56.82,75.24,51.9C632.12,973.3,624.74,816.81,563.14,815.76Z"
          transform="translate(-134 -31.61)"/>
    <path class="cls-12" d="M542,917.24" transform="translate(-134 -31.61)"/>
    <path class="cls-14" d="M528.55,866.42c6.94-8.08,31.21-15.33,48.28-3.68" transform="translate(-134 -31.61)"/>
    <path class="cls-14" d="M527.61,910.74c6.94-8.08,31.21-15.33,48.28-3.68" transform="translate(-134 -31.61)"/>
    <path class="cls-2" d="M468.6,380.77" transform="translate(-134 -31.61)"/>
    <path class="cls-2" d="M466.44,392.6" transform="translate(-134 -31.61)"/>
    <path class="cls-2" d="M471.82,380.77" transform="translate(-134 -31.61)"/>
    <path class="cls-4"
          d="M485.17,816.85c10.5.43,31.15,4,34.78,25.86,2.4,14.44-4,28.49-3.88,28.79,4.78,6.35,4.51,31-1.45,42.42.12-.25,2.37,15.25-.56,29-10.92,44.28-50.7,54-78.11,47.47C407.21,970.15,423.61,814.35,485.17,816.85Z"
          transform="translate(-134 -31.61)"/>
    <path class="cls-14" d="M517,868.36c-6.46-8.47-30.27-17.1-48-6.46" transform="translate(-134 -31.61)"/>
    <path class="cls-14" d="M515.35,912.66c-6.46-8.47-30.27-17.1-48-6.46" transform="translate(-134 -31.61)"/>
    <path class="cls-15" d="M564.12,525.24c-21.52-10.76-58.33,19.88-60.26,24.75" transform="translate(-134 -31.61)"/>
    <path class="cls-15" d="M576,582.28c-28-23.67-63.71.51-65.64,5.38" transform="translate(-134 -31.61)"/>
    <path class="cls-16"
          d="M554.68,663.74c-.49,1.1-4.58,10.51-2.47,21,3.2,15.88,19.41,28.12,35.95,29.15,3,.19,19.12,1.19,28.51-10.77,11.54-14.7,1.6-34.57,1.18-35.38-7.08-13.62-20.6-17.65-23.89-18.64-2.67-.8-19.85-5.92-31.55,3.79A28.63,28.63,0,0,0,554.68,663.74Z"
          transform="translate(-134 -31.61)"/>
    <path class="cls-13"
          d="M566,655.48c-3.79,3.56-8.21,7.7-8.91,13.84-.9,7.92,4.93,14.23,8.91,18.53,3.68,4,18,19.47,35.66,15.17,1.62-.4,13.75-3.55,18.49-14.7,6.15-14.45-5.87-28.75-7.58-30.73-1.43-1.65-12.31-13.78-27.65-12C575.42,646.67,569.16,652.53,566,655.48Z"
          transform="translate(-134 -31.61)"/>
    <path class="cls-17" d="M553.36,708.14a27.69,27.69,0,0,0-14-7.53,28.27,28.27,0,0,0-32.28,36.59"
          transform="translate(-134 -31.61)"/>
    <path class="cls-17" d="M586.72,727.51a27.69,27.69,0,0,0-14-7.53,28.27,28.27,0,0,0-32.28,36.59"
          transform="translate(-134 -31.61)"/>
    <path class="cls-17" d="M628.68,688.77c-4.56-2.8-58.11-16.16-58.11,20.45,0,22.6,29.45,34.18,42,31.21"
          transform="translate(-134 -31.61)"/>
    <path class="cls-17" d="M539.37,695.23c2.15-10.76-7.53-24.75-22.6-23.67" transform="translate(-134 -31.61)"/>
    <path class="cls-18"
          d="M362,220c-18.42-8.23-22.7-22.48-20.93-24.78,0,0,12,5.22,14.42,2.81,5.65-5.52-49.1-21.91-46.72-70,1.23-24.85,14.89-50.45,24.46-59.22.82-.75,1.39-10.29,4.15-13.5,1.41-1.64,7.88,4.34,7.76,2.73-.31-4.29,1-11,7.68-13.35,2.4-.85,1.93,11,8.62,13.19.94-4.06,2.23-6.68,5.25-8,4.15,4.37,1.3,4.75,7,8.35,12.23,5.93,32.06,25.06,53.3,41.21,28.45,3.8,67.75-26.75,85-22.31a2,2,0,0,1,1.38,2.67c-2.25,6.52-14,13.16-14,13.16,4.55,8.54,34.1-25.84,72.74-13.82.93,2.23-18.79,10.36-17.56,15,22,2.58,29.22,2.51,35.9-.12,16.64-8.67,24.1-41.45,48.79-46.36,4.43-4.82,8-9.07,10.23-8.23,2.55,1,.41,6.49,3.1,6.44,1.29-.08,5.06-6,6.39-10.23,10.66.47,8,14.52,9.41,14.48,2,0,4.12-4.57,4.7-5,2.24,0,4.28,7.65,5.64,16.55,22,26.17,54.4,77.75-6.11,119.27-.32,8,11.3,1.25,18.34,0-3.27,16.86-23.75,30.24-24,34.21"
          transform="translate(-134 -31.61)"/>
    <path class="cls-11"
          d="M306.93,315.16c19.44-15.3,34.8-34.66,48.6-76.18,16.11-48.5,47-139.25,156.46-139.25,132.16,0,143,70.72,171.19,173.75,7.48,27.32,22.34,36.53,40.21,37.35-3.44,6.87-10,8.9-15.29,9.48,4.35,8.43,6,13.11,2.23,21.19-2.23-8.08-12.11-12.61-12.11-12.61-2.35,27-26.81,40.12-64.59,61.82-6.5,3.73-50.46,47.81-102.22,47.84-74.62,0-113.62-39-124.55-46.36C386,380,354.59,377.61,328.57,338.89c-4.25,1.46-6.9.94-14.11,6.87-2.41-3.17-.31-13.11,8.15-21.86C313.83,323.9,306.93,319.22,306.93,315.16Z"
          transform="translate(-134 -31.61)"/>
    <path class="cls-19"
          d="M340.06,328c-3.72-1.14-6.25-9.27-4.16-19.43a26.48,26.48,0,0,1,5.52-11.33c16-19.56,20.76-30.83,28.39-50.88,1.54-4,3.31-8,5.18-11.88q2.11-4.38,3.79-8.95c10.93-29.57,18.1-49.3,29-61.77,20.73-17,35.31-11.75,34.18-14.36-3.65-7-17.87-8.43-17.87-8.43,3.37-9.44,44.05-1.13,55.81-4.37-5.51-7-13.4-8.82-11.6-12.8,0,0,23.9,10.8,52,9.68a181,181,0,0,0,44.21-7.81c1.67,3-4.33,7.57-6.27,13.11,10,5.85,49-3.15,50.79,2.5,0,0-11.37,4.29-13.13,8.51,10.68,3.46,16.23,5.37,23.25,8.82a39.84,39.84,0,0,1,17.36,16.21c12.1,21.75,7.61,52.44,31.15,99.46,10.47,20.91,26.89,35.79,23.52,44,0,0-8.27-8-16-9.37-.23,5.65,6.43,21.63,3.76,23.1,0,0-4.72-4-9.09-5.31.12,6-.39,12.63-3.76,19-4.25,8.09-29,26.37-52,27.59a29.1,29.1,0,0,0-17.83,6.92c-8.38,7.39-21.81,11.61-31.69,4.19-1.41-1.06,8.75-1.9,14-5.49-3.84-3.9,2.79-3.38,1.14-4.56,6-6.4-6.13.42-6.29-4.42-42.31,16.37-56.35-36.88-56.35-36.88s-13.74,65.81-62.34,23.07c.25,3.41,4.28,12.19,3.16,13.83-4.35-1.87-7.46,1.9-10.1,5,10.73.63,21.61,5.48,19.57,6.91C444,398.29,447.89,380.06,421.9,371c-22.18-7.7-32-8.12-42.83-12.42A28.08,28.08,0,0,1,361.2,335c-.07-.79-.11-1.58-.13-2.38-3.11-.6-5.68,2.34-8.15,6.56-2.59-1.08-.47-18,1.88-23.42C343.75,316.59,340.92,327.48,340.06,328Z"
          transform="translate(-134 -31.61)"/>
    <path class="cls-20" d="M723.39,310.83c-3.44,6.87-10,8.9-15.29,9.48" transform="translate(-134 -31.61)"/>
    <path class="cls-20" d="M683.18,273.48" transform="translate(-134 -31.61)"/>
    <path class="cls-2" d="M504.46,91.3" transform="translate(-134 -31.61)"/>
    <path class="cls-2" d="M513.79,77.72" transform="translate(-134 -31.61)"/>
    <path class="cls-2" d="M427,99.42" transform="translate(-134 -31.61)"/>
    <path class="cls-6"
          d="M412.31,304.28c-.83-6,.68-7.3,2.79-7.91,2,5.83,9.27,16.31,17.21,17,3.56-10.69,32.49-19.48,36.42-20.58,1.17,1.69-2.55,6.3-2.17,6.59,12.81.77,24.9-28.25,29.76-32.53,4.65,2.5,14,28.91-2.48,46.71,9.37,13.78,39.43,13.71,47.74.66-14.57-21.87-8.36-44.1-4.55-46.38,4.34,1.65,18.7,27.81,32.45,35.83-1.86-5.39-1.19-6.95.31-7.91,3.72,4.4,22.84,27,35.34,30.33,10.64-6.37,15.64-22.45,18.91-21.1,2,.83,2,6.26,1.55,9.23,4.65-2.09,22.44-20.22,22.32-44.51-.16-30.24-30.94-56.44-57.66-57.7-24.92-1.17-41.33,7.8-51.36,14.73-4.44-8.46,6.72-22,6.72-22-2.18-2-10.64-1.1-18.5,6,.1-4.73-6.67-19.4-10-18.9s-6.92,10.66-9.51,19.56c-1.76,1.32-7.54-10.11-18.29-6.59,6.3,7.69,11.4,18.23,8.58,22.31-8.89-6.81-19.54-11.85-39.37-13.52-30.07-2.53-65.93,20.14-70.15,47.26C384.59,285,408,306.08,412.31,304.28Z"
          transform="translate(-134 -31.61)"/>
    <path class="cls-21"
          d="M538,236.92a25.42,25.42,0,0,0,.79,13c2.37,6.81,6.76,9.19,14.77,18,17.25,18.91,25.88,28.36,38.49,28.45,13.8.1,27-10.26,32.65-22.65,4-8.68,5-17.26,3.26-24.58-2.83-12-11.55-22.32-21.82-29.17-16.29-10.86-36.78-16.83-47.34-12.73C547.56,212.52,540.45,223.76,538,236.92Z"
          transform="translate(-134 -31.61)"/>
    <path class="cls-21"
          d="M519.1,358.54c-1.21,0,1.23-16.4-7.09-25.84-2.6-3-5.15-4.94-15.55-9.19C488.85,320.4,480,316.93,479,311c-.68-12.1,18.86-16.8,38.1-17.42s39.85,3.77,39.85,15.48c0,6.1-6,7.74-15,12.39-7.39,3.84-11.89,5.32-16.13,10C517,341.06,520.32,358.57,519.1,358.54Z"
          transform="translate(-134 -31.61)"/>
    <path class="cls-19"
          d="M496.35,301.73c-.19-1.5,9-4.94,21.57-4.94,14,0,22.07,2.88,22,4.45C539.72,304.2,496.72,304.65,496.35,301.73Z"
          transform="translate(-134 -31.61)"/>
    <path class="cls-21"
          d="M497.73,236.92a25.42,25.42,0,0,1-.79,13c-2.37,6.81-6.76,9.19-14.77,18-17.25,18.91-25.88,28.36-38.49,28.45-13.8.1-27-10.26-32.65-22.65-4-8.68-5-17.26-3.26-24.58,2.83-12,11.55-22.32,21.82-29.17,16.29-10.86,36.78-16.83,47.34-12.73C488.2,212.52,495.31,223.76,497.73,236.92Z"
          transform="translate(-134 -31.61)"/>
    <path class="cls-6"
          d="M576.12,314.33c.74-1.35,11.34,2.5,19.57,7.54,4.32,2.65,7.8,5.36,9.91,9.16,5.93,10.66,6.37,27.14,6.31,26.4-.63-8.17-8.21-25.14-13.89-27.66.44,2.87,11.36,12.57-3.6,58.1-.19.36,8-43.46-4.42-61.6C584.55,318.31,575.45,315.56,576.12,314.33Z"
          transform="translate(-134 -31.61)"/>
    <path class="cls-6"
          d="M459,314.33c-.74-1.35-11.34,2.5-19.57,7.54-4.32,2.65-7.8,5.36-9.91,9.16-5.93,10.66-6.37,27.14-6.31,26.4.63-8.17,8.21-25.14,13.89-27.66-.44,2.87-11.36,12.57,3.6,58.1.19.36-8-43.46,4.42-61.6C450.54,318.31,459.65,315.56,459,314.33Z"
          transform="translate(-134 -31.61)"/>
    <path class="cls-2"
          d="M449.06,328.52c-1.26,19.49,8.71,29.73,9.32,30.68,10.54,16.56,29.22,17.26,40.76,13.41a45.42,45.42,0,0,0,19.13-12.49"
          transform="translate(-134 -31.61)"/>
    <path class="cls-2"
          d="M589.82,333.55c0,33.31-26.51,40.07-27.45,40.28a45.77,45.77,0,0,1-24.28-1.22c-10-3.35-16.15-10.83-19-13.92"
          transform="translate(-134 -31.61)"/>
    <path class="cls-11"
          d="M540.42,204.5c-1-1.23-4.9-6.05-4.42-10.94,1.18-12,27.59-13.72,32.78-14.07,42.83-2.86,63.75,31.79,111.86,48.72,51.95,18.28,91.55.4,92.22,4.7.61,3.91-33.06,12.57-77.62,12.11-47.57-5.66-55.58-14-87.57-28.49-10.84-4.92-22.25-6.63-33.17-4.73C562,214,548.76,214.8,540.42,204.5Z"
          transform="translate(-134 -31.61)"/>
    <path class="cls-11"
          d="M491.29,344.2c-.16-5.72-6.35-9.71-8-10.77-15.13-9.75-39.89,0-67.72,17.33-54.09,33.72-73.59,45-79.38,47.3-57.12,23.07-107.3,13.64-116.27,12.64-32.06-3.57-54.78-13.89-55-13.11-.29.93,31.77,16.71,74.31,22,44.3,5.52,79-2.93,100.65-8.43,12.89-3.27,71.12-30.89,80.89-35.69C463,354.72,491.6,355.11,491.29,344.2Z"
          transform="translate(-134 -31.61)"/>
    <path class="cls-19"
          d="M478.72,339.2c-1.89-2.51-5.1-4-8.84-4.4-11.11-1.11-23.23,3.48-25.25,4.4-20.4,9.28-35.37,21.58-37.87,23.26-3.94,2.64-21.84,16.39-42.29,27.66-15.81,8.71-26.81,12.76-41,17.6-32.31,11-58.4,7.77-58.37,8.33s20.73,1.59,47.27-3.06c25.66-4.49,43-13.76,49.61-16.58,11.74-5,20.22-11.39,37.24-20.74,5.31-2.92,17.63-11.69,33.45-18.86,9-4.1,15.46-6.35,20.2-7.54,9.07-2.28,14.36-1.54,17.67-1.89,4.87-.51,6.67.16,8.84-2.51C480.88,343,480.2,341.16,478.72,339.2Z"
          transform="translate(-134 -31.61)"/>
    <path class="cls-11"
          d="M549.61,398.57c-7.3-9.43-8.31-10.23-10.29-11.33-8-4.42-19.83-3.45-27.33,2-5.62,4.11-5.05,7.84-11.76,11.61-5.11,2.87-8.41,2.36-13.17,3.71-9.69,2.75-15.41,10.33-20.22,16.71-14.2,18.82-21.69,49.42-23.52,56.17-8.79,32.51-32.49,52.9-54.09,71.49-57.77,49.72-151.66,61.62-214,32-16-7.61-35.66-20.67-37.15-18.57-1.68,2.35,20.09,22.78,40,35.75,57.51,37.51,149.19,45.25,217.28,8.82,36.11-19.32,62-49.11,66.78-44.57,2.93,2.76-4,16.1-12.7,25.53-17.63,19.14-42.31,22-41.86,23.68s16.17.88,34.8-6.5c20.55-8.14,33.44-20.37,51.26-37.6,15.64-15.12,25-24.19,35.27-39.46,11.75-17.49,21.55-31,32.22-62.67,9.75-29,6.07-42,1.18-50.14C561.44,413.84,557.5,408.75,549.61,398.57Z"
          transform="translate(-134 -31.61)"/>
    <path class="cls-19"
          d="M500.82,409.6c-1.46-2.06-10.37.74-12,1.26-8.78,2.78-11.43,7.07-13.05,9.24-12.38,16.54-23,49.62-31,67.38-9.26,20.41-19.1,36.24-27.24,45.32-25.13,28-51.06,42-65,48.4C337,588.28,280,618.85,216.14,601.31a426.91,426.91,0,0,1-41-13.2s7.32,4.2,29.67,14.46a301.77,301.77,0,0,0,39.61,13.71c56.9,15.3,111.37-1.38,117.11-3.21,8.11-2.59,50.7-16.72,87.95-55,31.66-32.55,45.2-67.9,49.38-66,3.57,1.62-1.44,28.81-3.68,35.08-5.3,14.81-6.87,23.51-20.2,39.6-11.26,13.6-20.71,24.52-20.2,25.14.65.79,8.25-8,25.74-23.73,14.86-13.35,24.38-26.19,42.8-51.34,24.24-33.08,28.87-44.38,31.51-53.17a93.3,93.3,0,0,0,1.88-37.13c-.68-4.48-1.89-12-4.7-12.38-1.21-.14-4.06.89-9.88,17-10.88,30.08-10.53,53.1-13.17,53.17-2,.05-4.6-13.16-5.64-27-2.09-27.73,15.25-63.31,11.63-64.6-4.64-1.66-29,21.51-38.91,60.47-5,19.72-7.61,22.4-14.11,37.13-14.59,33-37.76,54.51-39,53.63-.9-.63,8.45-13,24-42.17,13.82-25.9,14.22-56.53,16.93-65.55C488.66,419.87,503.19,412.94,500.82,409.6Z"
          transform="translate(-134 -31.61)"/>
    <path class="cls-11"
          d="M543.5,338.58c2-6.05,11.54-7.71,13.17-8,8.63-1.33,15.63,2.63,18.34,4.21,4.94,2.88,14.46,10,22.1,32.31,3.71,10.83,12.11,35.59,5.64,62.76-14.89,62.56-95.95,84.16-110.52,88-38.88,10.36-66.78,3.38-72.43,1.87-17.57-4.68-33.38-13.27-32.92-14.52s16,5.52,37.62,8.43a158.65,158.65,0,0,0,57.85-2.81c35.8-9,58.94-26.34,64.43-31.61,12-11.56,27.89-28.23,32.22-50.81,1.32-6.87,4.79-28.73-5.58-46.13-3.06-5.14-13-18-24.29-29.74C545.34,348.68,542,343.3,543.5,338.58Z"
          transform="translate(-134 -31.61)"/>
    <path class="cls-19"
          d="M552.58,343c-.42-2.54-.19-3.26,0-3.77,1.89-5,9.6-3.59,16.41,0,21.46,11.31,33.69,45.67,30.3,74.17-4.25,35.74-26.14,58.79-33.92,65.47-8,6.84-14.83,10.52-24.46,15.69-35.28,18.93-65.69,22.59-65.84,22s40.08-3.53,76-32.31c10.33-8.29,27.2-20.53,33.75-41.94,5.47-17.89,6.48-35.15,4.42-46.51-3.12-17.18-7.21-27.33-14.52-34.57C565.39,352,554.28,353.17,552.58,343Z"
          transform="translate(-134 -31.61)"/>
    <path class="cls-11"
          d="M495.63,204.5c1-1.23,4.9-6.05,4.42-10.94-1.18-12-27.59-13.72-32.78-14.07-42.83-2.86-63.75,31.79-111.86,48.72-51.95,18.28-91.55.4-92.22,4.7-.61,3.91,33.06,12.57,77.62,12.11,47.57-5.66,55.58-14,87.57-28.49,10.84-4.92,22.25-6.63,33.17-4.73C474.09,214,487.29,214.8,495.63,204.5Z"
          transform="translate(-134 -31.61)"/>
    <path class="cls-19"
          d="M488.82,189.61c-9.58-4.09-17-4.4-25.25-3.77-27.95,2.14-37.8,8.77-67.54,27C361.58,234,346.89,235.75,331.65,238c-12.71,1.88-24,.46-24,.63s24,3.82,52.39-3.14c11-2.7,24-7.85,50-19.5,43.43-19.47,53.46-14.4,66.15-14.44,11.29,0,14,1.35,15.77-2.26C493.87,195.4,493.24,191.49,488.82,189.61Z"
          transform="translate(-134 -31.61)"/>
    <path class="cls-19"
          d="M548,189.61c9.58-4.09,17-4.4,25.25-3.77,27.95,2.14,37.8,8.77,67.54,27,34.46,21.15,50,23.51,65.19,25.77a95.49,95.49,0,0,0,23.09.3c.26,1.58-23.1,4.15-51.5-2.82-11-2.7-24.8-8.48-50.8-20.13-43.43-19.47-53.46-14.4-66.15-14.44-11.29,0-14,1.35-15.77-2.26C542.94,195.4,543.56,191.49,548,189.61Z"
          transform="translate(-134 -31.61)"/>
    <path class="cls-19"
          d="M481,248a11.93,11.93,0,0,1-2.61,4.75,18.38,18.38,0,0,1-4.25,3.52A28.68,28.68,0,0,1,463.84,260,33.29,33.29,0,0,1,453,260a21.68,21.68,0,0,1-10-4,37.56,37.56,0,0,0,10.2,1.68,52.52,52.52,0,0,0,10.15-.68,40.27,40.27,0,0,0,9.69-2.79A19,19,0,0,0,481,248Z"
          transform="translate(-134 -31.61)"/>
    <path class="cls-19"
          d="M557,248a19,19,0,0,0,8,6.21,40.27,40.27,0,0,0,9.69,2.79,52.52,52.52,0,0,0,10.15.68A37.56,37.56,0,0,0,595,256a21.68,21.68,0,0,1-10,4,33.29,33.29,0,0,1-10.87,0,28.68,28.68,0,0,1-10.29-3.69,18.38,18.38,0,0,1-4.25-3.52A11.93,11.93,0,0,1,557,248Z"
          transform="translate(-134 -31.61)"/>
</svg>