<svg xmlns="http://www.w3.org/2000/svg" viewBox="0 0 941.83 372.56">
    <defs>
        <style>.cls-1{font-size:80px;font-family:MyriadPro-Regular, Myriad
            Pro;}.cls-1,.cls-2,.cls-3{fill:#00c5db;}.cls-2{font-size:83px;font-family:MyriadPro-Semibold, Myriad
            Pro;}.cls-2,.cls-3{font-weight:700;}.cls-3{font-size:200px;font-family:MyriadPro-Bold, Myriad
            Pro;}.cls-4{fill:none;stroke:#00c5db;stroke-miterlimit:10;stroke-width:3px;}.cls-5{fill:#e6e5e5;}.cls-6{fill:#a3a3a3;}.cls-7{fill:#0d3858;}.cls-8{fill:#ffea50;}.cls-9{fill:#ff651f;}.cls-10{fill:#11113f;}
        </style>
    </defs>
    <title>100-friends-en</title>
    <g id="Слой_2" data-name="Слой 2">
        <g id="Слой_1-2" data-name="Слой 1">
            <text class="cls-1" transform="translate(5.06 121.81)">minimum</text>
            <text class="cls-2" transform="translate(19.06 351.81)">FRIENDS</text>
            <text class="cls-3" transform="translate(0 270.81)">100</text>
            <polyline class="cls-4" points="440.78 127.53 524.34 211.09 440.78 294.65"/>
            <g id="Слой_2-2" data-name="Слой 2">
                <g id="Слой_1-2-2" data-name="Слой 1-2">
                    <path class="cls-5"
                          d="M890.05,97.6H644.48a21.17,21.17,0,0,0-21.16,21.16V302.2H737.44a18.24,18.24,0,0,0,18.21,18.21h23.15A18.24,18.24,0,0,0,797,302.2H911.16V118.76A21.17,21.17,0,0,0,890.05,97.6Z"/>
                    <path class="cls-6"
                          d="M796.86,302.2h0a18.33,18.33,0,0,1-18.33,18.33H755.71a18.33,18.33,0,0,1-18.33-18.33H599.54v10.72a32,32,0,0,0,32,32H902.94a32,32,0,0,0,32-32V302.2Z"/>
                    <rect class="cls-7" x="653.55" y="126.67" width="229.67" height="146.82"/>
                    <path class="cls-8" d="M798.23,108l15.6,15.6a59.16,59.16,0,0,1,17.32,41.84v30.64L791.64,160.4Z"/>
                    <path class="cls-8"
                          d="M737.44,107.77,720.67,123.6a59.41,59.41,0,0,0-17.27,41.81v30.64L742.9,160.4Z"/>
                    <path class="cls-9"
                          d="M743.89,170.57a82.18,82.18,0,0,0,46.44,0l9.48-75.16a107.32,107.32,0,0,0-27-85.6l-1.24-1.31a4.87,4.87,0,0,0-6.87-.34l-.41.41L762,11.17a107.35,107.35,0,0,0-26.14,82Z"/>
                    <path class="cls-10"
                          d="M935,295.34H796.86A6.89,6.89,0,0,0,790,302.2a11.54,11.54,0,0,1-11.47,11.47H755.71a11.54,11.54,0,0,1-11.48-11.47,6.89,6.89,0,0,0-6.87-6.87H630.19V118.76a14.32,14.32,0,0,1,14.29-14.29h85.67l.07.62-14.32,13.47-.13.13a65.83,65.83,0,0,0-19.37,46.71V196a6.89,6.89,0,0,0,6.87,6.87,6.67,6.67,0,0,0,4.6-1.78L737.94,174a7.27,7.27,0,0,0,4,3.16,86.8,86.8,0,0,0,24.87,3.64h.27a89,89,0,0,0,25.15-3.64,7.14,7.14,0,0,0,4-3.33l30.23,27.27a6.85,6.85,0,0,0,9.68-.47l0,0A6.67,6.67,0,0,0,838,196V165.34a65.58,65.58,0,0,0-19.37-46.71l-13.19-13.19.13-1h84.5a14.28,14.28,0,0,1,14.29,14.27V299.25c0,3.77,2.68.68,6.46.68s7.28,1.51,7.28-2.27V118.76a28.06,28.06,0,0,0-28-28H807.17A114.36,114.36,0,0,0,777.9,5.16l-1.23-1.31A11.56,11.56,0,0,0,768,0h-.07a11.49,11.49,0,0,0-8.72,4L757,6.64a114.85,114.85,0,0,0-28.17,84.1H644.48a28.06,28.06,0,0,0-28,28V295.34H599.54a6.89,6.89,0,0,0-6.87,6.87v10.72a38.94,38.94,0,0,0,38.89,38.89H902.94a38.94,38.94,0,0,0,38.89-38.89V302.2a6.89,6.89,0,0,0-6.87-6.87ZM710.23,180.6V165.35a51.86,51.86,0,0,1,15.25-37L732,122.2l3.64,35.38ZM809,128.39a52.25,52.25,0,0,1,15.32,37v15.25l-25.42-22.95,1.1-8.93,3.33-26ZM767.29,15.72l.76-.89a100.6,100.6,0,0,1,25,79.76l-1.58,12.5h0l-6.59,52.42h0l-.68,5.57a74.32,74.32,0,0,1-17,1.92H767a75.76,75.76,0,0,1-16.67-1.92l-5.42-52.21-.62-5.91h0l-1.51-14.57a101,101,0,0,1,24.52-76.68ZM928.12,312.93A25.16,25.16,0,0,1,903,338.08H631.56a25.16,25.16,0,0,1-25.15-25.15v-3.85H731.53a25.31,25.31,0,0,0,24.25,18.33h22.81a25.23,25.23,0,0,0,24.25-18.33H928.08v3.85Z"/>
                    <path class="cls-10"
                          d="M711.53,132.85c3.77,0,5.29-1.72,5.29-5.5s5.63-7.56,1.86-7.56H653.55a6.89,6.89,0,0,0-6.87,6.87V273.48a6.89,6.89,0,0,0,6.87,6.87H883.22a6.89,6.89,0,0,0,6.83-6.87V126.67a6.89,6.89,0,0,0-6.87-6.87H811.36c-3.77,0,4.6,2.88,4.6,6.67s3.77,6.67,7.56,6.67l52.83.48V266.7H660.41V133.54Z"/>
                    <circle class="cls-10" cx="767.25" cy="72.6" r="6.87"/>
                    <circle class="cls-10" cx="911.19" cy="274.72" r="6.87"/>
                    <path class="cls-10" d="M756.26,225.67v-28a6.87,6.87,0,0,0-13.74,0h0v28a6.87,6.87,0,1,0,13.74,0Z"/>
                    <path class="cls-10"
                          d="M791.16,237.35V196.12a6.87,6.87,0,1,0-13.74,0v41.22a6.87,6.87,0,0,0,13.74,0Z"/>
                </g>
            </g>
        </g>
    </g>
</svg>