<svg id="Layer_1" data-name="Layer 1" xmlns="http://www.w3.org/2000/svg" viewBox="0 0 323.75 66.33">
    <defs>
        <style>
            .cls-1{isolation:isolate;}.cls-2{fill:#f7ff57;}.cls-3{fill:none;stroke:#bcbc39;stroke-miterlimit:10;stroke-width:5px;}
        </style>
    </defs>
    <title>1000baht</title>
    <g class="cls-1">
        <path class="cls-2" d="M96.91,261.42v-8.84H112.3V237H121v15.55H136.4v8.84H121v15.51H112.3V261.42Z"
              transform="translate(-94.41 -222.82)"/>
        <path class="cls-2"
              d="M198.84,281.93H169.61V270.57h7V248.25a21.46,21.46,0,0,1-5.2.5,12,12,0,0,1-1.76-.11V237.71c.28,0,.57,0,.88,0a20.18,20.18,0,0,0,8.54-1.81,13.61,13.61,0,0,0,5.73-4.37h7.34v39h6.75Z"
              transform="translate(-94.41 -222.82)"/>
        <path class="cls-2"
              d="M211.91,257q0-12.1,6.22-18.74a19.55,19.55,0,0,1,14.79-6.67,19.23,19.23,0,0,1,15,6.89q6,6.89,6,18.53,0,12.25-6.25,18.81a19.72,19.72,0,0,1-14.79,6.6,19.19,19.19,0,0,1-15-6.88Q211.91,268.66,211.91,257Zm15.92,0q0,9.26,1.37,12.1T233,272q2.46,0,3.76-3t1.3-12q0-9.37-1.37-12.17T232.93,242q-2.32,0-3.69,2.77T227.83,257Z"
              transform="translate(-94.41 -222.82)"/>
        <path class="cls-2"
              d="M261.42,257q0-12.1,6.22-18.74a19.55,19.55,0,0,1,14.79-6.67,19.23,19.23,0,0,1,15,6.89q6,6.89,6,18.53,0,12.25-6.25,18.81a19.72,19.72,0,0,1-14.79,6.6,19.19,19.19,0,0,1-15-6.88Q261.42,268.66,261.42,257Zm15.92,0q0,9.26,1.37,12.1t3.79,2.88q2.46,0,3.76-3t1.3-12q0-9.37-1.37-12.17T282.44,242q-2.32,0-3.69,2.77T277.34,257Z"
              transform="translate(-94.41 -222.82)"/>
        <path class="cls-2"
              d="M310.93,257q0-12.1,6.22-18.74a19.55,19.55,0,0,1,14.79-6.67,19.23,19.23,0,0,1,15,6.89q6,6.89,6,18.53,0,12.25-6.25,18.81a19.72,19.72,0,0,1-14.79,6.6,19.19,19.19,0,0,1-15-6.88Q310.93,268.66,310.93,257Zm15.92,0q0,9.26,1.37,12.1T332,272q2.46,0,3.76-3t1.3-12q0-9.37-1.37-12.17T331.95,242q-2.32,0-3.69,2.77T326.85,257Z"
              transform="translate(-94.41 -222.82)"/>
    </g>
    <g class="cls-1">
        <path class="cls-3" d="M96.91,261.42v-8.84H112.3V237H121v15.55H136.4v8.84H121v15.51H112.3V261.42Z"
              transform="translate(-94.41 -222.82)"/>
        <path class="cls-3"
              d="M198.84,281.93H169.61V270.57h7V248.25a21.46,21.46,0,0,1-5.2.5,12,12,0,0,1-1.76-.11V237.71c.28,0,.57,0,.88,0a20.18,20.18,0,0,0,8.54-1.81,13.61,13.61,0,0,0,5.73-4.37h7.34v39h6.75Z"
              transform="translate(-94.41 -222.82)"/>
        <path class="cls-3"
              d="M211.91,257q0-12.1,6.22-18.74a19.55,19.55,0,0,1,14.79-6.67,19.23,19.23,0,0,1,15,6.89q6,6.89,6,18.53,0,12.25-6.25,18.81a19.72,19.72,0,0,1-14.79,6.6,19.19,19.19,0,0,1-15-6.88Q211.91,268.66,211.91,257Zm15.92,0q0,9.26,1.37,12.1T233,272q2.46,0,3.76-3t1.3-12q0-9.37-1.37-12.17T232.93,242q-2.32,0-3.69,2.77T227.83,257Z"
              transform="translate(-94.41 -222.82)"/>
        <path class="cls-3"
              d="M261.42,257q0-12.1,6.22-18.74a19.55,19.55,0,0,1,14.79-6.67,19.23,19.23,0,0,1,15,6.89q6,6.89,6,18.53,0,12.25-6.25,18.81a19.72,19.72,0,0,1-14.79,6.6,19.19,19.19,0,0,1-15-6.88Q261.42,268.66,261.42,257Zm15.92,0q0,9.26,1.37,12.1t3.79,2.88q2.46,0,3.76-3t1.3-12q0-9.37-1.37-12.17T282.44,242q-2.32,0-3.69,2.77T277.34,257Z"
              transform="translate(-94.41 -222.82)"/>
        <path class="cls-3"
              d="M310.93,257q0-12.1,6.22-18.74a19.55,19.55,0,0,1,14.79-6.67,19.23,19.23,0,0,1,15,6.89q6,6.89,6,18.53,0,12.25-6.25,18.81a19.72,19.72,0,0,1-14.79,6.6,19.19,19.19,0,0,1-15-6.88Q310.93,268.66,310.93,257Zm15.92,0q0,9.26,1.37,12.1T332,272q2.46,0,3.76-3t1.3-12q0-9.37-1.37-12.17T331.95,242q-2.32,0-3.69,2.77T326.85,257Z"
              transform="translate(-94.41 -222.82)"/>
    </g>
    <g class="cls-1">
        <path class="cls-2"
              d="M405.89,252.58a12.92,12.92,0,0,1,7.24,4.77,13.78,13.78,0,0,1,2.53,8.36,14.68,14.68,0,0,1-5,11.52q-5,4.42-12.88,4.63v4.79h-3.94v-4.72H380.2V229.08h13.67v-3.76h3.94v3.76q7.66.11,11.54,3.07t3.88,9.17a11.41,11.41,0,0,1-2,6.34,12.58,12.58,0,0,1-5.36,4.6Zm-12-2.06V235h-6.78v15.48Zm0,25.38V256.41h-6.78V275.9Zm3.94-25.45a9.64,9.64,0,0,0,5.66-1.92q2.49-1.84,2.5-6.5,0-3.41-1.83-5a8.25,8.25,0,0,0-4.6-1.83q-.46,0-1.72-.14Zm0,25.31a12.83,12.83,0,0,0,7.61-2.57q3-2.36,3-7.19a10.84,10.84,0,0,0-1-5.43,8.06,8.06,0,0,0-3.43-2.89,13.73,13.73,0,0,0-6.11-1.19Z"
              transform="translate(-94.41 -222.82)"/>
    </g>
    <g class="cls-1">
        <path class="cls-3"
              d="M405.89,252.58a12.92,12.92,0,0,1,7.24,4.77,13.78,13.78,0,0,1,2.53,8.36,14.68,14.68,0,0,1-5,11.52q-5,4.42-12.88,4.63v4.79h-3.94v-4.72H380.2V229.08h13.67v-3.76h3.94v3.76q7.66.11,11.54,3.07t3.88,9.17a11.41,11.41,0,0,1-2,6.34,12.58,12.58,0,0,1-5.36,4.6Zm-12-2.06V235h-6.78v15.48Zm0,25.38V256.41h-6.78V275.9Zm3.94-25.45a9.64,9.64,0,0,0,5.66-1.92q2.49-1.84,2.5-6.5,0-3.41-1.83-5a8.25,8.25,0,0,0-4.6-1.83q-.46,0-1.72-.14Zm0,25.31a12.83,12.83,0,0,0,7.61-2.57q3-2.36,3-7.19a10.84,10.84,0,0,0-1-5.43,8.06,8.06,0,0,0-3.43-2.89,13.73,13.73,0,0,0-6.11-1.19Z"
              transform="translate(-94.41 -222.82)"/>
    </g>
</svg>