<svg id="Layer_1" data-name="Layer 1" xmlns="http://www.w3.org/2000/svg" viewBox="0 0 202.53 61.44">
    <defs>
        <style>.cls-1{fill:#faff3f;}</style>
    </defs>
    <title>100-baht-italic</title>
    <path class="cls-1"
          d="M167.81,262.56c-1.6,6.61-2.41,9.94-3.37,15.52h-3.62c1-5.58,1.77-8.9,3.37-15.51h-9.93c.58-2.39.87-3.6,1.46-6h9.93c1.62-6.62,2.48-10,3.65-15.89h3.63c-1.17,5.89-2,9.28-3.65,15.9h10c-.59,2.42-.89,3.63-1.47,6Z"
          transform="translate(-154.26 -225.6)"/>
    <path class="cls-1"
          d="M219.22,234.13c-2.69,16.66-8.16,32.72-10.49,49.44h-9.06c1.63-12.73,5.21-25.16,8.17-37.63a18.24,18.24,0,0,1-7.49,3.24c.65-2.77,1-4.13,1.52-6.73a16.58,16.58,0,0,0,11.58-8.23Z"
          transform="translate(-154.26 -225.6)"/>
    <path class="cls-1"
          d="M243.49,233c13.42-.54,9.87,18.54,7.92,26-2.31,8.82-6.89,24.8-18.7,25.17-14,.43-10.09-17.44-8.57-24.89C226.14,249.4,230.73,233.54,243.49,233Zm-.55,3.49c-2.49,0-5,6.82-8.88,22.67s-3.45,21.82-1,21.82,4.48-6,8.4-21.89,4-22.65,1.47-22.6Z"
          transform="translate(-154.26 -225.6)"/>
    <path class="cls-1"
          d="M273.43,232.4c13.47-.55,9.75,18.88,7.8,26.29-2.33,8.84-6.89,25.08-18.79,25.45-14.06.44-10-17.74-8.49-25.18C256,249,260.62,232.92,273.43,232.4Zm-.57,3.52c-2.49,0-5,6.89-9,23S260.32,281,262.8,281s4.5-6,8.49-22.15,4-22.92,1.58-22.87Z"
          transform="translate(-154.26 -225.6)"/>
    <path class="cls-1"
          d="M303.33,231.83c13.47-.5,9.6,19.23,7.65,26.61-2.33,8.85-6.87,25.31-18.83,25.69-14.15.44-9.9-18.07-8.37-25.46C285.85,248.72,290.49,232.31,303.33,231.83Zm-.58,3.55c-2.48,0-5,7-9,23.2s-3.62,22.32-1.15,22.32,4.51-6.09,8.56-22.38S305.22,235.34,302.75,235.38Z"
          transform="translate(-154.26 -225.6)"/>
    <path class="cls-1"
          d="M348.45,252.75c4.34,1.81,5.38,7,3.55,14.74-1.25,5.31-3.19,9.26-6,12.07s-6.35,4-11.08,4h-.12a28.83,28.83,0,0,0-.21,3.48H332a28.88,28.88,0,0,1,.21-3.48H320.92c2.78-18.59,9.38-36.45,11.6-55.13l11.33-.11a26.75,26.75,0,0,0,.13-2.72h2.64a26.72,26.72,0,0,1-.13,2.72c3.31,0,5.74.45,7.24,1.39a6,6,0,0,1,2.83,3.87,14.48,14.48,0,0,1-.21,6.13,24.15,24.15,0,0,1-3.1,7.78,15.2,15.2,0,0,1-4.72,5Zm-8.71-3.51c1.26-5.16,1.87-7.72,2.77-12.25L340,237c-.9,4.53-1.51,7.08-2.77,12.24Zm-6.06,25.32c1.11-5.44,1.89-8.55,3.43-14.73h-2.52c-1.53,6.17-2.31,9.28-3.43,14.72Zm8.78-25.66a6.07,6.07,0,0,0,2.89-2.46,13.6,13.6,0,0,0,1.45-3.86,8.07,8.07,0,0,0,.12-3.42,2.38,2.38,0,0,0-1.82-1.93C344.24,241.56,343.66,244,342.46,248.9Zm-6.13,25.59h.07a5.65,5.65,0,0,0,3.85-1.74,10.58,10.58,0,0,0,2.77-5.51c.6-2.55.61-4.46,0-5.64a3.2,3.2,0,0,0-3-1.77h-.21c-1.59,6.19-2.37,9.19-3.48,14.66Z"
          transform="translate(-154.26 -225.6)"/>
</svg>