<svg id="Слой_1" data-name="Слой 1" xmlns="http://www.w3.org/2000/svg" viewBox="0 0 1141.16 1445.55">
    <defs>
        <style>
            .cls-1{fill:none;stroke:#fff;stroke-linecap:round;stroke-linejoin:round;stroke-width:6px;}.cls-2{fill:#fff;}
        </style>
    </defs>
    <title>303030</title>
    <line class="cls-1" x1="572.06" y1="402.81" x2="355.14" y2="108.71"/>
    <line class="cls-1" x1="171" y1="108.71" x2="355.14" y2="108.71"/>
    <path class="cls-2"
          d="M369.51,23.46H353.75q1.25-9.55,6.86-15.35A26.37,26.37,0,0,1,380.36,0a25,25,0,0,1,17.78,6.7,21.22,21.22,0,0,1,7.18,16,18.63,18.63,0,0,1-3.13,10.49,22.4,22.4,0,0,1-9.11,7.68A23.24,23.24,0,0,1,405.36,49a22.09,22.09,0,0,1,4.42,13.74,26,26,0,0,1-8.55,19.66q-8.56,8.06-21.8,8.06-12.54,0-20.45-7.59t-8.67-20.65h16.23q1,6.68,4.66,9.93a14.25,14.25,0,0,0,18.63-.44,12.36,12.36,0,0,0-1.32-18.9q-5.1-4-14.71-4.16v-14a26.47,26.47,0,0,0,8.82-1.85,10.92,10.92,0,0,0,4.51-3.8,9,9,0,0,0,1.61-5.1,7.66,7.66,0,0,0-2.46-5.83,9,9,0,0,0-6.45-2.31,10.44,10.44,0,0,0-6.39,2.14A10.7,10.7,0,0,0,369.51,23.46Z"
          transform="translate(-150 -0.01)"/>
    <path class="cls-2"
          d="M447.27,0a28.28,28.28,0,0,1,16.26,4.63q6.83,4.63,10.55,14.15t3.72,26.51q0,17.17-3.8,26.71T463.85,86q-6.39,4.48-16.11,4.48T431.39,86Q424.77,81.5,421,72.3t-3.75-26.19q0-23.73,7.32-34.39Q432.74,0,447.27,0Zm.38,15.59a11.22,11.22,0,0,0-7.37,2.67q-3.22,2.67-4.91,9.17t-1.7,19q0,16.35,3.89,22.59t10.09,6.24q6,0,9.47-5.92,4.27-7.15,4.27-23.91,0-17-3.83-23.44t-9.91-6.41Z"
          transform="translate(-150 -0.01)"/>
    <line class="cls-1" x1="952.3" y1="1069.29" x2="647.14" y2="868.23"/>
    <line class="cls-1" x1="954.02" y1="1069.3" x2="1138.16" y2="1069.3"/>
    <path class="cls-2"
          d="M1152.53,984h-15.76q1.23-9.55,6.86-15.35a26.37,26.37,0,0,1,19.75-8.09,25,25,0,0,1,17.78,6.74,21.22,21.22,0,0,1,7.18,16,18.63,18.63,0,0,1-3.13,10.49,22.4,22.4,0,0,1-9.11,7.68,23.24,23.24,0,0,1,12.28,8.17,22.09,22.09,0,0,1,4.42,13.74,26,26,0,0,1-8.55,19.66q-8.56,8.06-21.8,8.06-12.54,0-20.45-7.59t-8.67-20.65h16.23q1.05,6.68,4.66,9.93a14.25,14.25,0,0,0,18.63-.44,12.39,12.39,0,0,0-1.32-18.93q-5.1-4-14.71-4.16v-14a26.47,26.47,0,0,0,8.82-1.85,10.92,10.92,0,0,0,4.51-3.78,9,9,0,0,0,1.61-5.1,7.66,7.66,0,0,0-2.46-5.83,9,9,0,0,0-6.45-2.31,10.44,10.44,0,0,0-6.39,2.14A10.7,10.7,0,0,0,1152.53,984Z"
          transform="translate(-150 -0.01)"/>
    <path class="cls-2"
          d="M1230.29,960.61a28.28,28.28,0,0,1,16.26,4.63q6.83,4.63,10.55,14.15t3.72,26.51q0,17.17-3.78,26.72t-10.17,14q-6.39,4.48-16.11,4.48t-16.35-4.51q-6.62-4.51-10.37-13.71t-3.75-26.16q0-23.73,7.32-34.39Q1215.76,960.61,1230.29,960.61Zm.38,15.59a11.22,11.22,0,0,0-7.37,2.67q-3.22,2.67-4.91,9.17t-1.7,19q0,16.35,3.89,22.59t10.09,6.24q6,0,9.47-5.92,4.27-7.15,4.27-23.91,0-17-3.83-23.44t-9.91-6.4Z"
          transform="translate(-150 -0.01)"/>
    <line class="cls-1" x1="187.22" y1="1441.93" x2="432.26" y2="1170.83"/>
    <line class="cls-1" x1="3" y1="1442.55" x2="187.14" y2="1442.55"/>
    <path class="cls-2"
          d="M201.51,1357.3H185.75q1.23-9.55,6.86-15.35a26.37,26.37,0,0,1,19.75-8.09,25,25,0,0,1,17.78,6.74,21.22,21.22,0,0,1,7.18,16,18.63,18.63,0,0,1-3.13,10.49,22.4,22.4,0,0,1-9.11,7.68,23.24,23.24,0,0,1,12.28,8.17,22.09,22.09,0,0,1,4.42,13.74,26,26,0,0,1-8.55,19.66q-8.56,8.06-21.8,8.06-12.54,0-20.45-7.59t-8.67-20.65h16.23q1.05,6.68,4.66,9.93a14.25,14.25,0,0,0,18.63-.44,12.39,12.39,0,0,0-1.33-18.93q-5.1-4-14.71-4.16v-14.07a26.47,26.47,0,0,0,8.82-1.85,10.92,10.92,0,0,0,4.51-3.78,9,9,0,0,0,1.61-5.1,7.66,7.66,0,0,0-2.46-5.83,9,9,0,0,0-6.45-2.31,10.44,10.44,0,0,0-6.39,2.14A10.7,10.7,0,0,0,201.51,1357.3Z"
          transform="translate(-150 -0.01)"/>
    <path class="cls-2"
          d="M279.27,1333.87a28.28,28.28,0,0,1,16.26,4.63q6.83,4.63,10.55,14.15t3.72,26.51q0,17.17-3.78,26.72t-10.17,14q-6.39,4.48-16.11,4.48t-16.35-4.51q-6.62-4.51-10.37-13.71T249.27,1380q0-23.73,7.32-34.39Q264.74,1333.87,279.27,1333.87Zm.38,15.59a11.22,11.22,0,0,0-7.37,2.67q-3.22,2.67-4.91,9.17t-1.7,19q0,16.35,3.89,22.59t10.09,6.24q6,0,9.47-5.92,4.27-7.15,4.27-23.91,0-17-3.83-23.44t-9.91-6.41Z"
          transform="translate(-150 -0.01)"/>
</svg>