<svg id="Layer_3" data-name="Layer 3" xmlns="http://www.w3.org/2000/svg" viewBox="0 0 1117.13 1633">
    <defs>
        <style>
            .cls-1{fill:#6d9aba;}.cls-1,.cls-14,.cls-2,.cls-3,.cls-4,.cls-5,.cls-6,.cls-7,.cls-8,.cls-9{stroke:#000;stroke-linecap:round;stroke-linejoin:round;stroke-width:10px;}.cls-2{fill:#a9c4e2;}.cls-4{fill:none;}.cls-5{fill:#e4d9c8;}.cls-6{fill:#0c0c0c;}.cls-7{fill:#232323;}.cls-8{fill:#ff0b51;}.cls-11,.cls-9{fill:#d9d9d9;}.cls-10,.cls-14,.cls-16,.cls-17{fill:#fff;}.cls-12{fill:#380208;}.cls-13{fill:#6a0006;}.cls-15{fill:#333;}.cls-16{opacity:0.2;}.cls-17{opacity:0.3;}.cls-18{fill:#282828;}.cls-19{fill:#fffdbb;}
        </style>
    </defs>
    <title>3yes</title>
    <path class="cls-1"
          d="M755.5,1111.5c-5.51-.78-16.61,4.13-22,7-9.82,5.23-17.48,12.61-25,23-13.6,18.8-19.5,37.44-24,53-10.29,35.58-8.48,38.53-19,80-8.86,34.94-13.57,46.37-14,70-.09,5,.17,1.59,2,35,2.61,47.81,2.33,59.57,2,67-.23,5.25-1.49,16.83-4,40-4.34,40-6.57,60.1-10,66-4.76,8.19-13.86,19.74-10,30,1.37,3.64,4.1,6.41,3,10-1.62,5.26-9,4.09-12,10-2.63,5.14,1.76,8.27-1,15-2.07,5.06-5.12,4.65-6,9s1.77,5.63,3,13c.81,4.85,1.32,7.95,0,11-3.11,7.18-12.86,6-15,12-1.59,4.42,2.19,9.44,4,12,11.61,16.38,12.23,29.73,18,40,14.4,25.63,94.73,92.46,140,68,20.87-11.28,29-39.1,33-110,6.14-109.1-5.37-180.89-12-248C770.44,1262,781.87,1115.23,755.5,1111.5Z"
          transform="translate(-510.37 -257)"/>
    <path class="cls-2"
          d="M551.5,1814.5c-6.61-10.2-10.71-22.2-12-26-4.51-13.22-7.14-21.29-4-30,1.65-4.59,4.43-7.73,10-14,3.22-3.63,4.62-4.59,16-15,9.87-9,10.83-10.14,12-12,3.33-5.29,2.94-8,6-17,1.52-4.48,4.45-13.08,8-18,8.44-11.7,27.1-11.89,37-12,23.51-.25,41,8.1,57,16a187,187,0,0,1,52,38c11.19,11.64,19.22,20,25,34,7.22,17.51,6.33,32.75,5,52-2.28,33-3.43,49.43-13,60-27.71,30.58-100.43,2.11-139-13C596.57,1851.65,567.26,1838.82,551.5,1814.5Z"
          transform="translate(-510.37 -257)"/>
    <path class="cls-3"
          d="M515.5,1885c-.7-3.72,1.53-13,6-28.5,3.09-10.72,6.77-20,14-38,9.45-23.57,12.73-29.54,18-36,3.4-4.17,6.84-8.39,12-12,18.49-12.94,43.2-7,60-3,26.15,6.26,43.88,18.11,54,25,2.1,1.43,25.8,17.8,42,40a188.26,188.26,0,0,1,13,21,92.94,92.94,0,0,1,6,13c3.84,10.87,4.59,15.27,4,18.5Z"
          transform="translate(-510.37 -257)"/>
    <path class="cls-4" d="M621.5,1651.5a218,218,0,0,0,30-8,165,165,0,0,0,26-11,150.22,150.22,0,0,0,24-16"
          transform="translate(-510.37 -257)"/>
    <path class="cls-4" d="M657.5,1604.5a120.76,120.76,0,0,0,22-2,132.45,132.45,0,0,0,24-7,169.81,169.81,0,0,0,18-8"
          transform="translate(-510.37 -257)"/>
    <path class="cls-4"
          d="M735.5,1629.5a80.75,80.75,0,0,1-26,16c-20.85,7.75-39.71,4.29-40,7-.23,2.14,11.39,5.3,20,7a139.14,139.14,0,0,0,40,2"
          transform="translate(-510.37 -257)"/>
    <path class="cls-4"
          d="M571.5,1731.5a188.59,188.59,0,0,1,45-3c36.38,2,62,14,68,17,8.72,4.27,19.45,9.63,31,20a118.77,118.77,0,0,1,32,48"
          transform="translate(-510.37 -257)"/>
    <path class="cls-4" d="M681.5,1739.5a108.42,108.42,0,0,1,66,35" transform="translate(-510.37 -257)"/>
    <path class="cls-4" d="M712.5,1324.5a137.5,137.5,0,0,0,47,58" transform="translate(-510.37 -257)"/>
    <path class="cls-3"
          d="M887.5,976.5c-7.55,15.39-8,36.26-9,78-.55,23.71-1,49.82,5,83,5.95,32.84,14,77.1,35,81,13.2,2.45,26.19-12,37-24,22.07-24.52,30.1-48.78,40-78,33.26-98.11,37.51-104.16,36-126-1.33-19.23-3.86-56-28-70C970,901,908.7,933.3,887.5,976.5Z"
          transform="translate(-510.37 -257)"/>
    <path class="cls-1"
          d="M890.5,1002.5c-5.27-2.87-15.06,11.07-43,36-19.07,17-37,33-59,45-24,13.12-36.05,19.68-37,20a27.67,27.67,0,0,0-11,6c-8.36,7.83-8.86,19.86-9,25-2.3,83.84-3.44,125.76-2,144,2.76,34.82,2.17,61.22,1,114-1.54,69.34-6,83.2-2,129,3.58,40.86,5.37,61.28,12,82a285,285,0,0,1,10,43,163.36,163.36,0,0,1,2,22,154.68,154.68,0,0,1-2,28c-3.65,23.64-.77,30.79-5,84-2.05,25.81-3.56,44.22-8,69-5.4,30.17-8.57,29.55-8,35.5h603a199.14,199.14,0,0,0,9-22.5c6.66-19.8,7.73-34,10-49,3.08-20.25,5.81-24.94,13-54,6.9-27.91,10.93-51.6,19-99,4.24-24.93,10.28-60.69,16-108,5.05-41.78,6.61-65.7,7-72,2-31.47,2-54.89,2-64,.51-192-5.33-273.34-17-436a48.94,48.94,0,0,0-4-17c-17.82-40.19-89-44.74-94-45-13.77-.72-17.25.92-46,0-20.21-.65-31.15-1.86-42-4-12.5-2.46-19.94-5.18-29-8-27.18-8.48-48.16-15-63-14-43,2.94-48.34,70.21-114,134a174.9,174.9,0,0,0-32,40,161.35,161.35,0,0,0-19,49c-3.72,18.14-.66,20.11-5,51-5.46,38.91-10.89,40-12,40-1.46.06-3.64-2.63-8-8a116.17,116.17,0,0,1-8-11c-12-19.71-18-47-18-47-9.22-42.19-14.06-64.31-11-95C889.09,1019.49,895.56,1005.25,890.5,1002.5Z"
          transform="translate(-510.37 -257)"/>
    <path class="cls-1"
          d="M819.5,1158.5c1.46,0,1.33-8,5-22,4.55-17.36,9.26-22.32,11-24,2.33-2.25,7.5-7.24,14-7,7.84.29,13.27,8.05,18,15,16.65,24.47,25,36.71,28,42,10.23,17.87,26.15,43.94,28,43,1.35-.69-7-14.69-13-39-4.27-17.37-7.63-31.05-6-48a141.26,141.26,0,0,0,1-26,134.58,134.58,0,0,0-2-16c-3.75-21.53-6.28-36.13-6-48,.68-28.2,17.28-40.84,12-46-6.06-5.93-31.37,7.46-48,24a107,107,0,0,0-19,26c-4.11,7.6-3.94,9.24-16,49a330.86,330.86,0,0,0-9,35,92.59,92.59,0,0,0-2,22C815.84,1148.14,817.82,1158.53,819.5,1158.5Z"
          transform="translate(-510.37 -257)"/>
    <path class="cls-2"
          d="M949.5,1064.5c-7.3,4.11-10.62,11.11-12,14-2.72,5.72-2.15,8.43-4,22-2.31,16.94-3.66,16.13-4,25-.35,9.09,1.08,9.95,2,24,.73,11.14,1.22,18.63,0,28-1.88,14.46-5.68,16.82-7,32-.57,6.56-.2,10.07,0,17,.29,9.73,0,17.21-2,44-3.63,48.9-4.19,44.78-5,62-.7,14.75-.46,31.83,0,66,.51,37.35,1,35.1,1,52a762.81,762.81,0,0,1-4,85c-4.08,37.88-8.74,49.66-7,80,.78,13.56,1.73,11.49,4,33,2.31,21.82,6.35,62.09,1,109-1.34,11.71-1.54,8.76-6,41-4.28,30.95-6.42,46.42-7,52-1.61,15.58-1.48,19.56-4,28a18.44,18.44,0,0,1-3,6.5h41a106.28,106.28,0,0,0,3-11.5c2.58-12.76,3.91-27.21,5-37,1.63-14.74,2-12.35,4-29,2.19-18.07,3.93-32.42,4-51,0-13.29-.78-23.26-2-38-1.42-17.19-2.06-16.84-4-37-3.67-38.05-2.54-50.89-2-56,.87-8.22,1.4-7.62,3-21,.89-7.41,1.89-17.27,3-38,1.59-29.6.59-28.93,2-45,1.58-18,2.7-17.47,4-34,1.06-13.55.73-19.31,1-43,.33-28.63.88-25.94,1-46,.16-26.91-.86-27.58-1-58-.13-29-.2-43.5,1-55,1.75-16.81,4.32-28,4-49-.15-10-.76-8.89-1-21-.23-11.71-.54-27.62,2-47,2.79-21.25,6-23.84,3-32-2.3-6.2-6.72-11.61-5-19,.71-3.08,1.85-3.72,5-9,4.43-7.42,4.29-9.67,9-20,7.13-15.64,10.25-16.65,9-20C978.81,1061.27,961.26,1057.88,949.5,1064.5Z"
          transform="translate(-510.37 -257)"/>
    <path class="cls-1"
          d="M1039.5,929.5c-4.91,7-11.94,18.37-26,41-19.92,32.06-21,35.41-30,47-14.95,19.31-22.42,29-32,37-9.07,7.61-19.66,14.62-18,20,.85,2.75,4.18,2.77,10,6,7,3.9,10.69,8.61,18,18,5.63,7.24,10.79,13.88,14,24,1.22,3.86,1.82,7.91,3,16,2.46,16.8,2.06,24.73,4,25,1.59.22,2.85-5,7-13,0,0,3.5-6.76,12-18,11.39-15.06,31.38-26.32,36-29,20.15-11.7,32.77-25.8,58-54,24.83-27.76,39.05-52.05,50-71,7.09-12.27,19-34.17,26-64,4.31-18.46,3.77-27.34,0-35-6.61-13.43-22.34-21.52-36-23C1093.51,852,1054.38,908.14,1039.5,929.5Z"
          transform="translate(-510.37 -257)"/>
    <path class="cls-4"
          d="M735.5,1300.5a46.17,46.17,0,0,1,14-8c7.69-2.72,11.07-1.51,19-4,9-2.81,8.89-5.7,17-9,9.95-4.05,13.5-1.13,28-3,11.21-1.45,10.56-3.39,29-8,13.53-3.39,21.19-5.3,32-6,14.22-.92,22.3,1,37-3a87.56,87.56,0,0,0,9-3"
          transform="translate(-510.37 -257)"/>
    <path class="cls-4"
          d="M963.5,1245.5c3.85-.61,9.35-1.39,16-2,9.9-.9,17.32-1,27-1,31.22-.1,29.16.33,35,0,15.89-.9,14.56-3.15,36-6a279.41,279.41,0,0,1,54-2c8.33.52,15.23,1.34,20,2"
          transform="translate(-510.37 -257)"/>
    <path class="cls-4"
          d="M757.5,1348.5,763,1454.3a29.23,29.23,0,0,0,7.29,17.85l49.06,55.49a7,7,0,0,0,10.43.07l61-67.16a10.55,10.55,0,0,0,2.74-7.17l-1-121.88Z"
          transform="translate(-510.37 -257)"/>
    <path class="cls-1"
          d="M753.5,1339.5c1.19-.83,3.13-1.22,7-2a57.11,57.11,0,0,1,9-1c6.52-.43,10.93-2.52,15-4,10.07-3.66,28.38-6.44,65-12,0,0,4.18-.63,27-2,8.89-.53,15.89-.82,17,2,.62,1.57-.86,3.37-2,5-6,8.64-7.06,18.72-8,28-1.16,11.5,1.83,15.37-2,20-2.66,3.22-6.15,3.82-10,5-7.16,2.2-13.44,6.8-26,16-15.43,11.3-24.26,17.77-30,25a16.76,16.76,0,0,1-8,6,16.29,16.29,0,0,1-9,0c-5.67-1.38-9.36-5.25-18-16-8.83-11-13.37-16.68-19-26-3.58-5.92-5.37-8.89-7-13C750.3,1359.9,747.3,1343.82,753.5,1339.5Z"
          transform="translate(-510.37 -257)"/>
    <path class="cls-5"
          d="M795.5,1397.5c-2.57,3-1.23,7.32-1,8,.17.5,1.67,4.77,6,6,3.59,1,8.2-.32,10-4,2-4.12-.6-8.93-4-11S798.11,1394.42,795.5,1397.5Z"
          transform="translate(-510.37 -257)"/>
    <path class="cls-5"
          d="M930.5,1254.5c.87-2,2.36-5.48,6-7a11.18,11.18,0,0,1,13,4c3.25,4.65,1.76,10.6-1,14-4.53,5.59-14.18,6.41-18,2S930.06,1255.52,930.5,1254.5Z"
          transform="translate(-510.37 -257)"/>
    <path class="cls-5"
          d="M924.5,1367.5a10.9,10.9,0,0,1,2-12c4.84-4.7,14.6-3.31,18,3,2.43,4.51,1.26,10.89-3,14C936,1376.55,927.26,1373.53,924.5,1367.5Z"
          transform="translate(-510.37 -257)"/>
    <path class="cls-5"
          d="M925.5,1463.5a10.17,10.17,0,0,1,1-12c4.12-4.49,12.33-4.08,16,1a10.3,10.3,0,0,1-1,13C937,1469.92,928.79,1468.69,925.5,1463.5Z"
          transform="translate(-510.37 -257)"/>
    <path class="cls-5"
          d="M918.5,1566.5c-1.41-3.55-.88-8.26,2-11,4.82-4.59,15.17-2.64,18,4a10.86,10.86,0,0,1-4,13C928.9,1576,920.84,1572.39,918.5,1566.5Z"
          transform="translate(-510.37 -257)"/>
    <path class="cls-5"
          d="M917.5,1650.5a9.31,9.31,0,0,1,1-10c3.82-4.5,12.48-4.2,16,1a9.78,9.78,0,0,1-1,12C929.07,1657.85,920.33,1655.92,917.5,1650.5Z"
          transform="translate(-510.37 -257)"/>
    <path class="cls-5"
          d="M917.5,1770.5a9.76,9.76,0,0,1,4-8c5-3.63,13.47-2.13,16,3,2.76,5.61-2.15,14.52-9,15C923.14,1780.88,917.68,1776,917.5,1770.5Z"
          transform="translate(-510.37 -257)"/>
    <path class="cls-5"
          d="M908.5,1850.5a9.13,9.13,0,0,1,2-8c4.3-4.9,14.58-5,18,1,2.55,4.44.73,11.26-4,14C918.44,1861,910,1856.46,908.5,1850.5Z"
          transform="translate(-510.37 -257)"/>
    <path class="cls-4" d="M823.5,1684.5a169.29,169.29,0,0,1,28-6c9.69-1.23,13.4-.86,20-2,8-1.38,19.15-4.79,32-14"
          transform="translate(-510.37 -257)"/>
    <path class="cls-4"
          d="M945.5,1645.5c5.31-3.15,13.57-7.86,24-13,20.4-10.05,25.82-10.28,41-19,13.56-7.79,13.68-10.16,26-17a149.73,149.73,0,0,1,35-14"
          transform="translate(-510.37 -257)"/>
    <path class="cls-4"
          d="M1017.5,1331.5l-3.89,108a8.1,8.1,0,0,0,1.79,5.37l53.26,66.15a11.8,11.8,0,0,0,15.86,2.34l72.26-49.4a46.76,46.76,0,0,0,19.82-31.46l15.91-103Z"
          transform="translate(-510.37 -257)"/>
    <path class="cls-1"
          d="M1190.5,1315.5c-1-2-5.77-.29-16-1-6.47-.45-7.24-1.32-14-2a101.81,101.81,0,0,0-18,0c-12.66.66-12.66-1.23-41-3-8.12-.51-15.69-1-26-1-12.35,0-18.52-.05-27,1-13.82,1.72-14.82,3.83-23,3-6.63-.68-10.8-2.56-14,0-1.1.88-2.18,2.36-3,11-.62,6.51-.5,10.82,0,25,.18,5.22.29,7.87,1,10,2.13,6.41,6.74,10.12,9,12a259.19,259.19,0,0,1,30,30c7.8,9.46,10.75,15.93,17,16,2.93,0,4.94-1.36,9-4,6.9-4.49,14.38-8.11,21-13a165.47,165.47,0,0,1,42-22c16.35-5.57,26.76-5.34,33-15,1-1.47,2-4.32,4-10,5.66-15.83,4-19.48,9-27C1187.45,1319.56,1191.43,1317.4,1190.5,1315.5Z"
          transform="translate(-510.37 -257)"/>
    <path class="cls-5"
          d="M1061.5,1364.5a11.43,11.43,0,0,0-2,13c3.08,5.75,11.38,7.23,17,4,4.58-2.63,7.55-8.5,6-13C1080.12,1361.57,1067.33,1358.74,1061.5,1364.5Z"
          transform="translate(-510.37 -257)"/>
    <path class="cls-1"
          d="M1208.5,1111.5c.16-21.94,5-48,5-48,4.33-23.27,8.88-47.77,25-74,10-16.31,23.42-38.1,51-50,25.06-10.81,48.05-7.5,56-6,23.26,4.4,38.27,16.17,48,24,31.26,25.13,43,57.75,49,75,6.39,18.44,3.65,19,12,65,9.51,52.46,14.27,78.69,23,100,7.92,19.34,18.09,37.77,24,70,1.95,10.63,4.56,15.64,3,22-6.27,25.63-52.82,35.85-71,38C1326.74,1340.15,1207.93,1192.24,1208.5,1111.5Z"
          transform="translate(-510.37 -257)"/>
    <path class="cls-2"
          d="M1233.5,1359.5a158.62,158.62,0,0,0,4,32c3.16,12.88,7.24,29.46,20,43,6.83,7.25,8.48,5.49,32,20,28.57,17.62,27,20.78,39,25,15.39,5.44,28.29,3.87,52,1,12.09-1.47,29.15-3.65,50-12a183.75,183.75,0,0,0,54-34c21.34-19.21,35.3-31.77,39-52,3-16.64-4-21.37-2-51,1.36-20.25,4.79-20.38,5-34,.47-31-16.92-54.88-25-66-7.06-9.72-23.41-29.51-49-42-48.76-23.8-107.57-9.61-146,16C1306.5,1205.5,1232.61,1254.75,1233.5,1359.5Z"
          transform="translate(-510.37 -257)"/>
    <path class="cls-6"
          d="M1215.5,1286.5c-2.53,9.73-4.76,27.83-4,47,.72,18.35,1.31,33.13,10,50,2.76,5.35,13,24.57,34,36,9.26,5,10.33,3,32,12,12.29,5.12,22,10,30,14,23.46,11.79,24.7,14.3,34,17,15.8,4.58,29.34,2.29,37,1,33.5-5.66,54.89-27.62,65-38,8.81-9,29.16-30.48,37-65,6.06-26.7,1.57-47.68-3-69-4.51-21.05-8.82-41.17-25-60-15.21-17.71-33-25.11-40-28C1350.25,1173.5,1232,1223.18,1215.5,1286.5Z"
          transform="translate(-510.37 -257)"/>
    <line class="cls-4" x1="842.13" y1="516.5" x2="785.13" y2="845.5"/>
    <path class="cls-7"
          d="M1299.5,1290.5c10.65-3,17.16,8.1,34,15,2.19.9,26.4,10.43,50,1,16.54-6.61,25.26-19.54,33-31,11.8-17.49,15.49-34.12,18-46,2.18-10.32,4.45-21,3-35-2-19.19-9.76-32.77-14-40-14.9-25.42-44.24-51.89-84-62-9.66-2.46-58.67-14.92-103,14-31.89,20.81-44,51.71-50,67-4.13,10.52-12.61,32.9-10,62,.81,9.08,2.39,24.79,12,42,4.77,8.55,14.1,25.25,34,34a59.61,59.61,0,0,0,31,5c16.26-1.88,27.72-10.48,31-13C1294.11,1296.11,1293.5,1292.18,1299.5,1290.5Z"
          transform="translate(-510.37 -257)"/>
    <path class="cls-7"
          d="M1363.5,1171.5a63.55,63.55,0,0,1,2-22c2.29-8.9,8.37-32.49,30-45,4.06-2.35,12.42-7,24-7,3.87,0,19.92.61,31,13,14.29,16,8.46,38.38,7,44a59.9,59.9,0,0,1-13,24,69.85,69.85,0,0,1-26,19c-9.56,4.27-17.07,7.63-27,6-1.4-.23-16.71-3-24-16C1364.48,1182.11,1364,1177.07,1363.5,1171.5Z"
          transform="translate(-510.37 -257)"/>
    <path class="cls-7"
          d="M1292.5,1119.5c.36,9.87,2.35,17.34,6,24,2.2,4,7.72,14.09,18,18,14.28,5.43,29.19-4.27,38-10,3.85-2.5,28.07-18.81,33-49a63.47,63.47,0,0,0-1-26c-1.53-5.72-6.06-22.6-21-31-20.71-11.64-44.88,2.33-46,3C1290.52,1065.83,1292,1106.78,1292.5,1119.5Z"
          transform="translate(-510.37 -257)"/>
    <path class="cls-7"
          d="M1241.5,1025.5c17.58-6.44,38.43,5.5,49,18,22.43,26.53,15.74,76-10,92-13.16,8.19-27.55,5.31-29,5-25-5.4-34.25-35.33-36-41-.64-2.06-9.57-32.71,8-58C1227.23,1036.14,1232.26,1028.88,1241.5,1025.5Z"
          transform="translate(-510.37 -257)"/>
    <path class="cls-8"
          d="M1349.5,789.5s5-3,15-3c6.82,0,14.89,5.1,24,13,11.64,10.08,16.57,15.87,23,22,12.82,12.22,17.12,12,31,23,7,5.52,24.46,19.58,38,42,9.49,15.71,5.49,17.15,18,49,3.8,9.66,11.25,25.57,26,57,16.08,34.27,20.36,42.72,17,46-8.24,8-47.85-29-62-18-2.07,1.6-5.77,5.92-3,27,5.74,43.77,24,71,24,71s-50.76-24.66-61-71c-4.26-19.29.38-29.91-8-58-3.41-11.43-7.49-25.11-18-40-17.08-24.21-40.87-37.07-54-44-17-9-28-11-28-11Z"
          transform="translate(-510.37 -257)"/>
    <path class="cls-4"
          d="M1341.5,1482.5c.56,11.32,0,41.35-1,62-1.49,30.44-5.09,47.23-9,78-4.4,34.63-5.87,60.84-7,81-2.17,38.79-2.18,72-6,108a257.71,257.71,0,0,1-9,46c-2.23,7.62-4.43,23.32-6,27.5"
          transform="translate(-510.37 -257)"/>
    <path class="cls-4"
          d="M1454.5,1206.5a149.76,149.76,0,0,1,29,25c9.55,10.66,26.12,28.82,32,57,3.11,14.89,7.22,33.65,6,42"
          transform="translate(-510.37 -257)"/>
    <path class="cls-4"
          d="M1511.5,1386.5a219.44,219.44,0,0,1-25,31c-9.43,9.73-25.39,25.94-51,39-14.88,7.59-40.91,20.87-75,18a116.47,116.47,0,0,1-31-7"
          transform="translate(-510.37 -257)"/>
    <path class="cls-3"
          d="M624.5,658.5c-8.42-4.32-23.65-17.68-35-30-8.89-9.64-24-26.38-34-51-20.53-50.76-3.91-97.84-2-103,4.52-12.22,15.16-41,44-60,23.2-15.31,46.48-16.62,71-18,25.78-1.45,45.53,2.16,72,7,34.8,6.36,36.51,10.41,62,14,49.5,7,65.32-5.19,72,3C901,453,691.13,692.69,624.5,658.5Z"
          transform="translate(-510.37 -257)"/>
    <path class="cls-9"
          d="M581.5,910.5c1.38-6.14,9.49-4.73,21-16,8.33-8.16,12.07-16.72,17-28,4.39-10,8.59-19.65,9-32a66.56,66.56,0,0,0-6-29c-11-26.14-13.22-59.56-16-101a332.31,332.31,0,0,1,11-109c15.77-56.56,43.31-93.95,51-104,40.68-53.21,88.7-77.86,111-89,27.65-13.81,111.61-54.22,214-31,52.45,11.89,90.83,36.19,111,51a301.24,301.24,0,0,1,65,65c7.43,10.24,26.27,36.22,40,72,3.91,10.19,8.84,24.91,22,40a105.79,105.79,0,0,0,27,22c11,6.31,21.51,12.31,35,12,18.12-.41,25.63-11.84,31-8,8.27,5.92-3.89,37-11,52a182,182,0,0,1-26,40c-10.16,11.95-27.89,32.8-57,46-19.89,9-37.3,10.93-37,16,.18,3,6.61,5.06,16,8,6,1.88,14.71,4.53,26,4,14.75-.69,20.85-6.2,23-4,4.4,4.48-15.58,33-34,54-33.12,37.82-118.36,116.8-267,157-52.66,14.24-111.59,29.52-185,17-51.78-8.83-105.07-30.52-104-35,.39-1.63,7.71,0,21-3,14.5-3.25,30.73-10.77,30-15-.59-3.4-11.84-3-34-5-27.2-2.51-44.4-4.09-62-11C602.23,938.15,579,921.49,581.5,910.5Z"
          transform="translate(-510.37 -257)"/>
    <path class="cls-10"
          d="M641.5,569.5a311.74,311.74,0,0,0-16,62c-4.56,30.81-3,53.23,0,96,2.17,31.06,3.37,46.86,9,60a163.61,163.61,0,0,1,10,30c1.86,8.2,3.15,14,3,22a69.54,69.54,0,0,1-9,33,71.72,71.72,0,0,1-16,19c-10.64,9.33-19.27,8.3-20,13-1,6.45,13.26,13.67,24,19,8.68,4.31,23.23,10.74,49,17,22.53,5.48,33.79,8.21,46,7,15.16-1.51,24.65-6.55,27-3,2.59,3.93-5.82,14.95-14,22-14.6,12.59-29,13-29,17,0,6.74,37,11,37,11,47.5,5.47,78,9,126,3,54.88-6.85,94.87-21.42,118-30a570.18,570.18,0,0,0,94-45c39.54-23.63,59.31-35.45,75-54,10-11.8,18-24.76,37-37,15.29-9.85,29.84-14.18,29-18-.71-3.22-11.35-1.28-32-6-12.63-2.89-20.67-6.37-27-10-5.62-3.22-18.12-10.39-17-16,1.06-5.31,13.74-6.5,23-8,37.9-6.14,67.82-25.52,82-37,18.47-15,28-30.89,37-46,4.09-6.85,20.38-34.14,14-40-2.91-2.67-8.25,1.22-18,3-18.68,3.41-34.64-4.41-44-9-6.83-3.35-22.36-12.15-42-43-18.11-28.45-20.66-45.7-30-67-17.16-39.15-44.29-62.4-66-81-63-54-134.87-63.58-155-66-24.16-2.9-126.37-13.55-214,55C672.31,489.59,648.42,551,641.5,569.5Z"
          transform="translate(-510.37 -257)"/>
    <path class="cls-3"
          d="M862.5,392.35c-1.24-5.09,16.87-10.69,41-28,24.66-17.69,24.83-25.53,48-46,13.39-11.83,41-35.74,82-48,17.38-5.2,40.19-12,69-6,37,7.72,59.12,31.43,66,39a133.24,133.24,0,0,1,30,56c6.83,26.94,3,48.88-2,78-1.63,9.44-.77,1.46-12,45-3.09,12-5.27,20.78-13,29-3.14,3.34-9.61,10.22-19,11-2.78.23-11.81.42-28-15a121.08,121.08,0,0,1-23-30c-16.06-30.15-48.58-47.59-68-58-39.55-21.21-79.68-22.8-110-24C889,394,863.94,398.24,862.5,392.35Z"
          transform="translate(-510.37 -257)"/>
    <path class="cls-11"
          d="M821.5,664.5c-4.3.24-4.76-13.87-18-31-5.27-6.82-13.61-17.34-27-21-8.25-2.25-16.77-1.46-27,2-40.63,13.74-77.74,59.21-95,101a116.17,116.17,0,0,0-9,38c-.68,11.46-1.38,23.17,5,36,7.43,14.94,19.84,22.11,25,25,6.19,3.47,18.11,10.14,33,8,10.2-1.47,17.12-6.39,25-12,8.09-5.76,10.73-9.57,23-22,11.49-11.64,17.23-17.45,23-22,7.63-6,23.6-18.6,43-21,11-1.36,16.82-2.08,23,1,2.22,1.11,4.39,2.66,7,2,3.83-1,4.69-5.71,8-12,1.91-3.64,7.18-13.63,14-16,7.66-2.66,16.44,4.6,21,8,28.6,21.32,67.07,21.82,81,22,11.46.15,31.93.16,53-12a88.48,88.48,0,0,0,29-27c4-6.07,11.24-17.13,13-33,2.22-20-5.57-35.44-9-42-11.33-21.67-29-32-50-44-16.3-9.28-51.55-28.78-98-27-13.65.52-26.72,1.17-41,9-22.59,12.38-33.06,34.42-37,43C824.87,642.82,826.8,664.21,821.5,664.5Z"
          transform="translate(-510.37 -257)"/>
    <path class="cls-3"
          d="M665.5,730.5a64.54,64.54,0,0,0,5,31c2.37,5.3,8.74,19,24,27,18.63,9.78,37.17,4.1,44,2,6-1.85,24-7.35,30-21,1-2.32,1.5-4.41,4-10a180.05,180.05,0,0,1,9-17c2.65-4.65,5.21-9.13,9-15,4.57-7.08,4.8-6.7,6-9,4-7.63,3.16-15.23,2-25-1.63-13.7-2.49-20.89-8-29a46.06,46.06,0,0,0-22-17c-12.32-4.5-23-2.3-29-1-23,5-37,21.23-48,34C679.86,694,667.34,708.53,665.5,730.5Z"
          transform="translate(-510.37 -257)"/>
    <path class="cls-10"
          d="M733.5,722.5c-1.07-8.21,5.4-14.48,8-17a29.69,29.69,0,0,1,19-8c3.22-.18,15.63-.87,21,7,6,8.81.39,24.19-10,31-11,7.18-23.35,2.27-24,2C745.56,736.69,734.77,732.21,733.5,722.5Z"
          transform="translate(-510.37 -257)"/>
    <path class="cls-3"
          d="M883.5,622.5c-9,19.51-3.21,38.71-1,46a80.66,80.66,0,0,0,21,34c21.86,21.07,49,23.1,61,24,11.86.89,30,2,49-8,7.59-4,21.44-11.28,28-27,8.68-20.78-1.65-41.33-5-48-10.78-21.46-29.35-31-41-37-25.65-13.19-48.65-12.44-62-12-22.91.75-31.9,6.72-35,9A47.87,47.87,0,0,0,883.5,622.5Z"
          transform="translate(-510.37 -257)"/>
    <path class="cls-10"
          d="M923.5,662.5c1.74-8.74,12.12-12.57,16-14,10-3.68,18.73-1.21,23,0,5.92,1.67,16.13,4.56,18,12,1.17,4.66-1.47,8.93-4,13-2.11,3.4-8,13-20,15-11.65,2-20.3-4.69-22-6C932.38,680.87,921.51,672.48,923.5,662.5Z"
          transform="translate(-510.37 -257)"/>
    <path class="cls-12"
          d="M926.5,824.5c1.38,1.16-.46,5.47-2,9-5.27,12.09-8.81,20.2-10.9,24.74-5.43-1-12.56-1.34-20.1-1.74-12.93-.68-22-1.16-34,2-7.23,1.91-21.25,5.8-33,18a83.73,83.73,0,0,0-8.12,9.46c-2.32-1.74-4.58-3.58-6.88-5.46-6.58-5.38-14.48-11.83-13-17,1.38-4.8,9.34-3.17,16-11,4.51-5.31,1.91,1.52,6-3,3.56-3.93,18-13,18-13,15.07-1.33,21.65-2.72,40-2,18,.7,27.15,1,36-4C919.72,827.58,924.81,823.09,926.5,824.5Z"
          transform="translate(-510.37 -257)"/>
    <path class="cls-13"
          d="M893.5,856.5c7.54.4,14.67.77,20.1,1.74a42.65,42.65,0,0,1-2.1,4.26c-4.26,6.28-15.19,21.92-36,30-6.6,2.56-19.28,7.3-35,4-9.21-1.93-15.9-5.87-22.12-10.54a83.73,83.73,0,0,1,8.12-9.46c11.75-12.2,25.77-16.09,33-18C871.48,855.34,880.57,855.82,893.5,856.5Z"
          transform="translate(-510.37 -257)"/>
    <path class="cls-4"
          d="M913.6,858.24c2.09-4.54,5.63-12.65,10.9-24.74,1.54-3.53,3.38-7.84,2-9-1.69-1.41-6.78,3.08-12,6-8.85,5-18,4.7-36,4-18.35-.72-24.93.67-40,2,0,0-14.44,9.07-18,13-4.09,4.52-1.49-2.31-6,3-6.66,7.83-14.62,6.2-16,11-1.48,5.17,6.42,11.62,13,17,2.3,1.88,4.56,3.72,6.88,5.46,6.22,4.67,12.91,8.61,22.12,10.54,15.72,3.3,28.4-1.44,35-4,20.81-8.08,31.74-23.72,36-30A42.65,42.65,0,0,0,913.6,858.24Z"
          transform="translate(-510.37 -257)"/>
    <path class="cls-4"
          d="M818.38,886a83.73,83.73,0,0,1,8.12-9.46c11.75-12.2,25.77-16.09,33-18,12-3.16,21.07-2.68,34-2,7.54.4,14.67.77,20.1,1.74"
          transform="translate(-510.37 -257)"/>
    <path class="cls-14"
          d="M745.5,840.5a41.68,41.68,0,0,0,7,17c12.14,17.07,33.16,17.93,36,18a42.79,42.79,0,0,0,22-5c10.34-5.66,15.34-14.36,18-19a57.86,57.86,0,0,0,6-15"
          transform="translate(-510.37 -257)"/>
    <path class="cls-14"
          d="M816.5,792.5a59.14,59.14,0,0,0,8,28,58.23,58.23,0,0,0,14,16c27.74,22.49,71.2,16.16,91,7a78.9,78.9,0,0,0,17-11c4.08-3.61,9.28-8.21,13-16a43.89,43.89,0,0,0,4-22"
          transform="translate(-510.37 -257)"/>
    <path class="cls-4" d="M838.5,913.5a20.1,20.1,0,0,0-3,7,21.28,21.28,0,0,0,2,14"
          transform="translate(-510.37 -257)"/>
    <path class="cls-3"
          d="M781.76,753.53l47.43-17.47a20.4,20.4,0,0,1,26.36,12.55l2.56,7.5a20.4,20.4,0,0,1-12.86,26L797.6,797.95a20.4,20.4,0,0,1-25.43-11.87l-2.34-5.92A20.4,20.4,0,0,1,781.76,753.53Z"
          transform="translate(-510.37 -257)"/>
    <path class="cls-10"
          d="M805.24,749.21l25.7-9.52a11,11,0,0,1,14.29,6.84l1.39,4.09a11.14,11.14,0,0,1-7,14.15l-25.82,8.66A11,11,0,0,1,800,767l-1.27-3.23A11.14,11.14,0,0,1,805.24,749.21Z"
          transform="translate(-510.37 -257)"/>
    <line class="cls-4" x1="720.13" y1="869.5" x2="529.13" y2="648.5"/>
    <path class="cls-7"
          d="M1200,1294c-7-7-5.92-20.85-30.5-47.5-16-17.35-20.35-16-29-29-14.45-21.64-15-44.36-15-51,0-2.17.49-29.67,16-51,5.8-8,23.42-22.14,26-23,6-2,5.89-.68,13-1,10.83-.49,12.42,10.72,18,17,29,32.67,43.53,49,48,66"
          transform="translate(-510.37 -257)"/>
    <path class="cls-8"
          d="M1056,924.5s-34.94,41.82-58.5,115c-4.19,13-7.29,24.52-6,39,1.3,14.68,5.91,18.87,10,42,2.18,12.31,3.66,20.73,3,32-.7,11.94-3.07,14.23-11,44-5.1,19.15-4,17.7-8,32-7.43,26.5-12,46-12,46s32-54,48-64c0,15,25,90,25,90s3.92-12,17-45c10-25.19,14.06-32.21,20-52,3.52-11.71,5.73-19.22,7-30,.71-6,1.33-14.77-1-40-3.37-36.62-6.45-37.45-5-52a114.52,114.52,0,0,1,11-38c10.88-23.07,28-41,28-41Z"
          transform="translate(-510.37 -257)"/>
    <path class="cls-7"
          d="M1173.5,1172.5c4.86,6.84,17.76,22.42,40,28,9.33,2.34,25.72,6.45,39-3,16.85-12,15.25-36.2,15-40-1.59-24.12-19.31-39.28-26-45-23.38-20-63.46-32.3-78-17"
          transform="translate(-510.37 -257)"/>
    <path class="cls-15"
          d="M1167,1115a59.64,59.64,0,0,1,25-6c4.62-.08,25.94.1,43,16,2.63,2.45,18,16.82,14,26-3.93,8.94-24,7.65-34,7-19.18-1.24-32.3-8.23-41-13-9.67-5.29-21.86-12-21-19C1153.59,1121.2,1160,1118.23,1167,1115Z"
          transform="translate(-510.37 -257)"/>
    <path class="cls-15"
          d="M1233,1051c-.77,1-4.77,6.27-4,13,1.18,10.37,12.75,16,19,19,7.41,3.59,21.68,10.49,33,3,6.06-4,10.89-11.9,10-20-1.37-12.48-15.51-18.19-20-20C1259.28,1041.27,1241.22,1040.54,1233,1051Z"
          transform="translate(-510.37 -257)"/>
    <path class="cls-15"
          d="M1318,1070c3.37-8.78,12.72-11.9,16-13,2.65-.88,17.34-5.4,29,4,5.64,4.54,12.68,14,10,23-3.46,11.58-20.92,14.74-32,13-9.44-1.48-22.13-7.77-24-18A16.89,16.89,0,0,1,1318,1070Z"
          transform="translate(-510.37 -257)"/>
    <path class="cls-15"
          d="M1393,1127c1.36-8.27,15-11.15,19-12,2.61-.55,21.77-4.61,28,6,3.1,5.28,1.92,12.36-1,17-6.31,10-21.94,10.56-32,6C1400.91,1141.24,1391.8,1134.3,1393,1127Z"
          transform="translate(-510.37 -257)"/>
    <path class="cls-15"
          d="M1212,1239c4.5-5.7,13.19.32,28-5,14.07-5.05,22-16.17,24-19,11.64-16.71,7.52-33.32,12-34,5.1-.77,13.18,20.38,17,39,4.16,20.31,7.36,35.92-2,50-10,15.1-27.44,17.78-29,18-23.3,3.22-38.82-15.3-41-18C1214.07,1261.44,1206.55,1245.91,1212,1239Z"
          transform="translate(-510.37 -257)"/>
    <path class="cls-15"
          d="M1309,1265c-4.12-8.56-2.75-17,0-34,2.3-14.19,5-30.56,15-34,4.41-1.51,9.33.64,19,5a120.85,120.85,0,0,1,31,20c13.41,12.19,20.12,18.29,21,27,1.49,14.77-12.59,29.21-26,35C1347.06,1293.46,1318,1283.62,1309,1265Z"
          transform="translate(-510.37 -257)"/>
    <path class="cls-16"
          d="M762,1356c.2-1.39,1.18-7.41,4-8,2-.41,3.08,2.18,6,3,4.38,1.22,8.53-2.74,12-5,5.94-3.86,9.67-2.57,24-4,7.24-.72,15.82-2.48,33-6,19.23-3.94,27.63-6.58,30-3,1.52,2.3-1.12,4.62-2,14-.77,8.21,1,9.22,0,13-2.08,7.86-10.83,7.64-25,17-14.7,9.71-19.07,19.06-25,17-3.9-1.36-6.57-7-8-10-2.63-5.55-2.6-9.91-4-10-2.12-.14-2.37,9.8-7,11-3.36.87-8-3.14-10-7-1.75-3.3-1.37-6-2-6-1.09,0-3.21,8-3,17,.12,5.35,1,7.46,0,8-2.29,1.26-10.11-8.3-15-16C760.8,1366.5,761.71,1358.08,762,1356Z"
          transform="translate(-510.37 -257)"/>
    <path class="cls-16"
          d="M776,1436c.18,7-1.82,9-2,14-.07,2.1.11,6.57,11,22,7,9.87,12.4,15.71,23,27,9.43,10,12.27,12.26,16,12,6-.42,10.28-6.91,13-11,5.09-7.65,4.48-16.05,6-16s1,6.86,4,8c1,.38,3.2.4,11-8a101,101,0,0,0,15-20c3.11-5.4,4.67-8.1,6-12,2.87-8.43,1.79-13.4,2-24,.42-21.06,5.21-27.7,1-31-3.3-2.59-8.9-.59-19,3-5.71,2-11.68,4.16-18,9-9.22,7.07-8.87,12-22,26-8.4,8.94-11.2,9.74-13,10-7.23,1-14-4.4-21-10-9-7.23-13.46-13.94-15-13C772.7,1422.79,775.79,1427.59,776,1436Z"
          transform="translate(-510.37 -257)"/>
    <path class="cls-16"
          d="M1020,1325c3.29-4.42,10.89-2.57,24-2,17.91.77,16.36-2.15,35-2,23.12.19,21.52,4.65,46,5,20.83.3,31.25.44,33,0,2.88-.73,7-2,9,0,3.06,3.11-1,12.13-4,17-4.3,7.06-10,11.57-21,18-15.73,9.22-34.74,20.36-40,15-1.87-1.91-1.53-5.43-1-11,.87-9,4.45-13.81,3-15-2.3-1.9-12.11,9.61-17,7-3.68-2-1.07-10-5-12-2.87-1.43-5.22,2.4-12,4-9.14,2.15-12.68-3-18,0-6,3.32-6.8,12.69-7,15-.82,9.36,3.71,14.79,2,16-2.2,1.57-11.94-5.89-18-16-3.27-5.46-4.51-10.3-7-20C1019.24,1333.24,1017.91,1327.81,1020,1325Z"
          transform="translate(-510.37 -257)"/>
    <path class="cls-16"
          d="M1028,1409c.74,11.45-1.47,14.21-1,21,.48,7,4,12.3,11,23,9.7,14.8,12.27,12.63,24,29,6.34,8.85,8,12.87,13,14,5.63,1.28,10-2.37,19-8,15.85-10,12.89-5.36,32-17,16.32-9.94,24.49-14.91,29-22,2.48-3.89,4.35-11.31,8-26,6.94-27.94,5.58-30.85,4-32-3.09-2.25-7.33,2-21,7-17,6.16-18.79,2.56-31,8-9.53,4.25-16.43,10-26,18-12.51,10.45-14.76,15-21,15-9.46,0-17.19-10.54-19-13-4.67-6.36-3.76-9.47-10-18-.86-1.18-8.35-11.32-11-10C1026.54,1398.73,1027.57,1402.4,1028,1409Z"
          transform="translate(-510.37 -257)"/>
    <path class="cls-16"
          d="M752,1141c-2.63,5.36-5.35,12.57-8,35-1,8.35-1.67,21-3,46-.71,13.32,1,26.82-1,40-1.12,7.26-2.88,15.07,1,18,2.32,1.75,6.55.83,15-1,7.62-1.65,10.13-3.37,11-4a20.25,20.25,0,0,0,6.34-7.36c2-4.1,1.86-7.62,2.66-7.64,1.09,0,.38,6.55,4,9,2.76,1.87,5.84-.15,12-1,8.08-1.12,8.66,1.53,16,1,8.46-.61,9.34-4.24,22-8,3.85-1.14,7.56-1.76,15-3,8.53-1.42,16.25-2.7,26-3,11.19-.34,13.6,1,25,0,8.88-.76,13.37-1.19,16-4,4.65-5,3.09-13.51,1-25-.94-5.14-1.92-10.52-5-17-1.09-2.28-4-8-17-21-12.14-12.12-18.34-18.2-25-19-10-1.21-18.29,4.77-20,6-12.21,8.77-11.38,21.32-18,22-6.18.64-12-9.77-16-17-1.38-2.48-8.13-14.93-10-34a94.81,94.81,0,0,1,2-33c2.68-10.85,6.65-18,5-19s-6.19,6.79-17,14c-10.56,7-14.38,4.93-23,11C759.49,1125.7,755.11,1134.65,752,1141Z"
          transform="translate(-510.37 -257)"/>
    <path class="cls-16"
          d="M745,1311a14.71,14.71,0,0,1,7-8c4.65-2.38,7-.17,13-2,4.54-1.39,5.28-3.28,10-6,1.69-1,5.48-3,17-5,15.2-2.68,17.34-.76,29-3,7.69-1.48,6-2.18,20-6,9.72-2.66,17.56-4.81,28-6,12.5-1.42,11.09.54,25-1,9.92-1.1,13.91-2.46,16,0,2.71,3.19-1.95,7.89-2,20,0,7.51,1.74,9.53,0,12-3.44,4.88-14,2.24-23,1-4.78-.66-18.52.56-46,3s-41.05,3.65-51,7c-6.9,2.33-14.07,3.78-21,6-10.57,3.38-14.46,5.2-18,3C744.77,1323.37,743.2,1316.36,745,1311Z"
          transform="translate(-510.37 -257)"/>
    <path class="cls-16"
          d="M720,1152c-2.87-1.15-10.06,9.88-14,17-8.47,15.3-10.68,28.28-13,40-3.61,18.18-7.56,38.12-15,60-6,17.58-10.48,25.45-14,44a180.85,180.85,0,0,0-2,55c.59,5.58,1.4,25.05,3,64,0,0,3.26,79.08-7,109-4,11.54-5.93,17.3-9,21-3.2,3.86-7.28,7.12-7,12,.08,1.4,1.05,3.6,3,8,2.09,4.72,3.13,7.09,4,8,2.14,2.26,6,3.6,17,2a98.31,98.31,0,0,0,25-7c13.34-6,26.94-15.06,26-17-.76-1.56-10.26,2.9-29,6-10.43,1.72-24.24,4-26,0-.81-1.84,1.3-4.12,11-15,8.8-9.88,13.22-14.84,14-16,6.89-10.25,4.35-21.84,3-35-3.61-35.17,6.12-34.19,3-74-.6-7.71-2.4-19.48-6-43-3.11-20.36-4.69-28.1-5-42-.27-11.86.5-23.39,4-36,3.33-12,8.17-21.46,10-21,1.36.34,0,5.91,3,14,1.14,3.08,3.95,9.33,6,9s2.66-7.64,3-16c.84-20.5.08-36.32,0-38-.56-11.92-1.4-30,3-51,2-9.75,4.82-18.25,8-37C721.9,1155.9,721.37,1152.55,720,1152Z"
          transform="translate(-510.37 -257)"/>
    <path class="cls-16"
          d="M635,1619c3.72-2.32,7.1-2.73,18-3,16.35-.4,18.15.31,24-1,8.73-2,13.69-5.55,14-5,.47.84-11.6,8.79-25,16-17,9.14-29.32,15.61-35,11-2.53-2.06-3.41-6-3-9C628.71,1622.93,633.36,1620,635,1619Z"
          transform="translate(-510.37 -257)"/>
    <path class="cls-16"
          d="M691,1635c-.33-1.09,7.53-2.15,17-10,10-8.27,13-16.82,15-16,1.83.74,1.83,8.82-2,15C713,1636.85,691.53,1636.77,691,1635Z"
          transform="translate(-510.37 -257)"/>
    <path class="cls-16"
          d="M634,1658c.25-1.27,17.25.43,34,4,19.54,4.16,35.51,7.75,50,20,10.34,8.74,17.3,19.66,16,21s-11.38-9.52-31-20c-12.36-6.6-23.23-10.17-41-16C643.57,1661,633.81,1659,634,1658Z"
          transform="translate(-510.37 -257)"/>
    <path class="cls-17"
          d="M587,1713c-2.22-3.6.67-9.91,3-15,.19-.43,3.48-7.45,9-12,11.75-9.68,30.15-5.3,44-2,5.77,1.37,15.51,5.58,35,14,8.56,3.7,18.49,8.17,29,17,3.95,3.32,11.28,9.48,10,12-2.34,4.59-31.51-6.4-32-5s26.61,11,26,13c-.49,1.65-19.15-1.09-39-8-22.56-7.85-21.48-12.34-35-15C611.08,1706.9,591.5,1720.3,587,1713Z"
          transform="translate(-510.37 -257)"/>
    <path class="cls-17"
          d="M548,1759c2.41,3.72,16.93-7.19,40-11,34.37-5.68,63.54,8.4,71,12,24.19,11.68,38,28.07,39,27,1.52-1.58-10.25-23.36-33-37-23.22-13.92-47.48-12.28-96-9a23.06,23.06,0,0,0-8,2C552.5,1746.86,546.17,1756.18,548,1759Z"
          transform="translate(-510.37 -257)"/>
    <path class="cls-16"
          d="M833,1100c1.83,1.24,5.65-5.66,14-6,6.59-.27,11.82,3.72,16,7,11.83,9.28,14.46,19.77,17,19,2.8-.85,1.33-14.16,0-22-2.38-14.05-5.22-15.84-7-26-3.43-19.53,3.64-32.31,0-34-3.3-1.53-10.78,8.16-16,15C840.83,1074.19,829.69,1097.75,833,1100Z"
          transform="translate(-510.37 -257)"/>
    <path class="cls-16"
          d="M951,1072c.72,5.52,6.64,5.86,18,18,9.75,10.42,13.42,18.74,15,18,1.89-.88-4.76-12.1-5-28-.31-19.93,9.72-29.66,6-33C979.29,1041.87,949.32,1059.08,951,1072Z"
          transform="translate(-510.37 -257)"/>
    <path class="cls-16"
          d="M750,1510c2.34,31.24,1.63,33.87,4,47,3.1,17.17,4.66,25.76,10,36,11.26,21.57,28.8,31,26,36-2.54,4.58-17.44-2.32-22,4-3.23,4.48,2.47,10.4,4,23,1,8.34-.63,12.82-4,28,0,0-2.35,10.56-7,37-4.36,24.75,1.19,23.47-1,65-1.73,32.72-2.59,49.09-8,59-2.35,4.32-6.51,10.8-4,15,3,5.05,13.18,2.65,26,2,22.59-1.14,43.55,3.64,67,9,13.64,3.12,22.75,6.16,31,1,5.8-3.63,8.27-9.48,10-14,9.1-23.77,11.4-46.21,12-52,4.2-40.36,6.35-44.88,8-73,1.63-27.82-1-13.59,0-35,.5-10.24,1.23-15.84-2-18-4.5-3-11.32,4.22-24,9-6.25,2.36-10.24,2.73-42,3-37,.31-41.6-.12-42-2-.44-2.06,4.38-4.66,26-15,25.39-12.15,29-13.47,36-17,25.51-12.91,47.68-31,46-34-1.09-2-11.64,3.62-35,10-25.53,7-45.7,9.25-46,8s23.06-3.09,45-20a84.12,84.12,0,0,0,25-30c4.91-10.16,4.7-15.52,8-48,4.16-41,6.59-53.13,2-55-2.62-1.07-5.46,2.06-19,15-22.64,21.64-31,28.44-41,34s-17.32,9.46-25,7c-7.41-2.37-8-8.44-18-22-11.76-16-15.38-13.57-29-31-12.07-15.44-15.14-24.88-18-24S747.71,1479.41,750,1510Z"
          transform="translate(-510.37 -257)"/>
    <path class="cls-16"
          d="M974,1319c-9.81,5.61-7,23.15-4,74,2.39,40.22,3.55,60.79,2,83-1.27,18.27-3.78,34.81-7,56-7,46.11-12.23,61.67-4,68,2.75,2.12,6.7,3,39-7,24.61-7.59,36.91-11.38,55-19,34.23-14.42,47.37-24.22,50-21,3.43,4.2-15.17,25.4-28,38s-30.62,30.08-59,43c-30.44,13.86-49,11.6-57,28-2.43,5-2.54,9-2,23,1.68,43.57,4.76,56.73,5,81,.23,23.46.35,35.44-4,52-6.43,24.46-16.78,36.76-11,45,4.84,6.91,17,5.27,33,4,37.6-3,1.83,3.53,83-1,74.31-4.15,67.45-7.56,82-5,9.2,1.62,19.21,4.27,29-1,8.46-4.55,10.23-11.5,21-36,15.54-35.33,18.17-35.24,21-49,1.5-7.26,1.66-17.84,2-39,.48-30.36-.79-34.2,0-52,.88-19.86,2.56-17.32,6-51,2.92-28.61,1.61-29.46,5-63,1.28-12.63,1.95-17.33,4-38,.93-9.37,2.22-22.79,3-40,.84-18.57.35-25.14-1-32-1.18-6-3.12-11.32-7-22-7.31-20.12-11-30.18-14-30-4.82.29-3.73,19.63-14,48-4.8,13.25-9.56,26.4-20,38s-17.48,11.38-53,27c-42.84,18.85-58.38,30.66-70,23-1.7-1.12-1.32-1.34-11-17-4.84-7.83-12.63-20.42-20-31-12.91-18.52-13.56-15.1-20-26a108.62,108.62,0,0,1-14-40c-.75-5.83-.09-5,0-36,.07-24-.33-21.39,0-26,1.89-26.54,9.6-35,4-43C993.29,1318.3,981.21,1314.88,974,1319Z"
          transform="translate(-510.37 -257)"/>
    <path class="cls-16"
          d="M1073,1295c-2.79-4.74,5-10.44,9-23,3.92-12.26.05-17.9,5-22,2.95-2.44,5.38-1.33,18-1,15.19.39,17.2-1.08,31,0,8.93.7,13.44,1.08,16,3,6.76,5.07,3.69,12.19,10,26,5.85,12.81,12.81,16.14,11,20-2.42,5.17-16.82,3.31-27,2-26-3.35-27.51-10.66-40-8-10.35,2.2-17.4,8.93-28,6C1074.53,1297,1073.48,1295.82,1073,1295Z"
          transform="translate(-510.37 -257)"/>
    <path class="cls-16"
          d="M1100,1086c1.37-3.89,1.73-3.66,10-20,11.65-23,12.4-26.4,16-27,7.27-1.21,9.2,11.73,29,25,7.17,4.8,12.16,6.62,12,10-.22,4.83-10.62,5.62-21,13-8.32,5.92-12,12.74-19,26-8.6,16.17-15.46,29.07-16,46-.84,26,13.93,38,6,49-5,6.91-16.27,9.69-21,6-4.46-3.47-2-11.81,0-25,3.29-21.84,2.75-40.12,2-65C1097.44,1105.26,1095.79,1098,1100,1086Z"
          transform="translate(-510.37 -257)"/>
    <path class="cls-16"
          d="M1147,1004c-.53-6.83,6.47-7.08,17-23,6.25-9.45,13.62-20.59,14-35,.21-8-1.88-11.77,1-15,3.91-4.38,11.31-1.47,25,0,8.3.89,20.2.26,44-1,19.46-1,26.2-2.29,27,0,1.14,3.27-11.84,8.31-27,20-13.29,10.25-34,26.25-42,51-4.93,15.31-3.48,29.35-15,41-5.25,5.3-8.45,5.33-10,5-5-1.06-5.38-8.49-10-17C1161.85,1013.13,1147.75,1013.7,1147,1004Z"
          transform="translate(-510.37 -257)"/>
    <path class="cls-16"
          d="M1244,1004c-1.16-3.5,4.54-10,16-23,12.66-14.32,19.23-19.59,24-23,7.52-5.38,16.3-11.66,20-9,2.68,1.93.64,7.07-2,22-3.7,20.92-5.55,31.38-5,43,.36,7.63,1.45,12.67-1,14-3,1.65-7.68-4.54-16-10C1261.66,1006,1246.42,1011.29,1244,1004Z"
          transform="translate(-510.37 -257)"/>
    <path class="cls-16"
          d="M1341,951c10-5.76,24.67,2.25,37,9a82.4,82.4,0,0,1,32,32c4,6.81,8.12,14.12,8,24,0,3.83-1.37,8.27-4,17-5,16.47-7.53,24.71-11,25-3.63.3-4.39-6.73-11-14-10.75-11.83-29.21-15.7-43-14-16.2,2-23.92,11.46-28,8-3.69-3.13.8-12.39,5-26C1337.88,973.47,1329.73,957.47,1341,951Z"
          transform="translate(-510.37 -257)"/>
    <path class="cls-18"
          d="M523,1873c-1.16-2.5,2.23-11.66,9-30s10.31-27.79,16-37c7.7-12.46,13-21,23-27,19.49-11.63,42.69-5,64,1,15.33,4.35,27.64,10.68,38,19,6.44,5.17,11.61,9.42,15,17,3.8,8.5,2.92,16.78,1,33-1.73,14.67-2.6,22-7,26-8.87,8.07-25.34,3-33,1C586.49,1859.48,531.48,1891.26,523,1873Z"
          transform="translate(-510.37 -257)"/>
    <path class="cls-18"
          d="M1447,1231c-4.32,1.52,1.67,14-4,35-6.54,24.19-21.52,33.4-17,42,3.26,6.2,12.27,3.81,25,9,21.94,8.95,25.26,31.5,31,30,6.43-1.68,7.22-29.82,0-57C1473.32,1257.35,1453.74,1228.62,1447,1231Z"
          transform="translate(-510.37 -257)"/>
    <path class="cls-17"
          d="M1052,949c-4.2.74-6,3.86-18,28-18.93,38-22,45.12-25,56-4.59,16.46-6.83,24.9-4,35,1,3.44,3.67,11.35,23,29,13,11.83,38,34.73,46,29,3.52-2.53,1.07-8.73,0-23-.69-9.17-2.47-33,5-53,9.34-25,28.58-31.74,25-47-.81-3.44-2.31-5.36-8-12C1071.33,962.18,1058.86,947.79,1052,949Z"
          transform="translate(-510.37 -257)"/>
    <path class="cls-17"
          d="M1002,1211c-1.73-1.6,5.6-9,10-23,4.86-15.48,1.34-23.75,6-26,3.69-1.78,7.78,2.52,26,16s21.48,14.62,23,20c1.87,6.65-1.63,10.14-9,29-8.35,21.36-9.45,31.21-12,31-6.06-.49,0-56-16-61C1019.55,1193.71,1004.66,1213.47,1002,1211Z"
          transform="translate(-510.37 -257)"/>
    <path class="cls-17"
          d="M1356,804c3.07-2.5,8.69-.33,12,1,11.62,4.65,16.36,12.47,28,25,8.32,9,12.87,13.85,20,19,13.83,10,17.87,6.84,31,16,6.44,4.5,19,13.25,24,29,3.42,10.74,1.87,20.1,1,25-2.81,15.84-9.73,17.5-18,39-5.67,14.73-5.84,22.85-9,23-4.37.21-5.29-15.23-15-33-2.24-4.1-13.88-24.66-36-38-22.66-13.67-39.54-9.65-46-23-1.84-3.81-1.16-9.57,0-21,2.5-24.73,9.39-27.66,8-44C1355.24,813.05,1352.57,806.79,1356,804Z"
          transform="translate(-510.37 -257)"/>
    <path class="cls-19"
          d="M1371.22,885.72c3-6.66,4.51-10,8.72-18-2-16.54-.48-32.35,2.15-48.71,3,3.35,4.63,4.92,7.88,8a141.93,141.93,0,0,0-2.93,23.85c-.31,6.08-.33,10.59-.32,15.32l.18.13c3.48-1.93,7.46-3.63,12.27-5.76,7.09-3,10.85-4.66,18.77-8.26,3.38,3.23,5.06,4.89,8.37,8.36-12.69,4.46-25.47,8.43-38.34,12.34-4.12,7.49-5.54,10.43-8.46,16.21A78.82,78.82,0,0,0,1371.22,885.72Z"
          transform="translate(-510.37 -257)"/>
    <path class="cls-19"
          d="M1440,933.81a234.31,234.31,0,0,0-18.68-30.67,92.4,92.4,0,0,1-8,10.67,177.85,177.85,0,0,1,18.75,33.82,16.43,16.43,0,0,1-2.55,1.49c-6.66-14.8-13.79-28.8-24.63-41.05,10.12-12.85,18.39-27.4,27.22-41.13a332.29,332.29,0,0,1,28.73,38.46c-1.88,3.17-2.8,4.7-4.59,7.61a337.88,337.88,0,0,0-21.36-31c-4.83,7.63-7,11-10.64,16.64a255.59,255.59,0,0,1,19.13,30.52C1442,931.22,1441.3,932.13,1440,933.81Z"
          transform="translate(-510.37 -257)"/>
    <path class="cls-19"
          d="M1439,960.16a139.31,139.31,0,0,0,6.24,22.16c4.53,11.92,10,17.6,14.16,14.94,3.87-2.47,3.6-9.1-.1-23.17-3.13-11.89-8-26.83-1-38.17,8.46-13.72,22.25-.73,29.46,6.52,6,7.74,9.59,14.92,11.15,20.13-3.27,2.92-4.88,4.26-8,6.69a61.17,61.17,0,0,0-8.75-18.16c-7.68-10.77-14-9.19-16.84-4.81-5.15,8.07-1,20.34,1.42,28.53,2.56,8.82,8.4,27.14-1,32.54-11.45,6.56-20.64-16.62-24.11-24.79a186.25,186.25,0,0,1-6.63-23.69A21.86,21.86,0,0,0,1439,960.16Z"
          transform="translate(-510.37 -257)"/>
    <path class="cls-8"
          d="M1501,926s13.18,4.41,20.5,11.5c34.64,33.56,52,50.34,67,79,9.78,18.62,15.68,29.87,18,47,1.2,8.85.15,24.69-2,56-1.61,23.41-2.33,27.53-2,39,.33,11.17.79,24.38,5,40,6,22.41,15,37,15,37s-44-37-49-56c-10.27,4.38,5,75,5,75s-31-40.94-38-59a92.44,92.44,0,0,1-5-18,101.92,101.92,0,0,1-1-20c.51-16.21,3.11-18.86,3-29-.11-9.88-2.68-17-6-26s-12.73-33.55-36-55c-11.6-10.69-20.08-14.54-29-29-2.29-3.71-10-20-10-20Z"
          transform="translate(-510.37 -257)"/>
    <path class="cls-17"
          d="M1473,996c1.34-10,8.56-9.49,17-27,6.28-13,5-18.94,10-21,6.5-2.69,15.14,4.71,28,16,14.67,12.87,24.5,25.09,34,37,.44.56-.07-.08,17,23,12.9,17.44,15,20.25,15,25,0,9.46-8.25,12-20,27-17,21.72-17.81,39.57-24,39-4.67-.43-4.2-10.61-13-29a143.52,143.52,0,0,0-25-36c-10.78-11.25-12.92-9.43-22-20S1471.35,1008.27,1473,996Z"
          transform="translate(-510.37 -257)"/>
    <path class="cls-17"
          d="M1548,1160c-3.06,4.55-2.68,9.49-2,17,1.63,17.9,9.76,33.66,12,33,1.6-.47-1.79-8.69,0-22,1.88-13.95,8.77-28.44,14-28,2.82.24,3.15,4.65,9,15,4.7,8.32,12.7,20,15,19s-3.44-12.86-5-30c-2.54-27.88,7.86-47.37,4-49-2.82-1.19-10,8.56-17,18-7.27,9.85-6.59,11.17-11,15C1558.48,1155.39,1552.32,1153.58,1548,1160Z"
          transform="translate(-510.37 -257)"/>
    <line class="cls-4" x1="1011.13" y1="635.5" x2="861.13" y2="880.5"/>
    <path class="cls-19"
          d="M1497.77,1015.67c6-6.44,8.74-9.24,15.28-15.48a210,210,0,0,1,9.48-37.93c3.06,2.64,4.62,4,7.69,6.69-2.77,7.39-4,11.13-6.12,18.36-1.44,5-2.49,8.79-3.68,12.94l.15.15c4-1,8.43-1.62,13.62-2.46,7.63-1.16,11.57-1.75,19.78-3.27a107.78,107.78,0,0,1,6.06,9.3c-13.38,1.14-26.76,1.75-40.15,2.61-6.36,6-9,8.53-14.58,14.37C1502.38,1018.71,1500.86,1017.66,1497.77,1015.67Z"
          transform="translate(-510.37 -257)"/>
    <path class="cls-19"
          d="M1554.86,1073.24a292.34,292.34,0,0,0-9.91-32.11c-5,4.31-7,6-10.72,9a157.59,157.59,0,0,1,11.26,34.44c-1,.61-1.43.87-2.3,1.36-4-15.19-8.77-28.35-16.5-42,12.41-11,24.91-21.85,37.27-32.88a304.92,304.92,0,0,1,15.91,42.61c-2.47,2.31-3.66,3.41-6,5.5a250.87,250.87,0,0,0-11.1-33.73c-6.28,5.64-9.08,8.11-13.95,12.34a312.25,312.25,0,0,1,10,32.24C1557.15,1071.4,1556.35,1072,1554.86,1073.24Z"
          transform="translate(-510.37 -257)"/>
    <path class="cls-19"
          d="M1549.21,1097.23a164.89,164.89,0,0,0,1.88,21.87c1.84,12,4.65,18.37,7.81,16.68,2.93-1.56,3.75-7.76,3.56-21.41-.15-11.15-1.37-26.08,7.45-34.27,9.8-9.1,20.66,5.46,23.17,14.31,3,8.49,4.13,15.68,4.07,20.63-3.52,1.7-5.19,2.44-8.37,3.74a60,60,0,0,0-2.69-18.34c-3.67-11.64-9.33-12.16-12.81-9.12-4.77,4.17-5.44,11.63-5.22,25.69.16,10.13-.51,28-6.06,29.82-5.93,2-11.49-18.55-13.24-27.77a232.93,232.93,0,0,1-2.48-23.44A23.28,23.28,0,0,0,1549.21,1097.23Z"
          transform="translate(-510.37 -257)"/>
    <path class="cls-19"
          d="M1068.43,1167.39c-9.25-.21-13.68-.08-22.82-.87-13.62,7.73-26.59,14.27-41.54,19a38.49,38.49,0,0,0,5.33-10.94,116.47,116.47,0,0,0,19.07-8c5.16-2.54,9.21-4.62,13.73-6.75l.06-.26c-3.09-3-6.31-6.89-10.68-11.74a253.44,253.44,0,0,0-18.81-19.6c-.43-6.17-.73-9.31-1.35-15.65a508,508,0,0,1,37,42.87c9.5,1.48,14,1.78,23.25,2.78A51,51,0,0,1,1068.43,1167.39Z"
          transform="translate(-510.37 -257)"/>
    <path class="cls-19"
          d="M1047,1065c-.61,12.36-.21,24.75.37,37.1,9,4.08,13.1,6.06,21.09,9.91-.54-12.25-1-24.51-.38-36.77l5.83,4.18c-.3,15.27.3,30.43.81,45.7-21.27-8.59-42.52-16.85-64.41-23.72-1.86-19.43-3.06-38.34-2-57.84,3.77,1.28,5.58,2,9.06,3.41a362.23,362.23,0,0,0,.44,43.2c10,3.41,14.39,5.28,22.7,8.89a356.86,356.86,0,0,1-.37-38.25C1043,1062.44,1044.32,1063.29,1047,1065Z"
          transform="translate(-510.37 -257)"/>
    <path class="cls-19"
          d="M1066.64,1060.15c2.63-3.6,5.46-9.76,7.79-17.84,3.46-12,3.9-22.34-.93-26.79-4.48-4.12-11.11-1.53-17.89,8.33-5.15,7.48-14.44,18.49-24.89,12.53-13.73-7.83-16.44-26.78-8.55-39.67a53.62,53.62,0,0,1,19.08-17.39c1.57,2.26,2.34,3.5,3.89,6.11a44.86,44.86,0,0,0-15.22,14.93c-7.23,12.19-1.83,20.22,2.9,22.94,6.48,3.73,10.36-.83,19.39-10.16,5.9-6.1,19.87-19,27.82-10.56,9.31,9.85,3.15,32.07-.42,45-2.34,8.75-5.13,16.7-7.54,19.87C1069.91,1064.59,1068.82,1063.13,1066.64,1060.15Z"
          transform="translate(-510.37 -257)"/>
</svg>