<?xml version="1.0" encoding="utf-8"?>
<!-- Generator: Adobe Illustrator 21.0.0, SVG Export Plug-In . SVG Version: 6.00 Build 0)  -->
<svg version="1.1" id="Capa_1" xmlns="http://www.w3.org/2000/svg"  x="0px" y="0px"
	 viewBox="0 0 436.7 512" style="enable-background:new 0 0 436.7 512;" xml:space="preserve">
<style type="text/css">
	.st0{fill:#FFFFFF;stroke:#000000;stroke-width:10;stroke-linecap:round;stroke-linejoin:round;stroke-miterlimit:10;}
	.st1{stroke:#000000;stroke-width:10;stroke-linecap:round;stroke-linejoin:round;stroke-miterlimit:10;}
	.st2{fill:#FFFFFF;}
</style>
<title>android-logo</title>
<path d="M31.8,167h-1.3C13.7,167,0,180.7,0,197.5v132.8c0,16.8,13.7,30.5,30.5,30.5h1.3c16.8-0.1,30.5-13.7,30.5-30.5V197.5
	C62.3,180.7,48.6,167.1,31.8,167z"/>
<path class="st0" d="M77,381.6c0,15.5,12.6,28,28,28h30v71.8c0,16.8,13.7,30.5,30.5,30.6h1.3c16.9-0.1,30.5-13.7,30.5-30.6v-71.8
	h41.9v71.8c0,16.9,13.7,30.5,30.6,30.6h1.3c16.9,0,30.5-13.7,30.5-30.6v-71.8h30c15.4,0,28-12.6,28-28V171.8H77V381.6z"/>
<path d="M239.5,404.5v73.7c0,17.3,13.7,31.3,30.6,31.4h1.3c16.9,0,30.5-14.1,30.5-31.4v-73.6"/>
<path d="M135,404.5v73.6c0,17.3,13.7,31.3,30.5,31.4h1.3c16.9-0.1,30.5-14.1,30.5-31.4v-73.6"/>
<path d="M288.8,44.6l23.8-36.8c1.5-2.3,0.9-5.5-1.5-7c0,0,0,0,0,0c-2.3-1.5-5.4-0.9-6.9,1.4c0,0,0,0.1-0.1,0.1l-24.7,38
	c-39.2-15.8-82.9-15.8-122.1,0l-24.6-38c-1.6-2.3-4.8-2.9-7.1-1.3c-2.2,1.5-2.8,4.5-1.5,6.8L148,44.6C105,65.6,76,105.3,76,150.8
	c0,2.8,0.2,5.6,0.4,8.3h283.9c0.2-2.7,0.4-5.5,0.4-8.3C360.7,105.3,331.7,65.6,288.8,44.6z M152.6,110.4c-7.5,0-13.6-6.1-13.6-13.7
	c0-7.5,6.1-13.6,13.7-13.6c7.5,0,13.6,6.1,13.6,13.6C166.2,104.3,160.1,110.4,152.6,110.4C152.6,110.4,152.6,110.4,152.6,110.4z
	 M284.2,110.4c-7.5,0-13.6-6.1-13.6-13.6c0-7.5,6.1-13.6,13.6-13.6c7.5,0,13.6,6.1,13.6,13.6C297.8,104.3,291.7,110.4,284.2,110.4
	L284.2,110.4z"/>
<path d="M406.2,167h-1.3c-16.8,0-30.5,13.6-30.6,30.5v132.9c0,16.9,13.7,30.5,30.6,30.5h1.3c16.8,0,30.5-13.7,30.5-30.5V197.5
	C436.7,180.6,423,167,406.2,167z"/>
<path class="st0" d="M288.8,44.6l-9.4-4.3c-39.2-15.8-82.9-15.8-122.1,0l-9.3,4.3C105,65.6,76,105.3,76,150.8c0,2.8,0.2,5.6,0.4,8.3
	h283.9c0.2-2.7,0.4-5.5,0.4-8.3C360.7,105.3,331.7,65.6,288.8,44.6z"/>
<path class="st1" d="M109.6,106c0.9-6.2,1.7-13.2,10-22c8.1-8.6,20.7-15.7,36-21c8.9-3.1,19.7-6.8,28.3-1.3c9.6,6,10.6,19.4,11,26
	c0.3,4.4,1.2,25.9-15.7,41.3c-1,0.9-23.4,20.9-46.7,11C119.2,134.3,107.6,119.5,109.6,106z"/>
<path class="st2" d="M157.2,112.6c-7.5,0-13.6-6.1-13.6-13.6c0-7.5,6.1-13.6,13.6-13.6c7.5,0,13.6,6.1,13.6,13.6
	C170.8,106.5,164.7,112.6,157.2,112.6L157.2,112.6z"/>
<path class="st1" d="M329.2,106c-0.9-6.2-1.7-13.2-10-22c-8.1-8.6-20.7-15.7-36-21c-8.9-3.1-19.7-6.8-28.3-1.3
	c-9.6,6-10.6,19.4-11,26c-0.3,4.4-1.2,25.9,15.7,41.3c1,0.9,23.4,20.9,46.7,11C319.6,134.3,331.2,119.5,329.2,106z"/>
<path class="st2" d="M281.7,112.6c-7.5,0-13.6-6.1-13.6-13.6c0-7.5,6.1-13.6,13.6-13.6c7.5,0,13.6,6.1,13.6,13.6
	C295.3,106.5,289.2,112.6,281.7,112.6L281.7,112.6z"/>
</svg>
