<svg xmlns="http://www.w3.org/2000/svg" viewBox="0 0 253.54 344.56">
    <defs>
        <style>
            .cls-1,.cls-4{fill:#fff;}.cls-1,.cls-2,.cls-5,.cls-6,.cls-7,.cls-8,.cls-9{stroke:#000;}.cls-1,.cls-2,.cls-3,.cls-5,.cls-6,.cls-7,.cls-8,.cls-9{stroke-linecap:round;stroke-linejoin:round;}.cls-1,.cls-2,.cls-5,.cls-6,.cls-7{stroke-width:6px;}.cls-3,.cls-5,.cls-9{fill:none;}.cls-3{stroke:#fff;}.cls-3,.cls-8,.cls-9{stroke-width:3px;}.cls-6{fill:#ff2915;}.cls-7{fill:#aa6800;}.cls-8{fill:#00bf90;}
        </style>
    </defs>
    <title>apple-logo</title>
    <g id="Layer_2" data-name="Layer 2">
        <g id="Layer_4" data-name="Layer 4">
            <path class="cls-1"
                  d="M36.51,188.45a30.62,30.62,0,0,1,8-8.8,129.64,129.64,0,0,1,37-19.8c21.1-6.2,55.2-16.3,91.8-1.3,8.6,3.5,23.6,9.9,35.8,25,9.7,12,14,24.9,17.3,34.8,2.7,8.3,4.2,15.5,7.3,30,2.2,10.5,1.6,9.6,5,26.8,1.8,9,3.4,18,5.3,27,.4,1.7,1.7,8.6,2.8,17.8.2,1.6.3,2.4.3,2.5-2.5,15.5-136.2-1.7-188.5,9a12.84,12.84,0,0,1-6,0c-22.8-5.6-15.1-74.2-19.5-122.5C32.51,205.65,31.61,196.75,36.51,188.45Z"/>
            <path class="cls-2"
                  d="M199.51,172.35c4.5-.6,9.8,4.2,14.3,8.3,8.7,7.9,12.3,17.2,16.3,30,1.7,5.5,7.1,23.2,12.7,52.3,0,0,2.7,14.2,5.7,36.3,0,0,.9,6.8,1.7,16a41.41,41.41,0,0,1,.3,6c-1.9,9.4-32,6.5-52.3,7.3C186.71,329.15,177.31,175.35,199.51,172.35Z"/>
            <path class="cls-2"
                  d="M104.81,25.95c-1.9-3-7.7.7-18.8-4.3-3.1-1.4-2.7-1.7-13-7.8-6.3-3.7-9.5-5.6-12.3-6.5a34.47,34.47,0,0,0-15.3-2,29.9,29.9,0,0,0-16.8,7,30.29,30.29,0,0,0-9.3,16.3,33.79,33.79,0,0,0,.3,14.5,45.14,45.14,0,0,0,5,13.5c2.8,5.1,5,9.2,9.5,12,5.6,3.5,11.6,3,14.5,2.8C73,69.45,109.91,34,104.81,25.95Z"/>
            <path class="cls-2"
                  d="M45,67.15c-2.6.3-3.1,3.6-7.8,5a9.75,9.75,0,0,1-5.3.3c-3.3-1.1-4.5-4.4-5.3-4s-.2,3.2.8,5.5a13.82,13.82,0,0,0,4.8,6c3,2.1,5.9,2.3,8.3,2.5,2.6.2,12,.9,13.8-3.5S49.41,66.55,45,67.15Z"/>
            <path class="cls-2"
                  d="M126.81,23.15c1.1-2.5,7.7.6,17.8-3.3,5-1.9,4.7-3.2,14.5-8.5,6-3.3,9-4.9,13.5-6.3a41.45,41.45,0,0,1,17-1.8,31.42,31.42,0,0,1,11.5,3.3,28.76,28.76,0,0,1,12,12.5c4,8.1,2.7,15.7,2.3,18.5-.7,3.8-2.5,7.4-6,14.5-3.1,6.2-4.6,9.3-7.3,12-.5.5-6.4,6.5-13,7.8-10.4,2-16.4-8.8-40.5-28.5C135.21,32.55,125.31,26.35,126.81,23.15Z"/>
            <path class="cls-2"
                  d="M186,63.15c1.7-.4,2.3,1.7,7.3,4a18.4,18.4,0,0,0,8.3,2,11.15,11.15,0,0,0,6.5-2c1.6-1.3,2-2.7,2.5-2.5.7.2.6,3.9-1,7a14.28,14.28,0,0,1-5,5.3,19.26,19.26,0,0,1-9.8,3c-3.5.1-8.2.3-10.8-2.8C180.31,72.75,182.91,63.95,186,63.15Z"/>
            <path class="cls-1"
                  d="M11,104.65c.2.2-1.8,2.2-1.5,5,.3,2.6,2.6,4.3,3.5,5a13.5,13.5,0,0,0,7.5,2.3,15,15,0,0,0,10.3-3.8c2.3-2.2,3.2-4.7,4.3-8.8,1.7-6.7,2.6-10.1,3-17.3a81.6,81.6,0,0,1,8.5-31.5c5.4-10.3,12.9-16.3,17.8-20,13.9-10.8,27.9-13.7,36-15.3a94.59,94.59,0,0,1,31.8-.8,86.61,86.61,0,0,1,27.5,9.3,85.48,85.48,0,0,1,20.3,15,54.06,54.06,0,0,1,10.3,13.8c2.4,4.7,3.4,8.8,5.3,17,3.1,13.5,4.7,20.3,5.3,24.5a17.6,17.6,0,0,0,2.8,8,15.23,15.23,0,0,0,6.8,5.8,15.07,15.07,0,0,0,8.3,1c1.2-.2,6-1,8.5-4.8,2.4-3.6,1.2-7.6,2-7.8s2.5,4.5,3,9.3a28.23,28.23,0,0,1-.8,10.3,20.29,20.29,0,0,1-4,8.5c-3.1,3.6-6.8,4.4-6.5,5.3.2.7,3.3.8,5.8-.5s3.5-3.7,4-3.5,0,2.8-1.3,5a13.35,13.35,0,0,1-4.5,4.5c-3.1,1.9-5.5,1.9-5.5,2.5s2.7,1.5,5.3,1c2.4-.4,3.7-1.8,4-1.5s-1.2,2.7-3.3,4.8a28.18,28.18,0,0,1-10.8,6.8c-23.9,8.2-66.6,44.4-96,31.3-1.4-.6-15.9-7.2-22.3-4-.9.5-3.3,1.7-4,4s.9,4.3.3,4.8-3.3-1.1-4-3.5c-.9-2.9,1.7-5.2.8-6.3s-4.2-.3-5.8,1.8c-1.5,1.9-.6,4-1.8,4.5-1.5.7-4.4-2.3-5-3-1.3-1.4-3.4-3.7-3.5-6.8-.1-3.8,3-5.9,2.3-6.8s-4,0-5.5,2.3c-1.7,2.5-.2,5.3-1.3,5.8s-3.6-1.6-4-4.3c-.6-3.7,3.5-6.9,2.8-7.8-.5-.6-2.2.7-5.8,1.5-3.1.7-6.3.9-6.5.3s1.8-1,3.8-3.3c.5-.5,2.6-2.9,2-3.8-.7-1.2-6.2-.1-10.5,3s-5.4,6.5-6.8,6c-1.2-.4-1.7-3.3-.8-5.5,1.4-3.1,5.6-3.5,5.5-4-.2-.7-7.2-1.1-10,2.8-2,2.8-.7,6.2-1.8,6.5s-3.5-2.6-3.5-5.8,2.9-5.2,2.3-6-3.9-.1-5.3,2c-1.5,2.3-.1,5.3-.8,5.5s-3.3-2.6-3.8-6.3c-.6-5.4,4.1-8.7,2.8-10.5-1-1.3-4.8-1-6.5,1-2,2.3-.4,6-1.3,6.3s-3.9-3-3.8-6.8c.2-5.3,6.4-8.3,5.5-10.3-.5-1-2.5-.3-5.3-.8-7.1-1.1-11.2-8.3-11.5-8.8-4.1-7.3-1.4-14.6-.8-16.3C6.81,107.55,10.71,104.45,11,104.65Z"/>
            <path class="cls-2"
                  d="M58.31,105.95a15.08,15.08,0,0,0,1,7.3c2.6,6.1,9.4,8.1,11.8,8.8,6.4,1.9,11.9.4,15.3-.5a38.34,38.34,0,0,0,12.8-6.5,27.75,27.75,0,0,0,7.8-7.5,25.13,25.13,0,0,0,3.8-13c.2-4.1.3-8.3-2.5-12a15,15,0,0,0-8.5-5.3c-6.9-1.7-13,1.5-16.3,3.3-5.9,3.1-4.6,4.7-12.8,9.8-4.5,2.8-6.3,3.2-8.5,6A16.19,16.19,0,0,0,58.31,105.95Z"/>
            <path class="cls-2"
                  d="M126.51,84.95c-1.8,5.2-.5,9.8.8,14a29.54,29.54,0,0,0,7,13.3c4.2,4.4,8.7,6.2,12.8,7.8,5.2,2,10.9,4.2,17.8,2.5a21.33,21.33,0,0,0,9.5-5.3c1.5-1.5,5.6-5.6,5.3-11a12.4,12.4,0,0,0-2.3-6c-1.5-2.6-3.3-4.2-6.3-6.8-6-5.1-6.8-5.3-10.5-8.5-5.9-5.2-5.3-6-8.5-7.8a21.08,21.08,0,0,0-12.5-2.3,15.57,15.57,0,0,0-8.5,3.3A13.52,13.52,0,0,0,126.51,84.95Z"/>
            <path class="cls-3"
                  d="M78,106.95a49.93,49.93,0,0,1,8-4.5,33.83,33.83,0,0,1,9-2.8c3.8-.5,5.5.2,6.3.5a9.68,9.68,0,0,1,3.5,2.8"/>
            <path class="cls-3"
                  d="M160.61,106.95a49.93,49.93,0,0,0-8-4.5,33.83,33.83,0,0,0-9-2.8c-3.8-.5-5.5.2-6.3.5a9.68,9.68,0,0,0-3.5,2.8"/>
            <path class="cls-2"
                  d="M127.31,130.65h-15.6a6.49,6.49,0,0,1-6.5-6.5h0a6.49,6.49,0,0,1,6.5-6.5h15.6a6.49,6.49,0,0,1,6.5,6.5h0A6.49,6.49,0,0,1,127.31,130.65Z"/>
            <path class="cls-4" d="M128.81,124.15h-9.9a2.3,2.3,0,0,1,0-4.6h9.9a2.3,2.3,0,1,1,0,4.6Z"/>
            <path class="cls-5"
                  d="M119.51,128.65c.2,9,.2,12.8.3,14.5v6.6c-.7,3.3-7.4,4.7-9,5a21.38,21.38,0,0,1-8.8,0,19.4,19.4,0,0,1-8-3.8,15,15,0,0,1-5-6,12.08,12.08,0,0,1-1.3-6.3c.5-3.1,2.5-4.9,2-5.5-.3-.4-1.3-.3-4.3,1.3"/>
            <path class="cls-2"
                  d="M91.41,243.55c-1.2-1.1-.5-5.3.6-15.2.8-6.5,1.1-9.7.8-13.5-.4-4.3-1.3-4.8-2.8-13a69.94,69.94,0,0,1-1.3-8.3c-.3-5.9,1.1-10.1,3.8-18.3a37.8,37.8,0,0,1,4.5-10c1.5-2.2,2.7-4,5-5.3,3.5-1.9,7.2-1.3,9-1,7.2,1.3,11.6,6.6,13,8.3,7.3,8.9,6.4,20.3,6,26.5a55.48,55.48,0,0,1-13,31.5C107.71,236.25,94.51,246.35,91.41,243.55Z"/>
            <path class="cls-2"
                  d="M57.31,186.45c8,5.7,12.3,16.4,14.7,22.5s3.4,10.4,6.8,33.3c1.2,8.2,2.1,14.6,4.3,30.3,2.3,16.7,3.4,25,3,26.8-4.1,18.5-27.3,34.2-48.8,33.3-3.8-.2-10.5-.5-17.3-4.8-16.4-10.2-17.1-33.2-17-39.5.2-14.4,6.1-26.7,9-32.8,4.1-8.5,7.9-13.1,10.5-23.8,1.2-5.1,2.3-11.8,2.8-15,1.4-9.1,1.4-12.2,3.3-18,4-12.5,10.3-14.8,13.9-17.3C47.71,177.65,53.91,183.95,57.31,186.45Z"/>
            <path class="cls-2"
                  d="M8,300.45a34.2,34.2,0,0,0,2.5,13.5c5.2,13.1,16.5,19.1,21,21.5,13.4,7.1,26,6.3,33.8,5.8a65.27,65.27,0,0,0,26.5-6.8,68.1,68.1,0,0,0,23.8-20.3c6.9-9.4,9.5-18.1,11.8-25.5,3.3-11.1.9-9.9,5.5-33,1.2-6,1.7-7.6.8-10-4-10.4-26.9-15.2-38.3-7.3-2.4,1.7-3.2,3.1-8,6.5a63.18,63.18,0,0,1-13.3,7.3c-6.7,2.6-11.5,2.8-16,3.5a73.7,73.7,0,0,0-28,11.5C25.71,270.15,8.61,282,8,300.45Z"/>
            <path class="cls-6"
                  d="M171.31,151.95a27.16,27.16,0,0,0-8-8.5c-7.4-4.9-15.4-4.5-19.8-4.3a41.56,41.56,0,0,0-19.3,6c-3.4,2-9.2,5.5-13,12.5-3.4,6.2-3.5,11.9-3.5,19a82.13,82.13,0,0,0,5.3,28,90.49,90.49,0,0,0,15.8,27,46.21,46.21,0,0,0,14.5,11.8,20.16,20.16,0,0,0,8.5,2.5,20.48,20.48,0,0,0,10.3-2.5,23.22,23.22,0,0,0,8-7c3.4-4.5,11.3-18.1,11.8-41.3C181.81,190.85,182,168.65,171.31,151.95Z"/>
            <path class="cls-6"
                  d="M166.51,152.15c4-5.2,9.6-7.1,13.8-8.5a39.48,39.48,0,0,1,16.5-1.8,38,38,0,0,1,12,3.3,36.85,36.85,0,0,1,7.8,4.3,23.08,23.08,0,0,1,8,9.3c.5,1.2,3.2,7.3,2.5,17.8.1-5-8.5-9.3-9.8-.5-.7-7-14.3-10.7-15,5-12.1-8.3-17.8,10.9-3.8,13.3-9.6.9-9.8,21,10.3,14.3-4.5,11.1,6.3,8.7,9.4,5.4-2.6,6.8-10.4,16.9-17.9,23.3-6.4,5.5-11,7.8-15.5,9a20.53,20.53,0,0,1-9.5.8c-6.8-1.4-10.9-7.1-12.8-9.8"/>
            <path class="cls-7"
                  d="M169,147.15c-.5,0-1-5.4.2-11.3a36.44,36.44,0,0,1,8.7-16.8c3.9-4.2,5.8-4,6.5-3.8a2.79,2.79,0,0,1,2,1.8c.4,2.5-5.7,4.1-9.8,7.8C167.91,132.55,169.81,147.25,169,147.15Z"/>
            <path class="cls-8"
                  d="M204.21,116.45c-1-.4-2.1,3.5-7,6-3.7,1.9-5,.7-11.3,2.5-3.7,1.1-6.2,1.8-8.7,3.8-3.2,2.7-4.5,6-5.7,9-1.4,3.6-2.6,8.8-1.5,9.3.7.3,1.7-1.4,4-3.2,3.3-2.5,6.2-2.5,10.5-3.5,4.1-.9,9-2,12.5-4.5C205,130.35,205.91,117.25,204.21,116.45Z"/>
            <path class="cls-9"
                  d="M170.91,143.75a24.1,24.1,0,0,1,3.3-5.1,20,20,0,0,1,5.9-4.9,26.1,26.1,0,0,1,5.8-1.9c5.7-1.4,7-.9,9.4-2.1a13.52,13.52,0,0,0,5.6-5.5"/>
            <path class="cls-2"
                  d="M106,184.15c.8-.1,1,4.9,5.5,11.7,3.1,4.7,5.4,5.8,7,6.3,1.9.6,3.8.5,6.7-.2,5.6-1.3,9.7-3.6,15.2-6.8,7.4-4.4,8.6-5.3,13.3-7.8,5.7-3,8.7-4,12.2-3.8,1.7.1,5.3.2,7.7,2.8,2,2.2,2.1,4.9,2.2,8.2a29.72,29.72,0,0,1-2.3,12.3,31.56,31.56,0,0,1-10.3,12.8c-2.1,1.7-7.4,5.4-17.5,7.7-11.5,2.6-25.5,5.8-34.7-1.7C96.41,213.95,104.11,184.25,106,184.15Z"/>
            <path class="cls-2"
                  d="M101.21,227.85a21.39,21.39,0,0,0-1.3,19.3c3.6,8,12.5,11.1,15.5,12.2,4.2,1.4,7.6,1.6,12,1.8a69.78,69.78,0,0,0,16.8-1.2,71.88,71.88,0,0,0,17-4.8c5.3-2.3,7.3-4.1,8.7-5.8a16,16,0,0,0,3.3-8.3,19.47,19.47,0,0,0-3-11C162,216.75,113.21,208.25,101.21,227.85Z"/>
            <path class="cls-2"
                  d="M132.81,226.15c.6-9.7,18.8-14.1,27.7-16.2,7.2-1.7,11-1.3,14,.7,4.4,2.9,5.5,8.1,5.7,9,1,5.1-1.2,9.2-2.2,11a25.29,25.29,0,0,1-24,12.8C143.21,242.45,132.31,233.95,132.81,226.15Z"/>
        </g>
    </g>
</svg>