<?xml version="1.0" encoding="utf-8"?>
<!-- Generator: Adobe Illustrator 21.0.0, SVG Export Plug-In . SVG Version: 6.00 Build 0)  -->
<svg xmlns:xlink="http://www.w3.org/1999/xlink" version="1.1" id="Слой_1" xmlns="http://www.w3.org/2000/svg" x="0px" y="0px"
	 viewBox="0 0 1000 1000" style="enable-background:new 0 0 1000 1000;" xml:space="preserve">
<style type="text/css">
	.st0{clip-path:url(#SVGID_2_);}
	.st1{stroke:#000000;stroke-width:8;stroke-linecap:round;stroke-linejoin:round;}
	.st2{fill:#1A243D;stroke:#000000;stroke-width:8;stroke-linecap:round;stroke-linejoin:round;}
	.st3{fill:#E2D9AF;stroke:#000000;stroke-width:8;stroke-linecap:round;stroke-linejoin:round;}
	.st4{fill:#69728C;stroke:#000000;stroke-width:8;stroke-linecap:round;stroke-linejoin:round;}
	.st5{fill:none;stroke:#000000;stroke-width:8;stroke-linecap:round;stroke-linejoin:round;}
	.st6{fill:#D9D9D9;stroke:#000000;stroke-width:8;stroke-linecap:round;stroke-linejoin:round;}
	.st7{fill:#FFFFFF;}
	.st8{fill:#D9D9D9;}
	.st9{fill:#380208;}
	.st10{fill:#6A0006;}
	.st11{fill:#FFFFFF;stroke:#000000;stroke-width:8;stroke-linecap:round;stroke-linejoin:round;}
	.st12{fill:#513B3B;stroke:#000000;stroke-width:8;stroke-linecap:round;stroke-linejoin:round;}
	.st13{fill:#282828;}
	.st14{fill:#1A243D;}
	.st15{opacity:5.000000e-02;fill:#FFFFFF;enable-background:new    ;}
	.st16{opacity:0.1;fill:#FFFFFF;enable-background:new    ;}
	.st17{opacity:0.4;fill:#FFFFFF;enable-background:new    ;}
	.st18{fill:none;stroke:#11113F;stroke-width:20;stroke-miterlimit:10;}
</style>
<g id="Слой_2_1_">
	<g id="Слой_1-2_1_">
		<g id="Слой_2-2_1_">
			<g id="Слой_1-2-2_1_">
				<g>
					<defs>
						<circle id="SVGID_1_" cx="499" cy="549.2" r="428"/>
					</defs>
					<clipPath id="SVGID_2_">
						<use xlink:href="#SVGID_1_"  style="overflow:visible;"/>
					</clipPath>
					<g class="st0">
						<g id="Layer_6">
							<path class="st1" d="M743.8,1323.5c-5.6,0.1-24.3,0.3-31,13c-6.4,12.1,2.6,26.8,4,29c12.2,19.9,38.2,21.5,47,22
								c4.2,0.3,29.6,1.8,34-9c1.9-4.6-0.8-10.1-6-21c-3.7-7.6-6.1-12.7-11-18C766.1,1323.6,744.8,1323.5,743.8,1323.5z"/>
							<path class="st2" d="M764.8,1535.5c-8.5,9.8-18.3,14.8-17,18c0.6,1.5,2.8,0.9,4,3c1.6,2.8-0.4,7.3-3,10c-3.1,3.2-5.4,1.9-7,4
								c-4.2,5.4,8.7,16.6,5,26c-2.3,5.8-10,12-10,12s2,8.4,3,10c0,0,9,33,15,63l-494-0.5c-2.1-7.5-7.4-41-5-79.5
								c0.5-8.1,1.3-15.4,3-30c4.7-41.1,10-73,10-73c2.5-14.9,4-22.1,4-34c0-7.5-0.6-12.4,0-22c0,0,0.8-13.2,3-23
								c5.9-25.8,127.5-28.8,136-29c0,0,163.3-3.3,246,31c7.8,3.3,15,8,21,14c6.2,6.7,8.2,12.1,12,19c6.7,12,14,18.8,28,32
								c18.1,17,27.2,25.5,39,27c7.7,1,14-0.6,16,3C776.7,1521.8,767.5,1532.5,764.8,1535.5z"/>
							<path class="st3" d="M689.8,1287.5c-0.6,17.5-2.3,69.4,14,74c13,3.7,24-26.8,48-25c11.9,0.9,24.6,3.7,33,12
								c8.6,8.4,12,20,14,26c3.5-0.9,9.8-11.1,9-16c-1-6.2-6.1-5.6-10-13c-3.2-6.2-2.2-11.3-6-23c-0.5-1.9-1.5-3.7-3-5
								c-3.3-2.8-7.8-1.8-8-3c-0.3-1.4,6-2.8,6-5c0-1.9-5-3.3-7-4c-8.1-2.9-10.4-11.7-19-33c-8.8-21.6-9.7-20.7-16-38
								c-4.6-12.7-4-13-7-20c-5.4-12.7-14-33.1-22-33C702.3,1181.7,691.3,1240.4,689.8,1287.5z"/>
							<path class="st1" d="M360.8,682.5c-12.2,10.9-23.9,33-20,54c2.4,12.8,9.8,21.5,18,30c27.3,28.2,55.6,57.2,106,70
								c23.1,5.8,65.6,16.6,91-6c7.7-7,13.2-16,16-26c5.7-22-5.7-41.7-11-51C527.9,696.5,406.3,642,360.8,682.5z"/>
							<path class="st4" d="M630.8,927.5c10,59.7,3.5,105.9-4,159c-8.2,58.4-18.4,130.6-38,132c-24.5,1.8-27.9-109.6-105-265
								c-39.2-79-94-162.5-86-168c3.2-2.2,12.3,11.1,38,22c18.8,8,34.5,9.6,48,11c22.7,2.4,39.6,4.1,57-5c5.5-2.9,14.2-7.5,19-17
								c8.9-17.8-3.4-38.4-2-39C560.6,756.3,613.8,825.5,630.8,927.5z"/>
							<path class="st3" d="M595.8,845.5c35.4,84.3,20.8,173.8,15,209c-5.2,32-10,52-10,52c-7.9,33.1-12.6,40.2-14,58
								c-1.8,22.5,4.5,25.2,11,63c3.6,21,4.4,49.7,6,107c0.8,28.1,0.6,39.8,0,51c-1.4,28-2.1,42.1-4,48c-2.6,8.2-6.7,17.6-3,28
								c0.7,2,3.1,8.8,9,12c8.9,4.9,18.8-2.4,41-13c22.6-10.8,36.4-14.6,59-28c7.9-4.9,14.5-11.8,19-20c3.8-7.2,2.5-9.4,2-10
								c-2.4-2.8-10,0.9-11-1c-0.8-1.5,3.4-4.4,7-9c5.1-6.6,7.9-14.7,8-23c-0.1-7.1-3-8.7-6-18c-3.2-9.8-3.1-17.4-3-27
								c0.2-31.3-1.5-62.7,0-94c1.4-28,2.9-58.4,2-96c-1-41.5-2-85.7-9-114c-3.4-13.4-5.5-27.2-6-41c-0.1-2-0.1-3.4,0-16
								c0.3-41.2,0.7-45.7,0-56c-0.9-13-1.5-22.1-5-34c-4.8-16.5-13-31.8-24-45c-9.8-12.1-22.1-21.9-36-29c-15.3-7.6-21.7-6.1-38-11
								c-39.3-11.9-56.8-37.5-61-34C539.6,758.9,574,793.5,595.8,845.5z"/>
							<path class="st3" d="M592.8,800.5c13,26,20.9,48.5,29,96c6.4,37.6,9.1,75.8,8,114c0,0-1.4,46.7-20,98
								c-2.4,6.7-6.1,12.8-11,18c-9.7,10.3-25.1,17.8-29,14c-4.6-4.5,10.7-21.4,21-49c4.7-12.6,8.7-28.2,10-70
								c1.9-59,3.7-116.5-18-178c-5-14.1-12-34.2-27-58s-27.7-35.1-26-37C532.5,745.7,573.7,762.3,592.8,800.5z"/>
							<path class="st3" d="M383.8,771.5c25.6,19.6,40,36,40,36c24.7,28.2,56.7,72.3,97,160c15.4,33.5,23,50.2,32,76
								c22.1,63.7,28.9,115.9,35,163c3.3,25.8,7.2,55.2,8,95c0.7,33.6-1.5,37.8,0,76c1.9,47.3,2.8,71,5,78c2.6,8.3,6.8,19.5,2,24
								s-14.6-1.1-31-5c-16.6-3.9-22.4-1.9-45-3c-31.2-1.6-38.2-6.4-63-9c-15.3-1.6-44.8,1.6-104,8c0,0-37,4-74-6
								c0,0-17.9-4.8-19-13c-0.1-0.6-0.3-3.2-1-7c-0.4-2.5-0.9-4.4-1-5c-1.5-6.7-2.9-17.4-3-18c-1.2-8.3-83.3-487.6-81-575
								c0.8-28.1,10.9-38.8,16-43c1.9-1.6,4.6-3.4,17-8c26.3-9.8,31.3-8.1,49-15c13.7-5.5,26.8-12.6,39-21c15.7-10.8,14.4-13,21-15
								C326.9,743.4,342.3,739.8,383.8,771.5z"/>
							<path class="st3" d="M326.8,723.5c-3.1,4.5-6.4,8.9-10,13c-9.2,10.9-12.3,11.8-12,15c0.4,4.9,8.3,7.1,21,13
								c9.3,4.3,17.9,10.1,27,15c16.3,9,32,19,47,30c29.6,21.7,46.5,47.6,65,76c17.1,26.2,26.4,46.3,41,78c14.3,31.3,27,63.4,38,96
								c5.4,16,11.1,32.6,17,55c12.1,45.8,16.1,80.1,22,132c5.3,46.4,2.5,42.2,6,86c0.7,7.3,0.7,14.7,0,22c-1.1,10.5-2.8,11.5-4,23
								c-1.4,12.8-2.1,19.3,1,26c2.8,6.3,6.6,8.1,6,13c-0.7,6.1-7.3,9.4-6,12c1.1,2.3,6.3,0.4,8,3c1.8,2.9-2.1,8.7-5,13
								c-3.9,5.9-6.6,7.2-6,10c0.7,3,4,3.3,5,7c0.7,2.5-0.5,3.6-2,10c-1.2,5.1-1.8,7.7-1,9c2.3,4,11,3,20,2c6.2-0.7,7.5-1.6,8-2
								c4.9-3.9,5.8-13.4,2-19c-2.5-3.6-5.1-3.1-6-6c-0.9-2.9,0.9-5.2,7-16c4-7.1,4.9-9.1,4-11c-1.5-3-6.4-2.4-7-5
								c-0.5-2.2,3-3.5,4-7c1.3-4.7-2.9-9.6-4-11c-8.4-11,0.7-40.6,2-45c5.6-19,1.7-57-6-133c-3.2-31.7-7-56.4-9-69
								c-3.1-19.6-9.7-60.3-21-102c-8.7-32-25.5-92.2-67-160c-32.4-52.9-52.4-85.6-88-109c-18.6-12.2-38.7-20-58-45
								c-11.3-14.5-22.6-35.4-30-33C333.2,710.4,333.6,713.5,326.8,723.5z"/>
							<path class="st5" d="M435.8,1390.5c19.2,8.7,39.3,15.1,60,19c7.5,1.4,27.3,4.9,83,4c20.7-0.3,48.6-1.3,82-4"/>
							<path class="st5" d="M420.8,1450.5c9.7,0.1,24.3,0.5,42,2c21.3,1.8,30.6,3.8,43,5c27.3,2.7,48.2-0.6,70-4
								c45.4-7.1,77.8-20.9,87-25c14.9-6.6,29.3-14.3,43-23"/>
							<path class="st5" d="M497.8,1445.5c44.8,3,89.6-4.5,131-22"/>
							<path class="st5" d="M583.8,1147.5c-5.1,0.5-9,5.8-9,11c0,5.5,4.6,8.7,5,9c3.8,2.6,9.5,3.1,13,0c1.7-1.6,2.8-3.7,3-6
								c0.1-1.7-0.2-3.4-1-5C594.3,1155.2,590.6,1146.9,583.8,1147.5z"/>
							<path class="st5" d="M596.8,1244.5c-4.4,0.1-7.3,4-8,5c-2.8,4.2-2.8,9.8,0,14c0.5,0.7,3.7,5.1,9,5c2.6-0.1,5.1-1.2,7-3
								c2-2.2,3.1-5,3-8C607.8,1251.5,602.9,1244.4,596.8,1244.5z"/>
							<path class="st5" d="M607.8,1354.5c-2.9-2.1-6.5-1.3-8-1c-0.8,0.2-6.5,1.5-9,7c-1.8,3.9-1.8,10,2,13c3.4,2.6,7.9,1.3,9,1
								c4.6-1.4,8.1-5.2,9-10C611,1363.8,611.9,1357.6,607.8,1354.5z"/>
							<path class="st1" d="M737.8,1365.5c-9,4.9-15.7,11.6-20,16c-4.8,4.9-9.2,10.3-13,16c-7.1,10.2-12.8,21.3-17,33
								c-3.1,9-5.8,17-6,28c-0.1,4.1,11.4,9.6,19.5,24.5c12.7,23.2,31.3,51.6,52.5,43.5c6.7-2.6,10.8-7.4,19-17
								c9-10.9,15.8-23.5,20-37c2.5-7.9,3.3-13.9,5-26c3.9-28.1-0.7-27.9,3-51c0.7-4.5,1.6-9.1,0-15c-3-10.8-12.2-16.9-14-18
								C767.3,1350.2,741.1,1363.8,737.8,1365.5z"/>
							<path class="st5" d="M757.8,1300.5c-7.4,0.5-14.5,2.5-21,6c-7.3,4-13.7,9.9-13,11c1,1.6,14.1-9.3,32-9c6.2,0.1,12.3,1.5,18,4
								"/>
							<path class="st3" d="M295.8,1042.5c-5.6,13.7-7.9,14.8-17,33c-11.9,23.6-18.9,43.6-29,72c-9.7,27.4-10.5,33.1-18,46
								c-1.7,2.8-11.6,19.6-25,32c-39.9,36.8-117.5,40.9-135,13c-4.6-7.3-4.8-16.4-5-25c-0.5-22.1,8.4-38.8,11-44
								c7.8-15.3,18.2-57.9,39-143c9.5-39,14.3-58.5,18-81c2.4-14.5,6.1-39.7,15-73c2.6-9.7,8.3-30.2,24-49
								c8.7-10.4,16.1-15.1,24-17"/>
							<path class="st1" d="M287.8,1423.5c2.5,6,8.4,4.8,23,17c3,2.5,14,11.7,21,23c9.4,15.2,3.8,21.6,10,50
								c4.2,18.9,8.1,35.7,22,49c4.2,4,13.8,13.2,28,15c21.2,2.7,37.1-13.2,60-36c24.6-24.5,25.4-38.1,25-44c-0.1-1.2-0.4-4.5-3-12
								s-8.6-22.1-28-46c-11.7-14.5-24.8-27.9-39-40c-6.1-5.1-11.4-9.1-22-17c-17-12.7-25.5-19-29-20
								C326.6,1354.5,279.8,1404,287.8,1423.5z"/>
							<path class="st3" d="M198.8,1190.5c14.4-0.8,30.1-1.4,39,8c2.4,2.5,6.7,8.2,5,11c-1.6,2.6-10.5-0.5-10.5-0.5s7.5,5.2,9,6
								c3.5,1.9,3.4,4.9,14.5,16.5c37.9,39.6,40,40.8,51,54c30,35.8,24.5,38.8,45,58c22.7,21.2,32.7,20.5,35,32
								c5.8,28.5-47.9,73.3-81,64c-5.6-1.6-4.8-3-19-11c-20.2-11.3-34.1-15.3-52-22c0,0-25.3-9.4-56-25c-46.5-23.5-72.8-46.5-79-52
								c-30.5-27.1-35.7-42.6-37-47c-4.8-15.7-3.4-30.6-2-45c1.9-20.3,4.5-35.5,6.5-40.5"/>
							<path class="st5" d="M292.8,1618.5c35.7,15.1,44.4,17.2,45,16c0.7-1.4-9-7.5-40-30c-11.3-8.2-18.7-13.7-18-15
								c1-1.7,13.9,5.7,34,10c8.2,1.7,16.6,2.8,25,3"/>
							<path class="st5" d="M325.8,1677.5c-2.9-27.6-5.5-46.1-8-55c-0.8-2.9-2.8-9,0-14c1.8-3.2,4.3-3.9,5-7c0.8-3.5-1.8-5.9-4-10
								c-4.3-7.8-4.1-15.8-4-27c0.1-4,0.4-8,1-12c3.1-20.9,13.7-47.9,17-56"/>
							<path class="st5" d="M660.8,1503.5c8.7,12.8,19.9,23.7,33,32c9.5,6.2,20,10.6,31,13c6.9,1.5,13.9,2.2,21,2"/>
							<path class="st5" d="M702.8,1546.5c4.1,3.5,8.9,6.2,14,8c3.7,1.3,7.8,2.6,13,2c3.2-0.4,6.2-1.4,9-3"/>
							<path class="st5" d="M687.8,1570.5c6,2.5,12.5,3.9,19,4c5.3,0.1,9.4-0.7,16-2c5.4-1,10.7-2.4,16-4"/>
							<path class="st5" d="M699.8,1580.5c4.6,4.3,10.1,7.7,16,10c5.3,2,10.4,3.9,16,2c3.2-1.2,6-3.3,8-6"/>
							<path class="st5" d="M663.8,1574.5c7.2,9.6,16.4,17.4,27,23c7.5,3.9,15.6,6.6,24,8c6.6,1.1,13.3,1.5,20,1"/>
							<path class="st5" d="M591.8,1606.5c2.7-8.1,6.4-19.7,10-34c3.8-15.2,5.9-26.7,9-44c2-11.3,4.5-26.2,7-44"/>
							<path class="st5" d="M586.8,1644.5c4-2.3,9.8-5.6,17-9c17.7-8.4,35.6-14.1,36-13c0.3,0.8-10.2,4.8-24,13
								c-26.9,16.1-44.9,35.9-44,37c0.6,0.7,9.1-7.1,25-16c11.7-6.6,24.1-12,37-16"/>
							<path class="st5" d="M550.8,1681.5c0.1-3.3,0.5-6.7,1-10c2.6-11.9,8.8-19.7,14-26c6.8-8.3,14.9-15.4,24-21"/>
							<path class="st5" d="M320.8,1580.5c14.7,1.6,29.6,0.6,44-3c11.9-3.1,23.4-7.8,34-14c16.1-9.3,25.3-18.8,41-35
								c28.4-29.4,34.9-46.6,37-53c1.2-3.6,2.2-7.3,3-11"/>
							<path class="st5" d="M503.8,1567.5c0.1-17.9-3.6-35.7-11-52"/>
							<path class="st5" d="M430.8,1585.5c11.8,10.8,25.8,18.9,41,24"/>
							<path class="st5" d="M331.8,1613.5c9.5,2.4,19.2,3.8,29,4c12.4,0.3,21.6-1.4,36-4c11.5-2.1,22.8-4.8,34-8"/>
							<path class="st1" d="M580.8,396.5c40.8,45.6,59.7,71.4,83,68c9.5-1.4,21.3-7.8,30-16c8.3-7.9,12.2-15.8,16-24
								c4.7-10,12.9-27.4,11-51c-1.2-14.6-6-28.7-14-41c-3.5-5.2-9.9-14.6-22-22c-16.6-10.2-33.2-10.1-41-10c-2.7,0-8.6,0.3-28,5
								c-20.3,4.9-32.7,9.2-42,12c-18.7,5.5-38,9.1-57.5,10.5C544.3,356.4,566.3,380.2,580.8,396.5z"/>
							<path class="st6" d="M543.8,317.5c-30.5-6.4-54.8-2.8-80,1c-28.3,4.2-55,8.2-84,26c-4.2,2.6-59.1,37.3-74,94
								c-8.5,32.6-11,56-11,56c-1,11.8-3,23.5-6,35c-4.7,17.7-9,24.4-13,29c-5.3,6.4-12.2,11.2-20,14c-6.1,2-12.6,2.7-19,2
								c-10.2-1.2-14.4-5.7-16-4c-2.5,2.6,5,17.6,18,26c7.7,5,18.2,8.2,21,9c8.8,2.5,12.8,2.4,13,4c0.4,3.1-13,10.2-26,8
								c-8.7-1.5-13.5-6.6-15-5c-1.7,1.8,2.6,10,9,16c8,7.6,17.9,10.2,25,12c10.3,2.6,16.8,2.2,17,4s-6.3,4.1-12,5
								c-10.8,1.6-17.3-2.4-18-1c-1,2.1,12,14.8,27,14c7.6-0.4,12.4-4.1,13-3c0.9,1.5-7.5,10.8-19,13c-7.4,1.4-12.2-0.8-13,1
								c-1.1,2.5,6.2,9.7,15,13c7.7,2.7,16,3.4,24,2c5.7-1,8.3-2.6,10-1c3,2.7-3,9.5-1,19c1.6,7.7,7.7,13.8,10,13
								c1.9-0.7,0-5.3,3-11c2.9-5.4,8.8-9.3,11-8c1.8,1.1-0.3,4.8,0,11c0.7,13.5,11.9,22.4,14,24c4,3.2,10.3,6.5,12,5s-2.3-5.8-1-12
								c1.4-6.5,7.5-9.7,8-10c4.1-2.1,10.6-3,13,0c0.9,1.1,0.7,2.2,0,8c-1.5,12.5-1.4,13.8-3,16c-3.1,4.3-7.2,4.3-7,6
								c0.3,2.8,11.6,4,19,4c5.7,0,12.7,0.1,21-3c10-3.7,12.8-8.5,16-7c4.1,2,0.5,10.5,4,21c5.3,16,23.1,25.4,26,23
								c1.5-1.2-2.1-5-1-12c0.7-4.7,3-7.7,7-13c2-2.6,11.1-14.6,14-13c2,1.1-2,6.7,0,14c2.1,7.8,9.4,12,18,17c4,2.3,13.3,7.7,16,5
								c1.6-1.6-0.8-4.4,0-10c1-6.7,5.9-12.6,8-12c1.4,0.4,0.6,3.6,2,8c2.6,7.9,9.9,12.1,15,15c6.7,3.8,16.5,7.3,18,5
								c1.4-2.1-6.1-6.3-8-16c-1.4-6.8,0.5-13.9,2-14c1.2-0.1,1.3,4,4,10c4.6,10.2,9.2,10,16,22c3.3,5.8,3.3,7.8,5,8
								c4.8,0.5,12.7-15.2,14-31c0.7-8.2-0.7-13.5,1-14c2.3-0.7,8.3,8.3,11,18c1.9,6.7,1.3,10.6,3,11c2.6,0.6,7.7-7.7,10-16
								c2.4-8.7,1.3-15.7,3-16c1-0.2,1.8,2.3,4.1,5.8c3.1,4.8,9.6,12.4,12.9,11.2c2.7-1,2.9-7.6,3-13c0.2-8.2-1.5-10.8,0-12
								c3.4-2.8,13,10,28,10c7,0,13.1-2.7,13-4c-0.1-1.3-6.1-0.1-11-4c-5.8-4.6-6-12.8-6-14c0-4,1.1-12.2,6-14
								c5.8-2.1,14.7,5.7,18,14c3.1,7.8,0.6,14.7,2,15c1.7,0.4,6-8.3,8-18c0.9-4.7,2.9-15.1-1-27c-3.4-10.4-8.6-13.9-7-16
								c2.4-3.2,17.5,0.7,25,11c4.1,5.7,4.3,11.1,6,11c2.2-0.2,4.6-10.2,3-20c-1.5-9.4-6.5-18.2-9-22c-3.9-6-7.1-9-6-11
								c1.3-2.2,6.2-0.2,13-1s11.3-4,17-8c13.4-9.4,19.2-21.7,22-28c3.1-6.9,5.9-15.9,4-17c-1.9-1.1-5.2,6-13,8
								c-5.9,1.5-11-0.6-19-4c-6.7-2.9-14.3-6.1-20-14c-3.3-4.6-4.5-8.8-6-14c-2.3-8.1-3.3-16.6-3-25c0.4-9.6-1.1-25-4-56
								c-2-21.7-3.8-40.5-12-62c-8.6-22.6-20.3-37.6-27-46C643.4,375.4,606.9,330.7,543.8,317.5z"/>
							<path class="st7" d="M569.8,331.5c-50.6-21.9-98.1-11.2-121-6c-25.6,5.8-42.3,14.5-47,17c-16.2,8.7-47.7,25.6-62,59
								c-5.8,13.5-7.2,28.3-10,58c-2.1,22.3-0.7,27.1-4,43c-3.6,17.1-6.8,32.6-19,48c-4.3,5.4-23.9,28.7-52,31
								c-8.5,0.7-15.6-0.8-16,1c-0.7,2.8,16.2,13.4,36,16c6.6,0.9,12.9,0.8,14,4c1.1,3-3,7.1-7,11c-4.7,4.9-10.5,8.7-17,11
								c-8.8,3-13.7,1.5-14,3c-0.7,3.1,17.7,14.4,36,11c8.5-1.6,14.7-5.7,16-4s-2.5,7.3-7,11c-7.4,6-16.1,6.3-16,7s6.7,0.6,14,0
								c11.9-1,14.9-2.6,16-1c2.3,3.1-5.6,15-17,22c-8.8,5.4-16.2,5.7-16,7c0.2,1.9,15.2,3.5,31,0c9.7-2.2,17-5.7,18-4
								c0.8,1.3-3.4,3.8-7,10c-4.6,7.9-5.1,16.6-4,17s2.6-6.1,9-11c6-4.6,15.2-7.1,18-4c3.2,3.6-5.4,11-3,22c1.6,7.3,7.5,13.8,11,13
								c3.3-0.7,1.7-7.2,7-13c4.8-5.2,12.6-6.9,19-6c2,0.3,9.8,1.4,14,8c4.8,7.5,1.5,16.7,1,18c-2.2,5.8-6,8.2-5,10
								c0.3,0.6,1.5,1.8,11,0c8.7-1.6,13.9-2.6,20-6c10.4-5.8,14.7-13.9,16-13s-4,7.3-4,17c0,7.5,3.3,13.2,6,18s8.4,13,11,12
								c2.1-0.8-0.6-6.7,2-14c2.5-7,8.2-10.8,13-14c8-5.3,21.1-10.6,24-7c2.5,3-5.1,8.6-4,19c0.9,8,6.3,13.3,8,15
								c5.6,5.5,13.5,8.7,15,7c1-1.1-1.8-3.3-2-8c-0.3-5.4,2.9-9.6,4-11c3.9-5.2,12-10.4,16-8c5,2.9-1.7,14.1,5,24
								c4.9,7.3,14.3,10,15,9c0.5-0.6-3.1-2.5-5-7c-1.4-3.2-1.7-7,1-17c0.9-3.3,5.4-20.5,8-20c1.3,0.2,0.2,4.9,2,12
								c2.9,11.4,10.8,18.3,16,23c5.4,4.8,9.3,8.2,12,7c4.1-1.8,3.5-12.9,3-24s-1.9-14.8,0-16c3.3-2,13.3,5.7,19,15
								c3.7,6.2,4.5,11.2,6,11c2.2-0.3,2.9-10.5,3-16c0.1-8.5-1.2-13.6,0-14c1.3-0.4,3.3,6.1,10,13c3.6,3.7,9.3,8.2,11,7
								c1.4-1-1.2-4.8-2-12c-0.7-6.5,0-15.3,3-16s4.8,8.3,14,14c7.5,4.6,16.3,4.7,17,3s-6.4-3.8-9-11c-2.4-6.8,0.8-13.6,2-16
								c1.7-3.6,4.2-8.7,9-10c6.6-1.8,13.5,4.7,16,7c4.7,4.3,6.6,9.5,8,9c2-0.7,0.2-10.9,0-12c-1-5.5-2.6-10.9-5-16
								c-5.5-11.5-11.5-15.6-10-18c0.5-0.7,1.4-1,11,0c9.2,1,13.8,1.5,17,3c6.7,3.1,9,7.7,10,7c1.7-1.1-3.1-13.8-11-26
								c-7.1-11-12.5-15.2-11-18c1.7-3.2,9.4,1,22-1c13.4-2.1,22.1-9.6,26-13c1-0.9,12-10.5,10-14c-1.3-2.3-6.8,0.8-16,0
								c-12.9-1.1-22.1-8.8-26-12c-4.9-3.8-9-8.6-12-14c-5.7-11-4.5-22-4-27c1.2-13-0.9-32.7-5-72c-3.1-29.4-6.9-41.5-11-51
								c-3.3-7.7-7.3-15-12-22C639.9,387.8,615.9,351.5,569.8,331.5z"/>
							<path class="st8" d="M676.8,586.5c-15.3,13.6-33.9,12.3-39,12c-6.8-0.5-20.5-1.4-30-11c-3.3-3.3-7.3-8.9-9-8
								c-1.5,0.8,1,5.2-1,8c-2.8,4-11.4-0.3-26-1c-13.4-0.7-23.5,2-24,0c-0.3-1,2.2-1.7,4-4c6.2-8-1.4-27.8-8-28
								c-3.9-0.2-4.6,6.5-11,14c-10,11.6-24.2,14.2-40,17c-11.5,2.1-28.6,5.1-48-2c-7.9-2.9-19.5-7.1-27-19c-1.6-2.5-7.6-12.3-6-25
								c0.5-4.2,2.2-10.9,12-23c10.4-12.8,21-20.7,30-27c30-21,45.5-31.4,65-32c6.8-0.2,16.8-0.4,26,6s12.8,16.3,17,28
								c6.1,17.1,6.6,31.1,8,31s-0.9-13.8,5-30c2.7-7.4,6.2-16.9,15-21c7.6-3.6,15.5-1.4,24,1c6.5,1.8,12.8,4.6,23,11
								c10.8,6.9,22.6,14.3,35,28c12.8,14.2,19.2,21.3,21,33C695.2,560,688.3,576.3,676.8,586.5z"/>
							<path class="st1" d="M611.8,486.5c-11.2,1.8-21,10-26,19c-6,10.8-4.8,21.7-4,29c0.7,8.5,3.4,16.8,8,24c6,9.1,14.8,16.1,25,20
								c4.2,1.7,20.2,8,37,1c4-1.7,15-6.2,19-17c2.1-5.5,1.8-11.3,0-18C665.1,523.1,640.7,482,611.8,486.5z"/>
							<path class="st7" d="M608.8,530.5c-0.8,0.7-7.7,6.7-6,14c1.9,8,12.2,9.9,13,10c4.6,0.9,9.3-0.2,13-3c3.6-3,5.8-7.3,6-12
								c0-1.1,0.2-7.2-4-11C625.1,523.3,614.7,525.5,608.8,530.5z"/>
							<path class="st1" d="M520.8,476.5c-11.4-3.9-21.3-0.3-33,4c-12.5,4.3-23.8,11.5-33,21c-7.3,7.6-23.2,24.4-20,45
								c0.7,4.4,3,13.9,11,21c10,8.9,22.6,8.4,34,8c10-0.4,26.4-1,41-13c13-10.7,17.1-24.3,20-34c3.3-10.9,6.1-20.3,2-31
								C537,482.3,521.9,476.9,520.8,476.5z"/>
							<path class="st7" d="M503.8,511.5c-6.2-3.2-13.7,1.1-17,3s-12.5,7.3-12,15c0.4,5.5,5.5,8.9,7,10c5.2,3.6,13.2,5,20,1
								c5-3,8.3-8.2,9-14c0.4-2.7,0-5.5-1-8C508.7,515.6,506.6,513.1,503.8,511.5z"/>
							<path class="st9" d="M487.8,626.5c0.9-0.7,4.4,3.2,9,7c2.4,1.9,19,15.1,38,15c11.8-0.1,26.3-2.2,33-5c4-1.7,6,1.4,12,1
								c8.7-0.6,18.4-5.9,19-2c0.3,2.2-2.8,2.7-7,9c-2.4,3.3-4.1,7-5,11c-1.1,4.8,0.1,5.9-1,9c-0.4,1.2-1,2.2-1.8,3.2
								c-1.7-3-3.8-5.8-6.2-8.2c-9.9-9.8-24.2-8.7-33-8c-6.9,0.5-11.7,2.2-17,4c-3.5,1.1-6.8,2.4-10.1,3.9
								c-7.6-6-14.3-13.1-19.9-20.9C492.3,637.8,486.5,627.6,487.8,626.5z"/>
							<path class="st10" d="M517.8,666.5L517.8,666.5c3.2-1.6,6.5-2.9,10-4c5.3-1.8,10.1-3.5,17-4c8.8-0.7,23.1-1.8,33,8
								c2.4,2.4,4.5,5.2,6.2,8.2c-2.3,3-5.8,4.7-8.2,5.8c-13.2,6.3-27.7,2.2-32,1C532.7,678.3,525.6,672.7,517.8,666.5z"/>
							<path class="st5" d="M517.8,666.5c7.8,6.2,14.9,11.8,26,15c4.3,1.2,18.8,5.3,32-1c2.4-1.1,5.9-2.8,8.2-5.8
								c0.8-1,1.4-2,1.8-3.2c1.1-3.1-0.1-4.2,1-9c0.9-4,2.6-7.7,5-11c4.2-6.3,7.3-6.8,7-9c-0.6-3.9-10.3,1.4-19,2c-6,0.4-8-2.7-12-1
								c-6.7,2.8-21.2,4.9-33,5c-19,0.1-35.6-13.1-38-15c-4.6-3.8-8.1-7.7-9-7c-1.3,1,4.5,11.3,10,19
								C503.5,653.4,510.2,660.4,517.8,666.5L517.8,666.5z"/>
							<path class="st5" d="M517.8,666.5c3.3-1.5,6.6-2.9,10.1-3.9c5.3-1.8,10.1-3.5,17-4c8.8-0.7,23.1-1.8,33,8
								c2.4,2.4,4.5,5.2,6.2,8.2"/>
							<path class="st11" d="M567.8,643.5c3.5,4.7,8.4,8.2,14,10c10.9,3.5,22.9,0,30-9c1.9-2.4,6.9-8.6,6-17c-0.4-3.6-1.8-7.1-4-10"
								/>
							<path class="st11" d="M476.8,622.5c2.7-3.7,3.6-4.2,4-4c0.7,0.3-0.7,3,0,6s11,12.6,19,18c6.4,4.5,13.5,7.9,21,10
								c5.3,1.4,17.8,4.6,32,0c5.5-1.8,13.5-4.4,19-12c4.3-6,5.1-12.3,6-20c0.7-6,0.7-12,0-18"/>
							<path class="st11" d="M574.8,731.5c1.9-2.3,3.3-5.1,4-8c0.6-2.3,1.5-5.7,0-9c-1.5-3.3-4.3-4.5-4-5c0.4-0.7,5.6,0.3,9,4
								c3.1,3.3,3.1,7.1,4,7s1.5-5.4,1-10c-0.1-2.8-0.8-5.5-2-8c-1.4-2.8-3.5-5.2-6-7"/>
							<path class="st1" d="M446.8,333.5c-23.6,6.9-35.4,10.4-45,15c-33.2,16.1-48.9,46.8-51,51c-7.3,14.7-14.1,28.4-14,47
								c0.1,10.1,2.2,21.8-5,28c-4.9,4.3-12.2,4-13,4c-6.4-0.3-11-3.6-14-6c-20.5-16.1-30-32-30-32c-7.9-13.2-13-27.8-15-43
								c-2.5-19.4,0.3-39.1,8-57c4.4-9.8,15.7-34.9,42-46c15.5-6.6,30.1-5.7,41-5c12.8,0.8,21.9,3.5,40,9c23.3,7,23.1,9.3,40,14
								c28.9,8,47.8,6.4,48,10C479,325.3,468,327.4,446.8,333.5z"/>
							<path class="st1" d="M591.8,576.5c-18-6-44-4-52,6c-2.1,2.6-2.1,8,0,12c1.4,2.7,3.8,4.7,10,7c3.1,1.2,16.2,5.8,36,3
								c7.3-1,10.5-2.4,13-5c0.4-0.4,4.8-5.1,4-11C602,582.2,595.9,577.9,591.8,576.5z"/>
							<path class="st7" d="M579.8,584.5c0.5,4.7-5.1,8.4-6,9c-8.7,5.8-19.9,0.9-22,0c-2.8-1.2-7.6-3.3-8-7c-0.3-2.8,2.1-5.1,3-6
								c4.1-4,9.8-4,17-4c9.3,0,12.1,2.2,13,3C578.4,580.8,579.5,582.6,579.8,584.5z"/>
							<path class="st12" d="M171.3,1218c3.1-3.3,6.9-6.1,11-8c4.1-1.9,9.1-3.2,23-3c8.7,0.1,17.4,0.8,26,2"/>
							<path class="st13" d="M761.3,1340c-8.7-1-18.7,1.7-19,5c-0.4,3.8,12.8,5.4,13,12c0.1,3.5-2.7,6.2-7,10
								c-11.1,9.7-17.8,13.8-23,18c-11,8.8-16.6,18.9-20,25c-4.5,8.2-9.2,16.9-8,28c0.6,5.1,2.7,13.8,6,14c4.6,0.3,5.5-16.1,19-34
								c7.2-9.6,16-16.8,17-16c0.7,0.6-2.8,5.4-10,17c-8.8,14.1-13.1,21.1-16,28c-5.9,14-8.8,31.2-5,33c1.5,0.7,4-1.5,9-6
								c5.3-4.7,10.7-9.5,16-18c7.2-11.4,8.4-20.3,10-20c1.4,0.3,1.6,6.9,1,13c-1.2,12.2-5.4,18.1-12,35c-4.8,12.2-8.6,22.2-6,24
								c1.8,1.3,6.1-2,10-5c7-5.4,11.6-11.3,17-19c8.8-12.5,11-17.4,12-17c2.2,0.9-4.2,23.7-8,36c-3.4,11-5.5,16.1-4,17
								c3.1,1.9,17.2-16,18-17c5.2-6.6,10.4-13.2,14-23c2-5.5,3-10.5,4-27c1.1-18.1,0.6-24.2,1-47s1-26.2-1-34
								c-2.5-9.5-6.9-18.3-13-26C771.9,1342.8,766.8,1340.7,761.3,1340z"/>
							<path class="st2" d="M657.3,1460c1.2-2.1,2.9-2.9,7-5c24.8-12.6,24-13,26-13c10.3,0,12.7,12.3,35,37
								c9.3,10.3,14.8,16.4,24,23c19.8,14.1,27,12.2,27,18c0,7-12.8,26-30,27"/>
							<path class="st13" d="M389.3,1413c-6.2,7.7-14.6,12.2-29,20c-6.6,3.6-7.4,3.6-8,5c-4.1,9.1,22,19.1,37,47
								c2.9,5.4,7.9,22.3,18,56c3.7,12.4,6.8,23.2,10,23c2.8-0.2,4.6-8.4,5-14c0.6-8.4-1.8-12.8-4-22c-2.8-11.6-4.3-26.3-2-27
								c2.5-0.7,11.4,14.3,16,31c2.2,8.1,2.6,13.7,5,14c2.9,0.4,7-7.5,8-15c0.4-3.1,0.3-6.1-2-16c-3.3-14.3-5.9-20.6-5-21
								c0.9-0.4,6.3,7.4,10,17c4,10.2,3.5,15.6,6,16c3.3,0.5,7.3-8.5,11-17c3.9-8.8,4.1-12.6,4-15c-0.2-3.8-1.2-7.6-3-11
								c-8.7-18.1-13-27.1-17-33c-5.9-8.8-12.6-16.2-26-31c-16.1-17.8-20.9-21.2-25-20C394.2,1401.2,395.6,1405.4,389.3,1413z"/>
							<path class="st14" d="M486.3,1490c0.1,5-0.7,13-9,28c-3.5,6.4-7.6,12.5-16,23c-13.7,17.2-20.6,25.8-28,31
								c-5.6,3.9-20.1,13.9-39,13c-8.7-0.4-19-3.2-19-6c0-3.3,8.1-10.2,23-16c26.5-10.3,41.5-29.7,52-46c16-25,26.9-43.1,32-42
								C486.1,1475.9,486.3,1488.3,486.3,1490z"/>
							<path class="st5" d="M319.8,1581.5c14.7,1.6,29.6,0.6,44-3c11.9-3.1,23.4-7.8,34-14c16.1-9.3,25.3-18.8,41-35
								c28.4-29.4,34.9-46.6,37-53c1.2-3.6,2.2-7.3,3-11"/>
							<path class="st5" d="M468.8,1536.5c3,4.8,5.7,9.8,8,15c5.8,13.1,7.2,23.2,8,23c0.8-0.1,0.1-10.2-2-21
								c-2.4-12.2-5.2-18.4-4-19c1.4-0.7,7.1,7.7,11,15c3.4,6.4,6.1,13.1,8,20"/>
							<path class="st15" d="M722.3,1534c-6.3-0.3-12.5-2-18-5c-3.9-2.1-9.8-5.4-10-10c-0.2-6.2,10.7-10.8,10-12
								c-0.7-1.2-11.9,8.2-22,5c-10.3-3.2-13.9-13.8-16-20c-1.4-4.2-3.7-10.9-1-18c1.5-3.8,3.7-5.9,8-10c6-5.7,12.3-11.7,18-10
								c2.2,0.6,3.8,2.8,7,7c3.6,4.8,6.3,8.3,7,13c1.3,8.4-4.7,14.8-3,16c1.7,1.2,6.5-6.7,13-6c2.3,0.3,5.2,2.8,11,8
								c4.3,3.9,4.8,5,5,6c0.3,1.9-0.4,3.6-5,10c-5,6.9-7.6,9.3-7,10c0.6,0.7,4.1-1.7,12-5c4.3-1.8,6.4-2.7,8-3
								c8.9-1.8,21.2,5.3,21,11C760.1,1528.4,738.7,1534.8,722.3,1534z"/>
							<path class="st15" d="M628.3,1491c-6,7-4.2,14.3-4,34c0.4,35.8-5,32.5-3,57c0.6,7.5,1.7,15.1-2,24c-4.1,9.8-11.2,14.1-10,16
								c1.8,2.8,16.4-8.1,37-10c20.8-1.9,38.3,6.2,38,8c-0.2,1.5-12.3-1.6-29,3c-12.6,3.4-22.5,9.8-22,11c0.4,1,7.6-2,20-3
								c10.8-0.8,22.8,0.2,23,2c0.2,1.8-10.9,2.3-27,9c-6.8,2.8-14.5,7.5-30,17c-17.3,10.6-19.4,12.8-19,14c0.7,2,7.9,0.7,18,0
								c11.6-0.8,12.3,0.3,36,1c59.2,1.8,55.5-4.7,75,0c4.3,1.1,9.4,2.6,12,0c4.4-4.3-4.7-14.2-12-41c-1.9-6.9-2.7-11.4-7-15
								c-5.6-4.7-11.3-2.8-20-4c-16.5-2.2-27.7-13-36-21c-7.3-7.1-15-14.6-16-26c-0.5-5.8,0.5-14,4-15c4.2-1.2,7.8,9.3,20,21
								c12.6,12.1,26.4,17.8,27,17c0.5-0.6-7.2-5.8-18-17c-3.4-3.5-14.6-15-13-17c1.3-1.7,9.7,6.4,24,9c14.1,2.5,27.1-1.5,27-3
								c-0.1-1.2-8.4,0.3-19-3c-10.8-3.4-17.7-10.3-31-24c-13.5-13.9-20.3-20.9-22-30c-2-10.8,2.2-18-2-21S633.7,1484.8,628.3,1491z
								"/>
							<path class="st15" d="M575.3,1494c-10.4,8.7-2,25.7,1,73c1.8,27.9,0.2,43.7,3,44c4,0.5,11.2-32.4,12-36
								c3.8-17.8,2.2-18.6,6-42c4.4-26.5,7.9-33.9,3-39C595.1,1488.6,582.3,1488.1,575.3,1494z"/>
							<path class="st15" d="M524.3,1543c1.2-0.6-2.7-10.5-6-30c-2.3-13.7-3.6-21.8-1-23c3.5-1.6,13.3,9.1,19,21c8.4,17.5,7,36,7,36
								s-4.2-19.1,3-38c2.8-7.3,7.7-15.7,10-15c3,0.9-1.8,15.9-2,40c-0.1,19.4,2.9,23.6,5,61c0.9,16.2,0.5,18.7,0,21
								c-3.3,14.8-12.2,19.5-22,39c-6.1,12.2-1.3,19.5-8,20c-26,2-107,1-137-1c-2.2-0.1-2.6-6.7-7-16c-7.6-16.2-10.3-18.3-9-21
								c3-6.2,20.6-1,56-3c12.8-0.7,20.8-2,22-6c1.7-5.7-11.1-13.5-10-15c0.3-0.4,2.3-1.1,27,12c11.9,6.3,15.1,8.4,17,7
								c5.1-3.9-8.4-27.7-6-29c1.7-0.9,10.8,9.3,17,23c5.6,12.2,6.1,21.1,8,21c2.1-0.1,3-11.8,4-24c0.9-11.1,1-19.4,1-21
								c0.2-15-0.6-27-1-33c-1.4-19.3-2.3-30.7-6-45c-5.2-19.7-12.6-32.7-12-33C494.6,1490.4,521.4,1544.4,524.3,1543z"/>
							<path class="st15" d="M433.3,1550c-8.5,8-17.9,15.1-28,21c-25.3,14.7-48.3,17.8-48,19c0.2,0.8,11.1,0.4,23-4
								c10-3.7,12.9-7.4,18-6c5.7,1.6,5.3,7.1,13,12c7.2,4.5,16,5.1,17,3c1.1-2.3-8-5.8-10-15c-1.5-6.7,1.3-14,3-14
								c1.2,0,1.6,3.5,3,7c5.8,13.9,25.6,18.8,26,18c0.3-0.5-6.9-2.8-13-11c-4.3-5.8-7.2-13.2-6-14c0.9-0.6,3.7,3.2,9,8
								c11.2,10.1,22.7,14.3,30,17c10.5,3.9,16.4,6.1,18,4c3.6-4.8-22.9-23.8-27-54c-0.1-1.1-1.8-13.5,2-15c3.4-1.3,9.3,7.2,11,6
								s-4.8-11.6-3-13c2.4-1.9,16.4,14,19,12c1.4-1-1.1-6.6-5-15c-4.8-10.3-7.1-15.5-9-16C468.1,1497.8,460.5,1524.3,433.3,1550z"
								/>
							<path class="st15" d="M280.3,1510c-5.2,2.4-4.1,8.7-8,33c-3.3,20-5.9,27.6-1,33c1.5,1.6,4.6,2.8,11,5c8.9,3.2,21.5,7.6,23,5
								c0.9-1.6-3.4-4.1-7-10c-6-9.8-4.9-20.8-4-30c1.7-17.7,7.8-22.3,4-29C294.9,1511,285.9,1507.5,280.3,1510z"/>
							<path class="st16" d="M577.3,896c6.6,52.2,8.2,77,9,91c1.4,23.8,3.3,57.6,0,58c-2.7,0.4-5.6-21.7-17-56
								c-7.2-22.4-16.2-44.1-27-65c-12.3-23.6-23.6-45.3-44-70c-7.8-9.5-19.3-22.2-17-25c1.5-1.8,6.7,2.7,17,5c17.8,4,34.6-2,43-5
								c11.8-4.2,12.2-6.8,16-6C566.9,825.1,570.7,843,577.3,896z"/>
							<path class="st17" d="M780.3,1331c-7.8-5.9-18-4.9-18-5c0-0.1,4.3-0.1,13,1c6.7,0.9,9.8,1.7,10,1c0.3-0.9-4.4-3.4-8-5
								c-5.1-2.2-10.5-3.6-16-4c-7.2-0.5-12.4,0.8-17,2c-6.3,1.6-10.9,2.8-14,7c-1.3,1.8-3,4.9-2,6c1.4,1.6,6.5-3.3,16-5
								c5.4-1,9.7-0.5,14,0c5.5,0.6,10.9,1.9,16,4c7.6,3.1,11.3,6.8,12,6C787,1338.3,784.3,1334,780.3,1331z"/>
							<path class="st17" d="M741.3,1291c-7.7,2-9.6,5.3-12,4c-3.8-1.9-1.7-10.8,0-30c1.7-19.2,1.2-27.8,3-28s2.9,7,11,24
								c4.2,8.7,6.2,13.1,9,17c4.5,6.3,8,9,7,11C758.1,1291.7,751.6,1288.4,741.3,1291z"/>
							<path class="st17" d="M696.3,901c2.8,36.5-2.8,54.8-3,91c-0.1,12.1,0.6,7.9,3,49c2.5,42.5,4,67.4,4,94c0,22.3-2,50.5-6,107
								c-0.3,3.6-3.6,50.2,4,80c4.8,19.2,7.3,28.8,14,36c2.7,2.9,6.1,5.8,6,10c-0.1,5.1-6.1,9.2-18,17c-14.9,9.8-22.4,14.7-23,15
								c-20.3,8.5-39.9,4.2-40,3c0-0.8,9.1-0.3,17-7c1.1-0.9,6-5.1,5-8c-1-2.7-6-1.1-12-4c-8.2-3.9-11.7-12.7-13-16
								c-1.4-3.5-1.2-4.7-3-16c-1.4-8.5-1.9-10.7-3-17c-8.9-52.3-10.1-136.2-19-176c-2.2-8.5-2.2-17.5,0-26c2-7,5.4-13.4,10-19
								c10-13,13.3-29,20-61c8.8-42.5,6.4-77.1,5-95c-2-25.5-3.8-48.3-13-74c-5.8-16.1-9-33-15-49c-3.2-8.4-7-17.6-4-20
								c2.6-2,7.6,3.2,22,9c11.5,4.6,13.3,3.3,23,8c5.2,2.5,11.2,5.4,17,11c3.7,3.6,8.1,9,13,21C692.2,875.9,695.2,888.3,696.3,901z
								"/>
							<path class="st17" d="M506.3,1435c-17.6-0.4-34.8-1-54-10c-18.6-8.7-32.1-22.2-31-24s15,8.5,41,16c16.8,4.9,31.4,6.4,46,8
								c10.6,1.2,21.3,1.9,32,2c20.3,0.2,30.9-1.7,31-1C571.5,1427.3,542.2,1435.8,506.3,1435z"/>
							<path class="st17" d="M488.3,1382c0-0.4,28.3-0.5,54-1c8.3-0.2,21-0.6,27-9c1.6-2.4,2.7-5.1,3-8c6.6-48.1,1-80,1-80
								c-7.2-41.5,0-26.9-9-87c-3.9-26.1-9.5-63.8-22-110c-13.2-48.6-28.6-105.8-69-169c-21.3-33.4-41.1-55-62-78
								c-15.2-16.2-32-31-50-44c-27.4-19.9-38.4-21.8-47-20c-9.5,2-8.9,6.7-29,15c-9.4,3.8-19.1,6.8-29,9c-13.9,3.2-14.9,1.9-23,4
								c-20.6,5.4-34,18.8-39,24c-10,10.2-14.4,19.6-22,36c-5.3,11.4-10.7,25.4-18,53c-5.8,21.9-8.6,36.8-13,59
								c-7.6,38.3-11.4,57.4-15,73c-16.6,72-24.9,108-28,115c-2.1,4.9-8.8,19.7-4,24c4,3.6,12.3-3.1,29-6c17.4-3,32.9,0,33,2
								c0.1,2.5-23.9,1.1-49,16c-13.8,8.2-24.2,19.2-23,21c1.1,1.6,10.2-4.8,26-9c20-5.3,36.9-3.4,37-2s-20.1,0-39,13
								c-5.3,3.7-19.1,13.2-19,26c0.1,7.4,5.7,13.7,17,26c6.5,7.2,13.5,13.9,21,20c22.1,17.1,43.4,27.8,60,37
								c22.4,12.5,44.1,26.2,65,41c18.9,13.4,40.9,22.4,59,37c3.2,2.6,12,9.8,23,9c6.3-0.5,10.9-3.4,15-6c6.1-3.9,5.4-5.3,20-22
								c4.9-5.5,8.1-8.9,7-12c-1-2.7-4.8-3.7-6-4c-8.3-2.3-15.9-10.3-35-34c-14.1-17.5-19.1-24.4-29-37c-8.9-11.3-22-25.9-48-55
								c-11.8-13.2-19.1-21.2-32-26c-11.2-4.2-21.4-4.1-27-4c-13.1,0.2-23.5,3.4-41,9c-16.8,5.3-23.8,8.9-25,7
								c-1.6-2.5,8.2-12.1,16-18c9-6.8,19.2-11.9,30-15c22.9-6.4,40.9-1.9,41-3s-16.4-5.9-37-4c-15.2,1.4-24.3,5.7-25,4
								c-0.9-2.1,12-11.5,28-17c18-6.2,31.9-4.8,32-7c0.1-1.9-10.9-4.4-21-5c-14-0.9-22.8,2-23,1c-0.3-1.2,12.6-8.1,29-9
								c9.6-0.5,16.1,1.3,17-1c1.2-3-9.5-6.5-15-18c-3-6.3-3-11.9-3-20c0-9.1,1.3-18.2,4-27c8.2-26.4,25.6-52.3,26-53
								c25.2-37.7,17.8-53.8,60-140c5.5-11.2,11.4-22.8,17-22c8.5,1.2,10.9,30.9,13,58c2.2,27.6,4,51.5-1,84
								c-3.9,25.3-6.8,43.4-19,64c-7.3,12.2-16.4,22.8-15,24c1.7,1.5,17.6-12.7,27-21c13.1-11.7,16.9-16.2,19-15
								c3.5,2-3.8,17.2-8,41c-2.6,14.3-2.7,24.7-3,39c-0.8,45.4,8.5,78.7,16,105c5.2,18,9.5,28.7,19,38c12,11.8,26.5,15.6,26,17
								c-0.9,2.3-41.4-11.6-42-10c-0.3,0.8,9.4,4.7,25,12c15.3,7.2,15.5,8,34,17c17.4,8.5,26.5,12.9,39,18c24,9.7,35.3,11.4,35,13
								c-0.5,2.4-29.5,2.7-59-9c-14.9-5.9-25.2-13.2-26-12s11.6,11.5,25,20c14.7,9.3,30.5,16.7,47,22c22.4,7.2,40.3,8.9,54,10
								c24.9,2.1,51.9,1.2,52-1C567.6,1391.3,488.3,1382.8,488.3,1382z"/>
							<path class="st17" d="M654.3,1448c-6.1,3.1-14.5,7.2-25,6c-5.3-0.6-11.1-2.5-11-4s6.5-1.4,18-4c5.8-1.3,10.5-2.9,20-6
								c6.6-2.2,12.4-4.3,17-6C667.8,1439.7,661.4,1444.5,654.3,1448z"/>
							<path class="st17" d="M338.3,760c-0.5,1.1,15.4,7.5,36,19c11.1,6.2,26.3,14.8,43,28c15,11.6,28.4,25,40,40
								c10.1,13.2,16.2,25.7,28,50c27.3,56.4,41.1,84.8,46,96c15.7,35.7,23.5,53.5,28,70c9.2,33.7,13.7,50.5,14,53
								c0.8,7.7,1.7,21.3,6,22c2,0.3,4.9-2.2,6-5c0.7-1.9,0.7-4.1,0-6c-7.5-24.3-8.1-50.6-18-74c-23-54-15.5-49.1-38-99
								c-6.3-13.8-18.2-36.6-42-82c-8.6-16.4-13.3-25.1-22-36c-16.4-20.5-33.6-32-47-41c-24.7-16.5-45.8-24.2-59-29
								C350.7,762.9,338.7,759,338.3,760z"/>
							<path class="st17" d="M600.3,868c6.5,34,10.5,68.4,12,103c1,23.3,1.5,35.9,0,54c-4,46.9-17.4,79.5-16,80
								c1.2,0.4,10.6-19.9,17-46c7.8-31.6,7.5-56.4,7-83c-0.6-31.3-4.3-62.4-11-93c-8.3-37.8-19.9-69.3-21-69
								C587.5,814.3,593.9,834.6,600.3,868z"/>
							<path class="st17" d="M583.3,1181c-3.9,2.4,5.3,14.6,6,37c0.3,8.1-0.6,15.3,3,17c2.1,1,5.3,0,7-2c3.6-4.1-1.3-9.9-3-23
								c-1.8-13.1,1.7-18.2-3-24C590.6,1182.6,585.6,1179.6,583.3,1181z"/>
							<path class="st17" d="M595.3,1288c-6.5,10.3,2.7,17.9,2,41c-0.2,6.3-1.1,12.3,2,14c2.2,1.2,5.8-0.1,8-2
								c4.9-4.2,3.2-11.4,1-34c-1.7-17.3-1.7-24.2-5-25C600.6,1281.3,597.1,1285.3,595.3,1288z"/>
							<path class="st17" d="M594.3,1459c-1.5,2.6,3.9,5.9,3,11c-0.7,4-4.7,6-4,7c0.2,0.3,0.9,0.5,6-1c9.1-2.8,9.8-4.3,10-5
								c0.3-0.9-0.2-2-1-4c-2.1-5-3.2-7.7-6-9C599.5,1456.8,595.4,1457,594.3,1459z"/>
						</g>
					</g>
				</g>
				<circle class="st18" cx="500" cy="498.5" r="475.7"/>
			</g>
		</g>
	</g>
</g>
</svg>
