<?xml version="1.0" encoding="utf-8"?>
<!-- Generator: Adobe Illustrator 21.0.0, SVG Export Plug-In . SVG Version: 6.00 Build 0)  -->
<svg xmlns:xlink="http://www.w3.org/1999/xlink" version="1.1" id="Слой_1" xmlns="http://www.w3.org/2000/svg" x="0px" y="0px"
	 viewBox="0 0 1000 1000" style="enable-background:new 0 0 1000 1000;" xml:space="preserve">
<style type="text/css">
	.st0{clip-path:url(#SVGID_2_);}
	.st1{stroke:#000000;stroke-width:6;stroke-linecap:round;stroke-linejoin:round;}
	.st2{fill:#312D38;stroke:#000000;stroke-width:6;stroke-linecap:round;stroke-linejoin:round;}
	.st3{fill:#BACC9F;stroke:#000000;stroke-width:6;stroke-linecap:round;stroke-linejoin:round;}
	.st4{fill:#FFFFFF;stroke:#000000;stroke-width:6;stroke-linecap:round;stroke-linejoin:round;}
	.st5{fill:#936F77;stroke:#000000;stroke-width:6;stroke-linecap:round;stroke-linejoin:round;}
	.st6{fill:#C1AACE;stroke:#000000;stroke-width:6;stroke-linecap:round;stroke-linejoin:round;}
	.st7{fill:#72A09F;stroke:#000000;stroke-width:6;stroke-linecap:round;stroke-linejoin:round;}
	.st8{fill:#496664;stroke:#000000;stroke-width:6;stroke-linecap:round;stroke-linejoin:round;}
	.st9{fill:#8AC4C4;stroke:#000000;stroke-width:6;stroke-linecap:round;stroke-linejoin:round;}
	.st10{fill:#72A09F;}
	.st11{fill:#D6D6D6;stroke:#000000;stroke-width:6;stroke-linecap:round;stroke-linejoin:round;}
	.st12{fill:none;stroke:#000000;stroke-width:6;stroke-linecap:round;stroke-linejoin:round;}
	.st13{fill:#D9D9D9;stroke:#000000;stroke-width:6;stroke-linecap:round;stroke-linejoin:round;}
	.st14{fill:#FFFFFF;}
	.st15{fill:#D9D9D9;}
	.st16{fill:#6A0006;}
	.st17{fill:#380208;}
	.st18{fill:#D3EAB5;}
	.st19{fill:#282828;}
	.st20{opacity:0.1;fill:#FFFFFF;enable-background:new    ;}
	.st21{fill:none;stroke:#11113F;stroke-width:20;stroke-miterlimit:10;}
</style>
<g>
	<title>1</title>
	<g id="Слой_2">
		<g id="Слой_1-2">
			<g id="Слой_2-2">
				<g id="Слой_1-2-2">
					<g>
						<defs>
							<circle id="SVGID_1_" cx="499.5" cy="499.5" r="475.7"/>
						</defs>
						<clipPath id="SVGID_2_">
							<use xlink:href="#SVGID_1_"  style="overflow:visible;"/>
						</clipPath>
						<g class="st0">
							<path class="st1" d="M603.3,2122.1c0.3,4.2-2.7,8.8-6,11c-4.7,3.2-10.8,2-20,0c-4.7-1.1-9.4-2.4-14-4c-20.6-6.3-35-6-40-10
								c-4.2-3.3,9-11.1,16-16C560.1,2088.4,602.3,2107.2,603.3,2122.1z"/>
							<path class="st1" d="M647.3,2118.1c-2.7,4.4-10.5,15.6-25,21c-3.7,1.4-13.6,4.9-25,2c-3.4-0.9-8-2-12-6
								c-5.3-5.6-7.6-13.4-6-21c4.2-16.6,35.3-28.9,54-17C642.6,2103.1,646,2113.2,647.3,2118.1z"/>
							<path class="st1" d="M692.3,2111.1c0.1,4.5-0.9,9-3,13c-5.7,10.5-17.5,13.4-24,15c-7.9,2.1-16.1,2.1-24,0
								c-4-1.1-20.5-5.8-24-18c-4-13.8,10.2-31.5,26-36C660.5,2080.2,681.5,2090.4,692.3,2111.1z"/>
							<path class="st1" d="M646.3,2063.1c5-2.4,8.5,2.5,27,4c11.2,0.9,12-0.7,19,1c3.4,0.8,14.6,3.7,23,14c2.4,2.9,7,8.6,8,17
								c1.4,12.8-6.8,22.6-8,24c-13.7,15.7-47.8,18.5-66,0C630.3,2103.9,635.1,2068.5,646.3,2063.1z"/>
							<path class="st1" d="M559.3,1756.1c-3,14.7-13.7,15.4-43,48c-10.3,11.5-25.5,40.3-42,73c-27.1,53.7-27.6,89.8-48,95
								c-12.2,3.1-25.3-8.2-32-14c-14.9-12.8-22.5-9.3-23-24c-3-85,19-184,19-184c21.5-56.5,32.3-84.8,58-92
								C497.5,1644.3,567.7,1714.6,559.3,1756.1z"/>
							<path class="st1" d="M704.3,1465.1c1.6,2.1,3.8,6-4,48c-11,59.3-24.7,101.9-27,109c-16.5,50.7-24.7,76-38,96
								c-14.1,21.2-42.1,63.3-79,62c-21.6-0.8-37.1-16-47-26c-38.1-38.5-64.3-110.4-43-174C504.8,1465.3,679.4,1433.1,704.3,1465.1z
								"/>
							<path class="st1" d="M590.3,1795.1c8.2-11.1,8.5-32.4,9-75c0.3-22.8,0.5-39.1-3-59c-5.6-32-15.8-45.4-30-78
								c-24.8-57-15-65.1-43-135c-16.7-41.7-25.4-62.7-41-70c-39.1-18.3-106.3,20.2-133,73c-28,55.3-6.1,115.5,1,135
								c14.2,39.1,43.3,79.3,59,101c9.8,13.5,21.3,28.1,30,52c10.4,28.5,4.8,36.9,13,50C475.1,1825.4,563.3,1831.4,590.3,1795.1z"/>
							<path class="st1" d="M449.3,1922.1c10.6,6.9,5.1,6.5,41,45c26.3,28.2,39.5,42.3,49,46c2.9,1.1,10.5,3.8,15,11
								c3.8,6.2,4.5,14.3,3,19c-8.2,25.6-99.5,7-166,5c-3.3-0.1-11.7-0.3-18-6c-9-8.1-8.4-22.5-8-30c3.6-63.6,5.5-95.5,14-101
								C400.2,1897.5,433.5,1911.9,449.3,1922.1z"/>
							<path class="st1" d="M596.3,1997.1c10.6,6.9,5.1,6.5,41,45c26.3,28.2,39.5,42.3,49,46c2.9,1.1,10.5,3.8,15,11
								c3.8,6.2,4.5,14.3,3,19c-8.2,25.6-99.5,7-166,5c-3.3-0.1-11.7-0.3-18-6c-9-8.1-8.4-22.5-8-30c3.6-63.6,5.5-95.5,14-101
								C547.2,1972.5,580.5,1986.9,596.3,1997.1z"/>
							<path class="st1" d="M584.3,1716.1c6.4,13.9,9.4,28.1,12,41c6.1,29.9,5.2,51.6,5,72c-0.4,48.5,2.6,96.9,9,145
								c3.3,26.1,7,47.7,10,63c-9.2-0.1-23.1-0.3-40-1c-20.4-0.8-30.6-1.2-35-2c-19.4-3.6-33.7-22.6-58-75
								c-27.6-59.4-44.6-96-53-153c-4.1-27.8-7.3-51-1-81c4.8-22.8,14.3-68,45-79C515.5,1632.9,565.8,1676.3,584.3,1716.1z"/>
							<path class="st2" d="M721.3,1169.1c4.3,6.2,7.3,23.9,13,59c6.9,41.9,10.3,62.9,12,91c3.3,54.6-2.3,96.5-7,131
								c-0.8,6-7.6,39-21,105c-5.2,26.4-12.2,52.5-21,78c-4.1,12-8,21-8,21s-17,30-103,43c-38.3,5.8-61,6.5-95,6
								c-32.5-0.5-73-9-73-9s-0.3-34.5-2-49c-9.7-81.6-9.1-139.6-13-140c-2.9-0.3-13.7,31.8-15,74c-1.6,52.4,3,107,3,107
								s-28-6-41-13c-11.3-6.3-22.1-13.7-32-22c0,0-2.7-18.8-5-56c-3-48.9-3-45.7-3-48c-0.8-78.9,6.2-153.4,7-162
								c5.5-57,8.4-86,17-109c7.5-20.2,20.6-55.2,51-83c34.9-31.9,77.1-36.7,160-45C632.8,1139.4,696.9,1133.8,721.3,1169.1z"/>
							<path class="st1" d="M599.5,268.5c7.1-0.8,12.9,2.5,21.3-1.4c6.6-3,9.3-7.9,11-6.9c2.3,1.4-0.8,11.7-4.1,19.3
								c-5.1,11.7-11.1,17.5-9.6,19.3c2.1,2.5,15.3-7.6,17.9-4.8c1.8,1.9-2.4,8.9-6.2,13.8c-4.8,6-16.9,21.2-34.4,18.6
								c-10.9-1.6-22.4-9.9-24.8-21.3C567.2,288.1,585,270.1,599.5,268.5z"/>
							<path class="st3" d="M540.7,658.3c11.2-9.7,31.7-4.8,69.5,4.1c18.5,4.4,31.2,7.5,46.1,16.5c6,3.6,14.9,9.7,38.5,35.1
								c13.8,14.8,20.8,23.5,35.8,41.3c37,43.9,43.1,48.7,57.8,70.2c16.4,24,21.3,36.2,24.1,46.8c5.8,21.9,3.6,38.7,2.8,44
								c-1.5,9.1-3.4,21.3-12.4,33c-7.4,8.8-16.8,15.7-27.5,20c-35.8,14.1-110.9-28.7-161-86.7c-40.3-46.6-53.2-90-69.5-144.5
								C526.2,675.8,535.4,662.9,540.7,658.3z"/>
							<path class="st3" d="M615,672.1c-9.3-6.4-27.6-18.7-54.4-24.8c-19.2-4.3-28.1-2.1-100.5,6.9c-52.2,6.5-62.3,7.2-79.8,15.1
								c-8.3,3.8-28,12.9-46.1,31.7c-38.6,40.1-40.2,93.5-40.6,108.7c-0.7,25.2,9.8,57.7,31,121.8c21.5,65,23.4,61.2,33,97
								c0,0,14.2,53.2,16.5,130c0.9,30.2-2.2,41.9-8.3,51.6c-4.2,6.8-8.4,10.3-7.6,15.1c2.2,12.3,33.7,16.6,51.6,18.6
								c68.5,7.8,125.3,4.1,152.7,2.1c71.4-5.2,90.6-10,110.1-17.9c16.1-6.5,42.4-9.5,53-29.6c4.7-9,14.1-68.6,14.4-125.2
								c0.7-97.4-20-185.8-20-185.8C700.8,803.7,680.6,717.1,615,672.1z"/>
							<path class="st1" d="M575.1,667.3c3.1,3.1-1.6,10.6-8.3,28.2c-10,26.6-11,40.7-15.1,40.6c-3.1-0.1-3.3-8.1-8.9-22.7
								c-9.7-25.1-22.4-35.6-18.6-40.6c2.4-3.2,7.9,0.8,21.3,0C563.4,671.8,571.5,663.8,575.1,667.3z"/>
							<path class="st4" d="M568.2,692c1.4-2.9,4.3-4.8,7.6-4.8c7,0,17.6,12.8,22.7,26.8c2.9,8,3.3,13.8,4.1,13.8
								c1.2-0.1,2.1-11,0-22c-2.4-12.8-7.7-20.7-12.4-27.5c-2.5-3.7-5.7-7.7-11-9.6c-2-0.7-4.2-1.5-6.2-0.7
								C565.8,670.8,577.2,666.6,568.2,692z"/>
							<path class="st4" d="M538.6,689.3c2.2,7.3-1.6,10.5-3.4,23.4c-4.4,29.8,4.8,53,4.8,53c-11-6.9-21.3-14.7-31-23.4
								c0,0-39.4-35.1-88.1-59.2c-17.6-8.7-26.1-10-28.9-10.3c-12.5-1.6-20.5,1-22.7-2.8c-2.6-4.6,4.7-15.6,13.1-22
								c8.6-6.6,21.7-10.6,114.2,16.5C517.4,670.6,534.7,676,538.6,689.3z"/>
							<path class="st5" d="M709.3,680.3c-3.1-2.3-7.5-3.2-25.5,0c-10,1.7-19.9,4-29.6,6.9c-26.8,8.5-44.7,15.8-44.7,15.8
								c-26.8,10.8-165.1,69.3-169.3,74.3c-1.5,1.8-2.7,3.9-3.4,6.2c-1.5,4.4-1.7,9.2-0.7,13.8c2.8,13.7,11.1,59.6,20,94.3
								c7.1,27.5,35.3,207.6,37.2,209.2c13.8,11.7,10.8-183.5,57.1-198.8c68.8-22.8,98.4-12.5,118.3-40.6c6.6-9.3,1.3-7.4,12.4-42
								c14.3-44.4,31.3-73.2,34.4-114.2C716,697.6,716.4,685.6,709.3,680.3z"/>
							<path class="st6" d="M721.6,692c-2.8-3.6-10.4-7.4-17.2-8.9c-4.7-1.1-10.8-1.5-27.5,2.8c-8.9,2.3-17.6,5-26.1,8.3
								c-20.1,7.4-179.8,75.7-197.5,82.6c-1.6,0.6-6.2,2.4-8.9,6.9c-1.9,3.1-2.3,6.6-2.1,12.4c0.5,12,15.5,86.1,22,108
								c4.4,15,29.4,197.2,32.3,199.5c23.4,18,86.4-227.9,139.7-281.4C692.7,765.4,733.6,707.5,721.6,692z"/>
							<path class="st7" d="M737.5,690c0-3.1-7.8-6-13.8-6.9c-10.2-1.6-49.6,12.2-60.5,16.5c-56.9,22.5-192.7,76.3-197.5,80.5
								c-2.9,2.5-5.2,5.5-6.9,8.9c-3.3,7.1-1.9,14.2-1.4,17.2c2.8,14.9,19,94.7,22,107.3c0.7,3.1,0.6,2.2,1.4,5.5
								c1.9,8,18.3,185.1,19.3,185.8c7.1,4.1,15.2,6,23.4,5.5c3.3-0.2-26.9-197.8-28.2-204.3c-0.5-2.7-0.8-5.5-0.7-8.3
								c0-9.5-3.9-22.6-6.2-31.7c-5.5-21.5-1.7-19-7.6-45.4c-3.8-17.1-6.6-23.5-2.8-31c4.1-7.9,12.6-11,16.5-12.4
								c23.7-8.6,46.1-20.7,70.2-28.2c20-6.3,45.2-14.2,74.3-25.5c13.6-5.3,24.8-10,42.7-15.1c8.7-2.5,17.4-5.1,26.2-7.6
								C730.1,694.7,737.4,692.9,737.5,690z"/>
							<path class="st8" d="M485.4,981.1c5.4,53.9,12,123.3,12.6,123.7c7.1,4.1,15.2,6,23.4,5.5c2-0.1-8.7-75.3-17.5-134.5
								C498.5,939.1,482.2,948.8,485.4,981.1z"/>
							<path class="st9" d="M737.5,690c-2.8-0.7-26.8,7.6-39.9,11.7c-5.4,1.7-32.4,8.9-90.1,28.9c-38.1,13.2-74.3,31.5-112.8,43.3
								c-6,1.7-11.5,5.1-15.8,9.6c-6.3,6.6-8.6,16-6.2,24.8c16.4,71,24.5,106.5,24.8,126.6c0.1,8.2,24.1,172,24.8,175.5
								c16.5,6.2,210.3-68.4,215.4-77.8c1.7-3-3.4-185.1-3.4-185.1c0.3-2.5,0.1-5.1-0.7-7.6c-1.5-5-1.3-15.4-0.7-35.1
								C733.9,761.8,737.5,690,737.5,690z"/>
							<path class="st7" d="M497.3,934.9c0.1,8.2,24.1,172,24.8,175.5c16.5,6.2,210.3-68.4,215.4-77.8c1.2-2.2-1.1-97.8-2.5-150.7
								C734.4,861.6,497.1,914.8,497.3,934.9z"/>
							<path class="st10" d="M733.7,847.9c-2.8-7.2-7.5-13.4-13.8-17.9c-3.5-2.5-14.1-9.1-50.2-4.8c-4.6,0.6-13.2,1.7-38.5,7.6
								c-10,2.3-19.7,4.7-53.7,13.8c-20,5.3-36.1,9.7-55,18.6c-6.8,3.2-16,7.9-22,17.9c-3.3,5.7-5.2,12-5.5,18.6
								c-3.6,44.1-6.2,75.9,10.3,92.2c30.2,29.9,108.2-8.3,139.7-27.5C695.1,935.5,745.5,880.1,733.7,847.9z"/>
							<path class="st3" d="M404.4,773.2c13,17.1,48.6,66.4,70.9,140.4c3.4,10.7,5.8,21.8,6.9,33c1.3,13.4,4.5,47.9-15.8,79.1
								c-6.8,10.5-18.6,28.6-39.2,31.7c-15,2.2-28-4.6-29.6-5.5c-6.9-3.9-12.8-9.3-17.2-15.8c-23.9-33.7-37.8-72.9-37.8-72.9
								c-18.9-53-28.4-80-32.3-101.8"/>
							<path class="st11" d="M571,1023.7c7.4,8.6,16,12.1,28.9,17.2c11.2,4.5,17.6,7,26.8,6.9c8.4-0.2,16.6-2.3,24.1-6.2
								c14.9-7.5,22.4-19.2,25.5-24.1c14.8-23.6,11.1-48.9,9.6-57.8c-2.1-12.9-5.1-31.5-20-44c-21.8-18.3-59.4-15.5-83.3,3.4
								c-32.6,25.8-25.9,70.8-21.3,86C563.1,1011.9,566.4,1018.3,571,1023.7z"/>
							<path class="st3" d="M442.3,948c20.1-8.8,40.2-8.9,80.5-8.9c58-0.1,71.2,11.8,76.4,17.9c8.4,9.9,12,23.4,12.4,24.8
								c1.1,4.4,4.4,17.9,0,32.3c-4.9,15.9-16.6,24.7-31,35.1c-8.4,6.1-26.4,18.1-55.7,27.5c-26.3,8.5-48.3,15.6-75.7,9.6
								c-7.5-1.6-25.6-5.8-42.7-20.6"/>
							<path class="st11" d="M705.1,970c1.6,10.1-5.9,20-11.7,27.5c-5.3,7-12.2,15.9-24.8,18.6c-13.6,2.8-24.4-3.7-26.2-4.8
								c-15.5-9.7-17-27.5-17.2-30.3c-0.9-12.7,4.3-27,15.1-34.4C662.9,931.1,701.9,949.9,705.1,970z"/>
							<path class="st1" d="M697.6,856.5c-15.8-6.5-31.9-4.6-64-0.7c-23.4,2.8-43.8,8.8-84.6,20.6c-44.9,13-10.3,5.7-64.7,24.8
								c-9,3.2-19.7,6.8-26.1,17.2c-4.8,7.7-7.9,20.3-2.8,30.3c3.3,6.4,8.8,9.3,45.4,21.3c17.5,5.7,26.3,8.6,30.3,9.6
								c6.3,1.6,19.9,4.9,61.9,8.9c28,2.7,42,4.1,55,3.4c19.9-0.9,34.2-4.1,46.8-6.9c19.6-4.4,25.3-7.6,27.5-8.9
								c11.4-6.8,21.2-18.1,25.5-29.6C759.4,915,732.3,870.8,697.6,856.5z"/>
							<path class="st3" d="M744.3,838.9c-42.5-3.2-92.8,14.9-92.8,14.9s26.5-6,48.8,12.4c24.3,19.9,34.9,59.1,25.2,91.9
								c-3.5,11.4-9.2,22.1-16.9,31.2c8.2,1.2,21,2.9,35.8-0.7c16.2-3.9,31.1-7.6,45.4-20.6c22.5-20.6,26.2-55.2,26.5-58.8"/>
							<path class="st4" d="M727.2,952.8c-6.9-3.4-15.6-4.2-23.4-4.1c-17.5,0.2-31.7,13.8-31.7,13.8s0.2-10.9-1.4-33
								c-1.1-15.1-3.8-22.3-5.5-26.2c-2.5-5.5-5.7-10.6-9.6-15.1c-7.7-9-17.3-16-28.2-20.6c-16.7-7.2-23.4-5.5-27.5-5.5
								c0,0,22.8-10.9,46.1-11c25.3-0.2,42.1-0.2,58.5,11c19.8,13.6,30.7,38,28.9,59.2C733.2,923.4,731.3,942.5,727.2,952.8z"/>
							<path class="st4" d="M727.2,952.8c-0.9-0.2-13.1,19.3-35.1,27.5c5.5,17.2-13.8,33.7-31,36.5c0.5,2.2,14,1.9,26.2-2.8
								c3.5-1.3,14-8.7,22-18.6C723.3,978.1,728.9,953.2,727.2,952.8z"/>
							<path class="st1" d="M534.5,886.1c-1.3-1.6-10.8,0.5-29.6,4.8c-10,2.3-15,3.4-21.3,5.5c-8.4,2.8-20.5,6.8-31,14.4
								c-10.5,7.7-15.2,15.8-24.8,32.3c-10.1,17.4-6,15.8-21.3,46.8c-3.5,7.1-7.9,15.6-11,28.2c-1.7,6.1-2.6,12.3-2.7,18.6
								c0,6.3,0.1,19.1,8.3,31c2.2,3.2,6.2,8.9,13.8,12.4c3.4,1.7,7.2,2.6,11,2.8c10.6,0,18.4-8.5,21.3-11.7
								c15.1-16.5,11.4-50.1,14.5-72.9C470.3,933,541.7,894.6,534.5,886.1z"/>
							<path class="st1" d="M524.9,962.4c3.3,6-2,10.8-6.9,28.9c-4.1,15.4-5.2,30.2-6.2,44c-0.9,12.6-0.4,16.6-3.4,23.4
								c-1.7,3.9-6.4,14.1-17.9,19.3c-1.5,0.7-11.4,5.1-20.6,2.1c-20.3-6.7-21.9-44.5-22-47.5c-1.1-33,18.5-71.7,46.8-77.8
								C505.5,952.5,520.5,954.4,524.9,962.4z"/>
							<path class="st1" d="M511.8,945.9c2.7,4.5-10.3,10.7-22.7,33c-12.7,23-21,56.2-17.9,75c1.1,5.9,1.1,12,0,17.9
								c-0.9,5-1.8,9.9-5.5,14.4c-8,9.9-22.3,9.1-24.8,8.9c-5.1-0.1-10.1-1.5-14.5-4.1c-10.4-6.7-12.6-19.5-13.8-26.8
								c-0.8-4.8-2.8-20.9,8.9-49.5c8-19.6,14.8-36.3,31.6-50.2C476,945.7,507.8,939.3,511.8,945.9z"/>
							<path class="st12" d="M697.6,1171.6c-8.4,10.5-18.4,19.5-29.6,26.8c-14.7,9.5-27.7,13.4-40.6,17.2c-16,4.7-33.8,8.1-56.4,9.6
								c-32.2,2.1-64.6,0-96.3-6.2"/>
							<path class="st12" d="M712,1071.1c-25.3,59.6-74.9,105.4-136.2,125.9"/>
							<path class="st1" d="M575.8,328.8c14.7-1.1,31.9-16.1,34.4-30.3c0.5-2.8,0-3.1,0.7-17.9c0.4-8.5,0.8-14.6,1.4-22
								c1.9-25.5,2.8-38.2,2.8-38.5c-0.4-3.9-2.8-29.1-22.7-43.4c-14.7-10.5-31.2-9.5-41.3-8.9c-18.2,1-31.3,7.8-39.9,12.4
								c-26.2,13.9-25.5,25.3-51.6,40.6c-22.9,13.4-38.8,13.8-38.5,18.6c0.5,7.6,39.8-0.5,77.1,19.3
								C544.8,283.3,548.4,330.8,575.8,328.8z"/>
							<path class="st13" d="M533.8,245.5c-15.2-6-27.8-7.8-46.1-10.3c-29.3-4-59-3.5-88.1,1.4c-15,2.5-36.6,6.3-62.6,17.9
								c-18.6,8.3-46.4,21-70.2,49.5c-17.6,21-25,41.1-31.6,59.2c-9.3,25.2-14.6,51.6-15.8,78.4c-1,30.1,0,48.9,0,48.9
								c0.7,13.3,2,25-2.1,40.6c-2.6,10.1-5.1,19.3-13.1,24.1c-10.3,6.2-21.4,0-24.8,5.5c-2.5,4.1,1.5,10.8,6.2,18.6
								c5.5,9.1,12.5,17.2,20.6,24.1c7.6,6.5,16.4,13.9,29.6,17.9c16.5,5,29.3,1.4,29.6,3.4s-11.1,6.4-23.4,6.9
								c-7.6,0.3-12.1-1-12.4,0c-0.6,2,14.9,9.6,31,15.1c22.5,7.7,40.1,13.8,60.5,9.6c22.1-4.5,36.4-18.6,39.2-15.1
								c1.9,2.3-3.8,10.1-5.5,12.4c-8.3,11.2-18.5,15.1-17.9,16.5c0.7,1.6,13.4-3.2,24.1-5.5c8.5-1.8,17.6-2.6,52.3,2.8
								c8.5,1.3,18.5,3,72.3,13.1c7.7,1.4,17.8,3.4,31.6,4.8c19,2,28.6,3,38.5,0.7c16.8-3.9,28.3-13.7,36.5-20.6
								c7.8-6.7,12.7-12.6,19.3-20.6c14.8-18.2,13.5-21.8,25.5-34.4c9.3-9.8,16.2-17,27.5-20c9.9-2.5,18.6-0.7,19.3-3.4
								c0.6-2.4-5.1-6.3-10.3-8.3c-10.8-4.1-19.5,0.3-20.6-2.1c-1.4-2.9,11.9-9.4,23.4-22c12.5-13.7,17.4-28.4,20-36.5
								c4.7-14.7,6.1-30.2,4.1-45.4c-1.3-11.5-4.5-23.3-8.3-23.4c-2.2-0.1-2.9,3.9-6.9,5.5c-5.7,2.3-12.5-2.3-15.1-4.1
								c-16.1-10.9-24.3-34.3-24.8-35.8c-9.7-28.8-12.3-48.4-15.1-60.5C618.6,304.2,576,262.2,533.8,245.5z"/>
							<path class="st14" d="M438.8,240c18.1-1.8,31.7,0.1,44.7,2.1c17.8,2.6,46.2,7,76.4,25.5c10.6,6.4,25.3,15.6,38.5,33
								c9.7,12.7,14.3,24.2,18.6,35.1c6.1,15.4,5.2,18.8,15.8,61.2c6,23.8,9.2,34.5,18.6,45.4c1,1.1,7.1,9.5,17.2,14.5
								c3.3,1.6,6.3,3,10.3,2.8c4.9-0.4,7.1-3.1,9.6-2.1c3.6,1.4,4,8.6,4.1,11c0.8,18.4,1.3,27.5-2.8,40.6
								c-2.9,9.6-8.9,29-26.2,43.3c-17.6,14.6-37.1,15.7-36.5,21.3c0.5,4.1,11.2,6.3,13.8,6.9c9.9,2.1,17.7-0.2,17.9,0.7
								c0.2,0.8-7.7,2.3-15.8,6.2c-8.7,4.2-14.2,9.5-18.6,13.8c-14.3,14-16,24-25.5,36.5c-9.4,11.4-21.1,20.5-34.4,26.8
								c-28.2,13.1-57.8,6.5-92.9-1.4c-6.7-1.5-24.4-5.7-44.7-11c-23.8-6.2-38.5-10.7-51.6-3.4c-5.2,2.9-10.1,7.5-11.7,6.2
								s1.1-8.5,5.5-13.8c5.6-6.6,12.1-7.9,11.7-9.6c-0.6-2.9-17.9-1.4-17.9-1.4c-20.8,1.8-26.1,5.8-42,8.3
								c-7.2,1.1-19.2,0.7-43.4,0c-8.1-0.2-27.5-0.9-27.5-2.8c0-1.2,8.8-1.4,20.6-6.9c4-1.8,13.7-6.3,13.1-9.6
								c-0.6-3.3-10.2-3.3-22.7-4.8c-13.4-1.6-26.3-7.4-39.8-13.9c-22.8-11.1-34.5-30.8-32.3-33.1c1-1,0.1,2,7.4,3
								c5.4,0.6,10.8-0.1,15.8-2.1c23.1-7.9,41.3-37.2,41.3-37.2c3.6-5.8,15-72.1,17.4-75.7c17.8-25.3,13.7-12.1,26.8-36.2
								c6.8-12.5,17.3-59,18.9-75.6c2-20.6,23.1-18.6,25.2-33.9c1-7.4,12.9-25.6,29.3-43.5C391.1,244.8,419.1,242,438.8,240z"/>
							<path class="st1" d="M380.4,248.9c-4.7-6.6-9.4-7.7-17.2-13.1c-13-9.1-11-14-22-22.7c-3.5-2.7-16.2-12.5-34.4-13.1
								c-17.9-0.6-30.9,8.1-35.1,11c-17,11.8-23.1,28.7-28.9,44.7c-7.6,21.1-8.3,38.2-8.9,54.4c-0.8,21.5,1.3,43,6.2,64
								c2.9,12.4,7.3,24.4,13.1,35.8c6.9,13.4,12.1,23.3,20.6,24.8s47.9-92,112.8-168.6C393.2,258.3,381.9,251.1,380.4,248.9z"/>
							<path class="st15" d="M633.6,424.4c-3.5-3.9-9.7-8.6-22-17.9c-8.7-6.4-17.9-12.1-27.5-17.2c-8.3-4.4-11.9-5.7-16.5-5.5
								c-8.1,0.4-13.9,5.3-16.5,7.6c-10.8,9.5-13.1,23.1-14.4,31.6c-3.3,20.9,2.6,32.5-1.4,34.4c-5.5,2.6-20.7-17.4-26.8-25.5
								c-14.8-19.5-16.9-28.8-27.5-32.3c-7.8-2.6-14.7-0.2-23.4,2.8c-23.5,8-37.4,25.2-46.8,37.2c-6.3,8-16.1,20.7-22,39.9
								c-4.5,14.7-8.5,27.5-2.8,39.9c7.7,16.6,27.9,21.4,39.2,24.1c6.9,1.6,37.1,7.9,64.7-10.3c8-5.3,28.3-18.8,28.9-35.8
								c0.1-2.6-0.2-7.1,2.1-8.3c3.4-1.7,11.3,5,15.8,12.4c7,11.3,2.7,18.5,8.3,22c5.5,3.5,10.5-3.7,26.8-3.4
								c7.5,0.1,12.2,1.8,13.8-0.7c1.8-2.7-2-8.1-4.1-11c-10.2-14.1-24.4-19.9-24.1-20.6s10.9,4.5,22.7,8.3
								c13.1,4.1,26.3,8.3,40.6,4.8c3.8-0.9,20-4.9,27.5-18.6C658.9,462.4,644.1,436.3,633.6,424.4z"/>
							<path class="st1" d="M630.8,448.4c1.8,4.4,2.9,8,2.8,12.4c-0.4,13.4-11.6,22.1-12.4,22.7c-11.3,8.5-25.2,5.9-34.4,4.1
								c-4.1-0.8-21.1-4.4-34.4-19.3c-4.5-4.7-8.1-10.4-10.3-16.5c-3.9-11-2.2-20.6-0.7-29.6c1.8-10.2,2.6-15.3,6.9-20
								c8.9-9.8,23.7-8.5,26.2-8.3c10.7,1,17.5,6.4,26.8,13.8C614.1,418.9,624.2,432.8,630.8,448.4z"/>
							<path class="st1" d="M494.6,432.6c4.7,5.8,8.4,12.3,11,19.3c3.6,9.9,4.8,20.5,3.4,31c-1.6,11.1-6.1,21.5-13.1,30.2
								c-13.6,16.6-31.8,20.2-37.8,21.3c-6.5,1.2-17.8,3.3-30.3-2.1c-6.1-2.6-11.5-6.6-15.8-11.7c-7.8-9.5-9-19.9-9.6-26.8
								c-2.6-26.6,11.4-47,15.1-52.3c4-5.7,12.8-17.8,28.9-24.8c6.4-2.8,14.1-6.1,23.4-4.1C480.9,415.1,487.7,423.8,494.6,432.6z"/>
							<path class="st14" d="M597.1,445.7c0.4-3.6-0.4-7.2-2.1-10.3c-4.2-7.9-12.8-9.8-17.9-11c-3.6-0.8-6.3-1.4-8.9,0
								c-3.7,2-4.8,6.5-5.5,9.6c-1.3,5.3-0.8,10.9,1.4,15.8c0.8,1.9,5.7,12.5,15.1,13.1C588.3,463.4,596.1,454.3,597.1,445.7z"/>
							<path class="st14" d="M480.8,482.1c-0.7,2.1-1.8,5.3-4.8,7.6c-4,3-8.7,2.6-13.8,2.1c-7.1-0.7-12.5-1.2-15.8-5.5
								c-4-5.1-2.4-12-1.4-16.5c0.6-2.5,2.3-9.9,8.9-15.1c2.2-1.8,5-4,8.9-4.1c7.6-0.3,12.9,7.4,14.5,9.6
								C477.7,460.6,484.6,471,480.8,482.1z"/>
							<path class="st1" d="M589.5,518.6c1.1,4,1.3,8.3,0.7,12.4c-0.6,3.5-1.2,6.7-3.4,9.6c-2.5,3.3-6,4.5-13.1,6.9
								c-4.2,1.4-8.1,2.1-15.8,3.4c-5.5,1-7.8,1.1-10.3,0c-2.2-1.1-4.1-2.7-5.5-4.8c-2.7-3.7-3.1-7.5-3.4-10.3
								c-0.4-3.5-0.8-6.6,0.7-9.6c1.2-2.5,3.2-4.4,8.3-6.9c8.9-4.4,13.3-3.9,33-6.2c1.5-0.2,4.7-0.6,6.9,1.4
								C588.3,515.3,588.9,516.3,589.5,518.6z"/>
							<path class="st14" d="M579.9,524.8c-0.2,2.7-0.3,4-0.7,4.8c-1.4,2.9-4.8,3.8-8.9,4.8c-3,0.8-6.2,1.6-10.3,0.7
								c-2.6-0.6-5.2-1.1-6.9-3.4c-2.4-3.4-1.5-8.8,1.4-11.7c1.5-1.5,3.3-1.9,6.9-2.8c4.2-1,7.4-0.7,13.8,0c2.1,0.2,3.3,0.4,4.1,1.4
								C580.3,519.8,580.1,521.5,579.9,524.8z"/>
							<path class="st16" d="M507.7,599.1c-3-1.3-5.9-3-8.4-5.1c7,6.4,14.7,12,22.9,16.8c6.9,4,10.7,6.1,16.5,8.3
								c13.9,5.2,22.8,4.4,25.5,4.1c4.8-0.5,10.1-1.2,13.8-5.5c1.5-1.7,1.3-2.5,2.5-5.9c-2.8-3.6-6.2-6.7-10.1-9.3
								c-2.9-1.9-6.1-3.5-9.4-4.6c-1.3,0.8-2.7,1.6-4.3,2.5c-9.4,5.2-21.1,4.9-24.1,4.8C521.3,604.9,512.9,601.4,507.7,599.1z"/>
							<path class="st17" d="M566.1,592.3c-1,2.5-2.8,4.1-5.3,5.8c3.3,1.1,6.5,2.6,9.5,4.6c3.8,2.5,7.2,5.7,10.1,9.3
								c0.3-0.7,0.6-1.5,1-2.4c2.2-5.1,5-9.9,8.3-14.4c3.5-5.1,4.1-6.9,4.1-6.9c-1.3,0.8-2.7,1.5-4.1,2.1c-2.9,1.3-5.4,1.6-8.9,2.1
								c-3.6,0.4-5.3,0.6-6.9,0c-3-1.2-4-3.8-5.5-3.4C567,589.1,566.7,590.9,566.1,592.3z"/>
							<path class="st12" d="M499.3,594c7,6.4,14.7,12,22.9,16.8c6.9,4,10.7,6.1,16.5,8.3c13.9,5.2,22.8,4.4,25.5,4.1
								c4.8-0.5,10.1-1.2,13.8-5.5c1.5-1.7,1.3-2.5,2.5-5.9c0.3-0.7,0.6-1.5,1-2.4c2.2-5.1,5-9.9,8.3-14.4c3.5-5.1,4.1-6.9,4.1-6.9
								c-1.3,0.8-2.7,1.5-4.1,2.1c-2.9,1.3-5.4,1.6-8.9,2.1c-3.6,0.4-5.3,0.6-6.9,0c-3-1.2-4-3.8-5.5-3.4c-1.2,0.3-1.5,2.1-2.1,3.4
								c-1,2.5-2.8,4.1-5.3,5.8c-1.3,0.8-2.7,1.6-4.3,2.5c-9.4,5.2-21.1,4.9-24.1,4.8c-11.1-0.4-19.5-3.9-24.8-6.2
								C504.7,597.9,501.9,596.2,499.3,594"/>
							<path class="st12" d="M497.4,592.4c0.2,0.2,0.8,0.8,1.8,1.6"/>
							<path class="st12" d="M497.3,592.3L497.3,592.3"/>
							<path class="st12" d="M497.4,592.3L497.4,592.3"/>
							<path class="st12" d="M497.4,592.3L497.4,592.3"/>
							<path class="st12" d="M499.2,594c-0.6-0.5-1.2-1.1-1.8-1.6"/>
							<path class="st12" d="M499.2,594L499.2,594"/>
							<path class="st12" d="M580.3,611.9c-2.8-3.6-6.2-6.7-10.1-9.3c-2.9-1.9-6.1-3.5-9.5-4.6"/>
							<path class="st1" d="M573.7,542c2.1,4.1,2.2,8,2.1,13.1c-0.3,10.7-0.4,16.1-1.4,20.6c-1.5,7-2.6,12.3-6.9,17.9
								c-2.8,3.6-6.3,6.7-10.3,8.9c-8,4.6-15.7,4.8-20.6,4.8c-8.2,0.1-14.1-1.8-21.3-4.1c-7.1-2.2-13.9-5.4-20-9.6
								c-3.5-2.5-8-6.2-7.6-6.9c0.4-0.6,3.5,1,11,4.1c3.8,1.6,10.8,4.6,17.2,6.9c8.4,3.1,12.7,4.6,17.2,4.8
								c5.4,0.2,10.8-0.7,15.8-2.8c5.1-1.8,9.6-4.9,13.1-8.9c2.9-3.5,4-6.7,5.5-11c2.1-6.2,3.3-12.7,3.4-19.3
								c0.4-7,0.7-11.4-0.7-17.2c-0.8-3.5-2-6.5-1.4-6.9S572.2,539,573.7,542z"/>
							<path class="st1" d="M604.7,546.8c-0.4,0.2,2.6,4.8,3.4,12.4c0.4,3.9,1,9-1.4,14.5c-3.8,8.6-12.4,12-15.1,13.1
								c-4.2,1.5-8.6,2.2-13.1,2c-4-0.2-7.9-0.2-10.3-2.1c-0.3-0.2-1.1-0.9-1.4-0.7c-0.3,0.2,0.4,2.1,1.4,3.4
								c1.8,2.4,6.2,2.1,7.2,2.4c1.9,0.5,2.1,1.4,5.8,1c2.8-0.1,5.6-0.6,8.3-1.4c2.4-0.9,4.7-2,6.9-3.4c3.8-2.3,6-3.7,8.3-6.2
								c2.6-3,4.5-6.5,5.5-10.3c0.8-3.1,1-6.4,0.7-9.6C610,553.1,605.1,546.7,604.7,546.8z"/>
							<path class="st12" d="M585.4,618.4c0.5,2,0.5,4.2,0,6.2c-0.8,3-2.5,5.6-4.8,7.6c-2.5,2.2-5.6,3.6-8.9,4.1"/>
							<path class="st1" d="M347,230c-13-25.2-22.4-33.1-28.9-35.1c-3.5-0.9-6.8-2.5-9.6-4.8c-6.4-5.5-7-12.6-8.9-12.4
								s-3.2,6.7-2.1,13.1c1.7,9.3,8,13.8,6.9,15.1c-1.3,1.5-11.5-1.6-16.5-9.6c-6.6-10.7,0.3-23.4-2.8-24.8
								c-3.5-1.5-14.2,14.6-20.6,26.1c-3.9,6.9-7.3,14-10.3,21.3c-12.1,30-18.1,45-14.4,61.9c0.5,2.3,6.1,26.7,20.6,31.6
								C280.9,319.6,315.7,286.4,347,230z"/>
							<path class="st1" d="M527.9,177.7c5.3-13.4,29.5-16.2,32.3-16.5c5.8-0.7,10.3-0.2,27.5-0.7c7.4-0.2,11.1-0.3,12.1-0.5
								c2.7-0.4,4.2-0.7,4.4-0.2c0.5,1.1-5.5,5.3-11,8.3c-11.2,5.9-20,6-20,6.9c0.1,1.1,14.4,3.4,29.6-2.1
								c6.9-2.5,12.7-6.2,13.8-4.8c1.1,1.4-3.8,4.9-5.5,11.7c-1.5,6.1,0.4,11.2,1.4,14.4c3.2,10.6,5,30.4-1.4,37.8
								c-9.6,11.3-44.3,2.6-65.4-17.2C542.6,211.8,522.1,192.5,527.9,177.7z"/>
							<path class="st18" d="M691.7,848.6c-0.2,2.3,10.5,2,22.7,10.3c8.3,5.8,14.9,13.6,19.3,22.7c4,8.4,6.1,17.5,6.2,26.8
								c0.9,23.4-9.5,35.2-3.4,41.3c2.6,2.6,8.2,2,19.3,0.7c11.1-1.3,21.9-2.5,33.7-9.6c5.5-3.3,12.3-7.5,16.5-15.8
								c0.9-1.7,2.3-5,3.4-12.4c1.5-10.3,1.3-20.8-0.7-31c-3.1-16-9.3-27.2-13.8-35.1c-3.7-6.6-8-12.4-16.5-24.1
								c-8-10.9-8-10.1-15.8-20.6c-13.5-18.2-17.7-26.5-20.6-25.5c-1.6,0.6-1.3,3.6-2.1,14.5c-1.3,19.1-3.5,25,0,27.5
								c2.4,1.8,4.4-0.5,11.7-0.7c11.7-0.3,20.8,5,20.6,5.5c-0.1,0.5-5.3-1.8-13.1-1.4c-6.3,0.3-12.5,2.2-12.4,3.4
								c0.1,1.2,5.2,0.7,12.4,2.8c5.8,1.7,11.1,4.5,15.8,8.3c9.7,8.2,12.9,20.6,11.7,21.3c-1.2,0.7-4.8-8.7-15.8-15.8
								c-9-5.9-18.9-7.8-19.3-6.9c-0.2,0.5,3,1.8,7.6,5.5c6.1,4.8,12,11.7,11,13.1s-6.9-3.2-16.5-6.2c-2.7-0.8-8.9-2.6-24.8-2.8
								C717.1,844.3,692,845,691.7,848.6z"/>
							<path class="st18" d="M631.8,691c-10.3,2.8-15.1,6.2-26.2,8.9c-5.5-13.1-8.9-21.3-15.1-26.8c1.3-3.1,3.8-5.5,6.9-6.9
								C609.8,671.8,620.8,680,631.8,691z"/>
							<path class="st18" d="M654.6,682.1c-7.6-8.3-32.3-14.5-38.5-15.1c-2.2,3.5,13.1,10.3,23.4,20
								C645.4,687.2,654.2,685.4,654.6,682.1z"/>
							<path class="st18" d="M483.9,736.4c-0.5,1.7-11.4,4.1-33,8.9c-7.6,1.7-14.4,3.1-19.3,8.9c-3.2,3.8-4.7,8.5-5.5,11
								c-3,9.4-1.5,16.3-2.8,16.5c-1.2,0.2-2.4-7.8-6.9-15.8c-7.5-13.5-21-20.3-22-19.3c-1.2,1.3,13.9,16.3,12.4,17.9
								c-0.6,0.6-3.3-1.5-10.3-4.1c-4.3-1.6-8.2-3.1-8.9-2.1c-0.9,1.2,3.1,5.2,6.9,9.6c1.9,2.2,5.8,8.1,13.8,20
								c5.3,8,13.2,19.7,21.3,34.4c16.5,29.8,9.8,27.8,22,46.8c6.3,9.9,13.7,19,10.3,25.5c-1.6,3.1-5.1,4.2-6.9,4.8
								c-16.9,5.8-31,17.1-40.6,24.8c-10.4,8.6-19.1,19.1-25.5,31c-5.7,11.1-7.8,20.9-11,20.6c-3.4-0.3-5-11.7-5.5-15.1
								c-2.5-17.4,2-31,0-31.7s-5.1,12-11,12.4c-5.2,0.3-9.6-9.2-12.4-15.1C329.1,883,325,870,325,870
								c-8.1-25.7-12.2-38.5-13.1-46.1c-1.5-12.5-3.5-31.2,4.1-53c6.8-19.6,17.9-31.6,26.1-40.6c11.6-12.6,23.2-25.2,42-29.6
								c11.8-2.8,21.1-1,33,1.4C452.9,709.1,486.2,728.8,483.9,736.4z"/>
							<path class="st18" d="M596.8,1015.8c0.8,1.8-7,6.9-14.5,11.7c-12.8,8.3-16.8,9-40.6,20.6c-10.4,5.1-16.1,8.1-17.9,6.2
								c-1.5-1.6,1.3-4.9,3.4-13.8c2.6-11,0.4-14.7,3.4-17.9c4-4.1,11.2-1.1,20.6,0C576.8,1025.7,595.5,1012.9,596.8,1015.8z"/>
							<path class="st18" d="M723.4,1068.1c-3.1-0.2-3.7,14.8-11,32.3c-8.5,20.4-21.2,32.6-38.5,48.8s-34.4,32.3-59.9,43.3
								c-53.6,23.4-111.4,10.3-111.5,6.2c0-1.9,16.5,0,43.4-6.9c16.8-4.3,60.2-17.8,96.3-56.4c25.3-27,41.5-60.4,37.8-63.3
								c-1.9-1.5-8.4,5.8-22,15.8c-22.6,16.8-42.5,24.9-60.6,32.3c-28.7,11.8-51.8,16.5-68.8,20c-31.8,6.4-47.8,9.6-70.2,7.6
								c-29-2.6-48.6-12.2-50.9-7.6c-1.9,3.8,9.7,13.9,18.6,20c26.5,18,52.4,16.2,52.3,20c-0.1,3.5-22.9,7.6-46.8,6.2
								c-20.3-1.2-32.1-10.7-35.8-6.2c-4,4.8,5.6,18.6,7.6,21.3c5.6,7.8,16.5,19.2,43.4,28.9c4.9,1.8,21.8,7.6,52.3,10.3
								c29.9,2.7,52.7,0.6,72.9-1.4c27-2.6,44.8-6.5,61.9-10.3c25.7-5.7,35.2-9.7,44-15.8c16.6-11.4,26.9-27.5,25.5-28.9
								c-1.2-1.2-10.5,9-27.5,19.3c-19.1,11.5-35.6,15.6-55.7,20.6c-19.9,4.8-40.1,7.8-60.5,8.9c-22.3,1.2-44.6,0.3-66.7-2.8
								c-16.3-2.3-26.8-4.9-37.2-8.9c-14.3-5.5-30.6-14.5-29.6-17.2c1.1-2.9,22,4.3,53.7,9.6c21.2,3.6,49.2,8.3,83.3,5.5
								c20.2-1.7,50.1-4.4,82.6-22c16-8.7,27.2-18.4,49.5-37.8c11.1-9.6,17.3-16,22.7-25.5c6-10.8,9.5-22.8,10.3-35.1
								C729.2,1084.6,726.6,1068.2,723.4,1068.1z"/>
							<path class="st19" d="M663.5,943.5c-4.5,6.4-12.3,4.4-47.5,5.5c-36.4,1.1-33.6,3.4-55,2.8c-15.6-0.5-31.9,3.2-46.8-1.4
								c-1.4-0.4-5.6-1.8-9.6,0c-5.5,2.5-7.6,9.5-8.9,15.8c-3,14-4.2,28.4-3.4,42.7c1.3,17.7,3.8,22.2,0.7,31.7
								c-3.6,11-7.7,15-10.3,16.5c-0.9,0.5-7.5,4.2-12.4,1.4c-2.9-1.6-4.3-4.9-5.5-12.4c-2.8-17-0.3-27.8-2.1-28.2
								c-1.5-0.4-6,7.3-7.6,16.5c-1.4,8.1,0.8,10.2,0,21.3c-0.6,8.8-0.9,13.1-4.1,17.2c-4.5,5.5-11.6,8.1-18.6,6.9
								c-5-1.1-9.5-4-12.4-8.3c-3.2-4.5-4.4-10.1-3.4-20.6c1.9-21.5,9.9-34.9,8.3-35.8c-1.3-0.7-8.7,6.3-11.7,16.5
								c-2.8,9.7,0.1,16.3-4.8,22c-0.6,0.7-4.7,5.8-8.3,4.8c-5.5-1.5-6.4-16.6-5.5-26.8c0.5-5.7,1.8-12.1,10.3-32.3
								c4.7-11.2,6.4-14.1,13.8-30.3c12.2-26.7,12.1-28.5,16.5-35.1c6.9-10.8,16.1-19.9,26.8-26.8c7-4.4,18-7.6,39.9-13.8
								c15-4.3,26.4-7.1,39.2-10.3c22.7-5.7,14.4-3.2,35.1-8.3c20-4.9,23.2-6.2,30.3-5.5c13.5,1.3,23.2,8,27.5,11
								c1.9,1.3,11.2,8.1,19.3,21.3C657.5,908.6,671.6,931.9,663.5,943.5z"/>
							<path class="st19" d="M719.3,2097.1c0.4-6.9-1.8-13.6-6-19c-7-8.6-17.1-9.7-20-10c-6.2-0.7-10.9,0.8-15,2
								c-6,1.8-10.6,3.2-12,7c-1.6,4.3,1.9,9,4,12c5.6,7.7,13.4,10.7,17,12c4.4,1.6,13.9,5,24,1
								C714.2,2100.9,716.9,2099.2,719.3,2097.1z"/>
							<path class="st19" d="M669.3,2107.1c1.6-2.4,1.3-5.2,1-8c-0.9-9.1-8.1-14.4-9-15c-4.2-3-8.3-3.5-12-4c-5.3-0.7-10.9-1.4-16,2
								c-3.7,2.5-7.7,7.6-7,13c1,7.4,10.3,10.9,16,13C650.3,2111.1,664.9,2113.8,669.3,2107.1z"/>
							<path class="st19" d="M624.3,2111.1c1.7-2.9,0.7-6.5,0-9c-2.2-7.9-8.9-11.4-10-12c-6.8-3.5-13.3-1.7-16-1
								c-3.4,0.9-10.7,2.9-12,8c-1.7,6.6,8.1,13.4,9,14C605.1,2117.7,620.5,2117.8,624.3,2111.1z"/>
							<path class="st19" d="M646.3,2063.1c1.2-4.2-11-8.4-24-22c-7-7.3-10.8-13.8-15-21c-20.7-35.4-21-90.5-21-112
								c0-19.5,1.3-17.8,2-54c0.7-34.2-0.6-29.2,0-54c1-42.2,4.7-59.5-4-64c-4-2.1-7,0.5-18,3c-17.5,3.9-31.4,2-46,0
								c-32.4-4.4-41-17.1-49-12c-9.4,6-4.7,28.6,4,65c22.5,94.4,25.3,88.4,39,145c7.8,32.5,42.8,89.4,50,104c3.9,7.9,9,15.1,13,23
								c2.2,4.4,3.9,8.1,8,10c4.1,1.9,7.5,0.8,15-1c0,0,5.7-1.4,23-5C640.1,2064.6,645.5,2065.9,646.3,2063.1z"/>
							<path class="st19" d="M477.3,1960.1c-2.6-3.3-4.3-4.8-12-14c-9.7-11.7-10.6-13.7-11-16c-1.4-8.2,4.5-11.4,3-20
								c-1-5.7-4.5-9-7-12c-15.7-18.4-13.2-42.1-18-42c-2.1,0-3.5,4.7-10,35c-5.8,27-6.5,31.8-5,39c2.8,13.3,10.5,22.1,14,26
								c9.5,10.7,14.9,9.4,38,25c14.5,9.8,18.8,14.6,21,13C493.9,1991.4,487.8,1973.2,477.3,1960.1z"/>
							<path class="st12" d="M546.3,1319.1c13.1,13.9,24.6,29.4,34,46c10.1,17.8,15.2,32.1,20,46c10.8,31,15.5,57.3,23,99
								c3.4,18.8,3.4,21.2,6,33c4.5,20.4,10.5,40.5,18,60"/>
							<path class="st12" d="M581.3,1280.1c9.6,16.4,17.3,33.9,23,52c7.4,23.4,8.4,38.2,14,69c3,16.6,8,41.1,16,71"/>
							<path class="st20" d="M555.3,1264.1c3.1,1.9,7.4,5.3,19,29c6,12.3,10.5,21.4,16,37c7.4,21,14.1,46.2,12,47
								c-1.7,0.6-7.5-14.9-23-42c-15.7-27.3-21.9-32.6-25-35c-16.8-13-40.4-16.9-44-11c-2.6,4.3,6.8,11.9,28,40
								c9.4,12.5,19.3,25.7,28,41c9.3,16.4,13.9,29.9,23,57c7.3,21,13.3,42.3,18,64c1.3,5.8,6.3,29.4,10,61c3.5,29.3,1.9,32.2,6,48
								c5.6,21.6,9.4,36,22,48c6.3,6,12.8,9.5,12,14c-1,5.5-12,7.8-23,10c-27.2,5.3-40.8,8-58,10c-48.4,5.6-54.9,9.2-66,3
								c-11.6-6.5-17.2-17.5-22-29c-18.8-44.9-21.8-88.3-25-142c-4-65.9-3.9-73.4-7-97c-4.8-37.1-7.2-55.7-13-77
								c-12-44.4-27-68.3-17-78c3.3-3.2,6.4-2,29-1c10.1,0.5,39.2,1.8,65,1C542.9,1261.4,547.8,1259.6,555.3,1264.1z"/>
							<path class="st20" d="M717.3,1225.1c-4.4-0.7-6.5,7.1-20,20c-5,4.8-21.6,19.9-44,28c-26.7,9.6-46.4,3.7-49,12
								c-1.3,4.2,2.8,8,8,15c6.7,9.1,11.5,22.1,21,48c6.8,18.6,5.7,20.1,16,56c10.5,36.6,12.9,39.3,21,70c5.6,21.1,8.5,32.4,11,49
								c2.6,17.5,3.9,35.3,4,53c0.1,26.1-2.6,38.7-1,39c3.3,0.7,19.8-50.6,31-108c13.5-69.1,13.7-117.7,14-186
								C729.6,1248.1,724.4,1226.2,717.3,1225.1z"/>
						</g>
					</g>
					<circle class="st21" cx="500.5" cy="500.5" r="475.7"/>
				</g>
			</g>
		</g>
	</g>
</g>
</svg>
