<?xml version="1.0" encoding="utf-8"?>
<!-- Generator: Adobe Illustrator 21.0.0, SVG Export Plug-In . SVG Version: 6.00 Build 0)  -->
<svg xmlns:xlink="http://www.w3.org/1999/xlink" version="1.1" id="Layer_1" xmlns="http://www.w3.org/2000/svg" x="0px" y="0px"
	 viewBox="0 0 512 512" style="enable-background:new 0 0 512 512;" xml:space="preserve">
<style type="text/css">
	.st0{clip-path:url(#SVGID_2_);stroke:#000000;stroke-width:3;stroke-linecap:round;stroke-linejoin:round;}
	.st1{clip-path:url(#SVGID_4_);stroke:#000000;stroke-width:3;stroke-linecap:round;stroke-linejoin:round;}
	.st2{clip-path:url(#SVGID_6_);fill:#4066BC;stroke:#000000;stroke-width:3;stroke-linecap:round;stroke-linejoin:round;}
	.st3{clip-path:url(#SVGID_8_);fill:#4066BC;stroke:#000000;stroke-width:3;stroke-linecap:round;stroke-linejoin:round;}
	.st4{clip-path:url(#SVGID_10_);fill:#4066BC;stroke:#000000;stroke-width:3;stroke-linecap:round;stroke-linejoin:round;}
	.st5{clip-path:url(#SVGID_12_);fill:#4066BC;stroke:#000000;stroke-width:3;stroke-linecap:round;stroke-linejoin:round;}
	.st6{clip-path:url(#SVGID_14_);fill:#4066BC;stroke:#000000;stroke-width:3;stroke-linecap:round;stroke-linejoin:round;}
	.st7{clip-path:url(#SVGID_16_);fill:#4066BC;stroke:#000000;stroke-width:3;stroke-linecap:round;stroke-linejoin:round;}
	.st8{clip-path:url(#SVGID_18_);fill:none;stroke:#000000;stroke-width:3;stroke-linecap:round;stroke-linejoin:round;}
	.st9{clip-path:url(#SVGID_20_);fill:none;stroke:#000000;stroke-width:3;stroke-linecap:round;stroke-linejoin:round;}
	.st10{clip-path:url(#SVGID_22_);fill:none;stroke:#000000;stroke-width:3;stroke-linecap:round;stroke-linejoin:round;}
	.st11{clip-path:url(#SVGID_24_);fill:none;stroke:#000000;stroke-width:3;stroke-linecap:round;stroke-linejoin:round;}
	.st12{clip-path:url(#SVGID_26_);fill:none;stroke:#000000;stroke-width:3;stroke-linecap:round;stroke-linejoin:round;}
	.st13{clip-path:url(#SVGID_28_);fill:none;stroke:#000000;stroke-width:3;stroke-linecap:round;stroke-linejoin:round;}
	.st14{clip-path:url(#SVGID_30_);fill:none;stroke:#000000;stroke-width:3;stroke-linecap:round;stroke-linejoin:round;}
	.st15{clip-path:url(#SVGID_32_);fill:none;stroke:#000000;stroke-width:3;stroke-linecap:round;stroke-linejoin:round;}
	.st16{clip-path:url(#SVGID_34_);fill:none;stroke:#000000;stroke-width:3;stroke-linecap:round;stroke-linejoin:round;}
	.st17{clip-path:url(#SVGID_36_);fill:#656A75;stroke:#000000;stroke-width:3;stroke-linecap:round;stroke-linejoin:round;}
	.st18{clip-path:url(#SVGID_38_);fill:none;stroke:#000000;stroke-width:3;stroke-linecap:round;stroke-linejoin:round;}
	.st19{clip-path:url(#SVGID_40_);fill:none;stroke:#000000;stroke-width:3;stroke-linecap:round;stroke-linejoin:round;}
	.st20{clip-path:url(#SVGID_42_);fill:none;stroke:#000000;stroke-width:3;stroke-linecap:round;stroke-linejoin:round;}
	.st21{clip-path:url(#SVGID_44_);fill:none;stroke:#000000;stroke-width:3;stroke-linecap:round;stroke-linejoin:round;}
	.st22{clip-path:url(#SVGID_46_);fill:none;stroke:#000000;stroke-width:3;stroke-linecap:round;stroke-linejoin:round;}
	.st23{clip-path:url(#SVGID_48_);fill:none;stroke:#000000;stroke-width:3;stroke-linecap:round;stroke-linejoin:round;}
	.st24{clip-path:url(#SVGID_50_);fill:none;stroke:#000000;stroke-width:3;stroke-linecap:round;stroke-linejoin:round;}
	.st25{clip-path:url(#SVGID_52_);fill:none;stroke:#000000;stroke-width:3;stroke-linecap:round;stroke-linejoin:round;}
	.st26{clip-path:url(#SVGID_54_);fill:none;stroke:#000000;stroke-width:3;stroke-linecap:round;stroke-linejoin:round;}
	.st27{clip-path:url(#SVGID_56_);stroke:#000000;stroke-width:3;stroke-linecap:round;stroke-linejoin:round;}
	.st28{clip-path:url(#SVGID_58_);fill:#DEF9F5;stroke:#000000;stroke-width:3;stroke-linecap:round;stroke-linejoin:round;}
	.st29{clip-path:url(#SVGID_60_);stroke:#000000;stroke-width:3;stroke-linecap:round;stroke-linejoin:round;}
	.st30{clip-path:url(#SVGID_62_);fill:#DEF9F5;stroke:#000000;stroke-width:3;stroke-linecap:round;stroke-linejoin:round;}
	.st31{clip-path:url(#SVGID_64_);fill:#DEF9F5;stroke:#000000;stroke-width:3;stroke-linecap:round;stroke-linejoin:round;}
	.st32{clip-path:url(#SVGID_66_);stroke:#000000;stroke-width:3;stroke-linecap:round;stroke-linejoin:round;}
	.st33{clip-path:url(#SVGID_68_);stroke:#000000;stroke-width:3;stroke-linecap:round;stroke-linejoin:round;}
	.st34{clip-path:url(#SVGID_70_);fill:#DEF9F5;stroke:#000000;stroke-width:3;stroke-linecap:round;stroke-linejoin:round;}
	.st35{clip-path:url(#SVGID_72_);fill:none;stroke:#000000;stroke-width:3;stroke-linecap:round;stroke-linejoin:round;}
	.st36{clip-path:url(#SVGID_74_);fill:#DEF9F5;stroke:#000000;stroke-width:3;stroke-linecap:round;stroke-linejoin:round;}
	.st37{clip-path:url(#SVGID_76_);stroke:#000000;stroke-width:3;stroke-linecap:round;stroke-linejoin:round;}
	.st38{clip-path:url(#SVGID_78_);stroke:#000000;stroke-width:3;stroke-linecap:round;stroke-linejoin:round;}
	.st39{clip-path:url(#SVGID_80_);stroke:#000000;stroke-width:3;stroke-linecap:round;stroke-linejoin:round;}
	.st40{clip-path:url(#SVGID_82_);fill:#DEF9F5;stroke:#000000;stroke-width:3;stroke-linecap:round;stroke-linejoin:round;}
	.st41{clip-path:url(#SVGID_84_);fill:#DEF9F5;stroke:#000000;stroke-width:3;stroke-linecap:round;stroke-linejoin:round;}
	.st42{clip-path:url(#SVGID_86_);fill:none;stroke:#000000;stroke-width:3;stroke-linecap:round;stroke-linejoin:round;}
	.st43{clip-path:url(#SVGID_88_);fill:none;stroke:#000000;stroke-width:3;stroke-linecap:round;stroke-linejoin:round;}
	.st44{clip-path:url(#SVGID_90_);fill:none;stroke:#000000;stroke-width:3;stroke-linecap:round;stroke-linejoin:round;}
	.st45{clip-path:url(#SVGID_92_);fill:none;stroke:#000000;stroke-width:3;stroke-linecap:round;stroke-linejoin:round;}
	.st46{clip-path:url(#SVGID_94_);fill:none;stroke:#000000;stroke-width:3;stroke-linecap:round;stroke-linejoin:round;}
	.st47{clip-path:url(#SVGID_96_);fill:none;stroke:#000000;stroke-width:3;stroke-linecap:round;stroke-linejoin:round;}
	.st48{clip-path:url(#SVGID_98_);fill:#DEF9F5;stroke:#000000;stroke-width:3;stroke-linecap:round;stroke-linejoin:round;}
	.st49{clip-path:url(#SVGID_100_);fill:#DEF9F5;stroke:#000000;stroke-width:3;stroke-linecap:round;stroke-linejoin:round;}
	.st50{clip-path:url(#SVGID_102_);fill:#FFEA55;stroke:#000000;stroke-width:3;stroke-linecap:round;stroke-linejoin:round;}
	.st51{clip-path:url(#SVGID_104_);fill:#282828;}
	.st52{clip-path:url(#SVGID_106_);fill:#282828;}
	.st53{clip-path:url(#SVGID_108_);fill:#282828;}
	.st54{clip-path:url(#SVGID_110_);fill:#282828;}
	.st55{clip-path:url(#SVGID_112_);fill:#282828;}
	.st56{clip-path:url(#SVGID_114_);fill:#282828;}
	.st57{clip-path:url(#SVGID_116_);fill:#282828;}
	.st58{clip-path:url(#SVGID_118_);fill:#282828;}
	.st59{clip-path:url(#SVGID_120_);fill:none;stroke:#000000;stroke-width:3;stroke-linecap:round;stroke-linejoin:round;}
	.st60{clip-path:url(#SVGID_122_);fill:none;stroke:#000000;stroke-width:3;stroke-linecap:round;stroke-linejoin:round;}
	.st61{clip-path:url(#SVGID_124_);stroke:#000000;stroke-width:3;stroke-linecap:round;stroke-linejoin:round;}
	.st62{clip-path:url(#SVGID_126_);stroke:#000000;stroke-width:3;stroke-linecap:round;stroke-linejoin:round;}
	.st63{clip-path:url(#SVGID_128_);stroke:#000000;stroke-width:3;stroke-linecap:round;stroke-linejoin:round;}
	.st64{clip-path:url(#SVGID_130_);stroke:#000000;stroke-width:3;stroke-linecap:round;stroke-linejoin:round;}
	.st65{clip-path:url(#SVGID_132_);stroke:#000000;stroke-width:3;stroke-linecap:round;stroke-linejoin:round;}
	.st66{clip-path:url(#SVGID_134_);stroke:#000000;stroke-width:3;stroke-linecap:round;stroke-linejoin:round;}
	.st67{clip-path:url(#SVGID_136_);stroke:#000000;stroke-width:3;stroke-linecap:round;stroke-linejoin:round;}
	.st68{clip-path:url(#SVGID_138_);fill:#D9D9D9;stroke:#000000;stroke-width:3;stroke-linecap:round;stroke-linejoin:round;}
	.st69{clip-path:url(#SVGID_140_);fill:#FFFFFF;}
	.st70{clip-path:url(#SVGID_142_);fill:#D9D9D9;}
	.st71{clip-path:url(#SVGID_144_);stroke:#000000;stroke-width:3;stroke-linecap:round;stroke-linejoin:round;}
	.st72{clip-path:url(#SVGID_146_);fill:#FFFFFF;}
	.st73{clip-path:url(#SVGID_148_);stroke:#000000;stroke-width:3;stroke-linecap:round;stroke-linejoin:round;}
	.st74{clip-path:url(#SVGID_150_);fill:#FFFFFF;}
	.st75{clip-path:url(#SVGID_152_);fill:#380208;}
	.st76{clip-path:url(#SVGID_154_);fill:#6A0006;}
	.st77{clip-path:url(#SVGID_156_);fill:none;stroke:#000000;stroke-width:3;stroke-linecap:round;stroke-linejoin:round;}
	.st78{clip-path:url(#SVGID_158_);fill:none;stroke:#000000;stroke-width:3;stroke-linecap:round;stroke-linejoin:round;}
	.st79{clip-path:url(#SVGID_160_);fill:#FFFFFF;stroke:#000000;stroke-width:3;stroke-linecap:round;stroke-linejoin:round;}
	.st80{clip-path:url(#SVGID_162_);fill:#FFFFFF;stroke:#000000;stroke-width:3;stroke-linecap:round;stroke-linejoin:round;}
	.st81{clip-path:url(#SVGID_164_);stroke:#000000;stroke-width:3;stroke-linecap:round;stroke-linejoin:round;}
	.st82{clip-path:url(#SVGID_166_);fill:#FFFFFF;}
	.st83{clip-path:url(#SVGID_168_);fill:#282828;}
	.st84{clip-path:url(#SVGID_170_);fill:#282828;}
	.st85{clip-path:url(#SVGID_172_);fill:#282828;}
	.st86{clip-path:url(#SVGID_174_);fill:#282828;}
	.st87{clip-path:url(#SVGID_176_);fill:#282828;}
	.st88{clip-path:url(#SVGID_178_);fill:#282828;}
	.st89{opacity:0.79;clip-path:url(#SVGID_180_);}
	.st90{fill:#FFFFFF;}
	.st91{opacity:0.1;clip-path:url(#SVGID_182_);fill:#FFFFFF;enable-background:new    ;}
	.st92{opacity:0.1;clip-path:url(#SVGID_184_);fill:#FFFFFF;enable-background:new    ;}
	.st93{opacity:0.1;clip-path:url(#SVGID_186_);fill:#FFFFFF;enable-background:new    ;}
	.st94{opacity:0.1;clip-path:url(#SVGID_188_);fill:#FFFFFF;enable-background:new    ;}
	.st95{opacity:0.1;clip-path:url(#SVGID_190_);fill:#FFFFFF;enable-background:new    ;}
	.st96{opacity:0.1;clip-path:url(#SVGID_192_);fill:#FFFFFF;enable-background:new    ;}
	.st97{opacity:0.1;clip-path:url(#SVGID_194_);fill:#FFFFFF;enable-background:new    ;}
	.st98{opacity:0.1;clip-path:url(#SVGID_196_);fill:#FFFFFF;enable-background:new    ;}
	.st99{opacity:0.1;clip-path:url(#SVGID_198_);fill:#FFFFFF;enable-background:new    ;}
	.st100{opacity:0.1;clip-path:url(#SVGID_200_);fill:#FFFFFF;enable-background:new    ;}
	.st101{fill:none;stroke:#11113F;stroke-width:9;stroke-miterlimit:10;}
</style>
<g>
	<g>
		<defs>
			<circle id="SVGID_1_" cx="256" cy="256" r="245.7"/>
		</defs>
		<clipPath id="SVGID_2_">
			<use xlink:href="#SVGID_1_"  style="overflow:visible;"/>
		</clipPath>
		<path class="st0" d="M274.8,876.4c4.2,4.2,2.1,7.3,8.3,16.6c3,4.4,6.6,8.5,10.6,12c10.4,9.4,17.1,10.2,16.9,14
			c-0.2,5.2-13.5,8.6-16.3,9.4c-5.7,1.3-11.5,1.7-17.3,1.3c-7.7-0.1-15.4-1-22.9-2.7c-4.3-0.6-8.6-1.7-12.6-3.3
			c-6.9-3.4-12.6-8.9-16.3-15.6c-2.1-3.6-10.9-18.8-4.7-27.9c3.4-5,10.3-5.6,23.9-7.1C259.9,871.5,269,870.7,274.8,876.4z"/>
	</g>
	<g>
		<defs>
			<circle id="SVGID_3_" cx="256" cy="256" r="245.7"/>
		</defs>
		<clipPath id="SVGID_4_">
			<use xlink:href="#SVGID_3_"  style="overflow:visible;"/>
		</clipPath>
		<path class="st1" d="M175.1,880.7c-0.6,1.7-1,4.4-3.3,12.6c-1.5,5.1-1.8,5.7-2.7,9c-2.2,8.3-3.2,12.4-2.4,15
			c1.3,3.5,5.4,5.3,24.9,8.3c29.4,4.5,34.9,2.5,38.6-0.7c3.1-2.8,5.3-6.5,6.3-10.6c1.3-5.6-0.5-9.7-2.7-16.6
			c-5.6-18.1-2.4-19.6-6-23.9C216.7,860.1,179.5,868,175.1,880.7z"/>
	</g>
	<g>
		<defs>
			<circle id="SVGID_5_" cx="256" cy="256" r="245.7"/>
		</defs>
		<clipPath id="SVGID_6_">
			<use xlink:href="#SVGID_5_"  style="overflow:visible;"/>
		</clipPath>
		<path class="st2" d="M329.9,471.5c1.8,1.2,2.6,2.7,6,18.6c4.3,20.1,6.5,30.1,8,41.6c2.1,15.8,3.3,31.6,3.6,47.5
			c0.2,10.5,1.4,64.9-9.4,102c-3.6,11.1-6.2,22.6-7.6,34.2c-0.6,5.6-1.1,9.2-2,16.6c-0.5,5.4-1.4,10.7-2.7,16
			c-1.5,5.1-3.7,10-6.3,14.6c-4.1,8-7.5,16.5-11.3,24.6c-9,19.1-22.8,48.4-26.3,84.7c-0.1,1.6-0.6,7.5-0.7,10c0,0.3,0,0.7,0,1.3
			c0.1,1.5,0.4,2.9,0.7,4.3c-0.9,2.7-56.6,3.6-69.1-25.9c-6.6-15.5,0.9-34.6,7.3-50.8c3.2-8.4,6.9-16.5,11.3-24.3
			c3.8-6,7.2-12.2,10.3-18.6c1.4-2.8,2.6-5.7,3.6-8.6c2.1-6.8,3-13.9,2.7-20.9c-0.1-2.9-0.3-5.8-0.7-8.6
			c-1.4-11.3-2.2-22.6-3.6-33.9c-5.8-44.4-11.1-84.7-0.3-128.6c3-14.3,8.2-28.1,15.3-40.9C279.3,490.8,317.3,463.4,329.9,471.5z"/>
	</g>
	<g>
		<defs>
			<circle id="SVGID_7_" cx="256" cy="256" r="245.7"/>
		</defs>
		<clipPath id="SVGID_8_">
			<use xlink:href="#SVGID_7_"  style="overflow:visible;"/>
		</clipPath>
		<path class="st3" d="M322.3,483.2c-5.1-5.1-14.2-5.5-32.2-6c-23.8-0.7-25.7,3.1-44.2,2c-21.8-1.3-29.4-7.2-35.9-1.7
			c-2.7,2.4-5.7,6.9-4.3,26.9c1.3,17.3,5,34.3,11,50.5c11.2,31.5,19.3,53.5,34.6,56.5c5.1,0.8,10.2,0.8,15.3,0
			c6.5-0.9,12.8-2.9,18.6-6"/>
	</g>
	<g>
		<defs>
			<circle id="SVGID_9_" cx="256" cy="256" r="245.7"/>
		</defs>
		<clipPath id="SVGID_10_">
			<use xlink:href="#SVGID_9_"  style="overflow:visible;"/>
		</clipPath>
		<path class="st4" d="M192,452.3c-5.5,4.7-9.4,7.2-10,8.3c-5.1,9.1-7.1,12.3-12.3,21.2c-23.7,40.1-35.6,86.1-34.2,132.6
			c0.4,11.8,2.4,23.4,6,46.5c7.1,43.5,15.6,72.7,18,78.8c1,2.7,1.9,5.5,2.7,8.3c0.8,2.7,1.3,5.5,1.7,8.3c0.4,4.5-0.1,9-1.3,13.3
			c-4.7,18.1-8.2,28-11,41.6c-0.7,3.2-1.3,6.4-1.7,9.6c-1,10.7,0.4,21.5,4,31.6c2.9,7.5,6.3,14.8,10,21.9c0.7,1.4,1.4,2.8,2,4.3
			c0.3,0.6,0.6,1.3,0.7,2c0.1,2.4-2.6,3.7-2.7,4.7c0,4.5,54.1,6,69.1,0.7c2.4-0.8,0.5-4-0.3-9.6c-0.3-2.2-0.5-13.8-1-36.9
			c-0.7-34.5,0-43.5-1.7-53.8c-0.6-3.2-0.9-6.4-1-9.6c-0.2-5.5,0.3-10.9,1.3-16.3c2.1-9.7,5.3-19.2,9.4-28.2
			c5.4-12.6,7.6-22.1,12-40.9c4-17.7,6.4-35.7,7.3-53.8c1.1-12.1,0.9-24.2-0.7-36.2c-0.7-6.7-2.3-13.3-4.7-19.6"/>
	</g>
	<g>
		<defs>
			<circle id="SVGID_11_" cx="256" cy="256" r="245.7"/>
		</defs>
		<clipPath id="SVGID_12_">
			<use xlink:href="#SVGID_11_"  style="overflow:visible;"/>
		</clipPath>
		<path class="st5" d="M318,488.2c4.5-0.7,8.9-2.2,12.9-4.4c1.6-0.8,2.9-1.9,4-3.3c1.1-1.9,1.5-4.2,1-6.3
			c-0.9-8.7-1.5-14.6-4.7-15.6c-2.7-0.8-6,2.4-7.1,3.3c-11.5,10.6-50.8,12.7-83.8,3c-4.6-1.3-48.8-14.6-55.2-11.6
			c-1.6,0.8-3,1.8-4.3,3c-1.4,1.4-2.4,3.2-3.2,5c-0.9,1.7-1.2,3.7-1,5.6c0.2,0.9,0.5,1.8,1,2.7c3,5.1,14,9.3,24.2,12.1"/>
	</g>
	<g>
		<defs>
			<circle id="SVGID_13_" cx="256" cy="256" r="245.7"/>
		</defs>
		<clipPath id="SVGID_14_">
			<use xlink:href="#SVGID_13_"  style="overflow:visible;"/>
		</clipPath>
		<path class="st6" d="M249.7,490.6c1.9,0.2,3,0.4,4.5,0.5c13.5,1,27,1.1,40.5,0.3c5.4-0.1,10.7-0.6,16-1.6"/>
	</g>
	<g>
		<defs>
			<circle id="SVGID_15_" cx="256" cy="256" r="245.7"/>
		</defs>
		<clipPath id="SVGID_16_">
			<use xlink:href="#SVGID_15_"  style="overflow:visible;"/>
		</clipPath>
		<path class="st7" d="M208.9,483.5c7.1,1.7,12.7,2.7,12.7,2.7l16.5,2.8l3.5,0.6"/>
	</g>
	<g>
		<defs>
			<circle id="SVGID_17_" cx="256" cy="256" r="245.7"/>
		</defs>
		<clipPath id="SVGID_18_">
			<use xlink:href="#SVGID_17_"  style="overflow:visible;"/>
		</clipPath>
		<path class="st8" d="M250.5,465.2c-1.9,2.1-3.4,4.5-4.7,7.1c-1.4,2.8-2.4,5.9-3,9c-0.8,4.3-0.8,8.7,0,13"/>
	</g>
	<g>
		<defs>
			<circle id="SVGID_19_" cx="256" cy="256" r="245.7"/>
		</defs>
		<clipPath id="SVGID_20_">
			<use xlink:href="#SVGID_19_"  style="overflow:visible;"/>
		</clipPath>
		<path class="st9" d="M257.5,466.5c-1.5,2.3-2.8,4.8-4,7.3c-1.5,3-2.6,6.1-3.3,9.4c-0.7,3.6-0.8,7.3-0.3,11"/>
	</g>
	<g>
		<defs>
			<circle id="SVGID_21_" cx="256" cy="256" r="245.7"/>
		</defs>
		<clipPath id="SVGID_22_">
			<use xlink:href="#SVGID_21_"  style="overflow:visible;"/>
		</clipPath>
		<path class="st10" d="M210.7,460.2c-2.4,2.3-4.3,5-5.6,8c-0.9,2.3-1.6,4.6-2,7.1c-0.6,2.7-0.9,5.5-1,8.3"/>
	</g>
	<g>
		<defs>
			<circle id="SVGID_23_" cx="256" cy="256" r="245.7"/>
		</defs>
		<clipPath id="SVGID_24_">
			<use xlink:href="#SVGID_23_"  style="overflow:visible;"/>
		</clipPath>
		<path class="st11" d="M217.9,462.2c-2.1,1.7-3.9,3.7-5.3,6c-1.1,1.9-2,3.9-2.7,6c-0.9,2.6-1.5,5.3-1.7,8c-0.1,1.2-0.1,2.4,0,3.6"
			/>
	</g>
	<g>
		<defs>
			<circle id="SVGID_25_" cx="256" cy="256" r="245.7"/>
		</defs>
		<clipPath id="SVGID_26_">
			<use xlink:href="#SVGID_25_"  style="overflow:visible;"/>
		</clipPath>
		<path class="st12" d="M306.4,466.5c1.3,1.3,2.4,2.7,3.3,4.3c1.1,1.9,1.9,3.9,2.4,6c0.4,2.4,0.4,4.9,0,7.3c-0.3,2.7-0.7,5.4-1.3,8"
			/>
	</g>
	<g>
		<defs>
			<circle id="SVGID_27_" cx="256" cy="256" r="245.7"/>
		</defs>
		<clipPath id="SVGID_28_">
			<use xlink:href="#SVGID_27_"  style="overflow:visible;"/>
		</clipPath>
		<path class="st13" d="M312.7,464.6c1.5,1.3,2.7,2.9,3.6,4.7c1.3,2.7,2,5.6,2,8.6c0.2,2.9,0.1,5.8-0.3,8.6c-0.2,1.6-0.4,3-0.7,4"/>
	</g>
	<g>
		<defs>
			<circle id="SVGID_29_" cx="256" cy="256" r="245.7"/>
		</defs>
		<clipPath id="SVGID_30_">
			<use xlink:href="#SVGID_29_"  style="overflow:visible;"/>
		</clipPath>
		<path class="st14" d="M271.9,472.2c0.2,2.7,0.5,5.3,1,8c0.7,2.6,0.9,5.3,0.7,8c-0.1,0.7-0.2,1.3-0.3,2"/>
	</g>
	<g>
		<defs>
			<circle id="SVGID_31_" cx="256" cy="256" r="245.7"/>
		</defs>
		<clipPath id="SVGID_32_">
			<use xlink:href="#SVGID_31_"  style="overflow:visible;"/>
		</clipPath>
		<path class="st15" d="M274.2,493.8c0.6,3.6,1.3,8.5,2,14.3c0.8,7.1,1.9,15.3,2.4,26.3c0.5,11.8,0.2,21.2,0,26.3
			c0,2.8-0.2,5.2-0.3,7.1"/>
	</g>
	<g>
		<defs>
			<circle id="SVGID_33_" cx="256" cy="256" r="245.7"/>
		</defs>
		<clipPath id="SVGID_34_">
			<use xlink:href="#SVGID_33_"  style="overflow:visible;"/>
		</clipPath>
		<path class="st16" d="M298.4,493.8c1,8.3,1.5,16.6,1.3,24.9c-0.1,5.5-0.5,10.9-1.3,16.3c-0.4,3.9-1.3,7.6-2.7,11.3
			c-1.5,3.9-3.7,7.4-6.3,10.6"/>
	</g>
	<g>
		<defs>
			<circle id="SVGID_35_" cx="256" cy="256" r="245.7"/>
		</defs>
		<clipPath id="SVGID_36_">
			<use xlink:href="#SVGID_35_"  style="overflow:visible;"/>
		</clipPath>
		<path class="st17" d="M278.8,478.8c-0.1,1.4,0.2,2.8,1,4c2.2,3.2,6.5,4.1,9.8,2c0.4-0.3,0.8-0.6,1.2-1c1.8-2.4,1.8-5.6,0-8
			s-4.9-3.3-7.6-2.4C280.8,474.3,279.1,476.4,278.8,478.8z"/>
	</g>
	<g>
		<defs>
			<circle id="SVGID_37_" cx="256" cy="256" r="245.7"/>
		</defs>
		<clipPath id="SVGID_38_">
			<use xlink:href="#SVGID_37_"  style="overflow:visible;"/>
		</clipPath>
		<path class="st18" d="M219.6,486.5c-1.8,3.7-4,7.1-6.7,10.3c-2.6,3.8-6.2,6.9-10.3,9c-3.2,1.3-6.6,1.9-10,2
			c-3.8,0.3-7.6,0.2-11.3-0.3c-2.4-0.3-4.7-0.7-7.1-1.3"/>
	</g>
	<g>
		<defs>
			<circle id="SVGID_39_" cx="256" cy="256" r="245.7"/>
		</defs>
		<clipPath id="SVGID_40_">
			<use xlink:href="#SVGID_39_"  style="overflow:visible;"/>
		</clipPath>
		<path class="st19" d="M241.3,490.5c-0.8,3.4-2,8.3-3.6,14.3c-2.2,8.4-5,16.7-8.6,24.6c-3.6,7.7-5.6,11.8-10,16
			c-3.9,3.7-8.5,6.6-13.6,8.3c-5.7,1.7-11.7,2-17.6,1c-8.9-1-17.5-3.3-25.6-7.1"/>
	</g>
	<g>
		<defs>
			<circle id="SVGID_41_" cx="256" cy="256" r="245.7"/>
		</defs>
		<clipPath id="SVGID_42_">
			<use xlink:href="#SVGID_41_"  style="overflow:visible;"/>
		</clipPath>
		<path class="st20" d="M317.8,489.3c1.6,6.4,1.8,12.1,2.5,15.8c0.1,0.8,3.9,21.2,6.3,32.2c0.4,2.1,1.1,4.1,2,6
			c1.2,2.9,3,5.5,5.3,7.6c2.9,2.3,6.6,3.6,10.3,3.6"/>
	</g>
	<g>
		<defs>
			<circle id="SVGID_43_" cx="256" cy="256" r="245.7"/>
		</defs>
		<clipPath id="SVGID_44_">
			<use xlink:href="#SVGID_43_"  style="overflow:visible;"/>
		</clipPath>
		<path class="st21" d="M196.6,451.8c-1.4,1.7-2.8,3.5-4,5.3c-1.8,2.5-3.2,5.2-4.3,8c-1.1,2.9-1.8,5.9-2,9"/>
	</g>
	<g>
		<defs>
			<circle id="SVGID_45_" cx="256" cy="256" r="245.7"/>
		</defs>
		<clipPath id="SVGID_46_">
			<use xlink:href="#SVGID_45_"  style="overflow:visible;"/>
		</clipPath>
		<path class="st22" d="M185.1,477.2c-8.3,18.5-15.3,37.5-21.2,56.8c-2,6.8-5.4,18.5-8.6,33.2c-2.6,10.9-4.5,22-5.6,33.2
			c-0.8,8.8-1,17.7-0.7,26.6c1,20,4.1,39.8,9.4,59.2c1.3,5.2,3.3,12.4,5.6,23.5c3.3,15.7,3.7,21.3,3.3,26.6
			c-0.2,2.2-0.8,8.2-1.3,13.3c-0.4,3.6-1.6,7.8-1.8,9.8"/>
	</g>
	<g>
		<defs>
			<circle id="SVGID_47_" cx="256" cy="256" r="245.7"/>
		</defs>
		<clipPath id="SVGID_48_">
			<use xlink:href="#SVGID_47_"  style="overflow:visible;"/>
		</clipPath>
		<path class="st23" d="M183.1,760.7c1.1,3.4,3.2,6.4,6,8.6c3.6,2.7,8.1,4,12.6,3.6c9.6-0.6,15.4-9.4,18-13c2-3,3.6-6.2,4.7-9.6"/>
	</g>
	<g>
		<defs>
			<circle id="SVGID_49_" cx="256" cy="256" r="245.7"/>
		</defs>
		<clipPath id="SVGID_50_">
			<use xlink:href="#SVGID_49_"  style="overflow:visible;"/>
		</clipPath>
		<path class="st24" d="M232.1,861.2c1.2-4.6,4-13.4,6.1-21.4c4.9-18.8,7.4-28.1,10.3-37.2c4.7-14.8,7.1-22.1,11.3-30.9
			c2-4,5-9.8,8.6-18.9c2.1-4.6,3.7-9.4,5-14.3c1.4-7.4,1.9-15,1.3-22.6c-0.2-5.8-0.6-10.1-1.7-18.9c-2.9-25.6-3.3-24.8-4-33.6
			c-0.7-9.4-0.8-16.9-1-28.6c0-7.8,0-14.4,0-19.3"/>
	</g>
	<g>
		<defs>
			<circle id="SVGID_51_" cx="256" cy="256" r="245.7"/>
		</defs>
		<clipPath id="SVGID_52_">
			<use xlink:href="#SVGID_51_"  style="overflow:visible;"/>
		</clipPath>
		<path class="st25" d="M286,615.4c-2.9,1.5-6.1,2.5-9.4,3c-3.9,0.8-7.9,0.6-11.6-0.7c-2.4-0.9-4-2-4.3-1.7
			c-0.3,0.4,1.7,2.8,3.3,4.3c3,2.7,6.7,4.6,10.6,5.6"/>
	</g>
	<g>
		<defs>
			<circle id="SVGID_53_" cx="256" cy="256" r="245.7"/>
		</defs>
		<clipPath id="SVGID_54_">
			<use xlink:href="#SVGID_53_"  style="overflow:visible;"/>
		</clipPath>
		<path class="st26" d="M292.7,752c1.1,2.2,2.6,4.2,4.3,6c2.1,2.4,4.9,4.3,8,5.3c1.2,0.4,2.4,0.6,3.6,0.7"/>
	</g>
	<g>
		<defs>
			<circle id="SVGID_55_" cx="256" cy="256" r="245.7"/>
		</defs>
		<clipPath id="SVGID_56_">
			<use xlink:href="#SVGID_55_"  style="overflow:visible;"/>
		</clipPath>
		<path class="st27" d="M206.2,260c-1.5,3.2-2,6.8-1.7,10.3c0.5,16.5,14.6,27.2,20.3,31.6c9.4,7.1,20.2,15.5,33.6,12.3
			c12.7-3.1,20.7-14.9,23.3-25.3c0.4-1.7,3.6-15.6-4-26.9C262.5,239.6,215.1,242.7,206.2,260z"/>
	</g>
	<g>
		<defs>
			<circle id="SVGID_57_" cx="256" cy="256" r="245.7"/>
		</defs>
		<clipPath id="SVGID_58_">
			<use xlink:href="#SVGID_57_"  style="overflow:visible;"/>
		</clipPath>
		<path class="st28" d="M293.1,277.1c1.9-0.7,5.8,0.6,10.3,2c4.6,1.5,9,3.6,13,6.3c4.5,3.1,7.6,6.6,16.3,20
			c8.7,13.3,9,15.1,14.6,23.3c4.5,6.5,8,10.8,14,18c17.9,21.6,22.3,22.8,25.3,31.9c0.6,2,5.2,16-1.3,26.6
			c-8.7,14.1-33.9,16.9-50.2,11.3C283.1,398.5,280.4,281.6,293.1,277.1z"/>
	</g>
	<g>
		<defs>
			<circle id="SVGID_59_" cx="256" cy="256" r="245.7"/>
		</defs>
		<clipPath id="SVGID_60_">
			<use xlink:href="#SVGID_59_"  style="overflow:visible;"/>
		</clipPath>
		<path class="st29" d="M353.2,356.2c0-1.9,2.4-8.1,7.3-20.6c3.5-8.9,4-9.8,7.6-19.3c3.8-9.9,5.6-14.9,6-16.3
			c0.8-3.2,0.8-4.8,2.4-6.7c3.9-4,9.8-5.3,15-3.3s7.4,7.1,9.6,12.3c2.9,7.1,2.4,10.2,4.3,25.6c0.3,2.4,1.2,8.1,3,19.6
			c2.1,13.3,2.4,15.4,2,19.3c-0.5,4.3-1.5,12.5-7.6,17.6c-9.4,7.9-23.8,2.8-25.9,2C363.6,381.8,353,368.7,353.2,356.2z"/>
	</g>
	<g>
		<defs>
			<circle id="SVGID_61_" cx="256" cy="256" r="245.7"/>
		</defs>
		<clipPath id="SVGID_62_">
			<use xlink:href="#SVGID_61_"  style="overflow:visible;"/>
		</clipPath>
		<path class="st30" d="M334.9,371.8c-8.2,8-12.7,22.8-8.3,33.9c2.4,5.7,6.3,9,13.3,14.6c5.1,4.5,11.1,7.9,17.6,10
			c5.7,1.9,11.7,2.3,17.6,1.3c6.7-1.4,12.9-4.7,18-9.4c4.6-3.9,8.4-8.6,11.3-14c2.6-5.2,4.4-10.8,5.3-16.6c1.8-7.4,2.4-15,1.7-22.6
			c-0.6-4.7-1.7-9.4-2.4-9.4c-0.6,0,0,3.7-1,8c-1.5,5.1-4.6,9.6-9,12.6c-5.2,3.3-11.5,4.5-17.6,3.3c-8.7-1.5-16.2-6.9-20.3-14.6
			c-4.4-8.6-2.1-17.1-4.7-17.6c-1.6-0.3-3.1,3.1-6.3,7.3"/>
	</g>
	<g>
		<defs>
			<circle id="SVGID_63_" cx="256" cy="256" r="245.7"/>
		</defs>
		<clipPath id="SVGID_64_">
			<use xlink:href="#SVGID_63_"  style="overflow:visible;"/>
		</clipPath>
		<path class="st31" d="M357.9,339.2c0.7,0.2-0.6,3.4,0,9.4c0.8,8,4.3,15.5,10,21.2c2.9,3.1,6.6,5.4,10.6,6.7
			c12.3,3.8,25.4-3.1,29.2-15.5c0-0.1,0-0.1,0-0.2c2.2-6.8,0.6-12.5,1.3-12.6s2.7,5.9,3,13c0.7,6-0.3,12.2-3,17.6
			c-3.2,5.8-8.4,10.3-14.6,12.6c-5.8,2-12.1,2.1-18,0.3c-7.7-1.9-14.5-6.3-19.3-12.6c-3.4-4.6-5.6-10-6.3-15.6
			C349.3,350.2,356.6,338.9,357.9,339.2z"/>
	</g>
	<g>
		<defs>
			<circle id="SVGID_65_" cx="256" cy="256" r="245.7"/>
		</defs>
		<clipPath id="SVGID_66_">
			<use xlink:href="#SVGID_65_"  style="overflow:visible;"/>
		</clipPath>
		<path class="st32" d="M376.2,301c-2.5-2-0.9-7.9,0-11.3c1.3-4.4,3.6-8.5,6.7-12c3.8-4.7,4.8-4.1,8.3-8.6c2.6-3.6,4.8-7.5,6.7-11.6
			c3.1-6.1,3.3-7.6,5.6-10.3c1.9-2.7,4.8-4.6,8-5.3c2.2-0.3,4.3,0,6.3,1c2.3,1.2,4.1,3.1,5.3,5.3c2.1,3.2,3.1,6.9,3,10.6
			c-0.3,3.9-1.7,7.6-4,10.6c-2.4,3.6-4.4,4.7-10.3,10s-5.9,5.7-9.4,8.6C395.4,294.2,380.5,304.6,376.2,301z"/>
	</g>
	<g>
		<defs>
			<circle id="SVGID_67_" cx="256" cy="256" r="245.7"/>
		</defs>
		<clipPath id="SVGID_68_">
			<use xlink:href="#SVGID_67_"  style="overflow:visible;"/>
		</clipPath>
		<path class="st33" d="M379.8,315.4c1.2,3.1,3.3,5.7,6,7.6c3.4,2.2,7.3,3.2,11.3,3c3.2,0,3.3-0.6,13.3-2.4c3.3-0.6,5.6-1,8.6-1.3
			c1.6-0.2,5.1-0.5,10.3-0.7c5.2-0.1,9,0,16.9,0.3c7.1,0.3,9.8,0.5,13-1.3c2-1,3.7-2.7,4.7-4.7c1.2-3.1,1.2-6.5,0-9.6
			c-1-3.8-2.8-7.3-5.3-10.3c-5.3-6.3-12-11.2-19.6-14.3c-6.3-3.2-13.2-5.1-20.3-5.3c-4.3-0.1-8.5,0.5-12.6,1.7
			c-8,2.5-15,7.5-20,14.3C383.5,296.1,376.3,305.9,379.8,315.4z"/>
	</g>
	<g>
		<defs>
			<circle id="SVGID_69_" cx="256" cy="256" r="245.7"/>
		</defs>
		<clipPath id="SVGID_70_">
			<use xlink:href="#SVGID_69_"  style="overflow:visible;"/>
		</clipPath>
		<path class="st34" d="M158.5,284.1c2.9-3.1,5.4-1.6,18-6c5.3-1.9,10.4-4.3,15.3-7.1c3.6-1.7,6.8-4.1,9.4-7.1
			c3.1-3.8,3.1-6.5,4.7-6.7c2.8-0.2,3.4,8.5,10.3,16.6c4.2,4.6,9.3,8.3,15,11c6.8,3.6,8.2,2.7,13.3,6.3c4.3,2.7,7.9,6.5,10.3,11
			c1.5,3,2.7,6.2,3.6,9.4c1.2-2.3,2.1-4.8,2.7-7.3c0.5-3,1.2-6,2-9c1-2.8,2.5-5.3,4.3-7.6c1.4-1.7,3-3.3,4.7-4.7
			c3.6-3.1,4.3-2.7,5-4c2.4-4.2-3.8-9.7-2-12s12.1,1.9,15.3,3.3c4.3,1.9,3.3,2.2,10.6,6c2.3,1.1,4.4,2.6,6.3,4.3
			c1,0.9,1.8,1.9,2.7,3c8.8,11.6,15,29.9,15,29.9c3.7,11,5.9,19.8,6.7,22.9c2.9,12.2,6.3,26.7,5.3,41.2c-0.3,4.3-0.9,8.7-1.7,13
			c-1.3,6.6-2.1,7.6-3,12.3c-1.1,6.5-1.1,13.1,0,19.6c0.8,6.3,2.4,12.4,4.7,18.3c1.4,3.5,4.5,5.2,4.3,8.6c-0.4,2.6-1.5,5.1-3.3,7.1
			c-1.5,2-3.3,3.8-5.3,5.3c-5,3.4-10.7,5.5-16.6,6.3c-11.7,1.8-23.5,2.8-35.3,3c-8.7,0-16.7-0.7-32.6-2c-10.7-0.8-16.2-1.3-22.6-2.4
			c-7.4-1.2-13.7-2.8-26.3-6c-5-1-9.8-2.7-14.3-5c-3.7-2-7.2-4.5-10.3-7.3c-13.2-12.3-8.6-49.4-8.6-49.4
			c-0.6-52.4-4.1-79.3-8.3-94.1C156.5,301.4,153,289.9,158.5,284.1z"/>
	</g>
	<g>
		<defs>
			<circle id="SVGID_71_" cx="256" cy="256" r="245.7"/>
		</defs>
		<clipPath id="SVGID_72_">
			<use xlink:href="#SVGID_71_"  style="overflow:visible;"/>
		</clipPath>
		<path class="st35" d="M258.2,311.7c0.5,1.5,2.9,7.8,4,10.6c2,5.2,4.4,10.4,7.1,15.3c5.9,11.5,10,23.8,12.3,36.6
			c1.7,10.3,3.1,17.7,0.7,26.6c-1.2,3.6-2.2,7.3-3,11c-1,5.3-1.5,10.6-1.7,16c-0.8,14.5,0.1,20.9,0.7,23.5c0.3,2.8,1.1,5.5,2.4,8
			c0.9,1,1.4,2.3,1.7,3.6c0.1,1.3-0.1,2.5-0.7,3.6c-1.2,2-3,3.6-5,4.7"/>
	</g>
	<g>
		<defs>
			<circle id="SVGID_73_" cx="256" cy="256" r="245.7"/>
		</defs>
		<clipPath id="SVGID_74_">
			<use xlink:href="#SVGID_73_"  style="overflow:visible;"/>
		</clipPath>
		<path class="st36" d="M174.1,284.4c-4.6-2.7-10.1-3.5-15.3-2c-2.9,0.8-6,2.5-11.3,8.3c-6.9,7.6-12.4,16.4-16.3,25.9
			c-1.1,2.5-3.2,8.7-7.3,20.9c-3.9,11.6-4.5,13.9-6.7,18.6c-2.9,6.1-6.2,12-10,17.6c-11.1,17.6-12.9,17.4-16.3,25.3
			c-3.2,7.4-4.9,15.4-5,23.5c0,7.2-0.2,21,9.4,31.2c1.8,2,7.8,8.4,16.3,9.6c24.8,3.6,50.2-39.1,64.5-63.2c3.2-5.3,5.9-10.8,8-16.6
			c3.1-8.7,5-17.7,5.6-26.9"/>
	</g>
	<g>
		<defs>
			<circle id="SVGID_75_" cx="256" cy="256" r="245.7"/>
		</defs>
		<clipPath id="SVGID_76_">
			<use xlink:href="#SVGID_75_"  style="overflow:visible;"/>
		</clipPath>
		<path class="st37" d="M154.8,398.1c4.5-2.2,10.1-2.4,15-2.4s5.5,0.5,13.3,0.7c4.2,0.3,8.5,0.1,12.6-0.7c5.3-1.3,6-2.9,10.3-3.3
			c3.6-0.2,7.1,0.4,10.3,2c10.1,4.5,13.8,14.6,15,18c1.5,3.7,2,7.7,1.3,11.6c-0.5,2.2-1.4,4.2-2.7,6c-1.7,2.2-4,3.9-6.7,5
			c-10.9,4.7-16.5,7.2-18.6,8c-16.5,5.5-13.6,5.4-22.6,8c-6.9,2-13.9,3.5-20.9,4.7c-8.4,1.5-9.4,1.3-10.3,1
			c-8.9-3.3-10.7-21.5-9-33.6C142.7,417.4,144.8,403,154.8,398.1z"/>
	</g>
	<g>
		<defs>
			<circle id="SVGID_77_" cx="256" cy="256" r="245.7"/>
		</defs>
		<clipPath id="SVGID_78_">
			<use xlink:href="#SVGID_77_"  style="overflow:visible;"/>
		</clipPath>
		<path class="st38" d="M200,399.1c-1.1-1.3,0-3,2-10.6c2.9-11.6,1.3-12.7,4-20c1.8-5,3.6-10,8.6-14c4.1-3.2,9.1-5,14.3-5.3
			c4.6-0.4,9.3,0.3,13.6,2c5.5,2.4,10.2,6.3,13.6,11.3c3.8,5.1,6.4,11,7.6,17.3c1.3,5.4,1.3,10.9,0,16.3c-0.5,3.3-2,6.3-4.3,8.6
			c-2.8,2.4-6.3,3.7-10,3.6c-3.6-0.1-7.2-1.1-10.3-3c-7.8-4-7.9-6.9-12.3-9C216.1,391.4,203.4,403.1,200,399.1z"/>
	</g>
	<g>
		<defs>
			<circle id="SVGID_79_" cx="256" cy="256" r="245.7"/>
		</defs>
		<clipPath id="SVGID_80_">
			<use xlink:href="#SVGID_79_"  style="overflow:visible;"/>
		</clipPath>
		<path class="st39" d="M232.9,383.8c2.5,1,3.6,3.9,5.6,9.4c2,5.4,2.7,11.2,2,16.9c-0.5,4.3-1.8,8.5-4,12.3
			c-2.6,4.4-6.2,8.1-10.6,10.6c-3,1.7-4.5,2.5-6.3,2.4c-6.7-0.6-13-13.6-12-24.9C209.2,394.3,225.8,381,232.9,383.8z"/>
	</g>
	<g>
		<defs>
			<circle id="SVGID_81_" cx="256" cy="256" r="245.7"/>
		</defs>
		<clipPath id="SVGID_82_">
			<use xlink:href="#SVGID_81_"  style="overflow:visible;"/>
		</clipPath>
		<path class="st40" d="M113.6,398.1c10.7-8.4,25.5-12.4,37.2-10c6.4,1.3,10.4,4.2,20.9,5.3c1.9,0.2,4.9,0.4,5,1.3
			c0.2,1.5-8.6,1.7-15.6,7.6c-6,5.1-8,12-9.4,16.6c-1.6,4.5-2.1,9.3-1.3,14c1,4.4,3,8.5,6,12c1.9,2.8,4.4,5,7.3,6.7
			c4,2,7.5,1.6,7.6,2.7s-2.8,2.1-6,3.3c-9.4,3.6-14.1,5.3-15.3,5.6c-5.9,1.5-11.9,2.4-18,2.7c-8.4,0.4-13,0.7-18.6-1
			c-3.2-0.9-15.1-6.1-20.8-13.8"/>
	</g>
	<g>
		<defs>
			<circle id="SVGID_83_" cx="256" cy="256" r="245.7"/>
		</defs>
		<clipPath id="SVGID_84_">
			<use xlink:href="#SVGID_83_"  style="overflow:visible;"/>
		</clipPath>
		<path class="st41" d="M182.2,395.9c0,0.7-4.7-0.6-10.1,2.2c-5,2.8-9,6.9-11.6,12c-3.2,5.4-4.9,11.6-5,18c-0.3,4.9,0.9,9.7,3.3,14
			c1.8,2.9,4.2,5.3,7.1,7.1c3.7,2.5,7.9,4,12.3,4.3c1.5-0.2-0.8,0.7-4.3,1.7c-2.8,0.9-5.7,1.5-8.6,2c-6.6,0.4-12.5-5.5-14.3-7.3
			c-9-9.1-8.8-21.7-8.6-24.9c0.3-7.7,3.3-15.1,8.3-20.9c3.4-3.9,7.8-6.8,12.6-8.6C172.6,391.8,182.2,394.9,182.2,395.9z"/>
	</g>
	<g>
		<defs>
			<circle id="SVGID_85_" cx="256" cy="256" r="245.7"/>
		</defs>
		<clipPath id="SVGID_86_">
			<use xlink:href="#SVGID_85_"  style="overflow:visible;"/>
		</clipPath>
		<path class="st42" d="M117.6,388.8c3.9-1.8,8.1-3.2,12.3-4c4.7-1.1,9.5-1.4,14.3-0.7c4.9,0.8,16.5,3.8,21.2,8.1"/>
	</g>
	<g>
		<defs>
			<circle id="SVGID_87_" cx="256" cy="256" r="245.7"/>
		</defs>
		<clipPath id="SVGID_88_">
			<use xlink:href="#SVGID_87_"  style="overflow:visible;"/>
		</clipPath>
		<path class="st43" d="M350.6,357.5c-4.8,8.1-7.1,17.5-6.7,26.9c0,3,0.5,6.1,1.3,9c1,3.4,2.6,6.6,4.7,9.4"/>
	</g>
	<g>
		<defs>
			<circle id="SVGID_89_" cx="256" cy="256" r="245.7"/>
		</defs>
		<clipPath id="SVGID_90_">
			<use xlink:href="#SVGID_89_"  style="overflow:visible;"/>
		</clipPath>
		<path class="st44" d="M345.6,366.2c-1.1,0.6-2.1,1.4-3,2.4c-1.2,1.4-2.1,3-2.7,4.7c-0.7,1.7-1.3,3.5-1.7,5.3"/>
	</g>
	<g>
		<defs>
			<circle id="SVGID_91_" cx="256" cy="256" r="245.7"/>
		</defs>
		<clipPath id="SVGID_92_">
			<use xlink:href="#SVGID_91_"  style="overflow:visible;"/>
		</clipPath>
		<path class="st45" d="M211,450.3c8.6,3.5,17.5,6.3,26.6,8.3c10.2,2.2,20.5,3.4,30.9,3.6c8.9,0.4,17.7,0.1,26.6-0.7"/>
	</g>
	<g>
		<defs>
			<circle id="SVGID_93_" cx="256" cy="256" r="245.7"/>
		</defs>
		<clipPath id="SVGID_94_">
			<use xlink:href="#SVGID_93_"  style="overflow:visible;"/>
		</clipPath>
		<path class="st46" d="M271.5,455.6c3.6,0.4,7.3,0.7,11,0.7c5.7,0.2,11.4-0.4,16.9-1.7c6.8-1.7,13.3-4.8,18.9-9"/>
	</g>
	<g>
		<defs>
			<circle id="SVGID_95_" cx="256" cy="256" r="245.7"/>
		</defs>
		<clipPath id="SVGID_96_">
			<use xlink:href="#SVGID_95_"  style="overflow:visible;"/>
		</clipPath>
		<path class="st47" d="M225.9,300.4c5.3,4.1,10.2,7.6,14.3,10.3c0.9,0.6,5.4,2.8,14.3,7.3c1.4,0.8,3.1,1.1,4.7,1
			c2.3-0.5,4.3-1.8,5.6-3.6c4.1-5.2,7.1-11.2,9-17.6c1.4-5,2.4-10.1,3-15.3"/>
	</g>
	<g>
		<defs>
			<circle id="SVGID_97_" cx="256" cy="256" r="245.7"/>
		</defs>
		<clipPath id="SVGID_98_">
			<use xlink:href="#SVGID_97_"  style="overflow:visible;"/>
		</clipPath>
		<path class="st48" d="M201,258.9c-2,2.4-1.7,6-1.3,10.3c0.4,4.1,1.6,8.2,3.3,12c2.7,6.3,6.1,12.2,10.3,17.6c3.1,4,6.5,7.7,10.3,11
			c1.8,1.6,5.9,5.3,6.7,4.7c0.4-0.3-1.5-16.5,2.4-20.6s6.7-4.3,9.6-3.6c-0.1-0.7-7.1-3.8-12-9c-6.2-6.4-1.9-14.1-7.3-20.3
			C217.5,254.8,205,254,201,258.9z"/>
	</g>
	<g>
		<defs>
			<circle id="SVGID_99_" cx="256" cy="256" r="245.7"/>
		</defs>
		<clipPath id="SVGID_100_">
			<use xlink:href="#SVGID_99_"  style="overflow:visible;"/>
		</clipPath>
		<path class="st49" d="M268.8,285.7c1.3-1.5,3.4-2,5.3-1.3c4.4,1.7,6.8,8.6,6.3,14c-0.4,2.7-1.3,5.3-2.7,7.6c2.1-2.4,3.8-5.1,5-8
			c3-5.9,4.5-12.4,4.3-18.9c-0.1-2.7-0.6-5.4-1.3-8c-1.1-3.9-1.6-5.8-3.3-7.3c-2.8-2.4-7.7-3-9.6-1c-1.5,1.7-0.9,4.9,0,9.6
			c0.5,2.8,1,3.4,0.7,5C272.8,280.5,269.5,284.4,268.8,285.7z"/>
	</g>
	<g>
		<defs>
			<circle id="SVGID_101_" cx="256" cy="256" r="245.7"/>
		</defs>
		<clipPath id="SVGID_102_">
			<use xlink:href="#SVGID_101_"  style="overflow:visible;"/>
		</clipPath>
		<path class="st50" d="M254.2,323.3c0.5-1.2,1.3-2.2,2.4-3c2-1.6,4.6-2.1,7.1-1.3c3.1,1,4.8,4.3,3.8,7.5c-0.1,0.2-0.1,0.4-0.2,0.5
			c-1,2.4-3.1,4-5.6,4.3c-1.6,0.2-3.3-0.2-4.7-1c-1.5-0.6-2.7-1.8-3.3-3.3C253.3,325.7,253.5,324.4,254.2,323.3z"/>
	</g>
	<g>
		<defs>
			<circle id="SVGID_103_" cx="256" cy="256" r="245.7"/>
		</defs>
		<clipPath id="SVGID_104_">
			<use xlink:href="#SVGID_103_"  style="overflow:visible;"/>
		</clipPath>
		<path class="st51" d="M210.1,362.4c1.5-2.7,3.6-5.1,6-7.1c2.8-2.2,6-3.8,9.4-4.7c2.9-0.7,6-1,9-0.7c2.1,0.2,4,0.7,4,1
			s-2.2,0.2-5,1.3c-2,0.8-3.8,2-3.6,2.4s2-0.3,5.6-1c2-0.5,4-0.8,6-1c2.1,0,4.1,0.5,6,1.3c1.9,0.6,3.6,1.6,5,3c-2.5-1-5.2-1.7-8-2
			c-1.3,0-2.7,0.1-4,0.3c-1.3,0.3-3,0.8-3,1s2.4-0.2,5.6,0c2,0.1,4,0.4,6,1c2.3,0.6,4.5,1.7,6.3,3.3c1.5,1.5,2.8,3.3,3.6,5.3
			c1.4,2.3,2.5,4.8,3.3,7.3c1.2,3.5,1.7,7.3,1.3,11c0,2.4-0.7,4.7-2,6.7c-1.2,1.8-3.2,3-5.3,3.3c-0.4,0-3.3,0.3-4.3-1.3
			c-1-1.7,0.3-4.4,2-5.6c1.7-1.3,2.5-0.6,3.3-1.7c0.5-0.7,0.8-1.8-0.3-5.3c-1.4-4.4-2.1-6.7-4-8.3c-2.4-1.8-5.3-2.6-8.3-2.4
			c-5-0.3-10,1.3-14,4.3c-5.4,4.7-6.4,12.1-7.6,22.3c-0.8,6.7-0.2,8.4-2,12c-1.2,2.4-3.6,5.6-11.3,10c-10.8,6-14.3,4.2-30.6,10
			c-8.9,3.2-12.3,5.3-15,3.3c-3.5-2.6-2.4-10-1.3-13.6c1.5-4.1,4-7.8,7.3-10.6c2.6-3,5.9-5.3,9.6-6.7c3.1-1,3.9-0.2,12-0.3
			c10.7,0,12.4-1.4,13.3-2.4c1.6-1.7,1.6-3.9,1.7-8C207.1,369,208.7,365,210.1,362.4z"/>
	</g>
	<g>
		<defs>
			<circle id="SVGID_105_" cx="256" cy="256" r="245.7"/>
		</defs>
		<clipPath id="SVGID_106_">
			<use xlink:href="#SVGID_105_"  style="overflow:visible;"/>
		</clipPath>
		<path class="st52" d="M404.6,256c-0.6-2.6-0.3-5.2,0.7-7.6c1-2.6,3-4.7,5.6-5.6c2.7-0.5,5.4,0.1,7.6,1.7c3.7,2.1,7.9,6.8,7.3,12
			c-0.3,1.8-0.9,3.5-2,5c-1.3,2.3-3.2,4-5.6,5c-2.2,0.8-4.5,0.8-6.7,0C406,264.2,404.8,257.4,404.6,256z"/>
	</g>
	<g>
		<defs>
			<circle id="SVGID_107_" cx="256" cy="256" r="245.7"/>
		</defs>
		<clipPath id="SVGID_108_">
			<use xlink:href="#SVGID_107_"  style="overflow:visible;"/>
		</clipPath>
		<path class="st53" d="M381.3,283.9c1.4-2.5,3.2-4.8,5.3-6.7c1.7-2.1,3.9-3.8,6.3-5c2.7-1.1,5.7-1.4,8.6-1c3.5,0.5,6.8,1.7,9.6,3.6
			c3.6,2.2,5.4,3.2,5.6,5c0.4,3.4-5.3,7.1-10,8.6c-4.7,1.6-6.2,0-13,1c-8.7,1.3-12.5,5.1-14.3,3.3
			C377.9,291.1,380.8,284.9,381.3,283.9z"/>
	</g>
	<g>
		<defs>
			<circle id="SVGID_109_" cx="256" cy="256" r="245.7"/>
		</defs>
		<clipPath id="SVGID_110_">
			<use xlink:href="#SVGID_109_"  style="overflow:visible;"/>
		</clipPath>
		<path class="st54" d="M380,299.9c0.3-2.6,4.5-4.1,9.6-6c4.4-1.5,9-2.4,13.6-2.7c4-0.6,8.1-0.3,12,0.7c3.5,1.1,6.8,2.9,9.6,5.3
			c2.9,2.2,5.4,4.1,5,5.6c-0.4,1.6-2.4,1.8-8.3,2.7c-7.5,1-11.4,1.1-16.9,1.7c-9.4,0.9-9.9,1.7-13.3,1
			C385.8,307,379.6,303.2,380,299.9z"/>
	</g>
	<g>
		<defs>
			<circle id="SVGID_111_" cx="256" cy="256" r="245.7"/>
		</defs>
		<clipPath id="SVGID_112_">
			<use xlink:href="#SVGID_111_"  style="overflow:visible;"/>
		</clipPath>
		<path class="st55" d="M423.5,289.9c0-1,5.3-1.3,6.3-1.3c4-0.2,8.1,0.3,12,1.3c3.8,1,7.5,2.4,11,4.3c2.6,1.3,5,3,7.1,5
			c1,1,3.2,3.2,2.7,4.3c-0.3,0.6-1.3,0.6-2,0.7c-2.2,0-4.2-0.7-6-2c-3.1-1.7-6.4-3.3-9.6-4.7c-3.7-1.5-7.5-2.9-11.3-4
			C426.3,291.2,423.5,290.6,423.5,289.9z"/>
	</g>
	<g>
		<defs>
			<circle id="SVGID_113_" cx="256" cy="256" r="245.7"/>
		</defs>
		<clipPath id="SVGID_114_">
			<use xlink:href="#SVGID_113_"  style="overflow:visible;"/>
		</clipPath>
		<path class="st56" d="M424.2,280.9c0.2-0.4,0.9-1.5,5.6-1.3c3.4,0.1,6.8,0.8,10,2c3.3,1.2,6.5,2.9,9.4,5c1.9,1.3,3.6,2.8,5.3,4.3
			c2.2,1.9,4.6,4,4.3,4.3s-2.1-0.7-5.3-2.4s-6.9-3.3-9.4-4.3c-6-2.5-8.9-3.8-12-4c-3.5-0.2-6.4,0.4-7.6-1.3
			C424,282.5,423.9,281.7,424.2,280.9z"/>
	</g>
	<g>
		<defs>
			<circle id="SVGID_115_" cx="256" cy="256" r="245.7"/>
		</defs>
		<clipPath id="SVGID_116_">
			<use xlink:href="#SVGID_115_"  style="overflow:visible;"/>
		</clipPath>
		<path class="st57" d="M430.2,295.9c3.9,0.2,7.1,0.7,9.4,1c5.9,1.2,11.6,2.8,17.3,4.7c2.3,0.6,4.4,1.8,6,3.6c0.5,0.6,2.1,2.7,1.3,4
			c-0.3,0.4-1.1,1.2-4.7,0.7c-4.7-0.7-7.1-2.4-14-6c-4.4-2.4-5.3-2.5-10-5C433.3,297.7,431.5,296.7,430.2,295.9z"/>
	</g>
	<g>
		<defs>
			<circle id="SVGID_117_" cx="256" cy="256" r="245.7"/>
		</defs>
		<clipPath id="SVGID_118_">
			<use xlink:href="#SVGID_117_"  style="overflow:visible;"/>
		</clipPath>
		<path class="st58" d="M372.3,308.5c-1.3,0-2,3.6-5.6,14c-2.4,6.6-3.5,9.9-4.7,12.6c-1.2,2.3-2.1,4.8-2.7,7.3
			c-0.6,3.4-0.5,6.9,0.3,10.3c1.6,7.2,6.2,14.9,8.3,14.3c1.2-0.3,1-2.9,1.3-11.3c0.6-15.9,0.8-23.9,2-27.2c1.7-4.9,4.2-8.7,3.3-14.6
			C374.4,311.8,373.5,308.6,372.3,308.5z"/>
	</g>
	<g>
		<defs>
			<circle id="SVGID_119_" cx="256" cy="256" r="245.7"/>
		</defs>
		<clipPath id="SVGID_120_">
			<use xlink:href="#SVGID_119_"  style="overflow:visible;"/>
		</clipPath>
		<path class="st59" d="M167.8,882.2c2.5,0.5,5.9,1.2,10,1.7c7.2,0.9,14.4,1.2,21.6,1c7.4,0.1,14.8-0.7,21.9-2.5
			c3.2-0.8,5.9-1.2,7.6-1.8"/>
	</g>
	<g>
		<defs>
			<circle id="SVGID_121_" cx="256" cy="256" r="245.7"/>
		</defs>
		<clipPath id="SVGID_122_">
			<use xlink:href="#SVGID_121_"  style="overflow:visible;"/>
		</clipPath>
		<path class="st60" d="M234.2,875.4c3,2,6.3,3.7,9.6,5c4.5,1.7,9.2,2.8,14,3.3c6.8,0.9,13.8,0.9,20.6,0"/>
	</g>
	<g>
		<defs>
			<circle id="SVGID_123_" cx="256" cy="256" r="245.7"/>
		</defs>
		<clipPath id="SVGID_124_">
			<use xlink:href="#SVGID_123_"  style="overflow:visible;"/>
		</clipPath>
		<path class="st61" d="M156.6,918.9c0.4-3.6,2-6.9,4.3-9.6c3.3-3.8,8-6.1,13-6.3c5.3,0,10.4,2.3,14,6.3c2.9,2.8,4.7,6.4,5.3,10.3
			c0.7,4-0.3,8-2.7,11.3c-2.8,3.4-6.7,4.1-11.3,5c-6.3,1.2-11.8,2.2-16.6-1.3C155.4,929.5,156.4,919.4,156.6,918.9z"/>
	</g>
	<g>
		<defs>
			<circle id="SVGID_125_" cx="256" cy="256" r="245.7"/>
		</defs>
		<clipPath id="SVGID_126_">
			<use xlink:href="#SVGID_125_"  style="overflow:visible;"/>
		</clipPath>
		<path class="st62" d="M181.1,915.9c-1.2,4.1-0.8,8.6,1.3,12.3c1.8,3.2,4.6,5.6,8,7.1c3.4,1.3,7,1.8,10.6,1.7
			c6.5,0.3,9.7,0.4,12-0.7c5-2.5,7.6-8.6,7.6-14c-0.3-7.1-4.5-13.3-11-16.3C199.1,900.8,184.2,906.6,181.1,915.9z"/>
	</g>
	<g>
		<defs>
			<circle id="SVGID_127_" cx="256" cy="256" r="245.7"/>
		</defs>
		<clipPath id="SVGID_128_">
			<use xlink:href="#SVGID_127_"  style="overflow:visible;"/>
		</clipPath>
		<path class="st63" d="M208.3,930.8c2.4,3.2,7.1,4.7,9.4,5.3c3.5,0.8,7.1,1.1,10.6,1c9.9,0.3,11.9-0.5,13-1c2.4-1.2,4.5-3,6-5.3
			c2-3.7,2.6-7.9,1.7-12c-0.5-3.8-1.4-11-7.6-16c-4.5-3.4-10.1-4.8-15.6-4C211.3,901.7,202.7,923,208.3,930.8z"/>
	</g>
	<g>
		<defs>
			<circle id="SVGID_129_" cx="256" cy="256" r="245.7"/>
		</defs>
		<clipPath id="SVGID_130_">
			<use xlink:href="#SVGID_129_"  style="overflow:visible;"/>
		</clipPath>
		<path class="st64" d="M265.8,925.5c0.6,2.4,6.1,3.5,16.9,5.6c5.5,1.2,11,1.9,16.6,2.4c11.4,0.8,15-0.6,16.6-1.3c3-1,5.5-3,7.3-5.6
			c4.2-7.1-1-15.8-1.3-16.3c-1.9-3.1-4.7-5.5-8-7.1c-4-1.8-8.4-2.4-12.6-1.7c-2.9,0.3-8,1.3-18.6,8.3
			C272.5,916.7,264.8,921.7,265.8,925.5z"/>
	</g>
	<g>
		<defs>
			<circle id="SVGID_131_" cx="256" cy="256" r="245.7"/>
		</defs>
		<clipPath id="SVGID_132_">
			<use xlink:href="#SVGID_131_"  style="overflow:visible;"/>
		</clipPath>
		<path class="st65" d="M272.5,897.3c1.6-4.7,11.8-4.9,14.3-5c4.4-0.4,8.8,0.6,12.6,2.7c2.1,1.2,7.5,4.4,8.6,10.6
			c0.9,5.1-1.1,11.2-5.3,13.6c-9.6,5.5-24.8-11.3-25.6-12.3C274.5,904,271.4,900.4,272.5,897.3z"/>
	</g>
	<g>
		<defs>
			<circle id="SVGID_133_" cx="256" cy="256" r="245.7"/>
		</defs>
		<clipPath id="SVGID_134_">
			<use xlink:href="#SVGID_133_"  style="overflow:visible;"/>
		</clipPath>
		<path class="st66" d="M260.8,93c0.7-1.2,3.3,0,9-1.3c4-1.3,7.8-3.1,11.3-5.3c4.5-2.5,4.7-2.9,8.6-5c2.7-1.4,5.4-2.7,8.3-3.6
			c2.1-0.7,4.2-1.3,6.3-1.7c1.2-0.2,2.8-0.4,5.6-1c1.4-0.2,2.8-0.6,4-1.3c1.1-0.5,2-1.5,2.4-2.7c0.2-1.1-0.2-2.2-1-3
			c-1.4-1.2-3.6-0.6-3.6-0.7c1.6-0.6,3.3-0.8,5-0.3c2.4,0.5,4.5,2.1,5.6,4.3c0.5,1.1,0.7,2.4,0.7,3.6c0.1,0.9-0.1,1.9-0.7,2.7
			c-0.8,1-2,0.9-2,1.3s1,0.4,2.4,1c0.9,0.5,1.8,1,2.7,1.7c2.3,2,4.2,4.4,5.6,7.1c2.3,4.7,3.7,9.8,4,15c0.5,4.8,0.2,9.6-1,14.3
			c-0.7,2.8-1.7,5.4-3,8c-4.5,8.6-11.3,12.8-10.6,13.6c0.6,0.8,3.1-0.9,3.3-1c1-0.5,1.9-1.2,2.7-2c1.6-1.8,1.6-3.7,2-3.6
			c0.4,0,0.9,2.8,0.7,5.6c-0.1,2.7-0.9,5.4-2.4,7.6c-1.1,1.6-2.4,2.9-4,4c-1.8,1.2-3.7,2.2-5.6,3c-0.8,0.4-2,0.9-2.4,1
			c-4.9,1.7-16.3-22.5-32.9-40C271.1,103,259.3,95.7,260.8,93z"/>
	</g>
	<g>
		<defs>
			<circle id="SVGID_135_" cx="256" cy="256" r="245.7"/>
		</defs>
		<clipPath id="SVGID_136_">
			<use xlink:href="#SVGID_135_"  style="overflow:visible;"/>
		</clipPath>
		<path class="st67" d="M246.5,91.3c-0.8-1.7-4.7-0.1-12-3c-3.7-1.6-7.1-3.6-10.3-6c-2.7-1.8-5.5-4-11-8.3c-2.9-2.5-6.1-4.7-9.4-6.7
			c-2-1.4-4.3-2.4-6.7-3c-1.2-0.1-2.3-0.4-3.3-1c-0.9-0.5-1.7-1.2-2.4-2c-0.9-0.9-1.5-2-1.7-3.3c0-1.3,0.6-2.6,1.7-3.3
			c1.5-0.9,3.3-0.1,3.3-0.3c-1.3-0.9-2.8-1.4-4.3-1.3c-2.6-0.1-5.1,0.9-7.1,2.7c-1.2,1.1-2,2.5-2.4,4c-0.3,0.9-0.3,1.8,0,2.7
			c0.8,2.2,3.8,2.8,3.6,3.3c-0.1,0.6-1.7,0.3-2.4,0.3c-3,0.1-6,0.9-8.6,2.4c-4.4,2.2-8,5.7-10.3,10c-1.9,3.1-3.2,6.5-4,10
			c-0.7,3.4-0.9,6.9-0.7,10.3c0.1,4.8,1,9.5,2.7,14c1.1,2.8,1.4,4.2,2.4,5c0.2,0.2,0.8,0.6,0.7,1s-0.2,0.5-2.4,0.7
			c-1.1,0.2-2.2,0.2-3.3,0c-1.5-0.4-2.7-1.5-3.3-3c-0.4-1.1-0.1-2-0.3-2c-0.9,1.2-1.4,2.8-1.3,4.3c-0.1,1.9,0.4,3.7,1.3,5.3
			c0.6,1.2,1.5,2.2,2.7,3c1.7,0.8,3.5,1.3,5.3,1.3c-1.3,0.9-2.9,1-4.3,0.3c-1.2-0.7-1.5-1.8-2-1.7c-0.5,0.1-0.7,2.8-0.7,3.3
			c-0.1,1.6,0.3,3.2,1,4.7c0.9,1.4,2.1,2.6,3.6,3.3c5.3,2.8,13,0.5,13.6,0.3c18.8-5.7,43.2-22.9,43.2-22.9
			C237.9,101.5,247.9,94.2,246.5,91.3z"/>
	</g>
	<g>
		<defs>
			<circle id="SVGID_137_" cx="256" cy="256" r="245.7"/>
		</defs>
		<clipPath id="SVGID_138_">
			<use xlink:href="#SVGID_137_"  style="overflow:visible;"/>
		</clipPath>
		<path class="st68" d="M187.4,106.9c4.5-3.7,9.4-6.8,14.6-9.4c8.8-4.4,18.2-7.4,27.9-8.6c6.8-0.8,13.8-0.8,20.6,0
			c9,0.8,17.7,1.7,27.9,6.3c9,4.2,17.1,10.3,23.5,18c5,5.8,9.2,12.3,12.3,19.3c3.6,7.8,6,16.1,7.3,24.6c1.6,10.7,2,21.5,1,32.2
			c-0.2,1.3-0.3,2.7-0.3,4c-0.1,1,0,2,0.3,3c0.5,1.4,1.4,2.5,2.7,3.3c1.8,0.9,3.8,1,5.6,0.3c2.8-0.6,5-2.6,6-5.3
			c0.3-1.7-0.4-3.1,0-3.3s1.6,1.2,2.4,2.4c1.5,2.4,2.3,5.2,2.4,8c0.1,2.3-0.2,4.5-1,6.7c-0.8,2.3-2.1,4.4-4,6
			c-3.3,2.7-7.1,2.5-7.1,3s2.4,0.8,4.7,0c2.8-1,3.6-3.3,4.3-3c0.7,0.3,0.3,4.8-1.3,8.6c-0.9,2.1-2.1,4-3.6,5.6
			c-2.3,2.6-5.3,4.6-8.6,5.6c-2.5,0.6-5.1,0.9-7.6,1c1.3,0.7,2.9,0.9,4.3,0.7c3-0.3,4.5-1.8,5-1.3s-1.2,4.1-4,7.3
			c-4.9,5.7-11.8,9.1-19.3,9.6c-0.6-0.1-1.1-0.1-1.7,0c1.5,0.6,3.1,0.8,4.7,0.7c3.5-0.2,5.3-2,5.6-1.7c0.3,0.4-2.6,4-7.1,7.1
			c-2,1.3-4.1,2.4-6.3,3.3c-7.1,3.3-8,3-12.3,5.3c-2.9,1.6-5.7,3.4-8.3,5.3c-4.3,3-4.4,3.6-8,6c-2.8,2.2-6,3.9-9.4,5
			c-3.4,0.9-6.9,1.1-10.3,0.7c-4.3-0.5-8.4-1.6-12.3-3.3c-2.9-1.3-5.8-2.7-8.6-4.4c-7.7-4.2-7.6-4.7-12.3-7.1
			c-4.3-2.1-8.7-3.9-13.3-5.3c-3.5-1.1-7-2-10.6-2.7s-4.1-0.5-8.3-1.3c-3.4-0.5-6.8-1.4-10-2.7c-2.4-1.1-4.7-2.5-6.7-4.3
			c-1.7-1.6-3.1-3.4-4.3-5.3c-2-3.1-2.1-3.5-2-3.6s0.6,0,1.3,0.3c1.3,0.4,2.6,0.6,4,0.7c2,0.2,4-0.2,5.6-1.3c-2-0.2-4-0.2-6,0
			c-4.3,0.1-8.6-0.7-12.6-2.4c-3.5-1.4-6.6-3.7-9-6.7c-3-4-4.7-9.4-3.6-10c0.2-0.1,0.5,0,1.3,0.3c1.7,0.6,3.5,1.1,5.3,1.3
			c1.9,0.3,3.9,0,5.6-1c0-0.3-2.4,0.2-5.3,0c-1.7,0-10.9-0.8-16.3-7.6c-1.7-2.3-2.9-4.9-3.6-7.6c-1.1-3.2-1.9-7.4-1.3-7.6
			c0.2,0,0.4,0.3,1,1c1.3,1.6,2.9,3,4.7,4c1.5,0.7,3.1,1.1,4.7,1c1.1,0.1,2.3-0.1,3.3-0.7c-1.3-0.2-2.7-0.3-4-0.3
			c-4.2-0.8-8-3.2-10.6-6.7c-2.5-3.3-3.8-7.4-3.6-11.6c0-2.3,0.4-4.6,1.3-6.7c1.3-2.8,3.3-5.1,6-6.7c1.8-1,3.8-1.6,4-1.3
			s-0.5,0.5-1,1.3c-0.4,0.9-0.6,2-0.3,3c0.4,1.5,1.3,2.8,2.7,3.6c1.1,0.6,2.4,1,3.6,1c2.1,0.4,4.3,0.2,6.3-0.7c1.8-1,3.2-2.5,4-4.3
			c0.4-1,0.8-2,1-3c0.6-2.2,1.4-4.4,2-6.7c3.4-11.2,7.8-22,13.3-32.2C171.8,124.8,176.9,115.5,187.4,106.9z"/>
	</g>
	<g>
		<defs>
			<circle id="SVGID_139_" cx="256" cy="256" r="245.7"/>
		</defs>
		<clipPath id="SVGID_140_">
			<use xlink:href="#SVGID_139_"  style="overflow:visible;"/>
		</clipPath>
		<path class="st69" d="M169.8,246.2c-0.3,0.5,1.3,2,2.7,3c3.2,2.4,7,3.7,11,4c6.2,0.8,12.3,1.9,18.3,3.3
			c8.4,2.1,16.3,5.6,23.5,10.3c5.4,3.4,7.4,5.5,13.6,8.3c4,2,8.2,3.2,12.6,3.6c4.6,0.2,9.1-0.6,13.3-2.4c4.3-1.6,8.8-4.8,18-11.3
			c2.5-1.9,5.2-3.6,8-5c2.7-1.3,5.5-2.4,8.3-3.3c4.1-1.4,7.1-2.2,7.1-2.7s-1.4,0-3.6-0.7c-1.4-0.3-2.8-0.9-4-1.7
			c-2-1.4-4.1-3.6-3.6-4.3c0.4-0.7,2.2,0.3,4.7,0.7c3.4,0.5,6.8,0.1,10-1c8-2.4,13.4-8.6,13-9.4c-0.1-0.2-0.8,0.3-2.4,0.3
			c-1.7,0-3.3-0.5-4.7-1.3c-1-0.6-3.6-2.4-3.3-3.3c0.3-1,3.1-0.1,7.1-0.7c3.4-0.5,6.6-1.8,9.4-3.6c5.4-3.7,8.3-9.7,7.6-10.3
			c-0.2-0.2-0.7,0.3-2,0.7c-1.8,0.4-3.7,0.1-5.3-0.7c-0.2,0-3.9-1.7-3.6-3c0.2-0.8,1.8-0.8,4-1.7c2.6-1,4.9-2.7,6.7-5
			c3.3-4.3,3.1-10.6,2-11c-0.3,0-0.6,0.4-1.7,1.3c-2,1.8-4.6,2.7-7.3,2.7c-1.9-0.2-3.6-1-5-2.4c-1.8-2.1-2.8-4.9-2.7-7.6
			c0-1.7,0.1-3.3,0.3-5c0,0,0.2-2.6,0.3-8c0.1-6.1-0.4-12.2-1.3-18.3c-0.9-5.9-2.5-11.7-4.7-17.3c-7.6-17.8-20.8-32.7-37.6-42.2
			C262,92.7,243.2,90,225,93.6c-8,1.2-15.6,3.9-22.6,8c-10.7,6.4-17.2,14.9-25.6,25.9c-3.8,4.8-7.3,9.9-10.3,15.3
			c-5,9-8.9,18.6-11.6,28.6c0,0.3-0.8,2.7-2.4,7.6c-0.2,0.8-0.5,1.6-1,2.4c-1.4,1.8-3.4,3-5.6,3.3c-2.1,0.5-4.2,0.5-6.3,0
			c-1.8-0.2-3.5-0.9-5-2c-2.2-1.9-1.7-4.5-2.7-4.7s-2.8,3.4-3.3,6.3c-0.5,2.4-0.4,4.9,0.3,7.3c1.2,3.5,3.6,6.4,6.7,8.3
			c1.8,1.5,4,2.4,6.3,2.7c3.6,0,6-2.4,6.7-1.7s-0.9,2.8-2,4c-1,1.1-2.3,2-3.6,2.7c-1.7,0.9-3.7,1.4-5.6,1.3c-2.8,0-4.2-1.2-4.7-0.7
			c-0.7,0.9,2.7,4.7,3,5c2.2,2.5,4.9,4.5,8,6c3.1,1.6,6.5,2.4,10,2.4c4-0.2,6.2-1.7,6.7-1s-2,4.3-5.3,5.6c-1.7,0.7-3.5,1-5.3,0.7
			c-1.9-0.4-3-1.3-3.3-1c-0.3,0.4,1.2,2.8,1.7,3.3c1.4,2.1,3.2,3.9,5.3,5.3c2.8,1.9,6.1,3.1,9.4,3.6c3.8,0.8,3.9,0,10,1
			c4.4,0.7,3,0.8,6.3,1.3c1.9,0.3,3.1,0.3,3.3,1s-1.5,2.4-2,2.7c-1.7,1.3-3.8,2-6,2C171.4,246.5,170,245.8,169.8,246.2z"/>
	</g>
	<g>
		<defs>
			<circle id="SVGID_141_" cx="256" cy="256" r="245.7"/>
		</defs>
		<clipPath id="SVGID_142_">
			<use xlink:href="#SVGID_141_"  style="overflow:visible;"/>
		</clipPath>
		<path class="st70" d="M265.5,184c1.3-2.7,2.3-5.4,3-8.3c1.8-6.9,1.4-6,2-8c0.9-3.4,2.5-6.7,4.7-9.4c1.7-2.4,4.2-4.1,7.1-4.7
			c3.6-0.5,6.7,1.7,9.6,4c4,3.1,6.2,6.2,10,12c1.2,1.9,3.2,5.2,7.1,12c3.6,6.3,4.4,8,5,10.6c0.7,3.2,0.7,6.5,0,9.6
			c-1.1,3.9-3.1,7.5-6,10.3c-2.1,2.7-4.9,4.9-8,6.3c-3.5,1.6-7.5,2-11.3,1c-2.6-1.2-5.2-2.5-7.6-4c-1.8-1-3.7-1.9-5.6-2.7
			c-3.7-0.6-7.4-0.3-11,0.7c-2.4,0.4-4,0.9-5.6,0c-1-0.7-1.8-1.6-2.4-2.7c-2.4-3.5-2.6-5.2-3.6-5.3c-1.1-0.1-2.2,1.8-3.3,3.3
			c-2.6,3.5-6,4.7-12.6,7.3c-4.8,1.9-9.8,2.9-15,3c-6.6,0-13.2-1.7-18.9-5c-4.4-2.5-10.5-6-13.3-13.3c-1.8-5.3-1.8-11,0-16.3
			c2.3-6.9,6.7-13,12.6-17.3c5.9-4.7,5.7-2.4,23.5-11.3c5.7-2.9,10.6-5.6,18-6.3c3.2-0.6,6.4-0.2,9.4,1c5.2,2.4,7.4,7.6,9,11.3
			c1.7,4.1,2.6,8.5,2.7,13c0.2,6.4-1.3,11.5-0.7,11.6S264.8,185.5,265.5,184z"/>
	</g>
	<g>
		<defs>
			<circle id="SVGID_143_" cx="256" cy="256" r="245.7"/>
		</defs>
		<clipPath id="SVGID_144_">
			<use xlink:href="#SVGID_143_"  style="overflow:visible;"/>
		</clipPath>
		<path class="st71" d="M195.7,185.9c-0.9,2.8-1,5.8-0.3,8.6c0.8,3,2.5,5.8,4.7,8c2.7,2.9,6,5.2,9.6,6.7c5.4,2.2,11.2,2.8,16.9,2
			c5.3-0.6,10.4-2.3,15-5c3.2-1.8,6-4.2,8.3-7.1c2.5-3.2,4.2-7,5-11c0.9-3.6,1.2-7.3,0.7-11c-0.5-3.6-1.4-9.9-6.7-13.6
			c-3.4-2.2-7.6-3.2-11.6-2.7c-2.9,0.2-5.9,1.5-11.6,4s-5.5,2.8-13,6.3s-9.2,4-11.6,6.3C198.6,179.8,196.7,182.7,195.7,185.9z"/>
	</g>
	<g>
		<defs>
			<circle id="SVGID_145_" cx="256" cy="256" r="245.7"/>
		</defs>
		<clipPath id="SVGID_146_">
			<use xlink:href="#SVGID_145_"  style="overflow:visible;"/>
		</clipPath>
		<path class="st72" d="M220.9,187c0.5-1.6,2.2-2.4,5.6-3.6c2.2-1.1,4.6-1.6,7.1-1.7c1.8-0.1,3.5,0.4,5,1.3c1.4,1,2.4,2.6,2.7,4.3
			c0.1,1.7-0.3,3.3-1.3,4.7c-1.2,1.8-2.9,3.3-5,4c-2.2,0.7-4.5,0.7-6.7,0c-2.4-0.7-4.6-2.2-6-4.3C221.2,190.5,220.7,188.7,220.9,187
			z"/>
	</g>
	<g>
		<defs>
			<circle id="SVGID_147_" cx="256" cy="256" r="245.7"/>
		</defs>
		<clipPath id="SVGID_148_">
			<use xlink:href="#SVGID_147_"  style="overflow:visible;"/>
		</clipPath>
		<path class="st73" d="M270.5,183.4c0.7-2.7,1.7-5.4,3-8c1-2.8,2.6-5.5,4.7-7.6c1.1-1.2,2.5-2.1,4-2.7c2.2-0.6,4.5-0.5,6.7,0.3
			c2.3,0.9,4.3,2.3,6,4c1.9,1.6,3.5,3.4,5,5.3c1.5,2.2,2.8,4.6,4,7.1c2.2,4.2,2,4.3,3.6,7.3c1.1,1.6,1.9,3.2,2.7,5
			c0.8,2.3,0.9,4.7,0.3,7.1c-0.7,2.2-1.9,4.1-3.6,5.6c-1.8,1.8-4,3.3-6.3,4.3c-2.2,1.3-4.7,2.1-7.3,2.4c-2.8,0.1-5.5-0.5-8-1.7
			c-2.9-1.2-5.6-2.9-8-5c-2.6-2.2-4.6-4.9-6-8C269.3,193.9,269,188.5,270.5,183.4z"/>
	</g>
	<g>
		<defs>
			<circle id="SVGID_149_" cx="256" cy="256" r="245.7"/>
		</defs>
		<clipPath id="SVGID_150_">
			<use xlink:href="#SVGID_149_"  style="overflow:visible;"/>
		</clipPath>
		<path class="st74" d="M281.4,192c0-1.4,1-2.4,3-4c1.3-1.5,3.1-2.5,5-3c1.3-0.4,2.7-0.3,4,0.3c1.2,0.8,2.2,1.9,2.7,3.3
			c0.5,0.8,0.7,1.7,0.7,2.7c-0.3,1.6-1.3,3.1-2.7,4c-2.8,2.8-7.3,2.9-10.3,0.3C282.5,194.9,281.6,193.5,281.4,192z"/>
	</g>
	<g>
		<defs>
			<circle id="SVGID_151_" cx="256" cy="256" r="245.7"/>
		</defs>
		<clipPath id="SVGID_152_">
			<use xlink:href="#SVGID_151_"  style="overflow:visible;"/>
		</clipPath>
		<path class="st75" d="M277.8,241.5c0.4,0.8-1,2.4-3,4.3c-2.6,2.7-3.1,2.4-5.6,5c-0.8,0.8-2.6,2.7-4.7,5l-1,1.2
			c0-1.2-0.2-2.5-0.3-3.8c-0.1-2.3-0.6-4.6-1.7-6.7c-1.4-2.5-3.5-4.6-6-6c-0.4-0.2-0.9-0.5-1.3-0.7c2.2-1.2,2.4-2.5,5-3
			c2-0.3,4.1-0.1,6,0.7c3.8,1.2,3.8,2.6,7.1,3.3C275.4,241.6,277.3,240.6,277.8,241.5z"/>
	</g>
	<g>
		<defs>
			<circle id="SVGID_153_" cx="256" cy="256" r="245.7"/>
		</defs>
		<clipPath id="SVGID_154_">
			<use xlink:href="#SVGID_153_"  style="overflow:visible;"/>
		</clipPath>
		<path class="st76" d="M263.4,257c-0.3,0.3-0.6,0.6-0.9,0.8c-1.8,1-3.9,1.4-6,1c-3-0.3-5.8-1.3-8.3-3c-2.5-1.9-4.6-4.4-6-7.3
			c-2.9-5-4.9-11.1-4-11.6c0.4-0.2,1.1,1.1,3,2.4c3.7,2.3,8.3,2.6,12.3,1l0.7-0.3c0.5,0.2,0.9,0.4,1.3,0.7c2.5,1.4,4.6,3.5,6,6
			c1,2.1,1.6,4.3,1.7,6.7C263.3,254.5,263.4,255.8,263.4,257z"/>
	</g>
	<g>
		<defs>
			<circle id="SVGID_155_" cx="256" cy="256" r="245.7"/>
		</defs>
		<clipPath id="SVGID_156_">
			<use xlink:href="#SVGID_155_"  style="overflow:visible;"/>
		</clipPath>
		<path class="st77" d="M263.4,257c-0.3,0.3-0.6,0.6-0.9,0.8c-1.8,1-3.9,1.4-6,1c-3-0.3-5.8-1.3-8.3-3c-2.5-1.9-4.6-4.4-6-7.3
			c-2.9-5-4.9-11.1-4-11.6c0.4-0.2,1.1,1.1,3,2.4c3.7,2.3,8.3,2.6,12.3,1l0.7-0.3c2.2-1.2,2.4-2.5,5-3c2-0.3,4.1-0.1,6,0.7
			c3.8,1.2,3.8,2.6,7.1,3.3c3.2,0.7,5.2-0.2,5.6,0.7s-1,2.4-3,4.3c-2.6,2.7-3.1,2.4-5.6,5c-0.8,0.8-2.6,2.7-4.7,5
			C264,256.4,263.7,256.7,263.4,257z"/>
	</g>
	<g>
		<defs>
			<circle id="SVGID_157_" cx="256" cy="256" r="245.7"/>
		</defs>
		<clipPath id="SVGID_158_">
			<use xlink:href="#SVGID_157_"  style="overflow:visible;"/>
		</clipPath>
		<path class="st78" d="M254.2,239.9c0.5,0.2,0.9,0.4,1.3,0.7c2.5,1.4,4.6,3.5,6,6c1,2.1,1.6,4.3,1.7,6.7c0.1,1.3,0.3,2.6,0.3,3.8"
			/>
	</g>
	<g>
		<defs>
			<circle id="SVGID_159_" cx="256" cy="256" r="245.7"/>
		</defs>
		<clipPath id="SVGID_160_">
			<use xlink:href="#SVGID_159_"  style="overflow:visible;"/>
		</clipPath>
		<path class="st79" d="M263.5,238.2c-0.1,1.5,0.3,3,1,4.3c0.9,1.6,2.3,2.9,4,3.6c2.4,1.1,5.1,1.4,7.6,0.7c2-0.5,3.8-1.5,5.3-3
			c1-1,1.8-2.1,2.4-3.3c1.1-2.4,1.6-5,1.3-7.6"/>
	</g>
	<g>
		<defs>
			<circle id="SVGID_161_" cx="256" cy="256" r="245.7"/>
		</defs>
		<clipPath id="SVGID_162_">
			<use xlink:href="#SVGID_161_"  style="overflow:visible;"/>
		</clipPath>
		<path class="st80" d="M227.6,232.6c0.3-0.2,2.4-1.3,3.6-0.3c0.3,0.3,0.5,0.6,0.7,1c0.5,1.2,0.8,2.4,1,3.6c0.2,0.8,0.6,1.6,1,2.4
			c1,1.8,2.5,3.3,4.3,4.3c2.4,1.5,5.1,2.4,8,2.7c2.7,0.4,5.4,0.3,8-0.3c2.5-0.5,5-1.5,7.1-3c2.4-1.8,4.2-4.3,5.3-7.1
			c1-2.2,1.5-4.6,1.7-7.1c0.2-2,0-4-0.3-6"/>
	</g>
	<g>
		<defs>
			<circle id="SVGID_163_" cx="256" cy="256" r="245.7"/>
		</defs>
		<clipPath id="SVGID_164_">
			<use xlink:href="#SVGID_163_"  style="overflow:visible;"/>
		</clipPath>
		<path class="st81" d="M254.2,213.9c-0.2,1.3-0.2,2.7,0,4c0,2.4,0.1,2.6,0.3,3c0.5,1.1,1.5,2,2.7,2.4c6.3,1.7,20.6,0,21.2-0.3
			c0.5-0.2,0.9-0.4,1.3-0.7c1.8-1.2,1.5-6,1.3-8c0-0.8-0.2-1.7-0.7-2.4c-0.8-0.8-1.9-1.3-3-1.3c-8.1-0.9-21,0-21.9,0.7
			C254.7,212,254.3,212.9,254.2,213.9z"/>
	</g>
	<g>
		<defs>
			<circle id="SVGID_165_" cx="256" cy="256" r="245.7"/>
		</defs>
		<clipPath id="SVGID_166_">
			<use xlink:href="#SVGID_165_"  style="overflow:visible;"/>
		</clipPath>
		<path class="st82" d="M260.5,213c1.6-0.5,3.3-0.8,5-1c2.4-0.3,4.9-0.4,7.3-0.3c1.7,0,3.4,0.4,5,1c0.9,0.4,2,0.8,2,1.3
			c0,0.9-3.5,1.4-5.3,1.7c-3,0.4-6,0.5-9,0.3c-0.6,0-8-0.6-8-1.7C257.5,213.8,258.7,213.5,260.5,213z"/>
	</g>
	<g>
		<defs>
			<circle id="SVGID_167_" cx="256" cy="256" r="245.7"/>
		</defs>
		<clipPath id="SVGID_168_">
			<use xlink:href="#SVGID_167_"  style="overflow:visible;"/>
		</clipPath>
		<path class="st83" d="M157.3,918.7c-1.1-2.5,1.3-5.7,3-8c1.9-2.7,4.5-4.8,7.6-6c3.1-1,6.5-1,9.6,0c0.6,0.2,6.3,1.8,6.3,4
			c0,1.1-1.3,1.2-2.7,3c-2,2.6-0.8,4.5-2,6.7c-2.5,4.7-12.3,3.8-13.6,3.6C162.5,921.7,158.4,921.3,157.3,918.7z"/>
	</g>
	<g>
		<defs>
			<circle id="SVGID_169_" cx="256" cy="256" r="245.7"/>
		</defs>
		<clipPath id="SVGID_170_">
			<use xlink:href="#SVGID_169_"  style="overflow:visible;"/>
		</clipPath>
		<path class="st84" d="M182.9,915.4"/>
	</g>
	<g>
		<defs>
			<circle id="SVGID_171_" cx="256" cy="256" r="245.7"/>
		</defs>
		<clipPath id="SVGID_172_">
			<use xlink:href="#SVGID_171_"  style="overflow:visible;"/>
		</clipPath>
		<path class="st85" d="M182.9,917.1c-0.4-2.7,1.8-5,4.7-8c1.7-2,3.7-3.7,6-5c4.1-2.1,8.8-2.5,13.3-1.3c1.7,0.4,7.1,1.9,7.6,5
			c0.3,1.8-1.3,2.4-2,5.6c-0.8,3.9,1,5.2,0,7.1c-1,1.9-3.4,1.6-13.6,2c-7.5,0.3-10.1,0.7-13-1.3
			C184.4,920.2,183.3,918.8,182.9,917.1z"/>
	</g>
	<g>
		<defs>
			<circle id="SVGID_173_" cx="256" cy="256" r="245.7"/>
		</defs>
		<clipPath id="SVGID_174_">
			<use xlink:href="#SVGID_173_"  style="overflow:visible;"/>
		</clipPath>
		<path class="st86" d="M216.1,912.4c-0.1-2.7,0.8-5.3,2.7-7.3c2.6-3,6.1-5,10-5.6c7.5-2.9,16,0.8,18.9,8.3c1.5,2.6,3.4,6.1,2,9
			c-1,2.1-3.4,2.8-6.3,3.6c-4.5,1.3-8.2,1-15.3,0.3c-5.2-0.5-6.7-1.1-8-2C218,917.2,216.5,915,216.1,912.4z"/>
	</g>
	<g>
		<defs>
			<circle id="SVGID_175_" cx="256" cy="256" r="245.7"/>
		</defs>
		<clipPath id="SVGID_176_">
			<use xlink:href="#SVGID_175_"  style="overflow:visible;"/>
		</clipPath>
		<path class="st87" d="M298.6,902.8c1.7-1.7,4.2-1.3,9-0.7s7.6,1.1,10.3,3c2.3,2,4.2,4.4,5.6,7.1c1.2,1.8,1.5,2.5,1.3,3.3
			c-0.5,2.7-5.8,3.6-6.3,3.6c-4.8,0.8-8.8-1.4-13-3.6c-4.2-2.3-7.7-4.2-8.3-7.6C296.9,906,297.4,904.2,298.6,902.8z"/>
	</g>
	<g>
		<defs>
			<circle id="SVGID_177_" cx="256" cy="256" r="245.7"/>
		</defs>
		<clipPath id="SVGID_178_">
			<use xlink:href="#SVGID_177_"  style="overflow:visible;"/>
		</clipPath>
		<path class="st88" d="M285.3,893.1c0-0.6,4-1.7,8.3-1c2.8,0.6,5.4,1.7,7.6,3.3c0.6,0.4,3.2,2.1,3,2.7c-0.3,0.6-0.9,0-2.4,0
			c-2.7-0.1-3.3,0.6-7.1,0.7c-2.1,0-2.8-0.1-3.3-0.7c-0.5-0.5-0.3-1.2-0.7-2C289.9,893.6,285.3,893.8,285.3,893.1z"/>
	</g>
	<g>
		<defs>
			<circle id="SVGID_179_" cx="256" cy="256" r="245.7"/>
		</defs>
		<clipPath id="SVGID_180_">
			<use xlink:href="#SVGID_179_"  style="overflow:visible;"/>
		</clipPath>
		<g class="st89">
			<path class="st90" d="M156,287.1c3.2-1.1,6.7-1.3,10-0.7c3.6,0.9,7,2.7,9.6,5.3c4.9,4.4,7.1,9.1,9.6,15.3
				c3.3,7.1,5.3,14.8,6,22.6c0.7,8.5-0.4,16.3-1,16.3s-0.4-2.5-1.7-6.7s-3.4-8.5-4-8.3s0.3,2.8,0.7,6.3c0.5,4.7,0.2,9.4-0.7,14
				c-0.8,4.9-2.7,9-6.3,16.9c-8.5,18.7-11.2,18.8-12,18.6c-1.2-0.1-1.4-1.2-3.6-3.6c-2.8-2.9-5.9-5.3-9.4-7.3
				c-4.9-2.4-10.5-3.3-16-2.7c-9.7,1.4-18.3,7.2-23.3,15.6c-0.8,1.3-2.5,4.7-2,5s0.8-0.5,2.4-1.3c1.2-0.7,2.6-1.2,4-1.3
				c-1.4,0.5-2.8,1.1-4,2c-1,0.7-1.9,1.6-2.7,2.7c-0.5,0.7-1,1.5-1.3,2.4c-0.6,1.6-0.9,3.3-1,5c-0.2,2.1-0.3,3.2,0,3.3
				c0.3,0.1,1.8-2.4,3.6-4.7c2.3-2.6,5.1-4.6,8.3-6c4.1-2.2,8.4-3.8,13-4.7c3.4-0.9,6.8-1.3,10.3-1c2.8,0.4,5.6,1,8.3,1.7
				c1.6,0.4,2.4,0.7,4,1s2.9,0.4,3,0.7s-3,1.2-6,2.7c-3.4,1.8-6.3,4.3-8.6,7.3c-2.8,3.3-4.9,7.2-6.3,11.3c-1.3,4-3.9,11.5-1,18.9
				c1.2,3.1,2.8,4.8,2,6.3s-3.1,1.3-9,1c-5.8-0.1-11.6-0.6-17.3-1.3c-3.9-0.7-7.7-1.8-11.3-3.3c-6.1-2.6-7.4-4.7-8-5.6
				c-1.1-2.2-1.4-4.7-1-7.1c0.8-5.6,5-8.5,4.3-9.4s-3.1,0.6-5,2.4s-2.4,3.7-2.7,3.6c-0.3-0.1-0.4-7.2,2.7-14.6
				c1.6-3.5,3.5-6.8,5.6-10c2.7-4.3,4.9-7.4,5.3-8c5.6-8.1,10.9-16.6,15.6-25.3c6.3-11.3,11.4-23.2,15.3-35.6
				c2.4-7.6,2.2-8.9,4.7-15.6C143.6,300.2,147.4,290.3,156,287.1z"/>
			<path class="st90" d="M126,382.3c-0.2-0.4,3.2-2.4,7.1-3.6c2.7-0.9,5.5-1.4,8.3-1.3c4.1,0.2,8.1,1.5,11.6,3.6
				c2.2,1.2,4.8,3,4.7,3.3c-0.1,0.4-3.9-1.7-9.6-3c-4.7-1.1-9.5-1.3-14.3-0.7C129.1,381.2,126.2,382.7,126,382.3z"/>
			<path class="st90" d="M145,421.9c0.7-4.2,2.1-8.3,4.3-12c1.8-3.4,4.3-6.3,7.3-8.6c2.7-1.8,5.6-3.2,8.6-4.3
				c2.1-0.9,4.1-1.7,4.3-1.3c0.2,0.4-2.9,2.5-6.3,6c-3,3-5.4,6.5-7.3,10.3c-2.1,4.1-3.4,8.7-3.6,13.3c-0.1,2.8-0.4,9,1.3,11.6
				c0,0.2,0.6,0.9,0.3,1.3c-0.3,0.5-0.8,0.4-3.6,0.3c-2.4,0-2.7-0.2-3-0.3c-1.1-0.9-1.7-2.2-1.7-3.6
				C145,430.3,144.7,426.1,145,421.9z"/>
			<path class="st90" d="M206.2,276.9c-1,0.8,1,4.7,3.3,9.4c1.9,3.8,4.1,7.5,6.7,11c2.9,4,8.9,11.5,10.3,10.6c0.4-0.2,0-1,0-3
				c-0.2-3.1,0.2-6.1,1.3-9c1.8-3.7,4.9-4.1,4.7-6c-0.2-1.2-1.6-1.9-4.3-3c-5.4-2.2-8.6-3.2-10.6-4C210,280.1,207.2,276,206.2,276.9
				z"/>
			<path class="st90" d="M275.3,281.6c-0.3-1.2,1.2-2.5,1.3-2.7c1.2-1,2-0.6,3.3-1.3c2.4-1.2,2.5-3.8,3.3-3.6
				c0.8,0.1,1.3,4.7,1.3,5.3c0.3,6.3-1.2,12.4-2,12.3c-0.2,0-0.1-0.7-0.7-2.4c-0.5-2-1.5-3.9-3-5.3
				C277.1,282.4,275.6,282.7,275.3,281.6z"/>
			<path class="st90" d="M177.6,282.2c0.6-1,2.2-0.4,5.6-1c5.8-1.1,7.2-4,10-3.3c2.4,0.5,3.3,3,5,6.7c2.7,5.8,5.6,11.5,9,16.9
				c3.4,5.2,7.8,9.6,13,13c7.8,5.5,16.5,8.3,17.3,7.1c0.2-0.3-0.1-0.6-1.7-4.3c-1.1-2.6-1.2-3.2-1-3.3c0.2-0.1,1.7,1.1,3.3,2.4
				c5.2,3.8,10.5,2.8,11,5c0.2,0.9-0.6,1-1,2.7c-0.3,2.2,0.3,4.5,1.7,6.3c1.6,2.4,3.9,4.1,6.7,5c3.1,1,3.5,0,5.6,0.7s3.8,2.6,9,15.6
				c1.3,3.3,2,4.9,2.7,7.1c1.9,5.3,3.4,10.7,4.3,16.3c0.8,2.9,1.1,5.9,1,9c0.1,1.2-0.3,2.4-1,3.3c-2.4,2.1-5.9,2.1-8.3,0
				c-0.9-1-1.3-2.3-1.3-3.6c-0.7-5.7-2.3-11.3-4.7-16.6c-1.7-3.6-4.1-6.9-7.1-9.6c-3.4-3.6-7.5-6.5-12-8.6
				c-3.6-1.8-7.6-2.9-11.6-3.3c-4.8-0.4-9.7,0.2-14.3,1.7c-3.1,0.6-6.2,1.7-9,3.3c-8.1,5-10.4,14.3-11.3,14
				c-0.9-0.4,0.9-4.1,1.3-9.6c0.2-3.8,0-7.6-0.7-11.3c-1.2-8.5-3.2-16.8-6-24.9c2.1,6.8,3.1,13.8,3,20.9c0,5.3-0.9,10.6-1.7,10.6
				s-0.7-8-4-19.3c-1.5-5.8-3.9-11.3-7.1-16.3c-6.5-9.9-14.4-13.3-13.6-14.6c0.8-1.3,7.1,0.2,11.3,4.3c3.9,3.7,4.2,7.8,5,7.6
				c1.3-0.3,2.7-11.9-3.3-20.9C180.3,286.6,176.7,283.9,177.6,282.2z"/>
			<path class="st90" d="M267.6,318.1c0,1.6,2.4,2.1,3,5c0.4,2.1-0.6,3-0.7,5.3c0.1,2.6,1.2,5.1,3,7.1c2.8,3.8,4.3,8.2,7.3,16.9
				c3.3,9.8,5,14.7,4.7,21.2c-0.1,2.4-0.5,5.8,1.7,8.3c1.6,1.6,3.7,2.5,6,2.7c5.4,0.8,10.9,0.7,16.3-0.3c7.6-1.1,11.6-1.7,16-4
				c3.6-1.8,6-2.7,7.3-5c1.1-2.2,1.4-4.7,1-7.1c-0.5-6.5-1.5-12.9-3-19.3c-2.4-10-1.6-7.9-2.7-12c-2.5-10.5-5.9-20.7-10.3-30.6
				c-3.6-7.9-3.3-5.5-6.7-13c-1.8-3.9-3.6-8.4-7.1-10.6c-1.6-1-3.2-1.8-5-2.4c-1.6-0.6-2.4-0.8-3-0.7c-2,0.7-1.7,5.3-2.4,11
				c-0.7,5.7-1.2,10-3.6,13.6c-3,4.4-8,6.6-12.6,8.6C271.9,315.4,267.8,316.1,267.6,318.1z"/>
			<path class="st90" d="M217.1,446.8c-0.2,1.2,4.2,2.7,8.6,4.3c4,1.5,8.1,2.7,12.3,3.6c13.3,2.8,30.1,4.6,30.2,3.6
				c0.1-0.9-7.1-2.4-10.3-3c-2.8-0.4-5.6-1-8.3-1.7c3.8-0.4,7.5-0.6,11.3-0.7c8.2-0.5,10.3-1,11.3-2.7c1-1.6,0.3-2.4,0-5.3
				c-0.2-4,0-8,0.7-12c1.1-9.3,3.5-13.3,2.4-14c-1.1-0.6-3.9,3.3-9.6,8.3c-3.7,3.2-7.7,5.9-12,8.3c-7.9,4.8-16.7,8-25.9,9.4
				C221.8,445.9,217.3,445.6,217.1,446.8z"/>
			<path class="st90" d="M198.5,456.4c0,0.5,7.1,2.5,12,3.6c7.3,1.8,14.8,3.1,22.3,4c15.5,1.8,30.2,1.9,30.2,1.3s-12.5-0.7-32.2-4.3
				c-2-0.4-9.6-1.8-20-3.3C204.7,456.8,198.6,455.9,198.5,456.4z"/>
			<path class="st90" d="M283.3,411.2c1.1-0.6,1.9-0.2,6,0.7c4.8,1.1,9.7,1.8,14.6,2c4.9,0.5,9.8-0.2,14.3-2
				c3.1-1.4,4.7-3.1,6.3-2.4c1.6,0.7,1.7,2.8,2.4,8c0.4,5.4,1.3,10.7,2.7,16c0.8,3.1,2.2,6,4,8.6c2,2.8,3.5,3.4,3.6,5.3
				c0.3,3.4-4,6.4-5.3,7.3c-3.4,2.4-6.9,3.2-13.3,4c-8.3,1-19.5,1.6-19.6,0.7c0-0.4,3.6-0.3,9-2.4c6.5-2.9,12.1-7.6,16-13.6
				c1.5-2.4,1.7-3.2,1.3-3.6c-0.8-1-4.4,0.6-9.4,2.7c0,0-8.7,3.6-18.3,6.3c-11.2,3.2-13.4,2-14.3,1s-0.9-2.4-1-4.3
				c-0.2-4.9-1-9.7-1-14.6C281.4,414.7,281.3,412.3,283.3,411.2z"/>
			<path class="st90" d="M354.7,349.1c-0.8,0-1.3,5.6-1.3,6c-0.2,2.7-0.1,5.3,0.3,8c0.4,3.2,1.3,6.4,2.7,9.4
				c0.2,0.5,4.1,8.9,6.7,8.3c0.7-0.2,1.2-1.1,2.4-3c0.7-0.9,1.1-1.9,1.3-3c0.1-2.4-3.5-3.9-5.6-5.6C353.6,363.1,356,349,354.7,349.1
				z"/>
			<path class="st90" d="M348.4,370.7c-0.9,0-1.3,2.9-1.7,5c-0.5,3.4-0.5,6.9,0,10.3c0.7,4.7,2.4,10.4,3.3,10.3c0.4,0,0.2-1.5,1-4
				c1.3-4.2,3.3-4.7,3.6-7.3c0.2-1.4-0.3-1.7-2.7-7.1C349.7,372.5,349.2,370.6,348.4,370.7z"/>
			<path class="st90" d="M408.9,364.8c-0.5,0-1.4,2.4-2.4,5c-0.9,2.6-0.9,3.2-1.7,5.3c-1.6,4.5-3.1,6.4-2.7,6.7
				c0.4,0.3,3.6-2,5.3-5.3c1-2.1,1.6-4.3,1.7-6.7C409.4,367.9,409.5,364.8,408.9,364.8z"/>
			<path class="st90" d="M407.6,385c-0.5-0.2-1.2,1.4-4.3,5c-1.9,2.2-2.1,2.1-2.7,3c-1.4,2.4-0.8,4.1-1,8c-0.1,2.9-0.7,5.9-1.7,8.6
				c-1.2,2.7-2.7,5.2-4.7,7.3c3.5-2.4,6.3-5.7,8.3-9.4c2-3.8,3.5-7.9,4.5-12.1C406.5,393,408.6,385.3,407.6,385z"/>
			<path class="st90" d="M317.2,289.5c0.7-0.4,4.7,4.9,6.3,7.1c2.2,2.9,4.2,5.9,6,9c6.8,11.1,5.2,8.3,8.6,14c8,13.3,7.2,13.1,9,14.6
				c1.8,1.6,5.3,3.9,5,6.7c0,0.8-0.4,0.8-1.3,2.7c-1.2,2.4-2.1,5-2.7,7.6c-0.3,1.6-0.2,1.5-0.7,3.6c-0.3,1.6-0.8,3.2-1.3,4.7
				c-0.9,2.2-1.3,3.2-2,3.3c-0.7,0.1-1.7-0.4-4.3-7.6c-1.4-3.8-2.5-7.7-3.3-11.6c0,0-0.5-2.8-5-20.3
				C326.3,303.2,316.1,290.2,317.2,289.5z"/>
		</g>
	</g>
	<g>
		<defs>
			<circle id="SVGID_181_" cx="256" cy="256" r="245.7"/>
		</defs>
		<clipPath id="SVGID_182_">
			<use xlink:href="#SVGID_181_"  style="overflow:visible;"/>
		</clipPath>
		<path class="st91" d="M166.6,557.1c3.6-1.1,4.7,2,17.6,4.3c7.1,1.3,14.6,2.5,23.3,0.3c5.9-1.4,11.3-4.1,16-8
			c13.3-11.3,16.1-30.6,16.6-34.2c1.2-8.2,0.6-15.6,4.7-17.3c2.1-0.9,3.4,0.8,8.3,1c7.1,0.3,9.2-2.7,12.3-1.7s4.7,5.4,6.3,20.6
			c1.8,16.5,2.6,24.9,1,36.9c-1.1,6.8-2.9,13.5-5.3,20c-1.5,4.7-2.8,8-4.3,8s-1.7-3.2-3.6-7.1c-3.6-7.1-10.6-12.5-12.6-11.3
			c-2.1,1.2,0.1,7.8,1.3,12.3c2.6,9.8,3.2,21.6,4.3,45.2c1.1,21.5-3.4,37.6-12.3,70.1c-1.7,6.1-5.4,16.1-13,36.2
			c-2,5.2-4.6,10.3-7.6,15c-6.6,10.1-11.3,12.4-12.6,13c-1.9,0.8-7.7,3.4-13,1c-3-1.4-5.2-4.1-8.3-12c-2.8-6.8-4.8-13.9-6-21.2
			c-1.6-11.9-5.5-23.4-7.6-35.3c-7.6-41.6-10.7-41-13.6-63.5C154.6,601.3,154.2,561,166.6,557.1z"/>
	</g>
	<g>
		<defs>
			<circle id="SVGID_183_" cx="256" cy="256" r="245.7"/>
		</defs>
		<clipPath id="SVGID_184_">
			<use xlink:href="#SVGID_183_"  style="overflow:visible;"/>
		</clipPath>
		<path class="st92" d="M176.3,511.9c2.4-1,3.6,0.7,9,1.7c5.5,0.9,11,0.4,16.3-1.3c3.6-1.2,10.7-3.6,14.6-10c2.9-4.7,2.6-9.2,6-10.3
			c1.6-0.5,2,0.3,6.3,0.3s5.6-0.8,6.7,0c1.9,1.5,0.3,6.6-1,10.6c-5,15.3-7.6,23.1-9.6,26.3c-4,6.2-7.1,10.8-13,13.6
			c-2.5,1.2-5.3,1.9-18.3,1.3c-17.2-0.7-25.8-1.1-27.2-5c-0.8-2.2,1.1-3,4-11C173.7,518,172.8,513.4,176.3,511.9z"/>
	</g>
	<g>
		<defs>
			<circle id="SVGID_185_" cx="256" cy="256" r="245.7"/>
		</defs>
		<clipPath id="SVGID_186_">
			<use xlink:href="#SVGID_185_"  style="overflow:visible;"/>
		</clipPath>
		<path class="st93" d="M279.6,497.9c-2,2.8,1.1,6.1,3,15.3c1,5.9,1.4,12,1,18c-0.2,14.1-2.6,21.6-0.7,22.3s5.2-4.9,6.3-6.7
			c3.6-5.9,5.8-12.5,6.7-19.3c1.7-11.9-1.8-12.5-1.7-25.9c0.1-1.3-0.3-2.6-1-3.6C290.6,494.4,282.1,494.4,279.6,497.9z"/>
	</g>
	<g>
		<defs>
			<circle id="SVGID_187_" cx="256" cy="256" r="245.7"/>
		</defs>
		<clipPath id="SVGID_188_">
			<use xlink:href="#SVGID_187_"  style="overflow:visible;"/>
		</clipPath>
		<path class="st94" d="M306.5,507.3c1.1,11.5-1.3,27.8-2,31.6c-1.2,6.7-3,17-11,23.9c-4.9,4.3-9.3,4.7-14.3,11.3
			c-2,3.1-4.1,6.1-6.3,9c-3.9,4.5-5.7,5.3-5.6,7.3c0.2,4.4,9.1,7.2,11.3,8c4.4,1.4,9,1.9,13.6,1.3c9.4-1.3,15.2-6.6,15.6-6
			s-4.7,5.3-12,10c-9.8,6.3-17.2,8.5-16.9,9.4c0.3,0.9,7.1-0.1,14-2.7c5.8-2.2,8.6-4.4,9.4-3.6c0.8,0.8-2.2,5.8-6.7,9.4
			c-6.9,5.3-14.4,5-14.3,6.7c0,1.3,4.7,2.4,7.3,2.7s3.4,0,4.3,0.3c4,1.9,1.6,14.7,1,18.3c-1.1,6.7,0,18.3,2.4,41.6
			c2.4,23.2,3.7,37.3,10.6,39.2c4.7,1.3,10.7-3.4,13.6-6.7c2.5-3,4.2-6.5,5-10.3c4.2-14.4,6.4-21.7,6.7-23.3
			c5.8-30.9,6.7-27,8.3-40.9c1.6-13.9,1.4-24.3,1-42.5c-0.8-35.3-2.9-31.5-2-35.9c0.5-1.8,0.3-3.7-0.7-5.3c-1.6-2.2-4.5-2-6.7-2.7
			c-5.4-1.6-7.7-8.6-11-18.9c-3.1-9.9-5.1-16.2-5.3-25.3c-0.1-6.9,0.8-12.5-2-14c-2-0.7-4.2-0.2-5.6,1.3
			C306.8,502.4,306.2,504.9,306.5,507.3z"/>
	</g>
	<g>
		<defs>
			<circle id="SVGID_189_" cx="256" cy="256" r="245.7"/>
		</defs>
		<clipPath id="SVGID_190_">
			<use xlink:href="#SVGID_189_"  style="overflow:visible;"/>
		</clipPath>
		<path class="st95" d="M323.5,495.3c-1.9,3.1,0.4,6.7,2.7,13.6c1.8,6.8,3.3,13.7,4.3,20.6c1.7,8.2,2.6,12.4,6.3,16
			c1.7,1.6,4.7,3.8,6,3s-0.2-5.4-1.7-10.6c-2.2-7.8-3.1-16-4.7-23.9c-3.2-16.1-3.6-20.8-6.7-21.6C327.2,492,324.8,493.1,323.5,495.3
			z"/>
	</g>
	<g>
		<defs>
			<circle id="SVGID_191_" cx="256" cy="256" r="245.7"/>
		</defs>
		<clipPath id="SVGID_192_">
			<use xlink:href="#SVGID_191_"  style="overflow:visible;"/>
		</clipPath>
		<path class="st96" d="M187.5,487.3c-2.9,1.5-3.9,5.5-5,9.6c-0.7,2.6-1,3.9-0.3,5c2,3.6,11.1,1.6,12.3,1.3
			c8.9-1.9,17.5-8.1,16.6-11c-0.5-1.5-3.3-0.6-11.6-2.7C191.9,487.8,190.1,486,187.5,487.3z"/>
	</g>
	<g>
		<defs>
			<circle id="SVGID_193_" cx="256" cy="256" r="245.7"/>
		</defs>
		<clipPath id="SVGID_194_">
			<use xlink:href="#SVGID_193_"  style="overflow:visible;"/>
		</clipPath>
		<path class="st97" d="M175.2,484c-1.2-0.6-9.4,11.1-16,23.9c-9.1,18-12.7,33.6-15.6,47.2c-3,12.4-4.8,25.1-5.3,37.9
			c-0.4,12.4,0.5,21.2,2.4,36.9c2.5,21.8,6.3,41.6,7.1,41.6c0.8-0.1-3.7-22.1-3.6-53.5c-0.2-18.3,1.4-36.6,5-54.5
			c3.6-16.6,8.5-33,14.6-48.8C170.5,496,176.4,484.6,175.2,484z"/>
	</g>
	<g>
		<defs>
			<circle id="SVGID_195_" cx="256" cy="256" r="245.7"/>
		</defs>
		<clipPath id="SVGID_196_">
			<use xlink:href="#SVGID_195_"  style="overflow:visible;"/>
		</clipPath>
		<path class="st98" d="M171.3,776.5c-4.4,0.4-6.6,12.9-9,26.6c-2.4,12.8-3.4,19.1-2.7,26.9c1.2,13.3,5.1,11.5,8,29.2
			c1.3,7.8,1.4,13.5,6,17.3c2.2,1.8,4.9,2.4,10.3,3.3c8.5,1.6,17.3,1.9,25.9,1c11.5-1.2,13.4-3.5,14-4.3c2.5-3.4,1.3-8,0.7-11.6
			c-1.8-9.4,1.1-5.1,0.7-31.9c-0.3-21-2-17.2-2-34.6c0-8.1,0.4-16.9-1.7-17.3c-1.4-0.3-2.4,3.6-6.7,7.6c-3.4,3-7.5,5.1-12,6
			c-6.4,0.9-12.9-0.6-18.3-4.3C175.4,784.4,174.9,776.1,171.3,776.5z"/>
	</g>
	<g>
		<defs>
			<circle id="SVGID_197_" cx="256" cy="256" r="245.7"/>
		</defs>
		<clipPath id="SVGID_198_">
			<use xlink:href="#SVGID_197_"  style="overflow:visible;"/>
		</clipPath>
		<path class="st99" d="M277.9,761.5c-3.4,9.4-8.3,13.4-13,19.6c-5,6.7-7.8,14.8-13.3,31.2c-7.7,23-3.5,21.3-9.4,33.2
			c-3.6,7.4-8.2,14.1-5.6,20.6c1.2,2.7,3.2,5,5.6,6.7c4.3,3.5,9,4.6,18.3,6.7c4.7,1.1,6.1,1,7.3,0.3c3.6-2.1,3.3-8.5,3.3-11
			c0-4.2,2.8-13.6,8.3-32.6c5.7-19.3,8.5-29,16-40.2c3.3-5,7.2-9.8,5.6-14.6c-1.7-5.3-8.1-4.4-13.3-11.3c-5.8-7.6-4.3-16.9-6.3-16.9
			C280.3,753.2,279.5,757.3,277.9,761.5z"/>
	</g>
	<g>
		<defs>
			<circle id="SVGID_199_" cx="256" cy="256" r="245.7"/>
		</defs>
		<clipPath id="SVGID_200_">
			<use xlink:href="#SVGID_199_"  style="overflow:visible;"/>
		</clipPath>
		<path class="st100" d="M263,716.7c-2.6,15.7-1.9,14.4-3,19.3c-2.3,9.1-5.8,18-10.3,26.3c-3.3,6.7-6.5,13.4-10,20
			c-1.8,3.1-3,6.5-3.6,10c-0.4,3.5-0.4,7.1,0,10.6c0.8,13.1,0.6,15.1,1.3,15.3c0.8,0.2,2.6-2.8,8-18.3c6.7-19.2,6.1-19.9,9.6-28.6
			c4.7-11.4,6.3-11.9,11.3-24.9c3.4-9,5.2-13.5,5.3-18c0.2-7.3-2-9.4-3.3-24.3c-0.4-4.5-0.4-7.3-1-7.3
			C266.3,696.5,264.8,705.6,263,716.7z"/>
	</g>
</g>
<circle class="st101" cx="247.5" cy="255.2" r="245.5"/>
</svg>
