<?xml version="1.0" encoding="utf-8"?>
<!-- Generator: Adobe Illustrator 21.0.0, SVG Export Plug-In . SVG Version: 6.00 Build 0)  -->
<svg xmlns:xlink="http://www.w3.org/1999/xlink" version="1.1" id="Layer_1" xmlns="http://www.w3.org/2000/svg" x="0px" y="0px"
	 viewBox="0 0 512 512" style="enable-background:new 0 0 512 512;" xml:space="preserve">
<style type="text/css">
	.st0{clip-path:url(#SVGID_2_);}
	.st1{stroke:#000000;stroke-width:3;stroke-miterlimit:10;}
	.st2{fill:#1F1923;stroke:#000000;stroke-width:3;stroke-linecap:round;stroke-linejoin:round;}
	.st3{fill:#3B2D42;stroke:#000000;stroke-width:3;stroke-linecap:round;stroke-linejoin:round;}
	.st4{fill:#282423;stroke:#000000;stroke-width:3;stroke-linecap:round;stroke-linejoin:round;}
	.st5{fill:#ACB5BF;stroke:#000000;stroke-width:3;stroke-miterlimit:10;}
	.st6{fill:#999999;stroke:#000000;stroke-width:3;stroke-linecap:round;stroke-linejoin:round;}
	.st7{fill:#EDEAEF;stroke:#000000;stroke-width:3;stroke-linecap:round;stroke-linejoin:round;}
	.st8{stroke:#000000;stroke-width:3;stroke-linecap:round;stroke-linejoin:round;}
	.st9{fill:#F275A5;stroke:#000000;stroke-width:3;stroke-linecap:round;stroke-linejoin:round;}
	.st10{fill:none;stroke:#000000;stroke-width:3;stroke-linecap:round;stroke-linejoin:round;}
	.st11{fill:#FFFFFF;stroke:#000000;stroke-width:3;stroke-linecap:round;stroke-linejoin:round;}
	.st12{fill:#D9D9D9;stroke:#000000;stroke-width:3;stroke-linecap:round;stroke-linejoin:round;}
	.st13{fill:#FFFFFF;}
	.st14{fill:#D9D9D9;}
	.st15{fill:#380208;}
	.st16{fill:#6A0006;}
	.st17{opacity:0.2;fill:#FFFFFF;enable-background:new    ;}
	.st18{opacity:5.000000e-02;fill:#FFFFFF;enable-background:new    ;}
	.st19{fill:#282828;}
	.st20{fill:none;stroke:#11113F;stroke-width:9;stroke-miterlimit:10;}
</style>
<g>
	<g>
		<defs>
			<circle id="SVGID_1_" cx="255.3" cy="256.8" r="242.2"/>
		</defs>
		<clipPath id="SVGID_2_">
			<use xlink:href="#SVGID_1_"  style="overflow:visible;"/>
		</clipPath>
		<g class="st0">
			<path class="st1" d="M243,792c-1.5,3.3,0.4,5-1.7,16.7c-0.7,4.4-1.5,7-2,13.1c-0.9,8.3-0.4,10.6,0.2,12c1.5,3.3,3.9,6.1,7,8
				c3,1.7,6.5,2.4,10,2.2c38.5-1.5,57.8-2.2,63.1-1.3c1.7,0.4,3.5,0.4,5.2,0c0.9-0.2,8.7-0.7,11.8-4.6c3-3.7,3.5-8.1,3.3-13.7
				c-0.2-4.3-1.3-8.3-3.7-11.7c-2.6-4.1-5.7-6.9-7.4-7.4c-0.9-0.4-5.2-1.7-11.5,0c-5.2,1.3-6.9,2.8-8.9,4.6
				c-2.4-3.3-12-8.7-16.3-15.9C284.1,779.6,248.5,778.9,243,792z"/>
			<path class="st1" d="M160.6,798.1c-0.6,0.7-3.7,6.5-10.2,18.3c-7.4,13.7-7.8,14.6-7.4,16.1c2.4,10.2,27.8,8,56.1,11.1
				c1.7,0.2,6.1,0.7,9.3-1.9c1.3-1.1,2.2-2.6,2.8-4.4c3.9-12-9.3-28.1-6.3-46.5c0.4-2,0.7-3.3,0-4.6
				C200.9,779.8,173.2,782.7,160.6,798.1z"/>
			<path class="st2" d="M300.9,502.4c1.1,0.9,2.2,5.2,3.3,9.1c0.6,1.7,0.9,3.5,1.1,5.2c4.4,137.4-5.4,280.5-5.4,280.5
				c-1.3,5.4-60.9,5.2-62.2,0.2c-4.6-134.6-35.5-177.4,16.8-250.1c6.5-9.1-3-33.5,4.8-41.3C270.7,494.1,298.5,500.8,300.9,502.4z"/>
			<path class="st3" d="M263.3,504.1"/>
			<path class="st2" d="M263.3,504.1c-41.5-7.4-85.3-27.4-95.9-9.6c-0.9,1.7-2,5.7-4.1,13.7c-2.6,9.8-4.4,20-5.7,30
				c-1.5,12.4-2.2,24.8-2.2,37.2c0,22.8-2.8,45.9-3.3,68.9c-1.1,54.1-1.1,72.4-1.9,84.1c-3.3,47.8-4.1,74.1-4.1,74.1
				c0,6.8,60.4,7,62,2.2c0,0,7.2-20,12-66.8c6.7-66.1,18.9-120.2,24.3-136.4c1.1-3.3,3-6.3,5.4-8.7c1.7-2,3.7-4.1,5.7-5.7
				c3.5-3,7.6-5.4,11.7-7.4"/>
			<path class="st4" d="M164.5,483c-0.9,2.8-0.4,10.6-0.4,15c3.7,6.7,13.5,11.1,24.3,15c4.6,1.7,9.3,3,13.9,4.1
				c24.1,5.2,45.9,3.5,58.7,2.4c9.4-0.9,18.9-2.6,28.1-4.8c9.3-2.2,12.2-3.3,14.8-5.9c0.2-7.6,0.9-19.4-1.3-25.2
				C289.8,451,173.4,454.9,164.5,483z"/>
			<path class="st5" d="M248.3,493l1.5,24.1c0.4,3,3,5,5.7,4.8h0.2l18.3-2.2c2.6-0.4,4.6-2.6,4.6-5.2l-0.9-24.6L248.3,493z"/>
			<path class="st6" d="M427.2,409.9c5,0.6,7.4,39.2,2.4,40.4c-2.6,0.6-7.2-8.1-8.7-15.9C418.5,422.1,424.2,409.5,427.2,409.9z"/>
			<path class="st7" d="M292.6,294.7c2.8-0.4,5.7,0,8.5,1.1c3.1,1.5,5.7,3.7,7.6,6.5c4.4,6.3,7.8,13.1,10.2,20.6
				c7.4,22.2,3.5,9.4,7.4,21.8c6.7,21.7,10.4,34.6,16.1,51.7c1.1,3.3,1.7,5,2.4,7c5.9,15.9,9.3,18.3,10.2,25.2
				c1.1,9.3-3.5,16.8-5.2,19.6c-1.3,2.2-9.6,15.4-23.7,16.5c-4.1,0.4-8.1-0.4-11.7-2.2c-1.7-0.9-8.1-5-11.1-19.1
				C299.4,426.5,295.2,370.3,292.6,294.7z"/>
			<path class="st8" d="M418.5,421.7c3.5-7,10.4-11.3,13.3-15.7c2.8-4.3,6.3-7.8,10.4-10.7c3.1-2.4,3.9-2.2,8.5-5.4
				c4.4-3.1,6.7-4.6,8.1-6.5c3.5-4.1,3-6.5,8.1-14.4c1.7-3.7,6.1-5.4,9.8-3.7c0.4,0.2,0.7,0.4,1.1,0.6c5.2,3,5.4,10.4,5.4,12.6
				c0.2,3.7-0.7,7.6-2.4,10.9c-2.2,4.6-4.3,5.6-7.6,9.8c-5.6,7.4-3.7,10.2-8,15.9c-4.3,5.7-9.8,7.6-18,10.7
				c-9.8,3.5-24.4,6.5-26.3,2.8C420.3,426.9,414.8,429.1,418.5,421.7z"/>
			<path class="st8" d="M451.3,406c1.1-3.1,7.4-3.9,13.9-4.6c5.7-0.6,11.7,0,17.2,1.9c4.1,1.3,10.2,3.3,15,8.7
				c2.2,2.2,3.7,5.2,4.4,8.1c0.4,1.7,0.9,4.4-0.6,6.5c-2,2.8-6.5,2.6-8.5,2.4C478.5,428.6,448.7,413.6,451.3,406z"/>
			<path class="st8" d="M448.5,413c0.7-1.9,4.1-2,10.7-2.4c9.6-0.6,16.7,1.9,25.4,5c5.7,2,9.3,3.9,12.6,6.9c4.1,3.7,4.8,6.7,5,8
				c0.2,0.9,0.6,3.9-1.1,5.9s-5.6,3-13.3,1.1C468.8,433,446.1,418.6,448.5,413z"/>
			<path class="st8" d="M421.6,442.1c3,2.4,5.2,0.4,18.9,0.6c7,0.2,10.4,0.2,13.9,0.6c2.8,0.2,5.6,0.4,8.5,0.2c2.6,0,3-0.2,3.3-0.2
				c3.5-1.7,4.8-10.7,1.7-16.5c-4.3-7.8-15.6-8.1-21.3-8.5c-2.6-0.2-22.8-0.9-27.4,10.2C417.4,432.8,418.1,439.3,421.6,442.1z"/>
			<path class="st8" d="M453.1,426.7c0.2-0.2,0.6-0.4,2.4-0.6c2.4-0.4,4.8-0.7,7.2-0.9c5.4-0.2,9.1,0.9,15.6,2.6
				c4.8,1.5,9.6,3.5,13.9,6.1c1.3,0.7,2.2,1.7,3,3c0.7,1.1,1.1,2.4,1.1,3.9c-0.2,2-0.9,3.9-2.4,5.4c-5.7,5.9-18.3-4.3-33.9-2.6
				c-1.7,0.2-3.3,0-4.6-0.9C450.7,439.5,449.8,428.9,453.1,426.7z"/>
			<path class="st7" d="M342.6,409.3c2.6-0.6,5.4-0.2,8,0.7c2.8,1.3,5.2,3.1,6.9,5.7c4.8,6.5,11.3,20.2,7.6,23.5"/>
			<path class="st7" d="M342.6,418.4c3.3-1.5,6.7-2.6,10.2-3.3c6.3-1.3,10.9-0.7,20.7,0c10.9,0.9,16.3,1.3,17.8,1.3
				c13.7,0.2,20.7,0.4,26.8-1.3c0.9-0.4,3.3-1.1,2.8-0.2c-7,11.7-4.1,26.3,4.6,36.3c-38.5,12-54.8,18.3-100,16.1
				c-3.9-0.2-7.8-1.1-11.1-3c-1.5-0.7-3-1.7-4.1-3"/>
			<path class="st7" d="M413.3,414.3c0.9-0.6,7-1.9,13.9-4.4c-5.4,5.4-11.5,31.1,2.4,40.4c0,0-8.5,4.1-13.3,5
				C407.2,455.2,402.6,419.7,413.3,414.3z"/>
			<path class="st7" d="M149.1,298.8c0,0,6.1-2,18-5.9c10.6-3.5,13.5-4.4,18.9-6.3c13-4.4,13.9-5,17.2-5.9
				c14.4-4.4,27.4-2.8,38.5-1.3c17.6,2.2,24.1,6.9,38,8.7c5.2,0.7,10.4,1.9,15.4,3.5c1.9,0.6,3.5,1.1,5.2,1.9
				c7.8,3.9,10.2,14.8,11.1,20c5.2,25.2,7.8,38,8.1,46.1c0.9,14.4,0.9,24.4,0.7,43c-0.2,60.5-4.1,48.7-6.3,74.2
				c-0.2,2.4-0.7,4.8-1.9,7c-1.1,2-2.6,3.9-4.1,5.4c-1.7,2.2-3.7,4.3-5.7,6.3c-2,1.5-4.4,2-11.7,2.2c-6.1,0.2-9.8-0.2-13.1-0.2
				c-6.1-0.2-11.3,0.4-21.7,1.7c-9.8,1.1-11.1,1.9-18,2.2c-1.3,0-4.3,0.2-12.2,0c-14.8-0.4-22.2-0.6-30-1.9
				c-4.4-0.7-8.5-1.9-16.7-4.1c-9.1-2.4-1.1-0.7-13.1-4.6c-2.2-0.6-4.3-1.7-5.7-3.3c-1.5-2-2.2-4.4-2.2-6.8
				c-0.6-40.2,5.7-65.5,5.7-65.5C177.1,361,132.6,310.3,149.1,298.8z"/>
			<path class="st1" d="M127.6,830.7c-0.2-5.9,3.3-11.5,8.7-13.9c2.8-1.3,5.7-2,8.7-2.2c19.6-0.9,29.3-1.5,41.5,3
				c6.7,2.4,17,6.5,22.2,16.1c0.9,1.9,3,5.7,1.3,8.5c-1.9,3.5-8,3.3-15.4,3.3c-21.7-0.2-32.6-0.4-40.7,0.2
				c-11.5,0.7-16.5,0.7-20.6-1.1C128.9,842.5,127.4,835.7,127.6,830.7z"/>
			<path class="st9" d="M257.2,305.6c8.1,30.5,23.7,104,32.6,149.6c-2,13-10.9,35.7-19.4,45.4c-8.1-17.4-18.9-33-23-42.6
				c5-64.8,0.7-140.3,2.8-154C252,303.6,256.3,302.1,257.2,305.6z"/>
			<path class="st9" d="M244.3,287.3c-2.8,6.1-0.9,18.5,2.2,24.6c1.1,2.2,13.9,0.6,14.8-1.7c3.3-8.5,1.7-14.8,3.3-23
				C266.3,278.1,248.2,278.8,244.3,287.3z"/>
			<path class="st7" d="M254.6,283.2c-7.2-0.2-16.1,22.4-18.9,32.8c-16.8-5.9-33.5-31.5-32.8-39.1c1.7-15.6,20.6-20.9,21.3-21.1
				c19.1-5.9,40.2,7.4,47.2,24.1c6.3,14.8-0.9,34.3-4.1,34.4C267.6,306.9,261.5,283.2,254.6,283.2z"/>
			<path class="st10" d="M307.8,371.9c0.6,6.7,0.6,13.5,0.2,20.2c-3.9,3.5-8.9,4.1-14.3,4.1"/>
			<path class="st10" d="M285.6,382.1c-1.1-8.7-2.8-17.2-5-25.7c2.8,2.4,15.4-0.2,24.3-1.9c0.7,1.1,1.1,2.4,1.3,3.7"/>
			<path class="st10" d="M284.3,364c5.7,1.1,11.7,0.6,17.2-1.1"/>
			<path class="st7" d="M189.7,378.8c-0.2,1.3-0.2,0.7-2.8,10.7c-4.4,17.4-4.4,18.5-7,28.3c-7,26.7-7.2,22.2-9.8,32.8
				c-1.1,4.6-3,8.9-5.4,12.8c-0.7,1.3-1.7,2.6-2.8,3.5c-7.8,4.8-34.8-15.6-40.2-36.7c-1.3-5.4-1.9-10.7-1.9-16.1
				c0-4.4,0.4-8.7,1.3-13.1c2-10.6,8.5-47.8,22.4-97c2-7.2,13.3-6.9,15.6-6.3"/>
			<path class="st7" d="M152.1,413.9c6.5,4.1,9.6,12.6,11.8,18.9c2.4,7,3.3,14.4,2.8,21.8c-0.6,5-0.9,9.6-4.1,14.4
				c-3.5,5.4-8.3,8-12.2,10.2c-3.3,1.9-6.5,3.5-10.9,4.1c-5.7,0.6-11.3-0.7-16.1-3.9"/>
			<path class="st7" d="M142.6,446.5c-1.3,2.8-4.1,8.7-10.4,12c-10.7,5.7-26.5,1.3-31.1-8c-2-4.1-1.7-8.5-1.1-13.9
				c0.4-4.1,0.9-8.9,4.4-13.7c2-2.6,4.6-4.8,7.6-6.5c4.6-3,10.9-6.7,18-5.2"/>
			<path class="st11" d="M106,446c0.4,0.4,2.6-2.6,6.5-4.1c4.8-1.9,9.6-0.6,12,0c3.5,0.7,6.9,2.6,9.6,5c4.8,4.4,5.9,10.2,7.4,17.8
				c0.9,5.2,1.5,7.8,0.6,10.4c-2.8,8-14.1,9.6-13.7,10.7c0.4,0.9,7.8,0.7,13.3-4.1c2.6-2.2,4.6-5.2,5.7-8.5
				c3.3-8.9,1.5-21.8-7.4-29.8c-0.6-0.6-8.7-7.6-19.4-6.5c-4.1,0.2-8,1.7-11.1,4.4C107.3,443,105.8,445.6,106,446z"/>
			<path class="st8" d="M123.6,447.1c-0.2-3.5-6.1-6.3-10.4-6.9c-0.9-0.2-2.6-0.2-10.4,2.4c-6.3,2-7.6,2.8-13,4.6
				c-5,1.7-7.6,2.4-10.2,2.4c-3.9,0.2-5-0.9-9.8-0.6c-3,0.2-5.2,0.4-7.6,1.7c-0.7,0.4-5.7,3.1-5.9,7.6c-0.4,5.9,7.8,10,9.1,10.7
				c6.7,3.3,13.3,2,16.1,1.3c4.1-0.9,7.8-2.6,11.1-5C112.6,453,123.7,451.9,123.6,447.1z"/>
			<path class="st8" d="M117.4,448.9c2.4-1.3,5-2.2,7.6-2.4c0.7,0,5.6-0.6,9.1,1.3c5.4,3,5.9,11.5,6.3,18.3
				c0.6,13.3-2.6,26.5-9.3,38.1c-3.3,5.7-5.9,8.3-10.9,13.3c-2.4,2.6-5.4,4.4-8.7,5.4c-1.7,0.7-3.7,0.7-5.4,0
				c-2.4-1.3-3-4.4-3.3-5.7c-1.7-8.5,4.4-22,7-32.6C114.7,466.2,110,453.4,117.4,448.9z"/>
			<path class="st8" d="M88.8,462.3c-0.6,2.6,0.9,4.3,0,9.1c-0.6,2.2-1.3,4.3-2.2,6.3c-4.1,9.4-4.3,9.3-5.4,12.6
				c-1.3,3.9-2.2,8-2.4,12c-0.4,5,0,7.2,1.1,9.1c0.7,1.7,2.2,3,3.9,3.9c3.3,1.5,7-0.6,8.7-1.3c10-5.2,18-20.7,23-31.7
				c8.1-18,7.2-22,5.7-24.6c-3-5-9.8-5.7-11.7-5.9C100,450.4,89.9,456,88.8,462.3z"/>
			<path class="st8" d="M104.3,471.9c-4.1,1.7-6.1,5.9-9.8,14.4c-2.4,5.6-4.3,11.5-5.4,17.4c-0.9,4.6-0.9,9.3,0,13.9
				c0.2,1.9,1.1,3.5,2.4,4.6c1.7,1.1,3.7,1.3,5.7,0.7c7-1.3,12.2-10.7,13.7-13.3c4.4-8.3,13.1-29.6,5-36.7
				C112.6,470.6,107.8,470.6,104.3,471.9z"/>
			<path class="st8" d="M106,451.3c-0.4,2.6,0,5.2,1.1,7.6c1.1,3.1,6.9,19.3,21.1,21.8c1.7,0.4,9.8,1.7,14.8-3.3
				c3.7-3.9,3.5-9.4,3.3-13.3c-0.2-2.4-0.7-11.5-8.1-18.3c-3.9-3.3-8.5-5.6-13.7-6.3c-2.8-0.7-5.6-0.7-8.1,0
				C110.8,441.3,106.9,445.8,106,451.3z"/>
			<path class="st8" d="M246.9,124.6c0-1.1,2.4-0.9,8-4.1c5-2.8,5-3.9,9.3-6.5c4.6-3,9.8-5,15.4-5.7c3.5-0.4,7-0.6,10.7-0.2
				c3.1,0,4.4,0.2,8.5,0.2c4.6,0,7,0,8.7-0.6c4.3-1.5,6.1-4.4,6.9-3.9s-0.4,2.8-1.7,4.6c-2.2,2.8-4.8,3.3-4.6,4.4s3.3,1.5,4.1,1.7
				c5.4,0.7,9.3-2,9.6-1.3c0.4,0.7-1.7,2.6-4.4,3.5c-1.5,0.6-2.8,0.6-3,1.1s0.9,1.3,1.1,1.3c1.1,0.6,2.6,0.7,3.9,0.6
				c-1.3,0.7-2.8,0.9-4.4,0.7c-1.5,0-2.2-0.6-2.4-0.2c-0.2,0.4,1.1,1.7,1.7,2.4c1.9,2.2,2,5,2.2,9.6c0.2,3.7,0.4,9.1-2.8,14.3
				c-1.3,2.2-3.1,4.1-2.8,4.6s1.7-0.2,2.8-0.7c1.5-1.1,1.9-2.8,2.2-2.8c0.2,1.1,0,2.2-0.6,3.3c-0.6,1.7-1.3,3.1-2.4,4.4
				c-2,2.2-5.4,4.4-8,4.4c-5.2-0.2-7.2-8.7-11.5-14.8C280,126.1,246.7,128.6,246.9,124.6z"/>
			<path class="st12" d="M148,205.1c0.4-0.2,0.9,3.7,4.4,5.7c2.2,1.1,4.6,1.3,7,0.7c3.9-0.7,7.4-2.6,10.2-5.4
				c4.4-5,4.6-11.8,4.6-14.4c0.2-6.3,1.1-32.8,16.1-50c7-8,14.8-11.5,20.7-14.3c15.2-6.9,28.9-6.5,36.3-6.3
				c10.7,0.4,21.5,2.8,31.5,6.9c9.6,3.9,19.4,8,27,18c5.2,6.9,7,13.7,9.1,20.2c2.4,8.9,3.7,18,3.9,27c0.2,7.4,1.5,14.6,2.2,21.8
				c0.2,1.7,0.6,5.9,3.5,8.1c1.3,1.1,3.1,1.7,5,1.7c3.9-0.4,5.9-4.4,6.9-3.9c0.9,0.6-0.2,3.5-1.7,6.3c-1.7,3.3-4.1,6.1-7,8.5
				c-5.4,4.1-10.2,4.3-10.2,5.7c0.2,0.9,2.4,1.5,3.9,1.7c4.3,0.4,7.2-2.6,8-1.9c0.7,0.7-1.3,3.7-3.3,5.9c-1.5,1.7-5,5.7-10.4,6.3
				c-2,0.2-3.7,0-3.9,0.2c0,0.4,3.1,0.9,6.5,3.5c0.4,0.4,2.8,2,2.4,2.8c-0.4,0.7-2.2-0.4-5.2-0.6c-3.7-0.2-7.4,0.9-10.7,3
				c-1.1,0.7-2.6,1.5-2.4,2.2c0.2,0.9,3.1,1.3,4.4,1.3c2.8,0.2,4.6-0.2,4.6,0s-3.5,1.7-8.1,2.4c-3.9,0.7-4.4,0.4-6.9,1.1
				c-2.8,0.9-5.4,2.2-7.6,4.1c-4.4,3.3-4.6,4.8-9.1,8.7c-2.8,2.6-5.9,4.8-9.3,6.5c-4.6,2-9.6,3-14.8,2.4c-5.4-0.6-10.4-2.2-15-5
				c-6.1-3.1-6.9-5.2-11.1-5.7c-5.2-0.7-9.6,1.5-10.2,0.6c-0.4-0.9,4.8-3.3,4.4-5.4c-0.4-1.7-3.9-2.8-6.9-2.8
				c-5.7,0.2-9.1,4.6-10.4,3.5c-0.7-0.7,0-3.1,1.1-5c2-3,5-3.3,5-4.1c-0.2-1.1-5.7-2.4-10.9-0.2c-5.7,2.4-7.8,7.8-9.3,7
				c-1.1-0.6-1.3-4.1,0-6.9c1.9-4.3,6.3-5.2,5.9-6.5c-0.4-1.3-4.1-1.1-6.9-1.1c-3.3,0-5.2,0-7,1.1c-3.9,2-4.6,6.1-5.4,5.7
				c-0.7-0.4-1.1-4.3,0.6-7.6c1.7-3.5,4.4-4.6,4.1-5.7c-0.4-0.9-4.3,0.2-9.3-0.2c-4.3-0.4-8.5-1.9-12-4.4
				c-6.5-4.6-9.3-12.2-8.5-12.8c0.4-0.4,1.5,1.3,4.4,2.8c3.1,1.5,6.7,1.9,10.2,1.3c3.1-0.4,6.7-1.7,6.5-2.4s-4.8,0.2-9.8-2.2
				c-5.6-2.6-8.3-8.1-8-8.5c0.4-0.4,2,2.2,5.4,2.8c2.8,0.4,5.7-0.7,5.7-1.7c0-1.3-7.2,0.2-12.8-3.5
				C147.3,219.2,147.3,205.3,148,205.1z"/>
			<path class="st13" d="M207.2,136.1c-4.4,3.1-8.3,5.7-12,10.7c-5,6.5-6.5,13-8.1,19.6c-1.9,7.6-1.3,9.6-4.1,23.1
				c-0.9,3.9-2.2,7.8-3.9,11.5c-2.2,4.8-3.7,6.5-4.4,7c-2.6,2.6-5.4,3.3-8.7,4.4c-4.1,1.3-8.1,2.4-12.2,0.7c-3-1.3-4.6-3.5-5-3.3
				c-0.2,0.2,1.9,3.7,5,6.5c2.6,2.4,7.8,7.2,14.3,7c2.8,0,5-1.1,5.7,0s-0.2,2.6-1.1,3.5c-2,2.4-5.4,2.2-5.4,3.3c0,0.7,1.7,1.7,3,2.2
				c5.2,1.7,9.1-1.3,10.4,0.2c1.1,1.3-1.1,4.6-1.3,5c-2,3-5.4,4.1-7.6,4.6c-2,0.6-4.3,0.7-6.3,0.7c-3-0.2-4.8-0.9-4.8-0.7
				s5.6,3.7,12.8,5.2c3.9,0.9,7.8,1.3,11.7,0.7c4.6-0.6,8-2.2,8.1-1.7c0.4,0.6-1.7,1.7-4.6,4.4c-2,1.9-6.3,6.3-5.7,7
				c0.4,0.6,3.1-1.1,6.5-2.2c10.2-3.3,20.2,0.2,20.2,0.7c0,0.4-2.4-0.2-5.4,1.3c-3.1,1.7-5.4,4.8-5,5.4c0.6,0.7,2.4-0.9,5.9-1.9
				c5.9-1.7,12.6-0.7,13.1,1.1c0.2,0.6-0.4,0.9-3.3,4.1c-4.3,4.6-4.3,5-4.1,5.2c0.4,0.6,3.1-1.5,7.4-2.4c5.2-1.1,11.1-0.4,11.7,1.7
				c0.4,1.3-1.7,3.5-2.2,4.1c-1.5,1.5-2.6,1.9-2.4,2.2c0.2,0.7,4.4-0.4,9.1,0.6c3.3,0.6,3.9,1.7,8.1,3.5c5,2.4,10.6,3.9,16.1,4.1
				c3.5,0.2,7-0.4,10.4-1.7c3.9-1.7,4.4-3.1,12-8.7c4.6-3.3,6.9-5.2,9.3-5.9c6.1-2.4,11.8-1.5,12-2.4c0-0.9-5.2-1.3-5.4-3.3
				c-0.2-2,5.2-4.6,5.4-4.6c4.3-1.9,8.1-1.5,8.1-2.2c0-0.7-4.6-1.5-4.6-2.8c0-0.9,3-1.5,7.4-3c5.4-1.9,9.8-4.3,9.6-5
				c-0.2-0.6-3,0.9-5.9-0.6c-1.9-0.9-3.7-2.8-3.5-4.6c0.2-1.1,0.9-1.7,4.1-3.5c5.6-3.1,7.4-3.7,10.4-5.9c1.9-1.5,4.6-4.1,4.1-5
				s-3.7,1.1-6.9,0c-2-0.7-3.7-2.8-5.7-8.1c-1.9-5-3-10.2-3.3-15.6c-0.2-12-0.6-23-1.9-30.9c-0.7-4.4-3-16.3-11.7-26.8
				c-8.9-10.6-20-14.3-29.8-17.4c-8.5-2.8-24.3-7.8-42.6-2.8C221.9,127.4,214.3,131.1,207.2,136.1z"/>
			<path class="st8" d="M189.7,169.9c3-7.2,3.3-11.1,5.2-14.8c3.9-7.4,9.1-15,12.8-18c13.9-11.7,32.8-8,33.3-12.8
				c0.2-1.3-1.3-1.7-5-5.9c-5.4-6.3-4.6-7.8-8-11.5c-5.9-6.5-15.6-9.6-23.1-9.6c-2.6,0-3.9,0.4-6.9,0c-7.2-1.1-11.5-5.4-12-4.6
				c-0.4,0.6,1.1,3,3.3,4.4c1.5,0.9,3,1.1,3,1.7s-2,1.1-2.2,1.1c-4.3,0.9-7.8-1.7-8.1-1.1c-0.2,0.4,0.7,1.7,1.9,2.4
				c2.4,1.9,4.4,1.5,4.6,2.4s-1.5,2-3,2.8c-3.5,1.5-6.7-0.2-6.9,0.6c-0.2,0.7,1.7,2,3.5,2.2c1.1,0,1.7-0.4,1.9,0
				c0.4,0.6-1.5,2.8-2.2,3.5c-3,3.7-3.3,8.3-3.9,14.4c-0.4,5.7-0.7,9.6,1.3,13.7c1.7,3.5,4.6,6.1,3.9,7c-0.4,0.6-1.7,0.2-2.2,0
				c-3.1-0.9-4.8-4.3-5.4-5.4c-1.3-2.8-1.3-5-1.7-5s-0.7,3.7,0,7.6c0.6,3.1,0.9,5.6,2.8,7.6c3,3.5,7.4,3.3,7.4,4.6
				c0,1.1-3.3,2.6-6.3,2.2c-3.5-0.4-5.6-3-6.3-2.4s0.6,2.6,1.3,3.9c1.5,2.2,3.9,3.9,6.5,4.4c2.6,0.4,4.1-0.9,5,0
				c0.7,0.9,0,2.8-0.2,3.5c-0.6,1.7-1.9,3.1-3.5,3.9c-1.7,0.6-3.1,0-3.3,0.2c0,0.2,1.9,1.1,4.1,1.3c2.2,0.4,4.4-0.4,6.3-1.7
				C188.4,171.8,189.1,170.9,189.7,169.9z"/>
			<path class="st14" d="M207.6,205.9c0.7-2.6,1.9-5,3.5-7c0.9-1.3,3.1-4.4,11.7-10.9c6.7-5,6.9-4.3,11.5-8.1
				c3.7-3.1,4.6-4.4,7.6-5.9c2.6-1.3,6.1-3.1,10.4-2.4c3.3,0.7,6.1,2.6,8.1,5.2c0.7,0.9,4.1,4.8,5.7,13.9c1.7,9.8-0.4,15.6,1.3,16.1
				c1.9,0.7,6.1-5.9,8.1-10.4c1.9-3.7,3.1-7.4,3.9-11.5c0.6-3,0.6-5.2,2.2-8.1c0.9-1.5,2-3.5,4.1-4.1c3-0.9,5.9,1.3,6.9,1.9
				c3.1,2.2,3.3,4.6,6.5,11.7c3.1,7,4.1,6.9,5.9,12.2c1.3,3.5,2.2,7,2.8,10.7c0.6,5,0.9,8-0.6,11.1c-2.4,5.4-8,7.4-9.6,8
				c-3.7,1.5-8,1.5-11.7,0.2c-6.3-2.2-9.8-8.1-10.2-8c-0.4,0.2,4.1,4.3,3,6.9c-1.3,3.5-11.5,4.3-13.9,0.6c-0.6-0.7-0.2-0.9-0.7-3.5
				c-0.6-2.6-1.5-7-3.3-7.4c-1.1-0.2-2,1.5-3.5,3.3c-3.5,4.3-8,5.9-13.9,8.1c-3.5,1.7-7.4,2.6-11.1,2.8c-1.9,0-12.2,0.4-19.4-7.6
				C212.4,222.5,205.6,214.7,207.6,205.9z"/>
			<path class="st8" d="M215.8,203.3c-0.6,1.5-0.7,3.1-0.7,4.6c0.2,3.7,1.7,7.2,4.1,9.8c4.1,4.8,9.6,5.7,12.2,6.3
				c4.4,0.7,8.9,0.4,13.1-1.1c3.3-1.1,6.3-3.1,8.7-5.7c2.6-3.1,4.1-6.9,4.6-10.9c0.6-3.3,1.3-6.7,0-10.7c-1.1-3.7-3.5-7-6.9-9.1
				c-3.9-2.2-7.8-1.9-10.7-1.7C227.8,186,218.3,195.9,215.8,203.3z"/>
			<path class="st8" d="M275.6,202.3c1.1-3.1,2.4-6.1,3.9-9.1c1.9-3.9,2.8-5.7,5-7c1.1-0.9,2.4-1.3,3.9-1.3c1.9,0.2,3.1,1.5,7.6,9.3
				c4.6,8,5,9.6,5.2,11.1c0.4,2.8,0,5.6-1.1,8.1c-0.4,0.9-3.1,7-9.6,8.7c-2.4,0.6-4.8,0.6-7,0c-3.5-1.1-6.5-3.7-8.1-7
				C273.1,211.2,274.3,207.3,275.6,202.3z"/>
			<path class="st13" d="M235.4,207.5c0.2-1.3,1.3-2,3.5-3.9c2.2-1.7,3.7-2.8,5.7-2.4c1.3,0.2,2.4,0.9,3.3,1.9
				c1.5,1.7,2,3.9,1.7,5.9c-0.9,3-4.1,4.3-6.3,4.4C239.3,213.8,235.2,210.3,235.4,207.5z"/>
			<path class="st13" d="M278.3,208.1c0-2.6,2.4-4.1,4.1-5.2c1.7-1.1,2.8-1.7,4.1-1.3c2,0.6,3,3.3,3,5.2c0,2.2-1.1,4.3-3,5.4
				c-1.9,1.1-4.3,0.9-5.9-0.2C279.3,211,278.5,209.7,278.3,208.1z"/>
			<path class="st14" d="M227.1,249.5c0.2-0.2-0.9-2.2-0.2-5.2c0.2-1.7,0.9-3.1,2.2-4.4c2.6-2.2,6.5-0.7,6.5-1.3
				c0.2-0.6-3-2.6-6.3-2.2c-0.6,0-3.7,0.6-5.2,3C221.7,243.6,226.5,249.7,227.1,249.5z"/>
			<path class="st14" d="M261.1,274.2c0.2-0.4,1.9,0.9,3.9,0.2c2.8-0.9,3.3-4.4,4.4-4.1c0.7,0.2,0.9,1.9,0.6,3.3s-1.5,2.6-3,3
				C263.7,277.5,260.9,274.5,261.1,274.2z"/>
			<path class="st8" d="M260.6,229.4c-0.6,1.7-0.6,3.3,0,5c0.6,1.1,1.3,2,2.2,2.8c3.3,2.6,7.8,1.5,15.4-0.2c0.7-0.2,1.7-0.6,2.2-1.1
				c1.7-1.7,1.3-4.4,1.1-5.7c0-1.1-0.4-2-0.7-3C277.8,222.3,262.8,223.6,260.6,229.4z"/>
			<path class="st13" d="M268.2,231c0.2,0.6,1.1,0.6,3,0.7c2,0.4,4.3,0.2,6.3-0.7c0.6-0.4,2-1.3,1.9-2.2c-0.2-0.9-2.6-1.9-4.4-1.9
				C271.3,227,267.8,229.9,268.2,231z"/>
			<path class="st15" d="M279.1,257.5c0.4,0.6-2,1.9-5,5c-2.2,2.4-2.4,3.1-4.1,4.1c-0.4,0.2-0.7,0.4-1.1,0.6c0-0.9,0-1.9-0.2-2.6
				c-0.4-1.7-0.9-3.3-1.9-5c-0.7-1.1-1.7-2-2.6-3c1.5-0.4,2.8-1.3,3.7-2.2c1.3-1.3,1.9-2.6,2.8-2.4c1.1,0.2,0.6,2.8,2.4,4.4
				c1.1,0.7,2.2,1.3,3.5,1.3C278.1,257.7,278.9,257.1,279.1,257.5z"/>
			<path class="st16" d="M268.7,264.4c0.2,0.9,0.2,1.9,0.2,2.6c-1.1,0.4-2.2,0.6-3.1,0.6c-2.6,0.2-5-0.4-7.4-1.3c-3-1.1-5.6-2.8-8-5
				c-1.7-1.5-3.9-3.9-3.5-4.4c0.4-0.4,1.7,0.7,4.1,1.3c3.5,0.9,6.7,0,9.8-0.7c1.3-0.4,2.4-0.7,3.3-1.1c0.9,0.9,1.9,1.9,2.6,3
				C267.8,260.8,268.5,262.5,268.7,264.4z"/>
			<path class="st10" d="M264.3,256.6c-0.9,0.4-2,0.7-3.3,1.1c-3.1,0.9-6.3,1.9-9.8,0.7c-2.4-0.6-3.9-1.7-4.1-1.3
				c-0.2,0.4,1.9,3,3.5,4.4c2.2,2.2,5,3.9,8,5c2.4,0.9,4.8,1.5,7.4,1.3c1.1,0,2.2-0.2,3.1-0.6c0.4-0.2,0.7-0.4,1.1-0.6
				c1.7-0.9,1.9-1.7,4.1-4.1c3-3,5.2-4.4,5-5c-0.2-0.4-0.9,0.2-2.4,0c-1.3,0-2.6-0.6-3.5-1.3c-1.9-1.7-1.5-4.1-2.4-4.4
				c-0.7-0.2-1.5,1.1-2.8,2.4C266.9,255.3,265.6,256,264.3,256.6z"/>
			<path class="st10" d="M264.3,256.6c0.9,0.9,1.9,1.9,2.6,3c0.9,1.5,1.7,3.1,1.9,5c0.2,0.9,0.2,1.9,0.2,2.6"/>
			<path class="st10" d="M237,247.7c0.7,1.3,1.7,2.6,2.8,3.9c1.5,1.7,3.3,3.1,5.4,4.4c3,1.7,6.3,2.4,9.6,2.4c4.4,0,8.7-1.3,12.2-4.1
				c1.7-1.3,3-3.1,3.9-5.2c0.2-0.7,0.4-1.7,0.6-2.4c0.4-3.3,0.6-6.7,0.6-10.2"/>
			<path class="st10" d="M270.9,249c0,0.9,0.4,4.3,1.7,5.9c0.9,1.5,2.6,2.6,4.4,2.8c2.4,0.2,4.8-0.6,6.9-1.9
				c1.3-1.1,2.2-2.6,2.8-4.1c0.4-0.9,0.7-2,0.7-3"/>
			<path class="st14" d="M288.1,240.7c-0.2,0.2,0.9,1.1,1.3,3.3c0.4,1.5,0.4,3.1,0,4.6c-0.6,3.3-1.7,5-1.3,5.2
				c0.4,0.2,2.2-1.9,3.3-4.6c0.9-1.7,1.1-3.5,0.6-5.2C291.1,241.6,288.5,240.3,288.1,240.7z"/>
			<path class="st10" d="M180.2,513.5c-3.3,8.9-5.9,17.8-8,27c-2,10.2-1.5,15.2-3.5,30.4c-1.5,10.6-3,17.8-3.9,21.8
				c-2.6,12.8-5.9,36.7-10.2,85.9"/>
			<path class="st10" d="M250.9,595.4c1.7-0.9,4.3-1.9,7-3c10.4-3.9,20.2-5.4,20.6-4.6c0.2,0.7-7,2.6-18.3,8.5
				c-0.7,0.4-14.1,7.4-13.3,9.1c0.4,0.9,6.3-0.6,12.8-2.2c7-1.9,10.7-3.1,10.9-2.8c0.2,0.6-2.8,2.2-9.3,5.9c-4.4,2.6-8,4.8-10.4,6.3
				"/>
			<path class="st10" d="M246.3,622.8c0,9.3,0.2,21.3,0.6,35.5c0.2,4.3,0.6,21.3,2.2,46.5c0.9,14.6,2.4,33.7,5.4,71.3
				c0.6,6.5,1.1,14.1,1.7,20.2"/>
			<path class="st10" d="M176.3,533c3,0.9,6.1,1.3,9.3,1.3c4.8,0,9.6-1.1,13.9-3.3c4.3-2.2,7.8-5.6,10.4-9.6"/>
			<path class="st10" d="M171.9,569.8c3.1,0.6,6.3,0.9,9.6,1.1c6.1,0.4,12.8,0.7,18.5-1.1c10.7-3.3,16.3-13.9,19.6-20.2
				c3.9-7.6,6.1-16.1,6.3-24.6"/>
			<path class="st10" d="M288,518.2c2.8,8.7,4.4,17.8,5.2,27c0.2,3,0.4,8.7,4.4,12.8c1.5,1.7,3.3,2.8,5.4,3.5"/>
			<path class="st10" d="M265.4,524.1c0.6,7.8,0.7,14.4,0.7,19.6c0.4,12.4,0,17-0.6,21.3c-0.4,3.5-1.1,7.2-1.9,10.7"/>
			<path class="st4" d="M255,503.7l0.6,10.7c0,0.9,0.9,1.7,1.9,1.7c0,0,0,0,0.2,0l14.8-1.9c0.9-0.2,1.5-0.9,1.5-1.7v-10.7
				c0-0.9-0.7-1.9-1.7-1.9H272l-15.6,1.9C255.7,501.9,255,502.8,255,503.7z"/>
			<path class="st10" d="M190.8,384.3c1.3-0.9,2.4-1.9,3.5-3c2.6-2.8,4.4-6.3,5.2-10.2"/>
			<path class="st10" d="M188.5,389c0.9-0.2,1.9-0.4,2.8-0.6c2.2-0.6,4.4-1.5,6.5-2.4"/>
			<path class="st10" d="M163.5,411.2c-3.3-2.4-6.3-5.2-8.7-8.5c-3-4.1-5-8.5-6.3-13.3c-1.3-4.4-1.9-8.9-1.7-13.3"/>
			<path class="st10" d="M138.2,398.2c1.3,8.9,6.7,16.8,14.4,21.3"/>
			<path class="st10" d="M163.2,418.6c3,6.9,4.6,14.3,5.2,21.8"/>
			<path class="st10" d="M327.4,415.8c2.6-2,5.6-3.5,8.7-4.4c5.6-1.3,11.5-0.4,11.5,0.6s-3.5,0.9-7.6,2.8
				c-5.2,2.4-9.6,6.3-12.6,11.1"/>
			<path class="st10" d="M201.5,467.6c3.1,4.3,6.5,8.3,10.4,12c6.5,6.1,14.1,10.9,22.2,14.4c3.1,1.5,8.9,4.1,9.8,2.8
				c0.6-0.7-0.7-2.6-2.2-5c-2.4-3.9-4.4-8.1-5.9-12.6"/>
			<path class="st10" d="M279.6,493c3.5-0.9,6.7-2.4,9.6-4.6c4.3-3.1,7.4-7.6,9.3-12.6"/>
			<path class="st10" d="M174.1,489.9c-5-0.6-8.5-5.2-8-10.2c0-0.7,0.2-1.5,0.6-2.2"/>
			<path class="st10" d="M186.1,329.7c5.2,11.3,7.4,23.9,5.9,36.3"/>
			<path class="st13" d="M147.1,303.2c1.7-2.6,5.4-1.7,5.4-1.7c3-0.2,6.5,0.9,12.6,6.3c4.6,4.1,8.7,8.7,12,13.9s7.6,12.2,9.1,22.2
				c0.6,4.1,0.6,8.1,0,12.2c-0.6,5.9-2.6,12.6-6.9,25.9c-3.1,9.6-4.1,11.7-4.6,12.8c-1.3,2.2-2.4,3.7-3,6.5
				c-0.4,1.7-0.4,2.8-1.1,3.3c-1.5,0.9-4.4-0.9-5.4-1.7c-3.9-2.6-6.5-6.1-8.7-10.7c-3-5.4-4.8-11.1-5.7-17.2
				c-0.9-6.7-0.2-10.7-1.3-10.9c-1.3-0.4-4.1,5-5.4,9.8c-2,7.2-1.5,15,1.7,21.8c4.4,9.6,12.8,13.5,12,14.8c-0.6,0.9-5.9-0.9-9.8-4.1
				c-3.3-2.8-6.1-6.5-7.6-10.7c-2-5.2-1.7-8.3-2.8-8.5c-1.3,0-3.1,5.2-3.3,10.2c-0.4,3.7,0.6,7.2,2.4,10.4c1.7,2.4,3.7,3.9,3.5,4.1
				s-2.8-1.9-6.3-3c-4.6-1.5-7.6,0.4-9.1-0.6C118.2,404.5,140.6,314,147.1,303.2z"/>
			<path class="st13" d="M106,425.8c1.9-3.3,4.4-4.8,8-6.9c3.7-2,7.6-3.5,11.7-4.4c4.1-0.9,8.3-1.1,12.6-0.6c1.5,0.2,3,0.6,4.4,1.1
				c2,0.9,3.9,2,5.4,3.5c2.2,2.2,4.1,4.8,5.2,7.6c3.5,7,4.4,11.8,5,11.7c0.6-0.2,0.4-4.6-0.7-9.3c-1.1-4.6-2.4-7-2.2-7
				s3.5,4.3,5.7,9.8c1.1,2.8,1.9,5.6,2.2,8.5c0.9,5.6,1.3,8.3,0,10.9c-1.7,3.1-4.6,5.2-8.1,5.7c-0.7,0.2-1.7,0.2-2.4,0
				c-1.9-0.7-2.4-3.7-2.4-4.4c-1.1-5.9-6.5-13.3-10.9-16.8c-3.9-3-8.7-4.8-13.7-5c-4.1-0.4-8.1,0.7-11.7,2.8
				c-4.3,2.6-5.6,6.3-7.4,5.7c-1.5-0.6-1.9-3.7-1.9-5.2C103.9,431,104.5,428.2,106,425.8z"/>
			<path class="st13" d="M164.1,297.3c-3.3,2.6,10.6,4.4,20.7,15.9c5.2,6.1,9.1,13.5,10.9,21.3c1.3,4.6,3.7,13.5,1.7,24.1
				c-1.7,8.3-5.4,14.1-4.4,14.8c0.9,0.6,3.7-2.4,5.7-5.4c3.1-5,3.1-9.3,3.9-9.3c0.7,0,1.3,4.6,0.7,9.3c-0.4,3.1-0.7,7.2-3.5,10.9
				c-2.4,3.1-5,4.3-4.6,5s3.1,0.2,5.4-1.1c2.2-1.3,2.8-2.6,3.3-2.4c1.1,0.6,0.4,9.1-5,15.6c-2.4,3-4.3,3.7-6.3,5.4
				c-5.7,4.8-6.1,11.5-9.8,38c-2.4,17.2-2.8,18.3-3.5,20c-3.1,7-7.6,11.3-5.9,16.7c0.7,3,3,4.8,5,6.5c3.7,3.3,7.4,4.3,12.6,5.7
				c13.3,3.7,20,5.4,20.6,4.4c0.4-1.1-5.4-2.6-9.8-8.7c-6.1-8.3-5-18.5-4.6-21.8c0.4-3.5,1.7-10.6,3.9-10.7c1.7,0,2.2,4.8,5.9,12.8
				c3.3,7.4,8.3,14.1,14.4,19.4c3.7,3.1,7.6,5.4,8,5s-2.4-2.4-3.9-6.3c-1.3-3.5-0.7-6.7,0-10.2c0.6-2.6,2.4-11.8,5.4-12
				c0.6,0,2,0.2,6.5,10.2c4.1,8.7,4.4,11.8,8.1,17.2c2,3,5.2,7.4,8.1,6.9c1.9-0.4,3.1-2.4,3.5-4.4c0.7-3.5-1.9-5.7-6.3-12.2
				c-3.9-5.9-7-10.7-8.1-16.8c-0.6-3-0.6-6.1,0-9.1c3-22.4,3-67.9,3-75.2c0-20.4-1.3-17.8-0.6-27.6c0.6-9.3,0.4-18.5-0.7-27.6
				c-0.2-2.2-0.7-6.1-1.9-6.3c-1.1,0-2.4,4.4-2.4,4.6c-0.6,1.9-0.2,2.6-0.6,3c-1.3,1.3-8.1-2.8-15-8.7c-7.4-6.5-20-19.6-21.7-26.3
				c-0.2-1.1-0.7-2-1.7-2.8c-1.9-1.1-4.8,0.6-5.7,1.1C185.6,291.2,168.4,293.8,164.1,297.3z"/>
			<path class="st13" d="M206.9,280.8c-0.7,1.9,0.9,3.9,4.1,8.1c9.1,11.7,8.1,11.1,9.8,12.8c6.1,6.3,7.6,5.4,10.4,9.1
				c0.4,0.4,1.5,1.9,2.2,1.7c0.7-0.2,0.7-1.9,0.7-2.8c0.4-4.3,1.7-8.3,3.9-12c1.9-3.3,3.9-4.4,3.3-5.9c-0.2-0.7-0.7-0.9-3-2.2
				c-5.9-3.3-6.5-4.1-8.7-4.4c-0.9-0.2-0.4,0-3.9,0c-1.9,0-3.7,0-5.4-0.2c-2.2-0.4-5.6-0.9-5.9-2.4c-0.4-1.7,2-2.8,1.7-3.9
				c-0.6-1.1-3-0.9-4.4-0.6C210.8,278.2,207.8,279,206.9,280.8z"/>
			<path class="st13" d="M265.4,293.8c-0.6,0.7,0.4,1.7,1.3,4.1c1.9,4.8,1.5,8.1,2.2,8.1s1.1-1.9,1.7-3.5c1.1-3.7,1.7-5.7,0.6-7.4
				C269.6,293.1,266.1,292.7,265.4,293.8z"/>
			<path class="st13" d="M268.2,322.7c-1.3,5.9,2.8,6.7,4.1,17.8c0.9,7.8-0.7,11.8,1.9,13.7c0.7,0.6,1.5,0.6,9.1-0.6
				c6.7-0.9,10-1.5,12.6-2.2c6.5-1.7,6.3-2.6,8-2.2c6.5,1.5,8.7,16.5,10.2,27c1.1,8,1.1,12.8,1.7,12.8c0.7,0,2-9.6,1.9-19.6
				c0-5.7-1.3-13.9-3.9-29.4c-5-31.7-4.8-20.2-5-23.7c-0.2-2.8-0.2-7.6-3.5-10.4c-1.7-1.3-3.1-1.5-6.5-1.9
				c-13.5-1.9-16.3-4.1-19.1-1.9c-1.7,1.1-1.1,2-3.3,7C272,318,269.3,317.9,268.2,322.7z"/>
			<path class="st13" d="M282.6,397.7c-2.4,1.9,0.4,7.4,3.9,20.7c3.1,12.2,4.3,20.2,5.7,32.2c0.9,5.4,0.9,10.9,0.2,16.5
				c-1.1,8-3.3,11.7-4.4,13.1c-2.4,3.5-5.2,5.2-5,5.4c0.2,0.2,6.3-2.6,11.1-8.1c5.2-5.9,6.1-11.7,7.4-11.5s0.9,5.7,0.6,8.5
				c-0.4,3.3-1.3,6.5-2.8,9.3c-1.3,2.2-2.2,3.3-1.9,3.9c0.6,0.9,4.4-0.2,7.4-2.4c3.9-3.1,5-7.8,5.9-12.6c0.7-4.1,1.1-8.3,1.1-12.6
				c0.2-4.1,0-6.9,0-8.5c-0.2-7.2,0.9-11.8,2.4-21.1c2.8-16.8,5-30.5,1.9-31.7c-1.1-0.4-1.7,0.9-5.2,1.9c-2.8,0.7-5.6,0.9-8.5,0.6
				C291.3,400.2,285.4,395.6,282.6,397.7z"/>
			<path class="st13" d="M286.3,367.7c-0.7,0.9,0,1.7,0.7,5.9c1.1,4.3,1.7,8.5,1.7,12.8c0,2.2-0.2,3.9,0.7,5.2
				c1.1,1.1,2.6,1.9,4.1,2.2c1.3,0.2,2.8,0.4,4.1,0.2c1.1,0,1.3,0,1.5-0.2c0.4-0.6-1.7-1.7-3-3.5c-1.7-2.2-2-4.8-2.4-9.8
				c-0.4-3.5,0-4.4,0.2-5c0.9-1.9,2.8-3,5-3c2.8,0.2,4.3,3.7,5.2,3.3c0.4-0.2,0.4-0.9,0-4.4c-0.4-4.4-0.6-5-1.1-5.4
				c-1.1-0.7-2.6,0.2-5.2,0.7C291.5,368.4,288,365.8,286.3,367.7z"/>
			<path class="st13" d="M283.7,359c0.6-0.7,1.9-0.2,3.9,0c2.4,0.2,5,0.2,7.4,0c4.8-0.4,8-2.4,8.1-1.9c0.4,0.6-1.3,1.7-2.4,2.4
				c-3.5,2.4-5.2,1.5-13.1,3c-0.9,0.2-1.9,0.2-2.8-0.2C283.7,361.6,283,359.7,283.7,359z"/>
			<path class="st13" d="M414.2,415.4c-2.4,0.9-3,3.5-3.5,4.6c-0.9,2.2-1.3,4.6-1.3,7c-0.2,3,0.2,1.5,0.6,8.7c0,1.1,0.2,2.8,1.1,3.3
				c0.4,0.2,0.9,0.2,1.9,0c1.7-0.4,3.3-0.9,5-1.9c0.6-0.2,0.9-0.6,1.3-1.1c0.9-1.5,0-3.1-0.6-5c-0.7-2.6-0.2-4.8,0.6-8.1
				c1.3-5.6,4.3-7.4,3.3-8.7C421.4,413,417.2,414.3,414.2,415.4z"/>
			<path class="st13" d="M336.8,419.3c-0.6-0.4-4.8,3.3-8,8.5c-0.7,1.1-7,11.5-3.3,16.1c1.5,1.9,4.3,2,6.9,2.2c15,0.9,10,2.6,23.5,3
				c14.3,0.4,11.3-1.7,28.7-1.9c7.8,0,16.1,0.2,18-3.9c0.4-1.1,0.6-2.2,0.6-3.3c0.6-5.4-0.2-6.5,0.2-9.6c0.7-5.7,4.3-8.1,3-9.8
				c-0.6-0.7-1.9-0.7-3.5-0.7c-3.7,0-7.4-0.7-11.1-0.6c-6.7,0.4-6.3-1.1-21.3-2.2c-6.7-0.6-10.2-0.7-14.3-0.2
				c-4.4,0.6-9.8,1.1-15,4.4c-6.5,4.1-9.4,10.2-9.8,9.8C330.9,430.8,337.8,420.1,336.8,419.3z"/>
			<path class="st13" d="M337.9,412.8c-2.6,0.7-5,2-7,3.9c-5.2,4.8-5.7,11.3-6.5,11.1s-1.3-3.9,0.2-7.4
				C327.8,413.9,337.9,412.5,337.9,412.8z"/>
			<path class="st13" d="M342.9,406.7c-0.7,0.9-2.8,0.2-4.4,0c-6.3-0.6-11.1,6.7-12,5.9c-0.6-0.6,1.3-3.5,3-5.7c3.7-5,7-6.7,6.5-7.4
				s-4.1,0-6.5,2.4c-1.7,1.7-2.2,3.3-2.4,3.3s1.7-5.6,2.8-10.7c0.9-5.2,0.7-10.6-0.2-15.9c-2.8-17.2-8.1-33-8-33
				c0.2,0,8.1,29.8,15.4,42c2.8,5,3.5,10.9,5.7,16.1C342.8,404.5,343.5,406,342.9,406.7z"/>
			<path class="st17" d="M248.2,295.6c-0.7,0.7-0.4,1.5,0.2,6.9c0.6,4.4,0.4,5.4,1.3,6.3c1.5,1.3,3.5,1.1,5,1.1c1.3,0,2.4-0.2,3-0.7
				c0.6-0.7,0.7-1.5-0.2-5.4c-1.1-4.1-1.5-5.7-2.8-6.9C252.8,295.1,249.5,294.3,248.2,295.6z"/>
			<path class="st17" d="M252.6,318c-1.1,0.2-0.2,9.1,0.6,30.5c1.9,52,3.1,83.9,1.1,94.8c-0.9,4.4-0.9,8.9,0,13.3
				c0.6,2,1.1,4.1,1.9,5.9c2.6,7.2,3.7,8,8.5,18.3c2.4,5.2,3.1,7.2,5,7.4s3.7-2,5.2-4.1c2.8-3.7,4.6-8,5.4-12.6
				c0.9-6.1,0.7-12.2-0.6-18.3c-6.5-26.3-8.5-53.3-14.4-79.8C256.7,335.8,254.1,317.9,252.6,318z"/>
			<path class="st18" d="M179.1,536.5c1.1-0.6,1.7,0.2,5.2,0.6c4.1,0.6,8.1,0,12-1.1c2.6-0.7,11.5-3.3,15.6-10.4
				c0.9-1.5,1.7-3.3,2.4-3.3c0.7,0.2,1.3,3.1,1.1,5.7c-0.4,3.1-1.7,5-1.3,5.2c0.6,0.4,6.5-9.4,8.1-8.7c1.5,0.7-0.7,9.3-1.1,10.4
				c-1.9,7.2-4.1,15-11.1,22.4c-4.4,4.4-9.6,8-15.6,10.2c-8.7,3.1-18.9,3.7-20,1.1c-0.4-0.7,0.4-1.3,1.3-4.4
				c0.6-1.9,0.9-3.7,1.1-5.7C178,549.1,175.4,538.5,179.1,536.5z"/>
			<path class="st18" d="M181,529.1c-0.7-1.5,1.3-2.6,2.4-8.1c0.6-2.8,0.2-3.9,1.1-4.4c1.7-1.1,4.1,1.9,9.3,3.5
				c5.6,1.7,9.1,0.4,9.6,1.7c0.6,1.5-4.1,4.4-7.6,5.9C190,530.2,182.2,531.5,181,529.1z"/>
			<path class="st18" d="M171.7,574.6c2.2-1.3,4.6,0.6,9.3,1.3c5,0.9,8.9-0.2,14.8-1.7c6.1-1.3,12-4.1,16.8-8
				c5.2-4.3,7.6-8.7,10.9-15c4.4-8.3,7.4-13.9,7.4-21.1c0-1.5-0.2-4.3,0.7-4.6s3,2.4,4.1,5c2.6,5.9,0.9,11.3,1.7,11.5
				c0.7,0.2,2.2-3.7,3.3-7.6c1.7-6.1,0.7-7.8,2.4-9.3c2.2-1.9,5.7-1.5,9.6-1.1c1.3,0,2.4,0.2,3.5,0.7c3.1,2,2.2,8.3,1.9,11.5
				c-2.2,19.8,2.6,21.8-1.7,35.5c-1.5,4.3-3.3,8.3-5.4,12.2c-8.9,18.3-13.3,21.7-17.8,32.6c-1.5,3.9-2.2,6.5-5.4,25.7
				c-5,29.3-6.5,40.7-6.5,40.7c-8.5,60.2-9.6,67.9-11.1,76.6c-4.6,26.3-7.2,32-6.9,36.7c0.2,1.5,0,2.8-0.7,4.1c-1.9,3-6.5,3-8.5,3
				c-23.5,0.4-33.5,3.5-36.7-2.4c-0.6-1.1-0.9-2.4-0.7-3.5c-0.4-19.1-0.7-28.5,0.6-34.1c5.7-27,13.1-160,12-179.6
				C169.1,582.2,168.7,576.5,171.7,574.6z"/>
			<path class="st18" d="M167.3,511.7c2-0.9,4.4-0.7,6.3,0.7c2.2,2.4-0.4,7.6-2.4,14.3c-0.7,2.6,0.2,0-4.1,22.4
				c-3.3,17.2-4.8,25.7-5.4,25.7c-0.9,0,0.7-11.3,1.1-34.1C163,523.5,162.3,513.9,167.3,511.7z"/>
			<path class="st18" d="M271.9,527.2c-1.3,0.4,0.6,8,0.7,23c0.2,11.1-0.7,6.7-0.7,18.5c0,5.2,0.2,8.7-2.2,12
				c-2.8,3.9-7,4.4-6.9,5.4c0.4,1.1,7.4,0.9,14.3-0.7c3.9-1.1,6.3-2.2,6.9-1.3s-1.7,4.3-4.1,6.5c-6.7,6.1-15.2,5.6-15,6.5
				c0,0.9,5.9,2.2,11.5,0.2c3-1.1,4.8-2.6,5.2-2.2c0.4,0.4-2.8,4.6-6.3,8c-9.4,8.9-20.2,11.8-20,12.8c0.4,0.9,11.3-3.1,13.3,0
				c0.9,1.3-0.2,3.5-1.1,5.2c-2.6,5.2-6.3,5.6-7.6,9.1c-1.5,3.9,1.7,8.1,2.4,9.6c4.3,6.7,5.2,20.4,7.4,47.6
				c3.5,46.1-3,79.4-0.2,90.7c0.6,2.4,2.8,8.5,0.2,14.3c-0.6,1.3-1.1,1.9-0.7,2.8c1.5,4.3,22.2,0.7,22.2,0.7l0,0c0,0,3-1.5,3.5-1.9
				c3.5-2,2.2-10.2,2.4-19.4c0-5,0.4-4.1,0.7-11.5c1.3-26.1,3.9-174.2,5-185.1c0.4-3.3,0-6.7,0.6-9.8c0.4-1.1,0.4-2.4,0-3.5
				c-1.1-2.6-4.4-2.8-6.9-3.9s-5-3.5-8.1-15.6c-3.5-13-3.9-23.1-4.4-23.1c-0.6,0,1.1,23-1.9,23.5
				C279.1,545.8,273.9,526.7,271.9,527.2z"/>
			<path class="st18" d="M294.3,521.1c-1.5,1.3-0.6,3.9,1.9,12.6c4.3,15,5,19.8,5.9,19.6c0.7,0,0.6-2.8,1.3-10.2
				c1.3-12.4,3-15.2,0.7-18.3C301.8,521.3,296.3,519.5,294.3,521.1z"/>
			<path class="st19" d="M165.8,826.8c-1.3-2.4,0.2-5.7,1.1-7.6c1.7-3.5,4.6-6.1,8.1-7.6c5.6-2.2,10.6-0.2,12.8,0.7
				c2.8,1.1,6.1,2.6,7.4,5.9c0.9,2.6,0.6,5.4-0.7,7.6c-2.4,3.5-7.4,3.5-15.9,3.5C171.3,829.4,167.3,829.4,165.8,826.8z"/>
			<path class="st19" d="M147.6,826.2c-1.7-3.3,1.7-7.4,2.4-8.5c3.3-4.3,8.1-5.2,12-5.7c3.5-0.6,3.9,0,4.1,0.2
				c0.7,1.3-2,3.1-3.3,7.6c-1.1,4.1,0.4,5.4-1.1,7.4c-1.9,2.6-6.3,2.8-9.1,2.2C151.5,829.2,148.7,828.5,147.6,826.2z"/>
			<path class="st19" d="M130.8,828.8c-1.1-1.9,1.1-5.2,1.7-5.9c1.9-2.4,4.6-4.3,7.6-5c2.8-0.9,6.7-1.3,7-0.2
				c0.4,0.7-1.3,1.5-2.2,4.1c-0.7,2.4,0,3.3-0.6,4.6C142.8,830.5,132.6,832,130.8,828.8z"/>
			<path class="st19" d="M282.6,807c-0.4,3.3,7.6,8.3,13.7,7.4c1.3-0.2,1.7-0.6,5.2-1.3c4.6-1.1,6.3-0.9,6.5-1.9
				c0.6-1.5-3-4.1-4.6-5.2c-2-1.7-4.4-3-7-3.5C290.4,801.3,282.8,803.8,282.6,807z"/>
			<path class="st19" d="M314.3,813.3c0.2,0.4,2.6-1.3,7-1.7c2.2-0.2,4.4,0,6.5,0.6c7.4,1.9,10.7,7.8,11.7,7c0.9-0.6-0.6-4.6-3-7.6
				c-2.2-2.6-5.2-4.3-8.5-5C320.2,805.7,313.9,812.7,314.3,813.3z"/>
			<path class="st19" d="M96,462.5c0.2-0.9,3.1-0.2,5-2.2s0.6-3.7,1.3-6.5c1.7-5.7,9.3-8,10.9-8.5c2.8-0.9,9.3-2.2,10.9,0.6
				c0.9,1.5,0,3.3-1.7,6.9c-1.9,3.9-3.3,7.2-7,10.2c-3,2.4-6.9,3.9-10.7,3.9C100,466.3,95.8,463.6,96,462.5z"/>
			<path class="st19" d="M122.3,467.6c0-2.6,0.2-5.4,0.7-8c0.9-3.3,1.9-7.2,4.6-8.1c3.3-1.1,7,2.8,7.4,3c3.5,3.7,3.3,8.9,3.3,12.6
				c-0.2,5.4,0,9.6-3.3,12.6c-3.1,3-9.4,4.1-12,1.7C121.9,480.2,121.9,476,122.3,467.6z"/>
			<path class="st19" d="M92.5,513.5c-0.4-0.7-0.7-1.7,0.6-6.9c0.6-3.1,1.5-6.1,2.8-9.1c0.9-2.8,2.4-5.2,4.4-7.4
				c1.3-1.3,4.6-5,7-4.1c2.8,0.9,2.8,7.2,2.8,8.7c0,5.7-2.4,9.8-5.9,15.9c-2.8,4.6-4.1,5.6-5.4,5.7
				C96.2,516.9,93.8,515.6,92.5,513.5z"/>
			<path class="st19" d="M110.6,514.1c-1.3-0.9-0.9-3.7-0.7-5.7c0.2-2,0.7-3.9,1.7-5.7c3.1-8.3,3.9-9.1,4.6-9.8
				c0.4-0.4,3.7-3.1,5.9-2.2c2.8,1.1,3.3,7.6,1.9,12C121.5,510.4,113,515.6,110.6,514.1z"/>
			<path class="st19" d="M82.1,503.7c-0.6-2.4,0-5,2.2-10.2c2.4-5.4,3.5-8.1,5.9-10.2c2.2-1.9,6.5-4.3,8.1-3
				c2.2,1.7-0.9,9.1-2.2,11.7c-0.6,1.3-3.5,9.6-9.1,13.7c-0.9,0.9-2,1.3-3.3,1.1C82.6,506.5,82.3,504.5,82.1,503.7z"/>
			<path class="st19" d="M61.4,462.6c-0.7-1.7-0.9-3.5-0.2-5.2c1.3-2.6,4.6-3.1,6.9-3.5c3.3-0.6,5.9,0,10.4,1.1
				c5.2,1.3,7.8,1.9,8.1,3.5c0.7,2.6-3.3,5.9-5.4,7.4c-3.3,2-7.2,2.6-10.9,1.9C68.2,467.6,63.2,466.7,61.4,462.6z"/>
			<path class="st19" d="M466.1,391.2c-0.9-1.1-0.6-3.1,0-7c0.6-3.5,1.5-7,3-10.4c1.7-3.5,2.6-5.6,4.6-5.9c3-0.7,5.9,2.8,6.3,3.3
				c3.9,4.8,1.9,11.5,1.7,12.2c-0.7,2.4-2,4.6-4.1,6.3C474,392.5,468.1,393.6,466.1,391.2z"/>
			<path class="st19" d="M433.8,408.9c-0.6-2.2,2.8-4.8,4.4-5.9c4.1-3,9.1-4.4,14.3-4.4c3.1,0.2,4.1,0.9,7.4,0.6
				c2.6-0.2,4.1-0.9,5.2,0c1.3,1.1,0.7,4.1,0.6,4.6c-0.9,4.3-4.8,7.6-8.7,9.1c-3.3,1.3-6.3,0.9-12,0S434.4,411.4,433.8,408.9z"/>
			<path class="st19" d="M430,416c1.9-0.9,3.9-1.5,5.9-1.3c3.5,0,7,0.2,10.4,0.6c6.1,0.6,8,0.9,10.2,1.7c1.7,0.4,3.3,1.1,4.6,2.2
				c2.4,2,5,6.1,3.9,8.1c-1.9,3.3-12,1.3-24.6-1.1c-3.3,0-6.9-0.7-9.8-2.2c-1.5-0.7-3.7-2-3.9-3.9C426.6,418,429.4,416.4,430,416z"
				/>
			<path class="st19" d="M473.5,403.9c0.4-0.9,5.7-0.2,6.9,0c3.1,0.6,5.9,1.5,8.7,3c5.4,2.8,7.6,5.4,8.1,6.3c0.4,0.6,1.9,2.4,1.3,3
				s-3.7-1.1-5.4-2.2C481.2,407.3,473.1,405.2,473.5,403.9z"/>
			<path class="st19" d="M472.5,410.6c0.6-0.9,3.7,0.2,9.6,2.2c10.6,3.7,12.8,5.9,13.9,7c2.4,2.6,4.1,6.3,3.3,7
				c-0.7,0.7-2.6-1.1-7-3.3c-7.8-3.9-10.4-3-15-6.9C474.8,414.9,472,411.7,472.5,410.6z"/>
			<path class="st19" d="M472.4,422.3c0.6-1.1,7,1.7,9.1,2.4c3.7,1.5,6.3,2.6,8.7,5.2c2.6,2.6,5,6.7,4.1,7.6
				c-1.1,1.1-6.7-2.8-10.7-5.4C482.7,431.7,471.4,423.8,472.4,422.3z"/>
		</g>
	</g>
</g>
<circle class="st20" cx="255" cy="255" r="245.5"/>
</svg>
