<?xml version="1.0" encoding="utf-8"?>
<!-- Generator: Adobe Illustrator 21.0.0, SVG Export Plug-In . SVG Version: 6.00 Build 0)  -->
<svg xmlns:xlink="http://www.w3.org/1999/xlink" version="1.1" id="Слой_1" xmlns="http://www.w3.org/2000/svg" x="0px" y="0px"
	 viewBox="0 0 1000 1000" style="enable-background:new 0 0 1000 1000;" xml:space="preserve">
<style type="text/css">
	.st0{clip-path:url(#SVGID_2_);}
	.st1{fill:#272628;stroke:#000000;stroke-width:8;stroke-linecap:round;stroke-linejoin:round;}
	.st2{stroke:#000000;stroke-width:8;stroke-linecap:round;stroke-linejoin:round;}
	.st3{fill:#94D3D1;stroke:#000000;stroke-width:8;stroke-linecap:round;stroke-linejoin:round;}
	.st4{fill:#8E8B7D;stroke:#000000;stroke-width:8;stroke-linecap:round;stroke-linejoin:round;}
	.st5{fill:#66645A;stroke:#000000;stroke-width:8;stroke-linecap:round;stroke-linejoin:round;}
	.st6{fill:#DDC533;stroke:#000000;stroke-width:8;stroke-linecap:round;stroke-linejoin:round;}
	.st7{fill:none;stroke:#000000;stroke-width:8;stroke-linecap:round;stroke-linejoin:round;}
	.st8{fill:#FF2A49;stroke:#000000;stroke-width:8;stroke-linecap:round;stroke-linejoin:round;}
	.st9{opacity:0.5;fill:none;stroke:#FFFFFF;stroke-width:8;stroke-linecap:round;stroke-linejoin:round;enable-background:new    ;}
	.st10{fill:#F4F4EA;stroke:#000000;stroke-width:8;stroke-linecap:round;stroke-linejoin:round;}
	.st11{fill:#E2E2D7;stroke:#000000;stroke-width:8;stroke-linecap:round;stroke-linejoin:round;}
	.st12{fill:#AEB3B7;stroke:#000000;stroke-width:8;stroke-linecap:round;stroke-linejoin:round;}
	.st13{fill:#315D7C;stroke:#000000;stroke-width:8;stroke-linecap:round;stroke-linejoin:round;}
	.st14{fill:#4C4A41;stroke:#000000;stroke-width:8;stroke-linecap:round;stroke-linejoin:round;}
	.st15{fill:#D9D9D9;stroke:#000000;stroke-width:8;stroke-linecap:round;stroke-linejoin:round;}
	.st16{fill:#FFFFFF;}
	.st17{fill:#D9D9D9;}
	.st18{fill:#380208;}
	.st19{fill:#6A0006;}
	.st20{fill:#FFFFFF;stroke:#000000;stroke-width:8;stroke-linecap:round;stroke-linejoin:round;}
	.st21{opacity:0.4;fill:#FFFFFF;enable-background:new    ;}
	.st22{opacity:0.2;fill:#FFFFFF;enable-background:new    ;}
	.st23{fill:#282828;}
	.st24{opacity:5.000000e-02;fill:#FFFFFF;enable-background:new    ;}
	
		.st25{opacity:0.2;fill:none;stroke:#FFFFFF;stroke-width:8;stroke-linecap:round;stroke-linejoin:round;enable-background:new    ;}
	.st26{fill:none;stroke:#11113F;stroke-width:20;stroke-miterlimit:10;}
</style>
<g id="Слой_2">
	<g id="Слой_1-2">
		<g id="Слой_2-2">
			<g id="Слой_1-2-2">
				<g>
					<defs>
						<circle id="SVGID_1_" cx="502" cy="501" r="464.9"/>
					</defs>
					<clipPath id="SVGID_2_">
						<use xlink:href="#SVGID_1_"  style="overflow:visible;"/>
					</clipPath>
					<g class="st0">
						<g id="Layer_3">
							<path class="st1" d="M787.7,1300c5.7,11.9-0.8,8.4,10,73c3.7,22.3,4.5,45.1,10,67c1.7,6.2,2.4,12.6,2,19
								c-0.2,3.8-0.8,5.7-2,13c0,0-1.6,9.2-3,20c-1.8,13.8-0.5,24.7,0,31c1.7,19.7,1,73-1,89h-402c-5-32-1-83-5-127
								c-3-33.6,0.2-60.5,13-93c29.5-74.8,90.5-111.5,100-117c61-35.6,119.2-32,146-30C686.8,1247.3,765.1,1253.2,787.7,1300z"/>
							<path class="st2" d="M1036.7,756c-7.4-8.6-22.6-7.8-39-7c-8.8,0.4-15.9,2.3-30,6c-14.4,3.8-18.7,6.2-22,10
								c-4.7,5.3-6.3,11.9-7,15c-2,8.5,0.5,10.1-2,19c-1.3,4.5-3,8.8-5,13c-2.7,5.6-4.1,7.1-4,10c0.1,5.4,5,9.4,7,11
								c2.9,2.3,11.7,8.5,31,7c9.9-0.8,37.6-2.8,57-26C1036.2,797.9,1047.8,769,1036.7,756z"/>
							<path class="st3" d="M411.7,684c1.5-17.8,17.6-29.8,26-36c53-39.4,132.3-2.7,142,2c37.5,18,54.3,42.5,58,48
								c9.1,13.8,22.4,33.9,17,56c-6.6,27-37.5,41.9-59,46c-30.4,5.8-53.9-7.5-99-34C451.4,739.4,409.1,714.5,411.7,684z"/>
							<path class="st4" d="M669.7,687c7.8-4.5,22.1,3.5,32,9c9.6,5.3,18.4,12.1,26,20c43.3,46.8,80.3,95.4,116,128
								c10.1,9.2,19.8,18.9,30,28c24.1,21.6,28.2,23.2,30,30c5.7,21.7-24.8,49.7-48,63c-8,4.6-42.9,24.5-79,15
								c-55.3-14.5-72.8-88.3-108-236C665.6,731,657.1,694.2,669.7,687z"/>
							<path class="st5" d="M984.7,932c-1.2,5.7,1.1,11,2,13c2.6,5.8,7.2,10.4,13,13c8.1,3.6,15.5,1.9,19,1c6.1-1.5,11.6-4.6,16-9
								c5.4-5.4,8.9-12.4,10-20c0.9-5.9,2.1-13.3-2-18c-7.2-8.1-25-1.8-33,1C1000.9,916.1,987,921,984.7,932z"/>
							<path class="st6" d="M987.7,965c3.6-0.7,9.7-5.8,22-16c12.6-10.5,9.5-9.5,20-18c7-5.7,10.6-7.9,10-10c-0.8-3.1-9.4-1.8-20-4
								c-2.9-0.6-25.2-5.2-34-20c-8.3-14.1,1.5-27.8-6-33c-6.4-4.5-19,1.7-26,8c-14.6,13.1-13.4,34.3-13,41c0.3,6,1.5,22.3,14,36
								C957.2,951.8,971.9,968,987.7,965z"/>
							<path class="st4" d="M783.2,956.5c-5.2,4,0,11.1-0.5,18.5c-0.3,4.9,2.4,9.6,20,25c17,14.9,25.6,22.4,38,29
								c7.9,4.2,17.4,9.2,31,12c8.5,1.8,22.9,4.6,40,0c13-3.5,21.7-9.8,29-15c8.9-6.4,11.2-9.9,25-23c9.5-9,17.8-16.9,27-24
								c23.6-18.2,39-24,42-29c0.7-1.1-8.7,6.6-26,7c-7,0.2-16.2,0.4-26-4c-13.5-6.1-20.1-17.6-25-26c-4-7-12.5-21.7-11-40
								c1.8-22.1,16.8-35.5,13-39c-2.5-2.3-8.5,3.8-25,9c-8.3,2.6-15.9,3.7-31,6c-14.1,2.1-14.7,1.5-21,3c0,0-26.5,8.5-39.5,22.5"/>
							<path class="st7" d="M774.7,841c3.7,2.6,7.7,4.6,12,6c5.5,1.7,11.3,2.3,17,2c5.1-0.1,10.1-0.8,15-2"/>
							<path class="st7" d="M797.7,863c5.6,1,11.3,1.7,17,2c8.8,0.5,13.6,0,23,0c15.2,0,22.9-0.1,23,1c0.2,1.6-14.3,5.3-28,7
								c-10.3,1.2-20.7,1.5-31,1c-10.3-0.3-18.9-1.2-25-2"/>
							<path class="st7" d="M853.7,878c-9.3,3.7-17.7,9.2-25,16c-6.9,6.7-12.6,14.4-17,23c-1.5,2.9-2.8,5.9-4,9"/>
							<path class="st7" d="M834.7,920c2.6-6.1,5.9-11.8,10-17c2.2-2.8,7-8.6,8-8s-3,7-7,17c-3.5,8.9-8.3,21.3-7,36
								c0.4,4.8,1.4,9.5,3,14"/>
							<path class="st2" d="M973.7,846c-4.7,8.4-3.4,20.1-2,32c1,8.5,1.8,15.4,6,23c8.1,14.7,22.4,20.4,29,23c6.3,2.5,18,7,32,4
								c6.4-1.4,10.5-3.7,18-8c9.2-5.2,20-11.6,27-24c2.6-4.3,4.3-9,5-14c0.7-6.9-0.7-13.9-4-20c-3.1-5.7-7.6-10.5-13-14
								C1050.9,833.7,987.7,821,973.7,846z"/>
							<polygon class="st8" points="930.7,877 932.7,904 956.7,890 1052.7,703 1022.7,689 							"/>
							<line class="st9" x1="1027.2" y1="701.5" x2="944.2" y2="874.5"/>
							<path class="st2" d="M960.7,832c-7.1,10.8-6.7,15.3-6,21c1.7,14.1,28.7,21.8,42,24c24.3,4,43.2-3.7,56-9
								c18-7.4,24.2-14.9,27-19c3.7-5.4,6.1-11.5,7-18c0.4-3.8,1.4-16.8-7-27c-6.8-8.3-16.2-10.4-24-12c-30.2-6.3-61.2,6.7-78,23
								C971.2,821.3,962.1,829.8,960.7,832z"/>
							<path class="st2" d="M963.7,791c-4.4,7.4-5.8,12.2-6,17c-0.4,9.1,3.5,18.7,9,24c18.2,17.5,64-2.3,88-21
								c9.7-7.6,15.6-14.8,18-24c0.6-2.4,4.4-16.7-4-28c-6.5-8.8-16.6-10.7-23-12c-20.7-4.1-38.1,4.9-46,9
								C984.9,764.4,972.5,776.5,963.7,791z"/>
							<path class="st6" d="M445.7,689c0.7-0.7,26,30.8,69,57c14.4,8.7,29.8,15.4,46,20c18.9,5.4,36.6,10.1,52,1
								c6.3-3.9,11.5-9.4,15-16c1.5-2.7,7.3-14.2,3-41c-3.8-23.6-11.7-36-10-37c3.1-1.9,33.2,35.7,61,83c13.9,23.7,47.6,84.4,72,175
								c43.6,161.9,8.2,235.9,25,305c2.2,9.1,10.1,37.7-5,57c-0.8,1-3.3,4.1-10,9c-28.3,20.7-62.6,23.8-89,26
								c-10.7,0.9-20.5,1.7-34,1c-18-0.9-34.3-4.3-67-11c-5.6-1.2-8.5-1.8-9-2c-27-12.5-11.9-90.8-5-161c4.3-44,11.8-149.2-11-266
								c-15.5-79.3-35.1-113.9-47-132C477.5,720.1,444.9,689.7,445.7,689z"/>
							<path class="st7" d="M506.7,753c4.7,5.7,10.1,10.7,16,15c14.6,10.6,28.6,13.7,39,16c12.7,2.8,27.8,6,46,1
								c7.1-2,16.7-4.6,25-13c10.5-10.6,12.4-23.6,14-34c3.2-21.4-1.7-39.6-6-51"/>
							<path class="st2" d="M578.7,728c-4.8-7.7-10.2-15-16-22c-6.9-8.3-10.5-11.2-13-13c-4.9-3.5-10.3-6.2-16-8
								c-30.4-10.2-49.3-16.6-49-21c0.3-5.9,34.5-7.5,54-7c27.1,0.6,34.8,5.4,38,11c1.8,3.2,2.2,7.1,3,15c0.7,6.9,0.4,11.7,0,20
								C579.4,708.5,579,717.1,578.7,728z"/>
							<path class="st3" d="M533.7,739c4.4-4.2,8-13.6,8-35c0-4,2.8-9.5,6-10c4-0.6,4,1,10,6c-10-13-16.4-12.3-31-24
								c-44.4-35.7-109.9-54-118-41c-4.9,7.8,11.5,25.8,28,44C474.8,721,517.7,732,533.7,739z"/>
							<path class="st3" d="M579.7,698c2-6,1.4-12.2,4-13c3.1-1,12.1,11.5,15,26c1.7,8.1,0.8,13.8,2,14c1.7,0.2,5.1-11.3,7-22
								c3.6-20.4,5.9-33.7-2-43c-9-10.6-28.9-13.7-36-6C559.4,665.2,582.7,673,579.7,698z"/>
							<path class="st4" d="M611.7,649c0.5-0.4,10.7,13.1,29,24c9.9,5.9,17.1,8.1,23,9c5.9,0.9,7.4,0.2,12,1c9.7,1.8,17,7.7,24,15
								c20.5,21.5,30,43,30,43c31.8,63.6,42,118,42,118c6.4,23.6,14,52,21,91c1.9,10.7,7.9,44.5,12,90c5.6,61.8,4.7,110.2,4,144
								c0,0-1.7,79.4,2,125c0.6,7.4,1.7,15.3,4,31c3.1,21.2,4.1,24,6,27c1.1,1.8,3,4.4,3,8c0,4.7-3.3,8-7,12
								c-15.3,16.5-14.1,19.5-21,22c-4.8,1.8-10,2.1-15,1c-6.2-1.4-10.5-5.6-19-14c-6.2-6-9.3-9.1-11-14c-1.5-4.5-1.9-9.3-1-14
								c2.4-15.6,1.6-91.7,0-244c-0.2-19.6-0.4-40-2-68c-3.4-60.5-7.1-126.6-30-206c-16.3-56.6-29.4-101.8-66-150
								C639.2,683.6,610.9,649.7,611.7,649z"/>
							<path class="st4" d="M599.7,632c-8.2-7.2,24.4,39.2,65,127c3,6.5,30.7,67.1,50,137c35.4,128.4,26.6,231.1,29,231
								c2.8-0.1-2.3-142.2,0-213c0.3-8.6-0.2-28.7-1-69c-0.5-25.6,0-29.2-3-34c-15-24-36-41-49-51c9-8,17.3-18.3,11-30
								C693.7,715,622.7,652,599.7,632z"/>
							<path class="st7" d="M598.7,1277c12.4-0.6,24.8-2.3,37-5c14.8-3.3,30.5-6.7,48-17c12.1-7.2,22.9-16.3,32-27"/>
							<path class="st7" d="M615.7,1301c12.7,0.3,25.4-0.4,38-2c15.1-1.9,29.8-3.8,47-11c13.9-5.9,26.7-14,38-24"/>
							<path class="st7" d="M598.7,1303c12.8,3.9,25.8,6.9,39,9c12.8,2,32.5,5,58,3c16.1-1.3,27.6-2.2,40-7c3.8-1.5,6.9-2.9,9-4"/>
							<path class="st4" d="M313.7,774c-0.8-5.3-0.4-10.8,1-16c0.8-3.2,2.2-6.3,4-9c4.5-6.5,11.3-9,14-10c6.1-2.4,14.8-7.6,32-18
								c16.6-10,25-15.1,32-25c6-8.5,6.1-13.2,11-15c10.8-3.9,26.4,13.7,32,20c54.9,62.8,82.4,94.1,96,123
								c53.8,114.2,66.3,248.2,77,363c0,0,4.8,51.8-6,203c-0.3,3.7-0.9,7.4-2,11c-7.4,25.3-32.9,43.2-57,49c-8.1,2-14.2,2-26,2
								c-17.4,0-38-1.6-79-11c-18.5-4.2-54.7-13.2-78-28c-8.3-5.3-17.1-12.7-21-24c-1.1-3.2-1.8-6.6-2-10
								c-2.6-36.3,39.2-134.7,51-151c1.6-2.1,2.6-4.5,3-7c0.8-5.7-2.1-10.5-3-12c-4.6-7.9-4-16.3-9-37
								C383.7,1172,347,1018.3,313.7,774z"/>
							<path class="st4" d="M420.7,645c-5.4-0.3-6.6,10.8-21,28c-6.1,7.3-8.1,8-9,12c-1.7,7.8,4,14,15,29c13.3,18.2,20,27.2,22,34
								c5.1,17.1-1.7,26.2,6,34c3.6,3.6,7.4,4,22,6c38.9,5.3,41.6,6.4,43,9c4.5,8.6-8.5,28-20,45c-4,5.9-7.4,10.4-6,15
								c2.2,7,13.3,7.6,24,12c13.8,5.7,21.1,15.3,33,31c30.9,40.8,55.6,171.5,61,171c4-0.3,6-72.6-11-161c-6.9-36.2-13.8-58.3-17-68
								c-11.2-34.3-23-70.2-52-107c-18.3-23.2-32.8-41.6-52-52c-6.3-3.4-16.5-7.8-25-19C425.9,653.7,425.4,645.3,420.7,645z"/>
							<path class="st4" d="M439.7,945c-5.9,5.9-12.3,8.9-20,19c-4.6,6.1-8.3,12.8-11,20c-15.2,38-16.4,52.8-26,69
								c-9.7,16.4-22.4,24.9-36,34c-41.5,27.8-110.5,44.7-133,17c-11-13.5-8.7-34.8-8-42c0.5-4.5,1.7-12.1,16-41
								c20.7-41.8,23.7-37,29-55c4.3-14.6,7.2-34.3,15-35c2.9-0.3,6.2,2.1,7,1c0.9-1.2-3-5-5-8c-6.1-9.4-0.2-22.9,3-32
								c5.2-15,4.5-31.4,7-47c9.5-58.7,9.2-68.4,20-78c8.1-7.2,17-9.3,24-11"/>
							<path class="st2" d="M396.7,1081c-1.6-2.1-0.3-3.8,12-35c9.3-23.5,12-31.6,21-40c4.6-4.2,9.6-7.8,15-11c9.4-5.4,12-4.5,21-10
								c9.5-5.8,11-9.5,15-9c6.5,0.9,10.6,11.6,12,18c5.3,24.2-15.1,47.5-20,53C446.7,1076.5,404.1,1090.4,396.7,1081z"/>
							<path class="st10" d="M478.7,874c1.2-0.7,4.4,5.2,13,9c5.4,2.3,11.2,3.3,17,3c47.9-1,107-11,107-11s3.6-0.6,31-6
								c23.9-4.7,29.2-5.9,36-10c13.9-8.4,16.4-18.3,20-17c7.6,2.7-1.7,47.4-9,83c-4.3,20.8-6.5,31.3-9,35
								c-25.7,37.5-124.8,37-173-13C484,918.2,475.6,875.6,478.7,874z"/>
							<path class="st11" d="M467.7,888c1.9-3.2,16.4,2.1,19,3c7.2,2.5,29.1,8.6,165-16c16.1-2.9,24.5-4.6,35-10
								c12.5-6.5,22.3-15.4,25-13c1.8,1.5-0.5,6.9-1,8c-12.5,30.1,17.9,152,40,208c4.6,11.7,9.2,21.4,19,29c9.2,7.2,18.2,8.7,18,12
								c-0.4,5.2-23.8,7.5-29,8c-60.7,5.6-91,8.4-103,6c-59.3-12.1-79.8-68-158-173c-1.9-2.6-17.1-23-21-37c-1.3-4.7-1.8-10.4-6-18
								C468.7,891.4,466.9,889.3,467.7,888z"/>
							<path class="st12" d="M519.7,903c-5-7.3-4-14-4-14c0.1-0.9,0.9-6.1,5-9c2.4-1.5,5.2-2.2,8-2c12.6,0.4,41.4-2.7,57-6
								c18.4-3.9,27.7-5.9,28-6c2.4-0.8,8.4-3,15-1c2.2,0.6,4.2,1.6,6,3c6.4,5.3,6.1,14.7,6,18c-0.1,2.4-0.4,4.7-1,7
								C634.3,911.8,533.7,923.5,519.7,903z"/>
							<path class="st13" d="M457.9,912.2l245.2-36.7c5.4-0.8,10.6,2.7,11.8,8l61,255.3c1.4,5.7-2.1,11.4-7.8,12.7c0,0,0,0,0,0l0,0
								c-0.3,0.1-0.7,0.1-1,0.2l-228.6,32.2c-5.1,0.7-10-2.4-11.6-7.3l-77.7-250.7c-1.7-5.6,1.4-11.5,7-13.2
								C456.8,912.4,457.3,912.3,457.9,912.2L457.9,912.2z"/>
							<path class="st2" d="M466.7,998c2.6,1.1,0,6.9,4,12c6.1,7.8,21,5.8,33,4c16.1-2.4,29.6-7.3,45-13c8.7-3.2,15.8-6.2,27-8
								c14.9-2.4,20.6-0.2,23,1c10,4.8,13.6,14.8,14,16c3.1,9.2,0.2,17.5-1,21c-7.5,21.4-38.1,37.2-60,47c-48.4,21.8-46.7,11-111,34
								c-19.9,7.1-37.2,14.3-47,6c-9.6-8.1-6.2-26-6-27c3.6-17.6,17.4-20.6,38-42C450.5,1023.2,461.2,995.6,466.7,998z"/>
							<path class="st2" d="M534.7,1052c12.7-9.9,34.9-30.3,65-32c9.7-0.6,17.7,1,24,6c10.6,8.5,13.4,24.5,10,36
								c-3.3,11.3-13,19.4-40,31c-36.8,15.7-71.6,30.6-121,26c-24.2-2.3-65.9-10.4-66-21C406.5,1084.4,475.8,1097.8,534.7,1052z"/>
							<path class="st2" d="M396.7,1111c-0.1,9.7,10.6,18.8,12,20c8.5,7.1,18.7,8.5,34,9c16.7,0.5,33.4-0.2,50-2
								c43.6-4.2,51.4-1.9,78-8c11.9-2.7,26.6-6.9,38-19c4.4-4.6,7.8-10,10-16c3.2-9.4,3.2-20.7,0-27c-6.9-13.7-34-14.5-68-11
								C496.9,1062.5,397,1081.7,396.7,1111z"/>
							<path class="st5" d="M425.7,1151c5.2,7.8,2.5,18.9,2,21c-2.9,11.8-11.4,18.2-14,20c-16.8,12.1-47.3,11.2-56-5
								c-5.2-9.6-1.5-22.2,4-30C376.5,1136.1,415.4,1135.6,425.7,1151z"/>
							<path class="st6" d="M343.7,1062c10.9-3.5,20.5,6.2,40,0c8.1-2.6,19.9-8.9,19-5c-2,9-4,14.8-3,30c1.1,16.8,10.4,33.8,23,43
								c15.8,11.6,26,10,37,10c-14,11-46,38-88,55c-29.5,11.9-44-39.8-46-45C311.3,1113.9,324,1068.3,343.7,1062z"/>
							<path class="st4" d="M208.2,1050.5c-3,9-4.6,16.3-8.5,29.5c-2.1,7.1-13,44.8,8,82c15.4,27.3,39.4,38.9,50,44
								c14.4,7,30,11.1,46,12c11,0.6,18.1-0.7,44-6c72.4-14.9,72-25,72-25s-4.9,7.3-16,5c-22.4-4.7-36-19.8-38-22
								c-7.2-8.3-12.4-18.3-15-29c-1.3-4.7-8.4-31.6,5-54c13.7-22.9,29-27,40-30c-8,0.1-16.1-0.5-24-2c-12.2-2.1-24.2-5.1-36-9
								c-10.8-3.4-21.9-6.1-33.1-8.1"/>
							<path class="st7" d="M283.7,1027c14.7-2.4,29.8-1.4,44,3c21.2,6.7,36.1,20.2,39,17c2.1-2.3-4.2-11.4-6-14
								c-5.8-8.3-17.9-22.2-42-32"/>
							<path class="st7" d="M236.7,1074c8.4-9.1,18.6-16.2,30-21c15.5-6.4,32.5-8.1,49-5"/>
							<path class="st7" d="M288.7,1058c-7.3,1.2-14.4,3.5-21,7c-17.2,9.2-25.7,23.5-29,30"/>
							<path class="st7" d="M272.7,925c1.7,3.2,4.1,5.9,7,8c2.8,2,8.5,5.1,21,4c20.8-1.8,41.9-13.8,49-18"/>
							<path class="st7" d="M272.7,919c3.5,3.8,8,6.6,13,8c9.1,2.5,17-0.6,23-3c5.9-2.4,11.3-5.7,16-10"/>
							<path class="st7" d="M399.7,1215c2.7,4.2,6.1,7.9,10,11c8.9,7,18,8.8,25,10c12,2.1,24.3,1.4,36-2"/>
							<path class="st14" d="M570.7,1258c-6.3,2.6-7,10.5-7,11c-0.3,4.3,1.3,10.4,7,13c4.8,2.1,10.5,0.9,14-3c4-4.5,3.5-10.8,1-15
								C582.8,1259.1,576.3,1255.8,570.7,1258z"/>
							<path class="st7" d="M468.7,1446c-1.9,7-5.1,20.5-7,32c0,0-2,12.1-3,26c-1.4,19.3-1.8,61.5,0,108"/>
							<path class="st7" d="M452.7,1445c-1,6-1.7,12-2,18c-0.7,14.4,0.7,26,2,36c0.7,5.4,1.5,9.9,2,13"/>
							<path class="st7" d="M516.7,1493c-1.8,4.3-4.1,8.3-7,12c-5.1,6.4-11.6,11.6-19,15"/>
							<path class="st7" d="M668.7,1330c0.1,17.2,0.1,31.5,0,42c-0.2,23.1-0.3,34.9-1,50c-0.8,16.5-2,30-3,39"/>
							<path class="st7" d="M700.7,1497c-12.1,7.1-24.4,15.1-37,24c-3.8,2.7-7.4,5.3-11,8"/>
							<path class="st7" d="M656.7,1536c19.4-2.7,38.1-9.1,55-19"/>
							<path class="st7" d="M770.7,1463c-8.5,9.6-18.2,18.1-29,25c-23.8,15.2-46.7,19.2-46,22c0.6,2.4,18.2,0.4,22,0
								c5.7-0.6,11.4-1.6,17-3"/>
							<path class="st7" d="M665.7,1550l14,15"/>
							<path class="st7" d="M651.7,1539c-2.4,9.6-4.8,19.6-7,30c-2.7,12.7-6,31.1-8,43"/>
							<path class="st7" d="M713.7,1408c-4.9,8.3-10.6,17-17,26c-5.7,8-11.4,15.3-17,22"/>
							<path class="st7" d="M585.7,1462c0.7-9,2-25,2-34"/>
							<path class="st7" d="M604.7,1416c3.1,6.2,6.1,12.9,9,20c4.8,11.7,8.8,23.8,12,36"/>
							<path class="st2" d="M496.7,272c0.8-2.9,13.5,1.3,35-5c9.4-2.7,17.6-6.6,29-12c16-7.6,14.3-8.2,22-11c12.8-4.7,26.5-6.4,40-5
								c7.3,0.8,15.7,1.8,25,7c16.7,9.3,23.4,24.9,26,31c3.9,9.2,5.9,19,6,29c0.4,13.5-2.5,23.9-7,40c-2.5,8.8-2.3,5.9-7,21
								c-1.4,4.5-2.4,7.9-5,12c-1.6,2.5-6.6,10.4-11,10c-6.7-0.6-9.7-20.2-11-26C626.2,307.8,494.3,281.1,496.7,272z"/>
							<path class="st15" d="M255.7,567c0.4-0.3,2.2,2.6,6,5c4.5,2.7,9.8,3.7,15,3c7.1-1.2,11.4-6,14-9c4.1-4.7,7.8-11.5,10-27
								c1.4-9.9,1.8-20,1-30c0,0-2.3-29.6-2-60c0.2-16,0.4-36.7,8-60c9.6-29.5,26.3-48.5,34-57c32.7-36.4,71.7-48.8,89-54
								c26.6-8,54.4-10.7,82-8c11.8,1.2,31,3.2,54,13c19,8,36.3,19.5,51,34c16.7,16.8,25.1,33.2,31,45c10.3,20.4,14.4,37.3,18,52
								c4.9,20,9.7,39.4,10,64c0.1,8.4,2.1,18.6,6,39c0.9,5.6,3.3,10.8,7,15c2.9,3.3,6.7,5.8,11,7c2.2,0.6,6.5,1.8,11,0
								c6-2.4,7.8-8.5,9-8s0.3,7-2,14c-2.7,8.1-6.3,18.8-16,25c-8.5,5.4-17.1,4.4-17,6c0.1,1.4,7,3.5,14,2c9-2,13.7-9,15-8
								c1.2,0.9-1.3,7.2-6,14c-5.5,7.9-11.7,13.3-30,26c-16.2,11.2-16.7,10.7-23,16c-7.2,6.1-13.9,12.8-20,20
								c-11,12.9-10.4,15.8-19,24c-4,3.8-10.3,9.8-20,14c-13.8,6-26.4,5-38,4c-13.7-1.2-15.2-3.5-33-7c-3.9-0.8-10.4-2-46-5
								c-39.4-3.4-36.8-2.4-47-4c-16.3-2.6-32.4-6.6-48-12c-19.9-6.5-27.8-11.1-31-13c-14.2-8.6-25-19.5-24-21c0.5-0.8,3.9,1.8,11,3
								c5.3,1,10.8,0.7,16-1c4.7-1.7,10.5-5.2,10-7c-0.6-2.2-10.1,0-22,0c-11.6-0.1-23.1-2.1-34-6c-6-2.1-27.8-9.8-44-30
								C260.1,576.9,255.1,567.4,255.7,567z"/>
							<path class="st16" d="M335.7,438c-1.1,17.3-0.3,20.1-2,46c-0.8,11.3-3.2,25.5-8,54c-1.1,6.6-2.7,15.3-9,24
								c-2.3,3.2-6.9,9.5-15,13c-12.5,5.4-23.9,0-25,3s10,9.8,12,11c8,4.9,19,10.2,40,15c16.8,3.9,25.2,5.8,33,4
								c13.3-3.1,20.8-11.7,24-9s-2.1,14.2-3,16c-1.6,3.3-6.1,12.7-16,17c-8.5,3.7-15.7,1.5-16,3c-0.5,2.6,22.1,9.2,25,10
								c20.5,5.9,34.3,9.8,54,11c15.3,0.9,14.7-1,33,0c13.1,0.6,26.2,2.2,39,5c21.7,4.8,23.7,9,48,14c17.7,3.6,25.1,3.2,31,2
								c9-1.9,17.5-5.6,25-11c4.7-3.3,8.8-7.9,17-17c15.1-16.8,13.9-17.7,21-24c6.8-6.1,13.1-9.8,25-17c7.2-4.3,14.3-9,21-14
								c7.4-5.6,10.6-8.7,10-10c-0.7-1.5-5.5,1.2-13,0c-5.3-0.9-10.1-3.3-14-7c-2.6-2.6-6.2-7.3-5-9c1.1-1.6,4.9,0.8,11,1
								c8.3,0.2,14.7-3.8,18-6c7.4-4.8,14.7-13.2,13-16c-1-1.7-4.5,0.1-10-1c-7.6-1.5-12.4-7-15-10c-8.5-9.8-9.6-22-10-26
								c-3-31.6-9-71.4-13-91c-6.4-31.1-15.9-50.7-18-55c-5.7-11.5-13.7-27.6-29-43c-22.1-22.1-46.7-29.7-67-36
								c-19-5.9-49.8-15-89-8c-13.1,2.4-39,7.3-65,27c-32.8,24.9-44.7,57.5-48,67C338.8,390.7,337.6,408.4,335.7,438z"/>
							<path class="st17" d="M438.7,498c-1.7,5.5-2.3,11.3-2,17c0.2,4,1.1,17.8,11,29c11.3,12.9,27.4,14.3,36,15
								c19,1.6,33.2-5.3,41-9c9.4-4.6,18.7-9,26-19c6.6-9.1,7.1-16.5,12-17c5.5-0.6,10.7,8.4,15,16c3.4,5.9,7.3,13.1,5,20
								c-1,3-2.6,4.3-2,5c1.7,2.1,13.8-11.5,31-12c7-0.2,11.8,1.9,14-1c2.2-2.9-0.4-8.8-2-12c-3.8-7.5-9.2-14-16-19
								c5.6,5.6,12,10.3,19,14c5,2.6,9.2,4.8,15,5c1.7,0.1,10.8,0.4,18-6c8.2-7.3,8.1-18.4,8-24c-0.1-8.7-2.8-14.8-6-22
								c-5.3-12-11.8-19.7-18-27c-7.5-8.8-12.4-14.4-21-19c-5.3-2.9-11.2-5.9-19-5c-1.4,0.2-10.6,1.3-17,9c-1.4,1.7-4.8,6.3-6,20
								c-1.5,17.4,2.2,29.7,1,30c-1.2,0.3-3.2-11.9-12-25c-3.9-5.8-9.9-14.8-21-20c-13.4-6.3-26.5-3.5-33-2c-6.8,1.5-11.8,3.9-35,20
								C447.7,482,441.7,488.4,438.7,498z"/>
							<path class="st2" d="M456.7,499c-2,5.1-2.7,10.6-2,16c1.7,12.7,10.7,20.2,13,22c12.4,9.7,27.8,7.6,39,6
								c6.5-0.9,15.9-2.3,26-9c7.7-4.9,13.9-11.8,18-20c3.4-6.9,4-12.6,5-21c1.1-9.2,2-17.3-1-27c-1.8-5.9-4.3-13.8-12-19
								c-9.3-6.3-19.7-4.3-21-4c-5.4,1.1-8.1,3.6-20,14c-8.4,7.3-16.5,14.9-25,22C464.1,489.4,459.7,491.6,456.7,499z"/>
							<path class="st16" d="M506.7,503c-0.3-4.6,3.1-8,7-12c2.8-2.9,7.2-7.3,14-8c2.1-0.2,6.4-0.7,10,2c4.5,3.4,4.8,9.3,5,12
								c0.2,3.5-0.4,6.9-2,10c-2,4.2-5.6,7.4-10,9c-7.2,2.4-13.3-1-15-2C513.6,512.8,507.1,509.2,506.7,503z"/>
							<path class="st2" d="M586.7,455c-1.2,7.7-0.9,15.5,1,23c4,17.6,16.3,32.2,33,39c7.2,3.2,12,5.4,18,4c7.4-1.7,11.7-7.7,14-11
								c3.7-4.9,5.8-10.9,6-17c0.1-7.1-2.7-12-8-21c-4.5-7.5-4.9-6.1-18-23c-6.7-8.6-9.2-12.3-15-15c-4-2-8.6-2.7-13-2
								c-7.5,1.5-11.6,7.1-13,9C588.3,445.6,587.5,450.2,586.7,455z"/>
							<path class="st16" d="M609.7,487c-0.1-5.6,3.7-9.6,6-12c2.3-2.4,4.5-4.7,8-5c5-0.4,9.1,3.7,11,7c2.7,4.8,1.5,9.6,1,12
								c-0.5,2.2-1.4,6.1-5,9c-2.2,1.9-5.1,3-8,3C615.9,500.8,609.8,493.9,609.7,487z"/>
							<path class="st18" d="M617.7,603c0.1,1.4-3,2-10,7c-5.8,4.2-8.8,6.3-10,10c-0.7,2.1-0.5,3.5-2,8c-0.4,1.4-0.9,2.8-1.5,4.2
								c-1-3.1-2.1-6.2-3.5-9.2c-2.5-5.8-5.9-11.2-10-16c-2.6-3.3-5.4-6.4-8.4-9.3c8.5-0.4,17.2,0.1,22.4,0.3
								C595.9,598.1,617.4,599.2,617.7,603z"/>
							<path class="st19" d="M594.2,632.2c-0.1,0.3-0.3,0.6-0.5,0.8c-3.9,4.6-16.1,0.3-20-1c-4.9-1.7-11.8-4.2-18-11
								c-4.3-4.7-9.4-10.3-8-15c1.8-5.9,13-7.9,24.6-8.3c3,2.9,5.8,6,8.4,9.3c4.1,4.8,7.5,10.2,10,16
								C592.1,626,593.2,629,594.2,632.2z"/>
							<path class="st7" d="M572.3,597.7c-11.6,0.5-22.8,2.4-24.6,8.3c-1.4,4.7,3.7,10.3,8,15c6.2,6.8,13.1,9.3,18,11
								c3.9,1.3,16.1,5.6,20,1c0.2-0.3,0.4-0.5,0.5-0.8c0.6-1.4,1.1-2.7,1.5-4.2c1.5-4.5,1.3-5.9,2-8c1.3-3.7,4.2-5.8,10-10
								c7-5,10.1-5.6,10-7c-0.3-3.8-21.8-4.9-23-5C589.4,597.8,580.8,597.3,572.3,597.7z"/>
							<path class="st7" d="M572.3,597.7c3,2.9,5.8,6,8.4,9.3c4.1,4.8,7.5,10.2,10,16c1.4,3,2.6,6,3.5,9.2"/>
							<path class="st17" d="M508.7,590c0.7-0.6-1.7-2.8-1-6c0.9-3.9,5.7-5.9,6-6c2.3-0.9,4-0.7,4-1c0-0.5-3.9-1.5-8-1
								c-2.7,0.3-5.6,0.7-7,3c-1.4,2.3-0.3,5.4,0,6C504.1,588.5,507.9,590.7,508.7,590z"/>
							<path class="st7" d="M599.7,638c5,3.4,6.3,10.2,2.9,15.1c-0.8,1.1-1.7,2.1-2.9,2.9"/>
							<path class="st2" d="M336.7,458c2.6-1.3,4.7-3.4,6-6c4.7-8,4.1-17.4,4-20c-0.6-11,2.3-22,3-33c2-29.2,22.3-57.3,41-73
								c10-8.2,21.1-14.9,33-20c6.5-2.7,13.2-5,20-7c11-2.9,16.7-3,17-5c0.3-2.4-7.5-4.8-23-11c-17-6.8-14.4-6.6-26-11
								c-12.7-4.8-24.5-9.3-39-12c-16.2-3-29.2-5.4-45-1c-24.1,6.7-37.5,24.3-41,29c-9.1,12.3-12.1,23.9-15,35
								c-3.4,13.4-4.8,27.2-4,41c0.8,14.6,1.7,30.8,12,46c4.4,6.5,4.6,4.1,14,16c5.1,6.5,12,16,22,26c2.2,2.2,6.1,6,12,7
								C330.7,459.6,333.9,459.3,336.7,458z"/>
							<path class="st20" d="M597.7,600c2.5,2.7,5.6,4.7,9,6c1.8,0.7,7.1,2.7,13,1c7.1-2,10.7-8.1,13-12c4.5-7.7,4.8-15.1,5-20
								c0.2-6.5-0.8-12.9-3-19"/>
							<path class="st20" d="M606.7,564c0.2,5.4-0.1,10.7-1,16c-0.9,5.4-1.8,10.3-5,16c-1.6,2.9-3.6,5.6-6,8
								c-6.8,6.7-14.7,8.5-21,10c-5.7,1.3-12.5,2.9-21,1c-5.5-1-10.7-3.4-15-7c-1.8-1.5-8.8-7.5-11-17c-0.7-3.1-0.7-5.6-2-6
								c-1.9-0.5-4.8,4-7,8"/>
							<path class="st2" d="M577.7,550c-1.3,1.6-3.1,7.1-1,12c0.3,0.7,1.6,3.5,6,6c10.7,6,23.7,1,39-5c2.3-0.8,4.4-2.2,6-4
								c3.5-4.2,3.2-9.8,3-13c-0.2-2.7-2.2-7.7-6-9C612.7,533,587.7,538,577.7,550z"/>
							<path class="st16" d="M587.7,556c-1.5-2.5,5.8-10,13-14c2.7-1.5,12.3-7,20-3c2.3,1.2,5.4,3.7,5,6c-0.4,2.5-5,3.5-11,5
								C592.8,555.3,588.7,557.8,587.7,556z"/>
							<path class="st7" d="M577.2,725.5c2.8,3.3,11,15.7,14,21c3.5,6.3,7.7,20.3,9,25"/>
							<path class="st7" d="M346.2,759.5c29.6,6.2,54.7,25.8,68,53"/>
							<path class="st21" d="M487.2,690.5c1.1-1.6,4.1,0.7,14,1c6.5,0.2,7.8-0.7,18-1c11.5-0.3,13.3,0.8,14,2c1,1.8-0.8,3.1-2,9
								c-1.1,5.1-0.1,6-1,13c-0.8,5.9-1.2,8.9-3,10c-2.8,1.7-7.5-1.1-14-6C502.5,710.4,484.4,694.5,487.2,690.5z"/>
							<path class="st21" d="M543.2,744.5c-0.1-3.2,3.9-3.5,7-9c5.6-9.9-0.8-20.6,2-22c3.3-1.7,13.6,12.4,22,24
								c15.7,21.7,14.6,24.2,14,25s-2.5,1.4-18-4C544.4,749.5,543.2,746.1,543.2,744.5z"/>
							<path class="st21" d="M596.2,734.5c-1.4,2.4,5.1,6.2,7,15c1.3,5.9-0.7,9,1,10c2.8,1.7,11.6-4.5,16-13c3.3-6.3,3.2-12,3-22
								c-0.3-13-2.8-25.1-4-25c-0.8,0.1-0.1,5.7-2,15c-1.7,8.3-3.4,16.3-9,19C602.9,736,597.5,732.3,596.2,734.5z"/>
							<path class="st21" d="M557.2,792.5c3.3-3.3,10.6,4.4,29,6c9.4,0.8,18.9-0.2,28-3c8.1-2.5,18.6-5.7,26-15
								c7.4-9.3,6.3-17.6,10-18c1.8-0.2,4.6,1.5,16,29c14.4,34.9,9.7,31.6,15,39c2.2,3.1,6.7,8.8,5,14c-0.6,1.9-2,3.6-6,6
								c-2.1,1.3-11.2,6.6-30,8c-4.7,0.5-9.3,0.5-14,0c-7.3-0.8-8.4-2.2-14-3c-1.9-0.3-5.5-0.6-24,3c-13.7,2.7-16.2,3.8-19,2
								c-5-3.1-4.3-10.8-5-19C571.6,812.4,552.3,797.5,557.2,792.5z"/>
							<path class="st22" d="M412.2,692.5c-2.3,4.1,10.2,10.9,22,32c6.7,12,12.1,21.6,10,33c-1.2,6.5-4.3,10.5-2,14
								c2.5,3.8,8.1,2.1,19,3c9.4,0.8,18.6,4.2,37,11c10.3,3.8,12.6,5.3,14,8c1.9,3.7,1.8,9.1-5,22c-12,22.9-24.6,30.8-22,36
								c2.1,4.2,10.4-0.7,25,5c8.7,3.4,9.5,6.6,19,9c1.9,0.5,6.6,1,16,2c10.3,1.1,11.8,1.1,13,0c3.8-3.6-1.2-14.6-4-21
								c-16.5-37.6-8.6-34-22-59c-8.9-16.6-17.4-27.6-27-40c-11.2-14.5-17.3-22.2-28-31c-11.3-9.3-24.1-16.4-38-21
								C434.7,694,415,687.6,412.2,692.5z"/>
							<path class="st22" d="M643.2,692.5c-3.2,2.5,9.8,21,28,57c16.9,33.4,25.4,50.1,26,59c0.3,4.7,0.6,18.1,8,24
								c5.2,3.7,9.1,8.9,11,15c2,5.8,3.4,11.9,4,18c0.8,8,2.2,16,3,24c2.1,19.9,7.2,41.2,9,41c1.7-0.2,1-17.9,0-46
								c-1.4-38.7-3-38.6-1-48c1.3-5.8,3.3-12.1,1-20c-2-6.8-6-11.1-13-18c-11.6-11.5-16.9-17.7-26-25c-9.5-7.6-16.6-12-16-18
								c0.2-2,1.2-3.4,3-6c5.8-8.3,11.6-7.8,13-12c1.8-5.4-5.8-12.6-17-23c-5.6-5.1-11.6-9.8-18-14
								C649.1,694.5,644.5,691.4,643.2,692.5z"/>
							<path class="st22" d="M335.2,748.5c0.5,2.7,11.7-0.3,26,3c19.8,4.6,32.4,18.3,44,31c11.5,12.8,21,27.3,28,43
								c15.1,33.2,16.2,62.4,20,62c1.3-0.1,1.5-3.6,4-15s4.4-20.3,7-27c7.5-19.7,21.1-22.7,19-30c-1-3.5-12.4-7-35-14
								c-16.9-5.2-21.9-6.7-26-12c-3-3.9-2.7-6-6-22c-5.4-25.9-8.6-31.2-12-35c-2.1-2.4-7.3-8.2-15-9c-7-0.8-11.6,3-20,8
								C348.3,743.9,334.6,745.6,335.2,748.5z"/>
							<path class="st22" d="M298.2,785.5c5.1-6.8,13.7-8.2,19-9c17.8-2.7,32.5,4.6,43,10c15.3,8,28.9,18.8,40,32c7,8,14,21,28,47
								c2.9,5.3,5.2,9.8,5,16c-0.4,12.6-11.1,21.5-19,28c-12.7,10.5-25.1,14.5-39,19c-11.6,3.8-24.4,6.6-25,5s12.3-5.3,25-17
								c11.1-10.2,19.6-24.2,17-27c-1-1.1-3.9-0.7-43,19c-6,3-14.2,7.2-15,6c-1.2-1.8,15.4-13.7,14-16c-1-1.7-10.5,3.6-27,8
								c-22.4,5.9-28.2,2.3-30,1c-5.1-3.8-6.5-9.9-7-12c-1.9-8.2,1.5-13.8,5-24c1.8-5.2,6.6-19.5,7-35c0.3-11.1-2-11.9-2-29
								C294.2,792.6,295.9,788.5,298.2,785.5z"/>
							<path class="st22" d="M273.2,940.5c4.2-1.1,7.2,4.8,14,9c6.8,4.2,14.7,5,30,3c35.6-4.5,56.7-16.7,59-13
								c1.7,2.8-7.9,14.1-21,21c-19.6,10.3-38.5,6.3-39,10c-0.4,3,12.4,4.3,26,14c16.5,11.9,24.7,29.5,23,31c-1.4,1.2-7.9-9.6-24-17
								c-16.3-7.5-31.7-6.6-42-6c-3.3,0.2-13.8,0.8-14,3c-0.2,2.2,8.8,3.5,20,8c18.5,7.4,31.7,18.7,31,20c-0.6,1.1-9.9-5.4-26-8
								c-5.6-0.9-16.5-2.5-29,1c-16.4,4.6-29.3,16.3-28,19c0.6,1.3,4.4-0.1,17-1c6.8-0.5,18.9-1,19,0s-14.9,1.4-30,8
								c-27.4,12-37.6,37.4-42,35c-3.5-1.9,2-18.5,5-26c3.4-8.5,8.2-20.3,19-29c16.8-13.5,37.1-10.4,37-13c-0.1-2.2-14.3-5.7-28-1
								c-8.3,2.9-13.4,7.7-14,7c-0.9-1.1,9.7-11,23-28c6.1-7.9,8.9-12.2,9-18c0.1-5.5-2.4-7.4-2-14
								C266.5,950.1,268.6,941.7,273.2,940.5z"/>
							<path class="st22" d="M228.2,1083.5c-1.1-0.3-4.6,7.9-6,17c-2.4,14.8,0.8,29.8,4,30c2,0.1,2.4-5.9,9-15
								c0.6-0.8,8.3-11.3,11-10c2.1,1-1,7.8-1,20c0,8.7,0,16.5,5,21c2.4,2.2,5.8,3.4,20,3c11.7-0.3,17.5-1.3,25-2
								c24.6-2.1,37.3,2.6,40-3c1-2.1-0.4-3.4-2-9c-2.7-9.8-2.7-20.2,0-30c2.8-9.6,8.2-15.7,13-21c11.6-13,23.1-16.8,22-20
								c-0.7-2.1-5.9-1.3-15-2c-13.5-1-18.4-3.9-26-5c-15.1-2.3-33.1,3.4-44,13c-19.5,17.1-17,46.4-23,46c-3.1-0.2-5.9-8.4-6-15
								c-0.1-9.5,5.5-14.8,4-16c-2-1.8-15.1,6.6-24,20c-4.3,6.5-5.7,11.3-7,11C224,1115.7,230.4,1084,228.2,1083.5z"/>
							<path class="st21" d="M378.2,1072.5c4.3-4.2,10.4-8.3,12-7c1.3,1.1-2.1,4.6-3,11c-1.6,11.1,6.1,16.9,3,22
								c-2.2,3.7-6.7,1.5-14,5c-11.5,5.6-14.1,17.7-16,17c-2.3-0.9,2.5-18.4,8-32C370.2,1083.5,372.8,1077.8,378.2,1072.5z"/>
							<path class="st22" d="M385.2,1403.5c20.7,9.5,31,14.3,33,15c24.2,9.3,36.4,13.9,45,16c15.1,3.6,30.5,5.6,46,6
								c21.9,0.7,32.8-2.1,36-3c7-1.9,15.4-4.3,24-11c2.9-2.2,10.5-8.6,17-22c7-14.3,7.3-25.2,9-50c3-42.8,5.9-63.7,1-65
								c-2.2-0.6-3.1,3.4-9,6c-7.7,3.5-19.6,2.7-28-5c-7.7-7.1-10.8-18.6-7-28c3.6-9,12.2-12.7,13-13c11.7-4.8,20.8,3.2,26-2
								c3.4-3.5,3.3-11,0-14c-3.8-3.4-10.9-0.5-23,4c-19.8,7.3-35.2,12.9-50,16c-20.4,4.2-22.3-0.1-32,5c-12.9,6.8-16.6,18.1-26,36
								c-7.2,13.7-19.9,37.9-38,57c-25.1,26.4-52.7,34.4-50,44C372.8,1397.8,374.8,1398.8,385.2,1403.5z"/>
							<path class="st22" d="M758.2,875.5c0.3,6.2,1.5,28.2,2,48c0.4,18.1,0.3,34.5,0,57c-0.2,20.4-0.5,21.6,0,28
								c1.8,25.1,6.6,23.9,7,44c0.2,9.5-0.7,18.4,5,27c2,2.9,4.4,5.6,7,8c6,5.7,11.6,11,15,10c9.1-2.6,4.8-49.6-3-77
								c-5.3-18.4-10-29-10-29c-3.8-8.4-5.2-9.7-7-16c-1.6-5.5-4.7-17.1,0-29c2-5,3.2-4.8,5-9c4.9-11.8-0.4-24.5-3-31
								c-13.9-35.1-16.2-63.6-19-63C755.9,843.8,756.8,850,758.2,875.5z"/>
							<path class="st22" d="M784.2,1123.5c-2.5,5.7,5,9.9,4,19c-0.8,7-6.1,12.2-9,15c-7,6.8-10.9,4.9-14,10c-2.9,4.8-0.9,8.9,0,22
								c0.3,4.6,0,3.3,0,19c0,73.2,6.6,82.8,0,113c-1.6,7.5-5.6,23.1-3,42c0.6,4.1,2.1,13.5,9,22c3,3.7,7.1,8.8,13,9
								c3.5,0.1,7.7-2.9,16-9c5.2-3.8,7.8-5.8,9-8c3.6-6.8,0.1-15.2-1-18c-0.6-1.5-2.7-20.7-7-59c-0.8-7.4-0.9-24.9-1-60
								c-0.1-39.8-0.2-59.7,0-62c1.4-16.6-2.8-33.4-1-50c0.3-2.2,1-8-2-10C793.9,1116.2,786.3,1118.8,784.2,1123.5z"/>
							<path class="st22" d="M741.2,742.5c0.9-0.6,8.7,11.4,25,32c11,13.9,17.2,21.8,27,32c8.8,9.2,8.5,7.7,27,26
								c12.1,11.9,13,13.3,18,17c4.6,3.4,8.5,5.6,8,7c-0.5,1.6-6.2,0.7-17,0c-12.6-0.8-24-0.9-24-1s12.9-1.2,22-2
								c2.6-0.2,5.5-0.5,6-2c0.7-2.1-3.9-5.5-6-7c-1.5-1.2-3.2-2.2-5-3c-4.2-1.7-7.4-1.1-12-1c-4.4,0-8.7-0.3-13-1
								c-9.8-1.5-18.3-5.8-18-7c0.2-0.6,2.3-0.1,9,0c7.9,0.2,13.7,0.3,14-1c0.3-1.6-7.7-4.7-11-6c-8.7-3.4-10.9-2.8-14-5
								c-6.4-4.5-6.7-14.1-7-18C767.8,773.2,739.7,743.5,741.2,742.5z"/>
							<path class="st22" d="M791.2,886.5c0.5-1.3,5.6,1,14,1c6.9-0.1,13.6-1.4,20-4c5.6-2.2,8.7-4.4,9-4c0.5,0.7-8.7,6-17,15
								c-12.2,13.3-14.8,26.7-17,26c-1.5-0.5-1.8-7.2,1-13c3.6-7.5,10.8-9.8,10-12c-0.7-1.9-6.1,0.1-13-3
								C794.3,890.8,790.7,887.7,791.2,886.5z"/>
							<path class="st22" d="M815.2,933.5c-0.3-2.2-0.5-7.2,6-17c7.7-11.7,18-19.9,19-19c0.7,0.6-3.7,5.4-12,20
								c-4.2,7.3-5.4,10.2-6,14c-1.1,7.4,1.3,12.5,0,13S816.1,939.8,815.2,933.5z"/>
							<path class="st22" d="M859.2,886.5c-0.6-1.3,6-6,13-9c5.4-2.2,11.2-3.5,17-4c13.8-1.4,16.3,2,25-1c6.2-2.1,9.4-5.4,11-4
								c1.6,1.4-0.9,5.3-2,13c-0.6,4.6-0.6,9.4,0,14c1.9,11.9,8.9,16,7,20c-1.8,3.7-9,2.8-17,3c-5.3,0.1-41.3,1.3-52,19
								c-5.1,8.5-2.6,17.8-5,18s-6.2-9.6-7-19c-0.8-10.5,1.7-20.9,7-30c9.6-15.5,25.1-20.7,24-23C878.9,881,860.1,888.6,859.2,886.5
								z"/>
							<path class="st21" d="M636.2,1228.5c-0.1-2.8,14.3-4.3,39-11c16.5-4.5,24.7-6.7,32-11c15.9-9.3,20.7-20.1,26-18
								c3.2,1.3,4.2,9.5,6,26c1.2,11.2,1.8,16.9,1,22c-1.5,8.8-5.3,17.1-11,24c-6.2,7.2-14,11.6-33,17c-32.3,9.2-61.8,11.4-62,10
								c-0.1-1,16-1.9,40-11c24.5-9.3,34.5-18.6,37-21c11.6-11.2,15.6-21.9,17-26c2.8-8.7,4.7-21.3,1-23c-2.9-1.3-7,5.3-18,15
								c-11.5,10.1-21.7,15.8-31,21c-10,5.6-18.1,10.1-30,13s-22.8,3.1-23,2s9-3.1,23-10c8.6-4.2,13.2-6.5,13-9
								C662.7,1232.7,636.3,1232.3,636.2,1228.5z"/>
							<path class="st21" d="M667.2,1304.5c0-0.8,14.3,1.8,32-5c5.5-2.1,12.9-4.9,21-11c6.8-5.1,12.4-11.2,14-10c1.3,1-2.1,5.4,0,10
								c1.8,3.9,5.9,4.1,6,6c0.1,2.5-7.1,6.2-23,9C690.2,1308.3,667.2,1305.6,667.2,1304.5z"/>
							<path class="st23" d="M457.2,992.5c-5-3.4-18.9,9.1-21,11c-5.9,5.5-11,11.9-15,19c-3.3,5.7-3.2,6.8-11,27
								c-6.2,16-7.5,18.5-6,21c2.9,4.8,12.6,3.7,31,1c33.7-5,50.5-7.5,62-11c13.4-4.1,24.3-9.1,46-19c15.2-7,27.1-13.1,35-26
								c1.6-2.6,6.6-10.8,4-14c-2.6-3.2-12,1.1-35,10c0,0-11.2,4.3-39,14c-21.6,7.5-30.5,9.9-41,7c-2.1-0.6-12.7-3.5-14-10
								c-0.7-3.5,1.9-5.2,4-12C458.6,1005.8,460.9,995.1,457.2,992.5z"/>
							<path class="st23" d="M526.2,1066.5c-0.1-2.6,25.7,2,54-14c16-9,27.3-21.4,32-18c2.5,1.8,1.8,7.1,1,10
								c-3.5,12.2-19.7,17-30,20C554.3,1072.8,526.3,1069.2,526.2,1066.5z"/>
							<path class="st23" d="M555.2,1100.5c0.5-1.9,10.2,1,24-1c17.6-2.5,27.7-10.9,29-9c1.1,1.6-5.4,8.7-13,13
								c-7.9,4.3-17.1,5.8-26,4C562.1,1106,554.8,1102.2,555.2,1100.5z"/>
							<path class="st23" d="M959.2,806.5c1.8-4.9,4.2-9.6,7-14c8.3-12.9,18.6-19.8,25-24c8-5.3,16.8-9.3,26-12
								c14.7-4.3,22-2.5,24-2c3.7,1,11.8,3.1,13,8c1.6,6.6-10.2,14.5-26,25c-22.7,15.2-20,8-45,23c-5.4,3.3-12.5,7.7-18,5
								C961.6,813.8,960,809.6,959.2,806.5z"/>
							<path class="st23" d="M965.2,852.5c-3.9-3.6-3.2-11.1-1-16c1.9-4.3,5.1-6.8,19-14c12.5-6.5,18.8-9.8,25-12
								c6.2-2.2,5.3-1.4,30-7c18.1-4.1,24.5-5.9,30-2c0.7,0.5,5.2,3.8,5,8c-0.2,5.3-7.4,9.2-22,15c-34.7,13.9-35.8,8.4-49,17
								c-7.3,4.8-14.9,11.6-27,13C970.6,855,967.4,854.5,965.2,852.5z"/>
							<path class="st23" d="M987.2,879.5c-1-4.4,21-13.4,25-15c1.9-0.8,4.5-1.9,8.1-3c7.6-2.4,14.8-3.5,24.9-5
								c21.1-3.2,25.8-0.6,28,2c0.4,0.5,2.7,3.3,2,6c-1.2,4.6-10.8,4.6-21,6c-25,3.5-29.6,12.1-52,12
								C998.2,882.5,987.8,882.4,987.2,879.5z"/>
							<path class="st23" d="M930.2,819.5c-1.3-2.3,6-5.8,9-15c1.8-5.6-0.2-6.6,1-17c0.9-8,1.4-12.1,4-16c4.3-6.4,11.4-8.6,19-11
								c6.7-2.1,13.7-3,14-2c0.3,1-7.9,2.8-16,10c-3.1,2.8-8,7.1-10,14c-2.1,7.2,1.3,9,0,18c-0.4,2.8-2,13.5-10,18
								C937,820.9,931.3,821.4,930.2,819.5z"/>
							<path class="st24" d="M683.2,1354.5c3.9-2.5,6.3,1.2,17,0c14.7-1.6,20.1-9.5,24-7c6.8,4.4-4.2,32-5,34c-1.2,3-5,12.1-21,35
								c-12.1,17.4-18.3,26.2-21,25c-2.9-1.3,2.4-13,4-33C683.7,1377.7,674.8,1359.8,683.2,1354.5z"/>
							<path class="st24" d="M675.2,1475.5c12.4-10.1,18.4-8.9,27-20c5.2-7,9.9-14.3,14-22c3.7-7.1,6-13.2,9-13c2.4,0.2,2.6,4.3,6,8
								c1.3,1.4,4.5,4.3,23,5c15.1,0.6,22.8,0.8,30-4c4.5-3,6.6-6.3,7-6c0.9,0.7-9.1,17.3-23,32c-20.4,21.5-45.2,34.3-47,32
								c-1.8-2.3,16.6-18.1,15-20c-1.4-1.7-15.5,9.2-37,22c-20,12-44.2,26.4-48,22C647.8,1507.6,659.4,1488.3,675.2,1475.5z"/>
							<path class="st24" d="M625.2,1347.5c4.3-2.2,7.2,2.5,18,1c8-1.1,10.2-4.2,13-3c5.9,2.5,3.6,19,2,36c-3.4,36.3,0.5,33-4,72
								c-2.2,19.1-4.5,39-8,39c-1.3,0-2.2-2.9-8-26c-8.2-32.5-9.1-37-14-43c-1.7-2.1-4.5-5-6-10c-2.4-7.7,0-14.5,1-18
								C626.7,1370.3,616.6,1351.8,625.2,1347.5z"/>
							<path class="st24" d="M699.2,1539.5c10-1.9,17-5.2,23-8c9.8-4.7,18.9-10.8,27-18c3.6-3.2,15.9-14.1,14-17
								c-2.3-3.6-24.5,7.1-25,6c-0.4-0.9,14-5.9,27-16c23.1-18,27.8-41.4,32-40c3.9,1.3,3.3,22.3-4,41c-3.8,9.8-9.7,19.8-8,21
								c1.5,1.1,7-6.4,10-5s1,10.2,0,18c-1.8,14,0.7,12.3,1,46c0.2,19.6,1.8,31.5-1,32c-34,6-87,5-105,7c-6,0.7,3.5-10.2,3-28
								c-0.3-11.6-2.8-16.8-4-19c-4.8-8.8-12.5-12.3-12-13c1-1.6,35.8,17.3,36,17c0.2-0.3-29.9-15.4-28-21
								C685.9,1540.5,690.3,1541.2,699.2,1539.5z"/>
							<path class="st24" d="M598.2,1450.5c-1.3,0.2-0.4,8.5-2,23c-0.5,4.3-3.3,29.8-8,30c-3.1,0.1-6.2-10.7-8-17
								c-3.7-13.1-3-20.8-5-21c-2.2-0.3-6.2,8.5-7,18c-1.1,12.6,4,21,2,22c-2.3,1.2-10.7-9.4-15-15c-8.3-10.6-10.4-15.5-13-15
								c-3.1,0.6-2.5,8.1-6,19c-3,8.7-7.4,16.8-13,24c-12.7,15.6-28,17.7-27,23c0.9,4.7,13,5.9,14,6c11.2,1.1,18.3-4.2,19-3
								c1,1.7-11.1,15.3-25,15c-3.2-0.1-6-0.8-8,1c-3,2.8-0.9,8.5,0,15c2.1,14.4-8,24.1-2,26c16,5,104,3,121,3c5.2,0,4.6-9.6,8-20
								c6.3-19.5,4-24.5,10-45c3.6-12.2,7.9-22,6-23s-7.2,9.7-13,9c-5.5-0.7-8.2-11.2-12-25C600.8,1451.4,598.7,1450.4,598.2,1450.5
								z"/>
							<path class="st16" d="M528.2,886.5c0,0.8,7.6,1.8,14,2c7.1,0.1,14.3-0.6,21.3-2c1.1-0.2,2.4-0.5,4.8-1c29.2-6.4,39-9,39-9
								c3-0.9,9.5-3,13,0c1.3,1.1,2.3,3.1,5,4c0.4,0.1,3,1,4,0c1.2-1.3,0-4.9-2-7c-2.5-2.6-6.1-2.9-8-3c-10.9-0.4-22.6,4.4-24,5
								c-13.5,5.6-25.3,6.8-46,9C537,885.8,528.2,885.6,528.2,886.5z"/>
							<polyline class="st25" points="456.2,920.5 702.2,885 767.2,1140.5 							"/>
						</g>
					</g>
				</g>
				<circle class="st26" cx="500" cy="500" r="474.2"/>
			</g>
		</g>
	</g>
</g>
</svg>
