<svg xmlns="http://www.w3.org/2000/svg" viewBox="0 0 720 720">
    <defs>
        <style>.cls-1{fill:#fff;}.cls-2{fill:#563c28;}.cls-3{fill:#8e6442;}.cls-4{fill:#d1c9ae;}.cls-5{fill:#11113f;}
        </style>
    </defs>
    <title>bag</title>
    <g id="Слой_2" data-name="Слой 2">
        <g id="Layer_1" data-name="Layer 1">
            <circle class="cls-1" cx="360" cy="360" r="360"/>
            <polygon class="cls-2"
                     points="126.57 290.71 126.57 535.33 582.82 542.11 591.29 517.56 591.29 305.09 126.57 290.71"/>
            <polygon class="cls-3"
                     points="136.73 257.69 580.28 257.69 591.29 312.71 372.9 426.15 126.57 316.94 136.73 257.69"/>
            <polygon class="cls-4"
                     points="295.03 388.06 311.95 368.77 405.91 368.77 427.08 397.37 412.68 423.61 308.56 423.61 295.03 388.06"/>
            <path class="cls-5"
                  d="M569.95,245.26H448.6V224A39.12,39.12,0,0,0,409.53,185H310.68A39.12,39.12,0,0,0,271.61,224v21.24H150.05a34.09,34.09,0,0,0-34,34V518.55a34.09,34.09,0,0,0,34,34h419.9a34.09,34.09,0,0,0,34-34V279.26A34.09,34.09,0,0,0,569.95,245.26ZM290.81,224a19.66,19.66,0,0,1,19.6-19.6h98.86a19.66,19.66,0,0,1,19.6,19.6v21.24H290.81ZM584.53,518.6A14.39,14.39,0,0,1,570.14,533H150.05a14.39,14.39,0,0,1-14.39-14.39V330.89L285,403.35a39,39,0,0,0,38.42,32.59h73.94a39,39,0,0,0,38.36-32.61l153.08-77.07c4.84-2.35,4.89-8.71,2.54-13.55s4.84-10,0-7.62l-70.91,35.49-87,42.19a39,39,0,0,0-36.2-24.65h-74A39,39,0,0,0,287,382.78l-151.52-73.5v-30a14.39,14.39,0,0,1,14.39-14.39h420.1a14.39,14.39,0,0,1,14.39,14.39V518.5ZM303.47,397a19.46,19.46,0,0,1,19.46-19.46h73.94a19.46,19.46,0,1,1,2.41,38.86l-.48,0H323.23A19.46,19.46,0,0,1,303.76,397Z"/>
        </g>
    </g>
</svg>