<svg xmlns="http://www.w3.org/2000/svg" viewBox="0 0 671.26 671.26">
    <defs>
        <style>.cls-1{fill:#fff;}.cls-2{fill:#f9f0e1;}.cls-3{fill:#e2a61e;}.cls-4{fill:#11113f;}</style>
    </defs>
    <title>beer</title>
    <g id="Слой_2" data-name="Слой 2">
        <g id="Слой_1-2" data-name="Слой 1">
            <circle class="cls-1" cx="335.63" cy="335.63" r="335.63"/>
            <polygon class="cls-2"
                     points="201.13 302.68 201.13 255.68 176.13 229.68 183.13 197.68 234.13 167.68 253.13 150.68 287.13 150.68 318.13 124.68 352.13 124.68 390.13 144.68 402.13 157.68 426.13 162.68 454.13 181.68 465.13 202.68 489.13 218.68 493.13 242.68 478.13 272.68 472.13 308.68 201.13 305.68 201.13 302.68"/>
            <polygon class="cls-3"
                     points="201.13 308.68 470.13 308.68 470.13 528.68 446.13 550.68 229.13 550.68 205.13 531.68 201.13 308.68"/>
            <path class="cls-4"
                  d="M525.53,293.58h-46.1V284a50.55,50.55,0,0,0-14.3-91.9,55.63,55.63,0,0,0-53.5-41.2h-4.7a72.71,72.71,0,0,0-97.5-32.9,71.46,71.46,0,0,0-26.6,22.5,50.65,50.65,0,0,0-64.3,31.6c-.1.2-.1.4-.2.6h-1a47.62,47.62,0,0,0-25.6,87.7v256.4a44.22,44.22,0,0,0,44,44.1h199.5a44.21,44.21,0,0,0,44.2-44.2v-52.5h46.1a8.75,8.75,0,0,0,8.8-8.8h0V302.08A8.75,8.75,0,0,0,525.53,293.58Zm-266,249.5h-23.8a26.59,26.59,0,0,1-26.6-26.6V399.78a24.54,24.54,0,0,1,24.5-24.5h.8a24.54,24.54,0,0,1,24.5,24.5v143.4h.6Zm67.4,0h-16.7V437.18a8.83,8.83,0,1,0-17.6-1.4v107.5h-15.4V399.78h0a24.54,24.54,0,0,1,24.5-24.5h.7a24.54,24.54,0,0,1,24.5,24.5ZM395,400.28v142.8h-50.2V399.78h0a24.54,24.54,0,0,1,24.5-24.5h1.2a24.54,24.54,0,0,1,24.5,24.5v.5Zm66.9,116.4a26.89,26.89,0,0,1-3.2,12.7l-.6,1.1a26.48,26.48,0,0,1-12.2,10.5V437.18a8.83,8.83,0,0,0-9.5-8.1,9,9,0,0,0-8.1,8.1v106h-15.8V400.28h0a25.05,25.05,0,0,1,24-25.2,24.62,24.62,0,0,1,25.3,23.7v117.8Zm0-151.2a41.87,41.87,0,0,0-58,8.7,41.87,41.87,0,0,0-33.4-16.7h-.7a42,42,0,0,0-33.4,16.5,42.11,42.11,0,0,0-33.4-16.5h-1a42,42,0,0,0-33.4,16.5,42.11,42.11,0,0,0-33.4-16.5h-.8a41.5,41.5,0,0,0-24.5,8v-47.4H462v47.6Zm-252.5-65.3v-33h12.2a8.56,8.56,0,0,0,.5,2.3v.7l.4,1.7v.8l.6,1.7v.6l.9,2.2v.4l.9,1.8.4.7.8,1.5.4.7,1,1.6v.4l1.3,1.9.4.5,1.1,1.4.5.6,1,1.2.5.6,1.4,1.5h0l1.7,1.6.5.4,1.3,1.1.6.5,1.3,1,.6.4,2,1.3h0l1.8,1.1h-33.9v.8ZM315.33,250h147v50.2H291.73l1.2-.7h0l1.7-1.1h.4l1.5-1h0l1.6-1.2.4-.3,1.3-1.2h0l1.5-1.4.4-.4,1.2-1.2h0l1.3-1.5.3-.4,1-1.3v-.3l1.2-1.7v-.4l.9-1.4v-.4l1-1.7v-.4l.8-1.5v-.4l.9-1.8v-.4l.6-1.6V276l.7-2v-.3l.5-1.7v-.5a7.34,7.34,0,0,1,.5-2h0a3.81,3.81,0,0,1,.3-1.8V265h0v-4.8A50.46,50.46,0,0,0,315.33,250Zm155.4-17.7H311.43a57.15,57.15,0,0,1-15-14,8.76,8.76,0,0,0-11.7-2l-1.7,1a8.83,8.83,0,0,0-3.3,12,8.72,8.72,0,0,0,3.3,3.3,30.12,30.12,0,0,1,14.8,20.1h0v1.8h0v4.4a30,30,0,1,1-60,0v-1.3a8.65,8.65,0,0,0-3.5-7.3h0l-.8-.5h0l-.8-.4h0l-.9-.3h-4.7a29.83,29.83,0,0,1-9.4,1.5H210l-1.3-.4h0a30.51,30.51,0,1,1,14.8-59.2h0a8.78,8.78,0,0,0,10.3-7,.6.6,0,0,1,.1-.4,33.26,33.26,0,0,1,32.5-28.1,32.81,32.81,0,0,1,15.4,3.8,8.71,8.71,0,0,0,11.6-3.2,55.48,55.48,0,0,1,100,8.2,8.74,8.74,0,0,0,10,5.3,37.89,37.89,0,0,1,45,28.9,25.58,25.58,0,0,1,.5,2.7,8.91,8.91,0,0,0,7.7,7.5,32.93,32.93,0,0,1,28.7,36.6,34.51,34.51,0,0,1-5.8,15.1v-19a9.14,9.14,0,0,0-8.8-9.1Zm46,214.4h-37.3V311.08h37.3Z"/>
            <path class="cls-4"
                  d="M307.63,395.08a12.67,12.67,0,0,0-1.3-1.1,10.93,10.93,0,0,0-1.5-.8l-1.7-.5a9.71,9.71,0,0,0-3.4,0l-1.7.5a8.7,8.7,0,0,0-4.8,4.8,8.45,8.45,0,0,0-.5,1.7,9.71,9.71,0,0,0,0,3.4,8.53,8.53,0,0,0,1.3,3.2,6.88,6.88,0,0,0,1.1,1.3,12.67,12.67,0,0,0,1.3,1.1,10.93,10.93,0,0,0,1.5.8l1.7.5h1.7l1.7-.1,1.7-.5a10.93,10.93,0,0,0,1.5-.8,7.85,7.85,0,0,0,2.4-2.4,10.93,10.93,0,0,0,.8-1.5,8.45,8.45,0,0,0,.5-1.7,4.85,4.85,0,0,0,0-1.7A8,8,0,0,0,307.63,395.08Z"/>
            <path class="cls-4"
                  d="M443.43,395.08a12.67,12.67,0,0,0-1.3-1.1l-1.5-.8-1.7-.5a9.71,9.71,0,0,0-3.4,0l-1.7.5-1.5.8a6.88,6.88,0,0,0-1.3,1.1,9.17,9.17,0,0,0-2.6,6.1,4.85,4.85,0,0,0,0,1.7,8.53,8.53,0,0,0,1.3,3.2,6.88,6.88,0,0,0,1.1,1.3,12.67,12.67,0,0,0,1.3,1.1l1.5.8,1.7.5h3.4l1.7-.5,1.5-.8a6.88,6.88,0,0,0,1.3-1.1,12.67,12.67,0,0,0,1.1-1.3,10.93,10.93,0,0,0,.8-1.5,8.45,8.45,0,0,0,.5-1.7,4.85,4.85,0,0,0,0-1.7A8.68,8.68,0,0,0,443.43,395.08Z"/>
        </g>
    </g>
</svg>