<svg xmlns="http://www.w3.org/2000/svg" viewBox="0 0 671.26 671.26">
    <defs>
        <style>.cls-1{fill:#fff;}.cls-2{fill:#aa9500;}.cls-3{fill:#ffec03;}.cls-4{fill:#11113f;}</style>
    </defs>
    <title>bell</title>
    <g id="Слой_2" data-name="Слой 2">
        <g id="Слой_1-2" data-name="Слой 1">
            <circle class="cls-1" cx="335.63" cy="335.63" r="335.63"/>
            <polygon class="cls-2"
                     points="286.73 428.54 294.73 448.54 326.73 471.54 365.73 464.54 383.73 442.54 389.73 428.54 286.73 428.54"/>
            <polygon class="cls-3"
                     points="169.73 417.54 175.73 378.54 201.73 354.54 226.73 292.54 237.73 225.54 266.73 179.54 306.73 154.54 367.73 154.54 421.73 195.54 440.73 247.54 452.73 315.54 474.73 360.54 497.73 388.54 497.73 421.54 169.73 421.54 169.73 417.54"/>
            <path class="cls-4"
                  d="M511.83,354.74l3.8,3.4h0a9.85,9.85,0,0,0,13-14.8h0l-3.5-3.2a9.82,9.82,0,0,0-13.9.6,9.93,9.93,0,0,0,.6,14Z"/>
            <path class="cls-4"
                  d="M505.23,333.94a9.88,9.88,0,0,0,2.4-13.7v-.1c-13.3-19.1-15.4-39-18.4-78.5a9.88,9.88,0,0,0-19.7,1.5c3.2,42,5.7,65,21.9,88.3h0a9.79,9.79,0,0,0,13.7,2.4c0,.1,0,.1.1.1Z"/>
            <path class="cls-4"
                  d="M205.53,220.64a9.87,9.87,0,0,0-19.2-4.6h0c-.5,1.9-.9,3.8-1.3,5.7h0a9.87,9.87,0,1,0,19.3,4.1C204.73,223.84,205.13,222.14,205.53,220.64Z"/>
            <path class="cls-4"
                  d="M142.43,343.34a9.8,9.8,0,1,0,12.5,15.1c33.8-28.1,41.8-57,46.1-107.3a9.89,9.89,0,1,0-19.5-3.3,8.08,8.08,0,0,0-.1,1.6c-3.9,46.5-10.2,69.8-39,93.9Z"/>
            <path class="cls-4"
                  d="M159.33,396.14c-1.2,8.7-1.5,27,5.4,33.8a9.85,9.85,0,0,0,6.9,2.9h104.8a59.93,59.93,0,0,0,118.3,0h105.2a10,10,0,0,0,6.9-2.9c6.9-6.9,6.5-25.1,5.4-33.8-1.7-13.7-6.9-23-14.4-27.5-26.5-15.4-42.6-57.1-47.7-124A115.85,115.85,0,0,0,365,142a34.36,34.36,0,1,0-58.1,0,115.72,115.72,0,0,0-85.1,102.6c-5.4,66.9-21.5,108.6-48.1,123.6a24.72,24.72,0,0,0-9.1,9.6l-.4.8A48.71,48.71,0,0,0,159.33,396.14Zm176.4-287.3h0a14.8,14.8,0,1,1-14.8,14.8,14.77,14.77,0,0,1,14.8-14.8Zm0,354.3a40.42,40.42,0,0,1-39.1-30.5h78.3a40.33,40.33,0,0,1-39.1,30.5ZM178.63,413a65.25,65.25,0,0,1,0-12.5,41.56,41.56,0,0,1,1.2-6.9h117.5a9.9,9.9,0,1,0,0-19.8h-98.1a98,98,0,0,0,14.6-19.9h46.7a9.9,9.9,0,0,0,0-19.8h-37a308.15,308.15,0,0,0,17.8-88,94.87,94.87,0,0,1,189.2,0c5.4,74.8,24.3,120.8,57.3,139.5,1.5.8,4,5.3,4.9,13.7a57.39,57.39,0,0,1,0,13.1H178.63Z"/>
            <path class="cls-4" d="M237.23,541.84a9.89,9.89,0,0,0-1.7,19.7H434a9.89,9.89,0,1,0,1.7-19.7H237.23Z"/>
            <path class="cls-4"
                  d="M323,383.74a9.88,9.88,0,0,0,9.7,9.9h6a9.9,9.9,0,1,0,0-19.8h-5.9a9.9,9.9,0,0,0-9.8,9.9Z"/>
        </g>
    </g>
</svg>