<svg xmlns="http://www.w3.org/2000/svg" viewBox="0 0 559.26 559.26">
    <defs>
        <style>.cls-1{fill:#fff;}.cls-2{fill:#445b93;}.cls-3{fill:#f4eea2;}.cls-4{fill:#e20560;}.cls-5{fill:#11113f;}
        </style>
    </defs>
    <title>book</title>
    <g id="Слой_2" data-name="Слой 2">
        <g id="Слой_1-2" data-name="Слой 1">
            <circle class="cls-1" cx="279.63" cy="279.63" r="279.63"/>
            <polygon class="cls-2"
                     points="126.65 260.7 269.65 121.33 293.61 112.61 325.55 135.12 445.32 256.35 297.96 403.71 224.65 329.66 157.86 267.96 126.65 260.7"/>
            <polygon class="cls-3"
                     points="118.66 274.49 144.79 262.15 287.07 395 268.2 411.69 254.41 439.28 115.03 301.35 118.66 274.49"/>
            <polygon class="cls-4"
                     points="162.94 314.42 201.42 354.34 157.14 397.9 157.14 362.33 115.03 362.33 162.94 314.42"/>
            <path class="cls-5"
                  d="M285.91,403.92l6.39,6.39a7.14,7.14,0,0,0,10.16,0h0L451.2,261.65a7.14,7.14,0,0,0,0-10.16h0L316.4,116.53a36.28,36.28,0,0,0-51.18,0L116.48,265.13h0l-.58.65-.58.65h0l-.65.65h0a36.3,36.3,0,0,0,2,49l15.39,15.39-24,24a7.3,7.3,0,0,0-.07,10.24,6.9,6.9,0,0,0,5.15,2.11h33.68v33.68a7.24,7.24,0,0,0,12.34,5.15L183,382.8l56,56H207.22a7.28,7.28,0,0,0,0,14.52H352a7.28,7.28,0,0,0,0-14.52H264.21A51.33,51.33,0,0,1,285.91,403.92ZM275.39,126.77a21.82,21.82,0,0,1,30.71,0L435.81,256.49,297.46,394.92,172.74,270.21l39-39A7.25,7.25,0,0,0,201.49,221l-39.56,39.56A35.06,35.06,0,0,0,147.12,255Zm-114,257.34V360.66a7.16,7.16,0,0,0-7.19-7.19H130.64l31.87-31.87,30.71,30.71Zm89.72,46.39-57.93-57.93,10.24-10.24,17.49,17.49a7.25,7.25,0,0,0,10.24-10.24L208.53,347h0l-40.87-40.65a7.23,7.23,0,0,0-10.24,0L142,321.75l-15.32-15.32a21.82,21.82,0,0,1,0-30.71h0a21.78,21.78,0,0,1,30.56,0l118.11,118a65.9,65.9,0,0,0-24.32,36.73Z"/>
            <path class="cls-5"
                  d="M360.9,307.89a7.5,7.5,0,0,0,5.15-2.11l44.14-44.14A7.25,7.25,0,0,0,400,251.41l-44.14,44.14a7.17,7.17,0,0,0,.15,10.24,7.3,7.3,0,0,0,4.94,2.11Z"/>
        </g>
    </g>
</svg>