<svg xmlns="http://www.w3.org/2000/svg" viewBox="0 0 559.26 559.26">
    <defs>
        <style>.cls-1{fill:#fff;}.cls-2{fill:#ef6d25;}.cls-3{fill:#e59b6a;}.cls-4{fill:#ce7132;}.cls-5{fill:#11113f;}
        </style>
    </defs>
    <title>box</title>
    <g id="Слой_2" data-name="Слой 2">
        <g id="Слой_1-2" data-name="Слой 1">
            <circle class="cls-1" cx="279.63" cy="279.63" r="279.63"/>
            <polyline class="cls-2" points="145.38 242.68 402.09 242.68 403.98 408.52 145.44 408.52 145.44 244.57"/>
            <polygon class="cls-3" points="324.53 190.97 419.12 190.97 402.09 242.68 298.67 242.68 324.53 190.97"/>
            <polygon class="cls-4" points="126.52 190.97 224.89 190.97 246.33 242.68 146.07 244.57 126.52 190.97"/>
            <path class="cls-5"
                  d="M426.11,186.81a6,6,0,0,0-4.79-2.59H321.69a6.07,6.07,0,0,0-5.55,3.66L295,237.32H251.32l-21.12-49.38a6.07,6.07,0,0,0-5.55-3.66h-99.7a6,6,0,0,0-5.68,8.07l18.54,51.52V410.16a6,6,0,0,0,6,6H402.22a6,6,0,0,0,6-6h0V244.32l18.73-52A6.09,6.09,0,0,0,426.11,186.81Zm-292.66,9.52h87.15l17.66,41.05h-90ZM395.91,404.11H304.85l-.19-155.44a6,6,0,0,0-12,0L292.87,404H149.73V249.11h246.5Zm1.77-167H308l17.66-41.05h87Z"/>
            <path class="cls-5" d="M273.64,115.49a6,6,0,0,0-6,6v30.14a6,6,0,1,0,12,0V121.54a6,6,0,0,0-6-6.05Z"/>
            <path class="cls-5"
                  d="M327.11,138.57a6.06,6.06,0,0,0-8.32,0h0L297.22,160a6,6,0,1,0,7.82,9.21l.69-.69L327,147.21a6.05,6.05,0,0,0,0-8.51v-.13Z"/>
            <path class="cls-5"
                  d="M248.92,160,227.6,138.57a6,6,0,0,0-9.21,7.82l.69.69,21.31,21.31a6,6,0,0,0,9.21-7.82l-.69-.69Z"/>
        </g>
    </g>
</svg>