<svg xmlns="http://www.w3.org/2000/svg" viewBox="0 0 100 100">
    <defs>
        <style>.cls-1{fill:#fff;}.cls-2{fill:#fcf7bb;}.cls-3{fill:#5f5f66;}.cls-4{fill:#11113f;}</style>
    </defs>
    <title>bulbs</title>
    <g id="Слой_2" data-name="Слой 2">
        <g id="Layer_1" data-name="Layer 1">
            <circle class="cls-1" cx="50" cy="50" r="50"/>
            <polygon class="cls-2"
                     points="26.79 34.07 33.49 28.93 41.74 27.71 50.11 30.5 54.02 28.71 60.6 27.26 68.74 29.71 72.76 33.51 75.55 40.09 74.88 48.68 71.64 53.81 68.97 56.72 68.19 59.62 66.51 65.86 53.35 65.53 52.23 63.3 51.45 57.61 49.55 55.38 47.55 58.72 47.55 63.3 46.76 65.86 33.82 65.86 32.37 63.74 32.37 59.28 29.14 53.81 26.12 49.91 24.45 44.44 25.9 36.52 26.79 34.07"/>
            <polygon class="cls-3"
                     points="54.46 66.53 66.18 66.53 66.18 73.45 64.17 75.24 54.91 74.79 54.02 72 54.46 66.53"/>
            <polygon class="cls-3"
                     points="34.49 66.53 45.98 66.53 45.65 73.45 43.64 74.79 35.27 74.79 34.27 71.89 34.49 66.53"/>
            <path class="cls-4"
                  d="M71.76,30.89A16.75,16.75,0,0,0,50,29.32,16.79,16.79,0,0,0,28.8,55.25a7.57,7.57,0,0,1,2.47,5.61v2.35a4,4,0,0,0,1.81,3.34v5.68a3.72,3.72,0,0,0,3.7,3.72h6.59a3.71,3.71,0,0,0,3.72-3.72h0V66.56a4,4,0,0,0,1.81-3.34V60.89a7.7,7.7,0,0,1,1.15-4,7.7,7.7,0,0,1,1.15,4v2.33A4,4,0,0,0,53,66.56v5.68a3.71,3.71,0,0,0,3.72,3.72h6.59A3.71,3.71,0,0,0,67,72.23V66.56a4,4,0,0,0,1.79-3.34V60.89a7.59,7.59,0,0,1,2.5-5.63,16.79,16.79,0,0,0,1.1-23.72c-.2-.22-.4-.44-.62-.65ZM44.95,72.23a1.61,1.61,0,0,1-1.61,1.61H36.75a1.61,1.61,0,0,1-1.61-1.61h0v-5h9.8v5Zm1.81-11.35v2.33a1.89,1.89,0,0,1-1.89,1.89H35.23a1.89,1.89,0,0,1-1.89-1.89h0V60.89a9.71,9.71,0,0,0-3.17-7.14,14.7,14.7,0,0,1,9.66-25.57H40a14.61,14.61,0,0,1,8.31,2.54L48.1,31A16.76,16.76,0,0,0,48,54.58l.58.55a9.76,9.76,0,0,0-1.84,5.7v.06ZM50,53.64A14.61,14.61,0,0,1,49.1,33h0c.29-.31.6-.62.91-.91l.33.31a14.68,14.68,0,0,1,.11,20.77h0L50,53.6ZM64.87,72.22a1.61,1.61,0,0,1-1.61,1.61H56.64A1.61,1.61,0,0,1,55,72.22h0v-5h9.84Zm5-18.52a9.74,9.74,0,0,0-3.18,7.2v2.33a1.89,1.89,0,0,1-1.89,1.89H55.14a1.87,1.87,0,0,1-1.9-1.86h0V60.91a9.75,9.75,0,0,0-1.84-5.69,16.79,16.79,0,0,0,1-23.71l-.58-.6-.15-.15a14.52,14.52,0,0,1,8.08-2.54H60a14.69,14.69,0,0,1,9.92,25.51Z"/>
            <path class="cls-4"
                  d="M66.51,33.92a1.05,1.05,0,1,0-1.25,1.7h0a8.74,8.74,0,0,1,3.54,7,8.83,8.83,0,0,1-3.6,7.08,1.05,1.05,0,0,0,1.12,1.79h0l.09-.07a10.88,10.88,0,0,0,2.39-15.18,11.27,11.27,0,0,0-2.29-2.32Z"/>
            <path class="cls-4"
                  d="M34.86,49.92a8.77,8.77,0,0,1,0-14.56,1,1,0,0,0,.09-1.48,1.06,1.06,0,0,0-1.24-.26,10.88,10.88,0,0,0-3,15.1,10.66,10.66,0,0,0,3,3,1.05,1.05,0,0,0,1.2-1.7h0Z"/>
        </g>
    </g>
</svg>