<svg xmlns="http://www.w3.org/2000/svg" viewBox="0 0 720 720">
    <defs>
        <style>.cls-1{fill:#fff;}.cls-2{fill:#fc1d47;}.cls-3{fill:#c1e1f7;}.cls-4{fill:#8f8f96;}.cls-5{fill:#11113f;}
        </style>
    </defs>
    <title>bus</title>
    <g id="Слой_2" data-name="Слой 2">
        <g id="Layer_1" data-name="Layer 1">
            <circle class="cls-1" cx="360" cy="360" r="360"/>
            <polygon class="cls-2"
                     points="168.12 209.44 191.44 189.46 528.6 189.46 569.4 226.1 569.4 490.84 133.99 490.84 133.99 420.07 159.81 379.27 168.12 209.44"/>
            <rect class="cls-3" x="196.43" y="354.3" width="346.32" height="49.95"/>
            <polygon class="cls-3"
                     points="199.77 222.77 526.1 222.77 538.59 241.91 538.59 274.38 196.43 274.38 199.77 222.77"/>
            <circle class="cls-4" cx="456.17" cy="494.16" r="37.46"/>
            <circle class="cls-4" cx="205.59" cy="494.16" r="37.46"/>
            <path class="cls-5"
                  d="M515.21,213.78H198.55A14.19,14.19,0,0,0,184.37,228h0V276.5a9.29,9.29,0,0,0,9.29,9.29H539.38a9.29,9.29,0,0,0,9.29-9.29h0V247.13a33.4,33.4,0,0,0-33.45-33.35Zm-231,53.43H202.91V232.35h81.27Zm135.54,0H302.9V232.35H419.63Zm18.54,0V232.35h76.95A14.81,14.81,0,0,1,530,247.16h0v20.07Z"/>
            <path class="cls-5"
                  d="M539.33,344.33H193.62a9.29,9.29,0,0,0-9.29,9.29h0v53.43a9.29,9.29,0,0,0,9.29,9.29H539.33a9.29,9.29,0,0,0,9.29-9.29h0V353.62a9.29,9.29,0,0,0-9.29-9.29ZM284.17,397.77H202.91V362.88h81.27Zm135.54,0H302.9V362.88H419.63Zm18.54,0V362.88H530v34.89Z"/>
            <path class="cls-5"
                  d="M589.93,479.7H582V247.13a66.86,66.86,0,0,0-66.81-66.81H198.55A47.64,47.64,0,0,0,151,227.91V379l-13.47,10.58A36.81,36.81,0,0,0,124,419.31v69.63a9.29,9.29,0,0,0,9.29,9.29h24.6a50.77,50.77,0,0,0,100,0H407.23a50.77,50.77,0,0,0,100,0h82.66a9.29,9.29,0,0,0,0-18.54ZM169.51,228a29.1,29.1,0,0,1,29-29H515.21a48.26,48.26,0,0,1,48.09,48.21V310H169.51ZM159.86,473v.45l-.5,1.57v.72L159,477.2v.95l-.27,1.25v.27H143.33V457.2h26.09a50.77,50.77,0,0,0-9.57,15.71ZM208,521.56a32.28,32.28,0,0,1-32.23-32.23v-7.11l.27-1.16h0a32.23,32.23,0,0,1,62.31,0h0l.27,1.16v7.09A32.28,32.28,0,0,1,208,521.51ZM409.22,473v.45l-.5,1.57v.72l-.36,1.44v.95l-.27,1.25v.27H258v-.27l-.27-1.25v-.95l-.36-1.44V475l-.5-1.57V473a50.77,50.77,0,0,0-9-16H418.77a50.74,50.74,0,0,0-9.6,15.93Zm48.13,48.54a32.28,32.28,0,0,1-32.23-32.23v-7l.31-1.25h0a32.23,32.23,0,0,1,62.31,0h0l.31,1.25v7a32.28,32.28,0,0,1-30.76,32.19Zm106-41.85H507.18v-.27l-.27-1.25v-.95l-.36-1.44v-.72l-.5-1.57v-.45a50.79,50.79,0,0,0-9-16h7.8a9.29,9.29,0,0,0,0-18.54H142.66V419.36a18.73,18.73,0,0,1,6.42-15.13L166,390.75a9.29,9.29,0,0,0,3.55-7.27V328.85H563.3Z"/>
        </g>
    </g>
</svg>