<svg xmlns="http://www.w3.org/2000/svg" viewBox="0 0 693 693">
    <defs>
        <style>
            .cls-1{fill:#fff;stroke:#00c5db;stroke-miterlimit:10;stroke-width:20px;}.cls-2{fill:#f9b315;}.cls-3{fill:#dff2f0;}.cls-4{fill:#11113f;}
        </style>
    </defs>
    <title>buy</title>
    <g id="Слой_2" data-name="Слой 2">
        <g id="Слой_1-2" data-name="Слой 1">
            <circle class="cls-1" cx="346.5" cy="346.5" r="336.5"/>
            <circle class="cls-2" cx="337.67" cy="333.83" r="199"/>
            <polygon class="cls-3"
                     points="409.67 410.83 510.67 439.83 489.67 463.83 538.67 516.83 515.67 537.83 462.67 486.83 436.67 509.83 409.67 410.83"/>
            <path class="cls-4"
                  d="M498.57,462.67l19.93-19.93a8.7,8.7,0,0,0,2.53-2.82c56.53-101.41,20.16-229.45-81.26-286s-229.45-20.09-286,81.27-20.12,229.44,81.23,286q8.88,4.94,18.17,9H250a8.82,8.82,0,1,0,0,17.64H425a8.82,8.82,0,1,0,0-17.64h-3.76q8.82-3.82,17.22-8.41a8.7,8.7,0,0,0,3-1.94l20.93-21L508.8,545a8.76,8.76,0,0,0,12.39,0h0l23.48-23.51a8.76,8.76,0,0,0,0-12.39h0ZM241.19,504.53C150,449.71,120.6,331.38,175.42,240.23A192.59,192.59,0,0,1,433.79,171,193.41,193.41,0,0,1,509,425.4L409,398.59a8.76,8.76,0,0,0-10.7,10.7l26.75,99.94A194,194,0,0,1,241.19,504.53Zm273.78,22-46.3-46.22a8.76,8.76,0,0,0-12.11,0l-16.49,16.46L419.14,419.4l77.31,20.69L480,456.83a8.76,8.76,0,0,0,0,12.39h0l46.27,46.38Z"/>
            <path class="cls-4"
                  d="M225.5,381.13H239a77.42,77.42,0,0,0,25.46-2.88q12.58-5,12.58-22.69a21.58,21.58,0,0,0-3.94-13.73A20.58,20.58,0,0,0,261.36,335a17.64,17.64,0,0,0,9.88-7.11,23.52,23.52,0,0,0,3.12-13,20.16,20.16,0,0,0-5.11-14.76,25.34,25.34,0,0,0-15.83-6.31,118.64,118.64,0,0,0-13.58-.76H225.5q-13.11,0-13.11,13.7v61.14a11.35,11.35,0,0,0,13.11,13.23Zm4.12-69.72q0-4.47,3.76-4.47H242a33.63,33.63,0,0,1,8.23.76A9.11,9.11,0,0,1,257.3,318a9.46,9.46,0,0,1-5.88,9.7,32,32,0,0,1-10.58,1.08H229.08v-17.6Zm0,31.16h12.23a36.63,36.63,0,0,1,11.75,1.26,9.94,9.94,0,0,1,6.35,10.11q0,9.23-5.88,11.76a30,30,0,0,1-10.23,1.23h-9.46a4.94,4.94,0,0,1-3.71-1.1,5.17,5.17,0,0,1-1.06-3.64Z"/>
            <path class="cls-4"
                  d="M416.32,377.49q0,3.76,3.35,3.76h10.46a3.41,3.41,0,0,0,2.47-1,3.7,3.7,0,0,0,1-2.76V344.1L461,299.48a9.17,9.17,0,0,0,1.47-4,2.18,2.18,0,0,0-1.47-2.12,66.08,66.08,0,0,0-12.58-.65,5.88,5.88,0,0,0-5.11,3.76Q430.25,318,425.72,327.16q-5.88-11.11-17.64-30.92a5.88,5.88,0,0,0-5-3.47,91.47,91.47,0,0,0-14,.47,2.47,2.47,0,0,0-1.65,2.35,9.41,9.41,0,0,0,1.65,4.12l27.45,44.91v32.92Z"/>
            <path class="cls-4"
                  d="M366.59,292.95h-10a3,3,0,0,0-3.35,3.47v53.73a24.34,24.34,0,0,1-2.57,13.47q-3.23,4.76-14.7,4.76a16.28,16.28,0,0,1-14.11-5,24.46,24.46,0,0,1-2.65-13.46v-53.5q0-3.47-2.88-3.47H305.16a3,3,0,0,0-3.35,3.47v49.73a66.49,66.49,0,0,0,2.76,23.52q5.88,13,30.16,13t31.16-12.11a25.28,25.28,0,0,0,3-9.35,121.87,121.87,0,0,0,.76-15.46V296.42Q369.59,292.95,366.59,292.95Z"/>
            <path class="cls-4"
                  d="M296.67,489.95A158,158,0,0,1,185,378.25a8.76,8.76,0,0,0-16.91,4.58h0a175.54,175.54,0,0,0,123.87,124.1A8.76,8.76,0,0,0,296.46,490Z"/>
            <path class="cls-4"
                  d="M489.67,297a8.77,8.77,0,0,0,16.87-4.82A175.54,175.54,0,0,0,382.82,168.73a8.76,8.76,0,1,0-4.53,16.93h0A158,158,0,0,1,489.67,297Z"/>
            <path class="cls-4"
                  d="M332.26,495.24l-6.58-.35a8.84,8.84,0,1,0-1.29,17.64l7.29.41h0a8.82,8.82,0,0,0,0-17.64Z"/>
            <path class="cls-4"
                  d="M342.72,180.49l6.58.35h.65a8.83,8.83,0,0,0,.65-17.64l-7.29-.37a8.82,8.82,0,0,0-.59,17.64h0Z"/>
        </g>
    </g>
</svg>