<svg xmlns="http://www.w3.org/2000/svg" viewBox="0 0 559.26 559.26">
    <defs>
        <style>
            .cls-1{fill:#fff;}.cls-2{fill:#3d3c42;}.cls-3{fill:#b5b4b4;}.cls-4{fill:#f25187;}.cls-5{fill:#f9f2d4;}.cls-6{fill:#535356;}.cls-7{fill:#89899b;}.cls-8{fill:#b9b9ea;}.cls-9{fill:#11113f;}
        </style>
    </defs>
    <title>camera</title>
    <g id="Слой_2" data-name="Слой 2">
        <g id="Слой_1-2" data-name="Слой 1">
            <circle class="cls-1" cx="279.63" cy="279.63" r="279.63"/>
            <polyline class="cls-2" points="120.59 240.48 190.03 242.54 190.72 407.68 120.59 407.54 120.59 240.48"/>
            <polygon class="cls-3" points="122.66 196.48 425.16 196.48 425.16 240.48 120.59 240.48 122.66 196.48"/>
            <polygon class="cls-4" points="149.47 160.04 149.47 194.41 205.16 194.41 205.16 161.41 149.47 160.04"/>
            <polygon class="cls-5" points="261.53 150.41 245.72 194.41 372.91 194.41 357.78 150.41 261.53 150.41"/>
            <polygon class="cls-6" points="190.03 242.54 427.22 240.48 424.47 410.29 190.03 410.29 190.03 242.54"/>
            <circle class="cls-7" cx="308.97" cy="322.29" r="77.69"/>
            <circle class="cls-8" cx="308.97" cy="321.6" r="51.56"/>
            <circle class="cls-1" cx="324.1" cy="299.6" r="22.69"/>
            <path class="cls-9"
                  d="M432,195a6.16,6.16,0,0,0-6.19-6.19H376.14l-10.31-41.39a6.17,6.17,0,0,0-6-4.68H258.16a6.17,6.17,0,0,0-6,4.68l-10.31,41.39H212.31V160.38a6.16,6.16,0,0,0-6.19-6.19H149.88a6.16,6.16,0,0,0-6.19,6.19h0v28.39H121.21A6.16,6.16,0,0,0,115,195v215.4a6.16,6.16,0,0,0,6.19,6.19h304.5a6.16,6.16,0,0,0,6.19-6.19h0V240.82h0ZM263,155.16h91.78l8.53,33.69H254.45Zm-63.25,11.48v22.21H156V166.64ZM150,404.38H127.54V246.94H150Zm34.51-78.58v78.65H162.6V247h22.07Zm-27.64-91H127.61V201.43H419.66v33.41Zm40,169.54V246.94h69.92A85.37,85.37,0,0,0,288.48,404.1Zm39-82.71a73,73,0,1,1,73,73h0a73,73,0,0,1-73-73Zm183.77,82.71H329.39a85.38,85.38,0,0,0,21.73-157.16H419.8Z"/>
            <path class="cls-9"
                  d="M344.24,274.1a33.17,33.17,0,0,0-5.5-3.64,59.13,59.13,0,1,0,5.5,3.64Zm-20.14,5.16a18.92,18.92,0,0,1,8.66,2.06c1.31.83,2.61,1.65,3.85,2.61a19.16,19.16,0,1,1-27,2.13,19,19,0,0,1,14.51-6.81ZM308.9,367.87a46.53,46.53,0,0,1-6.12-92.74,31.58,31.58,0,0,0,42.69,46.54,31.21,31.21,0,0,0,8.39-12.58,46.57,46.57,0,0,1-45,58.78Z"/>
            <path class="cls-9"
                  d="M364.18,210.57H180.41a6.18,6.18,0,0,0-5.78,6.6,6.31,6.31,0,0,0,4.68,5.64H364.25a6.21,6.21,0,1,0,1.1-12.38Z"/>
        </g>
    </g>
</svg>