<?xml version="1.0" encoding="utf-8"?>
<!-- Generator: Adobe Illustrator 21.0.0, SVG Export Plug-In . SVG Version: 6.00 Build 0)  -->
<svg version="1.1" id="Слой_1" xmlns="http://www.w3.org/2000/svg"  x="0px" y="0px"
	 viewBox="0 0 146.5 146.5" style="enable-background:new 0 0 146.5 146.5;" xml:space="preserve">
<style type="text/css">
	.st0{fill:#FFFFFF;}
	.st1{fill:#AFAAA3;}
	.st2{fill:#F2BD70;}
	.st3{fill:#2DB2D6;}
	.st4{fill:#FFF6B6;}
	.st5{fill:#11113F;}
	.st6{fill:#FCF7BB;}
	.st7{fill:#5F5F66;}
	.st8{fill:#721B00;}
	.st9{fill:#F9E8C0;}
	.st10{fill:#F7E71E;}
	.st11{fill:#F91C2D;}
</style>
<title>certeficate</title>
<g id="Layer_1">
	<circle class="st0" cx="73.3" cy="73.3" r="70.8"/>
	<circle class="st0" cx="86.3" cy="83.8" r="10.2"/>
	<polyline class="st1" points="55.5,51.7 55.7,51.2 56.5,50.8 57.1,51.2 57.4,51.7 55.5,51.7 	"/>
	<polygon class="st2" points="53.5,52 53.5,56.8 53.7,57.2 59.2,57.2 59.5,56.8 59.5,52 59.1,51.8 53.8,51.8 	"/>
	<polygon class="st3" points="50,54.1 50.5,53.6 51.4,53.3 55.3,53.3 55.2,53.8 54.5,54.1 52.3,54.1 52.2,59.2 50.7,59.2 50.7,56.8 
		50,56.7 49.8,56 	"/>
	<circle class="st4" cx="51.4" cy="52.6" r="0.6"/>
	<circle class="st5" cx="55.2" cy="54.8" r="0.3"/>
	<path class="st5" d="M59,51.5h-1.5c-0.1-0.6-0.7-1-1.3-0.9c-0.5,0.1-0.8,0.4-0.9,0.9h-1.5c-0.3,0-0.6,0.3-0.6,0.6v0v1h-1
		c0.3-0.4,0.2-1-0.2-1.3c-0.4-0.3-1-0.2-1.3,0.2c-0.3,0.4-0.2,0.9,0.1,1.2c-0.6,0.3-1.1,0.9-1.1,1.6v1.4c0,0.4,0.3,0.8,0.8,0.8V59
		H50c-0.1,0-0.2,0.1-0.2,0.2s0.1,0.2,0.2,0.2h9.2c0.1,0,0.2-0.1,0.2-0.2S59.3,59,59.2,59h-1.5l-0.5-1.7H59c0.3,0,0.6-0.3,0.6-0.6v0
		v-4.6C59.6,51.8,59.3,51.6,59,51.5C59,51.5,59,51.5,59,51.5L59,51.5z M56.4,51c0.3,0,0.6,0.2,0.7,0.5h-1.4
		C55.8,51.2,56.1,51,56.4,51z M51.4,52c0.3,0,0.5,0.2,0.5,0.5c0,0.3-0.2,0.5-0.5,0.5c-0.3,0-0.5-0.2-0.5-0.5c0,0,0,0,0,0
		C50.9,52.2,51.1,52,51.4,52z M52.1,54.1V59h-0.4v-2.2c0-0.1-0.1-0.2-0.2-0.2s-0.2,0.1-0.2,0.2V59h-0.4v-4.2c0-0.1-0.1-0.2-0.2-0.2
		s-0.2,0.1-0.2,0.2v1.8c-0.2,0-0.4-0.2-0.4-0.5v-1.4c0-0.7,0.6-1.3,1.4-1.3H55c-0.1,0.3-0.3,0.4-0.6,0.4h-2.1
		C52.2,53.9,52.1,54,52.1,54.1L52.1,54.1z M57.4,59h-1.8l0.5-1.7h0.7L57.4,59z M59.2,56.8c0,0.1-0.1,0.2-0.2,0.2h-5.2
		c-0.1,0-0.2-0.1-0.2-0.2l0,0v-2.6c0-0.1-0.1-0.1-0.2-0.1s-0.2,0-0.2,0.1v1.4l0,0v1.1c0,0.3,0.3,0.6,0.6,0.6h0h1.9L55.2,59h-2.7
		v-4.7h2c0.6,0,1-0.4,1-1l0,0c0-0.1-0.1-0.2-0.2-0.2h-1.6v-1c0-0.1,0.1-0.2,0.2-0.2H59c0.1,0,0.2,0.1,0.2,0.2l0,0V56.8z"/>
	<path class="st5" d="M62,53.8c-0.1-0.1-0.3-0.1-0.4,0c0,0,0,0,0,0L60.3,55l-0.4-0.5c-0.1-0.1-0.3-0.1-0.4,0c0,0,0,0,0,0l-1.6,1.6
		l-0.4-0.4c-0.1-0.1-0.3-0.1-0.4,0c0,0,0,0,0,0l-0.8,0.8c-0.1,0.1-0.1,0.3,0,0.4c0.1,0.1,0.3,0.1,0.4,0l0,0l0,0l0,0l0.6-0.6l0.4,0.4
		c0.1,0.1,0.3,0.1,0.4,0c0,0,0,0,0,0l1.6-1.6l0.4,0.4c0.1,0.1,0.3,0.1,0.4,0c0,0,0,0,0,0l1.4-1.4C62,54.1,62,53.9,62,53.8
		C61.9,53.8,61.9,53.8,62,53.8L62,53.8z"/>
	<polygon class="st6" points="81.6,80.6 82.9,79.6 84.6,79.3 86.3,79.9 87.1,79.5 88.4,79.2 90.1,79.7 90.9,80.5 91.5,81.8 
		91.3,83.6 90.7,84.6 90.1,85.2 90,85.8 89.6,87.1 86.9,87 86.7,86.5 86.6,85.4 86.2,84.9 85.8,85.6 85.8,86.5 85.6,87.1 83,87.1 
		82.7,86.6 82.7,85.7 82,84.6 81.4,83.8 81.1,82.7 81.4,81.1 	"/>
	<polygon class="st7" points="87.2,87.2 89.6,87.2 89.6,88.6 89.1,89 87.3,88.9 87.1,88.3 	"/>
	<polygon class="st7" points="83.1,87.2 85.4,87.2 85.4,88.6 85,88.9 83.3,88.9 83.1,88.3 	"/>
	<path class="st5" d="M90.7,80c-1.2-1.2-3.1-1.3-4.4-0.3c-1.6-1-3.7-0.4-4.7,1.2c-0.8,1.3-0.6,2.9,0.4,4c0.3,0.3,0.5,0.7,0.5,1.1
		v0.5c0,0.3,0.1,0.5,0.4,0.7v1.2c0,0.4,0.3,0.8,0.8,0.8H85c0.4,0,0.8-0.3,0.8-0.7c0,0,0,0,0,0l0,0v-1.2c0.2-0.1,0.4-0.4,0.4-0.7V86
		c0-0.3,0.1-0.6,0.2-0.8c0.1,0.2,0.2,0.5,0.2,0.8v0.5c0,0.3,0.1,0.5,0.4,0.7v1.2c0,0.4,0.3,0.8,0.7,0.8c0,0,0,0,0,0H89
		c0.4,0,0.8-0.3,0.8-0.7c0,0,0,0,0,0v-1.1c0.2-0.2,0.4-0.4,0.4-0.7V86c0-0.4,0.2-0.9,0.5-1.2c1.4-1.3,1.5-3.4,0.2-4.8c0,0,0,0,0,0
		L90.7,80z M85.2,88.4c0,0.2-0.1,0.3-0.3,0.3l0,0h-1.3c-0.2,0-0.3-0.1-0.3-0.3l0,0l0,0v-1h2C85.2,87.4,85.2,88.4,85.2,88.4z
		 M85.6,86v0.5c0,0.2-0.2,0.4-0.4,0.4h-2c-0.2,0-0.4-0.2-0.4-0.4l0,0V86c0-0.6-0.2-1.1-0.6-1.4c-1.2-1.1-1.3-3-0.2-4.2
		c0.6-0.6,1.3-0.9,2.2-1l0,0c0.6,0,1.2,0.2,1.7,0.5l0,0c-1.3,1.3-1.3,3.5,0,4.8l0.1,0.1C85.8,85.1,85.6,85.6,85.6,86z M86.3,84.5
		c-1.2-1.1-1.3-3-0.2-4.2l0,0l0.2-0.2l0.1,0.1c1.2,1.2,1.2,3.1,0,4.2l0,0L86.3,84.5L86.3,84.5z M89.3,88.3c0,0.2-0.1,0.3-0.3,0.3
		l0,0h-1.3c-0.2,0-0.3-0.1-0.3-0.3l0,0l0,0v-1h2L89.3,88.3z M90.3,84.5c-0.4,0.4-0.6,0.9-0.7,1.5v0.5c0,0.2-0.2,0.4-0.4,0.4h-2
		c-0.2,0-0.4-0.2-0.4-0.4c0,0,0,0,0,0l0,0V86c0-0.4-0.1-0.8-0.4-1.2c1.4-1.3,1.5-3.4,0.2-4.8c0,0,0,0,0,0l-0.1,0l0,0
		c0.5-0.3,1.1-0.5,1.6-0.5l0,0c1.7,0,3,1.4,2.9,3.1c0,0.8-0.4,1.6-0.9,2.1L90.3,84.5z"/>
	<path class="st5" d="M89.6,80.6c-0.1-0.1-0.2,0-0.3,0s0,0.2,0,0.3l0,0c0.5,0.3,0.7,0.9,0.7,1.4c0,0.6-0.3,1.1-0.7,1.4
		c-0.1,0.1-0.1,0.2-0.1,0.3c0.1,0.1,0.2,0.1,0.3,0.1l0,0l0,0c1-0.7,1.2-2.1,0.5-3.1c0,0,0,0,0-0.1C90,80.8,89.8,80.7,89.6,80.6
		L89.6,80.6z"/>
	<path class="st5" d="M83.2,83.8c-0.8-0.5-1.1-1.6-0.5-2.5c0.1-0.2,0.3-0.4,0.5-0.5c0.1-0.1,0.1-0.2,0-0.3c0,0,0,0,0,0
		c-0.1-0.1-0.2-0.1-0.3-0.1c-1,0.7-1.3,2.1-0.6,3.1c0,0,0,0,0,0c0.2,0.2,0.4,0.4,0.6,0.6c0.1,0.1,0.2,0,0.3-0.1
		C83.3,84,83.2,83.9,83.2,83.8L83.2,83.8L83.2,83.8z"/>
	<polygon class="st8" points="102.8,46.6 112.7,46.6 112.1,100.2 34.8,99.7 34.8,46 	"/>
	<polygon class="st9" points="43.4,46.6 101.6,46.6 112.1,56.9 112.7,90.1 106.3,93.5 101.7,99.3 45,99.3 41.4,94.2 34.8,90.5 
		34.8,55.2 41.1,52.2 	"/>
	<circle class="st10" cx="85.3" cy="92.1" r="7.2"/>
	<polygon class="st11" points="78.7,97.4 84.8,99.1 91.9,96.4 95.1,103.8 91.9,103.8 90.1,106.9 86.5,100.4 83.7,100.4 80.9,106.1 
		75.4,103.2 	"/>
	<path class="st5" d="M112.3,44.5H34.2c-0.9,0-1.6,0.7-1.6,1.6l0,0v53.7c0,0.9,0.7,1.6,1.6,1.6h39.9l-0.8,1.4
		c-0.5,0.7-0.3,1.7,0.5,2.2c0.2,0.1,0.5,0.2,0.7,0.2l2.7,0.3l1.7,2.2c0.3,0.4,0.7,0.6,1.2,0.6h0.1c0.5,0,1-0.3,1.2-0.8l3.4-5.8
		l3.4,5.8c0.3,0.4,0.7,0.7,1.2,0.8h0.1c0.5,0,0.9-0.2,1.2-0.6l1.7-2.2l2.8-0.3c0.9-0.1,1.5-0.8,1.5-1.7c0-0.3-0.1-0.5-0.2-0.7
		l-0.8-1.4h16.6c0.9,0,1.6-0.7,1.6-1.6V46.1C113.9,45.3,113.2,44.5,112.3,44.5z M35.8,47.7h5.9c-0.6,3-3,5.3-5.9,5.9V47.7z
		 M35.8,98.3v-5.9c3,0.6,5.3,3,5.9,5.9L35.8,98.3z M80,103.9l-0.7-0.9c-0.3-0.3-0.6-0.6-1.1-0.6l-1-0.1l1.8-3
		c0.8,0.7,1.7,1.2,2.8,1.6L80,103.9z M87.8,97.6l-0.2,0.1h-0.2l-0.2,0.1H87l-0.2,0.1h-0.1l-0.3,0.1l0,0L85.8,98h-2.8l-0.2-0.1h-0.1
		l-0.2-0.1l0,0l-0.2-0.1l0,0c-3-1.6-4-5.3-2.4-8.2s5.3-4,8.2-2.4c3,1.6,4,5.3,2.4,8.2c-0.6,1-1.4,1.9-2.4,2.4L87.8,97.6z
		 M91.6,102.4c-0.4,0.1-0.8,0.3-1.1,0.6l-0.6,0.8l-1.8-3h0.1l0.3-0.1h0.1l0.3-0.2l0,0c0.7-0.3,1.3-0.7,1.9-1.2l1.8,3L91.6,102.4z
		 M101.6,98.2H94l-0.9-1.6c2.5-4.5,0.9-10.1-3.6-12.6c-4.5-2.5-10.1-0.9-12.6,3.6c-1.5,2.8-1.5,6.2,0,9L76,98.2H44.9
		c-0.7-4.7-4.4-8.4-9.2-9.2V56.8c4.7-0.7,8.4-4.4,9.2-9.1h56.7c0.7,4.7,4.4,8.4,9.2,9.2v32.3C106,89.8,102.3,93.6,101.6,98.2
		L101.6,98.2z M110.7,98.2h-5.9c0.6-3,3-5.3,5.9-5.9L110.7,98.2z M110.7,53.6c-3-0.6-5.3-3-5.9-5.9h5.9V53.6z"/>
	<path class="st5" d="M90.1,68.8H56.5c-0.9-0.1-1.6,0.6-1.7,1.4s0.6,1.6,1.4,1.7l0,0h33.9c0.9,0.1,1.7-0.6,1.7-1.5
		c0.1-0.9-0.6-1.7-1.4-1.7L90.1,68.8z"/>
	<path class="st5" d="M90.1,75.3H56.5c-0.9-0.1-1.7,0.6-1.7,1.5c-0.1,0.9,0.6,1.7,1.5,1.7l0,0h33.9c0.9,0.1,1.7-0.6,1.7-1.5
		c0.1-0.9-0.6-1.7-1.4-1.7H90.1z"/>
	<path class="st5" d="M80.5,61.5L80.5,61.5c0.9,0.1,1.7-0.6,1.7-1.5c0.1-0.9-0.6-1.7-1.4-1.7h-0.3c-0.9,0-1.6,0.7-1.6,1.6
		c0,0.8,0.6,1.5,1.4,1.6H80.5z"/>
	<path class="st5" d="M66.1,61.5h9.7c0.9,0,1.6-0.7,1.6-1.6s-0.7-1.6-1.6-1.6h-9.7c-0.9-0.1-1.7,0.6-1.7,1.5
		c-0.1,0.9,0.6,1.7,1.4,1.7H66.1z"/>
	<path class="st5" d="M56.5,85.5L56.5,85.5c-0.9,0-1.6,0.7-1.6,1.6c0,0.9,0.7,1.6,1.6,1.6l0,0c0.9,0.1,1.7-0.6,1.7-1.5
		c0.1-0.9-0.6-1.7-1.5-1.7H56.5z"/>
	<path class="st5" d="M67.7,85.5H61c-0.9,0-1.6,0.7-1.6,1.6c0,0.8,0.6,1.5,1.4,1.6h6.9c0.9,0,1.6-0.7,1.6-1.6
		C69.2,86.2,68.5,85.5,67.7,85.5L67.7,85.5z"/>
</g>
</svg>
