<svg xmlns="http://www.w3.org/2000/svg" viewBox="0 0 146.5 146.5">
    <defs>
        <style>
            .cls-1{fill:#fff;}.cls-2{fill:#afaaa3;}.cls-3{fill:#f2bd70;}.cls-4{fill:#2db2d6;}.cls-5{fill:#fff6b6;}.cls-6{fill:#11113f;}.cls-7{fill:#fcf7bb;}.cls-8{fill:#5f5f66;}.cls-9{fill:#721b00;}.cls-10{fill:#f9e8c0;}.cls-11{fill:#f7e71e;}.cls-12{fill:#f91c2d;}.cls-13{fill:none;stroke:#00c5db;stroke-miterlimit:10;stroke-width:5px;}
        </style>
    </defs>
    <title>certeficate</title>
    <g id="Слой_2" data-name="Слой 2">
        <g id="Layer_1" data-name="Layer 1">
            <circle class="cls-1" cx="86.27" cy="83.84" r="10.16"/>
            <polyline class="cls-2" points="55.51 51.68 55.7 51.21 56.48 50.79 57.09 51.15 57.39 51.74 55.51 51.74"/>
            <polygon class="cls-3"
                     points="53.46 51.98 53.46 56.8 53.65 57.16 59.22 57.16 59.47 56.83 59.47 51.98 59.11 51.76 53.79 51.76 53.46 51.98"/>
            <polygon class="cls-4"
                     points="50 54.14 50.47 53.62 51.36 53.34 55.29 53.34 55.15 53.75 54.48 54.14 52.33 54.14 52.24 59.18 50.69 59.18 50.66 56.85 50 56.69 49.83 56.05 50 54.14"/>
            <circle class="cls-5" cx="51.37" cy="52.58" r="0.6"/>
            <circle class="cls-6" cx="55.15" cy="54.8" r="0.28"/>
            <path class="cls-6"
                  d="M59,51.54h-1.5a1.13,1.13,0,0,0-2.22,0h-1.5a.58.58,0,0,0-.58.58v1H52.17a.92.92,0,1,0-1.38.14,1.7,1.7,0,0,0-1.07,1.57v1.44a.86.86,0,0,0,.78.84V59H50a.19.19,0,0,0,0,.39h9.23a.19.19,0,1,0,0-.39H57.78l-.55-1.65H59a.58.58,0,0,0,.58-.58V52.13a.57.57,0,0,0-.57-.59ZM56.43,51a.74.74,0,0,1,.72.55H55.72a.74.74,0,0,1,.71-.55Zm-5,1a.53.53,0,1,1-.53.53.53.53,0,0,1,.53-.53Zm.65,2.07V59h-.4V56.79a.19.19,0,0,0-.39,0V59h-.4V54.84a.19.19,0,0,0-.39,0v1.84a.47.47,0,0,1-.4-.46V54.79a1.34,1.34,0,0,1,1.36-1.31H55a.63.63,0,0,1-.59.43H52.27a.19.19,0,0,0-.19.19ZM57.39,59H55.61l.55-1.65h.65Zm1.85-2.23a.19.19,0,0,1-.19.19H53.81a.19.19,0,0,1-.19-.19h0l0-2.56c0-.11-.06-.11-.17-.11s-.24,0-.24.06V55.6h0v1.13a.58.58,0,0,0,.58.58h1.93L55.2,59H52.46V54.29h2a1,1,0,0,0,1-1h0a.19.19,0,0,0-.19-.19H53.63v-1a.19.19,0,0,1,.19-.19h5.23a.19.19,0,0,1,.19.19h0Z"/>
            <path class="cls-6"
                  d="M62,53.83a.28.28,0,0,0-.4,0L60.34,55l-.44-.45a.28.28,0,0,0-.4,0l-1.56,1.56-.43-.43a.28.28,0,0,0-.4,0l-.82.82a.28.28,0,0,0,.37.43h0l0,0,.61-.61.43.43a.28.28,0,0,0,.4,0l1.56-1.56.44.44a.28.28,0,0,0,.4,0l1.41-1.41a.28.28,0,0,0,0-.4Z"/>
            <polygon class="cls-7"
                     points="81.55 80.6 82.91 79.55 84.59 79.3 86.29 79.87 87.08 79.51 88.42 79.21 90.08 79.71 90.89 80.48 91.46 81.82 91.32 83.57 90.67 84.61 90.12 85.2 89.96 85.79 89.62 87.06 86.95 86.99 86.72 86.54 86.56 85.38 86.17 84.93 85.77 85.61 85.77 86.54 85.61 87.06 82.98 87.06 82.68 86.63 82.68 85.72 82.02 84.61 81.41 83.82 81.07 82.71 81.37 81.1 81.55 80.6"/>
            <polygon class="cls-8"
                     points="87.17 87.2 89.55 87.2 89.55 88.6 89.14 88.97 87.26 88.88 87.08 88.31 87.17 87.2"/>
            <polygon class="cls-8"
                     points="83.11 87.2 85.45 87.2 85.38 88.6 84.97 88.88 83.27 88.88 83.07 88.28 83.11 87.2"/>
            <path class="cls-6"
                  d="M90.69,80a3.4,3.4,0,0,0-4.42-.32A3.41,3.41,0,0,0,82,84.9a1.54,1.54,0,0,1,.5,1.14v.48a.81.81,0,0,0,.37.68v1.15a.76.76,0,0,0,.75.76h1.34a.75.75,0,0,0,.76-.76h0V87.2a.81.81,0,0,0,.37-.68V86a1.56,1.56,0,0,1,.23-.81,1.56,1.56,0,0,1,.23.81v.47a.81.81,0,0,0,.37.68v1.15a.75.75,0,0,0,.76.76H89a.75.75,0,0,0,.75-.76V87.2a.81.81,0,0,0,.36-.68V86a1.54,1.54,0,0,1,.51-1.15,3.41,3.41,0,0,0,.22-4.82L90.69,80Zm-5.45,8.4a.33.33,0,0,1-.33.33H83.57a.33.33,0,0,1-.33-.33h0v-1h2v1ZM85.61,86v.47a.38.38,0,0,1-.38.38h-2a.38.38,0,0,1-.38-.38h0V86a2,2,0,0,0-.64-1.45,3,3,0,0,1,2-5.2h0a3,3,0,0,1,1.69.52l0,0a3.41,3.41,0,0,0,0,4.8l.12.11A2,2,0,0,0,85.61,86Zm.66-1.47a3,3,0,0,1-.19-4.2h0l.19-.19.07.06a3,3,0,0,1,0,4.22h0l-.1.09Zm3,3.78a.33.33,0,0,1-.33.33H87.61a.33.33,0,0,1-.33-.33h0v-1h2Zm1-3.76a2,2,0,0,0-.65,1.46v.47a.38.38,0,0,1-.38.38h-2a.38.38,0,0,1-.39-.38h0v-.48a2,2,0,0,0-.37-1.16,3.41,3.41,0,0,0,.2-4.82L86.63,80l0,0a3,3,0,0,1,1.64-.52h0a3,3,0,0,1,2,5.18Z"/>
            <path class="cls-6"
                  d="M89.62,80.57a.21.21,0,1,0-.25.34h0a1.78,1.78,0,0,1,.72,1.43,1.79,1.79,0,0,1-.73,1.44.21.21,0,0,0,.23.36h0A2.21,2.21,0,0,0,90.08,81a2.29,2.29,0,0,0-.46-.47Z"/>
            <path class="cls-6"
                  d="M83.19,83.82a1.78,1.78,0,0,1,0-3,.21.21,0,0,0,0-.3.22.22,0,0,0-.25-.05,2.21,2.21,0,0,0-.6,3.07,2.17,2.17,0,0,0,.6.6.21.21,0,0,0,.24-.34h0Z"/>
            <polygon class="cls-9"
                     points="102.77 46.63 112.73 46.63 112.12 100.19 34.77 99.68 34.77 46.02 102.77 46.63"/>
            <polygon class="cls-10"
                     points="43.41 46.63 101.55 46.63 112.12 56.89 112.73 90.13 106.32 93.48 101.65 99.27 45.04 99.27 41.38 94.19 34.77 90.53 34.77 55.16 41.07 52.22 43.41 46.63"/>
            <circle class="cls-11" cx="85.29" cy="92.06" r="7.22"/>
            <polygon class="cls-12"
                     points="78.74 97.44 84.78 99.07 91.86 96.43 95.14 103.75 91.86 103.75 90.06 106.9 86.5 100.39 83.66 100.39 80.92 106.08 75.43 103.24 78.74 97.44"/>
            <path class="cls-6"
                  d="M112.35,44.51H34.24a1.59,1.59,0,0,0-1.59,1.59V99.83a1.59,1.59,0,0,0,1.59,1.59H74.11l-.81,1.39a1.59,1.59,0,0,0,1.22,2.44l2.74.33L79,107.79a1.59,1.59,0,0,0,1.22.63h.1a1.58,1.58,0,0,0,1.22-.79l3.38-5.85,3.38,5.85a1.59,1.59,0,0,0,1.22.79h.1a1.59,1.59,0,0,0,1.22-.63l1.65-2.2,2.77-.35a1.59,1.59,0,0,0,1.22-2.44l-.81-1.39h16.61a1.59,1.59,0,0,0,1.59-1.58V46.11A1.59,1.59,0,0,0,112.35,44.51ZM35.8,47.69h5.93a7.7,7.7,0,0,1-5.93,5.89Zm0,50.6V92.36a7.7,7.7,0,0,1,5.93,5.93ZM80,103.95l-.66-.86a1.59,1.59,0,0,0-1.07-.62l-1-.12,1.75-3a9.24,9.24,0,0,0,2.75,1.59Zm7.8-6.38-.2.1h-.16l-.16.07H87l-.22.07h-.07l-.29.09h0l-.63.13H82.95l-.2-.09h-.12l-.22-.1h0l-.23-.12h0a6.08,6.08,0,1,1,5.8,0Zm3.75,4.87a1.59,1.59,0,0,0-1.07.62l-.61.81-1.75-3h.07l.33-.13h.08l.34-.16h0a9.22,9.22,0,0,0,1.9-1.22l1.76,3Zm10-4.21H94l-.92-1.59a9.24,9.24,0,1,0-16.16,0L76,98.23H44.9a10.88,10.88,0,0,0-9.15-9.15V56.84a10.88,10.88,0,0,0,9.15-9.15h56.71a10.88,10.88,0,0,0,9.15,9.15v32.3a10.88,10.88,0,0,0-9.15,9.15Zm9.15,0h-5.94a7.7,7.7,0,0,1,5.93-5.93Zm0-44.67a7.7,7.7,0,0,1-5.93-5.93h5.93Z"/>
            <path class="cls-6" d="M90.12,68.83H56.46A1.59,1.59,0,1,0,56.18,72H90.13a1.59,1.59,0,0,0,.28-3.18Z"/>
            <path class="cls-6" d="M90.12,75.27H56.46a1.59,1.59,0,0,0-.28,3.18H90.13a1.59,1.59,0,0,0,.28-3.18Z"/>
            <path class="cls-6" d="M80.48,61.45h0a1.59,1.59,0,0,0,.28-3.18h-.28a1.6,1.6,0,0,0-.29,3.18Z"/>
            <path class="cls-6" d="M66.09,61.45h9.74a1.59,1.59,0,0,0,0-3.18H66.09a1.59,1.59,0,0,0-.28,3.18h.28Z"/>
            <path class="cls-6" d="M56.5,85.51h0a1.59,1.59,0,0,0,0,3.18h0a1.59,1.59,0,1,0,.28-3.18H56.5Z"/>
            <path class="cls-6" d="M67.7,85.51H61a1.6,1.6,0,0,0-.29,3.18h6.94a1.59,1.59,0,0,0,0-3.18Z"/>
            <circle class="cls-13" cx="73.25" cy="73.25" r="70.75"/>
        </g>
    </g>
</svg>