<svg id="Layer_4" data-name="Layer 4" xmlns="http://www.w3.org/2000/svg" viewBox="0 0 1900.79 1583.5">
    <defs>
        <style>
            .cls-1,.cls-10,.cls-14,.cls-2,.cls-3,.cls-4,.cls-5,.cls-6,.cls-7,.cls-8,.cls-9{stroke:#000;stroke-linecap:round;stroke-linejoin:round;stroke-width:10px;}.cls-2{fill:#3c65e5;}.cls-3{fill:#f8ffff;}.cls-4{fill:#3055b2;}.cls-5{fill:#26489e;}.cls-6{fill:none;}.cls-7{fill:#333130;}.cls-8{fill:#ff126d;}.cls-9{fill:#6f6f75;}.cls-10,.cls-13{fill:#d9d9d9;}.cls-11{fill:#fff75a;}.cls-12,.cls-14,.cls-16{fill:#fff;}.cls-15{fill:#282828;}.cls-16{opacity:0.1;}
        </style>
    </defs>
    <title>charm</title>
    <path class="cls-1"
          d="M263.5,1056.5c-.51-2.7-11.72-.78-40-4-14-1.6-23-2.62-35-6-11.16-3.14-12.88-4.91-28-9-10.24-2.77-16.36-4.39-25-5-11.94-.84-11.9,1.43-21,0-12.5-2-17.5-7-23-4-4,2.22-5.27,7.1-6,10-3.62,14.39,6.65,27.91,9,31,10.69,14.07,25.8,18.34,32,20,3.77,1,12.78,3.07,32,1,16.18-1.74,28.39-5.2,52-13C246.25,1065.68,264.11,1059.71,263.5,1056.5Z"
          transform="translate(-73.5 -231.5)"/>
    <path class="cls-1"
          d="M200.5,1067.5c-24.49,7.33-39.71,19.51-66,41-18.86,15.42-28.43,23.36-35,35-3.49,6.18-6.66,17.12-13,39-6.13,21.16-8.12,31.7-8,44,.1,10.32.21,22.39,7,26,6.17,3.28,14.94-2,24-8,27.86-18.43,42.89-33.16,59-46,8.44-6.73,21.63-15.15,48-32,24.2-15.46,33.14-20.19,48-32,23.18-18.41,34.77-27.62,34-38-1.42-19-42.3-38-74-37C213.25,1059.85,208,1065.27,200.5,1067.5Z"
          transform="translate(-73.5 -231.5)"/>
    <path class="cls-1"
          d="M855.5,832.5c-1.47,7-7.22,34.69,8,60,4.19,7,14.91,24.8,32,27s24.64-13.24,70-49c28.8-22.7,30-19.81,41-32,9.26-10.25,31.06-35.06,33-72,.9-17.08,1.44-27.33-5-34C1007.43,704.45,871.64,754.95,855.5,832.5Z"
          transform="translate(-73.5 -231.5)"/>
    <path class="cls-2"
          d="M260.5,1038.5c9.36-5.2,11.28-3,46-18,12.43-5.35,22.29-10.24,42-20,31-15.37,34.33-18.12,47-22,13.59-4.16,24.44-5.48,37-7,24-2.92,27.93-.52,50-3a277.4,277.4,0,0,0,45-9c16.6-4.6,28.06-9.4,51-19,29-12.12,43.45-18.19,57-28,6.87-5,10.62-8.48,24-18,20.65-14.69,27.29-17.43,33-19,.84-.23,15.86-4.22,29-1,26.68,6.53,44.1,42.41,47,70,5.8,55.17-42.89,111.14-92,130-24.22,9.3-58.32,13.32-81,16-20.27,2.39-37.06,3.14-60,12-13.45,5.19-13.5,7.18-36,18-24.53,11.79-40.56,19.5-60,24-23,5.34-21.18-.7-67,3-34.09,2.75-63,8-63,8-35.61,6.46-38.47,10.58-46,7C204.5,1134.5,215.5,1063.5,260.5,1038.5Z"
          transform="translate(-73.5 -231.5)"/>
    <path class="cls-3"
          d="M884.5,902.5a91.93,91.93,0,0,1-10-36c-1.49-25.08,8.94-37.11,4-42-9.1-9-59.56,16.91-98,60-30.44,34.12-43.89,68.41-53,93-29.56,79.77-47.18,127.32-62,211-32.46,183.34-.91,254.65-18,329-2.59,11.25-11.61,45.74,3,83a109.48,109.48,0,0,0,9,18c29,45.5,101.44,50.82,131,53,41,3,90.12,6.63,133-25,22.37-16.5,33.61-35.64,43-52,32.64-56.89,33-109.91,37-189,0,0,3-58.94,11-158,17.32-213.68,83.19-325,37-360-18.74-14.22-47.11-9.22-100-27-4.87-1.64-15.72-5.41-28-2-12.63,3.51-20.67,12.93-25,18A71,71,0,0,0,884.5,902.5Z"
          transform="translate(-73.5 -231.5)"/>
    <path class="cls-4"
          d="M615.5,1665.5c-7,20.88-3.58,45.83,0,72,2.58,18.86,10,57.06,11,62s2.68,9.09,3,10.5h496c1.19-4.86,1.13,5.93,1-9.5s-1.47-46.84-12-87c-10.37-39.53-16.06-61.24-30-79-19-24.2-51.93,15.29-200,5-115.05-8-148-17.46-182-7C673.55,1641.4,629.9,1622.5,615.5,1665.5Z"
          transform="translate(-73.5 -231.5)"/>
    <path class="cls-5"
          d="M1686.5,1105.5c37.69.1,85.15-131.73,55-157-18.66-15.64-76.83,1.3-97,47C1621.56,1047.47,1661.55,1105.43,1686.5,1105.5Z"
          transform="translate(-73.5 -231.5)"/>
    <path class="cls-1"
          d="M1755.5,974.5c.52-4.85,6.74-7.93,17-13,6.9-3.41,18.72-7.91,39-8,15-.07,16.76,2.37,39,5,23.34,2.76,35,4.15,47,2,17.93-3.21,23.77-9.88,47-12,14.83-1.36,18.81.78,21,3,7.45,7.58,2.72,25.18-4,36-11,17.78-31.09,23.2-46,27-8.12,2.07-35.3,8.25-79-1C1801.94,1006.19,1754,988.59,1755.5,974.5Z"
          transform="translate(-73.5 -231.5)"/>
    <path class="cls-1"
          d="M1699.5,1049.5c10.82,13,20.19,10.15,40,22,9.28,5.55,21.52,19,46,46,23.27,25.63,34.91,38.45,36,40,4.48,6.35,12.37,18.29,27,27,7,4.15,11.88,5.44,15,6,10.43,1.88,23.71-.19,28-5,16.49-18.51-52.22-131.3-149-170-12.54-5-42.52-17-52-6C1683.34,1017.81,1689.44,1037.39,1699.5,1049.5Z"
          transform="translate(-73.5 -231.5)"/>
    <path class="cls-1"
          d="M1703.5,989.5c13.52-5.54,29.91-4.47,66,13,61.86,29.94,97.13,67.17,107,78,10.9,12,27.71,32.16,36,57,3.24,9.71,4.39,17.76,6,29,2.13,14.85,1.58,21.09-1,27-1.24,2.84-3.54,7.92-9,11-6,3.37-12.18,2.31-14,2-14.54-2.49-23.72-20.72-27-27-12.72-24.35-32.52-44.31-48-67-25.15-36.86-37.73-55.29-51-65-40.3-29.47-84.25-21.61-86-37C1681.52,1001.88,1694.61,993.14,1703.5,989.5Z"
          transform="translate(-73.5 -231.5)"/>
    <path class="cls-1"
          d="M1726.5,968.5a84.13,84.13,0,0,1,31-2c26.36,3,33.47,13.38,69,29,36.19,15.91,43.49,11.56,60,26,13,11.41,19.54,23.79,27,38,11.82,22.51,15.71,41.3,20,62,.47,2.29,1.65,16.86,4,46a29.09,29.09,0,0,1-1,10c-.79,2.83-1.89,6.75-5,9-4.15,3-9.83,1.55-12,1-15.67-4-32.41-40.45-35-46-17.68-37.82-42.68-61.35-71-88-19.55-18.4-33.55-31.57-57-42-34.67-15.42-63-12.84-64-22C1691.65,981.44,1712.84,972.06,1726.5,968.5Z"
          transform="translate(-73.5 -231.5)"/>
    <path class="cls-3"
          d="M1648.5,1061.5c6.57,2.48,8.28-.85,36-1,22.31-.12,22,2,31,2-10-14-16.68-33-12-55,5.73-26.84,37-37,48-42-12-2-36.79,5.16-88-4-16.38-2.93-21.6-5.75-28-2C1611.54,973.53,1620.15,1050.8,1648.5,1061.5Z"
          transform="translate(-73.5 -231.5)"/>
    <path class="cls-6" d="M653.5,919.5a77.27,77.27,0,0,0-12,33c-.69,6-1.69,15.5,2,27a58.16,58.16,0,0,0,14,23"
          transform="translate(-73.5 -231.5)"/>
    <path class="cls-6" d="M608.5,978.5a96.22,96.22,0,0,0,5,42c2.59,7.22,6.94,19,18,30a71.33,71.33,0,0,0,20,14"
          transform="translate(-73.5 -231.5)"/>
    <path class="cls-6" d="M544.5,1054.5a142,142,0,0,0,87,24" transform="translate(-73.5 -231.5)"/>
    <path class="cls-3"
          d="M819.5,948.5c2.11.24,3.67-13.29,14-37a159,159,0,0,1,14-25c5.71-8.39,12.61-18.32,18-17,4.46,1.09,7,3,10,8-1-8-2.62-18.94,6-38,7.85-17.36,18.81-19.79,17-26-3.52-12-49-17.61-64,2-2.83,3.7-3.7,7.18-5,13-9.69,43.42-11,69-11,69C817.93,908.58,815.91,948.09,819.5,948.5Z"
          transform="translate(-73.5 -231.5)"/>
    <path class="cls-3"
          d="M901.5,872.5c-2.4,2.69,13.81-10.07,19-9,6.53,1.35,8.41,17.08,9,22,4.06,33.94-3,52-6,58,8,4,49.39-15.17,81-48,21.86-22.7,39.9-41.44,43-72,4.71-46.43-28.93-81.92-31-81-1.43.64,10.93,19.28,5,41-3,11.17-9.58,18.22-16,25-17.46,18.43-30.25,14.26-63,35C919.74,857.92,909.5,863.5,901.5,872.5Z"
          transform="translate(-73.5 -231.5)"/>
    <path class="cls-6"
          d="M884.5,902.5c-3.33,9-12.54,26-19,43-33.82,89.24-44.05,109.92-56,146-16.71,50.46-23.26,90.23-28,119-10.49,63.67-11.09,111.48-12,183-.75,59.35-4.73,118.64-5,178-.09,19.88,1,28.1-4,39-1.51,3.32-4.41,8.72-4,16s4,13.13,7,17"
          transform="translate(-73.5 -231.5)"/>
    <path class="cls-7"
          d="M634.5,1598.5c21.49,8.58,45.67,7.93,68,14,21.15,5.75,39.77,7.16,77,10,31.88,2.43,54.21,1.88,90,1,56.49-1.39,84.74-2.08,108-9,10.16-3,23.56-7.76,25-5,1.84,3.51-16.23,18.27-34,28-14.15,7.75-37.55,17.47-111,21-20.5,1-39.82,1.24-58,1,0,0-63.43-.84-143-13-10.48-1.6-8.69-2-26-5-5.25-.9-6.36-1-8-2-12-7.13-12.42-36-2-42C625.31,1594.73,631.56,1597.33,634.5,1598.5Z"
          transform="translate(-73.5 -231.5)"/>
    <path class="cls-2"
          d="M808.5,863.5c-.79-1.55-13.56,6.26-35,8a107.54,107.54,0,0,1-29-1c-11.28-2-13.84-4.48-21-4-8.21.55-15.65,4.54-24,12-24.12,21.56-38.42,56.55-39,58-13,32.56-20.83,61.91-29,99-8.66,39.34-13.65,68.9-14,71-8.11,48.52-18.21,108.9-21,186-1.76,48.53,0,87.05,3,154,2.77,61.52,4.29,53.91,4,78-1,80.78-17.81,153.73-27,170a29.79,29.79,0,0,0-4,12c-.31,3.13-.36,9,6,22,5.65,11.53,11.44,18.63,20,29,9.53,11.54,12.64,13.3,16,14,7.73,1.62,14.64-2.79,18-5,13-8.54,17.79-22.81,20-30a261.83,261.83,0,0,0,11-71c.06-51.93.09-77.89,0-81-1.72-60.08,2.74-109.58,10-190,2.76-30.64,4.56-44.07,5-70,.65-38.7-2.51-58.32-5-92-6.92-93.81-10.38-140.72,9-184,8.45-18.87,18.71-33.07,32-69,13.12-35.47,9.61-39.17,19-55C759,881.54,810,866.39,808.5,863.5Z"
          transform="translate(-73.5 -231.5)"/>
    <path class="cls-2"
          d="M681.5,931.5c6-8,10.16-9.47,32-27,19.35-15.53,18.48-20.09,41-38,5.69-4.52,12.12-9,25-18,28.08-19.6,38.14-24.67,43-27,12.49-6,29.69-14.21,33-10s-9.91,18.7-42,59c-2.47,3.1-22.88,28.75-32,41-23.58,31.66-35.72,59.77-49,91-16.19,38.08-49.22,115.8-51,208-.2,10.22-.18,30.91-1,74-1.4,73.7-2.73,79.92-4,80-3.51.22-9-46-13-79-9.22-77-4.6-70.5-12-129,0,0-4.6-36.41-6-112-.19-10.46,2-20,5-30,17-22,39-33,53-44C692.5,958.5,686.5,947.5,681.5,931.5Z"
          transform="translate(-73.5 -231.5)"/>
    <path class="cls-6"
          d="M641.5,1419.5a13.06,13.06,0,0,0,1,10,12.1,12.1,0,0,0,10,6c7.23.1,13.93-7.52,13-15a12.24,12.24,0,0,0-8-10C650.83,1408.33,643.52,1413.41,641.5,1419.5Z"
          transform="translate(-73.5 -231.5)"/>
    <path class="cls-6"
          d="M628.5,1551.5c-.33,2.14-.8,5.3,1,8,3.06,4.58,11.44,6,17,2,5.12-3.67,6.24-10.75,4-16-1.76-4.13-6.1-8.28-11-8C632.66,1537.89,629.24,1546.65,628.5,1551.5Z"
          transform="translate(-73.5 -231.5)"/>
    <path class="cls-6"
          d="M771.5,1606.5a4.72,4.72,0,0,0,1,6,5,5,0,0,0,6,0c1.6-1.16,2.64-3.38,2-5C779.4,1604.7,773.39,1603.85,771.5,1606.5Z"
          transform="translate(-73.5 -231.5)"/>
    <path class="cls-6"
          d="M774.5,1539.5c-1.91,1.26-2.65,4.68-1,7a5,5,0,0,0,9-3C782.23,1540.16,777.18,1537.73,774.5,1539.5Z"
          transform="translate(-73.5 -231.5)"/>
    <path class="cls-6"
          d="M777.5,1466.5c-1.33,1.62-1.63,4.58,0,6s3.83.62,5,0c2.3-1.22,3.93-4.25,3-6C784.39,1464.41,779.57,1464,777.5,1466.5Z"
          transform="translate(-73.5 -231.5)"/>
    <path class="cls-6"
          d="M778.5,1394.5c-1.21,2.25-1.1,5.82,1,7,1.93,1.08,4.66-.36,6-2,2-2.42,2.09-6.68,0-8S779.9,1391.88,778.5,1394.5Z"
          transform="translate(-73.5 -231.5)"/>
    <path class="cls-6"
          d="M782.5,1318.5c-1.67,1.55-2.3,4.5-1,6,1.51,1.73,5.19,1,7-1,1.13-1.26,2-3.52,1-5C788.27,1316.61,784.52,1316.62,782.5,1318.5Z"
          transform="translate(-73.5 -231.5)"/>
    <path class="cls-6"
          d="M788.5,1233.5c-2.67,1.8-3.79,6-2,8,1.59,1.78,5,1.28,7,0,2.3-1.45,4.23-4.72,3-7S791.07,1231.77,788.5,1233.5Z"
          transform="translate(-73.5 -231.5)"/>
    <path class="cls-6"
          d="M801.5,1161.5c-2.2,1.71-2.74,5.5-1,7,1.51,1.31,4.41.59,6-1s2.44-4.31,1-6S803.16,1160.21,801.5,1161.5Z"
          transform="translate(-73.5 -231.5)"/>
    <path class="cls-6" d="M824.5,1081.5a4.64,4.64,0,0,0-5,3c-.85,2.81,2,6.31,5,6a4.53,4.53,0,0,0,0-9Z"
          transform="translate(-73.5 -231.5)"/>
    <path class="cls-6"
          d="M845.5,1020.5c-2.07.74-4.2,2.81-4,5,.27,2.95,4.71,5.45,8,4,2.51-1.11,4.27-4.47,3-7S847.78,1019.68,845.5,1020.5Z"
          transform="translate(-73.5 -231.5)"/>
    <path class="cls-6"
          d="M864.5,977.5c-1.61.85-3.42,2.71-3,4,.51,1.57,4.24,2,7,1,2-.76,4.34-2.65,4-4C872.08,976.85,867.61,975.85,864.5,977.5Z"
          transform="translate(-73.5 -231.5)"/>
    <path class="cls-6"
          d="M879.5,926.5c-1.48,1.15-2.75,3.44-2,5,.93,1.94,4.6,2,7,1,2.25-1,4.51-3.35,4-5C887.84,925.38,882.5,924.18,879.5,926.5Z"
          transform="translate(-73.5 -231.5)"/>
    <path class="cls-2"
          d="M1055.5,866.5c12.89-3.19,21-.27,44-7,20.64-6,30.89-13.26,44-9,7.81,2.54,13.64,8.19,19,16,32.78,47.82,34,145,34,145,.67,53.36,1,80-4,117-12.47,92.12-46,179.22-65,219-14.38,30.17-18.58,44.45-27,73a199.94,199.94,0,0,0-8,39,196.27,196.27,0,0,0,1,45c1.57,12.38,6.37,43.77,24,88,23.55,59.09,35.32,88.63,36,90,1.45,2.95,5.84,11.72,5,23a39.4,39.4,0,0,1-8,21c-6.72,8.57-15.68,11.93-22,14-42.35,13.87-85,11-85,11-27.48-1.85-41.38-2.78-58-12-20.63-11.45-31.53-27.94-38-38-18.5-28.73-22.17-56.43-25-77-16.57-120.35-17.58-93-20-133-1.87-30.86-5.28-113.4,19-294,0,0,20.56-153,69-259C1003.8,909.37,1023.62,874.39,1055.5,866.5Z"
          transform="translate(-73.5 -231.5)"/>
    <path class="cls-2"
          d="M1028.5,748.5c2.89-1.14,12.86,28.63,35,50,12.22,11.8,18.34,17.7,22,20,5.4,3.39,10.16,5.48,13,11,3.21,6.24,1.8,12.69,1,17a197.65,197.65,0,0,0-2,53c1.82,16.73,6.31,22,2,30-2.11,3.93-4.77,5.62-19,13-26.8,13.91-40.2,20.86-46,23-13.16,4.86-19,5.59-20,10-.88,4.08,3.37,7.07,16,22,11.38,13.45,12.52,16.44,13,19,2.12,11.34-7.33,21.83-10,25-40.53,48.13-64.89,108.48-88,167-47,119-35,211-44,241-5-20-12.75-101.19-9-188,4.8-111.19,17.23-162.21,21-177,9.21-36.16,19.77-76.12,45-123,56.09-104.19,62-113,62-113,4.09-6.09,10.38-15.18,14-29C1044.1,782.86,1025.34,749.75,1028.5,748.5Z"
          transform="translate(-73.5 -231.5)"/>
    <path class="cls-6"
          d="M986.5,1505.5c9.49,7,23.49,17.51,40,31,25.67,21,36.23,31.77,37,31,1.21-1.21-22.59-30.11-56-57-7.92-6.37-14.85-11.41-20-15"
          transform="translate(-73.5 -231.5)"/>
    <path class="cls-2"
          d="M1122.5,897.5c6.74-13.39,11.65-22.92,22-32,4.13-3.62,14.9-12.84,31-16,10.61-2.09,20.37-.92,37,4,27.48,8.13,37.71,15.85,72,31,18.89,8.35,30.25,13.37,46,18,7.42,2.18,29.21,8.09,60,10,28.7,1.78,32.57-2,78-4,38.45-1.71,67.31-.43,76,0a624.91,624.91,0,0,1,77,8c21.65,3.67,17.34,4.18,56,12,44.7,9,51,13,59,17-23-6-64.53,17.58-78,56-14.15,40.34,4,96,28,104-14,1-22-3.71-63-6-22.36-1.25-20.88,1.3-62,2-23,.39-47,.73-77-2-27.61-2.52-27.47-4.64-59-8a744.17,744.17,0,0,0-75-4c-37.38-.14-59.7-.22-90,6-14.89,3.06-35.55,7.44-60,19-15.19,7.18-30.95,14.64-49,29"
          transform="translate(-73.5 -231.5)"/>
    <path class="cls-6"
          d="M1085.5,1151.5l45-26c15.58-9,29-16.79,48-25,4.13-1.79,25.84-11.19,27-9,1,1.84-14.1,9.12-32,25-8.81,7.82-24.24,21.75-36,44a137.11,137.11,0,0,0-14,42"
          transform="translate(-73.5 -231.5)"/>
    <path class="cls-6"
          d="M986.5,1131.5c7.51-1,18.19-2.38,31-4,41.89-5.3,62.84-7.94,63-7,.24,1.4-31.92,8.68-63,14-17.06,2.92-31.26,4.82-41,6"
          transform="translate(-73.5 -231.5)"/>
    <path class="cls-8"
          d="M1028.5,1076.5c-4.65.78-8.3,4.45-10,8-4.06,8.49,2.55,17.41,3,18,2.48,3.24,5.68,5.08,9,7,3.12,1.8,4.68,2.7,7,3,4.85.63,10.72-1.56,13-6a9.94,9.94,0,0,0,1-4.81C1051.31,1091.33,1040,1074.58,1028.5,1076.5Z"
          transform="translate(-73.5 -231.5)"/>
    <path class="cls-8"
          d="M1076.5,1108.5c2.78,5,10.34,6.28,15,6,6.33-.38,10.41-3.9,14-7,4-3.43,8.09-7,8-12-.08-4.83-4-8.25-6-10-1-.91-6.07-5.11-12-5C1083.13,1080.72,1071.49,1099.56,1076.5,1108.5Z"
          transform="translate(-73.5 -231.5)"/>
    <path class="cls-8"
          d="M1060.5,1101.5c-5.69-1-8.59-1.46-11,0-5.4,3.27-5.05,12-5,13a19.83,19.83,0,0,0,10,16c6.72,3.67,13.43,1.62,22-1,6-1.84,10.21-3.12,12-7,2.24-4.87-.44-11.34-4-15C1082.53,1105.47,1081,1105.08,1060.5,1101.5Z"
          transform="translate(-73.5 -231.5)"/>
    <path class="cls-8"
          d="M1051.5,1072.5c-1.46-.49-8.68-2.93-11-10-.56-1.7-1.84-6.73,1-11,4.06-6.12,12.87-5.13,14-5a18.07,18.07,0,0,1,14,10c.79,1.63,3.58,7.36,1,12C1067.22,1074.39,1057.51,1074.53,1051.5,1072.5Z"
          transform="translate(-73.5 -231.5)"/>
    <path class="cls-8"
          d="M1055.5,1090.5c1-3,0-6.36-2-13-1.52-5-2.27-7.49-4-9-4.44-3.88-12.15-2.62-17,0-1.15.62-8.08,4.37-9,12-.74,6.11,2.87,10.59,4,12s6.57,7.78,15,7C1047.79,1099,1053.74,1095.74,1055.5,1090.5Z"
          transform="translate(-73.5 -231.5)"/>
    <path class="cls-8"
          d="M1064.5,1097.5c-1.14-.24-9.55-2.12-14-10-3.92-7-4-17.32,2-23a15.78,15.78,0,0,1,10-4c10.81-.47,20.59,9.94,22,20,.26,1.85.94,6.71-2,11-3.08,4.49-8.25,5.62-10,6A19.56,19.56,0,0,1,1064.5,1097.5Z"
          transform="translate(-73.5 -231.5)"/>
    <path class="cls-8"
          d="M1059.5,1064.5a10.16,10.16,0,0,0-4,5,10.05,10.05,0,0,0,2,10c3.52,3.92,8.62,3.25,10,3,2.58-.47,6.74-2.21,7-5,.14-1.47-.86-2.64-2-4-1.28-1.52-3.8-4.5-7-4s-5.88,4.17-5,6c.68,1.42,3.63,1.91,7,1"
          transform="translate(-73.5 -231.5)"/>
    <path class="cls-8"
          d="M1082.5,1080.5c-.86-6-5.79-6.48-9-15-1.23-3.27-2.46-6.54-1-9,2.48-4.18,11.86-4.59,18-1,7.3,4.27,8.61,13.36,10,23,1.3,9-.49,12.18-1,13-2.53,4.11-6.93,5.45-12,7-9.18,2.81-18.69,2.58-19,1-.24-1.25,5.63-1.62,10-7C1079.17,1091.67,1083.36,1086.51,1082.5,1080.5Z"
          transform="translate(-73.5 -231.5)"/>
    <path class="cls-8"
          d="M1058.5,1091.5c-3.1-.38-6.51-.8-10,1-3.91,2-7.73,6.75-7,11,.82,4.75,7,6.88,16,10,7.33,2.54,12.91,4.46,20,3,3.58-.74,11.57-2.38,14-9,1.61-4.4.63-10.62-3-13-4.53-3-8.73,2.94-18,1C1065.44,1094.44,1064.72,1092.26,1058.5,1091.5Z"
          transform="translate(-73.5 -231.5)"/>
    <path class="cls-9"
          d="M737.5,1624.5a83.25,83.25,0,0,0-2,13,69.77,69.77,0,0,0,0,11c.44,5.34.67,8,2,10,2.79,4.14,8.68,4.58,14,5,21.17,1.67,31.75,2.51,35,3,7.12,1.09,18.76,3.49,26,0a12.29,12.29,0,0,0,4-3c2.35-2.76,2.62-5.88,3-11,.86-11.68,1-16,1-16,.35-10.71.28-12.3-1-14-2.48-3.3-7-3.67-12-4-29.75-2-28.35-1-36-2-4.27-.55-10.85-.7-24-1-1.51,0-4.66-.06-7,2C739.26,1618.59,738.55,1620,737.5,1624.5Z"
          transform="translate(-73.5 -231.5)"/>
    <path class="cls-7"
          d="M752.5,1633.5c0,5.5-2,6.86-2,12,0,2.58,0,4.37,1,6,2.32,3.87,7.81,2.94,20,4,14.37,1.25,18.86,3.59,24,0,2.35-1.64,3.57-3.65,5-6,.73-1.21,6.77-11.36,3-17-.86-1.29-2.29-2.42-10-4-9.35-1.92-12.17-1.28-29-2-5.94-.25-10.53-.55-12,2C751.81,1629.69,752.49,1630.32,752.5,1633.5Z"
          transform="translate(-73.5 -231.5)"/>
    <path class="cls-6"
          d="M689.5,1731.5c2.31-6.11,5.83-15.48,10-27,8.44-23.33,11.2-32.33,13-32,2.08.38.64,12.76,1,34,.25,14.46,1.21,26.25,2,34"
          transform="translate(-73.5 -231.5)"/>
    <path class="cls-6" d="M741.5,1684.5a177.09,177.09,0,0,0,8,49c3,9.6,7.36,20.07,16,41,3.29,8,6.08,14.54,8,19"
          transform="translate(-73.5 -231.5)"/>
    <path class="cls-6"
          d="M885.5,1723.5c.8-6.79,1.91-16.79,3-29,1.25-13.94,1.5-19.83,3-20,2.5-.28,6.33,15.58,8,24a162.62,162.62,0,0,1,3,26"
          transform="translate(-73.5 -231.5)"/>
    <path class="cls-6" d="M904.5,1670.5a294.13,294.13,0,0,0,29,36,283.77,283.77,0,0,0,22,21,265.78,265.78,0,0,0,49,33"
          transform="translate(-73.5 -231.5)"/>
    <path class="cls-6" d="M1076.5,1757.5a177.09,177.09,0,0,1,8,40" transform="translate(-73.5 -231.5)"/>
    <path class="cls-1"
          d="M768,408c-16.72-7.46-31.07-8.77-46-10-24.14-2-36.2-3-49.5,2.5-21.29,8.78-31.83,26.5-35,32-11.73,20.35-10.66,39.9-10,52,.59,10.76,3.47,35,20,58,8.08,11.26,16.18,17.75,24,24,10.86,8.68,17.22,13.65,23,12,8.24-2.35,9.33-16.44,13-31,8.81-34.93,31-66.65,52-85,20.56-18,37.74-21.17,37-32C795.81,420.41,780.21,413.45,768,408Z"
          transform="translate(-73.5 -231.5)"/>
    <path class="cls-10"
          d="M757.5,441.5a193,193,0,0,0-38,32,180.1,180.1,0,0,0-31,48c-7.75,17.65-10.59,31.94-13,44a256.71,256.71,0,0,0-5,51c0,11.2.12,27.58,4,48a180.88,180.88,0,0,1,4,32c.37,13.07-1.06,18.22-2,21a47.37,47.37,0,0,1-16,22c-4.27,3.39-8.23,6.53-14,7-6.09.5-10.08-2.31-11-1-1.69,2.41,10.55,13.67,12,15,6.24,5.7,15,13.61,29,20,6,2.74,12.17,5.57,21,7,6,1,12,1.09,12,2s-7.23.38-14,5a24.5,24.5,0,0,0-9,12c-2.86,8.13-1.29,17.61,1,18,1.68.29,2.34-4.57,7-10,7.17-8.36,17.26-10.44,20-11,10.33-2.13,23.06-.22,24,4,.42,1.9-2,2.43-4,7-2.27,5.1-1.72,9.85-1,16,.6,5.12,1.12,9.62,3,10,2.17.44,3.28-5.21,9-10,5.41-4.54,11.58-5.48,15-6,6.12-.93,11.54-.13,19,2,11.94,3.42,21.59,8.1,34,15,20.87,11.6,18.41,12.16,26,15,17.05,6.38,32.41,4.68,38,4,17-2.07,28.64-8.75,41-16,20-11.7,18.89-15.93,37-28,0,0,30.37-20.24,73-28,10.3-1.87,17.8-3.24,28-2,11.33,1.37,18.81,5.08,20,3s-4.21-8.39-11-12c-10-5.34-19.19-2.49-20-5-1.17-3.61,16.1-12.08,20-14,18.78-9.22,33.61-16.5,54-18,7.06-.52,13.7-.27,14-2,.34-1.93-7.37-5.62-15-7-8.82-1.59-14.55.44-15-1s5.74-5.77,13-8c11-3.37,19.23-.67,20-3,.64-1.93-4.45-5.59-9-8-14.57-7.72-28.87-5.43-29-7-.11-1.22,8.67-1.7,20-6,5.92-2.24,16.29-6.31,25-16a51.06,51.06,0,0,0,8-12c4-8.39,5.85-18.17,4-19-1.36-.61-3.13,4.39-9,8-8,4.9-17,3.2-18,3-10.95-2.23-16.75-11.7-20-17-5.72-9.33-6.86-17.84-8-25-2.46-15.5-7.29-30.54-10-46,0,0-6.46-36.89-23-72-5.63-12-23.24-49.34-60-74-43.26-29-90.15-25.05-138-21C846,409.49,800.51,413.83,757.5,441.5Z"
          transform="translate(-73.5 -231.5)"/>
    <path class="cls-11"
          d="M1118.5,443.5c.24,2.3,12.9-1.06,23,5,17.77,10.65,15.53,43.16,20,43,2.64-.09,1.86-11.38,10-25,2.76-4.62,7-11.75,15-16,11.5-6.13,23.82-2.6,24-4,.2-1.6-16.48-1.1-29-12-8.1-7.06-11.65-16.44-13-20-4.72-12.48-3.59-23-5-23s-.88,9.59-6,21a51.89,51.89,0,0,1-13,18C1132.33,441,1118.25,441.1,1118.5,443.5Z"
          transform="translate(-73.5 -231.5)"/>
    <path class="cls-11"
          d="M537.5,605.5c0,1.27,11.32-.28,22,6,9.14,5.38,13.5,14,15,17,7,14.2,4,27.79,6,28,1.72.18,2.35-9.9,9-22,2.71-4.93,6.92-12.59,15-18,10.67-7.14,22.09-6.36,22-8s-11.67.39-23-6a39.72,39.72,0,0,1-14-14c-9.06-14.36-7.64-30.05-9-30-1.18,0,.8,11.8-5,24-1.23,2.59-5.6,11.48-15,17C549.41,606,537.51,604.2,537.5,605.5Z"
          transform="translate(-73.5 -231.5)"/>
    <path class="cls-11"
          d="M924.5,268.5c.09,1.44,9.64-.53,18,5,6.37,4.21,9.14,10.85,10,13,3.65,9.08,1.6,16.77,3,17s2.47-7.41,8-17c3.07-5.32,6.14-10.64,12-14,7.32-4.19,15-3,15-4,0-1.12-10.47.33-19-6a27.66,27.66,0,0,1-8-10c-5.43-10.38-4.33-21-5-21s1.49,11.67-5,21a29.25,29.25,0,0,1-9,8C934.23,267.07,924.41,267.05,924.5,268.5Z"
          transform="translate(-73.5 -231.5)"/>
    <path class="cls-12"
          d="M731.5,474.5c-16.18,18.18-26,40-26,40-7.34,16.3-10,29.86-12,40-3.9,20.2-4,35.64-4,51,0,16.16,0,46.52,4,77a87.48,87.48,0,0,1,0,24c-1.09,7.83-2.46,16.91-9,26-2.45,3.4-8.26,11.25-19,15-7,2.44-12.07-.15-13,2-1.48,3.44,9.95,11.46,15,15a105.79,105.79,0,0,0,20,11c7.35,3.07,11,4.61,16,5,8.89.7,14.67-2.28,16,0s-3.47,7.44-4,8c-4.39,4.65-7.74,4.17-13,8-6.56,4.78-9.56,11.5-9,12s4.22-5,12-8c3.19-1.22,5.79-1.52,10-2,5.1-.59,9.06-1,14,0,4.15.87,3.2,1.58,11,4,4.42,1.37,6.88,1.81,7,3,.13,1.35-2.92,1.79-6,5a17.67,17.67,0,0,0-4,7c-2,5.95-.7,12,0,12,.5,0,.07-3,2-6,2.77-4.26,8.4-5.25,13-6,4.4-.72,8.36-.69,15,0a171.58,171.58,0,0,1,19,3c8.79,2,20.63,4.72,34,11,17.51,8.22,16,12.41,29,17,4.86,1.72,18.39,5.84,33,3s17.51-10.1,42-29c26.48-20.43,46.06-29.71,51-32,14.29-6.61,24-11,38-12,15.94-1.15,29.24,2.67,30,0,.51-1.78-4.81-5.4-10-7-7.81-2.41-13.41.36-14-1-1-2.35,15.19-11.88,29-19,14.81-7.64,22.22-11.45,31-13,12.47-2.2,22.47-.42,23-3,.39-1.89-4.56-4.69-8-6-7.53-2.87-13.72-.88-14-2s6.47-4.36,15-7c13.74-4.26,21.84-4,22-6s-8.4-4.79-15-6c-11.42-2.1-18.32,0-19-2-.78-2.34,7.79-7.41,13-10,7.93-3.95,10.83-3.54,23-8,11-4,15.21-6.77,17-8,5-3.42,12.21-9.6,11-12-.81-1.6-4.86-.5-12,0a89,89,0,0,1-22-1c-11.93-2.58-19.11-14-24-22-10.44-17.1-11.44-32.2-14-49,0,0-4.09-26.91-16-64-9.16-28.55-18.37-57.23-43-80-21-19.42-43.64-25.66-63-31-49.24-13.58-90.58-5.09-114,0C812.5,427.37,764.07,437.89,731.5,474.5Z"
          transform="translate(-73.5 -231.5)"/>
    <path class="cls-13"
          d="M687.5,679.5c1.37,3.74,4.83,12.82,14,19,11.45,7.72,24.15,5.75,29,5,4.53-.7,18.62-3.58,28-15,5.71-7,7.55-14.48,10-14s.7,7.22,4,12c9.07,13.15,51.91,6.12,57-10,1-3-.16-4,1-13,1.19-9.14,2.11-16.23,6-18s8.5,2.89,15,7c17.92,11.32,37.76,10.32,44,10a73.13,73.13,0,0,0,35-11c5.78-3.73,16.14-10.6,22-24,1-2.2,4.13-9.43,4-17-.44-26.74-41.67-45.14-66-56-22.11-9.87-34.31-10.86-45-9-4.71.82-13.31,2.29-21,8-25.59,19-17.81,67.63-24,68-3.43.21-4.68-14.82-18-34-5.92-8.52-9.14-13-15-15-11.83-4-24.62,5.66-37,15-9.49,7.16-23.62,17.82-34,38C690.65,636.87,679.7,658.18,687.5,679.5Z"
          transform="translate(-73.5 -231.5)"/>
    <path class="cls-1"
          d="M694.5,650.5c-1.05,7.64-.48,13.56,2,19,4.61,10.12,14,14.55,17,16a40.55,40.55,0,0,0,25,3c16.19-3.3,25.3-16,31-24a71.43,71.43,0,0,0,11-23c3.47-13.46,1.46-23.57-2-41-3.6-18.13-7.19-20.91-9-22s-7.69-3.94-22,2C715.95,593.59,697.8,626.53,694.5,650.5Z"
          transform="translate(-73.5 -231.5)"/>
    <path class="cls-1"
          d="M829.5,562.5c-2.89,3.25-4.88,7.94-5,17a75.08,75.08,0,0,0,48,71c7.1,2.64,23.56,8.77,42,2,4.84-1.78,21.45-7.88,28-25,6.63-17.33-1.89-33.33-4-37-7.88-13.68-20.59-18.45-46-28-9-3.39-26.29-9.09-46-7C839.87,556.2,833.77,557.71,829.5,562.5Z"
          transform="translate(-73.5 -231.5)"/>
    <path class="cls-12"
          d="M861.5,616.5c.41-2.21,3.73-3.3,6-4a119.67,119.67,0,0,1,24-5c18.39-1.32,19.64.2,20,1,1.15,2.54-2.67,6.55-5,9-7,7.31-15.68,9.15-20,10s-8.26,1.58-13,0a21.45,21.45,0,0,1-8-5C863.29,620.47,861.13,618.49,861.5,616.5Z"
          transform="translate(-73.5 -231.5)"/>
    <path class="cls-12"
          d="M728.5,641.5c.64-2,5.42-3,15-5,4.69-1,1.62-.11,14-2,5.16-.79,7-1.13,8,0,2.26,2.45-1.47,9.06-2,10-1.12,2-4.55,8.06-12,10a18.84,18.84,0,0,1-12-1C733.65,651.1,727.3,645.22,728.5,641.5Z"
          transform="translate(-73.5 -231.5)"/>
    <path class="cls-6"
          d="M806,759c-4.35.87,3.32.95,7.5,4.5a43.29,43.29,0,0,0,14,8,42.45,42.45,0,0,0,23,1c8.27-2,13.48-6,20-11,7.14-5.49,11.6-10.75,16-16a119.72,119.72,0,0,0,14-20c2.22-4.06,5-9.19,4-10-1.46-1.15-8.53,8.24-20,16-4.85,3.28-17.74,12-34,13-19.66,1.19-30.5-.5-33.5,6.5C815.47,754.57,808.5,758.5,806,759Z"
          transform="translate(-73.5 -231.5)"/>
    <path class="cls-14"
          d="M771.5,747.5a32.64,32.64,0,0,0,6,6,32.13,32.13,0,0,0,13,6,29.9,29.9,0,0,0,12,0,27.9,27.9,0,0,0,12-6,28.2,28.2,0,0,0,7-9"
          transform="translate(-73.5 -231.5)"/>
    <path class="cls-14"
          d="M804.5,704.5a96.34,96.34,0,0,0,4,16c3.61,10.51,6.74,19.63,15,26,7.74,6,16.35,6.61,22,7,31.84,2.19,55.55-24.94,59-29a94.23,94.23,0,0,0,6-8,78.2,78.2,0,0,0,6-11"
          transform="translate(-73.5 -231.5)"/>
    <path class="cls-1"
          d="M769.5,687.5c0,4.79,2.31,8.56,5,13,1.71,2.82,2.8,4.57,5,6,3.23,2.1,6.69,2.07,9,2,9.4-.28,16-1.74,28-4,5.15-1,9.8-1.8,15-5a17.49,17.49,0,0,0,5-4c3.79-4.67,3.42-10.4,3-17s-.7-11-4-14a12.42,12.42,0,0,0-9-3c-15,1-41,8-53,15C771.31,677.78,769.48,682.39,769.5,687.5Z"
          transform="translate(-73.5 -231.5)"/>
    <path class="cls-12"
          d="M795.5,676.5a11.13,11.13,0,0,0,1,9c3.93,6.58,14.29,6.21,20,6,6-.21,11.9-.43,16-5,2.75-3.07,5.12-8.59,3-13-1.9-4-6.51-5.15-10-6C814.64,664.86,798.58,667.34,795.5,676.5Z"
          transform="translate(-73.5 -231.5)"/>
    <path class="cls-6" d="M831.5,787.5a17.4,17.4,0,0,0-5,7,13.56,13.56,0,0,0,5,17"
          transform="translate(-73.5 -231.5)"/>
    <path class="cls-14"
          d="M784.5,498.5c-4.36,2.47-23.8-17.75-33-43-3.23-8.86-7.56-20.74-5-36,3.45-20.56,17.1-33.57,24-39,19.42-15.28,41.26-14.49,55-14,17.23.62,35.16,5.45,35,9-.18,3.91-22-.57-43,11-25.78,14.2-41,47.46-40,76C778.26,483.78,787.83,496.61,784.5,498.5Z"
          transform="translate(-73.5 -231.5)"/>
    <path class="cls-14"
          d="M790.5,504.5c-3.17,1-13.83-14.52-19-34-2.59-9.77-11.21-48.4,13-83,14.45-20.64,33.36-29.53,41-33,10.14-4.61,24.32-11.06,42-9a116.45,116.45,0,0,1,36,11,91.1,91.1,0,0,0,19,7c9.13,2.26,13.48,1.79,17,0,1.07-.54,6.08-3.09,7-8,1.12-6-4.48-12.16-10-14-6.56-2.19-12.61,1.88-13,1s6.91-7.78,16-8c11.69-.28,20,10.44,22,13,9.3,12,11.73,30.41,5,45-9.48,20.57-33.75,26-47,29-17.59,4-18.6-.91-42,2-32.44,4-52.38,16.1-57,19-11.65,7.31-21.73,13.64-27,26C786,486.19,793.74,503.45,790.5,504.5Z"
          transform="translate(-73.5 -231.5)"/>
    <path class="cls-1"
          d="M913.5,420.5c-2.82-6.19,4.78-15.11,16-28,14.52-16.67,25.72-29.55,46-39,11.81-5.51,31.32-14.6,55-10,40.81,7.93,58.81,49.7,61,55,8.71,21.11,7.32,40.59,6,59a163.31,163.31,0,0,1-9,43,152.39,152.39,0,0,1-21,37c-6.15,8.07-10.13,11.61-14,11-5-.79-7.53-8.15-10-15-7.71-21.42-14.73-38.07-16-41-10-23.08-27.65-36.61-36-43-6.46-4.95-17.94-13.59-35-19C932.18,422.79,917,428.11,913.5,420.5Z"
          transform="translate(-73.5 -231.5)"/>
    <path class="cls-15"
          d="M90,1038c-2.93,2.46.3,10.67,2,15,2.34,5.94,6.83,17.36,19,25,1.05.66,15.9,9.81,21,5,3.85-3.63.08-13.25-1-16-5.52-14.09-18-20.4-29-26C93,1036.44,90.88,1037.26,90,1038Z"
          transform="translate(-73.5 -231.5)"/>
    <path class="cls-15"
          d="M154,1088c-1-7,8.17-13.44,9-14,8.64-5.87,14.26-1.67,38-4,9.38-.92,12.65-2,14,0,2.79,4.09-5.92,16.2-16,23-3.54,2.39-12.85,8.48-25,7C167.35,1099.19,155.11,1095.54,154,1088Z"
          transform="translate(-73.5 -231.5)"/>
    <path class="cls-15"
          d="M154,1151c-4-4.89.35-14.16,4-22,4.46-9.57,7.31-15.68,14-20,6.91-4.46,9.39-1.5,22-6s17.49-10,20-8c3.38,2.71-2.58,15.14-3,16-4.56,9.37-9.15,11.33-25,26-12.71,11.76-17.41,17.58-25,17C159.8,1153.91,156.14,1153.63,154,1151Z"
          transform="translate(-73.5 -231.5)"/>
    <path class="cls-15"
          d="M96,1227c-2.07-1.52,1.55-9.72,3-13a74,74,0,0,1,14-21c6.71-7,7.89-5.82,24-19,8.24-6.75,11.13-9.68,12-9,1.78,1.4-7.52,16.08-13,24a163.31,163.31,0,0,1-26,29C104.59,1222.78,98,1228.5,96,1227Z"
          transform="translate(-73.5 -231.5)"/>
    <path class="cls-15"
          d="M81,1212c3.07-16.56,8-25,8-25,6.58-11.27,14.78-17.69,23-24,10.69-8.2,25.44-17,27-15,.92,1.16-7,9.79-23,27-20.75,22.37-24.3,24.95-29,33-1.12,1.92-4.84,8.48-6,8C80.36,1215.73,80.74,1213.4,81,1212Z"
          transform="translate(-73.5 -231.5)"/>
    <path class="cls-15"
          d="M95,1157c-1.88-2.1,8.68-14.34,12-18,8.48-9.34,16.73-14.52,24-19,5.68-3.5,15.64-9.65,17-8,1.56,1.89-8.88,13.17-16,20C116.89,1146.49,97.27,1159.53,95,1157Z"
          transform="translate(-73.5 -231.5)"/>
    <path class="cls-15"
          d="M1777,974c.44-7,14.34-11.2,17-12,16.11-4.86,30.61,1.12,35,3,10.55,4.52,16.41,10.74,27,22,9.36,9.94,16,17,14,21-3,6-23.66,1.17-33-1-16.49-3.84-27.22-9.58-39-16C1784.11,983.43,1776.67,979.27,1777,974Z"
          transform="translate(-73.5 -231.5)"/>
    <path class="cls-15"
          d="M1721,998c.61-8.31,18.12-15.46,33-16,20.91-.76,36.26,11.57,48,21,12.23,9.82,22.32,17.92,23,31,.46,8.87-3.37,20.47-12,25-15.06,7.91-37.33-9.61-48-18-10.11-8-7.94-9.17-24-23C1726.53,1005.54,1720.64,1003,1721,998Z"
          transform="translate(-73.5 -231.5)"/>
    <path class="cls-15"
          d="M1895,975c11.53-4.36,8.51-4.63,26-12,19.54-8.24,24.12-8.25,27-8,2.16.19,14.56,1.27,18,9,4.72,10.6-11.13,25.27-13,27-13.14,12.16-29,12.91-32,13-14.18.43-24-5.44-30-9-4.76-2.84-12.76-7.6-12-12C1879.57,979.7,1884.66,978.91,1895,975Z"
          transform="translate(-73.5 -231.5)"/>
    <path class="cls-15"
          d="M1870,1050c3.76-1.9,23.28,18.94,30,44,1.35,5,3.05,10.56,6.45,26.74.95,4.52,2.32,10,4.55,17.26,2.72,8.81,3,18.3,6,27,.78,2.23,2.66,7.31,1,13-.55,1.88-1.3,5-4,7-4.82,3.57-12.54.21-13,0-16.58-7.39-3.42-51.51-19-88a192.19,192.19,0,0,1-8-23C1870.68,1062.18,1867.6,1051.21,1870,1050Z"
          transform="translate(-73.5 -231.5)"/>
    <path class="cls-15"
          d="M1887,1048c-3.68,4.16,11.43,16.9,24,45,9.89,22.12,13.75,43.76,15,51,2.84,16.45,2.78,27,4,27,1.7,0,4.44-20.35,3-42-1.41-21.24-6.21-34.1-14-55-2.91-7.8-6.18-15.45-14-21C1899.06,1048.79,1889.56,1045.11,1887,1048Z"
          transform="translate(-73.5 -231.5)"/>
    <path class="cls-15"
          d="M1833,1063a272.16,272.16,0,0,1,28,47c10.42,22.39,12.8,35.65,13,47,.15,8.69-.92,19.82-3,20-1.84.16-3.75-8.32-8-25,0,0-5.52-21.65-11-41A262.44,262.44,0,0,0,1833,1063Z"
          transform="translate(-73.5 -231.5)"/>
    <path class="cls-16"
          d="M266,1049a338,338,0,0,0,58-24c21.59-11.43,29.9-18.94,53-28a245.88,245.88,0,0,1,41-12c22.93-4.61,28.43-2.32,56-6a417,417,0,0,0,50-10,529.29,529.29,0,0,0,62-20c19-7.19,28.66-10.91,38-17,19.78-12.89,32.76-29.24,33-29s-12.5,9.42-20,26c-5.53,12.24-6.75,25.24-7,32-.53,14.31,2.52,22,0,23-3,1.23-11.66-8.06-15-19-2.08-6.79-1.33-11.68-3-12-3.07-.6-8.44,15.35-9,17-3,8.85-5.48,16.26-5,26,.64,13.06,6.08,19.12,3,22-3.64,3.4-14.36-2.12-18-4-9-4.63-14.37-10.59-15-10-.94.89,12.66,12.89,10,18-1.92,3.69-11.13,1.51-28,0-13.29-1.19-28.37-1.7-38-1-16.36,1.19-25.84,6.53-43,14a493.78,493.78,0,0,1-72,25c-29.25,7.4-57.33,9.47-78,11-27.66,2-47,1.5-62,16-7.32,7.09-12,16.23-15,15-3.37-1.39-1.83-14.77,2-25C249.32,1062.79,259.37,1053.84,266,1049Z"
          transform="translate(-73.5 -231.5)"/>
    <path class="cls-16"
          d="M697,932c1.35-6.23,8.65-7.67,19-14,4-2.47,11.42-9.68,26-24,9.58-9.41,23-22.82,38-34a40.26,40.26,0,0,1,20-8c4.28-.41,7.74-.74,9,1,3.78,5.23-16.15,24.11-31,42-14,16.82-23,34.21-41,69-12.58,24.28-28.68,55.35-41,96-19,62.65-17.8,111.16-23,111-2.61-.08-3-12.3-7-38-10.16-65.9-22.6-84.61-10-103,.8-1.16,8.53-7.77,24-21,9.87-8.44,18.74-18,29-26,7.68-5.95,11.87-8.48,12-13,.15-5.26-5.38-7.15-14-18C700.52,943.84,695.74,937.82,697,932Z"
          transform="translate(-73.5 -231.5)"/>
    <path class="cls-16"
          d="M1048,823c-9.57.36-12.42,22.2-26,53-13.87,31.47-21.52,32.77-41,67-18.26,32.08-26.95,58-38,91-2.77,8.25-15.51,46.81-26,103-10.6,56.79-17.82,125.88-12,127,2.06.4,4.64-7.93,13-30,0,0,20.34-53.68,45-106,17.14-36.37,25.72-54.55,35-64,12.12-12.33,25.46-20.59,24-32-1.13-8.83-9.86-9.75-21-26-5.82-8.49-13.81-20.14-11-31,1.4-5.4,5.37-10.26,26-21,35.79-18.64,48.1-16.66,53-28,4.48-10.35-5-13.79-5-38,0-19.41,6.1-23.69,3-38C1064.39,837.94,1056.1,822.69,1048,823Z"
          transform="translate(-73.5 -231.5)"/>
    <path class="cls-16"
          d="M626,1176c-6.55.16-9.71,77.4-11,109-1.65,40.32-1.3,70-1,85,.64,32,1.74,29.17,2,52,.71,61.4-6.92,105.68,2,108,1.88.49,2.44-1.42,12-6,10.6-5.08,14-4.69,18-7,13.67-7.88,19.1-38.44,7-53-7.12-8.57-14.68-4.81-22-14-8.44-10.6-9.25-29.26-1-40,9.06-11.79,23-6.2,31-16,8.67-10.65.38-27.31-7-52-9.35-31.32-.94-21-22-135C629.55,1182.92,628,1176,626,1176Z"
          transform="translate(-73.5 -231.5)"/>
    <path class="cls-16"
          d="M617,1607c-2.35,32.92-14.68,61.12-19,71-8.06,18.44-12.56,21.53-12,32,.69,13,8.75,30.06,24,34,1,.25,12.82,3.11,23-4,8.64-6,10.25-15.17,15-51,6-45,6.35-52.5,4-64a91.07,91.07,0,0,0-15-34c-3.58-5-11.2-15.59-16-14C616.35,1578.54,618.2,1590.2,617,1607Z"
          transform="translate(-73.5 -231.5)"/>
    <path class="cls-16"
          d="M928,1520c1.59,24,7.06,50.7,18,104,12.31,60,18.68,76.27,34,89,12.2,10.14,24.46,13.35,46,19,16.2,4.25,67.67,17.74,79,0,6.18-9.68-5.82-18.88-17-55-14-45.12-3.76-58.3-20-79-9.92-12.65-12.77-6.51-46-30-24.2-17.1-53-37.89-53-60,0-5.15,1.54-15.37,3-25,2-13,2.81-14.27,4-15,1.7-1,8.27-3.56,44,29,21.81,19.88,31,31.43,33,30,3.28-2.34-17.2-36.64-21-43-16.78-28.1-31.67-47.64-30-49,1.32-1.07,10.73,10.88,30,23,10.61,6.68,21.68,11.81,23,10,2-2.76-22.71-15.85-26-40-.86-6.3.1-10.86,2-20,3.58-17.19,9.93-29.12,18-44,23.05-42.51,22.28-39.27,25-46,2.39-5.92,3.92-10.75,12-52,6.46-33,11.75-61.89,8-63-3.19-.94-8,19.75-24,24-2,.54-8.42,2.24-12-1-3-2.73-3.67-8.62,5-37,5-16.45,9.47-28.28,8-29-2.31-1.13-13,28.21-28,28-7.42-.1-14.55-7.43-19-12-7.71-7.92-7.64-12.78-13-15-8.84-3.67-20.22,4.91-23,7-21.65,16.31-25,48.38-26,58-9.8,91.17-12.72,6.46-28,177C926.34,1488.47,927.22,1508.18,928,1520Z"
          transform="translate(-73.5 -231.5)"/>
    <path class="cls-16"
          d="M1124,927c10-18.42,15.49-26,22-33,8.84-9.51,21.19-22.82,38-26s28.31,5.6,51,17c0,0,30.23,15.19,79,29,31,8.79,54.37,9.59,96,11,38.12,1.3,36.48-1.87,99-2,60.78-.13,84.31,2.82,93,4,38.14,5.19,33.49,9.58,63,12,8.24.68,22.14,1.45,23,6,.54,2.83-4.27,5.42-10,10a102.65,102.65,0,0,0-22,26c-11.49,19.92-1.53,34.58-11,42-8.73,6.84-24.38,0-32-3-44.8-17.66-55.58,1.15-123-12-11-2.15-6.92-1.91-110-37-57.73-19.65-63.31-21.19-71-23-37.41-8.81-75.11-12.43-114-9-43.56,3.84-59.46,13.94-64,17-23.29,15.68-32.24,37.58-35,36C1092.32,989.9,1110.35,952.1,1124,927Z"
          transform="translate(-73.5 -231.5)"/>
    <path class="cls-16"
          d="M764,1699c5.75,14.52,2.51,20.47,5,39,2.14,15.88,5.11,38,20,48,3.69,2.48,7.16,3.58,28,5,27,1.84,48.18,1.85,60,2,22.86.28,18.53,1.17,49,2,65.82,1.79,69.34-2.81,70-5,1.49-4.9-7.76-9.33-24-24-33.43-30.19-45.58-57.74-51-55-3.61,1.82-1,15.46,2,24,5.23,14.75,13.89,20.27,12,23-2.37,3.42-19.38-.33-30-12-9.39-10.31-10.6-23.31-12-23-2.08.45,4.72,28.17,0,30-3.52,1.37-14.67-11.16-19-27-6.46-23.65,6.7-38.59-1-47-6.11-6.68-17.35-.48-40,2-44.29,4.84-73.82-10.94-78-2C753.16,1682.93,758.86,1686,764,1699Z"
          transform="translate(-73.5 -231.5)"/>
    <path class="cls-16"
          d="M731,1708c2.39,0,.3,21.19,10,48,7.68,21.24,17,30.17,13,36s-16.1.79-36-1c-43-3.88-69.81,12.15-74,4-2.38-4.62,6.39-9.49,16-29,9.33-18.94,11.39-35.3,13-35,2.09.4-4.11,27.62,2,30,5,1.95,16.79-13.21,22-21,4.81-7.19,7.61-13.48,9-13,2,.67-3.84,13.07,1,26,2.06,5.5,7,13.56,11,13C728.29,1764.58,727.1,1708,731,1708Z"
          transform="translate(-73.5 -231.5)"/>
</svg>