<svg xmlns="http://www.w3.org/2000/svg" viewBox="0 0 693 693">
    <defs>
        <style>
            .cls-1{fill:#fff;stroke:#00c5db;stroke-miterlimit:10;stroke-width:20px;}.cls-2{fill:#00bf90;}.cls-3{fill:#11113f;}
        </style>
    </defs>
    <title>check-symbol</title>
    <g id="Слой_2" data-name="Слой 2">
        <g id="Слой_1-2" data-name="Слой 1">
            <circle class="cls-1" cx="346.5" cy="346.5" r="336.5"/>
            <polygon class="cls-2"
                     points="179.38 353.23 271.38 448.23 516.38 208.23 563.38 208.23 586.38 245.23 290.38 544.23 268.38 544.23 124.39 409.23 130.38 360.23 179.38 353.23"/>
            <path class="cls-3"
                  d="M580.28,198.87a54.35,54.35,0,0,0-76.73,0L275.22,427.1l-74.38-74.77a54.26,54.26,0,1,0-76.73,76.73L237.3,542.34a54.25,54.25,0,0,0,76.72,0h0L580.77,275.6A54.35,54.35,0,0,0,580.28,198.87Zm-21.9,54.83L291.65,520.44a23.26,23.26,0,0,1-32.89,0h0L145.52,407.55a23.29,23.29,0,0,1,32.94-32.94l85.82,85.82a15.54,15.54,0,0,0,21.89,0L525.54,221.06A23.29,23.29,0,0,1,558.48,254h0Z"/>
        </g>
    </g>
</svg>