<svg xmlns="http://www.w3.org/2000/svg" viewBox="0 0 671.26 671.26">
    <defs>
        <style>.cls-1{fill:#fff;}.cls-2{fill:#00bf90;}.cls-3{fill:#11113f;}</style>
    </defs>
    <title>check-symbol</title>
    <g id="Слой_2" data-name="Слой 2">
        <g id="Слой_1-2" data-name="Слой 1">
            <circle class="cls-1" cx="335.63" cy="335.63" r="335.63"/>
            <polygon class="cls-2"
                     points="197.73 321.76 271.1 397.52 466.48 206.12 503.96 206.12 522.31 235.63 286.25 474.08 268.7 474.08 153.87 366.42 158.65 327.34 197.73 321.76"/>
            <path class="cls-3"
                  d="M517.44,198.66a43.34,43.34,0,0,0-61.19,0l-182.09,182L214.84,321a43.27,43.27,0,1,0-61.19,61.19l90.27,90.34a43.26,43.26,0,0,0,61.18,0h0L517.83,259.85A43.34,43.34,0,0,0,517.44,198.66ZM500,242.38,287.26,455.11a18.55,18.55,0,0,1-26.23,0h0l-90.3-90A18.58,18.58,0,1,1,197,338.81l68.44,68.44a12.39,12.39,0,0,0,17.46,0L473.79,216.35a18.58,18.58,0,1,1,26.27,26.27h0Z"/>
        </g>
    </g>
</svg>