<svg xmlns="http://www.w3.org/2000/svg" viewBox="0 0 559.26 559.26">
    <defs>
        <style>.cls-1{fill:#fff;}.cls-2{fill:#00bf90;}.cls-3{fill:#11113f;}</style>
    </defs>
    <title>chek-symbol</title>
    <g id="Слой_2" data-name="Слой 2">
        <g id="Слой_1-2" data-name="Слой 1">
            <circle class="cls-1" cx="279.63" cy="279.63" r="279.63"/>
            <polygon class="cls-2"
                     points="155.58 275.96 221.58 344.11 397.34 171.93 431.06 171.93 447.56 198.48 235.21 412.98 219.43 412.98 116.12 316.13 120.42 280.98 155.58 275.96"/>
            <path class="cls-3"
                  d="M443.18,165.22a39,39,0,0,0-55,0L224.33,329,171,275.31a38.92,38.92,0,1,0-55,55l81.2,81.27a38.92,38.92,0,0,0,55,0h0L443.53,220.26A39,39,0,0,0,443.18,165.22Zm-15.71,39.34L236.12,395.91a16.69,16.69,0,0,1-23.6,0h0l-81.23-81a16.71,16.71,0,1,1,23.63-23.63l61.57,61.57a11.15,11.15,0,0,0,15.7,0L403.91,181.14a16.71,16.71,0,0,1,23.63,23.63h0Z"/>
        </g>
    </g>
</svg>