<svg xmlns="http://www.w3.org/2000/svg" viewBox="0 0 1830 1250.2">
    <defs>
        <style>
            .cls-1,.cls-2,.cls-3,.cls-5,.cls-6{stroke:#000;stroke-width:10px;}.cls-1,.cls-10,.cls-2,.cls-3,.cls-5,.cls-6,.cls-7{stroke-linecap:round;stroke-linejoin:round;}.cls-2{fill:#3d3735;}.cls-3{fill:#d9d9d9;}.cls-11,.cls-13,.cls-4{fill:#fff;}.cls-5{fill:#d5f7f0;}.cls-6,.cls-7{fill:none;}.cls-10,.cls-7{stroke:#11113f;stroke-width:20px;}.cls-8{fill:#00bf90;}.cls-9{fill:#11113f;}.cls-10{fill:#f90d50;}.cls-11{opacity:0.1;}.cls-11,.cls-13{isolation:isolate;}.cls-12{fill:#282828;}.cls-13{opacity:0.7;}
        </style>
    </defs>
    <title>choosing</title>
    <g id="Layer_2" data-name="Layer 2">
        <g id="Layer_8" data-name="Layer 8">
            <path class="cls-1"
                  d="M641.7,958.7c-1.1,3.5-1.2,9.7,17,32a333.12,333.12,0,0,0,29,31c13.3,12.6,9.6,7.4,32,27,13.2,11.5,18.2,16.6,23,15s6-9.3,8-20c7.7-40.3,13.1-37.7,12-50-2.4-25.6-27.3-51.7-57-57-21-3.7-37.8,4.2-48,9C643.9,952.2,642.1,957.2,641.7,958.7Z"/>
            <path class="cls-2"
                  d="M750.7,967.7c-5.7,4.9-9.8,19-18,47-5.1,17.3-7.3,28.1-10,41-2.8,13.3-3.7,19.9-4,27a144.26,144.26,0,0,0,1,24c5.3,43.6,8,65.4,9,72,9.1,60.7,9,66.5,9,66.5h199c2-22-2-48.5-2-60.5,5.4-2.6,13.7,4.8,15,6,7,23,11.9,40.9,17,54.5h192c-10-31.1-23.4-96.2-18.1-116.1a21.17,21.17,0,0,0-.3-11.7c-1.5-4.9-3.6-11.6-5.6-19.8-4.3-17.1-4.2-21.7-8-39a370.25,370.25,0,0,0-12-43c-5.1-14.7-11.8-30.5-15-38-.7-1.7-2.6-6-3-7-15.3-33.2-181.4,23.1-292-6C794.5,962,766.8,953.9,750.7,967.7Z"/>
            <path class="cls-2"
                  d="M737.7,971.7c6.3,12.5,29.4,8.5,86,10,46.7,1.2,35.7,4,106,7,55.3,2.3,52.9.2,97,2,18,.7,36-1,54-1,6,0,12-1.6,18-2,3.2-.2,5.6-.3,7-2,1.9-2.3.7-5.6-1-13,0,0-.7-3.1-3-16-1.5-8.6-1.9-16.3-2-17-2.4-23-251-113.9-342-14C754.4,929.4,729.9,956.3,737.7,971.7Z"/>
            <path class="cls-1"
                  d="M935.7,57.7c-.2-3.8-14.8-3-34-14-8.2-4.7-7.2-5.8-22-16-13.3-9.2-20-13.8-28-17a83.12,83.12,0,0,0-41-5,81.65,81.65,0,0,0-36,15c-5.3,3.9-14.3,10.7-21,23-7.3,13.4-7.8,25.9-8,32-.3,12,2.2,20.9,6,34a185.66,185.66,0,0,0,8,22c2.1,4.7,2.2,4.4,8,16,7.9,15.9,8.2,17.3,10,18,7.6,2.7,17.9-17.5,35-37,5.9-6.8,38.9-43.5,87-59C918.1,63.8,935.9,61.9,935.7,57.7Z"/>
            <path class="cls-1"
                  d="M966.7,58.7c.7-2.1,14.1,4,35,2,7.8-.8,9.9-2,42-12,24.3-7.6,27.9-8.3,32-9,11.7-1.9,23-3.7,37,0a72,72,0,0,1,29,16,74.89,74.89,0,0,1,20,30,78.16,78.16,0,0,1,4,35,87.51,87.51,0,0,1-6,25c-2.9,7.2-7.6,14.1-17,28-6.4,9.4-9.6,14.1-13,18-8.8,10-10.3,8-20,19-2.7,3-4.6,5.5-6,5-2.9-1.1-.4-14.1,0-17,3.9-25.9-25-71.1-65-101C1002.7,70.8,965.5,62.1,966.7,58.7Z"/>
            <path class="cls-3"
                  d="M707.7,245.7a18.17,18.17,0,0,0-2,9c0,2.4.2,7.8,4,11,5,4.2,12.7,1.5,14,1,5.9-2.1,9.4-6.7,12-11,8-13,9.9-26,11-33,0,0,1.4-8.9,9-41,2.9-12.3,8-34.1,21-56a152.39,152.39,0,0,1,45-48c25.4-17.3,49.3-21.9,66-25,30.7-5.7,54.8-2.7,68-1,18.3,2.4,43,5.6,71,21,6.6,3.6,32.3,18.3,55,48,6.6,8.6,18.1,23.9,26,47,10.6,31,8.7,59,8,68-2.6,34.6-4,51.9-4,52a51.71,51.71,0,0,0,1,21c2.2,8.5,5.6,11.8,7,13a21.94,21.94,0,0,0,11,5,25.21,25.21,0,0,0,15-1c6.5-2.7,9.3-7.5,10-7,.9.7-3.1,9.2-10,17a55.52,55.52,0,0,1-23,16,48,48,0,0,1-24,3c-6.4-.9-10.6-3.7-11-3-.5.9,5.5,5.4,12,8a23.83,23.83,0,0,0,8,2c4.9.2,7.7-1.5,8-1,.5,1-9.3,9.3-23,14-8.7,3-15.7,3.4-26,4-8.9.5-13.7.8-20-1-6.8-1.9-11.3-5-12-4s3.7,5.4,7,8c2.8,2.2,6.6,5.1,12,6,4.7.8,7.9-.3,8,0,.1.6-8.7,3.4-19,5a108.71,108.71,0,0,1-24,1,156.79,156.79,0,0,1-34-6c-28.1-8.2-73.1-21.3-112-8-12.2,4.2-27.8,12.3-30,9-1.3-2,2.8-7.4,4-9,5.2-6.8,11.4-9,11-10-.4-1.2-8.4,1.5-17,3-4.9.8-21.5,3.6-39-2-10.9-3.5-19.3-9.2-19-10,.2-.5,3.4,1.2,8,1,7.6-.3,14.5-5.3,14-7-.4-1.4-5.8,0-17,0-10.3,0-18.3.1-27-3a54,54,0,0,1-21-14c-9-9.3-14.9-21.3-13-23,.8-.7,2.4,1.1,7,2a24.48,24.48,0,0,0,12-1c4.9-1.5,11.5-4.9,11-7-.4-1.6-4.7-1.6-9-2-5.5-.5-23.5-2.1-34-11-8.6-7.3-10.5-18.1-11-21C700,259.3,707.9,245.8,707.7,245.7Z"/>
            <path class="cls-4"
                  d="M796.7,135.7a80.34,80.34,0,0,0-9,38c.1,6.2.8,4.2,3,27,1,10.2,1.4,16.2,0,24-1.2,7.1-2.3,12.8-7,17-5.8,5.2-12.7,4.2-13,7s6,5.8,11,7c1.7.4,7.3,1.6,18-1,12-2.9,16.2-7.2,19-5s1.4,9.3,0,13c-4,11-14.1,14.2-13,17s11.6,3.1,21-1c11.7-5.1,15.9-14.5,19-13,2.5,1.2,2,8.6,0,14-2.8,7.5-7.9,9.8-7,12,1.6,3.8,18,.2,19,0,6.4-1.4,15.9-3.6,25-11,6.4-5.2,8.7-9.9,11-9,2.6,1,.3,7.4,3,16,3.4,10.5,12.4,18.3,15,17,1.5-.8-.2-4,1-10,1.4-6.9,6.2-14.3,10-14,3.5.3,2.7,6.9,8,14,3.7,5.1,7.2,5.9,31,16,10.1,4.3,17.1,7.4,18,6,.8-1.2-4.5-4.1-7-11-2.2-6.1-1.7-14,1-15,3.1-1.2,6,7.7,17,15,5.8,3.9,10.9,5.3,21,8,10.9,3,24.3,5.2,25,3,.5-1.6-6.5-3.1-10-10s-2.1-16,1-17c2.6-.9,4.3,4.9,12,10,3.3,2.2,5.4,2.8,24,7,13.2,3,18.5,4.2,19,3,.6-1.5-7.9-3.9-12-12-1.8-3.5-2-6.5-2-14,0-19.4,0-29.1,3-30,3.2-.9,8.6,6,11,12,2.5,6.4,1.6,12,2,12s1.8-6.1,3-29,1.8-34.6,1-43c-2.3-23.6-13.2-40.4-24-57-12.6-19.4-33.1-50.8-72-66-20-7.8-36.2-7.9-57-8-3.9,0-76.3.4-120,38C804.3,122.5,799,131.3,796.7,135.7Z"/>
            <path class="cls-5"
                  d="M688.7,464.7a14,14,0,0,0-5,1c-5.6,2.4-7.9,8.5-9,11-1.6,3.8-6.8,9.6-17,21-13.7,15.3-17.5,13.3-25,25-3,4.7-2.9,5.8-9,16-2.7,4.5-4.5,7.3-6,12-1.6,5.3-.7,6.2-2,10-1.9,5.5-4.6,5.7-12,14-8.5,9.4-8.3,12.8-14,15-3.3,1.3-5.1.9-8,3-3.8,2.9-4.9,7-6,10-.3.8-3.9,6.5-11,18-8.5,13.6-21.5,23.7-48,51-12,12.3-17.5,18.6-23,26-10.4,13.8-14.2,22.5-16,27a98.81,98.81,0,0,0-6,23c-.5,4.2-2.9,25.3,9,52,9.1,20.6,14.6,17.3,53,66,15.8,20.1,23.7,30.1,25,32,5.4,8.1,12.1,15.3,18,23a33,33,0,0,0,8,8c4.5,3.1,7.4,3.4,15,6,12.8,4.4,12.7,6.6,18,7,6.8.5,11.8-2.6,19-7,2.2-1.4,21.7-13.6,27-32,.8-2.9,1.2-5.4,3-11,2.7-8.3,4.4-10.2,4-14-.5-4.3-3.1-6.4-7-11-1.1-1.3-4.7-7.2-12-19-17.4-28.3-20.6-46.8-27-55a11.73,11.73,0,0,1-3-7c-.1-3.1,1.5-4.1,1-6-1.2-4.4-11.1-5.1-11-6,.1-.7,6.6,1.2,10-2,2.3-2.1,2.7-6.1,2-9-1.7-6.8-9.7-8.6-9-12,.3-1.2,2.2-2.2,6-4,6.1-2.9,7.3-2.2,9-4,2.7-2.8.8-5.6,3-11,1.4-3.4,3.4-5.5,6-8,24.9-23.9,38-33,38-33,10.1-7.1,28.6-19.9,39-32,24.1-28,19.3-69.1,16-98C725,502.8,697.4,464.7,688.7,464.7Z"/>
            <path class="cls-5"
                  d="M1120.7,445.7a26.38,26.38,0,0,1,13,3,21.94,21.94,0,0,1,6,5c9.4,10.8,21.2,35.4,27,47,6.7,13.4,10.1,18.5,12,28,1.4,7,2.2,10.6,2,16-.2,4.6-.9,7.8,0,13a34.9,34.9,0,0,0,3,9c12.1,25.3,13.4,37.3,30,65,7.7,12.8,11.6,17.1,15,28,2.9,9.1,3.5,16.5,4,23a149.6,149.6,0,0,1-2,38c-1.7,9.4-2.7,9.5-5,22-1.8,10.1-1.7,12.8-4,18a38.8,38.8,0,0,1-13,16c-8.2,5.8-16.5,6.5-22,7-10.3.9-18.2-1.3-24-3-11.6-3.4-19.5-8.5-28-14-2.3-1.5-14.6-9.5-23-18-15.6-15.7-21.5-36.5-25-57-6.5-38.1-4.6-74.3,3-136C1089.7,555.7,1103.2,446.8,1120.7,445.7Z"/>
            <path class="cls-5"
                  d="M682.7,473.7c-.2-2.7-.9-9.3,3-13,2.4-2.3,4.9-2,12-5a71.32,71.32,0,0,0,8-4c11.8-6.3,37.3-10.9,58-17,18-5.3,14.8-6.6,31-11,17.1-4.7,30.5-6,42-7,37.5-3.3,58.3-5.2,96-6,30.8-.7,46.6-1,64,1a434.38,434.38,0,0,1,50,9c8.4,2.1,8.3,2.3,41,11,17.1,4.5,25.6,6.8,27,7,5.7.9,8.6.9,12,3,8.4,5.1,10.2,16.4,11,22,6.5,44,9.7,66.1,10,82,.4,25.1.6,38.1-2,55-3,19.6-7.3,31.6-11,44-10.1,33.8-12.7,69.5-18,141-.1,1.4-1.7,24.1-2,54-.3,33.3,1.4,42.8,3,49,2.2,8.3,2.8,17,6,25,1.2,3.1,2.6,6.1,2,10-.5,3.2-2.3,6.5-10,13-5.8,5-10.2,8.6-17,12-16.4,8.1-42.7,12.3-59,4a39.17,39.17,0,0,0-17-5,36.22,36.22,0,0,0-10,1c-19.1,4.4-52.8,1.2-55,1-22.8-2.2-23.5-6.7-41-6-10.7.4-13.6,2.2-27,4-13,1.7-23.5,1.5-44,1,0,0-32.3-.8-80-8-5.9-.9-14.3-2.2-23-8-8.5-5.6-13.3-12.9-18-20-4.2-6.3-7.2-11.1-8-18-.3-2.9.1-6.3,1-13,1.8-13.5,2.8-13.9,3-19,.4-8.5-2.1-10.8-5-24-1.4-6.6-2-12.1-3-23-2.8-29.8-4.2-72.7-6-103-1.6-28-2.5-42-4-50-6-31.3-15.3-44.4-24-88-2.2-11.3-3.4-16.9-4-24C671.2,511.6,684.6,498.3,682.7,473.7Z"/>
            <path class="cls-6"
                  d="M669.7,544.7a132.3,132.3,0,0,1-15,6,135.79,135.79,0,0,1-20,5c-8.1,1.3-13,1.3-13,2s5.7,1.7,11,2,10.3-.5,20-2c6.1-.9,11.2-1.9,19-2h2"/>
            <path class="cls-6" d="M618.7,667.7c13.5-2.4,25-3.9,34-5,15.5-1.8,22.6-2,28-2a160.4,160.4,0,0,1,18,1"/>
            <path class="cls-6"
                  d="M630.7,687.7a144.43,144.43,0,0,1,41-16c11.7-2.5,24.7-3.4,25-2,.2,1.1-7,2.8-18,7a236.15,236.15,0,0,0-28,13"/>
            <path class="cls-6"
                  d="M625.7,725.7a125.37,125.37,0,0,1-19-3c-6.9-1.7-18.1-4.4-30-12-8.7-5.5-15.6-12.2-15-13s6.1,3.4,17,8a101.25,101.25,0,0,0,23,7,85.59,85.59,0,0,0,18,1"/>
            <path class="cls-6"
                  d="M526.7,732.7a85.67,85.67,0,0,1,63,0c14.8,6.1,23.2,14.9,24,14s-5.8-8.4-14-15c-6.7-5.4-17.1-13.7-33-17a65,65,0,0,0-20-1"/>
            <path class="cls-6" d="M608.7,773.7a21.19,21.19,0,0,0-9,3,24.41,24.41,0,0,0-7,7,35.91,35.91,0,0,0-4,7"/>
            <path class="cls-6"
                  d="M609.7,752.7a104.63,104.63,0,0,1-26,2c-6-.3-10.7-1.1-11,0-.4,1.5,7.6,5.5,15,8,14.9,5,27,4,27,5s-8,1.7-13,2a118.46,118.46,0,0,1-17,0"/>
            <path class="cls-6"
                  d="M609.7,911.7c2.7.8,7.7,2.2,14,4,12.2,3.5,17.1,5.2,19,3,1-1.2.5-2.6,0-6a80.75,80.75,0,0,1,0-18c1-8.7,4.6-17.2,6-17,.8.1.8,3.4,1,10,.2,8.2-.5,10.7-1,12-1.3,3.8-3.3,5.7-3,6,.5.4,5.2-3.9,9-9a50.37,50.37,0,0,0,8-17"/>
            <path class="cls-6" d="M674.7,583.7c-1.3,1.7-2.6,3.3-4,5-1.7,2.1-3.3,4.1-5,6"/>
            <path class="cls-6"
                  d="M649.7,606.7a167.62,167.62,0,0,1-11,13c-6.8,7.3-10.2,10.9-15,14-9.6,6.2-14.4,9.3-19,11-.3.1-3.1,1.1-3,2,.1,1.1,4.7.7,5,2s-4.6,3.7-7,5c-4.9,2.6-8.6,7.1-16,16-15.1,18.3-14,22.6-23,28a65.13,65.13,0,0,1-13,6c-7.6,2.3-13.9,2.4-14,4-.2,1.8,7.1,3,7,5s-6.4,1.8-14,6a45.07,45.07,0,0,0-8,6c-5.5,4.8-13.4,13.1-12,15,1.2,1.6,8.4-2.1,9-1s-5.7,3.6-9,10a19.46,19.46,0,0,0-2,9c.4,6.6,5.1,10.5,11,17a124.69,124.69,0,0,1,14,19"/>
            <path class="cls-6"
                  d="M556.7,832.7c10.6,11.5,18.6,21.2,24,28,13.5,16.9,20.2,25.4,21,27,1.8,3.7,4.5,10.2,11,14,1.7,1,3.3,1.6,8,4,3.9,2,7,3.8,9,5"/>
            <path class="cls-6"
                  d="M687.7,560.7a650.48,650.48,0,0,1,63-19c23.7-5.8,54.8-13.4,95-16,33.7-2.2,56.8.2,57-2,.2-2-19.1-5.7-35-7a187.05,187.05,0,0,0-32,0"/>
            <path class="cls-6"
                  d="M925.7,518.7c23.1-1.7,42.5-2,57-2,28.9.1,48.7.2,75,5,28.3,5.1,45.8,12.3,52,15a209,209,0,0,1,27,14"/>
            <path class="cls-6" d="M912.7,548.7c.2,18.2.6,34.3,1,48,.9,26.9,2.1,48.6,3,62,.7,11.2,1.4,20.7,2,28"/>
            <path class="cls-6" d="M761.7,918.7c7.8,3.5,16.9,7.5,27,12,19,8.4,23.1,10.2,29,12a139,139,0,0,0,33,6"/>
            <path class="cls-6"
                  d="M857.7,946.7a247.6,247.6,0,0,0,34-11c12.7-5.2,16.5-7.9,33-15,13.1-5.6,36.1-14.8,37-13,.4.9-4.9,4.2-20,14-12.4,8-22.4,14.6-29,19"/>
            <path class="cls-6"
                  d="M1000.7,934.7a105.76,105.76,0,0,1,21-4c12.5-1.2,15.7.7,25-1,15.4-2.8,24.3-11,25-10s-8.5,10.4-22,17c-12.1,5.9-21.2,6.4-21,8s11.2,2.7,22,1c7.8-1.2,13.6-3.6,22-7a198.3,198.3,0,0,0,19-9"/>
            <path class="cls-6" d="M1177.7,543.7a49.4,49.4,0,0,1-9,34"/>
            <path class="cls-6" d="M1136.7,639.7a72.66,72.66,0,0,0,19-17,78,78,0,0,0,6-9"/>
            <path class="cls-6" d="M923.7,1002.7q1.8,20.55,3,42c1,16.8,1.6,33.1,2,49"/>
            <path class="cls-6"
                  d="M863.7,1160.7c30.6,4.3,56,9.5,75,14,34.1,8.1,50.1,14.2,57,17a311.83,311.83,0,0,1,39,19"/>
            <path class="cls-6" d="M906.7,1172.7a280.86,280.86,0,0,1,52,19,284.36,284.36,0,0,1,49,30"/>
            <path class="cls-1"
                  d="M679.7,917.7c6.6-4.2,12.7-4.9,24-6,12.5-1.2,22.2-2.2,34,1,15.3,4.1,26.1,12.9,36,21,9.5,7.8,11.4,11.6,21,17,4.1,2.3,8.4,4.3,14,9,5,4.2,8.5,7.2,10,12,2.9,9.2-3.6,18.2-5,20-7.1,9.3-18.3,11-25,12a47.69,47.69,0,0,1-23-2c-4.6-1.6-7.2-3.4-18-11-12.7-9-16.8-12-21-15-11.3-7.9-20.6-14.5-33-20-18.6-8.3-26.7-6.5-29-13C661.8,934.7,671.1,923.2,679.7,917.7Z"/>
            <path class="cls-5"
                  d="M607.7,938.7c.2-3,8.1-3.1,17-7,14-6.1,22.7-18.2,32-31,6.2-8.5,11.6-18,14-17,.6.2.7,1,1,2,1,3.7,2.7,6.2,6,11,1.8,2.6,5.1,7.5,11,11,2,1.2,3.2,1.5,4,3,1.8,3.1-.2,7.4-2,11-5.8,11.6-8.7,17.3-13,22-5.1,5.5-9.8,8.5-17,13-8.4,5.3-5.8,2.1-14,7-2.2,1.3-4.9,3-7,2-1.2-.6-1.3-1.7-3-4a23,23,0,0,0-4-4c-7.9-6.8-14-11-14-11C610,940.8,607.6,940.4,607.7,938.7Z"/>
            <path class="cls-5"
                  d="M816.7,416.7c-.8-2.6,1.8-5.9,18-20,14.5-12.6,21.7-18.9,25-21,20.8-13.3,42.3-14.2,60-15,13.1-.6,29.9-1.1,50,6a109,109,0,0,1,31,17c11.4,9.1,5.6,8.6,23,26,1.7,1.7,3.3,3.2,3,5-.8,5.4-17.2,7.2-42,9-39.4,2.8-59.1,4.3-83,3-28.6-1.5-23.3-3.8-51-5C830.9,420.9,818.3,421.6,816.7,416.7Z"/>
            <line class="cls-7" x1="1262.7" y1="385.7" x2="1819.7" y2="385.7"/>
            <polygon class="cls-8"
                     points="1505.1 211.1 1561.7 269.6 1712.7 121.7 1741.7 121.7 1755.9 144.5 1573.5 328.8 1559.9 328.8 1471.2 245.6 1474.9 215.4 1505.1 211.1"/>
            <path class="cls-9"
                  d="M1752.1,116a33.56,33.56,0,0,0-47.3,0L1564.1,256.6l-45.8-46.1a33.45,33.45,0,0,0-47.3,47.3l69.8,69.8a33.38,33.38,0,0,0,47.3,0h0l164.4-164.4A33.53,33.53,0,0,0,1752.1,116Zm-13.5,33.8L1574.2,314.1a14.36,14.36,0,0,1-20.3,0h0l-69.8-69.6a14.35,14.35,0,0,1,20.3-20.3l52.9,52.9a9.6,9.6,0,0,0,13.5,0l147.5-147.5a14.35,14.35,0,0,1,20.3,20.3h0Z"/>
            <line class="cls-7" x1="1724.2" y1="290.2" x2="1819.7" y2="385.7"/>
            <line class="cls-7" x1="1724.5" y1="481.7" x2="1820" y2="386.2"/>
            <g id="_Group_" data-name="&lt;Group&gt;">
                <path class="cls-10"
                      d="M267.5,189.5l-73.8,73.8a24,24,0,0,0,34,34l73.8-73.8,73.8,73.8a24,24,0,0,0,34-34l-73.8-73.8,73.8-73.8a24.2,24.2,0,0,0,0-34,24.14,24.14,0,0,0-34,0l-73.8,73.8L227.7,81.7a24,24,0,1,0-34,34Z"/>
            </g>
            <line class="cls-7" x1="567.2" y1="386.2" x2="10.2" y2="386.2"/>
            <line class="cls-7" x1="105.7" y1="290.7" x2="10.2" y2="386.2"/>
            <line class="cls-7" x1="105.5" y1="482.2" x2="10" y2="386.7"/>
            <path class="cls-11"
                  d="M754.2,1032.2c5.1-3.2,8.2-.4,21-1,3.5-.2,17.4-1,30-7,14.6-6.9,11.7-13.2,24-19,6.9-3.2,9.9-2.2,43-2,25.2.2,26.8-.3,30,2,9.3,6.9,4.8,18.6,8,57,2.3,27.3,5.6,34.4,0,41-5.5,6.4-13.8,5.5-41,4-33.4-1.9-66.6-8.4-100-8-9.5.1-19.5.6-25-6-4.9-5.9-3.2-15.3,0-34C746.9,1043.7,748.3,1035.8,754.2,1032.2Z"/>
            <path class="cls-11"
                  d="M942.2,1009.2c5.4-5,10.3-1.2,45,2,28.7,2.6,43.1,4,60,2,25.8-3,33.9-10.2,43-4,6.1,4.1,4.1,8.4,12,36,9.2,32.1,13.9,48.2,18,55,2.1,3.4,5.1,7.9,4,13-1.3,6.1-7.5,10-22,16-15,6.3-40.9,15.7-42,13-.5-1.3,4.7-3.7,18-14,11-8.5,18-13.9,17-16-1.2-2.5-13.3,2.3-30,5-10.5,1.7-21.5,1.5-43,1-53.8-1.2-61-6-65-11-3.4-4.3-4.2-8.1-6-18C938.5,1021.3,936.7,1014.3,942.2,1009.2Z"/>
            <path class="cls-11"
                  d="M986.2,1176.2c-.5,2.1,21.6,5.2,50,23,18,11.3,26.9,21.1,28,20,1.4-1.4-10.2-20.1-30-32C1011.7,1173.7,986.7,1174,986.2,1176.2Z"/>
            <path class="cls-11"
                  d="M754.2,1178.2c3.3-3.6,7.7-5.3,44-5,30.6.2,49.4,1.6,71,7,17.3,4.3,24.6,8.2,28,15,2.2,4.4,2.5,10.9,3,24,.4,10.4.6,15.6,0,18-27-1-101-3-138,0C755.2,1220.2,742.5,1190.6,754.2,1178.2Z"/>
            <path class="cls-11"
                  d="M848.2,970.2c0,2.1,25.3,4.1,61,7,29.2,2.4,50.6,3.4,65,4,12.9.5,36.3,1.3,66,0,30.5-1.3,31.9-3.3,32-4,.2-3.1-22.7-7.1-28-8a267.84,267.84,0,0,0-41-4c-46.1-.8-69,0-69,0C876.9,967.2,848.2,968.1,848.2,970.2Z"/>
            <path class="cls-12"
                  d="M709.2,917.2c9.7-3.4,18.3-.9,28,2,14.5,4.4,24.6,11.3,36,19,14.6,9.9,12.4,10.9,22,16s16.8,6.6,19,13a13.15,13.15,0,0,1-2,12c-4.9,6.4-15.4,5.1-25,4a63,63,0,0,1-27-9c-6.6-4.1-5.6-5.2-18-15-10.3-8.2-19.8-14.3-21-13-.9,1,3.3,4.8,2,7-1.4,2.4-8.7,1.3-14-1-6.1-2.7-17.2-10.3-16-20S707.1,917.9,709.2,917.2Z"/>
            <path class="cls-13"
                  d="M489.2,722.2c6.6-12.4,14.1-20.7,20-27,9.7-10.4,17.4-17.8,28-28,29-27.9,29.4-27.7,31-31,7.4-14.8,6.5-29.7,18-35,3-1.4,4.1-.9,8-3,2.9-1.6,6.8-4.3,16-16,6.2-7.9,5.2-7.7,7-9,5.7-4.3,11.2-3.3,23-4,17.8-1.1,22.5-4.4,24-2,2.2,3.5-8.5,14.1-30,35-25,24.3-31.8,28-36,30-9,4.3-20.5,7.8-20,10,.4,2,10.2.4,11,3s-9.4,5.5-19,15c-7.7,7.7-5.1,9.9-14,20a86,86,0,0,1-21,17c-5.9,3.4-9.7,5.6-15.5,6.9-3.4.8-7.5,1.3-7.5,2.1,0,1.1,7.5.8,8,3,.4,1.8-4.5,3.5-12,9-3.6,2.7-7.4,5.5-11,10a39.77,39.77,0,0,0-7,13c-3.2,10.6.1,18.7-1,19s-6.2-8.4-6-19C483.3,736.1,484.6,730.8,489.2,722.2Z"/>
            <path class="cls-13"
                  d="M626.2,656.2s6.5-1.9,17-4c21.2-4.2,38.6.9,39-1,.3-1.6-12.1-6.7-26-8-7-.7-16.6-1.5-27,3s-17.9,12.6-17,14C612.8,661.1,616.7,659,626.2,656.2Z"/>
            <path class="cls-13"
                  d="M634.2,544.2c-1.2-1.6.5-5.7,4-14,3.2-7.7,5.1-9.3,6-10,3.3-2.5,5-1.3,9-4,2.8-1.9,3.2-3.3,7-8,1.7-2.2,8.7-10.8,10-10,1.1.6-2.9,6.7-5,17s.2,12.1-2,17C657.9,544,637.6,548.6,634.2,544.2Z"/>
            <path class="cls-13"
                  d="M696.2,465.2c2.9-3.2,11-4.8,27-8,27.9-5.6,32.1-2.9,48-8,17.8-5.7,15.8-10.2,31-14,14.8-3.7,17.1.4,44,0,28.7-.5,37.6-5.3,46,2a47.44,47.44,0,0,1,13,18c1.6,4.6,1.9,8.5,4,9s4.5-3.2,10-11c6.5-9.3,9.7-13.9,11-15,6.4-5.7,13-2.3,33-2,15.8.3,14.4-1.8,48-3,9.4-.3,14.2-.4,20,0,10,.6,14.1,1.8,27,4,22,3.7,30.7,3.7,47,9,8.4,2.8,12.5,4.9,15,9,3.7,6.2-.3,10.2,0,22,.1,4.2,3.1,14.9,9,36,2.8,9.8,3.8,13.4,2,15-3.8,3.4-16.2-5-21-8-23-14.3-48.7-14.6-94-15-32.7-.3-55.7-.5-84,7-3.4.9-24.5,6.6-26,3-.8-1.8,4-4.3,9-12,4.8-7.4,7.5-16.1,6-17s-5.5,5.5-17,15c-6,5-9.1,7.5-13,9-9.1,3.4-17,0-25-2-10.5-2.6-21.3-1.4-43,1-8.9,1-19.4,2.8-48,12-54.2,17.3-76.4,29.8-83,22-2-2.4-1.1-5,0-14C696.9,490.1,686.1,476.1,696.2,465.2Z"/>
            <path class="cls-13"
                  d="M852.2,410.2c1.6,2.8,7.3.4,23,0,12.9-.3,15,1.2,33,2,10.8.5,15.5.1,29,0,45.5-.5,62.9,2.4,64-2,.4-1.6-1.5-3-16-13-28.6-19.6-31.8-20.9-35-22-11.3-3.7-20.3-3-34-2-13.5,1-29,2.2-44,12C860.4,393,849.6,405.7,852.2,410.2Z"/>
            <path class="cls-13"
                  d="M929.2,552.2c3.3,14.2,1,19.8,1,42,0,21.4,2.2,18.5,2,36-.3,27.6-5.8,43.6-2,45,2.3.9,6.2-4.2,13-13,10.7-13.9,14.9-23.5,16-23,1.3.6-1.5,15.9-10,32-13.9,26.2-33.9,37.1-32,40,2.4,3.7,35.3-13.9,41-17,23.1-12.4,38-22,38-22,12.7-8.2,17.2-12,27-15,2.4-.7,6.4-1.8,27-3,27.9-1.6,33.4-.4,41-5,5.2-3.2,8.5-8.5,15-19,14-22.7,23.3-37.9,19-52-2.1-7-7.4-13.3-23-22-19.5-11-42.8-18.9-124-24-26-1.6-47.1-2.3-51,7C925.8,542.4,927.4,544.6,929.2,552.2Z"/>
            <path class="cls-13"
                  d="M702.2,570.2c3.8-8.9,20-5.5,58-10,16.2-1.9,35.1-5.3,73-12,25.3-4.5,35.9-6.7,45,0,8.1,6,10.4,15.6,14,31,3.5,14.7,1.6,18.1,4,47,1.7,21.2,3.1,24.6,3,39-.2,19.6-2.9,28-4,31-3.9,11.1-9.7,18.3-15,25-9.4,11.8-21.3,22.4-23,21s8.1-12.6,16-34c2.9-7.8,9-24.4,5-27s-14.1,11.1-34,26c-24.8,18.6-51.2,28.8-53,26-1.4-2.2,13-11.2,34-35,16.2-18.4,25.3-32.9,26-50,.2-4.2.5-11.3-3-13-6.4-3.2-17.1,16.1-43,29-9.6,4.8-21.3,10.6-31,6-8.1-3.8-7.4-11.5-15-25-10.4-18.5-18.9-16.9-38-40C708,589.3,698.8,578.1,702.2,570.2Z"/>
            <path class="cls-13"
                  d="M791.2,908.2c11.1,8.5,18.6,14.2,30,18,15.6,5.1,28.9,3.5,40,2,5.1-.7,12-1.9,49-16,24.2-9.2,36.4-13.8,43-17,21.6-10.4,31.5-18.2,35-15,3.6,3.4-2.7,16.2-7,23-10.7,17-26.1,24-25,26,.9,1.7,11.4-4.9,29-7,9.7-1.2,10.7.4,24-1a159.07,159.07,0,0,0,23-4c7.7-1.9,15.7-3.9,24-8,16.2-8,28.6-21.6,27-24-1.4-2-11.9,5-35,13-6.3,2.2-38.3,13.2-41,8-1.4-2.8,7.1-7,18-21,9.7-12.5,8.3-16,20-34,11-16.9,17.5-21.9,16-24-2.8-3.8-26,11.5-58,25-18.4,7.8-17.7,5.7-71,22-58.3,17.8-76.2,25.6-102,25a172.48,172.48,0,0,1-43-7c-15.2-8.2-19.3-9-20-8C765.6,886.5,779.9,899.5,791.2,908.2Z"/>
            <path class="cls-13"
                  d="M1152.2,499.2c-1.3.4,3.1,11.9,5,29,2.7,24.5-2,40.6,0,41,1.8.4,7-11.4,8-24,.9-11.2-1.8-19.9-4-27C1158.2,508.6,1153.4,498.8,1152.2,499.2Z"/>
            <path class="cls-13"
                  d="M1179.2,594.2c-3.9,1,.7,14.3-7,31-6.8,14.9-19,22.8-18,24,1.4,1.7,22-17.5,28-13,4.2,3.1.3,17.1-4,26-6.1,12.5-12.6,14.3-12,21,.6,7.2,8.4,7.3,18,19,9.9,12,13,25.6,14,30,2.9,13.2.4,20.2,3,21,4.2,1.3,15.2-15.2,20-33,.9-3.3,4.9-18.8,1-40-1.2-6.4-3-12.8-17-42C1185.1,596.4,1181.2,593.7,1179.2,594.2Z"/>
        </g>
    </g>
</svg>