<svg xmlns="http://www.w3.org/2000/svg" viewBox="0 0 671.26 671.26">
    <defs>
        <style>
            .cls-1{fill:#fff;}.cls-2{fill:#7f9293;}.cls-3{fill:#ffe633;}.cls-4{fill:#11113f;}.cls-5{fill:none;stroke:#11113f;stroke-miterlimit:10;stroke-width:21px;}
        </style>
    </defs>
    <title>clock-setting</title>
    <g id="Слой_2" data-name="Слой 2">
        <g id="Слой_1-2" data-name="Слой 1">
            <circle class="cls-1" cx="335.63" cy="335.63" r="335.63"/>
            <polygon class="cls-2"
                     points="157.63 210.93 212.63 159.93 257.63 179.93 284.63 171.93 295.63 124.93 372.63 124.93 391.63 167.93 411.63 180.93 453.63 158.93 512.63 210.93 493.63 256.93 499.63 282.93 547.63 294.93 547.63 373.93 507.63 387.93 491.63 417.93 512.63 452.93 464.63 513.93 415.63 491.93 390.63 502.93 377.63 547.93 301.63 547.93 278.63 502.93 255.63 492.93 218.63 514.93 159.63 457.93 180.63 417.93 172.63 392.93 125.63 373.93 122.63 297.93 169.63 282.93 185.63 254.93 157.63 210.93"/>
            <circle class="cls-3" cx="335.63" cy="335.93" r="134"/>
            <path class="cls-4"
                  d="M527.93,277.23h0l-19.8-2.3a166.33,166.33,0,0,0-7.7-17.9l12.9-15.6a36.41,36.41,0,0,0,0-48.1L479,158.93a36.41,36.41,0,0,0-48.1,0l-15.6,12.3a193.18,193.18,0,0,0-18.2-7.5l-2.3-19.8a36.31,36.31,0,0,0-34-33.9H312a36.15,36.15,0,0,0-34,33.9l-2.4,19.8a187,187,0,0,0-17.9,7.4l-15.6-12.3a36.41,36.41,0,0,0-48.1,0l-34.4,34.4a36.41,36.41,0,0,0,0,48.1l12.3,15.6a188.84,188.84,0,0,0-7.4,18l-19.8,2.3a36.19,36.19,0,0,0-34,34.2v48.7a36.15,36.15,0,0,0,33.9,34l19.8,2.3a187,187,0,0,0,7.4,17.9l-12.3,15.6a36.41,36.41,0,0,0,0,48.1l34.4,34.4a36.41,36.41,0,0,0,48.1,0l15.6-12.3a164.37,164.37,0,0,0,17.9,7.4l2.3,19.8a36.31,36.31,0,0,0,34,33.9h48.8a36.15,36.15,0,0,0,34-33.9l2.3-19.8a187,187,0,0,0,17.9-7.4l15.6,12.3a36.41,36.41,0,0,0,48.1,0l34.4-34.4a36.41,36.41,0,0,0,0-48.1l-12.5-15.8a164.37,164.37,0,0,0,7.4-17.9l19.8-2.3a36.31,36.31,0,0,0,33.9-34v-48.6A36.12,36.12,0,0,0,527.93,277.23Zm16.3,82.8a18.9,18.9,0,0,1-18.3,16.5l-25.3,3a9,9,0,0,0-7.4,6.1,161.28,161.28,0,0,1-10.7,25.8,8.85,8.85,0,0,0,.9,9.5l15.8,20a19,19,0,0,1,1.3,24.7L466.13,500a19,19,0,0,1-24.7-1.3l-20-15.8a8.85,8.85,0,0,0-9.5-.9,171,171,0,0,1-25.8,10.7,8.73,8.73,0,0,0-6.1,7.4l-3,25.3a18.74,18.74,0,0,1-16.5,18.3H312a18.9,18.9,0,0,1-16.5-18.3l-3-25.3a8.67,8.67,0,0,0-6.1-7.8,161.28,161.28,0,0,1-25.8-10.7,8.85,8.85,0,0,0-9.5.9l-19.8,16.2a19,19,0,0,1-24.7,1.3l-34.4-34.4a19,19,0,0,1,1.3-24.7l15.8-20a8.85,8.85,0,0,0,.9-9.5,171,171,0,0,1-10.7-25.8,8.73,8.73,0,0,0-7.4-6.1l-25.3-3a18.74,18.74,0,0,1-18.3-16.5v-48.6a18.9,18.9,0,0,1,18.3-16.5l25.3-2.8a9,9,0,0,0,7.4-6.5,161.28,161.28,0,0,1,10.7-25.8,8.85,8.85,0,0,0-.9-9.5l-15.8-20a19,19,0,0,1-1.3-24.7l34.4-34.4a19,19,0,0,1,24.7,1.3l20,16.3a8.85,8.85,0,0,0,9.5.9,171,171,0,0,1,25.8-10.7,8.73,8.73,0,0,0,6.1-7.4l3-25.3a18.74,18.74,0,0,1,16.5-18.3h48.7a18.9,18.9,0,0,1,16.5,18.3l3,25.3a9,9,0,0,0,6.1,7.4,161.28,161.28,0,0,1,25.8,10.7,8.85,8.85,0,0,0,9.5-.9l20-15.8a19,19,0,0,1,24.7-1.3l34,34.2a19,19,0,0,1-1.3,24.7l-15.8,20a8.85,8.85,0,0,0-.9,9.5,171,171,0,0,1,10.7,25.8,8.83,8.83,0,0,0,7.3,6.2l25.3,3h0a18.92,18.92,0,0,1,18.5,16.4Z"/>
            <path class="cls-4"
                  d="M405.33,377l-59.9-45.7v-39.2a8.8,8.8,0,1,0-17.6,0v43.7a8.62,8.62,0,0,0,3.5,7l63.7,48.4a8.78,8.78,0,0,0,10.6-14Z"/>
            <circle class="cls-4" cx="336.33" cy="254.53" r="8.8"/>
            <circle class="cls-5" cx="336.33" cy="336.43" r="131"/>
        </g>
    </g>
</svg>