<svg xmlns="http://www.w3.org/2000/svg" viewBox="0 0 559.26 559.26">
    <defs>
        <style>
            .cls-1{fill:#fff;}.cls-2{fill:#00ff73;}.cls-3{fill:#f9f900;}.cls-4{fill:#d1b199;}.cls-5{fill:#ff7300;}.cls-6{fill:#fff6ee;}.cls-7{fill:#f05;}.cls-8{fill:#11113f;}
        </style>
    </defs>
    <title>clown</title>
    <g id="Слой_2" data-name="Слой 2">
        <g id="Слой_1-2" data-name="Слой 1">
            <circle class="cls-1" cx="279.63" cy="279.63" r="279.63"/>
            <polygon class="cls-2"
                     points="157.78 394.61 168.88 340.46 184.85 327.27 279.27 309.22 352.16 323.1 393.82 343.93 405.62 398.08 157.78 394.61"/>
            <polygon class="cls-3"
                     points="191.79 391.14 202.9 369.62 225.81 349.49 248.72 341.85 261.91 321.71 297.89 321.05 308.43 339.76 335.5 350.87 355.63 366.15 370.91 394.61 191.79 391.14"/>
            <polygon class="cls-4"
                     points="248.72 314.77 258.88 289.32 282.74 295.33 308.43 289.09 308.43 307.83 310.51 318.24 279.27 325.19 248.72 314.77"/>
            <polygon class="cls-5"
                     points="175.13 201.61 167.5 167.59 207.76 135.66 222.34 117.61 248.03 122.47 281.35 104.42 308.43 120.39 339.67 120.39 357.72 146.77 384.79 157.88 393.82 182.17 386.87 201.61 393.82 234.24 377.85 268.95 357.72 300.89 336.89 304.36 308.43 284.92 278.57 299.22 251.5 285.62 216.79 304.36 188.32 285.62 178.6 258.54 164.72 225.22 175.13 201.61"/>
            <polygon class="cls-4"
                     points="199.43 225.22 211.93 215.5 346.61 215.5 357.72 229.38 347.3 243.96 211.23 243.96 199.43 225.22"/>
            <polygon class="cls-6"
                     points="222.34 188.42 245.25 182.17 276.49 196.06 312.59 182.17 339.67 189.12 336.89 262.01 281.35 300.89 225.81 267.56 222.34 188.42"/>
            <circle class="cls-7" cx="279.96" cy="241.88" r="10.41"/>
            <path class="cls-8"
                  d="M280.05,369.31a6.35,6.35,0,0,0-6.34,6.35h0a6.38,6.38,0,0,0,12.75.42q0-.21,0-.42h0a6.35,6.35,0,0,0-6.35-6.35Z"/>
            <path class="cls-8"
                  d="M259.48,209.12h-1.27v-1.26a6.38,6.38,0,0,0-12.75,0v1.27h-1.27a6.38,6.38,0,1,0-.42,12.75h1.69v1.25a6.38,6.38,0,1,0,12.75.42q0-.21,0-.42v-1.25h1.27a6.38,6.38,0,1,0,.42-12.75h-.42Z"/>
            <path class="cls-8"
                  d="M315.92,209.12h-1.24v-1.26a6.38,6.38,0,0,0-12.75,0v1.27h-1.27a6.38,6.38,0,0,0-.42,12.75h1.69v1.25a6.38,6.38,0,1,0,12.75.42q0-.21,0-.42v-1.25h1.27a6.38,6.38,0,0,0,.42-12.75h-.45Z"/>
            <path class="cls-8"
                  d="M280.05,223.06a17.84,17.84,0,1,0,17.84,17.84,17.84,17.84,0,0,0-17.84-17.84Zm0,22.91a5.08,5.08,0,1,1,5.08-5.08,5.08,5.08,0,0,1-5.08,5.08Z"/>
            <path class="cls-8"
                  d="M300.06,264.62a6.35,6.35,0,0,0-8.88-1.33h0a18.17,18.17,0,0,1-21.65,0,6.4,6.4,0,1,0-7.61,10.27,30.93,30.93,0,0,0,36.79,0,6.35,6.35,0,0,0,1.33-8.88h0Z"/>
            <path class="cls-8"
                  d="M436.56,389.17H408L405.11,363a49.8,49.8,0,0,0-39.92-43.58l-42.35-8.47a13,13,0,0,1-10.5-12.75v-3.3a37.66,37.66,0,0,0,28,14.12h1.44A37.33,37.33,0,0,0,379,273.29a30,30,0,0,0,12.85-28.95A30,30,0,0,0,393.76,202h0l-1.18-1.22a37.33,37.33,0,0,0-28.24-59h-3.1a29.94,29.94,0,0,0-27.55-32.14h-.31A29.94,29.94,0,0,0,311.54,117a37.42,37.42,0,0,0-63.26,0,30,30,0,0,0-49.54,25H196a37.33,37.33,0,0,0-28.24,59,30,30,0,0,0-.9,42.35l1.39,1.32a30,30,0,0,0,12.85,28.95A37.42,37.42,0,0,0,248,294.79v3.32a13,13,0,0,1-10.5,12.75l-42.35,8.47a49.8,49.8,0,0,0-39.92,43.58l-2.87,26.22H123.45a6.38,6.38,0,0,0-.42,12.75H436.55a6.4,6.4,0,0,0,0-12.75ZM219.42,296.54A24.62,24.62,0,0,1,193.88,273v-2.54a6.35,6.35,0,0,0-3.53-6.12,17.27,17.27,0,0,1-9-20.38,6.35,6.35,0,0,0-2.54-7.06,17.27,17.27,0,0,1,1.08-29.32,6.35,6.35,0,0,0,1.18-10.17,24.62,24.62,0,0,1,24.19-41.47,6.35,6.35,0,0,0,7.67-8.75,17.36,17.36,0,0,1,31.39-14.73h0a6.35,6.35,0,0,0,11.91-1.18,24.62,24.62,0,0,1,47.73,0,6.35,6.35,0,0,0,11.91,1.18,17.27,17.27,0,0,1,31.24,14.64,6.35,6.35,0,0,0,7.67,8.75A24.62,24.62,0,0,1,379,197.31a6.35,6.35,0,0,0,1.08,10.17,17.27,17.27,0,0,1,1.08,29.32,6.35,6.35,0,0,0-2.54,7.06,17.27,17.27,0,0,1-8.94,20.38,6.35,6.35,0,0,0-3.53,6.12V272a24.62,24.62,0,0,1-24.62,24.62h-.94A24.67,24.67,0,0,1,320.87,285l7.86-4.71h.33a34.41,34.41,0,0,0,14.64-26.17v-4.28a20.38,20.38,0,0,0,0-40.77V192a29.75,29.75,0,0,0,9.09-6.25,6.4,6.4,0,0,0-9-9,17,17,0,0,1-24.09,0h0l-.75-.69a6.35,6.35,0,0,0-8.94-.87l0,0-.82.81A37.28,37.28,0,0,1,251,176a6.35,6.35,0,0,0-8.92-.81l-.8.8a17,17,0,0,1-24,1.51h0l-.69-.8a6.53,6.53,0,0,0-9.4,9.05l.38.36a29.75,29.75,0,0,0,8.8,6v17.07a20.38,20.38,0,0,0,0,40.77v4.33a34.36,34.36,0,0,0,14.58,26h.33l8,4.71A24.71,24.71,0,0,1,219.42,296.54Zm124.27-59.45V221.81a7.67,7.67,0,0,1,0,15.27ZM216.6,221.75V237a7.64,7.64,0,0,1,0-15.27ZM238,269.57a21.6,21.6,0,0,1-8.66-16.19v-58.8a29.75,29.75,0,0,0,16.52-5.42,50,50,0,0,0,68.86,0,29.75,29.75,0,0,0,16.47,5.46v58.75a21.94,21.94,0,0,1-8.8,16.19l-34.17,19.58h-.33a13.46,13.46,0,0,1-15.27,0h-.31Zm66.42,43.35a61.79,61.79,0,0,1-48.29,0,25.69,25.69,0,0,0,4.71-14.81v-.85l4.71,2.83a26.17,26.17,0,0,0,28.9,0l5-2.87v.9a25.69,25.69,0,0,0,4.71,14.78ZM164.89,389.17l2.73-24.81a37.09,37.09,0,0,1,29.73-32.3l42.35-8.47a25.6,25.6,0,0,0,5.13-1.6,73.81,73.81,0,0,0,9.09,4.1,17.61,17.61,0,0,1-13.65,13.27h-.52a70.94,70.94,0,0,0-54.32,49.89H164.72Zm34.08,0a58.18,58.18,0,0,1,43.5-37.66H243a30.36,30.36,0,0,0,23.53-22.36q3.62.66,7.3,1v24.81a6.38,6.38,0,1,0,12.75.42q0-.21,0-.42V330.28q3.67-.33,7.3-1a30.36,30.36,0,0,0,23.53,22.36h.52a58.18,58.18,0,0,1,43.45,37.66Zm175.52,0h0a70.94,70.94,0,0,0-54.27-49.9h-.52A17.61,17.61,0,0,1,306.06,326a73.85,73.85,0,0,0,9.09-4.1,25.6,25.6,0,0,0,5.13,1.6L362.62,332a37.09,37.09,0,0,1,29.75,32.48l2.68,24.81H374.34Z"/>
        </g>
    </g>
</svg>