<svg xmlns="http://www.w3.org/2000/svg" viewBox="0 0 671.26 671.26">
    <defs>
        <style>
            .cls-1{fill:#fff;}.cls-2{fill:#ffdb29;}.cls-3{fill:none;stroke:#11113f;stroke-miterlimit:10;stroke-width:21px;}.cls-4{fill:#edd6c3;}.cls-5{fill:#724444;}.cls-6{fill:#465575;}.cls-7{fill:#11113f;}
        </style>
    </defs>
    <title>coin</title>
    <g id="Слой_2" data-name="Слой 2">
        <g id="Слой_1-2" data-name="Слой 1">
            <circle class="cls-1" cx="335.63" cy="335.63" r="335.63"/>
            <circle class="cls-2" cx="336.38" cy="333.08" r="106"/>
            <circle class="cls-3" cx="335.68" cy="333.08" r="105.3"/>
            <polygon class="cls-4"
                     points="377.38 491.08 295.38 491.08 265.38 477.08 233.38 442.08 197.38 433.18 197.38 375.58 237.38 372.08 268.38 383.08 321.38 433.08 309.38 457.08 370.38 457.08 388.38 462.08 390.38 478.08 377.38 491.08"/>
            <polygon class="cls-4"
                     points="298.38 175.08 380.38 175.08 410.38 189.08 442.38 224.08 478.38 232.98 478.38 290.58 438.38 294.08 407.38 283.08 354.38 233.08 366.38 209.08 305.38 209.08 287.38 204.08 285.38 188.08 298.38 175.08"/>
            <polygon class="cls-5"
                     points="150.38 361.08 189.38 361.08 194.38 368.08 194.38 445.08 150.38 445.08 150.38 361.08"/>
            <polygon class="cls-6"
                     points="478.38 227.08 478.38 298.08 504.38 304.08 523.38 304.08 523.38 222.08 482.38 222.08 478.38 227.08"/>
            <circle class="cls-7" cx="523.48" cy="222.48" r="7.6"/>
            <path class="cls-7"
                  d="M374.48,451.28l-60.6.1c-4.2.2-5.4.3-5.3,4.5.1,4-7,7.5-3,7.6l68.6,3a8.21,8.21,0,0,1,0,16.4h-79a40,40,0,0,1-30.7-14.4l-19-22.5a55,55,0,0,0-40.7-19.9v-45h28.1a52.83,52.83,0,0,1,36.8,14.9l40.9,39.4a7.46,7.46,0,0,1-10.2,10.8l-32.1-29.4a7.67,7.67,0,0,0-10.3,11.3h0l32.1,29.4a22.64,22.64,0,1,0,31-33l-40.9-39.4a67.82,67.82,0,0,0-47.3-19.1h-29.3a18.93,18.93,0,0,0-17.5-11.8h-36a7.6,7.6,0,0,0-7.6,7.6h0l.1,83.2c.2,4.2,2.3.2,6.5,0,4-.1,8.6,4,8.7,0l-.1-75.9h28.1a3.59,3.59,0,0,1,3.6,3.6h0v61.1a3.59,3.59,0,0,1-3.6,3.6h0l-32.4.7c-4.2.2-4.5,2.7-4.4,6.9.1,4-2.9,7.5,1.1,7.6h35.7a18.82,18.82,0,0,0,17.3-11.3,39.77,39.77,0,0,1,30.6,14.4l19,22.5a55.17,55.17,0,0,0,42.4,19.9h79.2a23.61,23.61,0,0,0,22.3-24.6,23.09,23.09,0,0,0-22.1-22.2Z"/>
            <path class="cls-7"
                  d="M241,356.28a7.63,7.63,0,1,0-14.9,3.3h0a7.73,7.73,0,0,0,9.7,4.9,7.57,7.57,0,0,0,5.1-8.6Z"/>
            <path class="cls-7" d="M242.68,283.78a7.64,7.64,0,0,0-10.1,3.8h0a7.58,7.58,0,1,0,10.1-4.1Z"/>
            <path class="cls-7"
                  d="M234.28,305.08a7.6,7.6,0,0,0-9,5.6h0a7.53,7.53,0,0,0,6,8.9h1.5a7.66,7.66,0,0,0,1.6-15.2Z"/>
            <path class="cls-7"
                  d="M255.38,264.68a7.65,7.65,0,0,0-10.6,1.7h0l6.1,4.5-6.1-4.4a7.62,7.62,0,0,0,12,9.4,1.76,1.76,0,0,1,.4-.5h0a7.61,7.61,0,0,0-1.5-10.6h0Z"/>
            <path class="cls-7" d="M271.58,248.78a7.59,7.59,0,0,0-10.7-.6h0a7.57,7.57,0,1,0,10.7.6Z"/>
            <path class="cls-7"
                  d="M291.38,236.78A7.64,7.64,0,0,0,281,234h0a7.58,7.58,0,1,0,7.8,13,7.39,7.39,0,0,0,2.6-10.2Z"/>
            <path class="cls-7"
                  d="M312.88,229.08a7.63,7.63,0,0,0-9.6-4.9h0l2.3,7.3-2.2-7.3a7.59,7.59,0,0,0,4.5,14.5h0a7.56,7.56,0,0,0,5.1-9.4h0Z"/>
            <path class="cls-7"
                  d="M335.58,226.28a7.54,7.54,0,0,0-8.2-6.9h0a7.65,7.65,0,1,0,.1,15.3h1.3a7.63,7.63,0,0,0,6.8-8.4Z"/>
            <path class="cls-7"
                  d="M238.38,335.28a7.61,7.61,0,0,0-15.2.4h0a7.58,7.58,0,0,0,7.6,7.5h0a7.6,7.6,0,0,0,7.6-7.6h0Z"/>
            <path class="cls-7"
                  d="M344.78,325.68h-15.7a11.69,11.69,0,0,1-11.3-11.3v-9.5a11.69,11.69,0,0,1,11.3-11.3h17.3a9.87,9.87,0,0,1,9.6,9.6,7.6,7.6,0,0,0,7.9,7.3,7.48,7.48,0,0,0,7.3-7.3,25.05,25.05,0,0,0-25.1-25.1h-1.4V267a7.6,7.6,0,0,0-7.9-7.3,7.48,7.48,0,0,0-7.3,7.3v11.3h0a26.8,26.8,0,0,0-26.8,26.8v9.1A26.83,26.83,0,0,0,329,341h15.7a11.61,11.61,0,0,1,11.3,11.6v9.1a11.69,11.69,0,0,1-11.3,11.3h-17.4a10,10,0,0,1-9.9-9.5,7.6,7.6,0,0,0-7.9-7.3,7.48,7.48,0,0,0-7.3,7.3,25.05,25.05,0,0,0,25.1,25.1h1.9v11.3a7.6,7.6,0,0,0,7.9,7.3,7.48,7.48,0,0,0,7.3-7.3v-11.3h0a26.8,26.8,0,0,0,26.8-26.8h0v-9.2A26.61,26.61,0,0,0,344.78,325.68Z"/>
            <path class="cls-7"
                  d="M520.58,222.48c-4.2,0-4.7-4.2-4.7,0h0v75.4h-28.1a3.59,3.59,0,0,1-3.6-3.6h0V234a3.59,3.59,0,0,1,3.6-3.6h0l35.7-.3c4.2-.2,0-2.1-.2-6.3-.1-4,4.2-8.8.2-8.9l-35.7.3a18.7,18.7,0,0,0-17.4,11.8,39.56,39.56,0,0,1-30.5-14.4l-19-22.5a54.8,54.8,0,0,0-42.4-20.5h-79.2a23.4,23.4,0,0,0,0,46.8l61.7-.7c4.2-.2,7.5.2,7.3-4-.1-4,5.7-7.4,1.7-7.6l-70.7-2.9a8.21,8.21,0,0,1-.6-16.4h79.8a40,40,0,0,1,30.7,14.4l19,22.5a55.22,55.22,0,0,0,40.8,19.9v45h-28.2a52.83,52.83,0,0,1-36.8-14.9l-40.9-39.4a7.41,7.41,0,0,1,10.1-10.8l32.4,29.3a7.67,7.67,0,0,0,10.3-11.3h0L384,210.18a22.64,22.64,0,1,0-31,33l40.9,39.4a67.27,67.27,0,0,0,47.3,18.8h29.4a18.82,18.82,0,0,0,17.3,11.3h35.7a7.6,7.6,0,0,0,7.6-7.6h0l-.2-82.7c.1-4.2-3.6,1.4-7.8,1.3Z"/>
            <circle class="cls-7" cx="150.18" cy="444.98" r="7.6"/>
        </g>
    </g>
</svg>