<svg xmlns="http://www.w3.org/2000/svg" viewBox="0 0 100 100">
    <defs>
        <style>
            .cls-1{fill:#fff;}.cls-2{fill:#714ee6;}.cls-3{fill:#383838;}.cls-4{fill:#ccc;}.cls-5{fill:#e6d386;}.cls-6{fill:#ffea95;}.cls-7{fill:#ff5c60;}.cls-8{fill:#11113f;}
        </style>
    </defs>
    <title>10-1</title>
    <g id="Слой_2" data-name="Слой 2">
        <g id="Layer_1" data-name="Layer 1">
            <circle class="cls-1" cx="50" cy="50" r="50"/>
            <polyline class="cls-2" points="68.13 58.67 73.86 58.67 73.86 62.49 68.13 63.23 68.13 58.67"/>
            <polyline class="cls-3" points="68.13 58.67 73.86 58.67 73.86 62.49 68.13 63.23 68.13 58.67"/>
            <polygon class="cls-4" points="66 54.64 70.7 46.32 75.66 54.64 73.86 58.67 68.13 58.67 66 54.64"/>
            <path class="cls-2"
                  d="M66.11,63.84c.25-.17.48-.25,3.26-.45a21.1,21.1,0,0,1,3.82-.11c1.44.15,2.43.27,3,1,.43.53.46,1.12.45,2.36,0,3.41-.28,4.09-.34,6.29s.18,3.19-.56,3.82c-.26.22-.56.34-1.8.45-2.61.25-3.1,0-5.05.11s-2.74.54-3.26,0-.3-1.15-.22-1.8c.35-3.23-1-3.61-.79-7.19C64.75,66.54,64.85,64.68,66.11,63.84Z"/>
            <path class="cls-5"
                  d="M62.74,22.29a6.41,6.41,0,0,1,3.82,1,6.09,6.09,0,0,1,1.91,2.13c.66,1.17.75,2.59.9,5.39.11,2.2-.11.6-.22,5.28A2.54,2.54,0,0,1,68.58,38a2.91,2.91,0,0,1-2.36.34c-1.79-.2-3.59-.11-5.39-.22-4-.24-4.14.43-5.05-.11-2.34-1.39-2.68-6.62-.79-10.33C56.47,24.78,59.54,22.36,62.74,22.29Z"/>
            <path class="cls-6"
                  d="M25.58,23.19a8.58,8.58,0,0,0-1.68,3,12.28,12.28,0,0,0-.45,6.18c.59,3.73.43,10,.11,22.68-.11,4.49.49,9-.22,13.47-.31,1.91-.09,3.33.34,6.18a3.41,3.41,0,0,0,.79,1.91c1,1.12,2.78,1,3.48,1,0,0,3-.13,17.74-.22,4.58,0,6.86,0,7.07,0a6.55,6.55,0,0,0,3.93,0,4.75,4.75,0,0,0,2-1.46,5.12,5.12,0,0,0,1-2.69,63.81,63.81,0,0,0,0-11.34c-.21-2.18-.29-4.3-.45-8.53-.12-3.3,0-2.81-.11-11.23,0-3.93.38-7.86.34-11.79a12.47,12.47,0,0,1,.79-4.27,5.09,5.09,0,0,1,1.91-2.81,4.5,4.5,0,0,1,2.47-.56c0-.32-11.34-.22-11.34-.22-15.19.13-13.18.39-15,.22C31.83,22.19,27.89,20.81,25.58,23.19Z"/>
            <circle class="cls-7" cx="37.42" cy="36.49" r="7.35"/>
            <path class="cls-8"
                  d="M64.49,21.62H28.11a5.9,5.9,0,0,0-5.9,5.85V74.2a4.15,4.15,0,0,0,4.15,4.15H56.5a4.15,4.15,0,0,0,4.15-4.15h0V39.58h6.81a2.74,2.74,0,0,0,2.78-2.69V27.57A6,6,0,0,0,64.49,21.62Zm-6.05,5.8V74.2a1.94,1.94,0,0,1-1.94,1.94H26.31a1.94,1.94,0,0,1-1.94-1.94h0V27.51A3.68,3.68,0,0,1,28,23.84H59.71a5.84,5.84,0,0,0-1.28,3.59ZM68,36.82a.53.53,0,0,1-.53.53H60.65V27.5a3.68,3.68,0,0,1,3.66-3.66h.11A3.75,3.75,0,0,1,68,27.6v9.21Z"/>
            <path class="cls-8"
                  d="M36.89,28.11a8.76,8.76,0,1,0,8.76,8.76h0A8.76,8.76,0,0,0,36.89,28.11Zm0,15.3a6.55,6.55,0,1,1,6.54-6.55h0A6.55,6.55,0,0,1,36.89,43.42Z"/>
            <path class="cls-8"
                  d="M36.89,38.42a1.54,1.54,0,0,1,0-3.08h0a1.11,1.11,0,0,0,0-2.21,3.76,3.76,0,0,0,0,7.51,1.11,1.11,0,0,0,0-2.21Z"/>
            <path class="cls-8" d="M52.69,50H29.24A1.11,1.11,0,0,0,29,52.2H52.69a1.11,1.11,0,0,0,.2-2.21Z"/>
            <path class="cls-8" d="M52.69,54.64H29.24A1.11,1.11,0,0,0,29,56.86H52.69a1.11,1.11,0,0,0,0-2.21Z"/>
            <path class="cls-8" d="M41.43,59.61H29.23a1.11,1.11,0,1,0-.31,2.21h12.5a1.11,1.11,0,0,0,0-2.21Z"/>
            <path class="cls-8"
                  d="M74.72,62.18V58.8l1.84-3.59a1.11,1.11,0,0,0,0-1l-4.88-9.77a1.11,1.11,0,0,0-1-.61h0a1.11,1.11,0,0,0-1,.62l-4.83,9.85a1.11,1.11,0,0,0,0,1l1.87,3.59v3.33a4,4,0,0,0-3.11,3.86v.11l1.07,11.18a1.11,1.11,0,0,0,1.08,1h9.78a1.11,1.11,0,0,0,1.1-1l1.14-11.26V66A4,4,0,0,0,74.72,62.18Zm-5.1-12.55v4.63a1.11,1.11,0,0,0,2.21,0V49.6l2.53,5.05-1.43,2.8H68.45L67,54.75ZM72.47,59.7v2.39H68.89V59.7Zm2.1,16.41H66.82L65.81,66a1.8,1.8,0,0,1,1.74-1.7h6.28A1.8,1.8,0,0,1,75.57,66Z"/>
            <path class="cls-8"
                  d="M41.63,70.61a1.11,1.11,0,0,0-1.51-.44.66.66,0,0,1-.75-.08,2.88,2.88,0,0,0-2.88-.54l-1.88.68a.37.37,0,0,1-.36-.13L34,69.84a2.57,2.57,0,0,0-2.69-.73l-2.19.68a1.11,1.11,0,0,0,.65,2.12L32,71.23a.37.37,0,0,1,.39.11l.24.27a2.57,2.57,0,0,0,2.69.74h.06l1.91-.69a.66.66,0,0,1,.66.13,2.89,2.89,0,0,0,3.28.36,1.11,1.11,0,0,0,.42-1.51h0Z"/>
            <circle class="cls-8" cx="43.81" cy="71" r="1.11"/>
        </g>
    </g>
</svg>