<svg xmlns="http://www.w3.org/2000/svg" viewBox="0 0 720 720">
    <defs>
        <style>
            .cls-1{fill:#fff;}.cls-2{fill:#4f90aa;}.cls-3{fill:#86c4ea;}.cls-4{fill:#dfe9f4;}.cls-5{fill:#53af35;}.cls-6{fill:#6be849;}.cls-7{fill:#eade47;}.cls-8{fill:#11113f;}
        </style>
    </defs>
    <title>cup-of-tea</title>
    <g id="Слой_2" data-name="Слой 2">
        <g id="Layer_1" data-name="Layer 1">
            <circle class="cls-1" cx="360" cy="360" r="360"/>
            <polygon class="cls-2" points="206.44 556.99 237.42 597.08 452.55 599.86 480.95 563.67 206.44 556.99"/>
            <polyline class="cls-3"
                      points="196.04 374.54 492.09 377.69 492.09 479.59 452.55 532.49 409.12 550.31 306.12 550.31 248.77 541.4 207.56 506.87 198.08 449.81 196.04 374.54"/>
            <polyline class="cls-4" points="195.86 317 492.09 317 492.09 369.34 196.04 374.54 195.86 320.34"/>
            <polygon class="cls-5"
                     points="385.73 137.7 355.02 156.07 332.84 188.93 302.22 173.06 251.55 176.67 251.55 225.12 269.37 251.29 318.64 259.64 335.62 252.96 353.91 259.64 411.35 259.64 452.55 237.93 464.8 207.86 385.73 137.7"/>
            <polygon class="cls-6" points="392.97 141.59 397.99 200.62 458.68 204.52 458.68 141.59 392.97 141.59"/>
            <polygon class="cls-7"
                     points="397.43 407.76 377.94 436.71 377.94 486.27 452.55 486.27 452.55 440.61 436.41 407.76 397.43 407.76"/>
            <path class="cls-8"
                  d="M527,335.8H504.39v-19.1a9.19,9.19,0,0,0-9.19-9.19H424.95v-4.59a9.39,9.39,0,0,0-18.78,0h0v4.59h-214a9.19,9.19,0,0,0-9.19,9.19V446a114.29,114.29,0,0,0,38.25,86.87,121.22,121.22,0,0,0,18.93,13.78H180.67a9.39,9.39,0,1,0,0,18.78h16.07l33.06,36.75a11.89,11.89,0,0,0,8.82,3.9H448.56a11.94,11.94,0,0,0,8.82-3.9l33.06-36.75h16a9.39,9.39,0,1,0,0-18.78H447.17a121.26,121.26,0,0,0,18.93-13.78,114.15,114.15,0,0,0,38.25-85.32A60.43,60.43,0,0,0,536.5,394.1V345.22a9.19,9.19,0,0,0-8.91-9.42Zm-102.31-9.69h60.84v39.4H424.71Zm7.94,91.83,14.05,23.39v41H384v-41L398,417.94ZM464.8,565.34,445.24,587H241.68L222,565.34ZM485.37,446c0,58.31-46.43,100.61-110.25,100.61H311.94c-64,0-110.25-42.32-110.25-100.61V326.12H406.17v39.4l-209.37-.63c-5.19,0-.75,4.45-.75,9.66s-7,10.67-1.86,10.67l211.75-.91v15H392.67a9.19,9.19,0,0,0-8.05,4.6L366.48,434a9.19,9.19,0,0,0-1.34,4.82v53a9.19,9.19,0,0,0,9.19,9.19h81.56a9.19,9.19,0,0,0,9.19-9.19v-53a9.19,9.19,0,0,0-1.34-4.82l-18.09-30.16a9.19,9.19,0,0,0-8-4.59H424.36v-15H485.2V446ZM517.51,394a41.74,41.74,0,0,1-13.22,30.54V354.63h13.22Z"/>
            <path class="cls-8"
                  d="M466.92,136.79a9.19,9.19,0,0,0-6.75-6.75h-.65l-2-.46h-1l-1.56-.32a189.64,189.64,0,0,0-60.94-3h0l-2.9.46h0c-3.34.55-6.62,1.24-9.73,2a66.82,66.82,0,0,0-51.41,50.52l-1-1c-25.95-26.36-78.89-12.91-81.14-12.31a9.19,9.19,0,0,0-6.68,6.75c-.6,2.23-13.78,55.1,12.25,81.05,12.81,12.81,32.14,16.16,48.53,16.16a142.35,142.35,0,0,0,32.51-3.9,2.66,2.66,0,0,1,3.53,0A200.7,200.7,0,0,0,384,271.48c23,0,49.22-4.59,66.72-22a72.23,72.23,0,0,0,18.36-33.52c.82-3.17,1.51-6.43,2.07-9.69A190.15,190.15,0,0,0,466.92,136.79Zm-143,111.94c-15.25,2.85-43.86,4.87-57.35-8.59s-11.39-42.32-8.54-57.53c15.25-2.9,44.08-5.06,57.44,8.54,6.16,6.25,9.64,16.7,10.33,30.07v.87a125.39,125.39,0,0,1-1.93,26.63ZM437.12,236c-23.39,23.39-72.45,16.11-88.95,12.86a199.06,199.06,0,0,1-3.4-26v-4.59c-.74-20.2,2.12-44.18,16.44-58.5a51.23,51.23,0,0,1,20.71-12A199.6,199.6,0,0,0,387,203.4a9.19,9.19,0,0,0,6.75,6.75,202.55,202.55,0,0,0,45.92,5.5c3.12,0,6.29,0,9.51-.28A51.11,51.11,0,0,1,437.07,236ZM453.6,184v4.27h0V196a176.66,176.66,0,0,1-49.09-3,175.78,175.78,0,0,1-3.72-49h17.82c3.26,0,6.43.28,9.45.55h6.34l6.2.82h9.14v10h0a12.35,12.35,0,0,0,.41,3.07v10.41h0c0,1.84.23,3.72.32,5.65v8.13q3.07.65,3,1.38Z"/>
        </g>
    </g>
</svg>