<svg xmlns="http://www.w3.org/2000/svg" viewBox="0 0 673 673">
    <defs>
        <style>.cls-1{fill:#fff;}.cls-2{fill:#a0902e;}.cls-3{fill:#fceb51;}.cls-4{fill:#11113f;}</style>
    </defs>
    <title>currency</title>
    <g id="Слой_2" data-name="Слой 2">
        <g id="Слой_1-2" data-name="Слой 1">
            <circle class="cls-1" cx="336.5" cy="336.5" r="336.5"/>
            <polygon class="cls-2"
                     points="206.5 181.01 425.5 177.01 425.5 475.01 300.5 481.01 203.5 453.01 206.5 181.01"/>
            <ellipse class="cls-3" cx="313.5" cy="166.01" rx="107" ry="32"/>
            <circle class="cls-3" cx="444.5" cy="453.01" r="108"/>
            <path class="cls-4"
                  d="M472.11,445.34A88.39,88.39,0,0,0,445.78,435l-6.07-1.7c-11.21-3.3-18.21-9.87-19.21-17.45a16.56,16.56,0,0,1,9.83-16.08,19.53,19.53,0,0,1,4.79-1.82v13.65a9.16,9.16,0,0,0,18.2,0v-13a54.6,54.6,0,0,1,14.86,6.07A9.19,9.19,0,1,0,477.69,389a73.47,73.47,0,0,0-24.27-9.1V373.3a9.16,9.16,0,0,0-18.2,0v6.07a39.61,39.61,0,0,0-13.65,4.43,34.76,34.76,0,0,0-19.29,33.91c1.64,15.23,13.71,27.54,32.27,33h.67V493.9a22.33,22.33,0,0,1-15.89-8.37,9.16,9.16,0,0,0-16.2,8.37c5.58,10.74,18.2,16.8,32.15,18.2v9.59a9.16,9.16,0,0,0,18.2,0V512.1a50.28,50.28,0,0,0,5.52-1.4,39.74,39.74,0,0,0,27.3-31.91A33.61,33.61,0,0,0,472.11,445.34Zm-3.76,30.33a21.23,21.23,0,0,1-14.62,17h0v-36.4a38.46,38.46,0,0,1,8.13,3.94,15.65,15.65,0,0,1,6.49,15.47Z"/>
            <path class="cls-4"
                  d="M444.5,328.44q-4.61,0-9.16.36V170.1c0-9.59-6.73-23.11-38.7-33.06A281.31,281.31,0,0,0,316,126.54,281.31,281.31,0,0,0,235.39,137c-32,10-38.7,23.54-38.7,33.06V447.71c0,9.59,6.73,23.11,38.7,33.06A281.31,281.31,0,0,0,316,491.27c6.07,0,11.53,0,17.29-.42A119.27,119.27,0,1,0,444.5,328.44ZM240.91,154.57a262.8,262.8,0,0,1,75.1-9.65,262.8,262.8,0,0,1,75.1,9.65c21,6.61,25.78,13.65,25.78,15.59s-4.79,9-25.72,15.53a262.8,262.8,0,0,1-75.1,9.65,262.8,262.8,0,0,1-75.16-9.65c-21.05-6.61-25.78-13.68-25.78-15.59S219.86,161.12,240.91,154.57Zm-25.78,40.16a104,104,0,0,0,20.37,8.5,281.31,281.31,0,0,0,80.62,10.5,281.37,281.37,0,0,0,80.62-10.5,104,104,0,0,0,20.32-8.49V216.4c0,1.94-4.73,9-25.78,15.59a262.8,262.8,0,0,1-75.1,9.65,324.14,324.14,0,0,1-38.4-2.18A9.17,9.17,0,0,0,275,257.59l.6.07h0A342.46,342.46,0,0,0,316.14,260a281.31,281.31,0,0,0,80.56-10.5A104,104,0,0,0,417,241v68c0,1.94-4.73,9-25.78,15.59a262.8,262.8,0,0,1-75.1,9.65A262.8,262.8,0,0,1,241,324.6C220,318,215.27,311,215.27,309V287.25a104,104,0,0,0,20.32,8.49,281.31,281.31,0,0,0,80.62,10.5,328.26,328.26,0,0,0,51.38-3.88,9.22,9.22,0,0,0-2.91-18.2h0a314.49,314.49,0,0,1-48.53,3.64,262.8,262.8,0,0,1-75.1-9.65c-21.05-6.61-25.78-13.65-25.78-15.59V194.73ZM316,473a262.81,262.81,0,0,1-75.1-9.4c-21.05-6.61-25.78-13.65-25.78-15.59V426a104,104,0,0,0,20.36,8.53,281.31,281.31,0,0,0,80.62,10.8h9.22v24.27l.36,1.82v1.76A84.24,84.24,0,0,0,316,473Zm19.78-74.32h0l-1,2.18v.61l-.42,1a118.24,118.24,0,0,0-7,24.27h-11a262.8,262.8,0,0,1-75.1-9.65c-21.05-6.61-25.78-13.65-25.78-15.59v-68h0a104,104,0,0,0,20,8.74,281.31,281.31,0,0,0,80.56,10.31,307.82,307.82,0,0,0,66.73-6.73A119.69,119.69,0,0,0,353.93,370q-3.58,4.19-6.79,8.74c-9.95.91-20.38,1.4-30.94,1.4A324.14,324.14,0,0,1,277.8,378a9.17,9.17,0,0,0-2.18,18.2,342.46,342.46,0,0,0,40.59,2.37c6.73,0,13.41,0,20-.55ZM444.5,548.47a101.13,101.13,0,0,1-96.4-70.74l-.42-1.52-.73-2.55L346.5,472l-.36-1.4q-.36-1.46-.61-2.91v-1.21a8,8,0,0,0-.42-2.55v-.79a30.34,30.34,0,0,0-.42-3.28v-1a11.16,11.16,0,0,0,0-3.15h0v-17.6a15,15,0,0,1,.36-3.28v-3.4a17.47,17.47,0,0,1,.73-3.88h0a101.31,101.31,0,0,1,70.86-76.92h.42l2.49-.67,2.91-.67h1.09l3.82-.73a101,101,0,1,1,17,200.2Z"/>
        </g>
    </g>
</svg>