<svg xmlns="http://www.w3.org/2000/svg" viewBox="0 0 100 100">
    <defs>
        <style>
            .cls-1{fill:#fff;}.cls-2{fill:#408477;}.cls-3{fill:#62a89c;}.cls-4{fill:#80b7af;}.cls-5{fill:#bfd8d5;}.cls-6{fill:#95d8d1;}.cls-7{fill:#91e5e2;}.cls-8{fill:#baf6f7;}.cls-9{fill:#defcfc;}.cls-10{fill:#11113f;}
        </style>
    </defs>
    <title>8-1</title>
    <g id="Слой_2" data-name="Слой 2">
        <g id="Layer_1" data-name="Layer 1">
            <circle class="cls-1" cx="50" cy="50" r="50"/>
            <polygon class="cls-2" points="24.79 47.69 39.53 47.69 49.95 75.38 24.79 47.69"/>
            <polygon class="cls-3" points="39.24 47.11 75.84 47.11 50.8 75.38 39.24 47.11"/>
            <polyline class="cls-4" points="66.47 37.9 61.03 46.64 75.84 46.64 66.47 37.9"/>
            <polyline class="cls-5" points="34.06 36.9 49.95 36.9 39.48 46.64 33.82 36.9"/>
            <polygon class="cls-6" points="33.1 37.25 39.24 46.64 24.55 46.64 33.1 37.25"/>
            <path class="cls-7" d="M24.79,46.4"/>
            <polygon class="cls-8" points="49.95 37.6 40.2 47.11 60.19 47.11 49.95 37.6"/>
            <polygon class="cls-9" points="49.95 37.6 59.95 46.64 66.93 37.25 49.95 37.6"/>
            <path class="cls-10"
                  d="M77.15,46.58,67.69,36.15a1.09,1.09,0,0,0-.81-.35H33.15a1.09,1.09,0,0,0-.81.35L22.88,46.58a1,1,0,0,0,.1,1.5h0L49.19,76.9a1.11,1.11,0,0,0,1.54.07h0l.07-.07L77,48.09h0a1.05,1.05,0,0,0,.11-1.49h0ZM65,37.94l-4.84,7.58-7.68-7.6Zm-7.16,8.31H42.19L50,38.59ZM47.59,37.91l-7.71,7.56L35,37.88Zm-14.65.72,4.84,7.59H26.09Zm-6.86,9.71H38.9l8.87,23.82ZM52.24,72.12l6.19-16.33a1.05,1.05,0,0,0-.49-1.42,1.11,1.11,0,0,0-1.46.48.57.57,0,0,0-.07.2L50,71.94,41.24,48.37H73.91Zm9.94-25.93L67,38.6l6.89,7.59Z"/>
            <path class="cls-10"
                  d="M50,23.11a1.07,1.07,0,0,0-1.08,1.06h0v5.44a1.07,1.07,0,0,0,1,1.15,1.08,1.08,0,0,0,1.18-1V24.17A1.07,1.07,0,0,0,50,23.11Z"/>
            <path class="cls-10"
                  d="M59.89,27.25a1.1,1.1,0,0,0-1.53,0L54.41,31.1a1,1,0,0,0,.16,1.49,1.13,1.13,0,0,0,1.38,0l3.95-3.85A1,1,0,0,0,59.89,27.25Z"/>
            <path class="cls-10"
                  d="M45.4,31.14l-3.95-3.88a1.11,1.11,0,0,0-1.53-.15,1,1,0,0,0-.16,1.49,1,1,0,0,0,.16.15l3.95,3.85a1.1,1.1,0,0,0,1.53-.15,1.06,1.06,0,0,0,0-1.35Z"/>
        </g>
    </g>
</svg>