<svg id="Layer_6" data-name="Layer 6" xmlns="http://www.w3.org/2000/svg" viewBox="0 0 942.19 1642.72">
    <defs>
        <style>
            .cls-1,.cls-2,.cls-3,.cls-4,.cls-5,.cls-6,.cls-7,.cls-8{stroke:#000;}.cls-1,.cls-11,.cls-12,.cls-2,.cls-3,.cls-4,.cls-5,.cls-6,.cls-7,.cls-8{stroke-linecap:round;stroke-linejoin:round;stroke-width:10px;}.cls-2{fill:#6c8a8c;}.cls-13,.cls-3{fill:#e0e2e2;}.cls-12,.cls-4{fill:none;}.cls-5{fill:#b7b7b7;}.cls-6{fill:#f2f4f4;}.cls-7{fill:#ef0fc5;}.cls-10,.cls-8{fill:#d9d9d9;}.cls-14,.cls-9{fill:#fff;}.cls-11{fill:#93cece;}.cls-11,.cls-12{stroke:#686868;}.cls-14{opacity:0.1;}
        </style>
    </defs>
    <title>doc</title>
    <path class="cls-1"
          d="M1039.5,934.5c-27.58,33.24-18.82,86.22,2,96,33.43,15.7,122.37-68.54,109-100C1141.12,908.44,1073.47,893.56,1039.5,934.5Z"
          transform="translate(-584.13 -275.5)"/>
    <path class="cls-2"
          d="M1003.5,985.5c-5.81,2.62-16.13,8.81-26,27-9.5,17.5-12.19,34.34-14,58-1.32,17.29-2.6,43.86,0,97,1.73,35.4,3.53,48.78,5,58,3.66,23,9.78,61.4,20,62,8.35.49,12.84-24.65,29-61,14-31.42,27.9-51.54,49-82,21.37-30.86,47.46-68.53,90-105,50.88-43.63,92.39-57.32,89-67-2.42-6.93-23.76,0-86,2-32.94,1.07-98-16-111,33-12.08.6-11.9-25.91-24-26A48.36,48.36,0,0,0,1003.5,985.5Z"
          transform="translate(-584.13 -275.5)"/>
    <path class="cls-3"
          d="M906.5,1039.5c-4.83-5.75-40.25,16.4-46,20a321.78,321.78,0,0,0-41,31c-29.47,25.92-25.7,30.87-44,42-4.83,2.94-13,7.41-19,17-3.81,6.11-4.73,11.09-7,20-2.84,11.14-6.92,21.93-10,33a595.54,595.54,0,0,1-39,100c-8,16-15.26,28.44-22,40-21.35,36.63-22.65,33-33,54-12.77,25.9-12.43,34.73-25,46-3.66,3.28-8.25,6.62-10,13-2.87,10.47,3.77,22.36,11,29,12.43,11.41,30,10.4,37,10,28.82-1.66,104.78-26.32,148-107,7.66-14.3,17.44-70.53,37-183,10.82-62.23,15.73-95.65,42-131C894.78,1061,910.08,1043.77,906.5,1039.5Z"
          transform="translate(-584.13 -275.5)"/>
    <path class="cls-2"
          d="M1044.5,1021.5s10.07-27.42,11-27c9,4,6,78-2,92,38-30,192-116,226-168-5-13-6-28-8-42-7.48-52.37-163,78-218,113C1050.54,1001.56,1044.5,1021.5,1044.5,1021.5Z"
          transform="translate(-584.13 -275.5)"/>
    <path class="cls-3"
          d="M866.5,1060.5c10-11.3,20.31-15.59,45-27,29.44-13.61,13.95-7.1,34-16,43.45-19.29,65.26-28.88,70-26,13.94,8.47-52,48.08-61,128-6.81,60.36,21,180,37,155,11.11-17.35,4.49,10.32,2,32a346.33,346.33,0,0,1-20,83c-37.8,104.14,68.79,424.66-41,523.5,0,0-220,.5-220,0,.33-95.38,12.54-185.41,12-263.5-.14-20.36-1-14.89-1-33-.12-76.22,14.67-104.7,34-212,9.22-51.18,8.48-59.27,19-111,2.44-12,9.34-45.28,21-88"
          transform="translate(-584.13 -275.5)"/>
    <path class="cls-3"
          d="M1461.5,1036.5c-.46-5-1.55-16.69-10-26-6.55-7.22-14.25-9.35-33-15-13-3.92-25.92-8.26-39-12-31.71-9.06-41.71-14.32-52-17-40.16-10.48-83.29,18.55-110,37-46.13,31.88-39.38,44.57-106,115-44.2,46.73-105.53,102.85-124,155-4.35,12.28-8,25-8,25-7.59,26.45-9.86,43.75-15,73-4,22.72-3,14.61-11,57-28.47,151.56-42.7,227.34-50,297-7.1,67.77-4.94,84.86-15,149-4.48,28.53-5,38.5-5,38.5H1365s.8-11.68,1.5-15.5c5.33-28.88,6.54-52.82,7-91,.32-26.16.08-42.07,0-58,0,0-.2-41.31,2-110C1378.88,1532.9,1466.93,1094.85,1461.5,1036.5Z"
          transform="translate(-584.13 -275.5)"/>
    <path class="cls-3"
          d="M927.5,1020.5c8-3,12.29-4.72,27-12,6.75-3.34,3.22-2.86,22-15,4.72-3,8.45-5.35,12-10,4.75-6.23,5.68-12.08,6-12,1,.24-16.28,53.82-22,116a552.21,552.21,0,0,0-1,82c1.06,17.33,1.83,29.8,5,47s5.72,22.76,8,40c2.36,17.81-1.47,41.32-5,42-2,.39.9-6.81-5-18-8-15.24-15.6-23.67-22-32-18.87-24.54-32.75-54.81-42-75-17.3-37.75-20-57-21-69,22-15,53-34,65-45,1.39-1.27-2-1.6-16-11-11.81-7.94-14.16-10.52-15-14C921.94,1028,925.91,1021.1,927.5,1020.5Z"
          transform="translate(-584.13 -275.5)"/>
    <path class="cls-3"
          d="M1276.5,908.5c0,12.21-10,19-22,29-39.29,32.74-50.78,39.42-115,97a615.63,615.63,0,0,0-60,62c-23.72,28.26-46.42,54.75-65,95-20.78,45-36.93,106.37-35,107,.92.3,12.62-27.07,20-40,10.93-19.16,23.56-31.13,32-39,39.6-37,89-60,89-60,87.4-40.76,121-46,142-57-10-28-26-59-34-75,9-4,31-10,50-14,51.84-10.91,57-10,80-17,11.91-3.63,8-21,8-36,0-8.1-9.45-11.26-14-14C1295.19,912,1276.5,897.5,1276.5,908.5Z"
          transform="translate(-584.13 -275.5)"/>
    <path class="cls-4" d="M1044.5,1021.5c-9,26.31-18.62,59.72-26,92-8.34,36.47-14.66,81.42-18,112"
          transform="translate(-584.13 -275.5)"/>
    <path class="cls-3"
          d="M1339.5,1054.5a174.09,174.09,0,0,1,54-37c22.2-9.6,34.71-9.18,38-9,21.6,1.17,36.72,13,43,18,14.5,11.63,28.06,30,38,70,13,52.16,8.88,97.17,5,125-6,43.31-11.47,44.4-39,144-23.35,84.48-35,126.73-39,151a432.76,432.76,0,0,1-20,79c-7.19,20.16-7,25.52-12,30-23.93,21.61-83.52-5.15-115-26-61.34-40.62-78.93-100.46-82-120-1.51-9.59-3.08-19.61,0-32,3.87-15.55,10.64-17,13-33,1.81-12.28-1.23-17.8,4-25,4.39-6,9-5.52,12-12,2-4.18.63-5.65,1-18a109.43,109.43,0,0,1,2-20,74.72,74.72,0,0,1,6-17c7.06-15.48,7.11-31.75,8-44,1.85-25.43,10.6-77.81,22-115C1285.18,1141.69,1300.35,1094,1339.5,1054.5Z"
          transform="translate(-584.13 -275.5)"/>
    <path class="cls-3"
          d="M709.5,1444.5c-27.42-1.63-45.33,5.13-50,7a96.75,96.75,0,0,0-33,21c-14.09,13.93-11.21,20.55-26,34-2.48,2.25-7.54,6.59-10,14a30.83,30.83,0,0,0-1,14c1.71,14.08,5.69,19.59,10,34,3.66,12.25,2.35,13.51,8,34,3.08,11.16,4.49,14.5,7,18a40.11,40.11,0,0,0,22,15c22.31,5.34,45.84-20.66,52-28,33.77-40.23,11.7-74.59,42-104,24.09-23.38,54.52-17.67,55-29C786.07,1461,743.43,1446.52,709.5,1444.5Z"
          transform="translate(-584.13 -275.5)"/>
    <path class="cls-1"
          d="M868.5,1460.5c10.28-18-1.76-42.92-10-60a120.56,120.56,0,0,0-17-27c-14.54-17.24-21.49-15-34-31-8.86-11.32-6.91-14.41-20-32-11.87-16-17-18.12-20-19-11.29-3.28-23.76,2.47-31,10-8.93,9.29-9.64,21-10,29-.9,19.89,7.23,35.27,11,42,3.56,6.36,65.24,116.62,112,103A33.37,33.37,0,0,0,868.5,1460.5Z"
          transform="translate(-584.13 -275.5)"/>
    <path class="cls-1"
          d="M833.5,1456.5c2.47-7.69-4.65-16.9-19-35-13.66-17.23-23.37-29.48-41-41-9.91-6.47-18.27-10-35-17-14.84-6.23-21.94-8-28-9-11.63-1.92-20.31-3.35-29,1-10.08,5.05-16.58,15.83-18,26-3.67,26.16,26.74,44.27,28,45,10.16,5.86,15,4.37,29,8,43,11.13,48.44,38.14,79,38C813.15,1472.44,830.13,1467,833.5,1456.5Z"
          transform="translate(-584.13 -275.5)"/>
    <path class="cls-3"
          d="M932.5,1610.5c3.2,10.41,13,9,65,32,54.35,24.07,55,30.68,104,51,21.75,9,47.79,19.68,84,28,8.92,2,49.94,11.18,94,7a123.57,123.57,0,0,0,36-9c10.22-4.27,21.77-9.27,30-21a56.31,56.31,0,0,0,8-19c5.92-29.45-49.35-96.68-142-146-47.66-25.37-71.49-38.05-106-39C1010.64,1491.9,921.79,1575.66,932.5,1610.5Z"
          transform="translate(-584.13 -275.5)"/>
    <path class="cls-1"
          d="M811.5,1456.5c.88-9.88-29.84-21.58-51-26-9.65-2-17.1-2.34-32-3-16.37-.72-35.86-.39-57,6-11.2,3.38-15.76,6.32-18,11-3.47,7.27-.23,16.48,4,22,5.66,7.38,14.8,10.4,33,12,30.84,2.71,55.91-1.43,73-5C794.15,1467.09,810.87,1463.6,811.5,1456.5Z"
          transform="translate(-584.13 -275.5)"/>
    <path class="cls-3"
          d="M659.5,1489.5c11.16-15.63,29.36-19.27,38-21,13.44-2.69,23.46-1,42,2,16.79,2.76,25.19,4.13,26,8,1.84,8.79-33.46,23.21-55,30"
          transform="translate(-584.13 -275.5)"/>
    <path class="cls-5"
          d="M1103.5,1552.5c-7.12,1.7-9.21,1.22-10,1-7.4-2-10.69-11.31-12-15-1-2.7-3.4-10.45-1-28,1.94-14.18,5.68-24.76,10-37,1.53-4.34,4.15-11.43,8-20,4.78-10.65,7.16-16,11-21,5.62-7.36,6.86-5.63,17-17a61.79,61.79,0,0,1,9-8c5-3.68,7-4,8-4,4.78-.17,8.5,4.23,10,6,12.64,14.94,13,43,13,43,.18,13.65.56,43.39-19,70-1.68,2.29-12.19,16.33-27,24A73.29,73.29,0,0,1,1103.5,1552.5Z"
          transform="translate(-584.13 -275.5)"/>
    <path class="cls-1"
          d="M1153.5,1437.5c4-2.35,15.58-9.07,30-7,7.87,1.13,13.59,4.45,18,7,9.22,5.34,10.77,9.18,20,17,16.63,14.1,23.76,12,27,20,5.25,13-8.91,29.74-10,31-12.6,14.55-30.56,16.78-60,20-27.76,3-41.64,4.55-50-4-14.55-14.9-3.07-45.49-1-51C1130,1463.9,1136.43,1447.44,1153.5,1437.5Z"
          transform="translate(-584.13 -275.5)"/>
    <path class="cls-2"
          d="M1082.5,1433.5c9.58-4.07,10,.7,47-5,12.63-1.95,25.64-1.76,38-5,4.71-1.24,10.66-3.05,12-1,1.53,2.34-3.94,8.13-9,14-13.1,15.2-26.73,31-30,50-1,6-2.42,14.07,2,21,8.33,13,29.74,10.08,30,14,.31,4.65-29.62,12.66-60,15-21.93,1.69-27.26-.87-48,3-8.13,1.51-10.3,2.47-13,1C1034.24,1531.13,1044.66,1449.56,1082.5,1433.5Z"
          transform="translate(-584.13 -275.5)"/>
    <path class="cls-3"
          d="M677.5,1525.5c10.48-21.69,7.92-19.58,11-24,11.92-17.1,26.06-13.93,67-37,9.51-5.36,12-7.33,19-10,6.82-2.58,18.08-5.85,42-6,18.34-.11,21.53,1.74,35,2,5.67.11,14.54,0,53-8,57.66-11.93,53.82-14.92,71-15,10.35-.05,21.37,1,36-4,11-3.74,12.44-6.94,23-11,12.83-4.93,15.2-1.95,43-5,16.65-1.83,33.4-2.76,50-5,5.33-.72,14.66-1.37,19,1-17,4-50.59,61.37-53,71-3,12-36,78,20,75-7.29,6-23.49,14-34,18,0,0-18.7,7.07-58,25-18.15,8.28-21.7,11.42-42,22a725.24,725.24,0,0,1-110,46c-25.69,8.5-41.2,13.55-64,17a305.11,305.11,0,0,1-61,3c-23.56-1.21-16.68-3.63-52-7-8.82-.84-20.05-1.72-33-8-5.05-2.45-10.62-5.22-16-11-1.13-1.22-12.54-13.87-12-32,.09-3.06.57-7.79,9-26"
          transform="translate(-584.13 -275.5)"/>
    <path class="cls-4"
          d="M983.5,1388.5c-5.14-6.16-3.53-16.1,3-21s16.55-3.61,21,3c3.82,5.66,2.38,13.45-2,18C999.84,1394.38,989,1395.11,983.5,1388.5Z"
          transform="translate(-584.13 -275.5)"/>
    <path class="cls-4"
          d="M923.5,1791.5c-3.25-5.3-3.25-13.09,1-18,6.29-7.27,20.12-6.25,26,2,4.16,5.84,4,14.86-1,20C942.6,1802.57,928.72,1800,923.5,1791.5Z"
          transform="translate(-584.13 -275.5)"/>
    <path class="cls-4" d="M630.5,1542.5a174.61,174.61,0,0,1,33-40" transform="translate(-584.13 -275.5)"/>
    <path class="cls-4" d="M765.5,1226.5a206,206,0,0,1,8,62" transform="translate(-584.13 -275.5)"/>
    <path class="cls-4" d="M691.5,1588.5a74.05,74.05,0,0,1,0-22c1.28-8.38,3.52-13.12,7-24,2-6.13,4.56-15,7-26"
          transform="translate(-584.13 -275.5)"/>
    <path class="cls-3"
          d="M1337.5,1490.5c42.52,60.2,35.51,73.26,60,108,1,1.35,12.77,18.08,14,39,.26,4.43,0,8.69-2,13-4.39,9.37-13.65,11.43-22,16-22.43,12.28-18.56,31.83-36,40-8,3.74-18.49,4.18-40-4"
          transform="translate(-584.13 -275.5)"/>
    <path class="cls-6"
          d="M1159.5,1540.5c-.61-3.32-5.73-32.6,5-38,4.43-2.23,11.24-.23,12,0,8,2.42,11.72,8.88,13,8s-3.61-6.89-4-16a30.78,30.78,0,0,1,4-16,35.85,35.85,0,0,1,11-12c20.6-15.15,44-22,44-22,18.46-5.4,27.69-8.11,37-7"
          transform="translate(-584.13 -275.5)"/>
    <path class="cls-4"
          d="M799.5,1228.5a23,23,0,0,1,6-5c6.32-3.62,12.83-3.14,15-3,14.31.92,28.68-1.68,43-1a348.65,348.65,0,0,0,47-1"
          transform="translate(-584.13 -275.5)"/>
    <path class="cls-4"
          d="M1056.5,1203.5a156.16,156.16,0,0,1,24-6c15.61-2.61,25.47-1.8,44-2,2.79,0,15.86-.69,42-2,18.66-.94,37.81,2.26,56-2,4.68-1.1,15.09-3.87,25,1a27.62,27.62,0,0,1,8,6"
          transform="translate(-584.13 -275.5)"/>
    <path class="cls-4"
          d="M1052.5,1322.5c1.71-9.47,3.1-17.09,4-22,6-32.62,6.14-32.48,6-35a49.83,49.83,0,0,1,2-20,44.08,44.08,0,0,1,2-5"
          transform="translate(-584.13 -275.5)"/>
    <path class="cls-4"
          d="M1072.5,1234.5a102.06,102.06,0,0,1,19-4c12.84-1.44,21.33.11,33,1,4.49.34,15,.23,36,0,31.41-.34,43.87-1.26,63,3,3.42.76,6.19,1.5,8,2"
          transform="translate(-584.13 -275.5)"/>
    <path class="cls-4" d="M1066.5,1270.5c3.25-.33,8.1-.75,14-1a245.51,245.51,0,0,1,34,1,395.14,395.14,0,0,0,49,1"
          transform="translate(-584.13 -275.5)"/>
    <path class="cls-4"
          d="M1225.5,1266.5c-2,8.86-3.25,16.09-4,21-1.48,9.73-1.23,11.51-3,22-.5,3-1.23,7-2,13-.49,3.78-.8,6.9-1,9"
          transform="translate(-584.13 -275.5)"/>
    <path class="cls-4"
          d="M1245.5,1375.5c-1.52,2.29-3.1,5.3-2,7,1.92,3,10.93.27,15-1,42.54-13.26,59-23,59-23,22.3-13.19,45-26.36,72-42"
          transform="translate(-584.13 -275.5)"/>
    <path class="cls-4" d="M1263.5,1151.5a224,224,0,0,0-2,59" transform="translate(-584.13 -275.5)"/>
    <path class="cls-4"
          d="M1299,1730c-1.24,24.33-3.26,51.94-4.5,66.5-1.34,15.71-2.73,29.46-4,42-2.94,29-3.67,32.9-5,48-1,11.52-2.3,5.19-3,26.5"
          transform="translate(-584.13 -275.5)"/>
    <path class="cls-4" d="M1214.83,1157.64c1.56-1.5,6.36-.08,7.17,1.5l-2.49,15.87-6.55-1.2Z"
          transform="translate(-584.13 -275.5)"/>
    <path class="cls-7" d="M1203.5,1175.5c5-5,20.4-.28,23,5l-8,53-21-4Z" transform="translate(-584.13 -275.5)"/>
    <path class="cls-4"
          d="M1207.5,1179.5c-1.92-1.18-5.86,1.71-8,4-3.46,3.71-4.36,8.21-5,13-1.09,8.15-.95,13.57-1,21a218.77,218.77,0,0,1-1,24c-.85,7.83-1.27,11.75-3,17-2.21,6.7-5,11.23-4,12s4.11-2.06,6-4a32.88,32.88,0,0,0,8-15c1.29-5,2.44-11.24,3-26,.33-8.67,2.22-17.41,1-26-.37-2.58-1.64-10.23,2-13,.91-.7,2.48-1.34,3-3C1208.94,1182.1,1208.59,1180.17,1207.5,1179.5Z"
          transform="translate(-584.13 -275.5)"/>
    <path class="cls-4" d="M1205.5,1190.5a15.39,15.39,0,0,1,7-1,16.08,16.08,0,0,1,10,5"
          transform="translate(-584.13 -275.5)"/>
    <path class="cls-2"
          d="M1014.5,942.5c-27,31-41,124-38,137,.49,2.11,4.64-28.74,28-60,15.28-20.45,22.83-19.54,25-19,9.42,2.36,15,21,15,21s3.89-2.51,5-25c1.55-31.49,2.33-47.23-7-54C1032.3,935.1,1015.41,941.46,1014.5,942.5Z"
          transform="translate(-584.13 -275.5)"/>
    <path class="cls-1"
          d="M829.5,611.5c-18.79-8.72-30-23.87-37-35-11-17.38-27.35-43.36-29-82-.75-17.6-2-47,17-74,15.88-22.57,37.75-31.91,52-38,26.58-11.35,49.63-11.84,63-12,16-.19,22.47,1.77,69,11,62.33,12.37,73.11,13.3,74,19,1.64,10.47-33,17.9-80,44-21.77,12.1-124.29,69.07-119,126,1.73,18.68,15.16,38.27,8,44C843.27,617.88,834.88,614,829.5,611.5Z"
          transform="translate(-584.13 -275.5)"/>
    <path class="cls-8"
          d="M775.5,867.5c5,1,9.05,4.28,18,3,6.56-.94,10.92-5.6,14-9,7.62-8.4,11.77-20,13-40,1.44-23.44-2-40-2-40-6.65-32-7.55-63.76-9-115-.58-20.62-1.49-69.08,20-123,27.79-69.74,76.82-107.93,89-117,37.21-27.72,71.78-37.95,99-46,26.21-7.75,74.07-21.39,136-14,22.2,2.65,61.34,7.71,104,32,60.54,34.47,89.63,85.7,104,111,10.36,18.25,39,68.7,46,120,1.91,14,6.94,30,17,62,2.1,6.69,5.89,18.28,16,29,5,5.34,12.8,13.56,24,15,16.86,2.16,28.47-12.73,33-9s-4.5,22.16-7,27c-18.16,35.16-44.53,54.76-49,58a168.65,168.65,0,0,1-55,26c-13.49,3.57-25.63,6.65-41,4-14.27-2.46-24.11-8.61-25-7s9.39,9.78,20,15c5.9,2.9,11.38,5.6,19,6,9.18.48,15-2.7,16-1,1.49,2.64-11.28,12.45-12,13a235,235,0,0,1-67,35,210.72,210.72,0,0,1-55,9c-20.56.43-31,1.11-44-4-6.81-2.67-13.8-6.62-15-5s4.29,8.46,10,13c1.88,1.5,16.63,12.89,32,9,4-1,6.57-2.66,7-2,.86,1.32-8.59,9.39-17,15a112.88,112.88,0,0,1-27,13c-5.81,1.86-31.53,9.54-65,2-20.86-4.7-29-9-37-14-52,35-79,39-99,39s-34-14-40-30c-10,11-23,18-42,18-24.67,0-45.63-11.69-45-14,.19-.7,2.2,0,7-1a38.91,38.91,0,0,0,14-6c6.51-4.21,12.91-10.68,12-12-.7-1-5.24,1.69-12,4-10.6,3.63-19.42,3.84-26,4-7.85.19-30.5.73-51-15-15.19-11.66-20.94-25.91-25-36C777.36,886.67,773.5,873.5,775.5,867.5Z"
          transform="translate(-584.13 -275.5)"/>
    <path class="cls-9"
          d="M906.5,454.5c-11.56,10.56-22.27,20.34-34,36-29.09,38.84-37.65,78-42,99-4.45,21.45-5.28,37.73-6,52-1.76,34.66,1.18,61.92,5,96,3.49,31.17,4.33,47.11,6,79a107.88,107.88,0,0,1-8,42c-3.61,8.8-7.06,13.41-12,16-8,4.19-15.48.83-17,4-2.28,4.77,12.82,16.33,15,18,3.38,2.58,12.54,9.25,30,16,14.61,5.64,22.24,8.59,33,9,19.5.74,29.24-7.64,33-3s-1.69,17.18-10,24c-7.22,5.93-15.21,6.25-15,8s9.35,2.88,18,2c5.12-.52,16.64-1.84,28-10,10.39-7.46,13-15.13,17-14s2.24,8.7,8,18c5.17,8.35,12.75,12.3,16,14,11,5.72,21.3,4.94,32,4,11.73-1,30.87-2.72,47-16,13.73-11.3,16-23.32,27-24,5.79-.35,9.56,2.69,15,6,0,0,23.07,14,57,16,24.05,1.39,45.24-6.72,45-10-.13-1.88-7.17-.83-16-6-9.92-5.81-14.52-15-17-20-1.33-2.67-11.14-22.33-5-28,4.53-4.18,14.2,2.49,30,8,26.27,9.15,49,7.92,66,7,26.24-1.42,44.29-7.77,56-12,6.34-2.29,30.06-11.2,29-17-.52-2.84-6.45-2-16-7-10.15-5.3-15.93-12.76-20-18-3.9-5-14.44-18.6-11-23,2.83-3.62,12.66,2.16,32,6a188.85,188.85,0,0,0,32,3c33.08.16,58.6-13.42,65-17,20.64-11.55,32.08-25.3,40-35,4-4.92,15.3-18.74,12-23-1.73-2.24-6.58-.63-11,0-15,2.14-27.61-6.66-41-16-9.25-6.45-24.37-19.31-38-46-14.78-28.94-13.63-46.36-22-86-2.48-11.72-10.76-50.93-24-81-29.36-66.67-88.74-101.24-106-111-63-35.59-121.92-34.68-146-34-20,.57-58.49,2-102,22C945.93,418.82,921.38,440.91,906.5,454.5Z"
          transform="translate(-584.13 -275.5)"/>
    <path class="cls-1"
          d="M1313.5,530.5a28.18,28.18,0,0,0,6,14c1.27,1.52,6.12,6.91,13,8s13.81-2.45,22-10c18.13-16.72,26.84-38.68,31-50,11.51-31.33,17.27-47,18-71,.37-12,.91-41.49-15-74-6.62-13.52-17.34-35.42-42-51-25.11-15.86-50.07-16-64-16-34.75-.12-60.23,12.61-77,21-14.58,7.29-25,15.27-46,31-33.18,24.88-34.91,32.38-42,36-.44.22,8.75,6.06,15,7,0,0,18.79,2.83,40,7,14.62,2.88,24.58,7.61,38,14,16.44,7.82,39.4,18.75,58,40C1294.84,466.59,1311.16,515.94,1313.5,530.5Z"
          transform="translate(-584.13 -275.5)"/>
    <path class="cls-4"
          d="M938.5,874.5a18.18,18.18,0,0,0-4,6c-1.61,4-1.31,7.42-1,11s1.24,8,2,8,.32-3.08,2-7,4.72-7.5,6-7,.11,4.52,0,9c-.34,13.8,9,26.8,12,26,1.1-.29.68-2.2,2-6,3.18-9.13,12.09-16.65,16-15,.86.36.9.92,3,6,3.14,7.59,4.61,10.09,6,12,1.25,1.73,4.06,5.6,6,5,1.11-.35,1.3-2,2-4a22.74,22.74,0,0,1,6-9"
          transform="translate(-584.13 -275.5)"/>
    <path class="cls-10"
          d="M966.5,677.5c-5.92-9.22-8.88-13.83-11-19-.38-.93-8.09-19.18-23-27-8.13-4.27-16-4.14-21-4-32.09.89-63.47,28.41-79,58a110.22,110.22,0,0,0-12,39c-1.17,10.61-2.74,26.61,5,44,3.16,7.1,8.13,18.26,20,25,12.21,6.93,24.66,5.18,33,4,26.5-3.74,48.08-22,58-37,1.38-2.09,1.72-2.87,3-4,13-11.4,44,11.62,53,2,0,0,1-3,3-9a157.69,157.69,0,0,1,7-18c2.37-5.07,3.1-5.73,4-6,4.41-1.3,10.5,7.74,13,11,15.18,19.78,50,24.15,70,23,7.4-.43,26.69-1.79,46-15a90.84,90.84,0,0,0,27-30c4.51-8,11.42-20.32,11-35-.63-22-17.43-37.36-28-47,0,0-48.4-44.14-123-30a66.19,66.19,0,0,0-13,4c-13.58,6.06-21.26,16-25,21-4.43,5.89-16.2,21.56-15,40,.3,4.64,1.63,12.52,0,13C968.62,680.76,967.29,678.73,966.5,677.5Z"
          transform="translate(-584.13 -275.5)"/>
    <path class="cls-1"
          d="M839.5,726.5c2-10.85,6.18-18.31,10-25a109.48,109.48,0,0,1,24-29c9.93-8.46,18.53-15.8,32-18,4.42-.72,13.37-2.19,23,2,17,7.4,21.78,26.18,23,31,1.17,4.63,4.63,18.28-2,30-2,3.59-4.69,6.39-10,12-7.47,7.88-10.43,8.93-14,15-2.21,3.75-1.32,3.75-5,12s-5.53,12.39-8,15c-5.91,6.25-14.64,6.59-25,7-9.4.37-18.82.74-29-5-2.81-1.58-13-7.53-18-20C836.39,743.23,838.07,734.19,839.5,726.5Z"
          transform="translate(-584.13 -275.5)"/>
    <path class="cls-9"
          d="M894.5,722.5c-1-7.17,3.22-12.47,6-16,1.63-2.07,6.51-8.07,15-10,3-.68,8.14-1.85,13,1s6.47,8.14,7,10c2.08,7.28-.84,13.52-2,16s-4.65,9.93-13,13c-1.54.57-9.36,3.44-17-1C902.68,735,895.61,730.75,894.5,722.5Z"
          transform="translate(-584.13 -275.5)"/>
    <path class="cls-1"
          d="M1010.5,663.5a47.94,47.94,0,0,1,6-18c7.77-13.36,20.1-18.88,25-21,19.56-8.45,38.18-3.45,51,0,10.91,2.93,31.94,8.89,47,28,5.2,6.59,12.73,16.15,12,29-.79,13.92-10.79,23.22-17,29-13.47,12.54-28.56,15.9-38,18-9.68,2.16-24.4,5.25-42,0-6.31-1.88-18.51-5.69-29-17A59.39,59.39,0,0,1,1010.5,663.5Z"
          transform="translate(-584.13 -275.5)"/>
    <path class="cls-9"
          d="M1047.5,685.5a22.55,22.55,0,0,1,5-11c.41-.49,9.18-10.83,22-9,2.26.32,9.76,1.4,14,8,4.74,7.38,1.55,15.66,1,17a20.88,20.88,0,0,1-9,10,24.85,24.85,0,0,1-16,3c-3.65-.41-12.55-1.41-16-8C1046.57,691.81,1047.14,687.9,1047.5,685.5Z"
          transform="translate(-584.13 -275.5)"/>
    <path class="cls-11"
          d="M876.11,777l-9-24.51a7.31,7.31,0,0,1,4.48-9.44L918.36,727a7.31,7.31,0,0,1,9.37,4.76l1.78,5.78c-.73,6.07-4.85,7.76-9,15-5.49,9.58-2.19,13.47-6,20l-29.39,9A7.31,7.31,0,0,1,876.11,777Z"
          transform="translate(-584.13 -275.5)"/>
    <path class="cls-11"
          d="M1018,714.8l48.94-9.79a7.89,7.89,0,0,1,9.25,6l5.55,24.67a7.89,7.89,0,0,1-6.08,9.46L1028.59,755a7.89,7.89,0,0,1-9.18-5.46L1012,724.8A7.89,7.89,0,0,1,1018,714.8Z"
          transform="translate(-584.13 -275.5)"/>
    <path class="cls-12"
          d="M929.5,737.5c1.9-3.12,6.34-10.88,12-15,11-8,22.79-8.05,28-8,12,.12,20.73,4.37,26,7,7.78,3.89,16.39,12.54,20,16"
          transform="translate(-584.13 -275.5)"/>
    <path class="cls-4"
          d="M895.5,600.5a101.55,101.55,0,0,1,21-6c8.61-1.48,10.7-.69,21-2a127.85,127.85,0,0,0,27-6c10.63-3.74,9.57-5.37,23-11a184.53,184.53,0,0,1,28-9,189.65,189.65,0,0,1,23-4"
          transform="translate(-584.13 -275.5)"/>
    <path class="cls-4"
          d="M927.5,567.5a59.41,59.41,0,0,1,14-4c7.83-1.22,9.31.18,16-1,8.57-1.51,9.8-4.45,19-7a57.63,57.63,0,0,1,17-2"
          transform="translate(-584.13 -275.5)"/>
    <path class="cls-4"
          d="M898.5,813.5a27,27,0,0,0-4,15,28.33,28.33,0,0,0,3,11,45.21,45.21,0,0,0,15,18,32.55,32.55,0,0,0,13,6,18.52,18.52,0,0,0,9,0c3.3-.92,5.33-2.66,8-5,6.06-5.31,9.4-11.27,12-16,1.36-2.47,2.36-4.58,3-6"
          transform="translate(-584.13 -275.5)"/>
    <path class="cls-4"
          d="M951.5,790.5a105.27,105.27,0,0,0,1,26c.67,4.1,1.06,8.2,3,13a48.76,48.76,0,0,0,5,9c12.44,17.27,50.92,23.86,64,25a31.33,31.33,0,0,0,6,0c3.53-.35,9.49-1.57,20-9a103.39,103.39,0,0,0,16-14,114.4,114.4,0,0,0,16-22"
          transform="translate(-584.13 -275.5)"/>
    <path class="cls-10"
          d="M1087.5,799.5c-.16.66,4.64,1.06,9,5,1.63,1.47,5.08,5.13,7,15,2.66,13.65-.6,23.89,0,24s3.91-9.59,4-22c.06-8.46,0-13.92-4-18C1097.76,797.68,1087.73,798.57,1087.5,799.5Z"
          transform="translate(-584.13 -275.5)"/>
    <path class="cls-10"
          d="M887.5,848.5c.43.22-1.87,3.19-2,8-.22,8.06,5.88,13.22,5,14s-7.78-2.79-9-9C880.13,854.49,886.84,848.16,887.5,848.5Z"
          transform="translate(-584.13 -275.5)"/>
    <path class="cls-1"
          d="M929.28,754.08l50.56-10.41a16.44,16.44,0,0,1,19.38,12.63l2.59,12A16.44,16.44,0,0,1,988.52,788l-51.37,8.81a16.44,16.44,0,0,1-19-13.43L916.39,773A16.44,16.44,0,0,1,929.28,754.08Z"
          transform="translate(-584.13 -275.5)"/>
    <path class="cls-9"
          d="M959.1,755.67l20.41-4.2a6.64,6.64,0,0,1,7.83,5.1l1,4.83a6.64,6.64,0,0,1-5.37,7.94l-20.74,3.56a6.64,6.64,0,0,1-7.66-5.42l-.72-4.19A6.64,6.64,0,0,1,959.1,755.67Z"
          transform="translate(-584.13 -275.5)"/>
    <path class="cls-13"
          d="M1180,1573c-8.59-5-9.73-20-12-50-.15-1.95-.38-5.81,2-8,4-3.68,12.78-.25,16,1,9.94,3.87,14.76,10,16,9,1.68-1.37-8.53-11.34-7-23,.67-5.09,3.28-8.32,8-14,6.07-7.3,17.48-21,37-25,6.78-1.38,13-2.65,20,0,16.38,6.24,25.09,29.85,20,47-2.56,8.63,77.84,105.06,59,118C1297.74,1656.33,1191.11,1579.49,1180,1573Z"
          transform="translate(-584.13 -275.5)"/>
    <path class="cls-4"
          d="M1191.5,1514.5a184.09,184.09,0,0,1,14,36c3.24,11.95,4.48,21.44,6,33,1.88,14.34,2.66,26.39,3,35"
          transform="translate(-584.13 -275.5)"/>
    <path class="cls-4"
          d="M1193.5,1509.5a162.05,162.05,0,0,1,23,20,174.9,174.9,0,0,1,28,40,191.05,191.05,0,0,1,15,40,223.13,223.13,0,0,1,6,31"
          transform="translate(-584.13 -275.5)"/>
    <path class="cls-9"
          d="M719,1542c2.15-12.83,3.26-19.34,5-24a83.9,83.9,0,0,1,19-29,85.29,85.29,0,0,1,34-21c6.35-2,15-2.69,32-4,14.82-1.14,19.13-1.08,35-2,26.28-1.52,39.66-2.33,52-5,12.76-2.77,9.42-3.43,31-9,17.5-4.52,29.13-7.52,45-9,11.56-1.08,14-.29,27-2a209.59,209.59,0,0,0,26-5c12.18-3.22,19.5-6.51,26-9,21-8,56.3-16.44,61-8,2.38,4.28-5.3,8.92-16,30-5.09,10-7.72,17.68-13,33-7.22,21-10.84,31.47-10,40,.94,9.56,4.21,14.66,1,19-4.88,6.59-19,3.69-23,3-29-5-56.4,14.86-94,32-28.21,12.86-58.14,19.91-118,34-105.82,24.91-119.38,11.9-123,6-2.72-4.43-2.48-13-2-30C714.34,1569.76,715.9,1560.51,719,1542Z"
          transform="translate(-584.13 -275.5)"/>
    <path class="cls-9"
          d="M682,1600c3.71-5.2-4.93-11.66-5-28a59.66,59.66,0,0,1,3-18c4-12.88,9.81-17.92,8-20-2.17-2.49-13.23,1.65-21,9-6.5,6.15-8.57,12.53-10,12s-.54-8.6,2-16c4.43-12.93,11.86-19.11,11-20-1.21-1.25-18.16,8.64-31,27-13.35,19.09-16.63,39.32-15,40s9.88-20.33,16-19c3.62.79,2.77,8.57,10,21,3.17,5.46,5.46,9.28,10,12C667.19,1604.3,678.51,1604.9,682,1600Z"
          transform="translate(-584.13 -275.5)"/>
    <path class="cls-9"
          d="M613,1539c-3.08-7.18-4.66-10.84-4-15,1.18-7.46,8-7,14-17,5.16-8.67,2-12.35,7-18,6.8-7.7,20.06-9.27,22-6,1.62,2.73-5.55,7.35-13,18-16.34,23.34-14.82,48.17-20,48C617.27,1548.94,615.85,1545.63,613,1539Z"
          transform="translate(-584.13 -275.5)"/>
    <path class="cls-9"
          d="M692,1342c.94.61,3.08-2.88,8-3,5.53-.14,8.26,4.13,11,3s2.81-7.1,3-11c.34-6.93,2.9-14.29,8-29,4.83-13.93,7.34-11.91,14-28,6.82-16.47,7.69-27,11-27,4,.05,6.16,15.31,8,15,1.37-.23.31-8.72,1-23,.51-10.51,1.24-9.25,2-22,.66-11.07.31-15.54,2-16,2.44-.66,6.79,7.74,9,12,5.66,10.92,6.62,18.14,8,18,1.75-.18-.09-11.82,3-28,2.28-11.92,4.78-13.44,8-29,2.6-12.6,1.14-12.42,3-19,6-21.16,23.51-31.07,22-33s-17,6.17-31,19c-5,4.61-11.88,11-18,21-7.41,12.15-8.07,20.37-14,42,0,0-1.08,3.94-11,35C721.76,1293,688.47,1339.72,692,1342Z"
          transform="translate(-584.13 -275.5)"/>
    <path class="cls-9"
          d="M806,1177c.8-13.2,4.5-22.36,10-36,4.1-10.16,9.93-24.32,22-40,6.85-8.9,11.92-15.49,21-22,13.26-9.51,18.77-7.16,31-18,6.75-6,9.1-10.28,14-10,6.13.35,9,7.45,18,8,3.62.22,5.62-.78,6,0,.83,1.7-8.47,7.1-22,17-4.9,3.59-12.6,10.06-28,23-7.74,6.5-8.94,7.63-10,10-4.38,9.77,2.19,21.46,9,33,24.44,41.43,37.09,55.94,33,62-2.35,3.48-8.64,1.86-19,1-46.26-3.84-67.57,16.23-80,4C804.46,1202.56,805.11,1191.82,806,1177Z"
          transform="translate(-584.13 -275.5)"/>
    <path class="cls-9"
          d="M906,1110c1.4-2.55,2.94-3.29,17-11,20-10.94,22.61-12.62,26-16,7.37-7.34,9-13.59,11-13,3,.91.41,16.25-1,32-1.82,20.32-1.05,35,0,55,1.18,22.35,2.24,42.57,9,68,4.94,18.57,10.23,29.8,8,31-3.12,1.68-17.36-18.36-26-32-23.39-36.93-14-40-37-84C907.89,1130.22,901.29,1118.61,906,1110Z"
          transform="translate(-584.13 -275.5)"/>
    <path class="cls-9"
          d="M933,1032c.07,3.52,7.17,3.56,17,11,8.89,6.72,11.43,13,14,12,2.41-.93,1.51-7,2-17,.7-14.37,5.71-19.57,3-22-2.18-2-8.15.67-20,6C933.39,1029,933,1031.11,933,1032Z"
          transform="translate(-584.13 -275.5)"/>
    <path class="cls-9"
          d="M802,1240c4.23-3.92,8.8-5.53,13-7,11.14-3.91,17.68-1.68,34-1,12.45.52,9.5-.74,41-1,15.53-.13,19.2.16,24,2,5.76,2.21,10.24,5.56,22,19,17.73,20.26,26.59,30.39,28,41,.63,4.72-.92,12.15-4,27-4.3,20.69-5.89,20.87-9,36-6.68,32.5-9,50-9,50-.67,5.06-1.38,11-6,15-3.84,3.31-7.87,3.09-22,4-20.13,1.3-20.35,2.3-23,1-9.33-4.59-6.28-16.82-14-35-4.69-11-12.46-19.36-28-36-17-18.16-21.27-18.37-34-34-9.75-12-15.3-18.78-19-30C795.39,1289.15,784.87,1255.86,802,1240Z"
          transform="translate(-584.13 -275.5)"/>
    <path class="cls-9"
          d="M986,1342c3.07-18.67,6-27,6-27,7.1-20.22,6.56-18.94,7-20,4.58-10.92,9-18.3,16-30,5.54-9.26,8.32-13.89,13-20,9.62-12.55,16.79-17.81,20-20,6.48-4.41,13.27-9,16-7,4.29,3.19-6.15,19.28-15,47a277.81,277.81,0,0,0-12,63c-2.22,26.09,1.7,21.82-1,39-1.16,7.4-2.8,14,1,18s12,4.36,17,1c7.3-4.88,5.7-16.18,6-36,.51-34,.76-51,11-59,3.52-2.74,15-2.83,38-3,17.78-.13,27-.2,40,1,9,.83,18,.95,27,2s12.06,1.8,16,0c10.34-4.73,11.17-20.29,13-20,2.89.46-1,39-1,39-3.7,36.67-5.56,55-8,66-3.82,17.16-8.1,29.44-5,31,3.93,2,14.65-15.84,18-14,2.59,1.43,1.14,14.86-7,20-8.45,5.33-20.34-.65-25-3-7.1-3.58-8-6.45-15-11-9.16-5.95-17.75-7.6-25-9-10.17-2-18.28-1.65-52,3-32,4.41-48,6.62-54,8-12.18,2.81-25.82,6.68-27,4s11.3-7,16-20c.71-2,3.9-10.74,0-19-3.75-7.95-13.65-14.51-23-15-3.83-.2-7.82.6-10-2C985.24,1346.9,985.7,1343.81,986,1342Z"
          transform="translate(-584.13 -275.5)"/>
    <path class="cls-9"
          d="M1078,1256c-2.5-3.51-2.38-9.11,0-12,3.47-4.23,11.37-2.23,21-1,12.9,1.65,26-.14,39,0,33.36.36,39.9,0,40,1,.12,1.29-10.84,2.73-40,8C1096.93,1259.42,1083,1263,1078,1256Z"
          transform="translate(-584.13 -275.5)"/>
    <path class="cls-9"
          d="M1108,1184c.52,2.25,13.3-2.58,38-1,13.92.89,24,3.33,33-3a40.91,40.91,0,0,0,8-8c4.61-6,4.45-9.22,9-17,4.94-8.45,8.76-10.88,8-12-1.57-2.29-18.08,7.39-36,16C1131.68,1176.45,1107.3,1181,1108,1184Z"
          transform="translate(-584.13 -275.5)"/>
    <path class="cls-9"
          d="M1025,1203c2,1.49,9.57-9.07,33-27a356.92,356.92,0,0,1,41-27c21.49-12,38.28-17.84,71-29,35.35-12.06,45.23-20.87,59-18,2.41.5,9.43,2.23,12-1s-.76-9.24-5-18c-12.5-25.81-6.57-19.83-18-42-7.65-14.84-11.26-19.38-9-24,2.63-5.36,10.67-5.72,21-7,34.29-4.26,29.48-10.76,61-14,14.07-1.45,27.93-4.62,42-6,4.63-.45,11.34-1,15-6s3-12.76,0-18c-2.76-4.86-6.87-6.54-14-10-24.82-12-25.22-16.07-33-16-6.67.06-11.15,3-24,13-22.17,17.17-38.2,31-48,39-15.41,12.53-13.31,8.81-36,26-17.71,13.42-26.15,21.12-52,43-41.56,35.17-38.76,31.36-48,40C1045.68,1145.23,1020.74,1199.83,1025,1203Z"
          transform="translate(-584.13 -275.5)"/>
    <path class="cls-9"
          d="M1250,1041c-2.3,3.66,9,10.49,17,27,6.68,13.84,7.4,27,8,38,1,18.7-2.15,31.79-1,32s3.45-13.45,10-32c4.64-13.13,9.17-26,19-40a131,131,0,0,1,27-28c19-15.11,35.5-20.85,35-22-.13-.29-1.67-.94-46,15-27.58,9.92-34.75,13-47,12C1260,1042.06,1251.9,1038,1250,1041Z"
          transform="translate(-584.13 -275.5)"/>
    <path class="cls-9"
          d="M1289,1194c5.81-24,13.67-39.95,27-67,16.88-34.27,25.33-51.41,42-67,13.48-12.61,35.91-33.59,66-31,32.93,2.83,52.38,32,55,36,15,23.15,12.18,49.75,6,102-6.29,53.21-9.7,82-29,117-3.62,6.55-20.72,36.74-54,65-30.4,25.81-29.52,12-91,51-14.92,9.47-30.15,19.9-49,17-14.28-2.2-28-11.65-27-15,.76-2.52,9.56-.62,21-1,14.82-.5,29.42-7,58-20,19.37-8.81,32.08-14.58,49-25,15.57-9.58,25-15.4,35-25,25.88-24.9,39.42-60,34-64-3.88-2.87-14.25,12.59-46,34-17.78,12-37.19,20.33-76,37-24.23,10.41-34,13.56-39,9-4.6-4.19-2.51-12.46,1-33,2.72-15.94,4.14-32.09,7-48C1287.6,1218.15,1282.87,1219.31,1289,1194Z"
          transform="translate(-584.13 -275.5)"/>
    <path class="cls-9"
          d="M1293,1426c.51-2.47,3.35-3.69,12-7,13.3-5.1,20-7.65,30-11a214.44,214.44,0,0,0,47-23c10.4-7,14.57-11.57,17-10,4.21,2.71-5.5,18-9,44-1.79,13.32-1.2,24.22,0,46,1.32,24.11,3.78,36.15,1,37-3.53,1.08-6.63-18.57-24-33-11.23-9.33-16-6.16-42-19C1312.6,1443.87,1291.45,1433.43,1293,1426Z"
          transform="translate(-584.13 -275.5)"/>
    <path class="cls-9"
          d="M1207,1490c1-4.34,5-7.56,13-14,7.8-6.3,22.55-18.22,42-18,15.26.17,26.07,7.74,35,14,3.93,2.75,8.16,6.18,36,45,13,18.08,18.74,26.66,16,36-.29,1-2.57,8.76-8,10-9.4,2.15-16.17-18-38-37-15-13.1-35.59-24.32-40-20-3.41,3.34,5.06,13.8,17,41,7.81,17.79,15.17,34.56,18,55,3.8,27.51-1.8,53-5,53-2.74,0-2.07-18.67-10-46-3.24-11.17-10.64-35.92-28-60C1230.68,1515.26,1203.24,1505.65,1207,1490Z"
          transform="translate(-584.13 -275.5)"/>
    <path class="cls-9"
          d="M1220,1558c-1.29.58.15,4.88,5,28,4.3,20.51,4.88,25.3,5,31,.21,9.86-1.09,15.75,0,16,1.51.34,6.3-10.35,8-22a64.7,64.7,0,0,0-3-31C1230.56,1567.86,1222.21,1557,1220,1558Z"
          transform="translate(-584.13 -275.5)"/>
    <path class="cls-9"
          d="M1171,1525c4.08,18.43,9.32,24,14,38,4.41,13.24,5,24.18,6,41,1.15,20.21-.81,30.66,1,31,2.48.46,10.09-18.29,12-38a112.44,112.44,0,0,0-12-61c-7.14-13.78-18.6-28.61-22-27C1167.7,1510.09,1169.56,1518.47,1171,1525Z"
          transform="translate(-584.13 -275.5)"/>
    <path class="cls-9"
          d="M749,1788c8.35-5.21,13.49.57,37-1,17.68-1.18,30.58-5.51,41-9,38.37-12.87,51-31.29,59-26,4.78,3.16,1.4,10.48-3,50-2.53,22.68-9.24,45.21-8,68,.33,6.11,1.12,14.17-4,20-6.51,7.41-18.38,6.46-27,6-56-3-64.73,10.4-82-2-12.73-9.14-16.94-22.83-21-36C734,1835.23,731.85,1798.7,749,1788Z"
          transform="translate(-584.13 -275.5)"/>
    <path class="cls-9"
          d="M962,1754c3.79-5.62,21.44,2.7,49,10,30.32,8,28.82,3.23,88,14,41.3,7.52,38.38,9.19,58,11,32,2.95,48,4.42,69,2,15-1.73,20-3.84,25,0,10.4,8,0,26.08,3,67,1.4,19.27,4.37,24.46,0,31-9.32,13.93-36.34,10.59-53,9-43.14-4.11-86.68,3.3-130,2-43.66-1.31-87.42.09-131,3-3.29.22-13.33.93-18-5-3.81-4.84-1.7-11.09,0-22,4.51-29-2.6-34.9,4-42,9-9.66,22.64.77,37-10,12.39-9.28,13.91-25.8,14-27C978.76,1774.32,957.66,1760.43,962,1754Z"
          transform="translate(-584.13 -275.5)"/>
    <path class="cls-14"
          d="M1100,1492c2.09,2.27,7.75-3.59,19-2,3.5.5,6,1.5,8,0,2.61-1.95,1.9-6.28,2-10,.18-6.72,3.45-11.81,10-22,10.21-15.88,19.53-19.82,18-23-1.61-3.35-13.81-2.76-23,3-6.3,3.95-8.12,8.4-15,20C1105.76,1480.32,1097.45,1489.22,1100,1492Z"
          transform="translate(-584.13 -275.5)"/>
    <path class="cls-14"
          d="M1071,998c-1.66,5.85,1.73,7.1,3,19,1.81,16.94-3.92,25.14,0,28,4.51,3.29,15.79-4.82,23-10,10.57-7.6,14.45-12.78,23-21,22.16-21.29,37.85-26.55,36-34-.71-2.88-3.62-4.32-9-7-10.86-5.39-21.52-3.86-27-3-7.79,1.23-12.88,3.62-22,8C1081.71,985.83,1073.31,989.86,1071,998Z"
          transform="translate(-584.13 -275.5)"/>
    <path class="cls-14"
          d="M997,1014c.49.08,0-5.55,4-11,3.06-4.2,7.75-6.53,17-11,6.87-3.33,9.05-3.79,9-5-.1-2.39-8.8-5.66-16-3-5.35,2-8,6.55-10,10C995.46,1003.56,996.33,1013.89,997,1014Z"
          transform="translate(-584.13 -275.5)"/>
    <path class="cls-14"
          d="M981,1117c1.55-6.76,5-14.84,12-31,4.91-11.38,8-18.47,13-27,8.83-15,22.14-31.62,25-30,2.33,1.32-4.06,13.69-13,41a559.59,559.59,0,0,0-16,60c-3.63,17.57-6.6,31.92-8,52-1.17,16.78-.58,27.88-2,28-2.24.19-6.13-27-8-40C980.11,1142.91,978.23,1129.11,981,1117Z"
          transform="translate(-584.13 -275.5)"/>
    <path class="cls-14"
          d="M1025,1143c3.79-13.7,2.42-17.44,5-30,1.69-8.25,2.36-7,10-30,4.31-13,8.66-27.1,9-27s-3.53,17.22-6,39c-.8,7.1-1,10.75,1,12,6,3.72,25-17.92,26-17,.8.77-13.77,14.94-28,35-12.43,17.51-19.72,32.64-21,32C1020.27,1156.64,1022.6,1151.68,1025,1143Z"
          transform="translate(-584.13 -275.5)"/>
    <polygon class="cls-9" points="455.87 440.5 444.87 474.5 456.87 471.5 466.87 438.5 455.87 440.5"/>
    <polygon class="cls-9" points="471.87 437.5 462.87 470.5 469.87 468.5 478.87 435.5 471.87 437.5"/>
    <polygon class="cls-9" points="302.87 467.5 296.87 500.5 297.87 501.5 304.87 499.5 311.87 464.5 302.87 467.5"/>
    <polygon class="cls-9" points="315.87 462.5 309.87 498.5 314.87 496.5 320.87 461.5 315.87 462.5"/>
</svg>