<svg id="Layer_1" data-name="Layer 1" xmlns="http://www.w3.org/2000/svg" viewBox="0 0 36.46 98.93">
    <defs>
        <style>
            .cls-1{fill:#ade0e0;stroke:#000;stroke-linecap:round;stroke-linejoin:round;stroke-width:8px;}.cls-2{fill:#d9d9d9;}
        </style>
    </defs>
    <title>drib</title>
    <path class="cls-1"
          d="M249.05,210.41c-.57,0-1.37,16.67-2,29-.8,15.67-1.38,25,2,37,3.19,11.25,6.45,12.67,8,13,4.27.9,8.88-3.65,11-7,3.46-5.47,2.63-11.41,2-16-1.13-8.19-4.53-14.09-8-20-5.44-9.26-7.33-8.77-10-15C247.37,220.5,249.5,210.43,249.05,210.41Z"
          transform="translate(-238.15 -206.41)"/>
    <path class="cls-2"
          d="M238.67,273.67c-1.43.49.39,9.41,2,15s2.61,8.93,5.67,12c1.41,1.41,4.59,4.61,9.33,4.67s8-3,9.33-4.33c5.23-5,6.08-12.34,5.33-12.67s-1.72,4.26-6,6.33a12,12,0,0,1-10,0c-3.13-1.48-4-3.75-10.67-14.33C239.83,274.29,239.13,273.51,238.67,273.67Z"
          transform="translate(-238.15 -206.41)"/>
</svg>