<svg xmlns="http://www.w3.org/2000/svg" viewBox="0 0 671.26 671.26">
    <defs>
        <style>
            .cls-1{fill:#fff;}.cls-2{fill:#ff552e;}.cls-3{fill:#ffae2c;}.cls-4{fill:#e0ff29;}.cls-5{fill:#27ff50;}.cls-6{fill:#71b5ff;}.cls-7{fill:#11113f;}
        </style>
    </defs>
    <title>earth</title>
    <g id="Слой_2" data-name="Слой 2">
        <g id="Слой_1-2" data-name="Слой 1">
            <circle class="cls-1" cx="335.63" cy="335.63" r="335.63"/>
            <circle class="cls-2" cx="481.34" cy="185.36" r="19.87"/>
            <circle class="cls-3" cx="481.34" cy="485.05" r="19.87"/>
            <circle class="cls-4" cx="183.3" cy="485.05" r="19.87"/>
            <circle class="cls-5" cx="183.3" cy="185.36" r="19.87"/>
            <circle class="cls-6" cx="335.63" cy="333.55" r="115.9"/>
            <path class="cls-7"
                  d="M335.55,207.79A125.84,125.84,0,1,0,461.47,333.63,125.94,125.94,0,0,0,335.55,207.79ZM296.22,229a117,117,0,0,0-20,35.76H247.63A112.11,112.11,0,0,1,296.39,229Zm-58.12,50.09H271.8A209,209,0,0,0,265,326.59H223.95A111.58,111.58,0,0,1,238.11,279.07Zm-14.16,61.76H265a210,210,0,0,0,5.63,43.63H236A111.88,111.88,0,0,1,223.95,340.83Zm20.61,57.7h30.38a120.43,120.43,0,0,0,21.36,39.82,112.43,112.43,0,0,1-51.74-39.82Zm83.86,45.2c-11.59-3-22.44-13.33-31.46-29.8a128.75,128.75,0,0,1-7-15.4h38.41v45.2Zm0-59.36h-43a193.24,193.24,0,0,1-6.21-43.55h49.09v43.55Zm0-57.79H279.33a192.6,192.6,0,0,1,7.29-47.52h41.81Zm0-61.68H291.59a119,119,0,0,1,5.63-11.26c8.86-16.47,19.87-26.82,31.46-29.8Zm104.4,14.16A110.79,110.79,0,0,1,447,326.76H405.75A211.6,211.6,0,0,0,399,279.07h33.78Zm-9.44-14.16H394.57a117,117,0,0,0-20-35.76,111.76,111.76,0,0,1,48.76,35.6Zm-80.8-41.23c11.59,3,22.44,13.33,31.46,29.8a109.83,109.83,0,0,1,5.63,11.26H342.58Zm0,55.39h41.81a193.31,193.31,0,0,1,7.29,47.69H342.58Zm0,61.76h49.09a194,194,0,0,1-6.21,43.63h-43V340.83Zm0,103.07V398.54H381a126.45,126.45,0,0,1-7,15.23c-8.86,16.81-19.87,27-31.46,30Zm32-5.63A118.83,118.83,0,0,0,396,398.45h30.38A112.31,112.31,0,0,1,374.62,438.27Zm25.5-54a215,215,0,0,0,5.63-43.63H446.9A111.38,111.38,0,0,1,435,384.3Z"/>
            <path class="cls-7"
                  d="M481,154.15a31,31,0,1,0,31,31A31,31,0,0,0,481,154.15Zm0,47.69A16.81,16.81,0,1,1,497.81,185,16.82,16.82,0,0,1,481,201.83Z"/>
            <path class="cls-7"
                  d="M183.71,154.15a30.92,30.92,0,1,0,30.8,31v-.08A31,31,0,0,0,183.71,154.15Zm0,47.69A16.81,16.81,0,1,1,200.52,185,16.82,16.82,0,0,1,183.71,201.83Z"/>
            <path class="cls-7"
                  d="M481,454.42a31,31,0,1,0,31,31A31,31,0,0,0,481,454.42Zm0,47.69a16.81,16.81,0,1,1,16.81-16.81A16.82,16.82,0,0,1,481,502.1Z"/>
            <path class="cls-7"
                  d="M183.71,454.42a30.92,30.92,0,1,0,30.8,31v-.08A31,31,0,0,0,183.71,454.42Zm0,47.69a16.81,16.81,0,1,1,16.81-16.81A16.82,16.82,0,0,1,183.71,502.1Z"/>
            <circle class="cls-7" cx="223.53" cy="225.67" r="7.04"/>
            <circle class="cls-7" cx="222.87" cy="443.65" r="7.04"/>
            <circle class="cls-7" cx="443.75" cy="444.65" r="7.04"/>
            <circle class="cls-7" cx="443.75" cy="225.67" r="7.04"/>
        </g>
    </g>
</svg>