<svg xmlns="http://www.w3.org/2000/svg" viewBox="0 0 671.26 671.26">
    <defs>
        <style>
            .cls-1{fill:#fff;}.cls-2{fill:#475993;}.cls-3{fill:none;stroke:#11113f;stroke-linecap:round;stroke-linejoin:round;stroke-width:14px;}
        </style>
    </defs>
    <title>fb-logo</title>
    <g id="Слой_2" data-name="Слой 2">
        <g id="Слой_1-2" data-name="Слой 1">
            <circle class="cls-1" cx="335.63" cy="335.63" r="335.63"/>
            <polyline class="cls-2"
                      points="417.48 143.13 417.48 209.13 359.48 209.13 356.48 267.13 417.48 267.13 410.48 336.13 356.48 338.73 356.48 529.13 279.08 529.13 276.48 336.13 238.48 336.13 238.48 268.13 276.48 268.13 277.78 207.03 297.98 164.33 324.68 147.63 359.48 143.13 417.48 143.13"/>
            <path class="cls-3"
                  d="M410.68,335.73h-54.1v192.9h-80.2V335.73h-38.1v-68.1h38.1v-44.1c0-31.6,15-80.9,80.9-80.9l59.4.2V209h-43.1c-7,0-17,3.5-17,18.6v40h61.1Z"/>
            <line class="cls-3" x1="334.98" y1="369.63" x2="334.98" y2="506.63"/>
            <path class="cls-3" d="M298,209.33c.9-5.6,3-19.9,15.3-32.5,14.8-15.2,42-15.4,46-15.2"/>
        </g>
    </g>
</svg>