<svg xmlns="http://www.w3.org/2000/svg" viewBox="0 0 100 100">
    <defs>
        <style>.cls-1{fill:#fff;}.cls-2{fill:#92e03f;}.cls-3{fill:#ff991f;}.cls-4{fill:#11113f;}</style>
    </defs>
    <title>flag</title>
    <g id="Слой_2" data-name="Слой 2">
        <g id="Layer_1" data-name="Layer 1">
            <circle class="cls-1" cx="50" cy="50" r="50"/>
            <polygon class="cls-2" points="76.25 59.53 50 59.53 54.27 41.99 80.52 41.99 72.53 50.77 76.25 59.53"/>
            <path class="cls-3"
                  d="M41.37,28h0a1.74,1.74,0,0,1,1.73,2.28L33.29,70.54A4.13,4.13,0,0,1,28,73.49h0L38.52,30.24A3.11,3.11,0,0,1,41.37,28Z"/>
            <polygon class="cls-2" points="64.36 50.77 33.53 50.77 37.8 33.23 68.63 33.23 64.36 50.77"/>
            <path class="cls-4"
                  d="M81.49,41.57a1.08,1.08,0,0,0-1-.64l-13.74,0c-.59,0-.35.37-.35,1S66,43,66.57,43l11.54,0-6.36,7a1.07,1.07,0,0,0-.19,1.13l3.09,7.28H51.37L53,51.83H64.35a1.07,1.07,0,0,0,1-.81l4.27-17.54a1.07,1.07,0,0,0-1-1.31H43.73l.41-1.65A3,3,0,0,0,43.65,28a2.84,2.84,0,0,0-2.27-1.06A4.18,4.18,0,0,0,37.49,30L36.77,33s0,0,0,0L32.49,50.51h0L27,73.24a1.07,1.07,0,0,0,.7,1.27,5.19,5.19,0,0,0,1.61.26,5.28,5.28,0,0,0,2.53-.65,5.23,5.23,0,0,0,2.52-3.31l4.61-19H50.82L49,59.29a1.06,1.06,0,0,0,1,1.32H76.25a1.07,1.07,0,0,0,1-1.48L73.78,51l7.53-8.26A1.09,1.09,0,0,0,81.49,41.57Zm-18,8.13H34.89l1.68-6.9h8.94a1.07,1.07,0,1,0,0-2.14H37.08l1.55-6.37H67.26ZM41.37,29a.76.76,0,0,1,.6.23.82.82,0,0,1,.1.73l-.52,2.17H39.16l.41-1.65A2,2,0,0,1,41.37,29ZM32.26,70.28a3,3,0,0,1-1.48,2,3.13,3.13,0,0,1-1.46.39l5.06-20.8h2.38Z"/>
        </g>
    </g>
</svg>