<svg xmlns="http://www.w3.org/2000/svg" viewBox="0 0 673.09 673.09">
    <defs>
        <style>
            .cls-1{fill:#fff;}.cls-2{fill:#0600ff;}.cls-3{fill:#a100ff;}.cls-4{fill:#00ff06;}.cls-5{fill:#47413a;}.cls-6{fill:#11113f;}
        </style>
    </defs>
    <title>flasks</title>
    <g id="Слой_2" data-name="Слой 2">
        <g id="Слой_1-2" data-name="Слой 1">
            <circle class="cls-1" cx="336.55" cy="336.55" r="336.55"/>
            <polygon class="cls-2"
                     points="405.86 294.71 476.37 294.71 469.49 410.8 442.83 438.32 412.74 424.56 405.86 299.01 405.86 294.71"/>
            <polygon class="cls-3"
                     points="306.97 307.61 368.88 307.61 363.72 421.98 336.2 438.32 306.97 416.82 306.97 307.61"/>
            <polyline class="cls-4"
                      points="202.06 239.68 266.55 239.68 263.97 419.4 234.73 435.74 206.36 417.68 202.06 242.26"/>
            <path class="cls-5" d="M141.86,471.85c.86-.86,391.26,0,391.26,0v46.44l-391.26-5.16Z"/>
            <path class="cls-6"
                  d="M281.94,463.51h0a8.51,8.51,0,0,0,0,17h0a8.48,8.48,0,0,0,8.51-8.51,8.59,8.59,0,0,0-8.51-8.51Z"/>
            <path class="cls-6"
                  d="M447,279.75a8.26,8.26,0,0,0-8,8.51v.17h0v75.33a8,8,0,0,0,16,0h0V288.43a8.26,8.26,0,0,0-7.74-8.69H447Z"/>
            <path class="cls-6"
                  d="M344.63,279.75a8.18,8.18,0,0,0-8.08,8.34h0v76.36a8,8,0,1,0,16,0h0v-76.1a8.26,8.26,0,0,0-7.91-8.6Z"/>
            <path class="cls-6"
                  d="M242.65,279.75a8.26,8.26,0,0,0-8,8.51v.17h0v75.33a8,8,0,0,0,16,0h0V288.43a8.26,8.26,0,0,0-7.74-8.69h-.26Z"/>
            <path class="cls-6"
                  d="M533.21,463.51H520.57V219.13h12.64a8.51,8.51,0,0,0,0-17H520.57V154.29a8,8,0,1,0-16,0h0V202.1H479.21V180.69a8.51,8.51,0,0,0,0-17H399.32a8.51,8.51,0,0,0,0,17h0v21.58H377V180.69a8.51,8.51,0,0,0,0-17H297.08a8.51,8.51,0,0,0,0,17h0v21.58H274.89V180.69a8.51,8.51,0,0,0,0-17h-80a8.51,8.51,0,1,0,0,17h0v21.58h-25.8V154.46a8,8,0,0,0-16,0h0v47.81H140.49a8.51,8.51,0,0,0,0,17h12.64V463.68H140.49a8.26,8.26,0,0,0-8,8.51v.17h0v45.92a8.26,8.26,0,0,0,8,8.51h393a8.32,8.32,0,0,0,8-8.51h0V472.37a8.33,8.33,0,0,0-7.74-8.77h-.52v-.09ZM415.14,180.69H463v21.58h-47.9Zm0,38.52H463V402.54a24,24,0,1,1-47.9,0V219.21ZM313,180.69h47.9v21.58H313Zm0,38.52h47.9V402.54a24,24,0,1,1-47.9,0V219.21ZM210.66,180.69h47.9v21.58h-47.9Zm0,38.52h47.9V402.54a24,24,0,1,1-47.9,0ZM525.21,509.52H148.14V480.45H255.29a8.51,8.51,0,0,0,0-17H169V219.13h25.71V402.54a40,40,0,0,0,80,4.47,38.78,38.78,0,0,0,0-4.47V219.38H297V402.54a40,40,0,0,0,79.89,4.56,38.78,38.78,0,0,0,0-4.47V219.47h22.36V402.63a40,40,0,1,0,79.89,4.56,38.78,38.78,0,0,0,0-4.47V219.56h25.37V463.94l-249.2-.52c-4.73,0-5.93,3.44-5.93,8.17s1.2,8.86,5.93,8.86l269.93.52Z"/>
        </g>
    </g>
</svg>