<svg xmlns="http://www.w3.org/2000/svg" viewBox="0 0 671.26 671.26">
    <defs>
        <style>
            .cls-1{fill:#fff;}.cls-2{fill:#88604a;}.cls-3{fill:#f4d3a4;}.cls-4{fill:#333;}.cls-5{fill:#f39c12;}.cls-6{fill:#a53d3d;}.cls-7{fill:#d84848;}.cls-8{fill:#11113f;}
        </style>
    </defs>
    <title>flask</title>
    <g id="Слой_2" data-name="Слой 2">
        <g id="Слой_1-2" data-name="Слой 1">
            <circle class="cls-1" cx="335.63" cy="335.63" r="335.63"/>
            <polygon class="cls-2"
                     points="218.68 222.47 242.28 207.3 431.93 207.3 458.9 230.06 458.9 504.84 447.1 525.07 234.69 530.13 218.68 514.95 218.68 222.47"/>
            <polygon class="cls-3" points="291.76 280.97 458.9 280.97 463.12 451.74 291.76 451.74 291.76 280.97"/>
            <polyline class="cls-4" points="265.04 187.07 265.04 207.3 402.76 207.3 407.49 185.38 265.04 187.07"/>
            <polygon class="cls-5"
                     points="252.4 141.56 420.13 141.56 436.56 153.36 436.56 171.9 419.29 185.38 246.5 185.38 234.69 163.47 252.4 141.56"/>
            <polygon class="cls-6"
                     points="352.7 343.85 383.88 317.72 402.76 309.29 420.97 315.19 431.93 335.42 431.93 355.65 402.76 381.78 352.7 343.85"/>
            <polygon class="cls-7"
                     points="358.6 343.85 398.21 387.68 366.18 417.18 344.94 419.71 324.04 402.85 324.04 381.78 358.6 343.85"/>
            <path class="cls-8"
                  d="M430.07,312.16a38.66,38.66,0,0,0-54.53,0l-50.49,50.66a38.66,38.66,0,0,0,0,54.53h0a38.66,38.66,0,0,0,54.53,0l50.49-50.49a38.61,38.61,0,0,0,0-54.62v-.08ZM368.46,406a22.84,22.84,0,0,1-32.2,0h0a22.84,22.84,0,0,1,0-32.2l19.64-19.64,32.2,32.28Zm50.4-50.49L399.39,375,367,342.84l19.81-19.64a22.84,22.84,0,0,1,33,31.44l-.84.84Z"/>
            <path class="cls-8"
                  d="M427.55,199.88H415.07v-7.33h2.19a29.28,29.28,0,0,0,2.7-58.5H363.91a7.84,7.84,0,0,0,0,15.68h53.35a13.44,13.44,0,0,1,0,26.8H255.43a13.44,13.44,0,0,1,0-26.8H377.56c4.38,0-4.64-2.61-4.64-6.91s4.72-8.77.42-8.77H255.43a29.25,29.25,0,0,0,0,58.5h2.44v7.84H245.48a39.7,39.7,0,0,0-39.87,39.45h0V497.67a39.7,39.7,0,0,0,39.78,39.53H427.55a39.7,39.7,0,0,0,39.87-39.45h0V239.33a39.64,39.64,0,0,0-39.87-39.45ZM274,192.55H399.31v7.84H273.47v-8.18Zm178.1,81.17H430.83a7.88,7.88,0,1,0-1.52,15.68,4.58,4.58,0,0,0,1.52,0h20.9V444.91H300.1V289l131.83.42c4.38-.42,2.36-2.78,1.94-7.08-.34-3.79.67-8.26-3-8.6l-138.49-.42a7.88,7.88,0,0,0-7.84,7.84V452.92a7.88,7.88,0,0,0,7.84,7.84H451.74v36.5a23.85,23.85,0,0,1-23.77,24H245.23a23.94,23.94,0,0,1-24.11-23.6V239.33a23.89,23.89,0,0,1,24-23.69H427.71a23.94,23.94,0,0,1,24.11,23.6h0Z"/>
            <path class="cls-8"
                  d="M429.4,471H319.15a7.88,7.88,0,0,0-1.52,15.68,4.58,4.58,0,0,0,1.52,0H429.4a7.88,7.88,0,0,0,0-15.68Z"/>
            <path class="cls-8"
                  d="M292.52,471h0A7.88,7.88,0,0,0,291,486.63a4.58,4.58,0,0,0,1.52,0h0a7.88,7.88,0,0,0,0-15.68Z"/>
        </g>
    </g>
</svg>