<?xml version="1.0" encoding="utf-8"?>
<!-- Generator: Adobe Illustrator 21.0.0, SVG Export Plug-In . SVG Version: 6.00 Build 0)  -->
<svg version="1.1" id="Layer_2_1_" xmlns="http://www.w3.org/2000/svg"  x="0px" y="0px"
	 viewBox="0 0 2000 2000" style="enable-background:new 0 0 2000 2000;" xml:space="preserve">
<style type="text/css">
	.st0{fill:#F4E7D7;stroke:#000000;stroke-width:10;stroke-linecap:round;stroke-linejoin:round;stroke-miterlimit:10;}
	.st1{fill:#1B2033;stroke:#000000;stroke-width:10;stroke-miterlimit:10;}
	.st2{stroke:#000000;stroke-width:10;stroke-linecap:round;stroke-linejoin:round;stroke-miterlimit:10;}
	.st3{fill:none;stroke:#000000;stroke-width:10;stroke-linecap:round;stroke-linejoin:round;stroke-miterlimit:10;}
	.st4{fill:#D9D9D9;stroke:#000000;stroke-width:10;stroke-linecap:round;stroke-linejoin:round;stroke-miterlimit:10;}
	.st5{fill:#FFFFFF;}
	.st6{fill:#D9D9D9;}
	.st7{fill:none;stroke:#FFFFFF;stroke-width:5;stroke-linecap:round;stroke-linejoin:round;stroke-miterlimit:10;}
	.st8{fill:#380208;}
	.st9{fill:#6A0006;}
	.st10{fill:#FFFFFF;stroke:#000000;stroke-width:10;stroke-linecap:round;stroke-linejoin:round;stroke-miterlimit:10;}
	.st11{fill:none;stroke:#EF0F75;stroke-width:5;stroke-linecap:round;stroke-linejoin:round;stroke-miterlimit:10;}
	.st12{fill:#282828;}
	.st13{opacity:0.1;fill:#FFFFFF;}
	.st14{opacity:0.7;fill:#FFFFFF;}
</style>
<path class="st0" d="M1202,1007.5c13.8-4.7,32.4,5,40,9c18.1,9.5,28.9,23.9,40.5,43.5c11.4,19.3,27.3,49.9,59,140.5
	c3.2,9.2,7.7,22.1,16,38.5c13.2,26.1,24,36.9,32.5,50c26.3,40.3,30.7,101,8.5,144.5c-5,9.8-14.2,27.3-34,39
	c-35,20.8-75.4,6.9-82.5,4.5c-6-2.1-15.2-5.3-25-12.5c-24-17.6-32-44.4-36.5-60.5c-22.5-79.7-33.8-119.6-35.5-134.5
	C1176,1191.4,1156.5,1023,1202,1007.5z"/>
<path class="st0" d="M1340.5,1329c12.8-21.4,27.8-32.5,32-35.5c6.4-4.6,14.1-9.8,31-15.5c30.8-10.4,46.2-12.1,54.4-14.5
	c0,0-5,4.7-11.4,14.5c-3.1,4.7-22.7,35.9-17,70.5c1,6.1,5.4,32.8,29,49c2.9,2,20,13.4,42,11.5c18.6-1.6,27.7-10,27.7-10
	c-6.7,9.3-26.4,42.3-64.7,78.5c-14.6,13.8-34.9,27.6-64.5,39c-22.6,8.7-47,18.2-76,11c-20.4-5-35-16.3-43-22.5
	c-4.5-3.5-18.5-14.7-31.5-34c-17.9-26.6-21.6-50.3-26.5-81c-2.6-16.7-1.6-19.3,0-21"/>
<path class="st1" d="M751.3,1580.9c-72.7,105.7-104,232.4-109.3,343.1h658.7c-2-156-46.7-253.3-93.6-345.7
	C1132.6,1431.8,825.8,1472.6,751.3,1580.9z"/>
<path class="st1" d="M745.3,1545.3c-4,15.1-0.6,31.4,6,35.6c44.6,28.4,367.3,21.5,450.7-0.3c21.1-5.5,0-38.8-1.3-42
	C1154.6,1428.4,769.7,1452.8,745.3,1545.3z"/>
<path class="st2" d="M861.7,904c-6.4,6.9-23.1,3-30.7,22c-5.3,13.3-15.9,23.2-26.8,33.4c0,0-11,10.5-17.3,21.3
	c-15.2,26.3,18.8,77.9,35.3,103.3c87,133.9,87.6,155.1,116.7,159.3c33.7,4.9,62-19.2,96.7-48.7c30-25.5,51.3-70.3,94-160
	c7.7-16.1,17.5-37.6,8.7-54.7c-3.6-6.9-8-8.9-39.3-32c-8.9-6.6-16.3-19.8-25.2-26.5c-38.5-28.8-42.3-26.4-51.5-32.2
	C975.9,860.1,892.1,871.2,861.7,904z"/>
<path class="st0" d="M1262,1143.3c0,0-6.3,177.7-47.3,344.7c-1.8,7.3-2.2,14.9-4.7,22c-0.6,1.8-1.6,4.5-1.3,8
	c0.4,5.5,3.7,10.1,4.7,11.3c2.8,3.8,4.6,4.1,4.7,6c0.2,3.6-5.8,6.6-10,8.7c-19,9.6-19.6,11.4-24.7,13.3
	C1143.8,1572,978,1578,978,1578c-93,3.4-115.1,3.1-159.3,2.7c0,0-21.5-0.2-58-12.7c0,0-8-2.7-23.3-14.7c-2.5-1.9-6.5-5.2-6-8.7
	c0.3-1.9,1.7-2.8,5.3-6.7c1.8-2,4.9-5.3,6-7.3c3.9-7.1-5.8-19.5-6.7-20.7c-16.5-21.7-21.1-151.7-40.7-255.3
	c-12.2-64.5-15.7-130.7-30.7-194.7c-1.6-6.7-6.3-26.4,4-39.3c8.1-10.2,18.6-7.6,49.3-16c19.3-5.3,37.2-10.2,55.3-22
	c23.2-15.1,32.3-31.8,38.7-28.7c4.6,2.3,1.9,12.4,2.7,26.7c1.6,29.4,16.5,50.9,23.3,60.7c8.5,12.3,26.4,37.9,56,46.7
	c9.6,2.8,19.7,3.7,28,12.7c6.8,7.4,8.1,15.6,10,26c13,72,15.5,47.8,20.7,84.7c0.8,6,2.4,18.2,11.3,24c1.2,0.8,6.3,3.8,12,2.7
	c8.7-1.8,13.3-12,16-18.7c17.8-44.2,16.7-82,16.7-82c-0.4-14.9-2.6-34.7,8-47.3c2.8-3.3,6.7-6.7,6.7-6.7c10-8.6,18.6-10.7,25.3-14
	c9.2-4.5,14.4-11.2,24.7-24.7c14.3-18.7,20.6-36.9,22.7-43.3c8-25.2,4.9-39.9,12.7-42.7c5.4-1.9,10.1,4.1,22,12.7
	c11.1,8,62.8,24.5,97.2,38.7"/>
<path class="st0" d="M797.6,962.8c3.9-2.9,12.3-10.5,18.2-16.5c12.5-12.6,13-21.4,15.3-20.4c2.3,1-1.1,12.1-2.5,18
	c-7.7,32.2,6.5,62,10.5,70.5c1.8,3.8,15.2,31.2,44,49.5c5.4,3.4,14.8,9.3,28.5,12.5c14.4,3.4,21.3,0.9,27,2
	c17.9,28,18.3,148.2,38,146.5c13.6-1.2,13.5-125,20-150c1.9-0.6,7.7-1.7,17-5c1.4-0.5,14.2-5,23-10c14.1-8,21.8-19.4,30-31.5
	c15.6-23,20.4-43.9,23-55.5c4.3-19.3,3.1-27.4,2-29.5c-7.5-14.5-27.3-26.1-25.8-27.6c1.4-1.5,15.9,13.4,27,23.8
	c10.1,9.4,14.7,15.4,25.1,21.8c7.5,4.6,17.2,11.7,20,14.5c5.7,5.4,1.9,14.7-3.3,30.6c-4.9,14.8-12.1,35.8-31,57.5
	c-7.8,9-20.5,23.3-41.5,32.5c-15.4,6.8-23,8.5-31,8c-9,24-11.5,120.5-26.5,148.8c-20,5.8-39.5,6.7-57,5.7
	c-22.5-33.5-16.1-118-37.5-139c-3.1-1.6-3.5-0.9-17.5-6c-17.5-6.4-31.1-11.4-43-18.5c-30.2-18-44.6-46.4-49-55.5
	c-7.6-15.5-10.1-28.1-11-33C788,998.6,780.7,975.4,797.6,962.8z"/>
<path class="st0" d="M709.2,1006.9c-25.3,2.5-45.8,14.7-54.6,20.4c-19.3,12.6-29.2,29-38,44.7c-22.6,40.4-35,71.9-44,93.3
	c-16.7,39.6-32.1,69.3-55.3,114c-28.7,55.1-35,61-42,87.3c-14.1,52.7-4.3,86.7-2,94c4.3,14,11,35.7,32,52.7
	c2.5,2.1,33.7,26.6,70,19.3c41.5-8.3,62.7-52.9,80.7-90.7c11.3-23.7,26.4-55.4,33.3-96.7c2.2-13.3,5.3-37.7,22.7-62
	c7-9.9,11.8-13.3,18-20"/>
<path class="st2" d="M701.3,1351.3c16.1-3.2,21.2,2.6,61.3,12c22.8,5.3,43.6,8.2,85.3,14c27.3,3.8,40.9,5.7,52.7,6
	c19.7,0.5,24.3-1.3,35.3,2c17.7,5.3,39.9,20.1,39.3,37.3c-0.3,9.1-7,16.1-10.7,20c-9.6,10.1-21.5,13.4-26.7,14.7
	c-57,14.6-85.4,21.9-89.3,22.7c-7.1,1.4,0.4,0-66.7,16.7c-30.2,7.5-82.3,21.4-109.3,26.7c-12.4,2.4-16.3,2.5-32.7,6
	c-9.9,2.1-10.5,2.5-12,2c-16.6-5.9-19.8-85,20.7-140C657.4,1379.4,674.1,1356.7,701.3,1351.3z"/>
<path class="st0" d="M566.7,1360c20.2-12.4,39.4-15.8,52.7-18c17.6-2.9,31.1-2.4,42.7-2c17.9,0.7,23.8,2.4,54.5,10.5
	c8.5,2.2,18.4,5,21.8,6.6c-2.9,0-6.3-0.8-12.9,2.3c-16.4,7.8-22.1,27.6-26.7,43.3c-3.1,10.8-6.7,29.3-2.7,51.3
	c1.7,9.3,4.3,23.5,14.7,37.3c11.5,15.4,13.7,15.2,21.1,18.1c-31.7,6.4-109.3,36.8-182.9,23.5"/>
<path class="st3" d="M721,1292c5.6-0.9,17.4-3.5,29-12.5c11.2-8.6,16.6-18.8,19-24"/>
<path class="st2" d="M904,1390c-1-1.8-3.2-7.1,12.5-35c10.8-19.2,16.3-28.9,25-34.5c5.8-3.8,14.4-6,31.5-10.5
	c17.8-4.7,19.4-3.4,29-7.5c7.4-3.2,16.2-6.9,25-15c4.6-4.2,6-6.7,11-9.5c3.1-1.8,11.7-6.6,19.5-4c12.2,4,14.3,23.3,14.5,25.5
	c1.6,15.1-5.8,26.7-9.5,32.5c-8.8,13.8-20.6,20.7-29,25.5c-13.2,7.5-18.2,7-36,13.5c-38.3,14-45.7,27.6-70.5,27
	C920.9,1397.8,908.1,1397.5,904,1390z"/>
<path class="st2" d="M1040.5,1340.5c3.7-9.2,16.8-11.1,33-13.5c14.8-2.2,21.7,0.5,24,1.5c3.2,1.4,10.7,4.7,14,12.5
	c4.5,10.7-2.4,21.7-3,22.5c-9.6,14.6-35.3,18.7-52,8C1046.2,1364.9,1036.4,1350.7,1040.5,1340.5z"/>
<path class="st2" d="M1077.5,1359c1.9-11.6,26.4-17.2,43-21c17.2-3.9,25.3-2,28.5-1c4.1,1.2,17.3,5.1,23.5,18
	c0.8,1.7,6.1,12.7,1.5,23c-7.1,15.7-31.6,16.4-36.5,16.5C1107.2,1395.3,1075.2,1373.2,1077.5,1359z"/>
<path class="st2" d="M893.5,1461.5c6,7.1,22.7-4.9,73.5-12.5c16-2.4,27.8-3.2,47.5-4.5c32.2-2.2,43.7-1.2,79-2.5
	c17.4-0.7,34.8,1.4,58-3.5c11.8-2.5,21.3-5.7,28.5-14c2.2-2.6,9.4-11.4,9.5-24.5c0-3.7-0.4-15.8-9-24.5c-7.9-8-18.7-8.9-25-9.5
	c-28.7-2.7-56.8-9.7-85.5-12c-51-4.1-45.7-5.1-51.5-4.5c-45.7,4.3-76.4,32.8-86,42C908.4,1414.5,884.9,1451.3,893.5,1461.5z"/>
<path class="st2" d="M1415,1279c12.5-10.6,19.5-6.8,59.5-21c14.2-5,33.2-11.9,56-24.5c23.5-13,35.3-19.5,44.5-29.5
	c8.5-9.2,12.5-16.8,22-18.5c10.8-1.9,20.5,5.5,27,10.5c3.7,2.8,23.6,18.1,25,41.5c0.9,15.5-6.7,27.5-15,39.5
	c-25.4,36.6-45.7,56.4-82.5,97c0,0-15.3,16.9-48.5,51.5c0,0-8.4,8.7-22.5,21.5c-3.8,3.4-5.7,5.1-6.5,5.5
	c-18.3,8.2-84.6-47.4-83.5-112C1390.6,1334.3,1391.2,1299.1,1415,1279z"/>
<path class="st2" d="M1585.3,1200c-3.1-1.4-2.6-10.6-1.7-29c1.1-20.2,1.6-30.3,5.7-40c4.9-11.6,11.8-18.6,21.7-28.7
	c13-13.3,16.6-12.1,31.7-27.7c9.8-10.1,14.6-15.1,18-22.7c2.7-6,3.6-11.3,9-19.3c3.2-4.8,5.7-8.5,10.7-11c7.6-3.8,15.2-2,17.3-1.3
	c9.6,2.8,14.5,10.6,16.3,13.7c8.2,13.4,5.1,28.2,3.7,35.3c-2.7,13.2-9.2,22.2-12.7,27c-5.6,7.7-11.4,12.6-14.7,15.3
	c-8.8,7.3-16.5,11.1-20,13c-13.1,6.9-21.9,14.6-39.3,30C1600.6,1181.4,1591.5,1202.7,1585.3,1200z"/>
<path class="st2" d="M1593.3,1208.3c1.7-11.6,4.4-28.2,17-44c18.2-22.8,44.9-28.2,55.7-30.3c20.3-4.1,38-7.7,57-1.3
	c5.1,1.7,13.8,5.3,21,1.3c5.5-3,6-8.1,9.7-15.3c11.2-22.1,34.5-30.5,37-31.3c13.3-4.6,24.1-2.8,26.3-2.3c5.2,1,12.6,2.3,18,8
	c7,7.4,6.4,17.8,5.7,29c-1.4,20.6-9.4,36.8-15.3,46.3c-3.6,5.8-10.4,16.5-22.7,26c-14.8,11.5-26.7,12.9-60.7,22.3
	c-27.2,7.6-40.8,11.3-48,14.7c-16.1,7.5-43.2,20.1-65.3,47c-7.3,8.9-9.3,13.5-13.7,13.3C1601.6,1291.2,1587.6,1247.4,1593.3,1208.3z
	"/>
<path class="st2" d="M1674,1113c8.5-2.5,18.1-5.3,31.3-6c19.1-1,33.2,3.1,36.3,4c10,3,39,13.4,38.3,24c-0.8,11.6-37,19.4-62.3,21
	c-42.7,2.7-88.3-10-88.3-21.3C1629.3,1126.3,1654,1119,1674,1113z"/>
<path class="st2" d="M1717.7,1117c-1.2-2.3,0.5-7.9,4-19c3.5-11.3,5.3-17,9.7-22.3c2-2.5,7.2-8.7,16.3-12c3-1.1,10.1-3.5,19-1.3
	c1.7,0.4,10.3,2.7,16.7,10.7c6.6,8.3,8.9,20.1,6,28.7C1780.7,1127,1724.4,1129.9,1717.7,1117z"/>
<path class="st2" d="M1760,1079.3c0-2.5,0-11.8,6.3-20c6.6-8.6,16.1-10.7,20.3-11.7c4.2-1,14.4-3.3,24.3,2
	c11.1,5.8,14.6,17.2,16.7,23.7c2.2,6.9,7.4,23.4-2.3,35.7c-8.9,11.2-24.1,11.1-26,11C1778.3,1119.4,1760.3,1098.6,1760,1079.3z"/>
<g>
	<g id="Layer_2">
		<path class="st2" d="M888.5,402.9c-1.6-5.7-32.6,4.2-83.2-1c-22.7-2.3-46.7-7.3-53.2-8.7c-28.1-6-33.6-9.4-52.2-10.6
			c-18.2-1.3-34.1-2.1-51.2,6.8c-16.1,8.4-24.9,21.2-28,26.1c-7.2,11.5-9.2,21.9-10.6,30c-4.4,24.6,1.3,44.1,2.9,49.3
			c3.1,9.7,8.3,26.3,24.2,39.6c10.2,8.6,22.6,8.8,22.2,12.6c-0.4,3.7-11.3,5.4-15.5,5.8c-5.1,0.5-10,1-13.5-1.9
			c-5.3-4.3-3.9-12.4-5.8-12.6c-1.7-0.1-4.5,6-4.8,12.6c-0.7,13.1,8.5,22.9,10.6,25.1c8,8.6,17.7,11.5,22.2,12.6
			c5.5,1.3,16.4,2.6,31.9-3.9c30.3-12.6,58-46.4,84.1-77.4c49.5-58.7,59.3-66.8,70.6-74.5C866.1,414.7,889.8,407.8,888.5,402.9z"/>
		<path class="st2" d="M992.2,402.9c1.6-5.7,32.6,4.2,83.2-1c22.7-2.3,46.7-7.3,53.2-8.7c28.1-6,33.6-9.4,52.2-10.6
			c18.2-1.3,34.1-2.1,51.2,6.8c16.1,8.4,24.9,21.2,28,26.1c7.2,11.5,9.2,21.9,10.6,30c4.4,24.6-1.3,44.1-2.9,49.3
			c-3.1,9.7-8.3,26.3-24.2,39.6c-10.2,8.6-22.6,8.8-22.2,12.6c0.4,3.7,11.3,5.4,15.5,5.8c5.1,0.5,10,1,13.5-1.9
			c5.3-4.3,3.9-12.4,5.8-12.6c1.7-0.1,4.5,6,4.8,12.6c0.7,13.1-8.5,22.9-10.6,25.1c-8,8.6-17.7,11.5-22.2,12.6
			c-5.5,1.3-16.4,2.6-31.9-3.9c-30.3-12.6-58-46.4-84.1-77.4c-49.5-58.7-59.3-66.8-70.6-74.5C1014.5,414.7,990.9,407.8,992.2,402.9z
			"/>
	</g>
	<path class="st4" d="M628.4,642.4c0.1,1.7-7.1,1.6-13.1,7.3c-1.2,1.2-5.4,5.4-6.3,12.1c-0.3,1.8-1.2,8.2,2.9,13.5
		c5.6,7.3,15.6,6.4,16.9,6.3c8.4-0.9,13.6-6.8,16.4-10.2c7.7-9.1,9.3-19.6,9.7-22.2c0,0,1.6-10.7,17.9-74.5
		c8-31.3,21.1-53.5,29-66.7c17.4-29,36.2-48.2,45-56.6c12.4-11.9,40.2-38,84.1-54.1c15.7-5.8,28.3-8.4,39.2-10.6
		c7.2-1.5,36.7-7.3,79.3-6.8c29.1,0.4,53.6,0.7,85.1,9.7c17.2,4.9,44.2,12.9,72.5,34.3c29,22,44.2,46.6,54.6,63.8
		c19.3,31.9,28.2,62.1,30.9,72c5.9,21.4,13.5,42.5,17.9,64.3c0.5,2.5,2.8,13.8,10.2,26.1c6.4,10.7,12.5,15.1,14.5,16.4
		c3.5,2.4,9.8,6.5,18.9,6.8c2.8,0.1,11.4,0.2,18.9-5.8c2.2-1.8,7-5.6,8.2-12.1c1.4-7.2-2.4-13-4.4-16c-1.5-2.3-4.6-7-10.2-9.2
		c-6.9-2.7-13.4,0.2-13.5-0.5c-0.2-0.7,7.5-4.8,17.4-5.3c12.8-0.7,22.6,5,25.6,6.8c11.4,6.8,16.7,16.4,18.9,20.3
		c7.9,14.7,6.9,28.7,6.3,37.4c-0.5,7.3-1.4,18.2-8.4,30c-5.5,9.3-12.2,14.8-14.8,16.8c-10.6,8.1-21.1,10.1-20.9,10.6
		c0.2,0.5,8.3-1,16.8-5.3c8.6-4.3,13.9-9.5,15.7-11.4c2.4-2.5,5.5-5.7,8.1-10.8c2.8-5.5,2.9-9,3.9-8.9c1.8,0,4.4,12.5,4,25.3
		c-0.2,5.3-1.2,21.6-11.1,39.6c-3.5,6.3-10.5,18.8-25.1,29c-10.4,7.2-20.2,10.3-25.6,11.6c-19.1,4.7-34.7-0.3-34.8,0.5
		c-0.1,0.6,9.1,2.7,19.3,3.1c4.2,0.2,9.7,0.1,16.1-0.8c7.3-1.1,11.7-1.8,16.3-5.1c2.9-2,3.8-3.6,4.5-3.3c1.9,1-1.6,14.9-8.6,26.8
		c-7.6,13-17.6,20.8-23.4,24.7c-8.2,5.4-15,7.7-24.9,10.9c-2,0.7-17.2,5.5-34.8,6.3c-6.1,0.3-10.6,0-15.2-1.2
		c-6.3-1.6-10.5-4.1-10.6-3.9c-0.1,0.3,4.3,3.3,10.5,5.3c4.3,1.4,7.8,1.8,9.7,1.9c6.6,0.6,11.8-0.2,13.2-0.5c5.6-1,7.7-2.4,8.2-1.6
		c1.1,1.5-5.7,9.2-13.2,15.3c-13.3,10.8-27.1,15.1-34.8,17.4c-12.8,3.8-23,4.6-25.8,4.8c-8,0.5-16.2-0.1-32.6-1.5
		c-15.8-1.3-18-2-24-1.1c-9.2,1.3-15.6,4.6-22.4,8.2c-35.8,18.9-35.8,20.5-46.9,25.1c-18.7,7.8-34.5,9.6-40.1,10.2
		c-15.7,1.5-28-0.2-37.2-1.5c-8.8-1.2-19.6-2.8-32.9-7.7c-4.5-1.7-11.8-5.3-26.6-12.6c-15.9-7.8-18-9.2-24.7-11.6
		c-10.5-3.7-19.1-5-24.2-5.8c-11.8-1.8-20.9-1.7-33.4-1.5c-18.8,0.3-18.4,1.8-28.5,1c-13.8-1.2-23.6-4.7-30.5-7.3
		c-5.7-2.1-13.3-5.4-20.8-11.6c-1.2-1-7.8-6.4-6.8-8.2c0.5-0.9,2.8-0.3,6,0c0,0,3.1,0.3,14.3-0.5c13-1,24.8-9.1,24.7-9.5
		c-0.1-0.2-5.1,2.7-13.7,5c-12.4,3.3-22.7,2.8-26.3,2.6c-11.8-0.9-20.3-4.2-26.9-6.9c-6.4-2.6-15.6-6.4-25.3-14.8
		c-8.8-7.6-13.6-15-16.8-20.1c-1.6-2.6-8.9-14.2-6.6-16.3c1-0.9,3.5,0.5,5.5,1.5c6.4,3.2,12.4,4,24.5,5.6
		c15.7,2.1,29.3-3.1,29.2-3.7c-0.1-0.4-8.6,1.6-22.1,1.1c-14.6-0.5-25.4-3.6-28-4.4c-16.1-4.8-26.7-12.1-29.2-13.9
		c-4.7-3.3-12.9-9.2-20.3-19.7c-6.3-8.9-9.1-16.8-11.3-23.4c-5.8-17.2-7.9-37.3-4.8-38.2c1-0.3,2,1.5,4.2,4
		c9.4,10.9,22.4,14.2,25.9,15.1c14.2,3.6,26.5-1.2,26.4-1.5c0-0.2-11.1,3.2-24.7-0.3c-8.6-2.2-14.6-6.3-18.2-8.9
		c-11-7.7-16.7-16.6-17.9-18.5c-2.2-3.6-6.5-11.3-8.2-22.1c-0.8-5.2-2.7-17.4,3.1-31.3c5.9-14.3,16.3-21.8,18.9-23.5
		c2-1.4,13.8-9.2,29.5-8.9C622,639.3,628.3,640.8,628.4,642.4z"/>
	<path class="st5" d="M935.4,389.6c-19.4-0.1-33.2,1.6-40,2.6c-16.8,2.4-53.7,8-93.5,32.2c-34.7,21.1-54.7,46.1-67,61.9
		c-10,12.7-23.1,29.8-33.5,55.4c-9.4,23.3-13.6,46.5-14.8,53.5c-2.8,16.1-2.9,24.6-7.7,45.1c-4.4,18.6-8,27-14.2,34.8
		c-3.8,4.9-10.3,12.9-21.9,16.8c-10.5,3.5-19.8,1.9-24.5,0.6c-5.4-1.5-12.7-3.4-16.8-9.7c-5.4-8.3-1.1-18.1-3.2-18.7
		c-2.1-0.6-8.9,8.2-9.7,18.7c-1.1,14.6,9.9,25.9,13.5,29.7c15.4,15.8,36.1,17.3,38,17.4c15.1,0.9,23.6-5.1,27.1-0.6
		c4.5,5.7-6,20.4-7.1,21.9c-2.2,3.1-9.3,12.7-22.6,16.8c-12,3.7-22.3,0.8-25.1,0c-9.5-2.8-14.1-7.8-15.5-6.4
		c-1.9,1.8,4.4,13.3,13.5,22.6c14.2,14.4,31.3,19,47.1,23.2c16.1,4.3,25.2,6.8,36.7,3.9c14.1-3.5,20.6-12.2,23.9-9.7
		c4,3.2-2.6,19.8-11.6,30.9c-3.8,4.8-9.6,11.9-19.3,14.8c-9.4,2.8-16.8-0.1-17.4,1.9c-0.7,2.4,9.1,8,18,11.6
		c13.4,5.4,24.8,6.4,33.5,7.1c14.2,1.1,22.1,1.7,32.2-1.3c12.8-3.8,19.5-10.7,21.9-8.4c2.9,2.8-4.6,14.8-5.8,16.8
		c-2.6,4.1-6.7,10.9-14.8,15.5c-8.3,4.7-15.5,4.3-15.5,5.8c0,1.5,7.9,2.8,15.5,3.2c12.4,0.7,20.4-1.2,30.3-2.6
		c5.1-0.7,18.8-2.6,30.9-1.9c9.4,0.5,15.6,2.5,40,12.2c37.7,15,36.6,15.8,49.6,20c13.8,4.4,27.6,8.7,46.4,9.7
		c10.5,0.5,26.3,1.3,44.5-4.5c23.8-7.7,24.6-18.1,56.1-32.2c11.2-5,20-9,32.9-11c15.9-2.5,30.7-0.8,49,1.3
		c7.6,0.9,20.2,2.6,36.7,0.6c8.9-1,12.9-2.4,12.9-3.2c-0.1-1.2-8.7,0-18.7-4.5c-3.1-1.4-8-4.2-12.2-9c-3.4-3.8-10-13.1-7.1-17.4
		c1.8-2.6,6.2-2.1,16.8-1.3c9.2,0.8,18.5,1.3,27.7,1.9c7.1,0.5,21.5,1.5,36.1-3.2c20.1-6.5,34.1-21.8,32.9-23.9
		c-0.7-1.1-5.2,2.1-14.8,3.2c-4.2,0.5-12.6,1.4-21.9-1.9c-6.7-2.4-11.6-7-21.3-16.1c-7.3-6.9-7.4-8.3-7.1-9c1.2-3.4,12-1.2,27.1-1.3
		c5.9,0,21.6-0.3,37.4-5.2c8-2.5,23.4-7.5,36.1-21.3c13.1-14.3,18.1-32.3,16.1-33.5c-1.1-0.7-3.7,4.3-11,9
		c-1.3,0.9-10.7,6.8-21.9,7.1c-17.8,0.4-34.5-13.8-32.9-18.7c1-3,7.8-0.2,19.3-3.9c17.7-5.6,27.2-20.3,29-23.2
		c1.4-2.3,7.7-12.8,8.4-27.7c0.5-12.5-3.1-21.5-4.5-24.5c-2.8-6.1-7-12.2-8.4-11.6c-1.4,0.6,1.9,6.8,0.6,14.2
		c-2.2,13-16.7,20.3-18.7,21.3c-14.6,7.1-29,2-32.9,0.6c-15.2-5.3-23.3-16.9-29-25.1c-12.4-18.1-15.7-35.7-17.4-44.5
		c-2.6-20.5-8.4-50.3-22.6-83.8c-13.1-31-31-73.1-72.8-104.4C1042.8,390,979.3,389.7,935.4,389.6z"/>
	<path class="st6" d="M729.9,650.1c-3.1,3.8-9.1,12.4-10.6,24.7c-2.1,16.9,5.5,29.7,7.7,33.4c15.3,24.9,47.2,29,61.9,30.9
		c23.9,3.1,42.6-2,54.6-5.3c13.8-3.8,26.7-7.3,39.6-17.4c22.8-17.8,28-42.4,31.4-41.1c2.6,1,1.7,15.6-4.8,28.5
		c-5.6,10.9-12.8,15.8-11.1,18.9c1.7,3.2,11.3,0.5,20.3-1c35.8-5.7,61.8,10,65.3,2.9c1.1-2.2-1.6-3.2-7.3-15.5
		c-0.5-1.2-5.4-11.9-8.7-26.1c-1.5-6.4-3.1-13.3-1.5-14c1.8-0.8,6,6.6,11.6,14c0,0,12.1,16.1,30,28.5c14.9,10.4,28.8,14.1,39.2,16.9
		c12.2,3.3,34.3,9,61.4,3.4c9.7-2,23.9-5.1,38.2-16c8.1-6.2,20.8-15.8,24.2-32.9c3.2-16.3-4.2-29.7-6.3-33.4
		c-3.5-6.1-8.8-12.6-39.2-29.5c-7.4-4.1-24.7-13.6-53.2-26.1c-30.1-13.2-38.4-14.8-45.4-15.5c-7.3-0.7-20.6-1.8-36.3,3.9
		c-5.6,2-25,9-36.3,27.6c-10.1,16.6-7.5,32.5-12.1,32.9c-4.4,0.4-5.5-14-17.9-30.5c-4.5-5.9-14.1-18.4-30-23.7
		c-12.3-4.1-22.8-2-34.8,0.5c-18.3,3.8-22.3,8.8-52.7,22.2c-11.2,4.9-33.1,14.2-45.4,19.3C745.9,637.5,737.4,640.9,729.9,650.1z"/>
	<path class="st2" d="M756,652.6c-3.6,8-3.2,15.4-2.9,19.8c0.2,3.6,1.8,22.7,16.9,35.3c13.6,11.3,29.9,10.4,43,9.7
		c20.6-1.2,35.1-9,47.9-16c13.6-7.4,27.6-15,38.2-31.4c7.8-12.2,10-23.4,10.6-27.1c1.1-6.6,3-18.6-2.4-31.9
		c-2.5-6.2-5.9-14.6-14-19.3c-12.7-7.4-28.9-0.9-46.9,6.3c-9.3,3.7-7.5,4-27.1,13.5c-21.5,10.4-25,10.6-37.2,17.9
		C761.5,641.5,757.5,649.1,756,652.6z"/>
	<path class="st2" d="M973.5,611.5c-2.3,11.6,0.4,20.8,2.4,27.6c5.4,17.8,15.6,29.2,21.3,35.3c3.4,3.6,15.5,16.2,35.8,25.6
		c10.6,4.9,31.1,12.5,56.6,10.6c13.6-1,24.4-1.7,34.3-10.2c14.9-12.7,15-31.7,15-32.9c-0.2-13.4-6.9-22.7-10.2-27.1
		c-7-9.4-16.4-14.3-34.8-23.7c-20.8-10.6-21.3-8-35.3-16.4c-14.3-8.6-16.1-12.6-27.6-16.4c-15.1-5.1-26.1-2.9-28.5-2.4
		c-4.3,0.9-11.4,2.4-17.9,8.2C976.4,597.1,974.5,606.8,973.5,611.5z"/>
	<path class="st7" d="M1011.7,669c1.2-2.6,3.4-6.4,7.3-10.2c1.9-1.8,7.2-6.5,15.5-8.7c2.6-0.7,12.2-2.9,22.2,1.5
		c11.2,4.8,15.5,11.1,19.3,13.5c0,0,15-0.6,16.4-13.5"/>
	<path class="st7" d="M884.6,669c-1.2-2.6-3.4-6.4-7.3-10.2c-1.9-1.8-7.2-6.5-15.5-8.7c-2.6-0.7-12.2-2.9-22.2,1.5
		c-11.2,4.8-15.5,11.1-19.3,13.5c0,0-15-0.6-16.4-13.5"/>
	<g id="XMLID_1_">
		<g>
			<path class="st8" d="M1000.6,815.2c0,7.3-2.6,14.2-7,20.2c-7.7-6.2-19.2-11.2-28.2-8.8c-7,1.8-16.9,7.7-16.9,7.7
				s-13.4-6.2-22.7-7.3c-9.1-1-19.5,4.1-24.9,9.6c-5.1-6.2-8-13.6-8-21.4c0-22.6,25.5-22.5,55.1-28.3
				C977.7,787,1000.6,792.7,1000.6,815.2z"/>
			<path class="st9" d="M993.6,835.4c-9.3,12.3-26.8,20.7-46.9,20.7c-19.4,0-36.4-7.8-45.9-19.4c5.4-5.5,15.7-10.6,24.9-9.6
				c9.4,1.1,22.7,7.3,22.7,7.3s10-5.9,16.9-7.7C974.4,824.2,985.8,829.2,993.6,835.4z"/>
		</g>
		<g>
			<path class="st3" d="M900.8,836.7c-5.1-6.2-8-13.6-8-21.4c0-22.6,25.5-22.5,55.1-28.3c29.8,0,52.7,5.7,52.7,28.3
				c0,7.3-2.6,14.2-7,20.2c-9.3,12.3-26.8,20.7-46.9,20.7C927.3,856.1,910.3,848.3,900.8,836.7z"/>
			<path class="st3" d="M900.8,836.7c5.4-5.5,15.7-10.6,24.9-9.6c9.4,1.1,22.7,7.3,22.7,7.3s10-5.9,16.9-7.7
				c9-2.4,20.5,2.6,28.2,8.8"/>
		</g>
	</g>
	<path class="st10" d="M839.6,778.3c2.9-0.4,6.7-0.4,9.2,1.9c2.6,2.4,2.4,5.8,2.9,9.2c1.3,9.3,7.1,15.9,10.2,19.3
		c7,8,16.5,10.1,22.7,11.6c17.1,4,31-1.5,35.8-3.4c5.9-2.4,13.5-5.6,19.8-13.5c4.9-6.2,6.5-17.4,7.4-21.3"/>
	<path class="st10" d="M945.5,750.2l2.5,36.7c0.9,3.9,2.8,10.3,7.7,16.4c6.3,8,13.9,11.2,19.8,13.5c4.8,1.9,18.7,7.3,35.8,3.4
		c6.3-1.5,15.7-3.6,22.7-11.6c3.1-3.5,8.8-10,10.2-19.3c0.5-3.4,0.3-6.8,2.9-9.2c2.5-2.3,6.3-2.3,9.2-1.9"/>
	<path class="st3" d="M924.2,867.2c1.2,2.3,3.7,6.3,8.2,9.7c6.7,4.9,13.7,5.2,16.9,5.3c3.4,0.1,11.8-0.1,19.8-5.8
		c3.8-2.7,6.3-5.7,7.7-7.7"/>
	<line class="st11" x1="767.6" y1="715.4" x2="734.2" y2="729.1"/>
	<line class="st11" x1="773.9" y1="719.9" x2="750.9" y2="740.1"/>
	<line class="st11" x1="785.5" y1="722.3" x2="773.9" y2="744.4"/>
	<line class="st11" x1="798.1" y1="729.1" x2="785.5" y2="744.4"/>
	<line class="st11" x1="776.3" y1="727" x2="760.3" y2="742"/>
	<line class="st11" x1="748.4" y1="717.7" x2="728.9" y2="727"/>
	<line class="st11" x1="1099.2" y1="722.4" x2="1109.4" y2="738.3"/>
	<line class="st11" x1="1109.4" y1="722.4" x2="1125.8" y2="738.3"/>
	<line class="st11" x1="1125.8" y1="722.3" x2="1138.9" y2="736.8"/>
	<line class="st11" x1="1134.1" y1="715.4" x2="1152.9" y2="738.3"/>
	<line class="st11" x1="1145.7" y1="719.9" x2="1160.6" y2="730.3"/>
	<line class="st11" x1="1090.5" y1="727" x2="1106.5" y2="744.4"/>
	<line class="st11" x1="1109.4" y1="727" x2="1117.6" y2="744.4"/>
	<path d="M973.2,756h-61.3c-10.5,0-19-8.6-19-19v-2.6c0-10.5,8.5-19,19-19h61.3c10.5,0,19,8.5,19,19v2.6
		C992.2,747.5,983.6,756,973.2,756z"/>
	<path class="st5" d="M974.5,738.3h-36.4c-5.1,0-9.2-4.1-9.2-9.2v0c0-5.1,4.1-9.2,9.2-9.2h36.4c5.1,0,9.2,4.1,9.2,9.2v0
		C983.7,734.2,979.6,738.3,974.5,738.3z"/>
</g>
<path class="st3" d="M783.3,1542c11.6,2.3,27.6,5,46.7,7.3c10.6,1.3,59,6.8,128.7,2.7c33.6-2,68.7-4.1,114.7-14.7
	c42-9.7,76.1-22.6,100.7-33.3"/>
<path class="st3" d="M873.3,1529.3c32.4,1,59.2-1.7,78.7-4.7c27.1-4.2,50.7-8,78-22c15.8-8.1,27.6-16.9,35.3-23.3"/>
<path class="st12" d="M733,1364.3c40.3,6,67.4,10.5,85.7,13.7c5.6,1,17.5,2.7,41.3,6c26.7,3.7,29.7,3.9,33.3,2.7
	c1-0.3,4.2-1.5,6.3,0c2.4,1.7,1.3,5.5,2,10c1.4,9.2,8.8,11.8,8.3,15c-1.1,7.1-38.9,6.8-66,7c-74.7,0.4-112.1,0.7-113.3,1
	c-5.3,1.4-15.3,4.3-20.3-0.7c-7.1-7-0.5-26.3,6.7-37.7C722.3,1373,728.6,1367.5,733,1364.3z"/>
<path class="st12" d="M935.3,1333.3c5.5-8.6,10.3-12.2,13-14c6.5-4.3,11.5-4.8,23.7-7c21.9-4,32.8-6.1,39.3-10
	c7.2-4.4,16.2-12.3,20-15.7c4.3-3.8,8.7-8,16-10c6.4-1.8,9.1-1.3,10-1c5.3,1.9,8.3,8.2,8.7,13c0.8,10.2-9.4,18.3-14.7,22.3
	c-12.4,9.5-22.5,10.8-43.3,16.3c-27.9,7.4-41.8,11.1-53.3,19c-21.3,14.5-26.9,32.6-31,30.7C919,1374.8,924,1351,935.3,1333.3z"/>
<path class="st12" d="M1068.3,1374.3c0.4-6.3,27.8-9.4,40.2-10.8c4.8-0.5,20.7-2.2,41.2,0.5c20.5,2.7,25.1,7.1,27,11
	c0.2,0.5,2.7,5.9,0.3,10.3c-2.7,4.9-9.8,5.9-36.7,5.3c-32.4-0.7-41.1-2.6-47.3-4.3C1085.4,1384.2,1068,1379.4,1068.3,1374.3z"/>
<path class="st12" d="M1074.3,1360.7c-0.6-2.5,14.9-8,36-15.7c6-2.2,14-4.9,24.7-5.3c4.9-0.2,17.5-0.7,19.3,4.3c1,2.8-1.5,6.6-4,8.7
	c-5.8,4.9-14.7,3.2-17.7,2.7C1105.4,1350.8,1075.2,1364.1,1074.3,1360.7z"/>
<path class="st12" d="M1078,1329.7c0.7-0.4,9.6-4.5,15.7,0.3c0.4,0.3,4.4,3.5,3.7,6.7c-1,4.1-9,4.1-19.7,7.3
	c-16.1,5-24.8,13.5-25.7,12.3c-0.7-1,7.1-5.6,16.7-17.3C1072.6,1334.2,1074,1331.6,1078,1329.7z"/>
<path class="st12" d="M1417.5,1283c-8.8,9.2-11.6,23.1-13,30c-2.5,12.4-1.4,22.1-0.5,29c1.9,15,3.5,27.8,11,31.5
	c9.1,4.5,22.8-6.3,36-17c37-29.9,55.5-44.8,69-57.5c56-52.4,98.5-69,93.5-82.5c-1-2.6-5.5-1.4-17.5-8c-7.8-4.3-8-5.9-11-6
	c-7.2-0.3-10.8,8.4-22.5,19.5c-3.5,3.3-8,6.5-17,13c-38.4,27.6-80,36-80,36C1438.5,1276.5,1427.9,1272.1,1417.5,1283z"/>
<path class="st12" d="M1620.5,1175.8c-4.1-7.9,12-23.6,14.3-25.8c2.4-2.4,14-13.2,33.3-17.5c9.7-2.2,17-1.7,31.5-0.8
	c12.8,0.8,21.6,2.8,31.5,5c12.3,2.7,18.5,4.2,18.8,6.3c0.5,4-13.3,7.5-46,19.5c-25.7,9.5-32.6,13-48,15.5
	C1643.6,1180,1624.3,1183.1,1620.5,1175.8z"/>
<path class="st12" d="M1592,1159.5c-5.1-6.1-1-16.7,2-24.3c2.7-6.8,5.5-13.9,12.8-19.5c6.8-5.2,13.7-6.1,23.8-7.5
	c4.3-0.6,10.1-1,23.3-0.3c17.3,1,34.4,2.1,34.8,5.5c0.2,2.5-8.5,3.9-30.3,13.3c-11.7,5-17.5,7.5-21.8,10.8c-6.3,4.7-8.3,8.1-21.3,19
	c-5,4.2-9,7.2-14.3,7C1600.1,1163.5,1595.1,1163.1,1592,1159.5z"/>
<path class="st12" d="M1666.3,1092.3c-1.6-4.6,5.1-7.2,9-17.8c3.6-9.9-0.4-12.7,2.5-26.5c1.8-8.5,3.6-17,10.3-20
	c6.3-2.9,14.2,0.5,18.5,4c8.3,6.6,8.7,17.5,9,24.3c0.2,4.6,0.7,17.6-8.5,29c-1.8,2.2-9.6,11.8-22.3,13
	C1678.3,1098.9,1668.1,1097.5,1666.3,1092.3z"/>
<path class="st12" d="M1777.3,1054c-5.4,3.4-8.6,7-10.5,9.5c-3.8,5.1-5.6,11.9-9,25.5c-1.7,6.5-2.1,9.5-1.5,13.3
	c0.3,2.1,1.6,9.6,6.5,11.3c4.8,1.6,11-3.4,14-8.3c3.7-6,0.5-8.6,3.5-18.3c2.1-6.8,5.6-11.7,9.5-17.3c4.3-6.1,8.5-6.8,8.3-10
	c-0.3-3.9-5.6-6.9-9.8-7.8C1782.9,1050.9,1778.5,1053.2,1777.3,1054z"/>
<path class="st12" d="M1727,1102.3c-3.1-3-1.6-8.5-0.3-13.8c0.4-1.6,3.5-12.7,13.8-19.8c4.6-3.1,6.1-2.4,6.5-2.3
	c2.2,1.2,1.9,5.7,1.5,10.3c-0.2,2.8-0.9,9-4.5,17c-2.1,4.8-3.3,7.3-5.8,8.8C1734.9,1104.5,1729.7,1104.9,1727,1102.3z"/>
<path class="st12" d="M1786.8,1133c-3.3-6.9,0-14.3,3.3-21.8c1.8-4.1,4.3-9.6,10-14.3c3.2-2.6,8.3-6.8,13-5.3
	c5.5,1.7,7,9.9,7.5,12.5c2.6,13.9-7.1,25.3-9.3,27.8c-3.7,4.3-8.2,9.6-14.3,9C1792.2,1140.5,1788.4,1136.5,1786.8,1133z"/>
<path class="st13" d="M794,1624.7c1-2.8,30,4.6,77.3,16.7c51.9,13.3,58.9,16.5,84,20.7c21.9,3.6,42.5,7,69.3,5.3
	c44.1-2.7,79.9-17.5,79.3-20c-0.4-1.7-18.4,2.9-55.3,5.3c-25.2,1.7-46.7,3.1-72.7-0.7c-36.1-5.2-66.6-18.2-66-20.7
	c0.4-1.7,16.3,2.4,48,6c23.8,2.7,52.6,5.9,87.3,3.3c24.7-1.8,44.5-6,66.7-10.7c31.7-6.7,47.6-10,53.3-12c13.2-4.5,17.3-7.2,23.3-5.3
	c8.5,2.6,13.1,11.7,24.7,56.7c12.6,49,13,60.7,12.7,69.3c-0.4,11.8-0.9,25.4-6.7,40c-18.8,47.2-77,62.6-74.7,68
	c1.4,3.2,22.7-0.3,44-10.7c28-13.6,36.1-29.5,44-26c8.1,3.6,0.5,20.6,6,62.7c2.3,17.5,5,25.1,0,32c-8.8,12.2-32.4,8.9-39.3,8
	c-60.8-7.9-122.8-1.4-184-5.3c-111.9-7.3-167.8-10.9-220,0.7c-16.2,3.6-51.8,12.5-65.3-4c-6.8-8.3-5.4-19.8,0-46
	c12.7-61.9,18.8-66.2,26-104c5.3-28,14.3-55.1,21.3-82.7c1.3-5,3.6-14.1,11.3-19.3c12.5-8.4,30.1-0.8,48.7,6
	c48.8,17.8,87.1,23.3,87.3,22.7c0.2-0.6-30.8-10.8-68-26C844.4,1649.7,792.7,1628.5,794,1624.7z"/>
<path class="st14" d="M526,1413.3c-2.3-12.4,22.8-27,40.7-37.3c9.7-5.6,24.2-13.9,45.3-18.7c5.8-1.3,23.7-1.6,59.3-2
	c19.4-0.2,29.2-0.3,30.7,4c1.5,4.3-7.5,7.4-15.3,20.7c-9.1,15.4-9.9,33-10,36.7c-0.3,11.7,2.3,14.9-0.7,18.7
	c-5.3,6.7-18.4,2.6-36.7,0c-34.9-5-36.3,2.9-67.3-2.7C553.1,1429.3,528.2,1424.8,526,1413.3z"/>
<path class="st14" d="M511.3,1406.7c5.8-8.2,11.6-16.3,21.3-23.3c12.7-9.2,23.8-10.5,23.3-12.7c-0.4-2.1-11.5-2.5-22,0
	c-12.8,3.1-19,9.1-20,8c-1.6-1.9,13.5-20.9,36-35.3c8-5.1,20.1-12.8,38-16.7c5.7-1.2,22.3-4.7,42.7-0.7c14,2.7,22.6,7.6,24,5.3
	c1.6-2.6-7.8-11.6-15.3-17.3c-15.1-11.5-28.3-14.2-28-15.3c0.4-1.4,20.2-2.6,33.3,9.3c5.4,5,9.5,12,20.7,19.3c3,2,6,3.6,8.7,2.7
	c5.1-1.7,6.1-11.1,6.7-15.3c2.2-16.8,9.4-40.2,20-54c10-13,15.3-7.5,32-25.3c12.8-13.7,17.9-25.8,20.7-24.7
	c2.8,1.2,0.3,14.9-2.7,24.7c-5.7,18.7-14.7,28.1-12.7,30c1.9,1.8,12.3-4.1,20-13.3c11.6-13.9,10.7-27.8,15.3-28
	c4.6-0.2,10.9,13.3,11.3,26.7c0.7,22.1-15,40.1-16.7,42c-7.1,8-11.3,8.6-13.3,15.3c-3.7,11.9,4.7,24.1,7.3,28
	c2.3,3.4,9,12.2,24,19.3c22.5,10.6,29.2,1.1,63.3,9.3c15.1,3.6,21.9,7.4,32,4c2.3-0.8,8.4-3.2,20-16.7c8.3-9.6,16.7-19.5,22.7-34.7
	c9.1-23.4,6.3-44.3,4-60c-3.2-22.1-7.5-19.7-12.7-44.7c-8.1-39.1,0.9-52.4-12-67.3c-3.6-4.1-12.8-8.5-31.3-17.3
	c-24.5-11.7-30.7-11.7-44.7-20c-4.9-2.9-19.1-11.5-31.3-26c-25.5-30.2-17.1-55.8-37.3-65.3c-7.5-3.5-17-2.1-36,0.7
	c-10.3,1.5-27.3,4-44.7,13.3c-5.2,2.8-21.3,12.1-41.3,40c-20.2,28.2-29.1,54-41.3,90.7c-15.4,45.9-11.6,49.4-23.3,69.3
	c-18,30.5-42.4,48.9-39.3,52.7c1.9,2.4,11.3-5.3,29.3-9.3c23.2-5.2,43.9-0.8,44,1.3c0.1,2.4-27.4-2.2-55.3,13.3
	c-17,9.5-27.2,22.5-38.7,37.3c-14.8,19.1-25.6,39.7-23.3,41.3c1.4,1.1,7.2-6.8,21.3-16.7c12.3-8.6,25.1-14.7,26-13.3
	c1.1,1.6-17.1,11.2-31.3,32.7c-11.1,16.7-15.5,34.1-13.3,35.3c1.4,0.7,4.8-4.9,15.3-13.3c5.1-4,11.9-8.8,12.7-8
	c1,1.1-11.7,10.6-19.3,28c-4.4,10-6,20.2-4.7,20.7C496.8,1433.2,500.6,1421.8,511.3,1406.7z"/>
<path class="st14" d="M807,980.7c-10.1,9.8-1.5,33.6,3,46.3c5.6,15.7,12.2,34.1,29.7,48.7c19.1,15.9,48.3,25,54.7,27
	c9.5,3,18.3,4.9,26,13c6.4,6.7,8.3,13.9,11.3,25.7c10.6,41.6,10.8,50.4,17.7,67.7c6.3,15.9,14,28.8,15,28.3c0.9-0.4-4-11.4-9-29.3
	c-4.5-16.1-6.6-28.8-8.3-39.3c-4.4-26.4-6.6-39.7-7-45c-0.6-7-0.7-11.8-4-17c-3.6-5.7-9-8.9-24-14.7c-17-6.6-19.7-6.2-31-10.7
	c-16.4-6.4-24.6-9.7-32-17.7c-3.5-3.8-7.4-13.6-15.3-33.3c-6.8-16.8-10.1-25.3-11-30.7c-1.9-11.7-0.7-20.3-5.3-22.3
	C814.2,975.9,809.6,978.1,807,980.7z"/>
<path class="st14" d="M1010.3,1082.7c8-11.1,21.4-5.1,40-16c8.8-5.1,13.9-11.2,23-22c5.4-6.4,12.6-15.1,18.3-28
	c3.2-7.2,5-13.6,7.3-22c4.7-17,5.7-27.1,9-27.3c2.5-0.2,2.7,5.4,9.3,10.3c5,3.7,8,2.9,10,5.7c3.6,4.9-1,13.9-3.7,19.3
	c-16.3,32.9-9.3,29.6-19.7,44.7c-4.7,6.9-14.2,20.5-31.3,32c-9.8,6.6-16.6,11.2-27,13c-10.8,1.9-16.6-0.7-22.3,3.7
	c-6.7,5.1-7,15-7.3,22c0,0-1.1,24.1-6.7,63.7c-4,28-13.7,50.7-15.3,50.3c-0.9-0.2,0.5-8,3.3-30.3c3-24.2,4.6-36.3,5.3-48.7
	c0.6-9.1,1.4-27.7,3.7-53.3C1007.2,1089.9,1007.6,1086.5,1010.3,1082.7z"/>
<path class="st14" d="M998,1276c-0.7-1.7,13-5.7,24.7-17.3c18.2-18.2,20.1-44.3,21.3-60.7c3-39.8-10.7-55.6,1.3-70
	c6.6-7.9,11.5-4,31.3-14.7c23.8-12.8,37.7-29.7,40.7-33.3c6.7-8.4,21-26.2,26-52c2.4-12.4,2.2-24.2,9.3-27.3
	c5.2-2.2,11.2,1.4,14.7,3.3c28,15.8,31.8,6.3,58.7,22c25.2,14.7,39.7,33.5,46.7,42.7c13.2,17.3,20.3,36.2,34,73.3
	c22.6,61.1,16.2,65.1,32.7,90.7c7.4,11.5,20.8,29.5,16.7,34c-2.5,2.7-8.7-2.5-18.7-0.7c-13.9,2.5-23.2,16.4-22,18
	c1,1.3,8.3-6.3,22-8.7c14.5-2.5,29.8,2,30,6c0.2,3.1-8.5,3.3-21.3,11.3c-12.9,8.1-20.3,18-25.3,24.7c-9.4,12.5-15.1,25.3-14,26
	c0.9,0.6,6-7.3,18-18.7c3.3-3.1,11.5-11,12.7-10c1.2,1-7.4,10.4-16,28c-4.4,9.1-7.7,16-9.3,26c-1.6,10.2-0.3,16.3-2,16.7
	c-2.5,0.6-8.7-11.3-10.7-24c-2-12.5,0.7-22.9,2-27.3c4.8-15.9,13.9-23.4,12-25.3c-1.9-1.9-12.9,3.5-20.7,12.7
	c-8.1,9.5-9.3,19-10.7,18.7c-1.7-0.4,0-16.5,4-32.7c3.7-14.9,5.5-22.3,11.3-30c9.9-13,22.8-15.9,22-18c-0.8-2-13.1-1.4-22,6
	c-7.9,6.6-8.6,14.8-11.3,14.7c-5.5-0.3-7.8-31.3-8-34c-2-28.6,0.9-38.3,1.3-67.3c0.7-40.4-4.1-56.6-10-68.7
	c-4.8-10-11.8-20.2-14-19.3c-1.3,0.5-0.5,4.9,1.3,21.3c1.5,13.7,1.7,17.7,0.7,18c-1.7,0.5-4.4-10.2-14.7-20.7
	c-2.9-2.9-8.1-7.6-9.3-6.7c-1.8,1.3,6.9,12,11.3,28.7c2.1,8.1,2.5,14.6,2.7,22.7c0.9,42.8,1.6,74.9-11.3,114
	c-7.8,23.7-14.1,30.2-16.7,32.7c-12.2,11.6-27.1,13.9-49.3,17.3c-4.9,0.8-24.1,3.5-47.3-1.3c-12.8-2.7-15.7-5.3-17.3-7.3
	c-7.6-9.8,3.2-21.6-2.7-37.3c-3.8-10.2-13.5-19.3-24-21.3c-10.5-2.1-15.5,4.1-37.3,13.3C1019.9,1273.1,998.9,1278.1,998,1276z"/>
<path class="st14" d="M964.7,1536.7c0.3,1.9,34.9-1.8,57.3-4.7c30.2-3.8,45.6-5.8,61.3-10.7c16.3-5,28.4-11.1,52.7-23.3
	c12.9-6.5,27.4-14.4,42.7-28c6.3-5.6,16.5-14.7,14.7-18c-2.7-4.8-29.9,5.8-40.7,10c-19.1,7.4-32.2,14.6-48.7,23.3
	c-28.3,15-42.5,22.6-50,26C1005.5,1533.6,964.4,1534.6,964.7,1536.7z"/>
<path class="st14" d="M846,1518c0.1,1.2,27.8,1.1,59.3-2c24.5-2.4,42.7-4.2,64.7-10.7c39.7-11.7,72-32.8,70.7-36
	c-0.9-2-19.7,4-57.3,16c-46.6,14.8-50.3,17.7-71.3,22.7C873.7,1517,845.9,1516.8,846,1518z"/>
<path class="st14" d="M1037.3,1560.7c0-0.8,24.9,2.9,60-6c16-4,30.6-7.7,47.3-18c20.5-12.6,29.6-26.1,36.7-22.7
	c4.9,2.4,6.5,11.8,4,18.7c-4.4,12.4-22,16.7-40.7,20C1088,1562.8,1037.3,1561.9,1037.3,1560.7z"/>
<path class="st14" d="M1378.7,1307.3c-3.9-2.6-21.7,12.9-34,34c-13.4,23.1-17.7,48.7-13.3,50.7c2.7,1.3,5.8-8.4,18.7-14.7
	c12.1-5.9,20.2-2.7,24-8.7c3.1-4.8-0.4-9.7-2-18.7C1367.8,1326.4,1382.5,1309.9,1378.7,1307.3z"/>
</svg>
