<svg xmlns="http://www.w3.org/2000/svg" viewBox="0 0 614.2 614.2">
    <defs>
        <style>.cls-1{fill:#fff;}.cls-2{fill:#56463b;}.cls-3{fill:#939393;}.cls-4{fill:#11113f;}</style>
    </defs>
    <title>formula</title>
    <g id="Слой_2" data-name="Слой 2">
        <g id="Слой_1-2" data-name="Слой 1">
            <circle class="cls-1" cx="307.1" cy="307.1" r="307.1"/>
            <path class="cls-2" d="M133.52,170.14h368s-2,272.67-1.67,274.67-366.33,1-366.33,1Z"/>
            <polygon class="cls-1" points="325.85 391.81 476.52 391.81 476.52 420.47 324.52 422.14 325.85 391.81"/>
            <polyline class="cls-3"
                      points="155.52 192.14 474.19 194.14 476.52 386.81 326.52 388.81 324.52 422.14 157.52 420.14 155.52 193.81"/>
            <path class="cls-4"
                  d="M500.52,161.81H132a7.48,7.48,0,0,0-7.52,7.44s0,0,0,.05h0V445.12A7.48,7.48,0,0,0,132,452.6H500.52a7.48,7.48,0,0,0,7.48-7.48h0V169.3a7.48,7.48,0,0,0-7.47-7.49ZM493,437.62H139.3V176.56H493.06Z"/>
            <path class="cls-4"
                  d="M412.16,331.94H399.59a17.42,17.42,0,0,1-17.42-17.42h0V299.9a17.42,17.42,0,0,1,17.42-17.25h12.56a7.5,7.5,0,0,0,0-15H399.59a32.44,32.44,0,0,0-32.44,32.44h0v14.63a32.44,32.44,0,0,0,32.44,32.44h12.56a7.5,7.5,0,0,0,0-15h0Z"/>
            <path class="cls-4"
                  d="M446,250h-5.58a29.26,29.26,0,0,0,9.32-18.76,17.31,17.31,0,0,0-16.21-18.31h-2.1a18.31,18.31,0,0,0-18.31,18.31,7.5,7.5,0,0,0,15,0h0a3.29,3.29,0,0,1,3.29-3.29h0c2.85,0,3.29.95,3.29,3.29,0,3.68-8.77,13.29-18.42,20.16A7.48,7.48,0,0,0,420.62,265h25.12a7.5,7.5,0,0,0,0-15Z"/>
            <path class="cls-4"
                  d="M357.52,267.81a7.48,7.48,0,0,0-8.37,2.57l-18.31,24.23L312.52,270.3A7.48,7.48,0,0,0,299,274.81v64.5a7.5,7.5,0,0,0,15,0v-42.1l11.17,14.4a7.48,7.48,0,0,0,11.95,0l11.17-14.4v42.1a7.5,7.5,0,1,0,15,0h0V275A7.48,7.48,0,0,0,357.52,267.81Z"/>
            <path class="cls-4" d="M268.72,308.33h-27.2a7.5,7.5,0,1,0,0,15h27.3a7.5,7.5,0,0,0,0-15h-.1Z"/>
            <path class="cls-4" d="M268.72,331.94h-27.2a7.5,7.5,0,0,0,0,15h27.3a7.5,7.5,0,1,0,0-15h-.1Z"/>
            <path class="cls-4"
                  d="M219.52,331.94H194.07V314.69h23.51a7.5,7.5,0,0,0,0-15H194.07V282.64h25.45a7.5,7.5,0,0,0,0-15h-33a7.48,7.48,0,0,0-7.48,7.48h0v64.19a7.48,7.48,0,0,0,7.46,7.5h33a7.5,7.5,0,1,0,0-15h0Z"/>
            <path class="cls-4"
                  d="M478,184.6H154.21a7.48,7.48,0,0,0-7.48,7.48h0v79.39a7.5,7.5,0,0,0,15,0h0V199.73H470.44V383.14H459.28a7.5,7.5,0,0,0,0,15h11.17v16.67h-139v-16.7H459.28c4.13,0,2.91-.83,2.91-5s1.22-10-2.91-10H323.88a7.48,7.48,0,0,0-7.48,7.48h0v24.34H161.74l-.06-143.49c0-4.13-3.37-1.67-7.5-1.67s-7.46-2.46-7.46,1.67l.06,150.75a7.48,7.48,0,0,0,7.48,7.48H478.09a7.48,7.48,0,0,0,7.48-7.48h0V192.14a7.48,7.48,0,0,0-7.42-7.54H478Z"/>
        </g>
    </g>
</svg>