<svg xmlns="http://www.w3.org/2000/svg" viewBox="0 0 614.2 614.2">
    <defs>
        <style>
            .cls-1{fill:#fff;}.cls-2{fill:#fff4de;}.cls-3{fill:#aaa971;}.cls-4{fill:#acd4ef;}.cls-5{fill:#b1b6ba;}.cls-6{fill:#fffaa6;}.cls-7{fill:#11113f;}
        </style>
    </defs>
    <title>genious</title>
    <g id="Слой_2" data-name="Слой 2">
        <g id="Слой_1-2" data-name="Слой 1">
            <circle class="cls-1" cx="307.1" cy="307.1" r="307.1"/>
            <polygon class="cls-2"
                     points="197.44 392.21 213.1 469.77 232.47 495.11 296.77 521.11 342.77 511.77 393.44 477.11 416.77 386.44 348.11 325.09 197.44 392.21"/>
            <polygon class="cls-3"
                     points="202.77 417.11 193.72 346.44 217.44 289.11 289.07 249.11 359.44 261.11 407 316.44 419.44 367.11 412.11 392.21 362.11 345.77 328.77 369.11 235.44 411.77 202.77 417.11"/>
            <circle class="cls-4" cx="348.11" cy="421.77" r="29.56"/>
            <circle class="cls-4" cx="260.77" cy="421.77" r="28.3"/>
            <rect class="cls-5" x="276.11" y="289.11" width="57.33" height="35.98"/>
            <polygon class="cls-6"
                     points="284.14 130.44 338.77 136.42 369.44 179.45 362.77 224.44 335.44 261.77 326.79 285.11 280.77 285.11 272.11 257.11 248.77 225.11 236.77 179.45 284.14 130.44"/>
            <path class="cls-7"
                  d="M292.69,157.31a39.17,39.17,0,0,0-27.09,37.3,8,8,0,0,0,15.94,0,23.35,23.35,0,0,1,16.05-22.18,8,8,0,0,0-5-15.18Z"/>
            <path class="cls-7" d="M197.44,141.49l23.33,13.62a8,8,0,0,0,8-13.84l-23.33-13.62a8,8,0,0,0-8,13.84Z"/>
            <path class="cls-7"
                  d="M425.27,254.62,395,237.11a8,8,0,0,0-7.88,13.6l30.3,17.51a8,8,0,0,0,9.1-13.11l-.53-.35Z"/>
            <path class="cls-7" d="M213.44,194.32a8,8,0,0,0-8-7.82H151.25a8,8,0,0,0-1.34,15.94h55.53a8,8,0,0,0,8-8Z"/>
            <path class="cls-7"
                  d="M434.72,186.5H377.81A73.38,73.38,0,1,0,237.71,224l-39.52,22.83a8,8,0,1,0,7.41,14.19l.58-.35,39.52-22.83,2.1,2.74c3,3.74,5.84,6.95,8.23,9.87a123.35,123.35,0,0,0-68.53,79.68c-7.06,23.35,0,61.24,5,86.16l1.05,5.84h0L194.6,428c8.93,54.06,16.7,61.18,42.26,77.47,3.56,2.28,7.53,4.79,11.68,7.76H249a110.57,110.57,0,0,0,55.43,15.87h0A110.57,110.57,0,0,0,360,513.41h.47c4.38-3,8.41-5.84,11.68-7.76,25.63-16.29,33.39-23.35,42.26-77.47.53-3.09,1.28-7,2.16-11.68,4.79-24.93,12-62.58,5-86.16a123.35,123.35,0,0,0-68.07-80c2.51-2.92,5.2-5.84,8.23-9.87a73.5,73.5,0,0,0,15.88-38.18h56.92a8,8,0,0,0,0-15.94ZM364.26,491.92c-3.56,2.28-7.59,4.85-12.08,7.88a89.55,89.55,0,0,1-94.63,0c-4.5-3-8.52-5.84-12.08-7.88-21.31-13.54-26.74-17-34.62-63.57h11.68a40.46,40.46,0,0,0,79.28,0h6.48a40.46,40.46,0,0,0,79.28,0h11.68c-8.17,46.7-13.6,50-35,63.57ZM237.53,420.41A24.46,24.46,0,1,1,262,444.87h0A24.46,24.46,0,0,1,237.53,420.41Zm134.68,0a24.46,24.46,0,1,1,0-.06Zm29.54-8H387.09a40.46,40.46,0,0,0-79.28,0h-6.19a40.28,40.28,0,0,0-7.94-17.16,308.7,308.7,0,0,0,65.15-39.46,126.74,126.74,0,0,0,46.7,36.49c-1.34,7.3-2.63,14.13-3.74,20Zm5.2-77.7a112.43,112.43,0,0,1,.82,41.27,118.62,118.62,0,0,1-40.86-36,8,8,0,0,0-11.09-2.22h0l-.88.7a287.74,287.74,0,0,1-75.13,45.59,40.4,40.4,0,0,0-57.37,28.36H208.11c-4.2-22.07-11-58.38-5.2-77.7a107.12,107.12,0,0,1,63.81-71.45,32.22,32.22,0,0,1,6.48,16.64,8,8,0,0,0-6.19,7.76v29.6a19.61,19.61,0,0,0,19.61,19.61h36.6a19.61,19.61,0,0,0,19.61-19.61h0V287.78a8,8,0,0,0-6.19-7.88,32.22,32.22,0,0,1,6.49-16.79,107.12,107.12,0,0,1,63.81,71.6Zm-124-17.51V295.6h43.84v21.6a3.68,3.68,0,0,1-3.62,3.62h-36.6a3.68,3.68,0,0,1-3.56-3.44Zm66.55-86.92c-3.62,4.44-6.83,8.17-9.69,11.68-11.09,12.84-17.51,20.43-19.26,37.94H289.31c-1.46-17.51-8.23-25.1-19.26-37.94-2.86-3.33-5.84-7.06-9.69-11.68a58.38,58.38,0,0,1-5.08-7.36h0a56.74,56.74,0,0,1-7.65-28.66,57.45,57.45,0,0,1,114.89,0,56.74,56.74,0,0,1-13,36.19Z"/>
            <path class="cls-7"
                  d="M391,152.35a7.94,7.94,0,0,0,4-1.05l27.15-15.7a8,8,0,0,0-7.41-14.19h0l-.58.35-27,15.7a8,8,0,0,0,4,14.89Z"/>
        </g>
    </g>
</svg>