<svg xmlns="http://www.w3.org/2000/svg" viewBox="0 0 673 673">
    <defs>
        <style>
            .cls-1{fill:#fff;}.cls-2{fill:#6d387a;}.cls-3{fill:#e3f498;}.cls-4{fill:#c11036;}.cls-5{fill:#f41e42;}.cls-6{fill:#11113f;}
        </style>
    </defs>
    <title>gift-1</title>
    <g id="Слой_2" data-name="Слой 2">
        <g id="Слой_1-2" data-name="Слой 1">
            <circle class="cls-1" cx="336.5" cy="336.5" r="336.5"/>
            <polygon class="cls-2" points="165.67 287.96 507.33 290.67 507.33 488.99 167.47 488.99 165.67 287.96"/>
            <polygon class="cls-3"
                     points="153.95 233.87 524.46 233.87 520.86 286.16 151.24 286.16 151.24 236.58 153.95 233.87"/>
            <rect class="cls-4" x="293.68" y="290.67" width="90.15" height="203.74"/>
            <path class="cls-5"
                  d="M295.48,231.17s-35.16-12.62-37-12.62S243.2,188.8,243.2,188.8L254,154.54l36.06-18.93L337,166.26l37-27,30.65,8.11,27.95,40.57-24.34,37-20.73,12.62-3.61,46-93.76,2.7Z"/>
            <path class="cls-6"
                  d="M290.52,166.35a18.57,18.57,0,1,0,0,37.14h9.29a9.27,9.27,0,0,0,9.29-9.29v-9.29A18.6,18.6,0,0,0,290.52,166.35Z"/>
            <path class="cls-6"
                  d="M383.38,166.35a18.54,18.54,0,0,0-18.57,18.57v9.29a9.27,9.27,0,0,0,9.29,9.29h9.29a18.57,18.57,0,0,0,0-37.14Z"/>
            <path class="cls-6"
                  d="M550.69,482.32H517.25V296.43h5.59a9.27,9.27,0,0,0,9.29-9.29h0V231.44a9.27,9.27,0,0,0-9.29-9.29H425a55.75,55.75,0,0,0-83.39-74,42.7,42.7,0,0,0-4.6,6,55.71,55.71,0,0,0-93,61.3,60.54,60.54,0,0,0,5,6.58h-97.9a9.27,9.27,0,0,0-9.29,9.29h0v55.71a9.27,9.27,0,0,0,9.29,9.29h5.59V482.23H123.21a9.29,9.29,0,0,0,0,18.57H550.6a9.28,9.28,0,0,0,8.92-9.65A9.09,9.09,0,0,0,550.69,482.32Zm-269.46,0H212.45l-.18-187.15a9.29,9.29,0,0,0-18.57,0l.18,187.15H175.22V296.43H281.15Zm0-204.46H160.44V240.72h120.8Zm-27.95-92.94a37.14,37.14,0,1,1,74.28,0v37.14H290.43A37.2,37.2,0,0,1,253.29,184.92Zm120.8,297.4H299.72V296.43h74.37Zm0-204.46H299.72V240.72h74.37Zm-27.86-55.8V184.92a37.14,37.14,0,1,1,37.14,37.14ZM498.68,482.32h-106V296.43h68.78l.36,185.71a9.29,9.29,0,0,0,18.57.63c0-.27-.36-102.5-.36-102.77V296.34h18.57v186Zm14.87-204.46H392.75V240.72h120.8Z"/>
        </g>
    </g>
</svg>