<svg xmlns="http://www.w3.org/2000/svg" viewBox="0 0 720 720">
    <defs>
        <style>
            .cls-1{fill:#fff;}.cls-2{fill:#9b7532;}.cls-3{fill:#c49b49;}.cls-4{fill:#e8bc5b;}.cls-5{fill:#a01c87;}.cls-6{fill:#ce28a7;}.cls-7{fill:#f737c1;}.cls-8{fill:#11113f;}
        </style>
    </defs>
    <title>gift</title>
    <g id="Слой_2" data-name="Слой 2">
        <g id="Layer_1" data-name="Layer 1">
            <circle class="cls-1" cx="360" cy="360" r="360"/>
            <polyline class="cls-2"
                      points="144.3 314.25 144.1 481.95 348.1 596.95 557.1 480.95 557.1 309.95 144.3 314.25"/>
            <polyline class="cls-3"
                      points="130.1 247.95 130.1 306.95 342.1 426.95 568.1 303.95 568.1 247.95 130.1 247.95"/>
            <polygon class="cls-4" points="130.1 247.95 348.1 373.95 568.1 247.95 349.1 123.95 130.1 247.95"/>
            <polygon class="cls-5"
                     points="425.1 390.95 427.1 436.95 459.1 407.95 464.1 418.95 466.8 361.45 425.1 390.95"/>
            <polygon class="cls-6" points="435.1 324.95 479.1 300.95 482.1 351.95 440.1 373.95 435.1 324.95"/>
            <polygon class="cls-7" points="222.1 198.95 435.1 321.95 479.1 303.95 264.1 174.95 222.1 198.95"/>
            <polyline class="cls-5"
                      points="225.1 361.45 264.1 386.95 260.1 436.95 238.1 407.95 222.1 418.95 225.1 361.45"/>
            <polygon class="cls-6" points="225.1 303.95 260.1 324.95 260.1 377.95 217.1 356.95 225.1 303.95"/>
            <polygon class="cls-7" points="225.1 298.95 435.1 174.95 475.1 195.95 260.1 324.95 225.1 298.95"/>
            <path class="cls-8"
                  d="M178.4,264l-5-2.9a10.21,10.21,0,0,0-14,4,10.34,10.34,0,0,0,3.7,13.9l5,2.9A10.33,10.33,0,0,0,178.4,264Z"/>
            <path class="cls-8"
                  d="M576.1,249v-1.3h0V246l-.3-.9v-.3c-.2-.4-.3-.7-.5-1.1l-.7-1h0l-.6-.7h0l-.9-.7h0l-1-.7h0L355.2,115.35a10.5,10.5,0,0,0-10.3,0l-129.4,75h0l-88.7,50a10.21,10.21,0,0,0-5.2,8.9v55.5a10.21,10.21,0,0,0,5.2,8.9l5.8,3.5v163.2a10.21,10.21,0,0,0,5.2,8.9l205.8,118.8h0l1.2.6h0l1.1.3h5.5l1.1-.3h0l1.2-.6h0l205.8-118.8a10.21,10.21,0,0,0,5.2-8.9V317l5.8-3.5a10.21,10.21,0,0,0,5.2-8.9V249Zm-31,0-67.2,38.7L410.8,249l67.2-38.7ZM359.4,374.05v-5.8l-.3-.5v-.3l-.4-.5h-.3l-.4-.4-.4-.3-.4-.3-.5-.3h0L284.4,324l67.1-38.7L418.7,324l-76.5,40.4a10.3,10.3,0,0,0,10,18c.1,0,62.7-32.4,62.7-32.4l14-8.1v31l-69.5,39v-37.8Zm-20.6,6.2V412l-67.4-39v-31.7Zm31-107.4L390.4,261l67.1,38.8-20.6,11.9Zm71,115.9,20.6-11.9v22.7a10.31,10.31,0,0,0-10,2.9l-10.7,11.2.1-24.9Zm6.4-27.5v-31.7l20.6-11.9v31.7l-1,.6h0Zm-98-225.5,108.3,62.6-196,113.3-20.6-11.9,72.2-41.7h0l41.3-23.8h0l84.8-49.7a10.28,10.28,0,0,0-10.3-17.8l-79.8,46.7L282,174.75ZM236.8,376.85l20.6,11.9v24.9l-10.7-11.2a10.37,10.37,0,0,0-10-2.9l.1-22.7Zm-6.4-27.6v-31.7l20.6,11.9v31.8Zm31-162.9,67.1,38.7-20.9,12-67.1-38.7ZM142.6,255l77.5-44.7L287.2,249l-67.1,38.7-76-42.4a10.21,10.21,0,0,0-14,4,10.34,10.34,0,0,0,3.7,13.9l76,42.4v31.7l-67.2-38.7Zm371,86.4L547.2,322l-1.6,129.5-1,22.6h0L359.4,581.15V427a10.3,10.3,0,0,0-20.6,0v154.2L153.7,474.25V329l62.4,36v49.6h0v5.6l.3.5h0l.5.5h0l.5.5h.3l.5.3h9.3l6.4-2.5,23.7,25.1h0l.5.4.3.3.5.3h.3l.5.3h.4l.9.5h0l.9.3H271l.4-.3.4-.3h0l.4-.4.3-.3.3-.4.3-.4v-44.7L339,438h0l1.2.6h0l1.1.3h5.5l1.1-.3h0l1.2-.6h0l65.9-38.1v44.9l.3.4.3.4.3.3.4.4h0l.4.3.4.3H426l.9-.3h0l.9-.5h1.3l.5-.3.3-.3.5-.4h0L454.1,420l6.4,2.5h9.3l.5-.3h.3l.5-.5h0l.5-.5h0l.3-.5v-5.6h0v-49.6l21.1-12.2m62.5-54.7-5.8,3.3h0l-41.3,23.9h0l-20,11.5v-31.7l67.1-38.7v31.7Z"/>
            <path class="cls-8"
                  d="M376.3,368.85a10,10,0,0,0,5.1-1.4l5-2.8a10.28,10.28,0,0,0-10.3-17.8l-5,2.8a10.43,10.43,0,0,0-3.8,14.1,10.62,10.62,0,0,0,9,5.1Z"/>
            <path class="cls-8"
                  d="M397.1,207.65a10,10,0,0,0,5.1-1.4l5.3-3.1a10.28,10.28,0,0,0-10.3-17.8l-5.3,3.1a10.27,10.27,0,0,0,5.2,19.2Z"/>
            <path class="cls-8"
                  d="M348.9,451.45a10.29,10.29,0,0,0-10.3,10.3V468a10.3,10.3,0,0,0,20.6,0v-6.2A10.35,10.35,0,0,0,348.9,451.45Z"/>
        </g>
    </g>
</svg>