<svg xmlns="http://www.w3.org/2000/svg" viewBox="0 0 720 720">
    <defs>
        <style>
            .cls-1{fill:#fff;}.cls-2,.cls-5{fill:#ff991f;}.cls-3{fill:#ffd41d;}.cls-4{fill:#11113f;}.cls-5{stroke:#11113f;stroke-miterlimit:10;stroke-width:20px;}
        </style>
    </defs>
    <title>group</title>
    <g id="Слой_2" data-name="Слой 2">
        <g id="Layer_1" data-name="Layer 1">
            <circle class="cls-1" cx="360" cy="360" r="360"/>
            <path class="cls-2"
                  d="M548.15,373.21c-.08-36.82-30.92-66.61-68.9-66.54h0c-38,.09-68.7,30-68.61,66.82l.14,63.77,34.4,9.24.26,119.89,69.86-.14-.21-101,3.25.85c16.58,0,30-13.1,30-29.18Z"/>
            <circle class="cls-2" cx="477.1" cy="274.66" r="32.02"/>
            <path class="cls-2"
                  d="M323.71,373.35c0-36.83-30.79-66.68-68.76-66.68s-68.76,29.85-68.76,66.68v63.77c0,16.08,13.44,29.11,30,29.11l4.36-1.18V566.34h69.86V446.14l33.27-9Z"/>
            <circle class="cls-2" cx="252.87" cy="274.65" r="32.02"/>
            <path class="cls-3"
                  d="M366.9,271.86h0c-43.07,0-78,33.86-78,75.62v72.35c0,18.23,15.24,33,34,33h4.95V566.32h79.23V452.81h3.64c18.8,0,34-14.78,34-33V347.45C444.84,305.72,409.94,271.86,366.9,271.86Z"/>
            <circle class="cls-3" cx="364.54" cy="235.55" r="36.32"/>
            <circle class="cls-2" cx="280.93" cy="181.8" r="28.05"/>
            <circle class="cls-2" cx="446.74" cy="181.8" r="28.05"/>
            <path class="cls-4"
                  d="M280.93,218.37a36.6,36.6,0,1,0-36.6-36.6A36.6,36.6,0,0,0,280.93,218.37Zm0-56.12a19.58,19.58,0,1,1-19.58,19.58,19.58,19.58,0,0,1,19.58-19.58Z"/>
            <path class="cls-4"
                  d="M446.74,218.37a36.6,36.6,0,1,0-36.6-36.6A36.6,36.6,0,0,0,446.74,218.37Zm0-56.12a19.58,19.58,0,1,1-19.58,19.58,19.58,19.58,0,0,1,19.58-19.58Z"/>
            <path class="cls-4"
                  d="M567.4,557.81H523.78l-.39-182.33a8.51,8.51,0,0,0-8.51-8.51h0a8.51,8.51,0,0,0-8.51,8.51l.39,182.29H453.92l-.39-199.17a8.51,8.51,0,0,0-.14-1.5v-9.62a81.71,81.71,0,0,0-3.79-24.68,61.41,61.41,0,0,1,29.67-7.66h.14a60.93,60.93,0,0,1,42.56,17,56.81,56.81,0,0,1,17.64,41l.14,38a8.51,8.51,0,0,0,8.51,8.51h0a8.51,8.51,0,0,0,8.51-8.51l-.14-38A73.69,73.69,0,0,0,533.79,320a77.3,77.3,0,0,0-27.59-17.16,40.52,40.52,0,0,0-29.14-68.7H477a40.53,40.53,0,0,0-28.51,69.26l.77.73q-3.29,1.36-6.45,3A85.41,85.41,0,0,0,395.39,268,44.82,44.82,0,1,0,332,266.39q1.4,1.48,2.94,2.82a85.37,85.37,0,0,0-43.9,37.69,77.72,77.72,0,0,0-9.19-4,40.53,40.53,0,1,0-57.32.77l.4.38c-27.77,11.41-47.32,38.18-47.32,69.31v38a8.51,8.51,0,0,0,17,0v-38c0-32.07,27-58.17,60.25-58.17a61.45,61.45,0,0,1,29.37,7.4,81.71,81.71,0,0,0-3.87,24.92V557.83H229.08V375.58a8.51,8.51,0,0,0-17,0V557.81H148.63a8.51,8.51,0,0,0,0,17H567.4a8.51,8.51,0,0,0,0-17ZM415.65,461a42.91,42.91,0,0,0,21-8.31l.2,105.06H415.61ZM477,251.14h.05a23.51,23.51,0,0,1,.05,47h-.05a23.51,23.51,0,0,1-.05-47ZM364.54,207.74a27.81,27.81,0,1,1-27.8,27.82,27.81,27.81,0,0,1,27.8-27.82Zm2.36,72.63c28.55,0,53.86,16.54,64.49,42.13a64.77,64.77,0,0,1,4.94,25v72.35c0,11.92-8.93,21.88-20.71,24.05V350a8.51,8.51,0,1,0-17,0V557.81h-24.4V455a8.51,8.51,0,1,0-17,0V557.81H336.42V350a8.51,8.51,0,1,0-17,0v94.06c-12.39-1.7-22-11.92-22-24.26V347.45a64.78,64.78,0,0,1,5.11-25.21v-.05c10.69-25.39,36-41.82,64.36-41.82ZM252.84,251.14a23.51,23.51,0,1,1-23.51,23.51h0a23.53,23.53,0,0,1,23.53-23.5ZM297.41,453a42.94,42.94,0,0,0,22,8.17v96.65H297.43Z"/>
            <path class="cls-4" d="M186.08,411.38"/>
            <path class="cls-5" d="M186.19,373.35v63.77c0,16.08,9.29,29.11,25.87,29.11"/>
            <path class="cls-5" d="M522.42,465.54c16.58,0,25.87-13,25.87-29.11V372.66"/>
        </g>
    </g>
</svg>