<svg xmlns="http://www.w3.org/2000/svg" viewBox="0 0 100 100">
    <defs>
        <style>
            .cls-1{fill:#fff;}.cls-2{fill:#d1ca97;}.cls-3{fill:#f4c59f;}.cls-4{fill:#5f5360;}.cls-5{fill:#6b6b70;}.cls-6{fill:#11113f;}
        </style>
    </defs>
    <title>handshake</title>
    <g id="Слой_2" data-name="Слой 2">
        <g id="Layer_1" data-name="Layer 1">
            <circle class="cls-1" cx="50" cy="50" r="50"/>
            <polygon class="cls-2"
                     points="58.55 41.21 55.74 43.43 46.17 43.7 30.56 63.73 43.45 76.02 65.22 64.61 67 59.43 71.44 53.5 58.55 41.21"/>
            <polygon class="cls-3"
                     points="26.41 54.69 40.78 41.21 43.3 43.73 48.63 43.73 40.19 53.06 40.33 55.58 42.56 56.76 50.26 50.98 55.89 51.13 67 62.24 50.85 78.84 46.7 75.87 46.7 71.13 34.56 60.02 31.15 60.47 26.41 54.69"/>
            <polygon class="cls-4" points="57.67 38.69 66.56 30.25 83.15 46.54 74.55 55.58 57.67 38.69"/>
            <polygon class="cls-5" points="15.45 46.24 31.89 30.25 40.78 39.28 24.48 55.58 15.45 46.24"/>
            <path class="cls-6"
                  d="M84.39,45.84,67.56,29.24a1.39,1.39,0,1,0-2,2l3.67,3.47L81.44,46.84l-7.11,7.11a.58.58,0,0,1-.8,0l0,0h0l-14-14a.58.58,0,0,1,0-.8l0,0h0l8.1-7.87a1.39,1.39,0,0,0-2-2l-3.33,3.1h0l-4.73,4.81a3.28,3.28,0,0,0-.71,3.66l-1.64,1.64H43.92l-2.07-2.06A3.57,3.57,0,0,0,42,39.5a3.27,3.27,0,0,0-1-2.36l-8-7.79A1.38,1.38,0,0,0,30.84,31c.07.1,3.48,3.33,3.59,3.41L39,39.07a.58.58,0,0,1,0,.8l0,0h0l-.39.39L25,53.95h0a.55.55,0,0,1-.77,0l-7.08-7.1L33,31.19a1.39,1.39,0,1,0-2-1.94l-3.47,3.27L14.22,45.84a1.37,1.37,0,0,0,0,2h0l8.09,8.09a3.32,3.32,0,0,0,3.51.77l4.56,4.56a4.75,4.75,0,0,0,2,6.41,4.83,4.83,0,0,0,2.22.55h0a4.75,4.75,0,0,0,4.73,4.74h0a4.74,4.74,0,0,0,7,4.18L48,78.75a4.21,4.21,0,0,0,7.18-2.8,4.3,4.3,0,0,0,4.07-4.33h0A4.68,4.68,0,0,0,63.59,67a4.53,4.53,0,0,0,3.91-6.61l4.55-4.13a3.31,3.31,0,0,0,4.27-.37l8.09-8.09a1.37,1.37,0,0,0,0-2h0ZM34.54,65.4a2,2,0,1,1,2-2h0a2,2,0,0,1-2,2Zm6.22,4.13-.16.16a2,2,0,1,1,.16-.16Zm4.67,4.81h0a2,2,0,0,1-2.84-2.73h0l.16-.16a2,2,0,0,1,2.71,2.84ZM64.69,63.71a1.75,1.75,0,0,1-2.47,0l-2.89-2.89a1.39,1.39,0,0,0-2,2l2.89,2.89h0a1.89,1.89,0,1,1-2.62,2.71h0l-2.77-2.62a1.38,1.38,0,0,0-1.9,2l3,2.86a1.51,1.51,0,0,1-2.1,2.16h0L52.47,71.4a1.39,1.39,0,0,0-2,2l1.45,1.45a1.44,1.44,0,0,1-2,2.07l0,0-1.7-1.7a4.74,4.74,0,0,0-4.18-7h0a4.74,4.74,0,0,0-4.74-4.74h0a4.74,4.74,0,0,0-7-4.18L28,54.93,40.2,42.66l2.13,2.13a1.4,1.4,0,0,0,1,.41h1.84l-5.48,5.48A4.43,4.43,0,1,0,46,56.93l4.65-4.65,5.08.06,9,8.86a1.75,1.75,0,0,1,0,2.47Zm1-5.39L57.21,50h0a1.36,1.36,0,0,0-1.14-.39l-6-.06a1.36,1.36,0,0,0-1,.4L44,55a1.66,1.66,0,0,1-2.34-2.34l7.44-7.44h6.71a1.39,1.39,0,0,0,1-.4L58.64,43,70.05,54.38Z"/>
            <circle class="cls-6" cx="74.57" cy="47.46" r="1.39"/>
            <circle class="cls-6" cx="23.86" cy="47.61" r="1.39"/>
            <circle class="cls-6" cx="31.96" cy="30.32" r="1.39"/>
            <circle class="cls-6" cx="66.58" cy="30.22" r="1.39"/>
        </g>
    </g>
</svg>