<svg xmlns="http://www.w3.org/2000/svg" viewBox="0 0 614.2 614.2">
    <defs>
        <style>
            .cls-1{fill:#fff;}.cls-2{fill:#4c3520;}.cls-3{fill:#f7f0da;}.cls-4{fill:#d9f1f9;}.cls-5{fill:#1ebc34;}.cls-6{fill:#11113f;}
        </style>
    </defs>
    <title>hand-plant</title>
    <g id="Слой_2" data-name="Слой 2">
        <g id="Слой_1-2" data-name="Слой 1">
            <circle class="cls-1" cx="307.1" cy="307.1" r="307.1"/>
            <path class="cls-2"
                  d="M302.77,297.3c2.61-8.66,12.82-14.29,28.59-22.87a95.21,95.21,0,0,1,27.77-10.62A80.6,80.6,0,0,1,391.8,263c20.26,3.84,33.33,14.87,40.84,21.24a96.19,96.19,0,0,1,16.34,18c6.21,8.82,13.07,18.62,9.8,26.14-1.39,3.27-4,4.66-13.07,9-14.87,7.11-22.3,10.62-27,12.25-22,7.76-33,11.6-39.21,12.25C341.48,365.67,295.9,320.17,302.77,297.3Z"/>
            <polygon class="cls-3"
                     points="209.65 316.9 265.19 294.85 292.96 294.85 386.9 329.16 389.35 345.49 378.73 365.1 421.86 347.94 470.21 326.71 486.55 334.87 492.27 355.29 371.38 412.47 337.89 408.39 301.95 389.6 276.63 380.62 239.05 388.78 209.65 316.9"/>
            <polygon class="cls-4" points="146.75 330.79 202.3 307.1 239.05 401.85 146.75 454.13 146.75 330.79"/>
            <polygon class="cls-5"
                     points="396.7 187.03 419.57 176.41 459.59 176.41 459.59 205 445.71 222.97 389.35 226.24 396.7 187.03"/>
            <polygon class="cls-5"
                     points="301.95 112.7 359.13 115.97 384.45 138.84 389.35 176.41 342.79 176.41 306.85 159.26 301.95 112.7"/>
            <circle class="cls-6" cx="195.27" cy="384.54" r="7.02"/>
            <path class="cls-6"
                  d="M463,169H421.53a38.44,38.44,0,0,0-24.67,8.9V156.64a50.23,50.23,0,0,0-50.23-50.15h-47a7,7,0,0,0-7,7v19.36A50.16,50.16,0,0,0,342.71,183h40.11v71.39h-5.64c-18.46-.08-58.73,21.32-73.68,32.1A7.07,7.07,0,1,0,311.83,298l22.3-15.6a73.25,73.25,0,0,1,54.07-13h.9c22.14,3.68,52.85,35.2,63.79,54.81a7.07,7.07,0,1,0,12.66-6.29c-.08-.16-11.6-18.3-11.76-18.46a88,88,0,0,0-57-43V233.67h34.39a38.78,38.78,0,0,0,39-38.64v-19.2A7,7,0,0,0,463,169Zm-80.21,0H342.87a36.17,36.17,0,0,1-36.1-36.1V120.46h39.94a36.17,36.17,0,0,1,36.1,36.1V169Zm73.35,26.22a24.7,24.7,0,0,1-24.67,24.67H397.11V207.94a24.7,24.7,0,0,1,24.67-24.67h34.39Z"/>
            <path class="cls-6"
                  d="M496.51,335.2a27.6,27.6,0,0,0-36.43-14h0l-45.91,21.16a7.07,7.07,0,0,0,5.88,12.82l46-21.16a13.54,13.54,0,0,1,10.86,24.75l-94.18,41.58A54.73,54.73,0,0,1,336,399.32L301.54,382a68.52,68.52,0,0,0-58.48-1.31l-.74.25-25.73-58.4,35.78-15.76A71.17,71.17,0,0,1,306,305.06l69.35,25.57A12.48,12.48,0,0,1,367,354.15L313.38,336a7.05,7.05,0,1,0-4.66,13.31l53.66,18.13a26.6,26.6,0,0,0,17.72-50.15l-69.35-25.48a85.42,85.42,0,0,0-64.12,2L210.47,309.8a17.81,17.81,0,0,0-22.14-6.62L142.1,323.44a7.09,7.09,0,0,0-4.17,6.45V454a7.07,7.07,0,0,0,10.21,6.29L238,414.92a17.89,17.89,0,0,0,9.8-21.07l.82-.41a54.73,54.73,0,0,1,46.72,1.06l34.47,17.15A68.52,68.52,0,0,0,388.29,413l94.18-41.58A27.54,27.54,0,0,0,496.51,335.2ZM234.15,400.3a3.5,3.5,0,0,1-2,2.12h-.33l-79.72,40.19V411.74l20.83-10.21a7.05,7.05,0,0,0-6.21-12.66l-14.62,7.19V334.63l42-18.46a3.83,3.83,0,0,1,5,1.88l33.16,75.07h0l1.8,4.08a3.74,3.74,0,0,1,.16,3.1Z"/>
        </g>
    </g>
</svg>