<svg id="Layer_2" data-name="Layer 2" xmlns="http://www.w3.org/2000/svg" viewBox="0 0 815.89 731.66">
    <defs>
        <style>
            .cls-1,.cls-2{stroke:#000;stroke-linecap:round;stroke-linejoin:round;stroke-width:10px;}.cls-2{fill:#f4f4e1;}.cls-3{fill:#282828;}
        </style>
    </defs>
    <title>рука+бумага</title>
    <path class="cls-1"
          d="M745.12,1229.73c1.36,14.26,2.61,28.53,4,42.79,4.63,48.27,5.26,53.59,4,57.48-.08.74-199.08-.22-199,0-3.72-8,.83-20.68,10-54.5,14.11-52.35,23.81-63,30.85-104.49,2.87-16.92,5.37-39.34,6-44.78,4.39-39.43,2.58-43.84,8-57.72,10-25.8,28.86-43.79,28.86-43.79,8.41-8,12.83-9.65,19.9-18.91,9.29-12.16,9.43-19.5,15.92-31.84,9.73-18.5,23.71-29.15,29.85-33.84,8.73-6.65,24.52-12.49,55.73-23.88,25.58-9.34,28.93-9.69,32.84-8,17.34,7.66,17,43.46,16.92,59.71-.12,14.46-.3,23.39-6,32.84-6.52,10.86-14.11,12.14-29.85,25.87-.8.69-15.75,13.85-23.88,25.87-8.48,12.54-11.05,26.07-10.95,63.69C738.2,1130.93,738.68,1162.3,745.12,1229.73Z"
          transform="translate(-547.75 -603.63)"/>
    <path class="cls-2"
          d="M769.25,618.95c16.17,4.23,57.49.48,78.62,7,16.84,5.17,67,4.11,167.19,2,127.65-2.7,143.7-8.44,215-9a1005.9,1005.9,0,0,0,105.49-6c3.24-.35,17.58-8.15,16.92-2-1.74,16.17-2.07,35.45-4.23,42-12.42,37.92-8.28,122.64-4,305,1.32,56.13,4.56,66.27,7,72.65,4.53,12,10.21,21.43,6,28.86-19.9,4.48-33.09,8.41-46.77,7-.41,0-47.71,2.29-142.31,7-64.66,3.19-61.33,7.73-123.4,10-16.48.59-43.16.39-96.53,0-106-.78-132.31-3.23-158.23,6-1.25.44-18,6.42-19.9,3-1.47-2.64,7.45-7.95,12.94-18.91,4.57-9.12,4.42-17.46,4-28.86-1.1-28.69-1.64-43-3-50.75,0,0-4.85-27.88-13.93-102.5-6.24-51.26-.19-43.74-7-137.33-1.61-22.18-1.14-44.46-2-66.68,0,0-.72-18.69,4-52.74C766.49,624,766.19,618.15,769.25,618.95Z"
          transform="translate(-547.75 -603.63)"/>
    <path class="cls-1"
          d="M762,1026.71c.79.76-7,7.53-6,16.92.6,5.46,4.21,11.91,9,12.94,7,1.52,14.54-9.24,25.87-25.87,32.68-48,32.5-50.13,39.81-56.72,6.35-5.72,27.4-24.72,55.73-21.89,23.7,2.36,42.69,19,51.75,36.82,13.87,27.25,3.47,55.25-3,72.65-4.06,10.93-13.18,35.51-35.83,53.74-11.82,9.52-27.47,17.41-39.81,36.82-2.34,3.69-5.17,8.74-7,11.94-9.23,16.48-13.66,27.15-16.92,33.84-2.91,6-12.54,25.71-30.85,40.8-14.24,11.74-27.8,15.77-51.75,22.89-24.48,7.28-36.72,10.92-45.78,7-22.14-9.67-24.37-48.51-25.87-74.64-1.26-21.91-3.8-66.07,22.89-110.46C727.12,1045.51,760.52,1025.26,762,1026.71Z"
          transform="translate(-547.75 -603.63)"/>
    <path class="cls-3"
          d="M714,1007c-5.26,18.89,1.37,35.43,4,42,4.37,10.91,10.71,26.74,24,31,24.42,7.83,54.5-29.12,56-31,17.82-22.36,13.09-36.26,36-61,8.18-8.84,15.93-14.77,26-18,4.92-1.58,19.45-6.23,33,1,16.1,8.6,19.31,27.86,20,32,4.28,25.72-12.68,47.38-21,58-14.74,18.82-20,13.92-36,33-16.15,19.27-13,27-32,55-12.14,17.93-18.2,26.89-29,35-6.05,4.55-39.51,29.68-74,24-4.45-.73-10-2.16-14,1-8,6.35-2.27,25.44,1,38,10.62,40.85,19.39,64.58,8,83,0,0-78,4-113,0-27.69-3.16-35.68-1.26-38-6-5.35-11-2.79-22.36,10-58,15.15-42.23,27-70,27-70,21.21-49.69,24.75-53.37,28-71,5.08-27.53,2.39-50.8,5-51,3.43-.26,6.67,39.94,13,40,1.45,0,4.33-2.05,12-40,6.65-32.92,6.43-41,12-62,5.91-22.27,9-33.62,18-44,7.22-8.37,16.81-13.58,36-24,17.55-9.53,30.91-16.64,36-12,4.29,3.92.6,14.3,0,16-4.63,13-14.89,15-28,28C728.54,981.43,718.28,991.63,714,1007Z"
          transform="translate(-547.75 -603.63)"/>
</svg>