<svg xmlns="http://www.w3.org/2000/svg" viewBox="0 0 100 100">
    <defs>
        <style>.cls-1{fill:#fff;}.cls-2{fill:#ffd41d;}.cls-3{fill:#11113f;}.cls-4{fill:#0084ff;}.cls-5{fill:#ffd857;}
        </style>
    </defs>
    <title>2-1</title>
    <g id="Слой_2" data-name="Слой 2">
        <g id="Layer_1" data-name="Layer 1">
            <circle class="cls-1" cx="50" cy="50" r="50"/>
            <path class="cls-2"
                  d="M70.26,37.27A22.78,22.78,0,0,0,47.48,14.48h0A22.77,22.77,0,0,0,24.71,37.27v4.16A23.55,23.55,0,0,0,29.2,55.28V73.42l26.91,12.1V72.25a2.13,2.13,0,0,1,2.12-2.12h4.33a7.69,7.69,0,0,0,7.7-7.7V56H72.4a2.87,2.87,0,0,0,2.53-4.24l-4.66-8.52Z"/>
            <path class="cls-3"
                  d="M56.12,87a1.41,1.41,0,0,1-.59-.13L28.87,74.69c-.72-.33.39-.94.72-1.66s-.45-1.39.27-1.05L54.69,83.29v-11a3.57,3.57,0,0,1,3.57-3.57h4.33a6.26,6.26,0,0,0,6.25-6.25V56a1.49,1.49,0,0,1,.42-1,1.43,1.43,0,0,1,1-.42h2.15a1.44,1.44,0,0,0,1.23-.69,1.41,1.41,0,0,0,0-1.41L69,44a1.45,1.45,0,0,1-.17-.69v-6a21.35,21.35,0,0,0-42.69,0v4.16a22,22,0,0,0,4.22,13,1.5,1.5,0,0,1,.27.85l.13,18c0,.79-.92-.22-1.72-.22s-1.17,1-1.17.22l-.13-17.57a24.84,24.84,0,0,1-4.49-14.32V37.27a24.22,24.22,0,1,1,48.44,0v5.62l4.49,8.19a4.31,4.31,0,0,1-3.77,6.38h-.69v5a9.15,9.15,0,0,1-9.14,9.14H58.27a.68.68,0,0,0-.68.68V85.52a1.42,1.42,0,0,1-.66,1.21A1.53,1.53,0,0,1,56.12,87Z"/>
            <path class="cls-4"
                  d="M61.43,33.71l-1.86-.22a12.05,12.05,0,0,0-.82-2L59.9,30a2,2,0,0,0,0-2.67l-2.53-2.53a2,2,0,0,0-2.67,0L53.27,26a12.05,12.05,0,0,0-2-.82l-.22-1.86a2,2,0,0,0-1.86-1.92H45.62a2,2,0,0,0-1.86,1.92l-.22,1.86a12.05,12.05,0,0,0-2,.82l-1.47-1.16a2,2,0,0,0-2.67,0l-2.53,2.53a2,2,0,0,0,0,2.67l1.16,1.47a12.05,12.05,0,0,0-.82,2l-1.86.22a2,2,0,0,0-1.92,1.86v3.58A2,2,0,0,0,33.39,41l1.86.22a12.05,12.05,0,0,0,.82,2L34.92,44.7a2,2,0,0,0,0,2.67L37.4,49.9a2,2,0,0,0,2.67,0l1.47-1.16a12.05,12.05,0,0,0,2,.82l.22,1.86a2,2,0,0,0,1.86,1.92H49.2a2,2,0,0,0,1.86-1.92l.22-1.86a12.05,12.05,0,0,0,2-.82l1.47,1.16a2,2,0,0,0,2.67,0l2.53-2.53a2,2,0,0,0,0-2.67l-1.16-1.47a12.05,12.05,0,0,0,.82-2L61.43,41a2,2,0,0,0,1.92-1.86v-3.6A2,2,0,0,0,61.43,33.71Z"/>
            <circle class="cls-5" cx="47.42" cy="37.35" r="5.86"/>
            <path class="cls-3"
                  d="M49.21,54.74H45.63a3.46,3.46,0,0,1-3.29-3.19l-.12-1-.46-.19L41,51a3.45,3.45,0,0,1-4.59-.07L33.88,48.4a3.48,3.48,0,0,1-.07-4.59l.61-.77c-.07-.16-.13-.32-.19-.46l-1-.12a3.46,3.46,0,0,1-3.19-3.29V35.56a3.46,3.46,0,0,1,3.19-3.29l1-.12c.06-.16.13-.32.19-.46l-.61-.77a3.45,3.45,0,0,1,.07-4.59l2.53-2.53A3.48,3.48,0,0,1,41,23.74l.77.61.46-.19.12-1A3.46,3.46,0,0,1,45.63,20h3.58a3.46,3.46,0,0,1,3.29,3.19l.12,1,.46.19.77-.61a3.45,3.45,0,0,1,4.59.07L61,26.34A3.48,3.48,0,0,1,61,30.93l-.61.77c.07.16.13.32.19.46l1,.12h0a3.46,3.46,0,0,1,3.19,3.29v3.58a3.46,3.46,0,0,1-3.19,3.29l-1,.12c-.06.16-.13.32-.19.46l.61.77A3.45,3.45,0,0,1,61,48.37L58.44,50.9a3.48,3.48,0,0,1-4.59.07l-.77-.61-.48.19-.12,1A3.45,3.45,0,0,1,49.21,54.74Zm-7.65-7.49a1.55,1.55,0,0,1,.66.16,12.59,12.59,0,0,0,1.76.74,1.47,1.47,0,0,1,1,1.21l.22,1.86c0,.4.27.65.42.65H49.2c.14,0,.38-.25.42-.65l.22-1.86a1.47,1.47,0,0,1,1-1.21,9.88,9.88,0,0,0,1.76-.74,1.46,1.46,0,0,1,1.56.14l1.47,1.16c.32.25.65.26.75.16l2.53-2.53c.1-.1.09-.45-.16-.77l-1.16-1.47a1.46,1.46,0,0,1-.14-1.56,12.59,12.59,0,0,0,.74-1.76,1.47,1.47,0,0,1,1.21-1l1.86-.22c.4,0,.65-.27.65-.42V35.56c0-.14-.25-.38-.65-.42l-1.86-.22a1.47,1.47,0,0,1-1.21-1,9.88,9.88,0,0,0-.74-1.76,1.46,1.46,0,0,1,.14-1.56l1.16-1.47c.25-.32.26-.65.16-.75l-2.53-2.53c-.1-.1-.45-.09-.75.16l-1.47,1.16a1.46,1.46,0,0,1-1.56.14,12.59,12.59,0,0,0-1.76-.74,1.47,1.47,0,0,1-1-1.21l-.22-1.86c0-.4-.27-.65-.42-.65H45.62c-.14,0-.38.25-.42.65L45,25.37a1.47,1.47,0,0,1-1,1.21,9.88,9.88,0,0,0-1.76.74,1.46,1.46,0,0,1-1.56-.14L39.19,26c-.32-.25-.65-.26-.75-.16l-2.53,2.53c-.1.1-.09.45.16.75l1.16,1.47a1.46,1.46,0,0,1,.14,1.56,12.59,12.59,0,0,0-.74,1.76,1.47,1.47,0,0,1-1.21,1l-1.86.22c-.4,0-.65.27-.65.42v3.58c0,.14.25.38.65.42l1.86.22a1.47,1.47,0,0,1,1.21,1,9.88,9.88,0,0,0,.74,1.76,1.46,1.46,0,0,1-.14,1.56l-1.16,1.47c-.25.32-.26.65-.16.75l2.53,2.53c.1.1.45.09.75-.16l1.47-1.16A1.54,1.54,0,0,1,41.56,47.24Z"/>
            <path class="cls-3"
                  d="M47.42,44.66a7.31,7.31,0,1,1,7.31-7.31A7.31,7.31,0,0,1,47.42,44.66Zm0-11.71a4.42,4.42,0,1,0,4.42,4.42A4.42,4.42,0,0,0,47.42,32.95Z"/>
            <circle class="cls-3" cx="29.33" cy="73.32" r="1.44"/>
        </g>
    </g>
</svg>