<svg xmlns="http://www.w3.org/2000/svg" viewBox="0 0 720 720">
    <defs>
        <style>.cls-1{fill:#fff;}.cls-2{fill:#edf9f6;}.cls-3{fill:#ed1865;}.cls-4{fill:#11113f;}</style>
    </defs>
    <title>heart</title>
    <g id="Слой_2" data-name="Слой 2">
        <g id="Layer_1" data-name="Layer 1">
            <circle class="cls-1" cx="360" cy="360" r="360"/>
            <polygon class="cls-2" points="494.4 459.6 548.49 505.24 508.77 521.3 394.66 490.45 494.4 459.6"/>
            <ellipse class="cls-2" cx="357.64" cy="324.63" rx="203.02" ry="196.68"/>
            <polygon class="cls-3"
                     points="357.64 266.04 322.82 254.21 289.86 266.04 276.33 309.15 301.69 350.28 357.64 408.04 433.2 331.13 440.31 285.48 407.34 254.21 357.64 266.04"/>
            <path class="cls-4"
                  d="M559.21,496.33a123.07,123.07,0,0,1-45.05-28.74q-2.2-2.2-4.34-4.53c78.27-84,73.61-215.59-10.42-293.87S283.81,95.59,205.53,179.61s-73.61,215.59,10.42,293.87a207.93,207.93,0,0,0,218.88,40.94,145.38,145.38,0,0,0,63.95,14.88,143.69,143.69,0,0,0,61-13.42,10.4,10.4,0,0,0-.57-19.47ZM499,508.17a124.25,124.25,0,0,1-58.59-14.67,10.4,10.4,0,0,0-9-.37c-95.36,40.93-205.84-3.2-246.77-98.56s3.2-205.84,98.56-246.77S489.06,151,530,246.35A187.89,187.89,0,0,1,488.48,455a10.4,10.4,0,0,0-.95,13.86,146.87,146.87,0,0,0,11.83,13.42,144.92,144.92,0,0,0,28.92,22.43,124,124,0,0,1-29.36,3.65Z"/>
            <path class="cls-4"
                  d="M357.64,418a10.4,10.4,0,0,0,7.37-3l69.31-69.31h0a59.35,59.35,0,0,0-76.68-90.24A59.35,59.35,0,0,0,281,345.68h0L350.34,415A10.4,10.4,0,0,0,357.64,418Zm-61.87-87a38.56,38.56,0,0,1,52.67-56.33l1.83,1.83a10.4,10.4,0,0,0,14.67,0h0a38.56,38.56,0,0,1,54.5,54.5h0l-61.8,61.82Z"/>
            <path class="cls-4"
                  d="M511.44,350.6A10.4,10.4,0,0,0,498.85,358a145.94,145.94,0,0,1-141.2,108.63,10.43,10.43,0,0,0,0,20.86A166.78,166.78,0,0,0,518.91,363.38a10.4,10.4,0,0,0-7.3-12.59Z"/>
            <path class="cls-4"
                  d="M368,164.4a10.4,10.4,0,0,0-10.4-10.4h0A166.78,166.78,0,0,0,196.41,278.13a10.43,10.43,0,0,0,20.17,5.29A145.94,145.94,0,0,1,357.66,175a10.4,10.4,0,0,0,10.4-10.4h0Z"/>
            <path class="cls-4" d="M461.86,591.73H253.43a10.43,10.43,0,0,0,0,20.86H461.86a10.43,10.43,0,1,0,0-20.86Z"/>
        </g>
    </g>
</svg>