<svg xmlns="http://www.w3.org/2000/svg" viewBox="0 0 673 673">
    <defs>
        <style>
            .cls-1{fill:#fff;}.cls-2{fill:#bacc9b;}.cls-3{fill:#526d4e;}.cls-4{fill:#e2dc93;}.cls-5{fill:#ea1f69;}.cls-6{fill:#cad9ef;}.cls-7{fill:#11113f;}
        </style>
    </defs>
    <title>house</title>
    <g id="Слой_2" data-name="Слой 2">
        <g id="Слой_1-2" data-name="Слой 1">
            <circle class="cls-1" cx="336.5" cy="336.5" r="336.5"/>
            <polygon class="cls-2"
                     points="211.72 198.5 327.72 137.5 441.72 204.5 435.72 324.5 218.72 324.5 211.72 198.5"/>
            <polygon class="cls-3" points="386.72 465.5 550.72 465.5 550.72 498.5 382.72 498.5 386.72 465.5"/>
            <polyline class="cls-4"
                      points="387.22 365.5 430.72 373.5 547.72 377.5 550.72 465.5 386.72 462.5 387.22 365.5"/>
            <polygon class="cls-4"
                     points="159.72 365.5 270.72 299.5 382.72 367.5 382.72 501.5 166.72 501.5 159.72 365.5"/>
            <polygon class="cls-5" points="286.72 299.5 564.72 299.5 564.72 369.5 401.72 373.5 286.72 299.5"/>
            <polygon class="cls-6" points="239.72 383.5 304.72 383.5 304.72 452.5 236.72 452.5 239.72 383.5"/>
            <polygon class="cls-6" points="308.72 208.5 345.72 208.5 348.72 257.5 308.72 260.5 308.72 208.5"/>
            <path class="cls-7"
                  d="M231.39,385.65V454.3a8.58,8.58,0,0,0,8.58,8.58h68.52a8.58,8.58,0,0,0,8.58-8.58V385.65a8.58,8.58,0,0,0-8.58-8.58H240A8.58,8.58,0,0,0,231.39,385.65Zm51.23,8.58h17.16V411.4h-17V394.23Zm0,34.26h17.16v17.16h-17v-17Zm-34.13-34.26h17.16V411.4H248.49Zm0,34.26h17.16v17.16H248.49Z"/>
            <path class="cls-7"
                  d="M567.14,290.88h-120V214l5.25,3.07A8.58,8.58,0,0,0,461,202.24l-128.59-74a8.58,8.58,0,0,0-8.58,0L195.28,202.5a8.59,8.59,0,0,0,7.56,15.43h0l1-.58,5.25-3.07V327.12l-67.73,39.13a8.58,8.58,0,0,0,8.58,14.86l5.25-3.07V500.79a8.58,8.58,0,0,0,8.53,8.58H549a8.58,8.58,0,0,0,8.58-8.58V382.26h9.54a8.58,8.58,0,0,0,8.58-8.58h0V299.39A8.58,8.58,0,0,0,567.14,290.88ZM472.94,308H507.2V365.1H472.94Zm-17.16,0V365.1H421.52V308ZM226.21,268.59v-64l101.88-58.88,102,58.85V291H271.29l-1,.45h0l-44.12,25.61Zm126.73,39.06v27l-46.81-27Zm23.12,184.23H172.29V368.17l101.88-58.85,101.88,58.85Zm-6-147.29V308h34.26v56.67Zm170.31,147.3H393.09V475.3H540.37Zm0-34H393.09V378l5.25,3.07h0l1,.45h140.5v16.27l.64,18.06Zm18.12-93.24h-34V308h34.23Z"/>
            <path class="cls-7"
                  d="M308.81,268.59h38.42a8.58,8.58,0,0,0,8.58-8.58h0V211a8.58,8.58,0,0,0-8.58-8.58H308.81a8.58,8.58,0,0,0-8.45,8.58V260.5A8.58,8.58,0,0,0,308.81,268.59Zm8.58-49.5h21.39V251.5H317.39Z"/>
        </g>
    </g>
</svg>