<svg xmlns="http://www.w3.org/2000/svg" viewBox="0 0 559.26 559.26">
    <defs>
        <style>
            .cls-1{fill:#fff;}.cls-2{fill:#aef0ff;}.cls-3{fill:none;stroke:#11113f;stroke-miterlimit:10;stroke-width:21px;}.cls-4{fill:#edd6c3;}.cls-5{fill:#724444;}.cls-6{fill:#465575;}.cls-7{fill:#11113f;}.cls-8{fill:#ff3636;}
        </style>
    </defs>
    <title>i love you</title>
    <g id="Слой_2" data-name="Слой 2">
        <g id="Слой_1-2" data-name="Слой 1">
            <circle class="cls-1" cx="279.63" cy="279.63" r="279.63"/>
            <circle class="cls-2" cx="280.43" cy="279.08" r="106"/>
            <circle class="cls-3" cx="279.73" cy="279.08" r="105.3"/>
            <polygon class="cls-4"
                     points="321.43 437.08 239.43 437.08 209.43 423.08 177.43 388.08 141.43 379.18 141.43 321.58 181.43 318.08 212.43 329.08 265.43 379.08 253.43 403.08 314.43 403.08 332.43 408.08 334.43 424.08 321.43 437.08"/>
            <polygon class="cls-4"
                     points="242.43 121.08 324.43 121.08 354.43 135.08 386.43 170.08 422.43 178.98 422.43 236.58 382.43 240.08 351.43 229.08 298.43 179.08 310.43 155.08 249.43 155.08 231.43 150.08 229.43 134.08 242.43 121.08"/>
            <polygon class="cls-5"
                     points="94.43 307.08 133.43 307.08 138.43 314.08 138.43 391.08 94.43 391.08 94.43 307.08"/>
            <polygon class="cls-6"
                     points="422.43 173.08 422.43 244.08 448.43 250.08 467.43 250.08 467.43 168.08 426.43 168.08 422.43 173.08"/>
            <circle class="cls-7" cx="467.53" cy="168.48" r="7.6"/>
            <path class="cls-7"
                  d="M318.53,397.28l-60.6.1c-4.2.2-5.4.3-5.3,4.5.1,4-7,7.5-3,7.6l68.6,3a8.21,8.21,0,0,1,0,16.4h-79a40,40,0,0,1-30.7-14.4l-19-22.5a55,55,0,0,0-40.7-19.9v-45h28.1a52.83,52.83,0,0,1,36.8,14.9l40.9,39.4a7.46,7.46,0,0,1-10.2,10.8l-32.1-29.4a7.67,7.67,0,0,0-10.3,11.3h0l32.1,29.4a22.64,22.64,0,1,0,31-33l-40.9-39.4a67.82,67.82,0,0,0-47.3-19.1h-29.3a18.93,18.93,0,0,0-17.5-11.8h-36a7.6,7.6,0,0,0-7.6,7.6h0l.1,83.2c.2,4.2,2.3.2,6.5,0,4-.1,8.6,4,8.7,0l-.1-75.9h28.1a3.59,3.59,0,0,1,3.6,3.6h0v61.1a3.59,3.59,0,0,1-3.6,3.6h0l-32.4.7c-4.2.2-4.5,2.7-4.4,6.9.1,4-2.9,7.5,1.1,7.6h35.7a18.82,18.82,0,0,0,17.3-11.3,39.77,39.77,0,0,1,30.6,14.4l19,22.5a55.17,55.17,0,0,0,42.4,19.9h79.2a23.61,23.61,0,0,0,22.3-24.6,23.09,23.09,0,0,0-22.1-22.2Z"/>
            <path class="cls-7"
                  d="M185,302.28a7.63,7.63,0,1,0-14.9,3.3h0a7.73,7.73,0,0,0,9.7,4.9,7.57,7.57,0,0,0,5.1-8.6Z"/>
            <path class="cls-7" d="M186.73,229.78a7.64,7.64,0,0,0-10.1,3.8h0a7.58,7.58,0,1,0,10.1-4.1Z"/>
            <path class="cls-7"
                  d="M178.33,251.08a7.6,7.6,0,0,0-9,5.6h0a7.53,7.53,0,0,0,6,8.9h1.5a7.66,7.66,0,0,0,1.6-15.2Z"/>
            <path class="cls-7"
                  d="M199.43,210.68a7.65,7.65,0,0,0-10.6,1.7h0l6.1,4.5-6.1-4.4a7.62,7.62,0,1,0,12,9.4,1.76,1.76,0,0,1,.4-.5h0a7.61,7.61,0,0,0-1.5-10.6h0Z"/>
            <path class="cls-7" d="M215.63,194.78a7.59,7.59,0,0,0-10.7-.6h0a7.57,7.57,0,1,0,10.7.6Z"/>
            <path class="cls-7"
                  d="M235.43,182.78A7.64,7.64,0,0,0,225,180h0a7.58,7.58,0,1,0,7.8,13,7.39,7.39,0,0,0,2.6-10.2Z"/>
            <path class="cls-7"
                  d="M256.93,175.08a7.63,7.63,0,0,0-9.6-4.9h0l2.3,7.3-2.2-7.3a7.59,7.59,0,0,0,4.5,14.5h0a7.56,7.56,0,0,0,5.1-9.4h0Z"/>
            <path class="cls-7"
                  d="M279.63,172.28a7.54,7.54,0,0,0-8.2-6.9h0a7.65,7.65,0,1,0,.1,15.3h1.3a7.63,7.63,0,0,0,6.8-8.4Z"/>
            <path class="cls-7"
                  d="M182.43,281.28a7.61,7.61,0,0,0-15.2.4h0a7.58,7.58,0,0,0,7.6,7.5h0a7.6,7.6,0,0,0,7.6-7.6h0Z"/>
            <path class="cls-7"
                  d="M464.63,168.48c-4.2,0-4.7-4.2-4.7,0h0v75.4h-28.1a3.59,3.59,0,0,1-3.6-3.6h0V180a3.59,3.59,0,0,1,3.6-3.6h0l35.7-.3c4.2-.2,0-2.1-.2-6.3-.1-4,4.2-8.8.2-8.9l-35.7.3a18.7,18.7,0,0,0-17.4,11.8,39.56,39.56,0,0,1-30.5-14.4l-19-22.5a54.8,54.8,0,0,0-42.4-20.5h-79.2a23.4,23.4,0,0,0,0,46.8l61.7-.7c4.2-.2,7.5.2,7.3-4-.1-4,5.7-7.4,1.7-7.6l-70.7-2.9a8.21,8.21,0,0,1-.6-16.4h79.8a40,40,0,0,1,30.7,14.4l19,22.5a55.22,55.22,0,0,0,40.8,19.9v45h-28.2a52.83,52.83,0,0,1-36.8-14.9l-40.9-39.4a7.41,7.41,0,0,1,10.1-10.8l32.4,29.3a7.67,7.67,0,0,0,10.3-11.3h0L328,156.18a22.64,22.64,0,1,0-31,33l40.9,39.4a67.27,67.27,0,0,0,47.3,18.8h29.4a18.82,18.82,0,0,0,17.3,11.3h35.7a7.6,7.6,0,0,0,7.6-7.6h0l-.2-82.7c.1-4.2-3.6,1.4-7.8,1.3Z"/>
            <circle class="cls-7" cx="94.23" cy="390.98" r="7.6"/>
            <path class="cls-8"
                  d="M242.33,244.88l-11.7,19,2.2,24.5,34.8,27.2h20.8s37-19.9,37.4-22.3,4.6-33.6,4.2-34.8-21.2-13.9-21.2-13.9l-17.9,3.5s-5,12.5-15.8,3.7-25.4-10-25.4-10Z"/>
            <path d="M305.73,233.68a36,36,0,0,0-26.1,11.2,36,36,0,0,0-62.1,24.8,35.55,35.55,0,0,0,13,27.6.35.35,0,0,0,.2.1l44.2,35a7.63,7.63,0,0,0,9.6,0l46-36.7.6-.6a35.92,35.92,0,0,0-25.4-61.4Zm14.8,50.2-40.9,32.5-39.3-31.1a20.49,20.49,0,1,1,32.1-23.5,7.75,7.75,0,0,0,7.2,4.8,7.85,7.85,0,0,0,7.2-4.8,20.5,20.5,0,1,1,33.7,22.1Z"/>
        </g>
    </g>
</svg>