<svg xmlns="http://www.w3.org/2000/svg" viewBox="0 0 100 100">
    <defs>
        <style>
            .cls-1{fill:#fff;}.cls-2{fill:#fff799;}.cls-3{fill:#7a7b84;}.cls-4{fill:#3c47aa;}.cls-5{fill:#f4d59f;}.cls-6{fill:#11113f;}
        </style>
    </defs>
    <title>idea</title>
    <g id="Слой_2" data-name="Слой 2">
        <g id="Layer_1" data-name="Layer 1">
            <circle class="cls-1" cx="50" cy="50" r="50"/>
            <polygon class="cls-2"
                     points="55.05 30.29 56.36 34.73 59.89 39.05 60.28 43.63 69.7 43.63 70.22 38.92 73.23 34.73 74.54 28.32 71.27 22.18 65.64 19.95 58.84 22.05 54.66 30.29 55.05 30.29"/>
            <polygon class="cls-3" points="61.2 44.15 68.39 44.15 68.39 48.99 61.85 48.99 61.2 44.15"/>
            <polygon class="cls-4" points="22.74 55.53 31.24 52 38.44 67.44 22.74 75.41 22.74 55.53"/>
            <polygon class="cls-5"
                     points="32.81 53.83 42.49 49.91 46.81 49.91 61.33 55.27 62.11 58.15 60.94 60.37 59.37 61.29 74.54 55.01 76.89 55.66 78.07 59.19 58.97 68.48 52.7 67.7 45.63 64.3 40.14 64.3 37.91 64.95 32.81 53.83"/>
            <path class="cls-6"
                  d="M72.49,21.84a10.91,10.91,0,1,0-15,15.89h0a4.57,4.57,0,0,1,1.4,3.18v1.4a2.83,2.83,0,0,0,1.12,2.34v3.27a2.8,2.8,0,0,0,2.8,2.8H67a2.8,2.8,0,0,0,2.8-2.8V44.65a2.83,2.83,0,0,0,1.12-2.34v-1.4a4.2,4.2,0,0,1,1.4-3.18,10.84,10.84,0,0,0,.85-15.3l-.1-.12A1.73,1.73,0,0,0,72.49,21.84Zm-5.13,26h0a.62.62,0,0,1-.56.56H62.69a.52.52,0,0,1-.47-.56V45.19h5.14Zm3.36-11.86a6.38,6.38,0,0,0-2.15,4.85v1.49a.63.63,0,0,1-.61.65H66V34.81a1.12,1.12,0,1,0-2.25,0h0V43H61.93a.63.63,0,0,1-.65-.61V41a6.15,6.15,0,0,0-2.15-4.76,8.61,8.61,0,0,1-.64-12.15l.08-.09a8.51,8.51,0,0,1,6.27-2.8h0a8.59,8.59,0,0,1,8.59,8.59v.09A8,8,0,0,1,70.72,35.94Z"/>
            <path class="cls-6"
                  d="M79,56.39a4.33,4.33,0,0,0-5.7-2.28l-.09,0h0s-12.82,5.7-12.82,5.73c.27.5-.67,1.91-.13,1.75l13.88-5.42a2.13,2.13,0,1,1,1.67,3.92h0l-15,6.63a8.53,8.53,0,0,1-7.38-.18l-5.51-2.71a10.87,10.87,0,0,0-9.34-.18h-.09l-4.11-9.35,5.7-2.52a11.2,11.2,0,0,1,8.5-.27l11.12,4.11a2,2,0,0,1,1,2.62,2.13,2.13,0,0,1-2.34,1.12l-8.59-2.89a1.16,1.16,0,0,0-1.4.75,1.11,1.11,0,0,0,.65,1.4l8.59,2.89a4.27,4.27,0,1,0,2.9-8L49.43,49.41a13.53,13.53,0,0,0-10.28.38l-5.7,2.52a2.9,2.9,0,0,0-3.54-1l-7.38,3.27a1.15,1.15,0,0,0-.65,1l-.09,19.8a1.08,1.08,0,0,0,1,1.12h.08a1.19,1.19,0,0,0,.56-.09l14.3-7.29a2.84,2.84,0,0,0,1.58-3.36l.09-.09a8.53,8.53,0,0,1,7.38.18l5.51,2.71a10.87,10.87,0,0,0,9.34.18l15-6.63a4.32,4.32,0,0,0,2.35-5.65A.14.14,0,0,0,79,56.39ZM36.8,67.15h0L24,73.6v-5l3.27-1.58A1.11,1.11,0,0,0,26.42,65a.7.7,0,0,0-.17.09l-2.34,1.12v-9.9l6.63-2.89a.58.58,0,0,1,.75.27l5.51,12h0l.27.65A.73.73,0,0,1,36.8,67.15Z"/>
        </g>
    </g>
</svg>