<svg xmlns="http://www.w3.org/2000/svg" viewBox="0 0 673 673">
    <defs>
        <style>.cls-1{fill:#fff;}.cls-2{fill:#e74c3c;}.cls-3{fill:#11113f;}</style>
    </defs>
    <title>info</title>
    <g id="Слой_2" data-name="Слой 2">
        <g id="Слой_1-2" data-name="Слой 1">
            <circle class="cls-1" cx="336.5" cy="336.5" r="336.5"/>
            <path class="cls-2"
                  d="M350,560H324a12,12,0,0,1-12-12V264a12,12,0,0,1,12-12h26a12,12,0,0,1,12,12V548A12,12,0,0,1,350,560Z"/>
            <circle class="cls-2" cx="339.53" cy="160.51" r="27.5"/>
            <path class="cls-3"
                  d="M336.93,231.41a50.66,50.66,0,0,0-50.6,50.6v250.5a50.6,50.6,0,0,0,101.2,0V282A50.59,50.59,0,0,0,336.93,231.41Zm21.5,300.7a21.65,21.65,0,0,1-43.2,3,15,15,0,0,1,0-3V282a21.65,21.65,0,0,1,43.2-3,15,15,0,0,1,0,3Z"/>
            <path class="cls-3"
                  d="M372.33,129.31a50.58,50.58,0,1,0,14.8,35.7A50.67,50.67,0,0,0,372.33,129.31Zm-20.2,50.6a21.57,21.57,0,1,1-.1-30.5,21.49,21.49,0,0,1,.1,30.5Z"/>
        </g>
    </g>
</svg>