<?xml version="1.0" encoding="utf-8"?>
<!-- Generator: Adobe Illustrator 21.0.0, SVG Export Plug-In . SVG Version: 6.00 Build 0)  -->
<svg version="1.1" id="Layer_6" xmlns="http://www.w3.org/2000/svg"  x="0px" y="0px"
	 viewBox="0 0 2000 2000" style="enable-background:new 0 0 2000 2000;" xml:space="preserve">
<style type="text/css">
	.st0{fill:#1C1A1E;stroke:#000000;stroke-width:10;stroke-linecap:round;stroke-linejoin:round;stroke-miterlimit:10;}
	.st1{fill:none;stroke:#000000;stroke-width:10;stroke-linecap:round;stroke-linejoin:round;stroke-miterlimit:10;}
	.st2{fill:#6C7070;stroke:#000000;stroke-width:10;stroke-linecap:round;stroke-linejoin:round;stroke-miterlimit:10;}
	.st3{stroke:#000000;stroke-width:10;stroke-linecap:round;stroke-linejoin:round;stroke-miterlimit:10;}
	.st4{fill:#1C1A1E;}
	.st5{fill:#C2CECC;stroke:#000000;stroke-width:10;stroke-linecap:round;stroke-linejoin:round;stroke-miterlimit:10;}
	.st6{fill:#65578E;stroke:#000000;stroke-width:10;stroke-miterlimit:10;}
	.st7{fill:#65578E;}
	.st8{fill:#6F618C;}
	.st9{fill:#C2CECC;}
	.st10{fill:#3D3D3D;stroke:#000000;stroke-width:10;stroke-linecap:round;stroke-linejoin:round;stroke-miterlimit:10;}
	.st11{fill:#65578E;stroke:#000000;stroke-width:10;stroke-linecap:round;stroke-linejoin:round;stroke-miterlimit:10;}
	.st12{opacity:0.3;fill:url(#SVGID_1_);}
	.st13{fill:#A1ADAC;stroke:#000000;stroke-width:10;stroke-linecap:round;stroke-linejoin:round;stroke-miterlimit:10;}
	.st14{fill:url(#SVGID_2_);}
	.st15{fill:url(#SVGID_3_);}
	.st16{fill:url(#SVGID_4_);}
	.st17{fill:#D9D9D9;stroke:#000000;stroke-width:10;stroke-linecap:round;stroke-linejoin:round;stroke-miterlimit:10;}
	.st18{fill:#FFFFFF;}
	.st19{fill:#D9D9D9;}
	.st20{fill:#282828;}
	.st21{opacity:0.2;fill:#FFFFFF;}
	.st22{opacity:0.8;fill:#FFFFFF;}
	.st23{opacity:5.000000e-02;fill:#FFFFFF;}
	.st24{opacity:0.7;fill:#FFFFFF;}
</style>
<path class="st0" d="M832.5,1656.5c-2.4,3.3-1.3,6.1-1,27c0.2,13.1-0.3,11.4,0,21c0.6,21.2,0.9,36.1,5,37c2.8,0.6,6.4-5.6,15-23
	c17.5-35.5,26.2-53.4,22-60C866.2,1647.1,839.6,1646.7,832.5,1656.5z"/>
<path class="st0" d="M859.5,1642.5c-0.9,4-2.5,16.3-8,35c-9,30.6-13.8,46.8-25,57c-1.9,1.7-6.8,5.9-9,13c-2.1,6.8-0.5,12.8,0,15
	c3.9,16.3,1.7,33.4,4,50c2.5,18,4.3,43,8,93c4.2,56.3,4,67,4,67c28,1,542,6,562,1c5.9-1.5,5.1-5.5,1-47c-9-91.7-13.7-138.5-27-185
	c-13.5-47.5-21.6-75.7-40-101C1223.9,1495.6,874.4,1577.8,859.5,1642.5z"/>
<path class="st1" d="M977.5,1749.5c5.1,21.6,8.2,39,10,51c2.1,13.9,3.6,26.9,10,44c2.9,7.8,5.9,14,8,18"/>
<path class="st1" d="M999.5,1902.5c6-0.3,15.5,0,26,4c9.5,3.6,15.1,8.6,26,18c9.3,8.1,16.9,14.7,24,26c5.3,8.5,9.3,19.4,11,25"/>
<path class="st1" d="M1014.5,1887.5c6.8,5.9,14.1,12,22,18c5.1,3.9,10.1,7.6,15,11"/>
<path class="st1" d="M1131.5,1822.5c3.6,2.7,7.9,5.4,13,8c5.5,2.8,11.6,5.8,20,7c5.7,0.8,10.8,0.6,15,0"/>
<path class="st2" d="M965.5,1672.5c-1.2,4.4,1.1,6.1,1,26c0,4.8-0.2,10.2,2,17c1.1,3.4,2.5,7.6,6,11c4.8,4.7,11,5.5,15,6
	c29.5,3.4,41.2-2.3,61,0c2.2,0.3,7.2,0.9,13-1c0.9-0.3,7.9-2.7,13-9c7.2-9,6.3-21.1,4-45c-0.8-8.2-1.2-12.4-2-14
	C1064.6,1636.1,972.2,1647.1,965.5,1672.5z"/>
<path class="st0" d="M984.5,1675.5c-1.2,3.7,0.6,4.2,0,21c-0.2,4.9-0.5,9,2,13c0.5,0.8,2.4,3.7,7,6c6.4,3.2,11.9,2.5,21,2
	c19.7-1,23.2,1,36-2c6.1-1.4,9.2-2.1,11-4c5.9-6,4-17.6,1-36c-0.9-5.2-1.3-7.8-2-9C1049.8,1648,990.7,1655.7,984.5,1675.5z"/>
<path class="st3" d="M1182.5,1710.5c2.9-7.2,10.4-11.1,30-17c14.3-4.3,24-7.3,40-10c20.5-3.5,22.8-1.8,32-6c6.9-3.2,13.4-7.7,24-15
	c11.9-8.3,10.9-8.6,14-10c15.8-7.2,37.6,2.6,50,13c2.9,2.4,20.3,17.6,22,43c1.2,18.5-6.6,32-9,36c-2,3.3-4.4,6.7-24,24
	c-11.7,10.3-23.2,20.9-35,31c-6.7,5.7-14.7,12.4-20,24c-1.3,2.7-1.2,3.2-2,4c-15,14.8-118.7-74.8-123-107
	C1181.3,1718.8,1180.7,1714.8,1182.5,1710.5z"/>
<path class="st0" d="M1179.5,1657.5c3.4,0.9,2.5,10.1,4,22c3.2,24.9,14.8,41.8,28,61c17.7,25.7,36.8,39.2,75,66c0,0,13.2,9.3,36,16
	c6.2,1.8,10.7,2.2,15,1c4.8-1.3,6.6-3.8,8-3c3.3,1.8,0.5,19.7-8,30c-17.3,21-59.2,11.9-68,10c-61.1-13.3-92.7-68.4-99-80
	c-8.4-15.6-22.2-42-17-74C1157.7,1680.9,1173.5,1655.8,1179.5,1657.5z"/>
<path class="st1" d="M1339.5,1792.5c1.6,15.7,5.5,21.1,9,23c1,0.6,4.4,2.1,5,5c0.4,1.8-0.5,3-1,5c-1.1,4,0.2,7.3,1,10
	c0.2,0.8,4.5,23.2,13,68c3.9,20.3,6.5,39,8,50c0.9,6.2,1.5,11.3,2,15"/>
<path class="st1" d="M1137.5,1736.5c-5.5,3.3-13.5,9-21,18c-7.6,9.1-11.7,18-14,24"/>
<path class="st4" d="M1144,1702.2c-1.8,17.4,1,31.4,2,36c3.3,15.4,6.6,30.8,16.3,49.3c16,30.7,37.9,47.9,47.9,55.5
	c9.9,7.6,33.4,24,67.2,31.9c18.5,4.3,41.5,9.4,59.1-3.1c1.6-1.2,15.1-10.9,13.2-20.6c-1.3-6.8-9.6-10.4-14.3-12.3
	c-27.1-11.2-50.5-14.2-63.2-17.5c-37.4-9.7-59.8-42.4-74.4-63.7c-14.1-20.7-23-33.6-23.4-52.4c-0.3-13.4,3.8-24.6-2-28.8
	c-5.4-3.8-16.5,0.4-22.4,7.2C1147.1,1687.1,1145.1,1691.6,1144,1702.2z"/>
<g>
	<path class="st5" d="M1310,1656c-12.6,5.6-23.1,17.8-21,22c1.7,3.4,10.6-0.7,23,2c14.2,3.1,23,13,31,22c11,12.4,14.7,23.4,22,45
		c2.2,6.7,3.4,11.5,2,17c-1.5,6.1-5.2,9.5-4,11c1.5,1.9,8.8-0.9,14-4c16.3-9.7,21.9-28.7,23-33c7.6-28.8-8.8-53.3-10-55
		C1371.5,1656.3,1334.3,1645.2,1310,1656z"/>
	<path class="st6" d="M928.5,1005.5c-5.9-2.1-14.9,2.6-33,12c-8.8,4.6-23.6,12.4-40,27c-18.1,16.1-29.2,32.6-38,47
		c-25.7,42.3-21.2,51.3-48,105c-25.4,51-38.2,76.5-51,89c-8.3,8.1-18.9,16.7-18,28c1.3,15.1,22.6,23.9,42,33
		c84.8,39.9,95.4,70.1,121,62c5.6-1.8,20.9-8.2,44-83c9.5-30.8,23.7-83.9,32-210C944,1047,943.3,1010.7,928.5,1005.5z"/>
	<path class="st6" d="M721.5,1299.5c-20.9,2.2-36.5,15.4-49,26c-29.5,24.9-39.8,56.5-44,70c-6.1,19.7-6.9,35.3-7,39
		c-0.4,11-1,34.2,11,60c15.1,32.5,40.8,49.3,53,56c9,5,26.5,14.3,51,15c35.4,1,60.4-16.9,70-24c9-6.6,27.1-20,37-44
		c12.2-29.7,4.4-57.8-1-76C826.2,1366.1,775.7,1293.7,721.5,1299.5z"/>
	<g id="XMLID_1_">
		<g>
			<path class="st7" d="M1385.5,1004.5c47.2,49.1,44,183,44,183c-1,40.6-1.4,60.9-28,402c-1.1,13.5-7,90-35,96
				c-12.6,2.7-20.5-10.8-56-20c-19.2-5-34.7-5.6-45-6c-17-0.6-32,0.7-64,6c-33,5.5-54.1,10.4-67,13c-13.4,2.7-48.2,9.7-91.5,10.8
				c-1.6-2-3.1-4.3-4.5-6.8c-2.4-4.3-4.4-9.2-3-14c1.3-4.4,4.1-4.3,5-8c1.4-5.5-4-8.9-11-22c-3.6-6.7-5.4-10.1-5-14
				c0.6-5.8,4.6-7.9,8-14c4.2-7.4,4-14.6,4-22c-0.1-33,5.1-66.1,2-99c-2.5-26.7-9.6-101.2,4.7-181c7.2,0.5,13.2-1.1,14.3-4
				c1.2-3.1-3.9-6.4-10.9-13.1c10.3-47.4,25.2-80.8,31.9-94.9c13.3-27.9,26.1-46.6,42-70c17.1-25.1,43.6-63.5,87-105
				c0,0,20.6-19.7,78-57c5.6-3.7,13.6-8.7,23.5-11.6c3.9,2,8,4.2,12.5,6.6c21.1,11.1,30.8,16.4,43,26
				C1364.5,985.5,1375.6,994.2,1385.5,1004.5z"/>
			<path class="st8" d="M1309,952.9c-10,2.9-17.9,7.9-23.5,11.6c-57.4,37.3-78,57-78,57c-43.4,41.5-69.9,79.9-87,105
				c-15.9,23.4-28.7,42.1-42,70c-6.7,14-21.7,47.5-31.9,94.9c-3.4-3.3-7.3-7.5-11.1-12.9c-2.2-3.1-4-6.2-5.6-9.4
				c3.1-2.1,5.3-12.1,13.6-34.6c0,0,5.8-15.7,31-70c11.3-24.5,31.4-67.7,68-114c20.4-25.9,41.6-52.7,78-78
				c33.2-23.1,46.5-28,56.7-36.1C1284.3,939.9,1294.7,945.4,1309,952.9z"/>
			<path class="st8" d="M1271.8,933.8c1.5,0.7,3.3,1.6,5.4,2.6c-10.2,8.2-23.5,13-56.7,36.1c-36.4,25.3-57.6,52.1-78,78
				c-36.6,46.3-56.7,89.5-68,114c-25.2,54.3-31,70-31,70c-8.3,22.5-10.5,32.5-13.6,34.6c-0.7-1.4-1.3-2.8-2-4.3
				c0.5-2.1,1-4.2,1.6-6.3c8.6-33.2,32.5-109.8,104-203C1186.5,986.4,1229.8,947.2,1271.8,933.8z"/>
			<path class="st9" d="M1266.5,931.5c1.3,0.5,3,1.2,5.3,2.3c-42,13.4-85.3,52.6-138.3,121.7c-71.5,93.2-95.4,169.8-104,203
				c-0.6,2.1-1.1,4.2-1.6,6.3c-2.3-5.4-4.3-11.6-6.4-19.3c-10.7-38.9-14-76.6-14-77c-10.7-123.2-10.8-123.8-14-151
				c-1.7-14.1-1.9-26.1-0.3-44.1c13.2-4.6,28.8-9.8,47.3-15.9c91.2-30.1,131.1-41,174-37C1243.3,923.2,1266.5,931.5,1266.5,931.5z"
				/>
			<path class="st7" d="M1046.6,1291.4c7,6.8,12.1,10,10.9,13.1c-1.1,2.9-7.1,4.5-14.3,4c0.7-4,1.5-8,2.3-12
				C1045.8,1294.8,1046.2,1293.1,1046.6,1291.4z"/>
			<path class="st8" d="M1046.6,1291.4c-0.4,1.7-0.7,3.4-1.1,5.1c-0.8,4-1.6,8-2.3,12c-5.8-0.4-12.3-2.3-17.7-6
				c-1.6-1.1-3.1-2.4-4.7-4.3c0.2-1.2,0.4-2.4,0.7-3.7c0.3-1.4,2.3-12.2,5.4-25.5c0.5,0.3,1.1,0.5,1.6,0.5c0.5,0,0.9-0.1,1.4-0.4
				c1.6,3.3,3.4,6.3,5.6,9.4C1039.3,1283.9,1043.2,1288.1,1046.6,1291.4z"/>
			<path class="st8" d="M1029.5,1638.5c7,13.1,12.4,16.5,11,22c-0.9,3.7-3.7,3.6-5,8c-1.4,4.8,0.6,9.7,3,14c1.4,2.5,2.9,4.8,4.5,6.8
				c-12.4,0.3-25.6,0.2-39.1-0.7c-3.1-5.1-6.3-12-4.5-19.1c1.8-7.2,7-7.6,8-15c0.4-3.2-1-7.8-4-17c-2.9-9-4.1-10.8-4-15
				c0.2-6.2,3.2-10.7,4-12c10.8-17.6,6-78,6-78c-0.4-5.3,0.7,7.1,3-91c1.9-81,1.5-105.2,8.3-143.3c1.5,1.9,3.1,3.2,4.7,4.3
				c5.4,3.7,11.9,5.6,17.7,6c-14.3,79.9-7.2,154.4-4.7,181c3.1,32.9-2.1,66-2,99c0,7.4,0.2,14.6-4,22c-3.4,6.1-7.4,8.2-8,14
				C1024.1,1628.4,1025.9,1631.8,1029.5,1638.5z"/>
			<path class="st8" d="M1021.5,1245.5c2.1,7.7,4.1,13.9,6.4,19.3c-0.4,1.4-0.7,2.8-1,4.2c-11.7-7-21.3-90.7-29.4-160.5
				c-1.1-9.6-3.1-31.7-7-76c-2.6-29.4-4-46.3-4.5-56.6c2.3-0.8,4.7-1.7,7.2-2.5c-1.7,18-1.4,30,0.3,44.1c3.2,27.3,3.3,27.8,14,151
				C1007.5,1168.9,1010.8,1206.6,1021.5,1245.5z"/>
			<path class="st8" d="M1026.9,1269c-3.1,13.3-5.1,24-5.4,25.5c-0.2,1.3-0.5,2.5-0.7,3.7c-2.9-3.5-6-9.2-10.3-19.7
				c-9.3-22.8-12-37-12-37c-13.6-71.2-23-151-23-151s-3.1-75-4-95c0-1-0.3-6.6,0.8-14.7c4.2-1.6,8.8-3.2,13.7-4.9
				c0.5,10.3,1.9,27.2,4.5,56.6c3.9,44.3,5.9,66.4,7,76C1005.6,1178.3,1015.2,1262,1026.9,1269z"/>
			<path class="st7" d="M1010.5,1278.5c4.3,10.5,7.4,16.2,10.3,19.7c-6.8,38.1-6.4,62.3-8.3,143.3c-2.3,98.1-3.4,85.7-3,91
				c0,0,4.8,60.4-6,78c-0.8,1.3-3.8,5.8-4,12c-0.1,4.2,1.1,6,4,15c3,9.2,4.4,13.8,4,17c-1,7.4-6.2,7.8-8,15
				c-1.8,7.1,1.4,14,4.5,19.1c-0.5,0-1-0.1-1.5-0.1c-28.7-1.9-80.3-8.6-111-15c-18.5-3.9-31.9-8.2-50-4c-6,1.4-17.5,4.9-19,2
				c-1.3-2.4,6.3-6,6-12c-0.3-6.8-10.3-7.5-17-18c-0.7-1.1-5.8-9.2-5-19c0.8-10.9,8.1-14,13-26c4.2-10.3,3.3-19,3-27
				c-1-26.4,5-52.6,7-79c1.7-22.3,5.8-58.5,14-131c8.4-73.8,12.6-110.6,17-139c4.4-28.3,11.2-67.9,23-116c12.2-49.7,18.5-74.9,29-89
				c9.2-12.4,18.8-19.6,59.8-34.7c-1.1,8-0.8,13.7-0.8,14.7c0.9,20,4,95,4,95s9.4,79.8,23,151
				C998.5,1241.5,1001.2,1255.7,1010.5,1278.5z"/>
		</g>
		<g>
			<path class="st1" d="M860.5,1220.5c-4.4,28.4-8.6,65.2-17,139c-8.2,72.5-12.3,108.7-14,131c-2,26.4-8,52.6-7,79
				c0.3,8,1.2,16.7-3,27c-4.9,12-12.2,15.1-13,26c-0.8,9.8,4.3,17.9,5,19c6.8,10.5,16.7,11.2,17,18c0.3,6-7.3,9.6-6,12
				c1.5,2.9,13-0.6,19-2c18.1-4.2,31.5,0.1,50,4c30.7,6.4,82.3,13.1,111,15c0.5,0,1,0.1,1.5,0.1c13.5,0.9,26.6,1,39.1,0.7
				c43.2-1.1,78-8.1,91.5-10.8c12.9-2.6,34-7.5,67-13c32-5.3,47-6.6,64-6c10.3,0.4,25.8,1,45,6c35.5,9.2,43.4,22.7,56,20
				c28-6,33.9-82.5,35-96c26.6-341.1,27-361.4,28-402c0,0,3.2-133.9-44-183c-9.9-10.3-21-19-21-19c-12.2-9.6-21.9-14.9-43-26
				c-4.5-2.3-8.6-4.5-12.5-6.6c-14.3-7.5-24.7-13-31.8-16.5c-2.1-1-3.8-1.9-5.4-2.6c-2.3-1.1-4-1.8-5.3-2.3c0,0-23.2-8.3-52-11
				c-42.9-4-82.8,6.9-174,37c-18.5,6.1-34.1,11.3-47.3,15.9c-2.5,0.9-4.9,1.7-7.2,2.5c-4.9,1.7-9.5,3.4-13.7,4.9
				c-41,15.1-50.6,22.3-59.8,34.7c-10.5,14.1-16.8,39.3-29,89C871.7,1152.6,864.9,1192.2,860.5,1220.5"/>
			<path class="st1" d="M1043,1689.3c-1.6-2-3.1-4.3-4.5-6.8c-2.4-4.3-4.4-9.2-3-14c1.3-4.4,4.1-4.3,5-8c1.4-5.5-4-8.9-11-22
				c-3.6-6.7-5.4-10.1-5-14c0.6-5.8,4.6-7.9,8-14c4.2-7.4,4-14.6,4-22c-0.1-33,5.1-66.1,2-99c-2.5-26.7-9.6-101.2,4.7-181
				c0.7-4,1.5-8,2.3-12c0.3-1.7,0.7-3.4,1.1-5.1c10.3-47.4,25.2-80.8,31.9-94.9c13.3-27.9,26.1-46.6,42-70
				c17.1-25.1,43.6-63.5,87-105c0,0,20.6-19.7,78-57c5.6-3.7,13.6-8.7,23.5-11.6"/>
			<path class="st1" d="M1271.8,933.8c-42,13.4-85.3,52.6-138.3,121.7c-71.5,93.2-95.4,169.8-104,203c-0.6,2.1-1.1,4.2-1.6,6.3
				c-0.4,1.4-0.7,2.8-1,4.2c-3.1,13.3-5.1,24-5.4,25.5c-0.2,1.3-0.5,2.5-0.7,3.7c-6.8,38.1-6.4,62.3-8.3,143.3
				c-2.3,98.1-3.4,85.7-3,91c0,0,4.8,60.4-6,78c-0.8,1.3-3.8,5.8-4,12c-0.1,4.2,1.1,6,4,15c3,9.2,4.4,13.8,4,17c-1,7.4-6.2,7.8-8,15
				c-1.8,7.1,1.4,14,4.5,19.1"/>
			<path class="st1" d="M1020.8,1298.2c-2.9-3.5-6-9.2-10.3-19.7c-9.3-22.8-12-37-12-37c-13.6-71.2-23-151-23-151s-3.1-75-4-95
				c0-1-0.3-6.6,0.8-14.7"/>
			<path class="st1" d="M993.2,973.4c-1.7,18-1.4,30,0.3,44.1c3.2,27.3,3.3,27.8,14,151c0,0.4,3.3,38.1,14,77
				c2.1,7.7,4.1,13.9,6.4,19.3"/>
		</g>
	</g>
	<path class="st5" d="M1066.5,959.5c-0.9,9.4-8,11.3-18,25c-10.8,14.7-15.2,29.6-17,36c-5.3,18.4-3.3,29.3-7,30
		c-3.9,0.7-9.3-11.1-18-30c-4.7-10.2-7.4-16.1-10-25c-5-17-7.6-25.6-5-34c6.9-22.6,48.6-37,66-23
		C1063.2,943.1,1067.3,951.6,1066.5,959.5z"/>
	<path class="st5" d="M1057.5,954.5c0.3,1.8,0.4,0.9,9,21c13.4,31.5,15.1,38.1,16,44c2.9,18.7-4.7,28.2,1,27
		c24-5,137.1-65.6,159-110c1.7-3.5,6.3-8.6,4-14c-8-19-19.3-44.8-34-53C1158.1,839.1,1051.1,916.9,1057.5,954.5z"/>
	<path class="st1" d="M1065.5,986.5c-2.2,8.7-5.4,21.9-9,38c-14.4,65.2-20.5,116.7-23,140c-2.9,27.1-4.9,60.9-5,63
		c-0.5,7.2-0.8,32.2-1,36"/>
	<path class="st1" d="M1061.5,1039.5c-0.3,0.8-1.3,3.4,0,5c1.2,1.5,3.6,1.1,4,1c2.3-0.4,4.6-2.3,5-5c0.4-2.5-0.9-5.5-3-6
		C1064.9,1033.8,1062.4,1037.2,1061.5,1039.5z"/>
	<path class="st1" d="M1048.5,1103.5c-1.7,1.9-1.8,5.5,0,7c1.6,1.3,4.2,0.3,5,0c2.8-1.1,5.6-4,5-6
		C1057.7,1102,1051.2,1100.5,1048.5,1103.5z"/>
	<path class="st1" d="M1040.5,1175.5c-2.3,0.6-3.5,3.6-3,6c0.4,1.8,1.9,3.8,4,4c2.6,0.2,5-2.4,5-5
		C1046.5,1177.4,1043.2,1174.7,1040.5,1175.5z"/>
	<path class="st10" d="M1049.5,1331.5c-4.8,4.6-3.2,11.9-3,13c0.1,0.6,2.3,9.8,11,12c5,1.3,11.4,0,15-5c4.4-6.1,1.3-13.3,1-14
		c-3.5-7.8-12.2-8.9-13-9C1058.8,1328.3,1053.4,1327.7,1049.5,1331.5z"/>
	<path class="st10" d="M1050.5,1446.5c-4.4,2.7-6.9,7.9-7,13c-0.1,8.8,7.3,13.6,8,14c4.7,2.9,12.1,4.2,18,0c5.7-4,7.6-11.3,6-17
		C1072.7,1446.6,1058.9,1441.5,1050.5,1446.5z"/>
	<path class="st10" d="M1054.5,1563.5c-4.1,1.4-7.5,4.8-9,9c-2.3,6.6,0.7,14,6,18c5.2,3.9,13,5,19,1c4.6-3,7.5-8.6,7-14
		C1076.5,1567.4,1063.7,1560.4,1054.5,1563.5z"/>
	<path class="st10" d="M1052.5,1664.5c-3.3,1.3-8.5,4.7-8,8c0.6,4.4,10.9,5.8,12,6c8,1.1,18.4-1,19-5c0.5-3.4-6.3-7.5-11-9
		C1062.6,1663.9,1057.8,1662.4,1052.5,1664.5z"/>
	<path class="st1" d="M878.5,1650.5c7.5,3.8,18.7,8.5,33,11c15.2,2.7,26.6,1.5,49-1c28.1-3.1,32-6.1,57-8c11.8-0.9,20.1-0.9,35-1
		c36.9-0.2,40,2.4,63,1c14.9-0.9,15.2-2.1,42-5c20.4-2.2,37.1-3.4,48-4"/>
	<path class="st1" d="M901.5,1592.5c9.9,4.4,23.1,9.8,39,15c8.6,2.8,20.9,6.8,36,10c24.5,5.2,44.1,5.6,66,6c28.8,0.5,32.4-1.8,51,1
		c13.1,2,17.8,4.1,34,7c18.9,3.4,34.6,4.6,45,5"/>
	<path class="st1" d="M840.5,1631.5c23.8,5.1,42.2,4.1,55,2c12.9-2.1,20.2-5.3,37-6c10.7-0.5,18.6,0.4,34,2c10.4,1.1,24.4,2.9,41,6"
		/>
	<path class="st1" d="M1135.5,1665.5c8.2-1.7,21.1-4.4,37-8c28.2-6.3,30.2-7.4,41-9c20.3-3.1,36.6-3.1,50-3c13.6,0.1,23.3,0.1,36,2
		c19.6,2.9,35.3,8.4,46,13"/>
	<path class="st11" d="M1339,969c10.5,1.5,17,4.4,49.5,28.5c13.8,10.2,28.1,20.8,39,32c25.5,26.1,32,54.8,51,116
		c24.7,79.7,37.1,119.5,52,148c7.5,14.3,20.4,37.1,34,72c13.3,34.1,16.5,52.2,17,69c0.5,14.8,0.8,34.6-10,56
		c-4.7,9.3-14.5,28.6-35,37c-21.8,8.9-43.2,0.4-59-6c-42-16.9-65.7-50.6-79-70c-8.6-12.5-2.4-5.9-31-57c-4.9-8.8-17.9-29.8-44-72
		c-4.2-6.8-12.8-20.5-27-35c-9.8-10-20.1-18.2-34-21"/>
	<path class="st11" d="M1565.5,1501.5c-9.4,20.4-36.9,69.6-62,106c-68.5,99.2-72.4,104.9-77,112c-9,14-19,25-25,35
		c-1.8,3-1,10.3-5,12c-3.8,1.6-9.1-2-12-5c-6.3-6.4-6.8-15.3-7-18c-1.6-19.8-15.2-46.2-32-60c-2.5-2-26.2-21.1-45-14
		c-3.2,1.2-6.4,3.3-8,2c-4-3.4,8.8-24.7,14-34c9.1-16.4,7.6-19.1,28-92c12.1-43.4,21.7-74.8,39-110c5.8-11.8,12.8-24.8,27-36
		c20.3-16,42.7-18.3,51-19"/>
	<path class="st5" d="M662.5,1383.5c-3.9,2.3-3.1,11.2-2,22c0.4,4.3,2,16.7,10,30c12.7,21.2,32.8,30.2,48,37c9.1,4.1,22,9.7,40,11
		c9.1,0.7,27.3,1.7,46-8c13.1-6.8,19.2-15.2,22-20c0.6-1.1,7-12.1,4-15c-2.8-2.7-12.2,3.5-17,6c-23.7,12.6-54.4,1.6-70-4
		C693.3,1424.5,672.4,1377.6,662.5,1383.5z"/>
	<path class="st3" d="M652.5,1328.5c-7.3,11.3-9.1,12.3-11,16c-7.1,13.5,0.2,31,4,40c9.8,23.4,27.6,36.3,41,46
		c15.8,11.4,29.6,17.2,39,21c25.1,10.2,61.8,19.8,65,13c2.4-5.2-17.1-14.2-48-44c-22.9-22.1-39.6-38.2-54-64
		c-11.8-21.2-18.8-43.2-26-42C660.2,1314.9,659.7,1317.4,652.5,1328.5z"/>
	<linearGradient id="SVGID_1_" gradientUnits="userSpaceOnUse" x1="253.5" y1="1301" x2="253.5" y2="518">
		<stop  offset="0" style="stop-color:#E09B3D"/>
		<stop  offset="0.3" style="stop-color:#C74C4D"/>
		<stop  offset="0.6" style="stop-color:#C21975"/>
		<stop  offset="1" style="stop-color:#7024C4"/>
	</linearGradient>
	<polygon class="st12" points="-251.3,991.5 -268,606 -164,518 181.8,518.3 214,548 775,1301 663,1301 -175,1034 	"/>
	<path class="st13" d="M599.5,1282.5c-2.2,0.1-6,7,0,11c21.3,14.2,37,26,112,71c0,0,100.9,41.5,177,46c4.3,0.3,15.4,0.8,27-5
		c5.5-2.7,8.9-4.2,10-7c4-10-70-60-131-114c-3.3-3-9.5-3-13-3C709.5,1281.5,631.5,1281.5,599.5,1282.5z"/>
	<path class="st3" d="M672.5,1346.5c3.1-3,9.1,4.3,26,6c18.9,1.9,34-5.1,51-13c20-9.3,30.6-14.2,39-26c3.2-4.5,8.1-12.9,18-23
		c5.9-6.1,9.4-8.4,13-10c2.2-1,11.6-5,22-2c12.2,3.5,18,14.5,22,22c7.4,14,7.3,27.4,7,32c-0.2,3.6-1.3,18.9-18,42
		c-12.4,17.2-31.5,43.7-67,52c-7,1.6-29.2,6.5-54-3C686.4,1406.2,665.2,1353.6,672.5,1346.5z"/>
	<path class="st3" d="M743.5,1392.5c5.1-17.6,91.5-0.8,104-32c3.4-8.4,1.3-20.2,11-28c0.6-0.5,8.6-6.7,18-5
		c17.5,3.2,22.5,30.4,23,33c3.2,18.1-4.3,32.8-6,36c-15.8,29.6-57.4,41.9-91,36C770.3,1426.9,740.3,1403.7,743.5,1392.5z"/>
	<path class="st3" d="M734.5,1448.5c12.8,7.4,32.9,16.7,59,20c12,1.5,34.7,4.1,61-5c9.4-3.3,23.9-8.5,37-22
		c9.8-10.2,14.5-20.6,16-24c3.4-8,4.5-14.4,6-23c1.7-9.6,2.5-14.9,1-22c-0.7-3.4-2.2-9.6-7-15c0,0-5.9-6.5-17-9
		c-23-5.1-166.8,5.5-172,62C717.8,1418.1,719.2,1431.1,734.5,1448.5z"/>
	<path class="st7" d="M886,1044c0.4-1.4,2.2-7.8,7-15c11-16.5,32.3-28.7,41-23c5.6,3.6,5.1,14,3,29c-8.2,59.2-25.2,75.8-38,129
		c-6.2,25.7-6.4,39.2-19,48c-12.5,8.7-34.8,11.4-45,1C810.7,1188.2,869.3,1102.3,886,1044z"/>
	<path class="st1" d="M885,1023c21.3-11.7,40-21,62-32"/>
	<path class="st1" d="M868,1175c-2,9-7.3,46.3-9,55"/>
	<g>
		
			<linearGradient id="SVGID_2_" gradientUnits="userSpaceOnUse" x1="-24.483" y1="2483.4299" x2="-24.483" y2="1938.28" gradientTransform="matrix(1 0 0 1 0 -1446)">
			<stop  offset="0" style="stop-color:#E09B3D"/>
			<stop  offset="0.3" style="stop-color:#C74C4D"/>
			<stop  offset="0.6" style="stop-color:#C21975"/>
			<stop  offset="1" style="stop-color:#7024C4"/>
		</linearGradient>
		<path class="st14" d="M-24.5,621c-78.6,0-142.5,63.9-142.5,142.5S-103.1,906-24.5,906S118,842.1,118,763.5S54.1,621-24.5,621z
			 M-24.5,850.6c-48.1,0-87.1-39-87.1-87.1c0-48.1,39-87.1,87.1-87.1c48.1,0,87.1,39,87.1,87.1C62.6,811.6,23.6,850.6-24.5,850.6z"
			/>
		
			<linearGradient id="SVGID_3_" gradientUnits="userSpaceOnUse" x1="118.31" y1="2483.4299" x2="118.31" y2="1938.28" gradientTransform="matrix(1 0 0 1 0 -1446)">
			<stop  offset="0" style="stop-color:#E09B3D"/>
			<stop  offset="0.3" style="stop-color:#C74C4D"/>
			<stop  offset="0.6" style="stop-color:#C21975"/>
			<stop  offset="1" style="stop-color:#7024C4"/>
		</linearGradient>
		<circle class="st15" cx="118.3" cy="622.1" r="34.1"/>
		
			<linearGradient id="SVGID_4_" gradientUnits="userSpaceOnUse" x1="-24.483" y1="2483.4299" x2="-24.483" y2="1938.28" gradientTransform="matrix(1 0 0 1 0 -1446)">
			<stop  offset="0" style="stop-color:#E09B3D"/>
			<stop  offset="0.3" style="stop-color:#C74C4D"/>
			<stop  offset="0.6" style="stop-color:#C21975"/>
			<stop  offset="1" style="stop-color:#7024C4"/>
		</linearGradient>
		<path class="st16" d="M86.9,488h-222.7c-90.5,0-164.2,73.6-164.2,164.2v222.7c0,90.5,73.6,164.2,164.2,164.2H86.9
			c90.5,0,164.2-73.6,164.2-164.2V652.2C251,561.6,177.4,488,86.9,488z M195.6,874.9c0,60-48.7,108.7-108.7,108.7h-222.7
			c-60,0-108.7-48.7-108.7-108.7V652.2c0-60,48.7-108.7,108.7-108.7H86.9c60,0,108.7,48.7,108.7,108.7L195.6,874.9L195.6,874.9z"/>
	</g>
</g>
<g>
	<path class="st3" d="M958.5,469.5c0.6-6.1,20.1-4.7,49-19c8.6-4.2,18.4-11.2,38-25c32.5-23,32.5-25.5,47-33
		c5.2-2.7,21.8-10.9,45-16c10.3-2.3,19.9-4.4,33-4c10.4,0.3,26.7,1,44,11c17,9.9,25.6,23.5,29,29c8.1,13.2,10.6,25.1,12,32
		c4.3,21.5,1,38.6-2,54c-1.6,8.3-4.6,23.2-13,41c-1.9,4-9.5,19.6-24,37c-5.7,6.9-8.6,10.3-11,12c-27.9,20-88.6-61-199-97
		C988.3,485.6,957.7,477.2,958.5,469.5z"/>
	<path class="st3" d="M1198.5,534.5c6.6-3.3,10.3,2.2,27,2c5.7-0.1,15.7-0.2,26-5c13.7-6.4,18.5-16.8,22-15c3.7,1.9,0.3,14.8,0,16
		c-4.3,16.1-16.5,24.9-18,26c-7.9,5.6-14.3,6.3-14,8c0.4,2,9.8,3.4,18,0c6.9-2.8,9.9-7.8,11-7c1.4,1-1.9,9.2-7,16
		c-2.2,2.9-6.7,8.8-15,13c-11,5.6-21.3,4.5-25,4c-5-0.6-25.3-3.1-33-20C1184.1,558.5,1188.6,539.5,1198.5,534.5z"/>
	<path class="st3" d="M893.5,496.5c-7.2-4.5-11.4,2.5-51,6c-9,0.8-24.4,1.2-55,2c-33,0.9-37.3,0.6-47,3c-10.9,2.7-25.9,6.4-40,19
		c-17.2,15.4-22.2,34.6-24,42c-4.2,16.9-2.2,30.6-1,38c3.4,21.5,12.5,36.1,15,40c13.2,20.4,30.2,29.9,34,32c4,2.2,13.3,6.8,30,10
		c26.3,5,55,3.5,72-2C898.7,663.1,923.4,515,893.5,496.5z"/>
	<path class="st3" d="M771.5,670.5c-11.5,0.5-13.5,11.8-32,19c-4.1,1.6-8.3,3.2-14,3c-9.7-0.3-15.9-5.5-17-4c-1.2,1.5,4.8,8,9,12
		c6.3,5.9,12.6,12,23,14c6.9,1.4,12.4,0.3,14,0c9.2-1.9,14.9-7.2,19-11c5.1-4.8,17.5-16.4,14-25
		C785.4,673.3,777.9,670.2,771.5,670.5z"/>
	<path class="st17" d="M812.5,544.5c12.3-17,22.6-26.4,28-31c21.1-18.1,41.3-25.9,68-36c23.3-8.8,42.9-16.2,71-20
		c39.7-5.4,70.6-0.1,88,3c22.3,4,48.8,9,79,26c6.4,3.6,25.1,14.6,45,34c18.9,18.4,30,35.7,39,50c17.1,27.1,28,52,28,52
		c1.2,2.6,7.6,17.6,18,36c5.8,10.2,9.8,16.4,17,22c9.5,7.4,18.8,9.4,22,10c5.5,1,12.7,2.3,20-1c7.9-3.6,9.6-9.8,12-9
		c4.3,1.4,2.1,21.8-2,38c-3,11.8-5.3,21.4-13,32c-4.2,5.9-11.3,15.8-24,21c-7.4,3.1-14.1,3.4-14,5c0.1,1.8,8.7,1.1,19,5
		c2.2,0.8,16.8,6.6,25,21c3.8,6.7,7,16.7,4,19c-2.5,1.9-7.3-3.1-15-5c-5.7-1.4-14.2-1.3-29,7c-29.6,16.7-83.6,66.3-100,81
		c-13.7,12.2-39.7,34.5-75,57c-16.6,10.6-29.1,17.2-43,23c-15.9,6.6-36.1,14.8-63,16c-16.3,0.7-28.2-1.5-52-6
		c-18.7-3.5-36.5-6.9-59-15c-13.9-5-26.1-10.6-44-11c-9.1-0.2-15.7,1-21,2c-11.8,2.3-19.7,3.7-25,10c-5.6,6.5-4.8,14-7,14
		c-2.5,0-4.6-10.1-5-18c-0.4-7.3-0.8-15.3,4-22c6-8.4,16.4-9.5,16-11c-0.4-1.5-10.7,1.3-22,1c-23.1-0.6-39.9-13.9-45-18
		c-12.6-10-22.1-23.5-20-26c1.2-1.5,5.4,2.5,12,2c11.3-0.8,18.9-13.5,21-17c5.6-9.4,7.2-19.6,7-33c-0.4-22.1-5.4-36.2-10-54
		c0,0-3.5-13.7-10-56C746.3,669.6,779.3,590.1,812.5,544.5z"/>
	<path class="st18" d="M808.5,578.5c-4.2,7.4-11.6,21.3-18,40c-1.7,4.9-9.4,28.3-12,62c-2,25.9,0,45.4,2,64c2.4,22.6,4.8,29.9,10,69
		c1.5,11,2.1,22.1,4,33c0.8,4.9,1.8,10,1,17c-0.3,2.6-1.4,9.9-6,18c-1.9,3.4-5.7,10-13,15c-11.1,7.6-21.3,5.3-22,9
		c-0.8,4.4,12.9,10.2,17,12c13.3,5.7,25.5,7,34,7c10.6,0,17.1,0.1,24-4c6.5-3.8,9.8-9.1,12-8c2.9,1.5,0.2,12.1,0,13
		c-3.2,12.3-11.4,21.2-15,25c-4.8,5-7,6-10,11c-3.8,6.1-5.7,12.7-5,13c0.5,0.2,1.9-3,5-6c2.4-2.3,5.7-4.6,15-7c7-1.8,13.1-2.6,25-4
		c8.5-1,9.8-1,13-2c8.3-2.6,13-7.1,14-6c0.8,0.8-1.4,4.5-4,7c-3.6,3.6-7.2,4-7,5c0.2,1.3,6.6,1.4,12,1c6.8-0.5,9.5-1.6,13-2
		c8.2-0.9,14.4,2.7,21,6c10.9,5.4,22.7,8.5,34,13c25,10,48.5,10,57,10c29.2,0,50.9-8.3,63-13c24.1-9.4,40.1-21.3,53-31
		c18.5-13.9,30.6-26.7,48-45c23.2-24.5,20.5-25.3,38-42c2.4-2.2,23.7-22.4,52-39c1.6-1,12.5-7.3,28-12c12.5-3.8,17.8-3.5,21-3
		c9.9,1.5,16,7.2,17,6c1.5-1.8-10.2-13.2-11-14c-5.8-5.6-8.8-8.6-13-11c-15.3-8.8-31.8-2.1-33-6c-0.8-2.5,5.4-6.4,11-10
		c11-7.1,15.6-7,26-13c6.8-3.9,12.6-7.3,18-14c4.9-6.2,6.7-11.8,10-22c2.6-8.2,6.6-20.7,3-23c-1.7-1.1-4,1-9,3c0,0-8.8,3.5-21,3
		c-12.3-0.5-21.5-7.6-27-12c-9.4-7.5-16.1-19.8-29-44c-16.7-31.3-19.8-37.2-25-46c-1.7-2.9-11.4-19.3-21-33
		c-7.8-11.1-27.4-39.1-58-62c-43.5-32.6-88.8-39.6-106-42c-53.4-7.6-94.5,4.6-105,8c-7.4,2.3-57.5,18.9-99,63
		C822.3,554.8,811.3,573.6,808.5,578.5z"/>
	<path class="st19" d="M806.5,823.5c-1.5,7-1.3,12.1-1,15c1.5,16.2,10.9,26.8,13,29c2.1,2.2,11.8,12.2,28,15c14.2,2.4,25.1-2.1,32-5
		c10.3-4.3,16.6-9.7,26-18c9.6-8.4,15.7-13.7,20-23c4.9-10.6,4.2-19,6-19c2.2,0,6.2,12.3,5,25c-0.4,4.7-1.3,6.4,0,8
		c3,3.8,11.9-0.7,30-5c19.2-4.6,28.8-4.1,30-9c0.6-2.6-1.8-3.8-6-11c-5.1-8.8-8.9-19.7-7-21c1.7-1.1,7,6.1,14,12
		c23.1,19.5,55.5,16.7,63,16c20.8-1.8,35.3-9.8,39-12c11.8-6.8,19.2-14.8,22-18c3.6-4.1,9-10.4,13-20c3.1-7.4,8.1-19.5,4-32
		c-3.6-10.8-12.2-16.6-19-21c-12.9-8.4-18.6-6.2-46-14c-22.1-6.3-33.2-9.4-43-14c-5.8-2.7-13.8-6.9-25-7c-7.2-0.1-13.2,1.6-17,3
		c-10.9,4-17.3,10.9-21,15c-1.5,1.6-8.4,9.4-13,22c-1.1,3-3.2,9.5-4,18c-1.5,16.7,3.3,27,1,28c-2.2,0.9-6.1-8.7-17-20
		c-11.5-11.9-23-17.6-30-21c-8.3-4-12.7-6.1-19-6c-6.7,0.1-13.4,2.5-22,9c-12.5,9.4-14.3,16.2-30,38
		C817.2,801.7,809.7,808,806.5,823.5z"/>
	<path class="st3" d="M825.5,817.5c-1.7,5.9-2.8,9.9-2,15c1.9,12.7,13.2,20.2,16,22c12.8,8.4,26.6,6.8,33,6c5.9-0.7,18.2-2.3,29-12
		c9.6-8.6,12.8-18.9,15-26c3.6-11.4,3.3-21,3-25c-0.4-5.8-1.4-18.5-10-31c-4.7-6.8-12.1-17.6-24-19c-14-1.6-25.4,10.9-31,17
		c-4.7,5.2-1.9,3.8-16,27C832.3,801.7,828.3,807.6,825.5,817.5z"/>
	<path class="st18" d="M855.5,817.5c1-1.9,4.2-0.9,12-2c1.6-0.2,7.8-1.2,15-4c3.5-1.4,6.5-2.6,10-5c4.5-3.1,5.9-5.5,7-5
		c1.7,0.8,0.2,7.8-2,13c-1.4,3.3-3.6,8.3-9,12c-5.2,3.6-10.5,3.9-13,4c-2.9,0.1-9.6,0.4-15-4C857.8,824.3,854.3,819.9,855.5,817.5z"
		/>
	<path class="st3" d="M978.5,739.5c0.6,8.2,2.8,14.6,5,20c5.7,14,9.3,23.1,18,32c14.1,14.5,31.1,18.3,39,20c6.9,1.5,20.1,4.3,36,0
		c4.7-1.2,15.1-4.2,25-13c4-3.6,9-8.1,12-16c0.8-2,4.3-11.8,1-23c-4-13.5-15.4-20.4-23-25c-7.8-4.7-6.9-2.2-35-13
		c-1.9-0.7-10.5-4-22-8c-10.3-3.5-14.5-4.7-20-5c-3.5-0.2-9.7-0.5-17,2c-4.8,1.6-12.9,4.4-17,12C977.6,727.8,978,733,978.5,739.5z"
		/>
	<path class="st18" d="M1016.5,773.5c0.7-1.6,4.4-0.4,14-1c3.6-0.2,11.3-0.7,19-3c11.8-3.6,17.2-9.7,19-8c1.6,1.6-1.8,7.8-4,11
		c-1.7,2.4-7.8,10.5-19,13c-6.7,1.5-11.9,0.3-13,0C1023.3,783.2,1015.4,776.1,1016.5,773.5z"/>
	<path class="st1" d="M922.5,912.5c1.9,3,5.7,7.9,12,12c7,4.4,13.4,5.5,17,6c4.9,0.7,13,1.9,22-2c7.7-3.4,12.3-8.9,14-11
		c1.8-2.3,3.1-4.4,4-6"/>
	<path class="st1" d="M966.5,870.5c3,8.5,6.3,15.2,9,20c6,10.9,10.3,18.3,19,23c4.3,2.3,8.2,3.2,12,4c8.9,2,16.1,1.4,20,1
		c4.6-0.4,10.6-1,18-4c8.8-3.6,14.3-8.5,16-10c5.2-4.8,8.1-9.5,9-11c2.7-4.6,4.2-8.9,5-12"/>
	<path class="st1" d="M990.5,941.5c-0.4,0.8-1.2,2.6-1,5c0.3,3.4,2.4,5.5,3,6"/>
	<path class="st1" d="M997.5,939.5c-0.1,0.8-0.1,2.8,1,5c1.3,2.5,3.3,3.6,4,4"/>
	<path class="st3" d="M927.5,850.5c-1,1.7,0.5,5.7,1,8c0.9,4.5,1.9,9,5,13c2.8,3.5,6.2,5.1,8,6c15.6,7.3,34.1-3.4,58-11
		c0.9-0.3,3.2-1,5-3c2.7-2.9,2.9-6.8,3-10c0.1-2.3,0.3-7.9-3-14c0,0-1.8-7.3-8-9C978.5,825.5,933.5,840.5,927.5,850.5z"/>
	<path class="st18" d="M945.5,854.5c-0.9-3.7,7.8-8.8,10-10c7.9-4.6,30.9-9,35-8c2.5,0.6,6.7,2.4,7,5c0.4,3.2-4.9,6.2-10,9
		c-6.6,3.6-16.6,9-30,8C954,858.2,946.3,857.7,945.5,854.5z"/>
</g>
<path class="st20" d="M650,1337c-1.9-0.7-7.3,5.9-9,14c-1.3,6.2-0.5,12.8,1,13c1.2,0.2,1.5-4.1,5-9c5.9-8.2,15.5-10.8,15-12
	c-0.4-1-7,2-10-1C650.1,1340.1,651.2,1337.4,650,1337z"/>
<path class="st20" d="M1198,1702c1.4-3.3,5.3-3.1,27-7c20.5-3.7,20.7-4.4,33-6c15.4-2,24.6-2,27-2c8.5,0,12.8,0,17,1
	c15.2,3.5,24.6,14,30,20c7.8,8.7,12.7,14.2,12,21c-0.8,7.6-8.2,10.5-24,21c-31.3,20.7-36.7,32.1-50,30c-4.8-0.7-8.9-3.8-17-10
	c-13.4-10.1-17-17.5-33-37C1202.7,1711.9,1195.9,1706.9,1198,1702z"/>
<path class="st21" d="M954,1010c-5.2-2.4-16.2,3.1-38,14c-23.8,11.9-42.4,21.3-61,40c-16.4,16.5-24.6,32.1-34,50
	c-12.2,23.2-7.9,22.3-28,70c-15.5,36.8-23.3,55.2-30,64c-4.9,6.4-14.8,18.5-12,22c1.5,1.8,5-0.4,13-1c8.3-0.6,9.4,1.4,30,4
	c5.9,0.7,9.5,1,14,0c1.5-0.3,7-1.6,11-5c5.8-5,5.9-12.4,7-22c1.1-9.5,4.1-21.6,10-46c0.9-3.7-0.1,0.4,5.8-20.9
	c2.3-8.1,3.4-12.2,4.2-12.1c1.3,0.2-0.2,12.1,3,29c0.5,2.5,1.9,10.1,3,10c1.3-0.1,0.4-11.2,2-26c0.7-6.5,2.2-20.1,8-35
	c6.1-15.8,14.8-27.6,16-27c0.9,0.5-3.1,8.7-6,24c-0.6,3.3-2.9,15.4-1,16c1.2,0.4,3.2-4,10-14c4.7-6.9,7.1-10.3,8-10
	c2.5,0.8-2.3,19.9-7,44c0,0-7.5,38.3-10,84c0,0-0.5,8.3,1,22c1.6,15.3,4.2,20.4,7,24c3.1,3.9,3.8,2.6,9,8c6.7,6.9,6.6,10.1,13,18
	c5.8,7.1,6.8,5.6,12,12c2.9,3.6,4.1,5.9,11,20c9.7,19.9,10.6,22.1,11,26c0.8,9.1-2.4,16.1-4,20c-6,14.2-1.6,11.8-13,64
	c-8.5,39-13,58.7-22,68c-5.2,5.4-17,17.5-35,21c-11.9,2.3-21.3-0.1-23,4c-2.3,5.5,11.4,16.1,15,19c16,12.6,29.5,14.3,29,18
	c-0.5,4-16.4,5.3-25,6c-17.4,1.4-27.8-0.4-28,1c-0.3,1.5,10.5,5.7,23,7c11,1.2,16.2-0.6,29-2c26.1-2.8,41.4,0.9,42-2
	c0.4-2-6.9-3.2-20-11c-8.3-5-14.9-10.6-28-22c-9-7.8-10.6-9.8-10-11c1.2-2.8,12.5-0.2,22,2c10.1,2.3,19.4,5.2,33,10
	c14.2,5,18.2,7,29,10c14.5,4.1,19.8,4.2,25,3c2.6-0.6,12.5-2.8,17-11c3.1-5.6,2.3-11.4,2-14c-1.9-15.3-0.3-31-4-46
	c-5.1-20.9-2.7-51.6,2-113c3.6-46.6,5.4-69.9,8-84c0.9-4.7,2.3-12,2-22c-0.9-26.2-13.2-44.8-18-53c-10.7-18.2-14.5-42.4-22-91
	C948.2,1073.8,973.9,1019.2,954,1010z"/>
<path class="st21" d="M903,1646c-0.3,2,7.9,4.8,13,6c7.6,1.8,13.5,1.3,19,1c17.6-1.1,9.1,0.4,30-1c21.9-1.5,32.9-2.2,33-4
	c0.1-2.1-13.9-4.9-25-6c-10.5-1.1-14.6-0.2-39,1C911.5,1644.1,903.3,1644,903,1646z"/>
<path class="st21" d="M1045,1634c0.3-1.5,9.6-1,27,0c10.4,0.6,18.6,1.3,26,2c22.7,2.1,34,3.1,34,4c0,1.7-25.3,2.6-36,3
	c-14.7,0.5-23.1,0.3-33-2C1054.7,1639.1,1044.7,1635.6,1045,1634z"/>
<path class="st21" d="M1071,1261c11-31,16.5-46.6,27-66c7.1-13.2,25.5-46,58-88c20.9-27.1,36.5-47.2,62-70c30-26.8,32.6-20.5,54-43
	c8.3-8.7,15.5-17.6,28-20c11-2.1,20.3,2,34,9c37.3,19.1,56,28.7,70,43c16,16.4,23.8,31.6,34,52c12.7,25.4,16.5,41.1,30,86
	c17.2,57.4,25.8,86.1,33,103c19.3,45.3,29,68,39,84c6.8,10.9,17.8,27,19,50c0.8,14.8-2.8,26.4-5,33c-18.4,55-51,107-51,107
	c-64.4,102.7-85.7,105.1-100,138c-1.7,3.9-8,19.2-16,19c-4.6-0.1-7.2-5.3-12-11c-4.8-5.8-13-10.7-29-21c-17.3-11.1-23.4-13.2-30-12
	c-3.1,0.6-5.3,2.8-6,2c-1.7-1.7,8.1-13,14-22c11-16.8,12.8-31.9,16-48c2.6-13.1,12.4-41.4,32-98c12.3-35.4,17.7-48.2,30-62
	c12.7-14.2,25.7-21.7,30-24c7.3-4,28.4-14.4,56-14c15.3,0.2,25,3.6,26,1c1.1-2.9-9.9-11.1-22-15c-13.1-4.2-22.6-1.9-23-4
	c-0.4-2.3,10.5-7.7,23-9c15.6-1.6,26.7,3.9,27,3c0.4-1.2-17.2-13-41-15c-6.8-0.6-31.5-1.8-54,13c-13.5,8.9-21.8,20.6-24,19
	c-2.6-1.9,7.8-19,5-21c-2-1.4-7.4,7.4-15,8c-9.9,0.8-18.1-13-27-27c-13.5-21.3-26.4-41.5-42-59c-2.4-2.7-18.8-20.6-44-32
	c-10-4.5-17.5-6.2-24-3c-3,1.5-7.6,4.9-11,15c-9.1,27.3,5.5,60.7,16,84c10.8,24.1,16.2,36.1,28,48c21.6,21.8,47.7,28.8,46,34
	c-1.1,3.3-12.3,3-19,2c-15.1-2.3-22.1-10.4-25-8c-4.4,3.6,7.5,25.3,9,28c11,20,18.7,23.1,21,36c0.4,2.2,0.8,5.5-3,24
	c-5.9,28.8-8.9,31.3-13,52c-4.6,23.5-2.4,28.7-9,38c-2,2.8-8.5,11.3-26,18c-20.9,8-33.9,4.3-86-1c-44.2-4.5-52.9-3.7-63-13
	c-7-6.4-16.5-19.3-23-30c-5.8-9.5-6.8-13.1-13-21c-9.9-12.6-13.8-11.6-18-20c-4.7-9.4-6.2-23.2,0-33c4.6-7.3,9-5.1,17-14
	c2.4-2.6,11.5-13,12-28c0.1-3.7,0.5-16.9-8-24c-6.6-5.5-11.7-1.6-19-6c-14.5-8.6-18.5-37.9-8-48c3.6-3.5,5.7-1.6,14-6
	c3.8-2,14.5-7.7,20-19c4.7-9.5,6.5-24.6-1-34c-7.6-9.6-18.2-4.8-25-13C1058.8,1299.4,1062.6,1284.7,1071,1261z"/>
<path class="st21" d="M639,1404c-1.3,0.5-3.9,2.4-4,24c0,14.2,0,23.4,3,36c2.7,11.3,7.6,24.4,10,24c1.9-0.4-1-8.8,3-20
	c4.4-12.5,12.5-14.9,12-24c-0.2-3.8-1.7-2.9-5-12c-4.3-11.8-2.7-15.4-7-21C648.3,1407.5,642.7,1402.6,639,1404z"/>
<path class="st20" d="M822,1285c-4.8,2.2-8.2,5.1-15,13c-10.3,11.9-13.4,17.5-18,23c-9.3,11.1-20.2,16.1-31,21
	c-31.5,14.4-59.7,9.6-60,13c-0.2,2.7,15.5,7.3,33,9c15.2,1.5,55.8,5.5,88-20c6.2-4.9,12.5-13,25-29c5.2-6.7,8.8-11.7,8-18
	c-0.7-5.6-4.5-10.5-9-13C834.7,1279.3,825.5,1283.4,822,1285z"/>
<path class="st20" d="M877,1337c-6.3,1.8-6.2,10.7-12,22c-5.7,11.1-13.6,17.6-20,23c-15.2,12.7-28.6,14.7-28,17
	c0.7,2.6,18.5,1.4,35-4c10.5-3.4,21.7-7.2,30-18c1.4-1.8,6.5-8.8,8-19c0.8-5.5,2-13.3-3-18C884.8,1337.9,880.7,1335.9,877,1337z"/>
<path class="st20" d="M906,1369c-1.8,0.1,0.4,10.4-6,23c-5,9.8-12.7,16.3-16,19c-9.3,7.7-15.4,8.8-15,11c0.6,3.3,15,6.1,26,0
	c11-6.1,14-18.6,15-23C913.6,1383.7,908.2,1368.9,906,1369z"/>
<polygon class="st22" points="607,1289 783,1289 789,1291 793,1295 784,1292 "/>
<path class="st23" d="M873,1684c-5.9,3.3-4.9,8.1-11,21c-2,4.3-13.7,28.7-29,39c-1.1,0.8-3.4,2.2-5,5c-4,7.1-0.1,16.2,1,19
	c1.1,2.7,4.7,31.1,12,88c1.9,14.9,4,31.6,5,53c1.1,24.2,1.6,36.4,1,50c-0.2,4.2-1.3,5.8,0,6c24,3,146,3,168,3c10.7,0-3.6-25.5-12-34
	c-7.2-7.2-15.9-10.1-25-13c-17.9-5.8-31-4.7-31-6c0-1.2,11.6-3.6,25-2c15.7,1.8,24.9,7.9,26,6c1.5-2.5-13.3-14.2-18-18
	c-18-14.3-27.9-18.5-27-21c1.1-3.1,18-1.5,33,4c10.4,3.9,16.8,8.5,18,7c1.3-1.6-5.6-8.1-13-19c-6.3-9.3-9.5-16.9-13-25
	c-6.7-15.6-6.5-24-14-76c-3.5-24.1-3.1-19.4-4-27c-3.4-28.5-2.7-44.2-7-45c-3.1-0.6-7.4,6.9-11,13c-5.2,9-5.5,13.8-8,14
	c-4.2,0.3-9.1-12.6-11-19c-3.1-10.2-1.9-14.7-5-16c-4.7-2-13.1,6.2-17,11c-4.4,5.4-6.2,10.3-7,10c-1.6-0.6,7.1-16.7,1-25
	C890.7,1681.3,879.9,1680.1,873,1684z"/>
<path class="st23" d="M1140,1715c-12.6,7.3-19.8,16.2-27,25c-6.6,8.2-16,19.7-21,37c-0.1,0.4,0,0.1-4,22c-3.3,18.3-4.3,23.6-2,25
	c1.5,0.9,3.7-0.2,14-8c14.8-11.2,17.1-14.1,24-18c10.3-5.9,21.2-8.5,22-7c0.7,1.3-6.5,5.6-20,18c-8.3,7.6-10.9,10.8-11,15
	c-0.1,4.8,3.3,8.7,7,12c18.8,16.9,48.7,20.3,55,21c24.7,2.6,41.4-0.2,42,3c0.8,3.9-24.7,9.6-24,15c0.7,5.8,30.7,6.8,38,7
	c29.5,1,46.5-3.2,47-1c0.6,2.5-19.2,11.7-43,15c-22.1,3.1-37.6-0.3-38,2c-0.6,3.2,28.4,10.8,33,12c23.9,6.3,35.8,9.4,50,9
	c22-0.6,31-7.8,39-1c4,3.4,5.6,9.6,9,22c2.2,8.2,8.6,20.7,4,22c-21,6-161,6-202,4c-7.1-0.3-6.5-11.1-17-25
	c-7.8-10.3-23.2-29.3-47-50c-25.3-22-26.8-16.9-36-29c-10-13.1-7.8-18.4-21-58c-11.1-33.2-17.8-44.9-12-51c3.6-3.8,8.1-1.3,29-1
	c21.4,0.3,32.2,0.5,43-5c2-1,17-8.8,24-25c4.4-10,1-12.4,5-19c9.4-15.4,36.4-16.6,54-11c2.7,0.9,14.1,4.5,14,9
	C1167.9,1705.7,1155.2,1706.2,1140,1715z"/>
<path class="st23" d="M1185,1720c-1.2-0.7-4-1.5-21,11c-9.4,6.8-16.3,12-25,21c-4.6,4.8-18.3,19-16,22c1.7,2.2,9.9-3.6,24-7
	c5.7-1.4,26.3-7.1,29-2c1.4,2.7-2.6,7.4-10,16c-10.5,12.1-18.2,13.3-18,18c0.3,7.5,19.1,12.3,22,13c14.1,3.6,26.4,1.5,35,0
	c9.8-1.7,8.4-2.8,26-7c15.4-3.6,19.2-3.4,20-6c1.9-6-14.7-21.2-33-22c-17.4-0.7-32,11.7-33,10c-0.8-1.3,9.1-6.3,14-18
	c1.4-3.4,3.6-8.5,2-14c-2-7.1-7.8-6.7-12-14C1183.5,1731.3,1189.1,1722.5,1185,1720z"/>
<path class="st24" d="M1094,994c-0.3,4.9,3.6,7.4,4,18c0.3,8.8-2.2,12.9,0,15c3.5,3.4,14.6-2.8,22-7c31.5-17.9,46-27.3,60-36
	c14.6-9,23.2-13.8,32-24c3-3.5,6-8,12-17c7.4-11.1,8.4-13.8,8-17c-0.7-6.1-6.1-12.2-12-13c-8.1-1-14.4,8.6-22,17
	c-12.6,14.1-25.1,20.7-50,34C1117.4,980.3,1094.7,982.5,1094,994z"/>
<path class="st24" d="M1068,1062c-4.9,0.6-9,14.3-5,18c2.4,2.2,6-0.4,9,2c2.9,2.4,2.4,7.4,2,12c-0.5,5.5-1.4,14.3-8,21
	c-6.2,6.2-10.1,3.4-14,9c-4.1,5.9,0.1,9.3-4,20c-2.4,6.2-5,8.2-4,12c0.9,3.5,4.6,7.2,8,7c6-0.3,8.2-11.9,16-28
	c0.9-1.9,0.6-1.1,18-29c21.3-34.2,22.2-35.9,27-42c6.7-8.5,12.9-15.1,12-16c-0.9-1-9.1,6-25,15c-13.1,7.4-17.9,8.6-22,7
	C1072.1,1067.8,1071.4,1061.6,1068,1062z"/>
<path class="st24" d="M1014,1070c-6,2.2-0.8,26.7,2,58c2.5,28.1,1.6,45,3,45c1.3,0,1.6-14.2,6-46c3.5-25.3,5.2-38,7-47
	c0,0,4.1-20.8,3-21c-0.8-0.2-2.3,13.1-9,15C1020.8,1075.4,1017.3,1068.8,1014,1070z"/>
<path class="st24" d="M1011,1010c-0.7,2,1.4,3.2,5,11c2.5,5.3,3,8.1,4,8c1.2-0.1,0.7-4.5,3-11c2.3-6.6,4.9-8.2,4-10
	C1025.2,1004.5,1012.6,1005.5,1011,1010z"/>
</svg>
