<svg xmlns="http://www.w3.org/2000/svg" viewBox="0 0 671.26 671.26">
    <defs>
        <style>.cls-1{fill:#fff;}.cls-2{fill:#ffc61b;}.cls-3{fill:#11113f;}</style>
    </defs>
    <title>instagram-icon</title>
    <g id="Слой_2" data-name="Слой 2">
        <g id="Слой_1-2" data-name="Слой 1">
            <circle class="cls-1" cx="335.63" cy="335.63" r="335.63"/>
            <path class="cls-2"
                  d="M439.23,181.68H232a50.27,50.27,0,0,0-50.3,50.3h0v207.2a50.36,50.36,0,0,0,50.3,50.4h207.2a50.36,50.36,0,0,0,50.4-50.3h0V232.08a50.51,50.51,0,0,0-50.4-50.4Zm-103.6,228.8a74.8,74.8,0,1,1,74.8-74.8h0A74.81,74.81,0,0,1,335.63,410.48Z"/>
            <path class="cls-3"
                  d="M439.23,504.08H232a64.87,64.87,0,0,1-64.9-64.8V232.08a65,65,0,0,1,64.9-64.9h207.2a65,65,0,0,1,64.9,64.9v207.2A64.93,64.93,0,0,1,439.23,504.08ZM232,196.28a35.76,35.76,0,0,0-35.8,35.8v207.2a35.76,35.76,0,0,0,35.8,35.8h207.2a35.76,35.76,0,0,0,35.8-35.8V232.08a35.76,35.76,0,0,0-35.8-35.8C439.23,196.18,232,196.18,232,196.28ZM335.63,425a89.3,89.3,0,1,1,89.3-89.3h0A89.45,89.45,0,0,1,335.63,425Zm0-149.6a60.3,60.3,0,1,0,60.3,60.3,60.3,60.3,0,0,0-60.3-60.3Z"/>
            <circle class="cls-3" cx="426.03" cy="244.18" r="20.5"/>
        </g>
    </g>
</svg>