<svg xmlns="http://www.w3.org/2000/svg" viewBox="0 0 671.26 671.26">
    <defs>
        <style>
            .cls-1{fill:#fff;}.cls-2{fill:#e6e5e5;}.cls-3{fill:#a3a3a3;}.cls-4{fill:#0d3858;}.cls-5{fill:#ffea50;}.cls-6{fill:#ff651f;}.cls-7{fill:#11113f;}
        </style>
    </defs>
    <title>laptop-and-rocket</title>
    <g id="Слой_2" data-name="Слой 2">
        <g id="Слой_1-2" data-name="Слой 1">
            <circle class="cls-1" cx="335.63" cy="335.63" r="335.63"/>
            <path class="cls-2"
                  d="M483,201.94H188.3a25.4,25.4,0,0,0-25.39,25.39V447.47H299.85a21.89,21.89,0,0,0,21.85,21.85h27.78a21.89,21.89,0,0,0,21.85-21.85h137V227.33A25.4,25.4,0,0,0,483,201.94Z"/>
            <path class="cls-3"
                  d="M371.16,447.47h0a22,22,0,0,1-22,22H321.78a22,22,0,0,1-22-22H134.37v12.86a38.46,38.46,0,0,0,38.42,38.42H498.46a38.46,38.46,0,0,0,38.42-38.42V447.47Z"/>
            <rect class="cls-4" x="199.18" y="236.82" width="275.62" height="176.19"/>
            <path class="cls-5" d="M372.81,214.39l18.72,18.72a71,71,0,0,1,20.78,50.21v36.77L364.9,277.3Z"/>
            <path class="cls-5" d="M299.85,214.14l-20.12,19A71.3,71.3,0,0,0,259,283.32v36.77l47.41-42.79Z"/>
            <path class="cls-6"
                  d="M307.6,289.5a98.62,98.62,0,0,0,55.73,0l11.38-90.2a128.79,128.79,0,0,0-32.4-102.73L340.82,95a5.85,5.85,0,0,0-8.24-.41l-.49.49-2.72,3.13A128.83,128.83,0,0,0,298,196.66Z"/>
            <path class="cls-7"
                  d="M536.88,439.23H371.16a8.27,8.27,0,0,0-8.24,8.24,13.85,13.85,0,0,1-13.77,13.77H321.78A13.85,13.85,0,0,1,308,447.47a8.27,8.27,0,0,0-8.24-8.24H171.15V227.33a17.19,17.19,0,0,1,17.15-17.15H291.11l.08.74L274,227.09l-.16.16a79,79,0,0,0-23.25,56.06v36.77a8.27,8.27,0,0,0,8.24,8.24,8,8,0,0,0,5.52-2.14l36.11-32.57a8.73,8.73,0,0,0,4.78,3.79,104.17,104.17,0,0,0,29.85,4.37h.33a106.86,106.86,0,0,0,30.18-4.37,8.57,8.57,0,0,0,4.86-4l36.28,32.73a8.22,8.22,0,0,0,11.63-.58,8,8,0,0,0,2.14-5.52V283.23a78.7,78.7,0,0,0-23.25-56.06l-15.83-15.83.16-1.24H483a17.14,17.14,0,0,1,17.15,17.15V443.92c0,4.53,3.22.82,7.75.82s8.74,1.81,8.74-2.72V227.33A33.67,33.67,0,0,0,483,193.7H383.53A137.24,137.24,0,0,0,348.41,91l-1.48-1.57a13.87,13.87,0,0,0-10.39-4.62h-.08A13.79,13.79,0,0,0,326,89.65l-2.72,3.13a137.83,137.83,0,0,0-33.8,100.92H188.3a33.67,33.67,0,0,0-33.64,33.64V439.23H134.37a8.27,8.27,0,0,0-8.24,8.24v12.86A46.73,46.73,0,0,0,172.8,507H498.46a46.73,46.73,0,0,0,46.67-46.67V447.47a8.27,8.27,0,0,0-8.24-8.24ZM267.2,301.54v-18.3a62.23,62.23,0,0,1,18.3-44.36l7.83-7.42,4.37,42.46Zm118.48-62.66a62.7,62.7,0,0,1,18.39,44.44v18.3l-30.51-27.54,1.32-10.72,4-31.25Zm-50-135.21.91-1.07a120.72,120.72,0,0,1,30,95.72l-1.9,15h0l-7.91,62.91h0l-.82,6.68a89.19,89.19,0,0,1-20.36,2.31h-.33a90.91,90.91,0,0,1-20-2.31l-6.51-62.66-.74-7.09h0l-1.81-17.48A121.18,121.18,0,0,1,335.63,103.66Zm193,356.67a30.19,30.19,0,0,1-30.18,30.18H172.8a30.19,30.19,0,0,1-30.18-30.18v-4.62H292.76a30.37,30.37,0,0,0,29.1,22h27.37a30.28,30.28,0,0,0,29.1-22h150.3v4.62Z"/>
            <path class="cls-7"
                  d="M268.76,244.24c4.53,0,6.35-2.06,6.35-6.6s6.76-9.07,2.23-9.07H199.18a8.27,8.27,0,0,0-8.24,8.24V413a8.27,8.27,0,0,0,8.24,8.24H474.8A8.27,8.27,0,0,0,483,413V236.82a8.27,8.27,0,0,0-8.24-8.24H388.56c-4.53,0,5.52,3.46,5.52,8s4.53,8,9.07,8l63.4.58v159.7H207.42V245.06Z"/>
            <circle class="cls-7" cx="335.63" cy="171.93" r="8.24"/>
            <circle class="cls-7" cx="508.36" cy="414.49" r="8.24"/>
            <path class="cls-7" d="M322.44,355.62V322.07a8.24,8.24,0,1,0-16.49,0v33.56a8.24,8.24,0,1,0,16.49,0Z"/>
            <path class="cls-7" d="M364.32,369.64V320.17a8.24,8.24,0,0,0-16.49,0v49.47a8.24,8.24,0,1,0,16.49,0Z"/>
        </g>
    </g>
</svg>