<svg xmlns="http://www.w3.org/2000/svg" viewBox="0 0 146.5 146.5">
    <defs>
        <style>
            .cls-1{fill:none;stroke:#00c5db;stroke-miterlimit:10;stroke-width:5px;}.cls-2{fill:#d3bd7f;}.cls-3{fill:#bca661;}.cls-4{fill:#8e7940;}.cls-5{fill:#11113f;}
        </style>
    </defs>
    <title>libra</title>
    <g id="Слой_2" data-name="Слой 2">
        <g id="Layer_1" data-name="Layer 1">
            <circle class="cls-1" cx="73.25" cy="73.25" r="70.75"/>
            <polyline class="cls-2" points="70.08 49.11 70.08 97.27 76.78 97.27 76.23 48.39"/>
            <path class="cls-3" d="M76.23,49.11"/>
            <polygon class="cls-3" points="64.9 98.48 81.32 98.48 81.87 104.02 64.9 104.02 64.9 98.48"/>
            <polygon class="cls-4" points="58.41 104.24 88.63 104.24 88.63 110.22 58.96 110.22 58.41 104.24"/>
            <polygon class="cls-4"
                     points="33.61 75.79 58.41 77.01 56.19 82.54 50.22 87.86 43.68 89.18 36.27 85.53 33.61 75.79"/>
            <polygon class="cls-3"
                     points="88.63 63.72 113.64 63.72 112.87 68.93 103.46 77.01 96.27 75.68 89.18 69.59 88.63 63.72"/>
            <circle class="cls-3" cx="73.68" cy="44.79" r="3.6"/>
            <path class="cls-5"
                  d="M113.79,62.07H112.7c-1.08-5.58-6.74-15.4-9.23-19.51a4.47,4.47,0,1,0-5,0c-2.49,4.16-8.14,14-9.23,19.51H88.11a1.68,1.68,0,0,0-1.68,1.68,14.57,14.57,0,0,0,29.15,0,1.68,1.68,0,0,0-1.68-1.68h-.11ZM100.9,37.73a1.08,1.08,0,1,1-1.08,1.08h0A1.08,1.08,0,0,1,100.9,37.73Zm0,7.12c2.85,4.81,7.25,12.82,8.34,17.21H92.58c1-4.11,5-11.61,8.31-17.21Zm0,30.11a11.22,11.22,0,0,1-11.07-9.52H112A11.22,11.22,0,0,1,100.9,75Z"/>
            <path class="cls-5"
                  d="M88.19,102.4H83.73V98.15a1.68,1.68,0,0,0-1.68-1.68H77.72V49.37a6.37,6.37,0,0,0,2-4.21l18.83-4c.93-.07-.37-.24-.44-1.16s.65-2.12-.28-2c-.16,0-11.55,2.35-11.7,2.4l-7.18,1.49a6.39,6.39,0,0,0-12,2.59l-17.8,3.83A4.45,4.45,0,1,0,43,54.6c-2.51,4.16-8.15,14-9.24,19.51H32.66a1.68,1.68,0,0,0-1.73,1.63h0v.12a14.57,14.57,0,0,0,29.15,0,1.68,1.68,0,0,0-1.68-1.68H57.3c-1.08-5.58-6.74-15.4-9.23-19.51a4.47,4.47,0,0,0,1.84-3.12l17.69-3.8a6.42,6.42,0,0,0,1.19,1.63v47H64.53a1.68,1.68,0,0,0-1.69,1.67h0v4.36H58.38a1.68,1.68,0,0,0-1.68,1.68h0v6.31a1.68,1.68,0,0,0,1.68,1.68H88.19a1.68,1.68,0,0,0,1.68-1.68h0v-6.34A1.68,1.68,0,0,0,88.19,102.4ZM45.49,49.83a1.08,1.08,0,1,1-1.08,1.08h0A1.08,1.08,0,0,1,45.49,49.83Zm0,37.22a11.22,11.22,0,0,1-11.07-9.5H56.57A11.22,11.22,0,0,1,45.49,87Zm8.34-12.89H37.17c1-4.12,5-11.6,8.32-17.21,2.85,4.82,7.25,12.83,8.34,17.22ZM73.28,41.79a3,3,0,1,1-3,3,3,3,0,0,1,3-3Zm1.08,9.31V96.44H72.11V51.13a6.31,6.31,0,0,0,2.24,0ZM66.16,99.76h14.2v2.59H66.21V99.8Zm20.31,8.9H60.07v-2.93H86.51Z"/>
            <path class="cls-5"
                  d="M94.57,40.34a1.68,1.68,0,0,0-2-1.29h0l-1.22.26a1.68,1.68,0,1,0,.7,3.25l1.22-.26A1.68,1.68,0,0,0,94.57,40.34Z"/>
        </g>
    </g>
</svg>