<svg xmlns="http://www.w3.org/2000/svg" viewBox="0 0 100 100">
    <defs>
        <style>.cls-1{fill:#fff;}.cls-2{fill:#92e03f;}.cls-3{fill:#ffd41d;}.cls-4{fill:#11113f;}</style>
    </defs>
    <title>6-1</title>
    <g id="Слой_2" data-name="Слой 2">
        <g id="Layer_1" data-name="Layer 1">
            <circle class="cls-1" cx="50" cy="50" r="50"/>
            <path class="cls-2" d="M39.85,68.74H22.61V40H39.85a2,2,0,0,1,2,2V66.74A2,2,0,0,1,39.85,68.74Z"/>
            <path class="cls-3"
                  d="M41.86,64.42l1.39,1.34a10.66,10.66,0,0,0,7.4,3H73.82a3.56,3.56,0,0,0,3.56-3.56h0a3.56,3.56,0,0,0-3.56-3.56h0a3.56,3.56,0,0,0,3.56-3.56v-.14a3.56,3.56,0,0,0-3.56-3.56h0a3.56,3.56,0,0,0,3.56-3.56v0a3.56,3.56,0,0,0-3.56-3.56h0a3.56,3.56,0,0,0,3.56-3.56v-.11A3.56,3.56,0,0,0,73.82,40H58.44a19.17,19.17,0,0,0,3.63-10.89c0-.94,0-1.9,0-3.09a3.27,3.27,0,0,0-3.26-3.27h0a3.19,3.19,0,0,0-2.3,1,3.16,3.16,0,0,0-.85,2.4,29.43,29.43,0,0,1-9.27,14,27.06,27.06,0,0,1-4.5,3h0V64.42Z"/>
            <path class="cls-4"
                  d="M78.5,43.65v-.11a4.68,4.68,0,0,0-4.68-4.68H60.48a20.13,20.13,0,0,0,2.69-9.76c0-.58,0-1.18,0-1.8,0-.41,0-.83,0-1.3a4.38,4.38,0,0,0-7.49-3.08,4.24,4.24,0,0,0-1.07,2,20.11,20.11,0,0,1-1.21,3.92,27.31,27.31,0,0,1-7.74,10.32,26.32,26.32,0,0,1-2.79,2,3.13,3.13,0,0,0-3-2.29H22.61A1.12,1.12,0,0,0,21.5,40V68.76a1.12,1.12,0,0,0,1.11,1.11H39.85A3.14,3.14,0,0,0,43,67a11.71,11.71,0,0,0,7.69,2.86H73.82a4.68,4.68,0,0,0,3-8.24,4.65,4.65,0,0,0,1.65-3.56v-.14a4.69,4.69,0,0,0-1.65-3.56A4.65,4.65,0,0,0,78.5,50.8v0a4.69,4.69,0,0,0-1.65-3.56A4.73,4.73,0,0,0,78.5,43.65Zm-38.65,24H35.79v-9.7a1.11,1.11,0,0,0-2.23,0v9.7H23.73V41.09H39.85a.9.9,0,0,1,.9.9v1h0V66.74A.9.9,0,0,1,39.85,67.63Zm36.43-24a2.46,2.46,0,0,1-2.45,2.45H70.74a1.11,1.11,0,0,0,0,2.23h3.08a2.46,2.46,0,0,1,2.45,2.45v0a2.46,2.46,0,0,1-2.45,2.45H70.74a1.11,1.11,0,0,0,0,2.23h3.08a2.46,2.46,0,0,1,2.45,2.45v.14a2.46,2.46,0,0,1-2.45,2.45H70.74a1.11,1.11,0,0,0,0,2.23h3.08a2.45,2.45,0,0,1,0,4.9H50.66A9.48,9.48,0,0,1,44,65l-1-1V43.67a28.57,28.57,0,0,0,4.09-2.76,29.45,29.45,0,0,0,8.37-11.16,22.93,22.93,0,0,0,1.36-4.34,1.93,1.93,0,0,1,.5-1,2.1,2.1,0,0,1,1.46-.61h0A2.15,2.15,0,0,1,61,26c0,.47,0,.91,0,1.32,0,.62,0,1.2,0,1.76a17.92,17.92,0,0,1-3.42,10.26,1.11,1.11,0,0,0,.9,1.76H73.82a2.46,2.46,0,0,1,2.45,2.45v.1Z"/>
        </g>
    </g>
</svg>