<svg xmlns="http://www.w3.org/2000/svg" viewBox="0 0 671.26 671.26">
    <defs>
        <style>.cls-1{fill:#fff;}.cls-2{fill:#c6bb99;}.cls-3{fill:#efe9d0;}.cls-4{fill:#11113f;}</style>
    </defs>
    <title>list</title>
    <g id="Слой_2" data-name="Слой 2">
        <g id="Слой_1-2" data-name="Слой 1">
            <circle class="cls-1" cx="335.63" cy="335.63" r="335.63"/>
            <polyline class="cls-2" points="407.2 460.29 409.59 517.54 466.85 465.06 407.2 460.29"/>
            <polygon class="cls-3"
                     points="204.41 148.94 466.85 148.94 466.85 455.51 407.2 460.29 407.2 522.32 204.41 522.32 204.41 148.94"/>
            <path class="cls-4"
                  d="M468.33,141H201.74a7.75,7.75,0,0,0-7.75,7.75h0V522.54a7.75,7.75,0,0,0,7.75,7.75H404.45a7.75,7.75,0,0,0,5.49-2.27l63.88-63.88a7.75,7.75,0,0,0,2.27-5.49V148.72a7.75,7.75,0,0,0-7.74-7.77h0ZM412.19,503.83V466.37h37.46Zm48.38-52.93H404.4a7.75,7.75,0,0,0-7.75,7.75h0v56.16H209.49V156.47H460.57Z"/>
            <path class="cls-4"
                  d="M288.07,206.2a7.75,7.75,0,0,0-11,0h0L254.28,229l-5.67-5.67a7.77,7.77,0,0,0-11,11l11.15,11.15a7.75,7.75,0,0,0,11,0h0l28.31-28.31a7.75,7.75,0,0,0,0-11Z"/>
            <path class="cls-4" d="M426.94,221.71h-2.72a7.75,7.75,0,1,0,0,15.51h2.72a7.75,7.75,0,1,0,0-15.51Z"/>
            <path class="cls-4" d="M399.45,221.71H312.61a7.75,7.75,0,1,0,0,15.51h86.84a7.75,7.75,0,1,0,0-15.51Z"/>
            <path class="cls-4"
                  d="M288.07,281.28a7.75,7.75,0,0,0-11,0h0l-22.83,22.83-5.67-5.67a7.77,7.77,0,0,0-11,11l11.15,11.15a7.75,7.75,0,0,0,11,0h0l28.31-28.31a7.75,7.75,0,0,0,0-11Z"/>
            <path class="cls-4" d="M426.94,296.74H312.57a7.75,7.75,0,0,0,0,15.51H427a7.75,7.75,0,0,0,0-15.51Z"/>
            <path class="cls-4"
                  d="M288.07,356.12a7.75,7.75,0,0,0-11,0h0L254.28,379l-5.67-5.67a7.77,7.77,0,0,0-11,11l11.15,11.15a7.75,7.75,0,0,0,11,0h0l28.31-28.31a7.75,7.75,0,0,0,0-11Z"/>
            <path class="cls-4" d="M426.94,371.58H312.57a7.75,7.75,0,1,0,0,15.51H427a7.75,7.75,0,0,0,0-15.51Z"/>
        </g>
    </g>
</svg>