<svg xmlns="http://www.w3.org/2000/svg" viewBox="0 0 720 720">
    <defs>
        <style>
            .cls-1{fill:#fff;}.cls-2{fill:#6772b2;}.cls-3{fill:#b5aa68;}.cls-4{fill:#f7f4df;}.cls-5{fill:#b9b3ba;}.cls-6{fill:#d44be8;}.cls-7{fill:#eaa549;}.cls-8{fill:#48edc1;}.cls-9{fill:#11113f;}
        </style>
    </defs>
    <title>man-diagramma</title>
    <g id="Слой_2" data-name="Слой 2">
        <g id="Layer_1" data-name="Layer 1">
            <circle class="cls-1" cx="360" cy="360" r="360"/>
            <polygon class="cls-2"
                     points="118.25 541.77 140.1 493.56 198.85 473.23 237.7 503.36 274.91 473.23 321.61 483.77 359.27 528.21 354 556.07 149.88 556.07 118.25 541.77"/>
            <polygon class="cls-3"
                     points="192.07 357.62 192.07 318.07 232.74 302.26 277.17 311.74 289.97 357.62 192.07 357.62"/>
            <polygon class="cls-4"
                     points="192.07 367.03 248.56 339.91 284.08 357.62 275.67 433.31 238.07 451.39 204.87 433.31 192.07 367.03"/>
            <polygon class="cls-5"
                     points="230.48 184.76 246.3 175.72 579.96 175.72 596.53 196.06 592.01 416.74 579.2 433.31 275.67 433.31 286.21 338.41 268.89 307.52 222.94 300.74 230.48 184.76"/>
            <polygon class="cls-6" points="478.27 225.43 523.47 225.43 526.48 397.16 478.27 397.16 478.27 225.43"/>
            <rect class="cls-7" x="398.43" y="318.07" width="43.69" height="79.08"/>
            <polygon class="cls-8" points="321.61 263.09 363.79 263.09 368.18 393.38 317.85 393.38 321.61 263.09"/>
            <path class="cls-9"
                  d="M573,165.38H245.93a31.75,31.75,0,0,0-31.7,31.7v97.26a42.78,42.78,0,0,0-34.38,44.77l1.39,20.65L184.38,408a53.51,53.51,0,0,0,91.35,34.29H573.12a31.75,31.75,0,0,0,31.7-31.7V197.07A31.75,31.75,0,0,0,573,165.38ZM200.28,348.32l-.69-10.48a23.1,23.1,0,0,1,21.62-24.49h27L242.7,328C241,330.34,230.73,344.2,200.28,348.32Zm71.06,58.41a33.68,33.68,0,0,1-67.28,0l-2.49-38.57a90.56,90.56,0,0,0,47.91-18.86,40.9,40.9,0,0,0,6.93,4.62,91.51,91.51,0,0,0,18,6.19ZM276,337.81v1.9a58.25,58.25,0,0,1-10.17-3.65,19.74,19.74,0,0,1-3.89-2.5l5.65-15.15a23.49,23.49,0,0,1,2.26,2.17,22.78,22.78,0,0,1,6,17.23Zm308.93,72.77A11.87,11.87,0,0,1,573,422.45H288.1a53.83,53.83,0,0,0,3-14.46v-.73H546.28a9.91,9.91,0,1,0,0-19.83H535.52V224.11a9.89,9.89,0,0,0-9.89-9.89h-48a9.89,9.89,0,0,0-9.87,9.89h0V387.5H455.38V316.57a9.89,9.89,0,0,0-9.89-9.89H397.63a9.89,9.89,0,0,0-9.89,9.89h0V387.5h-11.6V263.09a9.89,9.89,0,0,0-9.89-9.89H318.39a9.89,9.89,0,0,0-9.89,9.89h0V387.5h-16l2.26-34.56.88-13.86a43,43,0,0,0-10-30.13V210.8a9.91,9.91,0,1,0-19.83,0h0v84.73a42.69,42.69,0,0,0-13-2H234V197a11.87,11.87,0,0,1,11.86-11.89H573A11.87,11.87,0,0,1,584.9,197h0ZM328.27,387.5V273h28.05V387.5Zm79.38,0v-61h27.72v61Zm80,0V234.1h28.05V387.5Z"/>
            <path class="cls-9"
                  d="M367.54,529.3a81.74,81.74,0,0,0-80.49-67.19H271.94a9.93,9.93,0,0,0-7,2.91l-27.26,27.26L210.39,465a9.89,9.89,0,0,0-7-2.91H188.27a81.74,81.74,0,0,0-80.49,67.19,33.41,33.41,0,0,0,32.9,39.37H334.74a33.41,33.41,0,0,0,32.9-39.37ZM345.08,544a13.56,13.56,0,0,1-10.44,4.94H140.58a13.63,13.63,0,0,1-13.4-16,62,62,0,0,1,61-50.84h11l31.37,31.37a9.89,9.89,0,0,0,13.86,0L275.78,482h11a62,62,0,0,1,61,50.84h0A13.56,13.56,0,0,1,345.15,544Z"/>
        </g>
    </g>
</svg>