<svg xmlns="http://www.w3.org/2000/svg" viewBox="0 0 720 720">
    <defs>
        <style>.cls-1{fill:#fff;}.cls-2{fill:#edb137;}.cls-3{fill:#5353a5;}.cls-4{fill:#11113f;}</style>
    </defs>
    <title>masks</title>
    <g id="Слой_2" data-name="Слой 2">
        <g id="Layer_1" data-name="Layer 1">
            <circle class="cls-1" cx="360" cy="360" r="360"/>
            <polygon class="cls-2"
                     points="178.74 120.78 241.03 184.82 333.21 233.66 415.67 256.08 353.22 347.34 283.36 404.99 157.88 429 125.85 348.94 117.85 266.31 178.74 120.78"/>
            <polygon class="cls-3"
                     points="311.59 423.4 435.33 388.69 539.53 289.03 590.99 393.86 600.6 476.24 577.38 570.71 561.37 599.53 489.32 589.92 413.26 561.9 311.59 444.28 311.59 423.4"/>
            <path class="cls-4"
                  d="M425.45,249.51a9.77,9.77,0,0,0-8.63-4.5h0c-.43,0-71.73-14.68-128.78-40.14-4.92-2.23-2.45,5.46-4.68,10.38s-9.61,4.31-4.66,6.52c29.06,13.56,90.32,38.09,122.15,42-26.82,47-97.27,162.74-236.57,154.83C89.62,303.14,152,184.2,179.83,136.2c19.37,25.79,72.5,67.12,98.9,85.65,4.66,2.72,1.94-1.86,4.66-6.52,2.43-4.18,8.44-7.35,4.68-10.38-28.82-19.68-81.55-62.8-100.55-92.07a9.77,9.77,0,0,0-8.49-5h0a9.77,9.77,0,0,0-8.49,4.92l-3.35,5.7A417,417,0,0,0,115.57,241.3c-15.4,70.45-3.71,135,34.79,192.14a9.77,9.77,0,0,0,7.13,4.28q10.34.78,20.17.78c147.84,0,219.07-128.37,243.17-171.15l4.12-7.27A9.77,9.77,0,0,0,425.45,249.51Z"/>
            <path class="cls-4"
                  d="M288.45,204.87H288a9.78,9.78,0,1,0-9.85,16.91h.5a9.8,9.8,0,1,0,10.46-16.58q-.34-.21-.69-.4h0Z"/>
            <path class="cls-4"
                  d="M276.19,323.68a12.55,12.55,0,0,0-15.55-1.36,39.79,39.79,0,0,1-61.55-35.66,12.55,12.55,0,0,0-23.39-7.13h0a59.33,59.33,0,0,0,102.76,59.32h0A12.47,12.47,0,0,0,276.19,323.68Zm-69,20.25a39.58,39.58,0,0,1-17.9-22,59.76,59.76,0,0,0,45.92,26.53A39.44,39.44,0,0,1,207.16,343.93Z"/>
            <path class="cls-4"
                  d="M240.67,249.94A44.7,44.7,0,0,0,186,218.35,9.78,9.78,0,0,0,191,237.25,25.11,25.11,0,0,1,221.78,255a9.78,9.78,0,0,0,19-4.56Q240.75,250.19,240.67,249.94Z"/>
            <path class="cls-4"
                  d="M326.46,299.44a44.7,44.7,0,0,0-54.7-31.59,9.78,9.78,0,1,0,4.56,19l.5-.13a25.11,25.11,0,0,1,30.74,17.76,9.78,9.78,0,0,0,18.89-5.06Z"/>
            <path class="cls-4"
                  d="M551.89,290.58l-4.28-7.13a9.77,9.77,0,0,0-17,0c0,.43-49.64,55.54-99.48,91.63-4.37,3.2,2.5,6,5.67,10.41s.5,9,4.8,5.84l29.11-19h0a305.07,305.07,0,0,0,67.94-65.79c27.46,46.35,92.13,165.59,15.76,282.32-137.56,7-208.87-106.46-236.75-154.61,31.86-3.83,93.67-28.68,122.79-42.14,4.92-2.23-4.66-3.35-6.89-8.28s.53-9.91-4.39-7.69c-31.29,14.94-92.74,37.74-127.36,39.55h0a9.77,9.77,0,0,0-8.49,14.68l3.2,5.78a417,417,0,0,0,80.15,105.68c48.5,44.21,104.08,66.53,165.51,66.53q9.06,0,18.25-.64a9.77,9.77,0,0,0,7.13-4.21C659.28,470.15,578.41,335.08,551.89,290.58Z"/>
            <path class="cls-4"
                  d="M444.28,378.73a9.77,9.77,0,0,0-13.19-3.63h0a9.77,9.77,0,1,0,9.33,17h0a9.77,9.77,0,0,0,3.94-13.24h0Z"/>
            <path class="cls-4"
                  d="M566.58,491h0a59.33,59.33,0,0,0-102.76,59.32h0a12.47,12.47,0,0,0,10.78,6.2,12.62,12.62,0,0,0,12.55-12.68v0h0v-.64a39.79,39.79,0,0,1,61.55-35.66A12.55,12.55,0,0,0,566.59,491Zm-69.38-1.51a59.32,59.32,0,0,0-19.9,18.69,39.64,39.64,0,0,1,46-26.53,59.4,59.4,0,0,0-26.39,7.85Z"/>
            <path class="cls-4" d="M566.18,490.82"/>
            <path class="cls-4"
                  d="M532.55,389a9.77,9.77,0,0,0-11.88,7v.14h0a25.11,25.11,0,0,1-30.81,17.4,9.78,9.78,0,0,0-5.56,18.76l.5.13h0a44.14,44.14,0,0,0,54.15-31l.16-.62A9.77,9.77,0,0,0,532.55,389Z"/>
            <path class="cls-4"
                  d="M446.7,438.48a9.77,9.77,0,0,0-11.88,7v.1h0a25.11,25.11,0,0,1-30.69,17.81h0a9.78,9.78,0,0,0-5.06,18.89h0a44.14,44.14,0,0,0,54.25-30.9h0l.16-.62a9.77,9.77,0,0,0-6.37-12.25h0Z"/>
        </g>
    </g>
</svg>