<svg xmlns="http://www.w3.org/2000/svg" viewBox="0 0 614.2 614.2">
    <defs>
        <style>.cls-1{fill:#fff;}.cls-2{fill:#ef5252;}.cls-3{fill:#fff424;}.cls-4{fill:#11113f;}</style>
    </defs>
    <title>medal</title>
    <g id="Слой_2" data-name="Слой 2">
        <g id="Слой_1-2" data-name="Слой 1">
            <circle class="cls-1" cx="307.1" cy="307.1" r="307.1"/>
            <polygon class="cls-2"
                     points="313.19 415.46 358.55 406.05 407.34 370.95 454.42 455.69 381.66 442 364.55 509.62 313.19 415.46"/>
            <polygon class="cls-2"
                     points="201.91 370.95 149.7 459.97 223.31 442 245.57 512.19 303.77 417.18 246.42 401.77 201.91 370.95"/>
            <circle class="cls-3" cx="304.63" cy="266.53" r="139.52"/>
            <path class="cls-4"
                  d="M313.1,155.77a8.58,8.58,0,0,0-8.56-8.56h0a120.23,120.23,0,0,0-116.07,89.62,8.6,8.6,0,0,0,15.92,6.51,20,20,0,0,0,.6-2.14,102.83,102.83,0,0,1,99.46-76.86,8.71,8.71,0,0,0,8.65-8.56Z"/>
            <path class="cls-4"
                  d="M193.61,253.69a8.58,8.58,0,0,0-8.9,8.13v5.39a8.59,8.59,0,1,0,17.12,1.54v-6.08A8.67,8.67,0,0,0,193.61,253.69Z"/>
            <path class="cls-4"
                  d="M414.36,287A8.55,8.55,0,0,0,404,293.23v.09h0a102.85,102.85,0,0,1-99.55,76.86,8.59,8.59,0,0,0,0,17.12,120.23,120.23,0,0,0,116.07-89.62,8.5,8.5,0,0,0-5.73-10.61h0l-.43-.09Z"/>
            <path class="cls-4"
                  d="M415.3,280.65h.34a8.69,8.69,0,0,0,8.56-8.22V267a8.59,8.59,0,1,0-17.12-1.54v6.08a8.75,8.75,0,0,0,8.22,9.07Z"/>
            <path class="cls-4"
                  d="M336.13,322.08a4.12,4.12,0,0,0,1.11-3.25V308.3c0-2.82-1.63-4.28-4.79-4.28H320.21V222.87a9.83,9.83,0,0,0-8.3-11.3,7.83,7.83,0,0,0-2.82,0h-1.37a39.56,39.56,0,0,0-14.38,3.25l-19,7.45a3.59,3.59,0,0,0-2.48,3.17,77.7,77.7,0,0,0,3.77,12.24,3,3,0,0,0,3,2.31,8.36,8.36,0,0,0,3.77-.86L298,233.23v70.62H282.37c-3.17,0-4.79,1.46-4.79,4.28V318.4c0,2.91,1.63,4.45,4.79,4.45H333A11.45,11.45,0,0,0,336.13,322.08Z"/>
            <path class="cls-4"
                  d="M466.06,456.38,417.36,372c57.95-62.31,54.44-159.89-7.87-217.84A154.2,154.2,0,0,0,191.56,372.07l-48.7,84.31A8.54,8.54,0,0,0,152.44,469L219,451.16l17.8,66.59a8.51,8.51,0,0,0,7.1,6.33h1.11a8.35,8.35,0,0,0,7.36-4.28l52-89.79,51.87,89.87a8.56,8.56,0,0,0,7.36,4.28h1.11a8.63,8.63,0,0,0,7.1-6.33l17.8-66.59L456.22,469a8.65,8.65,0,0,0,9.67-12.67h.17Zm-217.93,37-14.72-54.87a8.61,8.61,0,0,0-10.27-6.33h0l-55,14.72,36.29-62.83a153.28,153.28,0,0,0,85.68,36.38ZM167.42,267.13a137,137,0,1,1,137,137,137.06,137.06,0,0,1-137-137ZM386,432.41a8.64,8.64,0,0,0-10.44,6.25v.09h0l-14.72,55-42.2-73.1a153.53,153.53,0,0,0,85.85-36.38L440.81,447Z"/>
        </g>
    </g>
</svg>