<svg xmlns="http://www.w3.org/2000/svg" viewBox="0 0 100 100">
    <defs>
        <style>
            .cls-1{fill:#fff;}.cls-2{fill:#e51546;}.cls-2,.cls-4,.cls-6,.cls-8{stroke:#11113f;stroke-miterlimit:10;}.cls-2,.cls-4,.cls-6{stroke-width:3px;}.cls-3{fill:#13dee8;}.cls-4{fill:#c011ea;}.cls-5{fill:#edd20f;}.cls-6{fill:#ef0ce5;}.cls-7{fill:#11113f;}.cls-8{fill:none;stroke-width:2px;}
        </style>
    </defs>
    <title>molecule</title>
    <g id="Слой_2" data-name="Слой 2">
        <g id="Layer_1" data-name="Layer 1">
            <circle class="cls-1" cx="50" cy="50" r="50"/>
            <circle class="cls-2" cx="36.87" cy="75.9" r="5.38"/>
            <circle class="cls-3" cx="35.79" cy="52.85" r="3.54"/>
            <circle class="cls-4" cx="64.69" cy="52.85" r="7.22"/>
            <circle class="cls-5" cx="66.54" cy="30.1" r="4.92"/>
            <circle class="cls-6" cx="33.34" cy="30.1" r="5.38"/>
            <circle class="cls-6" cx="66.54" cy="30.1" r="5.38"/>
            <path class="cls-7"
                  d="M70.67,57.09a1.14,1.14,0,0,0-1.61,0h0a1.16,1.16,0,0,0,.12,1.63,1.14,1.14,0,0,0,1.49,0h0a1.16,1.16,0,0,0,0-1.63Z"/>
            <path class="cls-7"
                  d="M70.66,47.05a8.26,8.26,0,0,0-12.9,10.13L41.41,70.55a6.66,6.66,0,1,0-4.33,11.67,5.28,5.28,0,0,0,.86-.06,1.16,1.16,0,0,0,.15-2.31,1,1,0,0,0-.42,0,4.33,4.33,0,1,1,3.75-4.84,4.25,4.25,0,0,1,0,1.17,1.15,1.15,0,0,0,2.27.34,6.64,6.64,0,0,0-.81-4.26L59.22,58.93a8.24,8.24,0,0,0,8,1.84,1.15,1.15,0,0,0-.65-2.2h0a6,6,0,1,1,4-7.44,6,6,0,0,1,0,3.61,1.14,1.14,0,1,0,2.17.72A8.22,8.22,0,0,0,70.66,47.05Z"/>
            <path class="cls-7"
                  d="M66.43,23.5A6.65,6.65,0,0,0,59.88,29H40a6.65,6.65,0,0,0-11.8-2.91,1.16,1.16,0,1,0,1.61,1.68,1,1,0,0,0,.12-.14L30,27.5h0a4.33,4.33,0,0,1,7.79,2.38,1.06,1.06,0,0,0,0,.54,4.33,4.33,0,0,1-7.9,2.32A1.14,1.14,0,1,0,28,34.09h0A6.73,6.73,0,0,0,33,36.78l1.25,10.88A5.5,5.5,0,1,0,41.36,54H57.19c.63-.06.45-.74.38-1.37s-.17-.81-.74-.86l-15.49-.06a5.52,5.52,0,0,0-4.86-4.33L35.23,36.52a6.64,6.64,0,0,0,4.69-5.2H59.83a6.65,6.65,0,1,0,6.55-7.79ZM35.63,49.7h.32a3.22,3.22,0,1,1-.37,0Zm30.8-15.17a4.33,4.33,0,1,1,4.33-4.33A4.33,4.33,0,0,1,66.43,34.52Z"/>
            <circle class="cls-8" cx="33.34" cy="30.1" r="5.75"/>
            <path class="cls-6" d="M18.95,27"/>
        </g>
    </g>
</svg>