<svg xmlns="http://www.w3.org/2000/svg" viewBox="0 0 1721 1525.7">
    <defs>
        <style>
            .cls-1{fill:#3f3c3b;}.cls-1,.cls-14,.cls-18,.cls-19,.cls-2,.cls-20,.cls-21,.cls-24,.cls-3,.cls-4,.cls-5,.cls-6,.cls-7,.cls-8,.cls-9{stroke:#000;stroke-linecap:round;stroke-linejoin:round;stroke-width:10px;}.cls-2{fill:#44331f;}.cls-3{fill:#725940;}.cls-5{fill:#e2794b;}.cls-6{fill:none;}.cls-7{fill:#233f38;}.cls-8{fill:#14231f;}.cls-11,.cls-9{fill:#d9d9d9;}.cls-10,.cls-14,.cls-16,.cls-17,.cls-25{fill:#fff;}.cls-12{fill:#380208;}.cls-13{fill:#6a0006;}.cls-15{fill:#282828;}.cls-16{opacity:0.2;}.cls-17{opacity:0.1;}.cls-18{fill:#c1ad57;}.cls-19{fill:#e5d077;}.cls-20{fill:#5a9ecc;}.cls-21{fill:#7ab9ed;}.cls-22{fill:#ff9015;}.cls-23{fill:#f2ff15;}.cls-24{fill:#00d429;}.cls-25{opacity:0.3;}
        </style>
    </defs>
    <title>mother and son</title>
    <g id="Layer_4" data-name="Layer 4">
        <polygon class="cls-1" points="1415.5 1223.62 1418.5 1478.62 1470.5 1478.62 1470.5 1223.62 1415.5 1223.62"/>
        <polygon class="cls-1" points="1573.5 1154.62 1576.5 1409.62 1628.5 1409.62 1628.5 1154.62 1573.5 1154.62"/>
        <polygon class="cls-1" points="79.5 1223.62 82.5 1478.62 134.5 1478.62 134.5 1223.62 79.5 1223.62"/>
        <path class="cls-2" d="M199,1640H1741l0-34H199Z" transform="translate(-193.5 -382.38)"/>
        <polygon class="cls-2" points="1716 1154.12 1548 1224.12 1548 1257.12 1716 1184.12 1716 1154.12"/>
        <polygon class="cls-3" points="5 1224.12 206 1156.12 1716 1154.12 1548 1224.12 5 1224.12"/>
    </g>
    <g id="Layer_2" data-name="Layer 2">
        <path class="cls-4"
              d="M550.5,769.5a204.48,204.48,0,0,1-15,18,199.2,199.2,0,0,1-18,17c-12.64,10.5-15.78,10.36-19,14-13.8,15.64,9.19,57.82,24,85,14.07,25.81,30.38,44.21,63,81,10.1,11.39,17.91,19.58,26,18,10.7-2.09,11.33-19.2,23-49,11.53-29.43,16.49-27,44-84,7.51-15.57,10.85-23.44,14-33,8.22-25,13.56-41.14,9-54C686.61,740.48,569.83,744.54,550.5,769.5Z"
              transform="translate(-193.5 -382.38)"/>
        <path class="cls-5"
              d="M452.5,835.5c-11.78,5.84-17.86,15.84-23,25-14.64,26.09-21,43-21,43s-8.54,22.67-25,62c-11.4,27.24-20.79,49.65-37,77-10.15,17.13-18.79,29.11-30,53-5.7,12.15-10.11,23.19-13,37-2.83,13.53-2.55,21.77-2,38,.34,10,1.15,13.45,3,14,3.41,1,7.75-8.45,16-19,6.53-8.35,17.86-22.85,33-28,19.11-6.5,38.82,3.74,47,8,21.81,11.34,36.09,31,40,28,1.72-1.3-.38-5.6,3-11a16.8,16.8,0,0,1,5-5c8-5.73,11.19-22,12-26,9.64-47.73,32.29-82.13,33-170,.44-54.15-7.46-127.05-27-130C462,830.81,455.95,833.79,452.5,835.5Z"
              transform="translate(-193.5 -382.38)"/>
        <path class="cls-5"
              d="M464,831c1.86-1.39,9.74-9.1,20.5-15.5,16.88-10,25.31-15.07,29-17,7.72-4.05,11.35-5.52,16-10,3-2.87,4.85-5.51,6-5,1.69.74-.47,7.21-1,15a60,60,0,0,0,4,25,67.4,67.4,0,0,0,15,24c7.51,7.77,15.17,15.69,24,16,1.38,0,4.64,0,6,2s-.1,5-1,8c-1,3.44-.68,7.63,0,16,1.11,13.69,8.51,32.1,13,49,6.34,23.84,5.12,37.91,8,38s6.1-13.75,7-25c.56-7,0-10.12-2-30-3.58-35.85-2.1-29.33-3-34-2.25-11.69-5.28-20-1-24,2-1.87,4.54-1.83,7-2,7.92-.55,16.95-5.37,35-15,11-5.87,16.51-8.81,22-14a49.06,49.06,0,0,0,12-16c1.53-3.38,4.89-10.78,4-20-1-10.61-6.72-13.76-5-17,2.32-4.37,14.64-2.33,53,7,7.2,1.75,22.83,5.59,46,12,28,7.76,36.36,10.77,46,17a117,117,0,0,1,20,17c19,20.72,25.66,61.5,18,203-2.63,48.59-4.11,56.66-6,64a200.81,200.81,0,0,0-5,32c-.82,10.59-.45,16.72,1,23,1.08,4.65,3,12.43,9,20,3,3.77,5.88,7.37,11,10,3.81,2,6,1.93,7,4,1.07,2.33-.23,5.69-6,13-3.91,4.95-8.61,10.9-14,15-44.39,33.76-110,49-110,49-58.11,13.5-87.17,20.24-126,16,0,0-44.07-4.82-95-33-.64-.35-8.43-7.24-24-21-1.12-1-3-2.73-3-5,.06-3.62,5.05-5,5-8,0-2.78-4.43-4.54-7-6-7.84-4.47-10-12.55-14-22-4.71-11.06-9.81-18.7-20-34-13.26-19.89-17.57-19.7-25-35a107.55,107.55,0,0,1-9-27c-1.12-6-2.14-14.42-1-32,.58-8.93,1.69-19.84,8-54,4.87-26.35,5.69-27.9,7-39"
              transform="translate(-193.5 -382.38)"/>
        <path class="cls-6"
              d="M445.5,1006.5a261.79,261.79,0,0,1,33-3c20.2-.55,32.78,1.46,61,5,40.54,5.09,60.81,7.63,70,7,5.67-.39,23.12-3.59,58-10,27.67-5.08,30-5.77,39-7a346.81,346.81,0,0,1,59-3"
              transform="translate(-193.5 -382.38)"/>
        <path class="cls-6" d="M539.5,1188.5a206.73,206.73,0,0,0,49,18" transform="translate(-193.5 -382.38)"/>
        <path class="cls-6" d="M536.5,1214.5a445.06,445.06,0,0,0,59,6c22,.75,43.73,1.5,72-4a258.95,258.95,0,0,0,117-56"
              transform="translate(-193.5 -382.38)"/>
        <path class="cls-6" d="M738.5,1209.5a111.31,111.31,0,0,0,54-30" transform="translate(-193.5 -382.38)"/>
        <path class="cls-4"
              d="M321.5,1210.5c.09,11.86,4.78,24.4,8,33a155.87,155.87,0,0,0,19,35c6.07,8.52,22.87,31.64,47,43a104.69,104.69,0,0,0,13,5c3.67,1.1,16.58,5,27,4,20.54-2,37-23.45,43-42,2.94-9.15,2.63-17.1,2-33-.68-17.17-1.71-38.35-12-63-5.86-14-12.19-29.2-28-42-4.94-4-16.93-13.71-33-16C367,1128.73,321.21,1172.9,321.5,1210.5Z"
              transform="translate(-193.5 -382.38)"/>
        <path class="cls-5"
              d="M301,1155c-4,30,14.11,76.71,18.5,85.5,6.48,13,18.16,24.89,20,24,1.65-.79-7.7-10.5-9-25-2.56-28.54,16.28-51,18-53,16.93-19.61,38.64-23.57,52-26,9.73-1.77,21-3.68,34,1,12.41,4.48,20.07,12.69,24,17,13.07,14.33,15.12,30.32,16,30,1.06-.38-2.39-23.08-15-47a172.88,172.88,0,0,0-20-30c-7.57-9.09-16.94-20.33-33-30-16.69-10-30.78-12.49-34-13"
              transform="translate(-193.5 -382.38)"/>
        <path class="cls-6" d="M350.5,1116.5a54,54,0,0,1,11-4,55.86,55.86,0,0,1,26,0"
              transform="translate(-193.5 -382.38)"/>
        <path class="cls-6" d="M397.5,1085.5a44.56,44.56,0,0,1,25,18" transform="translate(-193.5 -382.38)"/>
        <path class="cls-7"
              d="M527.5,1253.5c-2.66.62-3.32,2.13-10,9-3.72,3.82-4.8,4.68-6,7a19,19,0,0,0-2,7c-1.35,12.91-25.88,46.63-19,60,4.87,9.47,24.95,7.69,39,7,40-2,9.28,6.08,114,11,95.57,4.49,103.7-3,153,7,48.53,9.86,65.58,22.21,76,33,19.37,20.06,22.69,41.88,33,41,12.77-1.09,20.55-35.63,22-56a132.69,132.69,0,0,0-6-48c-1.56-4.95-6-14.3-15-33-11.14-23.26-16.84-35.07-23-44-4.78-6.93-8.82-14.37-14-21a40.15,40.15,0,0,1-5-8c-1.39-3-1.52-4.2-2-5-5.09-8.41-39,7-39,7-69.41,31.55-225,19.54-263,26-7.54,1.28-17,4.42-26,1C533,1253.94,530.51,1252.8,527.5,1253.5Z"
              transform="translate(-193.5 -382.38)"/>
        <path class="cls-7"
              d="M512.5,1239.5a25.92,25.92,0,0,1,1,7c0,3.15,0,5-1,7s-2.31,2.82-2,4,2.23,1.79,3,2a176.83,176.83,0,0,0,29,5c8,.57,9.93,1.34,16,2,40.47,4.37,109-2,109-2,71.48-6.65,120.35-17.2,133-20,0,0,25.88-5,41-10l18-6,3-1c1.54-.37,2.27-.34,3-1a3.32,3.32,0,0,0,1-2c.12-1-.32-1.73-1-3a28.4,28.4,0,0,1-2-4c-.55-2.91,3.34-5.19,3-6-1.68-4-38,11-38,11-63.54,26.28-133.8,13.64-237,22-19.83,1.61-34.13,3.44-53-2-11.12-3.21-26.5-9.72-28-7C510,1236.44,511.31,1238.19,512.5,1239.5Z"
              transform="translate(-193.5 -382.38)"/>
        <path class="cls-4"
              d="M401.5,1315.5a45.37,45.37,0,0,0,10,18,50.71,50.71,0,0,0,11,9,54.31,54.31,0,0,0,14,6,72,72,0,0,0,27,2c14.52-1.65,37-.43,82,2,53,2.87,76.21,14,82,4,4-6.88-3.39-18.3-9-27-11.22-17.4-26.93-25.47-36-30-19.53-9.74-39.4-12.86-53-15-10.07-1.58-19.88-4.77-30-6a34.5,34.5,0,0,1-11-3c-4.68-2.19-7.06-4.67-10-7a61.82,61.82,0,0,0-18-9C439.58,1252.81,395.35,1290.56,401.5,1315.5Z"
              transform="translate(-193.5 -382.38)"/>
        <path class="cls-6"
              d="M583.5,1286.5a143.83,143.83,0,0,0,19,6c5.45,1.31,17.77,3.95,37,4a205,205,0,0,0,56-7c16.66-4.54,21.44-8.22,49-16,8-2.27,14.66-3.94,19-5"
              transform="translate(-193.5 -382.38)"/>
        <path class="cls-6" d="M627.5,1303.5a81.87,81.87,0,0,0,25,5c7.28.27,13.19-.53,24-2,7.56-1,13.76-2.16,18-3"
              transform="translate(-193.5 -382.38)"/>
        <path class="cls-8"
              d="M500.5,1587.5c5.25,4.6,11.73,7.61,19,11,26.42,12.3,50.26,12.83,65,13,115.7,1.36,126.68-2.92,137-9a126.21,126.21,0,0,0,41-40c4.74-7.39,21.57-34.42,20-69-2.66-58.49-55.92-93.06-59-95-70.18-44-183.33-6.91-222,64C480.35,1501.28,473.85,1564.16,500.5,1587.5Z"
              transform="translate(-193.5 -382.38)"/>
        <path class="cls-4"
              d="M538.5,1360.5c-35.73-2.16-53.59-3.24-70-2-15.47,1.17-36.79,3-62,13-18.32,7.3-29.29,15.22-33,18-9.32,7-20.26,15.2-28,30-6,11.52-7.48,22-9,33a150.62,150.62,0,0,0-1,29c.93,16.14,3.68,21.62,6,38,1.83,12.92,1.76,21.08,2,37,.83,54.9,1.24,82.36,6,105,3.48,16.54,6.66,31.68,16,50,10,19.51,20.64,30.36,34,55,10.34,19.06,7.29,18.74,14,30a19.89,19.89,0,0,1,3,8c.41,3.22,0,6.84-5,17-4.67,9.56-7,14.33-10,16-5.17,2.88-8-.09-18,1-3.68.4-12.33,1.34-20,7-2.25,1.66-13.19,9.73-13,23,0,.8.31,10.79,8,18,5.81,5.45,12.92,6.57,16,7,29,4,92.62.78,115,0,36.06-1.25,54.09-1.88,57-1,2,.61,6.78,2.19,11,0,8.88-4.6,8.27-22.13,8-30-.31-9.06-1.83-14.47-8-38-4.42-16.84-6.63-25.26-7-27-3.86-18.08-3.54-32.34-3-48,2.34-68.15,5.75-71.93,4-101a507.3,507.3,0,0,0-6-51c-5.2-29.59-7.8-44.38-9-48-2.22-6.69-2.82-13.12-4-26-.36-3.94-.48-6.53,1-9,3.7-6.15,14.16-6.22,22-6,29,.83,36.54,6.1,46,5,27.11-3.16,60.35-57.57,44-100-14.38-37.31-60.36-47.8-70-50C571,1362.47,560.14,1361.81,538.5,1360.5Z"
              transform="translate(-193.5 -382.38)"/>
        <path class="cls-7"
              d="M761.5,1384.5c-17.81,25.66,2,27.79,1,36-3.92,30.84,7.17,79.75,7,104-.37,54.77-101,61.39-93,78,1.87,3.9,7.48,4.32,62,2,56.06-2.38,63-3.37,71-5,19.57-4,40.61-8.25,64-23a152.71,152.71,0,0,0,52-55c11.2-20.6,14.39-38.43,17-53a222.62,222.62,0,0,0,1-69c-1.53-11-4.11-28.68-13-50-11.32-27.15-25.95-43.59-31-49"
              transform="translate(-193.5 -382.38)"/>
        <path class="cls-4"
              d="M577.5,1373.5c-17,11.94-23.8,28.39-29,41a125,125,0,0,0-9,39c-1,15.17,1,26.75,3,38,3,17.3,5.77,20.78,9,37,2.6,13.08,3.06,22.09,4,40,4.08,78.13,4.49,82.59,6,91,.6,3.33,4.73,19.22,13,51,6.91,26.58,12.26,46.3,7,69a77.75,77.75,0,0,1-6,17c-6.45,13-14.61,19.7-25,29-39,35-33.93,38.46-50,46-13,6.12-25.21,7.94-26,15-.66,5.9,7.1,11.38,8,12,7.79,5.37,17,4.31,20,4,18.56-2,37.44,2,56,0,38.75-4.13,31.84,2.56,83-1,38-2.65,81.46-2.85,84-4,4.21-1.9,6.48-8.77,6-25-.53-17.78-3.79-27.68-6-40a193.78,193.78,0,0,1-2-43c.51-6.86,1.64-15.16,16-57,14.41-42,17-44.39,19-59,3.1-22.12.53-39.91-1-50-3-19.73-8.43-35-18-62-.38-1.07-4.59-16-13-46-1.69-6-4.07-14.91-1-25a35.49,35.49,0,0,1,9-15c11.44-11.15,23.25-6.1,30-13,9.55-9.76,3.09-37.39-11-56-12.22-16.14-38.81-23.76-92-39-21.18-6.07-38.59-10-59-5A76,76,0,0,0,577.5,1373.5Z"
              transform="translate(-193.5 -382.38)"/>
        <path class="cls-7"
              d="M752,1599c-16.13,9.48-24.46-15.33-26.5-18.5-1.28-2,8.2-8.43,17-23a114.72,114.72,0,0,0,11-27c9.91-37.23-5.72-74.71-8-80a136.23,136.23,0,0,0-48-58c-21.13-14.32-40.46-18.46-57-22-21.94-4.7-55.61-11.91-76,0a53.31,53.31,0,0,1-22,8,51.67,51.67,0,0,1-17-1,189.82,189.82,0,0,1-41-14c-44-16-111,24-118,30-3.88,3.33,17-24,42-39,15.16-9.1,19.74-10.55,33-14,23.59-6.13,50.72-13.18,84-10,12.64,1.21,26.59,3.93,55,6a115.72,115.72,0,0,0,22,0,108.56,108.56,0,0,0,37-11c35.6-17,82.48-24.9,89-26,29.7-5,51-4.18,82-3,24.19.92,35.88,3,48,9"
              transform="translate(-193.5 -382.38)"/>
        <path class="cls-6"
              d="M633.5,1330.5c7.93-2.26,19.28-5.43,33-9,23.93-6.23,35.89-9.35,51-12,18.9-3.32,32.36-5.68,51-5,12.37.45,28.78,1.19,48,9a113.86,113.86,0,0,1,29,17,107.62,107.62,0,0,1,15,15"
              transform="translate(-193.5 -382.38)"/>
        <path class="cls-6"
              d="M858.5,1234.5a27.63,27.63,0,0,1,6,6,30,30,0,0,1,5,12c1.79,8.1,6,12.39,13,23,11.71,17.79,19.72,36,25,48,4.22,9.59,6.81,18.39,12,36,2.4,8.15,4.62,16.42,2,18-2.93,1.77-10.27-5.79-11-5-1,1,11.93,14,11,15s-14.41-9.71-15-9,16.1,14.65,14,18c-1.14,1.82-7.11-.71-8,1-1.39,2.67,12.39,10.2,11,15-.89,3.08-7.59,3.54-12,4-12.63,1.3-24.58,6.39-37,9-19.54,4.11-20.47,7.61-59,21-14.85,5.16-26.9,8.87-34,11"
              transform="translate(-193.5 -382.38)"/>
        <path class="cls-6" d="M857.5,1322.5a136.34,136.34,0,0,1,20,14,137.8,137.8,0,0,1,29,34"
              transform="translate(-193.5 -382.38)"/>
        <path class="cls-4"
              d="M1087.5,1065.5c12.61-1.87,27.58,3.06,57,13,27.43,9.27,28.47,11.78,58,22,12,4.16,32,10.7,57,17,20,5,30,7.56,43,9,29.33,3.26,43.63-1.23,45,3,2.11,6.5-29.59,23.54-56,34-17.79,7-31.15,10.3-55,16-28.53,6.82-49.32,11.8-78,14-32.55,2.5-54.56-.15-61-1-28.12-3.7-42.18-5.55-53-16-17.57-17-21-48-10-72C1045.38,1080.77,1068.43,1068.33,1087.5,1065.5Z"
              transform="translate(-193.5 -382.38)"/>
        <path class="cls-5"
              d="M780.5,802.5c26.51.69,47.16,10.66,58,17C853,828,862,837,872.5,847.5a257.44,257.44,0,0,1,24,28c21.26,27.88,27.06,38.17,45,63,5.06,7,19.37,25,48,61a347.57,347.57,0,0,0,31,33c6.82,6.41,12.68,11.39,21,16a98.23,98.23,0,0,0,23,9,106.92,106.92,0,0,0,19,3c16.57,1.4,45,11,57,17-6,2-9.38.84-22,10a77.22,77.22,0,0,0-26,33c-2.21,5.51-6.14,15.61-5,29,.52,6.1,2.79,21.19,14,33,13.28,14,27,12,31,12-9,1-71.14-3.28-121-13a173.76,173.76,0,0,1-29-8,169,169,0,0,1-46-26c-7-5.6-9-8.15-21-20-22-21.74-22.06-20-47-44-25.85-24.9-42.22-42.67-48-49"
              transform="translate(-193.5 -382.38)"/>
        <path class="cls-4"
              d="M660.5,434.5c.51-4.66,8.49-2.85,36-17,16.93-8.71,23.13-14.13,40-20,15.71-5.46,23.1-5.2,26-5a50.33,50.33,0,0,1,28,11c8.76,7.19,12.37,15.44,16,24,7.62,18,7.78,33.39,8,54a160.67,160.67,0,0,1-3,32c-1.57,8.05-4,20.81-8,21-3.76.18-7-11.12-8-14C781.05,477.33,658.5,452.73,660.5,434.5Z"
              transform="translate(-193.5 -382.38)"/>
        <path class="cls-9"
              d="M410.5,649.5c.74-.29,1.85,3.43,6,6,4.91,3,10.46,2.23,12,2,4.26-.62,8.83-2.71,14-8,11-11.21,14.16-26.11,15-30,0,0,4.16-19.26,15-63,2.81-11.33,7.56-30.52,17-49,18.71-36.64,48.58-56.31,59-63,42.24-27.11,84.47-28.61,103-28a187.74,187.74,0,0,1,75,19c12.84,6.27,35,17.38,55,41,19.72,23.3,27.17,46.79,32,62,4.14,13.05,9.35,29.47,10,51,.4,13.34,2,26.65,2,40a68.81,68.81,0,0,0,3,19c1.89,6.24,3.87,9.5,6,12,1.8,2.11,4.83,5.58,10,7a14.9,14.9,0,0,0,9,0c5.23-1.85,6.87-6.48,8-6,1.31.56.23,7.33-3,17-2.57,7.69-5.7,16.83-13,28-7.2,11-11.48,17.56-20,22-9.4,4.9-18,4.12-18,6,0,1.7,7.06,4.2,14,3,8.45-1.46,13.18-7.76,14-7s-3.55,8.11-11,16a106.78,106.78,0,0,1-30,22c-7.24,3.54-8.62,3.21-18,8a132.3,132.3,0,0,0-17,10c-8.72,6.13-9.08,8.22-16,13a68.87,68.87,0,0,1-21,10c-14,3.72-25.87,1-34-1-4.37-1.06-6-1.8-32-13-20.32-8.75-21.41-9.2-24-10-10.12-3.13-18-3.93-37-5-37.19-2.11-33.38-.56-45-2-27.38-3.39-45.89-11.63-51-14a124.06,124.06,0,0,1-28-17c-17.23-14.06-28.52-31.54-27-33,.72-.69,3.62,2.88,11,6,3.31,1.4,12.18,5.16,22,3,8.7-1.91,16.88-8.18,16-11-.68-2.19-6.54-1.33-15-2-1.74-.14-18.59-1.61-34-10-6.34-3.45-19.82-12.09-28-28C410.85,661.52,409.24,650,410.5,649.5Z"
              transform="translate(-193.5 -382.38)"/>
        <path class="cls-10"
              d="M637.5,427.5c-13.41.51-33.17,1.45-56,12a134.45,134.45,0,0,0-42,31c-6,6.56-19.13,21.16-27,44-5.54,16.09-6.23,29.74-7,45-1,19.69,0,39,0,39a174,174,0,0,1-1,32c-.92,7.27-1.81,10.26-3,13-5,11.58-14.91,17.27-18,19-7.61,4.25-14.4,5.08-22,6a60.77,60.77,0,0,1-19,0c-10.82-1.89-16.91-6.48-18-5s3.78,7,8,11c2.23,2.13,10.79,10,32,19,9.07,3.84,15.57,6.54,25,8a69.16,69.16,0,0,0,16,1c11.06-.69,16.73-4,18-2,1.76,2.71-7.4,11.47-9,13a52.14,52.14,0,0,1-16,11,49.82,49.82,0,0,1-24,4c-8.68-.79-13.66-3.74-14-3-.59,1.26,14.08,10,30,17,19.55,8.62,31.49,10.5,35,11a75.59,75.59,0,0,0,18,1c16.55-1.28,26.56-8.28,28-6,1,1.63-3.1,6.82-8,10-7.84,5.1-16,4-16,5s9.41,2.63,21,3a160.79,160.79,0,0,0,24-1c17.47-2.09,17.13-4.69,26-5,11.77-.42,21.18,4.39,40,14,14.69,7.5,14.86,9.44,29,16,21.13,9.8,29,9.32,32,9a44.31,44.31,0,0,0,23-10c7.63-6.53,5.43-9.65,13-16,7.13-6,15-8.2,25-11,9.48-2.66,10-1.51,17-4,11.79-4.17,21.93-11.45,21-14-.45-1.23-3.09-.33-10-2-4.21-1-7.27-1.76-10-4-4.45-3.65-7.09-10.52-5-13,1.6-1.89,5-.13,10,0,8.46.22,14.81-4.45,21-9,6.91-5.08,11.27-12.72,20-28,2.45-4.3,4.68-8.55,3-11-1.55-2.27-5.25-1.25-9-2-9.71-1.94-14.86-14.71-17-20-5.32-13.19-3.44-22.84-3-40a322.09,322.09,0,0,0-3-48c-.75-5.17-4.47-29.14-17-53-22.43-42.69-61.09-62.21-75-69A183.75,183.75,0,0,0,637.5,427.5Z"
              transform="translate(-193.5 -382.38)"/>
        <path class="cls-11"
              d="M621.5,619.5c-2.85,4.06-7.07,10.76-8,20-1.25,12.47,3.82,26.43,14,35,18.43,15.52,44.73,5.92,50,4,3.34-1.22,27.72-10.11,38-32,2.65-5.63,3.93-11.21,8-12,6.26-1.21,13.15,10.07,18,18,4.35,7.11,13.37,21.88,8,31-1.41,2.39-3.57,4-3,5,.86,1.49,6.36-1,15-3,14.29-3.28,18.66-.87,22-5,4.07-5,1.49-13.39,1-15a25.34,25.34,0,0,0-7-11,44.75,44.75,0,0,0,13,14c3.39,2.34,5.74,4,9,4,8.8.1,14.7-11.41,15-12,1.66-3.34,3.63-9.21,0-27-2-9.74-4.15-20.36-11-34-6.07-12.09-13.87-27.62-29-33-5.54-2-8.65-1.37-10-1-10.12,2.76-13.9,17.66-15,22-3,11.66-1,20.89-2,21s-1.8-10.26-6-21c-.75-1.91-7.69-19.27-18-26C697.07,544.25,640.89,591.92,621.5,619.5Z"
              transform="translate(-193.5 -382.38)"/>
        <path class="cls-4"
              d="M633.5,622.5a30.59,30.59,0,0,0-5,14c-1,12.47,6.8,21.64,8,23,5.23,5.93,11.2,8.19,16,10,3.89,1.47,13.5,5.1,25,3,15.12-2.76,24.06-13.71,30-21a73.25,73.25,0,0,0,14-28c2.16-7.87,4.49-16.37,2-27-1.14-4.88-3.35-14.3-10-19C693.35,563.27,646.33,602.2,633.5,622.5Z"
              transform="translate(-193.5 -382.38)"/>
        <path class="cls-10"
              d="M678.5,620.5c1.1-3.51,5-5,10-7,3.06-1.2,7.44-2.85,13-2,3,.45,6.67,1,9,4,4,5.07.56,12.75,0,14a17.25,17.25,0,0,1-9,9,14.33,14.33,0,0,1-8,1c-5-.89-7.89-4.43-10-7C680.8,629.21,677.17,624.77,678.5,620.5Z"
              transform="translate(-193.5 -382.38)"/>
        <path class="cls-4"
              d="M762.5,588.5c-2.13,4.61-2.45,8.8-3,17-.72,10.65-1.08,16,1,23a47.62,47.62,0,0,0,7,14c3.66,5.36,8,11.66,16,15a23.69,23.69,0,0,0,12,2c2-.21,9.45-1.29,14-7,5-6.33,3.53-14.63,2-23-1.56-8.55-4.38-14-10-25-5.24-10.22-10.29-17.77-18-24-3.64-2.94-6.2-4.23-9-4C767.79,577,763.69,585.91,762.5,588.5Z"
              transform="translate(-193.5 -382.38)"/>
        <path class="cls-10"
              d="M771.5,627.5c.81-4.21,4.57-7,6-8a17.68,17.68,0,0,1,7-3c2.26-.43,6.21-1.19,10,1,5.28,3.05,5.94,9.35,6,10,.44,5-2.17,8.52-4,11-1.4,1.89-3,4.06-6,5a10.69,10.69,0,0,1-6,0C777.87,641.84,770.14,634.58,771.5,627.5Z"
              transform="translate(-193.5 -382.38)"/>
        <path class="cls-4"
              d="M511.5,582.5a44.37,44.37,0,0,0,10,3c3.57.57,6.57,1.05,10,0a17.57,17.57,0,0,0,9-7c4.3-6.11,3.86-12.59,4-20a207.8,207.8,0,0,1,3-27c1-6.09,4.26-24.31,18-41a73.19,73.19,0,0,1,23-19c8.09-4.19,14.27-7.39,23-8,4.81-.34,9.72.16,15-3,.37-.22,5.43-3.31,7-7,5.21-12.28-24.15-41.08-58-57-11.88-5.59-17.81-8.38-27-9-28.87-2-53.75,19.94-66,39-10.17,15.82-12.26,30.62-14,43a139.67,139.67,0,0,0,11,75S492.81,573.94,511.5,582.5Z"
              transform="translate(-193.5 -382.38)"/>
        <path class="cls-12"
              d="M744.5,714.5c10.13,1.58,23.15,4.6,23,7,0,.67-1.09.73-3,2-4.12,2.74-5.91,7-8,12-1.89,4.58-1,4.26-3,9-2.15,5.22-3.26,7.89-6,10a13.07,13.07,0,0,1-5.81,2.45,60.42,60.42,0,0,0-.19-11.45,50.58,50.58,0,0,0-6-18c-1.67-2.9-5.85-10.22-12.06-15.43C732.47,712.63,741,714,744.5,714.5Z"
              transform="translate(-193.5 -382.38)"/>
        <path class="cls-13"
              d="M741.5,745.5a60.42,60.42,0,0,1,.19,11.45c-1.31.24-2.69.39-4.19.55a32.87,32.87,0,0,1-12-1,35.33,35.33,0,0,1-12-6c-8.84-6.43-12.86-14.54-15-19-3.34-7-5-10.43-4-13,2.56-6.49,16.28-7.21,28.94-6.43,6.21,5.21,10.39,12.53,12.06,15.43A50.58,50.58,0,0,1,741.5,745.5Z"
              transform="translate(-193.5 -382.38)"/>
        <path class="cls-6"
              d="M723.44,712.07c-12.66-.78-26.38-.06-28.94,6.43-1,2.57.66,6,4,13,2.14,4.46,6.16,12.57,15,19a35.33,35.33,0,0,0,12,6,32.87,32.87,0,0,0,12,1c1.5-.16,2.88-.31,4.19-.55a13.07,13.07,0,0,0,5.81-2.45c2.74-2.11,3.85-4.78,6-10,2-4.74,1.11-4.42,3-9,2.09-5,3.88-9.26,8-12,1.91-1.27,3-1.33,3-2,.15-2.4-12.87-5.42-23-7C741,714,732.47,712.63,723.44,712.07Z"
              transform="translate(-193.5 -382.38)"/>
        <path class="cls-6"
              d="M723.44,712.07c6.21,5.21,10.39,12.53,12.06,15.43a50.58,50.58,0,0,1,6,18,60.42,60.42,0,0,1,.19,11.45"
              transform="translate(-193.5 -382.38)"/>
        <path class="cls-14"
              d="M783.5,687.5a44.44,44.44,0,0,1,1,15c-.39,3.72-.9,8.59-4,14a30.45,30.45,0,0,1-11,11c-2.33,1.42-4.65,2.79-8,3a12.22,12.22,0,0,1-8-2,11.67,11.67,0,0,1-4-5"
              transform="translate(-193.5 -382.38)"/>
        <path class="cls-14"
              d="M762.5,700.5a102.27,102.27,0,0,1-10,21c-3.69,5.87-6.13,8.36-8,10a38.26,38.26,0,0,1-12,7,36.37,36.37,0,0,1-19,2c-7.59-1.31-12.5-4.8-17-8-4.86-3.45-9.74-6.92-12-13a54.62,54.62,0,0,1-2-8c-.84-4.53.08-6.1-1-8-1-1.72-3.4-3.68-10-4"
              transform="translate(-193.5 -382.38)"/>
        <path class="cls-4"
              d="M740.5,684.5a37.18,37.18,0,0,0-1,10c.08,2.84.43,4,1,5s2,2.85,6,4c11.7,3.36,25.67-5,40-7a7.71,7.71,0,0,0,3-1c4.88-2.9,6.25-11.52,4-18a14.17,14.17,0,0,0-2-4C782.68,662.08,744.06,672.73,740.5,684.5Z"
              transform="translate(-193.5 -382.38)"/>
        <path class="cls-10"
              d="M755.5,678.5a5.93,5.93,0,0,0-3,3c-1,2.62.74,6.12,3,8,3.14,2.6,8.09,1.74,18,0a18.38,18.38,0,0,0,8-3c1.48-1.05,3.68-2.61,4-5,.49-3.59-3.56-6.68-4-7C773.71,668.71,761.28,675.39,755.5,678.5Z"
              transform="translate(-193.5 -382.38)"/>
        <path class="cls-4"
              d="M751,1594c-4.69-17.3-16.59-51.55-25-81.5-1.69-6-38,30-38,40.5C688,1655,764,1642,751,1594Z"
              transform="translate(-193.5 -382.38)"/>
        <path class="cls-15"
              d="M347,1198c2.21-8.7,10.76-13.65,20-19,13.1-7.59,25.26-9.11,33-10,7-.81,18.82-2,33,2,7.06,2,14.66,4.29,21,11,2.37,2.51,4.92,6,9,18,8,23.36,12.61,37,10,54-.88,5.75-2.26,9.65,0,14,3.57,6.86,12.75,8.25,22,10,0,0,13.46,2.55,47,12,22,6.21,32.55,11.82,38,15,8.74,5.11,22.51,14.55,21,18-.49,1.13-2.78,2-15,0-18.95-3.1-32.21-8.27-40-11-11.56-4-21.7-6-42-10-22.21-4.35-33.32-6.52-48-7-16.61-.54-21.32,1.37-32-2-11.47-3.61-18.74-9.81-27-17-3.68-3.2-11.3-10.19-34-44C347.56,1209,345.5,1203.91,347,1198Z"
              transform="translate(-193.5 -382.38)"/>
        <path class="cls-15"
              d="M1132,1086c8.37-3.46,16.28,1.18,32,8,4.37,1.9,21.32,9.25,37,14,22.29,6.75,39.58,7.49,40,13,.15,2-2,2.34-4,7-2.9,6.84-.38,11.11-2,14-3.23,5.75-20.16,1.11-36-2-25.36-5-48.76-9.57-75-8-10.26.61-17.5,2-20-2-3.89-6.16,6.91-20,17-33C1128.2,1087.75,1130.73,1086.52,1132,1086Z"
              transform="translate(-193.5 -382.38)"/>
        <path class="cls-15"
              d="M347,1433c-.14-2.58,0-7.47,4-15,4.31-8.13,11.37-16.11,26-25,5.32-3.23,21.25-12.42,46-18,19.81-4.47,33.61-7.58,47-2,5.48,2.28,7.15,4.46,21,11,7.23,3.41,11,4.83,11,7-.05,3.33-9,2.92-19,10-7.69,5.45-12,12.53-16,19-4.46,7.27-4.85,10.23-7,14-8,13.94-27.29,16.63-62,21-29.24,3.68-36.25,1-41-3C355.83,1451,347.61,1444,347,1433Z"
              transform="translate(-193.5 -382.38)"/>
        <path class="cls-15"
              d="M544,1449c-10.77-9.37-2.93-33.28-2-36,.67-2,10-28,36-37,10.07-3.48,23-1.32,49,3a214.51,214.51,0,0,1,50,15c18,7.87,19,11.3,19,13-.18,7.08-19.49,12.17-34,16-29,7.64-33.79,2.68-47,11-11.08,7-12,13.15-24,17-7.74,2.47-14.72,2.27-24,2C554.31,1452.63,548,1452.45,544,1449Z"
              transform="translate(-193.5 -382.38)"/>
        <path class="cls-15"
              d="M357,1520c4.64-2.26,9.63,7,24,11,13.18,3.63,24.77.15,38-4,30.58-9.59,33.91-21.22,43-19,19.21,4.7,20.88,60.76,23,132,0,1.58,0,.43-4,90-.73,16.38-1.48,33.18-11,52-1,1.92-17.9,34.74-33,32-8.19-1.48-10-12.36-22-38-12.51-26.65-15.27-24.85-27-49-7.25-14.93-18.14-37.35-24-66-7.79-38.09,2.91-40.23-4-90C356.35,1544.7,350.3,1523.25,357,1520Z"
              transform="translate(-193.5 -382.38)"/>
        <path class="cls-15"
              d="M560,1506c3.68-2.79,9.63,4.33,24,8,18.66,4.76,35.42-.42,47-4,25.71-7.95,26.86-17.62,36-16,27.42,4.86,34,95,34,137a330.37,330.37,0,0,1-7,69,276.53,276.53,0,0,1-22,64c-10.79,22.12-17.37,35.13-30,38-9.78,2.22-15.09-3.49-35-1-7.68,1-11.9,2.44-14,0-3.57-4.14,4.57-13.06,7-28,1.6-9.85-.1-17.29-2-26-13.59-62.21-20.39-93.32-23-118-4.81-45.43,4.73-49.35-5-81C564.15,1529,554.49,1510.18,560,1506Z"
              transform="translate(-193.5 -382.38)"/>
        <path class="cls-15"
              d="M355,1871c-.67-3.12-1.68-10.16,2-17,4.77-8.85,14.1-11.24,21-13a28.93,28.93,0,0,1,14,0c4,1.06,4.77,2.33,5,3,.67,2-1.44,3.36-3,7-2.49,5.79.09,8.63-2,11-2.74,3.1-8.64-.08-16,0C370.81,1862.06,363.63,1863.75,355,1871Z"
              transform="translate(-193.5 -382.38)"/>
        <path class="cls-15"
              d="M402,1863c-4.65-5.34,1.4-16.88,2-18a28.24,28.24,0,0,1,11-11,32.85,32.85,0,0,1,21-4c6,.75,14.87,3.47,15,7,.07,1.91-2.49,2.28-6,6-5.32,5.65-3.87,9.51-8,14-3.08,3.34-6.72,4.23-14,6C413.94,1865.2,405.67,1867.21,402,1863Z"
              transform="translate(-193.5 -382.38)"/>
        <path class="cls-15"
              d="M456,1858c-4.54-4.2,0-15.67,3-21a31.1,31.1,0,0,1,13-13c9.89-5,19.37-2.66,26-1,5,1.26,15.25,4.64,15,8-.21,2.87-7.82,2.31-18,9-4.25,2.79-3.23,3.09-11,9-9.43,7.17-13.22,8.47-15,9C465.31,1859.09,459.14,1860.91,456,1858Z"
              transform="translate(-193.5 -382.38)"/>
        <path class="cls-15"
              d="M485,1876c-3.87-4.39,1-15.46,6-22,8.77-11.47,21.87-14.15,26-15,3.88-.79,13.91-2.71,24,2,3.19,1.49,7.38,3.53,9,8,2.11,5.84-1.71,11.57-2,12-1.81,2.63-4,3.94-20,9-5.3,1.68-9.2,2.79-17,5-7,2-10.82,3-16,3S486.79,1878,485,1876Z"
              transform="translate(-193.5 -382.38)"/>
        <path class="cls-15"
              d="M553,1873c-2.21-3.15,4.83-11.71,10-18,5-6.13,7.56-9.19,12-11,7.7-3.14,15.11-.64,20,1,4.49,1.51,11.69,3.93,12,8s-6.37,7.57-11,10c-5.82,3.06-10.2,4-19,6C557,1873.58,554.16,1874.66,553,1873Z"
              transform="translate(-193.5 -382.38)"/>
        <path class="cls-15"
              d="M607,1870c-2-4.31,3.45-11,7-14a21.38,21.38,0,0,1,30,2c1.22,1.28,8.09,8.47,6,13-1.88,4.07-10,3.7-25,3C609,1873.26,607.47,1871,607,1870Z"
              transform="translate(-193.5 -382.38)"/>
        <path class="cls-16"
              d="M446,854c2.67-2.2,8.45-5.46,20-12,17.14-9.7,17.13-8.52,26-14,17.47-10.8,24-19.39,28-17,2.91,1.73.76,7,2,15,1.85,12,9.3,17.27,20,30,3.52,4.19,16.29,19.58,25,39,6.36,14.18,8.95,26.91,11,37,3.84,18.87,6,35,6,35s1.25,9.3,9,28c.76,1.83,2.38,5.6,6,7,2.05.79,4.65.78,8.7-.92C617.43,997,623.08,988.44,624,987c16.45-25.61,11-53,11-53-3.61-18.14-12.72-24.16-9-37a79.75,79.75,0,0,1,8-17,68.66,68.66,0,0,1,8-11c7.68-8.26,12-6.34,26-15,11-6.83,18.34-11.37,23-20,1.29-2.39,2.23-4.81,5-7,4.71-3.71,9.21-2.39,18-3,10.53-.73,18.67-3.65,28-7,6.27-2.25,9.89-4.1,12-5,6-2.57,22.16-7.09,56,9,35.84,17,60.05,42.22,69,52,25.18,27.53,44,58.23,64,91,14.92,24.4,20.23,36.28,36,47,6,4.11,17.25,10.51,16,15-.83,3-6.39,2.28-14,6-12.55,6.14-19.2,18.77-18,20,.92.95,6.23-5.08,18-10,9.87-4.13,20.26-5.8,21-4,.51,1.22-3.88,3-9,9-4.6,5.41-8.44,12.65-7,14s7.65-6,20-9a41.31,41.31,0,0,1,14-1c10.32,1.16,13.81,6.27,25,12,8.88,4.54,16.1,6.14,29,9,18.35,4.07,28.23,3.23,29,7,.55,2.73-4.49,3.86-12,12-4.22,4.58-11.38,12.34-13,23-1.11,7.34,1.33,9.94-1,13-3.18,4.17-11.1,3.77-24,1-27.67-5.93-31.13-12.62-54-18-15.3-3.6-25.36-3.34-27-9-1.87-6.47,9.19-14,7-17-1.52-2-8.39-.55-13,3-4.2,3.23-5.35,7.27-6,7-.9-.37.43-8.64,5-17,5.36-9.8,11.89-13.73,11-15s-10,1.3-17,8-6.71,12.52-11,14c-7.19,2.48-17.27-10.44-24-18-16.39-18.4-17.43-10.09-55-40-30-23.91-45-35.86-55-49-4.13-5.44-12.08-16.63-16-15-3.11,1.29-2.34,10.09-2,14,1.31,15,8,25.41,7,26s-5.49-10.26-17-17a42.48,42.48,0,0,0-14-5c-10.15-2-18.39-.37-25,1-34.69,7.2-46,12.42-51,7-2-2.11-2-4.75-2-10-.09-17.66,12-30.26,11-31s-12.4,14.11-27,28c-10.42,9.91-16.71,15.89-26,21-31.08,17.1-67,8.65-74,7-10.15-2.39-10.47-4-24-7a188.54,188.54,0,0,0-42-5c-27.62,0-38.31,6.65-46-1-1.63-1.63-3.42-7.08-7-18-3.69-11.26-5.54-16.89-7-24-4.18-20.31-1.22-32.44-4-33-2.43-.49-7,8.32-9,17-3,13.07.51,23.6-1,24-2,.52-7.31-17.56-10-17-1.82.38-.62,8.88-2,22-.3,2.84-.73,6-4,21-4.52,20.74-6.78,31.1-8,34-3.31,7.87-8.91,21.17-22,30-8.52,5.74-16.24,6.92-16,10,.27,3.43,10,2.79,21,10,10.07,6.58,16.31,16.46,15,18-1,1.21-5.93-3.56-17-7a72.51,72.51,0,0,0-23-3,54.2,54.2,0,0,0-15,2c-14.94,4.5-21,15.38-23,14-2.39-1.68,4.4-19.3,18-35,4.48-5.17,8.71-8.85,17-16,17.82-15.38,30.68-23.92,30-25-1-1.55-27.63,16.06-31,12-2.09-2.52,6.58-11.32,16-26,8-12.5,12.68-24.33,22-48,12.62-32,20-56,20-56C432.71,874.22,434.9,863.13,446,854Z"
              transform="translate(-193.5 -382.38)"/>
        <path class="cls-16"
              d="M323,1114c-.87-1.45,7.65-9.94,19-14a45.92,45.92,0,0,1,22-2c11.42,1.47,21.39,6.62,21,8s-12.76-3.85-30-2C335.76,1106.06,324,1115.65,323,1114Z"
              transform="translate(-193.5 -382.38)"/>
        <path class="cls-16"
              d="M326,1139c1.87-10.09,22.09-13.75,40-17,15.33-2.78,25.25-4.46,38-1a63.51,63.51,0,0,1,22,11c7.57,5.66,16.82,15,15,18-1.57,2.56-9.79-2.34-25-2a76.52,76.52,0,0,0-15,2c-27,5.54-31.06,19.65-46,18-14.32-1.58-23.59-15.76-25-18C327.26,1145.65,325.33,1142.6,326,1139Z"
              transform="translate(-193.5 -382.38)"/>
        <path class="cls-16"
              d="M452,1063c8.9,10.42,25.21,4.74,50,6,17.69.9,13,4,50,11,30,5.71,45.39,8.51,63,6,14.24-2,12.22-4.51,41-12,23-6,34.57-9,50-10,15.68-1,30.39.2,56-3,4.7-.59,11.31-1.52,18-6,11.66-7.81,15.18-20.8,16-24,1.75-6.82,2.73-10.68,1-14-6.18-11.85-40.89-5.22-63-1-14.74,2.81-19.61,4.63-75,21-27.79,8.21-38.32,11.23-38,13,.44,2.44,21.25,1.17,37-1,22.56-3.11,35.59-8.17,36-7,.52,1.47-19.49,11.6-44,18-15.3,4-31.44,8-52,5a117.83,117.83,0,0,1-30-9c-18.33-8.21-18.26-13.7-35-21-8.28-3.61-18.18-5.41-38-9-27.46-5-32.45-3.27-36-1-7.12,4.55-12.14,13.67-12,23C447,1049.79,447.14,1057.31,452,1063Z"
              transform="translate(-193.5 -382.38)"/>
        <path class="cls-16"
              d="M545,1166c-.73,1.56,14.82,10.88,30,18,13.07,6.13,27.28,12.79,47,16,27.89,4.53,50-.58,60-3,20.06-4.85,33.41-12.17,55-24,17.53-9.61,35.82-21.46,35-23s-17.49,7.77-44,17c-13.84,4.82-33.12,11.43-58,15-15.56,2.23-43.55,6-77-1C564.84,1175.1,545.8,1164.28,545,1166Z"
              transform="translate(-193.5 -382.38)"/>
        <path class="cls-16"
              d="M691,1226a271.52,271.52,0,0,0,49.23-2.44c5.06-.71,8.86-1.4,9.77-1.56,11.43-2.06,27.78-5,43-12,19.5-9,18.22-15.84,33-19,12.93-2.76,26.57-.19,27,3,.31,2.3-6.29,4.54-25,12-23.63,9.43-27.62,11.65-34,14C752.83,1235.16,691,1226.46,691,1226Z"
              transform="translate(-193.5 -382.38)"/>
        <path class="cls-17"
              d="M436,1354c.32,1,15-6.14,36-5,11.92.65,14.25,3.34,34,7a264.61,264.61,0,0,0,32,4c23.68,1.31,33.82-4.25,54-7,40.5-5.52,74.24,6.67,89,12,18.52,6.69,30.2,13.95,48,25,32.63,20.26,36,29.73,37,35,1.13,6.17-.1,12,4,15,4.46,3.3,11.28.43,21-3,19-6.71,5.3-.1,37-11,28.14-9.67,28.95-11.44,38-12,10.44-.64,17.53,1.21,19-2,1.62-3.56-5.09-10.19-13-18-9.26-9.15-15.57-13-15-14,.69-1.17,11,2.72,21,9,13.56,8.52,20.33,17.57,21,17s-8.8-14.62-23-30c-8.62-9.34-17.4-18.85-30-28-6.84-5-28.85-20.61-60-26-27.9-4.83-50.54.74-76,7-36.24,8.92-44.83,10.94-62,15a107.22,107.22,0,0,1-20,3c-6.2.32-7.14-.2-15,0a145,145,0,0,0-22,2c-13.41,2.4-13.1,5-22,6-6.66.72-10.51-.37-26-4-17.65-4.14-26.47-6.21-31-7-8.93-1.56-23.22-4.06-40-2C451.3,1344.54,435.67,1352.92,436,1354Z"
              transform="translate(-193.5 -382.38)"/>
        <path class="cls-17"
              d="M556,1276c0,.23,15.15.65,36,4,24.65,4,25.54,6.91,41,8,20.85,1.46,37.07-2.65,46-5,16.15-4.24,30.39-10.76,30-12s-16.33,4.27-40,7c-7.93.92-17,1.54-43,1C586.57,1278.18,556,1275.68,556,1276Z"
              transform="translate(-193.5 -382.38)"/>
        <path class="cls-17"
              d="M735,1287c.38,1.5,15.23-2.7,44-5,43.54-3.48,58.62,2.22,63,4a96.44,96.44,0,0,1,28,18c16.49,15.16,22.71,31.66,24,31,1.06-.54-3.95-12-14-35-5.8-13.25-9.32-20.91-16-30-5.67-7.71-8.51-11.57-13-14-12.25-6.62-27,1-44,8C764.66,1281.54,734.47,1284.91,735,1287Z"
              transform="translate(-193.5 -382.38)"/>
        <path class="cls-17"
              d="M777,1469c0-.53,14.36-1.21,37-5,27.19-4.55,40.79-6.83,56-13,13.09-5.31,27.12-8.21,40-14,4-1.78,9.28-4.31,13-2,7.09,4.42,2.19,22.68,4,23,1.28.22,5-8.66,6-20,1.08-12-1.48-19.9-1-20,.71-.15,7.58,17.29,6,39-.23,3.16-1.93,24.2-8,25-3.78.5-8.13-7-10-12-3.65-9.69-1.35-18.91-2-19-1-.13-3.27,20.87-7,21-2.12.07-2.19-6.71-6-11-8.53-9.61-30.7-.94-51,4C812.14,1475.19,777.06,1469.82,777,1469Z"
              transform="translate(-193.5 -382.38)"/>
    </g>
    <g id="Layer_3" data-name="Layer 3">
        <path class="cls-4"
              d="M1227.5,1282.5c-.68,11.76-2.54,19.9-6,35-1.5,6.55-1.66,5.58-8,26-6.94,22.36-10.45,33.73-12,43s-.54,8-3,31c-1.44,13.45-2.55,20.9-4,32-4.71,36-.59,39.1-6,53-1.82,4.68-3.28,7.17-2,9,5.59,8,50.41-15.09,58-19,23.39-12,35.08-18.06,44-29,17.61-21.6,18.59-47.16,19-58,.72-18.9-4-16.23-21-81-5.26-20-7.37-30-17-40-12.63-13.06-33.44-21.1-40-15C1227.37,1271.48,1228,1273.78,1227.5,1282.5Z"
              transform="translate(-193.5 -382.38)"/>
        <path class="cls-18"
              d="M1177.5,1483.5c-4.24,2-7,6.7-9,10-1.71,2.87-3.74,6.28-4,11a21.24,21.24,0,0,0,4,13c7.09,10.47,82,88,105,85,5-.65,23.34,1.66,28-6,5.35-8.8-91-95.36-93-98C1201.14,1488.85,1186.89,1479,1177.5,1483.5Z"
              transform="translate(-193.5 -382.38)"/>
        <path class="cls-4"
              d="M1473.5,1574.5a56.13,56.13,0,0,0,18,10c5.95,2,21.66,7.19,36-1,9.93-5.67,14.11-14.85,16-19a49.29,49.29,0,0,0,3-31c-3-13-13.83-34.33-35-37-19.2-2.42-35,12-42,25C1460.76,1537.75,1462.33,1558.23,1473.5,1574.5Z"
              transform="translate(-193.5 -382.38)"/>
        <path class="cls-4"
              d="M1203.5,1486.5c-9.51,2.77-16.34,8.18-30,19-9.27,7.34-14,11.16-19,18a62.53,62.53,0,0,0-11,23c-.92,4-2.68,13.53,3,38,3.29,14.17,5.92,19.74,9,30,9.67,32.15,1.67,36.72,10,65,3.29,11.18,8.42,28.6,22,46,9.07,11.62,17,24.19,27,35a36.2,36.2,0,0,1,9,17c.46,2.24,2.13,10.43-2,14-1.76,1.52-3.16,1-8,2-4,.83-9.39,2-13,5-4.87,4.08-7,12.11-5,19,2.46,8.3,10.1,11.71,13,13,6.27,2.79,12,2.47,17,2,14.23-1.36,23-4.1,35-7,8.09-2,30-7,48-15,2-.88,5.46-2.49,7-6,2.1-4.8-.73-10.27-6-20-6.29-11.63-9.44-17.44-11-20-7.37-12.09-5.27-17.93-11-46-4.87-23.85-7.3-35.77-14-50-4.25-9-9.19-17-16-34-4.32-10.77-6.42-17.73-5-26,.61-3.56,1.91-12.65,9-18,2.32-1.75,6.06-3.71,23-4,18.69-.32,20.83,2,23,0,11.19-10.07-24.83-88.75-74-100C1228.1,1485.27,1216.7,1482.66,1203.5,1486.5Z"
              transform="translate(-193.5 -382.38)"/>
        <path class="cls-19"
              d="M1174.5,1485.5c-1.57,1.26,6-7,29-11,12.49-2.17,21.3-7.38,33-13,9.23-4.44,11.38-6.1,26-14,15-8.12,27.76-14.45,31-16,21.77-10.4,53.64-14,83-7,16.47,3.92,55.42,13.2,73,49,1,2,18.47,39,0,72-10.12,18-26.54,26.9-36,32-9.63,5.19-20.76,7.8-43,13-30.65,7.17-48.85,8.82-73,11,0,0-20.73,1.87-21,0-.14-1,6.95-1.09,10-5,1.93-2.47,5.44-10.57-21-48-23.44-33.18-35.16-49.77-57-59C1191.26,1482.21,1179.5,1481.5,1174.5,1485.5Z"
              transform="translate(-193.5 -382.38)"/>
        <path class="cls-4"
              d="M1444.5,1456.5c-10.35,3-19.79,10.08-21,11a72.75,72.75,0,0,0-18,20c-8,13.2-9.62,25.47-11,37s-1.09,21.48,0,34c1.76,20.26,5.44,46.39,14,82,3.14,13.06,6,23.52,9,41,3.18,18.55,3.9,29.71,0,42-1.79,5.64-5.55,17.49-15,21-4.58,1.7-6-.23-15,1-5.53.76-13,1.78-20,7-2.81,2.1-9.45,7.08-11,16-.17,1-1.59,10,4,17a22,22,0,0,0,11,7c40.5,12.75,94.08,28.63,99,28,2-.25,8.18-1.62,16-18,5.85-12.25,6.31-19.73,10-34,2.32-9,4.88-16,10-30,10.4-28.48,13.61-29,18-45,2.2-8.05,6-22.47,5-41-.71-12.79-4-32.14-10-48a87,87,0,0,1-5-18c-.44-2.69-1.75-10.74-1-17,2-16.83,18.77-19.41,24-33,8.85-23-24.18-54.38-27-57C1507.11,1476.34,1475.3,1447.51,1444.5,1456.5Z"
              transform="translate(-193.5 -382.38)"/>
        <path class="cls-19"
              d="M1403.5,1491.5c7-14,22.56-29.21,57-26,21.49,2,36.6,14.19,41,18,13.42,11.65,18.52,24.75,26,44,5.63,14.47,8.44,21.71,7,31-2.88,18.6-13,28-17,29,6,1,25,2,38-1,12.69-2.93,26.95-9.51,40-24,15.67-17.4,18.77-37.27,20-46,5.29-37.41-12.74-69.44-26-93-1.71-3-5.72-9.89-11-18-9.9-15.18-14.85-22.78-19-26-20.9-16.23-74.05,18.79-85,26C1426.63,1437,1400.38,1497.75,1403.5,1491.5Z"
              transform="translate(-193.5 -382.38)"/>
        <path class="cls-20"
              d="M1550.5,1255.5c18.52,23.51,25.57,27.86,33,29a26.9,26.9,0,0,0,8,0c20.32-2.77,31.64-26.08,35-33,6.4-13.17,15.81-32.55,6-50-9.15-16.28-29.86-21.69-45-20-31.08,3.46-54.17,38.56-48,59C1540,1242.18,1543.5,1246.62,1550.5,1255.5Z"
              transform="translate(-193.5 -382.38)"/>
        <path class="cls-4"
              d="M1600.5,1152.5c8.25,4.15,14.5,12.77,27,30,7.58,10.45,12.62,17.4,17,28,5.65,13.68,12,29.16,6,46-4.53,12.64-16.09,26.11-32,29-13.11,2.38-23.66-3.42-32-8-27.44-15.08-38.85-41.87-47-61-8.42-19.76-12.62-29.64-9-40C1538.59,1153.38,1577.55,1140.94,1600.5,1152.5Z"
              transform="translate(-193.5 -382.38)"/>
        <path class="cls-4"
              d="M1306.5,1072.5c-4.6,12.84-1.47,26.09-1,28,.74,3,4.77,18.06,17,27,17.77,13,42,5.13,64-2,15.19-4.93,38.17-12.72,56-35,8.58-10.72,22-27.51,17-41-8.35-22.48-63-22.64-99-13C1345,1040.66,1315,1048.69,1306.5,1072.5Z"
              transform="translate(-193.5 -382.38)"/>
        <path class="cls-21"
              d="M1274.5,1094.5c-5.15.07-11.14,7.32-15,12-4.34,5.26-6.67,10.27-10,19a316.59,316.59,0,0,0-11,34c-2.25,9.21-3.36,15.13-7,35-10.34,56.46-10.31,57.53-13,62-5.16,8.57-12.48,16.6-10,26,.75,2.85,2.43,5.93,7,10,5.82,5.18,18.27,13.71,56,16,16.59,1,24.88,1.51,29-1,13.29-8.11,14.16-31,10-73C1309.12,1220.6,1296.15,1094.2,1274.5,1094.5Z"
              transform="translate(-193.5 -382.38)"/>
        <path class="cls-21"
              d="M1257.5,1127.5a84.87,84.87,0,0,1,7-18c8.14-15.28,19.08-24,32-34,2.41-1.87,24.8-19.27,28-16,1.79,1.82-4.47,8-8,22-1.79,7.11-3.53,14-1,21,4.14,11.44,17.12,16,20,17,17,6,33.31-1.62,47-8a110.94,110.94,0,0,0,34-25c10.31-11.14,21.75-23.5,21-39-.2-4.07-1.08-5.2,0-7,4.85-8,30.47,1.7,75,14a74.79,74.79,0,0,1,19,8s3.17,1.89,6,4c15,11.18,14,105,18,157a619.78,619.78,0,0,0,9,66c3.87,21.19,8.47,46.4,18,77,1.58,5.08,5.72,18.72,14,46,2.61,8.59,4.23,17.46,7,26a54.24,54.24,0,0,1,2,9c.44,3.21,1.06,9.74,0,10-1.34.33-2.83-10-9-18-4.57-5.9-11.26-9.9-27-14-24-6.24-44.75-11.66-69-4-11.44,3.62-7,4.88-35,18-29.93,14-41.43,15.58-45,16-13,1.52-22.56-.28-37-3-23.92-4.5-26.54-9.41-55-15-20.83-4.09-28.06-3.16-33-2-10.05,2.35-18.19,7.39-20,5-1.69-2.24,3.3-9.52,5-12,3-4.38,4.9-5.4,6-9a16.73,16.73,0,0,0,0-9c-3.28-13.81-3.07-28.36-7-42-6.49-22.49-10.12-41.33-17-77-1.27-6.58-3.66-19.05-6-35C1246.52,1188.53,1251.11,1150.6,1257.5,1127.5Z"
              transform="translate(-193.5 -382.38)"/>
        <path class="cls-6"
              d="M1293.5,1353.5a97.22,97.22,0,0,0,14,22c4.86,5.75,11.22,13.13,22,19a67.86,67.86,0,0,0,28,8"
              transform="translate(-193.5 -382.38)"/>
        <path class="cls-6"
              d="M1340.5,1411.5a161.6,161.6,0,0,0,20,0,142.5,142.5,0,0,0,38-7c18.48-6.22,30.85-15.07,39-21a169,169,0,0,0,30-28"
              transform="translate(-193.5 -382.38)"/>
        <path class="cls-6"
              d="M1301.5,1423.5a133.77,133.77,0,0,1,25-1,150.23,150.23,0,0,1,30,5c18,4.78,17.55,7.77,32,11,6.88,1.54,18.42,4,33,2a89.49,89.49,0,0,0,28-9c11.32-5.57,10.26-7.7,23-14,13.79-6.83,23.65-8.6,26-9a80.72,80.72,0,0,1,18-1"
              transform="translate(-193.5 -382.38)"/>
        <path class="cls-21"
              d="M1509.5,1058.5c12.92-4.2,28.85,3.74,33,6,4.37,2.38,9.35,5.93,18,16,12.86,15,13.58,20.78,30,46,12.75,19.59,19.13,29.38,24,34,5.42,5.14,12.4,10.59,11,14-1.07,2.6-6.21,2-13,3a73.44,73.44,0,0,0-27,11c-15.87,10.39-22.13,26.64-23,29-6.24,16.88-5.1,37.67,5,52,5.49,7.79,12.59,12.22,12,13-.75,1-12.44-5.69-23-14-12-9.46-20.84-21.1-38-44-15.71-21-20.31-29.09-24-37"
              transform="translate(-193.5 -382.38)"/>
        <path class="cls-6" d="M1480.5,1195.5a72.92,72.92,0,0,0,8,11,74.26,74.26,0,0,0,22,17"
              transform="translate(-193.5 -382.38)"/>
        <path class="cls-4"
              d="M1581.5,1236.5c1.1-5.62,2.7-13.89,6-22,1.82-4.49,4.78-10.45,13-21,2.69-3.46,12.31-15.58,33-34,21.66-19.29,22.12-15.79,29-25,4-5.37,7.19-11,14-13,6.22-1.81,11.87.5,18,3,7.45,3,18.33,7.49,23,18,.78,1.76,3.1,7.54,0,24-2.32,12.33-5.49,19-10,31-9.45,25.11-7.7,28.12-17,50-7,16.44-10.81,21.4-13,24-5.28,6.28-11.19,10.52-23,19-11.59,8.33-15.21,9.5-17,10-10.5,2.94-19.77.05-23-1-21.84-7.12-36.2-31.64-35-50A122.45,122.45,0,0,1,1581.5,1236.5Z"
              transform="translate(-193.5 -382.38)"/>
        <path class="cls-4"
              d="M1720.5,1105.5c-3-7.86,1.94-16.21,3-18,5.15-8.67,14-11.66,18-13,9.52-3.21,11,.17,25-3,7.23-1.64,15.84-4.6,17-5,8.61-3,11.27-4.59,16-4,1.79.22,8.79,1.37,12,7,3.4,6,.3,13-1,16-3.57,8.14-10.09,12.31-19,18a102,102,0,0,1-18,9c-9,3.5-15.11,5.85-23,6C1748.51,1118.54,1725.57,1118.7,1720.5,1105.5Z"
              transform="translate(-193.5 -382.38)"/>
        <path class="cls-4"
              d="M1669.5,1140.5c-5.47-4.05-4.52-15.24-2-22,4.1-11,14.43-15.88,21-19a47.52,47.52,0,0,1,20-5c4.65-.08,13.28.51,27,8,21.08,11.5,32.75,27.56,43,42,10.53,14.83,15.5,26.11,16,38,.37,8.69-1.87,12.71-4,15-4.52,4.84-11.44,5-16,5-13.46.07-24.17-5.76-31-10-14.74-9.16-33.56-19.44-42-39-2-4.59-3.26-9.34-8-12C1684.79,1136.6,1675.69,1145.08,1669.5,1140.5Z"
              transform="translate(-193.5 -382.38)"/>
        <path class="cls-4"
              d="M1750.5,1102.5c6.85-4.16,20,5,33,14,11.71,8.13,17.9,16.13,24,24a42.46,42.46,0,0,1,8,15c1.15,4.09,2.62,9.67,0,15a16.7,16.7,0,0,1-7,7c-10,5.77-27.47,2.53-39-5C1743,1155.19,1739,1109.47,1750.5,1102.5Z"
              transform="translate(-193.5 -382.38)"/>
        <path class="cls-4"
              d="M1731.5,1125.5c9.42-10,46.43,13.48,63,24,11.77,7.47,23.06,16.35,25,29,.35,2.26,1.13,7.9-2,13-4.61,7.53-14.51,8.62-18,9-15.95,1.75-29.08-8.33-35-13C1741.11,1169,1722.79,1134.75,1731.5,1125.5Z"
              transform="translate(-193.5 -382.38)"/>
        <path class="cls-6"
              d="M1342.5,1466.5c6,1.82,14.67,4.51,25,8,22.64,7.65,24.15,9.28,24,10-.19,1-3.43,1-14,1-6.29,0-14.06,0-23,0"
              transform="translate(-193.5 -382.38)"/>
        <path class="cls-6"
              d="M1370.5,1503.5c2.6,2.74,6.33,6.56,11,11,4.31,4.1,6.5,5.94,6,7-.72,1.55-6.24-.51-15-1a72.48,72.48,0,0,0-16,1c-6.83,1-11.24,2.62-23,7-14.12,5.26-19.79,7.44-24,9-7.21,2.67-17.74,6.31-31,10"
              transform="translate(-193.5 -382.38)"/>
        <path class="cls-6" d="M1490.5,1433.5a79.32,79.32,0,0,1,30,7,77.67,77.67,0,0,1,21,14,75.62,75.62,0,0,1,11,13"
              transform="translate(-193.5 -382.38)"/>
        <path class="cls-6" d="M1505.5,1429.5a110.49,110.49,0,0,1,26,0c8.19,1,18,2.15,29,8a66.24,66.24,0,0,1,17,13"
              transform="translate(-193.5 -382.38)"/>
        <path class="cls-6"
              d="M1532.5,1523.5a55.78,55.78,0,0,0,16-3c7-2.44,8.79-4.72,17-7a42.91,42.91,0,0,1,12-2c3.92,0,4.15.58,12,1a70.51,70.51,0,0,0,10,0,58.83,58.83,0,0,0,7-1"
              transform="translate(-193.5 -382.38)"/>
        <path class="cls-6" d="M1596.5,1492.5a60,60,0,0,1,1,13,77.39,77.39,0,0,1-2,14c-1,4.94-2.12,9-3,12"
              transform="translate(-193.5 -382.38)"/>
        <path class="cls-4"
              d="M1267,810c-2.65-2.4-3.13-8-4-19-1.36-17.31-2-26,0-36,.94-4.6,8.64-40,35.5-48.5a43.32,43.32,0,0,1,25,0c10,3.23,16.07,9.73,21,15,6,6.36,9.31,12.19,13,19,14.37,26.51,21.56,39.76,19,45-4.46,9.14-19,3.21-50,10C1292.2,803,1275.63,817.82,1267,810Z"
              transform="translate(-193.5 -382.38)"/>
        <path class="cls-22"
              d="M1461.5,739.5a125.12,125.12,0,0,1-2,46c-5.65,25.87-17.43,42.07-24,52.31-15.75,1.48-33.91-.88-50.59-6.91-.42-9.41-2.76-24.8-.36-49.4,2.11-21.71,6.23-33.36,9-40,3.44-8.26,8.33-19.69,19-30a68.4,68.4,0,0,1,12-9.29,59.42,59.42,0,0,1,30.78,13.57A116.14,116.14,0,0,1,1461.5,739.5Z"
              transform="translate(-193.5 -382.38)"/>
        <path class="cls-23"
              d="M1424.54,702.21a68.4,68.4,0,0,0-12,9.29c-10.67,10.31-15.56,21.74-19,30-2.77,6.64-6.89,18.29-9,40-2.4,24.6-.06,40,.36,49.4a109.79,109.79,0,0,1-16.36-7.4c-8.84-4.93-37.34-20.82-39-46-.82-12.45,5.15-23.78,10-33,3.24-6.15,9.33-17.42,22-27a76.27,76.27,0,0,1,24-12,85.53,85.53,0,0,1,26-4A99.42,99.42,0,0,1,1424.54,702.21Z"
              transform="translate(-193.5 -382.38)"/>
        <path class="cls-6"
              d="M1384.86,830.9a109.79,109.79,0,0,1-16.36-7.4c-8.84-4.93-37.34-20.82-39-46-.82-12.45,5.15-23.78,10-33,3.24-6.15,9.33-17.42,22-27a76.27,76.27,0,0,1,24-12,85.53,85.53,0,0,1,26-4,99.42,99.42,0,0,1,13,.71,59.42,59.42,0,0,1,30.78,13.57,67.52,67.52,0,0,1,12.18,13.72c8.07,11.68,10.28,22.53,12,31,1.55,7.62,5.11,26.3-2,48-1.94,5.92-2.91,8.89-5,12-6.76,10.08-20.59,15.79-37,17.31C1419.7,839.29,1401.54,836.93,1384.86,830.9Z"
              transform="translate(-193.5 -382.38)"/>
        <path class="cls-6"
              d="M1384.86,830.9c-.42-9.41-2.76-24.8-.36-49.4,2.11-21.71,6.23-33.36,9-40,3.44-8.26,8.33-19.69,19-30a68.4,68.4,0,0,1,12-9.29"
              transform="translate(-193.5 -382.38)"/>
        <path class="cls-6"
              d="M1435.45,837.81c6.62-10.24,18.4-26.44,24-52.31a125.12,125.12,0,0,0,2-46,116.14,116.14,0,0,0-6.18-23.72"
              transform="translate(-193.5 -382.38)"/>
        <path class="cls-24"
              d="M1397.5,778.5c-15-9.12-28.9-20-44-29-6-3.54-1.92-1.28-37-23,0,0-3.06-1.9-24-13-4.88-2.59-10.74-5.63-19-7-8.69-1.44-12.51.23-14,1a17,17,0,0,0-8,9c-2.33,6.62.84,12.88,3,17,2.9,5.53,6.78,10,20,20,4,3,12,8.95,29,20,4.64,3,10.71,6.94,19,12,18.48,11.28,27.72,16.92,32,18,22.9,5.77,50.51-9.13,50-18C1404.33,782.6,1401.19,780.74,1397.5,778.5Z"
              transform="translate(-193.5 -382.38)"/>
        <path class="cls-9"
              d="M1181.5,938.5c.91-.27,1.51,2.2,5,4a15.2,15.2,0,0,0,10,1,18.59,18.59,0,0,0,8-4c5.59-4.56,8.06-10.8,10-17,4.3-13.73,3.58-19.53,7-34,1.59-6.75,3.16-11.48,5-17,4.23-12.72,10.7-32.2,25-51a129.41,129.41,0,0,1,37-33c23.41-13.57,44.94-15.48,62-17a206.89,206.89,0,0,1,59,4c16.38,3.43,35.31,7.4,56,21a130.82,130.82,0,0,1,29,26,132.52,132.52,0,0,1,25,48c.65,2.34,8.37,30.74,6,58a100,100,0,0,0,1,24c1.8,11.17,4.51,15.78,6,18,1.71,2.54,6.57,9.77,15,12,7.92,2.09,12.54-1.93,14,0,3.49,4.61-22,28.47-37,41-5,4.16-11.9,9.61-22,13a48,48,0,0,1-18,3c-5.94-.24-9.79-1.64-10-1-.31.91,7,5.46,16,7,10.56,1.8,17.34-1.56,18,0,.9,2.12-10.65,10.64-25,16-13.77,5.14-25.31,5.57-37,6-13.7.51-21,.78-30-3-5.69-2.4-11.17-6.07-12-5-.68.87,2.07,4.48,5,7,1.11,1,5.25,4.33,17,7,6.68,1.52,10,1.49,10,2,0,1.11-15.36,2.12-31,3-20.75,1.17-31.3,2-41,2-10.94,0-12.17-.36-21,0-11.58.47-13.6,1.34-27,2,0,0-10,.5-24,0-10.43-.37-14-1-18-3a38.39,38.39,0,0,1-11-9c-2.94-3.25-5.26-5.82-7-10-1.85-4.45-1.45-6.93-4-9-1.67-1.36-3.19-1.38-7-2-5.79-.94-9.54-1.54-13-3-5.81-2.45-9.25-6.64-12-10-2-2.42-4.7-6.29-4-7,.49-.5,2.21,1,5,2,5.64,1.92,12,.12,12-1s-7.24-.71-17-5c-10.84-4.76-16-11.58-17-13-3.74-5.15-6-11.31-5-12,.69-.47,2.36,2,6,4,6,3.26,14.1,3.2,15,1,.79-1.93-4.25-4.73-11-11-2.81-2.61-12.29-11.75-18-23C1178.87,955.47,1179.24,939.17,1181.5,938.5Z"
              transform="translate(-193.5 -382.38)"/>
        <path class="cls-10"
              d="M1190.5,948.5c2.89-2.53,6.18.24,12-2,6.08-2.34,9.72-8.16,13-16,7.77-18.55,5.57-29.38,10-48,2.86-12,6.83-20.3,11-29,5.6-11.69,15.16-31.62,35-49,19-16.63,38.29-22.94,48-26,45.84-14.46,85.07-1.72,96,2l1.46.5a154.42,154.42,0,0,1,44.54,24.5c8.25,6.63,22.49,18.07,33,38a116.85,116.85,0,0,1,13,49c.53,15-1.8,37.55,2,57a54.59,54.59,0,0,0,3,10c2.26,5.58,6,14.83,15,20a35.36,35.36,0,0,0,12,4c6.8,1,10.12-.46,11,1,2.06,3.42-13.48,16.27-18,20-11.67,9.65-23.34,19.13-39,24a70.35,70.35,0,0,1-19,3,34.17,34.17,0,0,1-10-1c-4.79-1.37-7.5-3.58-8-3-.62.74,2.76,5.34,7,9,12.31,10.63,26.87,9,27,12s-14.25,5.91-21,7a108.42,108.42,0,0,1-27,1,119.32,119.32,0,0,1-21-4c-10.62-2.76-15.88-5.31-19-7-2.23-1.21-3.4-3.42-5-3-2.68.7-3.92,7-3,12,1.26,6.84,6.55,10.91,8,12,5.61,4.2,11.1,4.19,11,5-.13,1.08-9.89,1.44-22,0-10.9-1.3-12.28-2.69-25-5-11.7-2.12-20.63-3.74-32-3-5.93.39-11.62,1.59-23,4-11.76,2.49-17.44,4.36-27,4-7.5-.28-11.39-1.7-14-3s-8.29-4.12-11-10c-2.07-4.48-.32-6.16-3-11a15.9,15.9,0,0,0-7-7c-2.89-1.32-5.12-1-8-1-10.66-.11-19.18-5.34-19-6,.11-.42,3.72,1,9,0a19.25,19.25,0,0,0,7-3c1.89-1.3,3.13-2.16,3-3-.25-1.64-5.34-1.38-13-3-9.39-2-14.58-5.11-16-6-4.26-2.67-8.69-6.66-8-8,.43-.84,2.46.16,7,0a22.36,22.36,0,0,0,11-3c2-1.25,4.05-2.48,4-4-.09-2.56-5.91-3.7-11-6-8.51-3.84-13.32-10.17-17-15C1189.88,971.16,1184.8,953.5,1190.5,948.5Z"
              transform="translate(-193.5 -382.38)"/>
        <path class="cls-4"
              d="M1417.5,778.5c-.13-2.56,6.49-3.37,16-9,8.93-5.28,8.7-7.89,20-17,9.27-7.47,15.86-12.79,26-16,4.72-1.5,13.36-4.12,24-2,14.31,2.85,22.9,12.44,26,16,9,10.39,11.12,21.13,14,36,2.66,13.77,5.86,30.29,0,50-.5,1.67-5.67,11.47-16,31a48.37,48.37,0,0,1-11,13,12.88,12.88,0,0,1-6,3c-.68.12-4.26.78-7-1-3.47-2.25-3.85-7.29-4-9,0,0-1.15-13.57-6-36-4.28-19.8-20.19-32.24-25-36-11.28-8.82-24.63-13.5-29-15C1427,782.21,1417.65,781.53,1417.5,778.5Z"
              transform="translate(-193.5 -382.38)"/>
        <path class="cls-11"
              d="M1229.5,892.5c4.06-5.86,4.45-4.12,14-16,6-7.44,8.33-11.24,14-14,2.23-1.09,8.08-3.93,14-2,6.84,2.24,9.86,9.58,12,15,7,17.73,2.88,33.63,5,34,1.16.2,2.63-4.53,6-13,8.22-20.68,13.09-26.76,15-29,4-4.72,7.34-8.62,13-10,7.79-1.9,14.82,2.24,21,6,3.27,2,10.43,6.71,23,22,13.51,16.43,9.78,16.49,21,29,5.23,5.84,9.09,9.21,11,16,.75,2.66,2.56,10.67-1,18-5.86,12-22.23,14.05-30,15-22.12,2.7-39.12-7.94-44-11-8.72-5.46-13.66-8.55-17-15-2.53-4.88-3.17-9.81-7-11-3.24-1-6.62,1.35-9,3-.7.49-8.13,5.81-8,13,0,2.13.72,3.06,0,4-1.5,2-5.93-.21-12-1-11.26-1.47-17.65,3.21-20,0-1.75-2.4.46-6.87,0-7s-1.31,6.74-6,10-11.18,1.27-12,1c-7.7-2.55-11-10.54-12-13C1212.66,917.42,1227.51,895.37,1229.5,892.5Z"
              transform="translate(-193.5 -382.38)"/>
        <path class="cls-4"
              d="M1318.5,890.5c2.94-7.38,5.85-10,7-11a22.73,22.73,0,0,1,13-5c3.79-.29,8.56.24,16,4,15.07,7.61,23.56,19.59,28,26,5.66,8.18,10.26,15,11,25,.29,3.88.66,10.08-3,16-4.36,7-11.75,9.36-17,11a45.23,45.23,0,0,1-22,1,46.44,46.44,0,0,1-26-15c-9.51-11-10.63-23.2-11-28A52,52,0,0,1,1318.5,890.5Z"
              transform="translate(-193.5 -382.38)"/>
        <path class="cls-4"
              d="M1232.5,891.5c3.37-3.65,4.21-3.66,13-11,8.54-7.14,9-8.22,12-9,7.7-2,14.5,2.65,15,3,4.77,3.38,6.32,8,8,13,1.62,4.81,3.9,11.61,1,19-.65,1.67-2.81,7.32-8,10-1.62.84-2.19.69-5,2a33.35,33.35,0,0,0-8,5c-1.68,1.46-3.78,4.31-8,10-1,1.34-2,2.66-3,4-2.61,3.55-2.92,4.18-4,5a10.68,10.68,0,0,1-6,2c-4,0-6.83-2.79-9-5a31.82,31.82,0,0,1-8-15,34.8,34.8,0,0,1,2-22C1226.62,897.88,1229.3,895,1232.5,891.5Z"
              transform="translate(-193.5 -382.38)"/>
        <path class="cls-10"
              d="M1250.5,902.5a10.65,10.65,0,0,1,5-2,11.56,11.56,0,0,1,7,1c.41.21,5.25,2.73,6,8a10.79,10.79,0,0,1-1,6c-2.76,6.37-9.55,7.91-10,8a8.63,8.63,0,0,1-5,0c-4.38-1.58-5.91-7.41-6-11C1246.47,911.49,1246.33,905.72,1250.5,902.5Z"
              transform="translate(-193.5 -382.38)"/>
        <path class="cls-10"
              d="M1330.5,908.5a5.69,5.69,0,0,1,2-3c2.1-1.45,4.91-.62,7,0a17.07,17.07,0,0,1,9,6c1.47,1.93,3.5,4.61,3,8-.46,3.08-2.74,5-4,6a12.75,12.75,0,0,1-10,3,12.13,12.13,0,0,1-8-5C1326.68,919.14,1328.39,914.39,1330.5,908.5Z"
              transform="translate(-193.5 -382.38)"/>
        <path class="cls-12"
              d="M1331.5,989.5c.83.64-1.46,5.14-4.1,9.48a85.11,85.11,0,0,1-18.9,2.52,85.42,85.42,0,0,0-15,1c-10.26,1.74-16.25,5-18,6-3.33,1.9-6.85,3.91-10,8a37.4,37.4,0,0,0-3.71,5.72c-.88-1.94-.92-3.82-3.29-10.72-1.71-5-2.56-7.45-4-10-3.74-6.61-7.73-8.5-7-10,.9-1.85,7,1,17,0,5.83-.57,5.9-1.73,10-2,9.21-.6,11.06,5.12,22,8,2.09.55,16.75,4.2,28-3C1328.4,992,1330.77,988.93,1331.5,989.5Z"
              transform="translate(-193.5 -382.38)"/>
        <path class="cls-13"
              d="M1327.4,999c-1,1.59-2,3.17-2.9,4.52a72.14,72.14,0,0,1-8,10,61,61,0,0,1-17,13c-6.82,3.42-15.39,7.72-25,5-1.94-.55-8.43-2.39-12-8a11.29,11.29,0,0,1-.71-1.28,37.4,37.4,0,0,1,3.71-5.72c3.15-4.09,6.67-6.1,10-8,1.75-1,7.74-4.26,18-6a85.42,85.42,0,0,1,15-1A85.11,85.11,0,0,0,1327.4,999Z"
              transform="translate(-193.5 -382.38)"/>
        <path class="cls-6"
              d="M1327.4,999c2.64-4.34,4.93-8.84,4.1-9.48s-3.1,2.51-7,5c-11.25,7.2-25.91,3.55-28,3-10.94-2.88-12.79-8.6-22-8-4.1.27-4.17,1.43-10,2-10,1-16.1-1.85-17,0-.73,1.5,3.26,3.39,7,10,1.44,2.55,2.29,5,4,10,2.37,6.9,2.41,8.78,3.29,10.72a11.29,11.29,0,0,0,.71,1.28c3.57,5.61,10.06,7.45,12,8,9.61,2.72,18.18-1.58,25-5a61,61,0,0,0,17-13,72.14,72.14,0,0,0,8-10C1325.42,1002.15,1326.43,1000.57,1327.4,999Z"
              transform="translate(-193.5 -382.38)"/>
        <path class="cls-6"
              d="M1261.79,1022.22a37.4,37.4,0,0,1,3.71-5.72c3.15-4.09,6.67-6.1,10-8,1.75-1,7.74-4.26,18-6a85.42,85.42,0,0,1,15-1,85.11,85.11,0,0,0,18.9-2.52"
              transform="translate(-193.5 -382.38)"/>
        <path class="cls-14"
              d="M1241.5,969.5a24.11,24.11,0,0,0-1,22,22.22,22.22,0,0,0,7,9c2,1.52,6.42,4.78,12,4a15.52,15.52,0,0,0,8-4,18.16,18.16,0,0,0,4-5"
              transform="translate(-193.5 -382.38)"/>
        <path class="cls-14"
              d="M1266.5,963.5a57.66,57.66,0,0,0-2,11,37.9,37.9,0,0,0,0,9,29.63,29.63,0,0,0,7,15c4.9,5.45,10.54,7.25,16,9a47,47,0,0,0,22,2c3.45-.53,13.75-2.51,22-10,5.15-4.67,6.64-8.89,7-10a20.44,20.44,0,0,0,1-6"
              transform="translate(-193.5 -382.38)"/>
        <path class="cls-4"
              d="M1248.5,947.5a12.55,12.55,0,0,0,1,8,13.46,13.46,0,0,0,5,5,23.06,23.06,0,0,0,7,3c4.13,1.12,8.15,1.1,16,1,5.24-.07,6.52-.29,8-1a14,14,0,0,0,6-6,15.69,15.69,0,0,0,2-8c0-1-.16-6.5-4-10-2.24-2-4.73-2.48-11-3-13.62-1.12-20.5-1.63-24,1A16.79,16.79,0,0,0,1248.5,947.5Z"
              transform="translate(-193.5 -382.38)"/>
        <path class="cls-10"
              d="M1257.5,941.5c-2.21,2.09-4.23,5.84-3,8,.55,1,1.49,1.17,7,2a65.78,65.78,0,0,0,14,1c2.46-.11,3.33-.31,4-1,1.84-1.9.93-6.37-1-9C1274.33,936.83,1263,936.34,1257.5,941.5Z"
              transform="translate(-193.5 -382.38)"/>
        <path class="cls-15"
              d="M1188,1502c-8.57,1.56-13.92,6.92-20,13-4.77,4.78-12.14,12.15-15,24-.53,2.2-2.25,10.12,1,24,3.6,15.37,10.12,24.5,15,33,8,13.9,4.83,14.37,19,59,9.41,29.61,14.11,44.42,18,51,14.09,23.83,30.54,34.15,34,52,.36,1.88,1.23,7.2,5,9,4.88,2.33,12.19-2.41,16-6,3-2.83,9.84-10.62,10-35,0-4.76-.13-19.27-7-44-5.94-21.38-9.48-34.14-19-49-11-17.21-20.2-21.85-24-39-1.3-5.85-3.33-15.66,2-23,4.62-6.37,13.79-9.54,18-11,7.93-2.75,10.47-1.59,12-4,4.35-6.86-11.4-24-16-29-5.57-6.06-13.2-14.2-26-20C1203.38,1503.54,1196.54,1500.44,1188,1502Z"
              transform="translate(-193.5 -382.38)"/>
        <path class="cls-15"
              d="M1232,1800c-1.42-4.26,1.27-8.36,3-11,5.35-8.16,14.32-10.44,17-11,3.25-.68,13.41-2.81,18,3a11.08,11.08,0,0,1,2,8c-.94,5.84-6.85,8.84-17,14-8.69,4.42-11.67,4.19-13,4C1241.6,1806.94,1233.9,1805.72,1232,1800Z"
              transform="translate(-193.5 -382.38)"/>
        <path class="cls-15"
              d="M1230,1786c-2.18-1.68-7.85,1.55-11,5-.73.8-5.83,6.55-4,13,.65,2.29,2.53,5.92,5,6,2.89.1,5.06-4.7,7-9C1228.6,1797.46,1232.8,1788.16,1230,1786Z"
              transform="translate(-193.5 -382.38)"/>
        <path class="cls-15"
              d="M1209,1793c-1.09.35-10.52,3.48-12,11-.59,3,0,7.27,2,8,1.72.62,3.83-1.58,8-6,4.62-4.91,8.14-8.64,7-11C1213.69,1794.36,1212.74,1793.19,1209,1793Z"
              transform="translate(-193.5 -382.38)"/>
        <path class="cls-15"
              d="M1427,1479c-1.59,1.11-9.46,6.84-12,17-2,8.18,0,16.77,13,38,13.42,21.91,18.09,23.92,28,40a169,169,0,0,1,20,45,156.81,156.81,0,0,1,4,58c-5.41,46.44-29.61,72.72-24,77,4.48,3.42,22.82-11.16,35-26,5.22-6.35,26.43-33.6,27-73,.4-27.57-9.45-51.5-15-65-6.87-16.71-14.52-28.82-9-39,5.42-10,17.67-7.25,22-17,6.41-14.43-13.72-35.6-16-38-14.19-14.92-31.14-18.61-38-20C1451.34,1473.84,1438.21,1471.17,1427,1479Z"
              transform="translate(-193.5 -382.38)"/>
        <path class="cls-15"
              d="M1365,1766c-1.51-6.68,6.37-12.74,8-14,8-6.13,17.68-5.4,23-5a48.27,48.27,0,0,1,13,3c2.2.76,11.34,3.9,11,6-.3,1.84-7.45-.21-15,4-5.45,3-4.67,5.75-11,10-3,2-8.25,5.55-15,5C1374.09,1774.6,1366.33,1771.87,1365,1766Z"
              transform="translate(-193.5 -382.38)"/>
        <path class="cls-15"
              d="M1401,1774c-.51-6.65,10.77-11.49,12-12a24.56,24.56,0,0,1,16-1c3.56,1,11,4.13,11,8,0,2.85-4.11,3.21-10,10-3.39,3.91-2.92,4.8-5,6-6.41,3.68-15.59-2.09-17-3C1404.92,1780,1401.28,1777.63,1401,1774Z"
              transform="translate(-193.5 -382.38)"/>
        <path class="cls-15"
              d="M1433,1787c-1-3.58,5.23-8.11,9-10,2.17-1.09,9.7-4.86,14-1a8.53,8.53,0,0,1,2,9c-2.16,5.61-10.42,5.91-13,6C1441.56,1791.12,1434,1790.56,1433,1787Z"
              transform="translate(-193.5 -382.38)"/>
        <path class="cls-15"
              d="M1676,1108c-.78-3.83,6.56-8.79,12-11,11.34-4.6,22.31-.41,26,1,5.58,2.13,12.64,4.83,16,12,2.56,5.46,3.14,13.87-1,17-3.34,2.53-8.43.61-18-3-9.25-3.49-9.78-5.26-19-9C1681.22,1110.63,1676.58,1110.87,1676,1108Z"
              transform="translate(-193.5 -382.38)"/>
        <path class="cls-15"
              d="M1725,1091c-.83-4.44,4.73-9.09,8-11,7.4-4.32,15.46-1.79,18-1,8.78,2.75,19.71,11.05,19,21-.3,4.21-2.75,9.69-7,11-4.5,1.39-7.22-3.07-18-9C1732.41,1095.07,1725.84,1095.51,1725,1091Z"
              transform="translate(-193.5 -382.38)"/>
        <path class="cls-15"
              d="M1770,1075c1.83-7.14,15.66-8.48,21-9,7.5-.73,14.29-1.38,18,3,4.94,5.84,2.09,17.85-5,23-4.19,3-8.94,3-11,3a23.34,23.34,0,0,1-15-6C1775.92,1087.22,1768.5,1080.85,1770,1075Z"
              transform="translate(-193.5 -382.38)"/>
        <path class="cls-15"
              d="M1784,1118c3,2.94,7.1,7,12,12,8.12,8.21,12,12.37,15,19,.88,2,3.51,7.88,2,9s-6.32-3.27-16-12c-10.3-9.28-12-11.83-13-15A22.87,22.87,0,0,1,1784,1118Z"
              transform="translate(-193.5 -382.38)"/>
        <path class="cls-15"
              d="M1767,1130c23.39,16.41,40.07,29.58,45,35a14.94,14.94,0,0,1,4,8c0,.3.77,6.26-2,8-3.14,2-9.13-2.51-15-7-4-3.08-5.78-4.9-20-20-6.08-6.46-9.33-10-11-16A27.82,27.82,0,0,1,1767,1130Z"
              transform="translate(-193.5 -382.38)"/>
        <path class="cls-15"
              d="M1741,1140c1.59-2.29,14,3,23,9,12.82,8.54,17.91,17.91,19,20,3.12,6,6.39,15.39,4,17s-9.27-4.84-17-12c-2.28-2.11-6.23-5.89-16-17C1740.54,1141.69,1740.67,1140.48,1741,1140Z"
              transform="translate(-193.5 -382.38)"/>
        <path class="cls-15"
              d="M1661,1142c-3-2-12.39,7-31,25-11.15,10.79-13.9,14.18-16,17a84.9,84.9,0,0,0-13,24c-4.75,14.06-5.3,29.43-3,30,1.69.42,3.9-7.37,11-21,7.41-14.23,12.77-24.5,22-34,13.52-13.91,23.75-14.2,29-28C1661.63,1150.72,1663.39,1143.55,1661,1142Z"
              transform="translate(-193.5 -382.38)"/>
        <path class="cls-15"
              d="M1228,1334c3.8-.08,5.75,5.68,14,7,5.68.91,7.6-1.37,10,0,4.62,2.64,2.93,14.19-2,37-5.75,26.61-9.67,39.64-11,44-4.53,14.81-8.63,25.74-18,36-7.12,7.8-10.06,7.3-11,7-3.64-1.16-5.12-8.3-5-27a322.56,322.56,0,0,1,5-56C1213.37,1364.43,1219.36,1334.19,1228,1334Z"
              transform="translate(-193.5 -382.38)"/>
        <path class="cls-16"
              d="M1300,1126c8.49-1.66,11.27,10.93,28,17,21,7.62,42.9-2.67,50-6,10.65-5,10.27-7.58,40-31,15.41-12.14,23.12-18.21,30-22,8.45-4.65,26.47-14.32,51-15,10.48-.29,22.43-.63,35,6,11.22,5.92,16.88,14.2,27,29,15,21.93,11.67,27.09,25,42,8.75,9.79,17.63,15.88,16,19-1.31,2.5-7.34-.81-17,1-9.9,1.85-20.4,8.48-26,18-4.81,8.16-3.35,13.91-7,15s-7.9-4.32-19-17c-19-21.69-18.68-19.16-23-26-10.26-16.25-11.19-29.34-15-29-3.54.32-5.35,11.86-6,16-2.23,14.2.81,23.47-1,24s-6.94-8.94-10-18-2.91-14-4-14c-1.85,0-5.91,14.49-3,30,1.82,9.7,5.63,15.9,4,17-2.66,1.79-14.13-13.77-17-12s4.46,17.81,9,28c8.4,18.85,12.77,28.41,21,35,10.21,8.18,15,4.95,19,11,7.59,11.4-3.69,31.27-21,61-13.79,23.69-20.69,35.53-32,45-20.4,17.08-42.18,21.79-53,24-13.06,2.67-28.36,5.79-46,1-36.54-9.93-56.42-46.61-55-48,.82-.8,8.85,10.14,27,19,19.88,9.7,40.33,11.25,41,9,.53-1.76-11.5-4.65-30-16-11.73-7.2-24.24-14.88-35-29-8.2-10.76-11.72-20.46-17-35-3.36-9.25-7.91-22-10-39-2.64-21.47.17-37.37,4-58C1285.2,1150,1289.25,1128.1,1300,1126Z"
              transform="translate(-193.5 -382.38)"/>
        <path class="cls-16"
              d="M1492,1340a172.52,172.52,0,0,1-39,48c-13.85,11.82-28.13,24-50,29-17.35,4-31.73,1.63-32,4s12.88,7.12,27,8c25.34,1.58,46.31-10,55-15,16.5-9.4,15.26-13.54,29-19,20.45-8.12,37.86-4.79,38-7,.12-1.89-12.53-6.21-27-5-18.67,1.56-30.94,11.56-32,10s13.16-10.48,24-23c25.09-29,24.95-69.51,23-70C1506.73,1299.68,1505,1316.35,1492,1340Z"
              transform="translate(-193.5 -382.38)"/>
        <path class="cls-16"
              d="M1239,1211c-1.72.15,4.81,19.1-5,36a100.59,100.59,0,0,0-10,22c-1,3.37-1.49,5.5-1,8,1.72,8.84,13.75,15.84,19,13,3.76-2,3.54-8.84,3-19C1244.49,1261.52,1241.78,1210.76,1239,1211Z"
              transform="translate(-193.5 -382.38)"/>
        <path class="cls-25"
              d="M1213,1480c.08,1.67,9.58.34,20,6,6.06,3.3,9.43,7.32,15,14,11.89,14.25,11.71,21.14,20,25,4.67,2.18,8.84,1.81,17,1,17-1.7,22.08-7.11,37-11,21.64-5.64,36-.78,37-5,.82-3.37-7.83-8.32-16-13-16.19-9.27-28.4-11.84-28-14,.2-1.06,3.25-1.24,22-3,7.24-.68,10.86-1,11-2,.21-1.44-5.62-3.23-19-8-19.76-7-21.07-8.13-21-9,.22-2.71,14-4.52,27-4,23.82,1,39.77,9.58,40,9s-22.85-11.89-53-18c-10.73-2.17-19.24-3.07-29-1-6.09,1.29-10.81,3.55-20,8-18.83,9.12-19.22,12.32-31,17C1226.09,1478.33,1212.9,1478,1213,1480Z"
              transform="translate(-193.5 -382.38)"/>
        <path class="cls-25"
              d="M1436,1458h0a74.08,74.08,0,0,1,37-2c5.82,1.19,21.52,4.4,34,17,14.24,14.37,12.1,28.65,25,33,1.71.58,7.14.39,18,0,17.31-.61,21.74-2.25,25-4,3.5-1.89,9.48-5.11,11-11,2.39-9.26-8.2-17.57-6-20,1.72-1.9,9.85,1.36,16,7,8.75,8,9.66,17.33,11,17,2.06-.51.26-22.61-9-37a70.84,70.84,0,0,0-5.2-6.92c-5.08-6-11.87-11.87-12.8-11.08-1.56,1.32,14.7,20.23,12,23-1.47,1.5-7.26-3.08-19-9-16-8-29.62-11.86-30-11s10.6,3.9,20,14c8.33,9,14.16,22,11,25-1.45,1.37-4.67.53-33-15-17.49-9.58-19.61-11.1-25-13-8.58-3-20.71-5.35-37-3"
              transform="translate(-193.5 -382.38)"/>
    </g>
</svg>