<svg xmlns="http://www.w3.org/2000/svg" viewBox="0 0 720 720">
    <defs>
        <style>.cls-1{fill:#fff;}.cls-2{fill:#89602e;}.cls-3{fill:#e4e7ed;}.cls-4{fill:#11113f;}</style>
    </defs>
    <title>mustaches</title>
    <g id="Слой_2" data-name="Слой 2">
        <g id="Layer_1" data-name="Layer 1">
            <circle class="cls-1" cx="360" cy="360" r="360"/>
            <polygon class="cls-2"
                     points="136.55 498 184.55 504 245.55 465 309.55 446 359.55 488 394.55 455 433.55 449 512.55 490 537.55 504 588.55 493 546.55 554 497.55 590 431.55 590 381.55 557 359.55 526 342.55 551 293.55 583 240.55 590 183.55 568 136.55 498"/>
            <circle class="cls-3" cx="445.55" cy="260.01" r="70"/>
            <path class="cls-4"
                  d="M531.35,444.31a8.45,8.45,0,0,0-.5-1.7,8,8,0,0,0-.8-1.6,10.7,10.7,0,0,0-2.6-2.6,11.94,11.94,0,0,0-1.6-.8,10.93,10.93,0,0,0-1.7-.5,11.48,11.48,0,0,0-3.7,0,8.45,8.45,0,0,0-1.7.5,8,8,0,0,0-1.6.8,7.55,7.55,0,0,0-1.4,1.1,17.42,17.42,0,0,0-1.2,1.4,11.94,11.94,0,0,0-.8,1.6,10.93,10.93,0,0,0-.5,1.7,5.44,5.44,0,0,0,0,1.8,6,6,0,0,0,0,1.9,8.45,8.45,0,0,0,.5,1.7,9,9,0,0,0,3.5,4.2,11.94,11.94,0,0,0,1.6.8,10.93,10.93,0,0,0,1.7.5,11.48,11.48,0,0,0,3.7,0,8.45,8.45,0,0,0,1.7-.5,8,8,0,0,0,1.6-.8,17.4,17.4,0,0,0,1.4-1.2,7.55,7.55,0,0,0,1.1-1.4,11.94,11.94,0,0,0,.8-1.6,9.43,9.43,0,0,0,.5-5.3Z"/>
            <path class="cls-4"
                  d="M596.85,485.91a9.24,9.24,0,0,0-10.1-2.1s-29.9,12-50,12c-5,0-15.3-8.4-25.3-16.5-21.7-17.6-51.4-41.9-92.5-41.9h-2.2a67.12,67.12,0,0,0-55,31.3l-1.8,2.9-1.8-2.9a67,67,0,0,0-55-31.3H301c-41.1,0-70.8,24-92.5,41.9-10,8.1-20.3,16.5-25.3,16.5-20.1,0-49.7-12-50-12a9.34,9.34,0,0,0-12,5.6,8.83,8.83,0,0,0,0,6.4c1.3,3.1,31,75.5,95.1,97.7a115.9,115.9,0,0,0,37.8,6,138.48,138.48,0,0,0,41.9-6.6,106.61,106.61,0,0,0,63.1-49.7l.8-1.6.8,1.6a106.61,106.61,0,0,0,63.1,49.7,135.44,135.44,0,0,0,41.9,6.6,115.48,115.48,0,0,0,37.8-6c64.1-22.2,93.8-94.7,95.1-97.7A8.51,8.51,0,0,0,596.85,485.91Zm-250.1,40.3c-1.2,2.8-2.5,5.6-4,8.5-21.2,40.2-81,55-120.3,41.4-36.7-12.8-61.3-45.9-73.8-67.4a137.25,137.25,0,0,0,34.8,6c12,0,22.9-9.1,37.1-20.7,20.6-16.7,46.2-37.5,80.7-37.5h1.6a48.31,48.31,0,0,1,39.8,22.7,51.15,51.15,0,0,1,4.1,47ZM497.85,576a95.48,95.48,0,0,1-31.4,4.9c-34.6,0-72.8-15.9-88.9-46.3a81.33,81.33,0,0,1-4-8.5,50.73,50.73,0,0,1,4.2-47.2,48.55,48.55,0,0,1,39.8-22.7h1.6c34.4,0,59.9,20.8,80.7,37.5,14.2,11.6,25.4,20.7,37.1,20.7a137.25,137.25,0,0,0,34.8-6C559,530.11,534.45,563.31,497.85,576Z"/>
            <path class="cls-4"
                  d="M455.85,543c-20.7-2.6-38.4-12.8-45.3-25.8-1-1.9-1.9-3.7-2.6-5.4a9.32,9.32,0,0,0-17.2,7.2q1.5,3.45,3.3,6.9c9.8,18.6,32.6,32.3,59.6,35.9h1.2a9.3,9.3,0,0,0,9.4-9.3,9.41,9.41,0,0,0-8.3-9.4Z"/>
            <path class="cls-4"
                  d="M495.15,544.81a17.42,17.42,0,0,0-1.4-1.2,11.94,11.94,0,0,0-1.6-.8,10.93,10.93,0,0,0-1.7-.5,11.48,11.48,0,0,0-3.7,0,8.45,8.45,0,0,0-1.7.5,8,8,0,0,0-1.6.8,17.4,17.4,0,0,0-1.4,1.2,7.55,7.55,0,0,0-1.1,1.4,11.94,11.94,0,0,0-.8,1.6,10.93,10.93,0,0,0-.5,1.7,11.48,11.48,0,0,0,0,3.7,8.45,8.45,0,0,0,.5,1.7,8,8,0,0,0,.8,1.6,7.47,7.47,0,0,0,2.5,2.5,11.94,11.94,0,0,0,1.6.8,10.93,10.93,0,0,0,1.7.5,11.48,11.48,0,0,0,3.7,0,8.45,8.45,0,0,0,1.7-.5,8,8,0,0,0,1.6-.8,9.36,9.36,0,0,0,2.6-13c-.4-.3-.7-.8-1.2-1.2Z"/>
            <path class="cls-4"
                  d="M324.45,506.71a9.41,9.41,0,0,0-12,5,44.33,44.33,0,0,1-2.6,5.4c-6.9,13.1-24.7,23.2-45.3,25.8a9.33,9.33,0,0,0,1.2,18.6H267c26.9-3.4,49.8-17.1,59.6-35.9,1.3-2.3,2.3-4.7,3.3-6.9A9.32,9.32,0,0,0,324.45,506.71Z"/>
            <path class="cls-4"
                  d="M240.85,549.41a8.45,8.45,0,0,0-.5-1.7,8,8,0,0,0-.8-1.6,5.26,5.26,0,0,0-1.2-1.4,7.89,7.89,0,0,0-3.1-2,10.93,10.93,0,0,0-1.7-.5,11.48,11.48,0,0,0-3.7,0,8.45,8.45,0,0,0-1.7.5,8,8,0,0,0-1.6.8,17.4,17.4,0,0,0-1.4,1.2,7.55,7.55,0,0,0-1.1,1.4,11.94,11.94,0,0,0-.8,1.6,10.93,10.93,0,0,0-.5,1.7,6,6,0,0,0,0,1.9,5.44,5.44,0,0,0,0,1.8,8.45,8.45,0,0,0,.5,1.7,8,8,0,0,0,.8,1.6,7.47,7.47,0,0,0,2.5,2.5,11.94,11.94,0,0,0,1.6.8,10.93,10.93,0,0,0,1.7.5,6,6,0,0,0,1.9,0,9.24,9.24,0,0,0,6.6-2.8,17.41,17.41,0,0,0,1.2-1.4,11.94,11.94,0,0,0,.8-1.6,10.93,10.93,0,0,0,.5-1.7,5.44,5.44,0,0,0,0-1.8Z"/>
            <path class="cls-4"
                  d="M531.55,257.91a82.66,82.66,0,1,0-18.7,52.4V408a9.35,9.35,0,0,0,18.7.1h0V257.91Zm-82.5,63.9a63.8,63.8,0,1,1,63.8-63.8h0A63.85,63.85,0,0,1,449.05,321.81Z"/>
        </g>
    </g>
</svg>