<svg xmlns="http://www.w3.org/2000/svg" viewBox="0 0 613.96 613.96">
    <defs>
        <style>
            .cls-1{fill:#fff;}.cls-2{fill:#d67812;}.cls-3{fill:#7f5119;}.cls-4{fill:#efe6a5;}.cls-5{fill:#ceaa52;}.cls-6{fill:#3db774;}.cls-7{fill:#11113f;}
        </style>
    </defs>
    <title>networking-1</title>
    <g id="Слой_2" data-name="Слой 2">
        <g id="Слой_1-2" data-name="Слой 1">
            <circle class="cls-1" cx="306.98" cy="306.98" r="306.98"/>
            <path class="cls-2" d="M369.87,330.63l14-4,20,2,11,6v14c0,2-19.4-2.7-19.4-2.7l-25.6,12.7Z"/>
            <path class="cls-3" d="M189.87,144.63l14-4,20,2,11,6v14c0,2-19.4-2.7-19.4-2.7l-25.6,12.7Z"/>
            <polygon class="cls-4"
                     points="371.87 362.63 371.87 383.63 378.87 396.63 392.87 403.63 408.87 397.63 416.87 378.63 416.87 362.63 401.87 348.63 371.87 362.63"/>
            <polygon class="cls-4"
                     points="189.87 172.63 189.87 193.63 196.87 206.63 210.87 213.63 226.87 207.63 234.87 188.63 234.87 172.63 219.87 158.63 189.87 172.63"/>
            <polygon class="cls-5"
                     points="374.87 421.63 389.87 439.63 408.87 421.63 432.87 425.63 453.87 443.63 457.87 466.63 329.87 466.63 329.87 444.63 350.87 421.63 374.87 421.63"/>
            <polygon class="cls-6"
                     points="192.87 232.63 210.87 249.63 229.87 232.63 246.87 232.63 267.87 249.63 275.87 274.63 146.87 277.63 152.87 257.63 165.87 239.63 192.87 232.63"/>
            <path class="cls-7"
                  d="M236.17,140.13a23.6,23.6,0,0,0-17.3-7.5h-15.7a23.79,23.79,0,0,0-23.8,23.8h0V158l.7,10.7,1.4,24.9a29.38,29.38,0,0,0,58.6,0L242,165l.5-7.1A24.44,24.44,0,0,0,236.17,140.13Zm-43.3,17a10.22,10.22,0,0,1,9.6-10.9h11.7l-1.9,5.2c-1,1.4-5.8,7.2-18.7,9.3Zm33.9,35.6a15.78,15.78,0,0,1-31.5,0l-1.2-18.7a47.25,47.25,0,0,0,23.3-9.1,25.43,25.43,0,0,0,2.8,1.6,41.18,41.18,0,0,0,8.3,3Zm-.7-37.9-.7-.4,1.6-4.3a10.27,10.27,0,0,1,2.1,5.8A18.15,18.15,0,0,1,226.07,154.83Z"/>
            <path class="cls-7"
                  d="M282.37,275.53l-2.9-14.3h0a44,44,0,0,0-43.3-36.1h-7.5a6.93,6.93,0,0,0-4.7,2L211.07,240,198,227a6.74,6.74,0,0,0-4.7-2h-7.9a44,44,0,0,0-43.3,36.1l-2.7,14.4a6.74,6.74,0,0,0,5.3,8h130.8a6.81,6.81,0,0,0,6.8-6.8,1.67,1.67,0,0,0,.1-1.2Zm-128-5.6,1.2-6.4a30.35,30.35,0,0,1,29.9-25h5l15.7,15.7a6.88,6.88,0,0,0,9.6,0h0l15.7-15.6h5a30.35,30.35,0,0,1,29.9,25l1.2,6.4Z"/>
            <path class="cls-7"
                  d="M417.67,329.73a23.82,23.82,0,0,0-17.4-7.5h-15.7a23.86,23.86,0,0,0-23.8,23.8v1.6l.8,10.5,1.6,25a29.38,29.38,0,0,0,58.6,0l1.9-28.5.5-7.1A25.16,25.16,0,0,0,417.67,329.73Zm-43.4,17a10.22,10.22,0,0,1,9.6-10.9h11.5l-1.9,5.2c-1,1.4-5.8,7.2-18.7,9.3Zm33.9,35.7a15.78,15.78,0,0,1-31.5,0l-1.2-18.4a48.08,48.08,0,0,0,23.3-9,25.43,25.43,0,0,0,2.8,1.6,41.18,41.18,0,0,0,8.3,3Zm-.6-37.9-.8-.3,1.6-4.3a10.27,10.27,0,0,1,2.1,5.8c-1-.4-2-.8-2.9-1.2Z"/>
            <path class="cls-7"
                  d="M463.77,465.13l-2.6-14.3h0a44,44,0,0,0-43.3-36.1h-7.7a6.93,6.93,0,0,0-4.7,2l-13.1,12.8-12.9-12.9a6.74,6.74,0,0,0-4.7-2h-7.9a44,44,0,0,0-43.3,36.1L321,465a6.77,6.77,0,0,0,5.2,7.9h130.9a6.81,6.81,0,0,0,6.8-6.8,3.4,3.4,0,0,0-.1-1Zm-128-5.6,1.2-6.4a30.35,30.35,0,0,1,29.9-25h5l15.7,15.7a6.88,6.88,0,0,0,9.6,0h0L413,428h5a30.35,30.35,0,0,1,29.9,25h0l1.2,6.4Z"/>
            <path class="cls-7"
                  d="M432.77,266.23a144.59,144.59,0,0,0-51.3-71.9,141.93,141.93,0,0,0-76.4-28l4-4a6.84,6.84,0,0,0-1.4-9.5,6.76,6.76,0,0,0-7.9-.1l-15.9,15.9a6.88,6.88,0,0,0,0,9.6h0l15.8,15.8a6.8,6.8,0,0,0,10.2-9l-.6-.6-4.7-4.7a128.79,128.79,0,0,1,115.2,90.5,6.74,6.74,0,0,0,13-3.6.3.3,0,0,0,0-.4Z"/>
            <path class="cls-7"
                  d="M305.17,439.63l-15.8-15.8a6.86,6.86,0,1,0-9.8,9.6h0l5,5a129.75,129.75,0,0,1-117.9-129.1,6.8,6.8,0,1,0-13.6,0h0a143.35,143.35,0,0,0,130.4,142.6l-3.6,3.6a6.8,6.8,0,0,0,.6,9.6,6.73,6.73,0,0,0,9,0h0l15.8-15.8A7.56,7.56,0,0,0,305.17,439.63Z"/>
        </g>
    </g>
</svg>