<svg xmlns="http://www.w3.org/2000/svg" viewBox="0 0 614.2 614.2">
    <defs>
        <style>
            .cls-1{fill:#fff;}.cls-2{fill:#09c6a2;}.cls-3{fill:#ffd41d;}.cls-4{fill:#ff991f;}.cls-5{fill:#00f5c5;}.cls-6{fill:#11113f;}
        </style>
    </defs>
    <title>networking</title>
    <g id="Слой_2" data-name="Слой 2">
        <g id="Слой_1-2" data-name="Слой 1">
            <circle class="cls-1" cx="307.1" cy="307.1" r="307.1"/>
            <circle class="cls-2" cx="307.19" cy="194.9" r="123.22"/>
            <circle class="cls-3" cx="304.75" cy="194.9" r="36.57"/>
            <path class="cls-4"
                  d="M307.19,231.47h0c-37.66,0-69,25.67-76.67,60a123.29,123.29,0,0,0,153.34,0C376.22,257.14,344.77,231.47,307.19,231.47Z"/>
            <circle class="cls-5" cx="147.56" cy="454.68" r="29.69"/>
            <circle class="cls-5" cx="307.19" cy="454.68" r="29.69"/>
            <circle class="cls-5" cx="466.81" cy="454.68" r="29.69"/>
            <path class="cls-6"
                  d="M475.2,417.6V398.82a31.43,31.43,0,0,0-31.37-31.37H315.57v-51.5c0-4.61-3.77,2.18-8.39,2.18s-8.39-2-8.39,2.68v46.64H170.46a31.43,31.43,0,0,0-31.37,31.37V417.6a38.09,38.09,0,1,0,16.78,0V398.82a14.61,14.61,0,0,1,14.6-14.6H298.71V417.6a38.09,38.09,0,1,0,16.78,0V384.22H443.75a14.61,14.61,0,0,1,14.6,14.6V417.6a38,38,0,1,0,16.86,0ZM168.78,454.68a21.26,21.26,0,1,1-21.22-21.31h0A21.32,21.32,0,0,1,168.78,454.68Zm159.63,0a21.31,21.31,0,1,1-21.31-21.31h0A21.34,21.34,0,0,1,328.41,454.68ZM466.81,476a21.31,21.31,0,1,1,21.31-21.31h0A21.39,21.39,0,0,1,466.81,476Z"/>
            <path class="cls-6"
                  d="M438.8,194.9c0-72.56-59.05-131.61-131.61-131.61S175.49,122.34,175.49,194.9a131.54,131.54,0,0,0,49.07,102.42,4.2,4.2,0,0,0,.67.59A132.85,132.85,0,0,0,246,311.58v-.08a131.44,131.44,0,0,0,134.46-7.3h0c2.94-1.93,5.7-4,8.47-6.21.25-.17.42-.42.67-.59A131.66,131.66,0,0,0,438.8,194.9Zm-246.53,0c0-63.33,51.59-114.83,114.92-114.83A114.83,114.83,0,0,1,388,276.52,85,85,0,0,0,362,242a88.07,88.07,0,0,0-26.51-14.26A44.93,44.93,0,1,0,272,225.6a33.31,33.31,0,0,0,3.52,3.36A87.18,87.18,0,0,0,252.41,242a85,85,0,0,0-26,34.48,114.41,114.41,0,0,1-34.14-81.62Zm112.49,28.18a28.18,28.18,0,1,1,28.18-28.18h0A28.19,28.19,0,0,1,304.75,223.08Zm-64.67,65c8.81-28.27,36.15-48.23,67.11-48.23s58.3,20,67.11,48.23A114.59,114.59,0,0,1,240.08,288.09Z"/>
            <circle class="cls-6" cx="307.19" cy="338.92" r="8.39"/>
        </g>
    </g>
</svg>