<svg xmlns="http://www.w3.org/2000/svg" viewBox="0 0 614.2 614.2">
    <defs>
        <style>
            .cls-1{fill:#fff;}.cls-2{fill:#f24c4c;}.cls-3{fill:#ed7abf;}.cls-4{fill:#efe348;}.cls-5{fill:#f28446;}.cls-6{fill:#6bf445;}.cls-7{fill:#50e2e2;}.cls-8{fill:#11113f;}
        </style>
    </defs>
    <title>networking-2</title>
    <g id="Слой_2" data-name="Слой 2">
        <g id="Слой_1-2" data-name="Слой 1">
            <circle class="cls-1" cx="307.1" cy="307.1" r="307.1"/>
            <circle class="cls-2" cx="176.46" cy="224.66" r="67.23"/>
            <circle class="cls-3" cx="303.84" cy="459.08" r="66.34"/>
            <circle class="cls-4" cx="431.22" cy="224.66" r="69"/>
            <polygon class="cls-5"
                     points="428.57 203.43 455.11 219.35 444.49 241.47 479.88 275.96 433.88 297.19 387.88 277.73 420.61 244.12 408.22 222.89 428.57 203.43"/>
            <polygon class="cls-6"
                     points="284.38 452 305.61 434.31 326.84 457.31 318.88 475.88 353.38 508.61 309.15 528.96 258.73 510.38 289.69 475.88 284.38 452"/>
            <polygon class="cls-7"
                     points="135.77 275.08 160.54 250.31 157 233.5 170.27 203.43 186.19 206.08 197.69 220.24 192.38 245 224.23 275.08 180 297.19 135.77 275.08"/>
            <path class="cls-8"
                  d="M306.05,378.84a78.22,78.22,0,0,0-49.18,138.88,9.37,9.37,0,0,0,1.06.88,78.22,78.22,0,0,0,96.16,0,9.37,9.37,0,0,0,1.06-.88,78.2,78.2,0,0,0-49.09-138.88Zm0,140.3a62,62,0,0,1-34.23-10.35,37.12,37.12,0,0,1,68.38,0A60.82,60.82,0,0,1,306.05,519.14ZM291.9,457a12.74,12.74,0,1,1,12.74,12.74h0A12.74,12.74,0,0,1,291.9,457Zm61,40.69a53,53,0,0,0-25.21-23.35,28.8,28.8,0,1,0-45.29,1,52.88,52.88,0,0,0-23.26,22.47,62.14,62.14,0,1,1,93.77-.09Z"/>
            <path class="cls-8"
                  d="M178.94,146.82A78.22,78.22,0,0,0,129.75,285.7a9.37,9.37,0,0,0,1.06.88,78.22,78.22,0,0,0,96.16,0,9.37,9.37,0,0,0,1.06-.88,78.2,78.2,0,0,0-49.09-138.88Zm0,140.3a62,62,0,0,1-34.23-10.35,37.12,37.12,0,0,1,68.38,0,62,62,0,0,1-34.23,10.53v-.18Zm-14.06-62.19a12.74,12.74,0,1,1,12.74,12.74,12.58,12.58,0,0,1-12.74-12.74Zm60.95,40.78a53,53,0,0,0-25.21-23.35,28.86,28.86,0,1,0-45.29,1,52.88,52.88,0,0,0-23.26,22.47,62.14,62.14,0,1,1,93.77-.09Z"/>
            <path class="cls-8"
                  d="M433.17,146.82A78.22,78.22,0,0,0,384.25,285.7a9.37,9.37,0,0,0,1.06.88,78.22,78.22,0,0,0,96.16,0,9.37,9.37,0,0,0,1.06-.88,78.2,78.2,0,0,0-49.36-138.88Zm0,140.3a62,62,0,0,1-34.23-10.35,37.12,37.12,0,0,1,68.38,0,62,62,0,0,1-34.23,10.53v-.18ZM419,224.92a12.74,12.74,0,1,1,12.74,12.74A12.74,12.74,0,0,1,419,224.92ZM480,265.7a53,53,0,0,0-25.21-23.35,28.86,28.86,0,1,0-45.29,1,52.88,52.88,0,0,0-23.26,22.47A62.14,62.14,0,1,1,480,265.7Z"/>
            <path class="cls-8"
                  d="M213.79,420.68h0a8,8,0,0,0-10.35,12.21h0a8,8,0,0,0,11.23-1.42A8,8,0,0,0,213.79,420.68Z"/>
            <path class="cls-8"
                  d="M198.13,404.58h0a8,8,0,0,0-11.32-.71,8.11,8.11,0,0,0-1,11.06h0a8,8,0,1,0,12.38-10.26Z"/>
            <path class="cls-8" d="M185.13,386.27h0a8,8,0,0,0-13.71,8.23h0a8,8,0,1,0,13.8-8.14Z"/>
            <path class="cls-8" d="M168.5,344.43a8.05,8.05,0,0,0-15.75,3.36h0a8,8,0,0,0,15.57-3.54Z"/>
            <path class="cls-8"
                  d="M175.22,366h0a8,8,0,0,0-11-2.74,7.86,7.86,0,0,0-3.63,8.76h0a8,8,0,0,0,15.66-3.45,8.5,8.5,0,0,0-1-2.48V366Z"/>
            <path class="cls-8"
                  d="M409.64,421.57a8,8,0,0,0-11.32-.88h0A8,8,0,0,0,398,432a8.13,8.13,0,0,0,10.79.88h0A8.09,8.09,0,0,0,409.64,421.57Z"/>
            <path class="cls-8"
                  d="M447.41,361.42A8,8,0,0,0,437,365.84h0a8,8,0,0,0,4.51,10.35,8,8,0,0,0,10.88-7.61,8,8,0,0,0-5-7.34Z"/>
            <path class="cls-8"
                  d="M425.3,403.61a8.1,8.1,0,0,0-11.32,1h0a8,8,0,0,0,1.15,11.32,8.59,8.59,0,0,0,5,1.86,8,8,0,0,0,8.14-7.87,8.29,8.29,0,0,0-2.92-6.28Z"/>
            <path class="cls-8"
                  d="M453.16,338.33a8,8,0,0,0-9.73,5.84.32.32,0,0,1-.09.27h0A8,8,0,0,0,459,348.06h0A8.05,8.05,0,0,0,453.16,338.33Z"/>
            <path class="cls-8" d="M438,383.35a7.94,7.94,0,0,0-11,2.74h0a8,8,0,1,0,14,8,8.12,8.12,0,0,0-2.83-10.88Z"/>
            <path class="cls-8" d="M455.19,314.62a8,8,0,0,0-8.49,7.52h0a8,8,0,0,0,7.61,8.4h.44a8,8,0,1,0,.44-15.92Z"/>
            <path class="cls-8"
                  d="M355.94,161.32h0a8,8,0,0,0-5.66,15c.27.09.44.18.71.27h0a8,8,0,0,0,5.66-15A6.09,6.09,0,0,0,355.94,161.32Z"/>
            <path class="cls-8" d="M331.35,155.48h0a8,8,0,1,0-3.1,15.66,2,2,0,0,0,.71.09h1.33a8,8,0,0,0,1.24-15.92Z"/>
            <path class="cls-8" d="M306.05,153.71h0a8,8,0,1,0,0,16.1h0a8,8,0,1,0,0-16.1Z"/>
            <path class="cls-8" d="M266,166.72a8,8,0,0,0-9.82-5.31h0a8,8,0,1,0,10.08,5.4H266Z"/>
            <path class="cls-8"
                  d="M289.86,162.56a8,8,0,0,0-9.2-6.63h0l1.15,8-1.15-8a8.06,8.06,0,0,0,1.24,16h1.15a8.06,8.06,0,0,0,6.9-9A.67.67,0,0,1,289.86,162.56Z"/>
            <path class="cls-8" d="M165.14,320.46a8.05,8.05,0,1,0-15.75,3.36h0A8,8,0,1,0,165,320.28Z"/>
        </g>
    </g>
</svg>