<svg xmlns="http://www.w3.org/2000/svg" viewBox="0 0 146.5 146.5">
    <defs>
        <style>
            .cls-1{fill:none;stroke:#00c5db;stroke-miterlimit:10;stroke-width:5px;}.cls-2{fill:#09c6a2;}.cls-3{fill:#ffd41d;}.cls-4{fill:#ff991f;}.cls-5{fill:#00f5c5;}.cls-6{fill:#11113f;}
        </style>
    </defs>
    <title>networking</title>
    <g id="Слой_2" data-name="Слой 2">
        <g id="Layer_1" data-name="Layer 1">
            <circle class="cls-1" cx="73.25" cy="73.25" r="70.75"/>
            <circle class="cls-2" cx="73.27" cy="55.41" r="26.42"/>
            <circle class="cls-3" cx="72.75" cy="55.41" r="7.84"/>
            <path class="cls-4"
                  d="M73.27,63.26h0A16.7,16.7,0,0,0,56.83,76.12a26.44,26.44,0,0,0,32.88,0A16.72,16.72,0,0,0,73.27,63.26Z"/>
            <circle class="cls-5" cx="39.04" cy="111.12" r="6.37"/>
            <circle class="cls-5" cx="73.27" cy="111.12" r="6.37"/>
            <circle class="cls-5" cx="107.5" cy="111.12" r="6.37"/>
            <path class="cls-6"
                  d="M109.3,103.17v-4a6.74,6.74,0,0,0-6.73-6.73H75.07v-11c0-1-.81.47-1.8.47s-1.8-.43-1.8.58v10H43.95a6.74,6.74,0,0,0-6.73,6.73v4a8.17,8.17,0,1,0,3.6,0v-4A3.13,3.13,0,0,1,43.95,96h27.5v7.16a8.17,8.17,0,1,0,3.6,0V96h27.5a3.13,3.13,0,0,1,3.13,3.13v4a8.16,8.16,0,1,0,3.62,0Zm-65.71,8A4.56,4.56,0,1,1,39,106.55h0A4.57,4.57,0,0,1,43.59,111.12Zm34.23,0a4.57,4.57,0,1,1-4.57-4.57h0A4.58,4.58,0,0,1,77.82,111.12Zm29.68,4.57a4.57,4.57,0,1,1,4.57-4.57h0A4.59,4.59,0,0,1,107.5,115.69Z"/>
            <path class="cls-6"
                  d="M101.49,55.41a28.23,28.23,0,1,0-45.94,22,.9.9,0,0,0,.14.13,28.49,28.49,0,0,0,4.46,2.93v0A28.18,28.18,0,0,0,89,78.85h0c.63-.41,1.22-.86,1.82-1.33.05,0,.09-.09.14-.13A28.23,28.23,0,0,0,101.49,55.41Zm-52.86,0a24.63,24.63,0,1,1,42,17.5A18.23,18.23,0,0,0,85,65.52a18.89,18.89,0,0,0-5.68-3.06A9.63,9.63,0,1,0,65.71,62a7.14,7.14,0,0,0,.76.72,18.69,18.69,0,0,0-4.95,2.81,18.23,18.23,0,0,0-5.58,7.39,24.53,24.53,0,0,1-7.32-17.5Zm24.12,6a6,6,0,1,1,6-6h0A6,6,0,0,1,72.75,61.46ZM58.88,75.4a15.18,15.18,0,0,1,28.78,0A24.57,24.57,0,0,1,58.88,75.4Z"/>
            <circle class="cls-6" cx="73.27" cy="86.3" r="1.8"/>
        </g>
    </g>
</svg>