<svg xmlns="http://www.w3.org/2000/svg" viewBox="0 0 673 673">
    <defs>
        <style>
            .cls-1{fill:#fff;}.cls-2{fill:#78767c;}.cls-3{fill:#525156;}.cls-4{fill:#99979e;}.cls-5{fill:#ebe7f2;}.cls-6{fill:#e5bd4e;}.cls-7{fill:#11113f;}
        </style>
    </defs>
    <title>online-shop</title>
    <g id="Слой_2" data-name="Слой 2">
        <g id="Слой_1-2" data-name="Слой 1">
            <circle class="cls-1" cx="336.5" cy="336.5" r="336.5"/>
            <polyline class="cls-2"
                      points="252.5 530.5 252.5 553.5 428.5 555.5 428.5 530.5 413.5 516.5 272.5 516.5 250.5 531.5"/>
            <polygon class="cls-3" points="291.5 460.5 272.5 513.5 410.5 516.5 387.5 457.5 291.5 460.5"/>
            <polygon class="cls-4"
                     points="115.5 449.5 120.5 191.5 552.5 191.5 561.5 206.5 561.5 449.5 541.5 457.5 115.5 449.5"/>
            <rect class="cls-5" x="115.5" y="223.5" width="450" height="186"/>
            <polygon class="cls-6" points="283.5 282.5 376.5 282.5 366.5 337.5 296.5 332.5 283.5 282.5"/>
            <path class="cls-7"
                  d="M535.3,174.7H144.9a39.39,39.39,0,0,0-39.3,39.1V428.3a39.37,39.37,0,0,0,39.3,39.3H277.7l-13.3,40A29.33,29.33,0,0,0,242.5,536v9.8H213.2a9.78,9.78,0,1,0-1.5,19.5H467.2a9.78,9.78,0,0,0,1.5-19.5H437.9V536A29.41,29.41,0,0,0,416,507.6l-13.5-40.1H535.3a39.37,39.37,0,0,0,39.3-39.3V213.7A39.37,39.37,0,0,0,535.3,174.7ZM408.5,526.3a9.8,9.8,0,0,1,9.8,9.7v9.8H262V536a9.71,9.71,0,0,1,9.7-9.7ZM285.3,506.8l13-39.1h83.9l13,39.1ZM555,428.6a19.67,19.67,0,0,1-19.7,19.7H144.9a19.67,19.67,0,0,1-19.7-19.7V419H496.4a9.78,9.78,0,0,0,0-19.5H125.2V213.7A19.67,19.67,0,0,1,144.9,194H535.3A19.7,19.7,0,0,1,555,213.5H185.5a9.78,9.78,0,0,0,0,19.5H555V428.6Z"/>
            <path class="cls-7"
                  d="M282.2,335.1h0a9.88,9.88,0,0,0,9,8.1l74.5,4.9h0a9.84,9.84,0,0,0,10.3-8.5l6-49.4,1.9-14.8h13a9.7,9.7,0,1,0,0-19.4H375.3a9.81,9.81,0,0,0-9.7,8.5l-2.9,23.3L357.6,328l-57.7-3.8-5.4-30.1h38.8a9.78,9.78,0,0,0,1.5-19.5H281.2a9.59,9.59,0,0,0-7.9,11.2v.1Z"/>
            <path class="cls-7" d="M306.6,357.2a9.7,9.7,0,1,0,9.7,9.7h0A9.71,9.71,0,0,0,306.6,357.2Z"/>
            <path class="cls-7" d="M356.4,357.2a9.7,9.7,0,1,0,9.7,9.7h0A9.65,9.65,0,0,0,356.4,357.2Z"/>
            <path class="cls-7" d="M155.6,213.7h-4.4a9.78,9.78,0,0,0,0,19.5h4.4a9.78,9.78,0,1,0,1.5-19.5Z"/>
            <path class="cls-7" d="M524.5,418.9h4.1a9.78,9.78,0,0,0,0-19.5h-4.1a9.78,9.78,0,0,0,0,19.5Z"/>
        </g>
    </g>
</svg>