<svg xmlns="http://www.w3.org/2000/svg" viewBox="0 0 100 100">
    <defs>
        <style>.cls-1{fill:#fff;}.cls-2{fill:#d8aa39;}.cls-3{fill:#8df790;}.cls-4{fill:#8c8cf9;}.cls-5{fill:#11113f;}
        </style>
    </defs>
    <title>panel</title>
    <g id="Слой_2" data-name="Слой 2">
        <g id="Layer_1" data-name="Layer 1">
            <circle class="cls-1" cx="50" cy="50" r="50"/>
            <rect class="cls-2" x="45.13" y="24.42" width="7.74" height="53.16"/>
            <polygon class="cls-3" points="22.54 46.89 27.08 43.08 59.74 43.08 59.74 51.31 27.45 51.67 22.54 46.89"/>
            <polygon class="cls-4" points="38.13 28.72 70.66 28.72 75.45 33.01 70.79 37.8 38.13 37.8 38.13 28.72"/>
            <path class="cls-5"
                  d="M75.26,31.06l-3.73-3.12a1.11,1.11,0,0,0-.75-.26H54V25.44a3,3,0,0,0-3-3H46.78a3,3,0,0,0-3,3v2.23H38a1.1,1.1,0,0,0-1.09,1.09h0v8.69A1.1,1.1,0,0,0,38,38.55h5.81v3.29H27a1.11,1.11,0,0,0-.75.26l-3.73,3.12A2.71,2.71,0,0,0,22.15,49a2.61,2.61,0,0,0,.32.32l3.73,3.12a1.11,1.11,0,0,0,.75.26H43.81V76.22H39.34a1.1,1.1,0,0,0-1,1.18,1.11,1.11,0,0,0,1,1H58.43a1.1,1.1,0,0,0,1-1.18,1.11,1.11,0,0,0-1-1H54l0-24c0-.6-.79-.58-1.39-.53s-.75-.17-.8.37l0,24.21H46V52.76H59.81a1.1,1.1,0,0,0,1.09-1.09h0V43a1.1,1.1,0,0,0-1.09-1.09H54V38.6H70.9a1.11,1.11,0,0,0,.75-.26l3.73-3.12a2.71,2.71,0,0,0,.32-3.82,2.61,2.61,0,0,0-.32-.32ZM46,25.4h0a.74.74,0,0,1,.75-.75h4.26a.74.74,0,0,1,.75.75v2.23H46V25.4ZM58.72,44v6.52H27.41L24,47.68A.51.51,0,0,1,23.9,47l0,0h0l.06-.06L27.41,44ZM46,41.84V38.51h5.8V41.8Zm27.83-8.35-3.4,2.87H39.17V29.85H70.48l3.4,2.87a.51.51,0,0,1,.11.72l0,0h0l-.06.06Z"/>
            <circle class="cls-5" cx="48.91" cy="32.96" r="1.09"/>
            <circle class="cls-5" cx="48.91" cy="47.3" r="1.09"/>
            <circle class="cls-5" cx="52.91" cy="55.98" r="1.09"/>
        </g>
    </g>
</svg>