<svg xmlns="http://www.w3.org/2000/svg" viewBox="0 0 673 673">
    <defs>
        <style>.cls-1{fill:#fff;}.cls-2{fill:#638493;}.cls-3{fill:#65767f;}.cls-4{fill:#918661;}.cls-5{fill:#11113f;}
        </style>
    </defs>
    <title>pants</title>
    <g id="Слой_2" data-name="Слой 2">
        <g id="Слой_1-2" data-name="Слой 1">
            <circle class="cls-1" cx="336.5" cy="336.5" r="336.5"/>
            <polyline class="cls-2"
                      points="189.5 175.8 483.5 175.8 484 273.6 485.5 566.8 372.5 564.8 349.5 303.8 336.5 298.8 319.5 313.8 301.5 566.8 189.5 566.8 189.5 130.8 481.5 134.8 488.5 264.8 189.5 175.8"/>
            <polygon class="cls-3" points="440.5 175.8 488.5 179.8 483.5 242.8 448.5 227.8 440.5 175.8"/>
            <polygon class="cls-3" points="189.5 175.8 234.5 175.8 234.5 212.8 189.5 247.8 189.5 175.8"/>
            <polygon class="cls-4"
                     points="221.5 399.8 234.5 382.8 242.5 356.8 254.5 368.8 281.5 378.8 260.5 402.8 229.5 411.8 221.5 399.8"/>
            <polygon class="cls-4"
                     points="481.5 289.8 454.5 292.8 444.5 310.8 444.5 324.8 432.5 349.8 432.5 365.8 451.5 376.8 463.5 402.8 473.5 417.8 488.5 422.8 481.5 289.8"/>
            <path class="cls-5"
                  d="M484.3,123.8H188.7a8.71,8.71,0,0,0-8.7,8.7h0V567.1a8.71,8.71,0,0,0,8.7,8.7h113a8.73,8.73,0,0,0,8.7-8.1l16.3-252.1a9.82,9.82,0,0,1,19.6,0l16.3,252.1a8.66,8.66,0,0,0,8.7,8.1h113a8.71,8.71,0,0,0,8.7-8.7h0V132.5a8.71,8.71,0,0,0-8.7-8.7ZM197.4,184.6h26.1V202a34.77,34.77,0,0,1-26.1,33.7ZM475.6,408.7c-.7-.4-1.4-.9-2.1-1.4a12.94,12.94,0,0,1-4.7-9.1l-.6-6.9a28.55,28.55,0,0,0-25.1-26,8.11,8.11,0,0,1-7.1-9,8.37,8.37,0,0,1,1.4-3.7l8.6-12.5a31.83,31.83,0,0,0,4.5-26.8,12.28,12.28,0,0,1,8.5-15.1,12.57,12.57,0,0,1,3.3-.5h13.2l.1,111Zm0-173A34.88,34.88,0,0,1,449.5,202V184.6h26.1Zm0-68.4H319.1a8.71,8.71,0,0,0,0,17.4h113v17.4a52.24,52.24,0,0,0,43.5,51.4v27.1H462.4a29.53,29.53,0,0,0-29.6,29.6,30.87,30.87,0,0,0,1.1,8,14.64,14.64,0,0,1-2,12.2l-8.6,12.4a25.51,25.51,0,0,0,17.9,39.8,11.19,11.19,0,0,1,9.8,10.2l.6,6.9a30.32,30.32,0,0,0,11,21.1,30.72,30.72,0,0,0,13.1,6.3v96.6H449.5a8.71,8.71,0,0,0-.7,17.4h26.8v17.4H379.4l-15.7-244a27.2,27.2,0,0,0-54.3,0L293.7,558.4H197.5v-305A52.33,52.33,0,0,0,241,202V184.6h26.1a8.71,8.71,0,0,0,0-17.4H197.6v-26H475.8v26.1Z"/>
            <path class="cls-5"
                  d="M301.6,174.3a7.49,7.49,0,0,0-.5-1.6,10.93,10.93,0,0,0-.8-1.5,10.25,10.25,0,0,0-2.4-2.4,10.93,10.93,0,0,0-1.5-.8,9.83,9.83,0,0,0-1.6-.5,9.71,9.71,0,0,0-3.4,0,7.49,7.49,0,0,0-1.6.5,10.93,10.93,0,0,0-1.5.8,9.38,9.38,0,0,0-3.2,3.9,8.9,8.9,0,0,0-.5,5.1,7.49,7.49,0,0,0,.5,1.6,10.93,10.93,0,0,0,.8,1.5,7.56,7.56,0,0,0,2.4,2.3,10.93,10.93,0,0,0,1.5.8,9.83,9.83,0,0,0,1.6.5,9.71,9.71,0,0,0,3.4,0,7.49,7.49,0,0,0,1.6-.5,9.38,9.38,0,0,0,3.9-3.2,10.93,10.93,0,0,0,.8-1.5,9.83,9.83,0,0,0,.5-1.6,9.71,9.71,0,0,0,0-3.4Z"/>
            <path class="cls-5"
                  d="M432,530.6a7.49,7.49,0,0,0-.5-1.6,10.93,10.93,0,0,0-.8-1.5,10.25,10.25,0,0,0-2.4-2.4,10.93,10.93,0,0,0-1.5-.8,9.83,9.83,0,0,0-1.6-.5,8.13,8.13,0,0,0-5.1.5,10.93,10.93,0,0,0-1.5.8,6.89,6.89,0,0,0-2.4,2.4,8.52,8.52,0,0,0-1.3,3.1,9.71,9.71,0,0,0,0,3.4,7.49,7.49,0,0,0,.5,1.6,10.93,10.93,0,0,0,.8,1.5,6.89,6.89,0,0,0,2.4,2.4,10.93,10.93,0,0,0,1.5.8,9.83,9.83,0,0,0,1.6.5,9.71,9.71,0,0,0,3.4,0,7.49,7.49,0,0,0,1.6-.5,10.93,10.93,0,0,0,1.5-.8,6.89,6.89,0,0,0,2.4-2.4,10.93,10.93,0,0,0,.8-1.5,8.5,8.5,0,0,0,.6-5Z"/>
            <path class="cls-5" d="M435.1,415.5l-3.9-7.8a8.7,8.7,0,0,0-15.6,7.7l3.9,7.8a8.7,8.7,0,0,0,15.6-7.7Z"/>
            <path class="cls-5"
                  d="M408,326.4a8.84,8.84,0,0,0-11.4-4.7h0l-11.3,4.8a8.71,8.71,0,0,0,6.4,16.2h0l.5-.2,11.3-4.8a8.56,8.56,0,0,0,4.5-11.3Z"/>
            <path class="cls-5"
                  d="M289,375.3a15,15,0,0,0-13-10.2,36.39,36.39,0,0,1-25.3-13.6,10.53,10.53,0,0,0-14.9-1.7,9.68,9.68,0,0,0-3.4,4.8l-8.2,23.2a8.7,8.7,0,0,1-2.2,3.4l-2.6,2.5a19.69,19.69,0,0,0-1,27.7,19.89,19.89,0,0,0,11.3,6,47.65,47.65,0,0,0,39.6-11.8l15.6-14.1A15.39,15.39,0,0,0,289,375.3Zm-31.4,17.2a30.29,30.29,0,0,1-25.3,7.5,2.27,2.27,0,0,1-1.9-2.4,2.67,2.67,0,0,1,.7-1.4l2.6-2.5a27.27,27.27,0,0,0,6.8-10.3l4.6-13a53.66,53.66,0,0,0,24.3,11.2Z"/>
            <path class="cls-5"
                  d="M252.1,448.1l-7.5-7.8a8.7,8.7,0,0,0-12.5,12.1l7.5,7.8a8.69,8.69,0,0,0,12.3-.2A8.88,8.88,0,0,0,252.1,448.1Z"/>
            <path class="cls-5"
                  d="M273,313.6a8.71,8.71,0,0,0-8.7,8.7h0v5.8a8.71,8.71,0,0,0,17.4,0v-5.8A8.71,8.71,0,0,0,273,313.6Z"/>
        </g>
    </g>
</svg>