<svg xmlns="http://www.w3.org/2000/svg" viewBox="0 0 614.2 614.2">
    <defs>
        <style>.cls-1{fill:#fff;}.cls-2{fill:#edff69;}.cls-3{fill:#696970;}.cls-4{fill:#11113f;}</style>
    </defs>
    <title>phone-24</title>
    <g id="Слой_2" data-name="Слой 2">
        <g id="Слой_1-2" data-name="Слой 1">
            <circle class="cls-1" cx="307.1" cy="307.1" r="307.1"/>
            <polyline class="cls-2"
                      points="240.03 240.1 285.29 197.27 336.21 186.76 387.93 207.77 419.45 245.76 425.11 287.79 409.75 333.05 389.55 351.63 344.29 375.88 278.82 324.96 232.75 256.27 240.03 240.1"/>
            <polygon class="cls-3"
                     points="201.23 147.97 219.82 145.54 256.19 181.1 264.27 212.62 240.03 240.1 237.6 256.27 252.15 290.21 325.7 371.03 344.29 375.88 372.57 358.1 396.01 358.91 428.34 379.92 443.7 404.17 443.7 421.14 409.75 456.7 384.7 460.74 324.89 441.35 248.92 375.88 193.15 303.14 164.06 231.21 160.82 188.38 180.22 162.51 201.23 147.97"/>
            <path class="cls-4"
                  d="M431.74,372.24h0a117.36,117.36,0,0,0-28.21-20.53,101.68,101.68,0,0,0-133-153.32,105.61,105.61,0,0,0-17.05-34.27c-12.37-17.94-25.22-26.67-39.44-26.67-16.81,0-30.31,12.28-42.43,23.2-2.1,1.94-4.12,3.72-6,5.33-7.27,6.14-11.72,16.49-12.85,29.9-1.62,19.88,4,46.15,15.92,74a377.06,377.06,0,0,0,60.62,94.8c60,70.72,124,102.4,161,102.4a38.6,38.6,0,0,0,25.22-7.68h0c2-1.78,4.2-3.56,6.55-5.42,13.66-11.15,29.1-23.84,29.74-42.43C452.67,398.67,446,385.82,431.74,372.24ZM270.17,218.52A86.73,86.73,0,0,1,391.41,342.58c-1.62,1.62-3.39,3.15-5.09,4.61h-.73c-13.9,0-23.76,8.32-34.11,17.38h0l-.65.57-3.48,3a4.52,4.52,0,0,1-3.15,1.05c-6.3,0-22.55-6.63-60.62-51.16a300.5,300.5,0,0,1-33.78-46.15c-6.55-12-8.57-20.93-5-23.92l2.83-2.34C257.08,237.68,266.46,229.92,270.17,218.52Zm-15.19.81L221.76,175.2c-5.09-7.11-10.59-14-16.41-20.61a21.87,21.87,0,0,1,8.81-1.94c8.73,0,17.86,6.79,27.08,20.21,12.28,17.86,17.13,30.79,15.11,39.76-1.86,7.92-9.29,14.06-18.67,21.74l-3,2.51h0c-9.62,8.41-9,22.63,1.86,42.43A311.25,311.25,0,0,0,271.87,328c33,38.47,55.85,56.41,72,56.41a19.33,19.33,0,0,0,13-4.77h0c3.8,2.34,9.62,6.06,15.52,10.1,5,3.48,50.35,42.59,53.83,45.5a7.51,7.51,0,1,0,9.7-11.48c-3.8-3.23-49.54-42.59-54.88-46.31-4.36-3.07-8.65-5.9-12.2-8.16a26.74,26.74,0,0,1,16.33-7c9.05,0,20.85,6.87,36,20.93C432,393.26,437.23,402.71,437,410.8c-.24,12-12.37,21.9-24.08,31.44-2.34,1.94-4.61,3.8-6.79,5.66a24.65,24.65,0,0,1-15.68,4.2c-32.41-.08-93-30.39-149.6-97.15a364.29,364.29,0,0,1-58.27-90.84c-11-25.62-16.25-49.38-14.71-66.92a28.52,28.52,0,0,1,7.6-19.64h0c2.1-1.78,4.12-3.72,6.38-5.66,3.39-3.07,7-6.3,10.67-9.21,6.14,6.71,46.07,61.34,51.4,68.7"/>
            <path class="cls-4"
                  d="M234.45,212.95A7.47,7.47,0,0,0,241,201.79a54.61,54.61,0,0,0-3.72-5.82,7.48,7.48,0,1,0-12.2,8.65,53.74,53.74,0,0,1,2.91,4.53A7.41,7.41,0,0,0,234.45,212.95Z"/>
            <path class="cls-4" d="M402.48,403.2a7.51,7.51,0,0,0-.16,10.59s.89.89,4.12,4.53a7.5,7.5,0,0,0,11.15-10h0"/>
            <path class="cls-4"
                  d="M348.57,290.61h24.81v12.2c0,2.75,3.39,4.2,6.71,4.2s6.71-1.45,6.71-4.2v-12.2h5c2.18,0,4.2-3.15,4.2-6.22s-1.45-6.3-4.2-6.3h-5V267.26c0-3-3.31-4.2-6.71-4.2s-6.71,1.29-6.71,4.2v10.83H361.26l19.88-39.76a3.46,3.46,0,0,0,.48-1.78c0-3.07-4.36-5-6.71-5a6.1,6.1,0,0,0-5.74,3.56l-24.57,48.25a5.3,5.3,0,0,0-.73,2.67,4.47,4.47,0,0,0,4.2,4.61Z"/>
            <path class="cls-4"
                  d="M295.23,307.1h36.85c2.26,0,4.2-2.91,4.2-6s-1.94-5.82-4.2-5.82H303.31V292.8c0-10.75,32.81-18,32.81-40.41,0-13.09-11.15-21-23.2-21s-22.23,7.27-22.23,19.07c0,5.58,2.59,7.27,6.14,7.27,4.45,0,7-2.51,7-5a8.47,8.47,0,0,1,7.6-9.13,5.41,5.41,0,0,1,1.62,0,8.92,8.92,0,0,1,9.62,8.32v1c0,14.63-33.3,23.36-33.3,40V303C289.33,305.41,292.89,307.1,295.23,307.1Z"/>
            <path class="cls-4" d="M377.34,482H227.5a7.6,7.6,0,1,0,0,15.19H377.26a7.6,7.6,0,0,0,.08-15.19Z"/>
        </g>
    </g>
</svg>