<svg xmlns="http://www.w3.org/2000/svg" viewBox="0 0 100 100">
    <defs>
        <style>
            .cls-1{fill:#fff;}.cls-2{fill:#afaaa3;}.cls-3{fill:#f2bd70;}.cls-4{fill:#2db2d6;}.cls-5{fill:#fff6b6;}.cls-6{fill:#11113f;}
        </style>
    </defs>
    <title>presentation</title>
    <g id="Слой_2" data-name="Слой 2">
        <g id="Layer_1" data-name="Layer 1">
            <circle class="cls-1" cx="50" cy="50" r="50"/>
            <polyline class="cls-2" points="52.16 32.24 53.11 29.92 56.93 27.88 59.92 29.65 61.41 32.56 52.16 32.56"/>
            <polygon class="cls-3"
                     points="42.08 33.73 42.08 57.43 43.03 59.2 70.41 59.2 71.63 57.57 71.63 33.73 69.86 32.65 43.72 32.65 42.08 33.73"/>
            <polygon class="cls-4"
                     points="25.06 44.36 27.38 41.77 31.73 40.41 51.07 40.41 50.39 42.45 47.12 44.36 36.5 44.36 36.09 69.14 28.46 69.14 28.33 57.7 25.06 56.88 24.24 53.75 25.06 44.36"/>
            <circle class="cls-5" cx="31.8" cy="36.66" r="2.93"/>
            <circle class="cls-6" cx="50.39" cy="47.61" r="1.39"/>
            <path class="cls-6"
                  d="M69.56,31.57H62.17a5.55,5.55,0,0,0-10.92,0H43.85A2.83,2.83,0,0,0,41,34.4v4.82h-5.3a4.51,4.51,0,1,0-6.78.67,8.38,8.38,0,0,0-5.26,7.71v7.08a4.23,4.23,0,0,0,3.83,4.15v9.25H25.1a1,1,0,0,0,0,1.91H70.52a1,1,0,1,0,.16-1.91H63.33L60.6,59.95h8.92a2.83,2.83,0,0,0,2.83-2.83V34.46a2.82,2.82,0,0,0-2.79-2.89Zm-12.87-2.7a3.62,3.62,0,0,1,3.54,2.68h-7a3.64,3.64,0,0,1,3.49-2.68ZM32,34a2.6,2.6,0,1,1-2.6,2.6A2.6,2.6,0,0,1,32,34Zm3.21,10.16V68.08h-2V57.38a1,1,0,0,0-1.91-.16V68.09h-2V47.82a1,1,0,0,0-1.91,0v9.07a2.31,2.31,0,0,1-1.95-2.27v-7a6.59,6.59,0,0,1,6.69-6.44H49.78a3.08,3.08,0,0,1-2.89,2.1H36.23a.94.94,0,0,0-.91.94Zm26.13,24H52.66L55.39,60H58.6Zm9.11-11a.94.94,0,0,1-.94.94H43.83a.94.94,0,0,1-.94-.94h0L43,44.53c0-.53-.29-.54-.82-.54S41,43.77,41,44.3L41,51.55h0v5.57a2.83,2.83,0,0,0,2.83,2.83h9.52l-2.7,8.13H37.18v-23h9.7a4.94,4.94,0,0,0,4.94-4.94h0a1,1,0,0,0-1-1h-8V34.36a.94.94,0,0,1,.94-.94H69.59a.94.94,0,0,1,.94.94h0Z"/>
            <path class="cls-6"
                  d="M83.86,42.82a1.38,1.38,0,0,0-2,0l-6,6L73.8,46.58a1.38,1.38,0,0,0-2,0l-7.69,7.69L62,52.13a1.38,1.38,0,0,0-2,0l-4,4a1.39,1.39,0,0,0,1.81,2.11h0l.15-.15,3-3,2.14,2.14a1.38,1.38,0,0,0,2,0l7.67-7.67,2.17,2.17a1.38,1.38,0,0,0,2,0l6.93-6.93a1.38,1.38,0,0,0,.07-2Z"/>
        </g>
    </g>
</svg>