<svg xmlns="http://www.w3.org/2000/svg" viewBox="0 0 671.26 671.26">
    <defs>
        <style>.cls-1{fill:#fff;}.cls-2{fill:#ef801d;}.cls-3{fill:#d8f21c;}.cls-4{fill:#19af75;}.cls-5{fill:#11113f;}
        </style>
    </defs>
    <title>progress</title>
    <g id="Слой_2" data-name="Слой 2">
        <g id="Слой_1-2" data-name="Слой 1">
            <circle class="cls-1" cx="335.63" cy="335.63" r="335.63"/>
            <polygon class="cls-2" points="169.07 408.26 221.07 410.26 230.07 501.26 158.07 498.26 169.07 408.26"/>
            <polygon class="cls-3" points="290.07 345.26 344.07 345.26 347.07 498.26 282.07 498.26 290.07 345.26"/>
            <polygon class="cls-4" points="412.07 235.26 465.07 235.26 470.07 498.26 402.07 498.26 412.07 235.26"/>
            <path class="cls-5"
                  d="M493.37,490.26h-16.8V245.66a20.68,20.68,0,0,0-20.7-20.7h-37.3a20.68,20.68,0,0,0-20.7,20.7h0v244.6h-43V356.56a20.74,20.74,0,0,0-20.4-20.7h-37.9a20.68,20.68,0,0,0-20.7,20.7h0v133.7h-42.8v-69.2a20.61,20.61,0,0,0-20.7-20.4h-37.5a20.64,20.64,0,0,0-20.5,20.4v69.2h-18a7.71,7.71,0,1,0-.6,15.4h357.7a7.7,7.7,0,0,0-.1-15.4Zm-275.6,0h-48v-69.2a5.34,5.34,0,0,1,5.3-5.3h37.6a5.34,5.34,0,0,1,5.3,5.3v69.2h-.2Zm121.7,0h-48V356.56a5.34,5.34,0,0,1,5.3-5.3h37.7a5.34,5.34,0,0,1,5.3,5.3h0Zm121.7,0h-48V245.66a5.34,5.34,0,0,1,5.3-5.3h37.6a5.34,5.34,0,0,1,5.3,5.3v244.6h-.2Z"/>
            <path class="cls-5"
                  d="M476.57,120.56a7.68,7.68,0,0,0-7-8.2h-48a7.71,7.71,0,0,0,0,15.4h28.9l-75.9,76-28.7-28.7a7.73,7.73,0,0,0-10.9,0l-138.2,138.1a7.73,7.73,0,0,0,.3,10.9,7.61,7.61,0,0,0,10.5,0l132.9-132.7,28.6,28.6a7.73,7.73,0,0,0,10.9,0l81.2-81.4v25.9a7.71,7.71,0,1,0,15.4.6v-.6h0v-43.9Z"/>
        </g>
    </g>
</svg>