<svg xmlns="http://www.w3.org/2000/svg" viewBox="0 0 614.2 614.2">
    <defs>
        <style>.cls-1{fill:#fff;}.cls-2{fill:#25ff15;}.cls-3{fill:#11113f;}</style>
    </defs>
    <title>puzzle1</title>
    <g id="Слой_2" data-name="Слой 2">
        <g id="Слой_1-2" data-name="Слой 1">
            <circle class="cls-1" cx="307.1" cy="307.1" r="307.1"/>
            <polygon class="cls-2"
                     points="164.76 165.13 249.8 165.13 249.8 218.74 280.48 256.82 314.13 260.52 347.77 248.32 362.56 208.76 362.56 165.13 449.44 165.13 449.44 437.98 442.05 449.07 164.76 449.07 164.76 364.78 197.3 353.69 228.72 307.1 210.98 264.96 164.76 251.28 164.76 165.13"/>
            <path class="cls-3"
                  d="M435,151.45H361.45a13.25,13.25,0,0,0-13.31,13.31h0v42.52a42.24,42.24,0,0,1-40.67,44c-23.29.74-43.26-17.38-44-40.67v-3.33h0V164.39a13.25,13.25,0,0,0-13.31-13.31H150V251.28a13.25,13.25,0,0,0,13.31,13.31H171a42.52,42.52,0,0,1,42.52,42.52h0A42.52,42.52,0,0,1,171,349.62h-7.76A13.25,13.25,0,0,0,150,362.93h0V463.12H448.33a13.25,13.25,0,0,0,13.31-13.31h0V151.45Zm0,183H363.67a13.28,13.28,0,0,0-12.57,14,13.52,13.52,0,0,0,12.57,12.57H435V436.5H176.23V375.87c37.71-2.59,66.55-35.12,64.33-72.83v-.37a68.48,68.48,0,0,0-64-64v-61h60.63v29.21a68.77,68.77,0,1,0,137.53,0V177.7H435Z"/>
        </g>
    </g>
</svg>