<svg xmlns="http://www.w3.org/2000/svg" viewBox="0 0 614.2 614.2">
    <defs>
        <style>
            .cls-1{fill:#fff;}.cls-2{fill:#5d2fd1;}.cls-3{fill:#ffd817;}.cls-4{fill:#25ff15;}.cls-5{fill:#ff17a7;}.cls-6{fill:#11113f;}
        </style>
    </defs>
    <title>puzzle4</title>
    <g id="Слой_2" data-name="Слой 2">
        <g id="Слой_1-2" data-name="Слой 1">
            <circle class="cls-1" cx="307.1" cy="307.1" r="307.1"/>
            <polyline class="cls-2"
                      points="307.1 168.97 349.49 168.97 356.78 149.43 376.98 136.18 400.49 146.12 410.43 168.97 448.84 168.97 448.84 309.05 409.1 309.05 405.13 344.15 383.6 362.7 354.79 348.79 349.49 313.02 307.1 313.02 307.1 267.99 307.1 168.97"/>
            <polygon class="cls-3"
                     points="165.37 210.36 165.37 169.96 209.74 169.96 209.74 146.12 235.57 127.57 263.39 142.81 263.39 165.33 307.1 168.97 307.1 210.36 334.26 216.32 349.49 237.45 339.56 260.7 307.1 267.99 307.1 313.02 165.37 313.02 165.37 271.3 134.9 262.03 124.96 234.27 142.84 213.01 165.37 210.36"/>
            <polyline class="cls-4"
                      points="307.1 313.02 352.8 313.02 352.8 338.19 371.35 360.71 393.87 356.74 407.11 336.87 407.11 313.02 448.84 313.02 448.84 454.76 308.43 454.76 307.76 413.7 332.27 403.04 342.87 380.25 330.95 361.38 307.1 352.1 307.1 313.02"/>
            <polygon class="cls-5"
                     points="165.37 313.02 307.1 313.02 307.1 352.1 330.95 364.69 339.56 386.87 332.27 403.04 307.76 413.7 308.43 454.76 165.37 454.76 165.37 414.36 196.49 406.41 210.4 383.89 196.49 355.41 165.37 352.1 165.37 313.02"/>
            <path class="cls-6"
                  d="M450.83,161.88H413.74a34.49,34.49,0,0,0-68.68,0h-74v-5.76a34.51,34.51,0,0,0-69,0v5.76H165.23a6.64,6.64,0,0,0-6.62,6.62h0v37h-5.76a34.47,34.47,0,1,0,0,68.95h5.76v78.42a6.64,6.64,0,0,0,6.62,6.62H179.8a23.25,23.25,0,0,1,0,46.5H165.23a6.64,6.64,0,0,0-6.62,6.62V454.1a6.64,6.64,0,0,0,6.62,6.62h285.6a6.64,6.64,0,0,0,6.62-6.62V168.51A6.6,6.6,0,0,0,450.83,161.88ZM165.23,261.1H152.85a21.23,21.23,0,0,1,0-42.46h12.39a6.64,6.64,0,0,0,6.62-6.62V175.13h37a6.64,6.64,0,0,0,6.62-6.62V156.12a21.26,21.26,0,1,1,42.52-.79v13.18a6.64,6.64,0,0,0,6.62,6.62h37v37a6.64,6.64,0,0,0,6.62,6.62h12.39a21.23,21.23,0,1,1,.73,42.46H308.16a6.64,6.64,0,0,0-6.62,6.62v37H239.48V269a6.62,6.62,0,0,0-13.25,0v35.7H171.92v-37A6.85,6.85,0,0,0,165.23,261.1ZM308,403.9a6.64,6.64,0,0,0-6.62,6.62v37H259.15v-35.7a6.62,6.62,0,0,0-13.25,0v35.7h-74V419.2h7.95a36.49,36.49,0,0,0,0-73h-7.95V317.93H301.41v37a6.64,6.64,0,0,0,6.62,6.62h3.91a21.19,21.19,0,0,1,0,42.39Zm136.17-7.48H408.5a6.62,6.62,0,1,0,0,13.25h35.7v37.82H314.65v-30.4a34.42,34.42,0,0,0,0-68.68V318H345v14.64a34.48,34.48,0,0,0,68.95,1V318H444.2Zm0-168.76H408.5a6.62,6.62,0,1,0,0,13.25h35.7v63.78h-37a6.64,6.64,0,0,0-6.62,6.62v21.26a21.23,21.23,0,1,1-42.46.73v-22a6.64,6.64,0,0,0-6.62-6.62H314.65V274.35h5.76a34.51,34.51,0,1,0,0-69h-5.76v-30.2h37a6.64,6.64,0,0,0,6.62-6.62V165a21.23,21.23,0,0,1,42.46,0v3.51a6.64,6.64,0,0,0,6.62,6.62H444.2Z"/>
        </g>
    </g>
</svg>