<svg xmlns="http://www.w3.org/2000/svg" viewBox="0 0 614.2 614.2">
    <defs>
        <style>.cls-1{fill:#fff;}.cls-2{fill:#ff17a7;}.cls-3{fill:#25ff15;}.cls-4{fill:#11113f;}</style>
    </defs>
    <title>puzzle2</title>
    <g id="Слой_2" data-name="Слой 2">
        <g id="Слой_1-2" data-name="Слой 1">
            <circle class="cls-1" cx="307.1" cy="307.1" r="307.1"/>
            <polygon class="cls-2"
                     points="119.57 228.82 161.33 197.91 183.04 217.96 209.77 222.97 231.49 207.94 240.68 180.37 215.62 146.13 255.63 112.72 372.65 250.87 333.39 283.94 348.26 311.51 330.05 341.58 298.31 344.92 279.94 332.39 236.5 366.64 119.57 228.82"/>
            <path class="cls-3"
                  d="M240.68,367.47l39.26-35.08,18.38,12.53,25.06.84,16.54-19.21V293.13l-6.51-9.19,39.26-33.08,35.08,38.92s-18.38,20-20,23.39S381,343.25,381,343.25l12.53,24.22h26.73l34.25-19.21,37.59,41.09L356.61,505.29Z"/>
            <path class="cls-4"
                  d="M492.09,374.49l-30.4-35.25a8.34,8.34,0,0,0-11.78-.84l-20.3,17.54a26.79,26.79,0,0,1-35.92-39.76,3.63,3.63,0,0,1,.58-.5l.42-.33L415,297.81a8.34,8.34,0,0,0,.84-11.78l-30.4-35.25-10.86-12.61L323.37,179l-10.94-12.61-44.77-51.79-10.94-12.7L251,106.79l-.67.58-39.59,34.25a8.34,8.34,0,0,0-.84,11.78l12,13.95a29.31,29.31,0,0,1-44.35,38.34h0l-12.11-14a8.34,8.34,0,0,0-11.78-.84l-39.67,34.25a8.34,8.34,0,0,0-.84,11.78L348.59,509.46a8.34,8.34,0,0,0,11.78.84L503,387.18Zm-207-48.19a8.34,8.34,0,0,0-11.78-.84l-35.25,30.49L203.26,315.6l34.08-29.4a8.35,8.35,0,1,0-10.94-12.61h0L192.32,303l-61-70.66,27-23.3,6.51,7.6a46,46,0,0,0,71-58.64l-1.25-1.5-6.6-7.6,27-23.3,106.75,123.7-35.25,30.4a8.34,8.34,0,0,0-.84,11.78l3.26,3.76a26.77,26.77,0,1,1-40.51,35h0ZM404.56,450.08,375.07,416a8.35,8.35,0,0,0-12.61,10.94h0l29.48,34.16-36.17,31.24L248.95,368.56,278,343.5a43.41,43.41,0,0,0,65.57-56.63l29.07-25.06,25,28.9-13.95,12a43.52,43.52,0,1,0,56,66.65l.92-.75,13.95-12.11,25,28.9Z"/>
        </g>
    </g>
</svg>