<svg xmlns="http://www.w3.org/2000/svg" viewBox="0 0 720 720">
    <defs>
        <style>.cls-1{fill:#fff;}.cls-2{fill:#dcdfe5;}.cls-3{fill:#ffddd9;}.cls-4{fill:#f4ac1c;}.cls-5{fill:#11113f;}
        </style>
    </defs>
    <title>rockstar</title>
    <g id="Слой_2" data-name="Слой 2">
        <g id="Layer_1" data-name="Layer 1">
            <circle class="cls-1" cx="360" cy="360" r="360"/>
            <polyline class="cls-2"
                      points="285.02 284.95 406.94 284.95 415.37 522.49 277.3 510.49 241.28 332.12 285.02 284.95"/>
            <polyline class="cls-3"
                      points="223.28 284.95 289.31 283.24 261.86 359.99 300.45 368.99 270.44 478.76 387.07 344.12 350.19 326.11 374.79 284.95 496.83 284.95 496.83 491.62 458.24 566.23 374.79 604.82 310.75 595.38 246.43 546.5 218.99 465.04 223.28 284.95"/>
            <polygon class="cls-4"
                     points="503.69 396.43 537.14 322.68 543.14 256.65 507.98 191.14 406.94 135.74 322.56 115.16 300.45 134.02 294.45 194.89 254.15 178.6 211.27 161.45 194.98 191.14 181.25 272.09 193.26 359.99 218.99 407.58 223.28 284.95 492.55 284.95 503.69 396.43"/>
            <path class="cls-5"
                  d="M541.13,226.47a161.61,161.61,0,0,0-56.82-63.73,315.9,315.9,0,0,0-75.46-36.67,474.89,474.89,0,0,0-94.33-22,10,10,0,0,0-8.87,3.67,100.45,100.45,0,0,0-22.06,72.15l-65-30.55a10,10,0,0,0-11.11,1.72c-1.47,1.41-36.12,34.89-37.58,124.84-1.41,77.85,31.71,125.94,41.37,138.22v54a147.93,147.93,0,0,0,295.85,0V410.39C553.36,339.2,565.15,277.42,541.13,226.47ZM486.75,407.15h0v61.11A128.32,128.32,0,0,1,359,596h0A128.32,128.32,0,0,1,231.08,468.09V292.52h41.16l-23.15,65.17A10,10,0,0,0,257.22,371l33.43,4.41L249.89,496.71A10,10,0,0,0,267,506.25l56.7-69.1V495a10,10,0,0,0,10,10h40.15a10,10,0,1,0,1.6-20H343.83V412.83l56.77-69a10,10,0,0,0-6.11-16.19l-32.93-5.25,16.55-29.76H486.94V407.15Zm-150-72.84a10,10,0,0,0,7.46,5.51L374,344.59l-87.86,107,27.25-81.21a10,10,0,0,0-8.13-13.14l-33-4.34L294,292.58h61.11l-18.09,32.26A10,10,0,0,0,336.75,334.31ZM506.92,371V282.57a10,10,0,0,0-10-10H258.61a47.47,47.47,0,0,1-18.87-34.64,10,10,0,0,0-19.91,1.72,69.22,69.22,0,0,0,11.49,32.81H221a10,10,0,0,0-9.9,10.08v93.34A218.57,218.57,0,0,1,189.74,276c1-62,18.87-94,27.13-105.46l75.58,35.86a10,10,0,0,0,13.72-12.23,82,82,0,0,1,11.54-69.36c29.4,4.15,166.81,27.8,205.43,110,17.91,37.94,12.16,84-16.31,136.5Z"/>
            <path class="cls-5" d="M420.39,402a13.45,13.45,0,1,0,13.45,13.45h0A13.45,13.45,0,0,0,420.39,402Z"/>
            <path class="cls-5"
                  d="M443.73,194.63a381.28,381.28,0,0,0-56-25.06,10,10,0,0,0-7,18.76,363.14,363.14,0,0,1,53,23.65,10,10,0,0,0,9.9-17.41Z"/>
            <path class="cls-5" d="M384.65,531.93H333.38a10,10,0,1,0-1.6,20h52.86a10,10,0,0,0,1.56-20Z"/>
        </g>
    </g>
</svg>