<svg xmlns="http://www.w3.org/2000/svg" viewBox="0 0 100 100">
    <defs>
        <style>.cls-1{fill:#fff;}.cls-2{fill:#726b6c;}.cls-3{fill:#e9001b;}.cls-4{fill:#11113f;}</style>
    </defs>
    <title>3-1</title>
    <g id="Слой_2" data-name="Слой 2">
        <g id="Layer_1" data-name="Layer 1">
            <circle class="cls-1" cx="50" cy="50" r="50"/>
            <polygon class="cls-2" points="55.44 43.09 44.74 57.62 40.27 52.67 25.26 72.95 76.52 73.91 55.44 43.09"/>
            <polygon class="cls-3" points="55.44 32.71 55.44 38.62 60.87 35.26 55.44 32.71"/>
            <path class="cls-4" d="M50,21.85a1.15,1.15,0,1,0-1.15,1.25H49a1.15,1.15,0,0,0,1-1.25Z"/>
            <path class="cls-4" d="M65.57,26.53A1.16,1.16,0,0,0,64,28.27h0a1.16,1.16,0,1,0,1.66-1.63h0Z"/>
            <path class="cls-4" d="M59.43,22.63a1.15,1.15,0,1,0-.93,2.11h0a1.15,1.15,0,0,0,.88-2.12Z"/>
            <path class="cls-4" d="M68.09,29.14h0a1.14,1.14,0,1,0-1.74,1.49,1.15,1.15,0,0,0,1.77-1.45l0,0Z"/>
            <path class="cls-4" d="M52.39,20.84h0a1.15,1.15,0,0,0-.19,2.3h.11a1.15,1.15,0,1,0,.08-2.3Z"/>
            <path class="cls-4" d="M56,21.46h0a1,1,0,1,0,.08,2.06,1,1,0,0,0,0-2.06Z"/>
            <path class="cls-4"
                  d="M62.68,24.35h0A1.15,1.15,0,1,0,63,26a1.15,1.15,0,0,0-.35-1.63,0,0,0,0,0,0,0h0l-.08,0Z"/>
            <path class="cls-4"
                  d="M72.21,44.86a1.16,1.16,0,0,0-1.26,1h0a1.15,1.15,0,0,0,1,1.25h.11a1.16,1.16,0,0,0,1.15-1l-1.15-.13,1.15.13A1.15,1.15,0,0,0,72.21,44.86Z"/>
            <path class="cls-4" d="M70.79,51.61a1.15,1.15,0,0,0-1.52.57h0a1.15,1.15,0,1,0,1.53-.61Z"/>
            <path class="cls-4" d="M70.18,32.13h0a1.1,1.1,0,1,0-1.09,1.12h0a1.08,1.08,0,0,0,1.07-1.12l0-.08Z"/>
            <path class="cls-4" d="M73.31,42.48h0a1.15,1.15,0,1,0-1.15,1.23h.06a1.15,1.15,0,0,0,1.09-1.23Z"/>
            <path class="cls-4"
                  d="M71.76,35.42l-1.07.42,1.07-.42a1.16,1.16,0,0,0-2.19.75l0,.13h0a1.16,1.16,0,0,0,2.19-.75Z"/>
            <path class="cls-4"
                  d="M72.82,38.9h0a1.15,1.15,0,1,0-2.24.54,1.18,1.18,0,0,0,1.07.88h.24A1.14,1.14,0,0,0,72.75,39Z"/>
            <path class="cls-4"
                  d="M71.76,48.29a1.16,1.16,0,1,0-.61,2.24,1.14,1.14,0,0,0,1.41-.81h0a1.16,1.16,0,0,0-.8-1.42Z"/>
            <path class="cls-4"
                  d="M29.28,37.46a1.14,1.14,0,0,0-1.37.86v0h0a1.15,1.15,0,1,0,2.25.5,1.15,1.15,0,0,0-.85-1.36h0Z"/>
            <path class="cls-4"
                  d="M30.55,34.24a1.15,1.15,0,0,0-1.5.61h0a1.15,1.15,0,1,0,2.06,1v-.16h0A1.12,1.12,0,0,0,30.55,34.24Z"/>
            <path class="cls-4" d="M30.11,48.61a1.15,1.15,0,0,0-2.24.51h0a1.15,1.15,0,0,0,2.24-.54h0Z"/>
            <path class="cls-4"
                  d="M32.61,54.66a1.17,1.17,0,0,0-1.55-.53,1.15,1.15,0,0,0-.51,1.55l.1.16h0a1.15,1.15,0,0,0,1.95-1.21h0Z"/>
            <path class="cls-4"
                  d="M29.6,45.39a1.15,1.15,0,0,0-2.3.16h0a1.13,1.13,0,0,0,1.15,1.05h.08A1.14,1.14,0,0,0,29.6,45.39Z"/>
            <path class="cls-4"
                  d="M28.55,40.87a1.14,1.14,0,0,0-1.23,1h0a1.15,1.15,0,0,0,1.05,1.23h.08a1.16,1.16,0,1,0,.11-2.32Z"/>
            <path class="cls-4" d="M46.55,22.2a1.13,1.13,0,0,0-1.36-.86h0a1.14,1.14,0,1,0,1.41.86Z"/>
            <path class="cls-4" d="M40,24.43A1.14,1.14,0,0,0,38.47,24h0a1.15,1.15,0,1,0,1.61.4Z"/>
            <path class="cls-4" d="M43.19,23.08a1.15,1.15,0,0,0-1.49-.67h0a1.14,1.14,0,1,0,1.53.64Z"/>
            <path class="cls-4"
                  d="M37.09,26.29a1.13,1.13,0,0,0-1.61-.14h0A1.14,1.14,0,1,0,37,27.88a1.14,1.14,0,0,0,.13-1.6Z"/>
            <path class="cls-4" d="M34.51,28.62a1.14,1.14,0,0,0-1.61.1h0a1.13,1.13,0,1,0,1.63-.13Z"/>
            <path class="cls-4" d="M31.15,51.74a1.15,1.15,0,0,0-2.12.88h0a1.15,1.15,0,1,0,2.17-.77h0v-.11Z"/>
            <path class="cls-4"
                  d="M32.3,31.22a1.14,1.14,0,0,0-1.58.37h0a1.14,1.14,0,0,0,2,1.15,1.13,1.13,0,0,0-.38-1.53Z"/>
            <path class="cls-4"
                  d="M79,72.39H77.16L58.11,44.12a3.3,3.3,0,0,0-1.61-1.26V39.65L62.25,36a1.14,1.14,0,0,0,.37-1.58A1.26,1.26,0,0,0,62.1,34l-6.29-2.78a1.15,1.15,0,0,0-1.52.57,1.17,1.17,0,0,0-.1.48V39h0v3.83a3.28,3.28,0,0,0-1.66,1.31L44.71,55.72,43,53a3.34,3.34,0,0,0-4.63-.91,3.29,3.29,0,0,0-.91.91L24.29,72.39H22.47a1.15,1.15,0,1,0-.19,2.3H79a1.16,1.16,0,0,0,1.05-1.25A1.19,1.19,0,0,0,79,72.39ZM56.48,34l2.7,1.2-2.7,1.69ZM27,72.39,39.28,54.22a1,1,0,0,1,1.44-.3,1.1,1.1,0,0,1,.3.3L43.4,57.7l-4.09,6.08a1.17,1.17,0,1,0,1.9,1.36s0,0,0,0h0L54.48,45.42a1,1,0,0,1,1.44-.3,1.1,1.1,0,0,1,.3.3l18.19,27Z"/>
        </g>
    </g>
</svg>