<svg xmlns="http://www.w3.org/2000/svg" viewBox="0 0 614.2 614.2">
    <defs>
        <style>
            .cls-1{fill:#fff;}.cls-2{fill:#c9c8cc;}.cls-3{fill:#3e24bc;}.cls-4{fill:#cd00ff;}.cls-5{fill:#eff9c5;}.cls-6{fill:#11113f;}
        </style>
    </defs>
    <title>roller</title>
    <g id="Слой_2" data-name="Слой 2">
        <g id="Слой_1-2" data-name="Слой 1">
            <circle class="cls-1" cx="307.1" cy="307.1" r="307.1"/>
            <polyline class="cls-2" points="202.33 361.01 226.33 338.01 265.33 378.01 238.83 401.51 202.33 361.01"/>
            <polygon class="cls-3" points="128.33 430.01 202.33 361.01 241.33 403.01 166.33 475.01 128.33 430.01"/>
            <polygon class="cls-4" points="249.33 134.01 272.33 115.01 486.33 325.01 428.33 390.01 249.33 134.01"/>
            <polygon class="cls-5"
                     points="207.33 186.01 250.33 137.01 285.33 173.01 339.33 249.01 377.33 295.01 471.33 351.01 419.33 396.01 207.33 186.01"/>
            <path class="cls-6"
                  d="M493.33,327.54a21.76,21.76,0,0,0-6.4-15.36l-197-197.36a22,22,0,0,0-31,0l-51.79,52a22,22,0,0,0,0,31l197,197a22,22,0,0,0,31,0l20.8-20.8,10.67,10.67-47.47,47.47L273.46,326.79a7.25,7.25,0,0,0-9.39.75l-15.58,15.58-8.69-8.69a17.07,17.07,0,0,0-24.11,0l-19.84,19.9h0l-70,69.87a17.07,17.07,0,0,0,0,24.11l27.9,27.79a17.07,17.07,0,0,0,24.11,0l89.61-89.82a17.07,17.07,0,0,0,0-24.11l-8.69-8.69,11.2-11.2,145.1,105.17h.37l.59.27h6l.64-.37h0l.64-.48h.27l58.14-57.18h0a7.25,7.25,0,0,0,0-10.24h0l-15.6-15.58,20.8-20.8A21.76,21.76,0,0,0,493.33,327.54ZM167.27,465.8a2.51,2.51,0,0,1-3.52,0l-27.64-27.63a2.56,2.56,0,0,1,0-3.52L201,369.79l31.2,31.2Zm89.88-89.61-14.73,14.72-31.2-31.2L225.94,345a2.51,2.51,0,0,1,3.52,0l27.63,27.63a2.51,2.51,0,0,1,0,3.52Zm193.56-17.28h0l-25.92,25.92a7.41,7.41,0,0,1-10.46.18l-.18-.18h0L217.33,187.47a7.41,7.41,0,0,1-.18-10.48h0l.18-.18h0l5.33-5.33L233,161.19l14.94-14.35c32,24.54,50.67,52.49,70.67,82,30.24,44.65,61.5,90.68,139.22,123ZM476.63,333,469,340.48c-77.88-30.62-107.21-74-138.36-120-19.47-28.75-39.58-58.67-72.33-84.22l10.67-10.67a7.41,7.41,0,0,1,10.48-.18h0l.18.18h0l197,196.72a7.41,7.41,0,0,1,.18,10.48h0Z"/>
        </g>
    </g>
</svg>