<?xml version="1.0" encoding="utf-8"?>
<!-- Generator: Adobe Illustrator 21.0.0, SVG Export Plug-In . SVG Version: 6.00 Build 0)  -->
<svg version="1.1" xmlns="http://www.w3.org/2000/svg"  x="0px" y="0px"
	 viewBox="0 0 2000 2000" style="enable-background:new 0 0 2000 2000;" xml:space="preserve">
<style type="text/css">
	.st0{fill:#FF0B3A;}
	.st1{fill:url(#SVGID_1_);}
	.st2{fill:#F9ED85;}
	.st3{fill:#B2B0AD;}
	.st4{fill:#FFA20D;}
	.st5{fill:#C10C37;}
	.st6{fill:none;stroke:#000000;stroke-width:10;stroke-linecap:round;stroke-linejoin:round;stroke-miterlimit:10;}
	.st7{fill:none;stroke:#000000;stroke-width:10;stroke-miterlimit:10;}
	.st8{fill:#7C9693;stroke:#000000;stroke-width:10;stroke-linecap:round;stroke-linejoin:round;stroke-miterlimit:10;}
	.st9{fill:#A5E5DF;stroke:#000000;stroke-width:10;stroke-linecap:round;stroke-linejoin:round;stroke-miterlimit:10;}
	.st10{fill:#FC6600;stroke:#000000;stroke-width:4;stroke-linecap:round;stroke-linejoin:round;stroke-miterlimit:10;}
	.st11{fill:#129F58;stroke:#000000;stroke-width:3;stroke-linecap:round;stroke-linejoin:round;}
	.st12{stroke:#000000;stroke-width:3;stroke-linecap:round;stroke-linejoin:round;}
	.st13{fill:#D9D9D9;}
	.st14{fill:#FFFFFF;}
	.st15{fill:#107A43;}
	.st16{fill:none;stroke:#000000;stroke-width:3;stroke-linecap:round;stroke-linejoin:round;}
	.st17{fill:none;}
</style>
<g id="Layer_2">
	<g>
		<g>
			<path class="st0" d="M328.7,1702.7c0-14.8,0-29.6,0-44.5c30.3,8,61.7,15.7,92.5,14.7c16.2-0.5,34-3.2,48-12.6
				c10-6.7,18.2-17.4,18-30.1c-0.1-6.6-2.2-12.9-6.3-17.5c-7.6-8.4-20.7-11.7-31.6-15.4c-19.5-5.6-39.1-10.5-59.1-13.9
				c-13.3-2.4-27.3-4.2-39.8-8.9c-7.5-2.8-13.3-6.6-17.2-11.3c-3.9-4.7-5.9-10.3-5.8-17.5c0.1-21.6,14.3-41.2,26.9-57.4
				c21.8-28.2,55-46.7,86.9-60.9c27.9-12.4,57.4-22.8,87.7-29.5c0.3,16.2,0.6,32.4,0.9,48.6c-30.5,1.8-59.1,8-86.5,19.7
				c-15.3,6.5-30.5,14.8-43.2,26.4c-7.1,6.5-14.9,15.5-14.9,25.5c0,4,1.4,7.6,4.1,10.6c2.7,3,10.9,4.9,24.8,6.1
				c22,2.2,43.7,5.3,65.5,9.5c20.8,4.8,43.9,11.2,58.2,27.6c11,12.6,16.1,30.9,16.4,47.6c0.3,16.6-4.5,34.1-13.1,48.4
				c-9.5,15.8-25.3,26.1-41.3,33.2c-22.9,10.3-50.3,11.5-75.6,11.7C392,1713.2,360.1,1708.6,328.7,1702.7z"/>
			<path class="st0" d="M576.8,1705.4c39.3-124.9,64.2-253.4,97.9-379.7c21.6-10.6,43.2-21.4,64.7-32.2
				c46.5,133.2,55.6,276.4,94.3,411.7c-22.1,0-44.2,0.1-66.3,0.1c-9.3-31.6-16.6-63.7-24-95.8c-32.5,2.9-65,5.8-97.4,8.5
				c-7.7,29.3-15.8,58.5-24.8,87.4C606.4,1705.4,591.6,1705.4,576.8,1705.4z M658.3,1568.5c24.5-4,48.9-8,73.3-12.1
				c-11.4-51.1-22.8-102.3-36.1-152.9C683.2,1458.5,671.3,1513.6,658.3,1568.5z"/>
			<path class="st0" d="M885.2,1705c-0.9-161.6-0.9-323.3-1.8-484.9c21.9-11.3,43.8-22.7,65.7-34.1c0.1,155,0.1,310,0.2,465
				c49.8-1.8,99.6-3.7,149.4-5.5c-0.1,19.7-0.3,39.4-0.5,59.2C1027.2,1704.8,956.2,1704.9,885.2,1705z"/>
			<path class="st0" d="M1141.2,1704.6c2.5-207.2,1.9-414.4,4.4-621.6c67.2-35.3,134.4-70.5,201.9-105.4c-0.4,22.5-0.6,45-0.9,67.4
				c-45.6,22-91,44.3-136.5,66.6c-0.6,66-1.1,132.1-1.6,198.1c38.3-12.5,76.6-24.9,115-37.2c-0.3,36.8-0.5,73.6-0.8,110.4
				c-38.3,8.8-76.6,17.7-114.9,26.7c-0.5,77.3-1,154.6-1.8,231.9c49-1.8,98.1-3.5,147.1-5.1c-0.2,22.6-0.5,45.2-0.9,67.8
				C1281.9,1704.3,1211.5,1704.5,1141.2,1704.6z"/>
			<path class="st0" d="M1393.7,1701c0.5-31.4,0.8-62.8,1.1-94.1c26.1,21.1,58.1,40.3,92.4,39.9c21-0.2,37.6-13,48.3-29.3
				c15.5-23.8,18.7-55.6,18.7-84c0.1-19.4-1.7-39.4-5.8-58.4c-5-23.4-18.2-45.3-30.9-65.8c-19.1-29.8-38.5-59.6-58.4-88.9
				c-15.3-22.9-30.6-46.6-39.7-72.5c-7.9-22.3-13.3-45.6-17.1-69c-4.1-25.6-5.6-52.1-5.4-78c0.4-47.4,6.7-96.9,29.1-139.8
				c18.6-35.6,53.7-60,88.8-77.1c27.4-13.3,55.1-24.2,85.5-29.5c-0.1,31.9-0.1,63.9-0.2,95.8c-29.6-14.7-55.1-15.2-84.4-2.4
				c-17.7,7.8-34.1,22.8-43.7,40.2c-10.6,19.2-15.7,41.2-15.8,63.2c-0.1,13.2,1.1,26.6,3.8,39.3c3.5,16.4,13.8,31.1,24.5,43.9
				c22.9,28.4,44,57.9,64.3,88.1c26.7,39.9,45.8,85.2,56.3,132c11.5,51.4,15.2,104.8,15.2,157.1c0,41.7-1.5,86.2-13.9,126
				c-7.5,24.2-19,47.4-42,60.8c-22.6,13.1-50.6,14.2-75.9,14.4C1456.8,1713.3,1424.9,1708.4,1393.7,1701z"/>
		</g>
	</g>
</g>
<g id="Layer_3">
	<linearGradient id="SVGID_1_" gradientUnits="userSpaceOnUse" x1="1327.7129" y1="1082.7676" x2="247.498" y2="1082.7676">
		<stop  offset="0" style="stop-color:#FFFFFF"/>
		<stop  offset="1" style="stop-color:#FFFFFF;stop-opacity:0"/>
	</linearGradient>
	<path class="st1" d="M1175.5,797.5c-30.1,45.2-61,88-97,131c-43.1,51.5-180.8,189.3-369,300c-253.1,148.9-462.8,201.9-462,204
		c0.9,2.3,263.3-79.4,543-222c0,0,144-73.4,291-182c18.1-13.4,58.9-44.1,106-90c30.8-30,59.9-58.7,89-103c35-53.3,58.8-82.2,49-96
		c-17.9-25.2-122.7,30.3-133,39c-6.1,5.1-11,11-11,11C1178.1,793.5,1176,796.8,1175.5,797.5z"/>
	<path class="st2" d="M1311.5,783.5c-25.3,9.8-38.4,14.8-52,28c-10.3,10-15.4,19.2-23,33c-12.5,22.6-17,51-17,51s46.9-2,72-21
		c22-16.6,31.8-36.3,45-63c7-14.2,14.4-29.4,9-35C1341.2,772.1,1331.1,775.9,1311.5,783.5z"/>
	<path class="st2" d="M1231.5,705.5c-25.3,9.8-38.4,14.8-52,28c-10.3,10-15.4,19.2-23,33c-12.5,22.6-17,51-17,51s46.9-2,72-21
		c22-16.6,31.8-36.3,45-63c7-14.2,14.4-29.4,9-35C1261.2,694.1,1251.1,697.9,1231.5,705.5z"/>
	<path class="st2" d="M1260.5,759.5c-25.3,9.8-38.4,14.8-52,28c-10.3,10-15.4,19.2-23,33c-12.5,22.6-17,51-17,51s46.9-2,72-21
		c22-16.6,31.8-36.3,45-63c7-14.2,14.4-29.4,9-35C1290.2,748.1,1280.1,751.9,1260.5,759.5z"/>
	<g id="XMLID_1_">
		<g>
			<path class="st3" d="M1611.5,546.5c5.9,3,10.5,7,13.9,10.9c-9.2,12.2-15.8,20.5-17.9,23.1c-26,32.4-61.3,67.1-100.3,95.9
				c-8.4-10.1-16.3-20.5-22.7-29.9C1447.2,591.4,1578.8,530,1611.5,546.5z"/>
			<path class="st3" d="M1473.5,418.5c26,31.5-65,166.5-94,156c-3.8-1.4-3.7-5.8-8-10c-8.1-7.9-15.9-15.4-23.3-22.5
				c22.2-35.7,51.6-73.1,90.3-107.5c8.4-7.5,17.3-14.8,26.4-21.9C1468.4,414,1471.3,415.9,1473.5,418.5z"/>
			<path class="st3" d="M1556,354.3L1679.3,480c-19.3,30.5-39.7,58.6-53.9,77.4c-3.4-3.9-8-7.9-13.9-10.9
				c-32.7-16.5-164.3,44.9-127,100c6.4,9.4,14.3,19.8,22.7,29.9c-19.9,14.7-40.8,27.8-62,38.2c-0.4-1.1-1-2.1-1.7-3
				c-8.4-11.4-32.1-8.5-55.4-1.5c13.8-22.3,21.8-46.7,5.4-62.5c-17.2-16.5-45.2-9.6-70.4,4c4.7-16.6,7.4-38.1-8.3-46.9
				c8.8-19.6,19.8-40.8,33.3-62.6c7.4,7.1,15.3,14.6,23.3,22.5c4.3,4.3,4.3,8.6,8,10c29,10.5,120-124.5,94-156
				c-2.2-2.6-5.1-4.5-8.6-5.9C1493.5,390.4,1525,370.5,1556,354.3z"/>
			<path class="st0" d="M1421.5,412.5c10.5-2.6,30.4-5,43.4,0.1c-9.1,7.1-18,14.4-26.4,21.9c-38.7,34.4-68.1,71.8-90.3,107.5
				c-34-32.5-59.3-55.6-55.7-61.5c1.3-2.2,5.9,0.8,16,0c11.1-0.8,19.7-5.5,37-18c24.3-17.7,24.3-20.9,41-32
				C1400.6,421.2,1409,415.6,1421.5,412.5z"/>
			<path class="st0" d="M1388.1,710c-6.2,10.1-13.6,19.7-20.5,28c-9-0.6-17.2-4.2-24.6-9.6c1.2-0.7,2.3-1.3,3.4-1.9
				C1357.1,721.2,1372.5,714.7,1388.1,710z"/>
			<path class="st4" d="M1314.8,604.7c15.7,8.7,13,30.3,8.3,46.9c-8.4,4.5-16.4,9.8-23.6,15.3c-1.8-3.6-3.5-7.1-5.1-10.3
				C1299.6,641.5,1306.2,623.8,1314.8,604.7z"/>
			<path class="st0" d="M1323.1,651.5c-2.4,8.3-5.3,15.4-6.6,19c-1.8,4.7-4,10.1-6.7,15.9c-3.7-6.7-7.1-13.4-10.2-19.6
				C1306.8,661.4,1314.8,656.1,1323.1,651.5z"/>
			<path class="st4" d="M1726.5,324.5c24.2,27.2-9.4,96-47.2,155.5L1556,354.3C1630.9,315.3,1703.3,298.4,1726.5,324.5z"/>
			<path class="st0" d="M1309.8,686.4c9,16,19.9,32.1,33.3,42c-24.6,14.4-55.6,54.1-55.6,54.1l15.2,14.6c-4.4,3-9.1,6.1-14.2,9.4
				l-54-50c2.2-5.3,4.7-10.7,7.5-16.3l14.5,12.3C1284.4,731.6,1300.3,706.4,1309.8,686.4z"/>
			<path class="st0" d="M1367.7,738c-2.9,3.4-5.6,6.6-8.2,9.5c-18.4,21-32.2,33-56.8,49.6l-15.2-14.6c0,0,31-39.7,55.6-54.1
				C1350.5,733.8,1358.7,737.4,1367.7,738z"/>
			<path class="st0" d="M1393.5,647.5c16.4,15.8,8.4,40.2-5.4,62.5c-15.6,4.7-31,11.2-41.6,16.5c-1.1,0.6-2.3,1.2-3.4,1.9
				c-13.4-9.9-24.3-25.9-33.3-42c2.7-5.8,4.9-11.2,6.7-15.9c1.4-3.6,4.3-10.7,6.6-19C1348.3,637.9,1376.3,631,1393.5,647.5z"/>
			<path class="st5" d="M1443.5,711.5c0.7,1,1.3,2,1.7,3c-22.6,11.1-45.4,19.2-67.7,23c-3.4,0.6-6.7,0.7-9.8,0.5
				c6.8-8.2,14.2-17.9,20.5-28C1411.4,703,1435.1,700.1,1443.5,711.5z"/>
			<path class="st0" d="M1299.6,666.8c3.1,6.2,6.5,12.9,10.2,19.6c-9.5,20-25.3,45.2-53.3,66.1l-14.5-12.3
				c10.9-22,25.8-45.3,43.5-61.7C1289.6,674.7,1294.4,670.7,1299.6,666.8z"/>
			<path class="st5" d="M1633.5,569.5c4.9,11.2,3.7,21.5,3,27c-2.1,16.2-9.8,26.9-23,45c-8.5,11.6-11.4,13.8-30,38
				c-8.8,11.4-13.2,17.6-15,27c-2.9,15.2,0.9,19.5-2,22c-5.8,5-34.7-22.5-59.3-52.1c39-28.7,74.3-63.5,100.3-95.9
				c2.1-2.6,8.7-10.9,17.9-23.1C1631,563.7,1633.5,569.5,1633.5,569.5z"/>
			<path class="st4" d="M1312.5,603.5c0.8,0.3,1.6,0.7,2.3,1.2c-8.7,19.2-15.3,36.8-20.3,51.8c1.6,3.2,3.3,6.7,5.1,10.3
				c-5.2,3.9-9.9,7.9-14.1,11.7c-17.8,16.5-32.7,39.8-43.5,61.7l-37.5-31.7c10-36,31.9-69.5,53-86
				C1271,611.9,1291.5,594.5,1312.5,603.5z"/>
			<path class="st5" d="M1445.2,714.5c7.7,18.5-18.2,55.4-32.7,72c-14.6,16.7-41,36-77,42l-32.8-31.4c24.5-16.6,38.3-28.6,56.8-49.6
				c2.5-2.9,5.3-6.1,8.2-9.5c3.2,0.2,6.5,0.1,9.8-0.5C1399.8,733.8,1422.6,725.7,1445.2,714.5z"/>
		</g>
		<g>
			<path class="st6" d="M1242,740.2l-37.5-31.7c10-36,31.9-69.5,53-86c13.5-10.6,34-28,55-19c0.8,0.3,1.6,0.7,2.3,1.2
				c15.7,8.7,13,30.3,8.3,46.9"/>
			<path class="st6" d="M1302.7,797.1l32.8,31.4c36-6,62.4-25.3,77-42c14.5-16.5,40.5-53.5,32.7-72c-0.4-1.1-1-2.1-1.7-3
				c-8.4-11.4-32.1-8.5-55.4-1.5"/>
			<path class="st6" d="M1302.7,797.1c-4.4,3-9.1,6.1-14.2,9.4l-54-50c2.2-5.3,4.7-10.7,7.5-16.3c10.9-22,25.8-45.3,43.5-61.7
				c4.1-3.8,8.9-7.8,14.1-11.7c7.2-5.4,15.2-10.7,23.6-15.3c25.1-13.7,53.2-20.6,70.4-4c16.4,15.8,8.4,40.2-5.4,62.5
				c-6.2,10.1-13.6,19.7-20.5,28c-2.9,3.4-5.6,6.6-8.2,9.5C1341.1,768.5,1327.3,780.5,1302.7,797.1z"/>
			<path class="st7" d="M1314.8,604.7c8.8-19.6,19.8-40.8,33.3-62.6c22.2-35.7,51.6-73.1,90.3-107.5c8.4-7.5,17.3-14.8,26.4-21.9
				c28.6-22.2,60.1-42.1,91.1-58.3c74.9-39,147.3-55.9,170.5-29.8c24.2,27.2-9.4,96-47.2,155.5c-19.3,30.5-39.7,58.6-53.9,77.4
				c-9.2,12.2-15.8,20.5-17.9,23.1c-26,32.4-61.3,67.1-100.3,95.9c-19.9,14.7-40.8,27.8-62,38.2"/>
			<line class="st6" x1="1556" y1="354.3" x2="1679.3" y2="480"/>
			<path class="st6" d="M1464.9,412.6c-13-5.1-33-2.7-43.4-0.1c-12.5,3.1-20.9,8.7-35,18c-16.7,11.1-16.7,14.3-41,32
				c-17.3,12.5-25.9,17.2-37,18c-10.1,0.8-14.7-2.2-16,0c-3.6,5.9,21.6,29.1,55.7,61.5"/>
			<path class="st6" d="M1625.4,557.4c5.5,6.3,8.1,12.1,8.1,12.1c4.9,11.2,3.7,21.5,3,27c-2.1,16.2-9.8,26.9-23,45
				c-8.5,11.6-11.4,13.8-30,38c-8.8,11.4-13.2,17.6-15,27c-2.9,15.2,0.9,19.5-2,22c-5.8,5-34.7-22.5-59.3-52.1"/>
		</g>
	</g>
	<circle class="st8" cx="1565.5" cy="474.5" r="59.5"/>
	<circle class="st9" cx="1565.5" cy="474.5" r="31.5"/>
	<circle class="st10" cx="1520" cy="476" r="4.5"/>
	<circle class="st10" cx="1534" cy="506" r="4.5"/>
	<circle class="st10" cx="1599" cy="444" r="4.5"/>
	<circle class="st10" cx="1532" cy="444" r="4.5"/>
	<circle class="st10" cx="1599" cy="506" r="4.5"/>
	<circle class="st10" cx="1611" cy="476" r="4.5"/>
	<circle class="st10" cx="1566" cy="520" r="4.5"/>
	<circle class="st10" cx="1566" cy="430" r="4.5"/>
	<path class="st11" d="M1413.7,555.3c-0.3-0.1-1.2,0.5-1.1,1.3c0.5,0.3,0.8,0.7,1.1,1.1C1414.7,556.8,1414.2,555.5,1413.7,555.3z"/>
	<g>
		<path class="st12" d="M1420.1,550.2c3.4-0.5,6.8-1.3,10.1-2.4c5.7-1.9,12.6-5.1,17.5-8.8c1.1-0.8,1.8-2,1.8-3.3l0-0.2
			c-0.3-10.2,0-12.8,6.3-17.8c4.7-3.8,12.5-3.3,15.2-3.1c0,0.5,0,1,0.1,1.4c0.8,0.5,2.9-1.4,3.5-1c0,1.2-1.4,2.4-0.4,3.3
			c0.2,0.2,0.9-0.4,1.3-0.8c0.2,0.2,0.3,0.6,0.2,1.7c0.3,0.8,0.5,1.6,0.6,2.4c0.1,1.7-1,3.6-0.6,7.7c0.1,1.4,0.9,2.7,2.1,3.5
			c4.5,3,7,2.3,13.8,8c6.4,5.3,7.8,11.3,11.9,15.4c0.7,0.7,1.6,1.2,2.6,1.5c0.9,0.1,1.9,0.1,2.8,0c1.6-0.2,5.1-1.7,7.9-1
			c0.6,0.1,1.5-0.2,2,0.1c-0.2,0.9-0.7,1.3-0.4,1.7c0.4,0.4,2.2-0.4,3.1-0.7c0.3,0.8-0.5,2.5-0.5,3.4c0.3,0.3,0.8,0.3,1.3,0.2
			c0.3,0.6,0.4,1.3,0.3,2c0.7,7.1,0.6,10.7-3.4,15.6c-0.7,0.9-3.3,4-7.4,5c-4.4,1.1-6.3,0.5-10,0.7c-1.1,0.1-2.3,2-4.9,6.1
			c-7.2,11.7-12,15.1-11,25.5c-0.7,0.3-1.6,0-2.6-0.5c-0.7,1.9-4.1,3.9-4.8,3.6c0,0.1,0.7-0.9,0.2-1.3c-1,0.6-2.1,0.9-3.2,1
			c-4.9,0.5-9.3-1.5-17.3-3.7c-6.4-1.8-7.7-1.5-13.3-3.5c-2-0.7-13.9-7.1-17.7-17.1c-1.1-2.7-1.8-5.6-2.1-8.5c-0.2-2-0.6-4-1.1-6
			c-1.8-7.4-4.8-19.7-3.4-21.5c-0.9-0.7-3.2,0-3.2,0c-0.4-0.7,0.8-5,3.9-6C1420.6,552.1,1420.2,551.2,1420.1,550.2z"/>
		<path class="st13" d="M1423.8,553c0.4-0.2,0.9-0.3,1.3-0.3c4.3-0.4,13-4.5,14.8-5.5c5.6-3.1,6.5-4.3,11.5-7.3
			c3.9-2.4,8.3-4,12.9-4.4c4.5-0.4,9.1,0.1,13.5,1.5c4.5,1.5,8.6,4,12,7.2c2.7,2.4,5.1,5.2,6.9,8.3c2,3.4,3.4,7.1,4.1,11
			c0.5,2.7,1.5,8.5-0.8,15.1c-1.2,3.4-2.9,6.5-5.1,9.4c-1.3,1.9-2.2,2.8-5.5,7.5c-1.7,2.3-2.5,3.5-3,4.2c-1.6,2.9-2.9,6-3.6,9.2
			c-0.4,1.7-0.5,2.5-0.4,3.7c0,0.2,0.1,0.9,0,0.8c-0.8-0.4-0.9-1.4-1.1-2.1c-0.1,1.4-1.2,3-1.6,3c0-0.4-0.1-1.5-0.7-1.7
			c-0.3,0.5-1.1,1.2-2.4,1.7c-1.6,0.7-3.3,0.9-5.1,0.7c-1.1-0.1-0.7-0.2-5.7-1.1c-0.9-0.2-1.9-0.4-2.8-0.6c-1.1-0.3-1.4-0.5-2.7-0.9
			c-0.7-0.2-1.3-0.3-2.5-0.6c-0.8-0.2-1.8-0.4-3-0.6c-2-0.4-2.4-0.3-3.7-0.6c-1.6-0.3-3.1-0.7-4.6-1.2c-1.9-0.8-3.7-1.8-5.3-3
			c-1.5-1-2.8-2-4.2-3.2c-1.3-1.2-2.5-2.4-3.6-3.8c-1.2-1.5-2.3-3.2-3.1-5c-0.7-1.4-1.3-3-1.7-4.5c-0.5-2.2-0.2-2.7-0.8-6
			c-0.1-0.3-0.3-1.5-0.7-3.1c-0.3-1.3-0.7-2.6-1.2-3.9c0,0-4.1-11.5-3.4-17.1c0-0.8,0.2-1.6,0.6-2.2c0.3-0.4,0.7-0.8,1.1-1.1
			c-0.1-0.4-1.1-0.5-1.9-0.4c-0.1-0.4,1.5-2.2,3.4-2.2c-0.1-0.5-1.1-0.5-2.2-0.7C1423.6,553.2,1423.7,553.1,1423.8,553z"/>
		<path class="st14" d="M1477.9,547.8c1.1-0.4,0.6-4.2,1.3-4.3c0.8-0.1,3,4,4.5,8.3c5,1.2,8.6,2.9,8.5,3.6c0,0.5-3.7,0.3-4,1.2
			c3.7,1.6,9.1,5.7,8.6,6.9c-0.2,0.6-2.8-0.4-4.1,0.2c3.8,4.3,5.9,8.7,5.5,9.2c-0.2,0.2-2-1-3.2-1.2c0.4,3,2.9,10.9,0.6,11.9
			c0,0-0.9-1.3-1.6-1.3c0.1,1.6-0.5,3.2-1.5,4.4c-3.2,4.3-4.9,4.8-8,10.6c-2.2,4.2-1.3,6.3-4.6,10.8c-2.1,2.9-3.2,2.8-3.4,2.7
			c0.2-1.2-0.9-5.1-0.9-5.1c-0.6,2.3-2.2,5-2.8,4.9s-0.9-1.7-0.6-3.4c-0.7,1.2-1.7,2.2-2.9,2.8c-4.2,2.6-12.5-2.9-12.1-4
			c0.1-0.3,0.9-0.1,1.3-0.7c0.6-0.8-0.2-2.3-0.5-2.8c-1.5-2.7-3.3-2.6-5.8-5.3c-1.3-1.4-2.5-2.7-2.7-4.6c-0.2-2.3,1.2-4,0.5-4.7
			c-0.5-0.5-1.4,0.4-3.2,0.4c-1.6,0-3.1-0.5-4.3-1.4c-1.4-1.1-2.5-2.6-3-4.4c-0.7-2.2-0.8-4.6-0.4-6.9c0.3-2.2,0.9-3,0.7-5.2
			c0-1.1-0.4-2.2-1-3.1c-1-1.3-2.7-2-3-1.7c1,1.1,1.2,2.3,0.9,2.6c-0.4,0.3-1.7-1.6-3.3-1.6c0.6,0.8,1,1.3,0.7,1.9
			c-0.3,0.5-1.2,0.1-2.5,0.5c-1.8,0.6-2,2.2-2.9,2.1c-1.1-0.1-2.2-2.8-1.6-5c0.5-1.9,1.2-2.4,1.9-3.3c-0.3-0.5-2.3,0.4-2.5,0.1
			c-0.3-0.5,2.4-2.7,4.3-3.9c-0.9-1.5-4.3,1.6-5,0.6c-0.6-0.8,0.9-4,3.6-5.2c1.3-0.6,2.5-0.6,5.4-1.6c4.7-1.6,12.8-7.4,17-8.8
			c-0.1-0.9-0.9-1.2-1.4-1.8c0.4-1.3,8-0.5,11.9-0.3c0.4-1-2.1-2.9-1.9-3.3c0.5-0.6,5.2,1.1,10.7,5.1c0.8-0.7-1.1-3.8-0.7-4
			C1471.3,539.6,1475.7,543,1477.9,547.8z"/>
		<path class="st13" d="M1466.1,563.5c0.5,0.2,1.5-0.7,1.9-1.7c0.4-1,0.4-2.2-0.1-3.2c0.7,0.2,1.2,0.6,1.5,1.2
			c0.6,1.1,0.2,2.1,0.7,2.4c0.3,0.2,0.6-0.1,1.7-0.5c0.8-0.4,1.7-0.5,2.6-0.4c0.3,1,0.3,2.1-0.2,3.1c-0.4,0.8-0.9,1.3-0.7,1.6
			c0.2,0.2,0.6-0.1,1.3-0.1c1.2,0,2.4,1,2.5,1.6c-0.7,0.1-1-0.1-1.9,0.3c-0.5,0.2-1,0.6-1.3,1c-0.1,0.1-0.7,0.9-0.6,1.2
			c0.2,0.3,0.8,0.1,1.1,0c1.6-0.2,2.6,0.4,4.4,1.4c3.1,1.8,5.5,4.5,7,7.8c0.9,2,2.6,6.1,1,10.5c-0.2,0.7-1.7,4.5-5.6,6.3
			c-3.1,1.5-6.8,1.1-6.8,0.7c0-0.1,0.1-0.2,0.3-0.5c0.2-0.4,0.3-0.8,0.1-1.3c-1.9,0.4-3.9,0.4-5.7-0.1c-0.1-0.1,0-0.2-0.1-0.9
			c-0.1-0.9-0.2-1.8-0.4-2.6c-0.5-2.7-0.1-6.3-0.6-6.3c-0.3,0-0.5,0.9-0.8,0.9c-1.2-1.1-1.1-6.7,0.4-9.8c-0.4-0.5-1.9,0.1-2.2,0.3
			c-1.5,0.7-2.7,2-3.3,3.5c-0.5,1.5-0.7,3-0.6,4.6c0,1.3,0.2,1.5-0.1,1.7c-1.4,1-11-9.2-10.3-10c0.1-0.2,0.6,0.2,1.8,0.2
			c0.8,0,1.6-0.2,2.3-0.5c0.9-0.4,1.7-0.9,2.5-1.5c0.7-0.7,1.4-1.4,1.9-2.3c0.6-0.9,1.3-2.5,0.9-2.8c-0.2-0.1-0.5,0.1-0.8,0.3
			c-1,0.6-2.1,0.6-4.1,0.7c-2.1,0.1-4.1-0.4-5.9-1.2c0.6,0.2,1.1,0.3,1.7,0.3c0.5,0,1.1-0.2,1.1-0.3c0-0.1-1-0.1-2.4-0.5
			c-0.7-0.2-1.4-0.5-2.1-0.8c-0.6-0.4-1.3-0.9-2-1.2c-0.4-0.2-0.9-0.4-1.3-0.5c-0.5-0.1-1.1,0-1.5,0.3c-0.2-0.1-0.4-0.4-0.5-1.3
			c-0.2-2.1,0.2-2.9,0.1-3.6c-0.3-0.2-0.7,0.1-1.4,0.6c-0.9-0.3-1.5-6.5,2.1-9.9c3-2.9,7.4-2.2,8.3-2.1c1.5,0.2,2.9,0.6,4.3,1.3
			c2.6,1.3,3.2,2.1,5.7,4.2c1.2,0.9,2.2,2,3,3.2C1466.2,561,1465.3,563.2,1466.1,563.5z"/>
		<path class="st12" d="M1462.1,568.1c0.3-0.2,0.7-0.4,0.9-0.6c0.4-0.3,0.6-0.7,0.8-1.2c0.1-0.4,0.1-0.8,0.1-1.2c0-0.9,0-1,0-1.4
			c0-0.6,0.1-0.8,0.1-1.4c0.1-0.7,0.1-1.3,0.1-2c0-1.8,0-3-0.6-4.1c-0.6-1.1-1.4-1.6-2.9-2.4c-1.8-1-3.8-1.6-5.9-1.9
			c-1.6-0.2-3.1-0.2-4.7,0c-1.2,0.2-2.3,0.6-3.3,1.2c-1.1,0.6-2.1,1.5-2.7,2.7c-0.4,0.8-0.7,1.6-0.7,2.5c0.1,1.1,0.4,2.1,1,3
			c0.6,1,1.3,2,2.1,2.8c1.1,1.3,2.4,2.4,3.9,3.2c1.1,0.6,2.3,1,3.5,1.3c1.1,0.2,2.2,0.3,3.3,0.3c1,0.1,2,0,3-0.1
			C1460.8,568.6,1461.5,568.4,1462.1,568.1z"/>
		<path class="st12" d="M1473.8,571.1c-0.7,0.3-1.3,0.6-1.9,1c-0.6,0.3-1.1,0.6-1.6,1.1c-0.4,0.4-0.8,0.9-1.1,1.4
			c-0.4,0.6-0.7,1.3-0.9,2.1c-0.1,0.5-0.1,1-0.1,1.5c0,1.8,0.2,2.5,0.3,4.1c0.1,1.4-0.1,1.2,0,2.3c0.1,1.2,0.3,2.4,0.6,3.5
			c0.4,1.5,0.7,2.4,1.5,3.4c0.5,0.6,1.2,1.2,1.9,1.5c0.8,0.4,1.7,0.7,2.6,0.8c1.2,0.2,2.4,0.1,3.6-0.2c1.3-0.3,2.6-0.9,3.7-1.8
			c0.8-0.5,1.4-1.2,2-1.9c0.5-0.7,0.9-1.5,1.2-2.3c0.3-0.9,0.4-1.9,0.4-2.8c0-1-0.1-2-0.2-3c-0.2-1.4-0.5-2.8-0.9-4.2
			c-0.7-2.1-1.9-4.1-3.3-5.8c-0.9-1.1-2.2-1.7-3.6-1.7C1476.4,570.2,1475,570.5,1473.8,571.1z"/>
		<path class="st14" d="M1472.5,579.6c-0.1,0.2-0.2,0.4-0.2,0.6c-0.1,0.5,0,0.9,0.1,1.4c0.1,0.5,0.3,1,0.6,1.5
			c0.3,0.4,0.6,0.7,1,0.9c0.5,0.3,1.2,0.4,1.8,0.4c0.5,0,1-0.2,1.4-0.4c0.4-0.1,0.8-0.4,1.1-0.8c0.1-0.2,0.2-0.4,0.2-0.6
			c0-0.1-0.1-0.2-0.2-0.3c-0.3-0.3-0.6-0.6-0.9-0.8c-1-0.7-2-1.2-3.1-1.7C1473.1,579.2,1472.7,579.4,1472.5,579.6z"/>
		<path class="st14" d="M1454.1,559.4c-0.1-0.1-0.2-0.2-0.4-0.3c-0.1-0.1-0.3-0.2-0.5-0.2c-0.1,0-0.3,0.1-0.4,0.2
			c-0.2,0.2-0.3,0.4-0.3,0.6c-0.1,0.4-0.1,0.8,0,1.2c0.5,1.4,1.3,2.6,2.4,3.7c0.3,0.3,0.6,0.5,1,0.5c0.1,0,0.4,0,0.6-0.2
			c0-0.1,0-0.2,0-0.4C1455.9,562.6,1455.1,561,1454.1,559.4z"/>
		<path class="st12" d="M1438.2,571.2c0,0.2-0.2,0.3-0.3,0.3c-0.4,0.3-0.9-0.1-1.1,0.1c-0.1,0.1-0.1,0.3-0.1,0.5c0,0.5,0,1,0.1,1.5
			c0.1,0.8,0,0.6,0.1,2.2c0.1,1,0.2,1.9,0.3,2.5c0.2,1.7,0.7,3.4,1.3,5c0.6,1.4,1.4,2.6,2.3,3.8c0.7,1,1.6,1.7,2.7,2.2
			c0.8,0.4,1.8,0.5,2.7,0.4c0.7-0.2,1.4-0.5,2-0.9c0.6-0.4,1.2-0.9,1.6-1.5c0.4-0.6,0.7-1.2,0.8-1.9c0.1-0.6,0.2-1.2,0.1-1.8
			c-0.1-0.8-0.3-1.5-0.5-2.2c-0.3-0.9-0.4-0.9-1-2.2c-0.3-0.6-0.5-1.2-0.5-1.8c-0.1-0.6,0-1.2,0.2-1.7c0.2-0.4,0.5-0.8,0.9-1
			c0.5-0.2,1-0.3,1.5-0.1c0.4,0.1,0.8,0.2,1.2,0.4c1.2,0.6,2.3,1.2,3.4,2c0.9,0.7,1.8,1.4,2.6,2.3c0.9,0.8,1.6,1.7,2.4,2.7
			c0.5,0.7,1,1.4,1.4,2.2c0.4,0.6,0.7,1.4,0.7,2.2c0,0.4-0.1,0.8-0.3,1.1c-0.1,0.3-0.3,0.6-0.6,0.8c-0.3,0.2-0.7,0.4-1.1,0.4
			c-0.5,0-1-0.1-1.5-0.3c-0.7-0.2-1.1-0.4-1.7-0.6c-0.6-0.2-1.1-0.4-1.8-0.6c-0.5-0.2-1.1-0.3-1.6-0.4c-0.5-0.1-1-0.1-1.5,0
			c-0.5,0.1-0.9,0.3-1.3,0.5c-0.6,0.3-1.2,0.8-1.7,1.4c-0.5,0.6-0.9,1.2-1.1,1.9c-0.4,0.8-0.6,1.7-0.6,2.6c0,0.8,0.3,1.6,0.7,2.4
			c0.4,0.8,0.9,1.5,1.5,2.1c0.7,0.7,0.8,0.6,2,1.7c0.7,0.5,1.3,1.1,1.8,1.8c0.5,0.7,0.9,1.4,1.2,2.1c0.1,0.2,0.8,1.9,0.4,2.1
			c-0.1,0.1-0.3,0-0.5-0.1c-0.3-0.2-0.5-0.4-0.7-0.7c-0.3-0.5-0.2-0.7-0.5-0.8c-0.1-0.1-0.3-0.1-0.4,0c-0.1,0-0.7,0-1.9-0.1
			c-1.2-0.2-2.4-0.7-3.5-1.3c-1.2-0.7-2.4-1.4-3.6-2.2c-1-0.6-1.9-1.3-2.8-2c-1.5-1.3-2.9-2.7-4.1-4.2c-0.8-1-1.6-2.1-2.2-3.2
			c-0.7-1.2-1.4-2.4-1.9-3.7c-0.4-1-0.7-2-1-3c-0.4-2.1-0.6-4.2-0.5-6.4c0-3.1,0.3-3.9,0.8-4.4c0.1-0.1,0.4-0.4,0.3-0.5
			c-0.2-0.3-1.8,0.5-2.1,0c-0.2-0.3,0.2-0.8,0.3-1c0.3-0.5,0.8-0.8,1.3-1c0.9-0.3,1.8-0.4,2.8-0.3
			C1436.6,570.3,1438.2,570.7,1438.2,571.2z"/>
		<path class="st14" d="M1450.1,599.1c0.7,0.6,1.1,1,1.7,1.4c-0.3,0.6-1.6,1.2-2.1,0.7C1449.2,600.7,1449.7,599.6,1450.1,599.1z"/>
		<path class="st14" d="M1437.9,586.1c0.5,0.7,1,1.4,1.7,1.9c-1.5,0.7-2.1,1.8-2.7,1.2C1436.1,588.7,1437,586.6,1437.9,586.1z"/>
		<path class="st14" d="M1453.3,576.9c0.6-0.3,2.7,1.1,4.2,2.5c2.1,1.9,3.4,4.3,3.2,4.4c-0.3,0.2-1.1-1-3.7-3.5
			C1455.5,578.8,1453,577.2,1453.3,576.9z"/>
		<path class="st14" d="M1434.9,593.4c0.1,0,0.3,0.1,0.5,0.4c0.4,0.4,0.8,0.8,1,1.3c0.8,1.3,1.7,2.5,2.7,3.6
			c0.8,1.1,1.9,1.9,3.1,2.5c0.7,0.3,1.4,0.7,2,1.1c0.4,0.3,1.3,1,1.2,1.3c0,0.1-0.1,0.2-0.4,0.2c-0.6,0.2-1.3,0.1-1.9-0.1
			c-1.8-0.7-3.5-1.7-5-3.1c-1-1.1-1.9-2.3-2.6-3.5c-0.5-0.7-0.8-1.5-0.9-2.4C1434.6,594.7,1434.6,593.5,1434.9,593.4z"/>
		<path class="st12" d="M1434.9,574.2c-1.1-1.5-1.9-2.7-2.5-3.4c-10.9-13.4-18.6-18.9-19.9-19.4c-0.2-0.1-0.5,0-1.1,0.4
			c-0.8,0.7-1.3,1.5-1.6,2.5c6.1,4.7,20.5,17.1,25,21.7C1435.3,575.7,1435.2,575,1434.9,574.2z"/>
		<path class="st12" d="M1412.5,551.5c0.6,0.6,0.8,1.4,0.7,2.2c-0.1,1.3-1.3,2.3-2,2.9c-0.8,0.6-1,0.5-2,1.3
			c-0.9,0.6-1.7,1.3-2.4,2.1c-0.9,1-1.6,2-2.2,3.2c-0.6,1-0.9,2.1-1,3.3c-0.1,0.8,0.1,1.5,0.3,2.2c0.3,0.8,0.8,1.4,1.5,1.9
			c0.3,0.2,0.7,0.4,1.1,0.5c1.7,0.7,2.3,0.9,2.3,0.9c1.7,0.6,3.4,1.2,5.1,1.8c3.7,1.2,7.3,2.7,10.8,4.4c1.4,0.7,2.7,1.5,5.3,3.1
			c2.9,1.8,4.6,3,5.1,4.1c0,0.1,0.1,0.4,0.3,0.4c0.5,0.1,1.3-1.1,1.5-2.3c0.1-0.9-0.1-1.6-0.6-2.9c-0.4-1-0.7-2-1-3
			c-0.3-1.1,0.1-2.9-0.3-3.5C1431.7,568.9,1417.1,553.3,1412.5,551.5z"/>
		<path class="st11" d="M1414.5,554.7c1.6,1,5.5,3.5,20.7,20.4c-0.3,4.7,3.1,7.3,0.7,9.2c-8.8-8.4-26.4-13.9-29.1-15.4
			c-0.3-0.2-0.6-0.4-0.8-0.8c-0.2-0.4-0.3-1-0.2-1.4c0.2-1.1,0.5-2.2,1-3.3c0.8-1.4,1.7-2.7,2.9-3.8c0.7-0.7,1.5-1.3,2.4-1.8
			c0.6-0.3,1.2-0.8,1.7-1.3C1414.1,556,1414.3,555.4,1414.5,554.7z"/>
		<path class="st15" d="M1412.2,557.7c5.4,6.6,18.7,15.7,23,19.3c0.2,1.3,0.6,2.6,1.1,3.8c-5.6-5.3-19-13.4-27.7-20
			C1409.7,559.7,1410.9,558.6,1412.2,557.7z"/>
		<path class="st16" d="M1414.5,554.7c1.6,1,5.5,3.5,20.7,20.4c-0.3,4.7,3.1,7.3,0.7,9.2c-8.8-8.4-26.4-13.9-29.1-15.4
			c-0.3-0.2-0.6-0.4-0.8-0.8c-0.2-0.4-0.3-1-0.2-1.4c0.2-1.1,0.5-2.2,1-3.3c0.8-1.4,1.7-2.7,2.9-3.8c0.7-0.7,1.5-1.3,2.4-1.8
			c0.6-0.3,1.2-0.8,1.7-1.3C1414.1,556,1414.3,555.4,1414.5,554.7z"/>
		<path class="st12" d="M1403.9,567.5c0.2-0.1,0.3,0.7,1,1.2c1.1,0.7,2.6,0.2,2.9,0.1c0.8-0.3,1.5-0.9,2-1.6c0.5-0.6,0.8-1.3,1.1-2
			c0.2-0.6,0.4-1.3,0.5-1.9c0.2-1.2-0.1-1.5,0.1-1.7c2.6,0.7,11.7,8,24.5,18c0.7,2.2,2.4,4-0.5,6.1c-5.3-7.2-25.2-12.8-29.7-15.1
			c-0.5-0.2-1-0.7-1.3-1.2C1403.8,568.6,1403.7,567.6,1403.9,567.5z"/>
		<path class="st11" d="M1413.1,564.6c7.5,4.9,14,10.8,23,17.1c0.5,1,0.3,2.2-0.6,2.9c-4-4-14.8-10.6-26.6-14.2
			C1410.6,569.2,1412.3,568.3,1413.1,564.6z"/>
		<path class="st12" d="M1419.7,567.6c0.3-0.2,0.3-0.5,0.7-0.9c0.3-0.3,0.7-0.6,1.1-0.8c1.1-0.5,2.5-0.1,3,0.1c3.1,1,4.6,4,4.8,4.4
			c0.5,1,0.7,2.1,0.8,3.2c0.1,1.2-0.1,1.7-0.4,1.8c-0.1,0.1-0.3,0.1-0.5,0.1c-0.4-0.1-0.8-0.4-0.9-0.8c-0.1-0.4,0.2-0.6,0.3-1.2
			c0-0.4-0.1-0.8-0.2-1.2c-0.3-0.9-0.8-1.7-1.4-2.4c-0.6-0.7-1.3-1.4-2.1-1.9c-0.4-0.3-0.9-0.6-1.4-0.7c-0.4-0.1-0.9,0-1.3,0.1
			c-0.6,0.2-1,0.6-1.3,1.1c-0.1,0.3-0.1,0.4-0.2,0.5c-0.5,0.4-2.2-1-2-1.3C1418.7,567.6,1419.2,567.9,1419.7,567.6z"/>
		<path class="st15" d="M1412.1,567.3c11.1,6.3,11.1,6.1,24.1,16.1c-0.1,0.4-0.4,0.8-0.7,1.1c-5.5-5.7-15.8-10.6-26.6-14.2
			C1410.6,569.2,1411.7,568.4,1412.1,567.3z"/>
		<path class="st17" d="M1435.5,584.5c-5.9-5.2-15.8-10.6-26.6-14.2c1.7-1.1,2.8-1.9,3.2-3"/>
		<path class="st16" d="M1413.1,564.6c7.5,4.9,14,10.8,23,17.1c0.5,1,0.3,2.2-0.6,2.9c-4-4-14.8-10.6-26.6-14.2
			C1410.6,569.2,1412.3,568.3,1413.1,564.6z"/>
	</g>
</g>
</svg>
