<svg id="Layer_1" data-name="Layer 1" xmlns="http://www.w3.org/2000/svg" viewBox="0 0 231.96 296.55">
    <defs>
        <style>
            .cls-1,.cls-9{fill:none;}.cls-10,.cls-2{fill:#fff;}.cls-3{clip-path:url(#clip-path);}.cls-4{fill:#8bbad8;}.cls-4,.cls-5,.cls-6,.cls-9{stroke:#000;stroke-linecap:round;stroke-linejoin:round;stroke-width:3px;}.cls-6,.cls-7{fill:#d9d9d9;}.cls-8{fill:#380208;}.cls-10{opacity:0.2;isolation:isolate;}.cls-11{fill:#282828;}
        </style>
        <clipPath id="clip-path" transform="translate(-140 -108.04)">
            <circle class="cls-1" cx="255.98" cy="224.02" r="115.98"/>
        </clipPath>
    </defs>
    <title>scheme-panda</title>
    <g id="Слой_2" data-name="Слой 2">
        <g id="Слой_1-2" data-name="Слой 1-2">
            <circle class="cls-2" cx="115.98" cy="115.98" r="115.98"/>
            <g class="cls-3">
                <path class="cls-4"
                      d="M227.43,283.63a36.2,36.2,0,0,1,6-5.81A38.61,38.61,0,0,1,244,272.19a79.85,79.85,0,0,1,33-4.77,70.83,70.83,0,0,1,16.52,4,44.41,44.41,0,0,1,11.76,6.25,20.66,20.66,0,0,1,4.61,4.46,19,19,0,0,1,3.3,9.2c1.53,14.06-4.89,45.27-3.13,68.48.07.94.3,3.71.6,7s2.23,24.17,2.24,28c0,1.55-.32,2.26,0,3.42a1.6,1.6,0,0,1-.85,2.1h0c-1.79,1-5.94,1.08-8.63,1.34-1.17.11-1.5.2-2.38.3-5.5.65-33.43,2.28-53.3-.45-4.41-.6-6.91-.75-11.91-1-5.67-.33-6.74-.15-7.45,0-4.37.94-7.61,3.47-8.93,2.24a3.58,3.58,0,0,1-.75-1.49,5.55,5.55,0,0,1-.15-2.53,64.22,64.22,0,0,1,1.45-6.55,27.68,27.68,0,0,0,.75-6.4c.45-6.84,2.07-18.86,2.68-24.86C224.24,352.62,225.5,332.36,227.43,283.63Z"
                      transform="translate(-140 -108.04)"/>
                <path class="cls-4"
                      d="M232.49,280.22c-2.3-.27-5.29,3.14-6.85,4.92a26.07,26.07,0,0,0-3.28,4.9,61.62,61.62,0,0,0-4.77,10.55c-1.53,4.56-1.22,5.48-2.38,9.68-1.91,6.92-3.52,7.25-7.14,16.38-2.55,6.38-3.83,9.57-4.17,14.29a26.67,26.67,0,0,0,2.24,13.84c1.15,2.41,2.66,5.63,6.1,7.73a15.67,15.67,0,0,0,14,.89c6.9-3.11,8.61-11.88,11.61-28.58a116.71,116.71,0,0,0,1.49-34.24C238.89,296.5,237.16,280.77,232.49,280.22Z"
                      transform="translate(-140 -108.04)"/>
                <path class="cls-5"
                      d="M270.3,285.74c.79,0,1.77-.44,3.72-1.34,3-1.36,5.33-2.44,7.73-4.77a13.88,13.88,0,0,0,3.72-5.36,8.14,8.14,0,0,0-.6-7.29c-2.29-3.67-11.63-4.71-17.58-.15-1.25,1-5.5,4.59-5.06,9.84C262.65,281.31,266.61,285.74,270.3,285.74Z"
                      transform="translate(-140 -108.04)"/>
                <path class="cls-5"
                      d="M255,190.12c.19-.7,2.71,0,5.79-1.28.88-.35,1.61-.79,4.31-3,4.92-4.13,4.53-4.4,6.64-5.84a26.78,26.78,0,0,1,7.47-3.37,27.35,27.35,0,0,1,6.55-1.36,9,9,0,0,0,1.82-.29,5.78,5.78,0,0,0,3.14-1.67c.86-1,.84-2.17,1.09-2.14s.34,1,.29,1.82a4,4,0,0,1-1.31,3c-.49.34-1,.38-.94.51a3.77,3.77,0,0,0,4-1c.32-.59.15-1.16.25-1.17a2.11,2.11,0,0,1,.27,2c-.31.91-1.41,1.1-1.31,1.41s.84.25,1.48.13c1-.2,1.54-.75,1.69-.6s-.08.76-.55,1.15-1.25.3-1.41.63.63,1.13.92,1.41c1.08,1.09,1.26,2.52,1.62,5.37a32.31,32.31,0,0,1-.33,8.79c-.48,3.66-.7,5.52-1.82,7-.7,1-1.66,1.84-1.41,2.26s1.48.28,2.41-.23c1.8-1,2.11-3.3,2.38-3.23s0,1.6-.41,3A7.46,7.46,0,0,1,296,206a5.32,5.32,0,0,1-.64.49c-.52.33-.79.35-.79.42a3,3,0,0,0,2.88-.49,4.47,4.47,0,0,0,.51-.7,3.18,3.18,0,0,1-1.08,2,3.58,3.58,0,0,1-2.17.85c-1.06,0-1.72-.44-1.93-.17s.07.7.35,1.08c1.15,1.41,3.75.9,3.78,1.23s-1.08.55-2.16.7a10.5,10.5,0,0,1-2.55.07,30,30,0,0,1-7.61-1.73C276,206.23,270.42,198.3,259.22,193,258.45,192.68,254.78,191,255,190.12Z"
                      transform="translate(-140 -108.04)"/>
                <path class="cls-5"
                      d="M239.34,196.12c-.53-.34-1.17.46-3.87.6a17.21,17.21,0,0,1-5.06-.6c-2.68-.64-3.19-1.13-6.7-2.38a35.51,35.51,0,0,0-8.18-2.24c-3.11-.37-4.65-.56-5.63-.15a2.11,2.11,0,0,1-1.64.15,2.21,2.21,0,0,1-1-1.49c-.77-2.36-.11-4.22-.45-4.32s-1,1.22-1.34,2.53a3.63,3.63,0,0,0,0,2.24c.35.89,1,1.15.89,1.49s-1.61.33-1.93.3a4.75,4.75,0,0,1-1.86-.53c-.43-.23-.6-.42-.7-.37a2.47,2.47,0,0,0,1.19,1.79c1.11.6,2.45-.07,2.53.15s-.43.4-1.64,1c-2.28,1.2-2.61,1.29-3,1.34-1.12.14-1.85-.22-1.93,0s.56.82,1.34,1,1.41-.12,1.64.15c.39.41-.41,1.73-.75,2.38-1,2-.91,3.92-.75,6.55a18.38,18.38,0,0,0,4,9.84c1.79,2.43,2.86,4.28,4.77,4.77.34.09,1.15.25,1.19.6s-1,1-2.11,1.19c-2.35.41-4.22-1.35-4.46-1s.7,1.17,1.64,1.79a5.9,5.9,0,0,0,2.38.89c1.54.22,2.59-.24,2.68,0s-.53.65-1.19.89a7.42,7.42,0,0,1-2.38.15c-.06.15,1.09.7,1.49.89a8.24,8.24,0,0,0,2.38.89c1.67.08,2.75-1.41,3.13-1,.22.2.06.87-.3,1.34-1,1.29-3.35.77-3.42,1.19,0,.21.53.58,1.64.89a12.66,12.66,0,0,0,6.55-.15C226,226.46,242.38,198,239.34,196.12Z"
                      transform="translate(-140 -108.04)"/>
                <path class="cls-6"
                      d="M227.57,200.73a39.38,39.38,0,0,0-6.57,7.89,34.22,34.22,0,0,0-3.72,9.53A51.33,51.33,0,0,0,216,231.7c0,7,0,10.46.3,12.35a13.18,13.18,0,0,1-.15,4.92,8.44,8.44,0,0,1-1.65,3.73,8.1,8.1,0,0,1-3.87,2.53,11.62,11.62,0,0,1-6.1.15c-2.57-.51-4-1.48-4.32-1s.66,1.55,1.34,2.38a15.91,15.91,0,0,0,3.68,3.28c1.86,1.17,3.2,1.55,3.13,1.79s-1.94,0-2.81-.13l-.79-.16c-2-.49-3-1.16-3.13-1a11.14,11.14,0,0,0,4.46,3.13,15.36,15.36,0,0,0,3.87,1c4.17.58,7.07-.61,7.29,0s-1.48,1.5-1.93,1.79c-2.59,1.6-4.74,1.61-4.77,2.24,0,.32.56.59,2.11,1.19a43.4,43.4,0,0,0,5.34,1.93c3.39.7,5.43,0,5.63.75s-1,1.41-1.49,1.79c-3.32,2.4-7.14,2.11-7.14,2.53s1.67.7,3.57.75c.7,0,5.74,0,9.08-3.13.35-.34,1.12-1.11,1.19-1a21.16,21.16,0,0,0-1.47,2.53,6.86,6.86,0,0,0-.6,2.24c-.12,1.51.34,3.12.75,3.13s.3-.77.75-1.64c1-2.06,3.4-2.81,4.32-3.13a9.76,9.76,0,0,1,5.51,0c7,1.76,15.38,1.65,28.43,1.49a39.2,39.2,0,0,0,7.73-1.19c4.68-1.12,5.77-2.11,6.25-3.13.62-1.26.36-2.66,1.19-3,.37-.13.56.08,1.93.6a23.82,23.82,0,0,0,3,.89c.35.08,2,.5,2.11.3s-.89-.35-1.49-1.19c-.7-1-.58-2.45-.3-2.53s.37.66,1.19,1.34,2.16,1,2.38.75-.34-.62-.75-1.79c-.2-.59-.53-1.53-.15-1.93s1-.13,1.64,0a13.23,13.23,0,0,0,4,0c2.62-.37,4.92-2.11,4.77-2.68-.08-.25-.54-.1-1.34-.45-1.24-.54-2.39-1.89-2.11-2.68.22-.56,1.17-.84,1.93-.75,1.41.19,2.07,1.71,2.53,1.49s.2-1.41.15-1.64c-.35-1.93-1.57-2.55-1.34-3.28s1.17-.65,3.28-1c2.7-.5,4.4-.82,5.81-1.64a6.47,6.47,0,0,0,3-3.28,6.1,6.1,0,0,1-2.24,1.34c-1.4.3-3-.4-3-.75s.83-.18,2.24-.6c2-.6,3.66-1.72,3.57-1.93s-.83.2-2.68.45a8.3,8.3,0,0,1-3.28,0c-.59-.15-1.46-.28-1.49-.6s1.58-.7,3.13-1.49a11.19,11.19,0,0,0,3.87-3.57c2.55-3.33,3.69-7.62,3-8-.27-.16-.59.37-1.79.89a9.72,9.72,0,0,1-11.76-4.17,35.09,35.09,0,0,1-3.49-8.2,64.64,64.64,0,0,0-5.81-13.25c-2.35-4.39-4-7.44-7.14-10.72a36.51,36.51,0,0,0-14.44-8.93,40.23,40.23,0,0,0-15-1.79C248.74,190.32,234,194.62,227.57,200.73Z"
                      transform="translate(-140 -108.04)"/>
                <path class="cls-2"
                      d="M206.13,256.7c.13-.36,1.06-.11,2.68-.3a12.09,12.09,0,0,0,4.77-1.64c2.33-1.52,3.21-4.28,3.72-6.4,2-8,1.15-13.76,1.93-22.5.44-4.85.75-8.19,2.24-12.35a31,31,0,0,1,8.78-13.7,30,30,0,0,1,6.7-4.32,43,43,0,0,1,14.59-4c4.77-.49,11.25-1.16,18.61,1.79a33.27,33.27,0,0,1,11.17,7.45c6.16,6,9,13.23,10.87,17.87a107.31,107.31,0,0,0,4.32,10.4c2.14,4.54,3.57,6.75,6.1,8.34a10,10,0,0,0,5.63,1.79c3-.1,5.11-1.87,5.51-1.34s-1.14,2.11-1.49,2.53a16.88,16.88,0,0,1-5.81,4.17c-3.88,1.66-6.45,1.33-6.55,2.24-.08.7,1.41,1.69,2.68,1.93,1,.18,1.71-.08,1.79.15s-.75.86-1.64,1.19c-1.46.55-2.62.2-2.68.45s1,.79,2.24,1.19c2.31.76,4,.6,4,.89s-1.06.64-2.38.89c-4,.76-6.92-.33-7.14.3-.1.27.42.49,1.19,1.49,1,1.28,1.7,3,1.34,3.28s-.81-.47-2.11-.75c-.16,0-2.52-.51-3.42.75a2.74,2.74,0,0,0,0,2.68c1,1.93,3.63,2,3.57,2.68s-1.78,1-3.28,1c-2.93.15-4.42-1-5.36-.15a2.57,2.57,0,0,0-.6,1.79c0,1.22.78,1.92.6,2.11s-1.48-.48-1.93-1.64c-.34-.86,0-1.53-.3-1.64s-1.34.79-1.49,1.93c-.2,1.6,1.41,2.69,1,3.13s-1.83-.08-3-.89-1.41-1.6-1.93-1.49-.55.89-1,1.79a7.34,7.34,0,0,1-2.81,2.38,40.12,40.12,0,0,1-28.58,2.53,45.12,45.12,0,0,0-11.58-1.7,10.6,10.6,0,0,0-4.61.89c-2.39,1.13-3.55,3-4,2.68s-.08-1.54.6-2.53c1.17-1.71,3.19-2,3.13-2.24s-2-.23-4.17.6c-2.74,1-4,2.68-4.32,2.38s.36-2.11,1.79-3.13c1.07-.77,2.11-.74,2.11-1s-1.93-.75-3.42-.89c-2.35-.22-2.81.14-4.77,0-2.62-.19-5-1.08-4.92-1.49s1,0,2.38-.75a6.52,6.52,0,0,0,2.38-2.38c.7-1,1.61-2.4,1.19-3s-2,.25-5.21.75-6.07.29-6.1,0,.7-.27,2.38-.89c1.51-.58,2.88-1.1,2.81-1.49s-1.69-.19-3.87-.89C208,258.91,205.93,257.29,206.13,256.7Z"
                      transform="translate(-140 -108.04)"/>
                <path class="cls-7"
                      d="M223.85,238.39c.3-.7.84-1.41,3.57-3a59.91,59.91,0,0,1,8.18-3.87c5.58-2.37,8.44-3.59,9.68-5.36,1.84-2.55,1.75-5.23,3.13-5.36,1-.1,2,1.41,2.68,2.38a12.41,12.41,0,0,1,1.79,5.36c.6,4.18,0,6.76.45,6.85s1.31-1.87,1.79-4c.82-3.76-.46-5,.6-7.59a7.18,7.18,0,0,1,3.57-3.87c1-.42,2.43-.65,6.25.6a44.46,44.46,0,0,1,9.23,4.46c4.37,2.57,6.59,3.88,8,5.63s3.38,4.13,3,7.14c-.48,3.64-4.22,5.7-6.25,6.85-1,.56-6.93,3.85-12.8,1.79-3.21-1.13-5.63-3.6-6.85-2.68a2.31,2.31,0,0,0-.6,1.64c-.14,1.83,1.24,2.67.89,3.72-.2.6-.8.82-2.11,1.34-4.61,1.89-5.67,2.78-6.25,2.24-.2-.19-.2-.43,0-2.68.24-2.73.34-3.52.15-3.57s-.58,1-1.34,2.11a9.58,9.58,0,0,1-4.77,3.28,14,14,0,0,1-6.7.45c-3.21-.4-8.29-1-12.06-5.06C226.69,246.71,222.32,241.94,223.85,238.39Z"
                      transform="translate(-140 -108.04)"/>
                <path class="cls-5"
                      d="M225.93,237.84c.39-.94,2.23-1,3.28-1s3.28-1.11,7.45-3.13c5-2.4,7.45-3.61,8.63-5.21.7-.94,1-1.73,1.79-1.79,1.93-.14,3.66,4.92,3.87,5.51a17.15,17.15,0,0,1,.77,7.3c-.26,2.34-.51,4.62-2.24,6.4-1.24,1.29-2.64,1.67-4.77,2.24-2.63.7-8.68,2.29-11.91-.75a12.4,12.4,0,0,1-2.53-3.57c-.64-1.46-.53-2.11-1.34-2.81-1-.86-2-.6-2.68-1.64A1.83,1.83,0,0,1,225.93,237.84Z"
                      transform="translate(-140 -108.04)"/>
                <path class="cls-2"
                      d="M237.55,240.18c0-.25,1.28-.77,3.87-1.79,3.8-1.49,4.47-1.55,4.92-1.19a2.47,2.47,0,0,1,.15,3C244.79,242.84,237.66,241.24,237.55,240.18Z"
                      transform="translate(-140 -108.04)"/>
                <path class="cls-5"
                      d="M257.5,234a18.32,18.32,0,0,1,.15-4.92c.27-2.71.42-4.09,1-5.06a6.33,6.33,0,0,1,3.57-2.68c.6-.15,2-.39,6.4,1.64a47.23,47.23,0,0,1,5.63,3.13c3.88,2.45,5.85,3.73,7.29,6a6.75,6.75,0,0,1,1.49,4.77,6.23,6.23,0,0,1-2.68,3.87c-3.68,3.1-8.28,3.21-11,3.28-2.19,0-3.47.08-5.06-.6a11.28,11.28,0,0,1-5.06-4.92A12.21,12.21,0,0,1,257.5,234Z"
                      transform="translate(-140 -108.04)"/>
                <path class="cls-2"
                      d="M264.18,233a3.44,3.44,0,0,0-.13,2.81,4.16,4.16,0,0,0,2.07,2.33c1.7.79,3.45,0,4.52-.51a9.14,9.14,0,0,0,2.71-2.07c.75-.7.77-.94.77-1,0-1.15-2.81-2.31-5.17-2.58C267.63,231.84,265.16,231.6,264.18,233Z"
                      transform="translate(-140 -108.04)"/>
                <path class="cls-7"
                      d="M279.23,255.66s.23.34,1.93,3a2.87,2.87,0,0,1,.6,1.64,2.31,2.31,0,0,1-.45,1.34c-.81,1-2.39.89-2.38,1a2.81,2.81,0,0,0,2.81-.3,2.94,2.94,0,0,0,1-1.93C283,257.84,279.36,255.51,279.23,255.66Z"
                      transform="translate(-140 -108.04)"/>
                <path class="cls-5"
                      d="M250.5,252.24a3,3,0,0,0,.15,1.34,4.11,4.11,0,0,0,1,2.24,3.42,3.42,0,0,0,.89.6c2.36,1,9.39-3,9.68-3.28.78-.92-.15-2.94-.45-3.57s-.4-1.52-.89-1.49C258.24,248.22,251.25,250.9,250.5,252.24Z"
                      transform="translate(-140 -108.04)"/>
                <path class="cls-2"
                      d="M253.62,251.2c.41-.77,1.15-.4,3.42-1.49a5.11,5.11,0,0,1,2.24-.75,2.35,2.35,0,0,1,1.34.3c.43.26,1,.83.89,1.34s-.92.8-1.64,1c-4.06,1.36-4.92,2.55-5.81,1.93A2,2,0,0,1,253.62,251.2Z"
                      transform="translate(-140 -108.04)"/>
                <path class="cls-8"
                      d="M275.06,260a2,2,0,0,1,.15,1.64c-.09,0-.16-.54-.6-.75a1,1,0,0,0-.75,0,10,10,0,0,0-3.72,2.11c-.3.29-2.11,1.53-5.63,4-2.29,1.6-3.71,2.47-5.36,2.38a4.31,4.31,0,0,1-1.79-.45,6.87,6.87,0,0,1-1.93-1.79c-.34-.39-.8-.92-1.31-1.57a5.63,5.63,0,0,0,1.17-.07,6.67,6.67,0,0,0,2.81-1.19,8.26,8.26,0,0,0,1.92-2.36,7.57,7.57,0,0,0,1.06.86,6.5,6.5,0,0,0,3.13,1.34,5.78,5.78,0,0,0,3.57-.89c1.15-.7,1.1-1.24,3.13-3,1.2-1,1.59-1.16,1.93-1.19a2.9,2.9,0,0,1,2.21.86Z"
                      transform="translate(-140 -108.04)"/>
                <path class="cls-9"
                      d="M254.1,265.56c.52.65,1,1.18,1.31,1.57a6.87,6.87,0,0,0,1.93,1.79,4.31,4.31,0,0,0,1.79.45c1.65.08,3.07-.79,5.36-2.38,3.57-2.49,5.36-3.73,5.63-4a10,10,0,0,1,3.72-2.11,1,1,0,0,1,.75,0c.44.2.51.77.6.75A2,2,0,0,0,275,260h0"
                      transform="translate(-140 -108.04)"/>
                <path class="cls-9"
                      d="M248.86,264a14.77,14.77,0,0,0,2.68,1,11.24,11.24,0,0,0,2.55.51,5.63,5.63,0,0,0,1.17-.07,6.67,6.67,0,0,0,2.81-1.19,8.26,8.26,0,0,0,1.92-2.36h0"
                      transform="translate(-140 -108.04)"/>
                <path class="cls-9"
                      d="M256.75,254.77c.6,1.53,1,2.75,1.34,3.57s.45,1.28.65,1.75a5.56,5.56,0,0,0,.83,1.41c.15.18.29.33.43.47a7.57,7.57,0,0,0,1.06.86,6.5,6.5,0,0,0,3.13,1.34,5.78,5.78,0,0,0,3.57-.89c1.15-.7,1.1-1.24,3.13-3,1.2-1,1.59-1.16,1.93-1.19a2.9,2.9,0,0,1,2.21.86"
                      transform="translate(-140 -108.04)"/>
                <path class="cls-5"
                      d="M233.09,260.73a4.53,4.53,0,0,0,0,2.11c.39,2.41,1.22,3.52,2.11,6a18,18,0,0,1,.89,3.28,19,19,0,0,1-.3,6.55,39.17,39.17,0,0,1-1.49,5.63c-2.31,6.9-4,8.5-3.28,9.53,1.15,1.51,6.44-.06,10.13-2.53a20.39,20.39,0,0,0,7.73-10.55,18.62,18.62,0,0,0,.3-12.66,17.42,17.42,0,0,0-7.45-8.78c-1.41-.79-4-2.24-6.25-1.19A4.63,4.63,0,0,0,233.09,260.73Z"
                      transform="translate(-140 -108.04)"/>
                <path class="cls-5"
                      d="M248.57,272.64c.79.18,1.21.91,3,1.49a10.32,10.32,0,0,0,3.87.45,36.36,36.36,0,0,0,9.53-2.11,36.83,36.83,0,0,1,7.59-1.93,7.24,7.24,0,0,1,4.61.6,4.65,4.65,0,0,1,2.38,2.81,4.44,4.44,0,0,1-.45,3,7.4,7.4,0,0,1-3.42,3.28A112.15,112.15,0,0,1,263,285.74c-8.6,3-8.13,4-12.06,4.46-2.16.25-9.28,1.1-11.46-2.38C236.37,282.84,245,271.84,248.57,272.64Z"
                      transform="translate(-140 -108.04)"/>
                <path class="cls-5"
                      d="M232.19,296.45a8.14,8.14,0,0,1-.15-3.28c.6-3.26,4.08-5.79,10.42-8.63,8.35-3.75,16.62-7.46,24.27-4.61,1.36.51,4.61,1.72,5.21,4.32a5.8,5.8,0,0,1-1,4.17c-1.71,2.66-4.56,3.59-6.7,4.32-5,1.71-9.79,4-14.77,5.81-8.38,3.1-10.33,4.11-12.8,3A8.39,8.39,0,0,1,232.19,296.45Z"
                      transform="translate(-140 -108.04)"/>
                <path class="cls-5"
                      d="M243.2,296.29c10.11-5.93,14.64-4.31,22.63-7a3.62,3.62,0,0,1,3,0c1.24.77,1.31,2.68,1.34,3.28a7,7,0,0,1-1.49,4.46c-1.69,2.18-4.22,2.81-6.4,3.28a151.34,151.34,0,0,1-17.27,3c-9,.84-9.92.53-10.13,0C234.22,301.59,241.17,297.49,243.2,296.29Z"
                      transform="translate(-140 -108.04)"/>
                <path class="cls-4"
                      d="M233.68,363.14a19.89,19.89,0,0,0,9.38-12.66,20.33,20.33,0,0,0,.45-5.06c0-13.52.06-20.28,0-23.67-.23-14.21,0-18.23-.89-18-4.46,1-11.17-9.53-10.72-13.25.27-2.23-4.1,2.37-6.7,8.63-1,2.54-1.11,3.14-2.81,8.34-2.39,7.35-3.69,11.09-5.63,14.57-1.73,3.07-1.68,2.14-4.46,6.7s-4.78,7.87-6,12.35"
                      transform="translate(-140 -108.04)"/>
                <path class="cls-4"
                      d="M298.74,292.59a23.24,23.24,0,0,1,3.57-6c1.48-1.63,2.11-1.7,4.32-4.17.83-.94,1-1.25,1.49-1.34,2.24-.41,5.08,5.5,5.81,7a48.47,48.47,0,0,1,4,13.7c1.34,7.89.7,9.14,2.11,16.82.44,2.41,1.09,5,2.38,10.13,3.19,12.72,4.08,14,4.46,18.91s.7,9.18-1.79,13.55c-.7,1.27-3.14,5.58-7.89,7-6.86,2-14.25-3.19-17.58-8.34-1.82-2.81-2.36-6-3.42-12.5-.5-3-.46-3.83-1.19-12.8-.91-11-1.08-11.1-1.19-14.89-.18-6.06-.27-9.43.6-14.14A50.81,50.81,0,0,1,298.74,292.59Z"
                      transform="translate(-140 -108.04)"/>
                <path class="cls-9"
                      d="M291.14,301.52a26.78,26.78,0,0,0-.89,6.55,19.27,19.27,0,0,0,1.19,7.73,17,17,0,0,0,1.34,2.68"
                      transform="translate(-140 -108.04)"/>
                <path class="cls-9" d="M294.72,320.9a15,15,0,0,1,3.41-8.82" transform="translate(-140 -108.04)"/>
                <path class="cls-9" d="M297.69,304.5a18.1,18.1,0,0,0-3.57,11.61" transform="translate(-140 -108.04)"/>
                <path class="cls-10"
                      d="M226.76,300.4c.54,0,.39,1.69,2.11,3.72a9.36,9.36,0,0,0,4,2.81c3.11,1.07,5.33-.33,6.1.75.13.18.23.55-.89,3.57-.53,1.41-.79,2.11-1.19,3a76.84,76.84,0,0,0-3.42,10.87,177.38,177.38,0,0,1-7.14,21.59,20.25,20.25,0,0,1-4.32,6.7c-1.69,1.72-3.93,4-7,3.87-3.35-.13-5.52-3-5.81-3.42-2.88-4-1.41-9.32-.45-12.66.23-.79,1-3.52,4.46-9.23,3.3-5.46,4.79-6.65,6.7-9.68C226.41,312,225.33,300.32,226.76,300.4Z"
                      transform="translate(-140 -108.04)"/>
                <path class="cls-5"
                      d="M257.34,347.67a22.68,22.68,0,0,0-8.93-5.36c-3.9-1.46-4.89-1-7.59-2.68a20.76,20.76,0,0,1-4.61-4c-2.45-2.88-2.46-4.52-4.77-5.81a5.33,5.33,0,0,0-4-.75c-2,.58-2.91,2.6-3.28,3.42a9.74,9.74,0,0,0,0,7.14c1.12,3,3.26,4.64,6.25,6.85,1.62,1.2,2.59,1.69,8.49,4.77,7.59,4,7.63,4,8.18,4.17,5.32,1.67,12.58,1.54,13.7-1.19C261.63,352.13,258.68,349,257.34,347.67Z"
                      transform="translate(-140 -108.04)"/>
                <path class="cls-5"
                      d="M232.93,346.18c-.84,1.08-.66,2.25-2.38,4.92a20.31,20.31,0,0,1-4.14,4.61c-1.13.92-4.73,4.48-10.13,5.06-4.18.45-6.1.3-6.55-.3-.57-.76-.1,2.33,1,3.57a13.3,13.3,0,0,0,4.46,3.28,10.27,10.27,0,0,0,6.25,1.19c.15,1,1.41,2.17,3,2.81a8.77,8.77,0,0,0,7.73-.45,5.34,5.34,0,0,0,2.53,1.49c1.93.6,3.68.59,9.68-1.93,5.56-2.34,8.35-3.52,10.55-5.81a17.71,17.71,0,0,0,3.72-5.63,11.9,11.9,0,0,0,1-4.32C259.33,347.43,237.14,340.84,232.93,346.18Z"
                      transform="translate(-140 -108.04)"/>
                <path class="cls-4"
                      d="M324.42,362.33c-1.28,3.14-5.46,5.49-10.94,7.66-7.31,2.9-14.67,3.57-43.32.15-9-1.08-16.88-4.36-14-7,3.28-3,3.87-13.25-.45-17-1.22-1,2.81-.88,6.85-1.19a37.39,37.39,0,0,0,8.78-1.93c9.68-2.94,14.51-4.41,18.76-4.92a34.23,34.23,0,0,1,11.76.15"
                      transform="translate(-140 -108.04)"/>
                <path class="cls-9"
                      d="M309.45,324.84a16.91,16.91,0,0,0-6.1,3.13,17.29,17.29,0,0,0-3.71,4.22c-1.17,1.79-2,3.71-1.8,3.85s1.65-2.81,4.77-4.46a10.55,10.55,0,0,1,4.77-1.19"
                      transform="translate(-140 -108.04)"/>
                <path class="cls-9"
                      d="M300.38,336.84a25.16,25.16,0,0,1,5.36-.45c2.81.07,6.56.09,10.13,2.38a14.06,14.06,0,0,1,3.42,3.13"
                      transform="translate(-140 -108.04)"/>
                <path class="cls-9" d="M302.6,334.41a12.75,12.75,0,0,1,8.93-.6" transform="translate(-140 -108.04)"/>
                <path class="cls-9"
                      d="M268.07,292.73a28.74,28.74,0,0,0,7-1.79,28.07,28.07,0,0,0,10.55-7.29,19.69,19.69,0,0,0,4.75-8.19,17.69,17.69,0,0,0,.6-3.87"
                      transform="translate(-140 -108.04)"/>
                <path class="cls-9" d="M274.54,285.22q.41.87.89,1.79t.89,1.64" transform="translate(-140 -108.04)"/>
                <path class="cls-9" d="M278,283.58l1.64,2.11.75.89" transform="translate(-140 -108.04)"/>
                <path class="cls-9" d="M281.39,281.64a13.11,13.11,0,0,0,2.81,1.49" transform="translate(-140 -108.04)"/>
                <path class="cls-9" d="M284.22,278.66a22.37,22.37,0,0,1,2.38.15l1.19.15"
                      transform="translate(-140 -108.04)"/>
                <path class="cls-9" d="M286.45,275.39a16.72,16.72,0,0,0,1.79-.3c.42-.09.82-.19,1.19-.3"
                      transform="translate(-140 -108.04)"/>
                <path class="cls-9" d="M272.46,290.28,271,285.67" transform="translate(-140 -108.04)"/>
                <path class="cls-9"
                      d="M227.5,296.53a11.57,11.57,0,0,0,3.57,6.25,12.19,12.19,0,0,0,4.46,2.38,15.42,15.42,0,0,0,5.63.75"
                      transform="translate(-140 -108.04)"/>
                <path class="cls-9" d="M228.4,296.68a10.6,10.6,0,0,1,2.11-3.57" transform="translate(-140 -108.04)"/>
                <path class="cls-9" d="M229.58,298.91a5.17,5.17,0,0,1,.75-2.38,5.11,5.11,0,0,1,1.19-1.34"
                      transform="translate(-140 -108.04)"/>
                <path class="cls-9" d="M231.22,300.54a6.64,6.64,0,0,1,1.49-3" transform="translate(-140 -108.04)"/>
                <path class="cls-9" d="M232.86,301.74l.89-1.93" transform="translate(-140 -108.04)"/>
                <path class="cls-9" d="M235,303.23l1.19-1.64" transform="translate(-140 -108.04)"/>
                <path class="cls-9" d="M236.88,304.42l1-1.19" transform="translate(-140 -108.04)"/>
                <path class="cls-9"
                      d="M261.3,346a6.33,6.33,0,0,1,1.64.89c1.76,1.34,2.25,3.29,2.68,5.06a15.38,15.38,0,0,1-.3,8.34,8.27,8.27,0,0,1-2.11,3.72,7.58,7.58,0,0,1-3.87,1.93"
                      transform="translate(-140 -108.04)"/>
                <path class="cls-9" d="M257.87,346.25l1.79.3,1.93.3" transform="translate(-140 -108.04)"/>
                <path class="cls-9" d="M258.62,348h3.72" transform="translate(-140 -108.04)"/>
                <path class="cls-9" d="M259.36,349.84c.56.07,1.15.12,1.79.15h2.24" transform="translate(-140 -108.04)"/>
                <path class="cls-9" d="M260.1,352.51a16.88,16.88,0,0,0,4.17-.3" transform="translate(-140 -108.04)"/>
                <path class="cls-9" d="M259.8,354.59a6.15,6.15,0,0,0,4.32.45" transform="translate(-140 -108.04)"/>
                <path class="cls-9" d="M260,357.27h1.93a13.08,13.08,0,0,1,1.79.15" transform="translate(-140 -108.04)"/>
                <path class="cls-9" d="M259.51,359.84a3.33,3.33,0,0,1,3.42.75" transform="translate(-140 -108.04)"/>
                <path class="cls-9" d="M258.46,361.73a3.34,3.34,0,0,1,2.68,1.79" transform="translate(-140 -108.04)"/>
                <path class="cls-9" d="M257.27,363.22a3.28,3.28,0,0,1,1.49.89,3.21,3.21,0,0,1,.6.89"
                      transform="translate(-140 -108.04)"/>
                <path class="cls-11"
                      d="M254.14,276.6c1.41-.9,1.69-.63,6.55-1.93,4.45-1.2,6.67-1.79,7.89-2.24a11.08,11.08,0,0,1,4.77-.89c1,.06,2.44.15,2.81,1s-.92,2.38-1.49,3c-1.79,1.86-4.22,3.12-11,4.92-3.69,1-5.82,1.35-5.81,1.93s1.61.9,2.68,1c4.25.56,7.23-2.06,8.34-.89a1.89,1.89,0,0,1,.3,1.49c-.06.51-.32,1.41-1.93,2.53a13.76,13.76,0,0,1-4.61,1.93c-3.71,1.07-4.87,1.15-4.92,1.64s1.77,1.52,3.57,1.79c3.3.49,5.32-1.29,6.25-.3a2.26,2.26,0,0,1,0,2.38c-.7,1.24-2.26,1.5-3.72,1.79-4.32.85-1.46.79-8.34,2.24-1.83.38-3.8.7-7.73,1.34s-4.86.7-6.1.3a8.86,8.86,0,0,1-4.32-3.72,10.69,10.69,0,0,1-1.93-6.1c0-2.17.82-2.36,1.93-6.4a36.68,36.68,0,0,0,1.19-6.4c.32-3.45.47-5.17-.15-7.14-1.34-4.22-4.74-5.2-4.32-8a3.52,3.52,0,0,1,1.64-2.53c1.82-1,4.35.65,6.1,1.79a13.25,13.25,0,0,1,3.72,3.42,13.06,13.06,0,0,1,2.38,6,10.88,10.88,0,0,1-.6,6c-.93,2.14-2.29,2.93-1.93,3.57S252.28,277.84,254.14,276.6Z"
                      transform="translate(-140 -108.04)"/>
                <path class="cls-11"
                      d="M228.09,330.17c-.43.46.46,1.92,1.49,3.57,1.74,2.81,3,4.78,5.21,6.4,3.78,2.73,6.43,1.53,7.29,3.42.79,1.72-.83,3.92-3.87,8s-5.34,7.26-9.7,9.68c-3.08,1.72-5.63,2.19-5.51,2.81s3.27.88,6,.6c6-.64,9.65-3.65,10.27-2.81.39.52-.7,2.24-1.93,3.28-1.73,1.41-3.57,1.41-3.57,1.93s1.58,1.09,3.28,1.19c4.7.27,8.37-3.45,8.63-3.13s-3.27,2.81-3,3.28c.07.12.44.23,4.17-1.34s5.72-2.41,6.85-3.57a11,11,0,0,0,2.68-4.77,12.86,12.86,0,0,0,0-6.4A11.78,11.78,0,0,0,254,346.5c-1.41-1.62-2.94-2.24-5.63-3.28-5.24-2-6.18-.83-8.93-2.68a16.7,16.7,0,0,1-4.77-5.06c-.86-1.45-1.12-2.42-2.38-3.57C230.76,330.58,228.59,329.64,228.09,330.17Z"
                      transform="translate(-140 -108.04)"/>
                <path class="cls-10"
                      d="M250.87,313.5s.58,0,7.89-.89a38.29,38.29,0,0,0,13.7-4.77c4.5-2.41,8-4.3,10.72-8.34a39.2,39.2,0,0,0,3.57-7.43c.78-2,1.28-3.58,2.24-6.7,2.46-8,2.54-9.71,4.17-10.42,1.44-.63,3.09,0,6.4,1.34,3,1.17,4.43,1.76,4.77,3,.53,2-2.31,3.47-5.63,8a38.45,38.45,0,0,0-4.32,7.89c-2.81,7.25-1.41,13.54-1.79,13.55s-1.25-5.15-.75-11.46c.32-4.06,1.31-6.62,1-6.7s-2.45,4.74-3.87,10a35.77,35.77,0,0,0-1.64,9.38c-.07,3.37-.13,6.28,1.34,9.38a15.34,15.34,0,0,1,1.49,3.42c.57,2.25,0,2.94.3,5.51.39,3.52,1.69,4.33,1,5.51-.76,1.41-3.08,1.2-6.1,1.49-.5,0-3.8.93-10.42,2.68-10.64,2.81-12,3.45-15.78,3.57-3.2.11-5.88-.23-8.34-1.79-2.07-1.31-4.06-3.52-3.57-4.46s3.94.7,9.08-.3c2.81-.53,5.76-1.82,5.63-2.68s-3.19-.49-7.59-2.24a15.38,15.38,0,0,1-6-3.57c-3.52-3.75-4.47-10.39-2.11-12.35C247.16,313.47,247.83,313.66,250.87,313.5Z"
                      transform="translate(-140 -108.04)"/>
                <path class="cls-10"
                      d="M296.72,302.49c1.06-1.93.94-2.45,1.93-4.92a47.88,47.88,0,0,1,2.81-5.51c2.77-4.92,3.79-5.83,4.77-6.4a4.19,4.19,0,0,1,3-.89c1.34.29,2.69,1.79,4.17,7.89a66.58,66.58,0,0,1,1.6,10.72,120.07,120.07,0,0,0,2.81,18.76c1.17,4.8,2.6,8.94,3.42,11.31a95.69,95.69,0,0,1,3.42,11.46c.7,3.28.89,4.88.75,4.92a22.15,22.15,0,0,0-3.42-8,15.86,15.86,0,0,0-7-5.36c-3.9-1.45-7.12-.65-7.14-1s3.14-1.36,6.7-1c2.24.2,3.63.83,3.72.6s-2.11-2-5.06-2.68c-3.27-.77-6,0-6.1-.3s4.22-1.15,4.17-1.93c0-.58-2.48-1.1-4.77-.89a31.62,31.62,0,0,0-3.42.75,17.69,17.69,0,0,1,5.36-2.81c4.26-1.6,7-1.51,7-2.24s-2.29-1.41-4.17-1.64a11.53,11.53,0,0,0-5.63.89c-4,1.69-5.53,4.71-6.55,4.17-.49-.25-.39-1.07-.45-2.68-.15-4.75-1.15-5.1-.89-7.14.58-4.56,6-6.19,5.36-7.73-.47-1.08-3.58-1.27-5.51,0a8.35,8.35,0,0,0-2.11,2.53,13.17,13.17,0,0,1,2.24-5.21c2.61-3.91,6-5.54,5.81-6s-6.8,2.92-7.45,1.93C296,303.72,296.27,303.32,296.72,302.49Z"
                      transform="translate(-140 -108.04)"/>
                <path class="cls-10"
                      d="M264.72,345.84c-.13.63.86.76,1.93,2.53,1.31,2.15,1.41,4.5,1.49,7.29.08,2.44-.2,2.36,0,3,.63,1.93,3.75,3.43,17,3.72a139.93,139.93,0,0,0,22.5-1.34c9.65-1.31,12.26-2.5,13.4-4.77,1.25-2.48.37-5.47-.3-7.73a15.43,15.43,0,0,0-5.51-8.34c-4.63-3.45-10.17-3.21-10.27-2.81-.06.22,1.69.46,3.87,1.93,3.52,2.38,5.58,6.21,5.06,6.7s-2.11-1.51-6.1-3.57a29.62,29.62,0,0,0-8.49-3,27.37,27.37,0,0,0-10.55.3c-5.37,1.09-5.15,2.48-10.42,3.87C270.89,345.51,265.08,344.24,264.72,345.84Z"
                      transform="translate(-140 -108.04)"/>
                <path class="cls-10"
                      d="M230,282.23c-1.64,0-3.09,1.78-5.63,6.85a90.57,90.57,0,0,0-5.07,11.76c-2.35,7.26-1.91,8-3.42,12.5-3.49,10.37-8.88,16-8.37,16.38s5.23-4.1,8.63-10.72c1.18-2.29,2-4.92,3.72-10.13,3.65-11.25,2.76-11.36,4.61-14,4-5.63,5.93-8.44,6.55-8.93.37-.32,1.54-1.29,1.34-2.24A2.4,2.4,0,0,0,230,282.23Z"
                      transform="translate(-140 -108.04)"/>
            </g>
        </g>
    </g>
</svg>