<svg xmlns="http://www.w3.org/2000/svg" viewBox="0 0 693 693">
    <defs>
        <style>
            .cls-1{fill:#fff;stroke:#00c5db;stroke-miterlimit:10;stroke-width:20px;}.cls-2{fill:#544b3f;}.cls-3{fill:#7e7e7f;}.cls-4{fill:#a3a4a8;}.cls-5{fill:#ced8f2;}.cls-6{fill:#11113f;}
        </style>
    </defs>
    <title>search</title>
    <g id="Слой_2" data-name="Слой 2">
        <g id="Слой_1-2" data-name="Слой 1">
            <circle class="cls-1" cx="346.5" cy="346.5" r="336.5"/>
            <polygon class="cls-2" points="397.24 427.26 500.24 533.26 532.24 500.26 426.24 395.26 397.24 427.26"/>
            <polyline class="cls-3" points="367.24 395.26 399.24 367.26 426.24 395.26 392.24 427.26 367.24 395.26"/>
            <polygon class="cls-4" points="342.24 366.26 367.24 346.26 392.24 371.26 367.24 395.26 342.24 366.26"/>
            <circle class="cls-5" cx="274.24" cy="275.26" r="106"/>
            <path class="cls-6"
                  d="M211.44,211.63a88.48,88.48,0,0,0-18,98.92,8.08,8.08,0,0,0,15-6h0l-.36-.72a72.77,72.77,0,0,1,14.82-81,8.06,8.06,0,1,0-11.4-11.4h0Z"/>
            <path class="cls-6"
                  d="M354.64,237.78a8.08,8.08,0,0,0-15,6l.36.78a72.77,72.77,0,0,1-14.82,81,8.06,8.06,0,0,0,11.4,11.4h0a88.48,88.48,0,0,0,18-98.92Z"/>
            <path class="cls-6"
                  d="M534.67,489.32,433.24,387.94h0L411.58,366a16,16,0,0,0-11.34-4.68,16.2,16.2,0,0,0-4.14.54l-21.48-21.48a120.4,120.4,0,1,0-34.08,34.14L362,396a16.26,16.26,0,0,0-.54,4.14,16,16,0,0,0,4.68,11.4l21.6,21.6h0L489.13,534.55a16.08,16.08,0,0,0,22.74,0l22.74-22.74a16.08,16.08,0,0,0,0-22.74ZM347.92,348.05A103.84,103.84,0,1,1,349,347Zm6,17,5.58-5.58h0l5.58-5.58,18,18-11.16,11.52Zm24,35.27,22.74-22.74,15.9,15.9-22.74,22.74ZM500.59,523.45h0l-96-96,22.74-22.74,96,96Z"/>
        </g>
    </g>
</svg>