<svg xmlns="http://www.w3.org/2000/svg" viewBox="0 0 720 720">
    <defs>
        <style>
            .cls-1{fill:#fff;}.cls-2{fill:#cec89f;}.cls-3{fill:#f9f6d7;}.cls-4{fill:#473c35;}.cls-5{fill:#cacae8;}.cls-6{fill:#11113f;}
        </style>
    </defs>
    <title>searching</title>
    <g id="Слой_2" data-name="Слой 2">
        <g id="Layer_1" data-name="Layer 1">
            <circle class="cls-1" cx="360" cy="360" r="360"/>
            <polygon class="cls-2" points="463.86 511.9 534.03 513.41 470.65 582.08 463.86 511.9"/>
            <polygon class="cls-3"
                     points="209.57 128.59 540.06 128.59 540.06 513.41 468.38 513.41 462.34 589.63 209.57 593.39 209.57 128.59"/>
            <polygon class="cls-4" points="257.1 413.81 285.02 446.26 174.11 553.41 147.69 525.49 257.1 413.81"/>
            <circle class="cls-5" cx="377.41" cy="324.18" r="105.96"/>
            <path class="cls-6"
                  d="M541,118.29H209.83a9.64,9.64,0,0,0-9.64,9.64h0V457.61l-49.47,49.2A31.32,31.32,0,0,0,195,551.1l5.14-5.14v46.11a9.64,9.64,0,0,0,9.64,9.64H461.65a9.65,9.65,0,0,0,6.79-2.82l79.33-79.33a9.64,9.64,0,0,0,2.82-6.79V128A9.64,9.64,0,0,0,541,118.29ZM181.44,537.73a12,12,0,0,1-17-17l92.37-92.23,17,17Zm289.75,31.15V522.33h46.55Zm60.09-65.74H461.53a9.64,9.64,0,0,0-9.64,9.64h0v69.8H219.41V526.84l74.7-74.7a9.64,9.64,0,0,0,0-13.58l-8.81-8.81,18.45-18.45a114.31,114.31,0,1,0-13.71-13.58l-18.32,18.35-8.24-8.24a9.64,9.64,0,0,0-13.58,0l-30.43,30.42V137.58H531.38V503.31ZM281.94,323.56a94.82,94.82,0,1,1,0,.17Z"/>
            <path class="cls-6" d="M431.29,314.52H323.52a9.64,9.64,0,1,0-.06,19.24H431.29a9.64,9.64,0,1,0,.06-19.24Z"/>
            <path class="cls-6" d="M431.29,352.1H323.52a9.64,9.64,0,1,0-.06,19.24H431.29a9.64,9.64,0,1,0,.06-19.24Z"/>
            <path class="cls-6" d="M366.74,276H323.52a9.64,9.64,0,1,0-.06,19.24h43.43a9.64,9.64,0,1,0,.06-19.24h-.2Z"/>
            <path class="cls-6" d="M401.39,276h-5.66a9.64,9.64,0,0,0,0,19.24h5.66a9.64,9.64,0,1,0,.06-19.24Z"/>
        </g>
    </g>
</svg>