<svg xmlns="http://www.w3.org/2000/svg" viewBox="0 0 671.26 671.26">
    <defs>
        <style>.cls-1{fill:#fff;}.cls-2{fill:#ff9e24;}.cls-3{fill:#ffe1d6;}.cls-4{fill:#ffb14d;}.cls-5{fill:#11113f;}
        </style>
    </defs>
    <title>send-mail</title>
    <g id="Слой_2" data-name="Слой 2">
        <g id="Слой_1-2" data-name="Слой 1">
            <circle class="cls-1" cx="335.63" cy="335.63" r="335.63"/>
            <path class="cls-2" d="M291.74,375.85,287.6,556.16a8.68,8.68,0,0,1-6-2.83L114,370.72a9,9,0,0,1-2.3-6.28Z"/>
            <path class="cls-2"
                  d="M389.78,117.85,557.24,300.46a9,9,0,0,1,2.3,6.28l-180-11.48,4.13-180.32A9.09,9.09,0,0,1,389.78,117.85Z"/>
            <path class="cls-3"
                  d="M377.23,117.31,114.56,358.17a8.72,8.72,0,0,0-2.83,6.2l263.51,14.31,8.5-263.74A9.13,9.13,0,0,0,377.23,117.31Z"/>
            <path class="cls-4"
                  d="M379.52,295.33l180,11.48a8.72,8.72,0,0,1-2.83,6.2L294,553.87a8.68,8.68,0,0,1-6.43,2.3l4.13-180.32,83.5,2.83Z"/>
            <path class="cls-5"
                  d="M563.74,294.49,396.28,111.88a17.58,17.58,0,0,0-11.48-5.66h-.23a18,18,0,0,0-13.39,4.59L108.59,351.66a17.52,17.52,0,0,0-5.74,12.93v.23a17.73,17.73,0,0,0,4.67,11.94L275,559.38A17.58,17.58,0,0,0,286.46,565h.15A17.58,17.58,0,0,0,300,560.45L562.67,319.59a18,18,0,0,0,5.74-12.93v-.23A17.59,17.59,0,0,0,563.74,294.49ZM290.05,447.18a8.82,8.82,0,0,0-9,8.65h0l-1.84,81.74L129.48,374.39l153.22,9.72-.92,41.48a8.84,8.84,0,0,0,17.68.38l.92-40.72L359.32,389a25.69,25.69,0,0,0,27.48-24c0-.46.08-.84.08-1.3l1.38-59.08,153.68,9.8L296.79,539.25l1.91-83a8.87,8.87,0,0,0-8.65-9Zm79.06-83.81a8,8,0,0,1-8.11,8h-.54L129.33,356.64,374.39,131.93ZM388.55,287l3.6-153.45,149.7,163.25Z"/>
            <polygon class="cls-5" points="282.17 408.14 280.95 460.5 298.63 462.49 299.7 414.65 282.17 408.14"/>
        </g>
    </g>
</svg>