<svg xmlns="http://www.w3.org/2000/svg" viewBox="0 0 614.2 614.2">
    <defs>
        <style>
            .cls-1{fill:#fff;}.cls-2{fill:#8e7887;}.cls-3{fill:#c0e2dd;}.cls-4{fill:#b4dd6c;}.cls-5{fill:#e0b96c;}.cls-6{fill:#f9f0dc;}.cls-7{fill:#11113f;}
        </style>
    </defs>
    <title>shearch</title>
    <g id="Слой_2" data-name="Слой 2">
        <g id="Слой_1-2" data-name="Слой 1">
            <circle class="cls-1" cx="307.1" cy="307.1" r="307.1"/>
            <polygon class="cls-2"
                     points="249.83 332.6 274.83 359.6 178.33 462.6 149.33 458.1 146.33 437.6 249.83 332.6"/>
            <circle class="cls-3" cx="366.11" cy="241.54" r="102.99"/>
            <polygon class="cls-4"
                     points="306.33 294.6 310.83 274.1 346.33 255.1 366.11 272.1 383.83 255.1 407.33 261.1 428.83 288.1 423.33 300.77 306.33 294.6"/>
            <polygon class="cls-5"
                     points="342.83 174.1 346.33 196.1 391.83 196.1 389.33 171.1 355.33 164.1 342.83 174.1"/>
            <polygon class="cls-6"
                     points="346.33 196.1 373.33 184.6 389.33 190.35 389.33 223.1 373.33 236.6 357.33 236.6 346.33 217.1 346.33 196.1"/>
            <path class="cls-7"
                  d="M366.14,131.6a109.1,109.1,0,0,0-81.51,182.25l-21.72,21.72-10-10a6.75,6.75,0,0,0-9.55,0h0l-97.3,97.33a28,28,0,0,0,39.64,39.64l97.36-97.31a6.75,6.75,0,0,0,0-9.55h0l-10.39-10.39,21.61-22A109.36,109.36,0,1,0,366.14,131.6ZM176.2,453.1a14.7,14.7,0,0,1-20.78-20.78l92.79-92.42L269,360.68ZM366.14,336.87A95.91,95.91,0,1,1,462,241a95.91,95.91,0,0,1-95.91,95.91Z"/>
            <path class="cls-7"
                  d="M391.13,166.67A23.53,23.53,0,0,0,374,159.24H358.45A23.43,23.43,0,0,0,335,182.67h0v1.51l.68,10.39L337.33,219a28.83,28.83,0,0,0,57.56,0l1.82-27.9.47-7A23.48,23.48,0,0,0,391.13,166.67Zm-42.34,16.68A9.92,9.92,0,0,1,358.22,173H369l-1.82,4.83c-.94,1.35-5.61,7-18.24,9.09Zm32.83,34.86a15.59,15.59,0,0,1-30.55,0l-1.19-17.92a47.43,47.43,0,0,0,22.5-8.83A24.11,24.11,0,0,0,375,193a43.54,43.54,0,0,0,8,2.91ZM381.2,181l-.47-.31,1.45-3.84a9.77,9.77,0,0,1,1.92,5.2,18.91,18.91,0,0,1-2.81-1Z"/>
            <path class="cls-7"
                  d="M433.89,285.1a43.12,43.12,0,0,0-42.45-35.43h-7.69a6.75,6.75,0,0,0-4.78,2L366.4,264.24l-12.57-12.57a6.75,6.75,0,0,0-4.78-2h-7.64A43.12,43.12,0,0,0,299,285.1a18.65,18.65,0,0,0,18.37,22h98.19a18.65,18.65,0,0,0,18.34-22Zm-14.39,6.65a5.2,5.2,0,0,1-4,1.87H317.33a5.2,5.2,0,0,1-5.2-6.08,29.61,29.61,0,0,1,29.2-24.34h4.83l15.59,15.59a6.75,6.75,0,0,0,9.55,0h0l15.59-15.59h4.83a29.61,29.61,0,0,1,29.15,24.37,5.2,5.2,0,0,1-1.4,4.21Z"/>
            <path class="cls-7"
                  d="M253.33,352.82a6.75,6.75,0,0,0-9.55,0h0l-29.3,29.41a6.76,6.76,0,0,0,9.56,9.56l29.41-29.41a6.75,6.75,0,0,0,0-9.55h-.12Z"/>
            <path class="cls-7"
                  d="M209.33,396.56a6.75,6.75,0,0,0-9.55,0h0l-3.27,3.27a6.76,6.76,0,0,0,9.56,9.56l3.26-3.29a6.75,6.75,0,0,0,0-9.55h0Z"/>
        </g>
    </g>
</svg>