<svg xmlns="http://www.w3.org/2000/svg" viewBox="0 0 614.2 614.2">
    <defs>
        <style>.cls-1{fill:#fff;}.cls-2{fill:#b1b1ba;}.cls-3{fill:#11113f;}.cls-4{fill:#00bf90;}</style>
    </defs>
    <title>shield</title>
    <g id="Слой_2" data-name="Слой 2">
        <g id="Слой_1-2" data-name="Слой 1">
            <circle class="cls-1" cx="307.1" cy="307.1" r="307.1"/>
            <polygon class="cls-2"
                     points="159.85 210.43 162.72 284.98 172.28 350.92 207.64 427.38 244.91 462.75 307.04 501.93 349.09 478.04 398.79 434.07 430.33 374.82 448.49 322.25 456.13 210.43 441.8 206.61 400.7 187.49 367.25 162.64 329.02 146.39 307.04 143.53 256.38 155.95 207.64 193.23 159.85 210.43"/>
            <path class="cls-3"
                  d="M456.23,200.68c-24.47,0-43-14.34-62.6-29.44-22.56-17.39-48.07-37.18-86.11-37.18S244,153.85,221.4,171.24c-19.59,15.2-38.13,29.44-62.6,29.44a7.87,7.87,0,0,0-7.84,7.84h0c0,91.37,11.37,152.54,36.8,197.36s63.08,72.64,115.64,103a7.68,7.68,0,0,0,7.84,0c52.57-30.39,90.41-58.3,115.64-103s36.89-106,36.89-197.36A7.88,7.88,0,0,0,456.23,200.68ZM307.51,493C212.9,437.9,167.88,390.49,166.64,216c25.81-2.58,45.3-17.68,64.32-32.3,21.6-16.63,43.87-33.83,76.56-33.83s55,17.2,76.56,33.83c19,14.62,38.52,29.72,64.32,32.3-1.24,174.52-46.45,221.83-140.78,277.17Z"/>
            <path class="cls-3"
                  d="M230.48,220.85a7.9,7.9,0,0,0,4.59-1.43c4.49-3.25,9-6.59,13.19-9.84,20-15.2,37.27-28.1,59.26-28.1a7.93,7.93,0,1,0,0-15.87h0c-27.33,0-47.31,15.29-68.72,31.54-4.21,3.25-8.51,6.5-12.9,9.65a7.79,7.79,0,0,0,4.59,14.14Z"/>
            <path class="cls-3"
                  d="M307.61,456.53a260.35,260.35,0,0,1-62.41-50.37,7.85,7.85,0,1,0-12.52,9.46l.48.48h0c21,24.56,48.46,42.82,70.25,56h0l.57.29h7l.57-.29h0c21.79-13.19,49.41-31.54,70.25-56,23.8-28,38.71-65.95,45.78-116a8,8,0,0,0-15.77-2.2h0c-6.59,47-20.45,82.39-42.05,108.09A263.47,263.47,0,0,1,307.61,456.53Z"/>
            <polygon class="cls-4"
                     points="231.91 297.12 271.96 338.4 378.53 234.04 398.98 234.04 408.92 250.09 280.18 380.17 270.62 380.17 208.02 321.49 210.6 300.17 231.91 297.12"/>
            <path class="cls-3"
                  d="M406.24,229.93a23.65,23.65,0,0,0-33.36,0l-99.3,99.3-32.4-32.5a23.59,23.59,0,0,0-33.36,33.36l49.22,49.22a23.65,23.65,0,0,0,33.36,0h0l116-116A23.56,23.56,0,0,0,406.24,229.93Zm-9.56,23.89-115.93,116a10.12,10.12,0,0,1-14.34,0h0L217.2,320.72a10.14,10.14,0,1,1,14.34-14.34h0l37.27,37.37a6.69,6.69,0,0,0,9.56,0h0L382.44,239.67A10.14,10.14,0,0,1,396.78,254h0Z"/>
        </g>
    </g>
</svg>