<svg xmlns="http://www.w3.org/2000/svg" viewBox="0 0 720 720">
    <defs>
        <style>.cls-1{fill:#fff;}.cls-2{fill:#b4f9e6;}.cls-3{fill:#41af8f;}.cls-4{fill:#73efd1;}.cls-5{fill:#11113f;}
        </style>
    </defs>
    <title>shirt</title>
    <g id="Слой_2" data-name="Слой 2">
        <g id="Layer_1" data-name="Layer 1">
            <circle class="cls-1" cx="360" cy="360" r="360"/>
            <polygon class="cls-2" points="369.38 442.9 439.88 514 440.38 442.9 369.38 442.9"/>
            <polygon class="cls-3" points="359.38 448.9 359.38 514.9 433.38 514.9 359.38 448.9"/>
            <polygon class="cls-3" points="326.38 151.9 393.38 154.9 360.38 209.9 326.38 151.9"/>
            <polygon class="cls-4"
                     points="143.38 272.9 242.38 172.9 314.38 172.9 323.38 162.9 359.38 217.9 399.38 158.9 414.38 170.9 474.38 173.9 575.38 272.9 522.38 334.9 474.38 298.9 478.38 511.9 433.38 514.9 434.38 437.9 360.38 439.9 359.38 514.9 245.38 514.9 245.38 300.9 206.38 336.9 143.38 272.9"/>
            <path class="cls-5"
                  d="M586.68,270,481.48,164.5h0l-.6-.5h-67.2l-7-15.7h0l-.6-1h0a9.34,9.34,0,0,0-1.6-1.8h0l-.8-.6h0l-.9-.5h0l-1.1-.4h-82.6l-1,.4h0l-.9.5h0l-.7.5h0a6.9,6.9,0,0,0-1.6,1.8h0l-.6,1h0l-6.9,13.7h-68l-.7.6h0L133.38,267.8a9.6,9.6,0,0,0,0,13.5h0l62.9,65.2a9.89,9.89,0,0,0,6.5,2.8h0a9.89,9.89,0,0,0,6.5-2.8l26-26V515.4a9.6,9.6,0,0,0,9.6,9.6h229.6a9.6,9.6,0,0,0,9.6-9.6h0V320.5l26,26h0a9.53,9.53,0,0,0,9.5,2.4h0l1.3-.5h.4a9.12,9.12,0,0,0,2.3-1.7l63.2-63.2A9.89,9.89,0,0,0,586.68,270ZM381.58,162l-21.7,37.6L338.18,162Zm15.9,10.6-13,49.1-11.4-6.5Zm-50.7,42.6-11.4,6.5-13-49.1Zm22.7,291.1V462.4l43.9,43.9Zm57.3-13.5-43.9-43.9h43.9Zm90-166.4-35.3-35.3-.7-.6h-12a9.27,9.27,0,0,0-1.4,1.4V506.6h-19.1V439.7a9.6,9.6,0,0,0-9.6-9.6h-69.3V383.4a9.6,9.6,0,1,0-19.2,0V506.8h-95.7V364.3h0V297.8h0V268.4a9.6,9.6,0,1,0-19.2,0v25.3l-32.5,32.5-49.4-49.6L249,181.1h55.7l15.5,57.6h0v1h0l.5.8h0l.6,1h0l.7.8h0l.8.7h0l.8.5h0l1,.5h0l1,.3H328a10.68,10.68,0,0,0,2.5-.3l1-.3h0l.8-.4h0l16.1-9.3v80.3a9.6,9.6,0,0,0,19.2,0V235.2l16.1,9.3h0l.8.4h0l1,.3a10.07,10.07,0,0,0,2.5.3h2.4l1-.3h0l1-.5h0l.8-.5h0l.8-.7h0l.7-.8h0l.6-1h0l.4-.8h0v-1h0l15.5-57.6h50v24.4a9.6,9.6,0,0,0,19.2,0h0v-12l82.1,82.1Z"/>
            <path class="cls-5" d="M455.48,582.9H264.28a9.6,9.6,0,0,0,0,19.2h191.3a9.6,9.6,0,1,0-.1-19.2Z"/>
            <path class="cls-5"
                  d="M359.88,336.4a9.6,9.6,0,0,0-9.6,9.6h0v5.7a9.6,9.6,0,1,0,19.2,0v-5.8a9.52,9.52,0,0,0-9.6-9.5Z"/>
        </g>
    </g>
</svg>