<svg id="Layer_5" data-name="Layer 5" xmlns="http://www.w3.org/2000/svg" viewBox="0 0 1817.79 1598.53">
    <defs>
        <style>
            .cls-1{fill:none;}.cls-1,.cls-13,.cls-14,.cls-15,.cls-16,.cls-17,.cls-18,.cls-19,.cls-2,.cls-3,.cls-4,.cls-5,.cls-6,.cls-7,.cls-8{stroke:#000;stroke-linecap:round;stroke-linejoin:round;stroke-width:10px;}.cls-2{fill:#23293f;}.cls-3{fill:#222942;}.cls-4{fill:#373f63;}.cls-5{fill:#e5e3e3;}.cls-6{fill:#555f99;}.cls-10,.cls-8{fill:#d9d9d9;}.cls-13,.cls-20,.cls-21,.cls-22,.cls-9{fill:#fff;}.cls-11{fill:#380208;}.cls-12{fill:#6a0006;}.cls-14{fill:#828282;}.cls-15{fill:#63614e;}.cls-16{fill:#444235;}.cls-17{fill:#56575b;}.cls-18{fill:#9e9c7b;}.cls-19{fill:#7c7a63;}.cls-20{opacity:0.05;}.cls-21{opacity:0.2;}.cls-22{opacity:0.5;}.cls-23{fill:#282828;}
        </style>
    </defs>
    <title>сила декларирования,оратор</title>
    <path class="cls-1" d="M1136.5,1646.5" transform="translate(-78.99 -226.47)"/>
    <path class="cls-2"
          d="M721.5,1658.5c-.53,2.41-1,8.28-2,20-3.36,40.18-1,141.5-1,141.5h458s61.37-226.43-3-282.5c-45.47-39.61-108.87-26.62-229-2C888.92,1546.89,739.23,1577.57,721.5,1658.5Z"
          transform="translate(-78.99 -226.47)"/>
    <path class="cls-3"
          d="M298.5,1353.5a27.26,27.26,0,0,1,4-14,26.71,26.71,0,0,1,10-9c12.08-6.67,26.29-3.56,33-2,24.65,5.73,39.81,22.37,43,26s22.48,26.3,21,58c-.33,7-1,19-9,31-1.73,2.59-15.2,22.26-33,21-8.1-.57-14.21-5.27-22-13C304.12,1410.43,298,1365.74,298.5,1353.5Z"
          transform="translate(-78.99 -226.47)"/>
    <path class="cls-4"
          d="M1251.5,858.5c9-3.59,21.71-.74,25,0,14.26,3.19,23.38,11,29,16,15.55,13.71,12.66,20.79,30,40a140.78,140.78,0,0,0,25,22c16.67,11.26,21.15,8.57,40,19,2.52,1.39,7,3.95,13,4,3.26,0,3.9-.7,11-2,8-1.47,12.05-2.21,15-1,2.61,1.07,3.58,2.64,9,10,3,4,6.18,7.87,9,12,10,14.65,21.59,28.74,27,37,10.71,16.36,11.81,37.24,14,79,1.91,36.36-1.63,51.72-4,60-7.66,26.78-18.92,34.93-22,37-11.34,7.63-23.52,7.94-28,8-14.45.19-25.27-5.29-34-10a526.41,526.41,0,0,1-56-35c-24.41-17.49-18.49-10.68-66-42-38.06-25.09-57.19-37.8-62-46-10.75-18.31-4.78-28.66,2-103C1234.53,897.45,1233.45,865.72,1251.5,858.5Z"
          transform="translate(-78.99 -226.47)"/>
    <path class="cls-4"
          d="M1266.5,1076.5c-7.83,5.09-21.57,14-34,11-22.56-5.51-23.44-46.22-40-109-23.5-89.08-57.24-141.69-38-158,8.32-7,30.39-10.58,33-11,8.72-1.4,15.68-2.51,24-1,19.43,3.53,31.78,18.73,45,35a191.14,191.14,0,0,1,20,30"
          transform="translate(-78.99 -226.47)"/>
    <path class="cls-4"
          d="M613.5,854.5a31.63,31.63,0,0,1,10-15c5.7-4.16,11.81-4.61,16-5,12.11-1.13,23.87-5.09,36-6,27.33-2,70.16-18.44,90-25,41.92-13.86,76.71-15.41,135-18,22.94-1,108.76-4.84,161,10,19.76,5.61,40.28,8.26,60,14,8.34,2.43,15.7,4.82,26,4,14.38-1.15,19.61-7.37,30-6,11.53,1.53,19.07,11,23,16,41.86,52.82,50,162,50,162,12.84,172.25,12.94,157.86,13,170,.07,15.08.36,199.39-27,298a188.5,188.5,0,0,0-8,51c-.38,27.73,5.78,50.44,14,80,13.42,48.24,21.18,54.15,16,68-9.06,24.2-42.55,32.32-66,38-13.81,3.35-51.69,12-92-6a132.9,132.9,0,0,1-36-24,144.67,144.67,0,0,1-35-52c-10.47-26.48-8.14-43.2-14-44-6.5-.89-10.48,19.51-31,56-17.68,31.44-31.79,46.61-37,52-6.24,6.44-15.06,15.46-28,24-29,19.12-58,22.26-76,24-33.23,3.21-57.15-2.78-86-10-25.38-6.36-60.08-18.06-71-38a47.23,47.23,0,0,1-5-15c-1.69-13.49,4.13-24.29,6-28,5.21-10.31,1.2-7.92,26-130,1.26-6.2-2.56-27.06,7-34,1.42-1,5.27-3.33,5-6s-4.09-3.18-7-6c-4.91-4.75-4.13-12.76-4-16,.7-17.45-8.1-34-12-51-9.76-42.57-15.72-68.56-30-99-7.32-15.6-11.73-21.51-18-39a242,242,0,0,1-12-49S599.07,899.09,613.5,854.5Z"
          transform="translate(-78.99 -226.47)"/>
    <path class="cls-5"
          d="M799.5,809.5c7.62-15,18.93-23.72,31-33,4-3.06,60.71-45.24,129-27,48,12.83,74.58,48.28,86,64,52.11,71.71,38.18,159.09,28,223-13.49,84.64-41.43,95.52-65,156-.58,1.49-2.33,6-6,7-11.34,3-29.47-30.89-35-41-36.88-67.48-45.08-49.93-103-153C806.89,903,778.51,850.87,799.5,809.5Z"
          transform="translate(-78.99 -226.47)"/>
    <path class="cls-6"
          d="M920.5,833.5c4,22.76-7,15.48,8,137,5.72,46.48,12.62,90.47,14,108,.17,2.17,1,13.15,3,28,0,0,.54,4,1,7,2.17,14.23,24.55,78.2,52,79,36.83,1.08,61.35-112.17,53-134-.13-.34-2.54-6.6-6-15-4.56-11.08-8.17-19.14-9-21-8-18.08-25.8-63-48-118-9.83-24.35-23.43-47.17-32-72-5.05-14.64-9.62-30.39-18-31-6.65-.48-14.19,8.69-17,17A30.45,30.45,0,0,0,920.5,833.5Z"
          transform="translate(-78.99 -226.47)"/>
    <path class="cls-6"
          d="M888.5,816.5c3.4,12.67,12.55,20.23,16,23,3.11,2.5,14.41,11.31,31,11,4.25-.08,18-.33,29-11,2.42-2.35,7.81-8.19,11-20,7.28-27,.85-76.87-24-83-21.43-5.29-45.17,24.78-54,40C892.49,785.13,884,799.76,888.5,816.5Z"
          transform="translate(-78.99 -226.47)"/>
    <path class="cls-5"
          d="M950.5,724.5c-8.61-2-22.05,27.57-35,56-13.22,29-20.16,44.7-21,67-.92,24.51,6.34,35.54,1,39-11,7.11-49-34.71-68-60-11.51-15.34-19.71-29.58-23-48a86.13,86.13,0,0,1-1-26c3.83-32.31,26.1-52.74,32-58,22.41-20,47.39-23.91,55-25,54.94-7.91,103.53,29.46,125,63,5.47,8.54,15.25,24.23,16,46,.47,13.56-2.77,23.48-7,36-9.32,27.61-27.73,59.57-36,57-3.46-1.08-3.23-7.6-5-19-4.15-26.73-12-33.34-20-58C949.66,751.85,958.42,726.29,950.5,724.5Z"
          transform="translate(-78.99 -226.47)"/>
    <path class="cls-4"
          d="M709.5,874.5c.08-5.59,5.41-7.35,9-22,2.19-8.94.77-10.58,3-23,1.66-9.25,2.94-16.38,7-24,1.83-3.43,5.41-9.2,17-19,15.21-12.87,20.56-12.69,31-21,21.47-17.1,24.38-38.23,30-37,6.76,1.48,5.23,32.64,5,38-3.42,79.58,33.8,155.69,76,242a879,879,0,0,0,43,77c31.73,50.84,53.2,73.95,63,84,8.36,8.58,21,20,21,20l-9,17h0s-51.94-36.57-97-74c-59-49-69.75-60.78-120-106-20-18-28-30-44-46,15-19,52-52,52-52S709.18,897,709.5,874.5Z"
          transform="translate(-78.99 -226.47)"/>
    <path class="cls-4"
          d="M1008.5,738.5c-10.3,6.75,19.47,50.46,31,123,4.9,30.82,4.27,54.88,3,103-1.29,49-2.08,79.22-12,119-.15.59-6.43,22.72-19,67,0,0-4.4,15.51-14,70-.9,5.1-2.69,15.48-1,16,1.9.58,6.76-11.76,12-22,10.8-21.11,23-32.9,34-45,8.79-9.66,29.19-38.11,70-95,49.4-68.87,52.33-77.63,50-88-16-29-44-47-61-64,17-5,46.6-22.9,48-46,.32-5.21-3.79-12.81-12-28a247.74,247.74,0,0,0-18-28,265,265,0,0,0-17-22c-12.12-13.57-21.06-17.57-56-39C1014.08,739.61,1011.33,736.65,1008.5,738.5Z"
          transform="translate(-78.99 -226.47)"/>
    <path class="cls-1"
          d="M996.5,1236.5c-.62,7.28-2.3,28.42-2,42,.43,19.76,2.61,30.67,5,50,0,0,3.89,31.47,5,66,.47,14.44.61,35-1,60"
          transform="translate(-78.99 -226.47)"/>
    <path class="cls-1"
          d="M1012.5,1279.5c-3.38-6.1-2.16-14.41,3-19,7.3-6.48,20.53-3.79,25,5a15.85,15.85,0,0,1-4,19C1029.14,1290.42,1017.06,1287.72,1012.5,1279.5Z"
          transform="translate(-78.99 -226.47)"/>
    <path class="cls-1"
          d="M1013.5,1413.5c-4.45-6.36-3.9-16,2-21,7.11-6,19.27-3,24,5,3.6,6.12,2.9,15.16-3,20C1029.61,1423.15,1018.54,1420.71,1013.5,1413.5Z"
          transform="translate(-78.99 -226.47)"/>
    <path class="cls-1" d="M744.5,1462.5c-3-1.27-13.25-5.55-15-3-1.53,2.23,4.13,8.72,7,12a71.92,71.92,0,0,0,15,13"
          transform="translate(-78.99 -226.47)"/>
    <path class="cls-1" d="M795.5,1481.5q95.53-33.32,96-32t-96,38" transform="translate(-78.99 -226.47)"/>
    <path class="cls-7"
          d="M1608.5,812.5c-7.1-3-2.85-28.1-1-39,2.34-13.84,4.48-26.43,14-39a73.12,73.12,0,0,1,26-21c12-5.82,18-4.61,32-13a124.37,124.37,0,0,0,14-10c8.15-6.5,13.68-10.91,19-18,6.58-8.77,5.37-11.69,12-18,3.53-3.36,7.75-7.38,14-8,9.89-1,17.39,7.31,18,8,9.75,11.11,5.37,28.56,3,38a76.43,76.43,0,0,1-20,35c-7,7-13.19,10.52-35,21-44.67,21.45-43.33,18.49-53,25C1623.15,792.58,1615.49,815.44,1608.5,812.5Z"
          transform="translate(-78.99 -226.47)"/>
    <path class="cls-7"
          d="M1609.5,829.5c-7.54-11.56,5.36-32.47,10-40,15.67-25.41,41.8-34,60-40,10.54-3.47,31.36-5.31,73-9,26.49-2.35,43.81-3.18,65,0,11.89,1.78,18.88,3.91,29,7,0,0,18.66,5.69,35,18,1.87,1.41,4.95,3.89,6,8a14,14,0,0,1-1,9c-3.39,7.84-12.43,11.49-17,13-49.19,16.23-120,18-120,18C1664.28,815.63,1621.19,847.42,1609.5,829.5Z"
          transform="translate(-78.99 -226.47)"/>
    <path class="cls-7"
          d="M1649.5,847.5c21.79-3.18,44.08-.85,66-3,58-5.68,87-8.52,102-9,0,0,11.57-.37,47-9,7.17-1.75,16.07-4.1,22-12,1.25-1.67,6.56-9.17,5-18-1.75-9.91-11.11-15.63-15-18-26-15.85-83.54-6.53-130,3-49.43,10.14-70.72,17.31-91,34-9.1,7.48-27.58,24.77-24,31C1633.57,850.1,1642.18,848.57,1649.5,847.5Z"
          transform="translate(-78.99 -226.47)"/>
    <path class="cls-5"
          d="M1570.5,839.5c1-3.6,3.18-3.91,14-20,7.23-10.76,7.23-12.05,10-14,9.35-6.57,23.25-1.58,36,3,13.51,4.85,22,11.9,39,26,5.49,4.55,10.81,9.39,11,16,.09,3.18-1.27,5.83-4,11-4,7.5-8,12.67-13,19-7.77,9.84-11.66,14.76-12,15C1631.12,909.53,1564.16,861.92,1570.5,839.5Z"
          transform="translate(-78.99 -226.47)"/>
    <path class="cls-4"
          d="M1452.5,979.5c-.93-2.77-3.11-9.32,0-14,2.13-3.2,5.07-3,11-7,3.55-2.37,5.65-4.54,9-8,13.71-14.14,26-37,26-37,10.06-18.7,6.28-9.07,32-53,7.86-13.42,17.16-26,24-40,2.56-5.22,3-6.59,5-8,15.33-10.86,56,23,80,43s14.39,18,29,30c2.39,2,7.76,6.19,9,13,1,5.45-1.11,10.09-2,12-15.92,34-75,137-75,137-14.17,24.72-17.88,35.52-41,75-6.56,11.21-18.22,30.75-39,50-12.88,11.93-23.18,18.12-34,22-15.26,5.47-33.13,6.92-34,4"
          transform="translate(-78.99 -226.47)"/>
    <path class="cls-1" d="M1446.5,976.5a256.3,256.3,0,0,1,6,47,275.22,275.22,0,0,1-4,55c-1.06,6.17-2.16,11.31-3,15"
          transform="translate(-78.99 -226.47)"/>
    <path class="cls-1"
          d="M1464.5,1092.5a97.75,97.75,0,0,0,5-21c1.62-13.15.19-23.69-1-32-2.4-16.8-6.06-24.57-5-25,1.91-.77,16,23.42,24,53a194.21,194.21,0,0,1,6,34"
          transform="translate(-78.99 -226.47)"/>
    <path class="cls-7"
          d="M310.5,1362.5c-2.18-2.22-9.45,5.16-27,8-10.2,1.65-12.23-.12-30,0-12.25.08-23.54.15-37,3-13.95,3-13.59,5.36-32,10-14.26,3.59-21.4,5.39-31,5-10.62-.43-21.51-3.27-32-6-11.19-2.91-15.09-4.74-21-3a24.07,24.07,0,0,0-15,14c-5.38,13.65,5.13,27.28,8,31,.77,1,11.42,14.4,29,17,9.08,1.34,10.24-1.64,23,0,8.23,1.05,15.7,2.12,22,8a28.43,28.43,0,0,1,8,14c1.81,7.49-.48,11.52-4,26-4.33,17.82-2,16.36-6,31-3.63,13.26-5.84,15.5-6,24-.11,5.76-.28,14.72,6,21a21.19,21.19,0,0,0,15,6c14.75-.46,25.39-20.92,31-32,32-63.3,36.27-80.39,51-106C285.74,1393.08,314.73,1366.81,310.5,1362.5Z"
          transform="translate(-78.99 -226.47)"/>
    <path class="cls-7"
          d="M330.5,1369.5a64.2,64.2,0,0,0-25-2c-16.66,2.06-32.34,11.12-57,40,0,0-38.86,45.5-71,146-1.42,4.44-4.72,15.23-1,27,1,3.21,4.42,14,15,19,1.82.86,8.53,4,16,2,11.24-3.07,15.76-15.65,20-14,1.73.67,1.29,2.89,3,5,5.54,6.82,23.84.42,25,0,5.09-1.83,19.29-8.1,38-44,5.19-10,12.86-30.44,28-71,3.25-8.7,6.94-17.23,10-26,9-25.73,10.54-37.78,22-46,3.79-2.72,6.2-3.25,7-6C362.9,1391.26,346.18,1379.07,330.5,1369.5Z"
          transform="translate(-78.99 -226.47)"/>
    <path class="cls-5"
          d="M277.5,1370.5c.65,3.76,25.35-6.52,42,3,12.78,7.31,18.52,19.65,21,25,3.3,7.1,8.5,18.3,5,30-3.11,10.39-12.28,13.2-11,15s10.27.29,28-9c42.23-22.12,38.33-24.61,56-31,6-2.17,9-2.79,11-6,7.81-12.31-13.75-38.12-22-48-11-13.18-21.89-25.84-38-27a47.38,47.38,0,0,0-16,2c-7.43,2.09-10.67,4.75-25,14-12,7.76-18,11.65-24,15C290.6,1361.33,277.1,1368.22,277.5,1370.5Z"
          transform="translate(-78.99 -226.47)"/>
    <path class="cls-4"
          d="M670.5,866.5c-7.32-8.41-20-23-38-23-13.05,0-22.67,7.75-29,13-17.72,14.68-24.44,33.62-29,47-24.58,72.11-34,112-34,112-4.88,20.68-8.41,37.16-16,66,0,0-6.15,23.39-25,63-5.63,11.83-9.68,18.31-17,22-4.13,2.09-7.75,2.5-10,6-3.87,6,.18,15.07,2,19,16.34,35.35,29,52,29,52,21.16,27.84,18.2,18.92,46,53,12,14.68,20.9,26.61,36,29,2.64.42,9.77,1.46,17-2,9.1-4.35,12.94-13.24,17-23,10.54-25.34,15.81-38,17-42,0,0,9.63-32.2,26-76,6.37-17.05,6.22-15,20-50,11.54-29.29,17.3-43.94,20-52"
          transform="translate(-78.99 -226.47)"/>
    <path class="cls-4"
          d="M303.5,1336.5a330.9,330.9,0,0,0,33-25c8-7,14.85-10,31-27,25.88-27.3,30-34.65,51-56,14-14.19,22.42-21.36,33-28,10.23-6.42,19.36-12.15,32-14,9.16-1.34,21.55-.78,47,12,27.29,13.71,69.14,34.73,81,75,1.71,5.81,5,17.6,2,32-.84,4-3.66,15.31-16,30-15.94,19-34.59,27.9-41,31,0,0-18.66,9-88,48-58.88,33.1-77,42-90,48,29-20,20.29-47.65,4-84C356.5,1320.5,322.5,1325.5,303.5,1336.5Z"
          transform="translate(-78.99 -226.47)"/>
    <path class="cls-1" d="M577.5,1174.5a144.73,144.73,0,0,1-81,1" transform="translate(-78.99 -226.47)"/>
    <path class="cls-1" d="M540.5,1215.5a178.45,178.45,0,0,1,25,33,149.79,149.79,0,0,1,15,33,143.9,143.9,0,0,1,6,31"
          transform="translate(-78.99 -226.47)"/>
    <path class="cls-1" d="M744.5,1706.5c-1.19,5.11-3.77,16.7-5,26a240.23,240.23,0,0,0-2,30,543.08,543.08,0,0,1-4,57.5"
          transform="translate(-78.99 -226.47)"/>
    <path class="cls-1"
          d="M1031.5,1785.5c-29.83-12.76-35.76-18.83-35-22,.95-3.94,12.53-4.59,20-5,7.08-.39,16.44-.1,34,4a268,268,0,0,1,33,10"
          transform="translate(-78.99 -226.47)"/>
    <path class="cls-1"
          d="M970.5,1820c2.39-8.83,3.46-20.59,4-25.5,1.34-12.23.25-17.94,4-26,2.12-4.55,4.56-7.22,9-12,5.57-6,14.7-15.61,30-22a78.62,78.62,0,0,1,30-6"
          transform="translate(-78.99 -226.47)"/>
    <path class="cls-7"
          d="M1002.5,322.5c.59-4.3,10.88-4.78,41-11,39.75-8.21,41.62-11.47,57-11,10.35.32,28.52,1.1,47,13a81.93,81.93,0,0,1,30,35c8.48,18.89,7.11,35.46,6,49-1.48,18-6.41,29.66-15,50-8,18.83-11.48,20.79-14,21-7.92.66-14.39-15.2-21-28-19.67-38.12-54.72-76.78-92-97C1020.15,331.92,1001.69,328.35,1002.5,322.5Z"
          transform="translate(-78.99 -226.47)"/>
    <path class="cls-8"
          d="M644.5,595.5c8.93.41,15.91-3.48,24-8,3.34-1.86,12-6.68,19-14,14.05-14.6,16.71-33.8,18-42,0,0,5.91-37.56,26-88,18-45.32,47.22-72.7,53-78,28-25.69,56.22-36.37,77-44,25.15-9.24,67.28-24.14,122-16,21.12,3.14,65.93,13,108,48,33.33,27.76,49.1,58.15,53,66,15.35,30.89,18.46,57.88,21,80,2.11,18.33,6.87,59.73,2,96a109.22,109.22,0,0,0,0,30c1.21,8.75,2.95,20.31,11,32,3.8,5.51,12.42,18,25,19,5.06.39,8.32-1.28,9,0,1.64,3.08-15.58,15.61-27,23a249.87,249.87,0,0,1-38,20c-19.36,8.22-29,12.34-41,13-9.12.51-18.32-.59-19,2-.48,1.83,3.93,3.09,10,9,7.71,7.5,10.81,15.41,13,21,1.4,3.57,3.21,8.19,2,9-1.57,1.06-6.21-5.65-14-11-11-7.52-22.53-8.47-29-9-13.19-1.08-23.18,1.9-30,4-18.65,5.76-19.34,11.9-38,19-7.51,2.86-20.3,7.58-37,7-20-.69-34.9-8.65-41-12-10.63-5.84-10.92-8.56-24-17a182.71,182.71,0,0,0-34-17c-15.28-6-41.38-16.33-74-15-26.45,1.08-45.2,9.32-47,5-1.15-2.78,5.74-8.24,13-14,5.17-4.1,12-9.4,22-12,6.85-1.78,12-1.47,12-2,0-.81-11.94-.74-22-2-25.38-3.19-43.84-15.54-55-23a160,160,0,0,1-31-27c-13.49-15.47-12.79-21.21-26-34-13.85-13.41-28.72-20.75-28-22C630,590.68,635.65,595.09,644.5,595.5Z"
          transform="translate(-78.99 -226.47)"/>
    <path class="cls-9"
          d="M677.5,598.5c10-2.78,16.17-9.58,21-15a88.57,88.57,0,0,0,18-32c11-35.14,16.7-63.85,21-80,3.1-11.65,11.6-42.57,33-72,29.47-40.52,68.77-58.11,87-66a228.58,228.58,0,0,1,91-19,219,219,0,0,1,84,17c14.41,6.18,71.73,31.74,102,93,15.38,31.11,18.17,60.1,20,79,5.57,57.65,1,95,1,95-1.87,15.31-4.67,29.45,2,46,2.47,6.14,9.14,24.65,27,32,8.49,3.49,14.26.69,15,3,1.55,4.87-22.55,18.27-46,26-9.17,3-20.89,6.89-37,8-27.73,1.92-46.28-5.84-49,0-1.33,2.86,1.93,7.22,7,14,7.78,10.41,14.91,14.19,14,16s-8.61-1.22-20-3a124.82,124.82,0,0,0-26-1c-16.16,1.39-18.45,7.89-39,15-9.66,3.34-23.16,8-40,7-16.48-1-28.69-7-41-13-15.19-7.44-15.85-10.65-31-19-7.09-3.9-25.26-13.91-47-18-33.49-6.3-57.44,4.83-59,0-1.08-3.34,9.53-11.3,21-14,12.5-2.95,22.69,1.14,23,0s-11-6.36-28-11c-26.24-7.14-33.66-4.23-50-9-14.21-4.15-24.14-11.77-44-27-23.38-17.94-50.13-43.67-46-50C663.15,598,668.07,601.13,677.5,598.5Z"
          transform="translate(-78.99 -226.47)"/>
    <path class="cls-7"
          d="M773.5,429.5c.79.27,10.13,3.3,19-1,5.28-2.56,8.5-6.81,14-17,8-14.85,9.53-21.3,13-28,8-15.51,21.69-23.08,36-31,10-5.55,27.15-15,50-16,9.9-.42,23.33.66,40-6,7.35-2.94,9.19-4.92,10-7,2.71-7-6-16-28-38-21.18-21.21-31.83-31.86-35-34-10.88-7.35-28.63-19.34-53-20-39.6-1.08-66,28.56-69,32-17.45,20.2-20.42,42.31-24,69-3.37,25.12-.57,42.3,1,50C750.49,397.15,755.86,423.49,773.5,429.5Z"
          transform="translate(-78.99 -226.47)"/>
    <path class="cls-10"
          d="M847.5,516.5c-1.28,9.16,2.08,17.79,3,20,8.44,20.27,30.9,27.14,37,29,22.61,6.91,43.29.64,52-2,31.77-9.64,40-14,40-14,4.39-2.33,9.21-5.21,15-4,8.69,1.81,16.55,12.19,15,20-.8,4-3.61,4.89-3,7,1.36,4.7,15.23.14,32,6,11,3.85,15.16,9.35,20,7,5.95-2.89,5.72-14.13,7-14s-1.06,10.82,2,20c5.31,15.91,27.16,28.42,48,26,3.13-.36,17.9-2.08,28-14,18.23-21.53,4.38-56.45-1-70-4-10.17-10.58-26.08-27-39-6.1-4.8-24.51-19.28-48-16-4.08.57-13.84,2-23,9-13,9.87-15.61,23.82-20,23-3.7-.69-2.74-10.75-6-19-8.85-22.4-47-26.93-56-28C911.6,457.45,852,484.41,847.5,516.5Z"
          transform="translate(-78.99 -226.47)"/>
    <path class="cls-7"
          d="M863.5,505.5a39.06,39.06,0,0,0-3,18c1.12,13.51,9.64,22.47,13,26,10.49,11,22.94,14.43,29,16,26.41,6.86,59.39-.67,80-23,3.79-4.1,14.66-16.2,18-35,1.24-7,3-17-1-26-9.64-21.65-47.42-26-72-22C895.79,464.66,871.12,486.12,863.5,505.5Z"
          transform="translate(-78.99 -226.47)"/>
    <path class="cls-9"
          d="M929.5,510.5c2.21-3.92,6.95-4.63,16-6,7.71-1.16,13.21-1.92,19,1,2.19,1.1,6.84,3.44,8,8,2,7.7-7.72,15-9,16-1.82,1.38-7.7,5.83-16,5-.78-.08-10.84-1.25-16-10C930.71,523.16,926.44,515.93,929.5,510.5Z"
          transform="translate(-78.99 -226.47)"/>
    <path class="cls-7"
          d="M1040.5,517.5c0-10.86,0-19.35,5-26,8.43-11.13,25.84-10.26,31-10,24.28,1.21,40.55,19,47,26,5,5.45,26.69,29.12,23,59a50.46,50.46,0,0,1-9,24c-2.63,3.64-10.81,15-26,18-10.77,2.15-26.54.65-34-9-4.82-6.23-7.71-17.83-9-23-.21-.86-.85-3.5-2-7a52.66,52.66,0,0,0-4-10,40.51,40.51,0,0,0-8-10c-3.5-3.18-4.73-3.15-7-6a23.91,23.91,0,0,1-4-8A61,61,0,0,1,1040.5,517.5Z"
          transform="translate(-78.99 -226.47)"/>
    <path class="cls-9"
          d="M1067.5,537.5c1.57-3.8,6.22-5.18,9-6a21,21,0,0,1,16,2c2,1.15,7.77,4.56,8,10,.1,2.36-.9,4.1-2,6-.54.93-5.47,9.21-13,9a12.41,12.41,0,0,1-6-2C1072.85,552.79,1064.85,543.92,1067.5,537.5Z"
          transform="translate(-78.99 -226.47)"/>
    <path class="cls-11"
          d="M1056.5,671.5c.57,1.16-5.23,5.12-8,7-6.88,4.66-11,6.56-17,10-9.79,5.6-8.54,6.07-16,10a85.57,85.57,0,0,1-11.42,5.38,51.5,51.5,0,0,0,.42-6.38,38.61,38.61,0,0,0-2-14c-3.69-10.62-11.49-16.62-16-20-10.73-8-21.15-10.15-36-13-8.56-1.64-15.25-2.92-20.29-3.54-2.17-5.37-3.49-10-1.71-11.46,3.17-2.6,10.92,9.15,27,13,12,2.88,28.5,1.3,42-6,8.36-4.52,13.69-10.21,18-8,2.66,1.36,2,4.23,5,12,1.72,4.48,4.93,12.62,12,19,2.9,2.62,7,6.33,13,7S1056,670.49,1056.5,671.5Z"
          transform="translate(-78.99 -226.47)"/>
    <path class="cls-12"
          d="M1002.5,683.5a38.61,38.61,0,0,1,2,14,51.5,51.5,0,0,1-.42,6.38,33.34,33.34,0,0,1-6.58,1.62,41.17,41.17,0,0,1-19-2c-11.84-3.84-18.77-11.26-26-19-10.4-11.13-15.18-21.51-19-30-1.13-2.51-2.3-5.1-3.29-7.54,5,.62,11.73,1.9,20.29,3.54,14.85,2.85,25.27,5,36,13C991,666.88,998.81,672.88,1002.5,683.5Z"
          transform="translate(-78.99 -226.47)"/>
    <path class="cls-1"
          d="M1004.08,703.88a85.57,85.57,0,0,0,11.42-5.38c7.46-3.93,6.21-4.4,16-10,6-3.44,10.12-5.34,17-10,2.77-1.88,8.57-5.84,8-7s-5.07,1.66-11,1-10.1-4.38-13-7c-7.07-6.38-10.28-14.52-12-19-3-7.77-2.34-10.64-5-12-4.31-2.21-9.64,3.48-18,8-13.5,7.3-30,8.88-42,6-16.08-3.85-23.83-15.6-27-13-1.78,1.46-.46,6.09,1.71,11.46,1,2.44,2.16,5,3.29,7.54,3.82,8.49,8.6,18.87,19,30,7.23,7.74,14.16,15.16,26,19a41.17,41.17,0,0,0,19,2A33.34,33.34,0,0,0,1004.08,703.88Z"
          transform="translate(-78.99 -226.47)"/>
    <path class="cls-1"
          d="M930.21,647c5,.62,11.73,1.9,20.29,3.54,14.85,2.85,25.27,5,36,13,4.51,3.38,12.31,9.38,16,20a38.61,38.61,0,0,1,2,14,51.5,51.5,0,0,1-.42,6.38"
          transform="translate(-78.99 -226.47)"/>
    <path class="cls-13"
          d="M915.5,620.5a40.86,40.86,0,0,0,5,18c11.9,21.28,39.87,22.78,44,23,4.89.26,23,1.23,38-11,9-7.31,12.94-16.18,16-23a81.15,81.15,0,0,0,7-30"
          transform="translate(-78.99 -226.47)"/>
    <path class="cls-13"
          d="M1019,626c-1,5-5,17-4.9,23.13,0,3,2.38,6,4.4,9.37,3.4,5.61,8.89,14.69,20,18,10.56,3.14,19.66-.87,22-2a23.13,23.13,0,0,0,9-7,22.11,22.11,0,0,0,4-9"
          transform="translate(-78.99 -226.47)"/>
    <path class="cls-10"
          d="M907.5,603.5c.2,1.19-5.68,1.18-9,6-2.83,4.1-2.27,9.45-2,12,.52,5,2.34,7.84,2,8s-5-5.38-6-13c-.51-3.72-1.21-8.8,2-12C898.79,600.22,907.27,602.09,907.5,603.5Z"
          transform="translate(-78.99 -226.47)"/>
    <path class="cls-10"
          d="M1081.5,652.5c-.21.19,4.75,3.61,5,9,.31,6.64-6.76,11.13-6,12s9-2.28,10-8C1091.71,658.64,1081.8,652.24,1081.5,652.5Z"
          transform="translate(-78.99 -226.47)"/>
    <path class="cls-10"
          d="M971.5,718.5c.57-.55,2.38,1.56,7,3a22.45,22.45,0,0,0,9,1c6.82-.82,10.34-5.67,11-5s-2.65,7.13-9,10c-1.55.7-5.59,2.53-10,1C973.48,726.41,970.59,719.38,971.5,718.5Z"
          transform="translate(-78.99 -226.47)"/>
    <path class="cls-7"
          d="M989.05,571.16l1.46-5.19a17.77,17.77,0,0,1,22.06-12.26L1054.79,566a17.77,17.77,0,0,1,12.15,21.88l-1.46,5.19a17.77,17.77,0,0,1-22.06,12.26L1001.21,593A17.77,17.77,0,0,1,989.05,571.16Z"
          transform="translate(-78.99 -226.47)"/>
    <path class="cls-9"
          d="M1000.3,565.85l.55-2a6.71,6.71,0,0,1,8.33-4.62l15.93,4.63a6.71,6.71,0,0,1,4.59,8.26l-.55,2a6.71,6.71,0,0,1-8.33,4.62l-15.93-4.63A6.71,6.71,0,0,1,1000.3,565.85Z"
          transform="translate(-78.99 -226.47)"/>
    <path class="cls-14"
          d="M1444.5,1244.5c.29-8.37.68-16.52,6-25,6.92-11,17.59-15.3,22-17,20.81-8,39.85.94,42,2,21.07,10.33,27.44,31.51,30,40,1.75,5.83,6.55,24.44-1,45-2.59,7-5.67,15.44-14,22-17.56,13.82-41.3,5.94-44,5-12-4.2-19.21-11.86-23-16C1443.28,1279.5,1444.2,1253.07,1444.5,1244.5Z"
          transform="translate(-78.99 -226.47)"/>
    <path class="cls-14"
          d="M1343.5,1256.5a106.26,106.26,0,0,0,23,37c6.52,6.84,13,13.48,24,18a60.4,60.4,0,0,0,29,4c8.3-.89,20-2.15,28-11,7-7.77,7.49-17.24,8-28a94,94,0,0,0-10-46c-5.26-10.59-12.13-24.4-28-34-3.89-2.35-25.3-14.72-50-7-5.88,1.84-19.71,6.16-27,19C1331.92,1223.61,1338,1240.74,1343.5,1256.5Z"
          transform="translate(-78.99 -226.47)"/>
    <path class="cls-14"
          d="M1225.5,1259.5c-2.14-5.31-6.25-15.48-5-28,.38-3.75,1.55-15.51,10-25,13-14.56,33.92-13.51,44-13a79.54,79.54,0,0,1,42,15c18.56,13.12,26.06,29.92,31,41,4.49,10.07,8.81,20.09,7,33-.63,4.53-1.93,13.75-9,21-10.82,11.1-27.62,9.85-39,9-12-.9-20.73-4.18-28-7-9.2-3.57-34.52-13.72-48-36A72.4,72.4,0,0,1,1225.5,1259.5Z"
          transform="translate(-78.99 -226.47)"/>
    <rect class="cls-15" x="1130.51" y="1399.03" width="311" height="194"/>
    <polygon class="cls-16" points="1047.51 1399.03 1047.51 1593.53 1130.51 1593.03 1130.51 1399.03 1047.51 1399.03"/>
    <path class="cls-14"
          d="M1116.5,1247.5c-2.76,9.73-.44,18.09,1,23,5.71,19.54,21.51,30.41,34,39a123.25,123.25,0,0,0,34,16c10.14,3,17.34,5.16,27,4,4.57-.55,21.49-2.57,30-16,6.74-10.64,4.45-22.51,3-30-4.31-22.33-20-36.06-29-44-8.35-7.33-19.91-17.23-38-21-7.16-1.49-20.39-4.06-35,2C1139.6,1222.12,1121.58,1229.6,1116.5,1247.5Z"
          transform="translate(-78.99 -226.47)"/>
    <path class="cls-17"
          d="M1305.5,1300.5c8.89,13,46,43,46,43h22s-20.48-43.47-29-57C1327.5,1259.5,1292.5,1281.5,1305.5,1300.5Z"
          transform="translate(-78.99 -226.47)"/>
    <path class="cls-17" d="M1268.5,1345.5s-43.44-23.75-60-37c-15-12,1.72-40.39,27-19,13,11,48,52,48,52Z"
          transform="translate(-78.99 -226.47)"/>
    <path class="cls-17" d="M1484.5,1301.5c-7-28,40-32,40-2v41h-31S1486.93,1311.21,1484.5,1301.5Z"
          transform="translate(-78.99 -226.47)"/>
    <path class="cls-17"
          d="M1404.5,1297.5c3.78,11.76,18,46,18,46l28-2s-3.12-38.33-5-51C1441.5,1263.5,1395.5,1269.5,1404.5,1297.5Z"
          transform="translate(-78.99 -226.47)"/>
    <rect class="cls-18" x="1057.51" y="1104.03" width="516" height="316"/>
    <polygon class="cls-19" points="846.51 1420.03 846.51 1258.03 1057.51 1104.03 1057.51 1420.03 846.51 1420.03"/>
    <path class="cls-9"
          d="M310,1362c1,2.38,6.91-.62,15,2,11.78,3.82,18.17,16.33,19,18,4,8.06,3,13.69,7,15,2.66.88,3.93-1.37,11-3s9.66-.19,11-2c3-4.11-6.52-15.94-9-19-3.68-4.56-10.27-12.51-22-18-6.55-3.06-12.84-6-20-4S308.9,1359.39,310,1362Z"
          transform="translate(-78.99 -226.47)"/>
    <path class="cls-9"
          d="M1603,812c5.42-2,10.8-.61,18,2a166.52,166.52,0,0,1,22,10c13.35,7,16.19,9.47,16,12-.15,2-2,2.17-5,7-2.69,4.38-2.41,6.3-4,7-2.74,1.21-6.73-3.07-12-8-13.17-12.33-19.76-18.49-29-22-4.58-1.74-10-2.93-10-5C1599,813.44,1602.12,812.32,1603,812Z"
          transform="translate(-78.99 -226.47)"/>
    <path class="cls-9"
          d="M831,749c-7.54,4.11-4.5,23.47-3,33a119.16,119.16,0,0,0,12,36c12.5,24.73,33.43,52.19,40,49,2.23-1.08,1.14-4.89,2-17a214.89,214.89,0,0,1,6-34c6.83-26.85,15.51-30.28,12-38-4-8.76-15.26-4.54-40-16C842,753.68,836.37,746.07,831,749Z"
          transform="translate(-78.99 -226.47)"/>
    <path class="cls-9"
          d="M976,794c-2.59,2.76,7,10.87,12,29,3.56,13,2.44,22.67,5,23,1.95.25,2.95-5.31,8-14,8.33-14.34,16.66-18.21,15-23-1-2.82-4.34-2.89-14-6C984,797.21,978.07,791.79,976,794Z"
          transform="translate(-78.99 -226.47)"/>
    <path class="cls-9"
          d="M999,894c-5,5.4,5.19,20.39,15,43s11.18,34.38,14,34c4.47-.6,4.14-30.39,4-43-.17-15.35-1.15-14.9-2-37-.94-24.33-.16-35.45-3-36-3.08-.6-9.15,11.52-12,19s-3.6,13.37-9,17C1002.37,893.44,1000.73,892.15,999,894Z"
          transform="translate(-78.99 -226.47)"/>
    <path class="cls-9"
          d="M847,883c2.37-1.44,9.57,10.09,28,19,10.6,5.12,15.25,4.71,18,4,9.16-2.37,11.54-11.8,15-11,5,1.14,3.71,21.25,4,41,.29,19.9,2.05,33.77,5,57,5.17,40.76,13.76,62,11,63-2.09.77-7.75-11.16-33-62,0,0-11.64-23.44-31-65C854.8,909.25,843.68,885,847,883Z"
          transform="translate(-78.99 -226.47)"/>
    <path class="cls-20"
          d="M746,812c3.66-6.33,8.72-10.09,14-14,10.69-7.93,15.51-6.58,23-14,7.93-7.86,8.53-15.33,11-15,4.25.57,3.77,22.92,5,40,1.32,18.4,6.9,36.85,18,73,12.55,40.88,20.85,67.91,37,104,10.68,23.86,26.39,58.54,54,98,34.5,49.31,66.24,75.59,64,78-1.5,1.61-15.61-10.14-75-58-39.13-31.53-68.88-74.59-111-102-2.77-1.8-10.74-6.81-12-15-.93-6.09,2.16-11.94,13-25,19.24-23.18,27.83-26.87,27-34-.34-2.93-2.4-7.46-27-18-35.77-15.32-56.91-16.66-60-29-.93-3.73.08-7.27,2-14,3.06-10.72,7.2-12.35,11-21C746.72,830.71,738.69,824.65,746,812Z"
          transform="translate(-78.99 -226.47)"/>
    <path class="cls-20"
          d="M1034,780c-9,7.35,15,34.79,26,94,7.16,38.68,4.91,70.23,3,97a548,548,0,0,1-15,91c-15.41,61.42-24,86-24,86-5,14.21-10.54,28.64-8,30,1.36.73,5.17-2.23,24-28,15.76-21.56,26-37.2,36-52,19.52-29,29.28-43.52,36-52,23.87-30.14,32-32,33-45,1.52-19.74-15.6-37.83-29-52-18.51-19.57-36.43-28.07-34-35,1.36-3.89,7.55-2.75,18-7,12.1-4.92,26.07-15.51,30-27,6.24-18.25-12.72-39.21-27-55C1081.56,801.29,1044.13,771.69,1034,780Z"
          transform="translate(-78.99 -226.47)"/>
    <path class="cls-20"
          d="M670,843c2.23-2.5,7.81,2.4,19,1,9.58-1.2,14.09-5.88,16-4,2.37,2.33-4.17,9.87-7,23a48.63,48.63,0,0,0-1,18c1.59,10.18,7.06,17,12,23,4.14,5,16.23,19.33,37,26,13.82,4.44,22.85,2.72,24,7,.85,3.17-3.48,6.36-16,17-22.16,18.83-24.08,22-25,25-3.24,10.68,5.29,22.05,14,33,24,30.18,36,45.26,57,64,23.32,20.81,41.86,34.68,69,55,25,18.69,37.45,28,49,35,18.46,11.13,34.7,26.76,55,34,4.1,1.46,12.15,4.08,15,11,3,7.31-2.16,13.69-6,24-4.81,12.9-3.87,26.93-2,55,1.2,18,2.58,15.77,4,36,1.68,24-.56,22.81,1,43,1.91,24.76,5.73,32.34,0,41-3.53,5.34-8.77,8.18-20,12-25.48,8.67-41.16,8.56-61,12-24.95,4.32-20.34,8-55,16-20,4.62-35.55,8.22-56,8-32.22-.35-56.33-10-56-12,.26-1.62,15.71,3.36,25-5,5.86-5.27,6.3-13.18,7-25,2.92-49.52,3.16-46.53,3-49-.42-6.31-2.28-30-18-74-16.22-45.41-23.5-46.18-32-80-3.23-12.86-8.09-32.77-8-59,.09-25.58,4.79-27.23,6-63a298.93,298.93,0,0,0-3-55c-2.81-18.84-6.72-32.19-8-32-1.5.22,2.12,19-3,44-.74,3.62-4.34,21.17-8,21s-4.1-17.67-12-48c-2.9-11.14-7.12-27.33-10-27-3.15.37-.42,20.1-6,47-3.9,18.83-10,32.09-15,43-11.74,25.58-19.58,42.64-38,56-11.71,8.49-22.18,11.48-38,16-3.91,1.11-51.65,14.46-58,2-1.48-2.9-.08-6,4-15,5.7-12.65,10.39-25.8,17-38,5.61-10.37,5.27-14.72,13-63,6.34-39.63,9.52-59.45,13-73,2.65-10.33,9.44-27.88,23-63,4.5-11.65,10.18-25.85,24-37,5.13-4.14,12.13-9.63,21-9,12.25.87,20.26,12.89,25,20,14.09,21.14,12,39.92,16,40,4.24.08,13-20.9,8-42C680.5,858.9,666.48,846.94,670,843Z"
          transform="translate(-78.99 -226.47)"/>
    <path class="cls-20"
          d="M733,1505c5.08-4.18,14.08,3.7,30,6,12,1.74,23.18-1.82,45-9a422.68,422.68,0,0,0,58-24c20.59-10.44,23.25-13.8,42-22,6.3-2.76,38.22-16.73,41-12,.67,1.14,0,4-23,25-23.36,21.36-27.11,22.49-34,30-11.38,12.4-11,20-24,57-13.22,37.6-19.84,56.4-33,75-9.31,13.15-22,30.64-45,41-25,11.27-61.68,13.86-72-2-5.07-7.79.33-13.72,8-46,10-42,15.07-63.44,10-89C733.12,1520.48,727.88,1509.22,733,1505Z"
          transform="translate(-78.99 -226.47)"/>
    <path class="cls-20"
          d="M350,1314c-.52-7.54,14.4-9.76,33-25,16.13-13.22,12.87-18.09,34-41,16.11-17.47,26-28,43-34a78.06,78.06,0,0,1,40-3c24.27,4.56,38.63,19.32,44,25,7.65,8.1,16.53,17.49,16,30-.41,9.59-6.16,16.83-11,22-21.25,22.7-44.83,26.9-81,44-40.87,19.32-57.72,36.17-71,28-7-4.32-4.43-10.33-15-22C366.71,1321.12,350.54,1321.82,350,1314Z"
          transform="translate(-78.99 -226.47)"/>
    <path class="cls-20"
          d="M546,1190c1.43-4.5,12.78-.09,33-6,19.27-5.63,32.91-16.63,37-20,12.73-10.46,15.88-18.07,18-17,3.94,2-.25,31.7-21,50-4.38,3.86-17.35,15.31-35,14C560.05,1209.67,544.19,1195.68,546,1190Z"
          transform="translate(-78.99 -226.47)"/>
    <path class="cls-20"
          d="M1142,828c2-2,7.59,3.76,16,2,7.68-1.61,9.4-7.78,14-9,13.85-3.66,34,36,34,36,24.79,48.78,30,96.62,31,106,6.66,65.63-.72,109.71,7,153,3.1,17.4-.6,35.51,2,53,.31,2.07,1.29,8-2,13-2,3-4.61,4.28-8,6-13.77,7-20.65,10.49-24,14-6.3,6.61-5.39,12-10,13s-7.91-4-14-8c-14.29-9.5-32.27-5.94-37-5-18.32,3.63-29.16,15.63-33,20s-15.94,18.59-16,40c0,3.85.33,23.49,14,38,10.62,11.27,23.79,13.63,23,17-.66,2.85-10.11,1.3-21,3-6.64,1-16.69,3.74-51,30-24.47,18.73-31.7,26.81-37,24-4.79-2.54-1.33-10.43-6-30-4.37-18.31-10-22.24-7-28,5-9.64,22.54-2.2,34-14,9.62-9.91,7.55-25.77,7-30-2.29-17.56-15.54-35.11-30-37-5.17-.67-8.86.87-10-1-2.32-3.81,10.18-14.5,22-26,17.26-16.78,12.3-15,36-40,36.86-38.84,38.36-32,53-52,13.64-18.59,7.43-17.8,31-56,1.43-2.31,7.62-14.21,20-38,5.86-11.26,8.77-17,8-24-1.1-9.94-8.4-16.12-20-26-39.18-33.37-47.78-41.18-46-46,1.34-3.64,7.24-1.84,24-8,12.5-4.59,18.75-6.89,22-12,7-11.07-1.7-29-9-44C1149.92,843.36,1139.18,830.86,1142,828Z"
          transform="translate(-78.99 -226.47)"/>
    <path class="cls-20"
          d="M1222,840c-4.23,4.21,10.55,20.36,22,45,23.08,49.66,14.18,94,24,95,5.34.54,11.72-12.17,14-18,4.16-10.65,3.06-20,4-20,1.41-.06-1.72,21,9,39,2.77,4.65,5,6.73,29,26,16.67,13.42,25,20.13,30,24,34.87,27.06,33.27,23.95,39,30,21.73,23,23,44.79,31,44,6.64-.66,10-16.23,14-35,3.31-15.44,2.87-33,2-68-.22-9-.61-19.34-7-23-4.07-2.33-8.1-.52-13,0-11.12,1.18-18.77-5.15-38-19-36.31-26.15-33.4-21.14-44-31a288.91,288.91,0,0,1-29-31c-7.9-10.21-12.51-18-15-17-2,.79-1.09,6.47,1,29,1.76,18.94,1.78,21.8,1,22-1.89.5-6-15.23-16-36-15.68-32.71-29.07-43.12-33-46C1239.39,844.42,1225.55,836.47,1222,840Z"
          transform="translate(-78.99 -226.47)"/>
    <path class="cls-20"
          d="M1469,980c-2.56,2,9.7,18.37,18,39,12.35,30.71,9.58,55,13,55,2.76,0,6.38-15.91,6-32-.45-19-6.31-33-4-34,2.73-1.13,10.12,18.87,18,18,5.79-.64,8-12.13,12-23,6.89-18.79,12.25-17.12,34-49,25.87-37.92,16.93-38.28,37-63,9.07-11.18,16.34-17.8,15-27-1.19-8.14-9.13-13.76-25-25-13.81-9.78-20.85-14.63-27-13-8.44,2.24-11.18,13-17,28,0,0-11.39,29.31-27,53-20.84,31.63-40.35,36.46-40,57,.18,10.53,5.51,20.92,2,23C1480.16,989.28,1471.13,978.37,1469,980Z"
          transform="translate(-78.99 -226.47)"/>
    <path class="cls-20"
          d="M916,827c-2.16-4.56-1.39-8.62,0-16,1.66-8.76,2.87-15.18,8-18s11.24-.45,15,1c2.73,1.06,18,6.95,19,21a22.13,22.13,0,0,1-10,20c-8.34,5.29-17.24,2.54-19,2C926.81,836.32,919.33,834,916,827Z"
          transform="translate(-78.99 -226.47)"/>
    <path class="cls-20"
          d="M938,876c-3.22.34-2.67,33.9-1,59,2.11,31.68,4.88,33.05,10,78,2.55,22.39,4.25,43,10,74a134.2,134.2,0,0,0,13,39c1.07,2,16.73,31.68,26,29,3.07-.89,3.94-4.89,7-16,8.45-30.7,4.9-11.37,11-37,5.74-24.11,8.62-36.17,9-42,.75-11.43-.39-23.14-8-49-9.07-30.81-16.18-43.83-32-83-17-42.14-23.58-63.67-26-63-2,.56,1.29,15.88,6,48,1.1,7.48,11.27,77.36,8,78-2.85.55-16.24-51.43-22-75C942.45,889.19,940.05,875.78,938,876Z"
          transform="translate(-78.99 -226.47)"/>
    <path class="cls-20"
          d="M757,1749c8.52-5.55,20,9.68,45,16,14.58,3.69,27.39,2.13,53-1,31.51-3.85,50.76-10.82,53-6,1.51,3.25-6.86,7.25-14,21-7.25,14-3.22,18.73-8,25-9.8,12.85-31.43-1-80,2-16,1-32.6-2.4-48,2-2.76.79-7.12,2.2-10,0-4.24-3.24-1.51-11.44,3-36C754.46,1753.17,754.17,1750.84,757,1749Z"
          transform="translate(-78.99 -226.47)"/>
    <path class="cls-21"
          d="M1127,1252c-.33-6,3.87-10.66,6-13,8-8.76,19.07-10.31,24-11a55.92,55.92,0,0,1,29,4c9.84,4,15.56,9.31,27,20,2.06,1.93,19.2,18.06,17,21-.73,1-2.87-.41-8-1-1.79-.21-11.7-1.21-19,3s-5.22,9.64-11,13-13.64.31-29-6c-13.34-5.48-21.92-11-29-18C1129.29,1259.34,1127.21,1256,1127,1252Z"
          transform="translate(-78.99 -226.47)"/>
    <path class="cls-21"
          d="M1230,1227c.95-7,5.46-11.52,8-14,9.58-9.37,22.1-10.48,28-11a63.07,63.07,0,0,1,30,5,76.66,76.66,0,0,1,31,24c.76,1,.11.2,15,32,1,2.14,3.28,7,2,8s-4.65-2.5-9-5c-8.53-4.91-21.24-6.47-30-2s-7.81,12.19-15,14c-4.91,1.24-8.43-1.58-20-9-25.14-16.13-31.85-17.84-37-28C1229.32,1233.73,1229.77,1228.7,1230,1227Z"
          transform="translate(-78.99 -226.47)"/>
    <path class="cls-21"
          d="M1349,1216c2.71-6,7.61-9.16,12-12,12.7-8.2,26.15-7.37,31-7,4.26.32,21,1.84,34,15,6.23,6.3,8.82,12.87,14,26,1.4,3.55,11,28,6,31-1.55.92-3.28-.92-8-3-2.11-.93-15.86-6.78-29-2-1.88.68-13,4.72-16,14-1.51,4.63-.25,8.23-2,9-2.46,1.08-7.15-5.05-13-12-14.78-17.56-14.89-14.15-20-22C1353.5,1246.1,1342.82,1229.7,1349,1216Z"
          transform="translate(-78.99 -226.47)"/>
    <path class="cls-21"
          d="M1460,1228a34.33,34.33,0,0,1,9-12c11.13-9.16,25-7.39,28-7,17.13,2.19,26.77,14.86,29,18,4.34,6.12,5.83,11.75,8,20,2.69,10.19,2.66,17.55,2,23-.4,3.29-1.5,12.38-5,13-2.13.38-3.4-2.69-7-6-8-7.39-18.9-7.83-23-8-5.5-.23-12.82-.53-19,4-6.4,4.69-6.63,10.94-10,11-4.51.08-8.07-11-10-17C1458,1254.62,1453.81,1241.52,1460,1228Z"
          transform="translate(-78.99 -226.47)"/>
    <path class="cls-22"
          d="M1253,1323c-.18.19-1.18-.45-14-11-14.21-11.7-21.31-17.56-21-18,.47-.67,9.52,4.22,18,11C1246.15,1313.11,1253.59,1322.4,1253,1323Z"
          transform="translate(-78.99 -226.47)"/>
    <path class="cls-22"
          d="M1322,1288c-.94,1.49,7.93,6.69,17,18,7.64,9.54,9.84,16.46,11,16,1.39-.55-.07-11.16-6-20a34.28,34.28,0,0,0-14-12C1329.47,1289.76,1322.79,1286.75,1322,1288Z"
          transform="translate(-78.99 -226.47)"/>
    <path class="cls-22"
          d="M1423,1289c.34,7.45,3.48,10.36,6,18,2.74,8.29,2.06,14,3,14s2-5.64,2-11c-.07-7.72-2.54-13.37-5-19-1.29-2.94-3.64-8.33-5-8S1423,1288.34,1423,1289Z"
          transform="translate(-78.99 -226.47)"/>
    <path class="cls-22"
          d="M1503,1290c-1.08.46.85,5.56,2,15,1.34,11,.13,15.86,1,16,1.41.22,7.23-12,3-23C1507.3,1293.59,1504,1289.56,1503,1290Z"
          transform="translate(-78.99 -226.47)"/>
    <path class="cls-23"
          d="M95,1396c-2.59,3.27-2.21,7.65-2,10,.85,9.76,9.06,15.85,16,21,6.79,5,13.71,10.18,24,11,10.56.84,25.94-2.76,28-11,2.64-10.57-18.1-22.72-22-25C124.61,1393.57,101.93,1387.25,95,1396Z"
          transform="translate(-78.99 -226.47)"/>
    <path class="cls-23"
          d="M193,1440c-5.74-3.86-4.47-14.15-4-18,1.72-13.93,11.42-23,15-26,6.94-5.81,13.4-7.72,25-11,18.59-5.26,39.31-7.69,40-5,.51,2-10.8,3.33-23,14-5.77,5-10.18,11.36-19,24-7.75,11.1-9.64,15.22-16,19C208.95,1438.22,199.08,1444.09,193,1440Z"
          transform="translate(-78.99 -226.47)"/>
    <path class="cls-23"
          d="M249,1457c-6.58-8.06-5.57-18.23-5-24,1.08-10.86,5.92-18,12-27,7.91-11.69,16.21-24,26-23,5.9.58,9.76,5.7,13,10,9.9,13.14,11.87,32,6,48-2.53,6.87-6.63,18-18,23C272,1468.81,256.88,1466.66,249,1457Z"
          transform="translate(-78.99 -226.47)"/>
    <path class="cls-23"
          d="M231,1574c-3-2.88-1.87-7.61,0-19,4.09-24.85,1.47-17.85,5-35,6.17-30,10.24-32.27,12-33,5.77-2.39,13.47.69,18,5,11.54,11,5.54,32.83,0,53-5.41,19.68-11.25,24.68-15,27C244.84,1575.82,235.2,1578.09,231,1574Z"
          transform="translate(-78.99 -226.47)"/>
    <path class="cls-23"
          d="M187,1577c-4.66-7.32-3-15.94,0-29,5.15-22.22,9.3-35.5,12-44,7.14-22.51,9.39-28.26,14-29,5.12-.82,10.45,5,13,9,3.57,5.64,4.49,12.24-4,48-1,4.32-5.57,22.95-16,41-2.42,4.19-6.18,10.12-11,10C190.75,1582.9,187.73,1578.14,187,1577Z"
          transform="translate(-78.99 -226.47)"/>
    <path class="cls-23"
          d="M163,1557c-3.7-2.63-1.66-10.51,3-31,5.4-23.77,5.48-25.63,8-32,3.56-9,11.19-25,15-24,2.86.77,2.41,10.85,2,20-.69,15.46-2.95,16.66-12,52-1.31,5.11-3.19,12.62-9,15C169.21,1557.32,165.45,1558.74,163,1557Z"
          transform="translate(-78.99 -226.47)"/>
    <path class="cls-23"
          d="M1632,744a33.83,33.83,0,0,1,12-19c12.19-9.39,27.19-6.62,36-5,1.47.27,35.61,6.91,37,24,.63,7.68-5.66,13.69-6,14-8.94,8.31-19.19,1-39,5-19.27,3.92-24.2,13.83-32,10C1631.75,769,1629.77,754.17,1632,744Z"
          transform="translate(-78.99 -226.47)"/>
    <path class="cls-23"
          d="M1657,781c-.43-5.43,27.29-11.42,30-12,11.48-2.44,29.25-6,51-1,16.37,3.77,36,12.64,35,18-.75,4.21-13.95,5.08-28,6-9.35.62-23.49.91-53-3C1668.85,785.93,1657.26,784.33,1657,781Z"
          transform="translate(-78.99 -226.47)"/>
    <path class="cls-23"
          d="M1704,702c-.5-5.17,5.78-6.27,12-16,6.44-10.07,3.26-14.44,10-23,2.41-3.06,7.85-10,15-10,9.09,0,17.09,10.54,19,20,3.37,16.66-12.12,29.7-15,32-2.6,2.07-14,11.18-27,8C1712.6,711.68,1704.54,707.67,1704,702Z"
          transform="translate(-78.99 -226.47)"/>
    <path class="cls-23"
          d="M1770,764c.23-2.37,9.47-2.8,36-5,28.84-2.39,33.23-3.14,43-2,12.86,1.5,30.22,5.74,30,9-.25,3.68-22.48.16-62,6a81.72,81.72,0,0,1-35-2C1779.32,769.22,1769.76,766.45,1770,764Z"
          transform="translate(-78.99 -226.47)"/>
    <path class="cls-23"
          d="M1797,783c.13-1.74,12.09-2.52,36-4,19-1.18,26.65-1.25,36,2,8.35,2.9,17.73,8.31,17,11-.43,1.6-4.3,1.76-27,1-25.41-.85-29.84-1.36-34-2C1815.49,789.54,1796.79,785.83,1797,783Z"
          transform="translate(-78.99 -226.47)"/>
    <path class="cls-23"
          d="M1749,748c0-4,24.33-6.71,27-7a158.21,158.21,0,0,1,51,3c6.61,1.45,16.17,4,16,5-.22,1.33-16-3.64-37-1-17.36,2.19-23.09,7.66-39,6C1759.1,753.17,1749,750.62,1749,748Z"
          transform="translate(-78.99 -226.47)"/>
</svg>