<svg xmlns="http://www.w3.org/2000/svg" viewBox="0 0 614.2 614.2">
    <defs>
        <style>
            .cls-1{fill:#fff;}.cls-2{fill:#fcf56b;}.cls-3{fill:#f91e58;}.cls-4{fill:#11113f;}.cls-5{fill:none;stroke:#11113f;stroke-miterlimit:10;stroke-width:21px;}
        </style>
    </defs>
    <title>star</title>
    <g id="Слой_2" data-name="Слой 2">
        <g id="Слой_1-2" data-name="Слой 1">
            <circle class="cls-1" cx="307.1" cy="307.1" r="307.1"/>
            <circle class="cls-2" cx="305.66" cy="283.98" r="164.32"/>
            <polygon class="cls-3"
                     points="242.24 268.6 285.48 264.76 305.66 228.24 323.92 263.8 371.96 268.6 336.41 299.35 343.14 339.71 307.58 319.53 267.22 342.59 279.72 299.35 242.24 268.6"/>
            <path class="cls-4"
                  d="M477.76,283.88a45.05,45.05,0,0,0-10.38-58.71,45.21,45.21,0,0,0-29.89-51.79,45.28,45.28,0,0,0-45.74-38.44,45.2,45.2,0,0,0-56.12-20.47,45.12,45.12,0,0,0-59.77,0,45.24,45.24,0,0,0-56.12,20.47A45,45,0,0,0,174,173.37a45.1,45.1,0,0,0-29.89,51.79,45.18,45.18,0,0,0-10.38,58.71,45.05,45.05,0,0,0,10.38,58.71A45.21,45.21,0,0,0,174,394.39a45.28,45.28,0,0,0,45.74,38.44,45.35,45.35,0,0,0,56.12,20.66,44.64,44.64,0,0,0,29.89,11.24h0a45.62,45.62,0,0,0,29.89-11.24A45.16,45.16,0,0,0,391.76,433a45.21,45.21,0,0,0,45.84-38.34,45.25,45.25,0,0,0,29.89-51.79,45.18,45.18,0,0,0,10.38-58.71Zm-11.82,28.25a26.94,26.94,0,0,1-13.45,18.93,9.15,9.15,0,0,0-4,11.05,27.16,27.16,0,0,1-15.86,35,30.55,30.55,0,0,1-5.09,1.35,8.94,8.94,0,0,0-7.59,9A27.09,27.09,0,0,1,393,414.86h-.19a28.42,28.42,0,0,1-5-.48,8.91,8.91,0,0,0-10.19,5.86A27.1,27.1,0,0,1,343,436.77a30.92,30.92,0,0,1-4.8-2.21,9,9,0,0,0-11.63,2,27.13,27.13,0,0,1-38.15,3.75,34.5,34.5,0,0,1-3.75-3.75,9,9,0,0,0-11.63-2,27.18,27.18,0,0,1-37.28-9.22,30.9,30.9,0,0,1-2.4-5.09,9,9,0,0,0-10.19-5.86,27.16,27.16,0,0,1-31.61-21.81,28.23,28.23,0,0,1-.48-4.9,9,9,0,0,0-7.59-9,27.15,27.15,0,0,1-22.39-31.13,30.56,30.56,0,0,1,1.35-5.09,9,9,0,0,0-4-11.05A27,27,0,0,1,151.24,290a9,9,0,0,0,0-11.72,27.11,27.11,0,0,1,3-38.25,35.07,35.07,0,0,1,4.32-3.07,9.15,9.15,0,0,0,4-11.05,27.16,27.16,0,0,1,15.86-35,23.42,23.42,0,0,1,5.09-1.35,8.94,8.94,0,0,0,7.59-9A27.09,27.09,0,0,1,218,153.19h.19a28.42,28.42,0,0,1,5,.48,8.91,8.91,0,0,0,10.19-5.86A27.1,27.1,0,0,1,268,131.28a30.92,30.92,0,0,1,4.8,2.21,9,9,0,0,0,11.63-2,27.13,27.13,0,0,1,38.15-3.75,34.5,34.5,0,0,1,3.75,3.75,9,9,0,0,0,11.63,2A27.22,27.22,0,0,1,375.14,143a30.92,30.92,0,0,1,2.21,4.8,9,9,0,0,0,10.19,5.86,27.11,27.11,0,0,1,32.1,27,9,9,0,0,0,7.59,9,27.15,27.15,0,0,1,22.39,31.13,30.55,30.55,0,0,1-1.35,5.09,9,9,0,0,0,4,11.05,27,27,0,0,1,7.21,41.32,9,9,0,0,0,0,11.72,26.88,26.88,0,0,1,6.44,22.1Z"/>
            <path class="cls-4" d="M396.08,518.83H215.33a9,9,0,1,0,0,18.07H396.08a9,9,0,0,0,0-18.07Z"/>
            <path class="cls-4"
                  d="M257.81,342a9,9,0,0,0,6.73,10.86,8.71,8.71,0,0,0,6.73-1.06l34.4-20.56,34.59,20.66a9,9,0,0,0,12.4-3.07,8.71,8.71,0,0,0,1.06-6.73L344.77,303l30.17-26.43a9.11,9.11,0,0,0,1.35-12.68,9,9,0,0,0-6.63-3.36l-40-3.65-16-36.9a9,9,0,0,0-11.82-4.8A9.38,9.38,0,0,0,297,220l-16,36.9-40,3.65a9,9,0,0,0-5.29,16L265.88,303Zm6.44-65.25,24.31-2.21a9,9,0,0,0,7.5-5.38l9.61-22.39,9.61,22.39a9.2,9.2,0,0,0,7.5,5.38l24.31,2.21-18.35,16a9,9,0,0,0-2.88,8.84l5.38,23.83L310.27,312.9a8.85,8.85,0,0,0-9.22,0L280.1,325.39l5.38-23.83a9,9,0,0,0-2.88-8.84Z"/>
            <circle class="cls-5" cx="307.1" cy="285.42" r="125.88"/>
        </g>
    </g>
</svg>