<svg xmlns="http://www.w3.org/2000/svg" viewBox="0 0 614.2 614.2">
    <defs>
        <style>.cls-1{fill:#fff;}.cls-2{fill:#ffd56e;}.cls-3{fill:#ffff6c;}.cls-4{fill:#11113f;}</style>
    </defs>
    <title>stars</title>
    <g id="Слой_2" data-name="Слой 2">
        <g id="Слой_1-2" data-name="Слой 1">
            <circle class="cls-1" cx="307.1" cy="307.1" r="307.1"/>
            <polygon class="cls-2"
                     points="349.32 183.6 382.32 155.6 379.32 109.6 417.32 132.6 459.32 118.6 449.32 162.6 477.32 196.6 429.32 199.6 405.32 237.6 391.32 195.6 349.32 183.6"/>
            <polygon class="cls-2"
                     points="137.32 191.6 165.32 163.6 155.32 118.6 196.32 135.6 236.32 109.6 236.32 155.6 267.32 187.6 223.32 195.6 205.32 237.6 182.32 199.6 137.32 191.6"/>
            <polygon class="cls-3"
                     points="190.32 277.6 267.32 267.6 307.32 191.6 345.32 263.6 429.32 277.6 369.32 338.6 382.32 422.6 309.32 387.6 236.32 422.6 245.32 339.6 190.32 277.6"/>
            <path class="cls-4"
                  d="M483.43,192.7l-26.28-31.81,10.94-40a8.68,8.68,0,0,0-11.5-10.29l-38.6,15-34.67-22.74a8.68,8.68,0,0,0-13.43,7.74L372.32,152,339.71,177.6a8.68,8.68,0,0,0,3.21,15.15l36.9,9.68-8.68,59L351,258.35l-36.4-72.74a8.68,8.68,0,0,0-15.47,0L262.63,258.1l-3.08.44-4.4-61.8,15.4-4a8.68,8.68,0,0,0,3.21-15.14l-32.38-25.9,2.14-41.1a8.68,8.68,0,0,0-13.39-7.73L195.49,125.6l-38.66-15A8.68,8.68,0,0,0,145.32,121l10.94,39.92L130,193h0l-.57.82h0l-.44.82h0v.82h0a8.74,8.74,0,0,0,0,1.07h0a8.55,8.55,0,0,0,0,.88h0a8.55,8.55,0,0,0,0,1.07h0v.82l12.57,56a8.69,8.69,0,0,0,17-3.39v-.69l-10.75-43.69,29.86,1.45L200,243.82a8.68,8.68,0,0,0,7.29,4h.88a8.68,8.68,0,0,0,7.17-5.53L230,203.5l7.8-2.07,4.4,60.17-59.73,8.93h-1.76l-.94.5h0l-.75.57h0l-.75.75h0l-2.07,1.82h0l-.44.82h0l-.38,1h0a9,9,0,0,0,0,.94h0a8.67,8.67,0,0,0,0,1.07h0a8.42,8.42,0,0,0,0,.88h0a8.67,8.67,0,0,0,0,.94h0l16,64.88a8.68,8.68,0,1,0,16.79-4.15l-8.61-35,35.74,35.39L222,422.67h0a8.55,8.55,0,0,0,0,1.13h0v1.13l9.12,61.49a8.68,8.68,0,0,0,8.55,7.67H241a8.68,8.68,0,0,0,7.29-9.81L240,428.89,298,399V536.09a8.68,8.68,0,1,0,17.29,0V398.66l58,29.86-4.5,30.18a8.68,8.68,0,0,0,7.29,9.81h1.32a8.68,8.68,0,0,0,8.55-7.36l5.34-36.21v-1.26h0a8.73,8.73,0,0,0,0-1.13h0L378.25,342.2,414,306.74l-9.7,39.61a8.68,8.68,0,1,0,16.79,4.15l17.1-69.16h0a8.81,8.81,0,0,0,0-.94h0a8.41,8.41,0,0,0,0-.88h0a8.67,8.67,0,0,0,0-1.07h0a8.73,8.73,0,0,0,0-.94h0l-.38-1h0l-.75-2.45h0l-.57-.75h0l-.75-.75h0L435,272h0l-.94-.5h-1.76L389.5,265.2l3.9-35.14L398,242.13a8.68,8.68,0,0,0,7.17,5.53H406a8.68,8.68,0,0,0,7.29-4l22.38-34.89,41.43-1.95a8.68,8.68,0,0,0,6.18-14.12Zm-262-5a8.68,8.68,0,0,0-5.91,5.28l-10.2,26.81-15.53-24.14a8.68,8.68,0,0,0-6.85-4l-28.62-1.34,18.17-22.26a8.68,8.68,0,0,0,1.63-7.73l-7.55-27.72L193.32,143a8.68,8.68,0,0,0,8-1l24-15.78-1.54,28.35a8.68,8.68,0,0,0,2.77,7.8l22.44,18Zm190,97.26-48.6,48.1a8.68,8.68,0,0,0-2.45,7.54l11.07,67.52-60.79-31.43H304l-60.73,31.4,9.63-67.49a8.68,8.68,0,0,0-2.45-7.54L201.9,284.9l51-7.8h0l16.6-2.51a8.68,8.68,0,0,0,6.29-4.65l30.74-61.11L337.32,270a8.68,8.68,0,0,0,6.29,4.65l33.13,5.09h0Zm18.86-93.17a8.68,8.68,0,0,0-6.85,4L408,219.93l-10.12-26.72h0v-.82h0l-.31-.57h0l-1.21-1.45h0l-.69-.69h0l-.63-.5h0l-.63-.38H392.8l-28.61-8.42,22.44-18a8.68,8.68,0,0,0,3.39-7.23l-1.65-28.65L412.2,142a8.68,8.68,0,0,0,7.92.82l26.47-10.18L439,160.4a8.68,8.68,0,0,0,1.63,7.73l18.48,22.26Z"/>
            <path class="cls-4"
                  d="M375,475.67a8.68,8.68,0,0,0-9.81,7.29v.94a8.68,8.68,0,0,0,7.29,9.81h1.26a8.68,8.68,0,0,0,8.53-7.41v-.94A8.68,8.68,0,0,0,375,475.67Z"/>
            <path class="cls-4" d="M214,366.78v-.5a8.68,8.68,0,1,0-16.79,4.15v.5A8.68,8.68,0,1,0,214,366.78Z"/>
        </g>
    </g>
</svg>