<svg xmlns="http://www.w3.org/2000/svg" viewBox="0 0 614.2 614.2">
    <defs>
        <style>
            .cls-1{fill:#fff;}.cls-2{fill:#00c3ff;}.cls-3{fill:#ccc;}.cls-4{fill:#a5a5a5;}.cls-5{fill:#f6871c;}.cls-6{fill:#f9f94b;}.cls-7{fill:#d8472a;}.cls-8{fill:#92e03f;}.cls-9{fill:#11113f;}
        </style>
    </defs>
    <title>stationery</title>
    <g id="Слой_2" data-name="Слой 2">
        <g id="Слой_1-2" data-name="Слой 1">
            <circle class="cls-1" cx="307.1" cy="307.1" r="307.1"/>
            <rect class="cls-2" x="385.58" y="243.15" width="84.71" height="116.36"/>
            <rect class="cls-3" x="143.91" y="158.71" width="207.44" height="317.03"/>
            <rect class="cls-4" x="143.91" y="158.71" width="207.44" height="41.13"/>
            <rect class="cls-5" x="257.15" y="327.53" width="175.93" height="102.76"/>
            <polygon class="cls-6" points="257.15 327.53 345.11 378.94 433.08 327.53 257.15 327.53"/>
            <circle class="cls-7" cx="196.65" cy="251.84" r="21.63"/>
            <rect class="cls-8" x="385.58" y="158.71" width="84.71" height="50.02"/>
            <circle class="cls-9" cx="177.74" cy="304.25" r="6.63"/>
            <circle class="cls-9" cx="207" cy="304.25" r="6.63"/>
            <circle class="cls-9" cx="237.12" cy="304.25" r="6.63"/>
            <circle class="cls-9" cx="351.35" cy="300.47" r="6.63"/>
            <circle class="cls-9" cx="413.31" cy="273.47" r="6.63"/>
            <circle class="cls-9" cx="442.56" cy="273.47" r="6.63"/>
            <circle class="cls-9" cx="177.74" cy="427.84" r="6.63"/>
            <circle class="cls-9" cx="207" cy="427.84" r="6.63"/>
            <circle class="cls-9" cx="427.97" cy="183.72" r="6.63"/>
            <path class="cls-9"
                  d="M470.29,236.52H385.58a6.65,6.65,0,0,0-6.63,6.63V321H257.15a6.65,6.65,0,0,0-6.63,6.63V430.36a6.65,6.65,0,0,0,6.63,6.63h87.57V469.1H150.55V165.34H344.72V273.4a6.63,6.63,0,0,0,13.27,0V158.64a6.65,6.65,0,0,0-6.63-6.63H143.91a6.65,6.65,0,0,0-6.63,6.63v317a6.65,6.65,0,0,0,6.63,6.63H351.35a6.65,6.65,0,0,0,6.63-6.63V436.92h75.09a6.65,6.65,0,0,0,6.63-6.63V366.08h30.58a6.65,6.65,0,0,0,6.63-6.63V243.15A6.65,6.65,0,0,0,470.29,236.52Zm-61,97.65L345,371.25l-64.21-37.08ZM263.78,423.72V339.61l78,45.11a6.59,6.59,0,0,0,6.63,0l78-45.11v84.12Zm199.87-70.85H439.71V327.6a6.65,6.65,0,0,0-6.63-6.63h-40.8V249.79h71.38Z"/>
            <path class="cls-9"
                  d="M168.39,251.84a28.26,28.26,0,1,0,28.26-28.26h0A28.24,28.24,0,0,0,168.39,251.84Zm43.25,0a15,15,0,1,1-15-15h0a14.93,14.93,0,0,1,15,15Z"/>
            <path class="cls-9"
                  d="M470.29,152.07H385.58a6.65,6.65,0,0,0-6.63,6.63v50a6.65,6.65,0,0,0,6.63,6.63h84.71a6.65,6.65,0,0,0,6.63-6.63v-50a6.65,6.65,0,0,0-6.63-6.63Zm-6.63,50H392.21V165.34h71.45Z"/>
            <path class="cls-9"
                  d="M354.87,199.84c0-3.65-4.11-6.63-9.22-6.63H148c-5,0-9.22,3-9.22,6.63s4.11,6.63,9.22,6.63H345.64C350.75,206.47,354.87,203.48,354.87,199.84Z"/>
            <polygon class="cls-9" points="344.72 260.4 344.72 323.02 358.18 323.02 357.98 260.4 344.72 260.4"/>
        </g>
    </g>
</svg>