<svg xmlns="http://www.w3.org/2000/svg" viewBox="0 0 614.2 614.2">
    <defs>
        <style>
            .cls-1{fill:#fff;}.cls-2{fill:#f7e6d5;}.cls-3{fill:#f1f98a;}.cls-4{fill:#a5a5f2;}.cls-5{fill:#6363d6;}.cls-6{fill:#909091;}.cls-7{fill:#11113f;}
        </style>
    </defs>
    <title>support</title>
    <g id="Слой_2" data-name="Слой 2">
        <g id="Слой_1-2" data-name="Слой 1">
            <circle class="cls-1" cx="307.1" cy="307.1" r="307.1"/>
            <polygon class="cls-2"
                     points="246.99 183.67 252.27 281.6 285.7 317.96 329.68 317.96 357.24 295.09 371.32 248.17 371.32 187.52 307.1 153.17 246.99 183.67"/>
            <polygon class="cls-3"
                     points="244.65 194.81 239.96 155.52 265.17 124.44 351.38 124.44 368.39 143.79 374.25 188.94 327.33 166.07 271.63 194.81 244.65 194.81"/>
            <polygon class="cls-4"
                     points="227.64 344.36 257.55 344.36 308.57 390.1 357.83 344.36 390.08 351.1 310.91 432.32 227.64 344.36"/>
            <polygon class="cls-5"
                     points="310.91 432.32 390.08 351.1 419.99 351.1 465.73 391.71 485.09 465.75 132.05 465.75 150.23 400.06 187.76 360.77 225.29 349.92 310.91 432.32"/>
            <polygon class="cls-6" points="377.19 212.99 395.95 212.99 395.95 258.73 368.39 258.73 377.19 212.99"/>
            <polygon class="cls-6" points="238.78 212.99 223.53 212.99 223.53 257.56 246.99 262.25 238.78 212.99"/>
            <circle class="cls-6" cx="317.95" cy="274.56" r="7.04"/>
            <path class="cls-7"
                  d="M402,209.51a16.58,16.58,0,0,0-12.23-5.35h-8.48l1-15.53,1.23-19.35a53.33,53.33,0,0,0-49.74-56.67q-1.58-.11-3.18-.11H287.93a53.33,53.33,0,0,0-53,53.62v0q0,1.58.11,3.18l1.88,28.87.41,5.88h-9.53a16.58,16.58,0,0,0-16.6,16.53q0,.8.08,1.6L214,254.44a16.46,16.46,0,0,0,10.88,14.17l.4,81.32c.36,4,2.15-3.45,6.16-3.81,3.52-.32,7-1.76,7.33-5.28l.64-71.58h1.94A68.32,68.32,0,0,0,366,298.66a37.22,37.22,0,0,0,13.7-3.77c21-11.23,23.52-39.39,23.52-40.57h0l3.06-32.1A16.58,16.58,0,0,0,402,209.51ZM230.54,255a2,2,0,0,1-2.06-1.86l-2.76-32.22a2.06,2.06,0,0,1,1.87-2.23H238l2.35,36.34Zm18.69-86.55a38.8,38.8,0,0,1,36.36-41.1h0q1.15-.07,2.3-.07h45.22l-11.23,30c-1.82,3-18.34,27.87-71.25,32.81Zm113.57,96.32a53.85,53.85,0,0,1-5.17,19.76,65.74,65.74,0,0,1-21.29-6.88,18.17,18.17,0,1,0-8.65,11.76,94.07,94.07,0,0,0,21,8.11,53.74,53.74,0,0,1-93.25-32.86l-3.94-60.09c41.16-3.77,63.2-18.69,74.2-29.4a42.15,42.15,0,0,0,12.76,9.17,142.7,142.7,0,0,0,29,9.47Zm-40.57,9.05a3.64,3.64,0,1,1-3.64-3.64h0a3.64,3.64,0,0,1,3.64,3.64Zm47-105.42-.7,10.7A116.3,116.3,0,0,1,345,171.46c-7.92-4.12-9.68-7.47-9.76-8.52h0L347,131.08a38.8,38.8,0,0,1,11.44,8.41,38.4,38.4,0,0,1,10.64,29Zm5.35,112.9a68.61,68.61,0,0,0,2.47-11.76h7.47a28.34,28.34,0,0,1-10.12,11.76Zm14.61-28.15a2,2,0,0,1-2.06,1.88h-9.2l2.35-36.34h9.47a2.06,2.06,0,0,1,2.07,2h0q0,.09,0,.18Z"/>
            <path class="cls-7"
                  d="M491.42,464.4l-7-38.71A108,108,0,0,0,378.24,337H357.07a7.29,7.29,0,0,0-5.11,2.12L309.15,382l-42.8-42.8a7.29,7.29,0,0,0-5.11-2.12H240.06a108.36,108.36,0,0,0-20,1.88h0A107.83,107.83,0,0,0,134,425.58l-7.12,38.82A7.29,7.29,0,0,0,134.1,473H484.21a7.29,7.29,0,0,0,7.29-8.59Zm-177.16-67,45.8-45.8H381l-71.84,72L298.6,413Zm-74.2-45.8h18.11l40.68,40.68L288.4,402.7l-51.15-51.15ZM142.81,458.4l5.47-30.4a94.07,94.07,0,0,1,70.56-74.26l85.2,85.2.53.47a7.29,7.29,0,0,0,9.17,0l.53-.47,85-85A94.07,94.07,0,0,1,470,428l5.47,30.23H142.81Z"/>
        </g>
    </g>
</svg>