<svg xmlns="http://www.w3.org/2000/svg" viewBox="0 0 614.2 614.2">
    <defs>
        <style>.cls-1{fill:#fff;}.cls-2{fill:#a7ea88;}.cls-3{fill:#938272;}.cls-4{fill:#f2f2d3;}.cls-5{fill:#11113f;}
        </style>
    </defs>
    <title>table</title>
    <g id="Слой_2" data-name="Слой 2">
        <g id="Слой_1-2" data-name="Слой 1">
            <circle class="cls-1" cx="307.1" cy="307.1" r="307.1"/>
            <polygon class="cls-2"
                     points="233.29 121.34 253.2 121.34 273.93 152.85 238.27 173.58 222.51 137.92 233.29 121.34"/>
            <polygon class="cls-3" points="183.54 210.07 429.01 210.07 480.43 346.91 133.78 344.42 183.54 210.07"/>
            <polygon class="cls-4" points="222.51 307.1 244.9 239.93 365.98 239.93 389.2 307.1 222.51 307.1"/>
            <path class="cls-5"
                  d="M486.17,343.94,436.9,207.43a7.06,7.06,0,0,0-6.63-4.67H204l-4.72-28.27,24.11-13.91,9.39,16.24a7.06,7.06,0,0,0,9.63,2.57h0l34.76-20.3a7.06,7.06,0,0,0,2.61-9.61h0l-13.1-22.13a27.05,27.05,0,0,0-49.76,20.3l-28.93,17.21a7.06,7.06,0,0,0-3.45,7.26l5.08,30.81h-7.92a7.06,7.06,0,0,0-6.63,4.67l-49.43,137a7.06,7.06,0,0,0,6.63,9.44H174.6v106a7.06,7.06,0,0,0,14.1,0V437.73h234.5v22.39a7.06,7.06,0,0,0,14.1,0V353.84h42.48a7.06,7.06,0,0,0,6.49-10.15ZM230.75,137.54a13,13,0,0,1,12.5-9.64,13.09,13.09,0,0,1,11.37,6.49L264,150.64l-22.72,13-9.39-16.24A13,13,0,0,1,230.75,137.54ZM423.21,423.67H188.73V353.84h24.46v40a7.06,7.06,0,0,0,14.1,0V383.1H384.63v10.58a7.06,7.06,0,0,0,14.1,0V353.88h24.48ZM227.3,369.17V353.94H384.63v15.23Zm-85-29.44L176.49,245l4.88-14.17,5.08-14H425l30.81,85.31,5.13,14.1,8.74,23.47Z"/>
            <path class="cls-5"
                  d="M374,235.9a7.06,7.06,0,0,0-6.7-5.08H244.66a7.06,7.06,0,0,0-6.7,4.77l-24.41,71.32a7.06,7.06,0,0,0,6.7,9.34H391.69a7.06,7.06,0,0,0,6.49-9.79ZM230.14,302.24,249.68,245H362.19l19.54,57.22Z"/>
        </g>
    </g>
</svg>