<svg xmlns="http://www.w3.org/2000/svg" viewBox="0 0 614.2 614.2">
    <defs>
        <style>.cls-1{fill:#fff;}.cls-2{fill:#a4ede6;}.cls-3{fill:#6d3862;}.cls-4{fill:#e5d8a5;}.cls-5{fill:#11113f;}
        </style>
    </defs>
    <title>talking</title>
    <g id="Слой_2" data-name="Слой 2">
        <g id="Слой_1-2" data-name="Слой 1">
            <circle class="cls-1" cx="307.1" cy="307.1" r="307.1"/>
            <polygon class="cls-2"
                     points="139.02 145.04 156.79 130.36 429.59 130.36 452 147.36 454.32 283.38 438.87 300.38 226.34 300.38 217.84 348.29 175.34 300.38 148.29 298.06 135.15 282.6 139.02 145.04"/>
            <polygon class="cls-3"
                     points="305.17 362.2 343.81 372.25 377.81 400.84 388.63 458.03 390.18 488.17 229.44 485.85 229.44 420.94 253.39 380.75 305.17 362.2"/>
            <ellipse class="cls-4" cx="307.1" cy="323.95" rx="36.71" ry="33.62"/>
            <path class="cls-5"
                  d="M429.28,121.47H160a30.29,30.29,0,0,0-30.29,30.29h0V277A30.29,30.29,0,0,0,160,307.26H171l29.83,39.8a16.4,16.4,0,0,0,13.29,6.72,17.39,17.39,0,0,0,5.26-.85,16.35,16.35,0,0,0,11.36-15.61l.39-30.22H264.6a44.29,44.29,0,0,0,13.76,51.55,84.76,84.76,0,0,0-56.88,79.68V478.9H178a7.26,7.26,0,1,0,0,14.53H418.31a7.26,7.26,0,1,0,0-14.53H395.13V438.33a84.94,84.94,0,0,0-60.67-80.6A44.31,44.31,0,0,0,279,288.55a42.41,42.41,0,0,0-4.71,4.41H224a7.29,7.29,0,0,0-7.26,7.19l-.54,37.4a2.16,2.16,0,0,1-2.24,2.09,2,2,0,0,1-1.62-.85l-32-42.66a7.48,7.48,0,0,0-5.72-2.94H160a15.78,15.78,0,0,1-15.77-15.77V152.23A15.82,15.82,0,0,1,160,136.54H429.36a15.78,15.78,0,0,1,15.77,15.77V277.5a15.78,15.78,0,0,1-15.77,15.77l-97.92-.62c-4,0,.23,2.16.23,6.18s-1.16,8.27,2.86,8.27l94.82.7a30.29,30.29,0,0,0,30.29-30.29h0V152.31a30.31,30.31,0,0,0-29.83-30.84h-.54ZM380.44,438.33V479h-24v-38.1a7.26,7.26,0,0,0-14.53,0h0V479H275.65v-38.1a7.26,7.26,0,1,0-14.53,0V479H235.85V438.33a72.35,72.35,0,0,1,144.59,0ZM306,294.35a29.83,29.83,0,1,1-29.83,29.83h0A29.85,29.85,0,0,1,306,294.35Z"/>
            <circle class="cls-5" cx="237.86" cy="219.16" r="6.65"/>
            <circle class="cls-5" cx="276.73" cy="219.16" r="6.65"/>
            <circle class="cls-5" cx="311.51" cy="219.16" r="6.65"/>
            <circle class="cls-5" cx="349.61" cy="219.16" r="6.65"/>
            <circle class="cls-5" cx="364.14" cy="300.46" r="6.65"/>
        </g>
    </g>
</svg>