<svg xmlns="http://www.w3.org/2000/svg" viewBox="0 0 693 693">
    <defs>
        <style>
            .cls-1,.cls-2{fill:#fff;}.cls-1{stroke:#00c5db;stroke-width:20px;}.cls-1,.cls-5{stroke-miterlimit:10;}.cls-3{fill:#f2427f;}.cls-4{fill:#11113f;}.cls-5{fill:none;stroke:#11113f;stroke-width:21px;}
        </style>
    </defs>
    <title>target</title>
    <g id="Слой_2" data-name="Слой 2">
        <g id="Слой_1-2" data-name="Слой 1">
            <circle class="cls-1" cx="346.5" cy="346.5" r="336.5"/>
            <circle class="cls-2" cx="342.59" cy="339.59" r="198.77"/>
            <circle class="cls-3" cx="342.59" cy="339.59" r="135.52"/>
            <circle class="cls-2" cx="342.59" cy="339.59" r="64.53"/>
            <path class="cls-4"
                  d="M567.54,142.36H538.46V112.91a9.09,9.09,0,0,0-18.18,0v34.72l-38,38.08A207.87,207.87,0,0,0,195.53,486.55a199.8,199.8,0,0,0,19.27,17l-50.08,50.08a9.05,9.05,0,0,0,0,12.82,8.93,8.93,0,0,0,6.45,2.64,9.31,9.31,0,0,0,6.45-2.64l52.26-52.26a208.24,208.24,0,0,0,226-.27l52.53,52.53a8.93,8.93,0,0,0,6.45,2.64,9.31,9.31,0,0,0,6.45-2.64,9.05,9.05,0,0,0,0-12.82l-50.44-50.44a232.2,232.2,0,0,0,18.81-16.63A208.06,208.06,0,0,0,530,249.33a9.13,9.13,0,0,0-16.45,7.91,188,188,0,0,1,18.72,82.35c0,104.61-85.07,189.69-189.69,189.69S152.91,444.2,152.91,339.59,238,149.9,342.59,149.9a188.57,188.57,0,0,1,126.88,48.72l-31.9,32a143.73,143.73,0,0,0-95-35.63C262.88,195,198,259.88,198,339.59s64.89,144.6,144.6,144.6,144.6-64.89,144.6-144.6a147.56,147.56,0,0,0-5-37.9,144.34,144.34,0,0,0-31.63-58.26L489,204.89h0l44.17-44.35h34.45a9.09,9.09,0,1,0-.09-18.18Zm-103,164.06A126.47,126.47,0,1,1,342.5,213.16a125.55,125.55,0,0,1,82.16,30.36l-37.54,37.63a74.19,74.19,0,1,0,13,12.82l37.45-37.54A124.72,124.72,0,0,1,464.57,306.41Zm-66.62,33.17a55.63,55.63,0,1,1-23.81-45.44l-36.9,37a9.05,9.05,0,0,0,0,12.82,9.22,9.22,0,0,0,12.91,0l37-37.08A54.77,54.77,0,0,1,397.94,339.59Z"/>
            <circle class="cls-5" cx="342.59" cy="339.59" r="198.77"/>
        </g>
    </g>
</svg>