<svg xmlns="http://www.w3.org/2000/svg" viewBox="0 0 671.26 671.26">
    <defs>
        <style>
            .cls-1{fill:#fff;}.cls-2{fill:#737375;}.cls-3{fill:#d8d8ea;}.cls-4{fill:none;stroke:#11113f;stroke-miterlimit:10;stroke-width:17px;}.cls-5{fill:#11113f;}
        </style>
    </defs>
    <title>target-1</title>
    <g id="Слой_2" data-name="Слой 2">
        <g id="Слой_1-2" data-name="Слой 1">
            <circle class="cls-1" cx="335.63" cy="335.63" r="335.63"/>
            <circle class="cls-2" cx="334.63" cy="333.63" r="178"/>
            <circle class="cls-3" cx="334.63" cy="333.63" r="137"/>
            <circle class="cls-4" cx="334.63" cy="333.63" r="57"/>
            <path class="cls-5"
                  d="M534.63,325.13H522.29A187.66,187.66,0,0,0,343.13,146V133.46a8.5,8.5,0,0,0-16.94,0V146A187.66,187.66,0,0,0,147,325.13H134.46a8.5,8.5,0,0,0,0,16.94H147A187.66,187.66,0,0,0,326.13,521.29V533.8a8.5,8.5,0,0,0,16.94,0V521.29A187.66,187.66,0,0,0,522.29,342.13H534.8a8.5,8.5,0,0,0,0-16.94ZM326.13,504.19A171,171,0,0,1,164,342.07h22A149,149,0,0,0,326.13,482.14Zm0-39a132,132,0,0,1-123-123h66.41a65.78,65.78,0,0,0,56.61,56.61Zm0-83.4a48.84,48.84,0,0,1-39.5-39.56h39.5Zm0-56.45h-39.5a48.84,48.84,0,0,1,39.51-39.51Zm0-56.66a65.78,65.78,0,0,0-56.61,56.51H203.11a132,132,0,0,1,123-123Zm0-83.4a149,149,0,0,0-140,139.91h-22A171,171,0,0,1,326.19,163v22.21Zm16.94,17A132,132,0,0,1,466.15,325.13H399.74a65.05,65.05,0,0,0-4.48-16.84,8.5,8.5,0,0,0-15.63,6.52,48.22,48.22,0,0,1,3,10.43h-39.5Zm0,140h39.56a48.84,48.84,0,0,1-39.51,39.51Zm0,56.66a65.78,65.78,0,0,0,56.66-56.77h66.41a132,132,0,0,1-123,123V398.89Zm0,105.45V482.14a149,149,0,0,0,140.07-140h22a171,171,0,0,1-162,162ZM483.14,325.13a149,149,0,0,0-140-140v-22a171,171,0,0,1,162.1,162.06h-22.1Z"/>
        </g>
    </g>
</svg>