<svg xmlns="http://www.w3.org/2000/svg" viewBox="0 0 614.2 614.2">
    <defs>
        <style>.cls-1{fill:#fff;}.cls-2{fill:#e4e4f9;}.cls-3{fill:#11113f;}</style>
    </defs>
    <title>taskboard</title>
    <g id="Слой_2" data-name="Слой 2">
        <g id="Слой_1-2" data-name="Слой 1">
            <circle class="cls-1" cx="307.1" cy="307.1" r="307.1"/>
            <polygon class="cls-2" points="146.2 154.38 462.14 158 462.14 412.38 146.2 412.38 146.2 154.38"/>
            <path class="cls-3"
                  d="M451.73,146H343.82a40.9,40.9,0,0,0-80.21,0H155.8a22.06,22.06,0,0,0-22.09,22.09V401.61A22.06,22.06,0,0,0,155.8,423.7H258.27l-33.22,99.22a8.21,8.21,0,0,0,14.21,8.24,10.12,10.12,0,0,0,1.09-3.17l35-104.47H331.6L366.91,528a8.22,8.22,0,1,0,15.57-5.25l-33.22-99.22H451.73a22.06,22.06,0,0,0,22.09-22.09V168A22,22,0,0,0,451.73,146Zm-148-16a24.59,24.59,0,0,1,23.08,16.29H280.73A24.39,24.39,0,0,1,303.72,129.94ZM457.34,401.79a5.49,5.49,0,0,1-5.52,5.52H430.37V290.26a8.33,8.33,0,0,0-16.66,0V407.31H388.45V315.25a8.33,8.33,0,0,0-16.66,0v91.88H348.71v-65a8.33,8.33,0,1,0-16.66,0h0v65H312V321.22a8.33,8.33,0,0,0-16.66,0h0v85.91H271.58v-45a8.33,8.33,0,1,0-16.66,0h0v45.17h-19.1V365.49a8.33,8.33,0,1,0-16.66,0h0v41.82H197.08V375a8.33,8.33,0,1,0-16.66,0v32.32H155.17a5.49,5.49,0,0,1-5.52-5.52V168a5.49,5.49,0,0,1,5.52-5.52H451.1a5.49,5.49,0,0,1,5.52,5.52V401.52Z"/>
            <path class="cls-3"
                  d="M430.18,201v-4.44l-.45-.45h0l-.45-.45H388.63a8.33,8.33,0,1,0,0,16.66H404.2l-69.89,66-17.92-18a8.17,8.17,0,0,0-11.59,0h0l-59.48,59.29-17.65-17.74a8.17,8.17,0,0,0-11.59,0h0l-30,30a8.19,8.19,0,0,0,11.59,11.59h0l24.17-24.17,17.65,17.65a8.17,8.17,0,0,0,11.59,0h0l59.2-59.2,17.92,17.92a8.17,8.17,0,0,0,11.59,0h0l74-74V237.3a8.33,8.33,0,0,0,16.66,0V201.73A6.23,6.23,0,0,1,430.18,201Z"/>
            <circle class="cls-3" cx="191.92" cy="201.82" r="8.15"/>
            <circle class="cls-3" cx="191.92" cy="235.31" r="8.15"/>
            <circle class="cls-3" cx="191.92" cy="268.72" r="8.15"/>
        </g>
    </g>
</svg>