<?xml version="1.0" encoding="utf-8"?>
<!-- Generator: Adobe Illustrator 21.0.0, SVG Export Plug-In . SVG Version: 6.00 Build 0)  -->
<svg version="1.1" id="Capa_1" xmlns="http://www.w3.org/2000/svg"  x="0px" y="0px"
	 viewBox="0 0 512 512" style="enable-background:new 0 0 512 512;" xml:space="preserve">
<style type="text/css">
	.st0{fill:#FFFFFF;}
	.st1{fill:#C6B675;}
	.st2{fill:#A0A0A0;}
	.st3{fill:#FF2741;}
	.st4{fill:#F9F9F9;}
	.st5{fill:#11113F;}
	.st6{fill:#421E00;}
	.st7{fill:#352B00;}
</style>
<circle class="st0" cx="255.3" cy="258.8" r="251.6"/>
<polygon class="st1" points="213.9,129.7 200.3,167.3 201.9,219.6 219.8,240.9 256,250.1 294,243 310.7,219.6 312.5,194.8 
	308.8,155.5 296.8,129.7 263.4,114.7 240.5,114.7 "/>
<path class="st2" d="M196,114.7l-12.1,7.4l-25.4,13.7l-1.9,22.8l6.2,15.8c0,0,0,17.9,0,18.9s16.4,12.4,16.4,12.4H196l4.3-13.9
	c0,0,3.7-38.6,4-39.8c0.3-1.1,16.1-27.7,16.1-28.4s-8-11.6-8-11.6L196,114.7z"/>
<path class="st2" d="M320.9,114.7l12.1,7.4l25.4,13.7l1.9,22.8l-6.2,15.8c0,0,0,17.9,0,18.9s-16.4,12.4-16.4,12.4h-16.7l-4.3-13.9
	c0,0-3.7-38.6-4-39.8c-0.3-1.1-16.1-27.7-16.1-28.4s8-11.6,8-11.6L320.9,114.7z"/>
<path d="M156.6,272.8c-6.1,1.4-15.2,4.5-23.1,11.9c-11,10.4-13.7,23.9-16.1,43.7c-5.9,49-8.8,73.6,0.8,82.4
	c20.8,19.1,65.6-1.1,67.6-2V265L156.6,272.8z"/>
<path d="M352.5,271c6.1,1.4,15.3,4.5,23.1,11.9c11,10.4,13.7,23.9,16.1,43.7c5.9,49,8.8,73.6-0.8,82.4c-20.8,19.1-65.6-1.1-67.6-2
	V263.1L352.5,271z"/>
<polygon class="st3" points="185.9,265 185.5,416.2 229.6,416.2 229.6,251.8 "/>
<polygon class="st3" points="326.1,265 326.5,416.2 282.4,416.2 282.4,251.8 "/>
<polygon class="st4" points="218.1,169.3 211.4,186.6 227.1,200.7 241.6,197 245.5,176.4 225.1,165.2 "/>
<polygon class="st4" points="271.9,169.3 265.3,186.6 280.9,200.7 295.4,197 299.4,176.4 278.9,165.2 "/>
<g>
	<g>
		<path class="st5" d="M351.6,263l-56.6-15.1c12.5-8,21.3-21.4,23-36.9c2.2,0.7,4.4,1.1,6.7,1.3c0.7,0.1,1.5,0.1,2.2,0.1
			c7.1,0,13.9-2.5,19.3-7.2c6-5.2,9.6-12.4,10.2-20.2c0.2-3.8-0.2-7.5-1.3-11.1c4.4-5.3,7-11.9,7.5-18.8c1.4-18.5-12.6-34.6-31-36
			c-0.1,0-0.2,0-0.3,0c-4.2-8-12.3-13.5-21.5-14.2c-8.5-0.6-16.6,3-22,9.3c-9.3-5.6-20.2-8.8-31.8-8.8s-22.5,3.2-31.8,8.8
			c-5.3-6.4-13.5-10-22-9.3c-9.2,0.7-17.2,6.2-21.3,14.1c-0.1,0-0.2,0-0.3,0c-18.5,1.4-32.5,17.6-31.1,36c0.5,6.9,3.2,13.5,7.5,18.8
			c-1.1,3.6-1.5,7.4-1.3,11.1c1.1,15.5,14.2,27.4,29.5,27.4c0.7,0,1.5,0,2.2-0.1c2.3-0.2,4.5-0.6,6.7-1.2
			c1.7,15.3,10.3,28.4,22.5,36.5l-56.4,15.3c-29.4,8-50,34.8-50,65.3v87.1c0,3.4,2.8,6.2,6.2,6.2h279.3c3.4,0,6.2-2.8,6.2-6.2v-86.9
			C401.8,297.7,381.1,270.8,351.6,263z M308.9,117.3c5.6,0.4,10.6,4.3,12.2,9.8c0.9,2.8,3.5,4.6,6.4,4.4c1.1-0.1,2.1-0.1,3.1,0
			c11.7,0.9,20.5,11.1,19.6,22.8c-0.4,5.3-2.7,10.3-6.6,13.9c-2,1.9-2.5,4.8-1.3,7.2c1.4,2.7,1.9,5.8,1.7,8.8
			c-0.3,4.6-2.4,8.8-5.9,11.7c-3.5,3-7.9,4.5-12.5,4.1c-2.6-0.2-5-0.9-7.2-2.2v-30c0-18.3-7.9-34.7-20.5-46.1
			C300.6,118.6,304.6,116.9,308.9,117.3z M256,117.8c27.5,0,50,22.4,50,50v7.5c-3.3-9.6-12.5-16.5-23.2-16.5c-7.7,0-14.5,3.5-19,9
			c-2-2-4.7-3.2-7.7-3.2s-5.7,1.2-7.7,3.2c-4.5-5.5-11.4-9-19-9c-10.8,0-19.8,6.9-23.2,16.5v-7.5C206,140.2,228.5,117.8,256,117.8z
			 M294.9,183.4c0,6.7-5.5,12.2-12.2,12.2c-6.7,0-12.2-5.5-12.2-12.2c0-6.7,5.5-12.2,12.2-12.2C289.4,171.1,294.9,176.6,294.9,183.4
			z M241.5,183.4c0,6.7-5.5,12.2-12.2,12.2c-6.7,0-12.2-5.5-12.2-12.2c0-6.7,5.5-12.2,12.2-12.2S241.5,176.6,241.5,183.4z
			 M193.6,167.7v30c-2.2,1.2-4.6,2-7.2,2.2c-9.5,0.7-17.7-6.4-18.4-15.9c-0.2-3,0.4-6.1,1.7-8.8c1.2-2.4,0.7-5.4-1.3-7.2
			c-3.9-3.6-6.2-8.6-6.6-13.9c-0.9-11.7,7.9-21.9,19.6-22.8c1-0.1,2-0.1,3.1,0c2.9,0.2,5.5-1.6,6.4-4.4c1.7-5.4,6.6-9.3,12.2-9.8
			c4.3-0.3,8.3,1.4,11.1,4.4C201.6,133,193.6,149.5,193.6,167.7z M206,205.2v-13.7c3.3,9.6,12.5,16.5,23.2,16.5
			c13.5,0,24.6-11,24.6-24.6c0-0.7-0.1-1.4-0.1-2.2c0.9-0.4,1.6-0.9,2.2-1.7c0.6,0.7,1.4,1.3,2.2,1.7c-0.1,0.7-0.1,1.4-0.1,2.2
			c0,13.5,11,24.6,24.6,24.6c10.8,0,19.8-6.9,23.2-16.5v13.7c0,21.1-17.3,38.4-38.4,38.4h-23.1C223.3,243.6,206,226.3,206,205.2z
			 M223.8,409h-32.2v-27.2c0-3.4-2.8-6.2-6.2-6.2s-6.2,2.8-6.2,6.2V409h-56.8v-80.9c0-24.9,16.8-46.9,40.8-53.4l16-4.3v139.6
			c0,3.4,2.8,6.2,6.2,6.2s6.2-2.8,6.2-6.2v-143l32.2-8.7V409z M236.2,255.3c2.7,0.4,5.4,0.7,8.2,0.7h23.1c2.8,0,5.6-0.2,8.2-0.7v17
			l-16.3-11.2c-2.1-1.5-4.9-1.5-7,0l-16.3,11.1V255.3z M275.8,409h-39.6V287.2l19.8-13.6l19.8,13.6V409z M332.6,409v-27.2
			c0-3.4-2.8-6.2-6.2-6.2c-3.4,0-6.2,2.8-6.2,6.2V409h-32.2V258.8l32.2,8.6v142.6c0,3.4,2.8,6.2,6.2,6.2c3.4,0,6.2-2.8,6.2-6.2
			V270.7l15.8,4.2c24.2,6.4,41.1,28.4,41.1,53.4V409H332.6z"/>
	</g>
</g>
<g>
	<g>
		<path class="st6" d="M275.3,217.9c-1.7-3-5.4-4-8.4-2.3c-2,1.1-4.5,0.4-5.6-1.5c-1.7-3-5.4-4-8.4-2.3c-1,0.6-1.8,1.4-2.3,2.3l0,0
			c-1.1,2-3.6,2.7-5.6,1.5c-3-1.7-6.7-0.6-8.4,2.3c-1.7,3-0.6,6.7,2.3,8.4c2.5,1.4,5.3,2.1,8,2.1c3.2,0,6.3-0.9,9-2.7
			c2.7,1.7,5.8,2.7,9,2.7c2.7,0,5.5-0.7,8-2.1C275.9,224.6,277,220.8,275.3,217.9z"/>
	</g>
</g>
<g>
	<g>
		<path class="st7" d="M267.7,139.6h-23.4c-3.4,0-6.2,2.8-6.2,6.2c0,3.4,2.8,6.2,6.2,6.2h23.4c3.4,0,6.2-2.8,6.2-6.2
			C273.8,142.4,271.1,139.6,267.7,139.6z"/>
	</g>
</g>
<g>
	<g>
		<path class="st7" d="M260.2,123.5h-8.5c-3.4,0-6.2,2.8-6.2,6.2c0,3.4,2.8,6.2,6.2,6.2h8.5c3.4,0,6.2-2.8,6.2-6.2
			C266.4,126.3,263.6,123.5,260.2,123.5z"/>
	</g>
</g>
</svg>
