<svg xmlns="http://www.w3.org/2000/svg" viewBox="0 0 614.2 614.2">
    <defs>
        <style>
            .cls-1{fill:#fff;}.cls-2{fill:#3f1405;}.cls-3{fill:#876e63;}.cls-4{fill:#323838;}.cls-5{fill:#d33957;}.cls-6{fill:#a3192d;}.cls-7{fill:#11113f;}
        </style>
    </defs>
    <title>theatre</title>
    <g id="Слой_2" data-name="Слой 2">
        <g id="Слой_1-2" data-name="Слой 1">
            <circle class="cls-1" cx="307.1" cy="307.1" r="307.1"/>
            <polygon class="cls-2" points="382.51 457.52 441.28 457.52 445.15 489.23 382.51 492.32 382.51 457.52"/>
            <rect class="cls-2" x="278.87" y="455.98" width="61.1" height="36.35"/>
            <polygon class="cls-2" points="172.15 455.98 240.21 455.98 236.34 489.23 172.15 489.23 172.15 455.98"/>
            <polyline class="cls-3" points="228.84 383.13 390.24 382.51 390.24 428.91 227.99 426.51 228.84 383.13"/>
            <polygon class="cls-4" points="200.76 382.51 428.91 382.51 420.4 188.39 203.86 185.3 200.76 382.51"/>
            <polyline class="cls-5"
                      points="351.57 204.63 447.47 188.39 449.79 428.91 387.92 428.91 390.24 382.51 406.48 333.78 420.4 319.09 385.6 307.49 356.99 275.78 353.66 204.24"/>
            <polyline class="cls-5"
                      points="169.06 198.44 169.06 427.36 228.6 428.91 228.6 367.81 196.12 321.41 226.28 309.04 257.99 277.33 264.95 210.82 226.28 185.3 169.06 198.44"/>
            <polygon class="cls-6"
                     points="171.38 131.93 445.15 134.25 445.15 193.8 421.18 207.72 391.01 191.48 364.72 207.72 334.56 195.35 308.26 210.82 280.42 195.35 252.58 207.72 224.74 193.03 191.48 208.5 169.06 198.44 171.38 131.93"/>
            <path class="cls-7"
                  d="M236.18,448.55H171.45a7.26,7.26,0,0,0-7.27,7.27v36.43a7.26,7.26,0,0,0,7.27,7.27h64.73a7.26,7.26,0,0,0,7.27-7.27V455.82A7.31,7.31,0,0,0,236.18,448.55ZM228.91,485h-50V463.25h50V485Z"/>
            <path class="cls-7"
                  d="M340.82,448.55H276.09a7.26,7.26,0,0,0-7.27,7.27v36.43a7.26,7.26,0,0,0,7.27,7.27h64.73a7.26,7.26,0,0,0,7.27-7.27V455.82A7.31,7.31,0,0,0,340.82,448.55ZM333.55,485h-50V463.25h50V485Z"/>
            <path class="cls-7"
                  d="M445.46,448.55H380.8a7.26,7.26,0,0,0-7.27,7.27v36.43a7.26,7.26,0,0,0,7.27,7.27h64.73a7.26,7.26,0,0,0,7.27-7.27V455.82a7.33,7.33,0,0,0-7.35-7.27ZM438.19,485h-50V463.25h50Z"/>
            <path class="cls-7"
                  d="M267.12,404.55a6.53,6.53,0,0,0-.39-1.31,6.17,6.17,0,0,0-.62-1.24,4.07,4.07,0,0,0-.93-1.08,7.35,7.35,0,0,0-6.57-2l-1.31.39a6.17,6.17,0,0,0-1.24.62,4.07,4.07,0,0,0-1.08.93,13.46,13.46,0,0,0-.93,1.08,9.23,9.23,0,0,0-.62,1.24,8.45,8.45,0,0,0-.39,1.31,4.2,4.2,0,0,0,0,1.39,7.81,7.81,0,0,0,2.17,5,13.47,13.47,0,0,0,1.08.93,9.23,9.23,0,0,0,1.24.62l1.31.39h1.39a7.26,7.26,0,0,0,7.27-7.27C267.35,405.17,267.27,404.86,267.12,404.55Z"/>
            <path class="cls-7"
                  d="M447.93,127.06H169a7.26,7.26,0,0,0-7.27,7.27h0V428.21a7.26,7.26,0,0,0,7.27,7.27H447.86a7.26,7.26,0,0,0,7.27-7.27v-294A7.13,7.13,0,0,0,447.93,127.06ZM176.25,209.58l.77.46h.31l1.31.85H179l1,.62h.46l.93.46h.46l1.24.54h0l1.47.62H185l1.08.39h.46l1.08.31h.46l1.39.31h0l1.62.31h5.49a35.05,35.05,0,0,0,27.92-13.77,35.17,35.17,0,0,0,27.92,13.77h6v27.22a66.84,66.84,0,0,1-66.82,66.82H175.86Zm45,211.36h-45V324.74c39.06,4.56,44.47,46.17,45,63.73v32.48Zm159.93-29.31v7.12H289.7a7.3,7.3,0,0,0-1.24,14.54h92.65V421H235.87V391H381.11Zm.85-15H235.1a88,88,0,0,0-15-41.68,58.77,58.77,0,0,0-11.52-12.06,81.45,81.45,0,0,0,65-79.66V209.81a34.86,34.86,0,0,0,7.27-7,35,35,0,0,0,49,6.73,34.66,34.66,0,0,0,6.73-6.73,36.85,36.85,0,0,0,7.27,7v33.41a81.53,81.53,0,0,0,65,79.66,58.77,58.77,0,0,0-11.52,12.06,88.26,88.26,0,0,0-15.47,41.45Zm58.7,44.47h-45V388.62c.46-17.48,5.88-59.09,45-63.73Zm0-111.13H425.2a66.84,66.84,0,0,1-66.82-66.82V215.92h6a35.05,35.05,0,0,0,27.92-13.77,35.17,35.17,0,0,0,27.92,13.77h5.49l1.62-.31h0l1.39-.31h.46l1.08-.31h.46l1.08-.39h.39l1.47-.62h0l1.24-.54h.46l.93-.46h.46l1.08-.62h.31l1.31-.85h.31l.77-.46V311.28Zm0-128.69a20.61,20.61,0,1,1-41.22,0,7.3,7.3,0,0,0-14.54,0,20.56,20.56,0,0,1-20.57,20.57h-5.26l-1.08-.31h-2l-.62-.31h0a20.86,20.86,0,0,1-11.68-18.56,7.3,7.3,0,0,0-14.54-1.24v1.24a20.65,20.65,0,0,1-41.3,0h0a7.3,7.3,0,0,0-14.54-1.24v1.24a20.72,20.72,0,0,1-11.68,18.56h0l-.62.31h-1.93l-1.08.31h-5.26a20.56,20.56,0,0,1-20.57-20.57A7.3,7.3,0,0,0,217.7,180v1.24a20.65,20.65,0,0,1-41.3,0V166.74h210a7.3,7.3,0,0,0,0-14.54H176.48V141.76H440.82l-.08,39.52Z"/>
            <path class="cls-7"
                  d="M421.33,154.05a5.49,5.49,0,0,0-1.08-.77,9.23,9.23,0,0,0-1.24-.62l-1.31-.39a8.88,8.88,0,0,0-2.86,0l-1.31.39a6.78,6.78,0,0,0-2.32,1.55,7.35,7.35,0,0,0-2,6.57,6.53,6.53,0,0,0,.39,1.31,6.17,6.17,0,0,0,.62,1.24,4.07,4.07,0,0,0,.93,1.08,13.46,13.46,0,0,0,1.08.93,9.23,9.23,0,0,0,1.24.62l1.31.39h2.86l1.31-.39a6.17,6.17,0,0,0,1.24-.62,4.07,4.07,0,0,0,1.08-.93,13.47,13.47,0,0,0,.93-1.08,9.23,9.23,0,0,0,.62-1.24,8.45,8.45,0,0,0,.39-1.31,4.68,4.68,0,0,0,0-1.47A7.7,7.7,0,0,0,421.33,154.05Z"/>
        </g>
    </g>
</svg>