<svg xmlns="http://www.w3.org/2000/svg" viewBox="0 0 720 720">
    <defs>
        <style>
            .cls-1{fill:#fff;}.cls-2{fill:#e576e0;}.cls-3{fill:#a4d8cb;}.cls-4{fill:#74e882;}.cls-5{fill:#513e23;}.cls-6{fill:#e2a52b;}.cls-7{fill:#bcba75;}.cls-8{fill:#f4e1ce;}.cls-9{fill:#d3c8ae;}.cls-10{fill:#f7f4cd;}.cls-11{fill:#11113f;}
        </style>
    </defs>
    <title>three</title>
    <g id="Слой_2" data-name="Слой 2">
        <g id="Layer_1" data-name="Layer 1">
            <circle class="cls-1" cx="360" cy="360" r="360"/>
            <polygon class="cls-2"
                     points="275.07 315.09 288.95 280.21 330.17 261.18 358.08 281.48 377.1 264.35 419.52 271.16 436.09 315.09 275.07 315.09"/>
            <polygon class="cls-3"
                     points="157.53 555.95 171.4 521.07 212.63 502.04 240.53 522.34 259.56 505.21 301.98 512.02 318.54 555.95 157.53 555.95"/>
            <polygon class="cls-4"
                     points="397.83 555.95 411.71 521.07 452.93 502.04 480.84 522.34 499.86 505.21 542.28 512.02 558.84 555.95 397.83 555.95"/>
            <polygon class="cls-5"
                     points="324.98 180.5 328.79 150.69 357.48 143.71 386.17 150.69 386.17 181.13 324.98 180.5"/>
            <polygon class="cls-6"
                     points="447.59 422.13 451.4 392.32 480.09 385.35 508.78 392.32 508.78 422.76 447.59 422.13"/>
            <polygon class="cls-7"
                     points="207.49 423.4 211.29 393.59 239.99 386.62 268.68 393.59 268.68 424.03 207.49 423.4"/>
            <polygon class="cls-8"
                     points="449.43 424.03 485.58 411.35 506.81 424.03 506.81 460.82 478.12 479.21 455.77 466.53 449.43 424.03"/>
            <polygon class="cls-9"
                     points="329.55 183.73 365.7 171.05 386.95 183.73 386.95 220.53 358.24 238.92 335.89 226.24 329.55 183.73"/>
            <polygon class="cls-10"
                     points="211.29 424.03 247.45 411.35 268.68 424.03 268.68 460.82 239.99 479.21 217.64 466.53 211.29 424.03"/>
            <path class="cls-11"
                  d="M269.64,387.91a30,30,0,0,0-21.78-9.54H228.23a29.92,29.92,0,0,0-29.92,29.92v1.94l.86,13.36h0l2.13,31.05a36.86,36.86,0,0,0,73.47,0L277.11,419l.6-9A30,30,0,0,0,269.64,387.91Zm-54.23,21.31a12.82,12.82,0,0,1,12.27-13.35h13.95l-2.41,6.68c-1.21,1.74-7.22,9-23.58,11.76Zm42.28,44.67a20,20,0,0,1-39.4,0l-1.53-23a60.71,60.71,0,0,0,28.92-11.42,30.59,30.59,0,0,0,3.41,2,55.81,55.81,0,0,0,10.4,3.86ZM257,406.34l-.94-.53,1.94-5.21a12.68,12.68,0,0,1,2.6,7.34,25.24,25.24,0,0,1-3.55-1.6Z"/>
            <path class="cls-11"
                  d="M327.6,557.35l-3.27-18A55.16,55.16,0,0,0,270,494h-9.75a8.55,8.55,0,0,0-6.08,2.47L238,512.67l-16.16-16.16A8.55,8.55,0,0,0,215.8,494h-9.58a55.16,55.16,0,0,0-54.3,45.35l-3.27,18a8.55,8.55,0,0,0,6.68,9.94H319.11a8.55,8.55,0,0,0,8.41-10.15Zm-160.28-7,1.41-7.88a38.05,38.05,0,0,1,37.49-31.33h6.28l20,20a8.55,8.55,0,0,0,12.09,0l20-20h6.24a38.05,38.05,0,0,1,37.47,31.25l1.41,7.88H167.32Z"/>
            <path class="cls-11"
                  d="M509.86,387.91A30,30,0,0,0,488,378.37H468.38a29.92,29.92,0,0,0-29.92,29.92v1.94l.86,13.36h0l2.13,31.05a36.86,36.86,0,0,0,73.47,0L517.27,419l.6-9A30,30,0,0,0,509.86,387.91Zm-54.23,21.31a12.82,12.82,0,0,1,12.27-13.36h13.85l-2.41,6.68c-1.21,1.74-7.22,9-23.58,11.76ZM498,453.89a20,20,0,0,1-39.4,0l-1.53-23a60.71,60.71,0,0,0,28.92-11.42,30.58,30.58,0,0,0,3.41,2,55.81,55.81,0,0,0,10.41,3.74Zm-.67-47.55-.94-.53,1.94-5.21a12.68,12.68,0,0,1,2.6,7.34,25.37,25.37,0,0,1-3.65-1.6Z"/>
            <path class="cls-11"
                  d="M567.72,557.35l-3.27-18A55.16,55.16,0,0,0,510.15,494H500.5a8.55,8.55,0,0,0-6.08,2.47l-16.16,16.16L462.1,496.51A8.55,8.55,0,0,0,456,494h-9.82a55.16,55.16,0,0,0-54.3,45.35l-3.27,18a8.55,8.55,0,0,0,6.68,9.94H559.14a8.55,8.55,0,0,0,8.41-10.15Zm-160.28-7,1.41-7.88a38.05,38.05,0,0,1,37.74-31.25h6.28l20,20a8.55,8.55,0,0,0,12.09,0l20-20h6.28a38.05,38.05,0,0,1,37.47,31.25l1.41,7.88Z"/>
            <path class="cls-11"
                  d="M389.78,147.52A30,30,0,0,0,367.93,138H348.29A29.92,29.92,0,0,0,318.36,168h0v1.94l.86,13.36,2.13,31.05a36.86,36.86,0,0,0,73.47,0l2.33-35.73.6-9A30,30,0,0,0,389.78,147.52ZM335.6,168.79a12.82,12.82,0,0,1,12.27-13.36h13.85l-2.41,6.68c-1.21,1.74-7.22,9-23.58,11.76Zm42.23,44.69a20,20,0,0,1-39.4,0l-1.56-23A60.71,60.71,0,0,0,365.79,179a30.59,30.59,0,0,0,3.41,2,55.81,55.81,0,0,0,10.41,3.74Zm-.67-47.55-.94-.53,1.94-5.21a12.68,12.68,0,0,1,2.6,7.34,25.37,25.37,0,0,1-3.6-1.41Z"/>
            <path class="cls-11"
                  d="M447.68,317.38l-3.27-18a55.16,55.16,0,0,0-54.26-45.08h-9.82a8.55,8.55,0,0,0-6.08,2.47L358.09,273l-16.15-16.16a8.55,8.55,0,0,0-6.08-2.47h-9.49a55.16,55.16,0,0,0-54.28,45.38l-3.27,18a8.55,8.55,0,0,0,6.68,9.94H439.27a8.55,8.55,0,0,0,8.41-10.15ZM287.4,310.71l1.41-7.88a38.05,38.05,0,0,1,37.6-31.71h6.28l20,20a8.55,8.55,0,0,0,12.09,0l20-20h6.28a38.05,38.05,0,0,1,37.47,31.25l1.41,7.88Z"/>
            <path class="cls-11"
                  d="M355.52,343a8.55,8.55,0,0,0-8.55,8.55v2.6a8.55,8.55,0,0,0,17.1,0v-2.6a8.55,8.55,0,0,0-8.55-8.55Z"/>
            <path class="cls-11"
                  d="M415.63,440.74,364.14,411l-.06-56.84c0-4.72-2.6,2.21-7.32,2.21s-9.77-8.22-9.77-3.5l.06,58.13h0l-51.49,29.72a8.56,8.56,0,0,0,8.55,14.83l51.49-29.72,51.49,29.72a8.56,8.56,0,0,0,8.55-14.83Z"/>
        </g>
    </g>
</svg>