<svg xmlns="http://www.w3.org/2000/svg" viewBox="0 0 673 673">
    <defs>
        <style>
            .cls-1{fill:#fff;}.cls-2{fill:#656970;}.cls-3{fill:#a8a488;}.cls-4{fill:#cccab4;}.cls-5{fill:#c2c0c4;}.cls-6{fill:#f78db8;}.cls-7{fill:#dc8cf9;}.cls-8{fill:#11113f;}
        </style>
    </defs>
    <title>trolley</title>
    <g id="Слой_2" data-name="Слой 2">
        <g id="Слой_1-2" data-name="Слой 1">
            <circle class="cls-1" cx="336.5" cy="336.5" r="336.5"/>
            <polygon class="cls-2"
                     points="141.45 222.28 158.97 200.68 185.25 195.42 199.85 208.85 194.59 225.2 160.14 235.72 141.45 222.28"/>
            <polyline class="cls-3" points="268.18 381.13 473.15 326.23 504.1 450.62 303.21 509.02 268.18 381.13"/>
            <polygon class="cls-4" points="244.23 278.93 375.04 246.81 398.99 339.66 268.18 381.13 244.23 278.93"/>
            <circle class="cls-5" cx="510.53" cy="483.32" r="20.15"/>
            <circle class="cls-5" cx="342.63" cy="529.46" r="23.07"/>
            <polygon class="cls-6" points="351.1 359.52 382.63 351.34 398.99 402.73 366.28 410.91 351.1 359.52"/>
            <polygon class="cls-7" points="288.61 266.08 303.8 320.98 336.5 310.46 323.07 259.07 288.61 266.08"/>
            <path class="cls-8"
                  d="M552.48,444a8.75,8.75,0,0,0-10.68-6.19h0l-31.35,8.41-32.7-122A8.75,8.75,0,0,0,467.08,318h0l-59.2,15.84-24.94-93.09a8.75,8.75,0,0,0-10.51-6.19L245.54,268.62l-18.35-67.82a8.75,8.75,0,0,0-10.68-6.19h0l-10.73,2.9A26.24,26.24,0,0,0,177.38,187l-25.45,7a26.3,26.3,0,0,0-18.69,31.8h0a26.3,26.3,0,0,0,32.14,18.57l25.22-6.7A26.3,26.3,0,0,0,210,214.31l2.28-.62,18.12,67.74h0l1.31,4.94,25.79,96.56h0l10,37.33,25.45,93.38a8.75,8.75,0,0,0,10.68,6.19h0l4.54-1.25a34.93,34.93,0,0,0,3.5,26.64H281a8.76,8.76,0,1,0,0,17.52h99.45a8.76,8.76,0,1,0,0-17.52h-8.35a35,35,0,0,0-5.68-42.32l110.64-29.65a35,35,0,1,0,58.55-15.77l10.51-2.84A8.75,8.75,0,0,0,552.47,444h0ZM186.42,220.8,161,227.62a8.63,8.63,0,0,1-2.22,0,8.81,8.81,0,0,1-8.47-6.42h0a8.81,8.81,0,0,1,6.31-10.51h0L182,203.87a8.63,8.63,0,0,1,2.22,0,8.81,8.81,0,0,1,8.47,6.47h0a8.81,8.81,0,0,1-6.23,10.78h0Zm131.15,46.52,10,37.37-5.28-1.07a8.75,8.75,0,0,0-7.56,2l-4,3.57-10.06-37.37Zm-67.65,18.17L284,276.41l13.69,51.12a8.75,8.75,0,0,0,14.26,4.26l11.36-10.11,15.11,3a8.75,8.75,0,0,0,10.22-10.85L335,262.72,369,253.63l22.72,84.69-119.13,31.8ZM388.47,397.27l-5.28-1.07a8.75,8.75,0,0,0-7.56,2l-4,3.57-10.06-37.37,17-4.54ZM346.3,544.61a17.61,17.61,0,0,1-4.54.62h0a17.52,17.52,0,0,1-4.54-34.48h0a17.63,17.63,0,1,1,9,34.08h0Zm-5.1-53.11L329,446.06a8.82,8.82,0,0,0-17,4.56l12.22,45.43-17,4.54-22.72-85.2L277,387.11,344.66,369l13.69,51.12a8.75,8.75,0,0,0,14.26,4.26L384,414.26l14.88,3.07a8.75,8.75,0,0,0,10.22-10.85L395.17,355.3l34.08-9.09,12.22,45.43a8.82,8.82,0,1,0,17.07-4.43l0-.11h0l-12.22-45.43,17-4.54,30.37,113.6Zm174.32,7.67a17.64,17.64,0,1,1-9.08-34h0a17.63,17.63,0,1,1,9,34.08Z"/>
        </g>
    </g>
</svg>