<svg xmlns="http://www.w3.org/2000/svg" viewBox="0 0 693 693">
    <defs>
        <style>
            .cls-1{fill:#fff;stroke:#00c5db;stroke-miterlimit:10;stroke-width:20px;}.cls-2{fill:#4c3b26;}.cls-3{fill:#efa748;}.cls-4{fill:#63db85;}.cls-5{fill:#c762dd;}.cls-6{fill:#f9e4d4;}.cls-7{fill:#e8cf9e;}.cls-8{fill:#c3ea9d;}.cls-9{fill:#efedbb;}.cls-10{fill:#11113f;}
        </style>
    </defs>
    <title>two</title>
    <g id="Слой_2" data-name="Слой 2">
        <g id="Слой_1-2" data-name="Слой 1">
            <circle class="cls-1" cx="346.5" cy="346.5" r="336.5"/>
            <polyline class="cls-2" points="223.37 367.02 280.6 367.02 280.6 337.36 229.3 332.89 223.37 370.58"/>
            <polygon class="cls-3" points="441.04 330.25 484.93 330.25 494.41 357.53 432.73 361.68 441.04 330.25"/>
            <polygon class="cls-4"
                     points="440.44 446.49 462.6 464.88 484.93 446.49 515.17 450.05 537.12 477.33 543.05 501.06 384.1 501.06 389.31 476.74 409.01 450.05 440.44 446.49"/>
            <polygon class="cls-5"
                     points="233.45 446.49 254.8 467.25 276.15 446.49 305.81 451.83 328.35 472.08 334.43 501.06 171.77 501.06 178.88 472.07 200.83 449.46 233.45 446.49"/>
            <polygon class="cls-6"
                     points="435.7 367.02 441.04 412.09 469.65 423.36 486.11 409.72 490.26 367.02 469.65 353.38 435.7 367.02"/>
            <polygon class="cls-7"
                     points="223.37 367.02 228.11 406.76 253.43 423.36 279.97 410.31 286.24 367.02 264.16 353.38 223.37 367.02"/>
            <polyline class="cls-8"
                      points="368.08 222.3 490.26 222.3 490.26 296.44 405.45 296.44 403.67 320.58 379.35 300 358 299.4 358 279.7 366.9 275.68 368.08 222.3"/>
            <polygon class="cls-9"
                     points="194.31 173.67 366.9 173.67 366.9 275.68 340.21 279.7 306.99 310.67 306.4 279.7 194.31 276.87 194.31 173.67"/>
            <path class="cls-10"
                  d="M489.67,214H377V174.56a7.7,7.7,0,0,0-7.7-7.7H190.75a7.7,7.7,0,0,0-7.7,7.7V278.84a7.7,7.7,0,0,0,7.7,7.7H297v26.29a7.7,7.7,0,0,0,13.15,5.44l31.73-31.73h6.49v13.2a7.7,7.7,0,0,0,7.7,7.7h19.66l23.19,23.19a7.7,7.7,0,0,0,13.15-5.44V307.39h77.61a7.7,7.7,0,0,0,7.7-7.7v-78A7.7,7.7,0,0,0,489.67,214ZM361.56,271.16H338.69a7.71,7.71,0,0,0-5.44,2.25L312.4,294.26V278.84a7.7,7.7,0,0,0-7.7-7.7H198.46V182.26h163.1ZM482,292.06H404.36a7.7,7.7,0,0,0-7.7,7.7v6.84l-12.29-12.29a7.71,7.71,0,0,0-5.44-2.25H363.78v-5.49h5.43a7.7,7.7,0,0,0,7.7-7.7V229.42H482v62.66Z"/>
            <path class="cls-10" d="M461.94,241.15H397a7.71,7.71,0,0,0,0,15.42h64.92a7.71,7.71,0,0,0,0-15.42Z"/>
            <path class="cls-10" d="M461.94,264.28H397a7.71,7.71,0,0,0,0,15.42h64.92a7.71,7.71,0,0,0,0-15.42Z"/>
            <path class="cls-10"
                  d="M284.46,329.76a29.13,29.13,0,0,0-21.19-9.18H243.58a29,29,0,0,0-29,29q0,.95.06,1.9l.88,13.38,2,31.24a36,36,0,0,0,71.75,0l2.37-35.7h0l.58-8.92A29.15,29.15,0,0,0,284.46,329.76ZM230,350.49A13.62,13.62,0,0,1,242.74,336h15.62l-2.87,7.66c-1,1.45-7.39,9.49-25.05,12.25Zm43.89,44.62a20.55,20.55,0,0,1-41,0l-1.55-23.8c14.61-2,24-7,29.77-11.65A29,29,0,0,0,265,362a57.16,57.16,0,0,0,10.88,3.84ZM272,348.31a14.92,14.92,0,0,1-1.57-.91l2.68-7.12h0a13.48,13.48,0,0,1,3.68,9.83,30.36,30.36,0,0,1-4.83-1.8Z"/>
            <path class="cls-10"
                  d="M342,498.79l-3.25-17.9a54.23,54.23,0,0,0-53.38-44.59h-9.8a7.71,7.71,0,0,0-5.44,2.25L253.4,455.27l-16.75-16.75a7.71,7.71,0,0,0-5.44-2.25h-9.8A54.25,54.25,0,0,0,168,480.86l-3.26,17.94a7.7,7.7,0,0,0,7.58,9.07H334.44a7.7,7.7,0,0,0,7.58-9.07Zm-160.45-6.33h0l1.6-8.87a38.84,38.84,0,0,1,38.23-31.92H228L248,471.61a7.7,7.7,0,0,0,10.89,0h0l19.94-19.94h6.61A38.84,38.84,0,0,1,323.6,483.6l1.6,8.87Z"/>
            <path class="cls-10"
                  d="M493.61,329.76a29.13,29.13,0,0,0-21.19-9.18H452.79a29,29,0,0,0-29,29v1.9l.88,13.38,2,31.24a36,36,0,0,0,71.75,0l2.37-35.7.58-8.92A29.15,29.15,0,0,0,493.61,329.76ZM439.2,350.49A13.62,13.62,0,0,1,451.89,336h15.59l-2.87,7.66c-1,1.45-7.39,9.49-25.05,12.25Zm43.89,44.62a20.55,20.55,0,0,1-41,0l-1.55-23.8c14.61-2,24-7,29.77-11.65a29,29,0,0,0,3.81,2.37A57.26,57.26,0,0,0,485,365.89Zm-1.9-46.81a15,15,0,0,1-1.57-.91l2.68-7.12h0a13.49,13.49,0,0,1,3.68,9.83,30.38,30.38,0,0,1-4.74-1.8Z"/>
            <path class="cls-10"
                  d="M551.23,498.79,548,480.89a54.25,54.25,0,0,0-53.38-44.58h-9.8a7.71,7.71,0,0,0-5.44,2.25l-16.76,16.7-16.75-16.75a7.71,7.71,0,0,0-5.44-2.25h-9.8a54.23,54.23,0,0,0-53.38,44.59L374,498.81a7.7,7.7,0,0,0,7.58,9.07H543.65a7.7,7.7,0,0,0,7.58-9.07Zm-160.45-6.33h0l1.6-8.87a38.84,38.84,0,0,1,38.23-31.92h6.61l19.94,19.94a7.7,7.7,0,0,0,10.89,0h0L488,451.67h6.61a38.84,38.84,0,0,1,38.23,31.92l1.6,8.87Z"/>
            <path class="cls-10" d="M336.76,203.16h-4.64a7.71,7.71,0,1,0,0,15.42h4.64a7.71,7.71,0,0,0,0-15.42Z"/>
            <path class="cls-10" d="M305.08,203.16H223.24a7.71,7.71,0,1,0,0,15.42h81.85a7.71,7.71,0,1,0,0-15.42Z"/>
            <path class="cls-10" d="M336.76,234.06H223.2a7.71,7.71,0,0,0,0,15.42H336.76a7.71,7.71,0,0,0,0-15.42Z"/>
        </g>
    </g>
</svg>