<svg xmlns="http://www.w3.org/2000/svg" viewBox="0 0 720 720">
    <defs>
        <style>
            .cls-1{fill:#fff;}.cls-2{fill:#4c3b26;}.cls-3{fill:#efa748;}.cls-4{fill:#63db85;}.cls-5{fill:#c762dd;}.cls-6{fill:#f9e4d4;}.cls-7{fill:#e8cf9e;}.cls-8{fill:#c3ea9d;}.cls-9{fill:#efedbb;}.cls-10{fill:#11113f;}
        </style>
    </defs>
    <title>two</title>
    <g id="Слой_2" data-name="Слой 2">
        <g id="Layer_1" data-name="Layer 1">
            <circle class="cls-1" cx="360" cy="360" r="360"/>
            <polyline class="cls-2" points="188.34 397.8 261.31 397.8 261.31 359.99 195.9 354.29 188.34 402.34"/>
            <polygon class="cls-3" points="465.87 350.92 521.83 350.92 533.93 385.7 455.29 391 465.87 350.92"/>
            <polygon class="cls-4"
                     points="465.12 499.14 493.37 522.58 521.83 499.14 560.4 503.68 588.38 538.46 595.95 568.71 393.27 568.71 399.92 537.71 425.04 503.68 465.12 499.14"/>
            <polygon class="cls-5"
                     points="201.19 499.14 228.42 525.61 255.64 499.14 293.45 505.94 322.19 531.76 329.95 568.71 122.54 568.71 131.62 531.75 159.6 502.92 201.19 499.14"/>
            <polygon class="cls-6"
                     points="459.07 397.8 465.87 455.28 502.35 469.65 523.35 452.25 528.64 397.8 502.35 380.41 459.07 397.8"/>
            <polygon class="cls-7"
                     points="188.34 397.8 194.39 448.47 226.66 469.65 260.51 453.01 268.5 397.8 240.35 380.41 188.34 397.8"/>
            <polyline class="cls-8"
                      points="372.86 213.28 528.64 213.28 528.64 307.81 420.5 307.81 418.23 338.59 387.23 312.35 360 311.59 360 286.47 371.34 281.34 372.86 213.28"/>
            <polygon class="cls-9"
                     points="151.28 151.27 371.34 151.27 371.34 281.34 337.31 286.47 294.96 325.96 294.21 286.47 151.28 282.86 151.28 151.27"/>
            <path class="cls-10"
                  d="M527.88,202.7H384.2V152.41a9.82,9.82,0,0,0-9.82-9.82H146.74a9.82,9.82,0,0,0-9.82,9.82v133a9.82,9.82,0,0,0,9.82,9.82H282.2V328.7A9.82,9.82,0,0,0,299,335.64l40.46-40.46h8.27V312a9.82,9.82,0,0,0,9.82,9.82h25.06l29.57,29.57a9.82,9.82,0,0,0,16.77-6.94V321.77h99A9.82,9.82,0,0,0,537.7,312V212.48A9.82,9.82,0,0,0,527.88,202.7ZM364.54,275.58H335.38a9.83,9.83,0,0,0-6.94,2.87L301.86,305V285.37a9.82,9.82,0,0,0-9.82-9.82H156.57V162.22h208Zm153.58,26.65h-99a9.82,9.82,0,0,0-9.82,9.82v8.73l-15.67-15.67a9.83,9.83,0,0,0-6.94-2.87H367.37v-7h6.93a9.82,9.82,0,0,0,9.82-9.82V222.36H518.05v79.89Z"/>
            <path class="cls-10" d="M492.52,237.32H409.75a9.83,9.83,0,1,0,0,19.66h82.78a9.83,9.83,0,0,0,0-19.66Z"/>
            <path class="cls-10" d="M492.52,266.81H409.75a9.83,9.83,0,1,0,0,19.66h82.78a9.83,9.83,0,0,0,0-19.66Z"/>
            <path class="cls-10"
                  d="M266.23,350.3a37.15,37.15,0,0,0-27-11.71H214.11a37,37,0,0,0-37,37q0,1.21.08,2.42l1.12,17.06,2.6,39.84a45.84,45.84,0,0,0,91.49,0l3-45.53h0l.74-11.37A37.16,37.16,0,0,0,266.23,350.3Zm-69.38,26.44A17.36,17.36,0,0,1,213,358.27H233L229.29,368c-1.29,1.85-9.42,12.1-31.94,15.62Zm56,56.9a26.2,26.2,0,0,1-52.29,0l-2-30.34c18.63-2.57,30.61-9,38-14.85a36.93,36.93,0,0,0,4.86,3,72.89,72.89,0,0,0,13.87,4.9ZM250.39,374a19,19,0,0,1-2-1.16l3.42-9.07h0a17.18,17.18,0,0,1,4.69,12.54,38.7,38.7,0,0,1-6.16-2.3Z"/>
            <path class="cls-10"
                  d="M339.63,565.82,335.48,543a69.15,69.15,0,0,0-68.06-56.85H254.93A9.83,9.83,0,0,0,248,489l-21.36,21.31L205.28,489a9.83,9.83,0,0,0-6.94-2.87H185.84A69.16,69.16,0,0,0,117.78,543l-4.16,22.87a9.82,9.82,0,0,0,9.66,11.57H330a9.82,9.82,0,0,0,9.66-11.57Zm-204.58-8.08h0l2-11.31a49.52,49.52,0,0,1,48.75-40.7h8.42l25.42,25.42a9.82,9.82,0,0,0,13.88,0h0L259,505.73h8.42a49.52,49.52,0,0,1,48.72,40.72l2,11.31Z"/>
            <path class="cls-10"
                  d="M532.91,350.3a37.15,37.15,0,0,0-27-11.71h-25a37,37,0,0,0-37,37V378L445,395.08l2.6,39.84a45.84,45.84,0,0,0,91.49,0l3-45.53.74-11.37A37.16,37.16,0,0,0,532.91,350.3Zm-69.38,26.44a17.36,17.36,0,0,1,16.18-18.47h19.87L495.93,368c-1.29,1.85-9.42,12.1-31.94,15.62Zm56,56.9a26.2,26.2,0,0,1-52.29,0l-2-30.34c18.63-2.57,30.61-9,38-14.85a37,37,0,0,0,4.85,3,73,73,0,0,0,13.87,4.9ZM517.07,374a19.14,19.14,0,0,1-2-1.16l3.42-9.07h0a17.2,17.2,0,0,1,4.69,12.54,38.73,38.73,0,0,1-6-2.3Z"/>
            <path class="cls-10"
                  d="M606.38,565.82,602.24,543a69.17,69.17,0,0,0-68.06-56.84H521.68a9.83,9.83,0,0,0-6.94,2.87l-21.37,21.3L472,489a9.83,9.83,0,0,0-6.94-2.87H452.58A69.15,69.15,0,0,0,384.52,543l-4.14,22.88A9.82,9.82,0,0,0,390,577.41H596.72a9.82,9.82,0,0,0,9.66-11.57Zm-204.58-8.08h0l2-11.31a49.52,49.52,0,0,1,48.75-40.7H461l25.42,25.42a9.82,9.82,0,0,0,13.88,0h0l25.42-25.42h8.42a49.52,49.52,0,0,1,48.75,40.7l2,11.31Z"/>
            <path class="cls-10" d="M332.91,188.87H327a9.83,9.83,0,1,0,0,19.66h5.91a9.83,9.83,0,1,0,0-19.66Z"/>
            <path class="cls-10" d="M292.53,188.87H188.17a9.83,9.83,0,0,0,0,19.66H292.53a9.83,9.83,0,1,0,0-19.66Z"/>
            <path class="cls-10" d="M332.91,228.27H188.12a9.83,9.83,0,1,0,0,19.66H332.91a9.83,9.83,0,0,0,0-19.66Z"/>
        </g>
    </g>
</svg>