<svg xmlns="http://www.w3.org/2000/svg" viewBox="0 0 100 100">
    <defs>
        <style>
            .cls-1{fill:#fff;}.cls-2{fill:#c6b675;}.cls-3{fill:#00c3ff;}.cls-4{fill:#0084ff;}.cls-5{fill:#261f1c;}.cls-6{fill:#f2e3a5;}.cls-7{fill:#7f2568;}.cls-8{fill:#11113f;}
        </style>
    </defs>
    <title>1-1_1</title>
    <g id="Слой_2" data-name="Слой 2">
        <g id="Layer_1" data-name="Layer 1">
            <circle class="cls-1" cx="50" cy="50" r="50"/>
            <rect class="cls-2" x="43.28" y="50.28" width="12.95" height="13.85"/>
            <path class="cls-3"
                  d="M56,58.14l-6.24,5.5-6-5.52a62.63,62.63,0,0,0-9.44,1.66,8.29,8.29,0,0,0-6.22,8v2.25a2.82,2.82,0,0,0,2.83,2.83H68.63a2.82,2.82,0,0,0,2.83-2.83V67.83a8.32,8.32,0,0,0-6.27-8.05A61.43,61.43,0,0,0,56,58.14Z"/>
            <polygon class="cls-4"
                     points="42.33 55.71 40.15 58.58 43.98 67.33 49.76 63.65 55.36 67.33 59.61 58.89 57.2 55.24 49.76 63.65 42.33 55.71"/>
            <path class="cls-5"
                  d="M40.84,28.35H39.66a4.14,4.14,0,0,0-4.14,4.14h0v9.06c0,3,1.5,5.51,4.54,5.51h4.16V34.87H59.35a4.54,4.54,0,0,0,4.53-4.53v-4.9H43.75a2.91,2.91,0,0,0-2.91,2.91Z"/>
            <path class="cls-6"
                  d="M49.56,54.52h0A10.05,10.05,0,0,1,39.5,44.47h0V39.41A4.53,4.53,0,0,1,44,34.87H59.61v9.6A10.05,10.05,0,0,1,49.56,54.52Z"/>
            <polygon class="cls-7" points="51.85 65.02 53.63 72.9 46.37 72.9 47.69 64.97 49.76 63.65 51.85 65.02"/>
            <circle class="cls-8" cx="45.74" cy="41" r="1"/>
            <circle class="cls-8" cx="53.33" cy="41" r="1"/>
            <path class="cls-8"
                  d="M65.42,58.83c-1.86-.47-3.52-.86-5.48-1.17l-2-3a1,1,0,0,0-1.34-.27l-.19.16-6.72,7.62L43,55.05a1,1,0,0,0-1.36,0l-.11.12-1.93,2.53c-2,.32-3.69.71-5.59,1.2a9.27,9.27,0,0,0-7,9v2.25a3.81,3.81,0,0,0,3.8,3.8H68.63a3.81,3.81,0,0,0,3.8-3.8V67.82A9.28,9.28,0,0,0,65.42,58.83Zm-8.34-2L58.5,59l-3.51,7-3.76-2.47Zm-7.33,8,1.24.82,1.43,6.33H47.51l1.05-6.39Zm-7.34-7.6,5.86,6.26-3.85,2.45-3.15-7.2ZM29,70.06V67.82a7.33,7.33,0,0,1,5.5-7.11c1.72-.43,3.26-.8,5-1.1L43.1,67.7a1,1,0,0,0,1.27.49l.14-.07,1.88-1.2-.83,5H30.9A1.85,1.85,0,0,1,29,70.06Zm41.47,0a1.88,1.88,0,0,1-1.86,1.87H54.39l-1.08-4.8,1.51,1a1,1,0,0,0,1.34-.27l.06-.1,4.07-8.08c1.61.28,3,.62,4.66,1a7.34,7.34,0,0,1,5.55,7.12v2.25Z"/>
            <path class="cls-8"
                  d="M39.1,47.95a11,11,0,0,0,21.47-3.47V35.69a5.5,5.5,0,0,0,4.26-5.35v-4.9c0-.53-.42,0-1,0s-1,0-1,.48v4.42a3.57,3.57,0,0,1-3.56,3.57H44a5.51,5.51,0,0,0-5.5,5.5v5.06a10.47,10.47,0,0,0,.09,1.35c-2-.84-2.14-3.4-2.14-4.27V32.49a3.18,3.18,0,0,1,3.17-3.17h1.18a1,1,0,0,0,1-1,2,2,0,0,1,1.95-1.95H63.87c.53,0,.13-.24.13-.77s.41-1.16-.13-1.16H43.75A3.88,3.88,0,0,0,40,27.38h-.34a5.1,5.1,0,0,0-5.1,5.1v9.07C34.56,45.06,36.31,47.5,39.1,47.95Zm1.37-8.54A3.57,3.57,0,0,1,44,35.84h14.6v8.63a9.09,9.09,0,1,1-18.17,0Z"/>
            <path class="cls-8"
                  d="M49.75,50a5,5,0,0,0,3.52-1.46,1,1,0,0,0-1.36-1.36,3.05,3.05,0,0,1-4.32,0l-.1-.11a1,1,0,0,0-1.43,1.3A5,5,0,0,0,49.75,50Z"/>
            <circle class="cls-8" cx="63.87" cy="25.44" r="0.96"/>
            <rect class="cls-8" x="42.55" y="52.81" width="1.93" height="4.15"/>
            <rect class="cls-8" x="55.12" y="52.45" width="1.93" height="4.15"/>
        </g>
    </g>
</svg>