<svg id="Layer_1" data-name="Layer 1" xmlns="http://www.w3.org/2000/svg" viewBox="0 0 481.7 404">
    <defs>
        <style>
            .cls-1,.cls-10{fill:#5c779e;}.cls-2{fill:#fff;}.cls-3{fill:#8fff3f;}.cls-4{fill:#d1ff2c;}.cls-5{fill:#ef62c0;}.cls-6{fill:#e2d6cc;}.cls-7,.cls-8,.cls-9{fill:none;}.cls-10,.cls-7,.cls-8{stroke:#000;}.cls-10,.cls-7,.cls-9{stroke-linecap:round;stroke-linejoin:round;}.cls-7,.cls-8{stroke-width:3px;}.cls-8{stroke-miterlimit:10;}.cls-9{stroke:#fff;}.cls-10{stroke-width:0.5px;opacity:0.3;isolation:isolate;}
        </style>
    </defs>
    <title>windows-logo</title>
    <g id="Layer_2" data-name="Layer 2">
        <g id="_Group_" data-name="&lt;Group&gt;">
            <path class="cls-1"
                  d="M504.5,116.9,460,269.3l-1.9.5.1,1.1c-7.8,3.5-15.5,6.6-23.2,9.2a30.16,30.16,0,0,0,7.5-12.2,29,29,0,0,0,.7-11.8c-.4-4.5-1-10-5-15.3a25.26,25.26,0,0,0-10.3-7.8,30.23,30.23,0,0,0-11.7-2.2,41.84,41.84,0,0,0-16.3,3.2c-4.8,1.8-4.8,2.7-11.5,5.3-4.3,1.7-6.6,2.6-9.8,3.1a69.88,69.88,0,0,0-11.6-2.8,86,86,0,0,0-25.8-.8,104.85,104.85,0,0,0-13,1.6,30.2,30.2,0,0,1-3.5-.9c-2.3-.8-4.3-2.1-8.3-4.7-5.5-3.5-5.6-4.5-9.5-6.5a36.49,36.49,0,0,0-9-3.2,25.15,25.15,0,0,0-9-.8,21.85,21.85,0,0,0-7,1.7l35.6-122.8c21.9,15.2,55.7,31,101.6,31C446.4,134.1,475.1,128.2,504.5,116.9Z"
                  transform="translate(-24.3 -61.9)"/>
            <path class="cls-1"
                  d="M452.5,292.3,424.7,389c-3.8-4.5-8.9-9.5-17.7-17.9q-2.25-2.25-3.9-3.6a12.64,12.64,0,0,0,3.4-1.2c1.9-1,3.5-2.4,3.3-2.8s-2,.6-4.3,0-3.9-2.3-3.7-2.7,1.4.6,3.7.8a16.48,16.48,0,0,0,6.2-.5,19.68,19.68,0,0,0,6.2-3.3c3.3-2.4,6.1-5.2,5.8-5.5s-1.5,1.1-4,1.5a10.08,10.08,0,0,1-5.5-.7c-1.9-.7-4-2-3.8-2.5.3-.7,4.6,1.6,10.2.3a18.9,18.9,0,0,0,5.5-2.3,20.81,20.81,0,0,0,5.2-4.7c3-3.5,6.4-8.8,5.5-9.7-.7-.6-2.7,1.9-6,1.7-2-.2-3.5-1.3-5.5-2.8a20.94,20.94,0,0,1-4.8-5c-2-3-2.5-6-3-15.5-.3-6.1-.3-8.7-.3-11C428.6,299.2,440.4,296.1,452.5,292.3Z"
                  transform="translate(-24.3 -61.9)"/>
            <path d="M443.2,256a29,29,0,0,1-.7,11.8c-1.5,5.3-4.5,9-7.5,12.2-6.7,2.3-13.4,4.2-20.1,5.8a12.09,12.09,0,0,0-.5-1.8,62.31,62.31,0,0,0-8.8-18.8c-3.6-5.4-9.4-14.1-20.5-20a60.6,60.6,0,0,0-6.6-2.9c3.2-.5,5.5-1.4,9.8-3.1,6.7-2.6,6.7-3.5,11.5-5.3a41.84,41.84,0,0,1,16.3-3.2,30.23,30.23,0,0,1,11.7,2.2,24.64,24.64,0,0,1,10.3,7.8C442.2,246,442.7,251.5,443.2,256Z"
                  transform="translate(-24.3 -61.9)"/>
            <path class="cls-2"
                  d="M326.3,329.6c2.6.3,3.7.5,6.3.6a10.87,10.87,0,0,0,3.9-.8,5.06,5.06,0,0,0,2.6-1.8c.1-.2,1.3-1.8.9-3.1-.6-2.1-2.2-2.9-9.3-3.8-.8-.1-6.7-.3-8.8.3-.8.2-3,.8-3.5,2.5a3.63,3.63,0,0,0,.3,2.5,5,5,0,0,0,1.3,1.8,7,7,0,0,0,4.1,1.5A10.33,10.33,0,0,0,326.3,329.6Zm110.4,4.6c.9.9-2.5,6.1-5.5,9.7a23.79,23.79,0,0,1-5.2,4.7,18.9,18.9,0,0,1-5.5,2.3c-5.5,1.3-9.9-1-10.2-.3-.2.5,2,1.8,3.8,2.5a11.14,11.14,0,0,0,5.5.7c2.5-.4,3.8-1.7,4-1.5s-2.5,3.1-5.8,5.5a18.66,18.66,0,0,1-6.2,3.3,16.22,16.22,0,0,1-6.2.5c-2.2-.2-3.5-1.1-3.7-.8s1.4,2.1,3.7,2.7,4.1-.4,4.3,0-1.4,1.8-3.3,2.8a10.63,10.63,0,0,1-3.4,1.2c-2.9-2.6-4.6-3.7-7.1-4.3a28,28,0,0,0,2.7-4c2-3.5,4.9-9.7,3.8-10.5-.8-.6-3.2,1.8-5.3,3.5-3.2,2.7-5.1,3.7-12.4,7.2-15.8-3.7-49.5-6-61.9.2.3-2,.4-3.1-.5-4.4-2.1-3.2-8.6-4.3-12-1.8a5.78,5.78,0,0,0-1.8,2.3c-2.5-4-6.3-5.9-6.5-5.7s2.8,2.1,3.8,6a12.65,12.65,0,0,1-.7,8,8.23,8.23,0,0,1-1.4,2.5,7,7,0,0,1-.6-.9c-.8-1.4-1.3-3.6-.3-5.2s2.9-1.7,2.8-2-1.9-.5-4,.1a13.76,13.76,0,0,0-3-7.6c-2.8-3.5-7.1-4.8-7.5-4.3s3.4,2.3,4.7,6.5a12.15,12.15,0,0,1-.3,7c-.8,1.9-1.7,2.4-3.3,4.2-.2-.3-.5-.6-.7-.9-.7-1-2.2-3.3-1.7-5.7.6-2.7,3.3-3.7,3-4.3s-3.3-.3-5.2,1.5c-1.5,1.4-1.5,2.9-2.2,2.8s-1.7-2.5-1.2-4.7c.6-2.5,3-3.4,2.7-4.2s-3.7-.4-6.3.7c-1.4.6-4.4,1.8-5.2,4.3-.5,1.7.2,3.1,0,3.2s-2.7-3.5-2-7.2c.8-4.4,5.4-5.8,4.8-8.2-.4-1.7-2.9-1.5-6.2-3.3-6.6-3.8-8.4-11.5-8.5-12.2-1.2-5.6.7-11,1.5-11,.5,0,.3,1.7,1.7,3.5a8,8,0,0,0,5.3,2.8,9.64,9.64,0,0,0,7.2-2.5,13.87,13.87,0,0,0,4.2-8.2c1.9-10.7,3.2-17.4,4-22a128.26,128.26,0,0,0,12.9,5.6c-.5.6-1.2,1.4-1.9,2.2-2.4,2.8-3,3.2-5,5.7-3.4,4.1-4.1,5.4-4.5,6.7a13.89,13.89,0,0,0-.8,5.5,13,13,0,0,0,3,8.2,12.47,12.47,0,0,0,8.7,3.8,17.58,17.58,0,0,0,10.5-2.5,23.58,23.58,0,0,0,9.2-8.8,23.24,23.24,0,0,0,3-9,21.52,21.52,0,0,0-.1-5c4.6,1.1,9.3,2,14.3,2.8a26.46,26.46,0,0,0,2.6,9.8,25.21,25.21,0,0,0,8,10.3,24.88,24.88,0,0,0,10.2,4.5,19.79,19.79,0,0,0,11.5-.8,14,14,0,0,0,6.8-5.2c3-4.6,1.8-9.7,1.5-11.2a15.13,15.13,0,0,0-2.2-5.2,250.83,250.83,0,0,0,30.6-2.9c2.8,5.1,4.7,7.7,6.3,7.4s1.3-3.7,3.8-9.1c.3-.1.6-.1,1-.2.1,2.3,0,4.9.3,11,.5,9.5,1,12.5,3,15.5a23.1,23.1,0,0,0,4.8,5c2,1.6,3.5,2.7,5.5,2.8C434,336.1,436,333.5,436.7,334.2Z"
                  transform="translate(-24.3 -61.9)"/>
            <path class="cls-3"
                  d="M424.7,388.9l-15.4,53.6c-34.1,13.8-63.8,20.9-90.4,21.7.2-1.1.5-2.2.8-3.5,2.1-7.7,3.8-7.9,9-20.5,4.7-11.3,7-17.1,6.3-23.5-.2-1.9-.5-2.6-3.2-8.7a19.36,19.36,0,0,1,2-2.1c1.7-1.6,2.7-2.4,3.3-3.1h0c2.1-1.8,4.3-3.5,6.5-5.2,3.2-2.5,13.4-8.4,33.5-20,3.1-1.8,6.2-3.6,9.1-5.6a18,18,0,0,0,2.2-.2c3.2-.6,5.9-2.2,5.8-2.8-.1-.4-1.8.2-3.5-.4a20,20,0,0,1,1.6-1.4,19,19,0,0,0,5.2.5,25.58,25.58,0,0,0,5.8-.5q1.65,1.5,3.9,3.6C415.8,379.4,420.9,384.4,424.7,388.9Z"
                  transform="translate(-24.3 -61.9)"/>
            <path class="cls-2"
                  d="M415,285.8c-5.6,1.3-11.1,2.4-16.7,3.2a2.18,2.18,0,0,0-.5-.8c-5.7-10.5-8.5-15.8-11.7-20.3-10.6-15.2-22.2-22.8-20.5-25.3,1-1.5,4.8,1.1,12.7-.2h.2a45.91,45.91,0,0,1,6.6,2.9c11.1,5.9,16.9,14.6,20.5,20a63.59,63.59,0,0,1,8.8,18.8A8.51,8.51,0,0,1,415,285.8Z"
                  transform="translate(-24.3 -61.9)"/>
            <path class="cls-2"
                  d="M416,301.7c-2.6,5.5-2.2,8.8-3.8,9.1s-3.5-2.3-6.3-7.4C409.3,302.9,412.6,302.4,416,301.7Z"
                  transform="translate(-24.3 -61.9)"/>
            <path class="cls-2"
                  d="M403.1,367.4a33.88,33.88,0,0,1-5.8.5,15.77,15.77,0,0,1-5.2-.5,39.81,39.81,0,0,0,3.9-4.3C398.5,363.7,400.2,364.8,403.1,367.4Z"
                  transform="translate(-24.3 -61.9)"/>
            <path class="cls-2"
                  d="M402.5,348.5c1.1.8-1.7,7-3.8,10.5a23.32,23.32,0,0,1-2.7,4h-.1a16,16,0,0,0-2.9-.5c-.7-1.1-3.8-2.2-8.2-3.3,7.3-3.6,9.2-4.5,12.4-7.2C399.3,350.3,401.7,347.9,402.5,348.5Z"
                  transform="translate(-24.3 -61.9)"/>
            <path class="cls-2"
                  d="M397.8,288.2a5.58,5.58,0,0,0,.5.8,187.86,187.86,0,0,1-27.8,2.1c-4.2,0-8.4-.1-12.5-.4-2.9-1.9-4.7-2.9-7-3.2a14.37,14.37,0,0,0-8.7,1.4,175.22,175.22,0,0,1-40.2-11.5c1.8-3.1,3.9-7,6.9-11.3,5.1-7.4,8.6-12.4,15.2-15.7,8.3-4.1,17-3.1,17.2-5.2.1-1-1.9-1.8-4.2-2.8-3.8-1.7-6.2-1.7-9-2.3,3.8-.7,7.9-1.1,13-1.6a89.51,89.51,0,0,1,25.8.8,72.35,72.35,0,0,1,11.6,2.8h-.2c-7.8,1.3-11.7-1.3-12.7.2-1.7,2.6,9.9,10.2,20.5,25.3C389.3,272.4,392.2,277.6,397.8,288.2Z"
                  transform="translate(-24.3 -61.9)"/>
            <path class="cls-2"
                  d="M396,363h0a40.87,40.87,0,0,1-3.9,4.4,5,5,0,0,1-1.3-.5,9.62,9.62,0,0,1-1.8-1.2l-.1-.1c3.5-1.7,4.4-1.9,4.4-2.5,0-.2-.1-.3-.2-.5A10.12,10.12,0,0,1,396,363Z"
                  transform="translate(-24.3 -61.9)"/>
            <path class="cls-2"
                  d="M394.1,369.2c.2.6-2.5,2.2-5.8,2.8a18,18,0,0,1-2.2.2,34.57,34.57,0,0,0,4.4-3.4C392.3,369.4,394,368.8,394.1,369.2Z"
                  transform="translate(-24.3 -61.9)"/>
            <path class="cls-2"
                  d="M393.3,363c0,.7-.9.8-4.4,2.5-1.3-1.1-1.7-2.1-1.9-2s0,1.3.7,2.6c-.8.4-1.7.9-2.7,1.4-2.4,1.3-4.2,2.4-5.9,3.5a38.45,38.45,0,0,1-5.6-2.1,78.27,78.27,0,0,1,9.2-4.4c2.6-1,6.3-2.3,10.3-2C393.2,362.7,393.3,362.8,393.3,363Z"
                  transform="translate(-24.3 -61.9)"/>
            <path class="cls-2"
                  d="M393.1,362.5a22.25,22.25,0,0,0-10.3,2,78.28,78.28,0,0,0-9.2,4.4h0a20.62,20.62,0,0,0-4.3-1.6.37.37,0,0,1-.3-.1l8.4-4.2c3.1-1.5,5.6-2.8,7.6-3.8C389.3,360.3,392.4,361.4,393.1,362.5Z"
                  transform="translate(-24.3 -61.9)"/>
            <path class="cls-4"
                  d="M390.8,366.8a5,5,0,0,0,1.3.5,20,20,0,0,1-1.6,1.4,3,3,0,0,1-.8-.4,6.5,6.5,0,0,1-2.1-2.3l1.2-.6.1.1A9,9,0,0,0,390.8,366.8Z"
                  transform="translate(-24.3 -61.9)"/>
            <path class="cls-2"
                  d="M389.8,368.4c.3.1.5.3.8.4-1.4,1.2-2.9,2.3-4.4,3.4a25.83,25.83,0,0,1-7-1.2c1.7-1.1,3.5-2.2,5.9-3.5,1-.5,1.9-1,2.7-1.4A4.06,4.06,0,0,0,389.8,368.4Z"
                  transform="translate(-24.3 -61.9)"/>
            <path class="cls-4"
                  d="M381.8,371.6a20.24,20.24,0,0,0,4.3.5c-2.9,2-6,3.8-9.1,5.6-20.1,11.6-30.3,17.5-33.5,20-2.2,1.7-4.3,3.4-6.5,5.2a2.35,2.35,0,0,0,.7-1.4c.3-1.6-.3-2.9-1.5-4.5,1.5-1.2,3.2-2.6,5.3-4.3,3-1.3,6.6-3.2,11-5.5,7.2-3.7,13-7.3,15.3-8.8,3-1.9,5.1-3.3,7-4.6,2.4-.4,3.9-1.1,3.9-1.4s-.5-.2-1.4-.3a21.41,21.41,0,0,0,1.9-1.3A11.23,11.23,0,0,0,381.8,371.6Z"
                  transform="translate(-24.3 -61.9)"/>
            <path class="cls-2"
                  d="M378.6,372.5c0,.3-1.5,1-3.9,1.4.8-.6,1.6-1.1,2.4-1.7C378.1,372.3,378.6,372.3,378.6,372.5Z"
                  transform="translate(-24.3 -61.9)"/>
            <path class="cls-2"
                  d="M384.9,359.2c-2.1,1-4.5,2.2-7.6,3.8s-5.9,3-8.4,4.2c-1.7-.4-3.4-.5-3.5-.3s.8.4,2.1,1c-3.5,1.7-6.2,3.1-8.3,4.2-.4-.1-.9-.3-1.4-.4-4.1-1.2-6.1-1.8-7.2-2a33.37,33.37,0,0,0-14.7,0,11.7,11.7,0,0,0-5.2,1.8c-.6.5-2.3,1.6-2.2,3s1.7,2,1.5,2.3-2.4-.1-4-1.5a8.78,8.78,0,0,1-2.5-4.5c-.3-1.5,0-2.4-.3-2.5s-.4.1-.7.4a47.79,47.79,0,0,1-.1-5,34.22,34.22,0,0,1,.5-4.3C335.4,353.2,369.1,355.6,384.9,359.2Z"
                  transform="translate(-24.3 -61.9)"/>
            <path class="cls-4"
                  d="M379.1,371a21.41,21.41,0,0,0-1.9,1.3,11,11,0,0,1-3.3-.9,8.19,8.19,0,0,1-2.3-1.3,12.81,12.81,0,0,1,2-1.1C374.3,369.2,376.4,370.2,379.1,371Z"
                  transform="translate(-24.3 -61.9)"/>
            <path d="M377.5,311.5c.3,1.5,1.5,6.6-1.5,11.2a14.45,14.45,0,0,1-6.8,5.2,19,19,0,0,1-11.5.8,24.88,24.88,0,0,1-10.2-4.5,29.11,29.11,0,0,1-10.6-20.1,210.16,210.16,0,0,0,31.9,2.4c2.2,0,4.3,0,6.5-.1A13.86,13.86,0,0,1,377.5,311.5Z"
                  transform="translate(-24.3 -61.9)"/>
            <path class="cls-2"
                  d="M377.2,372.2c-.8.5-1.6,1.1-2.4,1.7a27.61,27.61,0,0,1-9.1,0c1.9-1.4,3.9-2.7,5.9-3.9a9.92,9.92,0,0,0,2.3,1.3A11,11,0,0,0,377.2,372.2Z"
                  transform="translate(-24.3 -61.9)"/>
            <path class="cls-4"
                  d="M373.5,368.9h0a18.58,18.58,0,0,1-1.9,1.1,16.52,16.52,0,0,0-2.6-1.5,5.34,5.34,0,0,0-1.4-.6c.4-.2.9-.4,1.4-.7.1,0,.2.1.3.1A16.78,16.78,0,0,1,373.5,368.9Z"
                  transform="translate(-24.3 -61.9)"/>
            <path class="cls-4"
                  d="M365.6,373.9a27.61,27.61,0,0,0,9.1,0c-1.9,1.3-4,2.8-7,4.6-2.2,1.4-8,5-15.3,8.8-4.4,2.3-8,4.1-11,5.5,2.7-2.2,6-4.8,10-8C356.6,380.7,361.1,377.1,365.6,373.9Z"
                  transform="translate(-24.3 -61.9)"/>
            <path class="cls-2"
                  d="M368.9,368.5a16.52,16.52,0,0,1,2.6,1.5c-2,1.2-4,2.5-5.9,3.9-.4-.1-.8-.1-1.1-.2-1.2-.3-1.2-.4-5.3-1.6,2.1-1.1,4.8-2.5,8.3-4.2A5.35,5.35,0,0,1,368.9,368.5Z"
                  transform="translate(-24.3 -61.9)"/>
            <path class="cls-4"
                  d="M364.5,373.7a5.16,5.16,0,0,0,1.1.2c-4.6,3.2-9.1,6.8-14.1,10.9-4,3.2-7.3,5.8-10,8a30.66,30.66,0,0,1-6.9,2.3c-.6-.8-1.3-1.6-2-2.5,1.3-1.3,2.6-2.5,3.9-3.7A128,128,0,0,1,355,374.6a48,48,0,0,1,4.3-2.4C363.3,373.3,363.3,373.4,364.5,373.7Z"
                  transform="translate(-24.3 -61.9)"/>
            <path d="M357.8,371.7c.5.1,1,.3,1.4.4-1.8,1-3.2,1.7-4.3,2.4a121,121,0,0,0-18.5,14.3c-1.3,1.2-2.6,2.4-3.9,3.7-.4-.5-.7-.9-1.1-1.5-2.2-3-5.5-7.4-7.3-13.3a40.79,40.79,0,0,1-1.6-9c.3-.3.6-.5.7-.4.3.1.1,1,.3,2.5a8.78,8.78,0,0,0,2.5,4.5c1.6,1.4,3.8,1.9,4,1.5s-1.4-1-1.5-2.3,1.5-2.5,2.2-3a11.7,11.7,0,0,1,5.2-1.8,33.37,33.37,0,0,1,14.7,0C351.7,369.9,353.7,370.5,357.8,371.7Z"
                  transform="translate(-24.3 -61.9)"/>
            <path d="M351,287.5c2.3.3,4.1,1.3,7,3.2-5.3-.4-10.5-1-15.7-1.8A14.37,14.37,0,0,1,351,287.5Z"
                  transform="translate(-24.3 -61.9)"/>
            <path class="cls-2"
                  d="M337.2,242.5c2.3,1,4.2,1.9,4.2,2.8-.1,2-8.8,1-17.2,5.2-6.5,3.3-10.1,8.3-15.2,15.7a115.45,115.45,0,0,0-6.9,11.3c-3.4-1.4-6.8-2.9-10.2-4.6a58,58,0,0,1,9.5-15.8,49.45,49.45,0,0,1,15.3-12.8,38.55,38.55,0,0,1,11.4-3.9C331,240.8,333.3,240.8,337.2,242.5Z"
                  transform="translate(-24.3 -61.9)"/>
            <path d="M326.3,329.6c-.6-.1-1.4-.2-2.2-.3a7,7,0,0,1-4.1-1.5,7,7,0,0,1-1.3-1.8,4.33,4.33,0,0,1-.3-2.5c.5-1.7,2.7-2.3,3.5-2.5,2.1-.6,8-.4,8.8-.3,7,.9,8.6,1.7,9.3,3.8a4,4,0,0,1-.9,3.1,5.47,5.47,0,0,1-2.6,1.8,10.87,10.87,0,0,1-3.9.8A33.6,33.6,0,0,1,326.3,329.6Zm7.1-3c.6-.2,2.3-1,2.2-1.7-.1-2-11.4-3.8-12.2-1.8-.3.7.7,1.7,1.1,2.1.6.6,1.3.7,4,1.1C332,326.9,332.6,326.9,333.4,326.6Z"
                  transform="translate(-24.3 -61.9)"/>
            <path class="cls-4"
                  d="M336.2,397c1.2,1.6,1.8,3,1.5,4.5a3.09,3.09,0,0,1-.7,1.4h0c-1.8,1.5-3.6,3.2-5.3,4.9-.6-1.4-1.3-3-2.2-5C331,401.3,333,399.6,336.2,397Z"
                  transform="translate(-24.3 -61.9)"/>
            <path class="cls-4"
                  d="M341.5,392.7c-2.1,1.7-3.8,3.1-5.3,4.3-.5-.6-1-1.3-1.6-2A29.12,29.12,0,0,0,341.5,392.7Z"
                  transform="translate(-24.3 -61.9)"/>
            <path class="cls-2"
                  d="M335.6,324.9c.1.8-1.6,1.5-2.2,1.7-.8.3-1.3.3-4.9-.2-2.7-.4-3.4-.6-4-1.1s-1.4-1.5-1.1-2.1C324.2,321.1,335.5,322.9,335.6,324.9Z"
                  transform="translate(-24.3 -61.9)"/>
            <path class="cls-4"
                  d="M334.6,395c.6.7,1.1,1.4,1.6,2a69.41,69.41,0,0,0-6.7,5.9l-.3-.6c-.7-1.5-1.3-3-1.9-4.3,1.1-1.2,2.1-2.3,3.2-3.4A7.8,7.8,0,0,0,334.6,395Z"
                  transform="translate(-24.3 -61.9)"/>
            <path class="cls-3"
                  d="M335,416.8c.8,6.4-1.6,12.2-6.3,23.5-5.2,12.6-6.9,12.8-9,20.5-.3,1.3-.6,2.4-.8,3.5-1.7,0-3.4.1-5,.1a22.6,22.6,0,0,1-2.6-.1q1.5-6.3,4.8-19.2a16.44,16.44,0,0,0,4.8-5.9,16.08,16.08,0,0,0,1.3-7,10.16,10.16,0,0,0,2.2-3.2,11,11,0,0,0,.2-7.7,8.17,8.17,0,0,0-1.2-2c.6-1.1,1.1-2.1,1.7-3,1.5-.2,2.7-3.6,6.7-8.2C334.5,414.2,334.8,414.9,335,416.8Z"
                  transform="translate(-24.3 -61.9)"/>
            <path class="cls-4" d="M334.6,395a6.89,6.89,0,0,1-4.1-.5l2.1-2.1C333.3,393.4,334,394.3,334.6,395Z"
                  transform="translate(-24.3 -61.9)"/>
            <path class="cls-4"
                  d="M331.5,391a14.31,14.31,0,0,1,1.1,1.5c-.7.7-1.4,1.3-2.1,2.1h0c-1.2-.6-2.6-1.8-7-14-.8-2.2-1.5-4.1-2.1-5.8.6.3,1.1.3,1.3.1.3-.4-1.2-1.4-1.2-3.3a4.75,4.75,0,0,1,1.1-2.8,40.79,40.79,0,0,0,1.6,9C326,383.6,329.3,388,331.5,391Z"
                  transform="translate(-24.3 -61.9)"/>
            <path class="cls-4"
                  d="M330.5,394.5h0c-1,1.1-2.1,2.2-3.1,3.4-4.6-10.5-6.9-16.1-7.4-18.7a38.25,38.25,0,0,1-.7-5.8,9.24,9.24,0,0,0,2.1,1.2c.6,1.7,1.3,3.6,2.1,5.8C327.9,392.7,329.3,393.9,330.5,394.5Z"
                  transform="translate(-24.3 -61.9)"/>
            <path class="cls-4"
                  d="M329.5,402.9c.9,2,1.6,3.6,2.2,5a51,51,0,0,0-6.6,8.4h-.3a.86.86,0,0,1-.6-.3,9.52,9.52,0,0,0,2.3-5.3,10.51,10.51,0,0,0-.4-3.7c0-.1.1-.1.1-.2A32.24,32.24,0,0,1,329.5,402.9Z"
                  transform="translate(-24.3 -61.9)"/>
            <path class="cls-4"
                  d="M329.3,402.3l.3.6a42.35,42.35,0,0,0-3.3,3.9c0,.1-.1.1-.1.2a12,12,0,0,0-.9-2.3,23,23,0,0,0-1.5-2.3c1.2-1.6,2.5-3.1,3.7-4.5C328,399.3,328.6,400.7,329.3,402.3Z"
                  transform="translate(-24.3 -61.9)"/>
            <path d="M328.2,240.2a42.81,42.81,0,0,0-11.4,3.9,49.45,49.45,0,0,0-15.3,12.8,59.51,59.51,0,0,0-9.5,15.8,208.78,208.78,0,0,1-20.5-11.5l10.3-35.5a25,25,0,0,1,7-1.7,30.72,30.72,0,0,1,9,.8,32.6,32.6,0,0,1,9,3.2c3.9,2,4,3,9.5,6.5,4,2.6,6,3.9,8.3,4.7A11.58,11.58,0,0,0,328.2,240.2Z"
                  transform="translate(-24.3 -61.9)"/>
            <path class="cls-4"
                  d="M327.4,397.9c-1.2,1.4-2.5,2.9-3.7,4.5l-.9-.9a52.82,52.82,0,0,0-.5-7.4c-.9-6.1-1.4-9.7-2.6-12.2a1,1,0,0,0-.2-1.2c-1.5-1.7-5.3-3-10-3.9a54.39,54.39,0,0,1-1-6.6c0-.3-.1-.6-.1-.9a6.11,6.11,0,0,0,1.8-2.1,7.55,7.55,0,0,0,.8-4,4.35,4.35,0,0,1,.7-.4c1.5,0,3.3.4,4,1.6s-.3,1.8,0,3.8a7.51,7.51,0,0,0,2.5,4.3,10,10,0,0,0,1.1,1,57.33,57.33,0,0,0,.7,5.8C320.5,381.8,322.8,387.4,327.4,397.9Z"
                  transform="translate(-24.3 -61.9)"/>
            <path d="M326.1,407a10.51,10.51,0,0,1,.4,3.7,9.84,9.84,0,0,1-2.3,5.3c-.6-.5-.9-1.8-1.6-3.9A51.58,51.58,0,0,1,326.1,407Z"
                  transform="translate(-24.3 -61.9)"/>
            <path d="M325.2,404.7a12,12,0,0,1,.9,2.3c-1.3,1.8-2.5,3.5-3.5,5.1-.2-.6-.4-1.2-.6-1.9l-.3-.9c.2-.6.3-1.3.5-1.9a19.08,19.08,0,0,0,.6-3.7,11.32,11.32,0,0,1,1-1.3C324.2,403,324.7,403.8,325.2,404.7Z"
                  transform="translate(-24.3 -61.9)"/>
            <path class="cls-4"
                  d="M324.8,416.3h.3c-.6,1-1.2,2-1.7,3a7.41,7.41,0,0,0-1.2-1.3,13.36,13.36,0,0,0,2-2.1A1.28,1.28,0,0,0,324.8,416.3Z"
                  transform="translate(-24.3 -61.9)"/>
            <path d="M324.5,421.3a10.52,10.52,0,0,1-.2,7.7,10.16,10.16,0,0,1-2.2,3.2,7.32,7.32,0,0,0-.3-2.2,10.17,10.17,0,0,0-1.3-2.8c1.1-4.3,1.3-4.8,1.7-5.7s.7-1.5,1.1-2.2A8.18,8.18,0,0,1,324.5,421.3Z"
                  transform="translate(-24.3 -61.9)"/>
            <path d="M324.2,416a13.36,13.36,0,0,1-2,2.1,8,8,0,0,0-2.1-1.5c.7-1.4,1.6-2.9,2.5-4.4C323.3,414.2,323.6,415.4,324.2,416Z"
                  transform="translate(-24.3 -61.9)"/>
            <path class="cls-2"
                  d="M322.5,355c.8,1.3.7,2.4.5,4.4a9.5,9.5,0,0,0-1.7,1,1,1,0,0,0-.5-.6,2.67,2.67,0,0,0-1.4-.7c0-1.3-.1-2-.4-2.1s-.5.6-2.8,2.5a5.17,5.17,0,0,0-.7.6c-1,.8-2.4,1.7-3.9,2.7h-.7a19.54,19.54,0,0,0-.8-4.1,12.76,12.76,0,0,0-1.5-3.1,5.78,5.78,0,0,1,1.8-2.3C313.9,350.7,320.4,351.8,322.5,355Z"
                  transform="translate(-24.3 -61.9)"/>
            <path class="cls-5"
                  d="M322.3,394.1a41,41,0,0,1,.5,7.4,12,12,0,0,0-3-2.2,15.07,15.07,0,0,0-3.3-1.3,114.38,114.38,0,0,1-4.7-12.6c5.1-.9,7.4-2.4,7.9-3.6C320.9,384.5,321.4,388,322.3,394.1Z"
                  transform="translate(-24.3 -61.9)"/>
            <path d="M323.3,419.3c-.4.7-.7,1.4-1.1,2.2s-.6,1.4-1.7,5.7a16.46,16.46,0,0,0-3.7-3.8c.3-.7.6-1.5,1-2.3a22.63,22.63,0,0,0,2-1.3c.7-.5,1.5-1.1,2.3-1.8A7.1,7.1,0,0,1,323.3,419.3Z"
                  transform="translate(-24.3 -61.9)"/>
            <path class="cls-2"
                  d="M321.5,371.5c0,1.9,1.5,3,1.2,3.3s-.6.1-1.3-.1c-1-2.8-1.8-5.1-2.3-6.8,0-1.5,0-2.9.1-4.1a2.57,2.57,0,0,0,1.6-.7,2.41,2.41,0,0,0,.7-1.7,3,3,0,0,0-.2-1,9.5,9.5,0,0,1,1.7-1,34.22,34.22,0,0,0-.5,4.3,47.79,47.79,0,0,0,.1,5A4.75,4.75,0,0,0,321.5,371.5Z"
                  transform="translate(-24.3 -61.9)"/>
            <path d="M322.6,301.2a21.52,21.52,0,0,1,.1,5,23.24,23.24,0,0,1-3,9,23.58,23.58,0,0,1-9.2,8.8,17.58,17.58,0,0,1-10.5,2.5c-1.7-.2-5.7-.6-8.7-3.8a12.81,12.81,0,0,1-3-8.2,16,16,0,0,1,.8-5.5c.4-1.3,1.1-2.6,4.5-6.7,2-2.4,2.6-2.9,5-5.7.8-.9,1.4-1.6,1.9-2.2A185.11,185.11,0,0,0,322.6,301.2Z"
                  transform="translate(-24.3 -61.9)"/>
            <path d="M322.8,401.5a15.48,15.48,0,0,1-.1,2.2l-2.1,3c-.7-1.4-1.5-2.9-3.3-7-.2-.5-.5-1.1-.7-1.7a15.07,15.07,0,0,1,3.3,1.3A14.31,14.31,0,0,1,322.8,401.5Z"
                  transform="translate(-24.3 -61.9)"/>
            <path d="M322.7,403.7a19.07,19.07,0,0,1-.6,3.7,13.32,13.32,0,0,1-.5,1.9,16.91,16.91,0,0,0-1.1-2.6C321.3,405.7,322,404.7,322.7,403.7Z"
                  transform="translate(-24.3 -61.9)"/>
            <path d="M322,410.3c.2.7.4,1.3.6,1.9-.9,1.5-1.8,3-2.5,4.4a20.14,20.14,0,0,0-2.1-1.1.1.1,0,0,0,.1-.1c2-1.4,2.9-3.6,3.5-6.1A3,3,0,0,1,322,410.3Z"
                  transform="translate(-24.3 -61.9)"/>
            <path d="M322.1,432.2a14.9,14.9,0,0,1-6.1,12.9c.3-1.2.6-2.5,1-3.8.6-2.5,1.2-4.7,1.6-6.5A13.87,13.87,0,0,0,322.1,432.2Z"
                  transform="translate(-24.3 -61.9)"/>
            <path d="M321.8,430a7.32,7.32,0,0,1,.3,2.2,14.81,14.81,0,0,1-3.5,2.5c.8-3.3,1.4-5.7,1.9-7.5A7.92,7.92,0,0,1,321.8,430Z"
                  transform="translate(-24.3 -61.9)"/>
            <path class="cls-2"
                  d="M321.2,360.4a1.64,1.64,0,0,1,.2,1,2.84,2.84,0,0,1-.7,1.7,2.36,2.36,0,0,1-1.6.7,7.57,7.57,0,0,1,.1-1.5h0A12.1,12.1,0,0,1,321.2,360.4Z"
                  transform="translate(-24.3 -61.9)"/>
            <path d="M321.7,409.3c-.6,2.4-1.5,4.7-3.5,6.1a.1.1,0,0,0-.1.1,18,18,0,0,0-2.1-.8c.6-1.1,1.2-2.2,1.8-3.4.9-1.6,1.9-3.1,2.8-4.5C320.9,407.5,321.3,408.2,321.7,409.3Z"
                  transform="translate(-24.3 -61.9)"/>
            <path class="cls-2"
                  d="M320.8,359.8c.2.2.3.4.5.6a9.13,9.13,0,0,0-2,1.9c0-1.3.1-2.3.1-3.2A2.1,2.1,0,0,1,320.8,359.8Z"
                  transform="translate(-24.3 -61.9)"/>
            <path d="M320.1,416.5c.8.5,1.4,1,2.1,1.5-.9.7-1.7,1.3-2.3,1.8a13.73,13.73,0,0,1-2,1.3A47,47,0,0,1,320.1,416.5Z"
                  transform="translate(-24.3 -61.9)"/>
            <path d="M317.3,399.8c1.8,4.1,2.6,5.5,3.3,7a49.15,49.15,0,0,0-2.8,4.5,37.93,37.93,0,0,0-1.8,3.4c-6.2-2.1-14.3-2.4-20.4-2.6a79.69,79.69,0,0,0-14,.9,11.21,11.21,0,0,1-3.7-3.8,4.33,4.33,0,0,1-.5-1.2,41.78,41.78,0,0,0,1.2-5.1,7.84,7.84,0,0,0,.2-1.4,83.42,83.42,0,0,1,10.1-2.2c4.9-.8,1.8.1,18.2-1.2,3.8-.3,6.8-.6,9.5.1C316.8,398.6,317,399.2,317.3,399.8Z"
                  transform="translate(-24.3 -61.9)"/>
            <path d="M320.1,416.5c-.9,1.6-1.6,3.2-2.3,4.6a19.65,19.65,0,0,1-2.5,1.3c-.7-.5-1.5-.9-2.3-1.4.6-1.5,1.3-3,2-4.5a6.3,6.3,0,0,0,3-1A10.24,10.24,0,0,1,320.1,416.5Z"
                  transform="translate(-24.3 -61.9)"/>
            <path class="cls-6"
                  d="M319.5,380.7a1.06,1.06,0,0,1,.2,1.2,6.38,6.38,0,0,0-.8-1.4l-8.5-.1a32.13,32.13,0,0,1-.8-3.6C314.2,377.6,318,379,319.5,380.7Z"
                  transform="translate(-24.3 -61.9)"/>
            <path class="cls-2"
                  d="M319,357c.3,0,.4.8.4,2.1h-.3a2.84,2.84,0,0,0-1.7.7,2.41,2.41,0,0,0-.7,1.7,2.46,2.46,0,0,0,1.8,2.3h0c-.2.7,0,2,.6,4.1a54.3,54.3,0,0,0,.2,5.6,5.24,5.24,0,0,1-1.1-1,7.51,7.51,0,0,1-2.5-4.3c-.3-2,.6-2.8,0-3.8-.7-1.2-2.5-1.6-4-1.6a26.29,26.29,0,0,0,3.9-2.7,7.28,7.28,0,0,0,.7-.6C318.5,357.6,318.7,357,319,357Z"
                  transform="translate(-24.3 -61.9)"/>
            <path class="cls-2"
                  d="M319.1,359.1h.3c0,.9-.1,1.9-.1,3.2h0a10,10,0,0,0-.8,1.4,2.46,2.46,0,0,1-1.8-2.3,2.84,2.84,0,0,1,.7-1.7A2.72,2.72,0,0,1,319.1,359.1Z"
                  transform="translate(-24.3 -61.9)"/>
            <path class="cls-2"
                  d="M321.4,374.7a9.24,9.24,0,0,1-2.1-1.2c-.1-1.9-.2-3.8-.2-5.6C319.6,369.6,320.4,371.9,321.4,374.7Z"
                  transform="translate(-24.3 -61.9)"/>
            <path class="cls-2"
                  d="M319.3,362.3a7.57,7.57,0,0,1-.1,1.5h-.1a1.27,1.27,0,0,1-.6-.1A6.38,6.38,0,0,1,319.3,362.3Z"
                  transform="translate(-24.3 -61.9)"/>
            <path class="cls-2" d="M319.1,363.8h.1c0,1.3-.1,2.6-.1,4.1-.6-2.1-.9-3.5-.6-4.1h.6Z"
                  transform="translate(-24.3 -61.9)"/>
            <path class="cls-6"
                  d="M318.9,380.5c.3.4.5.9.8,1.4-.5,1.2-2.8,2.6-7.9,3.6-.1-.3-.2-.6-.3-1a34.42,34.42,0,0,1-1.1-4.1Z"
                  transform="translate(-24.3 -61.9)"/>
            <path d="M320.5,427.2c-.5,1.8-1.1,4.2-1.9,7.5a24,24,0,0,1-6.2,2.2,57.49,57.49,0,0,1,3.1-10.2c.4-1,.8-2.1,1.4-3.3A18.16,18.16,0,0,1,320.5,427.2Z"
                  transform="translate(-24.3 -61.9)"/>
            <path d="M318.6,434.7c-.5,1.9-1,4-1.6,6.5-.3,1.3-.6,2.6-1,3.8a39.49,39.49,0,0,1-3.5,2.6c-.9.6-1.7,1.1-2.5,1.6,1.1-5.4,1.7-9,2.4-12.3A22.69,22.69,0,0,0,318.6,434.7Z"
                  transform="translate(-24.3 -61.9)"/>
            <path d="M317.9,421.1c-.4.8-.7,1.6-1,2.3-.5-.4-1-.7-1.5-1.1A18.69,18.69,0,0,0,317.9,421.1Z"
                  transform="translate(-24.3 -61.9)"/>
            <path d="M315.9,414.6a18,18,0,0,1,2.1.8,6.68,6.68,0,0,1-3,1A15,15,0,0,0,315.9,414.6Z"
                  transform="translate(-24.3 -61.9)"/>
            <path d="M315.4,422.4a14.31,14.31,0,0,1,1.5,1.1c-.5,1.3-1,2.4-1.4,3.3a67.26,67.26,0,0,0-3.1,10.2c-1.6.4-3.3.7-5.1,1,.7-2.7,1.4-5,2.6-8.6.7-2,1.4-3.9,2-5.6C313.2,423.3,314.3,422.9,315.4,422.4Z"
                  transform="translate(-24.3 -61.9)"/>
            <path d="M315.9,414.6c-.3.6-.6,1.2-.9,1.9a27.52,27.52,0,0,1-4.9-.1,58.42,58.42,0,0,0-11.3.2h0a44.08,44.08,0,0,0-7.3-.4c-3.4-.7-7.2-1.5-10.1-3.3a72,72,0,0,1,14-.9C301.6,412.2,309.8,412.6,315.9,414.6Z"
                  transform="translate(-24.3 -61.9)"/>
            <path class="cls-5"
                  d="M311.8,385.5a114.38,114.38,0,0,0,4.7,12.6c-2.8-.6-5.7-.4-9.5-.1-16.4,1.3-13.3.3-18.2,1.2a87.68,87.68,0,0,0-10.1,2.2,40.51,40.51,0,0,0,.3-8.2,50.41,50.41,0,0,0-.8-8,20.22,20.22,0,0,1,1.5-4.9c-.1,2,4,6.1,19.5,6.1A79,79,0,0,0,311.8,385.5Z"
                  transform="translate(-24.3 -61.9)"/>
            <path d="M310.1,416.4a27.52,27.52,0,0,0,4.9.1c-.7,1.5-1.4,3-2,4.5a43,43,0,0,0-14.2-4.4A58.8,58.8,0,0,1,310.1,416.4Z"
                  transform="translate(-24.3 -61.9)"/>
            <path d="M313,421a17.61,17.61,0,0,1,2.3,1.4c-1.1.5-2.2.9-3.3,1.3C312.4,422.7,312.7,421.9,313,421Z"
                  transform="translate(-24.3 -61.9)"/>
            <path class="cls-4"
                  d="M312.5,447.7a28.82,28.82,0,0,0,3.5-2.6q-3.15,12.9-4.8,19.2a36.72,36.72,0,0,1-4.6-.3c.5-1.9,1-4.1,1.5-6.5.7-3.2,1.3-5.9,1.8-8.3A17.37,17.37,0,0,0,312.5,447.7Z"
                  transform="translate(-24.3 -61.9)"/>
            <path d="M313,421c-.3.9-.7,1.7-1,2.6-6.1,1.9-12.3,1.8-16.2,1.7-7.7-.2-17.6-.5-26-1.4a33.52,33.52,0,0,1,4-2.9,35.34,35.34,0,0,1,17.7-4.8c.3.1.6.1,1,.2a17.7,17.7,0,0,0,6.4.2h0A42.44,42.44,0,0,1,313,421Z"
                  transform="translate(-24.3 -61.9)"/>
            <path d="M312.4,436.9c-.7,3.3-1.3,6.9-2.4,12.3-1.7,1-3,1.5-3.5,1.8-1,.4-2,.8-2.9,1.1,2.1-7.2,2.9-11,3.8-14.2C309.1,437.6,310.8,437.3,312.4,436.9Z"
                  transform="translate(-24.3 -61.9)"/>
            <path class="cls-6"
                  d="M311.5,384.5c.1.3.2.6.3,1a67.21,67.21,0,0,1-12.6,1c-15.5.1-19.6-4-19.5-6.1a.31.31,0,0,0,.1-.2l9.5.1c1.4,2.1,3.1,3.4,3.6,3.1s-.1-1.4-.7-3.1l6.3.1c1.1,3.1,3.6,5.1,3.9,4.9s-1.6-2.2-1.9-4.9l9.7.1C310.7,381.9,311.1,383.3,311.5,384.5Z"
                  transform="translate(-24.3 -61.9)"/>
            <path class="cls-2"
                  d="M311,363.1a9.53,9.53,0,0,1-.8,4,5.31,5.31,0,0,1-1.8,2.1c-.2-1.6-.3-3.1-.4-4.5A17.28,17.28,0,0,0,311,363.1Z"
                  transform="translate(-24.3 -61.9)"/>
            <path class="cls-2"
                  d="M311,362.8v.4c-1,.6-2,1.1-3,1.7a4.1,4.1,0,0,0-.1-1.1,6.74,6.74,0,0,1,2.6-.9A.9.9,0,0,1,311,362.8Z"
                  transform="translate(-24.3 -61.9)"/>
            <path class="cls-2"
                  d="M311,362.8a.9.9,0,0,0-.5.1,6.74,6.74,0,0,0-2.6.9c-.2-3.5-.1-6.2.8-8.2a14.84,14.84,0,0,1,1.5,3.1A19.54,19.54,0,0,1,311,362.8Z"
                  transform="translate(-24.3 -61.9)"/>
            <path d="M312,423.6c-.7,1.8-1.3,3.6-2,5.6a70.1,70.1,0,0,0-2.6,8.6c-2.9.4-5.8.7-8.5.9-5.6.5-13.6,1.2-22.7-.8a144.24,144.24,0,0,0-8-12.6,10.7,10.7,0,0,1,1.6-1.4c8.5.9,18.3,1.2,26,1.4C299.8,425.4,305.9,425.5,312,423.6Z"
                  transform="translate(-24.3 -61.9)"/>
            <path class="cls-6"
                  d="M310.4,380.4l-9.7-.1a3.67,3.67,0,0,1,.1-1.8,6.71,6.71,0,0,1,1.3-2.5,61,61,0,0,1,7.6.8A19.14,19.14,0,0,0,310.4,380.4Z"
                  transform="translate(-24.3 -61.9)"/>
            <path class="cls-4"
                  d="M306.5,451a19.21,19.21,0,0,0,3.5-1.8c-.5,2.4-1,5.1-1.8,8.3-.5,2.4-1,4.6-1.5,6.5-2.1-.2-4.3-.5-6.5-.8.5-1.7,1.3-4.1,2.2-7.4.4-1.3.7-2.5,1.1-3.6Z"
                  transform="translate(-24.3 -61.9)"/>
            <path class="cls-3"
                  d="M308.5,370.3c.3,2.4.6,4.6,1,6.6a57.2,57.2,0,0,0-7.6-.8,27,27,0,0,1,2-2.5,35.36,35.36,0,0,1,4.4-4.2A2,2,0,0,1,308.5,370.3Z"
                  transform="translate(-24.3 -61.9)"/>
            <path class="cls-2"
                  d="M308.4,369.3a29.38,29.38,0,0,0-4.4,4.2,16.59,16.59,0,0,0-2,2.5c-1.2-.1-2.4-.1-3.7-.1a13.76,13.76,0,0,1,1.2-3.4,15.2,15.2,0,0,1,3.6-5.1l1.2-.6c1.2,1.3,2.8,1.9,3,1.6s-1-1.3-.8-2.7c.5-.3,1-.5,1.5-.8C308.1,366.2,308.2,367.7,308.4,369.3Z"
                  transform="translate(-24.3 -61.9)"/>
            <path class="cls-2" d="M307.9,363.8a4.1,4.1,0,0,0,.1,1.1c-.5.3-1,.5-1.5.8v-.1A2.54,2.54,0,0,1,307.9,363.8Z"
                  transform="translate(-24.3 -61.9)"/>
            <path class="cls-2"
                  d="M308.7,355.5c-.9,2-1,4.8-.8,8.2a2.59,2.59,0,0,0-1.4,1.7v.1a22.57,22.57,0,0,1-2.2,1.1l-.4-.4a9.67,9.67,0,0,0,1.4-2.5,12.65,12.65,0,0,0,.7-8c-1-3.9-4-5.8-3.8-6S306.2,351.5,308.7,355.5Z"
                  transform="translate(-24.3 -61.9)"/>
            <path class="cls-2" d="M306.5,365.6c-.2,1.3,1.1,2.4.8,2.7s-1.8-.3-3-1.6A22.57,22.57,0,0,0,306.5,365.6Z"
                  transform="translate(-24.3 -61.9)"/>
            <path d="M307.4,437.9c-.9,3.3-1.7,7-3.8,14.2a37.51,37.51,0,0,1-17.2,1.2c-1-.1-2-.3-3-.5-.7-1.8-1.6-4.1-2.7-6.3-.8-1.7-2.4-4.8-4.5-8.5a69,69,0,0,0,22.7.8C301.5,438.6,304.5,438.3,307.4,437.9Z"
                  transform="translate(-24.3 -61.9)"/>
            <path class="cls-3"
                  d="M303.1,367.4a17.67,17.67,0,0,0-3.6,5.1,13.77,13.77,0,0,0-1.2,3.4c-2.4,0-4.8.1-7,.3a12.89,12.89,0,0,1,0-3.4.1.1,0,0,0,.1-.1A120,120,0,0,0,303.1,367.4Z"
                  transform="translate(-24.3 -61.9)"/>
            <path class="cls-3"
                  d="M303.6,452.1c-.3,1.1-.7,2.3-1.1,3.6-1,3.4-1.7,5.7-2.2,7.4a125.67,125.67,0,0,1-14.3-3c-.3-1.1-.8-2.3-1.3-3.9-.1-.3-.6-1.7-1.3-3.5a23.42,23.42,0,0,0,3,.5A35.71,35.71,0,0,0,303.6,452.1Z"
                  transform="translate(-24.3 -61.9)"/>
            <path class="cls-1"
                  d="M302.5,91.9,256.1,249.8c-23.6-15.1-52.2-29.7-90.7-30.1a195.38,195.38,0,0,0-40.5,4.5,313.4,313.4,0,0,0-45.5,13.6L123.5,83.2C155.8,70.3,184,63.9,210,63.4a173,173,0,0,1,38.6,4.3C267.1,72.5,292.8,86.3,302.5,91.9Z"
                  transform="translate(-24.3 -61.9)"/>
            <path class="cls-2" d="M300.6,380.3c.3,2.7,2.2,4.7,1.9,4.9s-2.8-1.8-3.9-4.9Z"
                  transform="translate(-24.3 -61.9)"/>
            <path class="cls-2"
                  d="M301.8,358.5a10.68,10.68,0,0,1-.3,2.5c-.8,2.6-2.7,3.7-4.6,4.9a5.12,5.12,0,0,1-.6-2.2c.2-2.4,2.9-4,3.5-4.3A6.9,6.9,0,0,1,301.8,358.5Z"
                  transform="translate(-24.3 -61.9)"/>
            <path class="cls-2"
                  d="M302,376a6.71,6.71,0,0,0-1.3,2.5,10.87,10.87,0,0,0-.1,1.8h-2a16,16,0,0,1-.5-2.1,8.68,8.68,0,0,1,.1-2.3C299.5,375.9,300.8,375.9,302,376Z"
                  transform="translate(-24.3 -61.9)"/>
            <path class="cls-2"
                  d="M301.8,358.5a7.22,7.22,0,0,0-2,.9c-.6.4-3.3,1.9-3.5,4.3a3.19,3.19,0,0,0,.6,2.2c-.5.3-1,.6-1.6,1a13.92,13.92,0,0,1-3-2.6c1.7-1.8,2.5-2.3,3.3-4.2a10.55,10.55,0,0,0,.3-7c-1.3-4.2-5-6-4.7-6.5s4.7.8,7.5,4.3A12.27,12.27,0,0,1,301.8,358.5Z"
                  transform="translate(-24.3 -61.9)"/>
            <path class="cls-6"
                  d="M298.6,380.3l-6.3-.1a19.45,19.45,0,0,1-1-4,53.11,53.11,0,0,1,7-.3,8.68,8.68,0,0,0-.1,2.3A7.79,7.79,0,0,0,298.6,380.3Z"
                  transform="translate(-24.3 -61.9)"/>
            <path class="cls-2" d="M292.3,380.2c.6,1.7,1.1,2.9.7,3.1s-2.2-1.1-3.6-3.1Z"
                  transform="translate(-24.3 -61.9)"/>
            <path class="cls-1"
                  d="M293,353.3c.3.6-2.4,1.7-3,4.3-.5,2.4,1,4.6,1.7,5.7a5.5,5.5,0,0,0,.7.9c-.6.6-1.2,1.4-2,2.4-1.9,2.5-2.8,3.8-3.2,5.2a8.78,8.78,0,0,0-.1,2.8c-4.6,2-7.2,3.2-8.8,4.3a10.92,10.92,0,0,0-1.7,1.3,9.52,9.52,0,0,0-2.5-2.8,8.18,8.18,0,0,0-6.3-1.3c-2.9.8-4.4,3.5-5,4.5-1.4,2.5-.7,3.4-1.8,8.7a41.7,41.7,0,0,1-2.3,7.3,55.7,55.7,0,0,1-3,5.5c-3.6,6.3-3.4,6.9-5.4,10.1a9.76,9.76,0,0,0-4.7,2.4c-1.1,1.1-1.2,1.9-2.5,3.7a20.62,20.62,0,0,1-5,4.8c-5.1,4-8.1,5.9-8,6.9,0,.3.3.4.8.5a.1.1,0,0,0-.1.1,53.26,53.26,0,0,1-6,3.8h0c-1.4-.8-2.7-1.5-3.7-2.1L266,276.1a159.54,159.54,0,0,0,21.7,12.7c-.9,4.6-2.1,11.3-4,22-.3,1.6-1.1,5.5-4.2,8.2a9.64,9.64,0,0,1-7.2,2.5,8.26,8.26,0,0,1-5.3-2.8c-1.4-1.8-1.2-3.5-1.7-3.5-.8,0-2.7,5.4-1.5,11,.1.6,1.9,8.3,8.5,12.2,3.3,1.9,5.8,1.7,6.2,3.3.5,2.3-4,3.7-4.8,8.2-.7,3.7,1.7,7.3,2,7.2s-.5-1.5,0-3.2c.8-2.5,3.7-3.7,5.2-4.3,2.6-1.1,6-1.5,6.3-.7s-2,1.6-2.7,4.2c-.6,2.2.4,4.6,1.2,4.7.6,0,.7-1.5,2.2-2.8C289.7,353,292.7,352.7,293,353.3Z"
                  transform="translate(-24.3 -61.9)"/>
            <path class="cls-2"
                  d="M292.4,364.2a11.91,11.91,0,0,0,3,2.6,8.88,8.88,0,0,0-3.3,3.8,8.3,8.3,0,0,0-.6,2.1c-1.6.7-3,1.3-4.3,1.9a8.68,8.68,0,0,1,.1-2.8c.3-1.4,1.3-2.7,3.2-5.2A16.75,16.75,0,0,1,292.4,364.2Z"
                  transform="translate(-24.3 -61.9)"/>
            <path class="cls-2"
                  d="M292.3,380.2h-3a13.82,13.82,0,0,1-1.8-3.4c1.2-.2,2.4-.4,3.7-.5A30.76,30.76,0,0,0,292.3,380.2Z"
                  transform="translate(-24.3 -61.9)"/>
            <path class="cls-2"
                  d="M291.4,372.8a9.7,9.7,0,0,0,0,3.4,36.88,36.88,0,0,0-3.7.5,16,16,0,0,1-.5-2.1C288.3,374.1,289.8,373.5,291.4,372.8Z"
                  transform="translate(-24.3 -61.9)"/>
            <path class="cls-6"
                  d="M289.4,380.2l-9.5-.1c-.1.1-.1.1-.1.2a1.05,1.05,0,0,1,.5-.9,19.92,19.92,0,0,1,7.3-2.7A12.85,12.85,0,0,0,289.4,380.2Z"
                  transform="translate(-24.3 -61.9)"/>
            <path class="cls-3"
                  d="M287,374.7a16,16,0,0,0,.5,2.1,19.92,19.92,0,0,0-7.3,2.7,1.05,1.05,0,0,0-.5.9,16.6,16.6,0,0,0-1.5,4.9,15,15,0,0,0-1.7-4.9c.6-.4,1.1-.9,1.7-1.3C279.8,377.9,282.5,376.7,287,374.7Z"
                  transform="translate(-24.3 -61.9)"/>
            <path d="M281.5,412.9c2.9,1.8,6.7,2.6,10.1,3.3a35.34,35.34,0,0,0-17.7,4.8,33.52,33.52,0,0,0-4,2.9l-2.9-.3c-.5-.7-1.1-1.4-1.6-2.1a19.83,19.83,0,0,0,7.9-5.5,14.29,14.29,0,0,0,1.4-2C277.1,413.5,279.4,413.2,281.5,412.9Z"
                  transform="translate(-24.3 -61.9)"/>
            <path class="cls-4"
                  d="M284.7,456.3c.5,1.6,1,2.8,1.3,3.9a206.42,206.42,0,0,1-20.2-6.5,73.36,73.36,0,0,0-14.1-20.2c1-2,1.8-3.9,2.5-5.7a58.72,58.72,0,0,0,8.2,5.1c-1.1,2.4-1.6,4.8-.9,6.9,1,3.4,4.6,5.3,10.5,8.5a42.33,42.33,0,0,0,11.4,4.5C284.1,454.6,284.5,456,284.7,456.3Z"
                  transform="translate(-24.3 -61.9)"/>
            <path class="cls-4"
                  d="M280.7,446.5c1,2.2,2,4.5,2.7,6.3a40.49,40.49,0,0,1-11.4-4.5c-5.9-3.2-9.5-5.1-10.5-8.5a10.08,10.08,0,0,1,.9-6.9c1,.5,2,1,2.9,1.4a57.66,57.66,0,0,0,10.8,3.7C278.3,441.7,279.9,444.8,280.7,446.5Z"
                  transform="translate(-24.3 -61.9)"/>
            <path d="M279,393.2a34.16,34.16,0,0,1-.3,8.2l-2,.6v-4.3a62.14,62.14,0,0,1,1-10.1c.1-.7.3-1.6.5-2.4A50.41,50.41,0,0,1,279,393.2Z"
                  transform="translate(-24.3 -61.9)"/>
            <path d="M278.7,401.4c-.1.5-.1.9-.2,1.4-.2,1.1-.6,3-1.2,5.1a27.4,27.4,0,0,1-.6-5.9C277.4,401.8,278.1,401.6,278.7,401.4Z"
                  transform="translate(-24.3 -61.9)"/>
            <path d="M276.5,380.3a15,15,0,0,1,1.7,4.9c-.2.8-.3,1.7-.5,2.4a63.68,63.68,0,0,0-1,10.1V402a66,66,0,0,0-12,5.2c-2.3,1.3-4.4,2.4-6.2,3.4a55.48,55.48,0,0,1,8.5-19.9A47.88,47.88,0,0,1,276.5,380.3Z"
                  transform="translate(-24.3 -61.9)"/>
            <path d="M277.8,409.1a10.38,10.38,0,0,0,3.7,3.8c-2.1.3-4.3.6-6.8,1a28.56,28.56,0,0,0,2.7-6A2.14,2.14,0,0,0,277.8,409.1Z"
                  transform="translate(-24.3 -61.9)"/>
            <path d="M277.3,408a24.23,24.23,0,0,1-2.7,6c-2.5.4-5.3.9-8.4,1.4-2.2.4-4,.7-5.7,1a28.33,28.33,0,0,0-2.8-2.3c.2-1.1.5-2.3.8-3.5,1.8-1.1,3.9-2.2,6.2-3.4a77.84,77.84,0,0,1,12-5.2A19.37,19.37,0,0,0,277.3,408Z"
                  transform="translate(-24.3 -61.9)"/>
            <path d="M274,377.5a7.47,7.47,0,0,1,2.5,2.8,44,44,0,0,0-9.5,10.5,54.77,54.77,0,0,0-8.5,19.9,29.63,29.63,0,0,0-3.2,2.1,7.72,7.72,0,0,0-3.6-.7c-.6.1-1.1.2-1.6.3,2-3.3,1.8-3.8,5.4-10.1a55.71,55.71,0,0,0,3-5.5,45.21,45.21,0,0,0,2.3-7.3c1.2-5.3.5-6.2,1.8-8.7.6-1,2.1-3.7,5-4.5A8,8,0,0,1,274,377.5Z"
                  transform="translate(-24.3 -61.9)"/>
            <path d="M274.6,414a14.29,14.29,0,0,1-1.4,2,19.83,19.83,0,0,1-7.9,5.5,41,41,0,0,0-4.8-5.2c1.6-.3,3.5-.6,5.7-1C269.3,414.8,272.1,414.4,274.6,414Z"
                  transform="translate(-24.3 -61.9)"/>
            <path d="M266.9,423.6l2.9.3c-.5.5-1.1.9-1.6,1.4C267.8,424.8,267.3,424.2,266.9,423.6Z"
                  transform="translate(-24.3 -61.9)"/>
            <path class="cls-4"
                  d="M268.2,425.4a144.24,144.24,0,0,1,8,12.6,49.41,49.41,0,0,1-10.8-3.7c-.9-.4-1.9-.9-2.9-1.4A24.9,24.9,0,0,1,268.2,425.4Z"
                  transform="translate(-24.3 -61.9)"/>
            <path class="cls-4"
                  d="M266.9,423.6c.4.6.9,1.2,1.3,1.8a28.6,28.6,0,0,0-5.8,7.5,53.42,53.42,0,0,1-8.2-5.1c.5-1.4.9-2.8,1.3-4.1a32.1,32.1,0,0,0,6.1-.9C263.3,423.1,265,423.4,266.9,423.6Z"
                  transform="translate(-24.3 -61.9)"/>
            <path class="cls-4"
                  d="M265.3,421.5c.5.7,1.1,1.4,1.6,2.1-1.9-.2-3.6-.5-5.3-.8C262.9,422.4,264.1,422,265.3,421.5Z"
                  transform="translate(-24.3 -61.9)"/>
            <path class="cls-4"
                  d="M265.3,421.5a22.85,22.85,0,0,1-3.7,1.2,33.34,33.34,0,0,1-5.5-1.5c.4-1.4.7-2.9,1-4.3,1-.2,2.1-.4,3.4-.7C262.1,417.8,263.7,419.6,265.3,421.5Z"
                  transform="translate(-24.3 -61.9)"/>
            <path class="cls-4"
                  d="M265.8,453.7c-3.1-1.2-6.1-2.4-9.1-3.6a48.41,48.41,0,0,0-7.2-12.7c.8-1.4,1.5-2.7,2.2-3.9A74.88,74.88,0,0,1,265.8,453.7Z"
                  transform="translate(-24.3 -61.9)"/>
            <path class="cls-4" d="M257.7,414.1a26,26,0,0,1,2.8,2.3c-1.3.3-2.4.5-3.4.7Q257.4,415.45,257.7,414.1Z"
                  transform="translate(-24.3 -61.9)"/>
            <path d="M258.5,410.6c-.3,1.2-.5,2.3-.8,3.5a10.49,10.49,0,0,0-2.5-1.4Q256.7,411.65,258.5,410.6Z"
                  transform="translate(-24.3 -61.9)"/>
            <path class="cls-4"
                  d="M257.7,414.1l-.6,3a41,41,0,0,0-5.1,1.4,1.69,1.69,0,0,1-.3-1c-.2-1.6,1.2-3.1,3.6-4.8A10,10,0,0,1,257.7,414.1Z"
                  transform="translate(-24.3 -61.9)"/>
            <path class="cls-4" d="M256.1,421.3a30.8,30.8,0,0,0,5.5,1.5,32.1,32.1,0,0,1-6.1.9A21,21,0,0,0,256.1,421.3Z"
                  transform="translate(-24.3 -61.9)"/>
            <path class="cls-4" d="M257.1,417c-.3,1.4-.6,2.8-1,4.3-2.1-.8-3.6-1.7-4.2-2.8A31.4,31.4,0,0,1,257.1,417Z"
                  transform="translate(-24.3 -61.9)"/>
            <path class="cls-4"
                  d="M256.1,421.3l-.6,2.4a33.71,33.71,0,0,1-5.6-.2,3.72,3.72,0,0,1-.6-2.8c.2-.8.8-1.5,2.6-2.2C252.6,419.6,254.1,420.5,256.1,421.3Z"
                  transform="translate(-24.3 -61.9)"/>
            <path class="cls-4"
                  d="M250,423.5a32.87,32.87,0,0,0,5.6.2c-.4,1.3-.8,2.7-1.3,4.1A15.79,15.79,0,0,1,250,423.5Z"
                  transform="translate(-24.3 -61.9)"/>
            <path class="cls-3"
                  d="M249.5,437.4a48.4,48.4,0,0,1,7.2,12.7q-6.45-2.7-12.3-5.4c1-1.4,2.4-3.2,4-5.7A7.64,7.64,0,0,0,249.5,437.4Z"
                  transform="translate(-24.3 -61.9)"/>
            <path class="cls-4"
                  d="M251.7,412a6.65,6.65,0,0,1,3.6.7c-2.4,1.7-3.8,3.3-3.6,4.8a2.24,2.24,0,0,0,.3,1c-1.9.7-2.5,1.4-2.6,2.2a3.72,3.72,0,0,0,.6,2.8c-3.1-.4-5.4-1.4-5.8-2.6s1.7-1.9,5.7-8.2a.76.76,0,0,0,.2-.4C250.6,412.2,251.1,412.1,251.7,412Z"
                  transform="translate(-24.3 -61.9)"/>
            <path class="cls-4"
                  d="M254.2,427.8a55.06,55.06,0,0,1-2.5,5.7c-5.1-5-10.4-8.2-14.7-7.3-2.1.4-2.5,1.5-6.4,4.4-.5,0-.7-.2-.8-.5-.1-1.1,2.9-3,8-6.9a22.69,22.69,0,0,0,5-4.8c1.3-1.8,1.4-2.5,2.5-3.7a10.47,10.47,0,0,1,4.7-2.4.76.76,0,0,0-.2.4c-4,6.3-6.1,6.8-5.7,8.2.4,1.2,2.7,2.2,5.8,2.6A19.31,19.31,0,0,0,254.2,427.8Z"
                  transform="translate(-24.3 -61.9)"/>
            <path class="cls-4"
                  d="M251.7,433.5a38.39,38.39,0,0,1-2.2,3.9,21.06,21.06,0,0,0-8.5-6.3c-4.2-1.6-8.7-.4-10.4-.6,4-2.9,4.3-4,6.4-4.4C241.3,425.3,246.6,428.5,251.7,433.5Z"
                  transform="translate(-24.3 -61.9)"/>
            <path class="cls-3"
                  d="M249.5,437.4c-.3.5-.6,1-1,1.6-1.6,2.5-3,4.3-4,5.7-8.2-3.8-15.1-7.5-20-10.2a53.26,53.26,0,0,0,6-3.8.1.1,0,0,0,.1-.1c1.8.2,6.2-1,10.4.6A20,20,0,0,1,249.5,437.4Z"
                  transform="translate(-24.3 -61.9)"/>
            <path class="cls-1"
                  d="M231.9,255.9c6.3,3.4,12.3,7,18.3,10.6-8.2,28-35.8,121.6-47.2,160.4-24.3-15.5-53.6-30.6-94-30.6-25,0-52.3,5.6-83.2,16.9L70.7,258.3c4.6-1.9,9.1-3.5,13.4-5.1,16.4-5.7,41.9-13,69.9-15.3,3-.3,6-.4,9-.4C184.9,237.5,208.1,243.7,231.9,255.9Z"
                  transform="translate(-24.3 -61.9)"/>
            <path class="cls-7"
                  d="M300.6,294.4c-.5.6-1.2,1.4-1.9,2.2-2.4,2.8-3,3.2-5,5.7-3.4,4.1-4.1,5.4-4.5,6.7a13.89,13.89,0,0,0-.8,5.5,13,13,0,0,0,3,8.2,12.47,12.47,0,0,0,8.7,3.8,17.58,17.58,0,0,0,10.5-2.5,23.58,23.58,0,0,0,9.2-8.8,23.24,23.24,0,0,0,3-9,21.52,21.52,0,0,0-.1-5"
                  transform="translate(-24.3 -61.9)"/>
            <path class="cls-7"
                  d="M123.6,83.2c32.3-12.9,60.5-19.3,86.5-19.8a173,173,0,0,1,38.6,4.3c18.5,4.7,44.2,18.6,53.9,24.2L256.2,249.8c-23.6-15.1-52.2-29.7-90.7-30.1a195.38,195.38,0,0,0-40.5,4.5,313.4,313.4,0,0,0-45.5,13.6Z"
                  transform="translate(-24.3 -61.9)"/>
            <path class="cls-7"
                  d="M202.9,426.9c11.5-38.8,39-132.4,47.2-160.4-6-3.6-12-7.3-18.3-10.6-23.9-12.2-47.1-18.4-68.9-18.4-3,0-6,.1-9,.4-27.9,2.3-53.5,9.6-69.9,15.3-4.4,1.6-8.8,3.3-13.4,5.1L25.8,413.2C56.7,401.9,84,396.3,109,396.3,149.4,396.3,178.7,411.4,202.9,426.9Z"
                  transform="translate(-24.3 -61.9)"/>
            <path class="cls-8"
                  d="M224.5,434.5c4.9,2.7,11.8,6.4,20,10.2,3.8,1.8,8,3.6,12.3,5.4,3,1.2,6,2.5,9.1,3.6a190.4,190.4,0,0,0,20.2,6.5,125.67,125.67,0,0,0,14.3,3c2.2.3,4.3.6,6.5.8l4.6.3c.9,0,1.8.1,2.6.1,1.7,0,3.3,0,5-.1,26.6-.8,56.3-7.9,90.4-21.7L424.9,389l27.8-96.7a316.06,316.06,0,0,1-35.5,9.3c-.3.1-.6.1-1,.2-3.4.7-6.8,1.3-10.1,1.8a252.71,252.71,0,0,1-30.6,2.9c-2.2.1-4.4.1-6.5.1a212.18,212.18,0,0,1-31.9-2.4c-5-.8-9.7-1.7-14.3-2.8a177.94,177.94,0,0,1-22-6.8c-4.6-1.8-8.9-3.6-12.9-5.6a159.54,159.54,0,0,1-21.7-12.7L221,432.6c.8.4,2.1,1.1,3.5,1.9"
                  transform="translate(-24.3 -61.9)"/>
            <path class="cls-7"
                  d="M435,280a248.31,248.31,0,0,0,23.2-9.2l-.1-1.1,1.9-.5,44.5-152.5c-29.4,11.4-58.1,17.2-85.5,17.2-45.8,0-79.6-15.8-101.6-31L281.8,225.7l-10.3,35.5A197.84,197.84,0,0,0,292,272.7c3.4,1.6,6.7,3.2,10.2,4.6a177.39,177.39,0,0,0,40.2,11.5c5.2.8,10.4,1.4,15.7,1.8,4.1.3,8.3.4,12.5.4a187.86,187.86,0,0,0,27.8-2.1c5.5-.8,11.1-1.9,16.7-3.2A200.12,200.12,0,0,0,435,280Z"
                  transform="translate(-24.3 -61.9)"/>
            <path class="cls-7" d="M296.9,365.9c.5.9,1.2,1.5.9,1.8s-1.3,0-2.5-.8" transform="translate(-24.3 -61.9)"/>
            <path class="cls-7" d="M303.9,366.4a7,7,0,0,1-.6-.9c-.8-1.4-1.3-3.6-.3-5.2s2.9-1.7,2.8-2-1.9-.5-4,.1"
                  transform="translate(-24.3 -61.9)"/>
            <path class="cls-7"
                  d="M417,301.5c.1,2.3,0,4.9.3,11,.5,9.5,1,12.5,3,15.5a23.1,23.1,0,0,0,4.8,5c2,1.6,3.5,2.7,5.5,2.8,3.3.3,5.3-2.3,6-1.7.9.9-2.5,6.1-5.5,9.7a23.79,23.79,0,0,1-5.2,4.7,18.9,18.9,0,0,1-5.5,2.3c-5.5,1.3-9.9-1-10.2-.3-.2.5,2,1.8,3.8,2.5a11.14,11.14,0,0,0,5.5.7c2.5-.4,3.8-1.7,4-1.5s-2.5,3.1-5.8,5.5a18.66,18.66,0,0,1-6.2,3.3,16.22,16.22,0,0,1-6.2.5c-2.2-.2-3.5-1.1-3.7-.8s1.4,2.1,3.7,2.7,4.1-.4,4.3,0-1.4,1.8-3.3,2.8a10.63,10.63,0,0,1-3.4,1.2,33.88,33.88,0,0,1-5.8.5,15.77,15.77,0,0,1-5.2-.5,5,5,0,0,1-1.3-.5,9.62,9.62,0,0,1-1.8-1.2l-.1-.1c-1.3-1.1-1.7-2.1-1.9-2s0,1.3.7,2.6a4.67,4.67,0,0,0,2.1,2.3c.3.1.5.3.8.4,1.8.6,3.4,0,3.5.4.2.6-2.5,2.2-5.8,2.8a18,18,0,0,1-2.2.2,25.83,25.83,0,0,1-7-1.2,38.45,38.45,0,0,1-5.6-2.1h0a20.62,20.62,0,0,0-4.3-1.6.37.37,0,0,1-.3-.1c-1.7-.4-3.4-.5-3.5-.3s.8.4,2.1,1c.4.2.9.4,1.4.6a16.52,16.52,0,0,1,2.6,1.5,9.92,9.92,0,0,0,2.3,1.3,11.79,11.79,0,0,0,3.3.9c.9.1,1.4.1,1.4.3s-1.5,1-3.9,1.4a27.61,27.61,0,0,1-9.1,0c-.4-.1-.8-.1-1.1-.2-1.2-.3-1.2-.4-5.3-1.6-.4-.1-.9-.3-1.4-.4-4.1-1.2-6.1-1.8-7.2-2a33.37,33.37,0,0,0-14.7,0,11.7,11.7,0,0,0-5.2,1.8c-.6.5-2.3,1.6-2.2,3s1.7,2,1.5,2.3-2.4-.1-4-1.5a8.78,8.78,0,0,1-2.5-4.5c-.3-1.5,0-2.4-.3-2.5s-.4.1-.7.4a4.5,4.5,0,0,0-1.1,2.8c0,1.9,1.5,3,1.2,3.3s-.6.1-1.3-.1a9.24,9.24,0,0,1-2.1-1.2,5.24,5.24,0,0,1-1.1-1,7.51,7.51,0,0,1-2.5-4.3c-.3-2,.6-2.8,0-3.8-.7-1.2-2.5-1.6-4-1.6h-.7"
                  transform="translate(-24.3 -61.9)"/>
            <path class="cls-7"
                  d="M292,272.8a58,58,0,0,1,9.5-15.8,49.45,49.45,0,0,1,15.3-12.8,38.55,38.55,0,0,1,11.4-3.9c3.8-.7,7.9-1.1,13-1.6a89.51,89.51,0,0,1,25.8.8,72.35,72.35,0,0,1,11.6,2.8,45.91,45.91,0,0,1,6.6,2.9c11.1,5.9,16.9,14.6,20.5,20a63.59,63.59,0,0,1,8.8,18.8c.2.6.3,1.2.5,1.8"
                  transform="translate(-24.3 -61.9)"/>
            <path class="cls-7"
                  d="M292.4,364.2c-.2-.3-.5-.6-.7-.9-.7-1-2.2-3.3-1.7-5.7.6-2.7,3.3-3.7,3-4.3s-3.3-.3-5.2,1.5c-1.5,1.4-1.5,2.9-2.2,2.8s-1.7-2.5-1.2-4.7c.6-2.5,3-3.4,2.7-4.2s-3.7-.4-6.3.7c-1.4.6-4.4,1.8-5.2,4.3-.5,1.7.2,3.1,0,3.2s-2.7-3.5-2-7.2c.8-4.4,5.4-5.8,4.8-8.2-.4-1.7-2.9-1.5-6.2-3.3-6.6-3.8-8.4-11.5-8.5-12.2-1.2-5.6.7-11,1.5-11,.5,0,.3,1.7,1.7,3.5a8,8,0,0,0,5.3,2.8,9.64,9.64,0,0,0,7.2-2.5,13.87,13.87,0,0,0,4.2-8.2c1.9-10.7,3.2-17.4,4-22"
                  transform="translate(-24.3 -61.9)"/>
            <path class="cls-7" d="M358,290.7c-2.9-1.9-4.7-2.9-7-3.2a14.37,14.37,0,0,0-8.7,1.4"
                  transform="translate(-24.3 -61.9)"/>
            <path class="cls-7"
                  d="M336.9,304a26.46,26.46,0,0,0,2.6,9.8,25.21,25.21,0,0,0,8,10.3,24.88,24.88,0,0,0,10.2,4.5,19.79,19.79,0,0,0,11.5-.8,14,14,0,0,0,6.8-5.2c3-4.6,1.8-9.7,1.5-11.2a15.13,15.13,0,0,0-2.2-5.2"
                  transform="translate(-24.3 -61.9)"/>
            <path class="cls-7"
                  d="M257.7,414.1c.2-1.1.5-2.3.8-3.5a55.48,55.48,0,0,1,8.5-19.9,46.26,46.26,0,0,1,9.5-10.5c.6-.4,1.1-.9,1.7-1.3,1.6-1.1,4.2-2.3,8.8-4.3"
                  transform="translate(-24.3 -61.9)"/>
            <path class="cls-7" d="M311,363.1a4.35,4.35,0,0,1,.7-.4" transform="translate(-24.3 -61.9)"/>
            <path class="cls-7" d="M291.4,372.8a.1.1,0,0,0,.1-.1s5.6-2.4,11.6-5.4" transform="translate(-24.3 -61.9)"/>
            <path class="cls-7" d="M332.6,392.5c-.4-.5-.7-.9-1.1-1.5-2.2-3-5.5-7.4-7.3-13.3a40.79,40.79,0,0,1-1.6-9"
                  transform="translate(-24.3 -61.9)"/>
            <path class="cls-7"
                  d="M316.5,398.1a12.2,12.2,0,0,1,.7,1.7c1.8,4.1,2.6,5.5,3.3,7a16.91,16.91,0,0,1,1.1,2.6l.3.9c.2.7.4,1.3.6,1.9.7,2.1,1,3.3,1.6,3.9a.71.71,0,0,0,.6.3h.3"
                  transform="translate(-24.3 -61.9)"/>
            <path class="cls-7" d="M308.4,369.3c0,.3.1.6.1.9.3,2.4.6,4.6,1,6.6" transform="translate(-24.3 -61.9)"/>
            <path class="cls-7" d="M403.1,367.4q1.65,1.5,3.9,3.6c8.8,8.4,13.9,13.4,17.7,17.9"
                  transform="translate(-24.3 -61.9)"/>
            <path class="cls-7"
                  d="M310,449.2c1.1-5.4,1.7-9,2.4-12.3a57.49,57.49,0,0,1,3.1-10.2c.4-1,.8-2.1,1.4-3.3.3-.7.6-1.5,1-2.3a49.22,49.22,0,0,1,2.3-4.6c.7-1.4,1.6-2.9,2.5-4.4a51.59,51.59,0,0,1,3.5-5.1"
                  transform="translate(-24.3 -61.9)"/>
            <path class="cls-7"
                  d="M386.1,372.1c-2.9,2-6,3.8-9.1,5.6-20.1,11.6-30.3,17.5-33.5,20-2.2,1.7-4.3,3.4-6.5,5.2h0c-1.8,1.5-3.6,3.2-5.3,4.9a51,51,0,0,0-6.6,8.4c-.6,1-1.2,2-1.7,3-.4.7-.7,1.4-1.1,2.2s-.6,1.4-1.7,5.7c-.5,1.8-1.1,4.2-1.9,7.5-.5,1.9-1,4-1.6,6.5-.3,1.3-.6,2.6-1,3.8q-3.15,12.9-4.8,19.2"
                  transform="translate(-24.3 -61.9)"/>
            <path class="cls-7" d="M392.1,367.4a20,20,0,0,1-1.6,1.4" transform="translate(-24.3 -61.9)"/>
            <path class="cls-7"
                  d="M300.3,463.2c.5-1.7,1.3-4.1,2.2-7.4.4-1.3.7-2.5,1.1-3.6,2.1-7.2,2.9-11,3.8-14.2.7-2.7,1.4-5,2.6-8.6.7-2,1.4-3.9,2-5.6.3-.9.7-1.8,1-2.6.6-1.5,1.3-3,2-4.5.3-.6.6-1.2.9-1.9.6-1.1,1.2-2.2,1.8-3.4.9-1.6,1.9-3.1,2.8-4.5.7-1,1.4-2.1,2.1-3a11.32,11.32,0,0,1,1-1.3c1.2-1.6,2.5-3.1,3.7-4.5,1.1-1.2,2.1-2.3,3.2-3.4l2.1-2.1c1.3-1.3,2.6-2.5,3.9-3.7A128,128,0,0,1,355,374.6a48,48,0,0,1,4.3-2.4"
                  transform="translate(-24.3 -61.9)"/>
            <path class="cls-7"
                  d="M298.9,416.6a50.6,50.6,0,0,1,11.3-.2,27.52,27.52,0,0,0,4.9.1,6.3,6.3,0,0,0,3-1,.1.1,0,0,0,.1-.1c2-1.4,2.9-3.6,3.5-6.1.2-.6.3-1.3.5-1.9a19.08,19.08,0,0,0,.6-3.7,15.48,15.48,0,0,0,.1-2.2,52.82,52.82,0,0,0-.5-7.4c-.9-6.1-1.4-9.7-2.6-12.2"
                  transform="translate(-24.3 -61.9)"/>
            <path class="cls-7"
                  d="M279.7,380.4a16.6,16.6,0,0,0-1.5,4.9c-.2.8-.3,1.7-.5,2.4a63.68,63.68,0,0,0-1,10.1v4.3a18.3,18.3,0,0,0,.6,5.9,6.12,6.12,0,0,0,.5,1.2,10.38,10.38,0,0,0,3.7,3.8c2.9,1.8,6.7,2.6,10.1,3.3.3.1.6.1,1,.2a17.7,17.7,0,0,0,6.4.2"
                  transform="translate(-24.3 -61.9)"/>
            <path class="cls-7"
                  d="M302,376a61,61,0,0,1,7.6.8c4.7.8,8.5,2.1,10,3.9a1.06,1.06,0,0,1,.2,1.2c-.5,1.2-2.8,2.6-7.9,3.6a67.21,67.21,0,0,1-12.6,1c-15.5.1-19.6-4-19.5-6.1a1.05,1.05,0,0,1,.5-.9,19.92,19.92,0,0,1,7.3-2.7"
                  transform="translate(-24.3 -61.9)"/>
            <path class="cls-7" d="M291.3,376.2a53.11,53.11,0,0,1,7-.3" transform="translate(-24.3 -61.9)"/>
            <path class="cls-7"
                  d="M250.1,412.3c2-3.3,1.8-3.8,5.4-10.1a55.7,55.7,0,0,0,3-5.5,45.21,45.21,0,0,0,2.3-7.3c1.2-5.3.5-6.2,1.8-8.7.6-1,2.1-3.7,5-4.5a8.18,8.18,0,0,1,6.3,1.3,7.47,7.47,0,0,1,2.5,2.8,15,15,0,0,1,1.7,4.9,65.64,65.64,0,0,1,.8,8,34.16,34.16,0,0,1-.3,8.2c-.1.5-.1.9-.2,1.4-.2,1.1-.6,3-1.2,5.1a24.23,24.23,0,0,1-2.7,6,14.29,14.29,0,0,1-1.4,2,19.83,19.83,0,0,1-7.9,5.5"
                  transform="translate(-24.3 -61.9)"/>
            <path class="cls-7"
                  d="M255.3,412.7c.9-.7,2-1.3,3.2-2.1,1.8-1.1,3.9-2.2,6.2-3.4a77.84,77.84,0,0,1,12-5.2c.7-.2,1.4-.4,2-.6a83.42,83.42,0,0,1,10.1-2.2c4.9-.8,1.8.1,18.2-1.2,3.8-.3,6.8-.6,9.5.1a15.07,15.07,0,0,1,3.3,1.3,12,12,0,0,1,3,2.2l.9.9a7.63,7.63,0,0,1,1.5,2.3,12,12,0,0,1,.9,2.3,10.51,10.51,0,0,1,.4,3.7,9.84,9.84,0,0,1-2.3,5.3,13.36,13.36,0,0,1-2,2.1c-.9.7-1.7,1.3-2.3,1.8a13.73,13.73,0,0,1-2,1.3,19.65,19.65,0,0,1-2.5,1.3c-1.1.5-2.2.9-3.3,1.3-6.1,1.9-12.3,1.8-16.2,1.7-7.7-.2-17.6-.5-26-1.4l-2.9-.3"
                  transform="translate(-24.3 -61.9)"/>
            <path class="cls-7"
                  d="M260.5,416.3c1.6-.3,3.5-.6,5.7-1,3.1-.5,5.9-1,8.4-1.4s4.8-.8,6.8-1a72,72,0,0,1,14-.9c6.1.2,14.3.6,20.4,2.6a18,18,0,0,1,2.1.8,21.16,21.16,0,0,1,2.1,1.1c.8.5,1.4,1,2.1,1.5a15.38,15.38,0,0,1,1.2,1.3,8.18,8.18,0,0,1,1.2,2,10.52,10.52,0,0,1-.2,7.7,10.16,10.16,0,0,1-2.2,3.2,14.81,14.81,0,0,1-3.5,2.5,24,24,0,0,1-6.2,2.2c-1.6.4-3.3.7-5.1,1-2.9.4-5.8.7-8.5.9-5.6.5-13.6,1.2-22.7-.8"
                  transform="translate(-24.3 -61.9)"/>
            <path class="cls-7"
                  d="M283.4,452.8a23.42,23.42,0,0,0,3,.5,37.48,37.48,0,0,0,17.2-1.2,24.88,24.88,0,0,0,2.9-1.1,19.21,19.21,0,0,0,3.5-1.8,25.6,25.6,0,0,0,2.5-1.6A28.82,28.82,0,0,0,316,445a16.44,16.44,0,0,0,4.8-5.9,16.08,16.08,0,0,0,1.3-7,7.32,7.32,0,0,0-.3-2.2,10.17,10.17,0,0,0-1.3-2.8,16.46,16.46,0,0,0-3.7-3.8c-.5-.4-1-.7-1.5-1.1-.7-.5-1.5-.9-2.3-1.4a43,43,0,0,0-14.2-4.4h0a44.08,44.08,0,0,0-7.3-.4,35.34,35.34,0,0,0-17.7,4.8,33.52,33.52,0,0,0-4,2.9c-.5.5-1.1.9-1.6,1.4"
                  transform="translate(-24.3 -61.9)"/>
            <path class="cls-7"
                  d="M292.3,380.2c.6,1.7,1.1,2.9.7,3.1s-2.2-1.1-3.6-3.1a13.82,13.82,0,0,1-1.8-3.4,16,16,0,0,1-.5-2.1,8.68,8.68,0,0,1,.1-2.8c.3-1.4,1.3-2.7,3.2-5.2.8-1,1.5-1.8,2-2.4,1.7-1.8,2.5-2.3,3.3-4.2a10.55,10.55,0,0,0,.3-7c-1.3-4.2-5-6-4.7-6.5s4.7.8,7.5,4.3a14.16,14.16,0,0,1,3,7.6,10.68,10.68,0,0,1-.3,2.5c-.8,2.6-2.7,3.7-4.6,4.9-.5.3-1,.6-1.6,1a8.88,8.88,0,0,0-3.3,3.8,8.3,8.3,0,0,0-.6,2.1,9.7,9.7,0,0,0,0,3.4A14.75,14.75,0,0,0,292.3,380.2Z"
                  transform="translate(-24.3 -61.9)"/>
            <path class="cls-7"
                  d="M300.6,380.3c.3,2.7,2.2,4.7,1.9,4.9s-2.8-1.8-3.9-4.9a16,16,0,0,1-.5-2.1,8.68,8.68,0,0,1,.1-2.3,13.76,13.76,0,0,1,1.2-3.4,15.2,15.2,0,0,1,3.6-5.1,3.92,3.92,0,0,0,.8-1,9.67,9.67,0,0,0,1.4-2.5,12.65,12.65,0,0,0,.7-8c-1-3.9-4-5.8-3.8-6s4,1.7,6.5,5.7a14.84,14.84,0,0,1,1.5,3.1,11.74,11.74,0,0,1,.8,4.1v.4a9.53,9.53,0,0,1-.8,4,5.31,5.31,0,0,1-1.8,2.1,29.38,29.38,0,0,0-4.4,4.2,16.59,16.59,0,0,0-2,2.5,6.71,6.71,0,0,0-1.3,2.5A5.44,5.44,0,0,0,300.6,380.3Z"
                  transform="translate(-24.3 -61.9)"/>
            <path class="cls-7" d="M224.5,434.5a53.26,53.26,0,0,0,6-3.8.1.1,0,0,0,.1-.1"
                  transform="translate(-24.3 -61.9)"/>
            <line class="cls-8" x1="200.2" y1="372.6" x2="200.2" y2="372.6"/>
            <path class="cls-7"
                  d="M256.7,450.1a48.41,48.41,0,0,0-7.2-12.7,21.06,21.06,0,0,0-8.5-6.3c-4.2-1.6-8.7-.4-10.4-.6-.5,0-.7-.2-.8-.5-.1-1.1,2.9-3,8-6.9a22.69,22.69,0,0,0,5-4.8c1.3-1.8,1.4-2.5,2.5-3.7a10.47,10.47,0,0,1,4.7-2.4c.5-.1,1-.2,1.6-.3a6.65,6.65,0,0,1,3.6.7,12.85,12.85,0,0,1,2.5,1.4,26,26,0,0,1,2.8,2.3,61.51,61.51,0,0,1,4.8,5.2c.5.7,1.1,1.4,1.6,2.1s.9,1.2,1.3,1.8a144.24,144.24,0,0,1,8,12.6c2.1,3.7,3.7,6.8,4.5,8.5,1,2.2,2,4.5,2.7,6.3s1.2,3.2,1.3,3.5c.5,1.6,1,2.8,1.3,3.9"
                  transform="translate(-24.3 -61.9)"/>
            <path class="cls-7"
                  d="M310.8,338a8.18,8.18,0,0,0,.5,2.7,7.59,7.59,0,0,0,3.3,3.7,7.26,7.26,0,0,0,3.7.8,9.07,9.07,0,0,0,4.8-1.2,8.87,8.87,0,0,0,4-5.2"
                  transform="translate(-24.3 -61.9)"/>
            <path class="cls-7"
                  d="M326.3,329.6a21.57,21.57,0,0,0-.1,3.7c.2,2.4.4,5.1,2.1,7.7a13.3,13.3,0,0,0,5.2,4.4,18.43,18.43,0,0,0,5.9,1.6,14.37,14.37,0,0,0,5.9-.5,13.73,13.73,0,0,0,6-4.1"
                  transform="translate(-24.3 -61.9)"/>
            <path class="cls-9"
                  d="M301.6,313.6a18.34,18.34,0,0,1,4.3-2.7,17.81,17.81,0,0,1,5.2-1.8,9.27,9.27,0,0,1,3.3-.1,11.05,11.05,0,0,1,2.4.5"
                  transform="translate(-24.3 -61.9)"/>
            <path class="cls-9"
                  d="M345,308.5a16.87,16.87,0,0,1,3.5-.3,15.31,15.31,0,0,1,5.3,1.1,19.52,19.52,0,0,1,4.3,2.5,20.28,20.28,0,0,1,2.5,2.2"
                  transform="translate(-24.3 -61.9)"/>
            <path class="cls-8"
                  d="M318.5,323.6a3.63,3.63,0,0,0,.3,2.5,5,5,0,0,0,1.3,1.8,7,7,0,0,0,4.1,1.5c.8.1,1.6.2,2.2.3,2.6.3,3.7.5,6.3.6a10.87,10.87,0,0,0,3.9-.8,5.06,5.06,0,0,0,2.6-1.8c.1-.2,1.3-1.8.9-3.1-.6-2.1-2.2-2.9-9.3-3.8-.8-.1-6.7-.3-8.8.3C321.2,321.4,319,321.9,318.5,323.6Z"
                  transform="translate(-24.3 -61.9)"/>
            <path class="cls-7" d="M324.8,348.9a4.94,4.94,0,0,0-.1,2.2,4.77,4.77,0,0,0,1.9,2.8,6,6,0,0,0,2.4,1.2"
                  transform="translate(-24.3 -61.9)"/>
        </g>
        <path class="cls-10"
              d="M453,291.6c-29.3,9.4-57.4,14.2-83.7,14.2-48,0-81.6-15.5-102.8-30.3L221.3,431.8c13.4,7.6,58.5,31.9,93.1,31.9,27.9,0,59.1-7.1,95.4-21.8Z"
              transform="translate(-24.3 -61.9)"/>
        <path class="cls-10"
              d="M504.5,117c-29.4,11.4-58.1,17.2-85.5,17.2-45.8,0-79.6-15.8-101.6-31L271.5,261.5c30.8,19.7,64.1,29.8,99,29.8,28.5,0,58-6.8,87.7-20.3l-.1-1.1,1.9-.5Z"
              transform="translate(-24.3 -61.9)"/>
    </g>
</svg>