<svg id="Слой_1" data-name="Слой 1" xmlns="http://www.w3.org/2000/svg" viewBox="0 0 600 747">
    <defs>
        <style>
            .cls-1,.cls-11,.cls-19,.cls-9{fill:#fff;}.cls-14,.cls-15,.cls-16,.cls-17,.cls-19,.cls-2,.cls-3,.cls-4,.cls-5,.cls-8{stroke:#000;stroke-linecap:round;stroke-linejoin:round;stroke-width:3px;}.cls-3{fill:#5b524c;}.cls-4{fill:#8bbad8;}.cls-5,.cls-6{fill:#d9d9d9;}.cls-7{fill:#380208;}.cls-8{fill:none;}.cls-9{opacity:0.2;}.cls-11,.cls-9{isolation:isolate;}.cls-10{fill:#282828;}.cls-11{opacity:0.1;}.cls-12{fill:#00597a;}.cls-13{fill:#2cacdc;}.cls-14{fill:#4066bc;}.cls-15{fill:#656a75;}.cls-16{fill:#def9f5;}.cls-17{fill:#ffea55;}.cls-18{fill:#6a0006;}.cls-20{opacity:0.79;}
        </style>
    </defs>
    <title>dia3mob</title>
    <rect class="cls-1" width="600" height="747"/>
    <path class="cls-2"
          d="M519.31,717.78a29.28,29.28,0,0,0-2,4,53.09,53.09,0,0,0-1.87,5.49c-.27,1.11-.43,2-1.2,2.54a3.6,3.6,0,0,1-2.28.4c-.26,0-3.85.08-6.16,2a7.65,7.65,0,0,0-2.28,3.75c-.38,1.15-1,3-.13,4.42a8.07,8.07,0,0,0,2.28,2.54c6.17,2.57,11.91,1.87,26.37,1.61,1.07,0,3.28.59,4.82-.67s1.6-3.61,1.61-5.22c0-10.65,0-16-1.47-20.62-1.71-5.2-2.57-7.8-4.82-8.57C527.87,708,521.66,713.85,519.31,717.78Z"/>
    <path class="cls-2"
          d="M558.94,721.26c-.13.36-.31,2.74-.67,7.5-.17,2.22-.5,7.17.94,11.65A4.84,4.84,0,0,0,560,742c1.66,2.11,4.84,2.13,6.56,2.14,12.1.09,18.15.14,19.68.27,1,.08,5.1-.12,5.62-.13a4.79,4.79,0,0,0,2.14-.4,5.26,5.26,0,0,0,2.41-2.81,7,7,0,0,0,.13-5.22,8.2,8.2,0,0,0-3.88-3.88c-2.13-1.28-2.91-.9-5.22-2.28a17.24,17.24,0,0,1-3.21-2.54c-2.36-2.41-2.69-4.48-4.15-7.5-1.82-3.77-3.24-6.7-5.76-7.76C569.51,709.84,561.25,714.88,558.94,721.26Z"/>
    <path class="cls-3"
          d="M502.17,592.88c-1.93,3.51-2.61,10-3.08,14.32a76,76,0,0,0-.4,10.17c.45,17.07,5,51.82,6,59.57,4.26,33.65,5.81,37.82,7.63,47.39.54,2.81,28.65,3.48,28.92.54,0,0,.07-6.64-1.07-18.34-.62-6.34-.72-12.17-.94-23.83a240.54,240.54,0,0,1,3.24-44.7c1.14-6.48,1.35-5.87,2.41-12.32,3.17-19.25,4.76-28.88.94-34.27C537.38,579.51,508.2,581.89,502.17,592.88Z"/>
    <path class="cls-3"
          d="M529.62,629.69c4.31,1.41,8,0,10,2.68a5.16,5.16,0,0,1,.94,2.54c2.45,18.48,7.5,40.16,12.72,73.63,1.21,7.73,2.35,10.87,3,15.8.4,3.35,25.84,1.47,25.7-.54a109.1,109.1,0,0,0,1.74-24.23c-.26-9.55-.35-19.1-.54-28.65-.41-21.43.71-18.75-.13-36-1.34-27.44-2-31.33-3-39.36-.64-5.47-.06-7.49-1.61-9.77-7.9-11.69-42.7-8.44-53.82,8.3"/>
    <path class="cls-3"
          d="M531.22,599.7a30.41,30.41,0,0,0-1.61,6.29,36.86,36.86,0,0,0-.13,7.63c.2,4.57.72,6.15,1.61,7.5a9.21,9.21,0,0,0,1.07,1.34"/>
    <path class="cls-3" d="M540.6,602q-.36,1.82-.67,3.75c-.34,2.08-.6,4.09-.8,6"/>
    <path class="cls-3" d="M522.12,634.78q1.75-.35,3.61-.8c2-.49,3.87-1,5.62-1.61"/>
    <path class="cls-3" d="M529.35,637.46A24.18,24.18,0,0,0,532,636c1.3-.83,2-1.46,2.14-1.34s-.15.59-1.74,2.54"/>
    <path class="cls-3" d="M535.64,629.69c1.1.08,2.27.13,3.48.13a53.2,53.2,0,0,0,6.83-.4"/>
    <path class="cls-3" d="M541.8,630.63a28.66,28.66,0,0,0,8,4.15"/>
    <path class="cls-3"
          d="M537.52,631.83c-.48,3.27-1.12,8.08-1.61,13.92-1,11.67-.75,20.06-.4,33.33.41,15.24,1.36,26.41,1.74,30.66.54,5.94,1.12,11,1.61,15"/>
    <path class="cls-3"
          d="M499.36,610.28a7.87,7.87,0,0,0,2.68-.13,9.06,9.06,0,0,0,4.28-2.54,15.68,15.68,0,0,0,3.88-5.76"/>
    <path class="cls-3"
          d="M500.17,622.33a26.77,26.77,0,0,0,4.82-.67c2.62-.61,4.7-1.1,6.43-2.68,1.5-1.38,2-2.93,2.81-5.49a29.78,29.78,0,0,0,1.34-9.24"/>
    <path class="cls-3"
          d="M560.94,605.33a42.19,42.19,0,0,0,1.87,6.69c1.11,3,1.67,4.49,3.08,6a13,13,0,0,0,6.43,3.61,15.73,15.73,0,0,0,7.63.13"/>
    <path class="cls-3" d="M566.3,604a9.06,9.06,0,0,0,2.14,3.48,9.43,9.43,0,0,0,4.28,2.41,10.77,10.77,0,0,0,3.35.4"/>
    <path class="cls-3" d="M579,604.52q.87,4.65,1.61,9.64.92,6.24,1.47,12"/>
    <path class="cls-4"
          d="M505.65,498.36a32.55,32.55,0,0,1,5.35-5.22,34.72,34.72,0,0,1,9.5-5.09,71.81,71.81,0,0,1,29.72-4.28,63.69,63.69,0,0,1,14.86,3.61A39.93,39.93,0,0,1,575.67,493a18.58,18.58,0,0,1,4.15,4,17.12,17.12,0,0,1,3,8.3c1.37,12.7-4.4,40.7-2.77,61.6.06.85.27,3.34.54,6.29s2,21.74,2,25.17c0,1.39-.28,2,0,3.08a1.44,1.44,0,0,1-.8,1.87c-1.61.86-5.34,1-7.76,1.2-1,.1-1.35.17-2.14.27-4.94.59-30.06,2-47.93-.4-4-.54-6.21-.67-10.71-.94-5.1-.3-6.06-.14-6.69,0-3.92.84-6.84,3.12-8,2a3.22,3.22,0,0,1-.67-1.34,5,5,0,0,1-.13-2.28A57.76,57.76,0,0,1,499,596a24.79,24.79,0,0,0,.67-5.76c.4-6.15,1.87-17,2.41-22.36C502.79,560.38,503.92,542.16,505.65,498.36Z"/>
    <path class="cls-4"
          d="M510.21,495.28c-2.06-.24-4.75,2.82-6.16,4.42a23.45,23.45,0,0,0-3,4.42,55.41,55.41,0,0,0-4.28,9.5c-1.37,4.1-1.1,4.93-2.14,8.7-1.72,6.22-3.15,6.52-6.43,14.73-2.29,5.74-3.44,8.61-3.75,12.85a24,24,0,0,0,2,12.45,15.27,15.27,0,0,0,5.49,7,14.09,14.09,0,0,0,12.58.8c6.21-2.8,7.74-10.68,10.44-25.7a104.89,104.89,0,0,0,1.34-30.79C516,509.92,514.41,495.77,510.21,495.28Z"/>
    <path class="cls-2"
          d="M544.21,500.24a9.79,9.79,0,0,0,3.35-1.2,22.44,22.44,0,0,0,7-4.28,12.48,12.48,0,0,0,3.35-4.82,7.32,7.32,0,0,0-.54-6.56c-2.06-3.3-10.46-4.24-15.8-.13-1.13.87-4.94,4.13-4.55,8.84C537.33,496.26,540.89,500.23,544.21,500.24Z"/>
    <path class="cls-2"
          d="M530.47,414.26c.17-.63,2.44,0,5.21-1.15.79-.32,1.45-.71,3.87-2.75,4.42-3.71,4.07-4,6-5.25a24.08,24.08,0,0,1,6.72-3,24.59,24.59,0,0,1,5.89-1.22,8.14,8.14,0,0,0,1.64-.26,5.2,5.2,0,0,0,2.82-1.5c.77-.93.75-2,1-1.93s.31.92.26,1.64a3.62,3.62,0,0,1-1.18,2.72c-.44.31-.86.34-.85.46a2.59,2.59,0,0,0,1.6.14,2.66,2.66,0,0,0,2-1c.29-.53.14-1,.23-1a1.88,1.88,0,0,1,.25,1.77c-.28.82-1.26,1-1.19,1.24s.76.23,1.33.12c.93-.18,1.38-.68,1.53-.54s-.08.69-.49,1-1.12.27-1.26.56.56,1,.83,1.28c1,1,1.13,2.26,1.45,4.83a29,29,0,0,1-.3,7.9c-.43,3.29-.66,5-1.64,6.31-.63.87-1.49,1.65-1.26,2s1.34.25,2.17-.21c1.62-.9,1.9-3,2.14-2.9s0,1.44-.37,2.66a6.71,6.71,0,0,1-1.43,2.43,4.79,4.79,0,0,1-.57.45c-.47.3-.72.32-.71.38a2.66,2.66,0,0,0,2.59-.44,4,4,0,0,0,.46-.63,2.86,2.86,0,0,1-1,1.8,3.22,3.22,0,0,1-2,.77c-1,0-1.54-.4-1.73-.15s.06.65.32,1c1,1.28,3.37.81,3.4,1.11s-1,.49-1.94.63a9.45,9.45,0,0,1-2.29.07,27,27,0,0,1-6.85-1.55c-7.77-3.23-12.78-10.37-22.85-15.07C533.55,416.55,530.26,415,530.47,414.26Z"/>
    <path class="cls-2"
          d="M516.36,419.64c-.48-.31-1,.41-3.48.54a15.48,15.48,0,0,1-4.55-.54c-2.41-.58-2.87-1-6-2.14a31.77,31.77,0,0,0-7.36-2c-2.79-.33-4.19-.5-5.09-.13a1.91,1.91,0,0,1-1.47.13,2,2,0,0,1-.94-1.34c-.7-2.12-.1-3.79-.4-3.88s-.94,1.1-1.2,2.28a3.26,3.26,0,0,0,0,2c.31.79.92,1,.8,1.34s-1.45.3-1.74.27a4.27,4.27,0,0,1-1.67-.48c-.39-.21-.55-.38-.61-.33a2.34,2.34,0,0,0,1.07,1.61c1,.55,2.21-.06,2.28.13s-.39.36-1.47.94c-2,1.08-2.35,1.16-2.68,1.2-1,.12-1.66-.2-1.74,0s.5.74,1.2.94,1.24-.11,1.47.13-.37,1.56-.67,2.14c-.93,1.79-.82,3.52-.67,5.89a16.5,16.5,0,0,0,3.61,8.84c1.61,2.19,2.58,3.85,4.28,4.28.31.08,1,.22,1.07.54s-1,.91-1.87,1.07c-2.11.36-3.82-1.22-4-.94s.64,1.06,1.47,1.61a5.3,5.3,0,0,0,2.14.8c1.38.2,2.33-.22,2.41,0s-.47.59-1.07.8a6.46,6.46,0,0,1-2.14.13c0,.13,1,.64,1.34.8a7.41,7.41,0,0,0,2.14.8c1.51.08,2.47-1.24,2.81-.94s.06.78-.27,1.2c-.89,1.16-3,.7-3.08,1.07,0,.19.48.52,1.47.8a11.35,11.35,0,0,0,5.89-.13C504.35,446.93,519.1,421.41,516.36,419.64Z"/>
    <path class="cls-5"
          d="M505.79,423.79a35.37,35.37,0,0,0-5.89,7.1,30.78,30.78,0,0,0-3.35,8.57,46.16,46.16,0,0,0-1.2,12.18c0,6.27,0,9.4.27,11.11a11.85,11.85,0,0,1-.13,4.42,7.57,7.57,0,0,1-1.47,3.35,7.28,7.28,0,0,1-3.48,2.28,10.45,10.45,0,0,1-5.49.13c-2.31-.46-3.6-1.33-3.88-.94s.59,1.4,1.2,2.14a14.3,14.3,0,0,0,3.35,3c1.67,1.06,2.88,1.39,2.81,1.61s-1.75,0-2.51-.12l-.71-.15a26.54,26.54,0,0,1-2.81-.94,10.49,10.49,0,0,0,4,2.81,13.82,13.82,0,0,0,3.48.94c3.75.52,6.36-.55,6.56,0s-1.33,1.35-1.74,1.61c-2.32,1.44-4.26,1.45-4.28,2,0,.29.5.53,1.87,1.07a39,39,0,0,0,4.82,1.74c3,.62,4.88,0,5.09.67s-.91,1.3-1.34,1.61c-3,2.16-6.42,1.89-6.43,2.28s1.51.64,3.21.67c.66,0,5.17,0,8.17-2.81.32-.3,1-1,1.07-.94a19,19,0,0,0-1.34,2.28,6.17,6.17,0,0,0-.54,2c-.11,1.36.31,2.81.67,2.81s.27-.69.67-1.47a6.36,6.36,0,0,1,3.88-2.81,8.77,8.77,0,0,1,5,0c6.25,1.58,13.83,1.49,25.57,1.34a35.25,35.25,0,0,0,7-1.07c4.2-1,5.18-1.92,5.62-2.81.55-1.13.32-2.4,1.07-2.68.33-.12.51.07,1.74.54a21.43,21.43,0,0,0,2.68.8c.31.08,1.81.45,1.87.27s-.8-.32-1.34-1.07c-.64-.91-.53-2.2-.27-2.28s.33.6,1.07,1.2,1.94,1,2.14.67-.31-.56-.67-1.61c-.18-.53-.47-1.38-.13-1.74s.87-.12,1.47,0a11.89,11.89,0,0,0,3.61,0c2.35-.33,4.45-1.89,4.28-2.41-.07-.22-.49-.09-1.2-.4-1.12-.49-2.15-1.7-1.87-2.41.2-.5,1-.76,1.74-.67,1.28.17,1.86,1.53,2.28,1.34s.17-1.25.13-1.47c-.31-1.74-1.41-2.29-1.2-3s1-.59,3-.94c2.43-.45,4-.73,5.22-1.47a6,6,0,0,0,2.68-3,5,5,0,0,1-2,1.2c-1.32.29-2.7-.36-2.68-.67s.75-.16,2-.54c1.83-.54,3.29-1.55,3.21-1.74a17.81,17.81,0,0,0-2.41.4,7.46,7.46,0,0,1-3,0c-.53-.13-1.31-.25-1.34-.54s1.41-.62,2.81-1.34a10.07,10.07,0,0,0,3.48-3.21c2.29-3,3.32-6.85,2.68-7.23-.25-.14-.53.33-1.61.8a8.75,8.75,0,0,1-10.58-3.74,31.55,31.55,0,0,1-3.21-7.36,58.5,58.5,0,0,0-5.22-11.91c-2.11-4-3.58-6.69-6.43-9.64a32.83,32.83,0,0,0-13-8A36.18,36.18,0,0,0,531,414C524.82,414.44,511.55,418.31,505.79,423.79Z"/>
    <path class="cls-1"
          d="M486.51,474.13c.12-.32,1-.1,2.41-.27a10.87,10.87,0,0,0,4.28-1.47c2.1-1.36,2.88-3.84,3.35-5.76,1.75-7.19,1-12.37,1.74-20.21.4-4.36.67-7.37,2-11.11A27.85,27.85,0,0,1,508.2,423a27,27,0,0,1,6-3.88,38.66,38.66,0,0,1,13.12-3.61c4.28-.44,10.09-1,16.73,1.61a29.92,29.92,0,0,1,10,6.69c5.54,5.43,8.11,11.9,9.77,16.06.94,2.35,1.83,5,3.88,9.37,1.93,4.08,3.21,6.07,5.49,7.5a9,9,0,0,0,5.09,1.61c2.69-.09,4.6-1.68,5-1.2s-1,1.92-1.34,2.28a15.2,15.2,0,0,1-5.22,3.75c-3.49,1.5-5.8,1.2-5.89,2-.07.63,1.24,1.52,2.41,1.74.87.16,1.54-.07,1.61.13s-.67.77-1.47,1.07c-1.31.49-2.35.18-2.41.4s.93.72,2,1.07c2.08.68,3.58.54,3.61.8s-1,.57-2.14.8c-3.55.68-6.22-.3-6.43.27-.09.24.38.44,1.07,1.34.89,1.15,1.53,2.66,1.2,3s-.73-.42-1.87-.67c-.15,0-2.26-.46-3.08.67a2.46,2.46,0,0,0,0,2.41c.87,1.74,3.26,1.8,3.21,2.41s-1.6.87-3,.94c-2.63.14-4-.92-4.82-.13a2.31,2.31,0,0,0-.54,1.61c0,1.09.7,1.73.54,1.87s-1.33-.43-1.74-1.47c-.31-.78,0-1.38-.27-1.47s-1.21.72-1.34,1.74c-.19,1.43,1.25,2.42.94,2.81s-1.64-.07-2.68-.8-1.27-1.43-1.74-1.34-.49.81-.94,1.61a6.6,6.6,0,0,1-2.54,2.14,36.08,36.08,0,0,1-25.7,2.28,40.58,40.58,0,0,0-10.44-1.47,9.53,9.53,0,0,0-4.15.8c-2.15,1-3.19,2.69-3.61,2.41s-.07-1.39.54-2.28c1-1.54,2.87-1.78,2.81-2s-1.8-.21-3.75.54c-2.46.94-3.57,2.41-3.88,2.14s.32-1.89,1.61-2.81c1-.69,1.88-.67,1.87-.94s-1.74-.68-3.08-.8c-2.11-.2-2.54.13-4.28,0-2.36-.17-4.46-1-4.42-1.34s1,0,2.14-.67a5.86,5.86,0,0,0,2.14-2.14c.63-.93,1.45-2.16,1.07-2.68s-1.82.23-4.69.67-5.46.26-5.49,0,.66-.24,2.14-.8,2.59-1,2.54-1.34-1.52-.17-3.48-.8C488.23,476.11,486.32,474.66,486.51,474.13Z"/>
    <path class="cls-6"
          d="M502.44,457.66c.27-.63.76-1.23,3.21-2.68A53.88,53.88,0,0,1,513,451.5c5-2.13,7.56-3.23,8.7-4.82,1.65-2.3,1.57-4.7,2.81-4.82,1-.09,1.83,1.25,2.41,2.14a11.16,11.16,0,0,1,1.61,4.82c.54,3.76,0,6.08.4,6.16s1.19-1.68,1.61-3.61c.74-3.38-.41-4.47.54-6.83a6.46,6.46,0,0,1,3.21-3.48c.91-.38,2.19-.59,5.62.54a40.17,40.17,0,0,1,8.3,4c3.93,2.31,5.93,3.49,7.23,5.09s3,3.72,2.68,6.43c-.43,3.27-3.77,5.13-5.62,6.16-.91.51-6.23,3.47-11.51,1.61-2.89-1-5.09-3.24-6.16-2.41a2.08,2.08,0,0,0-.54,1.47c-.12,1.64,1.11,2.4.8,3.35-.18.54-.72.73-1.87,1.2-4.15,1.7-5.11,2.5-5.62,2-.18-.17-.18-.39,0-2.41.22-2.46.3-3.16.13-3.21s-.52.92-1.2,1.87a8.62,8.62,0,0,1-4.28,3,12.58,12.58,0,0,1-6,.4c-2.89-.36-7.45-.93-10.84-4.55C505,465.15,501.06,460.85,502.44,457.66Z"/>
    <path class="cls-2"
          d="M504.32,457.13c.35-.85,2-.86,3-.94s3-1,6.69-2.81c4.47-2.16,6.7-3.24,7.76-4.69.62-.84.93-1.56,1.61-1.61,1.74-.12,3.3,4.4,3.48,5a15.42,15.42,0,0,1,.67,6.56c-.23,2.11-.46,4.15-2,5.76-1.12,1.16-2.37,1.5-4.28,2-2.36.62-7.81,2.06-10.71-.67a11.15,11.15,0,0,1-2.28-3.21c-.58-1.31-.47-1.91-1.2-2.54-.9-.78-1.82-.55-2.41-1.47A1.64,1.64,0,0,1,504.32,457.13Z"/>
    <path class="cls-1"
          d="M514.76,459.27c0-.23,1.15-.69,3.48-1.61,3.42-1.34,4-1.39,4.42-1.07a2.24,2.24,0,0,1,.13,2.68C521.27,461.62,514.83,460.22,514.76,459.27Z"/>
    <path class="cls-2"
          d="M532.7,453.78a16.4,16.4,0,0,1,.13-4.42c.25-2.44.38-3.68.94-4.55A5.71,5.71,0,0,1,537,442.4c.55-.14,1.8-.35,5.76,1.47a42.46,42.46,0,0,1,5.09,2.81c3.49,2.21,5.26,3.35,6.56,5.35a6.08,6.08,0,0,1,1.34,4.28,5.9,5.9,0,0,1-2.41,3.48c-3.31,2.79-7.45,2.89-9.91,3a9.88,9.88,0,0,1-4.55-.54,10.19,10.19,0,0,1-4.55-4.42A11,11,0,0,1,532.7,453.78Z"/>
    <path class="cls-1"
          d="M538.71,452.87a3.09,3.09,0,0,0-.12,2.56,3.74,3.74,0,0,0,1.86,2.09c1.53.71,3.1,0,4.07-.46A8.25,8.25,0,0,0,547,455.2c.67-.66.69-.84.7-.93,0-1-2.52-2.08-4.65-2.32C541.81,451.81,539.58,451.56,538.71,452.87Z"/>
    <path class="cls-6"
          d="M552.24,473.19s.21.31,1.74,2.68a2.58,2.58,0,0,1,.54,1.47,2.08,2.08,0,0,1-.4,1.2c-.72.94-2.15.8-2.14.94a2.56,2.56,0,0,0,2.54-.27,2.64,2.64,0,0,0,.94-1.74C555.67,475.15,552.36,473.08,552.24,473.19Z"/>
    <path class="cls-2"
          d="M526.41,470.11a2.66,2.66,0,0,0,.13,1.2,3.7,3.7,0,0,0,.94,2,3.08,3.08,0,0,0,.8.54c2.12.93,8.45-2.65,8.7-3,.7-.83-.14-2.65-.4-3.21s-.36-1.36-.8-1.34C533.37,466.5,527.07,468.91,526.41,470.11Z"/>
    <path class="cls-1"
          d="M529.22,469.18c.37-.7,1-.36,3.08-1.34a4.6,4.6,0,0,1,2-.67,2.11,2.11,0,0,1,1.2.27c.39.24.89.75.8,1.2s-.83.72-1.47.94c-3.66,1.23-4.45,2.3-5.22,1.74A1.84,1.84,0,0,1,529.22,469.18Z"/>
    <path class="cls-7"
          d="M548.49,477.08a1.83,1.83,0,0,1,.13,1.47c-.08,0-.15-.49-.54-.67a.93.93,0,0,0-.67,0,9,9,0,0,0-3.35,1.87c-.27.26-1.87,1.38-5.09,3.61-2.06,1.44-3.33,2.22-4.82,2.14a3.88,3.88,0,0,1-1.61-.4,6.16,6.16,0,0,1-1.74-1.61c-.31-.35-.72-.83-1.18-1.41a5.08,5.08,0,0,0,1-.06,6,6,0,0,0,2.54-1.07,7.43,7.43,0,0,0,1.73-2.12,6.8,6.8,0,0,0,1,.78,5.85,5.85,0,0,0,2.81,1.2A5.2,5.2,0,0,0,542,480c1-.64,1-1.12,2.81-2.68,1.08-.93,1.43-1,1.74-1.07a2.61,2.61,0,0,1,2,.78Z"/>
    <path class="cls-8"
          d="M529.64,482.09c.47.59.87,1.06,1.18,1.41a6.16,6.16,0,0,0,1.74,1.61,3.88,3.88,0,0,0,1.61.4c1.48.08,2.76-.71,4.82-2.14,3.21-2.24,4.82-3.35,5.09-3.61a9,9,0,0,1,3.35-1.87.93.93,0,0,1,.67,0c.39.18.45.69.54.67a1.83,1.83,0,0,0-.13-1.47h0"/>
    <path class="cls-8"
          d="M524.93,480.69a13.25,13.25,0,0,0,2.41.94,10.09,10.09,0,0,0,2.3.46,5.08,5.08,0,0,0,1-.06,6,6,0,0,0,2.54-1.07,7.43,7.43,0,0,0,1.73-2.12h0"/>
    <path class="cls-8"
          d="M532,472.39c.54,1.37.94,2.47,1.2,3.21s.4,1.15.59,1.58a5,5,0,0,0,.75,1.24,5.58,5.58,0,0,0,.39.43,6.8,6.8,0,0,0,1,.78,5.85,5.85,0,0,0,2.81,1.2A5.2,5.2,0,0,0,542,480c1-.64,1-1.12,2.81-2.68,1.08-.93,1.43-1,1.74-1.07a2.61,2.61,0,0,1,2,.78"/>
    <path class="cls-2"
          d="M510.74,477.75a4.07,4.07,0,0,0,0,1.87c.35,2.17,1.1,3.15,1.87,5.35a16.19,16.19,0,0,1,.8,3,17,17,0,0,1-.27,5.89,35.22,35.22,0,0,1-1.34,5.09c-2.07,6.2-3.64,7.65-3,8.57,1,1.36,5.79,0,9.1-2.28a18.32,18.32,0,0,0,7-9.5,16.85,16.85,0,0,0,.27-11.38,15.66,15.66,0,0,0-6.69-7.9c-1.29-.72-3.62-2-5.62-1.07A4.17,4.17,0,0,0,510.74,477.75Z"/>
    <path class="cls-2"
          d="M524.66,488.46c.71.16,1.09.82,2.68,1.34a9.28,9.28,0,0,0,3.48.4,33.48,33.48,0,0,0,8.57-1.87,33,33,0,0,1,6.83-1.74,6.5,6.5,0,0,1,4.15.54,4.18,4.18,0,0,1,2.14,2.54,4,4,0,0,1-.4,2.68,6.65,6.65,0,0,1-3.08,3,100.86,100.86,0,0,1-11.38,5c-7.74,2.71-7.31,3.6-10.84,4-1.94.23-8.34,1-10.31-2.14C513.7,497.65,521.47,487.73,524.66,488.46Z"/>
    <path class="cls-2"
          d="M509.94,509.87a7.32,7.32,0,0,1-.13-3c.54-2.93,3.67-5.2,9.37-7.76,7.51-3.37,14.94-6.71,21.82-4.15,1.23.46,4.14,1.54,4.69,3.88a5.1,5.1,0,0,1-.94,3.75c-1.54,2.4-4.1,3.23-6,3.88-4.49,1.54-8.8,3.58-13.25,5.22-7.54,2.79-9.29,3.7-11.51,2.68A7.54,7.54,0,0,1,509.94,509.87Z"/>
    <path class="cls-2"
          d="M519.85,509.74c9.09-5.34,13.17-3.88,20.35-6.29a3.26,3.26,0,0,1,2.68,0c1.11.7,1.18,2.41,1.2,3a6.34,6.34,0,0,1-1.34,4c-1.53,2-3.82,2.51-5.76,3A136.09,136.09,0,0,1,521.45,516c-8.07.75-8.92.48-9.1,0C511.76,514.49,518,510.8,519.85,509.74Z"/>
    <path class="cls-4"
          d="M511.28,569.85a17.88,17.88,0,0,0,8.43-11.38,18.28,18.28,0,0,0,.4-4.55V532.63c-.2-12.78,0-16.39-.8-16.2-4,.94-10-8.57-9.64-11.91.24-2-3.69,2.13-6,7.76-1,2.28-1,2.83-2.54,7.5-2.19,6.61-3.32,10-5.09,13.12-1.55,2.76-1.51,1.93-4,6s-4.34,7.1-5.4,11.1"/>
    <path class="cls-4"
          d="M569.78,506.39A20.62,20.62,0,0,1,573,501c1.32-1.47,1.92-1.53,3.88-3.75.75-.84.92-1.13,1.34-1.2,2-.38,4.57,4.94,5.22,6.29A43.52,43.52,0,0,1,587,514.69c1.2,7.1.61,8.25,1.87,15.13.4,2.17,1,4.48,2.14,9.1,2.87,11.44,3.67,12.59,4,17s.6,8.26-1.61,12.18c-.64,1.14-2.82,5-7.1,6.29-6.17,1.85-12.81-2.87-15.8-7.5-1.64-2.54-2.12-5.44-3.08-11.25-.45-2.73-.41-3.45-1.07-11.51-.81-9.93-1-10-1.07-13.39-.16-5.45-.24-8.48.54-12.72A45.69,45.69,0,0,1,569.78,506.39Z"/>
    <path class="cls-8" d="M563,514.43a24.08,24.08,0,0,0-.8,5.89,17.33,17.33,0,0,0,1.07,7,15.29,15.29,0,0,0,1.2,2.41"/>
    <path class="cls-8" d="M566.17,531.83a13.49,13.49,0,0,1,3.08-7.9"/>
    <path class="cls-8" d="M568.84,517.1a16.27,16.27,0,0,0-3.21,10.44"/>
    <path class="cls-9"
          d="M505,513.42c.49,0,.35,1.52,1.87,3.35a8.41,8.41,0,0,0,3.61,2.54c2.8,1,4.79-.3,5.49.67.12.17.21.49-.8,3.21-.48,1.28-.71,1.91-1.07,2.68a67.91,67.91,0,0,0-3.08,9.77A159.52,159.52,0,0,1,504.64,555a18.21,18.21,0,0,1-3.88,6c-1.53,1.55-3.54,3.59-6.29,3.48a7.35,7.35,0,0,1-5.22-3.08c-2.59-3.56-1.24-8.39-.4-11.38.2-.71.92-3.17,4-8.3,3-4.92,4.3-6,6-8.7C504.72,523.89,503.77,513.35,505,513.42Z"/>
    <path class="cls-2"
          d="M532.56,555.93a20.39,20.39,0,0,0-8-4.82c-3.5-1.31-4.39-.89-6.83-2.41a18.67,18.67,0,0,1-4.15-3.61c-2.2-2.59-2.21-4.06-4.28-5.22a4.79,4.79,0,0,0-3.61-.67,5.1,5.1,0,0,0-3,3.08,8.7,8.7,0,0,0,0,6.43c1,2.71,2.94,4.17,5.62,6.16,1.46,1.08,2.34,1.52,7.63,4.28,6.82,3.56,6.86,3.59,7.36,3.75,4.78,1.5,11.31,1.39,12.32-1.07C536.41,559.94,533.76,557.18,532.56,555.93Z"/>
    <path class="cls-2"
          d="M510.61,554.59c-.76,1-.59,2-2.14,4.42a18.26,18.26,0,0,1-3.75,4.15c-1,.83-4.25,4-9.1,4.55-3.76.4-5.49.27-5.89-.27s-.09,2.09.94,3.21a12,12,0,0,0,4,3,9.26,9.26,0,0,0,5.62,1.07c.13.94,1.25,2,2.68,2.54a7.89,7.89,0,0,0,7-.4,4.8,4.8,0,0,0,2.28,1.34c1.74.54,3.3.53,8.7-1.74,5-2.1,7.51-3.15,9.5-5.22a15.93,15.93,0,0,0,3.35-5.09,10.73,10.73,0,0,0,.94-3.88C534.34,555.71,514.39,549.75,510.61,554.59Z"/>
    <path class="cls-4"
          d="M592.87,569.11C591.72,571.93,588,574,583,576c-6.57,2.6-13.2,3.21-39,.13-8.11-1-15.19-3.92-12.58-6.29,3-2.68,3.48-11.91-.4-15.26-1.1-1,2.54-.79,6.16-1.07a33.39,33.39,0,0,0,7.9-1.74c8.7-2.64,13-4,16.87-4.42a30.65,30.65,0,0,1,10.58.13"/>
    <path class="cls-8"
          d="M579.42,535.44a15.21,15.21,0,0,0-5.49,2.81A15.55,15.55,0,0,0,570.6,542c-1,1.6-1.82,3.33-1.62,3.46s1.49-2.52,4.28-4a9.48,9.48,0,0,1,4.28-1.07"/>
    <path class="cls-8"
          d="M571.25,546.15a22.62,22.62,0,0,1,4.82-.4c2.52.06,5.9.08,9.1,2.14a12.63,12.63,0,0,1,3.08,2.81"/>
    <path class="cls-8" d="M573.26,544a11.47,11.47,0,0,1,8-.54"/>
    <path class="cls-8"
          d="M515.7,592.07a96.28,96.28,0,0,0,14.86.27,79.33,79.33,0,0,0,17.27-2.68A74.55,74.55,0,0,0,558,586"/>
    <path class="cls-8" d="M517.7,585.24a24.33,24.33,0,0,0,9.1.27"/>
    <path class="cls-8"
          d="M542.2,506.53a25.84,25.84,0,0,0,6.29-1.61,25.24,25.24,0,0,0,9.5-6.56,17.69,17.69,0,0,0,4.28-7.36,15.91,15.91,0,0,0,.54-3.48"/>
    <path class="cls-8"
          d="M500,597a43.61,43.61,0,0,1,7.1-1.2,50.14,50.14,0,0,1,11.78.54l15.8,1.74a179.4,179.4,0,0,0,24.9.8c5.82-.11,13-.46,21.15-1.34"/>
    <path class="cls-8" d="M500.77,598.43a5.63,5.63,0,0,0-.27,4.82"/>
    <path class="cls-8" d="M505.45,597.23a10.26,10.26,0,0,0-.54,4.42"/>
    <path class="cls-8" d="M511.21,597.09a11.31,11.31,0,0,0-.4,4.15"/>
    <path class="cls-8" d="M516.7,597.09a14.06,14.06,0,0,0-.13,4.69"/>
    <path class="cls-8" d="M579.89,598.7a5.68,5.68,0,0,1-.54,3.88"/>
    <path class="cls-8" d="M541.33,599.64a11.62,11.62,0,0,1-.27,4.15"/>
    <path class="cls-8" d="M546.29,599.9a8.12,8.12,0,0,1-.54,4.15"/>
    <path class="cls-8" d="M553,600a7.61,7.61,0,0,1-.54,3.88"/>
    <path class="cls-8" d="M557.93,599.77c-.06.67-.11,1.39-.13,2.14s0,1.28,0,1.87"/>
    <path class="cls-8" d="M563.69,599.77a6.23,6.23,0,0,1-1.2,3.75"/>
    <path class="cls-8" d="M568.91,599.37a15.24,15.24,0,0,1-.4,2.41c-.12.48-.26.93-.4,1.34"/>
    <path class="cls-8" d="M574.26,599.1a4.45,4.45,0,0,1-.8,3.35"/>
    <path class="cls-8" d="M523.26,598a8.59,8.59,0,0,0,0,4.42"/>
    <path class="cls-8" d="M529.42,598.7a10,10,0,0,0,.4,3.88"/>
    <path class="cls-8" d="M535.17,599.5a8.09,8.09,0,0,0,.27,4.15"/>
    <path class="cls-8" d="M548,499.77q.37.78.8,1.61t.8,1.47"/>
    <path class="cls-8" d="M551.1,498.29q.7.93,1.47,1.87l.67.8"/>
    <path class="cls-8" d="M554.18,496.55a11.79,11.79,0,0,0,2.54,1.34"/>
    <path class="cls-8" d="M556.73,493.88c.67,0,1.39.06,2.14.13l1.07.13"/>
    <path class="cls-8" d="M558.74,490.93c.5-.06,1-.14,1.61-.27.38-.08.73-.17,1.07-.27"/>
    <path class="cls-8" d="M546.15,504.32l-1.34-4.15"/>
    <path class="cls-8" d="M505.72,509.94a10.4,10.4,0,0,0,3.21,5.62,11,11,0,0,0,4,2.14,13.86,13.86,0,0,0,5.09.67"/>
    <path class="cls-8" d="M506.53,510.08a9.53,9.53,0,0,1,1.87-3.21"/>
    <path class="cls-8" d="M507.6,512.08a4.65,4.65,0,0,1,.67-2.14,4.6,4.6,0,0,1,1.07-1.2"/>
    <path class="cls-8" d="M509.07,513.56a6,6,0,0,1,1.34-2.68"/>
    <path class="cls-8" d="M510.54,514.63l.8-1.74"/>
    <path class="cls-8" d="M512.42,516l1.07-1.47"/>
    <path class="cls-8" d="M514.16,517l.94-1.07"/>
    <path class="cls-8"
          d="M536.11,554.39a5.66,5.66,0,0,1,1.47.8c1.58,1.2,2,3,2.41,4.55a13.83,13.83,0,0,1-.27,7.5,7.43,7.43,0,0,1-1.87,3.35,6.82,6.82,0,0,1-3.48,1.74"/>
    <path class="cls-8" d="M533,554.66l1.61.27,1.74.27"/>
    <path class="cls-8" d="M533.7,556.26H537"/>
    <path class="cls-8" d="M534.37,557.87c.5.06,1,.11,1.61.13s1.39,0,2,0"/>
    <path class="cls-8" d="M535,560.28a15.15,15.15,0,0,0,3.75-.27"/>
    <path class="cls-8" d="M534.77,562.15a5.53,5.53,0,0,0,3.88.4"/>
    <path class="cls-8" d="M534.91,564.56h1.74a12.5,12.5,0,0,1,1.61.13"/>
    <path class="cls-8" d="M534.5,566.84a3,3,0,0,1,3.08.67"/>
    <path class="cls-8" d="M533.57,568.58a3,3,0,0,1,2.41,1.61"/>
    <path class="cls-8" d="M532.5,569.92a3,3,0,0,1,1.34.8,2.88,2.88,0,0,1,.54.8"/>
    <path class="cls-10"
          d="M529.68,492c1.24-.81,1.51-.57,5.89-1.74,4-1.07,6-1.61,7.1-2a10,10,0,0,1,4.28-.8c.86,0,2.2.13,2.54.94s-.83,2.15-1.34,2.68c-1.61,1.67-3.8,2.81-9.91,4.42-3.32.87-5.24,1.21-5.22,1.74s1.45.81,2.41.94c3.83.5,6.5-1.85,7.5-.8a1.7,1.7,0,0,1,.27,1.34c0,.46-.29,1.24-1.74,2.28a12.43,12.43,0,0,1-4.15,1.74c-3.34,1-4.38,1-4.42,1.47s1.59,1.37,3.21,1.61c3,.44,4.78-1.16,5.62-.27a2,2,0,0,1,0,2.14c-.6,1.12-2,1.35-3.35,1.61-3.89.77-1.31.72-7.5,2-1.64.34-3.42.63-7,1.2s-4.37.66-5.49.27a8,8,0,0,1-3.88-3.35,9.61,9.61,0,0,1-1.74-5.49c0-2,.73-2.12,1.74-5.76a33,33,0,0,0,1.07-5.76c.28-3.1.43-4.65-.13-6.43-1.21-3.82-4.26-4.67-3.88-7.23a3.14,3.14,0,0,1,1.47-2.28c1.64-.88,3.91.59,5.49,1.61a11.91,11.91,0,0,1,3.35,3.08,11.75,11.75,0,0,1,2.14,5.35,9.79,9.79,0,0,1-.54,5.35c-.84,1.93-2,2.64-1.74,3.21S528,493.1,529.68,492Z"/>
    <path class="cls-10"
          d="M506.26,540.2c-.38.41.42,1.73,1.34,3.21,1.56,2.52,2.67,4.3,4.69,5.76,3.4,2.45,5.78,1.38,6.56,3.08.71,1.54-.75,3.52-3.48,7.23s-4.81,6.52-8.7,8.7c-2.77,1.55-5,2-5,2.54s2.94.79,5.35.54c5.42-.57,8.68-3.28,9.24-2.54.36.47-.61,2-1.74,3-1.55,1.29-3.21,1.27-3.21,1.74s1.42,1,3,1.07c4.22.25,7.53-3.1,7.76-2.81s-2.94,2.51-2.68,3c.06.11.4.2,3.75-1.2s5.14-2.17,6.16-3.21a9.91,9.91,0,0,0,2.41-4.28,11.56,11.56,0,0,0,0-5.76,10.6,10.6,0,0,0-2.14-5.22c-1.24-1.45-2.65-2-5.09-3-4.71-1.8-5.56-.74-8-2.41a15,15,0,0,1-4.28-4.55A11.51,11.51,0,0,0,510,541.8C508.65,540.56,506.7,539.72,506.26,540.2Z"/>
    <path class="cls-10"
          d="M517.77,734.58c-.31-1.46.94-2.78,1.61-3.48a7.91,7.91,0,0,1,4.42-2.28,7.45,7.45,0,0,1,5.76,1.2c.25.19,2.61,2.08,2.14,4-.2.82-.82,1.28-1.61,1.87a10,10,0,0,1-5.62,1.87,8.09,8.09,0,0,1-4.55-.94A3.85,3.85,0,0,1,517.77,734.58Z"/>
    <path class="cls-10"
          d="M518,730.56c-.23-.67-2.2-.56-2.68-.54a6.51,6.51,0,0,0-2.54.67c-1.17.6-3.53,2.28-3.08,3.88a2.78,2.78,0,0,0,3.21,1.61c.69-.23.81-.78,1.61-1.87C516.39,731.79,518.28,731.25,518,730.56Z"/>
    <path class="cls-10"
          d="M510.41,730.83c-.17-.3-2.09.41-3.61,1.34-1.12.68-1.91,1.18-1.87,1.87a1.59,1.59,0,0,0,1.61,1.34c.64-.1.71-.88,1.61-2.14C509.33,731.56,510.54,731.08,510.41,730.83Z"/>
    <path class="cls-10"
          d="M569.18,731.77c.33-1.22,1.83-1.8,3.75-2.54a8,8,0,0,1,4.15-.8,7.34,7.34,0,0,1,4.55,2.68c.71.8,2.32,2.64,1.74,4-.41,1-1.68,1.21-3.88,1.61-3,.55-4.69.85-6.56,0C570.89,735.8,568.7,733.53,569.18,731.77Z"/>
    <path class="cls-10"
          d="M582,729.89c.33-.66,1.53-.67,2.14-.67a6.09,6.09,0,0,1,4.15,1.87c.54.51,2.74,2.6,2,4.15a2.61,2.61,0,0,1-2.54,1.2c-.64-.06-1.19-.36-2.81-2.14C582.76,731.88,581.65,730.66,582,729.89Z"/>
    <path class="cls-10"
          d="M591.13,731.9c-.2.22.58.82,1.07,2.41.41,1.31.17,1.82.67,2.28a1.86,1.86,0,0,0,2.41,0c.6-.86-1-2.73-1.2-3C593,732.39,591.4,731.61,591.13,731.9Z"/>
    <path class="cls-9"
          d="M526.74,525.2s.52,0,7.1-.8a34.84,34.84,0,0,0,12.32-4.28c4-2.17,7.21-3.86,9.64-7.5a35.25,35.25,0,0,0,3.21-6.69c.7-1.78,1.15-3.22,2-6,2.21-7.21,2.28-8.73,3.75-9.37,1.3-.57,2.78,0,5.76,1.2,2.65,1,4,1.58,4.28,2.68.48,1.76-2.08,3.12-5.09,7.23a34.57,34.57,0,0,0-3.88,7.1c-2.51,6.52-1.28,12.17-1.61,12.18s-1.12-4.63-.67-10.31c.29-3.65,1.18-6,.94-6s-2.2,4.26-3.48,9a32.1,32.1,0,0,0-1.47,8.43c-.07,3-.12,5.65,1.2,8.43a13.79,13.79,0,0,1,1.34,3.08c.51,2,0,2.64.27,5,.35,3.17,1.52,3.89.94,5-.68,1.26-2.77,1.08-5.49,1.34-.45,0-3.42.83-9.37,2.41-9.56,2.54-10.82,3.1-14.19,3.21-2.88.09-5.29-.21-7.5-1.61-1.86-1.18-3.65-3.17-3.21-4s3.55.61,8.17-.27c2.53-.48,5.18-1.64,5.09-2.41s-2.87-.44-6.83-2a13.83,13.83,0,0,1-5.35-3.21c-3.17-3.37-4-9.34-1.87-11.11C523.4,525.18,524,525.34,526.74,525.2Z"/>
    <path class="cls-9"
          d="M568,515.3c1-1.73.84-2.21,1.74-4.42a43.06,43.06,0,0,1,2.54-5c2.49-4.45,3.41-5.24,4.28-5.76a3.8,3.8,0,0,1,2.68-.8c1.21.26,2.42,1.6,3.75,7.1a59.87,59.87,0,0,1,1.47,9.64A108,108,0,0,0,587,533c1,4.31,2.34,8,3.08,10.17a86,86,0,0,1,3.08,10.31c.66,3,.79,4.39.67,4.42a19.85,19.85,0,0,0-3.08-7.23,14.26,14.26,0,0,0-6.29-4.82c-3.5-1.3-6.4-.59-6.43-.94s2.83-1.23,6-.94c2,.18,3.26.75,3.35.54s-1.92-1.79-4.55-2.41c-2.94-.69-5.43,0-5.49-.27s3.8-1,3.75-1.74c0-.52-2.23-1-4.28-.8a27.81,27.81,0,0,0-3.08.67c-.07-.17,2-1.49,4.82-2.54,3.83-1.44,6.26-1.36,6.29-2s-2.06-1.29-3.75-1.47a10.37,10.37,0,0,0-5.09.8c-3.59,1.51-5,4.23-5.89,3.75-.44-.23-.36-1-.4-2.41-.13-4.27-1-4.59-.8-6.43.52-4.1,5.42-5.57,4.82-7-.42-1-3.22-1.14-5,0a7.23,7.23,0,0,0-1.87,2.28,11.05,11.05,0,0,1,2-4.69c2.34-3.51,5.44-5,5.22-5.35s-6.11,2.62-6.69,1.74C567.29,516.41,567.56,516,568,515.3Z"/>
    <path class="cls-9"
          d="M539.19,554.25c-.12.57.77.68,1.74,2.28,1.17,1.93,1.25,4,1.34,6.56.08,2.19-.18,2.13,0,2.68.57,1.73,3.38,3.09,15.26,3.35a125.78,125.78,0,0,0,20.21-1.2c8.68-1.17,11-2.25,12-4.28,1.13-2.23.34-4.92-.27-7a13.88,13.88,0,0,0-5-7.5c-4.16-3.1-9.15-2.88-9.24-2.54s1.52.42,3.48,1.74c3.17,2.14,5,5.58,4.55,6s-1.87-1.36-5.49-3.21a26.64,26.64,0,0,0-7.63-2.68,24.61,24.61,0,0,0-9.5.27c-4.83,1-4.63,2.23-9.37,3.48C544.74,554,539.48,552.85,539.19,554.25Z"/>
    <path class="cls-9"
          d="M508,497.09c-1.48,0-2.78,1.6-5.09,6.16a81.45,81.45,0,0,0-4.55,10.58c-2.11,6.53-1.71,7.15-3.08,11.25-3.11,9.32-8,14.39-7.5,14.73s4.7-3.69,7.76-9.64a63.22,63.22,0,0,0,3.35-9.1c3.28-10.15,2.48-10.22,4.15-12.58,3.56-5,5.34-7.56,5.89-8,.34-.29,1.38-1.16,1.2-2A2.19,2.19,0,0,0,508,497.09Z"/>
    <path class="cls-9"
          d="M517,593.34c0-.43,7.19.79,18.74,0,3-.2,6.67-.8,14.06-2,7-1.13,8.68-1.62,10.31-3.21s2.35-3.59,4.82-4.42c1.36-.46,1.68,0,4.28-.13,5-.19,6.4-1.85,7.9-.8.8.56,1.07,2.33,1.61,5.89.59,3.91.26,4.67,0,5.09-1,1.65-3.41,1.9-4.69,2-16.09,1.42-21.82,1.2-21.82,1.2-9.14-.34-7.23,0-12.58-.27C527.27,596,516.91,593.86,517,593.34Z"/>
    <path class="cls-9"
          d="M502.64,583.84c-.49.49-.28.79-.8,3.61-.74,4-1.45,5-.8,5.76s2.44.56,4,.27c2.58-.47,3.38-1.43,5.76-2.14,1.06-.32,1.84-.4,5.09-.54,5.53-.22,7.86-.16,10.58-.27a74.9,74.9,0,0,0,8.84-.94c7.79-1.18,15-3.32,14.86-3.75,0-.25-2.55.13-16.73,1.74-7.31.83-11,1.22-14.73,0-1.79-.59-2.86-1.23-6.83-2.54C505,582.77,503.42,583.06,502.64,583.84Z"/>
    <path class="cls-9"
          d="M521,583.17c0,.38,5,.78,7,.94a61.53,61.53,0,0,0,8,.27c5.32-.23,10.49-1.42,10.44-1.87,0-.12-.4-.3-9.1-.13C529.13,582.53,521,582.69,521,583.17Z"/>
    <path class="cls-11"
          d="M502.11,624.54c0-.62,2.4.1,5-.67a13.72,13.72,0,0,0,5.76-3.21c2.08-2,2.84-4.27,3.75-7,1.46-4.33,1.37-7.35,2-7.36s1.14,2.16,1.34,3.88c.36,3.08-.54,4.82.13,5.22s2.25-.9,3.21-2c2.4-2.75,2.46-5.94,3-5.89s.42,2,.67,4.69c.34,3.71.5,5.56.94,6.83,1.54,4.49,5.33,5.89,4.69,7.5-.26.66-1,.67-3.35,1.34-2.17.61-.44.29-8.3,3.08-4.9,1.74-5.94,2-5.89,2.28.08.51,3.7.53,7.1-.13a37.41,37.41,0,0,0,4.69-1.34,41.83,41.83,0,0,1-8.57,3.35c-1.91.56-3.24.84-3.21,1.07s3,.33,5.49.13c5.38-.43,8.46-1.76,8.7-1.2s-1.68,1.83-3.35,2.68c-2.74,1.4-5,1.44-5,1.74s2.09.56,4.42.27c3.18-.4,5.21-1.65,5.49-1.2s-1.72,2.08-1.47,2.41,3.3-2,4.28-1.2-.46,4-.67,4.55c-2.33,5.6-2,17.57-1.2,41.5.4,12.81.6,19.21,1.34,22.89,1.67,8.34,2.54,13.12,1.74,15.13-4.42,2.14-19,2.28-19.81-.54C508.77,701.66,501.84,631.9,502.11,624.54Z"/>
    <path class="cls-11"
          d="M500.5,613.16c.69-1,2-.28,4.42-.94a11.36,11.36,0,0,0,4.28-2.41c2.73-2.21,3.47-4.5,4-4.28.72.28-.31,4.45-.4,4.82-.62,2.45-1,4.19-2.28,5.89-2.67,3.71-7.93,5.64-9.37,4.28-.39-.36-.16-.64-.54-3.88C500.34,614.1,500.13,613.67,500.5,613.16Z"/>
    <path class="cls-11"
          d="M531.29,608.34c-.55.59-.75,1.52.54,6.56,1.1,4.3,2.32,9.09,3.21,9,.56-.08.32-2,1.07-6.29,1-5.64,2.24-7.12,1.2-8.57C536.09,607.29,532.6,607,531.29,608.34Z"/>
    <path class="cls-11"
          d="M544.41,608.74c.56-.44.92,0,3.08,0,5.23.12,7.37-2.12,9.1-.94,1.17.8.74,2.19,1.34,4.69a16.19,16.19,0,0,0,7.1,9.77c5.21,3,10.44,0,12.58,3.21a4.86,4.86,0,0,1,.67,3c-.4,15.49,1.51,31,1.61,46.45.08,12,.14,21.41.67,28.78a78.7,78.7,0,0,1-.27,14.86,17.24,17.24,0,0,1-.54,3.88c-.8,2.28-16.47,2.41-17.4,1.07-3.61-16.47-8.83-53.63-11.11-72-.47-3.83-1.36-7.11-3.61-10s-5.08-4.54-4.82-5,2.56,1,6.69,2.14c2.51.7,5.4,1.51,5.89.67s-1.64-3.19-3.35-4.55c-2.45-2-4.8-2.52-4.69-3s1.43,0,3.08-.13c3.68-.25,7.16-2.42,7-3.35s-3.23-.87-6.83-.94c-5.1-.09-7.14.51-7.76-.54s1.08-2.2,2-5C546.85,615.82,542.38,610.36,544.41,608.74Z"/>
    <path class="cls-11"
          d="M563.42,607.94c-.56.24,0,3.11.94,5.35a13.71,13.71,0,0,0,3.61,4.82c2.89,2.5,7.49,4.5,8.7,3.21.63-.67.29-2.14-.27-3.08-1.28-2.14-3.78-1.55-6.69-3.08C565.18,612.78,564.18,607.62,563.42,607.94Z"/>
    <path class="cls-12"
          d="M571.72,67.14s.15,14.55,1,19.55c1,6.38,8.78,11.41,11.41,12.29-11.09,1.12-22.52-3.44-24.85-6.56C553.72,85,568.16,65.13,571.72,67.14Z"/>
    <path class="cls-12"
          d="M366.5,40h176A29.5,29.5,0,0,1,572,69.5h0A29.5,29.5,0,0,1,542.5,99h-176A29.5,29.5,0,0,1,337,69.5h0A29.5,29.5,0,0,1,366.5,40Z"/>
    <path class="cls-1" d="M368.22,56.1V77.67h-2.78V56.1Z"/>
    <path class="cls-1"
          d="M376.89,57.73v4.45h4v2.14h-4v8.35c0,1.92.54,3,2.11,3a6.28,6.28,0,0,0,1.63-.19l.13,2.11a6.89,6.89,0,0,1-2.5.38,3.9,3.9,0,0,1-3-1.18c-.8-.83-1.09-2.21-1.09-4V64.34h-2.4V62.2h2.4V58.49Z"/>
    <path class="cls-1"
          d="M394,57.83a1.74,1.74,0,1,1-3.49,0h0a1.72,1.72,0,0,1,1.68-1.76h.08A1.67,1.67,0,0,1,394,57.68Q394,57.75,394,57.83Zm-3.14,19.84V62.18h2.82V77.67Z"/>
    <path class="cls-1"
          d="M398,74.78a7.38,7.38,0,0,0,3.71,1.12c2,0,3-1,3-2.3s-.8-2.08-2.88-2.85c-2.78-1-4.1-2.53-4.1-4.38,0-2.5,2-4.54,5.34-4.54a7.73,7.73,0,0,1,3.81,1l-.7,2a6,6,0,0,0-3.17-.9c-1.66,0-2.59,1-2.59,2.11s.93,1.86,2.94,2.62c2.69,1,4.06,2.37,4.06,4.67,0,2.72-2.11,4.64-5.79,4.64a8.83,8.83,0,0,1-4.35-1.06Z"/>
    <path class="cls-1"
          d="M419.38,70.43c.06,3.81,2.5,5.38,5.31,5.38A10.18,10.18,0,0,0,429,75l.48,2a12.54,12.54,0,0,1-5.15,1c-4.77,0-7.62-3.14-7.62-7.81s2.75-8.35,7.26-8.35c5.06,0,6.4,4.45,6.4,7.3a10.78,10.78,0,0,1-.1,1.31Zm8.26-2c0-1.79-.74-4.58-3.9-4.58-2.85,0-4.1,2.62-4.32,4.58Z"/>
    <path class="cls-1"
          d="M435.06,62.18l2.21,3.33c.58.86,1.06,1.66,1.57,2.53h.1c.51-.93,1-1.73,1.54-2.56l2.18-3.3h3l-5.28,7.49,5.44,8h-3.2l-2.27-3.49c-.61-.9-1.12-1.76-1.66-2.69h-.06c-.51.93-1.06,1.76-1.63,2.69l-2.24,3.49h-3.1l5.5-7.9-5.25-7.58Z"/>
    <path class="cls-1"
          d="M448.57,67.23c0-2-.06-3.58-.13-5.06H451l.13,2.66h.06a6.09,6.09,0,0,1,5.5-3c3.74,0,6.56,3.17,6.56,7.87,0,5.57-3.39,8.32-7,8.32a5.43,5.43,0,0,1-4.77-2.43h-.06V84h-2.78Zm2.78,4.13a6.28,6.28,0,0,0,.13,1.15,4.34,4.34,0,0,0,4.22,3.3c3,0,4.7-2.43,4.7-6,0-3.1-1.63-5.76-4.61-5.76a4.49,4.49,0,0,0-4.26,3.49,4.58,4.58,0,0,0-.19,1.15Z"/>
    <path class="cls-1"
          d="M468.34,70.43c.06,3.81,2.5,5.38,5.31,5.38a10.18,10.18,0,0,0,4.29-.8l.48,2a12.54,12.54,0,0,1-5.15,1c-4.77,0-7.62-3.14-7.62-7.81s2.75-8.35,7.26-8.35c5.06,0,6.4,4.45,6.4,7.3a10.78,10.78,0,0,1-.1,1.31Zm8.26-2c0-1.79-.74-4.58-3.9-4.58-2.85,0-4.1,2.62-4.32,4.58Z"/>
    <path class="cls-1"
          d="M482.81,66.37a41.77,41.77,0,0,0-.13-4.19h2.5l.16,2.56h.06a5.69,5.69,0,0,1,5.12-2.91c2.14,0,5.47,1.28,5.47,6.59v9.25h-2.82V68.74c0-2.5-.93-4.58-3.58-4.58a4.12,4.12,0,0,0-4,4.19v9.31H482.8Z"/>
    <path class="cls-1"
          d="M500.18,74.78a7.38,7.38,0,0,0,3.71,1.12c2,0,3-1,3-2.3s-.8-2.08-2.88-2.85c-2.78-1-4.1-2.53-4.1-4.38,0-2.5,2-4.54,5.34-4.54a7.73,7.73,0,0,1,3.81,1l-.7,2a6,6,0,0,0-3.17-.9c-1.66,0-2.59,1-2.59,2.11s.93,1.86,2.94,2.62c2.69,1,4.06,2.37,4.06,4.67,0,2.72-2.11,4.64-5.79,4.64a8.83,8.83,0,0,1-4.35-1.06Z"/>
    <path class="cls-1"
          d="M516.37,57.83a1.74,1.74,0,1,1-3.49,0h0a1.72,1.72,0,0,1,1.68-1.76h.08a1.67,1.67,0,0,1,1.73,1.61Q516.37,57.75,516.37,57.83Zm-3.14,19.84V62.18H516V77.67Z"/>
    <path class="cls-1"
          d="M521.81,62.18l3,8.7a40,40,0,0,1,1.25,4h.1c.35-1.28.8-2.56,1.31-4l3-8.7h2.94l-6.08,15.49h-2.69l-5.89-15.49Z"/>
    <path class="cls-1"
          d="M537.36,70.43c.06,3.81,2.5,5.38,5.31,5.38A10.18,10.18,0,0,0,547,75l.48,2a12.54,12.54,0,0,1-5.15,1c-4.77,0-7.62-3.14-7.62-7.81s2.75-8.35,7.26-8.35c5.06,0,6.4,4.45,6.4,7.3a10.78,10.78,0,0,1-.1,1.31Zm8.26-2c0-1.79-.74-4.58-3.9-4.58-2.85,0-4.1,2.62-4.32,4.58Z"/>
    <rect class="cls-13" x="46.77" y="301" width="14" height="30"/>
    <path class="cls-13"
          d="M47.06,314.17s-.18,17.72-1.17,23.8C44.63,345.74,35.2,351.86,32,353c13.5,1.36,27.43-4.19,30.26-8C69,335.9,51.4,311.72,47.06,314.17Z"/>
    <rect class="cls-13" x="46.77" y="140" width="436.23" height="214" rx="47" ry="47"/>
    <path class="cls-1"
          d="M82.47,182,77,160.48h2.94l2.56,10.91c.64,2.69,1.22,5.38,1.6,7.46h.06c.35-2.14,1-4.7,1.76-7.49l2.88-10.88h2.91l2.62,10.94c.61,2.56,1.18,5.12,1.5,7.39h.06c.45-2.37,1.06-4.77,1.73-7.46l2.85-10.88h2.85L97.22,182H94.31l-2.72-11.23a65,65,0,0,1-1.41-7h-.06a67.53,67.53,0,0,1-1.66,7L85.38,182Z"/>
    <path class="cls-1"
          d="M108.55,162.21a1.74,1.74,0,0,1-3.49,0,1.72,1.72,0,0,1,1.68-1.76h.08a1.67,1.67,0,0,1,1.73,1.61Q108.55,162.13,108.55,162.21ZM105.42,182V166.56h2.82V182Z"/>
    <path class="cls-1"
          d="M116.3,162.11v4.45h4v2.14h-4v8.35c0,1.92.54,3,2.11,3a6.28,6.28,0,0,0,1.63-.19l.13,2.11a6.89,6.89,0,0,1-2.5.38,3.9,3.9,0,0,1-3-1.18c-.8-.83-1.09-2.21-1.09-4v-8.45h-2.4v-2.14h2.4v-3.71Z"/>
    <path class="cls-1"
          d="M123.5,159.33h2.82V169h.06a5.23,5.23,0,0,1,2-2,5.79,5.79,0,0,1,2.88-.8c2.08,0,5.41,1.28,5.41,6.62V182h-2.82v-8.9c0-2.5-.93-4.61-3.58-4.61a4,4,0,0,0-3.78,2.82,3.4,3.4,0,0,0-.19,1.34V182h-2.8Z"/>
    <path class="cls-1"
          d="M149.16,166.56l2,7.87c.45,1.73.86,3.33,1.15,4.93h.1c.35-1.57.86-3.23,1.38-4.9l2.53-7.9h2.37l2.4,7.74c.58,1.86,1,3.49,1.38,5.06h.1a46.58,46.58,0,0,1,1.18-5l2.21-7.78h2.78l-5,15.49h-2.56l-2.37-7.39a51.68,51.68,0,0,1-1.38-5.09h-.06a45.79,45.79,0,0,1-1.41,5.12l-2.5,7.36H151l-4.67-15.49Z"/>
    <path class="cls-1"
          d="M171.59,159.33h2.82V169h.06a5.23,5.23,0,0,1,2-2,5.79,5.79,0,0,1,2.88-.8c2.08,0,5.41,1.28,5.41,6.62V182H182v-8.9c0-2.5-.93-4.61-3.58-4.61a4,4,0,0,0-3.78,2.82,3.4,3.4,0,0,0-.19,1.34V182h-2.82Z"/>
    <path class="cls-1"
          d="M197.93,182l-.22-2h-.1a5.77,5.77,0,0,1-4.74,2.3,4.41,4.41,0,0,1-4.73-4.07q0-.19,0-.38c0-3.74,3.33-5.79,9.31-5.76v-.32c0-1.28-.35-3.58-3.52-3.58a7.71,7.71,0,0,0-4,1.15l-.64-1.86a9.61,9.61,0,0,1,5.09-1.38c4.74,0,5.89,3.23,5.89,6.34v5.79a21.76,21.76,0,0,0,.26,3.71Zm-.42-7.9c-3.07-.06-6.56.48-6.56,3.49a2.49,2.49,0,0,0,2.28,2.69h.38a3.85,3.85,0,0,0,3.74-2.59,2.94,2.94,0,0,0,.16-.9Z"/>
    <path class="cls-1"
          d="M208,162.11v4.45h4v2.14h-4v8.35c0,1.92.54,3,2.11,3a6.28,6.28,0,0,0,1.63-.19l.13,2.11a6.89,6.89,0,0,1-2.5.38,3.9,3.9,0,0,1-3-1.18c-.8-.83-1.09-2.21-1.09-4v-8.45h-2.4v-2.14h2.4v-3.71Z"/>
    <path class="cls-1"
          d="M235.4,159.33V178a37.94,37.94,0,0,0,.13,4H233l-.13-2.69h-.06a5.73,5.73,0,0,1-5.28,3c-3.74,0-6.62-3.17-6.62-7.87,0-5.15,3.17-8.32,6.94-8.32a5.18,5.18,0,0,1,4.67,2.37h.06v-9.25Zm-2.82,13.54a4.94,4.94,0,0,0-.13-1.18,4.14,4.14,0,0,0-4.06-3.26c-2.91,0-4.64,2.56-4.64,6,0,3.14,1.54,5.73,4.58,5.73a4.23,4.23,0,0,0,4.13-3.36,4.85,4.85,0,0,0,.13-1.22Z"/>
    <path class="cls-1"
          d="M254.08,174.18c0,5.73-4,8.22-7.71,8.22-4.19,0-7.42-3.07-7.42-8,0-5.18,3.39-8.22,7.68-8.22C251.08,166.21,254.08,169.44,254.08,174.18Zm-12.29.16c0,3.39,2,6,4.7,6s4.7-2.53,4.7-6c0-2.62-1.31-6-4.64-6s-4.75,3.05-4.75,6Z"/>
    <path class="cls-1"
          d="M265.44,166.56l3.39,9.15c.35,1,.74,2.24,1,3.17h.06c.29-.93.61-2.11,1-3.23l3.07-9.09h3l-4.22,11c-2,5.31-3.39,8-5.31,9.7a7.63,7.63,0,0,1-3.46,1.82l-.7-2.37a7.46,7.46,0,0,0,2.46-1.38,8.54,8.54,0,0,0,2.37-3.14,2,2,0,0,0,.22-.67,2.46,2.46,0,0,0-.19-.74l-5.73-14.27Z"/>
    <path class="cls-1"
          d="M293.19,174.18c0,5.73-4,8.22-7.71,8.22-4.19,0-7.42-3.07-7.42-8,0-5.18,3.39-8.22,7.68-8.22C290.18,166.21,293.19,169.44,293.19,174.18Zm-12.29.16c0,3.39,2,6,4.7,6s4.7-2.53,4.7-6c0-2.62-1.31-6-4.64-6S280.9,171.39,280.9,174.34Z"/>
    <path class="cls-1"
          d="M309.7,177.83a41.79,41.79,0,0,0,.13,4.22h-2.5l-.16-2.53h-.06A5.83,5.83,0,0,1,302,182.4c-2.43,0-5.34-1.34-5.34-6.78v-9.06h2.82v8.58c0,2.94.9,4.93,3.46,4.93a4.07,4.07,0,0,0,3.71-2.56,4.12,4.12,0,0,0,.26-1.44v-9.5h2.82Z"/>
    <path class="cls-1"
          d="M332.2,181.47a10.37,10.37,0,0,1-4.45.9c-4.67,0-7.71-3.17-7.71-7.9a7.88,7.88,0,0,1,8.32-8.22,9.41,9.41,0,0,1,3.9.8l-.64,2.18a6.53,6.53,0,0,0-3.26-.74c-3.55,0-5.47,2.62-5.47,5.86,0,3.58,2.3,5.79,5.38,5.79a8,8,0,0,0,3.46-.77Z"/>
    <path class="cls-1"
          d="M349.32,174.18c0,5.73-4,8.22-7.71,8.22-4.19,0-7.42-3.07-7.42-8,0-5.18,3.39-8.22,7.68-8.22C346.31,166.21,349.32,169.44,349.32,174.18Zm-12.29.16c0,3.39,2,6,4.7,6s4.7-2.53,4.7-6c0-2.62-1.31-6-4.64-6s-4.79,3.05-4.79,6Z"/>
    <path class="cls-1"
          d="M352.87,170.75a41.77,41.77,0,0,0-.13-4.19h2.46l.13,2.5h.1a5.34,5.34,0,0,1,4.86-2.85,4.58,4.58,0,0,1,4.38,3.1h.06a6.37,6.37,0,0,1,1.73-2,5.28,5.28,0,0,1,3.42-1.09c2,0,5.09,1.34,5.09,6.72V182h-2.75v-8.77c0-3-1.09-4.77-3.36-4.77a3.65,3.65,0,0,0-3.33,2.56,4.64,4.64,0,0,0-.22,1.41V182h-2.75v-9.28c0-2.46-1.09-4.26-3.23-4.26a4.2,4.2,0,0,0-3.71,4.19V182h-2.75Z"/>
    <path class="cls-1"
          d="M379.56,171.62c0-2-.06-3.58-.13-5.06H382l.13,2.66h.06a6.09,6.09,0,0,1,5.5-3c3.74,0,6.56,3.17,6.56,7.87,0,5.57-3.39,8.32-7,8.32A5.43,5.43,0,0,1,382.4,180h-.06v8.42h-2.78Zm2.78,4.13a6.28,6.28,0,0,0,.13,1.15,4.34,4.34,0,0,0,4.22,3.3c3,0,4.7-2.43,4.7-6,0-3.1-1.63-5.76-4.61-5.76a4.49,4.49,0,0,0-4.26,3.49,4.58,4.58,0,0,0-.19,1.15Z"/>
    <path class="cls-1"
          d="M406.34,182l-.22-2H406a5.77,5.77,0,0,1-4.74,2.3,4.41,4.41,0,0,1-4.73-4.07q0-.19,0-.38c0-3.74,3.33-5.79,9.31-5.76v-.32c0-1.28-.35-3.58-3.52-3.58a7.71,7.71,0,0,0-4,1.15l-.64-1.86a9.61,9.61,0,0,1,5.09-1.38c4.74,0,5.89,3.23,5.89,6.34v5.79a21.88,21.88,0,0,0,.26,3.71Zm-.42-7.9c-3.07-.06-6.56.48-6.56,3.49a2.49,2.49,0,0,0,2.28,2.69H402a3.85,3.85,0,0,0,3.74-2.59,2.92,2.92,0,0,0,.16-.9Z"/>
    <path class="cls-1"
          d="M413.19,171.39c0-1.82,0-3.39-.13-4.83h2.46l.1,3h.13a4.65,4.65,0,0,1,4.29-3.39,3,3,0,0,1,.8.1V169a4.23,4.23,0,0,0-1-.1c-2,0-3.39,1.5-3.78,3.62a7.88,7.88,0,0,0-.13,1.31V182h-2.78Z"/>
    <path class="cls-1"
          d="M424.9,174.82c.06,3.81,2.5,5.38,5.31,5.38a10.18,10.18,0,0,0,4.29-.8l.48,2a12.54,12.54,0,0,1-5.15,1c-4.77,0-7.62-3.14-7.62-7.81s2.75-8.35,7.26-8.35c5.06,0,6.4,4.45,6.4,7.3a10.78,10.78,0,0,1-.1,1.31Zm8.26-2c0-1.79-.74-4.58-3.9-4.58-2.85,0-4.1,2.62-4.32,4.58Z"/>
    <path class="cls-1"
          d="M441.54,175.94l-.06-.83a7.35,7.35,0,0,1,2-5.54c1.44-1.7,2.24-2.94,2.24-4.38,0-1.63-1-2.72-3-2.75a5.69,5.69,0,0,0-3.23,1l-.77-2a8.39,8.39,0,0,1,4.58-1.28c3.68,0,5.34,2.27,5.34,4.7,0,2.18-1.22,3.74-2.75,5.57a6.32,6.32,0,0,0-1.82,4.7V176Zm-.7,4.48a1.89,1.89,0,0,1,1.78-2h.14a2,2,0,1,1-1.92,2.08S440.84,180.45,440.84,180.42Z"/>
    <path class="cls-1"
          d="M82.47,220.45,77,198.88h2.94l2.56,10.91c.64,2.69,1.22,5.38,1.6,7.46h.06c.35-2.14,1-4.7,1.76-7.49l2.88-10.88h2.91l2.62,10.94c.61,2.56,1.18,5.12,1.5,7.39h.06c.45-2.37,1.06-4.77,1.73-7.46l2.85-10.88h2.85l-6.11,21.57H94.3l-2.72-11.23a65,65,0,0,1-1.41-7h-.06a67.47,67.47,0,0,1-1.66,7l-3.07,11.23Z"/>
    <path class="cls-1"
          d="M105.77,197.73h2.82v9.66h.06a5.22,5.22,0,0,1,2-2,5.8,5.8,0,0,1,2.88-.8c2.08,0,5.41,1.28,5.41,6.62v9.21h-2.82v-8.9c0-2.5-.93-4.61-3.58-4.61a4,4,0,0,0-3.78,2.82,3.4,3.4,0,0,0-.19,1.34v9.34h-2.82Z"/>
    <path class="cls-1"
          d="M124.14,205l3.39,9.15c.35,1,.74,2.24,1,3.17h.06c.29-.93.61-2.11,1-3.23l3.07-9.09h3l-4.22,11c-2,5.31-3.39,8-5.31,9.7a7.63,7.63,0,0,1-3.46,1.82l-.7-2.37a7.47,7.47,0,0,0,2.46-1.38,8.54,8.54,0,0,0,2.37-3.14,2,2,0,0,0,.2-.63,2.45,2.45,0,0,0-.19-.74L121.06,205Z"/>
    <path class="cls-1"
          d="M158.34,197.73v18.72a37.94,37.94,0,0,0,.13,4h-2.53l-.13-2.69h-.06a5.73,5.73,0,0,1-5.28,3c-3.74,0-6.62-3.17-6.62-7.87,0-5.15,3.17-8.32,6.94-8.32a5.18,5.18,0,0,1,4.67,2.37h.06v-9.25Zm-2.82,13.54a5,5,0,0,0-.13-1.18,4.14,4.14,0,0,0-4.06-3.26c-2.91,0-4.64,2.56-4.64,6,0,3.14,1.54,5.73,4.58,5.73a4.23,4.23,0,0,0,4.13-3.36,4.89,4.89,0,0,0,.13-1.22Z"/>
    <path class="cls-1"
          d="M166.15,200.61a1.74,1.74,0,0,1-3.49,0h0a1.72,1.72,0,0,1,1.68-1.76h.08a1.67,1.67,0,0,1,1.73,1.61Q166.15,200.53,166.15,200.61ZM163,220.45V205h2.82v15.49Z"/>
    <path class="cls-1"
          d="M183.88,197.73v18.72a37.94,37.94,0,0,0,.13,4h-2.53l-.13-2.69h-.06a5.73,5.73,0,0,1-5.28,3c-3.74,0-6.62-3.17-6.62-7.87,0-5.15,3.17-8.32,6.94-8.32A5.18,5.18,0,0,1,181,207h.06v-9.25Zm-2.82,13.54a5,5,0,0,0-.13-1.18,4.14,4.14,0,0,0-4.06-3.26c-2.91,0-4.64,2.56-4.64,6,0,3.14,1.54,5.73,4.58,5.73a4.23,4.23,0,0,0,4.13-3.36,4.89,4.89,0,0,0,.13-1.22Z"/>
    <path class="cls-1"
          d="M196.36,205l3.39,9.15c.35,1,.74,2.24,1,3.17h.06c.29-.93.61-2.11,1-3.23l3.07-9.09h3l-4.22,11c-2,5.31-3.39,8-5.31,9.7a7.63,7.63,0,0,1-3.46,1.82l-.7-2.37a7.47,7.47,0,0,0,2.46-1.38,8.54,8.54,0,0,0,2.37-3.14,2,2,0,0,0,.22-.67,2.45,2.45,0,0,0-.19-.74L193.29,205Z"/>
    <path class="cls-1"
          d="M224.1,212.58c0,5.73-4,8.22-7.71,8.22-4.19,0-7.42-3.07-7.42-8,0-5.18,3.39-8.22,7.68-8.22C221.09,204.61,224.1,207.84,224.1,212.58Zm-12.29.16c0,3.39,2,6,4.7,6s4.7-2.53,4.7-6c0-2.62-1.31-6-4.64-6S211.81,209.79,211.81,212.74Z"/>
    <path class="cls-1"
          d="M240.61,216.23a41.79,41.79,0,0,0,.13,4.22h-2.5l-.16-2.53H238a5.83,5.83,0,0,1-5.12,2.88c-2.43,0-5.34-1.34-5.34-6.78v-9h2.82v8.58c0,2.94.9,4.93,3.46,4.93a4,4,0,0,0,4-4V205h2.82Z"/>
    <path class="cls-1"
          d="M265.45,197.73v18.72a37.94,37.94,0,0,0,.13,4H263l-.13-2.69h-.06a5.73,5.73,0,0,1-5.28,3c-3.74,0-6.62-3.17-6.62-7.87,0-5.15,3.17-8.32,6.94-8.32a5.18,5.18,0,0,1,4.67,2.37h.06v-9.25Zm-2.82,13.54a4.93,4.93,0,0,0-.13-1.18,4.14,4.14,0,0,0-4.06-3.26c-2.91,0-4.64,2.56-4.64,6,0,3.14,1.54,5.73,4.58,5.73a4.23,4.23,0,0,0,4.13-3.36,4.86,4.86,0,0,0,.13-1.22Z"/>
    <path class="cls-1"
          d="M271.69,213.22c.06,3.81,2.5,5.38,5.31,5.38a10.17,10.17,0,0,0,4.29-.8l.48,2a12.56,12.56,0,0,1-5.15,1c-4.77,0-7.62-3.14-7.62-7.81s2.75-8.35,7.26-8.35c5.06,0,6.4,4.45,6.4,7.3a10.79,10.79,0,0,1-.1,1.31Zm8.26-2c0-1.79-.74-4.58-3.9-4.58-2.85,0-4.1,2.62-4.32,4.58Z"/>
    <path class="cls-1"
          d="M297.19,219.87a10.37,10.37,0,0,1-4.45.9c-4.67,0-7.71-3.17-7.71-7.9a7.88,7.88,0,0,1,8.32-8.22,9.42,9.42,0,0,1,3.9.8l-.64,2.18a6.53,6.53,0,0,0-3.26-.74c-3.55,0-5.47,2.62-5.47,5.86,0,3.58,2.3,5.79,5.38,5.79a8,8,0,0,0,3.46-.77Z"/>
    <path class="cls-1"
          d="M303.62,200.61a1.74,1.74,0,0,1-3.49,0h0a1.72,1.72,0,0,1,1.68-1.76h.08a1.67,1.67,0,0,1,1.73,1.61Q303.62,200.53,303.62,200.61Zm-3.14,19.84V205h2.82v15.49Z"/>
    <path class="cls-1"
          d="M321.35,197.73v18.72a37.94,37.94,0,0,0,.13,4h-2.53l-.13-2.69h-.06a5.73,5.73,0,0,1-5.28,3c-3.74,0-6.62-3.17-6.62-7.87,0-5.15,3.17-8.32,6.94-8.32a5.18,5.18,0,0,1,4.67,2.37h.06v-9.25Zm-2.82,13.54a4.93,4.93,0,0,0-.13-1.18,4.14,4.14,0,0,0-4.06-3.26c-2.91,0-4.64,2.56-4.64,6,0,3.14,1.54,5.73,4.58,5.73a4.23,4.23,0,0,0,4.13-3.36,4.86,4.86,0,0,0,.13-1.22Z"/>
    <path class="cls-1"
          d="M327.59,213.22c.06,3.81,2.5,5.38,5.31,5.38a10.17,10.17,0,0,0,4.29-.8l.48,2a12.56,12.56,0,0,1-5.15,1c-4.77,0-7.62-3.14-7.62-7.81s2.75-8.35,7.26-8.35c5.06,0,6.4,4.45,6.4,7.3a10.8,10.8,0,0,1-.1,1.31Zm8.26-2c0-1.79-.74-4.58-3.9-4.58-2.85,0-4.1,2.62-4.32,4.58Z"/>
    <path class="cls-1"
          d="M348.45,217.57a7.38,7.38,0,0,0,3.71,1.12c2,0,3-1,3-2.3s-.8-2.08-2.88-2.85c-2.78-1-4.1-2.53-4.1-4.38,0-2.5,2-4.54,5.34-4.54a7.74,7.74,0,0,1,3.81,1l-.7,2a6,6,0,0,0-3.17-.9c-1.66,0-2.59,1-2.59,2.11s.93,1.86,2.94,2.62c2.69,1,4.06,2.37,4.06,4.67,0,2.72-2.11,4.64-5.79,4.64a8.82,8.82,0,0,1-4.35-1.06Z"/>
    <path class="cls-1"
          d="M375.52,212.58c0,5.73-4,8.22-7.71,8.22-4.19,0-7.42-3.07-7.42-8,0-5.18,3.39-8.22,7.68-8.22C372.52,204.61,375.52,207.84,375.52,212.58Zm-12.29.16c0,3.39,2,6,4.7,6s4.7-2.53,4.7-6c0-2.62-1.31-6-4.64-6s-4.75,3.05-4.75,6Z"/>
    <path class="cls-1"
          d="M381.25,214.34l-.06-.83a7.35,7.35,0,0,1,2-5.54c1.44-1.7,2.24-2.94,2.24-4.38,0-1.63-1-2.72-3-2.75a5.69,5.69,0,0,0-3.23,1l-.77-2a8.39,8.39,0,0,1,4.58-1.28c3.68,0,5.34,2.27,5.34,4.7,0,2.18-1.22,3.74-2.75,5.57a6.32,6.32,0,0,0-1.82,4.7v.83Zm-.7,4.48a1.89,1.89,0,0,1,1.78-2h.14a2,2,0,1,1-1.92,2.08S380.55,218.85,380.55,218.82Z"/>
    <path class="cls-1"
          d="M82.47,258.85,77,237.28h2.94l2.56,10.91c.64,2.69,1.22,5.38,1.6,7.46h.06c.35-2.14,1-4.7,1.76-7.49l2.88-10.88h2.91l2.62,10.94c.61,2.56,1.18,5.12,1.5,7.39h.06c.45-2.37,1.06-4.77,1.73-7.46l2.85-10.88h2.85l-6.11,21.57H94.3l-2.72-11.23a65,65,0,0,1-1.41-7h-.06a67.47,67.47,0,0,1-1.66,7l-3.07,11.23Z"/>
    <path class="cls-1"
          d="M105.77,236.13h2.82v9.66h.06a5.22,5.22,0,0,1,2-2,5.8,5.8,0,0,1,2.88-.8c2.08,0,5.41,1.28,5.41,6.62v9.22h-2.82V250c0-2.5-.93-4.61-3.58-4.61a4,4,0,0,0-3.78,2.82,3.4,3.4,0,0,0-.19,1.34v9.34h-2.82Z"/>
    <path class="cls-1"
          d="M132.1,258.85l-.22-2h-.1a5.77,5.77,0,0,1-4.74,2.3,4.41,4.41,0,0,1-4.73-4.07q0-.19,0-.38c0-3.74,3.33-5.79,9.31-5.76v-.32c0-1.28-.35-3.58-3.52-3.58a7.71,7.71,0,0,0-4,1.15l-.64-1.86a9.61,9.61,0,0,1,5.09-1.38c4.74,0,5.89,3.23,5.89,6.34v5.79a21.76,21.76,0,0,0,.26,3.71Zm-.42-7.9c-3.07-.06-6.56.48-6.56,3.49a2.49,2.49,0,0,0,2.28,2.69h.38a3.85,3.85,0,0,0,3.74-2.59,3,3,0,0,0,.16-.9Z"/>
    <path class="cls-1"
          d="M142.22,238.91v4.45h4v2.14h-4v8.35c0,1.92.54,3,2.11,3a6.27,6.27,0,0,0,1.63-.19l.13,2.11a6.88,6.88,0,0,1-2.5.38,3.9,3.9,0,0,1-3-1.18c-.8-.83-1.09-2.21-1.09-4v-8.45h-2.4v-2.14h2.4v-3.71Z"/>
    <path class="cls-1"
          d="M159.33,239a1.74,1.74,0,0,1-3.49,0h0a1.72,1.72,0,0,1,1.68-1.76h.08a1.67,1.67,0,0,1,1.73,1.61Q159.33,238.92,159.33,239Zm-3.14,19.84V243.36H159v15.49Z"/>
    <path class="cls-1"
          d="M163.3,256a7.38,7.38,0,0,0,3.71,1.12c2,0,3-1,3-2.3s-.8-2.08-2.88-2.85c-2.78-1-4.1-2.53-4.1-4.38,0-2.5,2-4.54,5.34-4.54a7.73,7.73,0,0,1,3.81,1l-.7,2a6,6,0,0,0-3.17-.9c-1.66,0-2.59,1-2.59,2.11s.93,1.86,2.94,2.62c2.69,1,4.06,2.37,4.06,4.67,0,2.72-2.11,4.64-5.79,4.64a8.82,8.82,0,0,1-4.35-1.06Z"/>
    <path class="cls-1"
          d="M184.71,251.62c.06,3.81,2.5,5.38,5.31,5.38a10.18,10.18,0,0,0,4.29-.8l.48,2a12.55,12.55,0,0,1-5.15,1c-4.77,0-7.62-3.14-7.62-7.81s2.75-8.35,7.26-8.35c5.06,0,6.4,4.45,6.4,7.3a10.57,10.57,0,0,1-.1,1.31Zm8.26-2c0-1.79-.74-4.58-3.9-4.58-2.85,0-4.1,2.62-4.32,4.58Z"/>
    <path class="cls-1"
          d="M200.39,243.36l2.21,3.33c.58.86,1.06,1.66,1.57,2.53h.1c.51-.93,1-1.73,1.54-2.56l2.18-3.3h3l-5.28,7.49,5.44,8H208l-2.27-3.49c-.61-.9-1.12-1.76-1.66-2.69H204c-.51.93-1.06,1.76-1.63,2.69l-2.24,3.49H197l5.5-7.9-5.25-7.58Z"/>
    <path class="cls-1"
          d="M213.89,248.42c0-2-.06-3.58-.13-5.06h2.53l.13,2.66h.06a6.09,6.09,0,0,1,5.5-3c3.74,0,6.56,3.17,6.56,7.87,0,5.57-3.39,8.32-7,8.32a5.43,5.43,0,0,1-4.77-2.43h-.06v8.42h-2.78Zm2.78,4.13a6.35,6.35,0,0,0,.13,1.15A4.35,4.35,0,0,0,221,257c3,0,4.7-2.43,4.7-6,0-3.1-1.63-5.76-4.61-5.76a4.49,4.49,0,0,0-4.26,3.49,4.57,4.57,0,0,0-.19,1.15Z"/>
    <path class="cls-1"
          d="M233.67,251.62c.06,3.81,2.5,5.38,5.31,5.38a10.17,10.17,0,0,0,4.29-.8l.48,2a12.56,12.56,0,0,1-5.15,1c-4.77,0-7.62-3.14-7.62-7.81s2.75-8.35,7.26-8.35c5.06,0,6.4,4.45,6.4,7.3a10.79,10.79,0,0,1-.1,1.31Zm8.26-2c0-1.79-.74-4.58-3.9-4.58-2.85,0-4.1,2.62-4.32,4.58Z"/>
    <path class="cls-1"
          d="M248.13,247.55a41.77,41.77,0,0,0-.13-4.19h2.5l.16,2.56h.06a5.69,5.69,0,0,1,5.12-2.91c2.14,0,5.47,1.28,5.47,6.59v9.25H258.5v-8.93c0-2.5-.93-4.58-3.58-4.58a4.12,4.12,0,0,0-4,4.19v9.31h-2.82Z"/>
    <path class="cls-1"
          d="M265.51,256a7.38,7.38,0,0,0,3.71,1.12c2,0,3-1,3-2.3s-.8-2.08-2.88-2.85c-2.78-1-4.1-2.53-4.1-4.38,0-2.5,2-4.54,5.34-4.54a7.74,7.74,0,0,1,3.81,1l-.7,2a6,6,0,0,0-3.17-.9c-1.66,0-2.59,1-2.59,2.11s.93,1.86,2.94,2.62c2.69,1,4.06,2.37,4.06,4.67,0,2.72-2.11,4.64-5.79,4.64a8.82,8.82,0,0,1-4.35-1.06Z"/>
    <path class="cls-1"
          d="M281.7,239a1.74,1.74,0,1,1-3.49,0h0a1.72,1.72,0,0,1,1.68-1.76H280a1.67,1.67,0,0,1,1.73,1.61Q281.7,238.92,281.7,239Zm-3.14,19.84V243.36h2.82v15.49Z"/>
    <path class="cls-1"
          d="M287.14,243.36l3,8.7a39.9,39.9,0,0,1,1.25,4h.1c.35-1.28.8-2.56,1.31-4l3-8.7h2.94l-6.08,15.49H290l-5.89-15.49Z"/>
    <path class="cls-1"
          d="M302.69,251.62c.06,3.81,2.5,5.38,5.31,5.38a10.17,10.17,0,0,0,4.29-.8l.48,2a12.56,12.56,0,0,1-5.15,1c-4.77,0-7.62-3.14-7.62-7.81s2.75-8.35,7.26-8.35c5.06,0,6.4,4.45,6.4,7.3a10.8,10.8,0,0,1-.1,1.31Zm8.26-2c0-1.79-.74-4.58-3.9-4.58-2.85,0-4.1,2.62-4.32,4.58Z"/>
    <path class="cls-1"
          d="M324.23,258.85V245.51H322v-2.14h2.18v-.74c0-2.18.48-4.16,1.79-5.41a5.39,5.39,0,0,1,3.78-1.44,6.51,6.51,0,0,1,2.4.45l-.38,2.18A4.2,4.2,0,0,0,330,238c-2.4,0-3,2.11-3,4.48v.83h3.74v2.14H327v13.34Z"/>
    <path class="cls-1"
          d="M346.88,251c0,5.73-4,8.22-7.71,8.22-4.19,0-7.42-3.07-7.42-8,0-5.18,3.39-8.22,7.68-8.22C343.88,243,346.88,246.24,346.88,251Zm-12.29.16c0,3.39,2,6,4.7,6s4.7-2.53,4.7-6c0-2.62-1.31-6-4.64-6s-4.75,3-4.75,6Z"/>
    <path class="cls-1"
          d="M350.44,248.19c0-1.82,0-3.39-.13-4.83h2.46l.1,3H353a4.65,4.65,0,0,1,4.29-3.39,3.07,3.07,0,0,1,.8.1v2.66a4.21,4.21,0,0,0-1-.1c-2,0-3.39,1.5-3.78,3.62a7.87,7.87,0,0,0-.13,1.31v8.26H350.4Z"/>
    <path class="cls-1"
          d="M368.71,243.36l3.39,9.15c.35,1,.74,2.24,1,3.17h.06c.29-.93.61-2.11,1-3.23l3.07-9.09h3l-4.22,11c-2,5.31-3.39,8-5.31,9.7a7.63,7.63,0,0,1-3.46,1.82l-.7-2.37a7.48,7.48,0,0,0,2.46-1.38,8.54,8.54,0,0,0,2.37-3.14,2,2,0,0,0,.22-.67,2.46,2.46,0,0,0-.19-.74l-5.73-14.27Z"/>
    <path class="cls-1"
          d="M396.45,251c0,5.73-4,8.22-7.71,8.22-4.19,0-7.42-3.07-7.42-8,0-5.18,3.39-8.22,7.68-8.22C393.44,243,396.45,246.24,396.45,251Zm-12.29.16c0,3.39,2,6,4.7,6s4.7-2.53,4.7-6c0-2.62-1.31-6-4.64-6s-4.76,3-4.76,6Z"/>
    <path class="cls-1"
          d="M413,254.63a41.79,41.79,0,0,0,.13,4.22h-2.5l-.16-2.53h-.06a5.83,5.83,0,0,1-5.12,2.88c-2.43,0-5.34-1.34-5.34-6.78v-9.06h2.82v8.58c0,2.94.9,4.93,3.46,4.93a4,4,0,0,0,4-4v-9.5H413Z"/>
    <path class="cls-1"
          d="M419.81,252.74l-.06-.83a7.35,7.35,0,0,1,2-5.54c1.44-1.7,2.24-2.94,2.24-4.38,0-1.63-1-2.72-3-2.75a5.69,5.69,0,0,0-3.23,1l-.77-2a8.39,8.39,0,0,1,4.58-1.28c3.68,0,5.34,2.27,5.34,4.7,0,2.18-1.22,3.74-2.75,5.57a6.32,6.32,0,0,0-1.82,4.7v.83Zm-.7,4.48a1.89,1.89,0,0,1,1.78-2H421a2,2,0,1,1-1.92,2.08S419.11,257.25,419.11,257.22Z"/>
    <path class="cls-1" d="M81.74,275.68v9H92.17v-9H95v21.57H92.18V287.14H81.74v10.11H79V275.68Z"/>
    <path class="cls-1"
          d="M113.73,289.38c0,5.73-4,8.22-7.71,8.22-4.19,0-7.42-3.07-7.42-8,0-5.18,3.39-8.22,7.68-8.22C110.73,281.41,113.73,284.64,113.73,289.38Zm-12.29.16c0,3.39,2,6,4.7,6s4.7-2.53,4.7-6c0-2.62-1.31-6-4.64-6s-4.75,3.05-4.75,6Z"/>
    <path class="cls-1"
          d="M118.18,281.76l2,7.87c.45,1.73.86,3.33,1.15,4.93h.1c.35-1.57.86-3.23,1.38-4.9l2.53-7.9h2.37l2.4,7.74c.58,1.86,1,3.49,1.38,5.06h.1a46.72,46.72,0,0,1,1.18-5l2.21-7.78h2.78l-5,15.49H130.2l-2.37-7.39a51.52,51.52,0,0,1-1.38-5.09h-.06a45.77,45.77,0,0,1-1.41,5.12l-2.5,7.36H120l-4.67-15.49Z"/>
    <path class="cls-1"
          d="M147.4,286a41.77,41.77,0,0,0-.13-4.19h2.46l.13,2.5h.1a5.34,5.34,0,0,1,4.86-2.85,4.58,4.58,0,0,1,4.38,3.1h.06a6.39,6.39,0,0,1,1.73-2,5.28,5.28,0,0,1,3.42-1.09c2,0,5.09,1.34,5.09,6.72v9.12h-2.75v-8.77c0-3-1.09-4.77-3.36-4.77a3.65,3.65,0,0,0-3.33,2.56,4.65,4.65,0,0,0-.22,1.41v9.57h-2.75V288c0-2.46-1.09-4.26-3.23-4.26a4.2,4.2,0,0,0-3.71,4.19v9.34H147.4Z"/>
    <path class="cls-1"
          d="M187,293a41.79,41.79,0,0,0,.13,4.22h-2.5l-.16-2.53h-.06a5.83,5.83,0,0,1-5.12,2.88c-2.43,0-5.34-1.34-5.34-6.78v-9.06h2.82v8.58c0,2.94.9,4.93,3.46,4.93a4,4,0,0,0,4-4v-9.5H187Z"/>
    <path class="cls-1"
          d="M202.76,296.67a10.37,10.37,0,0,1-4.45.9c-4.67,0-7.71-3.17-7.71-7.9a7.88,7.88,0,0,1,8.32-8.22,9.42,9.42,0,0,1,3.9.8l-.64,2.18a6.53,6.53,0,0,0-3.26-.74c-3.55,0-5.47,2.62-5.47,5.86,0,3.58,2.3,5.79,5.38,5.79a8,8,0,0,0,3.46-.77Z"/>
    <path class="cls-1"
          d="M206.06,274.53h2.82v9.66h.06a5.22,5.22,0,0,1,2-2,5.8,5.8,0,0,1,2.88-.8c2.08,0,5.41,1.28,5.41,6.62v9.22h-2.82v-8.9c0-2.5-.93-4.61-3.58-4.61a4,4,0,0,0-3.78,2.82,3.4,3.4,0,0,0-.19,1.34v9.34H206Z"/>
    <path class="cls-1"
          d="M230.89,297.25V283.91h-2.18v-2.14h2.18V281c0-2.18.48-4.16,1.79-5.41a5.39,5.39,0,0,1,3.78-1.44,6.52,6.52,0,0,1,2.4.45l-.38,2.18a4.2,4.2,0,0,0-1.79-.35c-2.4,0-3,2.11-3,4.48v.83h3.74v2.14h-3.74v13.34Z"/>
    <path class="cls-1"
          d="M253.54,289.38c0,5.73-4,8.22-7.71,8.22-4.19,0-7.42-3.07-7.42-8,0-5.18,3.39-8.22,7.68-8.22C250.53,281.41,253.54,284.64,253.54,289.38Zm-12.29.16c0,3.39,2,6,4.7,6s4.7-2.53,4.7-6c0-2.62-1.31-6-4.64-6S241.25,286.59,241.25,289.54Z"/>
    <path class="cls-1"
          d="M257.09,286.59c0-1.82,0-3.39-.13-4.83h2.46l.1,3h.13a4.65,4.65,0,0,1,4.29-3.39,3.07,3.07,0,0,1,.8.1v2.66a4.21,4.21,0,0,0-1-.1c-2,0-3.39,1.5-3.78,3.62a7.87,7.87,0,0,0-.13,1.31v8.26H257Z"/>
    <path class="cls-1"
          d="M275.37,281.76l3.39,9.15c.35,1,.74,2.24,1,3.17h.06c.29-.93.61-2.11,1-3.23l3.07-9.09h3l-4.22,11c-2,5.31-3.39,8-5.31,9.7a7.63,7.63,0,0,1-3.46,1.82l-.7-2.37a7.48,7.48,0,0,0,2.46-1.38,8.54,8.54,0,0,0,2.37-3.14,2,2,0,0,0,.22-.67A2.46,2.46,0,0,0,278,296l-5.73-14.27Z"/>
    <path class="cls-1"
          d="M303.11,289.38c0,5.73-4,8.22-7.71,8.22-4.19,0-7.42-3.07-7.42-8,0-5.18,3.39-8.22,7.68-8.22S303.11,284.64,303.11,289.38Zm-12.29.16c0,3.39,2,6,4.7,6s4.7-2.53,4.7-6c0-2.62-1.31-6-4.64-6s-4.76,3.05-4.76,6Z"/>
    <path class="cls-1"
          d="M319.62,293a41.79,41.79,0,0,0,.13,4.22h-2.5l-.16-2.53H317a5.83,5.83,0,0,1-5.12,2.88c-2.43,0-5.34-1.34-5.34-6.78v-9.06h2.82v8.58c0,2.94.9,4.93,3.46,4.93a4,4,0,0,0,4-4v-9.5h2.82Z"/>
    <path class="cls-1"
          d="M334.21,277.41a1.74,1.74,0,1,1-3.49,0,1.72,1.72,0,0,1,1.68-1.76h.08a1.67,1.67,0,0,1,1.73,1.61Q334.21,277.33,334.21,277.41Zm-3.14,19.84V281.76h2.82v15.49Z"/>
    <path class="cls-1"
          d="M338.18,294.37a7.38,7.38,0,0,0,3.71,1.12c2,0,3-1,3-2.3s-.8-2.08-2.88-2.85c-2.78-1-4.1-2.53-4.1-4.38,0-2.5,2-4.54,5.34-4.54a7.74,7.74,0,0,1,3.81,1l-.7,2a6,6,0,0,0-3.17-.9c-1.66,0-2.59,1-2.59,2.11s.93,1.86,2.94,2.62c2.69,1,4.06,2.37,4.06,4.67,0,2.72-2.11,4.64-5.79,4.64a8.82,8.82,0,0,1-4.35-1.06Z"/>
    <path class="cls-1"
          d="M361.16,277.41a1.74,1.74,0,1,1-3.49,0,1.72,1.72,0,0,1,1.68-1.76h.08a1.67,1.67,0,0,1,1.73,1.61Q361.16,277.33,361.16,277.41ZM358,297.25V281.76h2.82v15.49Z"/>
    <path class="cls-1"
          d="M365.51,286a41.77,41.77,0,0,0-.13-4.19h2.5l.16,2.56h.06a5.69,5.69,0,0,1,5.12-2.91c2.14,0,5.47,1.28,5.47,6.59v9.25h-2.82v-8.93c0-2.5-.93-4.58-3.58-4.58a4.12,4.12,0,0,0-4,4.19v9.31H365.5Z"/>
    <path class="cls-1"
          d="M384.84,290c.06,3.81,2.5,5.38,5.31,5.38a10.17,10.17,0,0,0,4.29-.8l.48,2a12.56,12.56,0,0,1-5.15,1c-4.77,0-7.62-3.14-7.62-7.81s2.75-8.35,7.26-8.35c5.06,0,6.4,4.45,6.4,7.3a10.8,10.8,0,0,1-.1,1.31Zm8.26-2c0-1.79-.74-4.58-3.9-4.58-2.85,0-4.1,2.62-4.32,4.58Z"/>
    <path class="cls-1"
          d="M400.52,281.76l2.21,3.33c.58.86,1.06,1.66,1.57,2.53h.1c.51-.93,1-1.73,1.54-2.56l2.18-3.3h3l-5.28,7.49,5.44,8h-3.2l-2.27-3.49c-.61-.9-1.12-1.76-1.66-2.69h-.06c-.51.93-1.06,1.76-1.63,2.69l-2.24,3.49h-3.1l5.5-7.9-5.25-7.58Z"/>
    <path class="cls-1"
          d="M414,286.82c0-2-.06-3.58-.13-5.06h2.53l.13,2.66h.06a6.09,6.09,0,0,1,5.5-3c3.74,0,6.56,3.17,6.56,7.87,0,5.57-3.39,8.32-7,8.32a5.43,5.43,0,0,1-4.77-2.43h-.06v8.42H414Zm2.78,4.13a6.31,6.31,0,0,0,.13,1.15,4.34,4.34,0,0,0,4.22,3.3c3,0,4.7-2.43,4.7-6,0-3.1-1.63-5.76-4.61-5.76a4.49,4.49,0,0,0-4.26,3.49,4.57,4.57,0,0,0-.19,1.15Z"/>
    <path class="cls-1"
          d="M433.8,290c.06,3.81,2.5,5.38,5.31,5.38a10.17,10.17,0,0,0,4.29-.8l.48,2a12.56,12.56,0,0,1-5.15,1c-4.77,0-7.62-3.14-7.62-7.81s2.75-8.35,7.26-8.35c5.06,0,6.4,4.45,6.4,7.3a10.8,10.8,0,0,1-.1,1.31Zm8.26-2c0-1.79-.74-4.58-3.9-4.58-2.85,0-4.1,2.62-4.32,4.58Z"/>
    <path class="cls-1" d="M455.68,287.55v2.08h-7.9v-2.08Z"/>
    <path class="cls-1"
          d="M78.86,324.35a41.77,41.77,0,0,0-.13-4.19h2.5l.16,2.56h.06a5.69,5.69,0,0,1,5.12-2.91c2.14,0,5.47,1.28,5.47,6.59v9.25H89.22v-8.93c0-2.5-.93-4.58-3.58-4.58a4.12,4.12,0,0,0-4,4.19v9.31H78.85Z"/>
    <path class="cls-1"
          d="M96.23,332.77a7.38,7.38,0,0,0,3.71,1.12c2,0,3-1,3-2.3s-.8-2.08-2.88-2.85c-2.78-1-4.1-2.53-4.1-4.38,0-2.5,2-4.54,5.34-4.54a7.73,7.73,0,0,1,3.81,1l-.7,2a6,6,0,0,0-3.17-.9c-1.66,0-2.59,1-2.59,2.11s.93,1.86,2.94,2.62c2.69,1,4.06,2.37,4.06,4.67,0,2.72-2.11,4.64-5.79,4.64a8.82,8.82,0,0,1-4.35-1.06Z"/>
    <path class="cls-1"
          d="M112.42,315.81a1.74,1.74,0,0,1-3.49,0h0a1.72,1.72,0,0,1,1.63-1.81h.14a1.67,1.67,0,0,1,1.72,1.81Zm-3.14,19.84V320.16h2.82v15.49Z"/>
    <path class="cls-1"
          d="M117.86,320.16l3,8.7a39.64,39.64,0,0,1,1.25,4h.1c.35-1.28.8-2.56,1.31-4l3-8.7h2.94l-6.08,15.49h-2.69l-5.89-15.49Z"/>
    <path class="cls-1"
          d="M133.42,328.42c.06,3.81,2.5,5.38,5.31,5.38A10.18,10.18,0,0,0,143,333l.48,2a12.55,12.55,0,0,1-5.15,1c-4.77,0-7.62-3.14-7.62-7.81s2.75-8.35,7.26-8.35c5.06,0,6.4,4.45,6.4,7.3a10.57,10.57,0,0,1-.1,1.31Zm8.26-2c0-1.79-.74-4.58-3.9-4.58-2.85,0-4.1,2.62-4.32,4.58Z"/>
    <path class="cls-1"
          d="M150,329.54l-.06-.83a7.35,7.35,0,0,1,2-5.54c1.44-1.7,2.24-2.94,2.24-4.38,0-1.63-1-2.72-3-2.75a5.69,5.69,0,0,0-3.23,1l-.77-2a8.39,8.39,0,0,1,4.58-1.28c3.68,0,5.34,2.27,5.34,4.7,0,2.18-1.22,3.74-2.75,5.57a6.32,6.32,0,0,0-1.82,4.7v.83Zm-.7,4.48a1.89,1.89,0,0,1,1.78-2h.14a2,2,0,1,1-1.92,2.08S149.35,334,149.35,334Z"/>
    <path class="cls-2"
          d="M76.76,721.27c1.63,1.6.8,2.8,3.19,6.39A24.12,24.12,0,0,0,84,732.26c4,3.62,6.59,3.92,6.51,5.37-.09,2-5.18,3.3-6.26,3.62a23,23,0,0,1-6.65.52,46.09,46.09,0,0,1-8.82-1A21.51,21.51,0,0,1,64,739.46a14.59,14.59,0,0,1-6.26-6c-.82-1.4-4.21-7.24-1.81-10.74,1.31-1.91,3.95-2.17,9.2-2.71C71,719.41,74.52,719.08,76.76,721.27Z"/>
    <path class="cls-2"
          d="M38.41,722.92c-.23.64-.37,1.7-1.28,4.86-.56,1.95-.7,2.2-1,3.45-.83,3.19-1.25,4.78-.9,5.75.49,1.33,2.06,2,9.58,3.19,11.32,1.73,13.41,1,14.83-.25A8.14,8.14,0,0,0,62,735.84c.5-2.15-.2-3.73-1-6.39-2.16-7-.9-7.54-2.3-9.2C54.43,715,40.12,718.06,38.41,722.92Z"/>
    <path class="cls-14"
          d="M98,565.59c.7.44,1,1,2.3,7.16,1.67,7.72,2.5,11.58,3.07,16a171.51,171.51,0,0,1,1.4,18.28c.09,4,.54,25-3.62,39.23a71.49,71.49,0,0,0-2.94,13.17c-.23,2.14-.41,3.56-.77,6.39a40.21,40.21,0,0,1-1,6.13A27,27,0,0,1,94,677.55c-1.58,3.09-2.87,6.33-4.34,9.46-3.47,7.36-8.79,18.61-10.1,32.57-.05.63-.23,2.88-.25,3.84v.52a14.7,14.7,0,0,0,.25,1.66c-.33,1-21.78,1.37-26.58-10-2.53-6,.35-13.31,2.81-19.55a68.65,68.65,0,0,1,4.34-9.33,68.76,68.76,0,0,0,4-7.16,26.05,26.05,0,0,0,1.4-3.32,23.7,23.7,0,0,0,1-8.05,30.48,30.48,0,0,0-.25-3.32c-.55-4.33-.84-8.7-1.4-13-2.23-17.07-4.27-32.57-.13-49.46a55.5,55.5,0,0,1,5.88-15.72C78.48,573,93.12,562.47,98,565.59Z"/>
    <path class="cls-14"
          d="M95,570.07c-2-2-5.47-2.1-12.4-2.3-9.17-.27-9.88,1.19-17,.77-8.39-.5-11.3-2.76-13.81-.64-1,.9-2.21,2.67-1.67,10.35a72.06,72.06,0,0,0,4.22,19.43c4.3,12.11,7.43,20.59,13.29,21.72a19.9,19.9,0,0,0,5.88,0,22.08,22.08,0,0,0,7.16-2.3"/>
    <path class="cls-14"
          d="M44.94,558.18c-2.12,1.81-3.62,2.76-3.84,3.19-2,3.51-2.71,4.73-4.73,8.14a94.74,94.74,0,0,0-13.17,51c.14,4.52.9,9,2.3,17.9,2.71,16.72,6,28,6.9,30.29a30.24,30.24,0,0,1,1,3.19,22.15,22.15,0,0,1,.64,3.19,13.74,13.74,0,0,1-.52,5.11c-1.81,7-3.16,10.78-4.22,16a34.86,34.86,0,0,0-.64,3.71A28,28,0,0,0,30.23,712a88.3,88.3,0,0,0,3.84,8.43,16.35,16.35,0,0,1,.77,1.66,2.34,2.34,0,0,1,.25.77c.05.9-1,1.43-1,1.81,0,1.72,20.81,2.3,26.58.25.9-.33.18-1.52-.13-3.71-.13-.85-.21-5.29-.38-14.19-.25-13.26,0-16.74-.64-20.7a27.14,27.14,0,0,1-.38-3.71,27.71,27.71,0,0,1,.52-6.26,53.23,53.23,0,0,1,3.62-10.86c2.09-4.83,2.94-8.49,4.61-15.72a122.2,122.2,0,0,0,2.81-20.7,62.54,62.54,0,0,0-.25-13.93,29.69,29.69,0,0,0-1.81-7.54"/>
    <path class="cls-14"
          d="M93.39,572a14.91,14.91,0,0,0,5-1.68A4.32,4.32,0,0,0,99.9,569a3.31,3.31,0,0,0,.38-2.43c-.33-3.36-.57-5.63-1.81-6-1-.33-2.29.9-2.71,1.28-4.41,4.07-19.54,4.88-32.21,1.15-1.76-.52-18.77-5.63-21.22-4.47a6.71,6.71,0,0,0-1.67,1.15,5.85,5.85,0,0,0-1.21,1.93,3.78,3.78,0,0,0-.38,2.17,3.44,3.44,0,0,0,.38,1c1.15,2,5.37,3.57,9.29,4.67"/>
    <path class="cls-14"
          d="M67.11,572.94c.71.09,1.15.14,1.73.19a114.59,114.59,0,0,0,15.59.13,36.43,36.43,0,0,0,6.16-.62"/>
    <path class="cls-14" d="M51.43,570.19c2.71.66,4.89,1,4.89,1l6.33,1.06,1.34.22"/>
    <path class="cls-8"
          d="M67.43,563.16a12.94,12.94,0,0,0-1.81,2.71,13.26,13.26,0,0,0-1.15,3.45,13.63,13.63,0,0,0,0,5"/>
    <path class="cls-8"
          d="M70.11,563.67a23.34,23.34,0,0,0-1.54,2.81,15.55,15.55,0,0,0-1.28,3.62,12.56,12.56,0,0,0-.13,4.22"/>
    <path class="cls-8"
          d="M52.11,561.24a9.6,9.6,0,0,0-2.17,3.07,12.17,12.17,0,0,0-.77,2.71,20.09,20.09,0,0,0-.38,3.19"/>
    <path class="cls-8"
          d="M54.9,562a9,9,0,0,0-2,2.3,10.19,10.19,0,0,0-1,2.3,12.29,12.29,0,0,0-.64,3.07,10.92,10.92,0,0,0,0,1.4"/>
    <path class="cls-8"
          d="M88.91,563.67a8.08,8.08,0,0,1,1.28,1.66,7.76,7.76,0,0,1,.9,2.3,8.79,8.79,0,0,1,0,2.81,22.49,22.49,0,0,1-.52,3.07"/>
    <path class="cls-8"
          d="M91.33,562.91a6.34,6.34,0,0,1,1.4,1.81A7.86,7.86,0,0,1,93.5,568a15.48,15.48,0,0,1-.13,3.32c-.08.62-.17,1.15-.25,1.54"/>
    <path class="cls-8" d="M75.64,565.84a26,26,0,0,0,.38,3.07,9.34,9.34,0,0,1,.25,3.07,7.36,7.36,0,0,1-.13.77"/>
    <path class="cls-8"
          d="M76.55,574.16c.22,1.38.5,3.26.77,5.49.33,2.71.71,5.89.9,10.1.2,4.52.07,8.14,0,10.1,0,1.09-.09,2-.13,2.71"/>
    <path class="cls-8"
          d="M85.84,574.16a69.35,69.35,0,0,1,.52,9.58,47,47,0,0,1-.52,6.26,19.32,19.32,0,0,1-1,4.34,15,15,0,0,1-2.42,4.09"/>
    <path class="cls-15"
          d="M78.29,568.4a2.41,2.41,0,0,0,.38,1.54,2.71,2.71,0,0,0,4.22.38,2.53,2.53,0,0,0,0-3.07,2.61,2.61,0,0,0-2.94-.9A2.52,2.52,0,0,0,78.29,568.4Z"/>
    <path class="cls-8"
          d="M55.54,571.34a20,20,0,0,1-2.56,4,10.74,10.74,0,0,1-4,3.45,10.92,10.92,0,0,1-3.84.77,19.67,19.67,0,0,1-4.34-.13,22.52,22.52,0,0,1-2.71-.52"/>
    <path class="cls-8"
          d="M63.88,572.87c-.29,1.29-.75,3.2-1.4,5.49a57.35,57.35,0,0,1-3.32,9.46c-1.39,3-2.14,4.52-3.84,6.13a13.94,13.94,0,0,1-5.24,3.19,15.22,15.22,0,0,1-6.78.38,31.67,31.67,0,0,1-9.84-2.71"/>
    <path class="cls-8"
          d="M93.31,572.43c.62,2.45.7,4.67,1,6.07.05.32,1.5,8.14,2.42,12.4a11,11,0,0,0,.77,2.3,7.75,7.75,0,0,0,2,2.94,6.54,6.54,0,0,0,4,1.4"/>
    <path class="cls-8" d="M46.68,558a21.3,21.3,0,0,0-1.54,2,14.83,14.83,0,0,0-1.67,3.07,12.39,12.39,0,0,0-.77,3.45"/>
    <path class="cls-8"
          d="M42.25,567.76a182.23,182.23,0,0,0-8.14,21.85c-.79,2.62-2.08,7.11-3.32,12.79a94.35,94.35,0,0,0-2.17,12.79,82.44,82.44,0,0,0-.25,10.22A106.38,106.38,0,0,0,32,648.16c.51,2,1.26,4.79,2.17,9,1.28,6,1.44,8.19,1.28,10.22-.06.83-.3,3.15-.52,5.11-.15,1.39-.61,3-.71,3.77"/>
    <path class="cls-8"
          d="M41.48,676.79a7,7,0,0,0,2.3,3.32,7.1,7.1,0,0,0,4.86,1.4c3.71-.24,5.94-3.62,6.9-5a13.84,13.84,0,0,0,1.81-3.71"/>
    <path class="cls-8"
          d="M60.34,715.46c.44-1.76,1.55-5.16,2.36-8.24,1.89-7.24,2.84-10.8,4-14.31A85,85,0,0,1,71,681c.75-1.56,1.92-3.78,3.32-7.28a34.09,34.09,0,0,0,1.92-5.49,33.23,33.23,0,0,0,.52-8.7c-.08-2.24-.24-3.88-.64-7.28-1.13-9.84-1.27-9.52-1.54-12.91-.28-3.62-.33-6.49-.38-11v-7.41"/>
    <path class="cls-8"
          d="M81.07,620.93a11.39,11.39,0,0,1-3.62,1.15,8.71,8.71,0,0,1-4.47-.25c-.9-.33-1.55-.79-1.67-.64s.65,1.09,1.28,1.66A9.72,9.72,0,0,0,76.68,625"/>
    <path class="cls-8" d="M83.66,673.46a9.78,9.78,0,0,0,1.67,2.3,7.09,7.09,0,0,0,3.07,2,6.09,6.09,0,0,0,1.4.25"/>
    <path class="cls-2"
          d="M50.37,484.24a7.6,7.6,0,0,0-.64,4c.19,6.33,5.6,10.46,7.8,12.14,3.62,2.71,7.77,6,12.91,4.73,4.87-1.18,8-5.74,8.95-9.72.16-.67,1.4-6-1.54-10.35C72,476.39,53.82,477.61,50.37,484.24Z"/>
    <path class="cls-16"
          d="M83.78,490.82c.72-.25,2.23.22,4,.77a19.44,19.44,0,0,1,5,2.43c1.72,1.19,2.93,2.54,6.26,7.67s3.45,5.8,5.63,8.95c1.74,2.52,3.08,4.14,5.37,6.9,6.9,8.32,8.57,8.75,9.72,12.27.24.76,2,6.16-.52,10.22-3.34,5.43-13,6.51-19.3,4.34C79.95,537.52,78.92,492.56,83.78,490.82Z"/>
    <path class="cls-2"
          d="M106.92,521.24c0-.72.9-3.12,2.81-7.93,1.33-3.42,1.56-3.78,2.94-7.41,1.45-3.82,2.17-5.72,2.3-6.26a4.53,4.53,0,0,1,6.66-3.84c2,.77,2.85,2.71,3.71,4.73,1.13,2.71.9,3.91,1.67,9.84.12.9.46,3.11,1.15,7.54.8,5.13.9,5.92.77,7.41-.2,1.65-.59,4.8-2.94,6.78-3.62,3-9.15,1.06-10,.77C110.93,531.09,106.83,526,106.92,521.24Z"/>
    <path class="cls-16"
          d="M99.89,527.25c-3.17,3.09-4.89,8.79-3.19,13,.9,2.19,2.42,3.45,5.11,5.63a18.59,18.59,0,0,0,6.78,3.84,14,14,0,0,0,6.78.52,14.48,14.48,0,0,0,6.9-3.62,18.31,18.31,0,0,0,4.34-5.37,22,22,0,0,0,2-6.39,26.44,26.44,0,0,0,.64-8.7c-.22-1.81-.67-3.62-.9-3.62s0,1.42-.38,3.07a9,9,0,0,1-3.45,4.86,9.27,9.27,0,0,1-6.78,1.28,10.86,10.86,0,0,1-7.8-5.63c-1.67-3.3-.81-6.59-1.81-6.78-.62-.13-1.18,1.19-2.42,2.81"/>
    <path class="cls-16"
          d="M108.71,514.72c.27.07-.22,1.3,0,3.62a13.38,13.38,0,0,0,3.84,8.14,9.66,9.66,0,0,0,4.09,2.56,9,9,0,0,0,11.23-5.95l0-.06c.86-2.62.24-4.82.52-4.86s1,2.28,1.15,5a12,12,0,0,1-1.15,6.78,10.8,10.8,0,0,1-5.63,4.86,11.26,11.26,0,0,1-6.9.13,13.3,13.3,0,0,1-7.41-4.86,12.79,12.79,0,0,1-2.42-6C105.42,518.94,108.21,514.58,108.71,514.72Z"/>
    <path class="cls-2"
          d="M115.74,500c-1-.78-.34-3,0-4.34a12.12,12.12,0,0,1,2.56-4.61c1.47-1.81,1.86-1.59,3.19-3.32a26.24,26.24,0,0,0,2.56-4.47c1.19-2.36,1.26-2.9,2.17-4a5.13,5.13,0,0,1,3.07-2,4.21,4.21,0,0,1,2.42.38,4.9,4.9,0,0,1,2,2,7.11,7.11,0,0,1,1.15,4.09,7.66,7.66,0,0,1-1.54,4.09c-.9,1.38-1.7,1.81-4,3.84s-2.25,2.18-3.62,3.32C123.15,497.39,117.43,501.4,115.74,500Z"/>
    <path class="cls-2"
          d="M117.15,505.53a6.64,6.64,0,0,0,2.3,2.94,7.35,7.35,0,0,0,4.34,1.15c1.25,0,1.26-.22,5.11-.9,1.28-.23,2.14-.38,3.32-.52.62-.07,1.95-.21,4-.25s3.47,0,6.51.13c2.71.11,3.76.18,5-.52a4.2,4.2,0,0,0,1.81-1.81,5.1,5.1,0,0,0,0-3.71,10.8,10.8,0,0,0-2-4,19.28,19.28,0,0,0-7.54-5.49,18.57,18.57,0,0,0-7.8-2,16,16,0,0,0-4.86.64,15.21,15.21,0,0,0-7.67,5.49C118.55,498.14,115.81,501.91,117.15,505.53Z"/>
    <path class="cls-16"
          d="M32,493.51c1.1-1.18,2.09-.62,6.9-2.3a36.31,36.31,0,0,0,5.88-2.71,11.52,11.52,0,0,0,3.62-2.71c1.18-1.47,1.19-2.51,1.81-2.56,1.09-.09,1.3,3.26,4,6.39A18.29,18.29,0,0,0,60,493.82c2.63,1.39,3.14,1,5.11,2.43a11.57,11.57,0,0,1,4,4.22,19.84,19.84,0,0,1,1.4,3.62,11.83,11.83,0,0,0,1-2.81,33.07,33.07,0,0,1,.77-3.45,10.53,10.53,0,0,1,1.67-2.94,13.07,13.07,0,0,1,1.81-1.81c1.38-1.18,1.64-1,1.92-1.54.9-1.6-1.45-3.72-.77-4.61s4.66.73,5.88,1.28c1.67.74,1.28.85,4.09,2.3a9.82,9.82,0,0,1,2.42,1.66,10.59,10.59,0,0,1,1,1.15c3.38,4.47,5.75,11.5,5.75,11.5,1.43,4.24,2.26,7.61,2.56,8.82,1.13,4.7,2.42,10.25,2,15.85a47,47,0,0,1-.64,5c-.49,2.53-.82,2.94-1.15,4.73a22.92,22.92,0,0,0,0,7.54,28.3,28.3,0,0,0,1.81,7c.55,1.34,1.74,2,1.67,3.32a5.23,5.23,0,0,1-1.28,2.71,9.63,9.63,0,0,1-2,2,14.94,14.94,0,0,1-6.39,2.43A101.34,101.34,0,0,1,79,565.43c-3.36,0-6.42-.28-12.52-.77-4.11-.33-6.22-.51-8.7-.9-2.85-.45-5.27-1.07-10.1-2.3a22.34,22.34,0,0,1-5.49-1.92,21.42,21.42,0,0,1-4-2.81c-5.09-4.73-3.32-19-3.32-19-.22-20.15-1.59-30.5-3.19-36.19C31.26,500.19,29.92,495.74,32,493.51Z"/>
    <path class="cls-8"
          d="M70.36,504.11c.18.57,1.12,3,1.54,4.09a50.22,50.22,0,0,0,2.71,5.88,50.28,50.28,0,0,1,4.73,14.06c.65,3.95,1.2,6.82.25,10.22a42.42,42.42,0,0,0-1.15,4.22,38.49,38.49,0,0,0-.64,6.13c-.31,5.59.05,8.05.25,9a8.74,8.74,0,0,0,.9,3.07,3,3,0,0,1,.64,1.4,2.61,2.61,0,0,1-.25,1.4,5.31,5.31,0,0,1-1.92,1.81"/>
    <path class="cls-16"
          d="M38,493.63a7.53,7.53,0,0,0-5.88-.77c-1.13.33-2.32,1-4.34,3.19a34.75,34.75,0,0,0-6.26,10c-.42,1-1.21,3.33-2.81,8.05a75.76,75.76,0,0,1-2.56,7.16A51.44,51.44,0,0,1,12.34,528c-4.26,6.79-5,6.7-6.26,9.72a23.87,23.87,0,0,0-1.92,9c0,2.79-.08,8.06,3.62,12A11.18,11.18,0,0,0,14,562.49c9.52,1.4,19.3-15,24.79-24.29a36.93,36.93,0,0,0,3.07-6.39,39.53,39.53,0,0,0,2.17-10.35"/>
    <path class="cls-2"
          d="M30.61,537.35a13.5,13.5,0,0,1,5.75-.9c1.88,0,2.12.21,5.11.25a19.1,19.1,0,0,0,4.86-.25c2-.49,2.33-1.13,4-1.28a7.85,7.85,0,0,1,4,.77c3.89,1.72,5.29,5.63,5.75,6.9a8.09,8.09,0,0,1,.52,4.47,6.07,6.07,0,0,1-1,2.3A6.16,6.16,0,0,1,57,551.53c-4.2,1.81-6.33,2.78-7.16,3.07-6.33,2.12-5.22,2.06-8.7,3.07A71.49,71.49,0,0,1,33,559.47c-3.22.59-3.62.52-4,.38-3.43-1.27-4.12-8.27-3.45-12.91C25.95,544.77,26.78,539.22,30.61,537.35Z"/>
    <path class="cls-2"
          d="M48,537.73c-.43-.52,0-1.15.77-4.09,1.12-4.47.52-4.9,1.54-7.67.71-1.92,1.4-3.83,3.32-5.37a10,10,0,0,1,5.49-2,11.22,11.22,0,0,1,5.24.77,12.25,12.25,0,0,1,5.24,4.34,16.81,16.81,0,0,1,2.94,6.65,13.47,13.47,0,0,1,0,6.26,6.15,6.15,0,0,1-1.67,3.32A5.78,5.78,0,0,1,67,541.3a8,8,0,0,1-4-1.15c-3-1.55-3-2.67-4.73-3.45C54.19,534.76,49.3,539.26,48,537.73Z"/>
    <path class="cls-2"
          d="M60.66,531.85c1,.38,1.39,1.5,2.17,3.62A13.57,13.57,0,0,1,63.6,542a12,12,0,0,1-1.54,4.73A11.27,11.27,0,0,1,58,550.8a4.45,4.45,0,0,1-2.42.9c-2.56-.24-5-5.24-4.61-9.58C51.53,535.91,57.93,530.79,60.66,531.85Z"/>
    <path class="cls-16"
          d="M14.77,537.35c4.11-3.24,9.82-4.75,14.31-3.84,2.46.5,4,1.61,8.05,2,.72.08,1.87.17,1.92.52.08.59-3.31.66-6,2.94-2.29,1.95-3.07,4.62-3.62,6.39a10.66,10.66,0,0,0-.52,5.37,10.45,10.45,0,0,0,2.3,4.61A8.14,8.14,0,0,0,34,557.93c1.56.77,2.89.61,2.94,1s-1.06.81-2.3,1.28c-3.62,1.38-5.43,2.05-5.88,2.17a34.76,34.76,0,0,1-6.9,1c-3.25.16-5,.25-7.16-.38-1.21-.36-5.82-2.36-8-5.3"/>
    <path class="cls-16"
          d="M41.17,536.51c0,.27-1.81-.24-3.9.83A11.14,11.14,0,0,0,32.8,542a13.86,13.86,0,0,0-1.92,6.9,9.52,9.52,0,0,0,1.28,5.37,8.54,8.54,0,0,0,2.71,2.71,9.77,9.77,0,0,0,4.73,1.66c.58-.06-.29.28-1.67.64a24.73,24.73,0,0,1-3.32.77c-2.54.17-4.8-2.1-5.49-2.81-3.46-3.5-3.38-8.33-3.32-9.58A13.15,13.15,0,0,1,29,539.56a12.05,12.05,0,0,1,4.86-3.32C37.46,534.92,41.15,536.13,41.17,536.51Z"/>
    <path class="cls-8"
          d="M16.3,533.76A20.63,20.63,0,0,1,21,532.23a14.24,14.24,0,0,1,5.49-.25c1.87.32,6.33,1.47,8.14,3.13"/>
    <path class="cls-8"
          d="M105.9,521.75a18.79,18.79,0,0,0-2.56,10.35,12.87,12.87,0,0,0,.52,3.45,12,12,0,0,0,1.81,3.62"/>
    <path class="cls-8" d="M104,525.08a4.41,4.41,0,0,0-1.15.9,5.52,5.52,0,0,0-1,1.81,11.61,11.61,0,0,0-.64,2"/>
    <path class="cls-8"
          d="M52.22,557.41a61,61,0,0,0,10.22,3.19A64.71,64.71,0,0,0,74.34,562a78.81,78.81,0,0,0,10.22-.25"/>
    <path class="cls-8" d="M75.48,559.45a34.62,34.62,0,0,0,4.22.25,26,26,0,0,0,6.51-.64,20.65,20.65,0,0,0,7.28-3.45"/>
    <path class="cls-8"
          d="M58,499.77c2.05,1.58,3.92,2.9,5.49,4,.34.24,2.06,1.09,5.49,2.81a3.08,3.08,0,0,0,1.81.38,3.55,3.55,0,0,0,2.17-1.4,19.74,19.74,0,0,0,3.45-6.78,34.2,34.2,0,0,0,1.15-5.88"/>
    <path class="cls-16"
          d="M48.39,483.82c-.77.9-.65,2.3-.52,4a14.72,14.72,0,0,0,1.28,4.61,30.82,30.82,0,0,0,4,6.78,28.59,28.59,0,0,0,4,4.22c.68.62,2.25,2,2.56,1.81.15-.13-.59-6.33.9-7.93s2.56-1.66,3.71-1.4c0-.26-2.71-1.47-4.61-3.45-2.38-2.44-.71-5.43-2.81-7.8S49.92,481.93,48.39,483.82Z"/>
    <path class="cls-16"
          d="M74.45,494.14a1.9,1.9,0,0,1,2-.52c1.69.65,2.63,3.3,2.42,5.37a8.55,8.55,0,0,1-1,2.94,11.42,11.42,0,0,0,1.92-3.07,15.1,15.1,0,0,0,1.67-7.28,13.27,13.27,0,0,0-.52-3.07c-.41-1.48-.61-2.23-1.28-2.81-1.07-.9-3-1.17-3.71-.38s-.34,1.9,0,3.71c.21,1.08.38,1.32.25,1.92A12.33,12.33,0,0,1,74.45,494.14Z"/>
    <path class="cls-17"
          d="M68.84,508.58a3.14,3.14,0,0,1,.9-1.15,3,3,0,0,1,2.71-.52,2.28,2.28,0,0,1,1.48,2.87l-.07.2a2.71,2.71,0,0,1-2.17,1.66,2.92,2.92,0,0,1-1.81-.38A2.22,2.22,0,0,1,68.6,510,2.07,2.07,0,0,1,68.84,508.58Z"/>
    <path class="cls-10"
          d="M51.9,523.63a9.44,9.44,0,0,1,2.3-2.71,9.75,9.75,0,0,1,3.62-1.81,10.05,10.05,0,0,1,3.45-.25c.8.08,1.54.25,1.54.38s-.83.08-1.92.52c-.75.3-1.46.77-1.4.9s.78-.11,2.17-.38a14,14,0,0,1,2.3-.38,5.81,5.81,0,0,1,2.3.52,5,5,0,0,1,1.92,1.15,11,11,0,0,0-3.07-.77,6.55,6.55,0,0,0-1.54.13,3,3,0,0,0-1.15.38c0,.08.9-.07,2.17,0a9,9,0,0,1,2.3.38A6.07,6.07,0,0,1,69.31,523a7.15,7.15,0,0,1,1.4,2A14.2,14.2,0,0,1,72,527.81,10.44,10.44,0,0,1,72.5,532a4.57,4.57,0,0,1-.77,2.56,3.06,3.06,0,0,1-2,1.28c-.14,0-1.28.13-1.67-.52s.11-1.67.77-2.17,1-.24,1.28-.64c.19-.25.3-.68-.13-2-.52-1.71-.8-2.57-1.54-3.19a4.75,4.75,0,0,0-3.19-.9,8,8,0,0,0-5.37,1.66c-2.08,1.81-2.44,4.66-2.94,8.56-.33,2.56-.08,3.24-.77,4.61-.47.9-1.37,2.17-4.34,3.84-4.15,2.32-5.48,1.62-11.76,3.84-3.43,1.21-4.74,2-5.75,1.28-1.35-1-.9-3.84-.52-5.24a9.49,9.49,0,0,1,2.81-4.09,9,9,0,0,1,3.71-2.56c1.19-.37,1.49-.09,4.61-.13,4.1,0,4.78-.53,5.11-.9.62-.67.62-1.49.64-3.07C50.75,526.16,51.34,524.62,51.9,523.63Z"/>
    <path class="cls-10"
          d="M126.67,482.7a4.87,4.87,0,0,1,.25-2.94,3.68,3.68,0,0,1,2.17-2.17,3.76,3.76,0,0,1,2.94.64c1.42.82,3,2.6,2.81,4.61a4.39,4.39,0,0,1-.77,1.92,4.31,4.31,0,0,1-2.17,1.92,3.84,3.84,0,0,1-2.56,0C127.22,485.87,126.76,483.26,126.67,482.7Z"/>
    <path class="cls-10"
          d="M117.72,493.44a9.63,9.63,0,0,1,2-2.56,7.53,7.53,0,0,1,2.42-1.92,6.27,6.27,0,0,1,3.32-.38,8.64,8.64,0,0,1,3.71,1.4c1.39.83,2.09,1.25,2.17,1.92.15,1.29-2,2.71-3.84,3.32s-2.38,0-5,.38c-3.36.52-4.82,1.95-5.49,1.28S117.53,493.83,117.72,493.44Z"/>
    <path class="cls-10"
          d="M117.21,499.58c.11-1,1.73-1.58,3.71-2.3a19.24,19.24,0,0,1,5.24-1,11.83,11.83,0,0,1,4.61.25,10.86,10.86,0,0,1,3.71,2c1.12.86,2.06,1.57,1.92,2.17s-.9.7-3.19,1c-2.87.4-4.38.43-6.51.64-3.62.34-3.81.66-5.11.38C119.44,502.31,117.08,500.85,117.21,499.58Z"/>
    <path class="cls-10"
          d="M134,495.74c0-.38,2-.49,2.42-.52a15.29,15.29,0,0,1,4.61.52,17.7,17.7,0,0,1,4.22,1.66,11.58,11.58,0,0,1,2.71,1.92c.38.38,1.25,1.24,1,1.66-.12.24-.52.24-.77.25a4,4,0,0,1-2.3-.77,40,40,0,0,0-3.71-1.81,41.31,41.31,0,0,0-4.34-1.54C135,496.25,133.93,496,134,495.74Z"/>
    <path class="cls-10"
          d="M134.21,492.29c.06-.14.33-.57,2.17-.52a12.15,12.15,0,0,1,3.84.77,15.38,15.38,0,0,1,3.62,1.92,23.19,23.19,0,0,1,2,1.66c.86.74,1.76,1.52,1.67,1.66s-.8-.28-2-.9-2.66-1.28-3.62-1.66c-2.29-1-3.43-1.46-4.61-1.54-1.34-.09-2.46.17-2.94-.52A1,1,0,0,1,134.21,492.29Z"/>
    <path class="cls-10"
          d="M136.51,498c1.49.09,2.71.25,3.62.38a54.28,54.28,0,0,1,6.65,1.81,4.38,4.38,0,0,1,2.3,1.4c.18.23.81,1,.52,1.54-.1.16-.41.45-1.81.25-1.81-.25-2.71-.9-5.37-2.3-1.7-.9-2-1-3.84-1.92C137.73,498.75,137,498.35,136.51,498Z"/>
    <path class="cls-10"
          d="M114.27,502.9c-.5,0-.76,1.38-2.17,5.37-.9,2.53-1.35,3.81-1.81,4.86a13.14,13.14,0,0,0-1,2.81,9.83,9.83,0,0,0,.13,4c.62,2.76,2.37,5.73,3.19,5.49.44-.13.4-1.1.52-4.34.22-6.13.32-9.19.77-10.48.66-1.9,1.61-3.36,1.28-5.63C115.06,504.16,114.73,502.92,114.27,502.9Z"/>
    <path class="cls-8"
          d="M35.6,723.5c1,.2,2.27.44,3.84.64a54.77,54.77,0,0,0,8.31.38,33.48,33.48,0,0,0,8.43-1c1.25-.31,2.25-.45,2.94-.71"/>
    <path class="cls-8"
          d="M61.16,720.89a19.9,19.9,0,0,0,3.71,1.92,21.19,21.19,0,0,0,5.37,1.28,31.22,31.22,0,0,0,7.93,0"/>
    <path class="cls-2"
          d="M31.3,737.63A7,7,0,0,1,33,733.92a7,7,0,0,1,5-2.43,7.24,7.24,0,0,1,5.37,2.43,6.94,6.94,0,0,1,2,4,5.72,5.72,0,0,1-1,4.34c-1.09,1.32-2.57,1.59-4.34,1.92-2.42.44-4.52.83-6.39-.52C30.84,741.7,31.24,737.81,31.3,737.63Z"/>
    <path class="cls-2"
          d="M40.71,736.48a6.06,6.06,0,0,0,.52,4.73,6.43,6.43,0,0,0,3.07,2.71,10.61,10.61,0,0,0,4.09.64c2.49.12,3.74.17,4.61-.25a6.08,6.08,0,0,0,2.94-5.37,7.24,7.24,0,0,0-4.22-6.26C47.64,730.68,41.93,732.89,40.71,736.48Z"/>
    <path class="cls-2"
          d="M51.21,742.22a6.82,6.82,0,0,0,3.62,2,16.73,16.73,0,0,0,4.09.38c3.82.12,4.58-.18,5-.38a5.6,5.6,0,0,0,2.3-2,6.61,6.61,0,0,0,.64-4.61,8.7,8.7,0,0,0-2.94-6.13,8.06,8.06,0,0,0-6-1.54C52.36,731,49.06,739.19,51.21,742.22Z"/>
    <path class="cls-2"
          d="M73.31,740.18c.24.9,2.33,1.33,6.51,2.17a47.86,47.86,0,0,0,6.39.9c4.37.3,5.77-.24,6.39-.52a5.65,5.65,0,0,0,2.81-2.17c1.63-2.71-.4-6.08-.52-6.26a7.24,7.24,0,0,0-3.07-2.71,8.51,8.51,0,0,0-4.86-.64c-1.12.13-3.06.52-7.16,3.19C75.88,736.77,72.93,738.71,73.31,740.18Z"/>
    <path class="cls-2"
          d="M75.87,729.32c.62-1.81,4.52-1.89,5.49-1.92a8.63,8.63,0,0,1,4.86,1,6.21,6.21,0,0,1,3.32,4.09c.35,2-.43,4.31-2,5.24-3.68,2.13-9.52-4.36-9.84-4.73C76.64,731.88,75.46,730.51,75.87,729.32Z"/>
    <path class="cls-2"
          d="M71.39,420c.27-.48,1.27,0,3.45-.52a18.53,18.53,0,0,0,4.34-2c1.75-1,1.81-1.11,3.32-1.92a21.45,21.45,0,0,1,3.19-1.4,16.29,16.29,0,0,1,2.42-.64c.45-.08,1.09-.17,2.17-.38a4,4,0,0,0,1.54-.52,1.65,1.65,0,0,0,.9-1,1.26,1.26,0,0,0-.38-1.15c-.53-.46-1.4-.22-1.4-.25a3,3,0,0,1,1.92-.13A3.26,3.26,0,0,1,95,411.71a3,3,0,0,1,.25,1.4,1.56,1.56,0,0,1-.25,1c-.31.37-.77.36-.77.52s.4.17.9.38a5.49,5.49,0,0,1,1,.64,9.39,9.39,0,0,1,2.17,2.71,14.78,14.78,0,0,1,1.54,5.75,15.76,15.76,0,0,1-.38,5.49,14.72,14.72,0,0,1-1.15,3.07c-1.72,3.29-4.33,4.92-4.09,5.24s1.2-.34,1.28-.38a3.3,3.3,0,0,0,1-.77c.62-.71.62-1.42.77-1.4a3.85,3.85,0,0,1,.25,2.17,5.86,5.86,0,0,1-.9,2.94A5.73,5.73,0,0,1,95.17,442,12.27,12.27,0,0,1,93,443.19c-.32.14-.78.34-.9.38-1.89.64-6.26-8.64-12.67-15.38C75.34,423.89,70.79,421.06,71.39,420Z"/>
    <path class="cls-2"
          d="M65.89,419.37c-.31-.66-1.81-.05-4.61-1.15a18.39,18.39,0,0,1-4-2.3c-1-.71-2.1-1.54-4.22-3.19a24.73,24.73,0,0,0-3.62-2.56A8.35,8.35,0,0,0,46.93,409a3.32,3.32,0,0,1-1.28-.38,3.14,3.14,0,0,1-.9-.77,2.06,2.06,0,0,1-.64-1.28,1.48,1.48,0,0,1,.64-1.28c.56-.34,1.26-.05,1.28-.13a2.71,2.71,0,0,0-1.67-.52,3.8,3.8,0,0,0-2.71,1,3,3,0,0,0-.9,1.54,1.76,1.76,0,0,0,0,1c.32.86,1.46,1.06,1.4,1.28s-.66.13-.9.13a7.59,7.59,0,0,0-3.32.9,9.16,9.16,0,0,0-4,3.84,12.5,12.5,0,0,0-1.54,3.84,14.13,14.13,0,0,0-.25,4,16.18,16.18,0,0,0,1,5.37c.41,1.07.55,1.62.9,1.92.09.07.29.24.25.38s-.08.18-.9.25a3.62,3.62,0,0,1-1.28,0A2,2,0,0,1,30.89,429c-.15-.43-.05-.75-.13-.77a2.61,2.61,0,0,0-.52,1.66,3.84,3.84,0,0,0,.52,2,3.17,3.17,0,0,0,1,1.15,5,5,0,0,0,2,.52,1.61,1.61,0,0,1-1.67.13c-.46-.25-.57-.69-.77-.64s-.25,1.06-.25,1.28a3.62,3.62,0,0,0,.38,1.81,3.23,3.23,0,0,0,1.4,1.28c2,1.07,5,.2,5.24.13,7.24-2.2,16.61-8.82,16.61-8.82C62.56,423.29,66.43,420.48,65.89,419.37Z"/>
    <path class="cls-5"
          d="M43.15,425.38a29.49,29.49,0,0,1,5.63-3.62,33.17,33.17,0,0,1,10.74-3.32,34.18,34.18,0,0,1,7.93,0,30.75,30.75,0,0,1,10.74,2.43,26.72,26.72,0,0,1,9,6.9A29.67,29.67,0,0,1,92,435.18a35.12,35.12,0,0,1,2.81,9.46,50.82,50.82,0,0,1,.38,12.4,9.18,9.18,0,0,0-.13,1.54,3.08,3.08,0,0,0,.13,1.15,2.46,2.46,0,0,0,1,1.28,2.71,2.71,0,0,0,2.17.13,3.17,3.17,0,0,0,2.3-2c.13-.65-.17-1.2,0-1.28s.62.47.9.9a6.13,6.13,0,0,1,.9,3.07,6.33,6.33,0,0,1-.38,2.56,5.16,5.16,0,0,1-1.54,2.3c-1.26,1-2.71,1-2.71,1.15s.9.32,1.81,0c1.08-.39,1.39-1.27,1.67-1.15s.13,1.86-.52,3.32a8.07,8.07,0,0,1-1.4,2.17,7.55,7.55,0,0,1-3.32,2.17,16.65,16.65,0,0,1-2.94.38,2.61,2.61,0,0,0,1.67.25c1.15-.11,1.74-.68,1.92-.52s-.44,1.57-1.54,2.81a10.71,10.71,0,0,1-7.41,3.71,3.53,3.53,0,0,0-.64,0,4.24,4.24,0,0,0,1.81.25c1.33-.08,2.05-.79,2.17-.64s-1,1.56-2.71,2.71A17.76,17.76,0,0,1,86,484.54c-2.71,1.28-3.07,1.17-4.73,2a27.39,27.39,0,0,0-3.19,2c-1.65,1.17-1.7,1.38-3.07,2.3a12.3,12.3,0,0,1-3.62,1.92,10,10,0,0,1-4,.25,15.63,15.63,0,0,1-4.73-1.28,31.48,31.48,0,0,1-3.29-1.67c-3-1.61-2.93-1.81-4.73-2.71a35,35,0,0,0-5.11-2,36.37,36.37,0,0,0-4.09-1c-1.4-.25-1.57-.2-3.19-.52a15.64,15.64,0,0,1-3.84-1,9.23,9.23,0,0,1-2.56-1.66,10,10,0,0,1-1.67-2c-.77-1.2-.82-1.35-.77-1.4s.24,0,.52.13a6.21,6.21,0,0,0,1.54.25,3.22,3.22,0,0,0,2.17-.52,13.58,13.58,0,0,0-2.3,0,12.6,12.6,0,0,1-4.86-.9A8.3,8.3,0,0,1,27,474.12c-1.16-1.52-1.81-3.62-1.4-3.84.09-.05.19,0,.52.13a9.83,9.83,0,0,0,2,.52,3.24,3.24,0,0,0,2.17-.38c0-.11-.9.06-2,0A8.74,8.74,0,0,1,22,467.6a8.91,8.91,0,0,1-1.4-2.94c-.42-1.25-.73-2.86-.52-2.94s.16.13.38.38a6.23,6.23,0,0,0,1.81,1.54,3.79,3.79,0,0,0,1.81.38,2.44,2.44,0,0,0,1.28-.25,13,13,0,0,0-1.54-.13,6.72,6.72,0,0,1-4.09-2.56,7.08,7.08,0,0,1-1.4-4.47,6.08,6.08,0,0,1,.52-2.56,5.72,5.72,0,0,1,2.3-2.56c.7-.4,1.47-.62,1.54-.52s-.21.19-.38.52a1.73,1.73,0,0,0-.13,1.15,2.23,2.23,0,0,0,1,1.4,2.92,2.92,0,0,0,1.4.38,4,4,0,0,0,2.42-.25,3.62,3.62,0,0,0,1.54-1.66,5.47,5.47,0,0,0,.38-1.15c.24-.86.52-1.7.77-2.56a68.34,68.34,0,0,1,5.11-12.4C37.15,432.24,39.1,428.68,43.15,425.38Z"/>
    <path class="cls-1"
          d="M36.37,478.93c-.11.19.5.76,1,1.15a8,8,0,0,0,4.22,1.54,61.8,61.8,0,0,1,7,1.28,29.63,29.63,0,0,1,9,4,36.06,36.06,0,0,0,5.24,3.19,14,14,0,0,0,4.86,1.4,11.89,11.89,0,0,0,5.11-.9c1.65-.62,3.39-1.86,6.9-4.34a19.3,19.3,0,0,1,3.07-1.92A32.13,32.13,0,0,1,86.06,483c1.57-.55,2.71-.84,2.71-1s-.53,0-1.4-.25a4.89,4.89,0,0,1-1.54-.64c-.79-.52-1.57-1.38-1.4-1.66s.83.1,1.81.25a8.14,8.14,0,0,0,3.84-.38c3.07-.9,5.16-3.32,5-3.62-.05-.08-.3.11-.9.13a3.37,3.37,0,0,1-1.81-.52c-.38-.22-1.4-.9-1.28-1.28s1.19-.05,2.71-.25a8.92,8.92,0,0,0,3.62-1.4c2.08-1.43,3.19-3.73,2.94-4-.08-.07-.25.13-.77.25a3.3,3.3,0,0,1-2-.25c-.07,0-1.5-.65-1.4-1.15.06-.33.7-.33,1.54-.64a5.94,5.94,0,0,0,2.56-1.92c1.26-1.66,1.19-4.08.77-4.22-.13,0-.23.17-.64.52a4.12,4.12,0,0,1-2.81,1,3.27,3.27,0,0,1-1.92-.9,4.24,4.24,0,0,1-1-2.94,11.38,11.38,0,0,1,.13-1.92s.08-1,.13-3.07a43,43,0,0,0-.52-7,31.92,31.92,0,0,0-1.81-6.65,33.85,33.85,0,0,0-14.48-16.23,31.46,31.46,0,0,0-20.58-2.94,25,25,0,0,0-8.7,3.07c-4.13,2.46-6.61,5.72-9.84,10a44.87,44.87,0,0,0-4,5.88,50.2,50.2,0,0,0-4.47,11c0,.1-.32,1-.9,2.94a3,3,0,0,1-.38.9A3.46,3.46,0,0,1,27,455.34a5.34,5.34,0,0,1-2.42,0,3.76,3.76,0,0,1-1.92-.77c-.85-.73-.64-1.75-1-1.81s-1.06,1.29-1.28,2.43a5.61,5.61,0,0,0,.13,2.81,6.12,6.12,0,0,0,2.56,3.19,4.36,4.36,0,0,0,2.42,1c1.39,0,2.32-.9,2.56-.64s-.36,1.09-.77,1.54a4.31,4.31,0,0,1-1.4,1,4.68,4.68,0,0,1-2.17.52c-1.07,0-1.63-.45-1.81-.25s1,1.81,1.15,1.92a9.51,9.51,0,0,0,3.07,2.3,7.89,7.89,0,0,0,3.84.9c1.55-.07,2.37-.67,2.56-.38s-.76,1.64-2,2.17a3.51,3.51,0,0,1-2,.25c-.71-.14-1.15-.52-1.28-.38s.47,1.06.64,1.28a8.15,8.15,0,0,0,2,2,9.24,9.24,0,0,0,3.62,1.4c1.47.3,1.5,0,3.84.38,1.67.26,1.15.33,2.42.52.71.1,1.19.13,1.28.38s-.58.9-.77,1A4.07,4.07,0,0,1,38,479C37,479.07,36.46,478.77,36.37,478.93Z"/>
    <path class="cls-6"
          d="M73.18,455a17.41,17.41,0,0,0,1.15-3.19c.7-2.66.52-2.33.77-3.07a9.24,9.24,0,0,1,1.81-3.62,4.6,4.6,0,0,1,2.71-1.81c1.4-.2,2.56.65,3.71,1.54a16.7,16.7,0,0,1,3.84,4.61c.47.71,1.21,2,2.71,4.61,1.38,2.43,1.7,3.07,1.92,4.09a8.14,8.14,0,0,1,0,3.71,8.88,8.88,0,0,1-2.3,4,8.25,8.25,0,0,1-3.07,2.43,6.54,6.54,0,0,1-4.34.38,27.84,27.84,0,0,1-2.94-1.54,15.39,15.39,0,0,0-2.17-1,10.12,10.12,0,0,0-4.22.25c-.9.17-1.55.35-2.17,0a3,3,0,0,1-.9-1c-.9-1.33-1-2-1.4-2s-.85.7-1.28,1.28c-1,1.36-2.32,1.81-4.86,2.81a15.62,15.62,0,0,1-5.75,1.15,14.73,14.73,0,0,1-7.28-1.92c-1.68-1-4-2.3-5.11-5.11a9.5,9.5,0,0,1,0-6.26,13.42,13.42,0,0,1,4.86-6.65c2.25-1.81,2.18-.9,9-4.34a18.1,18.1,0,0,1,6.9-2.43,6.63,6.63,0,0,1,3.62.38c2,.9,2.84,2.9,3.45,4.34a13.3,13.3,0,0,1,1,5c.06,2.46-.52,4.41-.25,4.47S72.93,455.61,73.18,455Z"/>
    <path class="cls-2"
          d="M46.34,455.77a6.33,6.33,0,0,0-.13,3.32A6.74,6.74,0,0,0,48,462.15a10.58,10.58,0,0,0,3.71,2.56,12.58,12.58,0,0,0,6.51.77A14.48,14.48,0,0,0,64,463.57a10.68,10.68,0,0,0,3.19-2.71,10.5,10.5,0,0,0,1.92-4.22,10.77,10.77,0,0,0,.25-4.22c-.2-1.38-.55-3.8-2.56-5.24a6.64,6.64,0,0,0-4.47-1,14.45,14.45,0,0,0-4.47,1.54c-2.21,1-2.13,1.07-5,2.43s-3.54,1.54-4.47,2.43A7.19,7.19,0,0,0,46.34,455.77Z"/>
    <path class="cls-1"
          d="M56.05,456.18c.19-.62.85-.9,2.17-1.4a6.28,6.28,0,0,1,2.71-.64,3.12,3.12,0,0,1,1.92.52,2.52,2.52,0,0,1,1,1.66,2.72,2.72,0,0,1-.52,1.81,3.8,3.8,0,0,1-1.92,1.54,4,4,0,0,1-2.56,0,4.15,4.15,0,0,1-2.3-1.66A2.24,2.24,0,0,1,56.05,456.18Z"/>
    <path class="cls-2"
          d="M75.1,454.78a16.92,16.92,0,0,1,1.15-3.07,8.35,8.35,0,0,1,1.81-2.94,3.8,3.8,0,0,1,1.54-1,3.94,3.94,0,0,1,2.56.13,6.63,6.63,0,0,1,2.3,1.54,13,13,0,0,1,1.92,2,20.48,20.48,0,0,1,1.54,2.71c.85,1.63.75,1.64,1.4,2.81a10.46,10.46,0,0,1,1,1.92,4.63,4.63,0,0,1,.13,2.71,4.88,4.88,0,0,1-1.4,2.17,8,8,0,0,1-2.42,1.66,7,7,0,0,1-2.81.9,6.73,6.73,0,0,1-3.07-.64,10.08,10.08,0,0,1-3.07-1.92,8.65,8.65,0,0,1-2.3-3.07A9.26,9.26,0,0,1,75.1,454.78Z"/>
    <path class="cls-1"
          d="M79.31,458.1c0-.52.4-.9,1.15-1.54a4,4,0,0,1,1.92-1.15,2.24,2.24,0,0,1,1.54.13,2.44,2.44,0,0,1,1,1.28,2,2,0,0,1,.25,1,2.34,2.34,0,0,1-1,1.54,2.92,2.92,0,0,1-4,.13A1.94,1.94,0,0,1,79.31,458.1Z"/>
    <path class="cls-7"
          d="M77.91,477.15c.15.33-.38.9-1.15,1.66-1,1-1.19.9-2.17,1.92-.31.31-1,1-1.81,1.92l-.4.45c0-.47-.06-1-.11-1.47a6.21,6.21,0,0,0-.64-2.56,5.77,5.77,0,0,0-2.3-2.3,5.09,5.09,0,0,0-.52-.25c.85-.45.9-1,1.92-1.15a4.42,4.42,0,0,1,2.3.25c1.45.46,1.47,1,2.71,1.28S77.74,476.79,77.91,477.15Z"/>
    <path class="cls-18"
          d="M72.39,483.08a1.81,1.81,0,0,1-.36.32,3.42,3.42,0,0,1-2.3.38,6.79,6.79,0,0,1-3.19-1.15,7.75,7.75,0,0,1-2.3-2.81c-1.12-1.94-1.89-4.28-1.54-4.47.17-.09.41.41,1.15.9a5.27,5.27,0,0,0,4.73.38l.25-.13a5.09,5.09,0,0,1,.52.25,5.77,5.77,0,0,1,2.3,2.3,6.21,6.21,0,0,1,.64,2.56C72.34,482.12,72.38,482.62,72.39,483.08Z"/>
    <path class="cls-8"
          d="M72.39,483.08a1.81,1.81,0,0,1-.36.32,3.42,3.42,0,0,1-2.3.38,6.79,6.79,0,0,1-3.19-1.15,7.75,7.75,0,0,1-2.3-2.81c-1.12-1.94-1.89-4.28-1.54-4.47.17-.09.41.41,1.15.9a5.27,5.27,0,0,0,4.73.38l.25-.13c.85-.45.9-1,1.92-1.15a4.42,4.42,0,0,1,2.3.25c1.45.46,1.47,1,2.71,1.28s2-.09,2.17.25-.38.9-1.15,1.66c-1,1-1.19.9-2.17,1.92-.31.31-1,1-1.81,1.92Z"/>
    <path class="cls-8"
          d="M68.84,476.51a5.09,5.09,0,0,1,.52.25,5.77,5.77,0,0,1,2.3,2.3,6.21,6.21,0,0,1,.64,2.56c0,.5.1,1,.11,1.47"/>
    <path class="cls-19"
          d="M72.41,475.86a3.25,3.25,0,0,0,.38,1.66,3.37,3.37,0,0,0,1.54,1.4,4.24,4.24,0,0,0,2.94.25,4.53,4.53,0,0,0,2-1.15,4.8,4.8,0,0,0,.9-1.28,5.56,5.56,0,0,0,.52-2.94"/>
    <path class="cls-19"
          d="M58.61,473.69c.13-.06.9-.49,1.4-.13a1,1,0,0,1,.25.38,6.47,6.47,0,0,1,.38,1.4,4.9,4.9,0,0,0,.38.9,4.59,4.59,0,0,0,1.67,1.66,7,7,0,0,0,3.07,1,8.73,8.73,0,0,0,3.07-.13,6.65,6.65,0,0,0,2.71-1.15,6.48,6.48,0,0,0,2-2.71,7.76,7.76,0,0,0,.64-2.71,8.84,8.84,0,0,0-.13-2.3"/>
    <path class="cls-2"
          d="M68.84,466.53a5.9,5.9,0,0,0,0,1.54c0,.9.05,1,.13,1.15a1.57,1.57,0,0,0,1,.9c2.42.64,7.94,0,8.14-.13a2.77,2.77,0,0,0,.52-.25c.71-.47.57-2.33.52-3.07a1.51,1.51,0,0,0-.25-.9,1.64,1.64,0,0,0-1.15-.52,33.47,33.47,0,0,0-8.43.25A1.55,1.55,0,0,0,68.84,466.53Z"/>
    <path class="cls-1"
          d="M71.26,466.15a11.06,11.06,0,0,1,1.92-.38,17.5,17.5,0,0,1,2.81-.13,5.57,5.57,0,0,1,1.92.38c.35.14.78.32.77.52s-1.36.53-2,.64a15.9,15.9,0,0,1-3.45.13c-.23,0-3.06-.24-3.07-.64C70.11,466.5,70.58,466.35,71.26,466.15Z"/>
    <path class="cls-10"
          d="M31.57,737.56c-.42-1,.5-2.19,1.15-3.07a6.06,6.06,0,0,1,2.94-2.3,6,6,0,0,1,3.71,0c.24.06,2.43.69,2.42,1.54,0,.41-.52.47-1,1.15-.75,1-.32,1.72-.77,2.56-1,1.81-4.73,1.46-5.24,1.4C33.59,738.72,32,738.57,31.57,737.56Z"/>
    <path class="cls-10" d="M41.42,736.27"/>
    <path class="cls-10"
          d="M41.42,736.92c-.16-1,.71-1.94,1.81-3.07a8.36,8.36,0,0,1,2.3-1.92,7.24,7.24,0,0,1,5.11-.52c.65.17,2.71.71,2.94,1.92.13.69-.5.9-.77,2.17-.32,1.48.38,2,0,2.71s-1.32.6-5.24.77c-2.87.13-3.9.25-5-.52A2.5,2.5,0,0,1,41.42,736.92Z"/>
    <path class="cls-10"
          d="M54.2,735.13a3.85,3.85,0,0,1,1-2.81,6.59,6.59,0,0,1,3.84-2.17,5.64,5.64,0,0,1,7.28,3.19c.56,1,1.31,2.35.77,3.45-.4.81-1.29,1.07-2.42,1.4-1.75.52-3.15.4-5.88.13-2-.2-2.56-.41-3.07-.77A3.62,3.62,0,0,1,54.2,735.13Z"/>
    <path class="cls-10"
          d="M85.9,731.43c.64-.64,1.62-.52,3.45-.25s2.93.41,4,1.15A9.43,9.43,0,0,1,95.48,735c.45.68.57,1,.52,1.28-.2,1-2.24,1.38-2.42,1.4-1.86.3-3.37-.52-5-1.4s-3-1.62-3.19-2.94A2.38,2.38,0,0,1,85.9,731.43Z"/>
    <path class="cls-10"
          d="M80.79,727.72c0-.24,1.54-.67,3.19-.38a7.61,7.61,0,0,1,2.94,1.28c.23.14,1.25.8,1.15,1s-.36,0-.9,0c-1-.05-1.27.22-2.71.25-.81,0-1.09-.05-1.28-.25s-.13-.46-.25-.77C82.56,727.91,80.79,728,80.79,727.72Z"/>
    <g class="cls-20">
        <path class="cls-1"
              d="M31.07,494.67a7.43,7.43,0,0,1,3.84-.25,7.85,7.85,0,0,1,3.71,2c1.89,1.68,2.71,3.51,3.71,5.88a26.7,26.7,0,0,1,2.3,8.7c.27,3.28-.14,6.26-.38,6.26s-.14-1-.64-2.56-1.31-3.27-1.54-3.19.11,1.06.25,2.43a18.46,18.46,0,0,1-.25,5.37c-.33,1.88-1,3.45-2.42,6.51C36.36,533,35.32,533.09,35,533c-.44-.05-.52-.44-1.4-1.4A15.85,15.85,0,0,0,30,528.8a10.86,10.86,0,0,0-6.13-1,12.44,12.44,0,0,0-8.95,6c-.3.52-1,1.81-.77,1.92s.33-.2.9-.52a3.78,3.78,0,0,1,1.54-.52,6.1,6.1,0,0,0-1.54.77,4.73,4.73,0,0,0-1,1,4.61,4.61,0,0,0-.52.9,5.87,5.87,0,0,0-.38,1.92c-.08.82-.13,1.23,0,1.28a13.79,13.79,0,0,0,1.4-1.81,9.37,9.37,0,0,1,3.19-2.3,18.83,18.83,0,0,1,5-1.81,11.55,11.55,0,0,1,4-.38,28.73,28.73,0,0,1,3.19.64c.62.14.9.26,1.54.38s1.13.14,1.15.25a23.3,23.3,0,0,1-2.3,1A9.78,9.78,0,0,0,27,539.37a13.41,13.41,0,0,0-2.42,4.34c-.52,1.52-1.49,4.43-.38,7.28.46,1.19,1.09,1.86.77,2.43s-1.19.51-3.45.38a63,63,0,0,1-6.65-.52A20.69,20.69,0,0,1,10.47,552c-2.33-1-2.86-1.81-3.07-2.17A4.31,4.31,0,0,1,7,547.13c.32-2.14,1.94-3.28,1.66-3.62s-1.2.22-1.92.9-.9,1.44-1,1.4a11.89,11.89,0,0,1,1-5.63,26.81,26.81,0,0,1,2.17-3.84c1-1.66,1.89-2.86,2-3.07a108.52,108.52,0,0,0,6-9.72,72.44,72.44,0,0,0,5.88-13.67c.9-2.93.83-3.44,1.81-6C26.3,499.71,27.76,495.91,31.07,494.67Z"/>
        <path class="cls-1"
              d="M19.54,531.28a6.58,6.58,0,0,1,2.71-1.4,9,9,0,0,1,3.19-.52,9.53,9.53,0,0,1,4.47,1.4c.85.46,1.86,1.14,1.81,1.28s-1.5-.66-3.71-1.15a15.68,15.68,0,0,0-5.49-.25C20.72,530.87,19.62,531.42,19.54,531.28Z"/>
        <path class="cls-1"
              d="M26.85,546.49a13.14,13.14,0,0,1,1.67-4.61,10.21,10.21,0,0,1,2.81-3.32,15.16,15.16,0,0,1,3.32-1.66c.81-.33,1.57-.65,1.67-.52s-1.13,1-2.42,2.3a15.39,15.39,0,0,0-2.81,4,12.67,12.67,0,0,0-1.4,5.11c0,1.06-.14,3.45.52,4.47,0,.07.23.33.13.52s-.32.17-1.4.13c-.9,0-1-.06-1.15-.13a1.81,1.81,0,0,1-.64-1.4A19.8,19.8,0,0,1,26.85,546.49Z"/>
        <path class="cls-1"
              d="M50.37,490.76c-.38.33.37,1.81,1.28,3.62a28.21,28.21,0,0,0,2.56,4.22c1.11,1.53,3.43,4.41,4,4.09.15-.09,0-.37,0-1.15a7.66,7.66,0,0,1,.52-3.45c.7-1.43,1.9-1.59,1.81-2.3-.07-.46-.62-.72-1.67-1.15-2.07-.86-3.32-1.24-4.09-1.54C51.86,492,50.78,490.4,50.37,490.76Z"/>
        <path class="cls-1"
              d="M77,492.55c-.12-.47.45-1,.52-1,.44-.38.75-.23,1.28-.52.9-.48,1-1.45,1.28-1.4s.51,1.81.52,2c.11,2.43-.48,4.76-.77,4.73-.09,0-.05-.26-.25-.9a4.25,4.25,0,0,0-1.15-2C77.67,492.86,77.06,493,77,492.55Z"/>
        <path class="cls-1"
              d="M39.37,492.8c.22-.38.85-.14,2.17-.38,2.22-.41,2.78-1.54,3.84-1.28.9.21,1.28,1.17,1.92,2.56a62.9,62.9,0,0,0,3.45,6.51,17.53,17.53,0,0,0,5,5c3,2.12,6.33,3.19,6.65,2.71.07-.11-.05-.23-.64-1.66-.41-1-.46-1.22-.38-1.28a6.26,6.26,0,0,1,1.28.9c2,1.47,4,1.06,4.22,1.92.06.33-.24.38-.38,1a3.31,3.31,0,0,0,.64,2.43,4.8,4.8,0,0,0,2.56,1.92c1.18.38,1.36,0,2.17.25s1.47,1,3.45,6c.5,1.27.75,1.9,1,2.71A36.45,36.45,0,0,1,78,528.41a11.18,11.18,0,0,1,.38,3.45,2,2,0,0,1-.38,1.28,2.42,2.42,0,0,1-3.19,0,2.17,2.17,0,0,1-.52-1.4,22.62,22.62,0,0,0-1.81-6.39,12,12,0,0,0-2.71-3.71,15.81,15.81,0,0,0-4.61-3.32A13.18,13.18,0,0,0,60.67,517a14.65,14.65,0,0,0-5.49.64A11.66,11.66,0,0,0,51.73,519c-3.1,1.94-4,5.51-4.34,5.37s.33-1.58.52-3.71a17.56,17.56,0,0,0-.25-4.34,51.7,51.7,0,0,0-2.3-9.58,26.93,26.93,0,0,1,1.15,8.05c0,2-.33,4.09-.64,4.09s-.25-3.09-1.54-7.41a21.86,21.86,0,0,0-2.71-6.26c-2.5-3.79-5.54-5.11-5.24-5.63s2.71.06,4.34,1.66c1.48,1.42,1.62,3,1.92,2.94.5-.11,1-4.58-1.28-8.05C40.41,494.48,39,493.43,39.37,492.8Z"/>
        <path class="cls-1"
              d="M74,506.6c0,.62.9.81,1.15,1.92.17.81-.24,1.16-.25,2a4.34,4.34,0,0,0,1.15,2.71c1.09,1.47,1.67,3.15,2.81,6.51,1.28,3.77,1.92,5.66,1.81,8.14a4.23,4.23,0,0,0,.64,3.19,3.62,3.62,0,0,0,2.3,1,18.81,18.81,0,0,0,6.26-.13c2.94-.43,4.44-.67,6.13-1.54,1.39-.71,2.3-1,2.81-1.92a4.41,4.41,0,0,0,.38-2.71,47.05,47.05,0,0,0-1.15-7.41c-.9-3.85-.63-3-1-4.61a67,67,0,0,0-4-11.76c-1.38-3-1.26-2.1-2.56-5-.68-1.5-1.38-3.24-2.71-4.09a9.78,9.78,0,0,0-1.92-.9c-.62-.22-.9-.33-1.15-.25-.78.27-.64,2-.9,4.22s-.46,3.85-1.4,5.24c-1.16,1.68-3.08,2.53-4.86,3.32S74.07,505.82,74,506.6Z"/>
        <path class="cls-1"
              d="M54.58,556.07c-.06.44,1.61,1,3.32,1.66a38.92,38.92,0,0,0,4.73,1.4c5.1,1.06,11.57,1.76,11.63,1.4s-2.71-.9-4-1.15a29.58,29.58,0,0,1-3.19-.64,39.91,39.91,0,0,1,4.34-.25c3.15-.18,4-.4,4.34-1s.12-.9,0-2a21.1,21.1,0,0,1,.25-4.61c.41-3.57,1.33-5.12.9-5.37s-1.49,1.28-3.71,3.19a27.93,27.93,0,0,1-4.61,3.19,27,27,0,0,1-10,3.62C56.38,555.73,54.65,555.63,54.58,556.07Z"/>
        <path class="cls-1"
              d="M47.43,559.78c0,.2,2.71,1,4.61,1.4a70.26,70.26,0,0,0,8.56,1.54c6,.68,11.62.73,11.63.52s-4.82-.26-12.4-1.66c-.75-.14-3.7-.69-7.67-1.28C49.79,559.93,47.46,559.6,47.43,559.78Z"/>
        <path class="cls-1"
              d="M80,542.4c.43-.24.73-.07,2.3.25a33.23,33.23,0,0,0,5.63.77,11.39,11.39,0,0,0,5.49-.77c1.19-.55,1.81-1.18,2.42-.9s.65,1.09.9,3.07a36,36,0,0,0,1,6.13,10.68,10.68,0,0,0,1.54,3.32c.79,1.07,1.35,1.31,1.4,2,.11,1.32-1.54,2.45-2,2.81-1.31.9-2.65,1.24-5.11,1.54-3.18.38-7.51.62-7.54.25,0-.17,1.39-.11,3.45-.9a14.18,14.18,0,0,0,6.13-5.24c.56-.9.64-1.23.52-1.4-.31-.4-1.68.24-3.62,1,0,0-3.35,1.37-7,2.43-4.31,1.24-5.15.77-5.49.38a2.47,2.47,0,0,1-.38-1.66c-.06-1.87-.4-3.75-.38-5.63C79.3,543.74,79.26,542.79,80,542.4Z"/>
        <path class="cls-1"
              d="M107.5,518.49c-.31,0-.5,2.15-.52,2.3a12.73,12.73,0,0,0,.13,3.07,13.23,13.23,0,0,0,1,3.62c.09.19,1.57,3.42,2.56,3.19.26-.06.47-.43.9-1.15a2.89,2.89,0,0,0,.52-1.15c.05-.9-1.35-1.51-2.17-2.17C107.07,523.88,108,518.48,107.5,518.49Z"/>
        <path class="cls-1"
              d="M105.07,526.8c-.35,0-.52,1.13-.64,1.92a13.33,13.33,0,0,0,0,4c.28,1.81.9,4,1.28,4,.17,0,.08-.57.38-1.54.5-1.62,1.28-1.81,1.4-2.81.06-.53-.13-.64-1-2.71S105.37,526.77,105.07,526.8Z"/>
        <path class="cls-1"
              d="M128.33,524.53c-.2,0-.54.9-.9,1.92s-.36,1.23-.64,2c-.6,1.75-1.18,2.44-1,2.56s1.37-.75,2-2a6.44,6.44,0,0,0,.64-2.56C128.52,525.72,128.55,524.53,128.33,524.53Z"/>
        <path class="cls-1"
              d="M127.82,532.3c-.18-.07-.44.54-1.67,1.92a10.14,10.14,0,0,0-1,1.15c-.52.9-.3,1.57-.38,3.07a11.06,11.06,0,0,1-.64,3.32,10.31,10.31,0,0,1-1.81,2.81,10.32,10.32,0,0,0,3.19-3.62,18.46,18.46,0,0,0,1.72-4.65C127.41,535.39,128.2,532.44,127.82,532.3Z"/>
        <path class="cls-1"
              d="M93.06,495.58c.26-.16,1.81,1.88,2.42,2.71a37.57,37.57,0,0,1,2.3,3.45c2.61,4.26,2,3.18,3.32,5.37,3.06,5.1,2.76,5,3.45,5.63s2,1.51,1.92,2.56c0,.3-.14.3-.52,1a11.68,11.68,0,0,0-1,2.94c-.13.6-.08.58-.25,1.4a10.32,10.32,0,0,1-.52,1.81c-.33.83-.52,1.25-.77,1.28s-.67-.17-1.67-2.94a30.51,30.51,0,0,1-1.28-4.47s-.19-1.07-1.92-7.8C96.58,500.85,92.64,495.87,93.06,495.58Z"/>
    </g>
    <path class="cls-11"
          d="M35.16,598.5c1.39-.43,1.81.78,6.78,1.66a20.14,20.14,0,0,0,8.95.13A15.12,15.12,0,0,0,57,597.22c5.12-4.33,6.19-11.76,6.39-13.17.45-3.16.24-6,1.81-6.65.82-.33,1.29.29,3.19.38,2.71.13,3.55-1,4.73-.64s1.81,2.09,2.42,7.93c.68,6.33,1,9.58.38,14.19a40.67,40.67,0,0,1-2,7.67c-.58,1.81-1.09,3.09-1.67,3.07s-.67-1.22-1.4-2.71c-1.38-2.71-4.06-4.8-4.86-4.34s.05,3,.52,4.73c1,3.76,1.21,8.3,1.67,17.38.41,8.28-1.3,14.48-4.73,27-.64,2.33-2.09,6.2-5,13.93a30.4,30.4,0,0,1-2.94,5.75c-2.52,3.88-4.34,4.75-4.86,5-.72.32-2.95,1.31-5,.38-1.17-.53-2-1.58-3.19-4.61a39,39,0,0,1-2.3-8.14c-.62-4.58-2.1-9-2.94-13.57-2.94-16-4.12-15.75-5.24-24.43C30.54,615.5,30.4,600,35.16,598.5Z"/>
    <path class="cls-11"
          d="M38.87,581.12c.9-.4,1.37.27,3.45.64a12.93,12.93,0,0,0,6.26-.52c1.4-.47,4.11-1.38,5.63-3.84,1.13-1.81,1-3.53,2.3-4,.6-.2.77.12,2.42.13s2.16-.31,2.56,0c.74.59.13,2.52-.38,4.09-1.94,5.9-2.91,8.87-3.71,10.1-1.55,2.4-2.71,4.17-5,5.24-1,.45-2,.71-7,.52-6.6-.26-9.91-.43-10.48-1.92-.33-.85.41-1.17,1.54-4.22C37.88,583.48,37.54,581.7,38.87,581.12Z"/>
    <path class="cls-11"
          d="M78.62,575.75c-.77,1.09.42,2.34,1.15,5.88a28.86,28.86,0,0,1,.38,6.9c-.07,5.43-1,8.3-.25,8.56s2-1.87,2.42-2.56a18.78,18.78,0,0,0,2.56-7.41c.65-4.59-.71-4.82-.64-10a2.24,2.24,0,0,0-.38-1.4C82.82,574.39,79.58,574.39,78.62,575.75Z"/>
    <path class="cls-11"
          d="M89,579.33a55.87,55.87,0,0,1-.77,12.14c-.45,2.57-1.15,6.54-4.22,9.2-1.89,1.64-3.57,1.81-5.49,4.34a41.93,41.93,0,0,1-2.42,3.45c-1.48,1.75-2.21,2-2.17,2.81.06,1.67,3.48,2.79,4.34,3.07a12.13,12.13,0,0,0,5.24.52c3.62-.49,5.85-2.52,6-2.3s-1.81,2-4.61,3.84c-3.77,2.43-6.62,3.26-6.51,3.62s2.71,0,5.37-1c2.23-.83,3.32-1.7,3.62-1.4s-.83,2.24-2.56,3.62c-2.64,2-5.53,1.93-5.49,2.56s1.81.9,2.81,1a14.77,14.77,0,0,1,1.67.13c1.53.72.62,5.66.38,7-.43,2.58,0,7,.9,16S86.48,662.3,89.15,663c1.81.49,4.13-1.3,5.24-2.56a9.3,9.3,0,0,0,1.92-4c1.63-5.56,2.44-8.33,2.56-8.95,2.22-11.87,2.57-10.37,3.19-15.72s.54-9.33.38-16.36c-.31-13.57-1.1-12.11-.77-13.81a2.71,2.71,0,0,0-.25-2c-.6-.85-1.73-.78-2.56-1-2.06-.61-3-3.32-4.22-7.28s-2-6.24-2-9.72c-.05-2.66.32-4.8-.77-5.37a2.06,2.06,0,0,0-2.17.52A3.35,3.35,0,0,0,89,579.33Z"/>
    <path class="cls-11"
          d="M95.48,574.73c-.73,1.2.14,2.59,1,5.24a73.17,73.17,0,0,1,1.67,7.93c.67,3.17,1,4.76,2.42,6.13.65.63,1.81,1.47,2.3,1.15s-.06-2.09-.64-4.09c-.86-3-1.19-6.13-1.81-9.2-1.21-6.21-1.38-8-2.56-8.31A2.42,2.42,0,0,0,95.48,574.73Z"/>
    <path class="cls-11"
          d="M43.21,571.66c-1.12.58-1.51,2.12-1.92,3.71-.25,1-.37,1.49-.13,1.92.79,1.37,4.28.61,4.73.52,3.43-.74,6.74-3.12,6.39-4.22-.19-.59-1.27-.24-4.47-1C44.88,571.84,44.19,571.16,43.21,571.66Z"/>
    <path class="cls-11"
          d="M38.48,570.38c-.45-.24-3.62,4.25-6.13,9.2a70.51,70.51,0,0,0-6,18.15,75.72,75.72,0,0,0-2,14.57,86.53,86.53,0,0,0,.9,14.19c1,8.4,2.41,16,2.71,16s-1.44-8.49-1.4-20.58a100.62,100.62,0,0,1,1.92-21,124,124,0,0,1,5.63-18.78C36.67,575,38.91,570.61,38.48,570.38Z"/>
    <path class="cls-11"
          d="M36.95,682.88c-1.68.16-2.52,4.95-3.45,10.22-.9,4.9-1.29,7.36-1,10.35.47,5.12,2,4.43,3.07,11.25.49,3,.52,5.18,2.3,6.65.83.69,1.88.9,4,1.28a33.53,33.53,0,0,0,10,.38c4.42-.48,5.14-1.35,5.37-1.66,1-1.32.52-3.07.25-4.47-.68-3.62.43-1.95.25-12.27-.13-8.06-.77-6.63-.77-13.29,0-3.13.14-6.49-.64-6.65-.52-.11-.9,1.4-2.56,2.94a9.7,9.7,0,0,1-4.61,2.3,10,10,0,0,1-7-1.66C38.54,685.9,38.33,682.72,36.95,682.88Z"/>
    <path class="cls-11"
          d="M78,677.1c-1.31,3.62-3.19,5.14-5,7.54-1.93,2.56-3,5.71-5.11,12-3,8.85-1.33,8.21-3.62,12.79-1.39,2.83-3.16,5.43-2.17,7.93a6.33,6.33,0,0,0,2.17,2.56c1.66,1.36,3.45,1.76,7,2.56,1.81.42,2.35.4,2.81.13,1.38-.81,1.28-3.27,1.28-4.22,0-1.61,1.06-5.25,3.19-12.52,2.18-7.43,3.28-11.15,6.13-15.46,1.28-1.93,2.78-3.77,2.17-5.63-.66-2-3.1-1.71-5.11-4.34-2.23-2.92-1.67-6.5-2.42-6.51C78.87,673.9,78.56,675.49,78,677.1Z"/>
    <path class="cls-11"
          d="M72.22,659.86c-1,6-.71,5.55-1.15,7.41a43.43,43.43,0,0,1-4,10.1c-1.28,2.56-2.5,5.15-3.84,7.67a12.12,12.12,0,0,0-1.4,3.84,16.54,16.54,0,0,0,0,4.09c.3,5,.22,5.82.52,5.88s1-1.09,3.07-7c2.58-7.37,2.34-7.64,3.71-11,1.81-4.39,2.42-4.58,4.34-9.58,1.32-3.47,2-5.2,2-6.9.09-2.8-.78-3.62-1.28-9.33-.15-1.74-.17-2.8-.38-2.81C73.5,652.12,72.93,655.61,72.22,659.86Z"/>
</svg>