<svg id="Слой_1" data-name="Слой 1" xmlns="http://www.w3.org/2000/svg" viewBox="0 0 1000 618.77">
    <defs>
        <style>
            .cls-1,.cls-12,.cls-17,.cls-18{fill:#fff;}.cls-10,.cls-11,.cls-12,.cls-13,.cls-2,.cls-22,.cls-23,.cls-24,.cls-25,.cls-3,.cls-4,.cls-5,.cls-6,.cls-7,.cls-8,.cls-9{stroke:#000;stroke-width:3px;}.cls-2,.cls-6{stroke-miterlimit:10;}.cls-3{fill:#1f1923;}.cls-10,.cls-11,.cls-12,.cls-13,.cls-22,.cls-23,.cls-24,.cls-25,.cls-3,.cls-4,.cls-5,.cls-7,.cls-8,.cls-9{stroke-linecap:round;stroke-linejoin:round;}.cls-4{fill:#3b2d42;}.cls-5{fill:#282423;}.cls-6{fill:#acb5bf;}.cls-7{fill:#999;}.cls-8{fill:#edeaef;}.cls-10{fill:#f275a5;}.cls-11{fill:none;}.cls-13,.cls-14{fill:#d9d9d9;}.cls-15{fill:#380208;}.cls-16{fill:#6a0006;}.cls-17{opacity:0.2;}.cls-17,.cls-18{isolation:isolate;}.cls-18{opacity:0.05;}.cls-19{fill:#282828;}.cls-20{fill:#00597a;}.cls-21{fill:#2cacdc;}.cls-22{fill:#bfb095;}.cls-23{fill:#2d271f;}.cls-24{fill:#858a99;}.cls-25{fill:#0093aa;}
        </style>
    </defs>
    <title>dia4</title>
    <rect class="cls-1" width="1000" height="618"/>
    <path class="cls-2"
          d="M146.47,573.92c-1.12,2.61.24,3.77-1.21,12.79-.56,3.47-1.11,5.47-1.61,10.06-.7,6.38-.25,8.09.2,9.22a12.47,12.47,0,0,0,5.44,6.08,14,14,0,0,0,7.65,1.68c29.57-1.15,44.36-1.72,48.51-1a11.77,11.77,0,0,0,4,0c.78-.14,6.66-.57,9.06-3.56s2.77-6.23,2.62-10.48a17,17,0,0,0-2.82-9c-2.06-3.15-4.45-5.2-5.64-5.66-.75-.29-3.91-1.29-8.86,0-4,1-5.23,2.1-6.84,3.56-1.81-2.52-9.29-6.75-12.48-12.16C178.07,564.47,150.79,563.85,146.47,573.92Z"/>
    <path class="cls-2"
          d="M83.3,578.74c-.43.52-2.87,5-7.76,14-5.68,10.48-5.94,11.21-5.66,12.37,1.86,7.82,21.29,6.07,43,8.59,1.32.15,4.73.56,7.13-1.47a7,7,0,0,0,2.1-3.35c2.94-9.25-7.15-21.55-4.82-35.64.27-1.61.58-2.56,0-3.56C114.29,564.63,93,566.91,83.3,578.74Z"/>
    <path class="cls-3"
          d="M191,351.71c.9.64,1.76,4,2.52,6.92a14.35,14.35,0,0,1,.84,4c3.35,105.44-4.19,215.28-4.19,215.28-1,4.19-46.75,4-47.79.21-3.56-103.34-27.26-136.13,13-192,5-6.94-2.21-25.67,3.67-31.76C167.79,345.31,189.16,350.37,191,351.71Z"/>
    <path class="cls-4" d="M162.12,353"/>
    <path class="cls-3"
          d="M162.12,353c-31.85-5.73-65.55-21.1-73.58-7.34C87.76,347,87,350,85.39,356.12a181.36,181.36,0,0,0-4.39,23,225,225,0,0,0-1.68,28.51c0,17.55-2.19,35.28-2.52,52.83C76,502,76,516.06,75.33,525.07c-2.56,36.63-3.14,56.81-3.14,56.81,0,5.24,46.33,5.45,47.58,1.68,0,0,5.59-15.37,9.22-51.36,5.12-50.77,14.46-92.23,18.66-104.81a18.88,18.88,0,0,1,4.19-6.71,34.47,34.47,0,0,1,4.4-4.4,39.65,39.65,0,0,1,9-5.66"/>
    <path class="cls-5"
          d="M86.23,336.83C85.56,339,86,345,86,348.36c2.83,5.11,10.44,8.53,18.66,11.53A83.74,83.74,0,0,0,115.37,363c18.49,3.94,35.2,2.69,45.07,1.89A167,167,0,0,0,182,361.15c7.08-1.64,9.43-2.59,11.32-4.61.21-5.87.65-14.94-1-19.29C182.5,312.2,93.09,315.13,86.23,336.83Z"/>
    <path class="cls-6"
          d="M150.59,344.42l1.2,18.45a4.06,4.06,0,0,0,4.45,3.63l.21,0,14.12-1.75a4,4,0,0,0,3.58-4l-.71-18.88Z"/>
    <path class="cls-7"
          d="M287.89,280.65c3.8.39,5.7,30.08,1.89,31-1.92.47-5.6-6.31-6.71-12.16C281.27,290,285.67,280.42,287.89,280.65Z"/>
    <path class="cls-8"
          d="M184.55,192.19a12.86,12.86,0,0,1,6.5.84,13.8,13.8,0,0,1,5.87,5,56.77,56.77,0,0,1,7.76,15.72c5.68,17.1,2.7,7.23,5.66,16.77,5.14,16.59,8,26.51,12.37,39.62.86,2.56,1.3,3.87,1.89,5.45,4.53,12.26,7.1,14,7.76,19.29.87,7.06-2.64,12.87-4,15.09-1.06,1.75-7.41,11.8-18.24,12.58a15.61,15.61,0,0,1-9-1.68c-1.28-.72-6.29-3.84-8.59-14.67C189.8,293.47,186.61,250.25,184.55,192.19Z"/>
    <path class="cls-9"
          d="M281.29,289.77c2.76-5.4,8-8.65,10.17-12a31,31,0,0,1,8-8.18c2.44-1.8,2.92-1.66,6.5-4.19,3.38-2.39,5.06-3.59,6.29-5,2.63-3.1,2.25-4.94,6.29-11.11a5.69,5.69,0,0,1,8.38-2.31c3.91,2.26,4.13,7.92,4.19,9.64a17.51,17.51,0,0,1-1.89,8.38c-1.7,3.56-3.3,4.2-5.87,7.55-4.32,5.64-2.9,7.88-6.08,12.16s-7.48,5.86-13.84,8.18c-7.53,2.74-18.76,5-20.12,2.1C282.72,293.72,278.39,295.43,281.29,289.77Z"/>
    <path class="cls-9"
          d="M306.34,277.72c.81-2.46,5.74-3,10.69-3.56a30.9,30.9,0,0,1,13.21,1.47c3.16,1,7.8,2.54,11.53,6.71a13.17,13.17,0,0,1,3.35,6.29c.26,1.31.7,3.47-.42,5-1.51,2.11-5,2-6.5,1.89C327.27,295,304.43,283.54,306.34,277.72Z"/>
    <path class="cls-9"
          d="M304.24,283c.58-1.43,3.11-1.59,8.18-1.89,7.4-.44,12.8,1.41,19.5,3.77,4.42,1.56,7.14,3,9.64,5.24,3.12,2.86,3.63,5.07,3.77,6.08.09.64.43,3-.84,4.61s-4.23,2.23-10.27.84C319.93,298.33,302.48,287.3,304.24,283Z"/>
    <path class="cls-9"
          d="M283.7,305.39c2.22,1.82,4,.25,14.46.42,5.33.09,8,.13,10.69.42a50.53,50.53,0,0,0,6.5.21c2,0,2.26-.09,2.52-.21,2.75-1.32,3.67-8.18,1.26-12.58-3.26-5.94-12-6.31-16.35-6.5-2-.09-17.53-.74-21,7.76C280.43,298.32,281,303.19,283.7,305.39Z"/>
    <path class="cls-9"
          d="M307.81,293.52c.21-.15.41-.23,1.81-.45a42.5,42.5,0,0,1,5.52-.68c4.08-.11,6.9.66,12,2a47.29,47.29,0,0,1,10.69,4.75,6.23,6.23,0,0,1,2.31,2.26,5.84,5.84,0,0,1,.84,2.94,6.21,6.21,0,0,1-1.89,4.07c-4.38,4.58-14.11-3.22-26-2a5.28,5.28,0,0,1-3.56-.68C305.91,303.38,305.31,295.29,307.81,293.52Z"/>
    <path class="cls-8"
          d="M222.91,280.23a10.89,10.89,0,0,1,6.08.63,12.24,12.24,0,0,1,5.24,4.4c3.63,4.91,8.71,15.48,5.87,18"/>
    <path class="cls-8"
          d="M222.91,287.15a41.62,41.62,0,0,1,7.76-2.52c4.83-1,8.32-.62,15.93,0,8.37.69,12.56,1,13.63,1,10.58.18,15.87.26,20.54-1,.78-.22,2.49-.87,2.1-.21-5.45,9-3.14,20.12,3.56,27.88-29.56,9.22-42.13,14-76.72,12.37a19.22,19.22,0,0,1-8.59-2.31A9.24,9.24,0,0,1,198,320"/>
    <path class="cls-8"
          d="M277.2,284c.72-.37,5.45-1.47,10.69-3.35-4.19,4.19-8.8,23.9,1.89,31,0,0-6.5,3.14-10.27,3.77C272.59,315.45,269,288.2,277.2,284Z"/>
    <path class="cls-8"
          d="M74.49,195.33c.06,0,4.65-1.57,13.84-4.61,8.07-2.68,10.38-3.43,14.46-4.82,10-3.41,10.69-3.84,13.21-4.61,11.12-3.42,21-2.14,29.56-1C159.1,182,164,185.48,174.7,187a68.9,68.9,0,0,1,11.74,2.73,28.47,28.47,0,0,1,4,1.47c6,3,7.79,11.36,8.59,15.3,3.94,19.39,5.91,29.09,6.29,35.43.66,11.12.66,18.82.63,32.91-.1,46.54-3.14,37.43-4.82,57a14.14,14.14,0,0,1-1.47,5.45,21.91,21.91,0,0,1-3.14,4.19,39.74,39.74,0,0,1-4.4,4.82c-1.61,1.11-3.38,1.55-9,1.68-4.74.1-7.58-.13-10.06-.21-4.67-.16-8.63.31-16.56,1.26-7.47.89-8.53,1.41-13.84,1.68-1,0-3.2.15-9.43,0-11.34-.27-17-.4-23.06-1.47-3.38-.59-6.51-1.44-12.79-3.14-6.93-1.88-.85-.52-10.06-3.56a8.74,8.74,0,0,1-4.4-2.52,8.24,8.24,0,0,1-1.68-5.24c-.44-30.78,4.4-50.31,4.4-50.31C95.86,243.08,61.75,204.18,74.49,195.33Z"/>
    <path class="cls-2"
          d="M57.93,603.68A11.33,11.33,0,0,1,64.64,593a16.17,16.17,0,0,1,6.71-1.68c15-.77,22.45-1.15,31.86,2.31,5.08,1.86,13.11,4.94,17,12.37.75,1.45,2.22,4.35,1,6.5-1.46,2.69-6.14,2.57-11.74,2.52-16.69-.15-25-.23-31.23.21-8.75.62-12.58.63-15.72-.84C59,612.73,57.87,607.56,57.93,603.68Z"/>
    <path class="cls-10"
          d="M157.51,200.57c6.29,23.48,18.24,79.87,24.95,114.87-1.55,10-8.38,27.46-14.88,34.8-6.29-13.42-14.46-25.36-17.61-32.7,3.77-49.68.63-107.75,2.1-118.23C153.51,199,156.78,197.88,157.51,200.57Z"/>
    <path class="cls-10"
          d="M147.44,186.53c-2.19,4.63-.67,14.17,1.68,18.87.84,1.68,10.67.42,11.32-1.26,2.52-6.5,1.26-11.32,2.52-17.61C164.39,179.38,150.51,180.06,147.44,186.53Z"/>
    <path class="cls-8"
          d="M155.41,183.39c-5.52-.1-12.37,17.19-14.46,25.15-13-4.61-25.78-24.11-25.15-30,1.28-11.92,15.79-16,16.35-16.14,14.65-4.61,30.87,5.73,36.27,18.45,4.84,11.42-.77,26.29-3.14,26.41C165.47,201.62,160.75,183.48,155.41,183.39Z"/>
    <path class="cls-11" d="M196.21,251.51a100.13,100.13,0,0,1,.08,15.52c-3,2.71-6.84,3.06-11,3.1"/>
    <path class="cls-11"
          d="M179.14,259.32a189.93,189.93,0,0,0-3.81-19.75c2.1,1.89,11.74-.21,18.66-1.47a6.92,6.92,0,0,1,1,2.87"/>
    <path class="cls-11" d="M178.26,245.43a27.94,27.94,0,0,0,13.21-.84"/>
    <path class="cls-8"
          d="M105.52,256.75c-.19.94-.15.56-2.1,8.18-3.41,13.31-3.48,14.21-5.45,21.8-5.33,20.52-5.57,17-7.55,25.15a32,32,0,0,1-4.19,9.85,9.36,9.36,0,0,1-2.1,2.73c-6,3.71-26.7-12-30.81-28.09A56.68,56.68,0,0,1,51.85,284a51.2,51.2,0,0,1,1-10.06c1.62-8.08,6.5-36.64,17.19-74.42,1.62-5.52,10.29-5.22,12-4.81"/>
    <path class="cls-8"
          d="M76.75,283.77c5,3.1,7.32,9.64,9.07,14.49A38.94,38.94,0,0,1,87.91,315c-.37,3.87-.72,7.41-3.14,11.11-2.67,4.06-6.38,6.09-9.43,7.76-2.6,1.42-5,2.74-8.38,3.14a18.83,18.83,0,0,1-12.37-2.93"/>
    <path class="cls-8"
          d="M69.46,308.74c-1,2.16-3.09,6.64-8,9.22-8.27,4.38-20.32,1-23.9-6.08-1.59-3.15-1.25-6.53-.84-10.69.31-3.12.73-6.87,3.35-10.48a18.62,18.62,0,0,1,5.87-5c3.57-2.22,8.34-5.17,13.84-4"/>
    <path class="cls-12"
          d="M41.37,308.32c.27.27,2-2,5-3.14,3.75-1.44,7.41-.48,9.22,0A16.69,16.69,0,0,1,63,309c3.72,3.42,4.55,7.79,5.66,13.63.76,4,1.14,6,.42,8-2.2,6.06-10.75,7.36-10.48,8.18.22.65,5.92.51,10.27-3.14a15.07,15.07,0,0,0,4.4-6.5c2.55-6.88,1.16-16.76-5.66-22.85-.43-.39-6.66-5.77-14.88-5a14.79,14.79,0,0,0-8.59,3.35C42.35,306.09,41.13,308.08,41.37,308.32Z"/>
    <path class="cls-9"
          d="M54.79,309.16c-.18-2.66-4.65-4.88-8-5.24-.73-.08-1.92-.12-8,1.89-4.85,1.63-5.79,2.19-10,3.56-3.87,1.22-5.8,1.83-7.76,1.89-3,.09-3.89-.64-7.55-.42-2.33.14-4,.25-5.87,1.26C7,312.41,3.25,314.57,3,318c-.32,4.53,5.92,7.67,6.92,8.18,5.08,2.56,10.17,1.53,12.37,1a25.53,25.53,0,0,0,8.59-3.77C46.5,313.68,55,312.92,54.79,309.16Z"/>
    <path class="cls-9"
          d="M50.18,310.63A16.13,16.13,0,0,1,56,308.74c.51,0,4.32-.39,6.92,1,4.17,2.31,4.57,8.84,4.82,14A54,54,0,0,1,60.66,353c-2.49,4.34-4.48,6.34-8.38,10.27a15.23,15.23,0,0,1-6.71,4.19,5.62,5.62,0,0,1-4.19,0c-1.88-1-2.34-3.48-2.52-4.4-1.21-6.53,3.38-17,5.45-25C48,323.87,44.51,314,50.18,310.63Z"/>
    <path class="cls-9"
          d="M28.17,320.9c-.36,2,.69,3.27,0,6.92a21.71,21.71,0,0,1-1.68,4.82c-3.08,7.26-3.31,7.1-4.19,9.64a35.2,35.2,0,0,0-1.89,9.22c-.33,3.79,0,5.5.84,6.92a6.43,6.43,0,0,0,2.93,2.93c2.59,1.11,5.46-.39,6.71-1,7.69-4,13.81-15.89,17.61-24.32,6.24-13.83,5.58-16.93,4.4-18.87-2.34-3.84-7.54-4.44-9-4.61C36.77,311.69,29,316.09,28.17,320.9Z"/>
    <path class="cls-9"
          d="M40.12,328.24c-3.19,1.26-4.64,4.55-7.55,11.11a63.14,63.14,0,0,0-4.19,13.42,28.7,28.7,0,0,0,0,10.69A5.5,5.5,0,0,0,30.26,367a5.7,5.7,0,0,0,4.4.63c5.4-1,9.43-8.27,10.48-10.27,3.41-6.46,10.13-22.75,3.77-28.09C46.52,327.27,42.71,327.21,40.12,328.24Z"/>
    <path class="cls-9"
          d="M41.27,312.41a11.58,11.58,0,0,0,.84,5.87c.88,2.44,5.32,14.84,16.14,16.77,1.3.23,7.56,1.35,11.32-2.52,2.88-3,2.67-7.18,2.52-10.27-.09-1.86-.56-8.84-6.29-14a20.12,20.12,0,0,0-10.48-4.82,12.53,12.53,0,0,0-6.29,0A11.5,11.5,0,0,0,41.27,312.41Z"/>
    <path class="cls-9"
          d="M149.54,61.59c.07-.82,1.8-.73,6.08-3.14,3.78-2.13,3.84-3,7.13-5A30.23,30.23,0,0,1,174.49,49a49.88,49.88,0,0,1,8.18-.21c2.35.06,3.38.18,6.5.21,3.54,0,5.34,0,6.71-.42,3.22-1.09,4.72-3.36,5.24-2.93s-.22,2.17-1.26,3.56c-1.64,2.18-3.68,2.54-3.56,3.35s2.54,1.18,3.14,1.26c4.13.54,7.09-1.51,7.34-1s-1.3,2-3.35,2.73c-1.15.38-2.2.36-2.31.84s.72,1,.84,1a5.06,5.06,0,0,0,2.93.42,6.62,6.62,0,0,1-3.35.63c-1.08,0-1.73-.45-1.89-.21s.79,1.33,1.26,1.89c1.48,1.76,1.55,3.83,1.68,7.34.11,2.84.26,7-2.1,10.9-1,1.73-2.45,3.15-2.1,3.56s1.35-.08,2.1-.63c1.2-.88,1.49-2.16,1.68-2.1a4.6,4.6,0,0,1-.42,2.52,10.27,10.27,0,0,1-1.89,3.35c-1.51,1.76-4.09,3.4-6.08,3.35-3.91-.08-5.56-6.64-8.8-11.32C175,62.79,149.29,64.75,149.54,61.59Z"/>
    <path class="cls-13"
          d="M73.66,123.43c.32-.1.71,2.89,3.35,4.4a8.19,8.19,0,0,0,5.45.63,13.67,13.67,0,0,0,7.76-4.19c3.44-3.87,3.5-9.08,3.56-11.11.15-4.82.8-25.13,12.37-38.36,5.36-6.12,11.42-8.86,15.93-10.9,11.71-5.29,22.14-5,27.88-4.82a70.74,70.74,0,0,1,24.11,5.24c7.32,3,14.91,6.11,20.75,13.84,4,5.27,5.47,10.47,6.92,15.51a84.39,84.39,0,0,1,2.93,20.75c.13,5.62,1.16,11.18,1.68,16.77.13,1.35.41,4.48,2.73,6.29a5.71,5.71,0,0,0,3.77,1.26c3-.22,4.59-3.34,5.24-2.93s-.19,2.74-1.26,4.82a19.45,19.45,0,0,1-5.45,6.5c-4.13,3.07-7.87,3.33-7.76,4.4.08.71,1.8,1.16,2.93,1.26,3.33.3,5.55-2,6.08-1.47s-1,2.9-2.52,4.61c-1.09,1.22-3.86,4.34-8,4.82-1.54.18-2.89-.06-2.93.21s2.41.75,5,2.73c.35.27,2.13,1.6,1.89,2.1s-1.7-.28-4-.42a14.14,14.14,0,0,0-8.18,2.31c-.92.52-2,1.13-1.89,1.68.14.75,2.45,1,3.35,1,2.17.2,3.53-.15,3.56,0a22.65,22.65,0,0,1-6.29,1.89c-3,.57-3.42.31-5.24.84a17.76,17.76,0,0,0-5.87,3.14c-3.4,2.49-3.57,3.7-6.92,6.71a27.34,27.34,0,0,1-7.13,5,23.37,23.37,0,0,1-11.32,1.89,29.61,29.61,0,0,1-11.53-3.77c-4.72-2.44-5.3-4-8.59-4.4-4-.54-7.44,1.16-7.76.42s3.67-2.5,3.35-4.19c-.24-1.29-2.94-2.15-5.24-2.1-4.41.1-7,3.54-8,2.73-.62-.54,0-2.48.84-3.77,1.53-2.29,3.87-2.52,3.77-3.14-.13-.82-4.41-1.86-8.38-.21-4.44,1.84-5.93,6-7.13,5.45-.9-.4-1-3.11,0-5.24,1.49-3.27,4.9-4,4.61-5s-3.14-.87-5.24-.84c-2.62,0-4,.06-5.45.84-2.93,1.55-3.49,4.63-4.19,4.4s-.84-3.22.42-5.87,3.46-3.62,3.14-4.4-3.28.12-7.13-.21a19.38,19.38,0,0,1-9.22-3.35c-4.94-3.55-7.12-9.37-6.5-9.85.31-.24,1.09,1,3.35,2.1a13.57,13.57,0,0,0,7.76,1c2.37-.32,5.1-1.27,5-1.89s-3.69.17-7.55-1.68c-4.26-2-6.37-6.22-6.08-6.5s1.61,1.74,4.19,2.1c2.17.3,4.43-.63,4.4-1.26,0-1-5.57.19-9.85-2.73C73,134.24,73.06,123.61,73.66,123.43Z"/>
    <path class="cls-1"
          d="M119.14,70.4c-3.45,2.38-6.4,4.45-9.22,8.18-3.79,5-5,9.9-6.29,15.09-1.46,5.89-.94,7.34-3.14,17.82a45.82,45.82,0,0,1-2.93,8.8c-1.66,3.72-2.79,4.91-3.35,5.45-2,1.94-4.17,2.59-6.71,3.35-3.15,1-6.31,1.9-9.43.63-2.34-1-3.57-2.71-3.77-2.52s1.38,2.78,3.77,5c2,1.87,5.94,5.59,10.9,5.45,2.13-.06,3.87-.81,4.4,0s-.2,2-.84,2.73c-1.59,1.91-4.11,1.68-4.19,2.52-.06.62,1.24,1.31,2.31,1.68,3.92,1.34,7-1,8,.21.81,1-.88,3.53-1,3.77-1.6,2.33-4.15,3.07-5.87,3.56a15.25,15.25,0,0,1-4.86.56c-2.34-.11-3.68-.72-3.74-.56s4.29,2.78,9.85,4a24.6,24.6,0,0,0,9,.63c3.55-.48,6.05-1.73,6.29-1.26s-1.31,1.26-3.56,3.35c-1.58,1.46-4.88,4.78-4.4,5.45.34.49,2.4-.8,5-1.68,7.76-2.59,15.54.09,15.51.63,0,.26-1.9-.12-4.19,1-2.47,1.26-4.16,3.68-3.77,4.19s1.84-.72,4.61-1.47c4.55-1.22,9.7-.6,10.06.84.11.44-.29.71-2.52,3.14-3.24,3.54-3.22,3.87-3.14,4,.29.42,2.37-1.15,5.66-1.89,3.94-.88,8.55-.32,9,1.26.31,1.06-1.22,2.67-1.68,3.14-1.07,1.12-2,1.36-1.89,1.68.14.6,3.38-.22,6.92.42,2.5.45,3,1.23,6.29,2.73a31,31,0,0,0,12.37,3.14,19.39,19.39,0,0,0,8-1.26c3-1.21,3.35-2.36,9.22-6.71,3.52-2.61,5.28-3.91,7.13-4.61,4.76-1.81,9.16-1.16,9.22-1.89s-4-1-4.19-2.52,4-3.49,4.19-3.56c3.32-1.42,6.23-1.08,6.29-1.68s-3.56-1.15-3.56-2.1c0-.75,2.27-1.11,5.66-2.31,4.19-1.48,7.49-3.3,7.34-3.77s-2.34.65-4.61-.42c-1.42-.67-2.91-2.17-2.73-3.56.11-.83.77-1.35,3.14-2.73,4.27-2.48,5.75-2.89,8-4.61,1.48-1.15,3.53-3.08,3.14-3.77s-2.82.86-5.24,0c-1.62-.58-2.91-2.14-4.4-6.29a41.91,41.91,0,0,1-2.52-12c-.2-9.23-.39-17.57-1.47-23.69-.61-3.47-2.32-12.56-9-20.54-6.85-8.17-15.41-11-22.85-13.42-6.47-2.12-18.55-5.91-32.7-2.1A55.93,55.93,0,0,0,119.14,70.4Z"/>
    <path class="cls-9"
          d="M105.52,96.39c2.24-5.49,2.53-8.52,4-11.32,2.93-5.66,7-11.47,9.85-13.84,10.64-8.92,25.18-6.06,25.57-9.85.11-1-.95-1.34-3.77-4.61-4.13-4.77-3.51-6-6.08-8.8-4.5-5-12-7.4-17.82-7.34-2.06,0-3,.35-5.24,0-5.48-.85-8.75-4.14-9.22-3.56-.32.39.81,2.3,2.52,3.35,1.17.72,2.31.84,2.31,1.26s-1.6.82-1.68.84c-3.28.67-6-1.33-6.29-.84-.18.29.61,1.23,1.47,1.89,1.81,1.39,3.42,1.17,3.56,1.89s-1.16,1.62-2.31,2.1c-2.65,1.09-5.07-.08-5.24.42s1.21,1.58,2.73,1.68c.8,0,1.29-.23,1.47,0,.34.45-1.16,2.11-1.68,2.73-2.34,2.82-2.6,6.35-2.93,11.11-.32,4.44-.52,7.33,1,10.48,1.32,2.64,3.52,4.73,2.93,5.45-.31.38-1.21.13-1.68,0-2.45-.69-3.72-3.21-4.19-4.19-1.05-2.17-1-3.79-1.26-3.77s-.52,2.83,0,5.87c.4,2.37.72,4.24,2.1,5.87,2.31,2.74,5.69,2.52,5.66,3.56s-2.5,1.94-4.82,1.68c-2.74-.31-4.32-2.34-4.82-1.89s.37,2,1,2.93a7.66,7.66,0,0,0,5,3.35c2,.24,3.14-.7,3.77,0s0,2.08-.21,2.73a5.07,5.07,0,0,1-2.73,2.93c-1.33.48-2.48,0-2.52.21s1.41.9,3.14,1a6.61,6.61,0,0,0,4.82-1.26A5.35,5.35,0,0,0,105.52,96.39Z"/>
    <path class="cls-14"
          d="M119.35,124.06a15.16,15.16,0,0,1,2.73-5.45c.72-1,2.46-3.44,9-8.38,5.15-3.89,5.2-3.27,8.8-6.29,2.86-2.4,3.52-3.37,5.87-4.61,1.94-1,4.68-2.47,8-1.89a11.13,11.13,0,0,1,6.29,4c.6.66,3.16,3.64,4.4,10.69,1.33,7.58-.27,11.92,1,12.37,1.47.5,4.67-4.52,6.29-8a32,32,0,0,0,2.93-8.8c.37-2.24.39-4,1.68-6.29.66-1.16,1.52-2.64,3.14-3.14,2.28-.71,4.57,1,5.24,1.47,2.36,1.74,2.53,3.53,5,9s3.1,5.31,4.61,9.43a34.28,34.28,0,0,1,2.1,8.18c.46,3.85.73,6.09-.42,8.59-1.9,4.12-6.13,5.64-7.34,6.08a13.62,13.62,0,0,1-9,.21c-4.81-1.72-7.48-6.31-7.76-6.08s3.08,3.21,2.31,5.24c-1,2.64-8.79,3.23-10.69.42-.38-.56-.2-.78-.63-2.73s-1.2-5.43-2.52-5.66c-.88-.16-1.59,1.16-2.73,2.52-2.76,3.28-6.18,4.58-10.69,6.29a24.59,24.59,0,0,1-8.59,2.1c-1.46,0-9.4.26-14.88-5.87C123,136.85,117.8,130.88,119.35,124.06Z"/>
    <path class="cls-9"
          d="M125.64,122a10.72,10.72,0,0,0-.63,3.56,11.84,11.84,0,0,0,3.14,7.55c3.17,3.65,7.41,4.44,9.43,4.82a18.93,18.93,0,0,0,10.06-.84,15.57,15.57,0,0,0,6.71-4.4,16.65,16.65,0,0,0,3.56-8.38c.48-2.49,1-5.07,0-8.18a12.17,12.17,0,0,0-5.24-6.92c-3-1.72-5.91-1.48-8.18-1.26C134.92,108.85,127.61,116.29,125.64,122Z"/>
    <path class="cls-9"
          d="M171.55,121.34a57.51,57.51,0,0,1,2.93-6.92c1.36-3,2.15-4.4,3.77-5.45a4.74,4.74,0,0,1,2.93-1c1.41.11,2.43,1.2,5.87,7.13,3.53,6.1,3.85,7.37,4,8.59a12.35,12.35,0,0,1-.84,6.29c-.31.73-2.35,5.34-7.34,6.71a10.28,10.28,0,0,1-5.45,0,10.68,10.68,0,0,1-6.29-5.45C169.74,128.09,170.52,125.16,171.55,121.34Z"/>
    <path class="cls-1"
          d="M140.74,125.32c.1-1,1-1.63,2.73-2.93s2.84-2.12,4.4-1.89a4.32,4.32,0,0,1,2.52,1.47,5.21,5.21,0,0,1,1.26,4.61c-.66,2.24-3.07,3.26-4.82,3.35C143.66,130.1,140.51,127.39,140.74,125.32Z"/>
    <path class="cls-1"
          d="M173.65,125.74c0-2,1.89-3.18,3.14-4s2.08-1.34,3.14-1c1.55.42,2.29,2.5,2.31,4a4.89,4.89,0,0,1-2.31,4.19,4.38,4.38,0,0,1-4.61-.21A4,4,0,0,1,173.65,125.74Z"/>
    <path class="cls-14"
          d="M134.24,157.6c.21-.08-.66-1.64-.21-4a5.64,5.64,0,0,1,1.68-3.35c2-1.65,4.91-.53,5-1s-2.23-2-4.82-1.68a5.33,5.33,0,0,0-4,2.31C130.13,153,133.86,157.74,134.24,157.6Z"/>
    <path class="cls-14"
          d="M160.44,176.47c.1-.24,1.4.68,2.93.21,2.12-.66,2.61-3.34,3.35-3.14.51.13.7,1.49.42,2.52a3.44,3.44,0,0,1-2.31,2.31C162.5,179.06,160.3,176.79,160.44,176.47Z"/>
    <path class="cls-9"
          d="M160,142.09a5.3,5.3,0,0,0,0,3.77,5,5,0,0,0,1.68,2.1c2.58,2,6,1.16,11.74-.21a3.3,3.3,0,0,0,1.68-.84c1.24-1.25,1-3.45.84-4.4a6.24,6.24,0,0,0-.63-2.31C173.18,136.64,161.78,137.67,160,142.09Z"/>
    <path class="cls-1"
          d="M165.89,143.35c.13.4.85.48,2.31.63a7.29,7.29,0,0,0,4.82-.63c.42-.25,1.56-.94,1.47-1.68s-1.94-1.46-3.35-1.47C168.29,140.18,165.6,142.45,165.89,143.35Z"/>
    <path class="cls-15"
          d="M174.28,163.68c.23.4-1.57,1.46-3.77,3.77-1.73,1.81-1.85,2.45-3.14,3.14a6.15,6.15,0,0,1-.87.39,14.06,14.06,0,0,0-.18-2.06,10,10,0,0,0-1.47-3.77,11.72,11.72,0,0,0-2-2.25,7.26,7.26,0,0,0,2.87-1.73c1-1,1.48-2,2.1-1.89.82.17.4,2.09,1.89,3.35a5.23,5.23,0,0,0,2.73,1C173.55,163.79,174.15,163.45,174.28,163.68Z"/>
    <path class="cls-16"
          d="M166.31,168.92a14.06,14.06,0,0,1,.18,2.06,8.77,8.77,0,0,1-2.48.45,12.75,12.75,0,0,1-5.66-1,18.65,18.65,0,0,1-6.08-3.77c-1.28-1.14-3-3-2.73-3.35s1.33.57,3.14,1c2.76.73,5.17,0,7.55-.63,1-.29,1.85-.52,2.58-.79a11.72,11.72,0,0,1,2,2.25A10,10,0,0,1,166.31,168.92Z"/>
    <path class="cls-11"
          d="M162.81,162.89c-.73.26-1.56.5-2.58.79-2.38.67-4.78,1.36-7.55.63-1.81-.48-2.93-1.34-3.14-1s1.44,2.21,2.73,3.35a18.65,18.65,0,0,0,6.08,3.77,12.75,12.75,0,0,0,5.66,1,8.77,8.77,0,0,0,2.48-.45,6.15,6.15,0,0,0,.87-.39c1.3-.7,1.42-1.33,3.14-3.14,2.21-2.32,4-3.37,3.77-3.77-.13-.23-.73.11-1.89,0a5.23,5.23,0,0,1-2.73-1c-1.49-1.27-1.07-3.18-1.89-3.35-.62-.13-1.11.9-2.1,1.89A7.26,7.26,0,0,1,162.81,162.89Z"/>
    <path class="cls-11" d="M162.81,162.89a11.72,11.72,0,0,1,2,2.25,10,10,0,0,1,1.47,3.77,14.06,14.06,0,0,1,.18,2.06"/>
    <path class="cls-11"
          d="M142,156.13a16.34,16.34,0,0,0,2.1,2.93,16.13,16.13,0,0,0,4.19,3.35,15.62,15.62,0,0,0,7.34,1.89,15,15,0,0,0,9.43-3.14,9.21,9.21,0,0,0,2.93-4,8.41,8.41,0,0,0,.42-1.89,62.2,62.2,0,0,0,.42-7.76"/>
    <path class="cls-11"
          d="M168,157.18c.06.64.29,3.26,1.26,4.61a4.58,4.58,0,0,0,3.35,2.1,8.82,8.82,0,0,0,5.24-1.47,8.1,8.1,0,0,0,2.1-3.14,9.73,9.73,0,0,0,.63-2.31"/>
    <path class="cls-14"
          d="M181.19,150.68c-.2.18.64.91,1,2.52a8.39,8.39,0,0,1,0,3.56c-.39,2.55-1.27,3.86-1,4s1.71-1.45,2.52-3.56a5.47,5.47,0,0,0,.42-4C183.45,151.4,181.46,150.43,181.19,150.68Z"/>
    <path class="cls-11"
          d="M98.29,360.2A134,134,0,0,0,92.21,381c-1.63,7.86-1.1,11.62-2.73,23.27C88.34,412.4,87.15,418,86.55,421c-1.93,9.78-4.6,28.16-7.76,66"/>
    <path class="cls-11"
          d="M152.58,423.09c1.34-.64,3.2-1.46,5.45-2.31,7.91-3,15.55-4.17,15.72-3.56s-5.44,2-14,6.5c-.57.3-10.78,5.73-10.27,6.92.33.76,4.9-.41,9.85-1.68,5.4-1.38,8.22-2.48,8.38-2.1s-2.17,1.66-7.13,4.61c-3.4,2-6.16,3.71-8,4.82"/>
    <path class="cls-11"
          d="M149,444c0,7.07.1,16.36.42,27.25.1,3.27.49,16.4,1.68,35.64.69,11.22,1.87,25.87,4.19,54.71.41,5,.88,10.82,1.26,15.51"/>
    <path class="cls-11"
          d="M95.35,375.09a24.48,24.48,0,0,0,7.13,1,22.16,22.16,0,0,0,10.69-2.52,21.69,21.69,0,0,0,8-7.34"/>
    <path class="cls-11"
          d="M92,403.39a64.55,64.55,0,0,0,7.34.84c4.73.27,9.83.56,14.25-.84,8.3-2.62,12.54-10.66,15.09-15.51A42.73,42.73,0,0,0,133.5,369"/>
    <path class="cls-11"
          d="M181.09,363.77a92.46,92.46,0,0,1,4,20.75c.13,2.25.27,6.62,3.35,9.85a11.31,11.31,0,0,0,4.19,2.73"/>
    <path class="cls-11"
          d="M163.69,368.38c.36,6,.53,11.09.63,15.09.22,9.53,0,13.13-.42,16.35a77.32,77.32,0,0,1-1.47,8.18"/>
    <path class="cls-5"
          d="M155.8,352.68l.47,8.18a1.35,1.35,0,0,0,1.42,1.28h.09l11.42-1.36a1.35,1.35,0,0,0,1.19-1.35v-8.18a1.35,1.35,0,0,0-1.34-1.36h-.17L157,351.25A1.35,1.35,0,0,0,155.8,352.68Z"/>
    <path class="cls-11" d="M106.46,261a15.52,15.52,0,0,0,2.73-2.31,16.36,16.36,0,0,0,4-7.76"/>
    <path class="cls-11" d="M104.78,264.62q1-.15,2.1-.42a23.45,23.45,0,0,0,5-1.89"/>
    <path class="cls-11"
          d="M85.5,281.59a28.66,28.66,0,0,1-6.71-6.5A29.91,29.91,0,0,1,74,264.82a34.83,34.83,0,0,1-1.26-10.27"/>
    <path class="cls-11" d="M66,271.74a22.39,22.39,0,0,0,11.11,16.35"/>
    <path class="cls-11" d="M85.29,287.25a52.17,52.17,0,0,1,4,16.77"/>
    <path class="cls-11"
          d="M211.27,285.16A17.31,17.31,0,0,1,218,281.8c4.29-1,8.75-.29,8.8.42s-2.72.74-5.87,2.1a22.06,22.06,0,0,0-9.64,8.59"/>
    <path class="cls-11"
          d="M114.64,325a60.74,60.74,0,0,0,8,9.22,58.8,58.8,0,0,0,17,11.11c2.41,1.13,6.78,3.13,7.55,2.1.44-.6-.54-1.92-1.68-3.77A52.31,52.31,0,0,1,140.9,334"/>
    <path class="cls-11" d="M174.59,344.48a21.18,21.18,0,0,0,7.34-3.56,21.59,21.59,0,0,0,7.13-9.64"/>
    <path class="cls-11" d="M93.67,342A7,7,0,0,1,88,332.53"/>
    <path class="cls-11" d="M102.9,219.13A52.78,52.78,0,0,1,107.51,247"/>
    <path class="cls-1"
          d="M72.92,198.79c1.26-2,4.19-1.26,4.19-1.26,2.22-.1,4.91.67,9.64,4.82A50.75,50.75,0,0,1,96,213c2.57,4,5.89,9.35,6.92,17a38.42,38.42,0,0,1,0,9.43c-.42,4.6-2,9.71-5.24,19.91-2.35,7.46-3.11,9-3.56,9.85-1,1.77-1.85,2.83-2.31,5-.27,1.27-.22,2.1-.84,2.52-1.14.76-3.35-.7-4.19-1.26a20.85,20.85,0,0,1-6.71-8.18,40.39,40.39,0,0,1-4.4-13.21c-.76-5.17-.17-8.18-1-8.38-1.05-.24-3.17,3.77-4.19,7.55A24.7,24.7,0,0,0,71.74,270c3.48,7.38,9.86,10.39,9.22,11.32-.49.72-4.51-.74-7.55-3.14A19.83,19.83,0,0,1,67.54,270c-1.59-3.91-1.32-6.44-2.1-6.5-1-.07-2.39,4-2.52,7.76a13.13,13.13,0,0,0,1.89,8c1.26,1.87,2.88,2.94,2.73,3.14s-2.1-1.43-4.82-2.31c-3.51-1.13-5.83.26-6.92-.42C50.7,276.56,67.89,207,72.92,198.79Z"/>
    <path class="cls-1"
          d="M41.27,292.91c1.4-2.54,3.43-3.71,6.08-5.24a31,31,0,0,1,9-3.35A29.22,29.22,0,0,1,66,283.9a13.51,13.51,0,0,1,3.35.84,13.72,13.72,0,0,1,4.19,2.73,18.5,18.5,0,0,1,4,5.87c2.7,5.47,3.36,9.1,3.77,9s.22-3.59-.63-7.13-1.9-5.34-1.68-5.45,2.76,3.25,4.4,7.55a30.69,30.69,0,0,1,1.68,6.5c.68,4.27,1,6.41,0,8.38a8.55,8.55,0,0,1-6.29,4.4,3.54,3.54,0,0,1-1.89,0c-1.46-.6-1.78-2.79-1.89-3.35-.86-4.53-5-10.27-8.38-13a17.86,17.86,0,0,0-10.48-3.77,15.45,15.45,0,0,0-9,2.1c-3.21,2-4.31,4.84-5.66,4.4-1.17-.38-1.37-2.8-1.47-4A10.73,10.73,0,0,1,41.27,292.91Z"/>
    <path class="cls-1"
          d="M85.92,194.18c-2.53,2,8.14,3.43,15.93,12.16a39.54,39.54,0,0,1,8.38,16.35c1,3.62,2.89,10.37,1.26,18.45-1.28,6.35-4.19,10.82-3.35,11.32.64.38,2.91-1.86,4.4-4.19,2.41-3.77,2.39-7.17,2.93-7.13s1,3.6.63,7.13c-.25,2.36-.58,5.51-2.73,8.38-1.78,2.38-3.83,3.26-3.56,3.77s2.44.14,4.19-.84,2.14-2,2.52-1.89c.88.37.26,6.91-3.77,12-1.83,2.28-3.22,2.84-4.82,4.19-4.44,3.76-4.66,8.76-7.55,29.14-1.86,13.16-2.2,14.12-2.73,15.3-2.41,5.43-5.76,8.62-4.61,12.79.63,2.28,2.3,3.74,3.77,5,2.85,2.49,5.73,3.33,9.64,4.4,10.25,2.8,15.38,4.18,15.72,3.35s-4.06-2-7.55-6.71c-4.74-6.39-3.86-14.2-3.56-16.77.31-2.77,1.35-8.11,2.93-8.18,1.34-.06,1.71,3.72,4.61,9.85a44.9,44.9,0,0,0,11.11,14.88c2.91,2.47,5.78,4.12,6.08,3.77s-1.87-1.87-2.93-4.82c-1-2.68-.53-5.07,0-7.76.39-2,1.79-9.1,4.19-9.22.45,0,1.52.17,5,7.76,3.13,6.75,3.47,9.16,6.29,13.21,1.57,2.26,4,5.7,6.29,5.24,1.38-.28,2.42-1.9,2.73-3.35.55-2.67-1.44-4.4-4.82-9.43-3-4.48-5.46-8.22-6.29-13a21.32,21.32,0,0,1,0-6.92c2.34-17.19,2.31-52.12,2.31-57.65,0-15.57-1-13.62-.42-21.17a116.29,116.29,0,0,0-.63-21.17c-.2-1.68-.62-4.76-1.47-4.82s-1.84,3.39-1.89,3.56c-.42,1.49-.1,2-.42,2.31-1.05,1-6.21-2.09-11.53-6.71-5.69-4.94-15.39-15-16.56-20.12a3.14,3.14,0,0,0-1.26-2.1c-1.48-.86-3.73.46-4.4.84C102.52,189.57,89.27,191.46,85.92,194.18Z"/>
    <path class="cls-1"
          d="M118.83,181.6c-.59,1.43.67,3,3.14,6.29,6.9,9,6.28,8.54,7.55,9.85,4.69,4.83,5.79,4.1,8,6.92.26.33,1.09,1.45,1.68,1.26s.58-1.39.63-2.1a23.3,23.3,0,0,1,2.93-9.22c1.46-2.53,2.93-3.36,2.52-4.61-.19-.56-.59-.73-2.31-1.68-4.5-2.49-4.93-3.13-6.71-3.35a26.6,26.6,0,0,0-2.93,0,32.12,32.12,0,0,1-4.19-.21c-1.65-.25-4.31-.64-4.61-1.89s1.63-2.11,1.26-2.93-2.3-.64-3.35-.42C121.78,179.63,119.45,180.11,118.83,181.6Z"/>
    <path class="cls-1"
          d="M163.69,191.46c-.37.51.29,1.22,1,3.14,1.43,3.64,1.08,6.25,1.68,6.29s.89-1.46,1.26-2.73c.81-2.79,1.29-4.43.42-5.66C167,191,164.27,190.65,163.69,191.46Z"/>
    <path class="cls-1"
          d="M165.79,213.68c-1.06,4.6,2.18,5.16,3.14,13.63.68,6-.57,9.06,1.47,10.48.63.44,1.18.46,6.92-.42,5.11-.78,7.7-1.18,9.64-1.68,5-1.29,4.89-2,6.08-1.68,5,1.19,6.62,12.71,7.76,20.75.86,6,.83,9.85,1.26,9.85.59,0,1.55-7.34,1.47-15.09-.05-4.47-1-10.59-2.93-22.64-3.87-24.27-3.64-15.55-3.77-18.24-.11-2.15-.16-5.89-2.73-8-1.25-1-2.43-1.1-5-1.47-10.36-1.48-12.44-3.14-14.67-1.47-1.24.92-.83,1.61-2.52,5.45C168.85,210.07,166.65,209.93,165.79,213.68Z"/>
    <path class="cls-1"
          d="M176.9,271.32c-1.86,1.49.24,5.69,2.93,15.93,2.47,9.38,3.24,15.5,4.4,24.74a46.24,46.24,0,0,1,.21,12.58c-.81,6.11-2.58,8.94-3.35,10.06-1.87,2.69-3.93,4-3.77,4.19s4.87-1.93,8.59-6.29c3.92-4.58,4.7-9,5.66-8.8s.69,4.4.42,6.5a19.41,19.41,0,0,1-2.1,7.13c-.95,1.76-1.76,2.53-1.47,2.93.48.67,3.48-.16,5.66-1.89,3-2.4,3.83-6,4.61-9.64a48.85,48.85,0,0,0,.84-9.64c.09-3.16,0-5.27,0-6.5-.09-5.53.72-9.16,1.89-16.14,2.17-12.94,3.86-23.4,1.47-24.32-.79-.3-1.3.69-4,1.47a16.67,16.67,0,0,1-6.5.42C183.64,273.23,179,269.66,176.9,271.32Z"/>
    <path class="cls-1"
          d="M179.83,248.26c-.55.71,0,1.35.63,4.61a44.41,44.41,0,0,1,1.26,9.85c0,1.76-.2,2.93.63,4a5.66,5.66,0,0,0,3.14,1.68,11.76,11.76,0,0,0,3.1.19c.82,0,1,0,1.1-.19.24-.46-1.22-1.3-2.31-2.73-1.32-1.72-1.51-3.66-1.89-7.55-.26-2.7,0-3.36.21-3.77a4.26,4.26,0,0,1,3.77-2.31c2.19.18,3.28,2.86,4,2.52.3-.15.26-.69,0-3.35-.32-3.37-.39-3.86-.84-4.19-.84-.63-1.93.12-4,.63C183.75,248.85,181,246.79,179.83,248.26Z"/>
    <path class="cls-1"
          d="M177.73,241.56c.4-.51,1.37-.21,2.93,0a28.12,28.12,0,0,0,5.66,0c3.76-.35,6.07-1.87,6.29-1.47s-.94,1.24-1.89,1.89c-2.74,1.88-4,1.11-10.06,2.31a2.76,2.76,0,0,1-2.1-.21C177.71,243.5,177.28,242.13,177.73,241.56Z"/>
    <path class="cls-1"
          d="M277.93,285c-1.84.67-2.31,2.65-2.73,3.56a14.1,14.1,0,0,0-1,5.45c-.16,2.21.17,1.14.42,6.71,0,.88.08,2.09.84,2.52.33.19.71.13,1.47,0a9.89,9.89,0,0,0,3.77-1.47,3.37,3.37,0,0,0,1-.84c.68-1.08-.06-2.47-.42-3.77-.56-2-.18-3.69.42-6.29,1-4.32,3.22-5.65,2.52-6.71S280.24,284.11,277.93,285Z"/>
    <path class="cls-1"
          d="M218.61,287.88c-.47-.35-3.73,2.6-6.08,6.5-.55.9-5.35,8.86-2.52,12.37,1.19,1.47,3.22,1.55,5.24,1.68,11.54.73,7.64,2,18,2.31,10.92.3,8.71-1.31,22-1.47,6-.07,12.39.18,13.84-2.93a11,11,0,0,0,.42-2.52c.48-4.13-.1-5,.21-7.34.58-4.38,3.28-6.23,2.31-7.55-.46-.62-1.37-.61-2.73-.63-2.87,0-5.73-.6-8.59-.42-5.08.32-4.9-.83-16.35-1.68-5.14-.38-7.77-.56-10.9-.21-3.45.39-7.52.84-11.53,3.35-5,3.14-7.19,7.78-7.55,7.55S219.32,288.42,218.61,287.88Z"/>
    <path class="cls-1"
          d="M219.45,282.85a14.13,14.13,0,0,0-5.45,2.93c-4,3.65-4.34,8.73-5,8.59s-1.06-3,.21-5.66C211.61,283.74,219.37,282.65,219.45,282.85Z"/>
    <path class="cls-1"
          d="M223.22,278.24c-.56.71-2.07.13-3.35,0-4.79-.47-8.59,5.18-9.22,4.61-.39-.36,1-2.65,2.31-4.4,2.83-3.79,5.33-5.14,5-5.66s-3.1.06-5,1.89c-1.3,1.24-1.71,2.59-1.89,2.52s1.34-4.23,2.1-8.18a33.25,33.25,0,0,0-.21-12.16c-2.09-13.16-6.23-25.31-6.08-25.36s6.29,22.9,11.74,32.28c2.2,3.78,2.63,8.37,4.4,12.37C223.19,276.54,223.69,277.65,223.22,278.24Z"/>
    <path class="cls-17"
          d="M150.48,192.92c-.56.55-.26,1.18.21,5.24.4,3.46.31,4.15,1,4.82,1.07,1,2.73.89,3.77.84s1.82-.09,2.31-.63.6-1.09-.21-4.19-1.15-4.43-2.1-5.24C154,192.49,151.5,191.93,150.48,192.92Z"/>
    <path class="cls-17"
          d="M153.84,210.11c-.84.11-.2,7,.42,23.48,1.49,39.91,2.41,64.42.84,72.74a25.34,25.34,0,0,0,0,10.27,33.63,33.63,0,0,0,1.47,4.61c2,5.51,2.8,6.13,6.5,14,1.85,4,2.45,5.52,3.77,5.66,1.49.16,2.83-1.59,4-3.14a23.48,23.48,0,0,0,4.19-9.64,36.33,36.33,0,0,0-.42-14c-4.94-20.14-6.6-41-11.11-61.21C157,223.82,155,210,153.84,210.11Z"/>
    <path class="cls-18"
          d="M97.45,377.81c.86-.49,1.35.09,4,.42a22.73,22.73,0,0,0,9.22-.84c2-.57,8.75-2.51,11.95-8,.67-1.14,1.29-2.62,1.89-2.52s1,2.46.84,4.4c-.25,2.38-1.26,3.85-1,4,.47.3,5-7.27,6.29-6.71s-.6,7.09-.84,8c-1.49,5.48-3.14,11.51-8.59,17.19a32.52,32.52,0,0,1-11.95,7.76c-6.68,2.47-14.54,2.82-15.3.84-.23-.59.34-1,1-3.35a24.7,24.7,0,0,0,.84-4.4C96.66,387.52,94.61,379.42,97.45,377.81Z"/>
    <path class="cls-18"
          d="M98.92,372.15c-.59-1.08,1.06-2,1.89-6.29.42-2.16.19-2.92.84-3.35,1.27-.84,3.1,1.46,7.13,2.73,4.27,1.34,7,.26,7.34,1.26.37,1.16-3.12,3.39-5.87,4.61C105.91,373,99.93,374,98.92,372.15Z"/>
    <path class="cls-18"
          d="M91.79,407.16c1.7-1,3.58.41,7.13,1,3.88.69,6.85-.08,11.32-1.26a31.88,31.88,0,0,0,13-6.08c4-3.28,5.84-6.75,8.38-11.53,3.4-6.38,5.68-10.67,5.66-16.14,0-1.14-.11-3.33.63-3.56s2.31,1.89,3.14,3.77c2,4.5.67,8.68,1.26,8.8s1.71-2.79,2.52-5.87c1.22-4.67.52-5.93,1.89-7.13,1.65-1.44,4.42-1.15,7.34-.84a5.88,5.88,0,0,1,2.73.63c2.37,1.62,1.74,6.33,1.47,8.8-1.69,15.17,2,16.83-1.26,27.25a73.66,73.66,0,0,1-4.19,9.43c-6.81,14-10.26,16.67-13.63,25-1.2,3-1.7,4.92-4.19,19.7-3.8,22.51-5,31.23-5,31.23-6.52,46.15-7.41,52.11-8.59,58.9-3.52,20.18-5.59,24.54-5.24,28.09a4.82,4.82,0,0,1-.63,3.14c-1.47,2.23-5,2.28-6.5,2.31-18,.33-25.66,2.67-28.09-1.89a5.79,5.79,0,0,1-.63-2.73c-.33-14.61-.5-21.92.42-26.2C85.17,531.12,90.86,429.17,90,414,89.83,412.94,89.51,408.52,91.79,407.16Z"/>
    <path class="cls-18"
          d="M88.43,358.74a4.46,4.46,0,0,1,4.82.63c1.73,1.89-.24,5.79-1.89,10.9-.63,2,.13-.07-3.14,17.19-2.5,13.17-3.74,19.75-4.19,19.7-.71-.07.55-8.64.84-26.2C85.08,367.88,84.58,360.54,88.43,358.74Z"/>
    <path class="cls-18"
          d="M168.72,370.69c-.94.24.42,6.15.63,17.61.15,8.59-.61,5.13-.63,14.25,0,4,.14,6.72-1.68,9.22-2.15,3-5.45,3.48-5.24,4.19.26.9,5.7.73,10.9-.63,3-.79,4.78-1.67,5.24-1s-1.24,3.3-3.14,5c-5.11,4.66-11.59,4.22-11.53,5s4.48,1.68,8.8.21c2.32-.79,3.72-2,4-1.68S174,426.4,171.24,429c-7.31,6.84-15.56,9.11-15.3,9.85s8.73-2.44,10.27,0c.65,1-.18,2.67-.84,4-2,4-4.9,4.31-5.87,6.92-1.09,2.94,1.21,6.26,1.89,7.34,3.24,5.13,4,15.58,5.66,36.47,2.73,35.37-2.29,61-.21,69.6.45,1.87,2.13,6.53.21,10.9-.44,1-.85,1.49-.63,2.1,1.19,3.24,17,.63,17,.63h0s2.24-1.17,2.73-1.47c2.63-1.63,1.77-7.76,1.89-14.88.06-3.9.34-3.17.63-8.8,1-20,3-133.75,3.77-142.13.24-2.51,0-5.06.42-7.55a4.58,4.58,0,0,0,0-2.73c-.82-2-3.43-2.13-5.24-2.93s-3.84-2.77-6.29-12c-2.64-9.89-3-17.83-3.35-17.82s.89,17.58-1.47,18S170.21,370.3,168.72,370.69Z"/>
    <path class="cls-18"
          d="M185.91,366.07c-1.09.93-.38,3,1.47,9.64,3.22,11.56,3.85,15.19,4.61,15.09.56-.07.43-2.07,1-7.76,1-9.58,2.24-11.6.63-14C191.77,366.14,187.4,364.8,185.91,366.07Z"/>
    <path class="cls-19"
          d="M87.18,600.64c-1.06-1.88.15-4.43.84-5.87a12.18,12.18,0,0,1,6.29-5.87c4.32-1.67,8.14-.08,9.85.63,2.08.86,4.67,1.94,5.66,4.61a6.62,6.62,0,0,1-.63,5.87c-1.88,2.72-5.68,2.72-12.16,2.73C91.52,602.74,88.33,602.7,87.18,600.64Z"/>
    <path class="cls-19"
          d="M73.34,600.22c-1.21-2.55,1.27-5.71,1.89-6.5,2.58-3.29,6.32-3.92,9.22-4.4,2.63-.44,3,0,3.14.21.62.94-1.56,2.42-2.52,5.87-.86,3.11.3,4.11-.84,5.66-1.47,2-4.79,2.17-6.92,1.68C76.37,602.52,74.19,602,73.34,600.22Z"/>
    <path class="cls-19"
          d="M60.34,602.32c-.9-1.45.83-4,1.26-4.61a10.1,10.1,0,0,1,5.87-3.77c2.08-.65,5.07-1.06,5.45-.21.27.59-1,1.19-1.68,3.14-.62,1.78,0,2.51-.42,3.56C69.66,603.51,61.79,604.65,60.34,602.32Z"/>
    <path class="cls-19"
          d="M176.9,585.55c-.27,2.62,5.88,6.4,10.48,5.66,1-.16,1.21-.42,4-1,3.58-.82,4.79-.75,5-1.47.4-1.18-2.31-3.1-3.56-4a14.28,14.28,0,0,0-5.45-2.73C182.89,581.06,177.14,583.14,176.9,585.55Z"/>
    <path class="cls-19"
          d="M201.21,590.37c.14.27,2-1,5.45-1.26a16.54,16.54,0,0,1,5,.42c5.64,1.43,8.19,6,9,5.45.65-.45-.41-3.61-2.31-5.87a10.73,10.73,0,0,0-6.5-3.77C205.85,584.48,201,589.91,201.21,590.37Z"/>
    <path class="cls-19"
          d="M33.72,321c.14-.73,2.36-.16,3.77-1.68s.44-2.9,1-5c1.25-4.36,7.1-6.11,8.38-6.5,2.12-.64,7.13-1.64,8.38.42.67,1.09,0,2.57-1.26,5.24-1.41,3-2.59,5.58-5.45,7.76a12.68,12.68,0,0,1-8.18,2.93C36.8,324,33.54,321.91,33.72,321Z"/>
    <path class="cls-19"
          d="M53.85,325a26,26,0,0,1,.63-6.08c.67-2.62,1.42-5.58,3.56-6.29,2.56-.85,5.43,2.07,5.66,2.31,2.71,2.82,2.6,6.8,2.52,9.64-.12,4.19-.06,7.38-2.52,9.64s-7.18,3.13-9.22,1.26C53.54,334.61,53.63,331.39,53.85,325Z"/>
    <path class="cls-19"
          d="M31,360.2c-.27-.51-.5-1.28.42-5.24a35.22,35.22,0,0,1,2.1-6.92,17.94,17.94,0,0,1,3.35-5.66c1-1,3.57-3.82,5.45-3.14,2.13.76,2.1,5.5,2.1,6.71,0,4.43-1.83,7.47-4.61,12.16-2.09,3.52-3.11,4.22-4.19,4.4A4.63,4.63,0,0,1,31,360.2Z"/>
    <path class="cls-19"
          d="M44.83,360.62c-1-.64-.77-2.87-.63-4.4a15.32,15.32,0,0,1,1.26-4.4c2.45-6.4,3-7,3.56-7.55.28-.25,2.78-2.44,4.61-1.68,2.2.92,2.52,5.76,1.47,9.22C53.28,357.82,46.67,361.83,44.83,360.62Z"/>
    <path class="cls-19"
          d="M23,352.66c-.38-1.91,0-3.86,1.68-7.76,1.82-4.12,2.74-6.19,4.61-7.76,1.72-1.44,5-3.32,6.29-2.31,1.69,1.3-.77,6.92-1.68,9-.41.94-2.73,7.32-6.92,10.48a2.93,2.93,0,0,1-2.52.84C23.48,354.81,23.17,353.33,23,352.66Z"/>
    <path class="cls-19"
          d="M7.1,321.21a4.91,4.91,0,0,1-.21-4c.95-2,3.5-2.42,5.24-2.73,2.61-.45,4.59,0,8,.84,3.93,1,5.9,1.45,6.29,2.73.61,2-2.49,4.6-4.19,5.66a12,12,0,0,1-8.38,1.47C12.34,324.93,8.52,324.25,7.1,321.21Z"/>
    <path class="cls-19"
          d="M317.76,266.29c-.72-.82-.48-2.37,0-5.45a28.39,28.39,0,0,1,2.31-8c1.33-2.77,2.06-4.28,3.56-4.61,2.32-.52,4.56,2.2,4.82,2.52,3,3.67,1.46,8.8,1.26,9.43a9.73,9.73,0,0,1-3.14,4.82C323.82,267.22,319.33,268.09,317.76,266.29Z"/>
    <path class="cls-19"
          d="M293,279.92c-.42-1.71,2.16-3.69,3.35-4.61a17.71,17.71,0,0,1,10.9-3.35c2.41.1,3.07.67,5.66.42,2-.19,3.19-.67,4,0,1,.89.54,3.06.42,3.56-.75,3.22-3.67,5.78-6.71,6.92-2.54,1-4.77.64-9.22,0S293.47,281.72,293,279.92Z"/>
    <path class="cls-19"
          d="M290.09,285.37a9,9,0,0,1,4.61-1,53.63,53.63,0,0,1,8,.42c4.75.48,6.08.71,7.76,1.26a10,10,0,0,1,3.56,1.68c1.91,1.55,3.82,4.65,2.93,6.29-1.37,2.56-9.23,1-18.87-.84a17.64,17.64,0,0,1-7.55-1.68c-1.15-.6-2.86-1.53-2.93-2.93C287.49,286.91,289.58,285.67,290.09,285.37Z"/>
    <path class="cls-19"
          d="M323.42,276.14c.24-.78,4.37-.14,5.24,0a21.55,21.55,0,0,1,6.71,2.31c4.17,2.08,5.79,4.14,6.29,4.82.34.46,1.4,1.9,1,2.31s-2.85-.91-4.19-1.68C329.43,278.71,323.13,277.12,323.42,276.14Z"/>
    <path class="cls-19"
          d="M322.79,281.18c.46-.72,2.88.11,7.34,1.68,8.15,2.86,9.87,4.53,10.69,5.45,1.81,2,3.15,4.84,2.52,5.45s-2-.8-5.45-2.52c-6-3-8-2.34-11.53-5.24C324.45,284.43,322.28,282,322.79,281.18Z"/>
    <path class="cls-19"
          d="M322.58,290.19c.48-.82,5.41,1.25,6.92,1.89,2.78,1.17,4.78,2,6.71,4s3.82,5.17,3.14,5.87-5.1-2.08-8.18-4.19C330.63,297.36,321.91,291.35,322.58,290.19Z"/>
    <path class="cls-20"
          d="M790.72,67.14s.15,14.55,1,19.55c1,6.38,8.78,11.41,11.41,12.29-11.09,1.12-22.52-3.44-24.85-6.56C772.72,85,787.16,65.13,790.72,67.14Z"/>
    <path class="cls-20"
          d="M588.5,40h173A29.5,29.5,0,0,1,791,69.5h0A29.5,29.5,0,0,1,761.5,99h-173A29.5,29.5,0,0,1,559,69.5h0A29.5,29.5,0,0,1,588.5,40Z"/>
    <path class="cls-1" d="M588.22,55.43V77h-2.78V55.43Z"/>
    <path class="cls-1"
          d="M596.89,57.07v4.45h4v2.14h-4V72c0,1.92.54,3,2.11,3a6.28,6.28,0,0,0,1.63-.19l.13,2.11a6.89,6.89,0,0,1-2.5.38,3.9,3.9,0,0,1-3-1.18c-.8-.83-1.09-2.21-1.09-4V63.67h-2.4V61.53h2.4V57.8Z"/>
    <path class="cls-1"
          d="M614,57.16a1.74,1.74,0,1,1-3.49,0h0a1.72,1.72,0,0,1,1.68-1.76h.08A1.67,1.67,0,0,1,614,57Q614,57.08,614,57.16ZM610.87,77V61.51h2.82V77Z"/>
    <path class="cls-1"
          d="M618,74.12a7.38,7.38,0,0,0,3.71,1.12c2,0,3-1,3-2.3s-.8-2.08-2.88-2.85c-2.78-1-4.1-2.53-4.1-4.38,0-2.5,2-4.54,5.34-4.54a7.73,7.73,0,0,1,3.81,1l-.7,2a6,6,0,0,0-3.17-.9c-1.66,0-2.59,1-2.59,2.11s.93,1.86,2.94,2.62c2.69,1,4.06,2.37,4.06,4.67,0,2.72-2.11,4.64-5.79,4.64a8.83,8.83,0,0,1-4.35-1.06Z"/>
    <path class="cls-1"
          d="M639.38,69.77c.06,3.81,2.5,5.38,5.31,5.38a10.18,10.18,0,0,0,4.29-.8l.48,2a12.54,12.54,0,0,1-5.15,1c-4.77,0-7.62-3.14-7.62-7.81s2.75-8.35,7.26-8.35c5.06,0,6.4,4.45,6.4,7.3a10.78,10.78,0,0,1-.1,1.31Zm8.26-2c0-1.79-.74-4.58-3.9-4.58-2.85,0-4.1,2.62-4.32,4.58Z"/>
    <path class="cls-1"
          d="M655.06,61.51l2.21,3.33c.58.86,1.06,1.66,1.57,2.53h.1c.51-.93,1-1.73,1.54-2.56l2.18-3.3h3L660.41,69l5.44,8h-3.2l-2.27-3.49c-.61-.9-1.12-1.76-1.66-2.69h-.06c-.51.93-1.06,1.76-1.63,2.69L654.77,77h-3.1l5.5-7.9-5.25-7.58Z"/>
    <path class="cls-1"
          d="M668.57,66.57c0-2-.06-3.58-.13-5.06H671l.13,2.66h.06a6.09,6.09,0,0,1,5.5-3c3.74,0,6.56,3.17,6.56,7.87,0,5.57-3.39,8.32-7,8.32a5.43,5.43,0,0,1-4.77-2.43h-.06v8.42h-2.78Zm2.78,4.13a6.28,6.28,0,0,0,.13,1.15,4.34,4.34,0,0,0,4.22,3.3c3,0,4.7-2.43,4.7-6,0-3.1-1.63-5.76-4.61-5.76a4.49,4.49,0,0,0-4.26,3.49,4.58,4.58,0,0,0-.19,1.15Z"/>
    <path class="cls-1"
          d="M688.34,69.77c.06,3.81,2.5,5.38,5.31,5.38a10.18,10.18,0,0,0,4.29-.8l.48,2a12.54,12.54,0,0,1-5.15,1c-4.77,0-7.62-3.14-7.62-7.81s2.75-8.35,7.26-8.35c5.06,0,6.4,4.45,6.4,7.3a10.78,10.78,0,0,1-.1,1.31Zm8.26-2c0-1.79-.74-4.58-3.9-4.58-2.85,0-4.1,2.62-4.32,4.58Z"/>
    <path class="cls-1"
          d="M702.81,65.7a41.77,41.77,0,0,0-.13-4.19h2.5l.16,2.56h.06a5.69,5.69,0,0,1,5.12-2.91c2.14,0,5.47,1.28,5.47,6.59V77h-2.82V68.07c0-2.5-.93-4.58-3.58-4.58a4.12,4.12,0,0,0-4,4.19V77H702.8Z"/>
    <path class="cls-1"
          d="M720.18,74.12a7.38,7.38,0,0,0,3.71,1.12c2,0,3-1,3-2.3s-.8-2.08-2.88-2.85c-2.78-1-4.1-2.53-4.1-4.38,0-2.5,2-4.54,5.34-4.54a7.73,7.73,0,0,1,3.81,1l-.7,2a6,6,0,0,0-3.17-.9c-1.66,0-2.59,1-2.59,2.11s.93,1.86,2.94,2.62c2.69,1,4.06,2.37,4.06,4.67,0,2.72-2.11,4.64-5.79,4.64a8.83,8.83,0,0,1-4.35-1.06Z"/>
    <path class="cls-1"
          d="M736.37,57.16a1.74,1.74,0,1,1-3.49,0h0a1.72,1.72,0,0,1,1.68-1.76h.08A1.67,1.67,0,0,1,736.37,57Q736.37,57.08,736.37,57.16ZM733.24,77V61.51h2.82V77Z"/>
    <path class="cls-1"
          d="M741.81,61.51l3,8.7a40,40,0,0,1,1.25,4h.1c.35-1.28.8-2.56,1.31-4l3-8.7h2.94l-6,15.49h-2.69L738.8,61.51Z"/>
    <path class="cls-1"
          d="M757.36,69.77c.06,3.81,2.5,5.38,5.31,5.38a10.18,10.18,0,0,0,4.29-.8l.48,2a12.54,12.54,0,0,1-5.15,1c-4.77,0-7.62-3.14-7.62-7.81s2.75-8.35,7.26-8.35c5.06,0,6.4,4.45,6.4,7.3a10.78,10.78,0,0,1-.1,1.31Zm8.26-2c0-1.79-.74-4.58-3.9-4.58-2.85,0-4.1,2.62-4.32,4.58Z"/>
    <path class="cls-21"
          d="M264.16,167.14s-.15,14.55-1,19.55c-1,6.38-8.78,11.41-11.41,12.29,11.09,1.12,22.52-3.44,24.85-6.56C282.16,185,267.72,165.13,264.16,167.14Z"/>
    <path class="cls-21"
          d="M470.5,199H293.38a29.5,29.5,0,0,1-29.5-29.5h0a29.5,29.5,0,0,1,29.5-29.5H470.5A29.5,29.5,0,0,1,500,169.5h0A29.5,29.5,0,0,1,470.5,199Z"/>
    <path class="cls-1" d="M287.43,158.1h2.78v19.23h9.21v2.34h-12Z"/>
    <path class="cls-1"
          d="M303.56,172.43c.06,3.81,2.5,5.38,5.31,5.38a10.18,10.18,0,0,0,4.29-.8l.48,2a12.54,12.54,0,0,1-5.15,1c-4.77,0-7.62-3.14-7.62-7.81s2.75-8.35,7.26-8.35c5.06,0,6.4,4.45,6.4,7.3a10.78,10.78,0,0,1-.1,1.31Zm8.26-2c0-1.79-.74-4.58-3.9-4.58-2.85,0-4.1,2.62-4.32,4.58Z"/>
    <path class="cls-1"
          d="M321.42,159.73v4.45h4v2.14h-4v8.35c0,1.92.54,3,2.11,3a6.28,6.28,0,0,0,1.63-.19l.13,2.11a6.89,6.89,0,0,1-2.5.38,3.9,3.9,0,0,1-3-1.18c-.8-.83-1.09-2.21-1.09-4v-8.45h-2.4V164.2h2.4v-3.71Z"/>
    <path class="cls-1" d="M330.7,157.75l-.54,7.68h-1.73l-.51-7.68Z"/>
    <path class="cls-1"
          d="M334.25,176.78A7.38,7.38,0,0,0,338,177.9c2,0,3-1,3-2.3s-.8-2.08-2.88-2.85c-2.78-1-4.1-2.53-4.1-4.38,0-2.5,2-4.54,5.34-4.54a7.73,7.73,0,0,1,3.81,1l-.7,2a6,6,0,0,0-3.17-.9c-1.66,0-2.59,1-2.59,2.11s.93,1.86,2.94,2.62c2.69,1,4.06,2.37,4.06,4.67,0,2.72-2.11,4.64-5.79,4.64a8.83,8.83,0,0,1-4.35-1.06Z"/>
    <path class="cls-1"
          d="M365.13,179.09a10.37,10.37,0,0,1-4.45.9c-4.67,0-7.71-3.17-7.71-7.9a7.88,7.88,0,0,1,8.32-8.22,9.41,9.41,0,0,1,3.9.8l-.64,2.18a6.53,6.53,0,0,0-3.26-.74c-3.55,0-5.47,2.62-5.47,5.86,0,3.58,2.3,5.79,5.38,5.79a8,8,0,0,0,3.46-.77Z"/>
    <path class="cls-1"
          d="M382.25,171.79c0,5.73-4,8.22-7.71,8.22-4.19,0-7.42-3.07-7.42-8,0-5.18,3.39-8.22,7.68-8.22C379.24,163.83,382.25,167.06,382.25,171.79ZM370,172c0,3.39,2,6,4.7,6s4.7-2.53,4.7-6c0-2.62-1.31-6-4.64-6S370,169,370,172Z"/>
    <path class="cls-1"
          d="M385.8,168.37a41.77,41.77,0,0,0-.13-4.19h2.46l.13,2.5h.1a5.34,5.34,0,0,1,4.86-2.85,4.58,4.58,0,0,1,4.38,3.1h.06a6.37,6.37,0,0,1,1.73-2,5.28,5.28,0,0,1,3.42-1.09c2,0,5.09,1.34,5.09,6.72v9.12h-2.75V170.9c0-3-1.09-4.77-3.36-4.77a3.65,3.65,0,0,0-3.33,2.56,4.64,4.64,0,0,0-.22,1.41v9.57h-2.75v-9.28c0-2.46-1.09-4.26-3.23-4.26a4.2,4.2,0,0,0-3.71,4.19v9.34H385.8Z"/>
    <path class="cls-1"
          d="M412.49,169.23c0-2-.06-3.58-.13-5.06h2.53l.13,2.66h.06a6.09,6.09,0,0,1,5.5-3c3.74,0,6.56,3.17,6.56,7.87,0,5.57-3.39,8.32-7,8.32a5.43,5.43,0,0,1-4.77-2.43h-.06V186h-2.78Zm2.78,4.13a6.29,6.29,0,0,0,.13,1.15,4.34,4.34,0,0,0,4.22,3.3c3,0,4.7-2.43,4.7-6,0-3.1-1.63-5.76-4.61-5.76a4.49,4.49,0,0,0-4.26,3.49,4.58,4.58,0,0,0-.19,1.15Z"/>
    <path class="cls-1"
          d="M439.27,179.66l-.22-2h-.1a5.77,5.77,0,0,1-4.74,2.3,4.41,4.41,0,0,1-4.73-4.07q0-.19,0-.38c0-3.74,3.33-5.79,9.31-5.76v-.32c0-1.28-.35-3.58-3.52-3.58a7.71,7.71,0,0,0-4,1.15l-.64-1.86a9.61,9.61,0,0,1,5.09-1.38c4.74,0,5.89,3.23,5.89,6.34V176a21.87,21.87,0,0,0,.26,3.71Zm-.42-7.9c-3.07-.06-6.56.48-6.56,3.49a2.49,2.49,0,0,0,2.28,2.69h.38a3.85,3.85,0,0,0,3.74-2.59,2.92,2.92,0,0,0,.16-.9Z"/>
    <path class="cls-1"
          d="M446.12,169c0-1.82,0-3.39-.13-4.83h2.46l.1,3h.13a4.65,4.65,0,0,1,4.29-3.39,3,3,0,0,1,.8.1v2.66a4.23,4.23,0,0,0-1-.1c-2,0-3.39,1.5-3.78,3.62a7.88,7.88,0,0,0-.13,1.31v8.26h-2.78Z"/>
    <path class="cls-1"
          d="M457.83,172.43c.06,3.81,2.5,5.38,5.31,5.38a10.18,10.18,0,0,0,4.29-.8l.48,2a12.54,12.54,0,0,1-5.15,1c-4.77,0-7.62-3.14-7.62-7.81s2.75-8.35,7.26-8.35c5.06,0,6.4,4.45,6.4,7.3a10.78,10.78,0,0,1-.1,1.31Zm8.26-2c0-1.79-.74-4.58-3.9-4.58-2.85,0-4.1,2.62-4.32,4.58Z"/>
    <path class="cls-1" d="M471.24,178a1.89,1.89,0,0,1,1.78-2h.14a2,2,0,1,1-1.92,2.08S471.24,178,471.24,178Z"/>
    <path class="cls-9"
          d="M889.05,581.41c-.43,1.5-.13,3-1.3,6a21,21,0,0,1-3.66,6c-4.92,5.86-9.79,6.6-9.5,8.21.34,2,7.75.21,16.63,4.1,6.87,3,6.63,5.93,11.44,6.7,8.49,1.4,16.3-6.55,18.35-8.63,2.56-2.59,4.08-5.25,7.12-10.58,4.57-8,6.85-12,5.6-14.9-1.79-4.2-9-4.56-16-5C906.89,572.79,891,574.61,889.05,581.41Z"/>
    <path class="cls-9"
          d="M860.55,579.07c.52,1.4.7,2.07,2.38,10.16.83,4,.94,8.24,2.38,12.09a5.79,5.79,0,0,1,.64,3.89c-.15.48-.88,2.46-6,4.1a27.42,27.42,0,0,1-9.29,1.3c-6.32-.35-12.67.14-19-.21-7.29-.41-6.6.11-21.37,0-19.89-.15-13.86-.7-14.46-.64a6.51,6.51,0,0,1-2.38-.21,7.3,7.3,0,0,1-3.66-2.59,8.67,8.67,0,0,1-1.51-6.27,10.09,10.09,0,0,1,2.38-5.4,10.6,10.6,0,0,1,6-3.66,11.74,11.74,0,0,1,6,.64c2,.7,2.38,1.4,3.89,1.51a7.39,7.39,0,0,0,4.53-1.51c8.84-5.46,8.13-4.52,9.29-5.6,4.34-4.2,3-6.67,7.12-10.8a21.42,21.42,0,0,1,7.78-4.76c5.32-2.11,16.07-4.41,21.6,1.08C858.5,573.74,859.2,575.55,860.55,579.07Z"/>
    <path class="cls-22"
          d="M831.62,370.43a119.61,119.61,0,0,0,1.08,12.09c.69,4.92,1.06,7.44,2.15,9.93,2.66,6,8.1,9,10.8,10.58,19.25,11.11,17.85,17.75,30.45,22,15,5.09,37.18,2.48,49.88-12.59a42.36,42.36,0,0,0,9.5-27.85c-.14-4.27-1.33-20.49-12.74-28.28-7.86-5.36-13-1.57-33-1.94-29.64-.56-41.21-9.29-50.75-1.3C836.15,355.51,832.47,360.19,831.62,370.43Z"/>
    <path class="cls-22"
          d="M861.19,409.52c-4.1-4-4-4.62-7.34-8,0,0-7.12-7.2-14-9.5a13.4,13.4,0,0,0-6-.21,2.14,2.14,0,0,0-1.3.64,2,2,0,0,0-.43,1.51,3.22,3.22,0,0,0,.87,1.51s-.59.21-1.3.43a4.3,4.3,0,0,0-2.38,1.72,3.47,3.47,0,0,0-.21,2.38c.28,1.59,1.4,3.39,2.59,3.46.32,0,.62-.08.64,0s-1,.56-1.72,1.08a6.35,6.35,0,0,0-2.15,3,192.43,192.43,0,0,0-9.93,29.38c-4.94,21.92-5.25,21.07-6,27a162.86,162.86,0,0,1-2.59,16.2c-.66,3-1.17,4.8-1.72,8.21a97.74,97.74,0,0,0-1.08,11.88c-.07,3.43,0,8.81,2.59,22.89,2.32,13,4.2,19.39,5,30.45a35.38,35.38,0,0,1,0,8.63c-1.31,8-5.89,12.59-3.89,15.54a4.85,4.85,0,0,0,3,1.72,90.61,90.61,0,0,0,18.58,3.46c8.52.38,12.79.57,17.49.43,14.58-.43,15.57-2.45,18.79-2.15.28,0,1.3.13,1.72-.43.62-.8-.35-2.46-.64-3-.08-.17-1.06-3.78-3-11a85.7,85.7,0,0,1-1.72-11c-.64-5.23-.77-7.39-1.51-15.54-.49-5.37-.91-9.19-1.72-16.79-1-8.9-1.29-11.19-2.59-14.46-1.58-4-2.66-4.45-3-7.12-.71-5.15,2.39-9.48,5.18-13.39,4.41-6.17,8.39-12.59,13.18-18.58,13.85-17.25,18.26-42.44,11.67-47.56"/>
    <path class="cls-22"
          d="M869.83,400.89c-3,8.62-3.32,15.39-3.89,28.51a297.79,297.79,0,0,0,.87,35.63c1.08,15.82,1.48,22.3,2.8,29.38,1.08,5.76,2.36,10.8,3.25,14.25,2.29,9,3.37,11.57,6.48,22,0,0,6.22,21,7.34,38.44.21,3.34.34,5.6-.87,8.21-.92,2-2.08,2.94-1.72,4.1.57,1.9,4.57,2.25,6,2.38,16,1.3,31.91.34,44.27.43,5.41,0,5.89.25,6.91-.43,3.66-10.58-7.32-62.95-9.72-69.94A47.2,47.2,0,0,1,929,501.79a50.15,50.15,0,0,1,2.15-18.35c7.57-27.7,11.36-41.55,12.09-43.62,2.66-7.47,5.18-13.81,6.7-23.78A94.85,94.85,0,0,0,951,403.29c.13-10.27-2.73-20.09-8.39-39.29-2-6.87-2.8-9.05-5.18-10.58-6.1-4-15.86.84-21.6,3.66"/>
    <path class="cls-22" d="M894.89,371.51c-8.6,5.67-8.63,4.88-11.67,7.55"/>
    <path class="cls-23"
          d="M827.07,362c0,.14,0,.11,1.72,6.27.88,3.2,1.31,4.84.87,6a2.8,2.8,0,0,0-.21,1.94,2.5,2.5,0,0,0,1.3,1.3,5.68,5.68,0,0,0,4.32-.21c3.3-1.3,7-1.24,10.37-2.38,1.15-.38,5.88-1.4,15.39-3.25,8-1.62,8.57-1.61,20.51-3.89,15.95-3,15.79-3.22,20.73-3.89,7.06-1,7.5-.62,17.28-1.94,3.19-.43,7.23-1,12.31-1.51s7.61-.74,8-.64a6.55,6.55,0,0,0,3.66-.21c.8-.31,1-.63,1.08-.87.21-.77-.8-1.66-1.08-1.94-2.27-2.2-1.75-7.23-1.94-8.21C939.65,340,826.23,352.54,827.07,362Z"/>
    <path class="cls-24"
          d="M845.65,358.77c-.36.77,0,1.12,1.08,6.48.08.45.42,1.94,1.08,5,.56,2.53.85,3.8,1.72,4.53a4.7,4.7,0,0,0,3,.87c4.42.11,6.64-1,11.67-1.94,3.83-.73,5.47-.62,6.7-2.15a5.81,5.81,0,0,0,1.08-3.25c.35-3.29.91-8.39-1.94-11.19-1-1-2-1.27-15.77-.43C848.88,356.94,846.43,357.16,845.65,358.77Z"/>
    <path class="cls-23"
          d="M850.18,360.07c-.38,1,.5,1.23.87,4.76a8.39,8.39,0,0,0,.87,3.89,4.63,4.63,0,0,0,1.3,1.51c1.12.8,2.22.57,6.48,0,3.4-.46,4.2-.52,5-1.3a5,5,0,0,0,1.3-2.59,7.71,7.71,0,0,0-.87-5.6C862.06,356,851.38,357,850.18,360.07Z"/>
    <path class="cls-22" d="M833.34,395.26a25,25,0,0,1,5,.87,25.37,25.37,0,0,1,6,2.59,25.68,25.68,0,0,1,6,5"/>
    <path class="cls-22" d="M832.69,403.25a15.7,15.7,0,0,1,3.25-.64,18.07,18.07,0,0,1,8,1.3,38.1,38.1,0,0,1,11,6.27"/>
    <path class="cls-22" d="M887.32,369.36a29,29,0,0,0-4.53,3.66,31,31,0,0,0-6,8.63,36.38,36.38,0,0,0-2.15,5.4"/>
    <path class="cls-22"
          d="M853.2,376.91c.17,1.31.45,3.27.87,5.6a89.42,89.42,0,0,0,2.59,11.19,40.2,40.2,0,0,0,2.15,5.83,32.75,32.75,0,0,0,2.8,4.76"/>
    <path class="cls-22"
          d="M865.79,375v6.91c.08,5.06.28,5.4.21,8.63a44.2,44.2,0,0,1-1.08,9.93c-.31,1.26-.62,2.29-.87,3"/>
    <path class="cls-11" d="M910,365.9a26.94,26.94,0,0,0,10.58,5.83"/>
    <path class="cls-11" d="M914.09,367c.74.29,1.54.59,2.38.87a37,37,0,0,0,4.1,1.08"/>
    <path class="cls-22"
          d="M924.68,367.19a72.23,72.23,0,0,1,3.89,11.19,80.45,80.45,0,0,1,2.15,13.82c.18,2.63.21,4.85.21,6.48"/>
    <path class="cls-22"
          d="M930.73,407.8c-.45,4.07-1.27,11-2.59,19.58-2.45,16-4.34,23-6.7,38.44-.74,4.81-1.82,12.37-2.8,21.81"/>
    <path class="cls-22"
          d="M922.51,499.34c-1.54,3.25-1.62,4.29-1.3,4.53s1.47-.78,1.94-.43-.35,1.72-.43,3.66a8.59,8.59,0,0,0,.64,3.46c1.11,3.3,2.67,14,4.76,28.28,2.25,15.39,2.56,21.75,2.59,25.26,0,4.43-.21,8.85-.21,8.85-.17,2.8-.41,5.4-.64,7.55"/>
    <path class="cls-22" d="M850.4,514c.73,4.2,1.4,8.56,1.94,13.18.62,5.2,1,10.18,1.3,14.9"/>
    <path class="cls-22" d="M854.07,549.7c.35,3.41.55,6.53.64,9.29.14,3.79.1,6.83,0,12.74,0,3.4-.13,6.52-.21,9.29"/>
    <path class="cls-22"
          d="M849.75,505.6a24.27,24.27,0,0,1,.64-6.48,25.18,25.18,0,0,1,2.59-6.48s.14-.25,7.34-14.9c1.4-2.8,3.33-7,5.4-12.31"/>
    <path class="cls-9"
          d="M801.6,601c-.71-1.06-.48-2.5,0-5.4a13.43,13.43,0,0,1,2.38-6.48,12.42,12.42,0,0,1,7.34-4.32,15.81,15.81,0,0,1,8.21.43c1,.28,9.13,2.53,9.29,6.27.11,2.73-4.1,4.85-7.78,6.7C814.4,601.58,803.93,604.53,801.6,601Z"/>
    <path class="cls-9"
          d="M862.92,601a15.49,15.49,0,0,1,3.46-6.91,15.9,15.9,0,0,1,8.21-5,16.59,16.59,0,0,1,8.21.21A14.93,14.93,0,0,1,894,602.13a13.16,13.16,0,0,1-1.72,9.5,10.52,10.52,0,0,1-4.32,3.66,11.82,11.82,0,0,1-4.1.87,34.31,34.31,0,0,1-11.44-.43,13.67,13.67,0,0,1-5.18-1.72c-3.82-2.67-4.43-7.55-4.53-8.39A14.32,14.32,0,0,1,862.92,601Z"/>
    <path class="cls-9"
          d="M884.09,598.89a11.19,11.19,0,0,1,3.25-3.46c5.34-3.46,12.88-.52,16.79,2.15a17.54,17.54,0,0,1,6.48,7.78,9.41,9.41,0,0,1,.64,7.12,7.47,7.47,0,0,1-2.8,3.46c-1.78,1.15-3.87,1.06-8,.87-4.88-.24-7.33-.29-8.63-.43-6-.6-8.94-.91-9.93-1.94C878.73,611.11,881,603.41,884.09,598.89Z"/>
    <path class="cls-9"
          d="M901.36,604.94a8.78,8.78,0,0,1,6.91-6.48c3.71-1,4.59.66,7.55,0s4.5-2.59,7.34-5.83c3.8-4.36,4.57-7.34,5.83-7.12s1.51,2.8,2.15,7.55c2.21,16.62.64,8.6,1.72,14.25.31,1.61.77,3.73-.43,5.4a5.29,5.29,0,0,1-2.59,1.72,37.42,37.42,0,0,1-8.21,2.38,51.83,51.83,0,0,1-8.21.43c-7.93-.1-11.9-.14-13.18-1.94C898.66,613,899.88,609.4,901.36,604.94Z"/>
    <path class="cls-11"
          d="M934.61,330.71c3.39.84,4.77,5.22,5,5.83a8.39,8.39,0,0,1,0,5.83c-.08.21-1.55,3.79-4.76,4.53-4.1,1-9.57-3.16-9.5-8.21S930.73,329.73,934.61,330.71Z"/>
    <path class="cls-25"
          d="M856.22,198.77a28,28,0,0,0-11,5.18c-3.43,2.7-5.18,5.47-7.78,9.5-5.92,9.15-8.87,13.72-11.19,16.79-3,4-2.39,2.52-15.77,17.49-3.59,4-4.84,5.47-7.78,8.63a53.26,53.26,0,0,0-4.53,5c-3.5,5.25-2.5,11.72-1.72,16.41,1.12,6.74,2.52,15.19,8.21,18.58,9.23,5.48,24.51-5.53,27.64-7.78C862.18,267,857.57,211.75,856.22,198.77Z"/>
    <path class="cls-25"
          d="M838.3,276.73c1.82,1.68-3.19,11.19-9.93,17.92A53.45,53.45,0,0,1,818,302.42c-4.59,2.8-7,4.31-10.8,5a24,24,0,0,1-12.74-1.51,27.7,27.7,0,0,1-11-7.34c-3.25-3.66-4.39-7.12-6-12.09-.49-1.4-4.81-14.46-1.72-16.2,1.61-.9,3.48,2.24,9.29,3a13,13,0,0,0,6.48-.43,12.72,12.72,0,0,0,6.7-6.27c2.8-6.39-1.55-13.53,0-14.25.57-.27,1.4.6,3.25,2.15,3.66,3.08,4.32,2.8,7.55,5.4s8.23,6.45,10.8,12.31"/>
    <path class="cls-12"
          d="M786.06,244.33a11.34,11.34,0,0,1,5.4,2.15,13.49,13.49,0,0,1,5.18,12.74,17.4,17.4,0,0,1-3,8,10.63,10.63,0,0,1-4.76,3.66,10.94,10.94,0,0,1-8.21.21c-3.85-1.3-5.16-3.89-6.48-3.25s-1.4,3.11-.64,5c1.23,3.3,5.27,4.46,7.78,5.18a14.84,14.84,0,0,0,16.2-4.53,17,17,0,0,0,4.1-9.5,19.58,19.58,0,0,0-.87-8.21,16.79,16.79,0,0,0-3-5.83C793.39,244.75,786.06,244.34,786.06,244.33Z"/>
    <path class="cls-9"
          d="M788.64,247.55c.41-1.2-1.55-3-3.46-4.76a14,14,0,0,0-5.4-3.46,17.53,17.53,0,0,0-6-.43,62.56,62.56,0,0,0-7.12.64c-5.6.64-5.72.74-7.55.87a32.36,32.36,0,0,1-7.34,0c-4.35-.64-4.83-2.13-9.29-2.59-2.22-.24-4-.39-5.83.64a8,8,0,0,0-3.46,5c-1.4,5.32,3,9.72,3.25,9.93a15.39,15.39,0,0,0,6,3.25,21.66,21.66,0,0,0,6.7,1.51,20,20,0,0,0,7.78-1.3c12.7-4.39,13.85-7.23,20.73-8.21C783.62,247.8,788.07,249.21,788.64,247.55Z"/>
    <path class="cls-9"
          d="M784.32,246.27a11.93,11.93,0,0,1,5.83,1.3,12.77,12.77,0,0,1,5,5.18,13.53,13.53,0,0,1,2.15,7.12c-.07,5.18-3.73,8.74-5.4,10.37s-2,1.4-7.34,4.76c-8.39,5.2-8.85,6.29-11.67,6.7-4.69.64-8.57-1.71-10.37-2.8a19.89,19.89,0,0,1-9.06-12.74,17.16,17.16,0,0,1,1.51-11.88C759.6,246.29,770.67,246.27,784.32,246.27Z"/>
    <path class="cls-9"
          d="M758,254.54c-2.41-.88-6.06,3.25-8,5.4a30.41,30.41,0,0,0-5.4,9.29,27.12,27.12,0,0,0-2.59,9.5c-.14,2.41-.28,5.25,1.51,7.78a5.9,5.9,0,0,0,3.89,2.8c2.57.2,4.63-2.71,6.48-5.4a36.68,36.68,0,0,0,5.83-13.82C760.43,265.73,761.3,255.69,758,254.54Z"/>
    <path class="cls-9"
          d="M767.69,257.94c-3.5-.92-6.77,2.2-10.37,5.6a33.25,33.25,0,0,0-8.21,12.74,32.71,32.71,0,0,0-1.72,9.29c-.18,4.53.69,6.24,1.3,7.12a6.41,6.41,0,0,0,3.66,2.8A7.19,7.19,0,0,0,758,294a14.38,14.38,0,0,0,4.76-6c3.61-7,3.33-8.23,5.83-13,3-5.6,4.64-6.34,4.53-9.29C773,262.47,770.8,258.74,767.69,257.94Z"/>
    <path class="cls-9"
          d="M780.66,275c-1,.87-2.24,2.1-3.66,3.66a52.45,52.45,0,0,0-5.18,6.48,47.19,47.19,0,0,1-4.1,6,12.13,12.13,0,0,1-3,2.59,8,8,0,0,1-3.46,1.3,7,7,0,0,1-5.4-2.38c-3.4-3.94-1-15.61,6.91-19.86C768.08,269.93,775.08,270.92,780.66,275Z"/>
    <path class="cls-25"
          d="M859,197.47a30.45,30.45,0,0,0-13.82,7.12c-4.2,4.07-6.52,9.19-8.21,13a73.29,73.29,0,0,0-3.66,10.8,192.51,192.51,0,0,0-4.32,19,334.42,334.42,0,0,0-3.89,42.11s-.64,14.59-.43,32c.17,13.47.8,22.17,1.3,24a5.6,5.6,0,0,1,.21,1.94,8.65,8.65,0,0,1-.87,2.8c-.85,2-1.2,2.15-1.08,2.8.17.88,1,1.4,1.72,1.94,1.24.85,2,.77,2.15,1.3s-.28.69-1.51,1.94c-1.78,1.82-2.07,2.25-2.15,2.8a3.11,3.11,0,0,0,.43,1.94,5.81,5.81,0,0,0,3,2.59,10.52,10.52,0,0,0,5.6.64c3.18-.34,3.9-1.12,8.85-2.59a27.66,27.66,0,0,1,6.91-1.51,32.48,32.48,0,0,1,6.48.64,49.62,49.62,0,0,0,9.93-.21c7.71-.57,13.39-1.3,13.39-1.3s10-1.26,20.73-2.38c18.18-1.87,27.31-2.8,27.42-2.8,1.4.18,7.13,1,9.5-1.72a10.14,10.14,0,0,1,1.94-2.15c1.85-1.4,3.16-1.09,4.1-2.15,1.17-1.4.64-3.55.43-4.53-.94-4.5.42-9.22.21-13.82-.45-10.32,3.32-44.89,5-59.6,0,0,5-44.09,2.59-61.55-.34-2.48-1.55-6-2.15-11a7.25,7.25,0,0,0-.64-2.38c-.94-2-2.63-3-5-4.32-3.57-2-6.39-3.2-6.48-3.25-5.09-2.24-6.1-3-8.63-4.1a49.85,49.85,0,0,0-16.2-3.66C895.82,180.28,888.41,189,859,197.47Z"/>
    <path class="cls-12"
          d="M863.79,193.58a16.79,16.79,0,0,0-2.38,5.6,15,15,0,0,0-.21,3.25,26.82,26.82,0,0,0,3.25,11.19c1.94,3.86,2.38,4.76,3.89,5.83-.64-12.59,8.87-25.18,10.58-24.83s5.4,17.49,3.46,25.49c3.25-.21,15.9-3.4,35.42-22,4.76-4.53,10.58-12.31,10.37-14.46-.49-4.83-.11-9.68-3.89-13.18C909.24,156.62,867,188.79,863.79,193.58Z"/>
    <path class="cls-25"
          d="M944.55,194.67a14.1,14.1,0,0,1,5.4,3.46,29,29,0,0,1,6.48,9.72c.78,2,4.2,8.77,11,22.24.56,1.09,5.2,8.52,14.46,23.32a138.93,138.93,0,0,1,10.8,19.86,49.87,49.87,0,0,1,3.66,11.19,33.35,33.35,0,0,1,0,15.39c-.9,3.46-2.43,9.36-7.78,13a18.09,18.09,0,0,1-11,2.8c-8.48-.45-14.35-6.41-25.49-17.71a111.2,111.2,0,0,1-9.5-11c-1.4-1.87-2.8-3.75-4.53-6.48-3.18-5.08-3-6.1-5.6-9.72a41.09,41.09,0,0,0-6.27-6.7,19.58,19.58,0,0,0-5.4-3.66"/>
    <path class="cls-25"
          d="M990.22,311.6c-1.54,1.93-4.66,3.5-7.88,5.29-4,2.25-6.17,2.88-13,5.83-3.69,1.59-2.92,1.4-6.7,3-10.9,4.76-10.69,3.73-17.28,6.91a44.58,44.58,0,0,1-9.29,3.66,26.34,26.34,0,0,1-4.53.87,21,21,0,0,1-13-3.66c-5.18-3.66-9.79-10.8-8.39-17.28.52-2.31,1.57-3.46,4.53-7.12,10.37-12.8,8.07-11.74,13-16.79,4.27-4.46,9.34-9.79,17.71-13.82A38,38,0,0,1,962.07,274"/>
    <path class="cls-9"
          d="M905,323.8a19.58,19.58,0,0,0-5.83,7.12,26.44,26.44,0,0,0-2.38,11.19,21.24,21.24,0,0,0,.64,7.34,27.73,27.73,0,0,0,2.38,5.4,23.92,23.92,0,0,0,3,5c2.34,2.62,5.29,3.36,9.06,4.32a33.07,33.07,0,0,0,10.37.87,24.73,24.73,0,0,0,8.39-1.72,18.34,18.34,0,0,0,8.21-6,16.79,16.79,0,0,0,3.25-8.63c.15-2.24.46-6.78-2.38-9.06-2.46-2-6.15-1.4-10.16-.64-2.8.49-3.62,1.08-5,1.3-6.1,1-14-4.62-15.39-10.8-.71-3.41.7-6.42-.64-7.12C907.76,321.78,906.36,322.86,905,323.8Z"/>
    <path class="cls-12"
          d="M911.83,313.11c-.81-.15-1.59,1.17-4.1,3.25-3.11,2.55-4.77,2.8-5.95,5.51a5.89,5.89,0,0,0-.43,1.72c-.69,5,2.8,9.47,3.46,10.37,2,2.53,4.66,3.92,9.93,6.7a27.17,27.17,0,0,0,6.7,2.59,15.29,15.29,0,0,0,6.48,0,4.36,4.36,0,0,0,1.72-.87c.81-.69.88-1.65,1.3-1.94,2.27-1.62,5-2.8,5-3.46a32.27,32.27,0,0,1-8-.87c-.34,0-8.39-1.72-12.31-7.78C911.35,321.81,910.86,315.38,911.83,313.11Z"/>
    <path class="cls-11" d="M827.73,355.75a20.05,20.05,0,0,0,3.46,1.51,16,16,0,0,0,5,.64"/>
    <path class="cls-9"
          d="M847.38,85.84c-1-.87-2.39.24-6.7-.87A47.42,47.42,0,0,1,835.51,83a44.5,44.5,0,0,0-7.34-2.38,25.47,25.47,0,0,0-9.29-.21c-1.15.27-2.31.41-3.46.64a6.25,6.25,0,0,1-1.94.21,3.67,3.67,0,0,1-2.38-.87c-1.06-1.11-.36-2.8-.87-3s-1.47,1.18-1.72,2.59a3.62,3.62,0,0,0,.64,3,3.83,3.83,0,0,0,1.08.87,10.16,10.16,0,0,0-4.32,3.66c-2.39,3-3,10.2-3,10.58a31.53,31.53,0,0,0,.64,8.39,26.58,26.58,0,0,0,3,8.21c1.4,2.35,2.39,4.2,4.53,5.4s4.35,1.4,4.32,1.94-1.64.81-2.59.87a4.2,4.2,0,0,1-2.38-.43c-1-.56-1.29-1.4-1.51-1.3s.18,2.06.21,2.15a10.11,10.11,0,0,0,1.94,4.1,9.79,9.79,0,0,0,3.46,2.59,12,12,0,0,0,5.18.87c5.68-.39,12.7-12.59,15.77-17.92C845.86,94.82,849.47,87.67,847.38,85.84Z"/>
    <path class="cls-9"
          d="M867,80c.13-.59,2.63,0,6.48-1.3,1-.32,2.92-1.06,7.78-4.76,5.68-4.32,5.36-5.12,9.29-7.55a24.7,24.7,0,0,1,8-3.46,15.61,15.61,0,0,1,5.83-.43,15.39,15.39,0,0,0,2.8.21,5,5,0,0,0,1.94-.21,2.92,2.92,0,0,0,1.72-1.3,2.8,2.8,0,0,0,.21-1.94c-.32-1.22-1.4-1.75-1.3-1.94s1.3.18,2.38.87a7.2,7.2,0,0,1,2.8,3,9.41,9.41,0,0,1,.64,2.38,52,52,0,0,1,6.91,6.27c2.42,2.53,3.26,5.6,4.32,9.29a33.89,33.89,0,0,1,1.08,12.59,22.52,22.52,0,0,1-1.3,6,10,10,0,0,1-1.94,3.66c-1.4,1.59-3.18,2.15-3,2.59s1.15.25,1.72.21a4.83,4.83,0,0,0,2.8-.87c1.22-1,1.13-2.41,1.51-2.38.63,0,.84,3.83.87,4.32a10.72,10.72,0,0,1-.21,4.1,8.17,8.17,0,0,1-2.59,3.66,9.15,9.15,0,0,1-4.32,2.15,9.79,9.79,0,0,1-6.27-1.3c-7.47-4-14.87-17.64-24.83-24.83C879.78,81.45,866.76,81.32,867,80Z"/>
    <path class="cls-13"
          d="M802.47,156c.21-.07.49,1,1.72,1.94a6.35,6.35,0,0,0,3,1.08,6.63,6.63,0,0,0,3.66-.21,6.1,6.1,0,0,0,2.8-2.38,8.24,8.24,0,0,0,1.3-4.32c.31-7,.46-10.42.43-15.12,0-.18,0-4.71.43-9.5a67.14,67.14,0,0,1,2.8-14.69,49,49,0,0,1,16.2-23.11A52.18,52.18,0,0,1,846.71,83a75.86,75.86,0,0,1,18.58-5.18c5.75-.88,10.39-1.58,16.63-.64a43,43,0,0,1,13.82,4.53A46.65,46.65,0,0,1,910,94a91.63,91.63,0,0,1,9.5,14.46c5.83,10.2,6.27,11,6.27,11s1,1.9,4.1,6.7a14.62,14.62,0,0,0,3.25,3.89,12.09,12.09,0,0,0,4.1,2.15,9.68,9.68,0,0,0,4.1.43,6.69,6.69,0,0,0,3.89-1.51c1.11-1,1.19-2,1.51-1.94.62.11.63,3.85,0,7.34a29.8,29.8,0,0,1-1.3,4.76,35,35,0,0,1-3.89,7.55,23.38,23.38,0,0,1-3.46,4.53,21.46,21.46,0,0,1-5.18,3.66c-2.14,1.08-3.69,1.4-3.66,1.51a15.58,15.58,0,0,0,5.18-1.72,11.81,11.81,0,0,0,3.46-2.38c1.09-1.13,1.4-2,1.72-1.94s.14,2.8-.43,5a27.35,27.35,0,0,1-3.25,7.34,47.56,47.56,0,0,1-6,8,49.6,49.6,0,0,1-6.48,5.83,48.4,48.4,0,0,1-9.06,5.4c-4.64,2.08-5.83,1.66-11.19,3.46a82.37,82.37,0,0,0-13.61,6.27c-8.8,4.63-13.61,7.34-13.61,7.34a25.18,25.18,0,0,1-7.55,3,22.93,22.93,0,0,1-6.27.43,16.94,16.94,0,0,1-4.76-.87c-1.27-.46-2.07-1-6.48-4.32-4-3.06-4.27-3.34-5.4-3.89a25.42,25.42,0,0,0-6-1.72c-4.2-.9-4.56-.6-7.55-1.3a23.08,23.08,0,0,1-7.78-2.8,21.33,21.33,0,0,1-5.83-5.6,37.78,37.78,0,0,1-2.8-4.53c-2-3.64-2.9-4.91-2.59-5.18s.41,0,1.72.64a16.93,16.93,0,0,0,2.8,1.08,6.91,6.91,0,0,0,3.25,0,9.79,9.79,0,0,1-1.94,0,10,10,0,0,1-2.59-.64,18.49,18.49,0,0,1-4.32-2.38,26.37,26.37,0,0,1-7.78-9.72C802.42,159.67,802.09,156.13,802.47,156Z"/>
    <path class="cls-1"
          d="M806.77,160.33c.43-.38,1,.29,2.8.21a7.78,7.78,0,0,0,4.76-1.94c1.13-1,1.8-2.42,2.38-5.6a52.65,52.65,0,0,0,.43-12.31c-.08-2.38-.21-6.32-.21-8.39a60.88,60.88,0,0,1,2.15-16.41,53.81,53.81,0,0,1,13.39-21.81,16.79,16.79,0,0,1,6.7-3.89A6.42,6.42,0,0,1,843.7,90a9,9,0,0,1,3.66,4.1c.55,1.13.67,1.92,1.08,1.94.7,0,1.24-2.1,1.72-3.25,1.78-4.2,7.23-5.78,11.88-7.12a41.88,41.88,0,0,1,14.9-1.3,45.35,45.35,0,0,1,17.28,5,46.16,46.16,0,0,1,13.39,11.19,83.08,83.08,0,0,1,13.18,21,51.29,51.29,0,0,0,6,9.72,10,10,0,0,0,2.15,2.15,11.51,11.51,0,0,0,5.18,1.94,12.21,12.21,0,0,0,4.76,0c3.3-.71,4.63-2.67,5.4-2.15s-.21,3.62-.87,5.4a31.57,31.57,0,0,1-4.76,9.06,22.38,22.38,0,0,1-6.48,6.48c-5.86,3.48-12.17,2.13-12.31,3.46-.07.71,1.73,1.51,3.25,2.15a13.39,13.39,0,0,0,4.32,1.08c5,.27,8.16-3.69,8.85-3s-2.8,7.6-9.29,12.74a47.65,47.65,0,0,1-8,5c-3.89,2-5.79,2.57-10.37,4.53-.25.11-5.71,2.45-11.67,5.6-4.36,2.32-5,3-15.77,9.29-6.42,3.78-7.53,4.34-9.29,5-3.47,1.24-8.32,2.91-13.61,1.3a21.84,21.84,0,0,1-6.48-3.46c-2.8-2.1-2.8-3-5.4-4.76a22,22,0,0,0-7.34-3c-3-.73-3.47-.22-6.48-.87a26,26,0,0,1-7.78-3c-4.94-3-8.24-7.44-7.78-8,.2-.24.94.45,3,.87a6.8,6.8,0,0,0,4.53-.21c.2-.1,1.85-.92,1.72-1.72s-2.69-1-5.83-1.94a25.94,25.94,0,0,1-7.12-3.25C808.14,168.16,805.64,161.39,806.77,160.33Z"/>
    <path class="cls-14"
          d="M819.52,155.59a8.1,8.1,0,0,0-.21,3.25,9.92,9.92,0,0,0,3.46,5.6,13.26,13.26,0,0,0,5.18,3.25,12.59,12.59,0,0,0,7.34.21c6-1.82,8.85-8.91,9.29-8.63.18.11-.41,1.4-1.3,4.53-.34,1.19-.38,1.47-.21,1.72.62.91,3-.27,6.91-.87,4.76-.73,7.37,0,8-1.3a9.29,9.29,0,0,0-.43-3.25c-.38-1.9-.64-2.69-.43-2.8s1.22,1.12,1.94,1.94c1.89,2.15,4.1,3,7.12,4.1a20.76,20.76,0,0,0,11,1.72A16.3,16.3,0,0,0,886,161a13.55,13.55,0,0,0,4.1-6.48c.38-1.4.25-3.27,0-6.91-.39-5.48-1-6.29-1.51-6.7-1-.85-2.31-.94-5-1.08a61.14,61.14,0,0,0-6.27.21,17.33,17.33,0,0,1-8.21-2.38,39.17,39.17,0,0,1-9.72-7.55c-.88-1-2-2.34-3.25-2.15s-1.72,1.3-2.59,2.8a17.3,17.3,0,0,0-1.94,5.4c-.38,2-.13,2.43-.64,4.53-.32,1.3-.8,3.22-1.51,3.25s-1.31-1.78-1.51-2.38a28.43,28.43,0,0,1-.64-4.1,12.28,12.28,0,0,0-1.72-3.66c-1.55-2.63-2.32-4-3.66-4.32-.52-.14-1.51-.25-4.1,1.3A26,26,0,0,0,831,137c-1.26,1.54-1.48,1.94-5,6.91S820.44,151.72,819.52,155.59Z"/>
    <path class="cls-9"
          d="M821,154.07a10.1,10.1,0,0,0,.64,3.66,10.37,10.37,0,0,0,4.1,5,11.05,11.05,0,0,0,6.7,1.51,14,14,0,0,0,7.34-2.59,15.39,15.39,0,0,0,5.4-6.7,17.33,17.33,0,0,0,1.08-8.21,14.73,14.73,0,0,0-2.15-8.21,8.52,8.52,0,0,0-4.76-3.89c-3.09-.73-5.86,1.5-8.85,3.89C829.42,139.44,821,146.31,821,154.07Z"/>
    <path class="cls-1"
          d="M831.62,150.19a4.53,4.53,0,0,0-.43,2.59,4.76,4.76,0,0,0,1.94,3,5.69,5.69,0,0,0,3.66,1.08,6.55,6.55,0,0,0,3.66-1.3,4.53,4.53,0,0,0,1.94-2.15,5.13,5.13,0,0,0-1.08-4.32,5.6,5.6,0,0,0-3-2.59C835.63,145.75,832.67,147.88,831.62,150.19Z"/>
    <path class="cls-9"
          d="M854.5,136.37a20.45,20.45,0,0,0-.43,6.48,19.19,19.19,0,0,0,2.8,9.5,16.64,16.64,0,0,0,3.89,4.1,18.45,18.45,0,0,0,7.78,3.25,18.18,18.18,0,0,0,8.39.21,11.19,11.19,0,0,0,5.4-2.59,9.79,9.79,0,0,0,2.59-3.89,13.53,13.53,0,0,0,.43-4.76c0-3,0-4.56-.87-5.4s-1.4-.78-4.32-.87c-5-.13-5.88.24-8.21,0a20.77,20.77,0,0,1-6.7-1.94,19.37,19.37,0,0,1-6.7-4.76c-1.16-1.4-1.8-2.52-2.59-2.38C855.83,133.37,855.15,133.57,854.5,136.37Z"/>
    <path class="cls-1"
          d="M862.92,150.4c-.28-1,1.87-2.34,2.59-2.8a9.79,9.79,0,0,1,4.32-1.51,10.84,10.84,0,0,1,4.1.43c1,.27,3.9,1,3.89,1.94,0,.66-1.4,1.13-3.25,1.72a19.37,19.37,0,0,1-5,1.08C868.59,151.35,863.33,151.78,862.92,150.4Z"/>
    <path class="cls-16"
          d="M873.29,177.83c-2,1-3.19,2.7-5,4.1a67.52,67.52,0,0,1-7.12,5.6c-1.4.84-2.71,1.57-3.89,1.08a3.64,3.64,0,0,1-1.4-1.4c.24-.5.52-1,.81-1.58a19.58,19.58,0,0,1,4.76-5.83,22.78,22.78,0,0,1,4.2-2.8c3.23,0,2.06.08,2.08.43S869.62,177.39,873.29,177.83Z"/>
    <path class="cls-15"
          d="M864,177h1.58a22.78,22.78,0,0,0-4.2,2.8,19.58,19.58,0,0,0-4.76,5.83c-.29.56-.57,1.08-.81,1.58v-.07c-.85-1.26-.59-1.79-1.3-3-.87-1.5-1.64-1.4-1.94-2.38-.53-1.69,1.3-3.66,1.51-3.89C856.47,175.24,853.37,176.93,864,177Z"/>
    <path class="cls-11"
          d="M865.58,177H864c-10.63,0-7.53-1.72-9.93.87-.21.21-2,2.2-1.51,3.89.31,1,1.08.88,1.94,2.38.71,1.24.45,1.76,1.3,3v.07a3.54,3.54,0,0,0,1.4,1.4c1.17.49,2.55-.24,3.89-1.08a67.52,67.52,0,0,0,7.12-5.6c1.78-1.4,2.92-3.12,5-4.1-3.66-.43-5.6-.11-5.6-.43S868.81,177,865.58,177Z"/>
    <path class="cls-11" d="M855.85,187.19c.24-.5.52-1,.81-1.58a19.58,19.58,0,0,1,4.76-5.83,22.78,22.78,0,0,1,4.2-2.8"/>
    <path class="cls-12"
          d="M842,176.74a8.11,8.11,0,0,0,1.72,3.25,8.39,8.39,0,0,0,4.53,2.59,9.57,9.57,0,0,0,6.48-.87,9.79,9.79,0,0,0,3.46-3"/>
    <path class="cls-14"
          d="M883.65,176.09c0,.1.9.15,1.3.87a2.21,2.21,0,0,1,0,1.72c-.43,1.3-1.4,1.75-1.3,1.94s1.92-.15,2.8-1.51a2.29,2.29,0,0,0,.43-1.94C886.35,175.84,883.7,175.94,883.65,176.09Z"/>
    <path class="cls-1"
          d="M867.69,173.91a4.06,4.06,0,0,0-1.08,2.5,3.3,3.3,0,0,0,1.4,2.66,3.83,3.83,0,0,0,3.9.27,3.62,3.62,0,0,0,1.94-1.48,3.25,3.25,0,0,0-3.65-4.76,3.94,3.94,0,0,0-1.94,1.12,3.26,3.26,0,0,0-.67,3.54,3.2,3.2,0,0,0,3,2,6.75,6.75,0,0,0,1.73-.29,3.25,3.25,0,0,0-1.72-6.25,4.49,4.49,0,0,0-2.59,2,3.23,3.23,0,0,0,.25,3.59,3.33,3.33,0,0,0,3.4,1.16,6.24,6.24,0,0,0,.91-.22l-3.15-5.41-.5.41a3.25,3.25,0,0,0,3.15,5.41,5.46,5.46,0,0,0,1.22-.57l-4.43-4.43h0l1.16-1.16a3.51,3.51,0,0,0-1.72,3,3.36,3.36,0,0,0,2.38,3.12,3.27,3.27,0,0,0,1.8,0c.32-.08,1.3-.53.69-.28s.18,0,.24,0c.62-.21-.69,0,0,0a3.25,3.25,0,0,0,0-6.48,9,9,0,0,0-1.72.24l-.42.14c-.25.08-1.72.62-.49.21h1.64l2.38,3.12v-.07l-1,2.29q-1.12.84.13-.11.29-.35.56-.73a3.25,3.25,0,0,0-.5-3.93,3.29,3.29,0,0,0-3.93-.5q-.42.28.34-.08l3.15,5.41.5-.41a3.25,3.25,0,0,0,.5-3.93,3.32,3.32,0,0,0-3.65-1.48,6.24,6.24,0,0,1-.91.22l3.65,4.76a2.36,2.36,0,0,1-1.29,1l-1.72-6.25c-.27.08-.83.13,0,0l2.29,5.6-.92.55-1.72-6.25-.49.18c-.32.1-.67,0,.27,0l2.29,1h0l1,2.29v-.1l-1,2.29.13-.17a3.54,3.54,0,0,0,1-2.29,3.3,3.3,0,0,0-1-2.29c-1.16-1.06-3.47-1.4-4.57,0Z"/>
    <path class="cls-12"
          d="M850.84,169.41a12.34,12.34,0,0,0,.64,4.53,11.08,11.08,0,0,0,10.58,7.78,14.31,14.31,0,0,0,6.27-1.51,34.66,34.66,0,0,1,5-2.38,7,7,0,0,1,4.32-.21,2.53,2.53,0,0,1,1.72,1.3,2,2,0,0,1,0,1.3"/>
    <path class="cls-9"
          d="M843.06,166.41a4.27,4.27,0,0,0,.43,1.72,4.81,4.81,0,0,0,1.3,1.72c.63.49,1.48.76,3.66.64a36.93,36.93,0,0,0,5.4-.87c3-.55,3.66-.59,4.76-1.3a4.28,4.28,0,0,0,1.94-2.15,4.11,4.11,0,0,0-1.3-4.32A4.9,4.9,0,0,0,856,161a20.47,20.47,0,0,0-11.19,2.38A3.81,3.81,0,0,0,843.06,166.41Z"/>
    <path class="cls-1"
          d="M845.44,166.16c.14.35.62.55,2.59.64a17.89,17.89,0,0,0,5.18-.21c1.87-.39,3.08-.67,3.66-1.72a2,2,0,0,0,.21-1.72c-.55-1-2.59-.77-5.6-.43-3.39.38-4.46,1-5.18,1.72C846.08,164.64,845.19,165.55,845.44,166.16Z"/>
    <path class="cls-17"
          d="M914.64,312.89c1-2.8,2.91-3,6.48-6.48s3.26-4.71,6.91-9.72a49.69,49.69,0,0,1,12.09-12.31,46.57,46.57,0,0,1,12.74-6,55.11,55.11,0,0,1,9.72-2.15,42,42,0,0,1,9.06-.43c3.16.21,5.08.77,5.18.43s-3.36-2.14-6.7-3.25A30.69,30.69,0,0,0,958.67,271a22.66,22.66,0,0,0-10.37,2.38c-3.37,1.78-5.33,4.1-5.83,3.66s.53-2.35,1.72-3.89c2.73-3.51,6.41-4.32,6.27-4.76s-3.76-.36-6.91,1.72c-2.07,1.4-2.55,2.71-3.66,2.59-1.4-.15-1.94-2.29-3.25-5.18-1.71-3.8-1.82-2.49-5.6-9.29-1.06-1.9-2.29-4.36-4.76-9.29-2.14-4.29-3.22-6.43-3.46-7.12-1.62-4.67-1.12-8.59-.43-14a52.41,52.41,0,0,1,5.18-17.28,26.37,26.37,0,0,1,6.48-8.63c2.06-1.72,4.2-3.5,7.12-3.46,3.22,0,5.6,2.29,7.34,4.1a28.61,28.61,0,0,1,6.7,11c.71,2,3.65,8.55,9.5,21.6,5.15,11.47,7.72,17.21,11.67,22a155.86,155.86,0,0,1,10.8,14.25c4.07,6.11,3.83,6.77,3.66,6.91-.52.43-3.15-2.22-5.83-4.32-9.93-7.78-21.7-9-21.81-8.63a57.93,57.93,0,0,1,11.67,5.4,47.74,47.74,0,0,1,9.93,8.39c3.2,3.55,4.8,5.33,5,7.55.13,1.68-.28,5.09-8.21,11.44-5.68,4.55-10.17,6.56-17.05,9.93-17,8.31-25.51,12.48-27,13.39-5.16,3.19-10,6.67-15.12,5.18a11.19,11.19,0,0,1-5.18-3.46C915,320.62,913.35,316.42,914.64,312.89Z"/>
    <path class="cls-17"
          d="M850.5,207.3c-3.92,1.4-6.08,4.78-7.55,7.34a68.64,68.64,0,0,0-7.34,17.05A293.09,293.09,0,0,0,830.2,263c-1.66,16.17-2.49,24.49-1.72,36.06.84,12.81,2.9,19.37,6.27,25.05a37.46,37.46,0,0,0,8.63,10.37c9.54,7.82,20.73,8.49,20.51,9.5-.13.64-4.64.25-7.55,0-6.63-.57-10-.87-12.59-1.94-8.21-3.46-10.44-12.41-12.31-11.67-1.57.63-1,7.33-.64,10.58s.92,6-.64,8c-1.08,1.4-2.43,1.59-2.38,2.38s1.66,1.4,6.91,2.59a68.84,68.84,0,0,0,12.09,2.15c4,.17,6.66-.29,6.7,0s-3,.73-8,2.15c-6.27,1.8-6.46,2.63-9.5,2.8-4.11.24-7-1.06-7.34-.21-.25.59.83,1.75,1.94,2.38s2.69,1,7.55-.43c4.2-1.26,4.1-2,7.34-2.8a30.16,30.16,0,0,1,7.55-.87,49.61,49.61,0,0,1,7.34.43c5.27.56,9.34-.2,17.49-1.72,5.92-1.11,14.37-3.15,14.25-3.89s-6.91.52-16.41.64c-16.41.22-29.19-2.8-29.15-3.25s6.91,1.22,16.79,0A47.66,47.66,0,0,0,883.21,345c7.53-4.57,13.15-11.41,12.31-12.59-.62-.81-4.2,2.06-9.93,3.66-13,3.61-26.1-2.22-25.91-3.46.11-.77,5.27.81,13.39-.87,7.75-1.61,12.91-5.09,20.73-10.37,7-4.76,11.88-8,16.63-14.25A73.9,73.9,0,0,0,918,294c2.7-5.46,5.81-12.7,5-13.18-.6-.34-2.34,3.25-6.7,6.7-5.25,4.2-12,6.29-13,5s3.62-4.2,8.21-11.88c4.2-7,6-13.81,5.18-14.25-.53-.28-1.76,2.24-5.4,4.53-2.69,1.69-6,2.8-6.48,2.15s3.72-3.25,6.48-8.63c.74-1.4,1.51-3.39,2.38-9.06,1.15-7.6.77-10.7,1.3-17.28a67.93,67.93,0,0,1,2.59-16c3.27-10.38,8.77-15.39,7.55-16.63s-7.34,3.13-13.61,7.55c-7.72,5.46-7.44,6.18-13.82,10.37-8.17,5.36-6.81,3-14.9,8.21-2.18,1.4-5.18,3.48-6.27,2.59-.49-.41-.35-1.22,0-3.89.85-6.64.64-7,.43-7.12-.88-.48-4,2.2-5.6,5.83s-.73,5.69-1.94,6.27c-1.8.84-6-2.8-8.39-7.12a32.3,32.3,0,0,1-3.89-15.54c.08-2,.41-4-.87-5.18C854.6,205.87,851,207.11,850.5,207.3Z"/>
    <path class="cls-17"
          d="M806.68,255.45c.49,1,2.38-.08,5.18,1.3,2.53,1.23,3.87,3.46,5.4,6,2.63,4.46,2.8,7.55,4.1,7.55.22,0,1-.1,2.15-3a24.93,24.93,0,0,0,1.72-9.5,89.72,89.72,0,0,1,1.3-12.59c1.4-8.48,4.2-12.59,3.25-13.18s-3.92,3.82-10.58,10.37C811.73,249.83,805.78,253.73,806.68,255.45Z"/>
    <path class="cls-17"
          d="M803.86,259.11c-.38.32.41,1.2.64,3.66a15,15,0,0,1-.87,6.48c-1,2.62-1.9,2.8-1.94,4.32,0,.62.1,1.66,2.8,5a36,36,0,0,0,7.34,6.91c2.39,1.66,3.61,2.49,4.76,2.15,2.48-.71,3-5.48,3-6,.56-5.37-2.39-9.69-4.53-12.74C810.82,262.75,804.82,258.32,803.86,259.11Z"/>
    <path class="cls-19"
          d="M736.27,241.19a5.69,5.69,0,0,0-1.51,3.89,8.39,8.39,0,0,0,3.25,6.48,11.75,11.75,0,0,0,6.27,2.59,16.16,16.16,0,0,0,7.34-.43c2.07-.62,7.41-2.67,7.34-5.18,0-1.76-2.8-2.88-8-5C744.29,240.92,738.92,238.77,736.27,241.19Z"/>
    <path class="cls-19"
          d="M761.76,251.56c-1-1.76.7-4.27,1.3-5.18a11.39,11.39,0,0,1,4.76-3.89,14,14,0,0,1,8.39-1.72c2,.25,4.49.39,5,1.72.76,2.07-3.87,5.44-6.48,7.34-2.31,1.69-4,2.8-6.48,3.25C767.75,253.14,763,253.87,761.76,251.56Z"/>
    <path class="cls-19"
          d="M773.47,256.32a13.19,13.19,0,0,1,3-4.76,13.53,13.53,0,0,1,5.6-3.89,7.71,7.71,0,0,1,5.4-.43,6.34,6.34,0,0,1,3.46,3c1.3,2.8-.39,5.83-1.94,8.63a20,20,0,0,1-7.34,7.55c-2.38,1.4-3.73,2.18-5.18,1.72C773.27,267.13,771.89,260.85,773.47,256.32Z"/>
    <path class="cls-19"
          d="M743,282.45a9.27,9.27,0,0,1,0-6.27c3.71-12.2,5.36-14,6.91-15.12.41-.29,2.57-1.86,3.25-1.3s-.34,2.43-1.51,5.18c-2.41,5.6-1.66,4.74-3.46,8.85-2.08,4.78-2.31,4.53-2.8,6.48-.43,1.65-.67,3.4-1.3,3.46S743.11,282.75,743,282.45Z"/>
    <path class="cls-19"
          d="M749,290a7,7,0,0,1-.87-4.53,42.22,42.22,0,0,1,1.3-7.78,48.81,48.81,0,0,1,4.76-11.19c1.57-2.59,3.36-5.5,5-5.18,1.06.21,1.59,1.75,1.72,2.15.71,2.13.17,4.43-3.46,11-4.2,7.6-5.33,7.9-5.83,11.19-.39,2.57-.18,5.41-1.08,5.6C749.94,291.43,749.24,290.32,749,290Z"/>
    <path class="cls-19"
          d="M757,290.91c-1.4-.7-.87-4.41-.64-5.83a27.56,27.56,0,0,1,1.94-6.48,47.82,47.82,0,0,1,4.76-8.85c.59-.88,2.8-4.13,3.25-3.89s-.36,1.71-1.72,5.4c-2.35,6.38-3.53,9.6-3.46,11.19.08,1.93.6,3.5-.21,5.6a4.36,4.36,0,0,1-2.15,2.59A2.17,2.17,0,0,1,757,290.91Z"/>
    <path class="cls-19"
          d="M900.17,332.32c-.17,0-.71.21-1.3,4.76-.55,4.2-.81,6.34-.43,8.85A19.82,19.82,0,0,0,902.1,355a20.38,20.38,0,0,0,5.83,5.18c2.71,1.72,6.91,3.66,7.55,2.8.36-.48-.59-1.4-2.38-4.32-2.73-4.36-4.08-6.55-4.32-8.85-.36-3.66,1.66-5.6.21-7.55-.64-.88-1.3-.78-2.59-1.51C901.85,338.18,901.43,332.13,900.17,332.32Z"/>
    <path class="cls-19"
          d="M789,599.86c0-.39.15-4.9,3.46-6.91a10,10,0,0,1,5-1.08c1,0,2.35-.13,2.59.43s-.94,1.08-1.51,2.59c-.73,1.92.5,2.88-.21,4.1s-3.27,1.47-5,1.51A12.94,12.94,0,0,1,789,599.86Z"/>
    <path class="cls-19"
          d="M801.71,597.5a14,14,0,0,1,4.76-9.72,13.34,13.34,0,0,1,5.6-2.59c3.54-.83,7.41-.41,7.55.43.08.5-1.3.63-2.8,2.15a10.52,10.52,0,0,0-2.59,5.6c-.63,3.32.48,4.07-.43,5.4-1.4,2.08-5.34,2-7.78,1.3A10.11,10.11,0,0,1,801.71,597.5Z"/>
    <path class="cls-19"
          d="M819.63,598.35c-1.48-2.06,0-5.48,1.08-7.78a10.57,10.57,0,0,1,3.66-5,11.19,11.19,0,0,1,6.48-1.51,15.71,15.71,0,0,1,7.34,1.51c1.33.67,3.62,1.82,3.66,3.46,0,.87-.59,1.4-1.94,2.8-3.22,3.48-2.67,3.89-4.32,5.18a13.16,13.16,0,0,1-6.7,2.38C825.63,599.94,821.25,600.63,819.63,598.35Z"/>
    <path class="cls-19"
          d="M865.62,598.78c-.35-2,1.85-3.93,3.25-5.18a14.09,14.09,0,0,1,6.91-3.25,13.64,13.64,0,0,1,8.39.64,12.59,12.59,0,0,1,6.27,6.27c.49,1.17,1.23,3,.43,4.32-.64,1.08-2,1.4-5.18,1.72-4.91.46-7.36.7-10.16.21S866.17,601.9,865.62,598.78Z"/>
    <path class="cls-19"
          d="M892.83,595.33c-.43,1.15,1.89,2.22,2.15,5.6.13,1.51-.28,2.07.21,2.8.24.35,1,1.2,5.6,1.08,3.59-.1,5.4,0,6-.64,1.4-1.51.81-4.87-.64-6.91C902.76,592.42,893.6,593.27,892.83,595.33Z"/>
    <path class="cls-19"
          d="M909,598.78c-.43.73.87,1.52,1.08,4.1.15,1.79-.41,2.15,0,3,1,2.1,5.15,2,5.83,1.94,1.4,0,4.32-.14,5-1.72.78-1.94-2.43-4.69-3-5.18C914.54,598.21,909.76,597.55,909,598.78Z"/>
    <path class="cls-17"
          d="M836.9,387.82c1.69,1.66,3.16.74,6.91,2.15a23.23,23.23,0,0,1,7.78,5.4c4.06,3.75,5.93,7.12,6.27,6.91s-.94-2.32-3-6.91a61.38,61.38,0,0,1-3.25-7.78c-1.4-5.44-.08-7.95-1.94-9.29-.76-.55-1.27-.35-6.7.21s-6.18.49-6.91,1.3C834.35,381.71,834.83,385.78,836.9,387.82Z"/>
    <path class="cls-17"
          d="M856.56,380.44c-1,2.5.27,5.2,1.3,7.78,2.8,7,2.94,11.55,3.66,11.44.24,0,.35-.56.64-4.1.8-9.5.21-7.9.64-12.31.29-3,.62-4.2-.21-5-1-.94-3.33-.69-4.76.43A4.34,4.34,0,0,0,856.56,380.44Z"/>
    <path class="cls-17"
          d="M868.59,378.31c-1.4,2.63-.28,4.53-.21,9.72,0,5-.94,8.14-.64,8.21s1.23-3.25,2.38-7.34c2-7.33,1.92-8,3-9.93,2.52-4.45,6-6.06,5.6-6.7s-4,.67-6.91,2.8A10.06,10.06,0,0,0,868.59,378.31Z"/>
    <path class="cls-17"
          d="M831.94,401c.32.45,1.4-.24,3.66-.43a15.53,15.53,0,0,1,5.6.64,46.15,46.15,0,0,1,4.32,1.72,17,17,0,0,0-5-3.46c-2.8-1.5-4.57-2.39-6.27-1.72S831.53,400.41,831.94,401Z"/>
    <path class="cls-17"
          d="M873.61,399a39.63,39.63,0,0,1,13.18-18.79,45.72,45.72,0,0,1,12.09-6.7c4.2-1.75,6.2-2.06,8.21-1.72,1.66.28,1.64.71,4.76,1.72,4.39,1.4,5.53.92,7.78,2.15a12.28,12.28,0,0,1,4.32,4.32,24.89,24.89,0,0,1,3.66,14.25,215.62,215.62,0,0,1-3.89,32.61c-2.7,14-4.2,25.49-5,31.31-1.17,9-2,17-4.32,28.94-2,10-3.4,14.41-6.27,19-2.56,4.11-5.68,7.41-5,8.21.94,1,7.57-3.26,8.21-3.66,3.93-2.56,5.83-4.69,6.27-4.32s-1.3,3.53-3,5.83c-2.27,3-4.11,4.2-3.89,4.53s3.53-.7,6-3.25c2-2,2.41-3.78,3-3.66,1.06.2.83,5.44.87,9.06.1,7.4,1.4,7.5,3.46,21,1.8,11.64.45,9,2.15,20.09.83,5.33-.13,10.8,0,16.2a5.25,5.25,0,0,1-1.08,3.66,6,6,0,0,1-4.53,1.51c-7.55.1-15.12-.84-22.68-.43-2.28.13-5.15.42-6-1.08-.71-1.19.17-2.91.43-3.46,3.55-7.22,6.56-23.63,7.12-27.42.35-2.32,2.11-14.13-3.89-24.83a71.56,71.56,0,0,0-8.85-11.67c-4.32-4.6-7.2-6.39-9.72-11.44a32,32,0,0,1-2.59-7.78c-1-4.66-.62-7.15-.87-12.09a93.13,93.13,0,0,0-1.72-12.59,214,214,0,0,1-2.38-27.42C868.59,415.41,872.25,403,873.61,399Z"/>
    <path class="cls-17"
          d="M931,375.51c-1.2,4.76,1.11,6.85,2.8,15.39a70.85,70.85,0,0,1,1.08,17.71A95.13,95.13,0,0,1,932.77,425c-3.11,15.77-7.06,23-5.18,24.19s6.91-4.2,9.29-7.12c4.87-5.88,6.66-11.74,8.39-17.71a65.3,65.3,0,0,0,3.25-20.73c0-4.1-1.2-9.29-3.46-19.58-3.36-15.39-4.62-17-6-17.28C936.21,366.13,932.25,370.8,931,375.51Z"/>
    <path class="cls-17"
          d="M922.42,494.27a44.42,44.42,0,0,0,3.25-5,71.09,71.09,0,0,0,4.32-9.72,34.66,34.66,0,0,0-2.59,10.8,21.64,21.64,0,0,1-1.08,6.7c-.64,1.86-1.4,3.33-1.72,3.25s1-3.59,0-4.32c-1.51-1.08-7.34,4.77-7.55,4.53S919.6,497.94,922.42,494.27Z"/>
    <path class="cls-17"
          d="M832.58,407.9a14.17,14.17,0,0,1,6-.43c5.75.32,9.79,2.62,14.25,5.18,5.37,3.12,10.59,7.2,10.16,8-.2.35-1.4-.24-4.53-.64-2.64-.35-6-.46-6,0s1.9.73,4.76,2.15c3.26,1.62,6.38,4,6,4.76s-3.8-.55-4.32.43,2.66,2.55,3.25,5.6a7.58,7.58,0,0,1-1.3,5.18c-4,6.91-10.31,23.14-12.74,29.38-1.4,3.4-6,15.83-9.5,28.07a17.42,17.42,0,0,1-4.76,8.21,15.62,15.62,0,0,1-12.09,4.1c-1.17-.14-6-.76-8.63-4.53-1.2-1.71-1.8-3.85-1.3-10.8a143.31,143.31,0,0,1,2.59-16.79c1.2-6.87.77-7.71,1.72-14.9.7-5.23,1.29-7.48,5.18-24C826.37,415.63,827.67,409.74,832.58,407.9Z"/>
    <path class="cls-17"
          d="M813.59,507.73c.5-.14,1.15,2.8,3.89,5.4.56.53,2.18,2,7.34,3.89,7.11,2.57,8.88,1.51,11.67,3.66.94.73,2.11,1.92,4.32,7.55a89,89,0,0,1,4.76,17.05c1.5,8.39.2,6.53,1.72,16.63,1,7,2.1,10.65-.21,14a10,10,0,0,1-4.32,3.46c-2.62,1.12-4.43.56-10.58-.43-8.78-1.4-11-1.23-11.88-3s.27-3.71,1.08-5.6c1.94-4.56,1.72-9.37,1.3-19-.45-10-3.19-10.56-7.55-30.87C815.1,520.4,812.43,508,813.59,507.73Z"/>
</svg>