<svg id="Слой_1" data-name="Слой 1" xmlns="http://www.w3.org/2000/svg" viewBox="0 0 600 618.5">
    <defs>
        <style>
            .cls-1,.cls-12,.cls-17,.cls-18{fill:#fff;}.cls-10,.cls-11,.cls-12,.cls-13,.cls-2,.cls-22,.cls-23,.cls-24,.cls-25,.cls-3,.cls-4,.cls-5,.cls-6,.cls-7,.cls-8,.cls-9{stroke:#000;stroke-width:3px;}.cls-2,.cls-6{stroke-miterlimit:10;}.cls-3{fill:#1f1923;}.cls-10,.cls-11,.cls-12,.cls-13,.cls-22,.cls-23,.cls-24,.cls-25,.cls-3,.cls-4,.cls-5,.cls-7,.cls-8,.cls-9{stroke-linecap:round;stroke-linejoin:round;}.cls-4{fill:#3b2d42;}.cls-5{fill:#282423;}.cls-6{fill:#acb5bf;}.cls-7{fill:#999;}.cls-8{fill:#edeaef;}.cls-10{fill:#f275a5;}.cls-11{fill:none;}.cls-13,.cls-14{fill:#d9d9d9;}.cls-15{fill:#380208;}.cls-16{fill:#6a0006;}.cls-17{opacity:0.2;}.cls-17,.cls-18{isolation:isolate;}.cls-18{opacity:0.05;}.cls-19{fill:#282828;}.cls-20{fill:#00597a;}.cls-21{fill:#2cacdc;}.cls-22{fill:#bfb095;}.cls-23{fill:#2d271f;}.cls-24{fill:#858a99;}.cls-25{fill:#0093aa;}
        </style>
    </defs>
    <title>dia4mob</title>
    <rect class="cls-1" width="600" height="618"/>
    <path class="cls-2"
          d="M96.72,589.31c-.71,1.65.15,2.38-.77,8.09-.35,2.19-.7,3.46-1,6.36-.44,4-.16,5.12.13,5.83a7.89,7.89,0,0,0,3.44,3.84,8.85,8.85,0,0,0,4.84,1.06c18.7-.73,28-1.09,30.68-.63a7.44,7.44,0,0,0,2.53,0c.49-.09,4.21-.36,5.73-2.25s1.75-3.94,1.66-6.63a10.75,10.75,0,0,0-1.78-5.69,10.08,10.08,0,0,0-3.57-3.58,9.39,9.39,0,0,0-5.6,0,8.2,8.2,0,0,0-4.33,2.25c-1.14-1.59-5.87-4.27-7.89-7.69C116.71,583.34,99.46,583,96.72,589.31Z"/>
    <path class="cls-2"
          d="M56.78,592.36c-.27.33-1.81,3.16-4.91,8.85-3.59,6.63-3.76,7.09-3.58,7.82,1.18,4.94,13.46,3.84,27.19,5.43.83.09,3,.35,4.51-.93a4.43,4.43,0,0,0,1.33-2.12c1.86-5.85-4.52-13.63-3-22.54.17-1,.37-1.62,0-2.25C76.38,583.44,62.91,584.88,56.78,592.36Z"/>
    <path class="cls-3"
          d="M124.88,448.8c.57.4,1.11,2.53,1.59,4.38a9.07,9.07,0,0,1,.53,2.53c2.12,66.68-2.65,136.13-2.65,136.13-.63,2.65-29.56,2.53-30.22.13-2.25-65.35-17.24-86.08,8.22-121.41,3.16-4.39-1.4-16.23,2.32-20.08C110.21,444.75,123.72,448,124.88,448.8Z"/>
    <path class="cls-4" d="M106.62,449.62"/>
    <path class="cls-3"
          d="M106.62,449.62C86.48,446,65.17,436.28,60.09,445c-.49.85-1,2.74-2,6.61a114.68,114.68,0,0,0-2.78,14.58,142.28,142.28,0,0,0-1.06,18c0,11.1-1.38,22.31-1.59,33.41-.51,26.24-.51,35.13-.93,40.82-1.62,23.16-2,35.92-2,35.92,0,3.31,29.3,3.45,30.09,1.06,0,0,3.53-9.72,5.83-32.48,3.24-32.1,9.14-58.32,11.8-66.28a11.94,11.94,0,0,1,2.65-4.24,21.8,21.8,0,0,1,2.78-2.78,25.07,25.07,0,0,1,5.69-3.58"/>
    <path class="cls-5"
          d="M58.63,439.39c-.42,1.37-.15,5.17-.15,7.29,1.79,3.23,6.6,5.39,11.8,7.29A53,53,0,0,0,77,456c11.69,2.49,22.26,1.7,28.5,1.2a105.6,105.6,0,0,0,13.63-2.36c4.48-1,6-1.64,7.16-2.92.13-3.71.41-9.45-.63-12.2C119.51,423.82,63,425.67,58.63,439.39Z"/>
    <path class="cls-6"
          d="M99.33,444.19l.76,11.67a2.57,2.57,0,0,0,2.81,2.29H103l9-1.15a2.53,2.53,0,0,0,2.26-2.53l-.45-11.94Z"/>
    <path class="cls-7"
          d="M186.15,403.87c2.4.25,3.6,19,1.2,19.6-1.21.3-3.54-4-4.24-7.69C182,409.81,184.75,403.72,186.15,403.87Z"/>
    <path class="cls-8"
          d="M120.8,347.93a8.13,8.13,0,0,1,4.11.53,8.73,8.73,0,0,1,3.71,3.16,35.9,35.9,0,0,1,4.91,9.94c3.59,10.81,1.71,4.57,3.58,10.6,3.25,10.49,5.06,16.76,7.82,25,.54,1.62.82,2.45,1.2,3.45,2.86,7.75,4.49,8.85,4.91,12.2.55,4.46-1.67,8.14-2.53,9.54-.67,1.11-4.69,7.46-11.53,8a9.87,9.87,0,0,1-5.69-1.06c-.81-.46-4-2.43-5.43-9.28C124.12,412,122.11,384.64,120.8,347.93Z"/>
    <path class="cls-9"
          d="M182,409.63c1.75-3.41,5.06-5.47,6.43-7.62a19.6,19.6,0,0,1,5.06-5.17c1.54-1.14,1.85-1,4.11-2.65a22.83,22.83,0,0,0,4-3.16c1.66-2,1.42-3.12,4-7a3.6,3.6,0,0,1,5.3-1.46c2.47,1.43,2.61,5,2.65,6.1a11.07,11.07,0,0,1-1.2,5.3c-1.08,2.25-2.09,2.66-3.71,4.77-2.73,3.57-1.83,5-3.84,7.69s-4.73,3.71-8.75,5.17c-4.76,1.73-11.86,3.16-12.72,1.33C182.88,412.13,180.14,413.21,182,409.63Z"/>
    <path class="cls-9"
          d="M197.82,402c.51-1.56,3.63-1.9,6.76-2.25a19.54,19.54,0,0,1,8.35.93,15.38,15.38,0,0,1,7.29,4.24,8.33,8.33,0,0,1,2.12,4,4.06,4.06,0,0,1-.27,3.16c-1,1.33-3.16,1.26-4.11,1.2C211,412.94,196.61,405.69,197.82,402Z"/>
    <path class="cls-9"
          d="M196.49,405.35c.37-.9,2-1,5.17-1.2,4.68-.28,8.09.89,12.33,2.38a16.34,16.34,0,0,1,6.1,3.31c2,1.81,2.3,3.21,2.38,3.84a4,4,0,0,1-.53,2.92c-.8,1-2.67,1.41-6.49.53C206.41,415,195.38,408.07,196.49,405.35Z"/>
    <path class="cls-9"
          d="M183.5,419.51c1.4,1.15,2.53.16,9.14.27,3.37.06,5.06.08,6.76.27a32,32,0,0,0,4.11.13c1.26,0,1.43-.06,1.59-.13,1.74-.83,2.32-5.17.8-8-2.06-3.76-7.59-4-10.34-4.11-1.26-.06-11.09-.47-13.28,4.91C181.43,415,181.79,418.12,183.5,419.51Z"/>
    <path class="cls-9"
          d="M198.75,412c.13-.09.26-.15,1.14-.28a26.88,26.88,0,0,1,3.49-.43c2.58-.07,4.36.42,7.56,1.26a29.9,29.9,0,0,1,6.76,3,3.94,3.94,0,0,1,1.46,1.43,3.69,3.69,0,0,1,.53,1.86,3.93,3.93,0,0,1-1.2,2.57c-2.77,2.9-8.92-2-16.44-1.26a3.34,3.34,0,0,1-2.25-.43C197.55,418.24,197.17,413.12,198.75,412Z"/>
    <path class="cls-8"
          d="M145.06,403.6a6.89,6.89,0,0,1,3.84.4,7.74,7.74,0,0,1,3.31,2.78c2.3,3.1,5.51,9.79,3.71,11.38"/>
    <path class="cls-8"
          d="M145.06,408a26.32,26.32,0,0,1,4.91-1.59c3-.63,5.26-.39,10.07,0,5.29.44,7.94.63,8.62.63,6.69.11,10,.16,13-.63.49-.14,1.57-.55,1.33-.13-3.45,5.69-2,12.72,2.25,17.63-18.69,5.83-26.64,8.85-48.51,7.82a12.15,12.15,0,0,1-5.43-1.46,5.84,5.84,0,0,1-2-1.46"/>
    <path class="cls-8"
          d="M179.39,406c.46-.23,3.45-.93,6.76-2.12-2.65,2.65-5.56,15.11,1.2,19.6a33.38,33.38,0,0,1-6.49,2.38C176.48,425.87,174.21,408.64,179.39,406Z"/>
    <path class="cls-8"
          d="M51.21,349.91s2.94-1,8.75-2.92c5.1-1.69,6.56-2.17,9.14-3,6.32-2.16,6.76-2.43,8.35-2.92,7-2.16,13.28-1.35,18.69-.63,8.56,1.1,11.65,3.28,18.43,4.24a43.57,43.57,0,0,1,7.42,1.73,18,18,0,0,1,2.53.93c3.79,1.9,4.93,7.18,5.43,9.67,2.49,12.26,3.74,18.4,4,22.4.42,7,.42,11.9.4,20.81-.06,29.43-2,23.67-3,36a8.94,8.94,0,0,1-.93,3.45,13.85,13.85,0,0,1-2,2.65,25.13,25.13,0,0,1-2.78,3c-1,.7-2.14,1-5.69,1.06-3,.06-4.79-.08-6.36-.13a66.22,66.22,0,0,0-10.47.8c-4.72.56-5.39.89-8.75,1.06-.63,0-2,.09-6,0-7.17-.17-10.75-.25-14.58-.93-2.14-.37-4.12-.91-8.09-2-4.38-1.19-.54-.33-6.36-2.25a5.53,5.53,0,0,1-2.78-1.59A5.21,5.21,0,0,1,55.5,438c-.28-19.46,2.78-31.81,2.78-31.81C64.72,380.11,43.15,355.51,51.21,349.91Z"/>
    <path class="cls-2"
          d="M40.74,608.13A7.16,7.16,0,0,1,45,601.38a10.23,10.23,0,0,1,4.24-1.06c9.49-.49,14.2-.73,20.15,1.46,3.21,1.18,8.29,3.12,10.75,7.82.47.92,1.4,2.75.63,4.11-.92,1.7-3.88,1.63-7.42,1.59-10.55-.09-15.81-.15-19.75.13-5.53.39-8,.4-9.94-.53C41.41,613.86,40.7,610.59,40.74,608.13Z"/>
    <path class="cls-10"
          d="M103.71,353.23c4,14.85,11.53,50.51,15.78,72.64-1,6.32-5.3,17.36-9.41,22-4-8.49-9.14-16-11.14-20.68,2.38-31.42.4-68.14,1.33-74.76C101.18,352.23,103.24,351.53,103.71,353.23Z"/>
    <path class="cls-10"
          d="M97.34,344.35c-1.38,2.93-.42,9,1.06,11.93.53,1.06,6.75.27,7.16-.8,1.59-4.11.8-7.16,1.59-11.14C108.06,339.83,99.28,340.26,97.34,344.35Z"/>
    <path class="cls-8"
          d="M102.38,342.36c-3.49-.06-7.82,10.87-9.14,15.9-8.22-2.92-16.3-15.25-15.9-19,.81-7.54,10-10.12,10.34-10.21,9.26-2.92,19.52,3.62,22.94,11.67,3.06,7.22-.49,16.62-2,16.7C108.74,353.89,105.75,342.42,102.38,342.36Z"/>
    <path class="cls-11" d="M128.18,385.44a63.32,63.32,0,0,1,0,9.81c-1.9,1.71-4.33,1.93-7,2"/>
    <path class="cls-11"
          d="M117.38,390.38A120.1,120.1,0,0,0,115,377.89c1.33,1.2,7.42-.13,11.8-.93a4.38,4.38,0,0,1,.63,1.81"/>
    <path class="cls-11" d="M116.83,381.59a17.67,17.67,0,0,0,8.35-.53"/>
    <path class="cls-8"
          d="M70.83,388.75c-.12.59-.09.35-1.33,5.17-2.16,8.42-2.2,9-3.45,13.79-3.37,13-3.52,10.75-4.77,15.9a20.24,20.24,0,0,1-2.65,6.23,5.92,5.92,0,0,1-1.33,1.73c-3.79,2.35-16.88-7.59-19.48-17.76a35.84,35.84,0,0,1-.93-7.82,32.38,32.38,0,0,1,.63-6.36c1-5.11,4.11-23.17,10.87-47.06,1-3.49,6.51-3.3,7.56-3"/>
    <path class="cls-8"
          d="M52.64,405.84c3.16,2,4.63,6.1,5.74,9.16a24.62,24.62,0,0,1,1.32,10.59c-.23,2.45-.46,4.69-2,7a15.23,15.23,0,0,1-6,4.91,13.87,13.87,0,0,1-5.3,2,11.91,11.91,0,0,1-7.82-1.85"/>
    <path class="cls-8"
          d="M48,421.63a11.7,11.7,0,0,1-5.06,5.83c-5.23,2.77-12.85.63-15.11-3.84-1-2-.79-4.13-.53-6.76a12.61,12.61,0,0,1,2.12-6.63,11.77,11.77,0,0,1,3.71-3.16c2.26-1.4,5.27-3.27,8.75-2.53"/>
    <path class="cls-12"
          d="M30.26,421.36c.17.17,1.26-1.26,3.16-2a9.34,9.34,0,0,1,5.83,0,10.55,10.55,0,0,1,4.69,2.42c2.35,2.16,2.88,4.93,3.58,8.62.48,2.53.72,3.79.27,5.06-1.39,3.83-6.8,4.65-6.63,5.17s3.74.32,6.49-2a9.53,9.53,0,0,0,2.78-4.11,13.66,13.66,0,0,0-3.58-14.45,13.4,13.4,0,0,0-9.41-3.16A9.35,9.35,0,0,0,32,419C30.88,420,30.11,421.21,30.26,421.36Z"/>
    <path class="cls-9"
          d="M38.75,421.89c-.11-1.68-2.94-3.09-5.06-3.31-.46,0-1.21-.08-5.06,1.2-3.07,1-3.66,1.38-6.32,2.25a19.21,19.21,0,0,1-4.91,1.2c-1.9.06-2.46-.4-4.77-.27a8.13,8.13,0,0,0-3.71.8c-.36.2-2.76,1.56-2.92,3.71-.2,2.86,3.74,4.85,4.38,5.17a11.36,11.36,0,0,0,7.82.63,16.14,16.14,0,0,0,5.43-2.38C33.51,424.75,38.88,424.27,38.75,421.89Z"/>
    <path class="cls-9"
          d="M35.84,422.82a10.2,10.2,0,0,1,3.68-1.2,9.15,9.15,0,0,1,4.38.63c2.64,1.46,2.89,5.59,3,8.85a34.15,34.15,0,0,1-4.48,18.5,27.53,27.53,0,0,1-5.3,6.49,9.63,9.63,0,0,1-4.24,2.65,3.55,3.55,0,0,1-2.65,0A3.88,3.88,0,0,1,28.64,456c-.77-4.13,2.14-10.72,3.45-15.78C34.46,431.2,32.25,425,35.84,422.82Z"/>
    <path class="cls-9"
          d="M21.92,429.32c-.23,1.26.44,2.07,0,4.38a13.73,13.73,0,0,1-1.06,3c-1.95,4.59-2.09,4.49-2.65,6.1a22.26,22.26,0,0,0-1.2,5.83c-.21,2.4,0,3.48.53,4.38a4.07,4.07,0,0,0,1.85,1.85c1.64.7,3.45-.25,4.24-.63,4.86-2.53,8.73-10,11.14-15.38,4-8.75,3.53-10.71,2.78-11.93-1.48-2.43-4.77-2.81-5.69-2.92C27.36,423.49,22.44,426.28,21.92,429.32Z"/>
    <path class="cls-9"
          d="M29.47,434c-2,.8-2.93,2.88-4.77,7a39.93,39.93,0,0,0-2.65,8.49,18.15,18.15,0,0,0,0,6.76,3.48,3.48,0,0,0,1.19,2.24,3.6,3.6,0,0,0,2.78.4c3.41-.63,6-5.23,6.63-6.49,2.16-4.09,6.41-14.39,2.38-17.76A5.8,5.8,0,0,0,29.47,434Z"/>
    <path class="cls-9"
          d="M30.2,424a7.32,7.32,0,0,0,.53,3.71c.56,1.54,3.36,9.38,10.21,10.6.82.15,4.78.85,7.16-1.59,1.82-1.9,1.69-4.54,1.59-6.49a12.12,12.12,0,0,0-10.6-11.9,7.92,7.92,0,0,0-4,0A7.27,7.27,0,0,0,30.2,424Z"/>
    <path class="cls-9"
          d="M98.67,265.34c0-.52,1.14-.46,3.84-2,2.39-1.35,2.43-1.9,4.51-3.16a19.12,19.12,0,0,1,7.42-2.78,31.54,31.54,0,0,1,5.17-.13c1.49,0,2.14.11,4.11.13a16.27,16.27,0,0,0,4.24-.27c2-.69,3-2.12,3.31-1.85s-.14,1.37-.8,2.25c-1,1.38-2.33,1.61-2.25,2.12s1.61.75,2,.8c2.61.34,4.48-1,4.64-.63s-.82,1.26-2.12,1.73c-.73.24-1.39.23-1.46.53s.46.63.53.63a3.2,3.2,0,0,0,1.85.27,4.19,4.19,0,0,1-2.12.4c-.68,0-1.09-.28-1.2-.13s.5.84.8,1.2c.94,1.11,1,2.42,1.06,4.64a11.82,11.82,0,0,1-1.33,6.89c-.63,1.09-1.55,2-1.33,2.25s.85,0,1.33-.4c.76-.56.94-1.37,1.06-1.33a2.91,2.91,0,0,1-.27,1.59,6.49,6.49,0,0,1-1.2,2.12,5.79,5.79,0,0,1-3.84,2.12c-2.47,0-3.52-4.2-5.56-7.16C114.77,266.1,98.51,267.34,98.67,265.34Z"/>
    <path class="cls-13"
          d="M50.68,304.45c.2-.06.45,1.83,2.12,2.78a5.18,5.18,0,0,0,3.45.4A8.64,8.64,0,0,0,61.16,305c2.18-2.45,2.21-5.74,2.25-7,.09-3,.51-15.89,7.82-24.26a27.18,27.18,0,0,1,10.07-6.89,37.88,37.88,0,0,1,17.63-3,44.73,44.73,0,0,1,15.25,3.31c4.63,1.9,9.43,3.86,13.12,8.75,2.53,3.33,3.46,6.62,4.38,9.81a53.36,53.36,0,0,1,1.85,13.12c.08,3.55.73,7.07,1.06,10.6a5.54,5.54,0,0,0,1.73,4,3.61,3.61,0,0,0,2.38.8c1.9-.14,2.9-2.11,3.31-1.85s-.12,1.73-.8,3a12.3,12.3,0,0,1-3.45,4.11c-2.61,1.94-5,2.11-4.91,2.78,0,.45,1.14.73,1.85.8,2.11.19,3.51-1.26,3.84-.93S137.91,324,137,325a8.34,8.34,0,0,1-5.06,3,10.94,10.94,0,0,0-1.85.13,23.66,23.66,0,0,1,3.16,1.73c.22.17,1.35,1,1.2,1.33s-1.07-.18-2.53-.27a8.94,8.94,0,0,0-5.17,1.46c-.58.33-1.26.71-1.2,1.06s1.55.63,2.12.63c1.37.13,2.23-.09,2.25,0a14.32,14.32,0,0,1-4,1.2c-1.9.36-2.16.2-3.31.53a11.23,11.23,0,0,0-3.71,2c-2.15,1.57-2.26,2.34-4.38,4.24a17.29,17.29,0,0,1-4.51,3.16,14.78,14.78,0,0,1-7.16,1.2,18.72,18.72,0,0,1-7.29-2.38c-3-1.54-3.35-2.53-5.43-2.78-2.53-.34-4.7.73-4.91.27s2.32-1.58,2.12-2.65c-.15-.82-1.86-1.36-3.31-1.33-2.79.06-4.43,2.24-5.06,1.73-.39-.34,0-1.57.53-2.38,1-1.45,2.45-1.59,2.38-2s-2.79-1.18-5.3-.13c-2.81,1.16-3.75,3.79-4.51,3.45-.57-.25-.63-2,0-3.31.94-2.07,3.1-2.53,2.92-3.16s-2-.55-3.31-.53a6.74,6.74,0,0,0-3.45.53c-1.85,1-2.21,2.93-2.65,2.78s-.53-2,.27-3.71,2.19-2.29,2-2.78-2.07.08-4.51-.13a12.26,12.26,0,0,1-5.83-2.12c-3.12-2.24-4.5-5.93-4.11-6.23.2-.15.69.63,2.12,1.33a8.58,8.58,0,0,0,4.91.63c1.5-.2,3.22-.8,3.16-1.2s-2.33.11-4.77-1.06c-2.69-1.26-4-3.93-3.84-4.11s1,1.1,2.65,1.33c1.37.19,2.8-.4,2.78-.8,0-.63-3.52.12-6.23-1.73C50.27,311.28,50.3,304.56,50.68,304.45Z"/>
    <path class="cls-1"
          d="M79.44,270.91a22.58,22.58,0,0,0-5.83,5.17c-2.4,3.16-3.16,6.26-4,9.54-.92,3.72-.59,4.64-2,11.27a29,29,0,0,1-1.85,5.56,10.21,10.21,0,0,1-2.12,3.45A9.3,9.3,0,0,1,59.4,308c-2,.63-4,1.2-6,.4A17.34,17.34,0,0,1,51,306.83,8.49,8.49,0,0,0,53.4,310c1.26,1.18,3.76,3.53,6.89,3.45,1.35,0,2.45-.51,2.78,0s-.13,1.26-.53,1.73c-1,1.21-2.6,1.06-2.65,1.59s.78.83,1.46,1.06c2.48.85,4.43-.63,5.06.13s-.56,2.23-.63,2.38a6.22,6.22,0,0,1-3.71,2.25,9.64,9.64,0,0,1-3.07.35c-1.48-.07-2.33-.46-2.36-.35a17.93,17.93,0,0,0,6.23,2.53,15.56,15.56,0,0,0,5.69.4c2.24-.3,3.83-1.09,4-.8s-.83.8-2.25,2.12c-1,.92-3.09,3-2.78,3.45s1.52-.51,3.16-1.06c4.91-1.64,9.83.06,9.81.4a10.59,10.59,0,0,0-2.65.63c-1.56.8-2.63,2.33-2.38,2.65s1.16-.46,2.92-.93c2.88-.77,6.13-.38,6.36.53.07.28-.18.45-1.59,2-2,2.24-2,2.45-2,2.53.18.27,1.5-.73,3.58-1.2,2.49-.56,5.41-.2,5.69.8.2.67-.77,1.69-1.06,2-.68.71-1.26.86-1.2,1.06.09.38,2.14-.14,4.38.27,1.58.28,1.9.78,4,1.73a19.6,19.6,0,0,0,7.82,2,12.26,12.26,0,0,0,5.06-.8c1.9-.77,2.12-1.49,5.83-4.24a20.87,20.87,0,0,1,4.51-2.92c3-1.14,5.79-.73,5.83-1.2s-2.53-.63-2.65-1.59,2.53-2.21,2.65-2.25c2.1-.9,3.94-.68,4-1.06s-2.25-.73-2.25-1.33,1.44-.7,3.58-1.46c2.65-.94,4.74-2.09,4.64-2.38s-1.48.41-2.92-.27c-.9-.42-1.84-1.37-1.73-2.25.07-.52.49-.85,2-1.73,2.7-1.57,3.64-1.83,5.06-2.92.94-.73,2.23-2,2-2.38s-1.78.54-3.31,0c-1-.37-1.84-1.35-2.78-4a26.5,26.5,0,0,1-1.59-7.56,110,110,0,0,0-.93-15,27.39,27.39,0,0,0-5.69-13c-4.33-5.17-9.74-7-14.45-8.49-4.09-1.34-11.73-3.74-20.68-1.33A35.37,35.37,0,0,0,79.44,270.91Z"/>
    <path class="cls-9"
          d="M70.83,287.35c1.42-3.47,1.6-5.39,2.53-7.16,1.85-3.58,4.43-7.25,6.23-8.75,6.73-5.64,15.92-3.83,16.17-6.23.07-.63-.6-.85-2.38-2.92-2.61-3-2.22-3.79-3.84-5.56a15.72,15.72,0,0,0-11.27-4.64,16.57,16.57,0,0,1-3.31,0c-3.47-.54-5.53-2.62-5.83-2.25s.51,1.45,1.59,2.12c.74.46,1.46.53,1.46.8s-1,.52-1.06.53c-2.07.42-3.79-.84-4-.53s.39.78.93,1.2c1.14.88,2.16.74,2.25,1.2s-.73,1-1.46,1.33c-1.68.69-3.21,0-3.31.27s.77,1,1.73,1.06c.51,0,.82-.15.93,0s-.73,1.33-1.06,1.73c-1.48,1.78-1.64,4-1.85,7-.2,2.81-.33,4.64.63,6.63.83,1.67,2.23,3,1.85,3.45-.2.24-.77.08-1.06,0A4.7,4.7,0,0,1,64.05,274c-.66-1.37-.63-2.4-.8-2.38a8,8,0,0,0,0,3.71A7.12,7.12,0,0,0,64.58,279c1.46,1.73,3.6,1.59,3.58,2.25s-1.58,1.23-3,1.06c-1.73-.2-2.73-1.48-3-1.2s.23,1.26.63,1.85A4.84,4.84,0,0,0,66,285.1c1.26.15,2-.44,2.38,0s0,1.32-.13,1.73a3.21,3.21,0,0,1-1.73,1.85c-.84.3-1.57,0-1.59.13a3.16,3.16,0,0,0,2,.63,4.18,4.18,0,0,0,3-.8A3.38,3.38,0,0,0,70.83,287.35Z"/>
    <path class="cls-14"
          d="M79.58,304.85a9.59,9.59,0,0,1,1.73-3.45c.46-.66,1.56-2.18,5.69-5.3,3.26-2.46,3.29-2.07,5.56-4,1.81-1.52,2.23-2.13,3.71-2.92a7.84,7.84,0,0,1,5.06-1.2,7,7,0,0,1,4,2.53c.38.42,2,2.3,2.78,6.76.84,4.79-.17,7.54.63,7.82s3-2.86,4-5.06a20.24,20.24,0,0,0,1.85-5.56,10.29,10.29,0,0,1,1.06-4,3.76,3.76,0,0,1,2-2c1.44-.45,2.89.63,3.31.93,1.49,1.1,1.6,2.23,3.16,5.69s2,3.36,2.92,6a21.68,21.68,0,0,1,1.33,5.17c.29,2.43.46,3.85-.27,5.43a7.9,7.9,0,0,1-4.64,3.84,8.61,8.61,0,0,1-5.69.13c-3-1.09-4.73-4-4.91-3.84s2,2,1.46,3.31c-.63,1.67-5.56,2-6.76.27-.24-.35-.13-.49-.4-1.73s-.76-3.43-1.59-3.58c-.56-.1-1,.73-1.73,1.59-1.75,2.07-3.91,2.9-6.76,4A15.55,15.55,0,0,1,91.6,317c-.92,0-5.94.16-9.41-3.71C81.88,312.93,78.6,309.16,79.58,304.85Z"/>
    <path class="cls-9"
          d="M83.55,303.54a6.78,6.78,0,0,0-.4,2.25,7.49,7.49,0,0,0,2,4.77,9.89,9.89,0,0,0,6,3,12,12,0,0,0,6.36-.53,9.85,9.85,0,0,0,4.24-2.78A10.53,10.53,0,0,0,104,305a9.68,9.68,0,0,0,0-5.17,7.7,7.7,0,0,0-3.31-4.38,8.14,8.14,0,0,0-5.17-.8C89.42,295.23,84.8,299.93,83.55,303.54Z"/>
    <path class="cls-9"
          d="M112.58,303.13a36.37,36.37,0,0,1,1.85-4.38c.86-1.9,1.36-2.78,2.38-3.45a3,3,0,0,1,1.85-.63c.89.07,1.54.76,3.71,4.51s2.43,4.66,2.53,5.43a7.81,7.81,0,0,1-.53,4,7.47,7.47,0,0,1-4.64,4.24,6.5,6.5,0,0,1-3.45,0,6.75,6.75,0,0,1-4-3.45C111.44,307.39,111.93,305.54,112.58,303.13Z"/>
    <path class="cls-1"
          d="M93.1,305.64c.06-.63.63-1,1.73-1.85s1.8-1.34,2.78-1.2a2.73,2.73,0,0,1,1.59.93,2.92,2.92,0,0,1-2.25,5C95,308.66,93,307,93.1,305.64Z"/>
    <path class="cls-1"
          d="M113.91,305.91c0-1.26,1.2-2,2-2.53s1.32-.85,2-.63c1,.27,1.45,1.58,1.46,2.53a3.09,3.09,0,0,1-1.46,2.65,2.77,2.77,0,0,1-2.92-.13A2.53,2.53,0,0,1,113.91,305.91Z"/>
    <path class="cls-14"
          d="M89,326a7.78,7.78,0,0,1-.13-2.53,3.57,3.57,0,0,1,1.06-2.12c1.26-1,3.1-.34,3.16-.63s-1.41-1.26-3-1.06a3.37,3.37,0,0,0-2.53,1.46C86.39,323.15,88.75,326.14,89,326Z"/>
    <path class="cls-14"
          d="M105.56,338c.06-.15.89.43,1.85.13,1.34-.42,1.65-2.11,2.12-2s.44.94.27,1.59a2.18,2.18,0,0,1-1.46,1.46A2.58,2.58,0,0,1,105.56,338Z"/>
    <path class="cls-9"
          d="M105.28,316.25a3.35,3.35,0,0,0,0,2.38,3.16,3.16,0,0,0,1.06,1.33c1.63,1.26,3.79.73,7.42-.13a2.09,2.09,0,0,0,1.06-.53,3.34,3.34,0,0,0,.53-2.78,4,4,0,0,0-.4-1.46C113.61,312.8,106.41,313.45,105.28,316.25Z"/>
    <path class="cls-1"
          d="M109,317c.08.25.54.3,1.46.4a4.61,4.61,0,0,0,3-.4c.27-.16,1-.59.93-1.06s-1.23-.92-2.12-.93C110.52,315,108.82,316.47,109,317Z"/>
    <path class="cls-15"
          d="M114.31,329.9c.15.25-1,.92-2.38,2.38-1.09,1.14-1.17,1.55-2,2a3.89,3.89,0,0,1-.55.25,8.89,8.89,0,0,0-.11-1.3,6.32,6.32,0,0,0-.93-2.38,7.41,7.41,0,0,0-1.26-1.42,4.59,4.59,0,0,0,1.81-1.09c.63-.63.94-1.26,1.33-1.2s.25,1.32,1.2,2.12a3.31,3.31,0,0,0,1.73.63C113.85,330,114.23,329.75,114.31,329.9Z"/>
    <path class="cls-16"
          d="M109.27,333.21a8.89,8.89,0,0,1,.11,1.3,5.55,5.55,0,0,1-1.57.28,8.06,8.06,0,0,1-3.58-.63,11.79,11.79,0,0,1-3.84-2.38c-.81-.72-1.9-1.9-1.73-2.12s.84.36,2,.63a8.88,8.88,0,0,0,4.77-.4c.63-.18,1.17-.33,1.63-.5a7.41,7.41,0,0,1,1.26,1.42A6.32,6.32,0,0,1,109.27,333.21Z"/>
    <path class="cls-11"
          d="M107.06,329.4c-.46.16-1,.32-1.63.5a8.64,8.64,0,0,1-4.77.4c-1.14-.3-1.85-.85-2-.63s.91,1.4,1.73,2.12a11.79,11.79,0,0,0,3.84,2.38,8.06,8.06,0,0,0,3.58.63,5.55,5.55,0,0,0,1.57-.28,3.89,3.89,0,0,0,.55-.25c.82-.44.9-.84,2-2,1.4-1.47,2.53-2.13,2.38-2.38s-.46.07-1.2,0a3.31,3.31,0,0,1-1.73-.63c-.94-.8-.68-2-1.2-2.12s-.7.57-1.33,1.2A4.59,4.59,0,0,1,107.06,329.4Z"/>
    <path class="cls-11" d="M107.06,329.4a7.41,7.41,0,0,1,1.26,1.42,6.32,6.32,0,0,1,.93,2.38,8.89,8.89,0,0,1,.11,1.3"/>
    <path class="cls-11"
          d="M93.9,325.12A10.33,10.33,0,0,0,95.23,327a10.2,10.2,0,0,0,2.65,2.12,9.88,9.88,0,0,0,4.64,1.2,9.49,9.49,0,0,0,6-2,5.82,5.82,0,0,0,1.85-2.53,5.32,5.32,0,0,0,.27-1.2,39.33,39.33,0,0,0,.27-4.91"/>
    <path class="cls-11"
          d="M110.34,325.79a6.91,6.91,0,0,0,.8,2.92,2.9,2.9,0,0,0,2.12,1.33,5.58,5.58,0,0,0,3.31-.93,5.12,5.12,0,0,0,1.33-2,6.15,6.15,0,0,0,.4-1.46"/>
    <path class="cls-14"
          d="M118.68,321.68c-.13.11.4.58.63,1.59a5.31,5.31,0,0,1,0,2.25c-.25,1.61-.8,2.44-.63,2.53s1.08-.92,1.59-2.25a3.46,3.46,0,0,0,.27-2.53C120.11,322.13,118.85,321.52,118.68,321.68Z"/>
    <path class="cls-11"
          d="M66.26,454.17a84.73,84.73,0,0,0-3.84,13.15c-1,5-.7,7.35-1.73,14.71-.72,5.14-1.47,8.65-1.85,10.6-1.22,6.18-2.91,17.81-4.91,41.74"/>
    <path class="cls-11"
          d="M100.59,493.94c.85-.4,2-.92,3.45-1.46,5-1.9,9.83-2.64,9.94-2.25s-3.44,1.26-8.85,4.11c-.36.19-6.82,3.62-6.49,4.38.21.48,3.1-.26,6.23-1.06,3.41-.87,5.2-1.57,5.3-1.33s-1.37,1-4.51,2.92c-2.15,1.26-3.9,2.35-5.06,3"/>
    <path class="cls-11"
          d="M98.32,507.19c0,4.47.06,10.35.27,17.23.06,2.07.31,10.37,1.06,22.54.44,7.09,1.18,16.36,2.65,34.6.26,3.16.56,6.84.8,9.81"/>
    <path class="cls-11" d="M64.4,463.58a15.48,15.48,0,0,0,4.51.63,14,14,0,0,0,6.76-1.59A13.72,13.72,0,0,0,80.73,458"/>
    <path class="cls-11"
          d="M62.28,481.48a40.82,40.82,0,0,0,4.64.53c3,.17,6.22.35,9-.53,5.25-1.66,7.93-6.74,9.54-9.81a27,27,0,0,0,3-11.94"/>
    <path class="cls-11"
          d="M118.62,456.43a58.47,58.47,0,0,1,2.53,13.12c.08,1.42.17,4.19,2.12,6.23a7.15,7.15,0,0,0,2.65,1.73"/>
    <path class="cls-11" d="M107.61,459.34c.23,3.79.34,7,.4,9.54a64.58,64.58,0,0,1-.27,10.34,48.9,48.9,0,0,1-.93,5.17"/>
    <path class="cls-5"
          d="M102.62,449.41l.3,5.17a.85.85,0,0,0,.89.81h.07l7.22-.86a.85.85,0,0,0,.75-.85V448.5a.85.85,0,0,0-.84-.86h-.12l-7.51.86A.85.85,0,0,0,102.62,449.41Z"/>
    <path class="cls-11" d="M71.42,391.47A9.81,9.81,0,0,0,73.15,390a10.35,10.35,0,0,0,2.53-4.91"/>
    <path class="cls-11" d="M70.36,393.73a12.4,12.4,0,0,0,1.33-.27,14.83,14.83,0,0,0,3.16-1.2"/>
    <path class="cls-11" d="M58.17,404.46a18.12,18.12,0,0,1-4.24-4.11,18.91,18.91,0,0,1-3-6.49,22,22,0,0,1-.8-6.49"/>
    <path class="cls-11" d="M45.84,398.23a14.16,14.16,0,0,0,7,10.34"/>
    <path class="cls-11" d="M58,408a33,33,0,0,1,2.53,10.6"/>
    <path class="cls-11"
          d="M137.7,406.72A11,11,0,0,1,142,404.6c2.71-.63,5.53-.18,5.56.27s-1.72.47-3.71,1.33a14,14,0,0,0-6.1,5.43"/>
    <path class="cls-11"
          d="M76.6,431.91a38.41,38.41,0,0,0,5.06,5.83,37.18,37.18,0,0,0,10.75,7c1.52.71,4.29,2,4.77,1.33.28-.38-.34-1.21-1.06-2.38a33.08,33.08,0,0,1-2.92-6.1"/>
    <path class="cls-11" d="M114.51,444.23a13.39,13.39,0,0,0,4.64-2.25,13.65,13.65,0,0,0,4.51-6.1"/>
    <path class="cls-11" d="M63.34,442.66a4.43,4.43,0,0,1-3.59-6"/>
    <path class="cls-11" d="M69.17,365a33.38,33.38,0,0,1,2.92,17.62"/>
    <path class="cls-1"
          d="M50.22,352.1c.8-1.26,2.65-.8,2.65-.8,1.4-.06,3.1.42,6.1,3A32.09,32.09,0,0,1,64.82,361a25.35,25.35,0,0,1,4.38,10.75,24.29,24.29,0,0,1,0,6c-.27,2.91-1.26,6.14-3.31,12.59a38.23,38.23,0,0,1-2.25,6.23,9.79,9.79,0,0,0-1.46,3.16c-.17.8-.14,1.33-.53,1.59-.72.48-2.12-.44-2.65-.8a13.19,13.19,0,0,1-4.24-5.17A25.54,25.54,0,0,1,52,387c-.48-3.27-.11-5.17-.63-5.3s-2,2.38-2.65,4.77a15.62,15.62,0,0,0,.8,10.6c2.2,4.67,6.23,6.57,5.83,7.16s-2.85-.47-4.77-2a12.54,12.54,0,0,1-3.71-5.17c-1-2.47-.83-4.07-1.33-4.11s-1.51,2.53-1.59,4.91a8.3,8.3,0,0,0,1.2,5.06c.8,1.18,1.82,1.86,1.73,2s-1.33-.9-3-1.46c-2.22-.71-3.69.16-4.38-.27C36.16,401.28,47,357.29,50.22,352.1Z"/>
    <path class="cls-1"
          d="M30.2,411.62c.89-1.61,2.17-2.35,3.84-3.31a19.6,19.6,0,0,1,5.69-2.12,18.48,18.48,0,0,1,6.1-.27,8.54,8.54,0,0,1,2.12.53,8.68,8.68,0,0,1,2.65,1.73,11.7,11.7,0,0,1,2.53,3.71c1.71,3.46,2.12,5.75,2.38,5.69s.14-2.27-.4-4.51-1.2-3.38-1.06-3.45a13.91,13.91,0,0,1,2.78,4.77,19.41,19.41,0,0,1,1.06,4.11c.43,2.7.63,4,0,5.3a5.41,5.41,0,0,1-4,2.78,2.24,2.24,0,0,1-1.2,0c-.92-.38-1.13-1.76-1.2-2.12-.54-2.86-3.16-6.49-5.3-8.22a11.29,11.29,0,0,0-6.63-2.38,9.77,9.77,0,0,0-5.69,1.33c-2,1.26-2.73,3.06-3.58,2.78s-.87-1.77-.93-2.53A6.79,6.79,0,0,1,30.2,411.62Z"/>
    <path class="cls-1"
          d="M58.44,349.19c-1.6,1.3,5.15,2.17,10.07,7.69a25,25,0,0,1,5.3,10.34,24.25,24.25,0,0,1,.8,11.67c-.81,4-2.65,6.84-2.12,7.16s1.84-1.18,2.78-2.65c1.52-2.38,1.51-4.53,1.85-4.51s.63,2.28.4,4.51a10,10,0,0,1-1.73,5.3c-1.13,1.5-2.42,2.06-2.25,2.38s1.54.09,2.65-.53,1.35-1.26,1.59-1.2c.56.23.16,4.37-2.38,7.56a15.54,15.54,0,0,1-3,2.65c-2.81,2.38-3,5.54-4.77,18.43-1.18,8.32-1.39,8.93-1.73,9.67-1.52,3.43-3.64,5.45-2.92,8.09a6.58,6.58,0,0,0,2.38,3.16c1.8,1.57,3.62,2.11,6.1,2.78,6.48,1.77,9.73,2.64,9.94,2.12s-2.57-1.26-4.77-4.24c-3-4-2.44-9-2.25-10.6s.85-5.13,1.85-5.17,1.08,2.35,2.92,6.23a28.39,28.39,0,0,0,7,9.41C88,441,89.78,442,90,441.81s-1.18-1.18-1.85-3a8.48,8.48,0,0,1,0-4.91c.25-1.26,1.13-5.75,2.65-5.83.28,0,1,.11,3.16,4.91,2,4.27,2.19,5.79,4,8.35,1,1.43,2.53,3.6,4,3.31a2.69,2.69,0,0,0,1.73-2.12c.35-1.69-.91-2.78-3-6-1.9-2.83-3.45-5.2-4-8.22a13.48,13.48,0,0,1,0-4.38C98.07,413,98,391,98,387.46c0-9.85-.63-8.61-.27-13.39a73.54,73.54,0,0,0-.4-13.39c-.13-1.06-.39-3-.93-3s-1.16,2.14-1.2,2.25c-.27.94-.06,1.26-.27,1.46-.66.63-3.93-1.32-7.29-4.24-3.6-3.12-9.73-9.49-10.47-12.72a2,2,0,0,0-.8-1.33c-.94-.54-2.36.29-2.78.53C68.93,346.27,60.55,347.47,58.44,349.19Z"/>
    <path class="cls-1"
          d="M79.25,341.23c-.37.9.42,1.9,2,4,4.36,5.69,4,5.4,4.77,6.23,3,3,3.66,2.59,5.06,4.38.16.21.69.92,1.06.8s.37-.88.4-1.33a14.73,14.73,0,0,1,1.85-5.83c.92-1.6,1.85-2.12,1.59-2.92-.12-.35-.37-.46-1.46-1.06-2.85-1.57-3.12-2-4.24-2.12a16.82,16.82,0,0,0-1.85,0,20.31,20.31,0,0,1-2.65-.13c-1-.16-2.73-.4-2.92-1.2s1-1.33.8-1.85-1.45-.4-2.12-.27C81.11,340,79.64,340.29,79.25,341.23Z"/>
    <path class="cls-1"
          d="M107.61,347.47c-.23.32.18.77.63,2,.9,2.3.68,4,1.06,4s.56-.92.8-1.73c.51-1.76.82-2.8.27-3.58C109.71,347.18,108,347,107.61,347.47Z"/>
    <path class="cls-1"
          d="M108.94,361.52c-.67,2.91,1.38,3.26,2,8.62.43,3.79-.36,5.73.93,6.63.4.28.75.29,4.38-.27,3.23-.49,4.87-.75,6.1-1.06,3.16-.82,3.09-1.26,3.84-1.06,3.16.75,4.19,8,4.91,13.12.54,3.83.52,6.23.8,6.23s1-4.64.93-9.54c0-2.83-.63-6.7-1.85-14.32-2.45-15.35-2.3-9.83-2.38-11.53-.07-1.36-.1-3.72-1.73-5.06-.79-.63-1.54-.7-3.16-.93-6.55-.94-7.87-2-9.28-.93-.78.58-.52,1-1.59,3.45C110.88,359.23,109.49,359.15,108.94,361.52Z"/>
    <path class="cls-1"
          d="M116,398c-1.18.94.15,3.6,1.85,10.07a105.33,105.33,0,0,1,2.78,15.64,29.24,29.24,0,0,1,.13,8,13.89,13.89,0,0,1-2.12,6.36,33.56,33.56,0,0,1-2.38,2.65,13.15,13.15,0,0,0,5.43-4c2.48-2.9,3-5.69,3.58-5.56s.44,2.78.27,4.11a12.27,12.27,0,0,1-1.33,4.51c-.6,1.11-1.11,1.6-.93,1.85.3.42,2.2-.1,3.58-1.2,1.9-1.52,2.42-3.79,2.92-6.1a30.89,30.89,0,0,0,.53-6.1c.06-2,0-3.33,0-4.11-.06-3.5.46-5.79,1.2-10.21,1.37-8.18,2.44-14.8.93-15.38-.5-.19-.82.44-2.53.93a10.54,10.54,0,0,1-4.11.27C120.23,399.17,117.3,396.92,116,398Z"/>
    <path class="cls-1"
          d="M117.82,383.38c-.35.45,0,.85.4,2.92a28.08,28.08,0,0,1,.8,6.23c0,1.11-.13,1.85.4,2.53a3.58,3.58,0,0,0,2,1.06,7.44,7.44,0,0,0,2,.12c.52,0,.63,0,.7-.12.15-.29-.77-.82-1.46-1.73-.83-1.09-1-2.31-1.2-4.77-.16-1.71,0-2.12.13-2.38a2.69,2.69,0,0,1,2.38-1.46c1.38.11,2.07,1.81,2.53,1.59.19-.09.16-.44,0-2.12-.2-2.13-.25-2.44-.53-2.65-.53-.4-1.22.08-2.53.4C120.3,383.76,118.56,382.45,117.82,383.38Z"/>
    <path class="cls-1"
          d="M116.49,379.15c.25-.32.87-.13,1.85,0a17.78,17.78,0,0,0,3.58,0c2.38-.22,3.84-1.18,4-.93s-.59.78-1.2,1.2c-1.73,1.19-2.53.7-6.36,1.46a1.75,1.75,0,0,1-1.33-.13C116.48,380.37,116.21,379.51,116.49,379.15Z"/>
    <path class="cls-1"
          d="M179.85,406.58c-1.16.42-1.46,1.68-1.73,2.25a8.92,8.92,0,0,0-.63,3.45c-.1,1.4.11.72.27,4.24,0,.56,0,1.32.53,1.59.21.12.45.08.93,0a6.25,6.25,0,0,0,2.38-.93,2.13,2.13,0,0,0,.63-.53c.43-.68,0-1.56-.27-2.38a7.58,7.58,0,0,1,.27-4c.63-2.73,2-3.57,1.59-4.24S181.31,406,179.85,406.58Z"/>
    <path class="cls-1"
          d="M142.34,408.44c-.3-.22-2.36,1.64-3.84,4.11-.35.57-3.38,5.6-1.59,7.82.75.93,2,1,3.31,1.06,7.3.46,4.83,1.26,11.38,1.46,6.91.19,5.51-.83,13.91-.93,3.79,0,7.83.11,8.75-1.85a7,7,0,0,0,.27-1.59c.3-2.61-.06-3.16.13-4.64.37-2.77,2.07-3.94,1.46-4.77-.29-.39-.87-.39-1.73-.4-1.81,0-3.62-.38-5.43-.27-3.21.2-3.1-.52-10.34-1.06a35.63,35.63,0,0,0-6.89-.13,16.31,16.31,0,0,0-7.29,2.12c-3.16,2-4.55,4.92-4.77,4.77S142.79,408.78,142.34,408.44Z"/>
    <path class="cls-1"
          d="M142.87,405.26a8.94,8.94,0,0,0-3.45,1.85c-2.53,2.31-2.74,5.52-3.16,5.43s-.67-1.93.13-3.58C137.92,405.82,142.82,405.13,142.87,405.26Z"/>
    <path class="cls-1"
          d="M145.26,402.34c-.35.45-1.31.08-2.12,0-3-.3-5.43,3.28-5.83,2.92s.63-1.68,1.46-2.78c1.79-2.4,3.37-3.25,3.16-3.58s-2,0-3.16,1.2c-.82.78-1.08,1.64-1.2,1.59s.85-2.67,1.33-5.17a21,21,0,0,0-.13-7.69,139.58,139.58,0,0,0-3.84-16c.09,0,4,14.48,7.42,20.41,1.39,2.39,1.66,5.29,2.78,7.82C145.24,401.27,145.55,402,145.26,402.34Z"/>
    <path class="cls-17"
          d="M99.26,348.39c-.35.35-.16.75.13,3.31.25,2.19.2,2.62.63,3a3.2,3.2,0,0,0,2.38.53,1.87,1.87,0,0,0,1.46-.4c.31-.34.38-.69-.13-2.65s-.73-2.8-1.33-3.31C101.49,348.12,99.91,347.76,99.26,348.39Z"/>
    <path class="cls-17"
          d="M101.39,359.26c-.53.07-.13,4.43.27,14.85.94,25.24,1.52,40.74.53,46a16,16,0,0,0,0,6.49,21.27,21.27,0,0,0,.93,2.92c1.26,3.48,1.77,3.88,4.11,8.85,1.17,2.53,1.55,3.49,2.38,3.58s1.79-1,2.53-2a14.85,14.85,0,0,0,2.65-6.1,23,23,0,0,0-.27-8.85c-3.12-12.74-4.17-25.93-7-38.71C103.38,367.93,102.12,359.19,101.39,359.26Z"/>
    <path class="cls-18"
          d="M65.73,465.3c.54-.31.85.06,2.53.27a14.37,14.37,0,0,0,5.83-.53c1.26-.36,5.53-1.59,7.56-5.06.42-.72.82-1.66,1.2-1.59s.63,1.56.53,2.78c-.16,1.5-.8,2.43-.63,2.53s3.16-4.6,4-4.24-.38,4.48-.53,5.06c-.94,3.47-2,7.28-5.43,10.87a20.56,20.56,0,0,1-7.56,4.91c-4.22,1.56-9.19,1.78-9.67.53-.15-.37.21-.63.63-2.12a15.62,15.62,0,0,0,.53-2.78C65.23,471.44,63.93,466.32,65.73,465.3Z"/>
    <path class="cls-18"
          d="M66.66,461.73c-.37-.68.67-1.26,1.2-4,.27-1.37.12-1.85.53-2.12.8-.53,2,.92,4.51,1.73,2.7.85,4.43.16,4.64.8s-2,2.14-3.71,2.92C71.08,462.26,67.29,462.9,66.66,461.73Z"/>
    <path class="cls-18"
          d="M62.15,483.86c1.07-.63,2.26.26,4.51.63,2.45.44,4.33,0,7.16-.8A20.16,20.16,0,0,0,82,479.85c2.53-2.07,3.69-4.27,5.3-7.29,2.15-4,3.59-6.75,3.58-10.21,0-.72-.07-2.11.4-2.25s1.46,1.2,2,2.38c1.26,2.85.42,5.49.8,5.56s1.08-1.76,1.59-3.71c.77-3,.33-3.75,1.2-4.51s2.79-.73,4.64-.53a3.72,3.72,0,0,1,1.73.4c1.5,1,1.1,4,.93,5.56-1.07,9.59,1.26,10.64-.8,17.23a46.58,46.58,0,0,1-2.65,6c-4.31,8.85-6.49,10.54-8.62,15.78-.76,1.9-1.07,3.11-2.65,12.46-2.4,14.23-3.16,19.75-3.16,19.75-4.12,29.18-4.69,33-5.43,37.25-2.23,12.76-3.53,15.52-3.31,17.76a3,3,0,0,1-.4,2c-.93,1.41-3.16,1.44-4.11,1.46-11.38.21-16.23,1.69-17.76-1.2a3.66,3.66,0,0,1-.4-1.73c-.21-9.24-.32-13.86.27-16.57C58,562.28,61.6,497.81,61,488.22,60.91,487.52,60.71,484.72,62.15,483.86Z"/>
    <path class="cls-18"
          d="M60,453.25a2.82,2.82,0,0,1,3,.4c1.09,1.2-.15,3.66-1.2,6.89-.4,1.26.08,0-2,10.87-1.58,8.33-2.36,12.49-2.65,12.46-.45,0,.35-5.46.53-16.57C57.9,459,57.59,454.38,60,453.25Z"/>
    <path class="cls-18"
          d="M110.79,460.8c-.59.15.27,3.89.4,11.14.09,5.43-.39,3.24-.4,9,0,2.53.09,4.25-1.06,5.83-1.36,1.9-3.45,2.2-3.31,2.65s3.6.46,6.89-.4c1.9-.5,3-1.06,3.31-.63s-.78,2.09-2,3.16c-3.23,3-7.33,2.67-7.29,3.16s2.83,1.06,5.56.13c1.47-.5,2.35-1.26,2.53-1.06s-1.31,2.24-3,3.88c-4.62,4.33-9.84,5.76-9.67,6.23s5.52-1.54,6.49,0c.41.63-.11,1.69-.53,2.53-1.26,2.53-3.1,2.73-3.71,4.38-.69,1.86.77,4,1.2,4.64,2,3.24,2.53,9.85,3.58,23.06,1.73,22.37-1.45,38.57-.13,44,.28,1.18,1.35,4.13.13,6.89-.28.63-.54.94-.4,1.33.75,2,10.75.4,10.75.4h0s1.42-.74,1.73-.93c1.66-1,1.12-4.91,1.2-9.41,0-2.47.21-2,.4-5.56.63-12.65,1.9-84.58,2.38-89.88.15-1.59,0-3.2.27-4.77a2.9,2.9,0,0,0,0-1.73c-.52-1.26-2.17-1.35-3.31-1.85s-2.43-1.75-4-7.56c-1.67-6.25-1.9-11.27-2.12-11.27s.56,11.12-.93,11.38S111.74,460.56,110.79,460.8Z"/>
    <path class="cls-18"
          d="M121.66,457.88c-.69.59-.24,1.9.93,6.1,2,7.31,2.43,9.61,2.92,9.54s.27-1.31.63-4.91c.63-6.06,1.42-7.34.4-8.85C125.37,457.93,122.61,457.08,121.66,457.88Z"/>
    <path class="cls-19"
          d="M59.23,606.21c-.67-1.19.09-2.8.53-3.71a7.7,7.7,0,0,1,4-3.71,8.12,8.12,0,0,1,6.23.4c1.32.54,3,1.23,3.58,2.92a4.19,4.19,0,0,1-.4,3.71c-1.19,1.72-3.59,1.72-7.69,1.73C62,607.54,60,607.51,59.23,606.21Z"/>
    <path class="cls-19"
          d="M50.48,606c-.77-1.61.8-3.61,1.2-4.11,1.63-2.08,4-2.48,5.83-2.78,1.66-.28,1.9,0,2,.13.39.59-1,1.53-1.59,3.71-.54,2,.19,2.6-.53,3.58-.93,1.26-3,1.37-4.38,1.06A3.53,3.53,0,0,1,50.48,606Z"/>
    <path class="cls-19"
          d="M42.26,607.27c-.57-.92.52-2.53.8-2.92A6.39,6.39,0,0,1,46.77,602c1.32-.41,3.21-.67,3.45-.13.17.37-.63.75-1.06,2s0,1.59-.27,2.25C48.15,608,43.18,608.75,42.26,607.27Z"/>
    <path class="cls-19"
          d="M116,596.67c-.17,1.66,3.72,4,6.63,3.58.63-.1.77-.27,2.53-.63,2.26-.52,3-.47,3.16-.93.25-.75-1.46-2-2.25-2.53a9,9,0,0,0-3.45-1.73C119.75,593.83,116.12,595.15,116,596.67Z"/>
    <path class="cls-19"
          d="M131.34,599.72c.09.17,1.26-.63,3.45-.8a10.46,10.46,0,0,1,3.16.27c3.57.9,5.18,3.79,5.69,3.45s-.26-2.28-1.46-3.71a6.79,6.79,0,0,0-4.11-2.38C134.27,596,131.21,599.43,131.34,599.72Z"/>
    <path class="cls-19"
          d="M25.43,429.38c.09-.46,1.49-.1,2.38-1.06s.28-1.83.63-3.16c.79-2.76,4.49-3.86,5.3-4.11,1.34-.4,4.51-1,5.3.27.42.69,0,1.63-.8,3.31a11.63,11.63,0,0,1-3.45,4.91,8,8,0,0,1-5.17,1.85C27.37,431.28,25.31,430,25.43,429.38Z"/>
    <path class="cls-19"
          d="M38.16,431.91a16.44,16.44,0,0,1,.4-3.84c.42-1.66.9-3.53,2.25-4,1.62-.54,3.43,1.31,3.58,1.46,1.71,1.78,1.64,4.3,1.59,6.1-.08,2.65,0,4.67-1.59,6.1s-4.54,2-5.83.8C38,438,38,436,38.16,431.91Z"/>
    <path class="cls-19"
          d="M23.71,454.17c-.17-.32-.32-.81.27-3.31a22.27,22.27,0,0,1,1.33-4.38,11.34,11.34,0,0,1,2.12-3.58c.63-.63,2.26-2.42,3.45-2,1.35.48,1.33,3.48,1.33,4.24,0,2.8-1.16,4.72-2.92,7.69-1.32,2.23-2,2.67-2.65,2.78A2.93,2.93,0,0,1,23.71,454.17Z"/>
    <path class="cls-19"
          d="M32.45,454.43c-.63-.4-.49-1.81-.4-2.78a9.69,9.69,0,0,1,.8-2.78c1.55-4,1.9-4.43,2.25-4.77.18-.16,1.76-1.54,2.92-1.06,1.39.58,1.59,3.64.93,5.83C37.8,452.66,33.62,455.2,32.45,454.43Z"/>
    <path class="cls-19"
          d="M18.65,449.4c-.24-1.21,0-2.44,1.06-4.91s1.73-3.91,2.92-4.91,3.16-2.1,4-1.46c1.07.82-.49,4.38-1.06,5.69-.26.59-1.73,4.63-4.38,6.63a1.85,1.85,0,0,1-1.59.53C19,450.76,18.76,449.82,18.65,449.4Z"/>
    <path class="cls-19"
          d="M8.59,429.51A3.1,3.1,0,0,1,8.46,427c.6-1.26,2.21-1.53,3.31-1.73a11.43,11.43,0,0,1,5.06.53c2.49.63,3.73.92,4,1.73.39,1.26-1.57,2.91-2.65,3.58a7.59,7.59,0,0,1-5.3.93C11.91,431.87,9.49,431.44,8.59,429.51Z"/>
    <path class="cls-19"
          d="M205,394.78c-.46-.52-.3-1.5,0-3.45a18,18,0,0,1,1.46-5.06c.84-1.75,1.3-2.71,2.25-2.92,1.47-.33,2.88,1.39,3,1.59,1.9,2.32.92,5.56.8,6a6.15,6.15,0,0,1-2,3C208.87,395.37,206,395.92,205,394.78Z"/>
    <path class="cls-19"
          d="M189.38,403.4c-.27-1.08,1.37-2.33,2.12-2.92a11.2,11.2,0,0,1,6.89-2.12c1.52.06,1.94.42,3.58.27,1.26-.12,2-.42,2.53,0s.34,1.93.27,2.25a6.7,6.7,0,0,1-4.24,4.38c-1.61.63-3,.4-5.83,0S189.68,404.54,189.38,403.4Z"/>
    <path class="cls-19"
          d="M187.54,406.85a5.69,5.69,0,0,1,2.92-.63,33.92,33.92,0,0,1,5.06.27,21.37,21.37,0,0,1,4.91.8,6.32,6.32,0,0,1,2.25,1.06c1.21,1,2.42,2.94,1.85,4-.87,1.62-5.84.63-11.93-.53a11.15,11.15,0,0,1-4.77-1.06c-.73-.38-1.81-1-1.85-1.85C185.9,407.82,187.22,407,187.54,406.85Z"/>
    <path class="cls-19"
          d="M208.62,401c.15-.49,2.76-.09,3.31,0a13.63,13.63,0,0,1,4.24,1.46,10.48,10.48,0,0,1,4,3c.21.29.89,1.2.63,1.46s-1.8-.58-2.65-1.06C212.42,402.64,208.44,401.63,208.62,401Z"/>
    <path class="cls-19"
          d="M208.22,404.2c.29-.46,1.82.07,4.64,1.06,5.15,1.81,6.24,2.86,6.76,3.45,1.14,1.26,2,3.06,1.59,3.45s-1.26-.51-3.45-1.59c-3.79-1.9-5.06-1.48-7.29-3.31C209.27,406.26,207.9,404.72,208.22,404.2Z"/>
    <path class="cls-19"
          d="M208.09,409.9c.3-.52,3.42.79,4.38,1.2a11.33,11.33,0,0,1,4.24,2.53c1.22,1.26,2.42,3.27,2,3.71s-3.22-1.32-5.17-2.65C213.18,414.43,207.66,410.63,208.09,409.9Z"/>
    <path class="cls-20"
          d="M572.72,67.14s.15,14.55,1,19.55c1,6.38,8.78,11.41,11.41,12.29-11.09,1.12-22.52-3.44-24.85-6.56C554.72,85,569.16,65.13,572.72,67.14Z"/>
    <path class="cls-20"
          d="M437.5,40h106A29.5,29.5,0,0,1,573,69.5h0A29.5,29.5,0,0,1,543.5,99h-106A29.5,29.5,0,0,1,408,69.5h0A29.5,29.5,0,0,1,437.5,40Z"/>
    <path class="cls-1"
          d="M443.55,78H440.8a14.14,14.14,0,0,0-5.8-3.64v.44a3.28,3.28,0,0,1-1,2.58,3.53,3.53,0,0,1-2.45.88,3.24,3.24,0,0,1-2.23-.75,2.53,2.53,0,0,1-.85-2,2.84,2.84,0,0,1,1-2.1,4.33,4.33,0,0,1,2.62-1.1V65.79A3.11,3.11,0,0,1,431,66a2.89,2.89,0,0,1-2.1-.87A2.8,2.8,0,0,1,428,63a3,3,0,0,1,3-3,4,4,0,0,1,3,1.13,4.18,4.18,0,0,1,1.11,3v8.2a15.61,15.61,0,0,1,5.59,2.72V60.53h3ZM430.94,64.17a1.17,1.17,0,0,0,.84-.34,1.07,1.07,0,0,0,.35-.8A1.18,1.18,0,0,0,431,61.82h0a1.14,1.14,0,0,0-.84.35,1.18,1.18,0,0,0-.35.87,1.07,1.07,0,0,0,.35.8A1.17,1.17,0,0,0,430.94,64.17Zm1.13,11.11V74.06a2.31,2.31,0,0,0-1.27.53,1.22,1.22,0,0,0-.47.91,1.08,1.08,0,0,0,.23.73.75.75,0,0,0,.59.27q.91,0,.91-1.22Z"/>
    <path class="cls-1"
          d="M448.47,53.7a7.21,7.21,0,0,1-3.1,4.09A9.72,9.72,0,0,1,440,59.31a5.8,5.8,0,0,1-3.55-1,3.11,3.11,0,0,1-1.3-2.62A2.85,2.85,0,0,1,436,53.6a2.88,2.88,0,0,1,2.1-.87,2.81,2.81,0,0,1,2.07.88A2.87,2.87,0,0,1,441,55.7a3,3,0,0,1-.61,2,6.71,6.71,0,0,0,3.91-1.3,4.64,4.64,0,0,0,2.13-2.73Zm-10.39,3.2a1.07,1.07,0,0,0,.8-.35,1.21,1.21,0,0,0,0-1.67,1.07,1.07,0,0,0-.8-.35,1.19,1.19,0,0,0-.89,2h0a1.18,1.18,0,0,0,.87.36Z"/>
    <path class="cls-1"
          d="M462.72,72.53a3,3,0,0,1,.81,4.83,2.83,2.83,0,0,1-2.09.89,2.91,2.91,0,0,1-2.12-.89,2.87,2.87,0,0,1-.9-2.11,1.73,1.73,0,0,1,0-.39A17.76,17.76,0,0,0,454,78h-2.75V65.78a3.11,3.11,0,0,1-1.12.19,2.89,2.89,0,0,1-2.1-.87,2.8,2.8,0,0,1-.88-2.07,3,3,0,0,1,3-3,4,4,0,0,1,3,1.13,4.18,4.18,0,0,1,1.11,3v11a14.18,14.18,0,0,1,5.59-2.86V60.53h3Zm-12.61-8.36a1.17,1.17,0,0,0,.84-.34,1.07,1.07,0,0,0,.35-.8,1.18,1.18,0,0,0-1.15-1.21h0a1.14,1.14,0,0,0-.84.35,1.18,1.18,0,0,0-.35.87,1.07,1.07,0,0,0,.35.8A1.17,1.17,0,0,0,450.11,64.17Zm11.3,12.3a1.14,1.14,0,0,0,.84-.35,1.18,1.18,0,0,0,.35-.87,1.09,1.09,0,0,0-.35-.82,1.17,1.17,0,0,0-.84-.34,1.15,1.15,0,0,0-.84.34,1.1,1.1,0,0,0-.35.81,1.18,1.18,0,0,0,.35.87A1.14,1.14,0,0,0,461.41,76.47Z"/>
    <path class="cls-1"
          d="M471.31,72.53a3.1,3.1,0,0,1,1.13-.19,2.88,2.88,0,0,1,2.09.86,2.81,2.81,0,0,1,.88,2.08,3,3,0,0,1-3,3,4,4,0,0,1-3-1.12,4.17,4.17,0,0,1-1.11-3.06V60.53h2.94Zm1.13,4a1.14,1.14,0,0,0,.84-.35,1.18,1.18,0,0,0,.35-.87,1.1,1.1,0,0,0-.35-.81,1.19,1.19,0,0,0-1.67,0,1.1,1.1,0,0,0-.35.81,1.18,1.18,0,0,0,.35.87,1.14,1.14,0,0,0,.83.32Zm7.19-4a3.1,3.1,0,0,1,1.13-.19,2.88,2.88,0,0,1,2.09.86,2.81,2.81,0,0,1,.88,2.08,3,3,0,0,1-3,3,4,4,0,0,1-3-1.12,4.17,4.17,0,0,1-1.11-3.06V60.53h2.94Zm1.13,4a1.14,1.14,0,0,0,.84-.35,1.18,1.18,0,0,0,.35-.87,1.1,1.1,0,0,0-.35-.81,1.19,1.19,0,0,0-1.67,0,1.1,1.1,0,0,0-.35.81,1.18,1.18,0,0,0,.35.87,1.14,1.14,0,0,0,.82.32Z"/>
    <path class="cls-1"
          d="M504.72,78h-3.48q0-1.5-2.47-8.44Q497.5,66,497.23,65q-.27,1-1.53,4.55-2.47,6.94-2.47,8.44h-3.48V65.78a3.11,3.11,0,0,1-1.12.19,2.89,2.89,0,0,1-2.1-.87,2.8,2.8,0,0,1-.88-2.07,3,3,0,0,1,3-3,4,4,0,0,1,3,1.13,4.18,4.18,0,0,1,1.11,3V73a30.17,30.17,0,0,1,1.56-5q2.31-6.36,2.31-7.7H498q0,1.33,2.25,7.53a30.16,30.16,0,0,1,1.6,5.17V60.53h2.94ZM488.63,64.17a1.17,1.17,0,0,0,.84-.34,1.07,1.07,0,0,0,.35-.8,1.18,1.18,0,0,0-1.15-1.21h0a1.14,1.14,0,0,0-.84.35,1.18,1.18,0,0,0-.35.87,1.07,1.07,0,0,0,.35.8A1.17,1.17,0,0,0,488.63,64.17Z"/>
    <path class="cls-1"
          d="M520.47,72.91a6.26,6.26,0,0,1-1.23,4.17,4.14,4.14,0,0,1-3.32,1.44,4.19,4.19,0,0,1-2.48-.8,6.74,6.74,0,0,1-2-2.7l-3.62-7.58h3.06Q513.71,73.36,514,74a5.85,5.85,0,0,0,.8,1.19,1.47,1.47,0,0,0,1.13.59q1.59,0,1.59-2.83V65.82a3.06,3.06,0,0,1-1.11.19,2.89,2.89,0,0,1-2.11-.87,2.81,2.81,0,0,1-.87-2.07,3,3,0,0,1,3-3h0a4,4,0,0,1,3,1.13,4.18,4.18,0,0,1,1.11,3Zm-4.09-8.7a1.15,1.15,0,0,0,.82-.34,1.07,1.07,0,0,0,.35-.8,1.19,1.19,0,0,0-.34-.87,1.17,1.17,0,0,0-1.65,0l0,0a1.19,1.19,0,0,0-.34.87,1.07,1.07,0,0,0,.35.8,1.17,1.17,0,0,0,.83.33Z"/>
    <path class="cls-1"
          d="M538.27,78h-3.11a27.33,27.33,0,0,0-1.28-3.32,21.72,21.72,0,0,0-1.59-2.85,3,3,0,0,1-2.53,1.44,2.87,2.87,0,0,1-2.09-.87,2.83,2.83,0,0,1-.87-2.09,3,3,0,0,1,3-3,4.13,4.13,0,0,1,3.09,1.37A14,14,0,0,1,535.4,73V67.13a4.78,4.78,0,0,0-1.09-3.37,4,4,0,0,0-3.09-1.18,11.13,11.13,0,0,0-6.3,2.08h-.2v-3.3A17.41,17.41,0,0,1,531.16,60a6.41,6.41,0,0,1,7.17,7.11Zm-8.52-6.53a1.17,1.17,0,0,0,.84-.34,1.09,1.09,0,0,0,.35-.82,1.19,1.19,0,0,0-2-.87h0a1.16,1.16,0,0,0-.35.85,1.09,1.09,0,0,0,.35.82A1.17,1.17,0,0,0,529.75,71.47Z"/>
    <path class="cls-1"
          d="M543.19,53.7a7.21,7.21,0,0,1-3.1,4.09,9.72,9.72,0,0,1-5.41,1.52,5.8,5.8,0,0,1-3.55-1,3.11,3.11,0,0,1-1.3-2.62,2.85,2.85,0,0,1,.88-2.09,2.88,2.88,0,0,1,2.1-.87,2.81,2.81,0,0,1,2.07.88,2.87,2.87,0,0,1,.87,2.09,3,3,0,0,1-.61,2,6.71,6.71,0,0,0,3.91-1.3,4.64,4.64,0,0,0,2.13-2.73ZM532.8,56.9a1.07,1.07,0,0,0,.8-.35,1.21,1.21,0,0,0,0-1.67,1.07,1.07,0,0,0-.8-.35,1.19,1.19,0,0,0-.89,2h0a1.18,1.18,0,0,0,.87.36Z"/>
    <path class="cls-1"
          d="M554,72.91a6.26,6.26,0,0,1-1.23,4.17,4.14,4.14,0,0,1-3.32,1.44,4.19,4.19,0,0,1-2.48-.8,6.74,6.74,0,0,1-2-2.7l-3.62-7.58h3.06q2.83,5.92,3.13,6.52a5.85,5.85,0,0,0,.8,1.19,1.47,1.47,0,0,0,1.13.59q1.59,0,1.59-2.83V65.82A3.06,3.06,0,0,1,550,66a2.89,2.89,0,0,1-2.11-.87,2.81,2.81,0,0,1-.87-2.07,3,3,0,0,1,3-3h0a4,4,0,0,1,3,1.13,4.18,4.18,0,0,1,1.11,3Zm-4.09-8.7a1.15,1.15,0,0,0,.82-.34,1.07,1.07,0,0,0,.35-.8,1.19,1.19,0,0,0-.34-.87,1.17,1.17,0,0,0-1.65,0l0,0a1.19,1.19,0,0,0-.34.87,1.07,1.07,0,0,0,.35.8,1.17,1.17,0,0,0,.84.33Z"/>
    <path class="cls-21"
          d="M46.16,167.14s-.15,14.55-1,19.55c-1,6.38-8.78,11.41-11.41,12.29,11.09,1.12,22.52-3.44,24.85-6.56C64.16,185,49.72,165.13,46.16,167.14Z"/>
    <path class="cls-21"
          d="M374.5,199H75.38a29.5,29.5,0,0,1-29.5-29.5h0A29.5,29.5,0,0,1,75.38,140H374.5A29.5,29.5,0,0,1,404,169.5h0A29.5,29.5,0,0,1,374.5,199Z"/>
    <path class="cls-1"
          d="M83.55,179H80.8a14.15,14.15,0,0,0-5.8-3.64v.44a3.28,3.28,0,0,1-1,2.58,3.53,3.53,0,0,1-2.45.88,3.24,3.24,0,0,1-2.23-.75,2.53,2.53,0,0,1-.85-2,2.85,2.85,0,0,1,1-2.1,4.34,4.34,0,0,1,2.62-1.1v-6.52A3.11,3.11,0,0,1,71,167a2.9,2.9,0,0,1-2.1-.87A2.8,2.8,0,0,1,68,164a3,3,0,0,1,3-3,4,4,0,0,1,3,1.13,4.18,4.18,0,0,1,1.11,3v8.2a15.61,15.61,0,0,1,5.59,2.72V161.53h3ZM70.94,165.17a1.17,1.17,0,0,0,.84-.34,1.07,1.07,0,0,0,.35-.8A1.18,1.18,0,0,0,71,162.82h0a1.14,1.14,0,0,0-.84.35,1.18,1.18,0,0,0-.35.87,1.07,1.07,0,0,0,.35.8A1.17,1.17,0,0,0,70.94,165.17Zm1.13,11.11v-1.22a2.31,2.31,0,0,0-1.27.53,1.22,1.22,0,0,0-.47.91,1.08,1.08,0,0,0,.23.73.75.75,0,0,0,.59.27q.91,0,.91-1.22Z"/>
    <path class="cls-1"
          d="M99.06,179H96.12V167.8a4.47,4.47,0,0,0-1-3.09,3.38,3.38,0,0,0-2.65-1.07,10.37,10.37,0,0,0-5.28,1.59H87v-3.09a15.22,15.22,0,0,1,5.48-1.06q6.55,0,6.55,6.53Z"/>
    <path class="cls-1"
          d="M118.78,179h-3q-2.78-5.28-3.62-6.65a8.42,8.42,0,0,0-1.75-2.11,2.81,2.81,0,0,0-1.75-.74,1.72,1.72,0,0,0-1.32.55,2,2,0,0,0-.51,1.41v2.08a3.06,3.06,0,0,1,1.11-.19,2.9,2.9,0,0,1,2.11.86,2.81,2.81,0,0,1,.88,2.08,2.84,2.84,0,0,1-.88,2.09,2.88,2.88,0,0,1-2.1.88,4,4,0,0,1-3-1.12,4.17,4.17,0,0,1-1.11-3.06v-3.55A4.73,4.73,0,0,1,105,168a4.55,4.55,0,0,1,3.37-1.21,4.42,4.42,0,0,1,2.73,1,8.23,8.23,0,0,1,2,2.13q.74,1.17,2.6,4.8v-6.53a4.19,4.19,0,0,0-4.52-4.55,11.28,11.28,0,0,0-6.33,2.08h-.16v-3.3a17.44,17.44,0,0,1,6.45-1.34,7.65,7.65,0,0,1,5.55,1.89,6.94,6.94,0,0,1,2,5.22ZM108,177.5a1.14,1.14,0,0,0,.84-.35,1.19,1.19,0,0,0,.34-.87,1.1,1.1,0,0,0-.35-.81,1.16,1.16,0,0,0-.84-.34,1.14,1.14,0,0,0-.82.34,1.1,1.1,0,0,0-.35.81,1.19,1.19,0,0,0,.34.87A1.12,1.12,0,0,0,108,177.5Z"/>
    <path class="cls-1"
          d="M137.83,179H124v-6.81a4.19,4.19,0,0,1,1.11-3.08,4,4,0,0,1,3-1.12,2.85,2.85,0,0,1,2.09.88,2.88,2.88,0,0,1,.88,2.1,2.81,2.81,0,0,1-.87,2.08,2.88,2.88,0,0,1-2.09.86,3.1,3.1,0,0,1-1.12-.19v2.5h7.91v-8.06a4.5,4.5,0,0,0-1.21-3.34,4.44,4.44,0,0,0-3.27-1.2,11.19,11.19,0,0,0-6.3,2.08h-.19v-3.3a17.37,17.37,0,0,1,6.42-1.34,7.66,7.66,0,0,1,5.56,1.88,7,7,0,0,1,1.94,5.23Zm-9.73-6.87a1.15,1.15,0,0,0,.84-.34,1.1,1.1,0,0,0,.35-.81,1.19,1.19,0,0,0-2-.89h0a1.18,1.18,0,0,0-.35.87,1.1,1.1,0,0,0,.35.81,1.15,1.15,0,0,0,.82.34Z"/>
    <path class="cls-1"
          d="M153.58,173.91a6.26,6.26,0,0,1-1.23,4.17,4.14,4.14,0,0,1-3.32,1.44,4.19,4.19,0,0,1-2.48-.8,6.74,6.74,0,0,1-2-2.7l-3.62-7.58H144q2.83,5.92,3.13,6.52a5.86,5.86,0,0,0,.8,1.19,1.47,1.47,0,0,0,1.13.59q1.59,0,1.59-2.83v-7.09a3.06,3.06,0,0,1-1.11.19,2.89,2.89,0,0,1-2.11-.87,2.81,2.81,0,0,1-.87-2.07,3,3,0,0,1,3-3,4,4,0,0,1,3,1.13,4.18,4.18,0,0,1,1.11,3Zm-4.09-8.7a1.15,1.15,0,0,0,.82-.34,1.07,1.07,0,0,0,.35-.8,1.19,1.19,0,0,0-.34-.87,1.17,1.17,0,0,0-1.65,0l0,0a1.19,1.19,0,0,0-.34.87,1.07,1.07,0,0,0,.35.8,1.17,1.17,0,0,0,.82.33Z"/>
    <path class="cls-1"
          d="M161.77,173.53a3.1,3.1,0,0,1,1.13-.19,2.89,2.89,0,0,1,2.09.86,2.81,2.81,0,0,1,.88,2.08,3,3,0,0,1-3,3,4,4,0,0,1-3-1.12,4.17,4.17,0,0,1-1.11-3.06V161.53h2.94Zm1.13,4a1.14,1.14,0,0,0,.84-.35,1.18,1.18,0,0,0,.35-.87,1.1,1.1,0,0,0-.35-.81,1.19,1.19,0,0,0-1.67,0,1.1,1.1,0,0,0-.35.81,1.18,1.18,0,0,0,.35.87,1.14,1.14,0,0,0,.82.32Z"/>
    <path class="cls-1"
          d="M184.36,179H169.64v-2.78h2.56v-9.44a3.11,3.11,0,0,1-1.12.19,2.87,2.87,0,0,1-2.09-.87,2.81,2.81,0,0,1-.87-2.07,3,3,0,0,1,3-3,3.94,3.94,0,0,1,3,1.13,4.2,4.2,0,0,1,1.1,3v11h6.28v-23h2.94Zm-13.28-13.83a1.17,1.17,0,0,0,.84-.34,1.07,1.07,0,0,0,.35-.8,1.19,1.19,0,0,0-.34-.87,1.14,1.14,0,0,0-.84-.35,1.12,1.12,0,0,0-.83.35,1.19,1.19,0,0,0-.34.87,1.08,1.08,0,0,0,.34.8A1.14,1.14,0,0,0,171.08,165.17Z"/>
    <path class="cls-1"
          d="M200.08,163.7a14.55,14.55,0,0,1-2.89.28l-3.48-.16a4.84,4.84,0,0,0-2.43.51,1.47,1.47,0,0,0-.87,1.26,8.33,8.33,0,0,1,1.44-.09q3.44,0,4.76,1.42t1.32,4.75v3.39a4.19,4.19,0,0,1-1.1,3.06,4,4,0,0,1-3,1.13,3,3,0,0,1-3-3,2.81,2.81,0,0,1,.88-2.08,2.88,2.88,0,0,1,2.09-.86,3.11,3.11,0,0,1,1.13.19v-1.86a4.93,4.93,0,0,0-.75-3.06,2.88,2.88,0,0,0-2.39-.94,14.88,14.88,0,0,0-1.53.09q-.86.09-1.48.2l-1.11.2h-.09V167a6.15,6.15,0,0,1,1.36-4.25q1.36-1.51,4.72-1.52l3.48.14a7.1,7.1,0,0,0,1.45-.16l1.3-.3H200Zm-6.22,13.8a1.14,1.14,0,0,0,.84-.35,1.19,1.19,0,0,0,.34-.87,1.09,1.09,0,0,0-.35-.82,1.17,1.17,0,0,0-.84-.34,1.13,1.13,0,0,0-.83.34,1.11,1.11,0,0,0-.34.81,1.19,1.19,0,0,0,.34.87A1.12,1.12,0,0,0,193.86,177.5Z"/>
    <path class="cls-1"
          d="M197,160.06H184.22a11.41,11.41,0,0,1,1.13-2.62,5.92,5.92,0,0,1,1.4-1.45,6.5,6.5,0,0,1,3.88-1.3,6.15,6.15,0,0,1,4.61,2V153.3H197Zm-2.52-1.73A2.86,2.86,0,0,0,193,157a5.69,5.69,0,0,0-4.77,0,2.78,2.78,0,0,0-1.45,1.37Z"/>
    <path class="cls-1"
          d="M216.66,179H203.34v-5a2.81,2.81,0,0,1,1.59-2.52,2.85,2.85,0,0,1-1.56-2.56v-3.66a4.18,4.18,0,0,1,1.11-3,4,4,0,0,1,3-1.13,3,3,0,0,1,3,3,2.81,2.81,0,0,1-.87,2.08,2.9,2.9,0,0,1-2.11.86,3.1,3.1,0,0,1-1.12-.19v2a1.47,1.47,0,0,0,1.67,1.66h.61v1.92H208q-1.67,0-1.67,1.56v2.25h7.39V161.53h3Zm-9.22-13.83a1.17,1.17,0,0,0,.84-.34,1.07,1.07,0,0,0,.35-.8,1.18,1.18,0,0,0-1.15-1.21h0a1.14,1.14,0,0,0-.84.35,1.18,1.18,0,0,0-.35.87,1.07,1.07,0,0,0,.35.8A1.17,1.17,0,0,0,207.44,165.17Z"/>
    <path class="cls-1"
          d="M236.78,179H222.06v-2.78h2.56v-9.44a3.11,3.11,0,0,1-1.12.19,2.87,2.87,0,0,1-2.09-.87,2.81,2.81,0,0,1-.87-2.07,3,3,0,0,1,3-3,3.94,3.94,0,0,1,3,1.13,4.2,4.2,0,0,1,1.1,3v11h6.28V161.53h2.94ZM223.5,165.17a1.17,1.17,0,0,0,.84-.34,1.07,1.07,0,0,0,.35-.8,1.19,1.19,0,0,0-.34-.87,1.14,1.14,0,0,0-.84-.35,1.11,1.11,0,0,0-.83.35,1.19,1.19,0,0,0-.34.87,1.08,1.08,0,0,0,.34.8A1.14,1.14,0,0,0,223.5,165.17Z"/>
    <path class="cls-1"
          d="M245,173.53a3.1,3.1,0,0,1,1.13-.19,2.89,2.89,0,0,1,2.09.86,2.81,2.81,0,0,1,.88,2.08,3,3,0,0,1-3,3,4,4,0,0,1-3-1.12,4.17,4.17,0,0,1-1.1-3.06V161.53h3Zm1.13,4a1.14,1.14,0,0,0,.84-.35,1.18,1.18,0,0,0,.35-.87,1.1,1.1,0,0,0-.35-.81,1.19,1.19,0,0,0-1.67,0,1.1,1.1,0,0,0-.35.81,1.18,1.18,0,0,0,.35.87,1.14,1.14,0,0,0,.79.32Z"/>
    <path class="cls-1"
          d="M270.31,179h-2.94V165.75q0-2-1.16-2-1,0-2.43,3.38T259.5,179h-4.09V166.78a3.11,3.11,0,0,1-1.12.19,2.87,2.87,0,0,1-2.09-.87,2.81,2.81,0,0,1-.87-2.07,3,3,0,0,1,3-3,3.94,3.94,0,0,1,3,1.13,4.2,4.2,0,0,1,1.1,3v11q2.26-6.64,3-8.68a26.89,26.89,0,0,1,1.63-3.65,6.75,6.75,0,0,1,1.76-2.24,3.35,3.35,0,0,1,2-.63,3.09,3.09,0,0,1,2.6,1.24,5.49,5.49,0,0,1,1,3.4Zm-16-13.83a1.17,1.17,0,0,0,.84-.34,1.07,1.07,0,0,0,.35-.8,1.19,1.19,0,0,0-.34-.87,1.14,1.14,0,0,0-.84-.35,1.11,1.11,0,0,0-.83.35,1.19,1.19,0,0,0-.34.87,1.08,1.08,0,0,0,.34.8,1.14,1.14,0,0,0,.79.34Z"/>
    <path class="cls-1"
          d="M269.2,160.06H256.44a11.46,11.46,0,0,1,1.13-2.62A5.92,5.92,0,0,1,259,156a6.5,6.5,0,0,1,3.88-1.3,6.15,6.15,0,0,1,4.61,2v-3.4h1.75Zm-2.52-1.73a2.86,2.86,0,0,0-1.47-1.37,5.69,5.69,0,0,0-4.77,0,2.79,2.79,0,0,0-1.45,1.37Z"/>
    <path class="cls-1"
          d="M288.88,179H275.56v-5a2.81,2.81,0,0,1,1.59-2.52,2.85,2.85,0,0,1-1.56-2.56v-3.66a4.18,4.18,0,0,1,1.11-3,4,4,0,0,1,3-1.13,3,3,0,0,1,3,3,2.81,2.81,0,0,1-.87,2.08,2.9,2.9,0,0,1-2.11.86,3.1,3.1,0,0,1-1.12-.19v2a1.47,1.47,0,0,0,1.67,1.66h.61v1.92h-.61q-1.67,0-1.67,1.56v2.25H286V161.53h3Zm-9.22-13.83a1.17,1.17,0,0,0,.84-.34,1.07,1.07,0,0,0,.35-.8,1.18,1.18,0,0,0-1.15-1.21h0a1.14,1.14,0,0,0-.84.35,1.18,1.18,0,0,0-.35.87,1.07,1.07,0,0,0,.35.8A1.17,1.17,0,0,0,279.66,165.17Z"/>
    <path class="cls-1"
          d="M309,179H294.28v-2.78h2.56v-9.44a3.11,3.11,0,0,1-1.12.19,2.87,2.87,0,0,1-2.09-.87,2.81,2.81,0,0,1-.87-2.07,3,3,0,0,1,3-3,3.94,3.94,0,0,1,3,1.13,4.2,4.2,0,0,1,1.1,3v11h6.28V161.53H309Zm-13.28-13.83a1.17,1.17,0,0,0,.84-.34,1.07,1.07,0,0,0,.35-.8,1.19,1.19,0,0,0-.34-.87,1.14,1.14,0,0,0-.84-.35,1.11,1.11,0,0,0-.83.35,1.19,1.19,0,0,0-.34.87,1.08,1.08,0,0,0,.34.8A1.14,1.14,0,0,0,295.72,165.17Z"/>
    <path class="cls-1"
          d="M328.69,179h-3V168.92q0-5.09-4.61-5.09a4.4,4.4,0,0,0-3.41,1.3,4.9,4.9,0,0,0-1.2,3.46,16.5,16.5,0,0,0,.7,4.39,30.38,30.38,0,0,1,.55,3.2l1.66-1.59a4.74,4.74,0,0,0,1.09-1.45,3.06,3.06,0,0,1-1.71-1.07,2.89,2.89,0,0,1-.62-1.84,2.86,2.86,0,0,1,.86-2.09,2.82,2.82,0,0,1,2.08-.87,2.77,2.77,0,0,1,2.11.9,3.15,3.15,0,0,1,.84,2.24,6.24,6.24,0,0,1-1,3.13,18.59,18.59,0,0,1-3.85,4.13q-.84.72-1.42,1.31h-2.94v-1.34a22.72,22.72,0,0,0-.59-4.12,25.51,25.51,0,0,1-.69-4.91,7.74,7.74,0,0,1,2-5.48,7.23,7.23,0,0,1,5.57-2.09q7.56,0,7.56,7.88Zm-7.5-7.58a1.15,1.15,0,0,0,.84-.34,1.1,1.1,0,0,0,.35-.81,1.19,1.19,0,0,0-.34-.87,1.14,1.14,0,0,0-.84-.35,1.11,1.11,0,0,0-.83.35,1.19,1.19,0,0,0-.34.87,1.11,1.11,0,0,0,.34.81A1.13,1.13,0,0,0,321.19,171.42Z"/>
    <path class="cls-1"
          d="M328.38,183.48a1.74,1.74,0,0,1-2,2H322v-1.86a1.93,1.93,0,0,1-1.38-.55,1.72,1.72,0,0,1-.57-1.28,1.77,1.77,0,0,1,.52-1.3,1.73,1.73,0,0,1,1.27-.52,1.82,1.82,0,0,1,1.3.53,1.72,1.72,0,0,1,.55,1.3v2H326q.64,0,.64-.67V180h1.67Zm-6.56-1.16a.53.53,0,0,0,.38-.16.51.51,0,0,0,.17-.38.54.54,0,1,0-.55.55Z"/>
    <path class="cls-1"
          d="M348.38,179h-3V168.92q0-5.09-4.61-5.09a4.4,4.4,0,0,0-3.41,1.3,4.9,4.9,0,0,0-1.2,3.46,15.89,15.89,0,0,0,.7,4.39,13.09,13.09,0,0,1,1.44-4,2.85,2.85,0,0,1,2.56-1.55,2.88,2.88,0,0,1,2.1.88,2.92,2.92,0,0,1,.05,4.13h0l0,.05a2.89,2.89,0,0,1-2.11.87,2.65,2.65,0,0,1-1.44-.39q-2,2-2,6h-2.94v-1.34a22.72,22.72,0,0,0-.59-4.12,25.51,25.51,0,0,1-.69-4.91,7.74,7.74,0,0,1,2-5.48,7.23,7.23,0,0,1,5.57-2.09q7.56,0,7.56,7.88Zm-7.44-7.39a1.15,1.15,0,0,0,.84-.34,1.1,1.1,0,0,0,.35-.81,1.19,1.19,0,0,0-.34-.87,1.14,1.14,0,0,0-.84-.35,1.11,1.11,0,0,0-.83.35,1.19,1.19,0,0,0-.34.87,1.1,1.1,0,0,0,.35.81A1.14,1.14,0,0,0,340.94,171.61Z"/>
    <path class="cls-1"
          d="M364.09,163.7a14.55,14.55,0,0,1-2.89.28l-3.48-.16a4.84,4.84,0,0,0-2.43.51,1.47,1.47,0,0,0-.87,1.26,8.33,8.33,0,0,1,1.44-.09q3.44,0,4.76,1.42t1.32,4.75v3.39a4.19,4.19,0,0,1-1.1,3.06,4,4,0,0,1-3,1.13,3,3,0,0,1-3-3,2.8,2.8,0,0,1,.88-2.08,2.88,2.88,0,0,1,2.09-.86,3.11,3.11,0,0,1,1.13.19v-1.86a4.93,4.93,0,0,0-.75-3.06,2.88,2.88,0,0,0-2.39-.94,14.88,14.88,0,0,0-1.53.09q-.86.09-1.48.2l-1.11.2h-.09V167a6.15,6.15,0,0,1,1.36-4.25q1.36-1.51,4.72-1.52l3.48.14a7.1,7.1,0,0,0,1.45-.16l1.3-.3h.1Zm-6.22,13.8a1.14,1.14,0,0,0,.84-.35,1.19,1.19,0,0,0,.34-.87,1.09,1.09,0,0,0-.35-.82,1.17,1.17,0,0,0-.84-.34,1.13,1.13,0,0,0-.83.34,1.11,1.11,0,0,0-.34.81,1.19,1.19,0,0,0,.34.87,1.11,1.11,0,0,0,.85.36Z"/>
    <path class="cls-1"
          d="M367,154.7a7.2,7.2,0,0,1-3.1,4.09,9.72,9.72,0,0,1-5.41,1.52,5.8,5.8,0,0,1-3.55-1,3.1,3.1,0,0,1-1.3-2.62,2.85,2.85,0,0,1,.88-2.09,2.88,2.88,0,0,1,2.1-.87,2.81,2.81,0,0,1,2.07.88,2.87,2.87,0,0,1,.87,2.09,3,3,0,0,1-.61,2,6.71,6.71,0,0,0,3.91-1.3,4.64,4.64,0,0,0,2.14-2.7Zm-10.39,3.2a1.07,1.07,0,0,0,.8-.35,1.21,1.21,0,0,0,0-1.67,1.07,1.07,0,0,0-.8-.35,1.19,1.19,0,0,0-.89,2h0a1.18,1.18,0,0,0,.9.36Z"/>
    <path class="cls-1"
          d="M382.27,179H367.55v-2.78h2.56v-9.44A3.11,3.11,0,0,1,369,167a2.87,2.87,0,0,1-2.09-.87A2.81,2.81,0,0,1,366,164a3,3,0,0,1,3-3,3.94,3.94,0,0,1,3,1.13,4.2,4.2,0,0,1,1.1,3v11h6.28v-14.6h2.94ZM369,165.17a1.17,1.17,0,0,0,.84-.34,1.07,1.07,0,0,0,.35-.8,1.19,1.19,0,0,0-.34-.87,1.14,1.14,0,0,0-.84-.35,1.11,1.11,0,0,0-.83.35,1.19,1.19,0,0,0-.34.87,1.08,1.08,0,0,0,.34.8A1.14,1.14,0,0,0,369,165.17Z"/>
    <path class="cls-9"
          d="M528.5,593.95a19.64,19.64,0,0,1-.84,3.88,13.49,13.49,0,0,1-2.36,3.88c-3.17,3.77-6.29,4.24-6.11,5.28.22,1.28,5,.13,10.69,2.63,4.42,1.94,4.26,3.81,7.36,4.31,5.46.9,10.48-4.21,11.8-5.55,1.65-1.66,2.63-3.37,4.58-6.8,2.94-5.13,4.41-7.72,3.6-9.58-1.15-2.7-5.78-2.93-10.27-3.19C540,588.41,529.73,589.58,528.5,593.95Z"/>
    <path class="cls-9"
          d="M510.17,592.45c.33.9.45,1.33,1.53,6.53.53,2.59.6,5.3,1.53,7.77a3.72,3.72,0,0,1,.41,2.5c-.1.31-.57,1.58-3.88,2.63a17.63,17.63,0,0,1-6,.84c-4.06-.22-8.15.09-12.21-.13-4.69-.26-4.24.07-13.74,0-12.79-.1-8.91-.45-9.3-.41A4.18,4.18,0,0,1,467,612a4.69,4.69,0,0,1-2.36-1.66,5.58,5.58,0,0,1-1-4,6.48,6.48,0,0,1,1.53-3.47,6.82,6.82,0,0,1,3.88-2.36,7.54,7.54,0,0,1,3.88.41c1.26.45,1.53.9,2.5,1a4.75,4.75,0,0,0,2.91-1c5.68-3.51,5.22-2.9,6-3.6,2.79-2.7,1.92-4.29,4.58-6.94a13.77,13.77,0,0,1,5-3.06c3.42-1.36,10.33-2.83,13.88.69C508.86,589,509.31,590.18,510.17,592.45Z"/>
    <path class="cls-22"
          d="M491.58,458.32a76.89,76.89,0,0,0,.69,7.77c.44,3.17.68,4.78,1.38,6.38,1.71,3.88,5.21,5.8,6.94,6.8,12.37,7.14,11.47,11.41,19.58,14.16,9.65,3.27,23.9,1.59,32.07-8.09a27.23,27.23,0,0,0,6.11-17.9c-.09-2.74-.85-13.17-8.19-18.18-5.05-3.44-8.35-1-21.24-1.25-19.06-.36-26.49-6-32.63-.84C494.49,448.73,492.13,451.74,491.58,458.32Z"/>
    <path class="cls-22"
          d="M510.59,483.45c-2.63-2.57-2.57-3-4.72-5.13,0,0-4.58-4.63-9-6.11a8.62,8.62,0,0,0-3.88-.13,1.38,1.38,0,0,0-.84.41,1.26,1.26,0,0,0-.28,1,2.07,2.07,0,0,0,.56,1l-.84.28a2.76,2.76,0,0,0-1.53,1.11,2.23,2.23,0,0,0-.13,1.53c.18,1,.9,2.18,1.66,2.22.21,0,.4-.05.41,0s-.63.36-1.11.69a4.08,4.08,0,0,0-1.38,1.94,123.7,123.7,0,0,0-6.38,18.88c-3.17,14.09-3.37,13.54-3.88,17.36a104.7,104.7,0,0,1-1.66,10.41c-.42,1.92-.76,3.08-1.11,5.28a62.84,62.84,0,0,0-.69,7.63c0,2.2,0,5.67,1.66,14.71,1.49,8.33,2.7,12.46,3.19,19.58a22.74,22.74,0,0,1,0,5.55c-.85,5.15-3.79,8.09-2.5,10a3.12,3.12,0,0,0,1.94,1.11A58.25,58.25,0,0,0,492,594.92c5.48.24,8.22.37,11.24.28,9.37-.28,10-1.57,12.08-1.38.18,0,.84.08,1.11-.28.4-.51-.22-1.58-.41-1.94-.05-.11-.68-2.43-1.94-7.08a55.1,55.1,0,0,1-1.11-7.08c-.41-3.36-.49-4.75-1-10-.31-3.45-.58-5.91-1.11-10.79-.62-5.72-.83-7.19-1.66-9.3-1-2.54-1.71-2.86-1.94-4.58-.46-3.31,1.54-6.1,3.33-8.61,2.83-4,5.4-8.09,8.47-11.94,8.9-11.09,11.74-27.28,7.5-30.57"/>
    <path class="cls-22"
          d="M516.14,477.9c-1.92,5.54-2.13,9.89-2.5,18.33a191.44,191.44,0,0,0,.56,22.9c.69,10.17,1,14.33,1.8,18.88.69,3.7,1.52,6.94,2.09,9.16,1.47,5.8,2.17,7.44,4.16,14.16,0,0,4,13.49,4.72,24.71.13,2.15.22,3.6-.56,5.28-.59,1.27-1.34,1.89-1.11,2.63.37,1.22,2.94,1.45,3.88,1.53,10.31.84,20.51.22,28.46.28,3.48,0,3.79.16,4.44-.28,2.36-6.8-4.7-40.47-6.25-45a30.34,30.34,0,0,1-1.66-7.77,32.24,32.24,0,0,1,1.38-11.8c4.87-17.81,7.3-26.71,7.77-28,1.71-4.8,3.33-8.88,4.31-15.29a61,61,0,0,0,.69-8.19c.08-6.6-1.75-12.91-5.4-25.26-1.31-4.42-1.8-5.82-3.33-6.8-3.92-2.55-10.2.54-13.88,2.36"/>
    <path class="cls-22" d="M532.25,459c-5.53,3.64-5.55,3.14-7.5,4.86"/>
    <path class="cls-23"
          d="M488.65,452.91c0,.09,0,.07,1.11,4,.57,2.06.85,3.11.56,3.88a1.8,1.8,0,0,0-.13,1.25,1.61,1.61,0,0,0,.84.84,3.65,3.65,0,0,0,2.78-.13c2.12-.84,4.5-.8,6.66-1.53.74-.24,3.78-.9,9.89-2.09,5.17-1,5.51-1,13.18-2.5,10.25-2,10.15-2.07,13.33-2.5,4.54-.62,4.82-.4,11.11-1.25,2.05-.28,4.65-.66,7.91-1s4.89-.48,5.13-.41a4.21,4.21,0,0,0,2.36-.13c.51-.2.65-.4.69-.56.13-.49-.51-1.07-.69-1.25-1.46-1.41-1.12-4.65-1.25-5.28C561,438.76,488.11,446.82,488.65,452.91Z"/>
    <path class="cls-24"
          d="M500.6,450.82c-.23.49,0,.72.69,4.16.05.29.27,1.25.69,3.19.36,1.63.55,2.45,1.11,2.91a3,3,0,0,0,1.94.56c2.84.07,4.27-.65,7.5-1.25,2.46-.47,3.52-.4,4.31-1.38a3.73,3.73,0,0,0,.69-2.09c.22-2.11.58-5.4-1.25-7.19-.65-.64-1.3-.82-10.13-.28C502.67,449.65,501.1,449.79,500.6,450.82Z"/>
    <path class="cls-23"
          d="M503.51,451.66c-.24.61.32.79.56,3.06a5.4,5.4,0,0,0,.56,2.5,3,3,0,0,0,.84,1c.72.51,1.43.37,4.16,0,2.19-.3,2.7-.33,3.19-.84a3.22,3.22,0,0,0,.84-1.66,5,5,0,0,0-.56-3.6C511.14,449,504.28,449.7,503.51,451.66Z"/>
    <path class="cls-22"
          d="M492.68,474.28a16.09,16.09,0,0,1,3.19.56,16.31,16.31,0,0,1,3.88,1.66,16.51,16.51,0,0,1,3.88,3.19"/>
    <path class="cls-22"
          d="M492.27,479.42a10.09,10.09,0,0,1,2.09-.41,11.62,11.62,0,0,1,5.13.84,24.49,24.49,0,0,1,7.08,4"/>
    <path class="cls-22"
          d="M527.39,457.63a18.61,18.61,0,0,0-2.91,2.36,20,20,0,0,0-3.88,5.55A23.39,23.39,0,0,0,519.2,469"/>
    <path class="cls-22"
          d="M505.45,462.49c.11.85.29,2.1.56,3.6a57.48,57.48,0,0,0,1.66,7.19,25.84,25.84,0,0,0,1.38,3.75,21.05,21.05,0,0,0,1.8,3.06"/>
    <path class="cls-22"
          d="M513.55,461.24v4.44c.05,3.26.18,3.47.13,5.55a28.41,28.41,0,0,1-.69,6.38c-.2.81-.4,1.47-.56,1.94"/>
    <path class="cls-11" d="M542,455.41a17.32,17.32,0,0,0,6.8,3.75"/>
    <path class="cls-11" d="M544.6,456.1c.48.19,1,.38,1.53.56a23.81,23.81,0,0,0,2.63.69"/>
    <path class="cls-22"
          d="M551.4,456.24a46.44,46.44,0,0,1,2.5,7.19,51.71,51.71,0,0,1,1.38,8.88c.12,1.69.13,3.12.13,4.16"/>
    <path class="cls-22"
          d="M555.29,482.34c-.29,2.62-.82,7.08-1.66,12.59-1.57,10.31-2.79,14.79-4.31,24.71-.48,3.09-1.17,7.95-1.8,14"/>
    <path class="cls-22"
          d="M550,541.19c-1,2.09-1,2.76-.84,2.91s.94-.5,1.25-.28-.22,1.11-.28,2.36a5.52,5.52,0,0,0,.41,2.22c.71,2.12,1.72,9,3.06,18.18,1.45,9.89,1.65,14,1.66,16.24,0,2.85-.13,5.69-.13,5.69-.11,1.8-.26,3.47-.41,4.86"/>
    <path class="cls-22" d="M503.65,550.63c.47,2.7.9,5.5,1.25,8.47.4,3.35.67,6.55.84,9.58"/>
    <path class="cls-22" d="M506,573.56c.22,2.19.35,4.2.41,6,.09,2.44.06,4.39,0,8.19,0,2.19-.08,4.19-.13,6"/>
    <path class="cls-22"
          d="M503.23,545.22a15.6,15.6,0,0,1,.41-4.16,16.19,16.19,0,0,1,1.66-4.16s.09-.16,4.72-9.58c.9-1.8,2.14-4.5,3.47-7.91"/>
    <path class="cls-9"
          d="M472.28,606.57c-.46-.68-.31-1.61,0-3.47a8.63,8.63,0,0,1,1.53-4.16,8,8,0,0,1,4.72-2.78,10.16,10.16,0,0,1,5.28.28c.65.18,5.87,1.63,6,4,.07,1.75-2.63,3.12-5,4.31C480.51,606.92,473.78,608.81,472.28,606.57Z"/>
    <path class="cls-9"
          d="M511.7,606.57a10,10,0,0,1,2.22-4.44,10.22,10.22,0,0,1,5.28-3.19,10.66,10.66,0,0,1,5.28.13,9.6,9.6,0,0,1,7.19,8.19,8.46,8.46,0,0,1-1.11,6.11,6.76,6.76,0,0,1-2.78,2.36,7.6,7.6,0,0,1-2.63.56,22.06,22.06,0,0,1-7.36-.28,8.79,8.79,0,0,1-3.33-1.11,7.87,7.87,0,0,1-2.91-5.4A9.21,9.21,0,0,1,511.7,606.57Z"/>
    <path class="cls-9"
          d="M525.31,605.19a7.19,7.19,0,0,1,2.09-2.22c3.44-2.22,8.28-.33,10.79,1.38a11.28,11.28,0,0,1,4.16,5,6.05,6.05,0,0,1,.41,4.58,4.8,4.8,0,0,1-1.8,2.22c-1.14.74-2.49.68-5.13.56-3.14-.15-4.71-.19-5.55-.28-3.83-.39-5.75-.58-6.38-1.25C521.86,613,523.3,608.09,525.31,605.19Z"/>
    <path class="cls-9"
          d="M536.41,609.07a5.65,5.65,0,0,1,4.44-4.16c2.38-.61,2.95.42,4.86,0s2.9-1.66,4.72-3.75c2.45-2.81,2.94-4.72,3.75-4.58s1,1.8,1.38,4.86c1.42,10.68.41,5.53,1.11,9.16.2,1,.49,2.4-.28,3.47a3.4,3.4,0,0,1-1.66,1.11,24.05,24.05,0,0,1-5.28,1.53,33.32,33.32,0,0,1-5.28.28c-5.1-.06-7.65-.09-8.47-1.25C534.68,614.28,535.46,611.94,536.41,609.07Z"/>
    <path class="cls-11"
          d="M557.79,432.78c2.18.54,3.07,3.35,3.19,3.75a5.4,5.4,0,0,1,0,3.75,5,5,0,0,1-3.06,2.91c-2.63.61-6.15-2-6.11-5.28S555.29,432.15,557.79,432.78Z"/>
    <path class="cls-25"
          d="M507.4,348a18,18,0,0,0-7.08,3.33c-2.2,1.74-3.33,3.52-5,6.11-3.8,5.88-5.7,8.82-7.19,10.79-1.93,2.56-1.54,1.62-10.13,11.24-2.31,2.58-3.11,3.52-5,5.55a34.24,34.24,0,0,0-2.91,3.19c-2.25,3.37-1.61,7.54-1.11,10.55.72,4.33,1.62,9.77,5.28,11.94,5.94,3.53,15.76-3.55,17.77-5C511.23,391.86,508.26,356.31,507.4,348Z"/>
    <path class="cls-25"
          d="M495.88,398.08c1.17,1.08-2.05,7.19-6.38,11.52a34.36,34.36,0,0,1-6.66,5c-2.95,1.8-4.5,2.77-6.94,3.19a15.44,15.44,0,0,1-8.19-1,17.8,17.8,0,0,1-7.08-4.72c-2.09-2.36-2.82-4.58-3.88-7.77-.31-.9-3.09-9.3-1.11-10.41,1-.58,2.24,1.44,6,1.94a8.33,8.33,0,0,0,4.16-.28,8.17,8.17,0,0,0,4.31-4c1.8-4.11-1-8.7,0-9.16.37-.17.9.39,2.09,1.38,2.36,2,2.78,1.8,4.86,3.47s5.29,4.15,6.94,7.91"/>
    <path class="cls-12"
          d="M462.29,377.25a7.29,7.29,0,0,1,3.47,1.38,8.67,8.67,0,0,1,3.33,8.19,11.19,11.19,0,0,1-1.94,5.13,6.83,6.83,0,0,1-3.06,2.36,7,7,0,0,1-5.28.13c-2.47-.84-3.32-2.5-4.16-2.09s-.9,2-.41,3.19c.79,2.12,3.39,2.87,5,3.33A9.54,9.54,0,0,0,469.64,396a10.91,10.91,0,0,0,2.63-6.11,12.59,12.59,0,0,0-.56-5.28,10.79,10.79,0,0,0-1.94-3.75C467,377.52,462.29,377.26,462.29,377.25Z"/>
    <path class="cls-9"
          d="M464,379.32c.26-.77-1-1.93-2.22-3.06a9,9,0,0,0-3.47-2.22,11.27,11.27,0,0,0-3.88-.28,40.22,40.22,0,0,0-4.58.41c-3.6.41-3.68.48-4.86.56a20.8,20.8,0,0,1-4.72,0c-2.8-.41-3.1-1.37-6-1.66a5.78,5.78,0,0,0-3.75.41,5.13,5.13,0,0,0-2.22,3.19c-.9,3.42,1.94,6.25,2.09,6.38a9.89,9.89,0,0,0,3.88,2.09,13.92,13.92,0,0,0,4.31,1,12.85,12.85,0,0,0,5-.84c8.17-2.82,8.9-4.65,13.33-5.28C460.72,379.49,463.58,380.39,464,379.32Z"/>
    <path class="cls-9"
          d="M461.17,378.5a7.67,7.67,0,0,1,3.75.84,8.21,8.21,0,0,1,3.19,3.33,8.7,8.7,0,0,1,1.38,4.58c0,3.33-2.4,5.62-3.47,6.66s-1.28.9-4.72,3.06c-5.4,3.35-5.69,4-7.5,4.31a10.2,10.2,0,0,1-6.66-1.8,12.79,12.79,0,0,1-5.83-8.19,11,11,0,0,1,1-7.63C445.28,378.51,452.4,378.5,461.17,378.5Z"/>
    <path class="cls-9"
          d="M444.24,383.82c-1.55-.57-3.89,2.09-5.13,3.47a19.55,19.55,0,0,0-3.47,6,17.44,17.44,0,0,0-1.66,6.11,7.4,7.4,0,0,0,1,5,3.79,3.79,0,0,0,2.5,1.8c1.65.13,3-1.74,4.16-3.47a23.58,23.58,0,0,0,3.75-8.88C445.81,391,446.37,384.56,444.24,383.82Z"/>
    <path class="cls-9"
          d="M450.48,386c-2.25-.59-4.35,1.41-6.66,3.6a21.38,21.38,0,0,0-5.28,8.19,21,21,0,0,0-1.11,6c-.12,2.91.44,4,.84,4.58a4.12,4.12,0,0,0,2.36,1.8,4.62,4.62,0,0,0,3.6-1,9.24,9.24,0,0,0,3.06-3.88c2.32-4.5,2.14-5.29,3.75-8.33,1.92-3.6,3-4.07,2.91-6C453.89,388.92,452.48,386.52,450.48,386Z"/>
    <path class="cls-9"
          d="M458.82,397c-.61.56-1.44,1.35-2.36,2.36a33.72,33.72,0,0,0-3.33,4.16,30.34,30.34,0,0,1-2.63,3.88,7.8,7.8,0,0,1-1.94,1.66,5.14,5.14,0,0,1-2.22.84,4.5,4.5,0,0,1-3.47-1.53c-2.19-2.54-.66-10,4.44-12.77C450.73,393.71,455.23,394.35,458.82,397Z"/>
    <path class="cls-25"
          d="M509.2,347.13a19.58,19.58,0,0,0-8.88,4.58A25.93,25.93,0,0,0,495,360a47.12,47.12,0,0,0-2.36,6.94,123.76,123.76,0,0,0-2.78,12.21,215,215,0,0,0-2.5,27.07s-.41,9.38-.28,20.55c.11,8.66.51,14.25.84,15.4a3.6,3.6,0,0,1,.13,1.25,5.56,5.56,0,0,1-.56,1.8c-.55,1.27-.77,1.38-.69,1.8.11.57.66.9,1.11,1.25.8.55,1.31.49,1.38.84s-.18.44-1,1.25c-1.14,1.17-1.33,1.45-1.38,1.8a2,2,0,0,0,.28,1.25,3.73,3.73,0,0,0,1.94,1.66,6.76,6.76,0,0,0,3.6.41c2-.22,2.51-.72,5.69-1.66a17.78,17.78,0,0,1,4.44-1,20.88,20.88,0,0,1,4.16.41,31.9,31.9,0,0,0,6.38-.13c5-.37,8.61-.84,8.61-.84s6.41-.81,13.33-1.53C547.11,449.59,553,449,553,449c.9.12,4.59.67,6.11-1.11a6.52,6.52,0,0,1,1.25-1.38c1.19-.9,2-.7,2.63-1.38.76-.9.41-2.28.28-2.91-.6-2.9.27-5.93.13-8.88-.29-6.64,2.13-28.86,3.19-38.32,0,0,3.19-28.34,1.66-39.57-.22-1.59-1-3.88-1.38-7.08a4.66,4.66,0,0,0-.41-1.53c-.6-1.27-1.69-1.94-3.19-2.78C561,342.8,559.2,342,559.15,342c-3.27-1.44-3.92-1.92-5.55-2.63A32,32,0,0,0,543.19,337C532.85,336.08,528.09,341.72,509.2,347.13Z"/>
    <path class="cls-12"
          d="M512.26,344.63a10.79,10.79,0,0,0-1.53,3.6,9.62,9.62,0,0,0-.13,2.09,17.24,17.24,0,0,0,2.09,7.19c1.25,2.48,1.53,3.06,2.5,3.75-.41-8.09,5.7-16.19,6.8-16s3.47,11.24,2.22,16.38c2.09-.13,10.22-2.19,22.77-14.16,3.06-2.91,6.8-7.91,6.66-9.3-.31-3.1-.07-6.22-2.5-8.47C541.48,320.87,514.35,341.55,512.26,344.63Z"/>
    <path class="cls-25"
          d="M564.17,345.33a9.06,9.06,0,0,1,3.47,2.22,18.62,18.62,0,0,1,4.16,6.25c.5,1.31,2.7,5.64,7.08,14.3.36.7,3.35,5.48,9.3,15a89.31,89.31,0,0,1,6.94,12.77,32.06,32.06,0,0,1,2.36,7.19,21.44,21.44,0,0,1,0,9.89c-.58,2.22-1.56,6-5,8.33a11.63,11.63,0,0,1-7.08,1.8c-5.45-.29-9.23-4.12-16.38-11.38a71.49,71.49,0,0,1-6.11-7.08c-.9-1.2-1.8-2.41-2.91-4.16-2-3.26-1.91-3.92-3.6-6.25a26.41,26.41,0,0,0-4-4.31,12.59,12.59,0,0,0-3.47-2.36"/>
    <path class="cls-25"
          d="M593.53,420.5c-1,1.24-3,2.25-5.06,3.4a86.76,86.76,0,0,1-8.33,3.75c-2.37,1-1.88.9-4.31,1.94-7,3.06-6.87,2.4-11.11,4.44a28.66,28.66,0,0,1-6,2.36,16.93,16.93,0,0,1-2.91.56,13.49,13.49,0,0,1-8.33-2.36c-3.33-2.36-6.29-6.94-5.4-11.11.33-1.48,1-2.22,2.91-4.58,6.66-8.23,5.19-7.54,8.33-10.79,2.74-2.87,6-6.29,11.38-8.88a24.42,24.42,0,0,1,10.69-2.91"/>
    <path class="cls-9"
          d="M538.77,428.34a12.59,12.59,0,0,0-3.75,4.58,17,17,0,0,0-1.53,7.19,13.65,13.65,0,0,0,.41,4.72,17.82,17.82,0,0,0,1.53,3.47,15.38,15.38,0,0,0,1.94,3.19c1.5,1.68,3.4,2.16,5.83,2.78a21.26,21.26,0,0,0,6.66.56,15.9,15.9,0,0,0,5.4-1.11,11.79,11.79,0,0,0,5.28-3.88,10.79,10.79,0,0,0,2.09-5.55c.1-1.44.3-4.36-1.53-5.83-1.58-1.28-4-.9-6.53-.41-1.8.31-2.33.69-3.19.84-3.92.66-9-3-9.89-6.94-.46-2.19.45-4.13-.41-4.58C540.52,427,539.62,427.74,538.77,428.34Z"/>
    <path class="cls-12"
          d="M543.14,421.47c-.52-.1-1,.76-2.63,2.09-2,1.64-3.07,1.8-3.82,3.54a3.78,3.78,0,0,0-.28,1.11c-.44,3.2,1.8,6.09,2.22,6.66,1.29,1.63,3,2.52,6.38,4.31a17.47,17.47,0,0,0,4.31,1.66,9.83,9.83,0,0,0,4.16,0,2.8,2.8,0,0,0,1.11-.56c.52-.44.57-1.06.84-1.25,1.46-1,3.25-1.8,3.19-2.22a20.75,20.75,0,0,1-5.13-.56c-.22,0-5.4-1.11-7.91-5C542.83,427.06,542.52,422.93,543.14,421.47Z"/>
    <path class="cls-11" d="M489.08,448.88a12.89,12.89,0,0,0,2.22,1,10.29,10.29,0,0,0,3.19.41"/>
    <path class="cls-9"
          d="M501.71,275.37c-.64-.56-1.54.15-4.31-.56a30.48,30.48,0,0,1-3.33-1.25,28.61,28.61,0,0,0-4.72-1.53,16.38,16.38,0,0,0-6-.13c-.74.17-1.48.26-2.22.41a4,4,0,0,1-1.25.13,2.36,2.36,0,0,1-1.53-.56c-.68-.71-.23-1.8-.56-1.94s-.94.76-1.11,1.66a2.33,2.33,0,0,0,.41,1.94,2.46,2.46,0,0,0,.69.56,6.53,6.53,0,0,0-2.78,2.36c-1.54,1.92-1.92,6.56-1.94,6.8a20.27,20.27,0,0,0,.41,5.4,17.09,17.09,0,0,0,1.94,5.28c.9,1.51,1.54,2.7,2.91,3.47s2.8.9,2.78,1.25-1.05.52-1.66.56a2.7,2.7,0,0,1-1.53-.28c-.63-.36-.83-.9-1-.84s.12,1.32.13,1.38a6.5,6.5,0,0,0,1.25,2.63,6.29,6.29,0,0,0,2.22,1.66,7.69,7.69,0,0,0,3.33.56c3.65-.25,8.17-8.09,10.13-11.52C500.73,281.14,503.05,276.55,501.71,275.37Z"/>
    <path class="cls-9"
          d="M514.34,271.62c.08-.38,1.69,0,4.16-.84.61-.21,1.88-.68,5-3.06,3.65-2.78,3.44-3.29,6-4.86a15.88,15.88,0,0,1,5.13-2.22,10,10,0,0,1,3.75-.28,9.9,9.9,0,0,0,1.8.13,3.25,3.25,0,0,0,1.25-.13,1.88,1.88,0,0,0,1.11-.84,1.8,1.8,0,0,0,.13-1.25c-.21-.78-.9-1.12-.84-1.25s.84.12,1.53.56a4.63,4.63,0,0,1,1.8,1.94,6.05,6.05,0,0,1,.41,1.53,33.4,33.4,0,0,1,4.44,4c1.56,1.63,2.1,3.6,2.78,6a21.79,21.79,0,0,1,.69,8.09,14.48,14.48,0,0,1-.84,3.88,6.44,6.44,0,0,1-1.25,2.36c-.9,1-2,1.38-1.94,1.66s.74.16,1.11.13a3.1,3.1,0,0,0,1.8-.56c.78-.63.73-1.55,1-1.53.4,0,.54,2.46.56,2.78a6.89,6.89,0,0,1-.13,2.63,5.25,5.25,0,0,1-1.66,2.36,5.88,5.88,0,0,1-2.78,1.38,6.29,6.29,0,0,1-4-.84c-4.8-2.57-9.56-11.34-16-16C522.54,272.55,514.17,272.46,514.34,271.62Z"/>
    <path class="cls-13"
          d="M472.84,320.48c.13,0,.31.66,1.11,1.25a4.08,4.08,0,0,0,1.94.69,4.26,4.26,0,0,0,2.36-.13,3.92,3.92,0,0,0,1.8-1.53,5.3,5.3,0,0,0,.84-2.78c.2-4.5.3-6.7.28-9.72,0-.12,0-3,.28-6.11a43.16,43.16,0,0,1,1.8-9.44,31.47,31.47,0,0,1,10.41-14.86,33.54,33.54,0,0,1,7.63-4.31,48.77,48.77,0,0,1,11.94-3.33c3.7-.57,6.68-1,10.69-.41a27.67,27.67,0,0,1,8.88,2.91,30,30,0,0,1,9.16,7.91,58.9,58.9,0,0,1,6.11,9.3c3.75,6.56,4,7.08,4,7.08s.64,1.22,2.63,4.31a9.4,9.4,0,0,0,2.09,2.5,7.77,7.77,0,0,0,2.63,1.38,6.22,6.22,0,0,0,2.63.28,4.3,4.3,0,0,0,2.5-1c.71-.65.76-1.29,1-1.25.4.07.4,2.47,0,4.72a19.16,19.16,0,0,1-.84,3.06,22.48,22.48,0,0,1-2.5,4.86A15,15,0,0,1,560,318.8a13.79,13.79,0,0,1-3.33,2.36c-1.38.69-2.37.9-2.36,1a10,10,0,0,0,3.33-1.11,7.59,7.59,0,0,0,2.22-1.53c.7-.73.9-1.31,1.11-1.25s.09,1.8-.28,3.19a17.58,17.58,0,0,1-2.09,4.72,30.57,30.57,0,0,1-3.88,5.13,31.89,31.89,0,0,1-4.16,3.75,31.12,31.12,0,0,1-5.83,3.47c-3,1.34-3.75,1.07-7.19,2.22a53,53,0,0,0-8.75,4c-5.66,3-8.75,4.72-8.75,4.72a16.19,16.19,0,0,1-4.86,1.94,14.74,14.74,0,0,1-4,.28,10.89,10.89,0,0,1-3.06-.56c-.82-.3-1.33-.62-4.16-2.78-2.58-2-2.74-2.15-3.47-2.5a16.34,16.34,0,0,0-3.88-1.11c-2.7-.58-2.93-.39-4.86-.84a14.84,14.84,0,0,1-5-1.8,13.71,13.71,0,0,1-3.75-3.6,24.28,24.28,0,0,1-1.8-2.91c-1.3-2.34-1.86-3.16-1.66-3.33s.26,0,1.11.41a10.88,10.88,0,0,0,1.8.69,4.44,4.44,0,0,0,2.09,0,6.29,6.29,0,0,1-1.25,0,6.4,6.4,0,0,1-1.66-.41,11.89,11.89,0,0,1-2.78-1.53,17,17,0,0,1-5-6.25C472.81,322.83,472.59,320.56,472.84,320.48Z"/>
    <path class="cls-1"
          d="M475.61,323.25c.28-.24.66.19,1.8.13a5,5,0,0,0,3.06-1.25c.73-.67,1.16-1.56,1.53-3.6a33.85,33.85,0,0,0,.28-7.91c-.05-1.53-.13-4.06-.13-5.4a39.14,39.14,0,0,1,1.38-10.55,34.59,34.59,0,0,1,8.61-14,10.79,10.79,0,0,1,4.31-2.5,4.13,4.13,0,0,1,2.91-.13,5.78,5.78,0,0,1,2.36,2.63c.35.73.43,1.23.69,1.25.45,0,.8-1.35,1.11-2.09,1.14-2.7,4.65-3.71,7.63-4.58a26.92,26.92,0,0,1,9.58-.84,29.15,29.15,0,0,1,11.11,3.19,29.68,29.68,0,0,1,8.61,7.19,53.41,53.41,0,0,1,8.47,13.49,33,33,0,0,0,3.88,6.25,6.42,6.42,0,0,0,1.38,1.38,7.4,7.4,0,0,0,3.33,1.25,7.85,7.85,0,0,0,3.06,0c2.12-.46,3-1.72,3.47-1.38s-.13,2.33-.56,3.47a20.3,20.3,0,0,1-3.06,5.83,14.39,14.39,0,0,1-4.16,4.16c-3.77,2.24-7.82,1.37-7.91,2.22,0,.46,1.12,1,2.09,1.38a8.61,8.61,0,0,0,2.78.69c3.21.17,5.24-2.37,5.69-1.94s-1.8,4.88-6,8.19a30.63,30.63,0,0,1-5.13,3.19c-2.5,1.31-3.72,1.65-6.66,2.91-.16.07-3.67,1.57-7.5,3.6-2.81,1.49-3.23,1.91-10.13,6-4.13,2.43-4.84,2.79-6,3.19-2.23.8-5.35,1.87-8.75.84a14,14,0,0,1-4.16-2.22c-1.8-1.35-1.8-1.93-3.47-3.06a14.16,14.16,0,0,0-4.72-1.94c-2-.47-2.23-.14-4.16-.56a16.72,16.72,0,0,1-5-1.94c-3.17-1.9-5.3-4.78-5-5.13.13-.15.6.29,1.94.56a4.37,4.37,0,0,0,2.91-.13c.13-.06,1.19-.59,1.11-1.11s-1.73-.67-3.75-1.25a16.67,16.67,0,0,1-4.58-2.09C476.49,328.29,474.88,323.94,475.61,323.25Z"/>
    <path class="cls-14"
          d="M483.8,320.21a5.21,5.21,0,0,0-.13,2.09,6.38,6.38,0,0,0,2.22,3.6,8.53,8.53,0,0,0,3.33,2.09,8.09,8.09,0,0,0,4.72.13c3.84-1.17,5.69-5.73,6-5.55a17.54,17.54,0,0,1-.84,2.91c-.22.76-.24.94-.13,1.11.4.58,1.92-.17,4.44-.56,3.06-.47,4.74,0,5.13-.84a6,6,0,0,0-.28-2.09c-.24-1.22-.41-1.73-.28-1.8s.78.72,1.25,1.25c1.21,1.38,2.63,1.92,4.58,2.63a13.34,13.34,0,0,0,7.08,1.11,10.48,10.48,0,0,0,5.69-2.63,8.71,8.71,0,0,0,2.63-4.16,15.38,15.38,0,0,0,0-4.44c-.25-3.53-.67-4-1-4.31-.61-.55-1.48-.6-3.19-.69a39.3,39.3,0,0,0-4,.13,11.14,11.14,0,0,1-5.28-1.53,25.18,25.18,0,0,1-6.25-4.86c-.57-.64-1.27-1.5-2.09-1.38s-1.11.84-1.66,1.8a11.12,11.12,0,0,0-1.25,3.47c-.24,1.29-.08,1.56-.41,2.91-.21.84-.51,2.07-1,2.09s-.85-1.14-1-1.53a18.28,18.28,0,0,1-.41-2.63,7.89,7.89,0,0,0-1.11-2.36c-1-1.69-1.49-2.54-2.36-2.78-.33-.09-1-.16-2.63.84a16.69,16.69,0,0,0-4.44,4c-.81,1-1,1.25-3.19,4.44S484.39,317.72,483.8,320.21Z"/>
    <path class="cls-9"
          d="M484.77,319.23a6.49,6.49,0,0,0,.41,2.36,6.66,6.66,0,0,0,2.63,3.19,7.1,7.1,0,0,0,4.31,1,9,9,0,0,0,4.72-1.66,9.89,9.89,0,0,0,3.47-4.31,11.14,11.14,0,0,0,.69-5.28,9.47,9.47,0,0,0-1.38-5.28,5.48,5.48,0,0,0-3.06-2.5c-2-.47-3.77,1-5.69,2.5C490.17,309.83,484.77,314.24,484.77,319.23Z"/>
    <path class="cls-1"
          d="M491.58,316.73a2.91,2.91,0,0,0-.28,1.66,3.06,3.06,0,0,0,1.25,1.94,3.66,3.66,0,0,0,2.36.69,4.21,4.21,0,0,0,2.36-.84,2.91,2.91,0,0,0,1.25-1.38,3.3,3.3,0,0,0-.69-2.78,3.6,3.6,0,0,0-1.94-1.66C494.16,313.88,492.25,315.25,491.58,316.73Z"/>
    <path class="cls-9"
          d="M506.29,307.85A13.15,13.15,0,0,0,506,312a12.34,12.34,0,0,0,1.8,6.11,10.7,10.7,0,0,0,2.5,2.63,11.86,11.86,0,0,0,5,2.09,11.69,11.69,0,0,0,5.4.13,7.19,7.19,0,0,0,3.47-1.66,6.29,6.29,0,0,0,1.66-2.5,8.7,8.7,0,0,0,.28-3.06c0-1.94,0-2.93-.56-3.47s-.9-.5-2.78-.56c-3.23-.08-3.78.15-5.28,0a13.35,13.35,0,0,1-4.31-1.25,12.46,12.46,0,0,1-4.31-3.06c-.75-.9-1.16-1.62-1.66-1.53C507.14,305.93,506.7,306.05,506.29,307.85Z"/>
    <path class="cls-1"
          d="M511.7,316.87c-.18-.61,1.2-1.5,1.66-1.8a6.3,6.3,0,0,1,2.78-1,7,7,0,0,1,2.63.28c.65.17,2.51.65,2.5,1.25,0,.42-.9.73-2.09,1.11a12.45,12.45,0,0,1-3.19.69C515.34,317.48,512,317.76,511.7,316.87Z"/>
    <path class="cls-16"
          d="M518.37,334.5c-1.31.63-2.05,1.74-3.19,2.63a43.4,43.4,0,0,1-4.58,3.6c-.9.54-1.74,1-2.5.69a2.34,2.34,0,0,1-.9-.9c.15-.32.33-.67.52-1a12.59,12.59,0,0,1,3.06-3.75,14.65,14.65,0,0,1,2.7-1.8c2.08,0,1.32.05,1.34.28S516,334.23,518.37,334.5Z"/>
    <path class="cls-15"
          d="M512.39,333.95h1a14.65,14.65,0,0,0-2.7,1.8,12.59,12.59,0,0,0-3.06,3.75c-.19.36-.37.69-.52,1v0c-.55-.81-.38-1.15-.84-1.94-.56-1-1.05-.9-1.25-1.53-.34-1.09.84-2.36,1-2.5C507.56,332.84,505.56,333.93,512.39,333.95Z"/>
    <path class="cls-11"
          d="M513.41,333.95h-1c-6.83,0-4.84-1.11-6.38.56-.13.13-1.31,1.41-1,2.5.2.62.69.57,1.25,1.53.46.8.29,1.13.84,1.94v0a2.27,2.27,0,0,0,.9.9c.76.31,1.64-.15,2.5-.69a43.4,43.4,0,0,0,4.58-3.6c1.14-.9,1.88-2,3.19-2.63-2.36-.28-3.6-.07-3.6-.28S515.49,334,513.41,333.95Z"/>
    <path class="cls-11" d="M507.15,340.52c.15-.32.33-.67.52-1a12.59,12.59,0,0,1,3.06-3.75,14.65,14.65,0,0,1,2.7-1.8"/>
    <path class="cls-12"
          d="M498.26,333.8a5.22,5.22,0,0,0,1.11,2.09,5.4,5.4,0,0,0,2.91,1.66,6.15,6.15,0,0,0,4.16-.56,6.29,6.29,0,0,0,2.22-1.94"/>
    <path class="cls-14"
          d="M525,333.39c0,.06.58.1.84.56a1.42,1.42,0,0,1,0,1.11c-.28.84-.9,1.12-.84,1.25a2.08,2.08,0,0,0,1.8-1,1.47,1.47,0,0,0,.28-1.25C526.77,333.23,525.06,333.29,525,333.39Z"/>
    <path class="cls-1"
          d="M514.77,332a2.61,2.61,0,0,0-.69,1.61,2.12,2.12,0,0,0,.9,1.71,2.46,2.46,0,0,0,2.51.17,2.33,2.33,0,0,0,1.25-1,2.09,2.09,0,0,0-2.35-3.06,2.54,2.54,0,0,0-1.25.72,2.1,2.1,0,0,0-.43,2.28,2.06,2.06,0,0,0,1.91,1.28,4.34,4.34,0,0,0,1.12-.19,2.09,2.09,0,0,0-1.11-4,2.89,2.89,0,0,0-1.66,1.26,2.08,2.08,0,0,0,.16,2.31,2.14,2.14,0,0,0,2.19.75,4,4,0,0,0,.58-.14l-2-3.48-.32.26a2.09,2.09,0,0,0,2,3.48,3.51,3.51,0,0,0,.78-.37l-2.85-2.85h0l.75-.75a2.26,2.26,0,0,0-1.11,1.92,2.16,2.16,0,0,0,1.53,2,2.1,2.1,0,0,0,1.16,0c.21-.05.84-.34.44-.18s.12,0,.15,0c.4-.13-.44,0,0,0a2.09,2.09,0,0,0,0-4.16,5.77,5.77,0,0,0-1.11.15l-.27.09c-.16.05-1.11.4-.31.13h1.05l1.53,2v0l-.61,1.47q-.72.54.08-.07.19-.22.36-.47a2.09,2.09,0,0,0-.32-2.53,2.11,2.11,0,0,0-2.53-.32q-.27.18.22-.05l2,3.48.32-.26a2.09,2.09,0,0,0,.32-2.53,2.13,2.13,0,0,0-2.35-1,4,4,0,0,1-.58.14l2.35,3.06a1.52,1.52,0,0,1-.83.66l-1.11-4c-.17.05-.53.08,0,0l1.47,3.6-.59.35-1.11-4-.31.12c-.21.06-.43,0,.17,0l1.47.61h0l.61,1.47v-.06l-.61,1.47.08-.11a2.28,2.28,0,0,0,.61-1.47A2.08,2.08,0,0,0,514.9,332Z"/>
    <path class="cls-12"
          d="M503.93,329.09a7.93,7.93,0,0,0,.41,2.91,7.12,7.12,0,0,0,6.8,5,9.2,9.2,0,0,0,4-1,22.28,22.28,0,0,1,3.19-1.53,4.5,4.5,0,0,1,2.78-.13,1.63,1.63,0,0,1,1.11.84,1.27,1.27,0,0,1,0,.84"/>
    <path class="cls-9"
          d="M498.93,327.17a2.74,2.74,0,0,0,.28,1.11,3.09,3.09,0,0,0,.84,1.11c.4.31,1,.49,2.36.41a23.74,23.74,0,0,0,3.47-.56c1.9-.35,2.36-.38,3.06-.84a2.75,2.75,0,0,0,1.25-1.38,2.64,2.64,0,0,0-.84-2.78,3.15,3.15,0,0,0-2.09-.56,13.16,13.16,0,0,0-7.19,1.53A2.45,2.45,0,0,0,498.93,327.17Z"/>
    <path class="cls-1"
          d="M500.46,327c.09.22.4.35,1.66.41a11.5,11.5,0,0,0,3.33-.13c1.2-.25,2-.43,2.36-1.11a1.29,1.29,0,0,0,.13-1.11c-.35-.65-1.66-.49-3.6-.28-2.18.24-2.87.66-3.33,1.11C500.88,326,500.3,326.61,500.46,327Z"/>
    <path class="cls-17"
          d="M544.95,421.33c.62-1.8,1.87-1.92,4.16-4.16s2.1-3,4.44-6.25a31.94,31.94,0,0,1,7.77-7.91,29.93,29.93,0,0,1,8.19-3.88,35.43,35.43,0,0,1,6.25-1.38,27,27,0,0,1,5.83-.28c2,.13,3.26.49,3.33.28s-2.16-1.38-4.31-2.09a19.73,19.73,0,0,0-7.36-1.25,14.57,14.57,0,0,0-6.66,1.53c-2.17,1.14-3.43,2.63-3.75,2.36s.34-1.51,1.11-2.5c1.75-2.26,4.12-2.78,4-3.06s-2.42-.23-4.44,1.11c-1.33.9-1.64,1.74-2.36,1.66-.9-.1-1.25-1.47-2.09-3.33-1.1-2.45-1.17-1.6-3.6-6-.68-1.22-1.47-2.81-3.06-6-1.38-2.76-2.07-4.14-2.22-4.58-1-3-.72-5.52-.28-9a33.69,33.69,0,0,1,3.33-11.11,17,17,0,0,1,4.16-5.55c1.32-1.11,2.7-2.25,4.58-2.22,2.07,0,3.6,1.47,4.72,2.63a18.39,18.39,0,0,1,4.31,7.08c.46,1.3,2.35,5.49,6.11,13.88,3.31,7.37,5,11.06,7.5,14.16a100.2,100.2,0,0,1,6.94,9.16c2.62,3.93,2.46,4.35,2.36,4.44-.33.28-2-1.43-3.75-2.78-6.38-5-13.95-5.76-14-5.55a37.24,37.24,0,0,1,7.5,3.47,30.69,30.69,0,0,1,6.38,5.4c2.06,2.28,3.08,3.43,3.19,4.86.08,1.08-.18,3.27-5.28,7.36-3.65,2.92-6.54,4.22-11,6.38-10.94,5.34-16.4,8-17.36,8.61-3.32,2.05-6.42,4.29-9.72,3.33A7.19,7.19,0,0,1,546.6,428C545.15,426.3,544.12,423.6,544.95,421.33Z"/>
    <path class="cls-17"
          d="M503.72,353.45c-2.52.9-3.91,3.08-4.86,4.72a44.13,44.13,0,0,0-4.72,11,188.41,188.41,0,0,0-3.47,20.13c-1.07,10.4-1.6,15.75-1.11,23.18.54,8.24,1.86,12.45,4,16.11a24.08,24.08,0,0,0,5.55,6.66c6.13,5,13.33,5.46,13.18,6.11-.08.41-3,.16-4.86,0-4.26-.37-6.4-.56-8.09-1.25-5.28-2.22-6.71-8-7.91-7.5-1,.4-.61,4.71-.41,6.8s.59,3.83-.41,5.13c-.69.9-1.56,1-1.53,1.53s1.07.9,4.44,1.66a44.25,44.25,0,0,0,7.77,1.38c2.56.11,4.28-.19,4.31,0s-2,.47-5.13,1.38c-4,1.16-4.15,1.69-6.11,1.8-2.64.15-4.5-.68-4.72-.13-.16.38.53,1.12,1.25,1.53s1.73.67,4.86-.28c2.7-.81,2.63-1.26,4.72-1.8a19.39,19.39,0,0,1,4.86-.56,31.89,31.89,0,0,1,4.72.28c3.39.36,6-.13,11.24-1.11,3.8-.71,9.24-2,9.16-2.5s-4.44.33-10.55.41c-10.55.14-18.77-1.8-18.74-2.09s4.44.78,10.79,0a30.64,30.64,0,0,0,12.77-4c4.84-2.94,8.45-7.34,7.91-8.09-.4-.52-2.7,1.32-6.38,2.36-8.34,2.32-16.78-1.43-16.65-2.22.07-.49,3.39.52,8.61-.56,5-1,8.3-3.27,13.33-6.66,4.5-3.06,7.63-5.15,10.69-9.16a47.51,47.51,0,0,0,4.86-8.47c1.74-3.51,3.73-8.17,3.19-8.47-.39-.22-1.5,2.09-4.31,4.31-3.37,2.7-7.73,4-8.33,3.19s2.33-2.7,5.28-7.63c2.7-4.5,3.87-8.88,3.33-9.16-.34-.18-1.13,1.44-3.47,2.91-1.73,1.09-3.88,1.8-4.16,1.38s2.39-2.09,4.16-5.55c.48-.9,1-2.18,1.53-5.83.74-4.88.49-6.88.84-11.11A43.67,43.67,0,0,1,546.82,363c2.1-6.67,5.64-9.89,4.86-10.69s-4.72,2-8.75,4.86c-5,3.51-4.78,4-8.88,6.66-5.25,3.44-4.38,1.9-9.58,5.28-1.4.9-3.33,2.24-4,1.66-.31-.26-.22-.78,0-2.5.55-4.27.41-4.5.28-4.58-.57-.31-2.57,1.41-3.6,3.75s-.47,3.66-1.25,4c-1.16.54-3.86-1.8-5.4-4.58a20.76,20.76,0,0,1-2.5-10c.05-1.29.26-2.58-.56-3.33C506.35,352.53,504.06,353.33,503.72,353.45Z"/>
    <path class="cls-17"
          d="M475.54,384.4c.31.61,1.53-.05,3.33.84,1.63.79,2.49,2.22,3.47,3.88C484,392,484.14,394,485,394c.14,0,.63-.06,1.38-1.94a16,16,0,0,0,1.11-6.11,57.68,57.68,0,0,1,.84-8.09c.9-5.45,2.7-8.09,2.09-8.47s-2.52,2.45-6.8,6.66C478.79,380.79,475,383.3,475.54,384.4Z"/>
    <path class="cls-17"
          d="M473.74,386.76c-.24.21.26.77.41,2.36a9.65,9.65,0,0,1-.56,4.16c-.62,1.68-1.22,1.8-1.25,2.78,0,.4.06,1.07,1.8,3.19a23.14,23.14,0,0,0,4.72,4.44c1.54,1.07,2.32,1.6,3.06,1.38,1.59-.46,1.91-3.53,1.94-3.88.36-3.45-1.54-6.23-2.91-8.19C478.21,389.1,474.35,386.25,473.74,386.76Z"/>
    <path class="cls-19"
          d="M430.28,375.24a3.66,3.66,0,0,0-1,2.5,5.4,5.4,0,0,0,2.09,4.16,7.55,7.55,0,0,0,4,1.66,10.39,10.39,0,0,0,4.72-.28c1.33-.4,4.77-1.72,4.72-3.33,0-1.13-1.8-1.85-5.13-3.19C435.44,375.06,432,373.68,430.28,375.24Z"/>
    <path class="cls-19"
          d="M446.67,381.9c-.61-1.13.45-2.74.84-3.33a7.32,7.32,0,0,1,3.06-2.5A9,9,0,0,1,456,375c1.27.16,2.89.25,3.19,1.11.49,1.33-2.49,3.5-4.16,4.72a9.45,9.45,0,0,1-4.16,2.09C450.52,382.92,447.47,383.39,446.67,381.9Z"/>
    <path class="cls-19"
          d="M454.19,385a8.48,8.48,0,0,1,1.94-3.06,8.7,8.7,0,0,1,3.6-2.5,5,5,0,0,1,3.47-.28,4.07,4.07,0,0,1,2.22,1.94c.84,1.8-.25,3.75-1.25,5.55a12.84,12.84,0,0,1-4.72,4.86c-1.53.9-2.4,1.4-3.33,1.11C454.07,391.91,453.18,387.88,454.19,385Z"/>
    <path class="cls-19"
          d="M434.59,401.76a6,6,0,0,1,0-4c2.38-7.84,3.44-9,4.44-9.72.26-.19,1.65-1.2,2.09-.84s-.22,1.56-1,3.33c-1.55,3.6-1.07,3-2.22,5.69-1.34,3.08-1.48,2.91-1.8,4.16-.28,1.06-.43,2.19-.84,2.22S434.68,402,434.59,401.76Z"/>
    <path class="cls-19"
          d="M438.48,406.62a4.5,4.5,0,0,1-.56-2.91,27.14,27.14,0,0,1,.84-5,31.37,31.37,0,0,1,3.06-7.19c1-1.66,2.16-3.53,3.19-3.33.68.13,1,1.12,1.11,1.38.46,1.37.11,2.85-2.22,7.08-2.7,4.88-3.43,5.08-3.75,7.19-.25,1.65-.12,3.48-.69,3.6C439.07,407.53,438.62,406.82,438.48,406.62Z"/>
    <path class="cls-19"
          d="M443.61,407.2c-.9-.45-.56-2.83-.41-3.75a17.72,17.72,0,0,1,1.25-4.16,30.74,30.74,0,0,1,3.06-5.69c.38-.57,1.8-2.65,2.09-2.5s-.23,1.1-1.11,3.47c-1.51,4.1-2.27,6.17-2.22,7.19.05,1.24.39,2.25-.13,3.6a2.81,2.81,0,0,1-1.38,1.66A1.39,1.39,0,0,1,443.61,407.2Z"/>
    <path class="cls-19"
          d="M535.65,433.82c-.11,0-.46.13-.84,3.06a19.73,19.73,0,0,0-.28,5.69,12.74,12.74,0,0,0,2.36,5.83,13.1,13.1,0,0,0,3.75,3.33c1.74,1.11,4.44,2.36,4.86,1.8.23-.31-.38-.9-1.53-2.78-1.75-2.81-2.63-4.21-2.78-5.69-.23-2.36,1.07-3.6.13-4.86-.41-.57-.84-.5-1.66-1C536.73,437.59,536.46,433.7,535.65,433.82Z"/>
    <path class="cls-19"
          d="M464.16,605.81c0-.25.1-3.15,2.22-4.44a6.44,6.44,0,0,1,3.19-.69c.67,0,1.51-.08,1.66.28s-.6.69-1,1.66c-.47,1.23.32,1.85-.13,2.63s-2.1.94-3.19,1A8.32,8.32,0,0,1,464.16,605.81Z"/>
    <path class="cls-19"
          d="M472.35,604.29a9,9,0,0,1,3.06-6.25,8.58,8.58,0,0,1,3.6-1.66c2.28-.53,4.77-.26,4.86.28.05.32-.84.4-1.8,1.38a6.76,6.76,0,0,0-1.66,3.6c-.4,2.13.31,2.62-.28,3.47-.9,1.34-3.44,1.29-5,.84A6.5,6.5,0,0,1,472.35,604.29Z"/>
    <path class="cls-19"
          d="M483.87,604.84c-1-1.32,0-3.53.69-5a6.8,6.8,0,0,1,2.36-3.19,7.19,7.19,0,0,1,4.16-1,10.1,10.1,0,0,1,4.72,1c.85.43,2.33,1.17,2.36,2.22,0,.56-.38.9-1.25,1.8-2.07,2.24-1.72,2.5-2.78,3.33a8.46,8.46,0,0,1-4.31,1.53C487.73,605.86,484.91,606.31,483.87,604.84Z"/>
    <path class="cls-19"
          d="M513.44,605.12c-.22-1.27,1.19-2.53,2.09-3.33A9.06,9.06,0,0,1,520,599.7a8.77,8.77,0,0,1,5.4.41,8.09,8.09,0,0,1,4,4c.31.76.79,1.91.28,2.78-.41.69-1.28.9-3.33,1.11-3.16.3-4.73.45-6.53.13S513.79,607.12,513.44,605.12Z"/>
    <path class="cls-19"
          d="M530.93,602.9c-.28.74,1.21,1.43,1.38,3.6.08,1-.18,1.33.13,1.8.15.22.63.77,3.6.69,2.31-.06,3.47,0,3.88-.41.9-1,.52-3.13-.41-4.44C537.31,601,531.42,601.57,530.93,602.9Z"/>
    <path class="cls-19"
          d="M541.34,605.12c-.28.47.56,1,.69,2.63.1,1.15-.26,1.38,0,1.94.63,1.35,3.31,1.26,3.75,1.25.9,0,2.78-.09,3.19-1.11.5-1.25-1.56-3-1.94-3.33C544.89,604.75,541.81,604.33,541.34,605.12Z"/>
    <path class="cls-17"
          d="M495,469.5c1.09,1.07,2,.48,4.44,1.38a14.94,14.94,0,0,1,5,3.47c2.61,2.41,3.81,4.58,4,4.44s-.6-1.49-1.94-4.44a39.46,39.46,0,0,1-2.09-5c-.9-3.5-.05-5.11-1.25-6-.49-.35-.82-.22-4.31.13s-4,.31-4.44.84C493.33,465.57,493.65,468.19,495,469.5Z"/>
    <path class="cls-17"
          d="M507.61,464.75c-.67,1.61.17,3.35.84,5,1.8,4.5,1.89,7.43,2.36,7.36.15,0,.22-.36.41-2.63.51-6.11.13-5.08.41-7.91.19-2,.4-2.7-.13-3.19a2.65,2.65,0,0,0-3.06.28A2.79,2.79,0,0,0,507.61,464.75Z"/>
    <path class="cls-17"
          d="M515.34,463.39c-.9,1.69-.18,2.91-.13,6.25,0,3.18-.6,5.23-.41,5.28s.79-2.09,1.53-4.72c1.31-4.71,1.23-5.13,1.94-6.38,1.62-2.86,3.88-3.89,3.6-4.31s-2.59.43-4.44,1.8A6.47,6.47,0,0,0,515.34,463.39Z"/>
    <path class="cls-17"
          d="M491.78,478c.21.29.9-.15,2.36-.28a10,10,0,0,1,3.6.41,29.67,29.67,0,0,1,2.78,1.11,10.9,10.9,0,0,0-3.19-2.22c-1.8-1-2.94-1.54-4-1.11S491.52,477.59,491.78,478Z"/>
    <path class="cls-17"
          d="M518.57,476.71A25.48,25.48,0,0,1,527,464.64a29.39,29.39,0,0,1,7.77-4.31c2.7-1.12,4-1.32,5.28-1.11,1.07.18,1.05.46,3.06,1.11,2.82.9,3.55.59,5,1.38a7.9,7.9,0,0,1,2.78,2.78,16,16,0,0,1,2.36,9.16,138.62,138.62,0,0,1-2.5,21c-1.74,9-2.7,16.38-3.19,20.13-.76,5.79-1.27,11-2.78,18.61-1.27,6.43-2.19,9.26-4,12.21-1.65,2.64-3.65,4.77-3.19,5.28.6.67,4.87-2.1,5.28-2.36,2.53-1.65,3.75-3,4-2.78s-.84,2.27-1.94,3.75c-1.46,1.93-2.64,2.7-2.5,2.91s2.27-.45,3.88-2.09c1.29-1.29,1.55-2.43,1.94-2.36.68.13.53,3.5.56,5.83.06,4.76.9,4.82,2.22,13.49,1.16,7.48.29,5.78,1.38,12.91.53,3.43-.08,6.94,0,10.41a3.37,3.37,0,0,1-.69,2.36,3.88,3.88,0,0,1-2.91,1c-4.86.06-9.72-.54-14.58-.28-1.47.08-3.31.27-3.88-.69-.46-.76.11-1.87.28-2.22,2.28-4.64,4.22-15.19,4.58-17.63.22-1.49,1.36-9.08-2.5-16a46,46,0,0,0-5.69-7.5c-2.78-3-4.63-4.11-6.25-7.36a20.54,20.54,0,0,1-1.66-5c-.65-3-.4-4.6-.56-7.77a59.87,59.87,0,0,0-1.11-8.09,137.59,137.59,0,0,1-1.53-17.63C515.34,487.23,517.7,479.26,518.57,476.71Z"/>
    <path class="cls-17"
          d="M555.5,461.59c-.77,3.06.71,4.41,1.8,9.89a45.55,45.55,0,0,1,.69,11.38,61.15,61.15,0,0,1-1.38,10.55c-2,10.13-4.54,14.81-3.33,15.55s4.44-2.7,6-4.58c3.13-3.78,4.28-7.54,5.4-11.38a42,42,0,0,0,2.09-13.33c0-2.63-.77-6-2.22-12.59-2.16-9.89-3-10.94-3.88-11.11C558.81,455.55,556.27,458.56,555.5,461.59Z"/>
    <path class="cls-17"
          d="M549.95,537.93a28.56,28.56,0,0,0,2.09-3.19,45.7,45.7,0,0,0,2.78-6.25,22.28,22.28,0,0,0-1.66,6.94,13.91,13.91,0,0,1-.69,4.31c-.41,1.2-.9,2.14-1.11,2.09s.65-2.31,0-2.78c-1-.69-4.72,3.07-4.86,2.91S548.14,540.29,549.95,537.93Z"/>
    <path class="cls-17"
          d="M492.2,482.41a9.11,9.11,0,0,1,3.88-.28c3.7.21,6.29,1.68,9.16,3.33,3.45,2,6.81,4.63,6.53,5.13-.13.22-.9-.15-2.91-.41-1.7-.22-3.83-.3-3.88,0s1.22.47,3.06,1.38c2.1,1,4.1,2.56,3.88,3.06s-2.45-.35-2.78.28,1.71,1.64,2.09,3.6a4.87,4.87,0,0,1-.84,3.33c-2.55,4.44-6.63,14.87-8.19,18.88-.9,2.19-3.83,10.18-6.11,18A11.2,11.2,0,0,1,493,544a10,10,0,0,1-7.77,2.63c-.76-.09-3.84-.49-5.55-2.91-.77-1.1-1.16-2.47-.84-6.94A92.13,92.13,0,0,1,480.54,526c.77-4.42.49-5,1.11-9.58.45-3.36.83-4.81,3.33-15.4C488.2,487.38,489,483.59,492.2,482.41Z"/>
    <path class="cls-17"
          d="M480,546.59c.32-.09.74,1.8,2.5,3.47.36.34,1.4,1.29,4.72,2.5,4.57,1.65,5.71,1,7.5,2.36.6.47,1.36,1.23,2.78,4.86a57.19,57.19,0,0,1,3.06,11c1,5.4.13,4.2,1.11,10.69.67,4.5,1.35,6.84-.13,9a6.45,6.45,0,0,1-2.78,2.22c-1.68.72-2.85.36-6.8-.28-5.65-.9-7.06-.79-7.63-1.94s.17-2.38.69-3.6c1.25-2.93,1.11-6,.84-12.21-.29-6.46-2.05-6.79-4.86-19.85C481,554.73,479.24,546.75,480,546.59Z"/>
</svg>